<?xml version="1.0" encoding="UTF-8" standalone="no"?>
<!DOCTYPE svg PUBLIC "-//W3C//DTD SVG 1.1//EN"
 "http://www.w3.org/Graphics/SVG/1.1/DTD/svg11.dtd">
<!-- Generated by graphviz version 2.43.0 (0)
 -->
<!-- Title: DirectionSelector.H Pages: 1 -->
<svg width="1363pt" height="319pt"
 viewBox="0.00 0.00 1363.00 319.00" xmlns="http://www.w3.org/2000/svg" xmlns:xlink="http://www.w3.org/1999/xlink">
<g id="graph0" class="graph" transform="scale(1 1) rotate(0) translate(4 315)">
<title>DirectionSelector.H</title>
<polygon fill="white" stroke="transparent" points="-4,4 -4,-315 1359,-315 1359,4 -4,4"/>
<!-- Node1 -->
<g id="node1" class="node">
<title>Node1</title>
<g id="a_node1"><a xlink:title=" ">
<polygon fill="#bfbfbf" stroke="black" points="874,-291.5 874,-310.5 984,-310.5 984,-291.5 874,-291.5"/>
<text text-anchor="middle" x="929" y="-298.5" font-family="Helvetica,sans-Serif" font-size="10.00">DirectionSelector.H</text>
</a>
</g>
</g>
<!-- Node2 -->
<g id="node2" class="node">
<title>Node2</title>
<g id="a_node2"><a xlink:href="_channel_flow_8cpp.html" target="_top" xlink:title=" ">
<polygon fill="white" stroke="black" points="499.5,-235.5 499.5,-254.5 598.5,-254.5 598.5,-235.5 499.5,-235.5"/>
<text text-anchor="middle" x="549" y="-242.5" font-family="Helvetica,sans-Serif" font-size="10.00">ChannelFlow.cpp</text>
</a>
</g>
</g>
<!-- Node1&#45;&gt;Node2 -->
<g id="edge1" class="edge">
<title>Node1&#45;&gt;Node2</title>
<path fill="none" stroke="midnightblue" d="M863.79,-291.09C798.91,-282.18 696.53,-267.96 608,-255 604.92,-254.55 601.76,-254.08 598.57,-253.61"/>
<polygon fill="midnightblue" stroke="midnightblue" points="863.49,-294.59 873.87,-292.48 864.44,-287.65 863.49,-294.59"/>
</g>
<!-- Node3 -->
<g id="node3" class="node">
<title>Node3</title>
<g id="a_node3"><a xlink:href="_field_plane_averaging_8_h.html" target="_top" xlink:title=" ">
<polygon fill="white" stroke="black" points="617,-235.5 617,-254.5 743,-254.5 743,-235.5 617,-235.5"/>
<text text-anchor="middle" x="680" y="-242.5" font-family="Helvetica,sans-Serif" font-size="10.00">FieldPlaneAveraging.H</text>
</a>
</g>
</g>
<!-- Node1&#45;&gt;Node3 -->
<g id="edge2" class="edge">
<title>Node1&#45;&gt;Node3</title>
<path fill="none" stroke="midnightblue" d="M879.58,-289.28C832.52,-279.08 762.63,-263.92 719.27,-254.52"/>
<polygon fill="midnightblue" stroke="midnightblue" points="879.03,-292.74 889.55,-291.44 880.51,-285.9 879.03,-292.74"/>
</g>
<!-- Node10 -->
<g id="node10" class="node">
<title>Node10</title>
<g id="a_node10"><a xlink:href="_second_moment_averaging_8_h.html" target="_top" xlink:title=" ">
<polygon fill="white" stroke="black" points="589,-179.5 589,-198.5 741,-198.5 741,-179.5 589,-179.5"/>
<text text-anchor="middle" x="665" y="-186.5" font-family="Helvetica,sans-Serif" font-size="10.00">SecondMomentAveraging.H</text>
</a>
</g>
</g>
<!-- Node1&#45;&gt;Node10 -->
<g id="edge40" class="edge">
<title>Node1&#45;&gt;Node10</title>
<path fill="none" stroke="midnightblue" d="M898.87,-287.45C844.65,-264.86 731.99,-217.91 685.62,-198.59"/>
<polygon fill="midnightblue" stroke="midnightblue" points="897.71,-290.75 908.28,-291.37 900.4,-284.29 897.71,-290.75"/>
</g>
<!-- Node13 -->
<g id="node13" class="node">
<title>Node13</title>
<g id="a_node13"><a xlink:href="_a_b_l_stats_8cpp.html" target="_top" xlink:title=" ">
<polygon fill="white" stroke="black" points="1144,-6 1144,-25 1224,-25 1224,-6 1144,-6"/>
<text text-anchor="middle" x="1184" y="-13" font-family="Helvetica,sans-Serif" font-size="10.00">ABLStats.cpp</text>
</a>
</g>
</g>
<!-- Node1&#45;&gt;Node13 -->
<g id="edge42" class="edge">
<title>Node1&#45;&gt;Node13</title>
<path fill="none" stroke="midnightblue" d="M994.38,-296.64C1113.79,-288.71 1355,-263.57 1355,-190 1355,-190 1355,-190 1355,-132 1355,-69.13 1274.63,-38.18 1224.09,-24.93"/>
<polygon fill="midnightblue" stroke="midnightblue" points="994.01,-293.16 984.26,-297.29 994.46,-300.14 994.01,-293.16"/>
</g>
<!-- Node14 -->
<g id="node14" class="node">
<title>Node14</title>
<g id="a_node14"><a xlink:href="_third_moment_averaging_8_h.html" target="_top" xlink:title=" ">
<polygon fill="white" stroke="black" points="972.5,-179.5 972.5,-198.5 1113.5,-198.5 1113.5,-179.5 972.5,-179.5"/>
<text text-anchor="middle" x="1043" y="-186.5" font-family="Helvetica,sans-Serif" font-size="10.00">ThirdMomentAveraging.H</text>
</a>
</g>
</g>
<!-- Node1&#45;&gt;Node14 -->
<g id="edge41" class="edge">
<title>Node1&#45;&gt;Node14</title>
<path fill="none" stroke="midnightblue" d="M945.37,-284.21C969.8,-260.63 1014.99,-217.03 1034.1,-198.59"/>
<polygon fill="midnightblue" stroke="midnightblue" points="942.71,-281.91 937.95,-291.37 947.57,-286.94 942.71,-281.91"/>
</g>
<!-- Node26 -->
<g id="node26" class="node">
<title>Node26</title>
<g id="a_node26"><a xlink:href="_field_plane_averaging_fine_8_h.html" target="_top" xlink:title=" ">
<polygon fill="white" stroke="black" points="1008,-235.5 1008,-254.5 1154,-254.5 1154,-235.5 1008,-235.5"/>
<text text-anchor="middle" x="1081" y="-242.5" font-family="Helvetica,sans-Serif" font-size="10.00">FieldPlaneAveragingFine.H</text>
</a>
</g>
</g>
<!-- Node1&#45;&gt;Node26 -->
<g id="edge36" class="edge">
<title>Node1&#45;&gt;Node26</title>
<path fill="none" stroke="midnightblue" d="M962.67,-288.04C991.27,-277.88 1031.61,-263.55 1057.03,-254.52"/>
<polygon fill="midnightblue" stroke="midnightblue" points="961.34,-284.8 953.08,-291.44 963.68,-291.39 961.34,-284.8"/>
</g>
<!-- Node4 -->
<g id="node4" class="node">
<title>Node4</title>
<g id="a_node4"><a xlink:href="_a_b_l_mean_boussinesq_8_h.html" target="_top" xlink:title=" ">
<polygon fill="white" stroke="black" points="71,-67.5 71,-86.5 199,-86.5 199,-67.5 71,-67.5"/>
<text text-anchor="middle" x="135" y="-74.5" font-family="Helvetica,sans-Serif" font-size="10.00">ABLMeanBoussinesq.H</text>
</a>
</g>
</g>
<!-- Node3&#45;&gt;Node4 -->
<g id="edge3" class="edge">
<title>Node3&#45;&gt;Node4</title>
<path fill="none" stroke="midnightblue" d="M606.62,-234.92C454.39,-219.39 402.95,-260.29 267,-199 208.33,-172.55 158.24,-109.76 141.21,-86.69"/>
<polygon fill="midnightblue" stroke="midnightblue" points="606.47,-238.43 616.79,-236.03 607.23,-231.47 606.47,-238.43"/>
</g>
<!-- Node7 -->
<g id="node7" class="node">
<title>Node7</title>
<g id="a_node7"><a xlink:href="_hurricane_forcing_8_h.html" target="_top" xlink:title=" ">
<polygon fill="white" stroke="black" points="217,-67.5 217,-86.5 327,-86.5 327,-67.5 217,-67.5"/>
<text text-anchor="middle" x="272" y="-74.5" font-family="Helvetica,sans-Serif" font-size="10.00">HurricaneForcing.H</text>
</a>
</g>
</g>
<!-- Node3&#45;&gt;Node7 -->
<g id="edge6" class="edge">
<title>Node3&#45;&gt;Node7</title>
<path fill="none" stroke="midnightblue" d="M606.77,-235.08C520.29,-228.28 331.89,-248.86 283,-199 252.73,-168.12 263.88,-109.11 269.53,-86.82"/>
<polygon fill="midnightblue" stroke="midnightblue" points="606.5,-238.57 616.79,-236.05 607.17,-231.6 606.5,-238.57"/>
</g>
<!-- Node9 -->
<g id="node9" class="node">
<title>Node9</title>
<g id="a_node9"><a xlink:href="_field_plane_averaging_8cpp.html" target="_top" xlink:title=" ">
<polygon fill="white" stroke="black" points="292,-179.5 292,-198.5 428,-198.5 428,-179.5 292,-179.5"/>
<text text-anchor="middle" x="360" y="-186.5" font-family="Helvetica,sans-Serif" font-size="10.00">FieldPlaneAveraging.cpp</text>
</a>
</g>
</g>
<!-- Node3&#45;&gt;Node9 -->
<g id="edge9" class="edge">
<title>Node3&#45;&gt;Node9</title>
<path fill="none" stroke="midnightblue" d="M619.13,-233.73C558.66,-223.52 467.01,-208.06 410.47,-198.52"/>
<polygon fill="midnightblue" stroke="midnightblue" points="618.85,-237.23 629.3,-235.44 620.02,-230.33 618.85,-237.23"/>
</g>
<!-- Node3&#45;&gt;Node10 -->
<g id="edge10" class="edge">
<title>Node3&#45;&gt;Node10</title>
<path fill="none" stroke="midnightblue" d="M674.83,-225.4C672.32,-216.36 669.43,-205.94 667.43,-198.75"/>
<polygon fill="midnightblue" stroke="midnightblue" points="671.47,-226.38 677.52,-235.08 678.22,-224.51 671.47,-226.38"/>
</g>
<!-- Node12 -->
<g id="node12" class="node">
<title>Node12</title>
<g id="a_node12"><a xlink:href="_a_b_l_stats_8_h.html" target="_top" xlink:title=" ">
<polygon fill="white" stroke="black" points="906.5,-67.5 906.5,-86.5 977.5,-86.5 977.5,-67.5 906.5,-67.5"/>
<text text-anchor="middle" x="942" y="-74.5" font-family="Helvetica,sans-Serif" font-size="10.00">ABLStats.H</text>
</a>
</g>
</g>
<!-- Node3&#45;&gt;Node12 -->
<g id="edge27" class="edge">
<title>Node3&#45;&gt;Node12</title>
<path fill="none" stroke="midnightblue" d="M753.24,-241.03C792.8,-236.22 840.63,-224.9 876,-199 915.77,-169.88 934.27,-109.27 939.98,-86.71"/>
<polygon fill="midnightblue" stroke="midnightblue" points="752.67,-237.57 743.12,-242.14 753.44,-244.53 752.67,-237.57"/>
</g>
<!-- Node3&#45;&gt;Node14 -->
<g id="edge14" class="edge">
<title>Node3&#45;&gt;Node14</title>
<path fill="none" stroke="midnightblue" d="M747.78,-233.92C816.36,-223.71 921.21,-208.12 985.75,-198.52"/>
<polygon fill="midnightblue" stroke="midnightblue" points="746.89,-230.51 737.52,-235.44 747.92,-237.43 746.89,-230.51"/>
</g>
<!-- Node16 -->
<g id="node16" class="node">
<title>Node16</title>
<g id="a_node16"><a xlink:href="_a_b_l_8_h.html" target="_top" xlink:title=" ">
<polygon fill="white" stroke="black" points="477,-67.5 477,-86.5 523,-86.5 523,-67.5 477,-67.5"/>
<text text-anchor="middle" x="500" y="-74.5" font-family="Helvetica,sans-Serif" font-size="10.00">ABL.H</text>
</a>
</g>
</g>
<!-- Node3&#45;&gt;Node16 -->
<g id="edge17" class="edge">
<title>Node3&#45;&gt;Node16</title>
<path fill="none" stroke="midnightblue" d="M636.96,-232.9C546.33,-209.34 343.32,-155.43 334,-143 296.31,-92.73 422.77,-81.31 476.75,-78.74"/>
<polygon fill="midnightblue" stroke="midnightblue" points="636.11,-236.3 646.67,-235.42 637.87,-229.52 636.11,-236.3"/>
</g>
<!-- Node23 -->
<g id="node23" class="node">
<title>Node23</title>
<g id="a_node23"><a xlink:href="_a_b_l_wall_function_8_h.html" target="_top" xlink:title=" ">
<polygon fill="white" stroke="black" points="759.5,-179.5 759.5,-198.5 866.5,-198.5 866.5,-179.5 759.5,-179.5"/>
<text text-anchor="middle" x="813" y="-186.5" font-family="Helvetica,sans-Serif" font-size="10.00">ABLWallFunction.H</text>
</a>
</g>
</g>
<!-- Node3&#45;&gt;Node23 -->
<g id="edge28" class="edge">
<title>Node3&#45;&gt;Node23</title>
<path fill="none" stroke="midnightblue" d="M710.45,-231.64C735.41,-221.5 770.08,-207.43 792.02,-198.52"/>
<polygon fill="midnightblue" stroke="midnightblue" points="709.02,-228.44 701.07,-235.44 711.66,-234.92 709.02,-228.44"/>
</g>
<!-- Node5 -->
<g id="node5" class="node">
<title>Node5</title>
<g id="a_node5"><a xlink:href="_a_b_l_mean_boussinesq_8cpp.html" target="_top" xlink:title=" ">
<polygon fill="white" stroke="black" points="74,-6 74,-25 212,-25 212,-6 74,-6"/>
<text text-anchor="middle" x="143" y="-13" font-family="Helvetica,sans-Serif" font-size="10.00">ABLMeanBoussinesq.cpp</text>
</a>
</g>
</g>
<!-- Node4&#45;&gt;Node5 -->
<g id="edge4" class="edge">
<title>Node4&#45;&gt;Node5</title>
<path fill="none" stroke="midnightblue" d="M137.51,-57.32C138.97,-46.5 140.73,-33.4 141.86,-25.01"/>
<polygon fill="midnightblue" stroke="midnightblue" points="134.01,-57.1 136.15,-67.48 140.95,-58.03 134.01,-57.1"/>
</g>
<!-- Node6 -->
<g id="node6" class="node">
<title>Node6</title>
<g id="a_node6"><a xlink:href="_a_b_l_8cpp.html" target="_top" xlink:title=" ">
<polygon fill="white" stroke="black" points="0,-6 0,-25 56,-25 56,-6 0,-6"/>
<text text-anchor="middle" x="28" y="-13" font-family="Helvetica,sans-Serif" font-size="10.00">ABL.cpp</text>
</a>
</g>
</g>
<!-- Node4&#45;&gt;Node6 -->
<g id="edge5" class="edge">
<title>Node4&#45;&gt;Node6</title>
<path fill="none" stroke="midnightblue" d="M110.82,-62.56C90.12,-51.04 60.93,-34.81 43.3,-25.01"/>
<polygon fill="midnightblue" stroke="midnightblue" points="109.23,-65.67 119.67,-67.48 112.63,-59.56 109.23,-65.67"/>
</g>
<!-- Node7&#45;&gt;Node6 -->
<g id="edge8" class="edge">
<title>Node7&#45;&gt;Node6</title>
<path fill="none" stroke="midnightblue" d="M212.09,-65.6C170.4,-57.72 113.78,-45.76 65,-31 59.45,-29.32 53.56,-27.18 48.15,-25.07"/>
<polygon fill="midnightblue" stroke="midnightblue" points="211.61,-69.07 222.08,-67.46 212.89,-62.19 211.61,-69.07"/>
</g>
<!-- Node8 -->
<g id="node8" class="node">
<title>Node8</title>
<g id="a_node8"><a xlink:href="_hurricane_forcing_8cpp.html" target="_top" xlink:title=" ">
<polygon fill="white" stroke="black" points="230.5,-6 230.5,-25 349.5,-25 349.5,-6 230.5,-6"/>
<text text-anchor="middle" x="290" y="-13" font-family="Helvetica,sans-Serif" font-size="10.00">HurricaneForcing.cpp</text>
</a>
</g>
</g>
<!-- Node7&#45;&gt;Node8 -->
<g id="edge7" class="edge">
<title>Node7&#45;&gt;Node8</title>
<path fill="none" stroke="midnightblue" d="M277.55,-57.66C280.84,-46.77 284.86,-33.49 287.43,-25.01"/>
<polygon fill="midnightblue" stroke="midnightblue" points="274.12,-56.89 274.58,-67.48 280.82,-58.92 274.12,-56.89"/>
</g>
<!-- Node11 -->
<g id="node11" class="node">
<title>Node11</title>
<g id="a_node11"><a xlink:href="_second_moment_averaging_8cpp.html" target="_top" xlink:title=" ">
<polygon fill="white" stroke="black" points="342.5,-123.5 342.5,-142.5 503.5,-142.5 503.5,-123.5 342.5,-123.5"/>
<text text-anchor="middle" x="423" y="-130.5" font-family="Helvetica,sans-Serif" font-size="10.00">SecondMomentAveraging.cpp</text>
</a>
</g>
</g>
<!-- Node10&#45;&gt;Node11 -->
<g id="edge11" class="edge">
<title>Node10&#45;&gt;Node11</title>
<path fill="none" stroke="midnightblue" d="M616.68,-177.22C570.95,-167.01 503.22,-151.9 461.17,-142.52"/>
<polygon fill="midnightblue" stroke="midnightblue" points="616.13,-180.68 626.65,-179.44 617.66,-173.85 616.13,-180.68"/>
</g>
<!-- Node10&#45;&gt;Node12 -->
<g id="edge12" class="edge">
<title>Node10&#45;&gt;Node12</title>
<path fill="none" stroke="midnightblue" d="M679.39,-171.81C693.58,-156.86 716.63,-135.19 741,-123 794.89,-96.04 864.92,-85.07 906.49,-80.73"/>
<polygon fill="midnightblue" stroke="midnightblue" points="676.67,-169.6 672.46,-179.32 681.81,-174.34 676.67,-169.6"/>
</g>
<!-- Node12&#45;&gt;Node13 -->
<g id="edge13" class="edge">
<title>Node12&#45;&gt;Node13</title>
<path fill="none" stroke="midnightblue" d="M986.57,-65.04C1033.55,-53.49 1106.56,-35.54 1149.39,-25.01"/>
<polygon fill="midnightblue" stroke="midnightblue" points="985.55,-61.69 976.67,-67.48 987.22,-68.49 985.55,-61.69"/>
</g>
<!-- Node14&#45;&gt;Node12 -->
<g id="edge16" class="edge">
<title>Node14&#45;&gt;Node12</title>
<path fill="none" stroke="midnightblue" d="M1082.65,-176.11C1113.78,-164.72 1149.08,-145.9 1131,-123 1112.24,-99.24 1026.87,-86.68 977.52,-81.29"/>
<polygon fill="midnightblue" stroke="midnightblue" points="1081.48,-172.81 1073.19,-179.4 1083.78,-179.42 1081.48,-172.81"/>
</g>
<!-- Node15 -->
<g id="node15" class="node">
<title>Node15</title>
<g id="a_node15"><a xlink:href="_third_moment_averaging_8cpp.html" target="_top" xlink:title=" ">
<polygon fill="white" stroke="black" points="970.5,-123.5 970.5,-142.5 1121.5,-142.5 1121.5,-123.5 970.5,-123.5"/>
<text text-anchor="middle" x="1046" y="-130.5" font-family="Helvetica,sans-Serif" font-size="10.00">ThirdMomentAveraging.cpp</text>
</a>
</g>
</g>
<!-- Node14&#45;&gt;Node15 -->
<g id="edge15" class="edge">
<title>Node14&#45;&gt;Node15</title>
<path fill="none" stroke="midnightblue" d="M1044.07,-168.8C1044.56,-159.91 1045.12,-149.78 1045.51,-142.75"/>
<polygon fill="midnightblue" stroke="midnightblue" points="1040.56,-168.9 1043.5,-179.08 1047.54,-169.29 1040.56,-168.9"/>
</g>
<!-- Node16&#45;&gt;Node5 -->
<g id="edge19" class="edge">
<title>Node16&#45;&gt;Node5</title>
<path fill="none" stroke="midnightblue" d="M466.77,-70.9C414.44,-62.82 309.64,-46.39 221,-31 210.28,-29.14 198.75,-27.05 187.93,-25.04"/>
<polygon fill="midnightblue" stroke="midnightblue" points="466.4,-74.39 476.82,-72.45 467.47,-67.47 466.4,-74.39"/>
</g>
<!-- Node16&#45;&gt;Node6 -->
<g id="edge25" class="edge">
<title>Node16&#45;&gt;Node6</title>
<path fill="none" stroke="midnightblue" d="M466.52,-73.71C378.35,-67.5 141.31,-49.54 65,-31 58.97,-29.53 52.6,-27.31 46.89,-25.03"/>
<polygon fill="midnightblue" stroke="midnightblue" points="466.53,-77.22 476.75,-74.43 467.02,-70.24 466.53,-77.22"/>
</g>
<!-- Node16&#45;&gt;Node8 -->
<g id="edge20" class="edge">
<title>Node16&#45;&gt;Node8</title>
<path fill="none" stroke="midnightblue" d="M466.85,-66.61C426.53,-55.18 359.05,-36.06 320.14,-25.04"/>
<polygon fill="midnightblue" stroke="midnightblue" points="466.15,-70.05 476.72,-69.41 468.06,-63.31 466.15,-70.05"/>
</g>
<!-- Node17 -->
<g id="node17" class="node">
<title>Node17</title>
<g id="a_node17"><a xlink:href="_a_b_l_forcing_8cpp.html" target="_top" xlink:title=" ">
<polygon fill="white" stroke="black" points="438.5,-6 438.5,-25 529.5,-25 529.5,-6 438.5,-6"/>
<text text-anchor="middle" x="484" y="-13" font-family="Helvetica,sans-Serif" font-size="10.00">ABLForcing.cpp</text>
</a>
</g>
</g>
<!-- Node16&#45;&gt;Node17 -->
<g id="edge18" class="edge">
<title>Node16&#45;&gt;Node17</title>
<path fill="none" stroke="midnightblue" d="M495.07,-57.66C492.14,-46.77 488.57,-33.49 486.29,-25.01"/>
<polygon fill="midnightblue" stroke="midnightblue" points="491.73,-58.73 497.71,-67.48 498.49,-56.91 491.73,-58.73"/>
</g>
<!-- Node18 -->
<g id="node18" class="node">
<title>Node18</title>
<g id="a_node18"><a xlink:href="helics_8cpp.html" target="_top" xlink:title=" ">
<polygon fill="white" stroke="black" points="547.5,-6 547.5,-25 612.5,-25 612.5,-6 547.5,-6"/>
<text text-anchor="middle" x="580" y="-13" font-family="Helvetica,sans-Serif" font-size="10.00">helics.cpp</text>
</a>
</g>
</g>
<!-- Node16&#45;&gt;Node18 -->
<g id="edge21" class="edge">
<title>Node16&#45;&gt;Node18</title>
<path fill="none" stroke="midnightblue" d="M519.77,-61.29C535.12,-49.88 555.86,-34.46 568.56,-25.01"/>
<polygon fill="midnightblue" stroke="midnightblue" points="517.4,-58.7 511.46,-67.48 521.57,-64.32 517.4,-58.7"/>
</g>
<!-- Node19 -->
<g id="node19" class="node">
<title>Node19</title>
<g id="a_node19"><a xlink:href="incflo_8cpp.html" target="_top" xlink:title=" ">
<polygon fill="white" stroke="black" points="630.5,-6 630.5,-25 693.5,-25 693.5,-6 630.5,-6"/>
<text text-anchor="middle" x="662" y="-13" font-family="Helvetica,sans-Serif" font-size="10.00">incflo.cpp</text>
</a>
</g>
</g>
<!-- Node16&#45;&gt;Node19 -->
<g id="edge22" class="edge">
<title>Node16&#45;&gt;Node19</title>
<path fill="none" stroke="midnightblue" d="M532.85,-63.93C564.34,-52.37 611.06,-35.21 638.83,-25.01"/>
<polygon fill="midnightblue" stroke="midnightblue" points="531.39,-60.74 523.21,-67.48 533.8,-67.31 531.39,-60.74"/>
</g>
<!-- Node20 -->
<g id="node20" class="node">
<title>Node20</title>
<g id="a_node20"><a xlink:href="incflo__apply__nodal__projection_8cpp.html" target="_top" xlink:title=" ">
<polygon fill="white" stroke="black" points="711.5,-0.5 711.5,-30.5 818.5,-30.5 818.5,-0.5 711.5,-0.5"/>
<text text-anchor="start" x="719.5" y="-18.5" font-family="Helvetica,sans-Serif" font-size="10.00">incflo_apply_nodal</text>
<text text-anchor="middle" x="765" y="-7.5" font-family="Helvetica,sans-Serif" font-size="10.00">_projection.cpp</text>
</a>
</g>
</g>
<!-- Node16&#45;&gt;Node20 -->
<g id="edge23" class="edge">
<title>Node16&#45;&gt;Node20</title>
<path fill="none" stroke="midnightblue" d="M532.95,-68.82C573.13,-60.03 643.1,-44.64 703,-31 705.69,-30.39 708.45,-29.75 711.24,-29.11"/>
<polygon fill="midnightblue" stroke="midnightblue" points="532.18,-65.4 523.16,-70.96 533.67,-72.24 532.18,-65.4"/>
</g>
<!-- Node21 -->
<g id="node21" class="node">
<title>Node21</title>
<g id="a_node21"><a xlink:href="init_8cpp.html" target="_top" xlink:title=" ">
<polygon fill="white" stroke="black" points="367.5,-6 367.5,-25 420.5,-25 420.5,-6 367.5,-6"/>
<text text-anchor="middle" x="394" y="-13" font-family="Helvetica,sans-Serif" font-size="10.00">init.cpp</text>
</a>
</g>
</g>
<!-- Node16&#45;&gt;Node21 -->
<g id="edge24" class="edge">
<title>Node16&#45;&gt;Node21</title>
<path fill="none" stroke="midnightblue" d="M476.05,-62.56C455.54,-51.04 426.62,-34.81 409.16,-25.01"/>
<polygon fill="midnightblue" stroke="midnightblue" points="474.38,-65.63 484.81,-67.48 477.81,-59.53 474.38,-65.63"/>
</g>
<!-- Node22 -->
<g id="node22" class="node">
<title>Node22</title>
<g id="a_node22"><a xlink:href="_a_b_l_wall_function_8cpp.html" target="_top" xlink:title=" ">
<polygon fill="white" stroke="black" points="836.5,-6 836.5,-25 953.5,-25 953.5,-6 836.5,-6"/>
<text text-anchor="middle" x="895" y="-13" font-family="Helvetica,sans-Serif" font-size="10.00">ABLWallFunction.cpp</text>
</a>
</g>
</g>
<!-- Node16&#45;&gt;Node22 -->
<g id="edge26" class="edge">
<title>Node16&#45;&gt;Node22</title>
<path fill="none" stroke="midnightblue" d="M533.45,-72.27C592.92,-65.45 720.9,-49.91 828,-31 837.73,-29.28 848.19,-27.15 857.89,-25.06"/>
<polygon fill="midnightblue" stroke="midnightblue" points="532.7,-68.83 523.16,-73.44 533.49,-75.79 532.7,-68.83"/>
</g>
<!-- Node23&#45;&gt;Node12 -->
<g id="edge31" class="edge">
<title>Node23&#45;&gt;Node12</title>
<path fill="none" stroke="midnightblue" d="M838.51,-174.5C852.87,-166.32 870.72,-155.14 885,-143 905.81,-125.3 925.84,-99.92 935.68,-86.72"/>
<polygon fill="midnightblue" stroke="midnightblue" points="836.69,-171.51 829.65,-179.43 840.09,-177.63 836.69,-171.51"/>
</g>
<!-- Node23&#45;&gt;Node16 -->
<g id="edge30" class="edge">
<title>Node23&#45;&gt;Node16</title>
<path fill="none" stroke="midnightblue" d="M749.15,-178.15C674.65,-166.49 560.48,-148.01 552,-143 528.85,-129.33 511.89,-101.21 504.35,-86.86"/>
<polygon fill="midnightblue" stroke="midnightblue" points="748.97,-181.67 759.39,-179.75 750.05,-174.75 748.97,-181.67"/>
</g>
<!-- Node23&#45;&gt;Node22 -->
<g id="edge35" class="edge">
<title>Node23&#45;&gt;Node22</title>
<path fill="none" stroke="midnightblue" d="M779.77,-175.12C755.72,-163.64 729.33,-145.25 741,-123 768.4,-70.75 834.35,-39.05 870.42,-25.03"/>
<polygon fill="midnightblue" stroke="midnightblue" points="778.57,-178.42 789.13,-179.31 781.43,-172.03 778.57,-178.42"/>
</g>
<!-- Node24 -->
<g id="node24" class="node">
<title>Node24</title>
<g id="a_node24"><a xlink:href="_boussinesq_bubble_8cpp.html" target="_top" xlink:title=" ">
<polygon fill="white" stroke="black" points="750,-123.5 750,-142.5 876,-142.5 876,-123.5 750,-123.5"/>
<text text-anchor="middle" x="813" y="-130.5" font-family="Helvetica,sans-Serif" font-size="10.00">BoussinesqBubble.cpp</text>
</a>
</g>
</g>
<!-- Node23&#45;&gt;Node24 -->
<g id="edge29" class="edge">
<title>Node23&#45;&gt;Node24</title>
<path fill="none" stroke="midnightblue" d="M813,-168.8C813,-159.91 813,-149.78 813,-142.75"/>
<polygon fill="midnightblue" stroke="midnightblue" points="809.5,-169.08 813,-179.08 816.5,-169.08 809.5,-169.08"/>
</g>
<!-- Node25 -->
<g id="node25" class="node">
<title>Node25</title>
<g id="a_node25"><a xlink:href="_a_b_l_stats_base_8_h.html" target="_top" xlink:title=" ">
<polygon fill="white" stroke="black" points="560.5,-123.5 560.5,-142.5 655.5,-142.5 655.5,-123.5 560.5,-123.5"/>
<text text-anchor="middle" x="608" y="-130.5" font-family="Helvetica,sans-Serif" font-size="10.00">ABLStatsBase.H</text>
</a>
</g>
</g>
<!-- Node23&#45;&gt;Node25 -->
<g id="edge32" class="edge">
<title>Node23&#45;&gt;Node25</title>
<path fill="none" stroke="midnightblue" d="M770.59,-176.83C731.89,-166.63 675.51,-151.78 640.33,-142.52"/>
<polygon fill="midnightblue" stroke="midnightblue" points="769.96,-180.28 780.52,-179.44 771.74,-173.51 769.96,-180.28"/>
</g>
<!-- Node25&#45;&gt;Node12 -->
<g id="edge34" class="edge">
<title>Node25&#45;&gt;Node12</title>
<path fill="none" stroke="midnightblue" d="M666.14,-122.6C735.27,-111.42 848.51,-93.12 906.03,-83.82"/>
<polygon fill="midnightblue" stroke="midnightblue" points="665.17,-119.21 655.85,-124.26 666.28,-126.12 665.17,-119.21"/>
</g>
<!-- Node25&#45;&gt;Node16 -->
<g id="edge33" class="edge">
<title>Node25&#45;&gt;Node16</title>
<path fill="none" stroke="midnightblue" d="M581.45,-118.73C561.45,-108.73 534.61,-95.31 517.31,-86.65"/>
<polygon fill="midnightblue" stroke="midnightblue" points="580.14,-121.98 590.65,-123.32 583.27,-115.72 580.14,-121.98"/>
</g>
<!-- Node26&#45;&gt;Node12 -->
<g id="edge38" class="edge">
<title>Node26&#45;&gt;Node12</title>
<path fill="none" stroke="midnightblue" d="M1100.29,-228.8C1128.44,-204.79 1174.59,-157.3 1147,-123 1126.16,-97.09 1030.85,-85.25 977.84,-80.59"/>
<polygon fill="midnightblue" stroke="midnightblue" points="1097.71,-226.39 1092.23,-235.46 1102.17,-231.79 1097.71,-226.39"/>
</g>
<!-- Node26&#45;&gt;Node23 -->
<g id="edge39" class="edge">
<title>Node26&#45;&gt;Node23</title>
<path fill="none" stroke="midnightblue" d="M1028.44,-233.41C977.79,-223.2 902.13,-207.96 855.27,-198.52"/>
<polygon fill="midnightblue" stroke="midnightblue" points="1028.04,-236.9 1038.53,-235.44 1029.42,-230.04 1028.04,-236.9"/>
</g>
<!-- Node27 -->
<g id="node27" class="node">
<title>Node27</title>
<g id="a_node27"><a xlink:href="_field_plane_averaging_fine_8cpp.html" target="_top" xlink:title=" ">
<polygon fill="white" stroke="black" points="1171,-179.5 1171,-198.5 1327,-198.5 1327,-179.5 1171,-179.5"/>
<text text-anchor="middle" x="1249" y="-186.5" font-family="Helvetica,sans-Serif" font-size="10.00">FieldPlaneAveragingFine.cpp</text>
</a>
</g>
</g>
<!-- Node26&#45;&gt;Node27 -->
<g id="edge37" class="edge">
<title>Node26&#45;&gt;Node27</title>
<path fill="none" stroke="midnightblue" d="M1117.39,-232.3C1149.04,-222.13 1194.17,-207.62 1222.5,-198.52"/>
<polygon fill="midnightblue" stroke="midnightblue" points="1116.07,-229.05 1107.62,-235.44 1118.21,-235.72 1116.07,-229.05"/>
</g>
</g>
</svg>
