<?xml version="1.0" encoding="UTF-8" standalone="no"?>
<!DOCTYPE svg PUBLIC "-//W3C//DTD SVG 1.1//EN"
 "http://www.w3.org/Graphics/SVG/1.1/DTD/svg11.dtd">
<!-- Generated by graphviz version 2.43.0 (0)
 -->
<!-- Title: Factory.H Pages: 1 -->
<svg width="3868pt" height="196pt"
 viewBox="0.00 0.00 3868.00 196.00" xmlns="http://www.w3.org/2000/svg" xmlns:xlink="http://www.w3.org/1999/xlink">
<g id="graph0" class="graph" transform="scale(1 1) rotate(0) translate(4 192)">
<title>Factory.H</title>
<polygon fill="white" stroke="transparent" points="-4,4 -4,-192 3864,-192 3864,4 -4,4"/>
<!-- Node1 -->
<g id="node1" class="node">
<title>Node1</title>
<g id="a_node1"><a xlink:title=" ">
<polygon fill="#bfbfbf" stroke="black" points="2501.5,-168.5 2501.5,-187.5 2562.5,-187.5 2562.5,-168.5 2501.5,-168.5"/>
<text text-anchor="middle" x="2532" y="-175.5" font-family="Helvetica,sans-Serif" font-size="10.00">Factory.H</text>
</a>
</g>
</g>
<!-- Node2 -->
<g id="node2" class="node">
<title>Node2</title>
<g id="a_node2"><a xlink:href="_ext_solver_8_h.html" target="_top" xlink:title=" ">
<polygon fill="white" stroke="black" points="2391.5,-112.5 2391.5,-131.5 2464.5,-131.5 2464.5,-112.5 2391.5,-112.5"/>
<text text-anchor="middle" x="2428" y="-119.5" font-family="Helvetica,sans-Serif" font-size="10.00">ExtSolver.H</text>
</a>
</g>
</g>
<!-- Node1&#45;&gt;Node2 -->
<g id="edge1" class="edge">
<title>Node1&#45;&gt;Node2</title>
<path fill="none" stroke="midnightblue" d="M2506.17,-163.59C2486.94,-153.61 2461.26,-140.27 2444.67,-131.65"/>
<polygon fill="midnightblue" stroke="midnightblue" points="2504.8,-166.82 2515.29,-168.32 2508.03,-160.61 2504.8,-166.82"/>
</g>
<!-- Node9 -->
<g id="node6" class="node">
<title>Node9</title>
<g id="a_node6"><a xlink:href="_mesh_map_8_h.html" target="_top" xlink:title=" ">
<polygon fill="white" stroke="black" points="213,-112.5 213,-131.5 287,-131.5 287,-112.5 213,-112.5"/>
<text text-anchor="middle" x="250" y="-119.5" font-family="Helvetica,sans-Serif" font-size="10.00">MeshMap.H</text>
</a>
</g>
</g>
<!-- Node1&#45;&gt;Node9 -->
<g id="edge6" class="edge">
<title>Node1&#45;&gt;Node9</title>
<path fill="none" stroke="midnightblue" d="M2491.31,-177.08C2273.14,-177.32 1219.79,-176.04 360,-132 335.7,-130.76 308.44,-128.53 287.13,-126.6"/>
<polygon fill="midnightblue" stroke="midnightblue" points="2491.36,-180.58 2501.35,-177.07 2491.35,-173.58 2491.36,-180.58"/>
</g>
<!-- Node153 -->
<g id="node15" class="node">
<title>Node153</title>
<g id="a_node15"><a xlink:href="_derived_quantity_8_h.html" target="_top" xlink:title=" ">
<polygon fill="white" stroke="red" points="1806,-0.5 1806,-19.5 1912,-19.5 1912,-0.5 1806,-0.5"/>
<text text-anchor="middle" x="1859" y="-7.5" font-family="Helvetica,sans-Serif" font-size="10.00">DerivedQuantity.H</text>
</a>
</g>
</g>
<!-- Node1&#45;&gt;Node153 -->
<g id="edge62" class="edge">
<title>Node1&#45;&gt;Node153</title>
<path fill="none" stroke="midnightblue" d="M2490.98,-173.76C2454.46,-169.2 2400.94,-158.25 2362,-132 2326.99,-108.4 2341.77,-76.76 2305,-56 2239.01,-18.75 2015.31,-12.13 1912.04,-11.1"/>
<polygon fill="midnightblue" stroke="midnightblue" points="2490.94,-177.28 2501.27,-174.93 2491.73,-170.32 2490.94,-177.28"/>
</g>
<!-- Node170 -->
<g id="node16" class="node">
<title>Node170</title>
<g id="a_node16"><a xlink:href="_a_b_l_stats_base_8_h.html" target="_top" xlink:title=" ">
<polygon fill="white" stroke="red" points="2205.5,-0.5 2205.5,-19.5 2300.5,-19.5 2300.5,-0.5 2205.5,-0.5"/>
<text text-anchor="middle" x="2253" y="-7.5" font-family="Helvetica,sans-Serif" font-size="10.00">ABLStatsBase.H</text>
</a>
</g>
</g>
<!-- Node1&#45;&gt;Node170 -->
<g id="edge69" class="edge">
<title>Node1&#45;&gt;Node170</title>
<path fill="none" stroke="midnightblue" d="M2491.22,-173.13C2458.66,-168.22 2413.44,-157.1 2382,-132 2351.67,-107.79 2366.89,-82.99 2339,-56 2321.56,-39.13 2296.53,-27 2277.97,-19.61"/>
<polygon fill="midnightblue" stroke="midnightblue" points="2490.92,-176.63 2501.31,-174.52 2491.88,-169.69 2490.92,-176.63"/>
</g>
<!-- Node229 -->
<g id="node19" class="node">
<title>Node229</title>
<g id="a_node19"><a xlink:href="_physics_8_h.html" target="_top" xlink:title=" ">
<polygon fill="white" stroke="red" points="1486,-112.5 1486,-131.5 1550,-131.5 1550,-112.5 1486,-112.5"/>
<text text-anchor="middle" x="1518" y="-119.5" font-family="Helvetica,sans-Serif" font-size="10.00">Physics.H</text>
</a>
</g>
</g>
<!-- Node1&#45;&gt;Node229 -->
<g id="edge21" class="edge">
<title>Node1&#45;&gt;Node229</title>
<path fill="none" stroke="midnightblue" d="M2491.08,-174.82C2324.55,-165.95 1699.54,-132.67 1550.2,-124.71"/>
<polygon fill="midnightblue" stroke="midnightblue" points="2491.2,-178.33 2501.38,-175.37 2491.58,-171.34 2491.2,-178.33"/>
</g>
<!-- Node252 -->
<g id="node33" class="node">
<title>Node252</title>
<g id="a_node33"><a xlink:href="_density_source_8_h.html" target="_top" xlink:title=" ">
<polygon fill="white" stroke="red" points="2483,-112.5 2483,-131.5 2581,-131.5 2581,-112.5 2483,-112.5"/>
<text text-anchor="middle" x="2532" y="-119.5" font-family="Helvetica,sans-Serif" font-size="10.00">DensitySource.H</text>
</a>
</g>
</g>
<!-- Node1&#45;&gt;Node252 -->
<g id="edge42" class="edge">
<title>Node1&#45;&gt;Node252</title>
<path fill="none" stroke="midnightblue" d="M2532,-157.8C2532,-148.91 2532,-138.78 2532,-131.75"/>
<polygon fill="midnightblue" stroke="midnightblue" points="2528.5,-158.08 2532,-168.08 2535.5,-158.08 2528.5,-158.08"/>
</g>
<!-- Node253 -->
<g id="node34" class="node">
<title>Node253</title>
<g id="a_node34"><a xlink:href="_momentum_source_8_h.html" target="_top" xlink:title=" ">
<polygon fill="white" stroke="red" points="2599,-112.5 2599,-131.5 2715,-131.5 2715,-112.5 2599,-112.5"/>
<text text-anchor="middle" x="2657" y="-119.5" font-family="Helvetica,sans-Serif" font-size="10.00">MomentumSource.H</text>
</a>
</g>
</g>
<!-- Node1&#45;&gt;Node253 -->
<g id="edge43" class="edge">
<title>Node1&#45;&gt;Node253</title>
<path fill="none" stroke="midnightblue" d="M2561.24,-164.37C2584.65,-154.26 2616.84,-140.35 2637.29,-131.52"/>
<polygon fill="midnightblue" stroke="midnightblue" points="2559.6,-161.26 2551.81,-168.44 2562.37,-167.69 2559.6,-161.26"/>
</g>
<!-- Node266 -->
<g id="node35" class="node">
<title>Node266</title>
<g id="a_node35"><a xlink:href="_p_d_e_base_8_h.html" target="_top" xlink:title=" ">
<polygon fill="white" stroke="red" points="730.5,-112.5 730.5,-131.5 801.5,-131.5 801.5,-112.5 730.5,-112.5"/>
<text text-anchor="middle" x="766" y="-119.5" font-family="Helvetica,sans-Serif" font-size="10.00">PDEBase.H</text>
</a>
</g>
</g>
<!-- Node1&#45;&gt;Node266 -->
<g id="edge44" class="edge">
<title>Node1&#45;&gt;Node266</title>
<path fill="none" stroke="midnightblue" d="M2491.32,-175.76C2251.75,-168.43 1027.52,-131 801.8,-124.09"/>
<polygon fill="midnightblue" stroke="midnightblue" points="2491.25,-179.26 2501.35,-176.06 2491.46,-172.26 2491.25,-179.26"/>
</g>
<!-- Node267 -->
<g id="node36" class="node">
<title>Node267</title>
<g id="a_node36"><a xlink:href="_s_d_r_source_8_h.html" target="_top" xlink:title=" ">
<polygon fill="white" stroke="red" points="2733,-112.5 2733,-131.5 2813,-131.5 2813,-112.5 2733,-112.5"/>
<text text-anchor="middle" x="2773" y="-119.5" font-family="Helvetica,sans-Serif" font-size="10.00">SDRSource.H</text>
</a>
</g>
</g>
<!-- Node1&#45;&gt;Node267 -->
<g id="edge47" class="edge">
<title>Node1&#45;&gt;Node267</title>
<path fill="none" stroke="midnightblue" d="M2572.29,-167.97C2617.53,-157.83 2690.42,-141.5 2734.79,-131.56"/>
<polygon fill="midnightblue" stroke="midnightblue" points="2571.52,-164.56 2562.52,-170.16 2573.05,-171.39 2571.52,-164.56"/>
</g>
<!-- Node269 -->
<g id="node37" class="node">
<title>Node269</title>
<g id="a_node37"><a xlink:href="_source_term_8_h.html" target="_top" xlink:title=" ">
<polygon fill="white" stroke="red" points="2831,-112.5 2831,-131.5 2915,-131.5 2915,-112.5 2831,-112.5"/>
<text text-anchor="middle" x="2873" y="-119.5" font-family="Helvetica,sans-Serif" font-size="10.00">SourceTerm.H</text>
</a>
</g>
</g>
<!-- Node1&#45;&gt;Node269 -->
<g id="edge48" class="edge">
<title>Node1&#45;&gt;Node269</title>
<path fill="none" stroke="midnightblue" d="M2572.4,-171C2628.48,-162.61 2733.04,-146.75 2822,-132 2824.93,-131.51 2827.95,-131 2830.99,-130.49"/>
<polygon fill="midnightblue" stroke="midnightblue" points="2571.89,-167.54 2562.51,-172.48 2572.92,-174.46 2571.89,-167.54"/>
</g>
<!-- Node270 -->
<g id="node38" class="node">
<title>Node270</title>
<g id="a_node38"><a xlink:href="_temperature_source_8_h.html" target="_top" xlink:title=" ">
<polygon fill="white" stroke="red" points="2933,-112.5 2933,-131.5 3055,-131.5 3055,-112.5 2933,-112.5"/>
<text text-anchor="middle" x="2994" y="-119.5" font-family="Helvetica,sans-Serif" font-size="10.00">TemperatureSource.H</text>
</a>
</g>
</g>
<!-- Node1&#45;&gt;Node270 -->
<g id="edge49" class="edge">
<title>Node1&#45;&gt;Node270</title>
<path fill="none" stroke="midnightblue" d="M2572.84,-172.5C2644.14,-164.59 2795.93,-147.58 2924,-132 2926.92,-131.64 2929.91,-131.28 2932.92,-130.9"/>
<polygon fill="midnightblue" stroke="midnightblue" points="2572.07,-169.06 2562.51,-173.64 2572.84,-176.02 2572.07,-169.06"/>
</g>
<!-- Node271 -->
<g id="node39" class="node">
<title>Node271</title>
<g id="a_node39"><a xlink:href="_t_k_e_source_8_h.html" target="_top" xlink:title=" ">
<polygon fill="white" stroke="red" points="3073.5,-112.5 3073.5,-131.5 3152.5,-131.5 3152.5,-112.5 3073.5,-112.5"/>
<text text-anchor="middle" x="3113" y="-119.5" font-family="Helvetica,sans-Serif" font-size="10.00">TKESource.H</text>
</a>
</g>
</g>
<!-- Node1&#45;&gt;Node271 -->
<g id="edge50" class="edge">
<title>Node1&#45;&gt;Node271</title>
<path fill="none" stroke="midnightblue" d="M2572.95,-174.9C2662.37,-170.01 2881.69,-156.39 3064,-132 3067.09,-131.59 3070.27,-131.11 3073.47,-130.6"/>
<polygon fill="midnightblue" stroke="midnightblue" points="2572.5,-171.42 2562.7,-175.45 2572.87,-178.41 2572.5,-171.42"/>
</g>
<!-- Node85 -->
<g id="node40" class="node">
<title>Node85</title>
<g id="a_node40"><a xlink:href="_i_b_model_8_h.html" target="_top" xlink:title=" ">
<polygon fill="white" stroke="red" points="3170.5,-112.5 3170.5,-131.5 3237.5,-131.5 3237.5,-112.5 3170.5,-112.5"/>
<text text-anchor="middle" x="3204" y="-119.5" font-family="Helvetica,sans-Serif" font-size="10.00">IBModel.H</text>
</a>
</g>
</g>
<!-- Node1&#45;&gt;Node85 -->
<g id="edge51" class="edge">
<title>Node1&#45;&gt;Node85</title>
<path fill="none" stroke="midnightblue" d="M2572.68,-176.06C2673.17,-173.32 2941.02,-163.41 3162,-132 3164.66,-131.62 3167.4,-131.17 3170.15,-130.68"/>
<polygon fill="midnightblue" stroke="midnightblue" points="2572.55,-172.56 2562.65,-176.33 2572.74,-179.56 2572.55,-172.56"/>
</g>
<!-- Node100 -->
<g id="node41" class="node">
<title>Node100</title>
<g id="a_node41"><a xlink:href="_ocean_waves_model_8_h.html" target="_top" xlink:title=" ">
<polygon fill="white" stroke="red" points="3256,-112.5 3256,-131.5 3376,-131.5 3376,-112.5 3256,-112.5"/>
<text text-anchor="middle" x="3316" y="-119.5" font-family="Helvetica,sans-Serif" font-size="10.00">OceanWavesModel.H</text>
</a>
</g>
</g>
<!-- Node1&#45;&gt;Node100 -->
<g id="edge52" class="edge">
<title>Node1&#45;&gt;Node100</title>
<path fill="none" stroke="midnightblue" d="M2572.99,-175.38C2682.55,-170.84 2991.2,-156.7 3247,-132 3249.89,-131.72 3252.84,-131.42 3255.82,-131.09"/>
<polygon fill="midnightblue" stroke="midnightblue" points="2572.57,-171.89 2562.72,-175.8 2572.86,-178.89 2572.57,-171.89"/>
</g>
<!-- Node275 -->
<g id="node42" class="node">
<title>Node275</title>
<g id="a_node42"><a xlink:href="_overset_manager_8_h.html" target="_top" xlink:title=" ">
<polygon fill="white" stroke="red" points="278.5,-56.5 278.5,-75.5 385.5,-75.5 385.5,-56.5 278.5,-56.5"/>
<text text-anchor="middle" x="332" y="-63.5" font-family="Helvetica,sans-Serif" font-size="10.00">OversetManager.H</text>
</a>
</g>
</g>
<!-- Node1&#45;&gt;Node275 -->
<g id="edge53" class="edge">
<title>Node1&#45;&gt;Node275</title>
<path fill="none" stroke="midnightblue" d="M2491.32,-176.65C2209.69,-174.14 558.16,-158.33 456,-132 411.52,-120.53 365.13,-90.57 343.89,-75.67"/>
<polygon fill="midnightblue" stroke="midnightblue" points="2491.46,-180.15 2501.5,-176.74 2491.53,-173.15 2491.46,-180.15"/>
</g>
<!-- Node277 -->
<g id="node43" class="node">
<title>Node277</title>
<g id="a_node43"><a xlink:href="_u_d_f_8_h.html" target="_top" xlink:title=" ">
<polygon fill="white" stroke="red" points="2240.5,-112.5 2240.5,-131.5 2287.5,-131.5 2287.5,-112.5 2240.5,-112.5"/>
<text text-anchor="middle" x="2264" y="-119.5" font-family="Helvetica,sans-Serif" font-size="10.00">UDF.H</text>
</a>
</g>
</g>
<!-- Node1&#45;&gt;Node277 -->
<g id="edge55" class="edge">
<title>Node1&#45;&gt;Node277</title>
<path fill="none" stroke="midnightblue" d="M2491.2,-168.78C2434.44,-157.34 2333.5,-137 2287.74,-127.78"/>
<polygon fill="midnightblue" stroke="midnightblue" points="2490.76,-172.26 2501.26,-170.81 2492.15,-165.4 2490.76,-172.26"/>
</g>
<!-- Node279 -->
<g id="node44" class="node">
<title>Node279</title>
<g id="a_node44"><a xlink:href="_transport_model_8_h.html" target="_top" xlink:title=" ">
<polygon fill="white" stroke="red" points="3394,-112.5 3394,-131.5 3496,-131.5 3496,-112.5 3394,-112.5"/>
<text text-anchor="middle" x="3445" y="-119.5" font-family="Helvetica,sans-Serif" font-size="10.00">TransportModel.H</text>
</a>
</g>
</g>
<!-- Node1&#45;&gt;Node279 -->
<g id="edge57" class="edge">
<title>Node1&#45;&gt;Node279</title>
<path fill="none" stroke="midnightblue" d="M2572.78,-176.24C2695.73,-173.65 3073.54,-163.5 3385,-132 3387.93,-131.7 3390.94,-131.36 3393.98,-130.99"/>
<polygon fill="midnightblue" stroke="midnightblue" points="2572.61,-172.74 2562.68,-176.45 2572.75,-179.74 2572.61,-172.74"/>
</g>
<!-- Node281 -->
<g id="node45" class="node">
<title>Node281</title>
<g id="a_node45"><a xlink:href="_turbulence_model_8_h.html" target="_top" xlink:title=" ">
<polygon fill="white" stroke="red" points="602,-112.5 602,-131.5 712,-131.5 712,-112.5 602,-112.5"/>
<text text-anchor="middle" x="657" y="-119.5" font-family="Helvetica,sans-Serif" font-size="10.00">TurbulenceModel.H</text>
</a>
</g>
</g>
<!-- Node1&#45;&gt;Node281 -->
<g id="edge58" class="edge">
<title>Node1&#45;&gt;Node281</title>
<path fill="none" stroke="midnightblue" d="M2491.18,-176.62C2256.95,-174.37 1081.6,-161.74 721,-132 718.09,-131.76 715.12,-131.48 712.11,-131.16"/>
<polygon fill="midnightblue" stroke="midnightblue" points="2491.27,-180.13 2501.31,-176.72 2491.34,-173.13 2491.27,-180.13"/>
</g>
<!-- Node282 -->
<g id="node46" class="node">
<title>Node282</title>
<g id="a_node46"><a xlink:href="_time_averaging_8_h.html" target="_top" xlink:title=" ">
<polygon fill="white" stroke="red" points="403.5,-56.5 403.5,-75.5 504.5,-75.5 504.5,-56.5 403.5,-56.5"/>
<text text-anchor="middle" x="454" y="-63.5" font-family="Helvetica,sans-Serif" font-size="10.00">TimeAveraging.H</text>
</a>
</g>
</g>
<!-- Node1&#45;&gt;Node282 -->
<g id="edge61" class="edge">
<title>Node1&#45;&gt;Node282</title>
<path fill="none" stroke="midnightblue" d="M2490.79,-176.77C2203.88,-175.09 514.54,-163.85 473,-132 455.65,-118.69 453.48,-90.41 453.59,-75.94"/>
<polygon fill="midnightblue" stroke="midnightblue" points="2491.14,-180.27 2501.16,-176.83 2491.18,-173.27 2491.14,-180.27"/>
</g>
<!-- Node285 -->
<g id="node47" class="node">
<title>Node285</title>
<g id="a_node47"><a xlink:href="_post_processing_8_h.html" target="_top" xlink:title=" ">
<polygon fill="white" stroke="red" points="482.5,-112.5 482.5,-131.5 583.5,-131.5 583.5,-112.5 482.5,-112.5"/>
<text text-anchor="middle" x="533" y="-119.5" font-family="Helvetica,sans-Serif" font-size="10.00">PostProcessing.H</text>
</a>
</g>
</g>
<!-- Node1&#45;&gt;Node285 -->
<g id="edge63" class="edge">
<title>Node1&#45;&gt;Node285</title>
<path fill="none" stroke="midnightblue" d="M2491.04,-176.75C2246.82,-175.16 980.38,-165.42 593,-132 589.96,-131.74 586.83,-131.42 583.69,-131.06"/>
<polygon fill="midnightblue" stroke="midnightblue" points="2491.22,-180.25 2501.25,-176.82 2491.27,-173.25 2491.22,-180.25"/>
</g>
<!-- Node287 -->
<g id="node48" class="node">
<title>Node287</title>
<g id="a_node48"><a xlink:href="_sampler_base_8_h.html" target="_top" xlink:title=" ">
<polygon fill="white" stroke="red" points="3514,-112.5 3514,-131.5 3606,-131.5 3606,-112.5 3514,-112.5"/>
<text text-anchor="middle" x="3560" y="-119.5" font-family="Helvetica,sans-Serif" font-size="10.00">SamplerBase.H</text>
</a>
</g>
</g>
<!-- Node1&#45;&gt;Node287 -->
<g id="edge67" class="edge">
<title>Node1&#45;&gt;Node287</title>
<path fill="none" stroke="midnightblue" d="M2573,-176.8C2707.16,-175.79 3145.15,-169.63 3505,-132 3507.89,-131.7 3510.85,-131.34 3513.84,-130.95"/>
<polygon fill="midnightblue" stroke="midnightblue" points="2572.75,-173.3 2562.77,-176.87 2572.8,-180.3 2572.75,-173.3"/>
</g>
<!-- Node295 -->
<g id="node49" class="node">
<title>Node295</title>
<g id="a_node49"><a xlink:href="_refinement_criteria_8_h.html" target="_top" xlink:title=" ">
<polygon fill="white" stroke="red" points="3624.5,-112.5 3624.5,-131.5 3743.5,-131.5 3743.5,-112.5 3624.5,-112.5"/>
<text text-anchor="middle" x="3684" y="-119.5" font-family="Helvetica,sans-Serif" font-size="10.00">RefinementCriteria.H</text>
</a>
</g>
</g>
<!-- Node1&#45;&gt;Node295 -->
<g id="edge68" class="edge">
<title>Node1&#45;&gt;Node295</title>
<path fill="none" stroke="midnightblue" d="M2572.73,-176.6C2715.91,-174.92 3209.38,-166.81 3615,-132 3618.01,-131.74 3621.09,-131.45 3624.2,-131.13"/>
<polygon fill="midnightblue" stroke="midnightblue" points="2572.6,-173.1 2562.64,-176.72 2572.68,-180.1 2572.6,-173.1"/>
</g>
<!-- Node209 -->
<g id="node50" class="node">
<title>Node209</title>
<g id="a_node50"><a xlink:href="_actuator_model_8_h.html" target="_top" xlink:title=" ">
<polygon fill="white" stroke="red" points="3762,-112.5 3762,-131.5 3860,-131.5 3860,-112.5 3762,-112.5"/>
<text text-anchor="middle" x="3811" y="-119.5" font-family="Helvetica,sans-Serif" font-size="10.00">ActuatorModel.H</text>
</a>
</g>
</g>
<!-- Node1&#45;&gt;Node209 -->
<g id="edge70" class="edge">
<title>Node1&#45;&gt;Node209</title>
<path fill="none" stroke="midnightblue" d="M2573.21,-177.23C2728.31,-177.72 3291.61,-176.15 3753,-132 3755.84,-131.73 3758.75,-131.41 3761.69,-131.05"/>
<polygon fill="midnightblue" stroke="midnightblue" points="2572.77,-173.73 2562.76,-177.19 2572.74,-180.73 2572.77,-173.73"/>
</g>
<!-- Node3 -->
<g id="node3" class="node">
<title>Node3</title>
<g id="a_node3"><a xlink:href="_c_f_d_sim_8cpp.html" target="_top" xlink:title=" ">
<polygon fill="white" stroke="black" points="533,-0.5 533,-19.5 609,-19.5 609,-0.5 533,-0.5"/>
<text text-anchor="middle" x="571" y="-7.5" font-family="Helvetica,sans-Serif" font-size="10.00">CFDSim.cpp</text>
</a>
</g>
</g>
<!-- Node2&#45;&gt;Node3 -->
<g id="edge2" class="edge">
<title>Node2&#45;&gt;Node3</title>
<path fill="none" stroke="midnightblue" d="M2407.83,-106.53C2384.41,-90.67 2344,-66.14 2305,-56 2133.11,-11.31 884.43,-27.87 707,-20 673.9,-18.53 636.33,-15.98 609.08,-13.97"/>
<polygon fill="midnightblue" stroke="midnightblue" points="2406,-109.52 2416.21,-112.33 2409.98,-103.76 2406,-109.52"/>
</g>
<!-- Node4 -->
<g id="node4" class="node">
<title>Node4</title>
<g id="a_node4"><a xlink:href="_fast_iface_8_h.html" target="_top" xlink:title=" ">
<polygon fill="white" stroke="red" points="2429.5,-56.5 2429.5,-75.5 2500.5,-75.5 2500.5,-56.5 2429.5,-56.5"/>
<text text-anchor="middle" x="2465" y="-63.5" font-family="Helvetica,sans-Serif" font-size="10.00">FastIface.H</text>
</a>
</g>
</g>
<!-- Node2&#45;&gt;Node4 -->
<g id="edge3" class="edge">
<title>Node2&#45;&gt;Node4</title>
<path fill="none" stroke="midnightblue" d="M2439.95,-103.57C2446.31,-94.27 2453.87,-83.25 2459,-75.75"/>
<polygon fill="midnightblue" stroke="midnightblue" points="2436.87,-101.86 2434.11,-112.08 2442.65,-105.81 2436.87,-101.86"/>
</g>
<!-- Node6 -->
<g id="node5" class="node">
<title>Node6</title>
<g id="a_node5"><a xlink:href="_turbine_fast_8_h.html" target="_top" xlink:title=" ">
<polygon fill="white" stroke="red" points="2456,-0.5 2456,-19.5 2538,-19.5 2538,-0.5 2456,-0.5"/>
<text text-anchor="middle" x="2497" y="-7.5" font-family="Helvetica,sans-Serif" font-size="10.00">TurbineFast.H</text>
</a>
</g>
</g>
<!-- Node2&#45;&gt;Node6 -->
<g id="edge5" class="edge">
<title>Node2&#45;&gt;Node6</title>
<path fill="none" stroke="midnightblue" d="M2469.37,-108.5C2484.93,-101.55 2501.03,-91.16 2510,-76 2520.67,-57.98 2509.6,-32.73 2502.31,-19.64"/>
<polygon fill="midnightblue" stroke="midnightblue" points="2467.75,-105.37 2459.81,-112.38 2470.39,-111.86 2467.75,-105.37"/>
</g>
<!-- Node4&#45;&gt;Node6 -->
<g id="edge4" class="edge">
<title>Node4&#45;&gt;Node6</title>
<path fill="none" stroke="midnightblue" d="M2475.5,-47.27C2480.97,-38.05 2487.42,-27.17 2491.81,-19.75"/>
<polygon fill="midnightblue" stroke="midnightblue" points="2472.37,-45.7 2470.28,-56.08 2478.39,-49.26 2472.37,-45.7"/>
</g>
<!-- Node10 -->
<g id="node7" class="node">
<title>Node10</title>
<g id="a_node7"><a xlink:href="_c_f_d_sim_8_h.html" target="_top" xlink:title=" ">
<polygon fill="white" stroke="red" points="727,-56.5 727,-75.5 793,-75.5 793,-56.5 727,-56.5"/>
<text text-anchor="middle" x="760" y="-63.5" font-family="Helvetica,sans-Serif" font-size="10.00">CFDSim.H</text>
</a>
</g>
</g>
<!-- Node9&#45;&gt;Node10 -->
<g id="edge7" class="edge">
<title>Node9&#45;&gt;Node10</title>
<path fill="none" stroke="midnightblue" d="M297.26,-118.26C381.97,-112.96 565.06,-99.66 718,-76 720.8,-75.57 723.69,-75.06 726.59,-74.52"/>
<polygon fill="midnightblue" stroke="midnightblue" points="296.95,-114.78 287.19,-118.89 297.39,-121.76 296.95,-114.78"/>
</g>
<!-- Node11 -->
<g id="node8" class="node">
<title>Node11</title>
<g id="a_node8"><a xlink:href="_mesh_map_8cpp.html" target="_top" xlink:title=" ">
<polygon fill="white" stroke="black" points="320,-0.5 320,-19.5 404,-19.5 404,-0.5 320,-0.5"/>
<text text-anchor="middle" x="362" y="-7.5" font-family="Helvetica,sans-Serif" font-size="10.00">MeshMap.cpp</text>
</a>
</g>
</g>
<!-- Node9&#45;&gt;Node11 -->
<g id="edge18" class="edge">
<title>Node9&#45;&gt;Node11</title>
<path fill="none" stroke="midnightblue" d="M251.4,-102.33C253.34,-88.19 257.97,-69.03 269,-56 284.41,-37.79 308.91,-26.35 328.9,-19.57"/>
<polygon fill="midnightblue" stroke="midnightblue" points="247.91,-102.08 250.35,-112.39 254.87,-102.81 247.91,-102.08"/>
</g>
<!-- Node225 -->
<g id="node17" class="node">
<title>Node225</title>
<g id="a_node17"><a xlink:href="_channel_flow_map_8_h.html" target="_top" xlink:title=" ">
<polygon fill="white" stroke="red" points="110.5,-56.5 110.5,-75.5 221.5,-75.5 221.5,-56.5 110.5,-56.5"/>
<text text-anchor="middle" x="166" y="-63.5" font-family="Helvetica,sans-Serif" font-size="10.00">ChannelFlowMap.H</text>
</a>
</g>
</g>
<!-- Node9&#45;&gt;Node225 -->
<g id="edge19" class="edge">
<title>Node9&#45;&gt;Node225</title>
<path fill="none" stroke="midnightblue" d="M228.07,-106.9C212.66,-97 192.55,-84.07 179.46,-75.65"/>
<polygon fill="midnightblue" stroke="midnightblue" points="226.2,-109.86 236.5,-112.32 229.98,-103.97 226.2,-109.86"/>
</g>
<!-- Node227 -->
<g id="node18" class="node">
<title>Node227</title>
<g id="a_node18"><a xlink:href="_constant_map_8_h.html" target="_top" xlink:title=" ">
<polygon fill="white" stroke="red" points="0,-56.5 0,-75.5 92,-75.5 92,-56.5 0,-56.5"/>
<text text-anchor="middle" x="46" y="-63.5" font-family="Helvetica,sans-Serif" font-size="10.00">ConstantMap.H</text>
</a>
</g>
</g>
<!-- Node9&#45;&gt;Node227 -->
<g id="edge20" class="edge">
<title>Node9&#45;&gt;Node227</title>
<path fill="none" stroke="midnightblue" d="M207.8,-109.83C169.28,-99.63 113.18,-84.78 78.17,-75.52"/>
<polygon fill="midnightblue" stroke="midnightblue" points="207.11,-113.27 217.68,-112.44 208.9,-106.5 207.11,-113.27"/>
</g>
<!-- Node10&#45;&gt;Node3 -->
<g id="edge8" class="edge">
<title>Node10&#45;&gt;Node3</title>
<path fill="none" stroke="midnightblue" d="M719.99,-53.57C684.33,-43.38 632.96,-28.7 600.81,-19.52"/>
<polygon fill="midnightblue" stroke="midnightblue" points="719.48,-57.06 730.05,-56.44 721.4,-50.33 719.48,-57.06"/>
</g>
<!-- Node10&#45;&gt;Node11 -->
<g id="edge9" class="edge">
<title>Node10&#45;&gt;Node11</title>
<path fill="none" stroke="midnightblue" d="M716.59,-55.88C597.86,-36.01 469.06,-21.8 404.1,-15.14"/>
<polygon fill="midnightblue" stroke="midnightblue" points="716.14,-59.35 726.58,-57.57 717.3,-52.45 716.14,-59.35"/>
</g>
<!-- Node110 -->
<g id="node9" class="node">
<title>Node110</title>
<g id="a_node9"><a xlink:href="_burggraf_flow_8_h.html" target="_top" xlink:title=" ">
<polygon fill="white" stroke="red" points="1092,-0.5 1092,-19.5 1184,-19.5 1184,-0.5 1092,-0.5"/>
<text text-anchor="middle" x="1138" y="-7.5" font-family="Helvetica,sans-Serif" font-size="10.00">BurggrafFlow.H</text>
</a>
</g>
</g>
<!-- Node10&#45;&gt;Node110 -->
<g id="edge10" class="edge">
<title>Node10&#45;&gt;Node110</title>
<path fill="none" stroke="midnightblue" d="M803.59,-55.83C912.4,-37.2 1028.96,-23.13 1091.9,-16.02"/>
<polygon fill="midnightblue" stroke="midnightblue" points="802.68,-52.44 793.42,-57.59 803.88,-59.34 802.68,-52.44"/>
</g>
<!-- Node112 -->
<g id="node10" class="node">
<title>Node112</title>
<g id="a_node10"><a xlink:href="_channel_flow_8_h.html" target="_top" xlink:title=" ">
<polygon fill="white" stroke="red" points="1312.5,-0.5 1312.5,-19.5 1401.5,-19.5 1401.5,-0.5 1312.5,-0.5"/>
<text text-anchor="middle" x="1357" y="-7.5" font-family="Helvetica,sans-Serif" font-size="10.00">ChannelFlow.H</text>
</a>
</g>
</g>
<!-- Node10&#45;&gt;Node112 -->
<g id="edge11" class="edge">
<title>Node10&#45;&gt;Node112</title>
<path fill="none" stroke="midnightblue" d="M803.62,-55.98C918.15,-40.34 1201.85,-21.08 1312.2,-13.88"/>
<polygon fill="midnightblue" stroke="midnightblue" points="802.81,-52.56 793.4,-57.43 803.79,-59.49 802.81,-52.56"/>
</g>
<!-- Node114 -->
<g id="node11" class="node">
<title>Node114</title>
<g id="a_node11"><a xlink:href="_convecting_taylor_vortex_8_h.html" target="_top" xlink:title=" ">
<polygon fill="white" stroke="red" points="1474.5,-0.5 1474.5,-19.5 1617.5,-19.5 1617.5,-0.5 1474.5,-0.5"/>
<text text-anchor="middle" x="1546" y="-7.5" font-family="Helvetica,sans-Serif" font-size="10.00">ConvectingTaylorVortex.H</text>
</a>
</g>
</g>
<!-- Node10&#45;&gt;Node114 -->
<g id="edge12" class="edge">
<title>Node10&#45;&gt;Node114</title>
<path fill="none" stroke="midnightblue" d="M803.44,-56.01C1071.96,-19.96 1143.13,-36.73 1410,-20 1430.9,-18.69 1453.6,-17.21 1474.37,-15.83"/>
<polygon fill="midnightblue" stroke="midnightblue" points="802.83,-52.56 793.39,-57.37 803.77,-59.49 802.83,-52.56"/>
</g>
<!-- Node116 -->
<g id="node12" class="node">
<title>Node116</title>
<g id="a_node12"><a xlink:href="_ekman_spiral_8_h.html" target="_top" xlink:title=" ">
<polygon fill="white" stroke="red" points="716.5,-0.5 716.5,-19.5 805.5,-19.5 805.5,-0.5 716.5,-0.5"/>
<text text-anchor="middle" x="761" y="-7.5" font-family="Helvetica,sans-Serif" font-size="10.00">EkmanSpiral.H</text>
</a>
</g>
</g>
<!-- Node10&#45;&gt;Node116 -->
<g id="edge13" class="edge">
<title>Node10&#45;&gt;Node116</title>
<path fill="none" stroke="midnightblue" d="M760.36,-45.8C760.52,-36.91 760.71,-26.78 760.84,-19.75"/>
<polygon fill="midnightblue" stroke="midnightblue" points="756.85,-46.02 760.17,-56.08 763.85,-46.15 756.85,-46.02"/>
</g>
<!-- Node119 -->
<g id="node13" class="node">
<title>Node119</title>
<g id="a_node13"><a xlink:href="_hybrid_r_a_n_s_l_e_s_a_b_l_8_h.html" target="_top" xlink:title=" ">
<polygon fill="white" stroke="red" points="824.5,-0.5 824.5,-19.5 947.5,-19.5 947.5,-0.5 824.5,-0.5"/>
<text text-anchor="middle" x="886" y="-7.5" font-family="Helvetica,sans-Serif" font-size="10.00">HybridRANSLESABL.H</text>
</a>
</g>
</g>
<!-- Node10&#45;&gt;Node119 -->
<g id="edge14" class="edge">
<title>Node10&#45;&gt;Node119</title>
<path fill="none" stroke="midnightblue" d="M789.16,-52.5C812.78,-42.38 845.43,-28.39 866.13,-19.52"/>
<polygon fill="midnightblue" stroke="midnightblue" points="787.78,-49.29 779.97,-56.44 790.54,-55.72 787.78,-49.29"/>
</g>
<!-- Node121 -->
<g id="node14" class="node">
<title>Node121</title>
<g id="a_node14"><a xlink:href="_m_m_s_8_h.html" target="_top" xlink:title=" ">
<polygon fill="white" stroke="red" points="966.5,-0.5 966.5,-19.5 1017.5,-19.5 1017.5,-0.5 966.5,-0.5"/>
<text text-anchor="middle" x="992" y="-7.5" font-family="Helvetica,sans-Serif" font-size="10.00">MMS.H</text>
</a>
</g>
</g>
<!-- Node10&#45;&gt;Node121 -->
<g id="edge15" class="edge">
<title>Node10&#45;&gt;Node121</title>
<path fill="none" stroke="midnightblue" d="M803.23,-55.33C842.98,-46.37 903.53,-32.58 956,-20 959.38,-19.19 962.94,-18.32 966.45,-17.45"/>
<polygon fill="midnightblue" stroke="midnightblue" points="802.33,-51.94 793.34,-57.55 803.86,-58.77 802.33,-51.94"/>
</g>
<!-- Node10&#45;&gt;Node153 -->
<g id="edge16" class="edge">
<title>Node10&#45;&gt;Node153</title>
<path fill="none" stroke="midnightblue" d="M803.43,-56.47C900.78,-49.81 1605.18,-21.24 1805.83,-13.14"/>
<polygon fill="midnightblue" stroke="midnightblue" points="803.05,-52.99 793.38,-57.32 803.64,-59.96 803.05,-52.99"/>
</g>
<!-- Node10&#45;&gt;Node170 -->
<g id="edge17" class="edge">
<title>Node10&#45;&gt;Node170</title>
<path fill="none" stroke="midnightblue" d="M803.37,-56.5C923.83,-49.19 1967.93,-19.15 2205.19,-12.36"/>
<polygon fill="midnightblue" stroke="midnightblue" points="803.08,-53.02 793.38,-57.28 803.62,-60 803.08,-53.02"/>
</g>
<!-- Node229&#45;&gt;Node10 -->
<g id="edge22" class="edge">
<title>Node229&#45;&gt;Node10</title>
<path fill="none" stroke="midnightblue" d="M1475.59,-120.53C1364.49,-118.81 1056,-111 802,-76 799.19,-75.61 796.29,-75.14 793.39,-74.62"/>
<polygon fill="midnightblue" stroke="midnightblue" points="1475.67,-124.03 1485.72,-120.67 1475.77,-117.03 1475.67,-124.03"/>
</g>
<!-- Node229&#45;&gt;Node110 -->
<g id="edge27" class="edge">
<title>Node229&#45;&gt;Node110</title>
<path fill="none" stroke="midnightblue" d="M1560.1,-117.2C1616.26,-110.6 1704.83,-93.9 1670,-56 1661.81,-47.09 1312.4,-22.73 1184.38,-14.09"/>
<polygon fill="midnightblue" stroke="midnightblue" points="1559.58,-113.74 1550.03,-118.32 1560.35,-120.69 1559.58,-113.74"/>
</g>
<!-- Node229&#45;&gt;Node112 -->
<g id="edge28" class="edge">
<title>Node229&#45;&gt;Node112</title>
<path fill="none" stroke="midnightblue" d="M1560.46,-119.85C1627.52,-116.59 1746.22,-104.05 1704,-56 1694.1,-44.73 1492.95,-24.07 1401.53,-15.21"/>
<polygon fill="midnightblue" stroke="midnightblue" points="1560.01,-116.37 1550.17,-120.3 1560.32,-123.36 1560.01,-116.37"/>
</g>
<!-- Node229&#45;&gt;Node114 -->
<g id="edge29" class="edge">
<title>Node229&#45;&gt;Node114</title>
<path fill="none" stroke="midnightblue" d="M1560.27,-118.71C1618.68,-114.55 1719.47,-103.5 1742,-76 1779.37,-30.38 1687.78,-16.55 1617.54,-12.49"/>
<polygon fill="midnightblue" stroke="midnightblue" points="1559.97,-115.22 1550.23,-119.38 1560.44,-122.2 1559.97,-115.22"/>
</g>
<!-- Node229&#45;&gt;Node116 -->
<g id="edge30" class="edge">
<title>Node229&#45;&gt;Node116</title>
<path fill="none" stroke="midnightblue" d="M1475.69,-119.31C1361.55,-114.47 1049.24,-99.44 949,-76 925.69,-70.55 921.5,-64.16 899,-56 861.21,-42.3 816.94,-28.2 788.94,-19.52"/>
<polygon fill="midnightblue" stroke="midnightblue" points="1475.64,-122.81 1485.78,-119.73 1475.94,-115.81 1475.64,-122.81"/>
</g>
<!-- Node229&#45;&gt;Node119 -->
<g id="edge32" class="edge">
<title>Node229&#45;&gt;Node119</title>
<path fill="none" stroke="midnightblue" d="M1475.79,-119.75C1368.21,-116.17 1085.96,-104.3 997,-76 956.99,-63.27 915.88,-34.18 896.87,-19.63"/>
<polygon fill="midnightblue" stroke="midnightblue" points="1475.84,-123.25 1485.95,-120.08 1476.06,-116.25 1475.84,-123.25"/>
</g>
<!-- Node229&#45;&gt;Node121 -->
<g id="edge33" class="edge">
<title>Node229&#45;&gt;Node121</title>
<path fill="none" stroke="midnightblue" d="M1475.69,-119.84C1360.92,-116.33 1049.94,-104.28 1014,-76 996.59,-62.3 992.86,-34.19 992.13,-19.85"/>
<polygon fill="midnightblue" stroke="midnightblue" points="1475.75,-123.34 1485.85,-120.14 1475.96,-116.35 1475.75,-123.34"/>
</g>
<!-- Node230 -->
<g id="node20" class="node">
<title>Node230</title>
<g id="a_node20"><a xlink:href="_i_b_8_h.html" target="_top" xlink:title=" ">
<polygon fill="white" stroke="red" points="1794.5,-56.5 1794.5,-75.5 1831.5,-75.5 1831.5,-56.5 1794.5,-56.5"/>
<text text-anchor="middle" x="1813" y="-63.5" font-family="Helvetica,sans-Serif" font-size="10.00">IB.H</text>
</a>
</g>
</g>
<!-- Node229&#45;&gt;Node230 -->
<g id="edge23" class="edge">
<title>Node229&#45;&gt;Node230</title>
<path fill="none" stroke="midnightblue" d="M1560.23,-115.03C1612.21,-107.38 1703.07,-93.06 1780,-76 1784.64,-74.97 1789.6,-73.71 1794.23,-72.45"/>
<polygon fill="midnightblue" stroke="midnightblue" points="1559.44,-111.6 1550.05,-116.51 1560.46,-118.53 1559.44,-111.6"/>
</g>
<!-- Node89 -->
<g id="node21" class="node">
<title>Node89</title>
<g id="a_node21"><a xlink:href="incflo__advance_8cpp.html" target="_top" xlink:title=" ">
<polygon fill="white" stroke="black" points="599,-56.5 599,-75.5 709,-75.5 709,-56.5 599,-56.5"/>
<text text-anchor="middle" x="654" y="-63.5" font-family="Helvetica,sans-Serif" font-size="10.00">incflo_advance.cpp</text>
</a>
</g>
</g>
<!-- Node229&#45;&gt;Node89 -->
<g id="edge24" class="edge">
<title>Node229&#45;&gt;Node89</title>
<path fill="none" stroke="midnightblue" d="M1475.75,-119.87C1356.46,-116.4 1006.93,-104.39 718,-76 715.1,-75.71 712.12,-75.39 709.12,-75.05"/>
<polygon fill="midnightblue" stroke="midnightblue" points="1475.82,-123.37 1485.92,-120.16 1476.02,-116.37 1475.82,-123.37"/>
</g>
<!-- Node231 -->
<g id="node22" class="node">
<title>Node231</title>
<g id="a_node22"><a xlink:href="_ocean_waves_8_h.html" target="_top" xlink:title=" ">
<polygon fill="white" stroke="red" points="1850,-56.5 1850,-75.5 1940,-75.5 1940,-56.5 1850,-56.5"/>
<text text-anchor="middle" x="1895" y="-63.5" font-family="Helvetica,sans-Serif" font-size="10.00">OceanWaves.H</text>
</a>
</g>
</g>
<!-- Node229&#45;&gt;Node231 -->
<g id="edge25" class="edge">
<title>Node229&#45;&gt;Node231</title>
<path fill="none" stroke="midnightblue" d="M1560.13,-115.43C1621.68,-107.22 1739.76,-91.2 1840,-76 1843.25,-75.51 1846.61,-74.99 1849.99,-74.45"/>
<polygon fill="midnightblue" stroke="midnightblue" points="1559.48,-111.99 1550.03,-116.78 1560.4,-118.93 1559.48,-111.99"/>
</g>
<!-- Node232 -->
<g id="node23" class="node">
<title>Node232</title>
<g id="a_node23"><a xlink:href="_boussinesq_bubble_8_h.html" target="_top" xlink:title=" ">
<polygon fill="white" stroke="red" points="1958,-56.5 1958,-75.5 2074,-75.5 2074,-56.5 1958,-56.5"/>
<text text-anchor="middle" x="2016" y="-63.5" font-family="Helvetica,sans-Serif" font-size="10.00">BoussinesqBubble.H</text>
</a>
</g>
</g>
<!-- Node229&#45;&gt;Node232 -->
<g id="edge26" class="edge">
<title>Node229&#45;&gt;Node232</title>
<path fill="none" stroke="midnightblue" d="M1560.5,-116.98C1637.87,-109.57 1806.84,-92.97 1949,-76 1951.91,-75.65 1954.9,-75.29 1957.91,-74.91"/>
<polygon fill="midnightblue" stroke="midnightblue" points="1559.83,-113.53 1550.21,-117.97 1560.49,-120.5 1559.83,-113.53"/>
</g>
<!-- Node233 -->
<g id="node24" class="node">
<title>Node233</title>
<g id="a_node24"><a xlink:href="_free_stream_8_h.html" target="_top" xlink:title=" ">
<polygon fill="white" stroke="red" points="2213.5,-56.5 2213.5,-75.5 2296.5,-75.5 2296.5,-56.5 2213.5,-56.5"/>
<text text-anchor="middle" x="2255" y="-63.5" font-family="Helvetica,sans-Serif" font-size="10.00">FreeStream.H</text>
</a>
</g>
</g>
<!-- Node229&#45;&gt;Node233 -->
<g id="edge31" class="edge">
<title>Node229&#45;&gt;Node233</title>
<path fill="none" stroke="midnightblue" d="M1560.41,-119.83C1668.22,-116.5 1961.46,-105.27 2204,-76 2207.03,-75.63 2210.16,-75.21 2213.31,-74.74"/>
<polygon fill="midnightblue" stroke="midnightblue" points="1560.15,-116.33 1550.26,-120.13 1560.36,-123.33 1560.15,-116.33"/>
</g>
<!-- Node234 -->
<g id="node25" class="node">
<title>Node234</title>
<g id="a_node25"><a xlink:href="_breaking_waves_8_h.html" target="_top" xlink:title=" ">
<polygon fill="white" stroke="red" points="2092.5,-56.5 2092.5,-75.5 2195.5,-75.5 2195.5,-56.5 2092.5,-56.5"/>
<text text-anchor="middle" x="2144" y="-63.5" font-family="Helvetica,sans-Serif" font-size="10.00">BreakingWaves.H</text>
</a>
</g>
</g>
<!-- Node229&#45;&gt;Node234 -->
<g id="edge34" class="edge">
<title>Node229&#45;&gt;Node234</title>
<path fill="none" stroke="midnightblue" d="M1560.51,-118.59C1654.76,-113.03 1888.35,-98.09 2083,-76 2086.08,-75.65 2089.25,-75.26 2092.45,-74.85"/>
<polygon fill="midnightblue" stroke="midnightblue" points="1560.02,-115.11 1550.24,-119.19 1560.43,-122.1 1560.02,-115.11"/>
</g>
<!-- Node235 -->
<g id="node26" class="node">
<title>Node235</title>
<g id="a_node26"><a xlink:href="_dam_break_8_h.html" target="_top" xlink:title=" ">
<polygon fill="white" stroke="red" points="811.5,-56.5 811.5,-75.5 890.5,-75.5 890.5,-56.5 811.5,-56.5"/>
<text text-anchor="middle" x="851" y="-63.5" font-family="Helvetica,sans-Serif" font-size="10.00">DamBreak.H</text>
</a>
</g>
</g>
<!-- Node229&#45;&gt;Node235 -->
<g id="edge35" class="edge">
<title>Node229&#45;&gt;Node235</title>
<path fill="none" stroke="midnightblue" d="M1475.74,-119.24C1376.07,-114.79 1118.66,-101.59 905,-76 900.38,-75.45 895.54,-74.77 890.75,-74.05"/>
<polygon fill="midnightblue" stroke="midnightblue" points="1475.85,-122.75 1485.99,-119.69 1476.16,-115.75 1475.85,-122.75"/>
</g>
<!-- Node236 -->
<g id="node27" class="node">
<title>Node236</title>
<g id="a_node27"><a xlink:href="_multi_phase_8_h.html" target="_top" xlink:title=" ">
<polygon fill="white" stroke="red" points="1580.5,-56.5 1580.5,-75.5 1661.5,-75.5 1661.5,-56.5 1580.5,-56.5"/>
<text text-anchor="middle" x="1621" y="-63.5" font-family="Helvetica,sans-Serif" font-size="10.00">MultiPhase.H</text>
</a>
</g>
</g>
<!-- Node229&#45;&gt;Node236 -->
<g id="edge36" class="edge">
<title>Node229&#45;&gt;Node236</title>
<path fill="none" stroke="midnightblue" d="M1543.58,-107.59C1562.62,-97.61 1588.06,-84.27 1604.49,-75.65"/>
<polygon fill="midnightblue" stroke="midnightblue" points="1541.78,-104.58 1534.55,-112.32 1545.03,-110.78 1541.78,-104.58"/>
</g>
<!-- Node239 -->
<g id="node28" class="node">
<title>Node239</title>
<g id="a_node28"><a xlink:href="_rain_drop_8_h.html" target="_top" xlink:title=" ">
<polygon fill="white" stroke="red" points="1023,-56.5 1023,-75.5 1095,-75.5 1095,-56.5 1023,-56.5"/>
<text text-anchor="middle" x="1059" y="-63.5" font-family="Helvetica,sans-Serif" font-size="10.00">RainDrop.H</text>
</a>
</g>
</g>
<!-- Node229&#45;&gt;Node239 -->
<g id="edge37" class="edge">
<title>Node229&#45;&gt;Node239</title>
<path fill="none" stroke="midnightblue" d="M1475.93,-117.67C1400.93,-111.47 1239.3,-96.84 1104,-76 1101.17,-75.56 1098.24,-75.07 1095.3,-74.55"/>
<polygon fill="midnightblue" stroke="midnightblue" points="1475.68,-121.17 1485.93,-118.49 1476.25,-114.19 1475.68,-121.17"/>
</g>
<!-- Node240 -->
<g id="node29" class="node">
<title>Node240</title>
<g id="a_node29"><a xlink:href="_sloshing_tank_8_h.html" target="_top" xlink:title=" ">
<polygon fill="white" stroke="red" points="1113.5,-56.5 1113.5,-75.5 1204.5,-75.5 1204.5,-56.5 1113.5,-56.5"/>
<text text-anchor="middle" x="1159" y="-63.5" font-family="Helvetica,sans-Serif" font-size="10.00">SloshingTank.H</text>
</a>
</g>
</g>
<!-- Node229&#45;&gt;Node240 -->
<g id="edge38" class="edge">
<title>Node229&#45;&gt;Node240</title>
<path fill="none" stroke="midnightblue" d="M1475.88,-115.04C1417,-106.65 1306.78,-90.73 1213,-76 1210.28,-75.57 1207.48,-75.13 1204.66,-74.67"/>
<polygon fill="midnightblue" stroke="midnightblue" points="1475.52,-118.52 1485.91,-116.47 1476.51,-111.59 1475.52,-118.52"/>
</g>
<!-- Node241 -->
<g id="node30" class="node">
<title>Node241</title>
<g id="a_node30"><a xlink:href="_vortex_patch_8_h.html" target="_top" xlink:title=" ">
<polygon fill="white" stroke="red" points="1222.5,-56.5 1222.5,-75.5 1307.5,-75.5 1307.5,-56.5 1222.5,-56.5"/>
<text text-anchor="middle" x="1265" y="-63.5" font-family="Helvetica,sans-Serif" font-size="10.00">VortexPatch.H</text>
</a>
</g>
</g>
<!-- Node229&#45;&gt;Node241 -->
<g id="edge39" class="edge">
<title>Node229&#45;&gt;Node241</title>
<path fill="none" stroke="midnightblue" d="M1476,-112.04C1428.53,-101.9 1351.79,-85.52 1305.11,-75.56"/>
<polygon fill="midnightblue" stroke="midnightblue" points="1475.45,-115.5 1485.96,-114.16 1476.91,-108.65 1475.45,-115.5"/>
</g>
<!-- Node242 -->
<g id="node31" class="node">
<title>Node242</title>
<g id="a_node31"><a xlink:href="_vortex_patch_scalar_vel_8_h.html" target="_top" xlink:title=" ">
<polygon fill="white" stroke="red" points="1326,-56.5 1326,-75.5 1456,-75.5 1456,-56.5 1326,-56.5"/>
<text text-anchor="middle" x="1391" y="-63.5" font-family="Helvetica,sans-Serif" font-size="10.00">VortexPatchScalarVel.H</text>
</a>
</g>
</g>
<!-- Node229&#45;&gt;Node242 -->
<g id="edge40" class="edge">
<title>Node229&#45;&gt;Node242</title>
<path fill="none" stroke="midnightblue" d="M1488.61,-108.5C1464.8,-98.38 1431.89,-84.39 1411.03,-75.52"/>
<polygon fill="midnightblue" stroke="midnightblue" points="1487.3,-111.75 1497.88,-112.44 1490.04,-105.31 1487.3,-111.75"/>
</g>
<!-- Node243 -->
<g id="node32" class="node">
<title>Node243</title>
<g id="a_node32"><a xlink:href="_zalesak_disk_8_h.html" target="_top" xlink:title=" ">
<polygon fill="white" stroke="red" points="1474,-56.5 1474,-75.5 1562,-75.5 1562,-56.5 1474,-56.5"/>
<text text-anchor="middle" x="1518" y="-63.5" font-family="Helvetica,sans-Serif" font-size="10.00">ZalesakDisk.H</text>
</a>
</g>
</g>
<!-- Node229&#45;&gt;Node243 -->
<g id="edge41" class="edge">
<title>Node229&#45;&gt;Node243</title>
<path fill="none" stroke="midnightblue" d="M1518,-101.8C1518,-92.91 1518,-82.78 1518,-75.75"/>
<polygon fill="midnightblue" stroke="midnightblue" points="1514.5,-102.08 1518,-112.08 1521.5,-102.08 1514.5,-102.08"/>
</g>
<!-- Node266&#45;&gt;Node10 -->
<g id="edge45" class="edge">
<title>Node266&#45;&gt;Node10</title>
<path fill="none" stroke="midnightblue" d="M763.9,-102.1C762.9,-93.14 761.76,-82.86 760.97,-75.75"/>
<polygon fill="midnightblue" stroke="midnightblue" points="760.43,-102.53 765.01,-112.08 767.38,-101.76 760.43,-102.53"/>
</g>
<!-- Node266&#45;&gt;Node89 -->
<g id="edge46" class="edge">
<title>Node266&#45;&gt;Node89</title>
<path fill="none" stroke="midnightblue" d="M738.75,-107.86C717.98,-97.85 689.98,-84.35 671.95,-75.65"/>
<polygon fill="midnightblue" stroke="midnightblue" points="737.48,-111.13 748.01,-112.32 740.52,-104.83 737.48,-111.13"/>
</g>
<!-- Node275&#45;&gt;Node3 -->
<g id="edge54" class="edge">
<title>Node275&#45;&gt;Node3</title>
<path fill="none" stroke="midnightblue" d="M379.72,-54.22C424.89,-44.01 491.77,-28.9 533.31,-19.52"/>
<polygon fill="midnightblue" stroke="midnightblue" points="378.85,-50.83 369.87,-56.44 380.4,-57.65 378.85,-50.83"/>
</g>
<!-- Node277&#45;&gt;Node233 -->
<g id="edge56" class="edge">
<title>Node277&#45;&gt;Node233</title>
<path fill="none" stroke="midnightblue" d="M2260.85,-102.1C2259.36,-93.14 2257.64,-82.86 2256.46,-75.75"/>
<polygon fill="midnightblue" stroke="midnightblue" points="2257.42,-102.79 2262.51,-112.08 2264.32,-101.64 2257.42,-102.79"/>
</g>
<!-- Node281&#45;&gt;Node3 -->
<g id="edge59" class="edge">
<title>Node281&#45;&gt;Node3</title>
<path fill="none" stroke="midnightblue" d="M628.31,-107.62C614.92,-100.06 599.82,-89.41 590,-76 577.36,-58.73 573.09,-33.16 571.68,-19.83"/>
<polygon fill="midnightblue" stroke="midnightblue" points="626.74,-110.75 637.21,-112.36 630.03,-104.57 626.74,-110.75"/>
</g>
<!-- Node281&#45;&gt;Node89 -->
<g id="edge60" class="edge">
<title>Node281&#45;&gt;Node89</title>
<path fill="none" stroke="midnightblue" d="M655.93,-101.8C655.44,-92.91 654.88,-82.78 654.49,-75.75"/>
<polygon fill="midnightblue" stroke="midnightblue" points="652.46,-102.29 656.5,-112.08 659.44,-101.9 652.46,-102.29"/>
</g>
<!-- Node285&#45;&gt;Node3 -->
<g id="edge64" class="edge">
<title>Node285&#45;&gt;Node3</title>
<path fill="none" stroke="midnightblue" d="M539.33,-102.67C547.64,-78.62 561.88,-37.39 568.03,-19.59"/>
<polygon fill="midnightblue" stroke="midnightblue" points="535.94,-101.77 535.98,-112.37 542.56,-104.06 535.94,-101.77"/>
</g>
<!-- Node285&#45;&gt;Node89 -->
<g id="edge65" class="edge">
<title>Node285&#45;&gt;Node89</title>
<path fill="none" stroke="midnightblue" d="M561.31,-108.37C583.97,-98.26 615.13,-84.35 634.92,-75.52"/>
<polygon fill="midnightblue" stroke="midnightblue" points="559.88,-105.17 552.17,-112.44 562.73,-111.56 559.88,-105.17"/>
</g>
<!-- Node285&#45;&gt;Node282 -->
<g id="edge66" class="edge">
<title>Node285&#45;&gt;Node282</title>
<path fill="none" stroke="midnightblue" d="M511.97,-106.62C497.53,-96.76 478.86,-83.99 466.66,-75.65"/>
<polygon fill="midnightblue" stroke="midnightblue" points="510.08,-109.57 520.31,-112.32 514.03,-103.79 510.08,-109.57"/>
</g>
</g>
</svg>
