<?xml version="1.0" encoding="UTF-8" standalone="no"?>
<!DOCTYPE svg PUBLIC "-//W3C//DTD SVG 1.1//EN"
 "http://www.w3.org/Graphics/SVG/1.1/DTD/svg11.dtd">
<!-- Generated by graphviz version 2.43.0 (0)
 -->
<!-- Title: IntField.H Pages: 1 -->
<svg width="3885pt" height="196pt"
 viewBox="0.00 0.00 3885.12 196.00" xmlns="http://www.w3.org/2000/svg" xmlns:xlink="http://www.w3.org/1999/xlink">
<g id="graph0" class="graph" transform="scale(1 1) rotate(0) translate(4 192)">
<title>IntField.H</title>
<polygon fill="white" stroke="transparent" points="-4,4 -4,-192 3881.12,-192 3881.12,4 -4,4"/>
<!-- Node1 -->
<g id="node1" class="node">
<title>Node1</title>
<g id="a_node1"><a xlink:title=" ">
<polygon fill="#bfbfbf" stroke="black" points="893,-168.5 893,-187.5 956,-187.5 956,-168.5 893,-168.5"/>
<text text-anchor="middle" x="924.5" y="-175.5" font-family="Helvetica,sans-Serif" font-size="10.00">IntField.H</text>
</a>
</g>
</g>
<!-- Node2 -->
<g id="node2" class="node">
<title>Node2</title>
<g id="a_node2"><a xlink:href="_field_repo_8_h.html" target="_top" xlink:title=" ">
<polygon fill="white" stroke="red" points="1774,-112.5 1774,-131.5 1849,-131.5 1849,-112.5 1774,-112.5"/>
<text text-anchor="middle" x="1811.5" y="-119.5" font-family="Helvetica,sans-Serif" font-size="10.00">FieldRepo.H</text>
</a>
</g>
</g>
<!-- Node1&#45;&gt;Node2 -->
<g id="edge1" class="edge">
<title>Node1&#45;&gt;Node2</title>
<path fill="none" stroke="midnightblue" d="M966.26,-174.46C1116.68,-165.3 1629.48,-134.08 1773.56,-125.31"/>
<polygon fill="midnightblue" stroke="midnightblue" points="965.84,-170.98 956.07,-175.08 966.26,-177.96 965.84,-170.98"/>
</g>
<!-- Node235 -->
<g id="node18" class="node">
<title>Node235</title>
<g id="a_node18"><a xlink:href="_int_field_8cpp.html" target="_top" xlink:title=" ">
<polygon fill="white" stroke="black" points="0,-56.5 0,-75.5 73,-75.5 73,-56.5 0,-56.5"/>
<text text-anchor="middle" x="36.5" y="-63.5" font-family="Helvetica,sans-Serif" font-size="10.00">IntField.cpp</text>
</a>
</g>
</g>
<!-- Node1&#45;&gt;Node235 -->
<g id="edge69" class="edge">
<title>Node1&#45;&gt;Node235</title>
<path fill="none" stroke="midnightblue" d="M882.52,-173.07C759.29,-161.3 388.09,-124.16 82.5,-76 79.45,-75.52 76.28,-74.98 73.12,-74.42"/>
<polygon fill="midnightblue" stroke="midnightblue" points="882.36,-176.57 892.65,-174.04 883.03,-169.6 882.36,-176.57"/>
</g>
<!-- Node3 -->
<g id="node3" class="node">
<title>Node3</title>
<g id="a_node3"><a xlink:href="_b_c_interface_8cpp.html" target="_top" xlink:title=" ">
<polygon fill="white" stroke="black" points="1359.5,-0.5 1359.5,-19.5 1453.5,-19.5 1453.5,-0.5 1359.5,-0.5"/>
<text text-anchor="middle" x="1406.5" y="-7.5" font-family="Helvetica,sans-Serif" font-size="10.00">BCInterface.cpp</text>
</a>
</g>
</g>
<!-- Node2&#45;&gt;Node3 -->
<g id="edge2" class="edge">
<title>Node2&#45;&gt;Node3</title>
<path fill="none" stroke="midnightblue" d="M1859.64,-117.22C1918.79,-110.85 2007.19,-94.65 1971.5,-56 1936.66,-18.27 1582.96,-12.15 1453.58,-11.18"/>
<polygon fill="midnightblue" stroke="midnightblue" points="1858.93,-113.78 1849.33,-118.27 1859.64,-120.74 1858.93,-113.78"/>
</g>
<!-- Node4 -->
<g id="node4" class="node">
<title>Node4</title>
<g id="a_node4"><a xlink:href="_fixed_gradient_b_c_8_h.html" target="_top" xlink:title=" ">
<polygon fill="white" stroke="red" points="851.5,-56.5 851.5,-75.5 959.5,-75.5 959.5,-56.5 851.5,-56.5"/>
<text text-anchor="middle" x="905.5" y="-63.5" font-family="Helvetica,sans-Serif" font-size="10.00">FixedGradientBC.H</text>
</a>
</g>
</g>
<!-- Node2&#45;&gt;Node4 -->
<g id="edge3" class="edge">
<title>Node2&#45;&gt;Node4</title>
<path fill="none" stroke="midnightblue" d="M1763.28,-119.92C1634.17,-116.71 1269.99,-105.52 968.5,-76 965.64,-75.72 962.71,-75.4 959.76,-75.06"/>
<polygon fill="midnightblue" stroke="midnightblue" points="1763.52,-123.43 1773.6,-120.17 1763.69,-116.43 1763.52,-123.43"/>
</g>
<!-- Node6 -->
<g id="node5" class="node">
<title>Node6</title>
<g id="a_node5"><a xlink:href="velocity__bcs_8_h.html" target="_top" xlink:title=" ">
<polygon fill="white" stroke="red" points="193.5,-56.5 193.5,-75.5 281.5,-75.5 281.5,-56.5 193.5,-56.5"/>
<text text-anchor="middle" x="237.5" y="-63.5" font-family="Helvetica,sans-Serif" font-size="10.00">velocity_bcs.H</text>
</a>
</g>
</g>
<!-- Node2&#45;&gt;Node6 -->
<g id="edge5" class="edge">
<title>Node2&#45;&gt;Node6</title>
<path fill="none" stroke="midnightblue" d="M1763.7,-120.38C1539.49,-117.36 590.71,-103.18 295.5,-76 291.04,-75.59 286.39,-75.05 281.76,-74.45"/>
<polygon fill="midnightblue" stroke="midnightblue" points="1763.77,-123.88 1773.82,-120.52 1763.87,-116.88 1763.77,-123.88"/>
</g>
<!-- Node9 -->
<g id="node6" class="node">
<title>Node9</title>
<g id="a_node6"><a xlink:href="_c_f_d_sim_8_h.html" target="_top" xlink:title=" ">
<polygon fill="white" stroke="red" points="469.5,-56.5 469.5,-75.5 535.5,-75.5 535.5,-56.5 469.5,-56.5"/>
<text text-anchor="middle" x="502.5" y="-63.5" font-family="Helvetica,sans-Serif" font-size="10.00">CFDSim.H</text>
</a>
</g>
</g>
<!-- Node2&#45;&gt;Node9 -->
<g id="edge6" class="edge">
<title>Node2&#45;&gt;Node9</title>
<path fill="none" stroke="midnightblue" d="M1763.5,-120.28C1562.96,-117.1 791.35,-103.3 549.5,-76 544.96,-75.49 540.2,-74.78 535.53,-73.98"/>
<polygon fill="midnightblue" stroke="midnightblue" points="1763.66,-123.78 1773.71,-120.44 1763.77,-116.78 1763.66,-123.78"/>
</g>
<!-- Node57 -->
<g id="node7" class="node">
<title>Node57</title>
<g id="a_node7"><a xlink:href="_p_d_e_base_8cpp.html" target="_top" xlink:title=" ">
<polygon fill="white" stroke="black" points="196.5,-0.5 196.5,-19.5 276.5,-19.5 276.5,-0.5 196.5,-0.5"/>
<text text-anchor="middle" x="236.5" y="-7.5" font-family="Helvetica,sans-Serif" font-size="10.00">PDEBase.cpp</text>
</a>
</g>
</g>
<!-- Node2&#45;&gt;Node57 -->
<g id="edge39" class="edge">
<title>Node2&#45;&gt;Node57</title>
<path fill="none" stroke="midnightblue" d="M1763.67,-121.18C1524.8,-121.89 467.06,-122.33 328.5,-76 310.51,-69.98 266.95,-35.76 246.91,-19.53"/>
<polygon fill="midnightblue" stroke="midnightblue" points="1763.78,-124.68 1773.77,-121.15 1763.76,-117.68 1763.78,-124.68"/>
</g>
<!-- Node73 -->
<g id="node8" class="node">
<title>Node73</title>
<g id="a_node8"><a xlink:href="_i_b_8cpp.html" target="_top" xlink:title=" ">
<polygon fill="white" stroke="black" points="295,-0.5 295,-19.5 342,-19.5 342,-0.5 295,-0.5"/>
<text text-anchor="middle" x="318.5" y="-7.5" font-family="Helvetica,sans-Serif" font-size="10.00">IB.cpp</text>
</a>
</g>
</g>
<!-- Node2&#45;&gt;Node73 -->
<g id="edge48" class="edge">
<title>Node2&#45;&gt;Node73</title>
<path fill="none" stroke="midnightblue" d="M1763.6,-120.89C1534.43,-120.15 555.76,-114.75 425.5,-76 405.29,-69.99 354.26,-35.76 330.73,-19.53"/>
<polygon fill="midnightblue" stroke="midnightblue" points="1763.93,-124.39 1773.94,-120.92 1763.95,-117.39 1763.93,-124.39"/>
</g>
<!-- Node84 -->
<g id="node9" class="node">
<title>Node84</title>
<g id="a_node9"><a xlink:href="incflo_8_h.html" target="_top" xlink:title=" ">
<polygon fill="white" stroke="red" points="360,-0.5 360,-19.5 413,-19.5 413,-0.5 360,-0.5"/>
<text text-anchor="middle" x="386.5" y="-7.5" font-family="Helvetica,sans-Serif" font-size="10.00">incflo.H</text>
</a>
</g>
</g>
<!-- Node2&#45;&gt;Node84 -->
<g id="edge51" class="edge">
<title>Node2&#45;&gt;Node84</title>
<path fill="none" stroke="midnightblue" d="M1763.54,-121.31C1537.41,-122.52 583.47,-124.69 460.5,-76 430.61,-64.17 404.71,-34.66 393.06,-19.82"/>
<polygon fill="midnightblue" stroke="midnightblue" points="1763.77,-124.81 1773.75,-121.25 1763.74,-117.81 1763.77,-124.81"/>
</g>
<!-- Node96 -->
<g id="node10" class="node">
<title>Node96</title>
<g id="a_node10"><a xlink:href="_ocean_waves_8cpp.html" target="_top" xlink:title=" ">
<polygon fill="white" stroke="black" points="780.5,-0.5 780.5,-19.5 880.5,-19.5 880.5,-0.5 780.5,-0.5"/>
<text text-anchor="middle" x="830.5" y="-7.5" font-family="Helvetica,sans-Serif" font-size="10.00">OceanWaves.cpp</text>
</a>
</g>
</g>
<!-- Node2&#45;&gt;Node96 -->
<g id="edge52" class="edge">
<title>Node2&#45;&gt;Node96</title>
<path fill="none" stroke="midnightblue" d="M1763.9,-120.9C1555.72,-120.21 733.99,-115.03 696.5,-76 690.34,-69.59 691.31,-63.22 696.5,-56 707.5,-40.71 753.48,-27.58 788.54,-19.51"/>
<polygon fill="midnightblue" stroke="midnightblue" points="1763.9,-124.4 1773.91,-120.93 1763.92,-117.4 1763.9,-124.4"/>
</g>
<!-- Node105 -->
<g id="node11" class="node">
<title>Node105</title>
<g id="a_node11"><a xlink:href="_tioga_interface_8cpp.html" target="_top" xlink:title=" ">
<polygon fill="white" stroke="black" points="431,-0.5 431,-19.5 538,-19.5 538,-0.5 431,-0.5"/>
<text text-anchor="middle" x="484.5" y="-7.5" font-family="Helvetica,sans-Serif" font-size="10.00">TiogaInterface.cpp</text>
</a>
</g>
</g>
<!-- Node2&#45;&gt;Node105 -->
<g id="edge57" class="edge">
<title>Node2&#45;&gt;Node105</title>
<path fill="none" stroke="midnightblue" d="M1763.73,-121.39C1572.46,-122.59 861.6,-123.7 642.5,-76 587.72,-64.07 527.71,-34.33 500.05,-19.58"/>
<polygon fill="midnightblue" stroke="midnightblue" points="1763.78,-124.89 1773.76,-121.32 1763.73,-117.89 1763.78,-124.89"/>
</g>
<!-- Node135 -->
<g id="node12" class="node">
<title>Node135</title>
<g id="a_node12"><a xlink:href="_vortex_ring_8cpp.html" target="_top" xlink:title=" ">
<polygon fill="white" stroke="black" points="556.5,-0.5 556.5,-19.5 646.5,-19.5 646.5,-0.5 556.5,-0.5"/>
<text text-anchor="middle" x="601.5" y="-7.5" font-family="Helvetica,sans-Serif" font-size="10.00">VortexRing.cpp</text>
</a>
</g>
</g>
<!-- Node2&#45;&gt;Node135 -->
<g id="edge64" class="edge">
<title>Node2&#45;&gt;Node135</title>
<path fill="none" stroke="midnightblue" d="M1763.68,-120.91C1561.39,-120.27 781.61,-115.28 679.5,-76 648.57,-64.1 621,-34.62 608.54,-19.8"/>
<polygon fill="midnightblue" stroke="midnightblue" points="1763.69,-124.41 1773.7,-120.94 1763.71,-117.41 1763.69,-124.41"/>
</g>
<!-- Node148 -->
<g id="node13" class="node">
<title>Node148</title>
<g id="a_node13"><a xlink:href="_re_averaging_8cpp.html" target="_top" xlink:title=" ">
<polygon fill="white" stroke="black" points="664.5,-0.5 664.5,-19.5 762.5,-19.5 762.5,-0.5 664.5,-0.5"/>
<text text-anchor="middle" x="713.5" y="-7.5" font-family="Helvetica,sans-Serif" font-size="10.00">ReAveraging.cpp</text>
</a>
</g>
</g>
<!-- Node2&#45;&gt;Node148 -->
<g id="edge68" class="edge">
<title>Node2&#45;&gt;Node148</title>
<path fill="none" stroke="midnightblue" d="M1763.9,-120.91C1554.79,-120.28 726.28,-115.33 688.5,-76 673.09,-59.96 692.75,-33.4 705.02,-19.73"/>
<polygon fill="midnightblue" stroke="midnightblue" points="1763.95,-124.41 1773.96,-120.94 1763.97,-117.41 1763.95,-124.41"/>
</g>
<!-- Node226 -->
<g id="node14" class="node">
<title>Node226</title>
<g id="a_node14"><a xlink:href="_godunov_8_h.html" target="_top" xlink:title=" ">
<polygon fill="white" stroke="red" points="977.5,-56.5 977.5,-75.5 1047.5,-75.5 1047.5,-56.5 977.5,-56.5"/>
<text text-anchor="middle" x="1012.5" y="-63.5" font-family="Helvetica,sans-Serif" font-size="10.00">Godunov.H</text>
</a>
</g>
</g>
<!-- Node2&#45;&gt;Node226 -->
<g id="edge14" class="edge">
<title>Node2&#45;&gt;Node226</title>
<path fill="none" stroke="midnightblue" d="M1763.31,-120.5C1643.35,-118.74 1321.89,-110.87 1056.5,-76 1053.72,-75.63 1050.85,-75.19 1047.97,-74.71"/>
<polygon fill="midnightblue" stroke="midnightblue" points="1763.56,-124 1773.61,-120.64 1763.66,-117 1763.56,-124"/>
</g>
<!-- Node231 -->
<g id="node15" class="node">
<title>Node231</title>
<g id="a_node15"><a xlink:href="_m_o_l_8_h.html" target="_top" xlink:title=" ">
<polygon fill="white" stroke="red" points="1066,-56.5 1066,-75.5 1115,-75.5 1115,-56.5 1066,-56.5"/>
<text text-anchor="middle" x="1090.5" y="-63.5" font-family="Helvetica,sans-Serif" font-size="10.00">MOL.H</text>
</a>
</g>
</g>
<!-- Node2&#45;&gt;Node231 -->
<g id="edge15" class="edge">
<title>Node2&#45;&gt;Node231</title>
<path fill="none" stroke="midnightblue" d="M1763.67,-121.03C1651.33,-120.43 1362.19,-114.87 1124.5,-76 1121.49,-75.51 1118.35,-74.86 1115.26,-74.15"/>
<polygon fill="midnightblue" stroke="midnightblue" points="1763.96,-124.54 1773.98,-121.08 1763.99,-117.54 1763.96,-124.54"/>
</g>
<!-- Node233 -->
<g id="node16" class="node">
<title>Node233</title>
<g id="a_node16"><a xlink:href="_field_8cpp.html" target="_top" xlink:title=" ">
<polygon fill="white" stroke="black" points="1133.5,-56.5 1133.5,-75.5 1193.5,-75.5 1193.5,-56.5 1133.5,-56.5"/>
<text text-anchor="middle" x="1163.5" y="-63.5" font-family="Helvetica,sans-Serif" font-size="10.00">Field.cpp</text>
</a>
</g>
</g>
<!-- Node2&#45;&gt;Node233 -->
<g id="edge16" class="edge">
<title>Node2&#45;&gt;Node233</title>
<path fill="none" stroke="midnightblue" d="M1763.77,-119.95C1660.73,-117.15 1410,-107.42 1202.5,-76 1199.61,-75.56 1196.63,-75.03 1193.65,-74.44"/>
<polygon fill="midnightblue" stroke="midnightblue" points="1763.77,-123.46 1773.85,-120.22 1763.95,-116.46 1763.77,-123.46"/>
</g>
<!-- Node234 -->
<g id="node17" class="node">
<title>Node234</title>
<g id="a_node17"><a xlink:href="_field_repo_8cpp.html" target="_top" xlink:title=" ">
<polygon fill="white" stroke="black" points="1212,-56.5 1212,-75.5 1297,-75.5 1297,-56.5 1212,-56.5"/>
<text text-anchor="middle" x="1254.5" y="-63.5" font-family="Helvetica,sans-Serif" font-size="10.00">FieldRepo.cpp</text>
</a>
</g>
</g>
<!-- Node2&#45;&gt;Node234 -->
<g id="edge17" class="edge">
<title>Node2&#45;&gt;Node234</title>
<path fill="none" stroke="midnightblue" d="M1763.77,-118.13C1673.85,-112.42 1473.28,-98.22 1305.5,-76 1302.74,-75.63 1299.9,-75.22 1297.03,-74.79"/>
<polygon fill="midnightblue" stroke="midnightblue" points="1763.73,-121.63 1773.93,-118.77 1764.17,-114.65 1763.73,-121.63"/>
</g>
<!-- Node2&#45;&gt;Node235 -->
<g id="edge18" class="edge">
<title>Node2&#45;&gt;Node235</title>
<path fill="none" stroke="midnightblue" d="M1763.4,-120.84C1519.91,-119.84 421.45,-113.3 82.5,-76 79.43,-75.66 76.25,-75.23 73.07,-74.73"/>
<polygon fill="midnightblue" stroke="midnightblue" points="1763.68,-124.34 1773.69,-120.88 1763.71,-117.34 1763.68,-124.34"/>
</g>
<!-- Node236 -->
<g id="node19" class="node">
<title>Node236</title>
<g id="a_node19"><a xlink:href="_int_scratch_field_8cpp.html" target="_top" xlink:title=" ">
<polygon fill="white" stroke="black" points="1315,-56.5 1315,-75.5 1424,-75.5 1424,-56.5 1315,-56.5"/>
<text text-anchor="middle" x="1369.5" y="-63.5" font-family="Helvetica,sans-Serif" font-size="10.00">IntScratchField.cpp</text>
</a>
</g>
</g>
<!-- Node2&#45;&gt;Node236 -->
<g id="edge19" class="edge">
<title>Node2&#45;&gt;Node236</title>
<path fill="none" stroke="midnightblue" d="M1763.83,-115.65C1692.11,-107.54 1552.19,-91.41 1433.5,-76 1430.5,-75.61 1427.41,-75.2 1424.3,-74.78"/>
<polygon fill="midnightblue" stroke="midnightblue" points="1763.58,-119.15 1773.91,-116.79 1764.37,-112.19 1763.58,-119.15"/>
</g>
<!-- Node237 -->
<g id="node20" class="node">
<title>Node237</title>
<g id="a_node20"><a xlink:href="_scratch_field_8cpp.html" target="_top" xlink:title=" ">
<polygon fill="white" stroke="black" points="1442.5,-56.5 1442.5,-75.5 1538.5,-75.5 1538.5,-56.5 1442.5,-56.5"/>
<text text-anchor="middle" x="1490.5" y="-63.5" font-family="Helvetica,sans-Serif" font-size="10.00">ScratchField.cpp</text>
</a>
</g>
</g>
<!-- Node2&#45;&gt;Node237 -->
<g id="edge20" class="edge">
<title>Node2&#45;&gt;Node237</title>
<path fill="none" stroke="midnightblue" d="M1763.67,-112.95C1703.07,-102.76 1599.25,-85.29 1538.55,-75.08"/>
<polygon fill="midnightblue" stroke="midnightblue" points="1763.29,-116.44 1773.73,-114.65 1764.45,-109.54 1763.29,-116.44"/>
</g>
<!-- Node238 -->
<g id="node21" class="node">
<title>Node238</title>
<g id="a_node21"><a xlink:href="_view_field_8cpp.html" target="_top" xlink:title=" ">
<polygon fill="white" stroke="black" points="1556.5,-56.5 1556.5,-75.5 1640.5,-75.5 1640.5,-56.5 1556.5,-56.5"/>
<text text-anchor="middle" x="1598.5" y="-63.5" font-family="Helvetica,sans-Serif" font-size="10.00">ViewField.cpp</text>
</a>
</g>
</g>
<!-- Node2&#45;&gt;Node238 -->
<g id="edge21" class="edge">
<title>Node2&#45;&gt;Node238</title>
<path fill="none" stroke="midnightblue" d="M1767.95,-109.96C1727.72,-99.76 1668.8,-84.82 1632.09,-75.52"/>
<polygon fill="midnightblue" stroke="midnightblue" points="1767.2,-113.38 1777.75,-112.44 1768.92,-106.59 1767.2,-113.38"/>
</g>
<!-- Node239 -->
<g id="node22" class="node">
<title>Node239</title>
<g id="a_node22"><a xlink:href="field__algebra_8cpp.html" target="_top" xlink:title=" ">
<polygon fill="white" stroke="black" points="1658.5,-56.5 1658.5,-75.5 1758.5,-75.5 1758.5,-56.5 1658.5,-56.5"/>
<text text-anchor="middle" x="1708.5" y="-63.5" font-family="Helvetica,sans-Serif" font-size="10.00">field_algebra.cpp</text>
</a>
</g>
</g>
<!-- Node2&#45;&gt;Node239 -->
<g id="edge22" class="edge">
<title>Node2&#45;&gt;Node239</title>
<path fill="none" stroke="midnightblue" d="M1785.92,-107.59C1766.88,-97.61 1741.44,-84.27 1725.01,-75.65"/>
<polygon fill="midnightblue" stroke="midnightblue" points="1784.47,-110.78 1794.95,-112.32 1787.72,-104.58 1784.47,-110.78"/>
</g>
<!-- Node240 -->
<g id="node23" class="node">
<title>Node240</title>
<g id="a_node23"><a xlink:href="diffusion_8_h.html" target="_top" xlink:title=" ">
<polygon fill="white" stroke="red" points="1777,-56.5 1777,-75.5 1846,-75.5 1846,-56.5 1777,-56.5"/>
<text text-anchor="middle" x="1811.5" y="-63.5" font-family="Helvetica,sans-Serif" font-size="10.00">diffusion.H</text>
</a>
</g>
</g>
<!-- Node2&#45;&gt;Node240 -->
<g id="edge23" class="edge">
<title>Node2&#45;&gt;Node240</title>
<path fill="none" stroke="midnightblue" d="M1811.5,-101.8C1811.5,-92.91 1811.5,-82.78 1811.5,-75.75"/>
<polygon fill="midnightblue" stroke="midnightblue" points="1808,-102.08 1811.5,-112.08 1815,-102.08 1808,-102.08"/>
</g>
<!-- Node241 -->
<g id="node24" class="node">
<title>Node241</title>
<g id="a_node24"><a xlink:href="_density_source_8_h.html" target="_top" xlink:title=" ">
<polygon fill="white" stroke="red" points="1864.5,-56.5 1864.5,-75.5 1962.5,-75.5 1962.5,-56.5 1864.5,-56.5"/>
<text text-anchor="middle" x="1913.5" y="-63.5" font-family="Helvetica,sans-Serif" font-size="10.00">DensitySource.H</text>
</a>
</g>
</g>
<!-- Node2&#45;&gt;Node241 -->
<g id="edge24" class="edge">
<title>Node2&#45;&gt;Node241</title>
<path fill="none" stroke="midnightblue" d="M1836.83,-107.59C1855.69,-97.61 1880.88,-84.27 1897.15,-75.65"/>
<polygon fill="midnightblue" stroke="midnightblue" points="1835.09,-104.55 1827.89,-112.32 1838.36,-110.74 1835.09,-104.55"/>
</g>
<!-- Node242 -->
<g id="node25" class="node">
<title>Node242</title>
<g id="a_node25"><a xlink:href="_momentum_source_8_h.html" target="_top" xlink:title=" ">
<polygon fill="white" stroke="red" points="2132.5,-56.5 2132.5,-75.5 2248.5,-75.5 2248.5,-56.5 2132.5,-56.5"/>
<text text-anchor="middle" x="2190.5" y="-63.5" font-family="Helvetica,sans-Serif" font-size="10.00">MomentumSource.H</text>
</a>
</g>
</g>
<!-- Node2&#45;&gt;Node242 -->
<g id="edge25" class="edge">
<title>Node2&#45;&gt;Node242</title>
<path fill="none" stroke="midnightblue" d="M1859.45,-114.17C1928.94,-104.27 2057.51,-85.95 2132.33,-75.29"/>
<polygon fill="midnightblue" stroke="midnightblue" points="1858.63,-110.75 1849.23,-115.62 1859.62,-117.68 1858.63,-110.75"/>
</g>
<!-- Node157 -->
<g id="node26" class="node">
<title>Node157</title>
<g id="a_node26"><a xlink:href="_a_b_l_mean_boussinesq_8_h.html" target="_top" xlink:title=" ">
<polygon fill="white" stroke="red" points="1785.5,-0.5 1785.5,-19.5 1913.5,-19.5 1913.5,-0.5 1785.5,-0.5"/>
<text text-anchor="middle" x="1849.5" y="-7.5" font-family="Helvetica,sans-Serif" font-size="10.00">ABLMeanBoussinesq.H</text>
</a>
</g>
</g>
<!-- Node2&#45;&gt;Node157 -->
<g id="edge33" class="edge">
<title>Node2&#45;&gt;Node157</title>
<path fill="none" stroke="midnightblue" d="M1859.22,-116.57C1910.38,-110.73 1986.69,-98.44 2004.5,-76 2010.03,-69.04 2009.84,-63.11 2004.5,-56 1992.13,-39.53 1942.86,-27.14 1903.14,-19.57"/>
<polygon fill="midnightblue" stroke="midnightblue" points="1858.59,-113.12 1849.03,-117.69 1859.35,-120.08 1858.59,-113.12"/>
</g>
<!-- Node246 -->
<g id="node27" class="node">
<title>Node246</title>
<g id="a_node27"><a xlink:href="_boussinesq_buoyancy_8_h.html" target="_top" xlink:title=" ">
<polygon fill="white" stroke="red" points="1932,-0.5 1932,-19.5 2061,-19.5 2061,-0.5 1932,-0.5"/>
<text text-anchor="middle" x="1996.5" y="-7.5" font-family="Helvetica,sans-Serif" font-size="10.00">BoussinesqBuoyancy.H</text>
</a>
</g>
</g>
<!-- Node2&#45;&gt;Node246 -->
<g id="edge34" class="edge">
<title>Node2&#45;&gt;Node246</title>
<path fill="none" stroke="midnightblue" d="M1859.08,-117.6C1914.63,-112.52 2001.47,-100.77 2021.5,-76 2035.33,-58.89 2016.86,-33.25 2005.03,-19.86"/>
<polygon fill="midnightblue" stroke="midnightblue" points="1858.76,-114.11 1849.1,-118.47 1859.37,-121.09 1858.76,-114.11"/>
</g>
<!-- Node248 -->
<g id="node28" class="node">
<title>Node248</title>
<g id="a_node28"><a xlink:href="_coriolis_forcing_8_h.html" target="_top" xlink:title=" ">
<polygon fill="white" stroke="red" points="2079,-0.5 2079,-19.5 2178,-19.5 2178,-0.5 2079,-0.5"/>
<text text-anchor="middle" x="2128.5" y="-7.5" font-family="Helvetica,sans-Serif" font-size="10.00">CoriolisForcing.H</text>
</a>
</g>
</g>
<!-- Node2&#45;&gt;Node248 -->
<g id="edge35" class="edge">
<title>Node2&#45;&gt;Node248</title>
<path fill="none" stroke="midnightblue" d="M1859.37,-117.49C1906.57,-112.68 1979.94,-101.49 2038.5,-76 2071.37,-61.69 2103.99,-33.86 2119.37,-19.71"/>
<polygon fill="midnightblue" stroke="midnightblue" points="1858.74,-114.04 1849.12,-118.48 1859.41,-121.01 1858.74,-114.04"/>
</g>
<!-- Node249 -->
<g id="node29" class="node">
<title>Node249</title>
<g id="a_node29"><a xlink:href="_density_buoyancy_8_h.html" target="_top" xlink:title=" ">
<polygon fill="white" stroke="red" points="2196,-0.5 2196,-19.5 2307,-19.5 2307,-0.5 2196,-0.5"/>
<text text-anchor="middle" x="2251.5" y="-7.5" font-family="Helvetica,sans-Serif" font-size="10.00">DensityBuoyancy.H</text>
</a>
</g>
</g>
<!-- Node2&#45;&gt;Node249 -->
<g id="edge36" class="edge">
<title>Node2&#45;&gt;Node249</title>
<path fill="none" stroke="midnightblue" d="M1859.17,-119.73C1968.73,-116.31 2231.14,-105.15 2257.5,-76 2271.49,-60.53 2262.27,-33.72 2255.98,-19.86"/>
<polygon fill="midnightblue" stroke="midnightblue" points="1858.95,-116.23 1849.06,-120.03 1859.16,-123.23 1858.95,-116.23"/>
</g>
<!-- Node251 -->
<g id="node30" class="node">
<title>Node251</title>
<g id="a_node30"><a xlink:href="_gravity_forcing_8_h.html" target="_top" xlink:title=" ">
<polygon fill="white" stroke="red" points="2325.5,-0.5 2325.5,-19.5 2423.5,-19.5 2423.5,-0.5 2325.5,-0.5"/>
<text text-anchor="middle" x="2374.5" y="-7.5" font-family="Helvetica,sans-Serif" font-size="10.00">GravityForcing.H</text>
</a>
</g>
</g>
<!-- Node2&#45;&gt;Node251 -->
<g id="edge37" class="edge">
<title>Node2&#45;&gt;Node251</title>
<path fill="none" stroke="midnightblue" d="M1859.1,-119.28C1961.5,-115.1 2199.58,-102.76 2275.5,-76 2311.96,-63.15 2348.26,-34.12 2364.97,-19.6"/>
<polygon fill="midnightblue" stroke="midnightblue" points="1858.89,-115.78 1849.04,-119.68 1859.17,-122.78 1858.89,-115.78"/>
</g>
<!-- Node158 -->
<g id="node31" class="node">
<title>Node158</title>
<g id="a_node31"><a xlink:href="_hurricane_forcing_8_h.html" target="_top" xlink:title=" ">
<polygon fill="white" stroke="red" points="2441.5,-0.5 2441.5,-19.5 2551.5,-19.5 2551.5,-0.5 2441.5,-0.5"/>
<text text-anchor="middle" x="2496.5" y="-7.5" font-family="Helvetica,sans-Serif" font-size="10.00">HurricaneForcing.H</text>
</a>
</g>
</g>
<!-- Node2&#45;&gt;Node158 -->
<g id="edge38" class="edge">
<title>Node2&#45;&gt;Node158</title>
<path fill="none" stroke="midnightblue" d="M1859.13,-120.51C1948.32,-118.75 2146.15,-110.87 2308.5,-76 2325,-72.46 2425.94,-36.42 2472.73,-19.58"/>
<polygon fill="midnightblue" stroke="midnightblue" points="1859,-117.01 1849.06,-120.69 1859.12,-124.01 1859,-117.01"/>
</g>
<!-- Node254 -->
<g id="node32" class="node">
<title>Node254</title>
<g id="a_node32"><a xlink:href="_m_m_s_forcing_8_h.html" target="_top" xlink:title=" ">
<polygon fill="white" stroke="red" points="3220.5,-0.5 3220.5,-19.5 3306.5,-19.5 3306.5,-0.5 3220.5,-0.5"/>
<text text-anchor="middle" x="3263.5" y="-7.5" font-family="Helvetica,sans-Serif" font-size="10.00">MMSForcing.H</text>
</a>
</g>
</g>
<!-- Node2&#45;&gt;Node254 -->
<g id="edge58" class="edge">
<title>Node2&#45;&gt;Node254</title>
<path fill="none" stroke="midnightblue" d="M1859.52,-120.87C2165.94,-119.94 3836.13,-113.17 3872.5,-76 3878.72,-69.65 3878.55,-62.51 3872.5,-56 3834.17,-14.73 3439.85,-10.97 3306.96,-10.88"/>
<polygon fill="midnightblue" stroke="midnightblue" points="1859.19,-117.37 1849.2,-120.9 1859.21,-124.37 1859.19,-117.37"/>
</g>
<!-- Node255 -->
<g id="node33" class="node">
<title>Node255</title>
<g id="a_node33"><a xlink:href="_p_d_e_helpers_8_h.html" target="_top" xlink:title=" ">
<polygon fill="white" stroke="red" points="91.5,-56.5 91.5,-75.5 175.5,-75.5 175.5,-56.5 91.5,-56.5"/>
<text text-anchor="middle" x="133.5" y="-63.5" font-family="Helvetica,sans-Serif" font-size="10.00">PDEHelpers.H</text>
</a>
</g>
</g>
<!-- Node2&#45;&gt;Node255 -->
<g id="edge40" class="edge">
<title>Node2&#45;&gt;Node255</title>
<path fill="none" stroke="midnightblue" d="M1763.64,-120.63C1529.44,-118.65 502.56,-108.29 184.5,-76 181.64,-75.71 178.69,-75.35 175.73,-74.95"/>
<polygon fill="midnightblue" stroke="midnightblue" points="1763.85,-124.13 1773.87,-120.71 1763.9,-117.13 1763.85,-124.13"/>
</g>
<!-- Node256 -->
<g id="node34" class="node">
<title>Node256</title>
<g id="a_node34"><a xlink:href="_s_d_r_source_8_h.html" target="_top" xlink:title=" ">
<polygon fill="white" stroke="red" points="2380.5,-56.5 2380.5,-75.5 2460.5,-75.5 2460.5,-56.5 2380.5,-56.5"/>
<text text-anchor="middle" x="2420.5" y="-63.5" font-family="Helvetica,sans-Serif" font-size="10.00">SDRSource.H</text>
</a>
</g>
</g>
<!-- Node2&#45;&gt;Node256 -->
<g id="edge42" class="edge">
<title>Node2&#45;&gt;Node256</title>
<path fill="none" stroke="midnightblue" d="M1859.3,-118.48C1955.56,-113.12 2179.51,-99.12 2366.5,-76 2371.03,-75.44 2375.76,-74.77 2380.45,-74.06"/>
<polygon fill="midnightblue" stroke="midnightblue" points="1859.09,-114.99 1849.3,-119.04 1859.47,-121.98 1859.09,-114.99"/>
</g>
<!-- Node258 -->
<g id="node35" class="node">
<title>Node258</title>
<g id="a_node35"><a xlink:href="_source_term_8_h.html" target="_top" xlink:title=" ">
<polygon fill="white" stroke="red" points="2478.5,-56.5 2478.5,-75.5 2562.5,-75.5 2562.5,-56.5 2478.5,-56.5"/>
<text text-anchor="middle" x="2520.5" y="-63.5" font-family="Helvetica,sans-Serif" font-size="10.00">SourceTerm.H</text>
</a>
</g>
</g>
<!-- Node2&#45;&gt;Node258 -->
<g id="edge43" class="edge">
<title>Node2&#45;&gt;Node258</title>
<path fill="none" stroke="midnightblue" d="M1859.41,-119.47C1968.2,-115.62 2242.08,-103.76 2469.5,-76 2472.36,-75.65 2475.29,-75.25 2478.25,-74.81"/>
<polygon fill="midnightblue" stroke="midnightblue" points="1858.97,-115.98 1849.1,-119.83 1859.21,-122.98 1858.97,-115.98"/>
</g>
<!-- Node259 -->
<g id="node36" class="node">
<title>Node259</title>
<g id="a_node36"><a xlink:href="_temperature_source_8_h.html" target="_top" xlink:title=" ">
<polygon fill="white" stroke="red" points="2580.5,-56.5 2580.5,-75.5 2702.5,-75.5 2702.5,-56.5 2580.5,-56.5"/>
<text text-anchor="middle" x="2641.5" y="-63.5" font-family="Helvetica,sans-Serif" font-size="10.00">TemperatureSource.H</text>
</a>
</g>
</g>
<!-- Node2&#45;&gt;Node259 -->
<g id="edge44" class="edge">
<title>Node2&#45;&gt;Node259</title>
<path fill="none" stroke="midnightblue" d="M1859.44,-119.31C1979.54,-114.82 2302.92,-101.19 2571.5,-76 2574.43,-75.73 2577.42,-75.42 2580.44,-75.1"/>
<polygon fill="midnightblue" stroke="midnightblue" points="1859,-115.82 1849.13,-119.69 1859.25,-122.82 1859,-115.82"/>
</g>
<!-- Node260 -->
<g id="node37" class="node">
<title>Node260</title>
<g id="a_node37"><a xlink:href="_t_k_e_source_8_h.html" target="_top" xlink:title=" ">
<polygon fill="white" stroke="red" points="2721,-56.5 2721,-75.5 2800,-75.5 2800,-56.5 2721,-56.5"/>
<text text-anchor="middle" x="2760.5" y="-63.5" font-family="Helvetica,sans-Serif" font-size="10.00">TKESource.H</text>
</a>
</g>
</g>
<!-- Node2&#45;&gt;Node260 -->
<g id="edge45" class="edge">
<title>Node2&#45;&gt;Node260</title>
<path fill="none" stroke="midnightblue" d="M1859.77,-120.82C1994.8,-119.83 2387.72,-113.66 2711.5,-76 2714.59,-75.64 2717.78,-75.2 2720.99,-74.72"/>
<polygon fill="midnightblue" stroke="midnightblue" points="1859.35,-117.32 1849.37,-120.89 1859.4,-124.32 1859.35,-117.32"/>
</g>
<!-- Node264 -->
<g id="node38" class="node">
<title>Node264</title>
<g id="a_node38"><a xlink:href="_split_advection_8_h.html" target="_top" xlink:title=" ">
<polygon fill="white" stroke="red" points="2817.5,-56.5 2817.5,-75.5 2915.5,-75.5 2915.5,-56.5 2817.5,-56.5"/>
<text text-anchor="middle" x="2866.5" y="-63.5" font-family="Helvetica,sans-Serif" font-size="10.00">SplitAdvection.H</text>
</a>
</g>
</g>
<!-- Node2&#45;&gt;Node264 -->
<g id="edge46" class="edge">
<title>Node2&#45;&gt;Node264</title>
<path fill="none" stroke="midnightblue" d="M1859.43,-120.68C2003.43,-119.34 2444.77,-112.32 2808.5,-76 2811.34,-75.72 2814.25,-75.39 2817.19,-75.03"/>
<polygon fill="midnightblue" stroke="midnightblue" points="1859.15,-117.19 1849.18,-120.77 1859.21,-124.19 1859.15,-117.19"/>
</g>
<!-- Node266 -->
<g id="node39" class="node">
<title>Node266</title>
<g id="a_node39"><a xlink:href="fvm__utils_8_h.html" target="_top" xlink:title=" ">
<polygon fill="white" stroke="red" points="2934,-56.5 2934,-75.5 3007,-75.5 3007,-56.5 2934,-56.5"/>
<text text-anchor="middle" x="2970.5" y="-63.5" font-family="Helvetica,sans-Serif" font-size="10.00">fvm_utils.H</text>
</a>
</g>
</g>
<!-- Node2&#45;&gt;Node266 -->
<g id="edge47" class="edge">
<title>Node2&#45;&gt;Node266</title>
<path fill="none" stroke="midnightblue" d="M1859.48,-120.04C2044.72,-116.17 2713.48,-100.76 2924.5,-76 2927.57,-75.64 2930.74,-75.19 2933.92,-74.68"/>
<polygon fill="midnightblue" stroke="midnightblue" points="1859.17,-116.54 1849.24,-120.25 1859.31,-123.54 1859.17,-116.54"/>
</g>
<!-- Node277 -->
<g id="node40" class="node">
<title>Node277</title>
<g id="a_node40"><a xlink:href="_i_b_8_h.html" target="_top" xlink:title=" ">
<polygon fill="white" stroke="red" points="338,-56.5 338,-75.5 375,-75.5 375,-56.5 338,-56.5"/>
<text text-anchor="middle" x="356.5" y="-63.5" font-family="Helvetica,sans-Serif" font-size="10.00">IB.H</text>
</a>
</g>
</g>
<!-- Node2&#45;&gt;Node277 -->
<g id="edge49" class="edge">
<title>Node2&#45;&gt;Node277</title>
<path fill="none" stroke="midnightblue" d="M1763.81,-120.99C1548.22,-120.72 663.32,-117.09 389.5,-76 384.8,-75.3 379.82,-74.15 375.18,-72.91"/>
<polygon fill="midnightblue" stroke="midnightblue" points="1763.85,-124.49 1773.86,-121 1763.86,-117.49 1763.85,-124.49"/>
</g>
<!-- Node278 -->
<g id="node41" class="node">
<title>Node278</title>
<g id="a_node41"><a xlink:href="_ocean_waves_8_h.html" target="_top" xlink:title=" ">
<polygon fill="white" stroke="red" points="705.5,-56.5 705.5,-75.5 795.5,-75.5 795.5,-56.5 705.5,-56.5"/>
<text text-anchor="middle" x="750.5" y="-63.5" font-family="Helvetica,sans-Serif" font-size="10.00">OceanWaves.H</text>
</a>
</g>
</g>
<!-- Node2&#45;&gt;Node278 -->
<g id="edge53" class="edge">
<title>Node2&#45;&gt;Node278</title>
<path fill="none" stroke="midnightblue" d="M1763.34,-120.65C1618.62,-119.22 1175.1,-111.99 809.5,-76 804.96,-75.55 800.24,-74.99 795.54,-74.37"/>
<polygon fill="midnightblue" stroke="midnightblue" points="1763.6,-124.16 1773.63,-120.75 1763.67,-117.16 1763.6,-124.16"/>
</g>
<!-- Node62 -->
<g id="node42" class="node">
<title>Node62</title>
<g id="a_node42"><a xlink:href="hos__waves__ops_8_h.html" target="_top" xlink:title=" ">
<polygon fill="white" stroke="red" points="898.5,-0.5 898.5,-19.5 1002.5,-19.5 1002.5,-0.5 898.5,-0.5"/>
<text text-anchor="middle" x="950.5" y="-7.5" font-family="Helvetica,sans-Serif" font-size="10.00">hos_waves_ops.H</text>
</a>
</g>
</g>
<!-- Node2&#45;&gt;Node62 -->
<g id="edge56" class="edge">
<title>Node2&#45;&gt;Node62</title>
<path fill="none" stroke="midnightblue" d="M1763.75,-120.59C1573.03,-118.73 874.62,-109.64 842.5,-76 817.26,-49.57 870.91,-29.96 911.27,-19.52"/>
<polygon fill="midnightblue" stroke="midnightblue" points="1763.72,-124.09 1773.75,-120.69 1763.79,-117.09 1763.72,-124.09"/>
</g>
<!-- Node279 -->
<g id="node43" class="node">
<title>Node279</title>
<g id="a_node43"><a xlink:href="hydrostatic__ops_8_h.html" target="_top" xlink:title=" ">
<polygon fill="white" stroke="red" points="3025.5,-56.5 3025.5,-75.5 3129.5,-75.5 3129.5,-56.5 3025.5,-56.5"/>
<text text-anchor="middle" x="3077.5" y="-63.5" font-family="Helvetica,sans-Serif" font-size="10.00">hydrostatic_ops.H</text>
</a>
</g>
</g>
<!-- Node2&#45;&gt;Node279 -->
<g id="edge59" class="edge">
<title>Node2&#45;&gt;Node279</title>
<path fill="none" stroke="midnightblue" d="M1859.17,-121.04C2021.43,-120.81 2567.06,-116.81 3015.5,-76 3018.75,-75.7 3022.09,-75.35 3025.45,-74.97"/>
<polygon fill="midnightblue" stroke="midnightblue" points="1859.04,-117.54 1849.04,-121.05 1859.05,-124.54 1859.04,-117.54"/>
</g>
<!-- Node34 -->
<g id="node44" class="node">
<title>Node34</title>
<g id="a_node44"><a xlink:href="_burggraf_lid_8cpp.html" target="_top" xlink:title=" ">
<polygon fill="white" stroke="black" points="3148,-56.5 3148,-75.5 3241,-75.5 3241,-56.5 3148,-56.5"/>
<text text-anchor="middle" x="3194.5" y="-63.5" font-family="Helvetica,sans-Serif" font-size="10.00">BurggrafLid.cpp</text>
</a>
</g>
</g>
<!-- Node2&#45;&gt;Node34 -->
<g id="edge60" class="edge">
<title>Node2&#45;&gt;Node34</title>
<path fill="none" stroke="midnightblue" d="M1859.22,-120.19C2065.63,-116.54 2882.68,-100.8 3138.5,-76 3141.54,-75.71 3144.66,-75.35 3147.81,-74.95"/>
<polygon fill="midnightblue" stroke="midnightblue" points="1858.95,-116.69 1849.01,-120.36 1859.07,-123.69 1858.95,-116.69"/>
</g>
<!-- Node280 -->
<g id="node45" class="node">
<title>Node280</title>
<g id="a_node45"><a xlink:href="_linear_profile_8cpp.html" target="_top" xlink:title=" ">
<polygon fill="white" stroke="black" points="3259.5,-56.5 3259.5,-75.5 3357.5,-75.5 3357.5,-56.5 3259.5,-56.5"/>
<text text-anchor="middle" x="3308.5" y="-63.5" font-family="Helvetica,sans-Serif" font-size="10.00">LinearProfile.cpp</text>
</a>
</g>
</g>
<!-- Node2&#45;&gt;Node280 -->
<g id="edge61" class="edge">
<title>Node2&#45;&gt;Node280</title>
<path fill="none" stroke="midnightblue" d="M1859.31,-120.29C2076.48,-116.97 2971.35,-101.92 3250.5,-76 3253.34,-75.74 3256.25,-75.42 3259.19,-75.07"/>
<polygon fill="midnightblue" stroke="midnightblue" points="1859.14,-116.8 1849.2,-120.45 1859.25,-123.8 1859.14,-116.8"/>
</g>
<!-- Node35 -->
<g id="node46" class="node">
<title>Node35</title>
<g id="a_node46"><a xlink:href="_power_law_profile_8cpp.html" target="_top" xlink:title=" ">
<polygon fill="white" stroke="black" points="3376,-56.5 3376,-75.5 3493,-75.5 3493,-56.5 3376,-56.5"/>
<text text-anchor="middle" x="3434.5" y="-63.5" font-family="Helvetica,sans-Serif" font-size="10.00">PowerLawProfile.cpp</text>
</a>
</g>
</g>
<!-- Node2&#45;&gt;Node35 -->
<g id="edge62" class="edge">
<title>Node2&#45;&gt;Node35</title>
<path fill="none" stroke="midnightblue" d="M1859.42,-121.4C2050.13,-122.63 2773.67,-123.68 3366.5,-76 3369.59,-75.75 3372.75,-75.46 3375.94,-75.14"/>
<polygon fill="midnightblue" stroke="midnightblue" points="1859.2,-117.9 1849.17,-121.33 1859.15,-124.9 1859.2,-117.9"/>
</g>
<!-- Node281 -->
<g id="node47" class="node">
<title>Node281</title>
<g id="a_node47"><a xlink:href="_u_d_f_8cpp.html" target="_top" xlink:title=" ">
<polygon fill="white" stroke="black" points="3511.5,-56.5 3511.5,-75.5 3567.5,-75.5 3567.5,-56.5 3511.5,-56.5"/>
<text text-anchor="middle" x="3539.5" y="-63.5" font-family="Helvetica,sans-Serif" font-size="10.00">UDF.cpp</text>
</a>
</g>
</g>
<!-- Node2&#45;&gt;Node281 -->
<g id="edge63" class="edge">
<title>Node2&#45;&gt;Node281</title>
<path fill="none" stroke="midnightblue" d="M1859.35,-121.1C2099.22,-121.37 3172.28,-120.05 3502.5,-76 3505.38,-75.62 3508.37,-75.1 3511.34,-74.5"/>
<polygon fill="midnightblue" stroke="midnightblue" points="1859.22,-117.6 1849.21,-121.08 1859.21,-124.6 1859.22,-117.6"/>
</g>
<!-- Node282 -->
<g id="node48" class="node">
<title>Node282</title>
<g id="a_node48"><a xlink:href="_transport_model_8_h.html" target="_top" xlink:title=" ">
<polygon fill="white" stroke="red" points="3585.5,-56.5 3585.5,-75.5 3687.5,-75.5 3687.5,-56.5 3585.5,-56.5"/>
<text text-anchor="middle" x="3636.5" y="-63.5" font-family="Helvetica,sans-Serif" font-size="10.00">TransportModel.H</text>
</a>
</g>
</g>
<!-- Node2&#45;&gt;Node282 -->
<g id="edge65" class="edge">
<title>Node2&#45;&gt;Node282</title>
<path fill="none" stroke="midnightblue" d="M1859.4,-120.58C2105.45,-118.3 3229.18,-106.36 3576.5,-76 3579.44,-75.74 3582.45,-75.43 3585.49,-75.09"/>
<polygon fill="midnightblue" stroke="midnightblue" points="1859.31,-117.08 1849.34,-120.67 1859.37,-124.08 1859.31,-117.08"/>
</g>
<!-- Node140 -->
<g id="node49" class="node">
<title>Node140</title>
<g id="a_node49"><a xlink:href="_a_m_d_8_h.html" target="_top" xlink:title=" ">
<polygon fill="white" stroke="red" points="3705.5,-56.5 3705.5,-75.5 3755.5,-75.5 3755.5,-56.5 3705.5,-56.5"/>
<text text-anchor="middle" x="3730.5" y="-63.5" font-family="Helvetica,sans-Serif" font-size="10.00">AMD.H</text>
</a>
</g>
</g>
<!-- Node2&#45;&gt;Node140 -->
<g id="edge66" class="edge">
<title>Node2&#45;&gt;Node140</title>
<path fill="none" stroke="midnightblue" d="M1859.08,-120.53C2133.64,-117.75 3509.92,-102.54 3696.5,-76 3699.4,-75.59 3702.41,-75.01 3705.38,-74.35"/>
<polygon fill="midnightblue" stroke="midnightblue" points="1859,-117.03 1849.04,-120.63 1859.07,-124.03 1859,-117.03"/>
</g>
<!-- Node143 -->
<g id="node50" class="node">
<title>Node143</title>
<g id="a_node50"><a xlink:href="_smagorinsky_8_h.html" target="_top" xlink:title=" ">
<polygon fill="white" stroke="red" points="3774,-56.5 3774,-75.5 3863,-75.5 3863,-56.5 3774,-56.5"/>
<text text-anchor="middle" x="3818.5" y="-63.5" font-family="Helvetica,sans-Serif" font-size="10.00">Smagorinsky.H</text>
</a>
</g>
</g>
<!-- Node2&#45;&gt;Node143 -->
<g id="edge67" class="edge">
<title>Node2&#45;&gt;Node143</title>
<path fill="none" stroke="midnightblue" d="M1859.36,-120.82C2120.72,-119.7 3377.97,-112.48 3764.5,-76 3767.53,-75.71 3770.64,-75.36 3773.78,-74.96"/>
<polygon fill="midnightblue" stroke="midnightblue" points="1859.05,-117.32 1849.07,-120.86 1859.08,-124.32 1859.05,-117.32"/>
</g>
<!-- Node4&#45;&gt;Node3 -->
<g id="edge4" class="edge">
<title>Node4&#45;&gt;Node3</title>
<path fill="none" stroke="midnightblue" d="M969.96,-55.86C1118.1,-37.85 1280.95,-22.39 1359.44,-15.22"/>
<polygon fill="midnightblue" stroke="midnightblue" points="969.28,-52.42 959.78,-57.11 970.13,-59.37 969.28,-52.42"/>
</g>
<!-- Node9&#45;&gt;Node57 -->
<g id="edge7" class="edge">
<title>Node9&#45;&gt;Node57</title>
<path fill="none" stroke="midnightblue" d="M459.39,-56.25C408.86,-45.99 325.78,-29.13 276.59,-19.14"/>
<polygon fill="midnightblue" stroke="midnightblue" points="458.85,-59.71 469.35,-58.27 460.24,-52.85 458.85,-59.71"/>
</g>
<!-- Node9&#45;&gt;Node73 -->
<g id="edge8" class="edge">
<title>Node9&#45;&gt;Node73</title>
<path fill="none" stroke="midnightblue" d="M463.47,-53.55C426.74,-42.77 372.93,-26.97 342.25,-17.97"/>
<polygon fill="midnightblue" stroke="midnightblue" points="462.76,-56.99 473.34,-56.44 464.73,-50.27 462.76,-56.99"/>
</g>
<!-- Node9&#45;&gt;Node84 -->
<g id="edge9" class="edge">
<title>Node9&#45;&gt;Node84</title>
<path fill="none" stroke="midnightblue" d="M474.78,-52.1C453.11,-42.01 423.6,-28.27 404.79,-19.52"/>
<polygon fill="midnightblue" stroke="midnightblue" points="473.58,-55.4 484.12,-56.44 476.53,-49.05 473.58,-55.4"/>
</g>
<!-- Node9&#45;&gt;Node96 -->
<g id="edge10" class="edge">
<title>Node9&#45;&gt;Node96</title>
<path fill="none" stroke="midnightblue" d="M545.76,-57.88C606.36,-47.9 716.28,-29.8 780.38,-19.25"/>
<polygon fill="midnightblue" stroke="midnightblue" points="545.05,-54.45 535.76,-59.53 546.19,-61.35 545.05,-54.45"/>
</g>
<!-- Node9&#45;&gt;Node105 -->
<g id="edge11" class="edge">
<title>Node9&#45;&gt;Node105</title>
<path fill="none" stroke="midnightblue" d="M496.3,-46.4C493.29,-37.36 489.81,-26.94 487.42,-19.75"/>
<polygon fill="midnightblue" stroke="midnightblue" points="493.04,-47.7 499.53,-56.08 499.69,-45.49 493.04,-47.7"/>
</g>
<!-- Node9&#45;&gt;Node135 -->
<g id="edge12" class="edge">
<title>Node9&#45;&gt;Node135</title>
<path fill="none" stroke="midnightblue" d="M527.34,-51.45C545.61,-41.48 569.92,-28.23 585.63,-19.65"/>
<polygon fill="midnightblue" stroke="midnightblue" points="525.51,-48.46 518.41,-56.32 528.86,-54.61 525.51,-48.46"/>
</g>
<!-- Node9&#45;&gt;Node148 -->
<g id="edge13" class="edge">
<title>Node9&#45;&gt;Node148</title>
<path fill="none" stroke="midnightblue" d="M545.64,-53.96C585.49,-43.76 643.86,-28.82 680.22,-19.52"/>
<polygon fill="midnightblue" stroke="midnightblue" points="544.75,-50.57 535.93,-56.44 546.49,-57.35 544.75,-50.57"/>
</g>
<!-- Node242&#45;&gt;Node157 -->
<g id="edge26" class="edge">
<title>Node242&#45;&gt;Node157</title>
<path fill="none" stroke="midnightblue" d="M2126.43,-54.85C2062,-44.65 1963.78,-29.1 1903.28,-19.52"/>
<polygon fill="midnightblue" stroke="midnightblue" points="2126.04,-58.34 2136.47,-56.44 2127.14,-51.42 2126.04,-58.34"/>
</g>
<!-- Node242&#45;&gt;Node246 -->
<g id="edge27" class="edge">
<title>Node242&#45;&gt;Node246</title>
<path fill="none" stroke="midnightblue" d="M2149.9,-53.7C2113.28,-43.51 2060.24,-28.74 2027.1,-19.52"/>
<polygon fill="midnightblue" stroke="midnightblue" points="2149.19,-57.13 2159.76,-56.44 2151.06,-50.39 2149.19,-57.13"/>
</g>
<!-- Node242&#45;&gt;Node248 -->
<g id="edge28" class="edge">
<title>Node242&#45;&gt;Node248</title>
<path fill="none" stroke="midnightblue" d="M2172.75,-49.54C2161.69,-39.91 2147.87,-27.87 2138.64,-19.83"/>
<polygon fill="midnightblue" stroke="midnightblue" points="2170.7,-52.4 2180.54,-56.32 2175.3,-47.12 2170.7,-52.4"/>
</g>
<!-- Node242&#45;&gt;Node249 -->
<g id="edge29" class="edge">
<title>Node242&#45;&gt;Node249</title>
<path fill="none" stroke="midnightblue" d="M2207.97,-49.54C2218.84,-39.91 2232.44,-27.87 2241.52,-19.83"/>
<polygon fill="midnightblue" stroke="midnightblue" points="2205.47,-47.07 2200.3,-56.32 2210.11,-52.32 2205.47,-47.07"/>
</g>
<!-- Node242&#45;&gt;Node251 -->
<g id="edge30" class="edge">
<title>Node242&#45;&gt;Node251</title>
<path fill="none" stroke="midnightblue" d="M2229.45,-53.57C2264.16,-43.38 2314.18,-28.7 2345.48,-19.52"/>
<polygon fill="midnightblue" stroke="midnightblue" points="2228.27,-50.27 2219.66,-56.44 2230.24,-56.99 2228.27,-50.27"/>
</g>
<!-- Node242&#45;&gt;Node158 -->
<g id="edge31" class="edge">
<title>Node242&#45;&gt;Node158</title>
<path fill="none" stroke="midnightblue" d="M2249.07,-54.66C2306.9,-44.46 2394.28,-29.04 2448.24,-19.52"/>
<polygon fill="midnightblue" stroke="midnightblue" points="2248.23,-51.26 2238.99,-56.44 2249.44,-58.15 2248.23,-51.26"/>
</g>
<!-- Node242&#45;&gt;Node254 -->
<g id="edge32" class="edge">
<title>Node242&#45;&gt;Node254</title>
<path fill="none" stroke="midnightblue" d="M2258.78,-61.56C2461.32,-51.37 3054.99,-21.49 3220.32,-13.17"/>
<polygon fill="midnightblue" stroke="midnightblue" points="2258.38,-58.08 2248.57,-62.08 2258.73,-65.07 2258.38,-58.08"/>
</g>
<!-- Node255&#45;&gt;Node57 -->
<g id="edge41" class="edge">
<title>Node255&#45;&gt;Node57</title>
<path fill="none" stroke="midnightblue" d="M159.08,-51.59C178.12,-41.61 203.56,-28.27 219.99,-19.65"/>
<polygon fill="midnightblue" stroke="midnightblue" points="157.28,-48.58 150.05,-56.32 160.53,-54.78 157.28,-48.58"/>
</g>
<!-- Node277&#45;&gt;Node73 -->
<g id="edge50" class="edge">
<title>Node277&#45;&gt;Node73</title>
<path fill="none" stroke="midnightblue" d="M344.44,-47.86C337.86,-38.5 329.99,-27.33 324.66,-19.75"/>
<polygon fill="midnightblue" stroke="midnightblue" points="341.61,-49.92 350.23,-56.08 347.33,-45.89 341.61,-49.92"/>
</g>
<!-- Node278&#45;&gt;Node96 -->
<g id="edge54" class="edge">
<title>Node278&#45;&gt;Node96</title>
<path fill="none" stroke="midnightblue" d="M771.8,-50.62C786.42,-40.76 805.33,-27.99 817.68,-19.65"/>
<polygon fill="midnightblue" stroke="midnightblue" points="769.68,-47.83 763.35,-56.32 773.6,-53.63 769.68,-47.83"/>
</g>
<!-- Node278&#45;&gt;Node62 -->
<g id="edge55" class="edge">
<title>Node278&#45;&gt;Node62</title>
<path fill="none" stroke="midnightblue" d="M791.87,-53.83C829.64,-43.63 884.64,-28.78 918.96,-19.52"/>
<polygon fill="midnightblue" stroke="midnightblue" points="790.93,-50.46 782.19,-56.44 792.76,-57.22 790.93,-50.46"/>
</g>
</g>
</svg>
