<?xml version="1.0" encoding="UTF-8" standalone="no"?>
<!DOCTYPE svg PUBLIC "-//W3C//DTD SVG 1.1//EN"
 "http://www.w3.org/Graphics/SVG/1.1/DTD/svg11.dtd">
<!-- Generated by graphviz version 2.43.0 (0)
 -->
<!-- Title: MOData.H Pages: 1 -->
<svg width="1062pt" height="263pt"
 viewBox="0.00 0.00 1061.50 263.00" xmlns="http://www.w3.org/2000/svg" xmlns:xlink="http://www.w3.org/1999/xlink">
<g id="graph0" class="graph" transform="scale(1 1) rotate(0) translate(4 259)">
<title>MOData.H</title>
<polygon fill="white" stroke="transparent" points="-4,4 -4,-259 1057.5,-259 1057.5,4 -4,4"/>
<!-- Node1 -->
<g id="node1" class="node">
<title>Node1</title>
<g id="a_node1"><a xlink:title=" ">
<polygon fill="#bfbfbf" stroke="black" points="766.5,-235.5 766.5,-254.5 833.5,-254.5 833.5,-235.5 766.5,-235.5"/>
<text text-anchor="middle" x="800" y="-242.5" font-family="Helvetica,sans-Serif" font-size="10.00">MOData.H</text>
</a>
</g>
</g>
<!-- Node2 -->
<g id="node2" class="node">
<title>Node2</title>
<g id="a_node2"><a xlink:href="_a_b_l_wall_function_8_h.html" target="_top" xlink:title=" ">
<polygon fill="white" stroke="black" points="628.5,-179.5 628.5,-198.5 735.5,-198.5 735.5,-179.5 628.5,-179.5"/>
<text text-anchor="middle" x="682" y="-186.5" font-family="Helvetica,sans-Serif" font-size="10.00">ABLWallFunction.H</text>
</a>
</g>
</g>
<!-- Node1&#45;&gt;Node2 -->
<g id="edge1" class="edge">
<title>Node1&#45;&gt;Node2</title>
<path fill="none" stroke="midnightblue" d="M772.1,-231.23C750.03,-221.13 719.82,-207.31 700.61,-198.52"/>
<polygon fill="midnightblue" stroke="midnightblue" points="770.75,-234.46 781.3,-235.44 773.67,-228.1 770.75,-234.46"/>
</g>
<!-- Node17 -->
<g id="node17" class="node">
<title>Node17</title>
<g id="a_node17"><a xlink:href="_m_o_data_8cpp.html" target="_top" xlink:title=" ">
<polygon fill="white" stroke="black" points="828.5,-179.5 828.5,-198.5 905.5,-198.5 905.5,-179.5 828.5,-179.5"/>
<text text-anchor="middle" x="867" y="-186.5" font-family="Helvetica,sans-Serif" font-size="10.00">MOData.cpp</text>
</a>
</g>
</g>
<!-- Node1&#45;&gt;Node17 -->
<g id="edge19" class="edge">
<title>Node1&#45;&gt;Node17</title>
<path fill="none" stroke="midnightblue" d="M818.83,-228.82C830.84,-219.15 845.97,-206.95 856.04,-198.83"/>
<polygon fill="midnightblue" stroke="midnightblue" points="816.35,-226.32 810.76,-235.32 820.75,-231.77 816.35,-226.32"/>
</g>
<!-- Node18 -->
<g id="node18" class="node">
<title>Node18</title>
<g id="a_node18"><a xlink:href="_shear_stress_8_h.html" target="_top" xlink:title=" ">
<polygon fill="white" stroke="black" points="929.5,-123.5 929.5,-142.5 1014.5,-142.5 1014.5,-123.5 929.5,-123.5"/>
<text text-anchor="middle" x="972" y="-130.5" font-family="Helvetica,sans-Serif" font-size="10.00">ShearStress.H</text>
</a>
</g>
</g>
<!-- Node1&#45;&gt;Node18 -->
<g id="edge20" class="edge">
<title>Node1&#45;&gt;Node18</title>
<path fill="none" stroke="midnightblue" d="M801.15,-224.78C803.02,-210.34 807.81,-191.06 820,-179 849.05,-150.26 895.55,-139.72 929.47,-135.94"/>
<polygon fill="midnightblue" stroke="midnightblue" points="797.63,-224.81 800.19,-235.09 804.6,-225.46 797.63,-224.81"/>
</g>
<!-- Node3 -->
<g id="node3" class="node">
<title>Node3</title>
<g id="a_node3"><a xlink:href="_boussinesq_bubble_8cpp.html" target="_top" xlink:title=" ">
<polygon fill="white" stroke="black" points="574,-123.5 574,-142.5 700,-142.5 700,-123.5 574,-123.5"/>
<text text-anchor="middle" x="637" y="-130.5" font-family="Helvetica,sans-Serif" font-size="10.00">BoussinesqBubble.cpp</text>
</a>
</g>
</g>
<!-- Node2&#45;&gt;Node3 -->
<g id="edge2" class="edge">
<title>Node2&#45;&gt;Node3</title>
<path fill="none" stroke="midnightblue" d="M667.95,-171.14C660.11,-161.74 650.67,-150.4 644.29,-142.75"/>
<polygon fill="midnightblue" stroke="midnightblue" points="665.48,-173.64 674.57,-179.08 670.86,-169.16 665.48,-173.64"/>
</g>
<!-- Node4 -->
<g id="node4" class="node">
<title>Node4</title>
<g id="a_node4"><a xlink:href="_a_b_l_8_h.html" target="_top" xlink:title=" ">
<polygon fill="white" stroke="black" points="486,-67.5 486,-86.5 532,-86.5 532,-67.5 486,-67.5"/>
<text text-anchor="middle" x="509" y="-74.5" font-family="Helvetica,sans-Serif" font-size="10.00">ABL.H</text>
</a>
</g>
</g>
<!-- Node2&#45;&gt;Node4 -->
<g id="edge3" class="edge">
<title>Node2&#45;&gt;Node4</title>
<path fill="none" stroke="midnightblue" d="M697.78,-171.36C709.1,-157.36 720.51,-137.38 709,-123 687.04,-95.56 579.93,-83.67 532.12,-79.68"/>
<polygon fill="midnightblue" stroke="midnightblue" points="694.88,-169.36 690.95,-179.2 700.16,-173.96 694.88,-169.36"/>
</g>
<!-- Node13 -->
<g id="node13" class="node">
<title>Node13</title>
<g id="a_node13"><a xlink:href="_a_b_l_wall_function_8cpp.html" target="_top" xlink:title=" ">
<polygon fill="white" stroke="black" points="936.5,-6 936.5,-25 1053.5,-25 1053.5,-6 936.5,-6"/>
<text text-anchor="middle" x="995" y="-13" font-family="Helvetica,sans-Serif" font-size="10.00">ABLWallFunction.cpp</text>
</a>
</g>
</g>
<!-- Node2&#45;&gt;Node13 -->
<g id="edge18" class="edge">
<title>Node2&#45;&gt;Node13</title>
<path fill="none" stroke="midnightblue" d="M706.55,-174.55C768.28,-140.72 928.67,-52.85 979.38,-25.06"/>
<polygon fill="midnightblue" stroke="midnightblue" points="704.61,-171.62 697.52,-179.5 707.97,-177.76 704.61,-171.62"/>
</g>
<!-- Node14 -->
<g id="node14" class="node">
<title>Node14</title>
<g id="a_node14"><a xlink:href="_a_b_l_stats_8_h.html" target="_top" xlink:title=" ">
<polygon fill="white" stroke="black" points="396.5,-67.5 396.5,-86.5 467.5,-86.5 467.5,-67.5 396.5,-67.5"/>
<text text-anchor="middle" x="432" y="-74.5" font-family="Helvetica,sans-Serif" font-size="10.00">ABLStats.H</text>
</a>
</g>
</g>
<!-- Node2&#45;&gt;Node14 -->
<g id="edge13" class="edge">
<title>Node2&#45;&gt;Node14</title>
<path fill="none" stroke="midnightblue" d="M618.3,-182.97C558.6,-176.99 475.04,-164.93 451,-143 434.84,-128.26 432.13,-100.63 431.86,-86.62"/>
<polygon fill="midnightblue" stroke="midnightblue" points="618.11,-186.47 628.4,-183.95 618.79,-179.5 618.11,-186.47"/>
</g>
<!-- Node16 -->
<g id="node16" class="node">
<title>Node16</title>
<g id="a_node16"><a xlink:href="_a_b_l_stats_base_8_h.html" target="_top" xlink:title=" ">
<polygon fill="white" stroke="black" points="460.5,-123.5 460.5,-142.5 555.5,-142.5 555.5,-123.5 460.5,-123.5"/>
<text text-anchor="middle" x="508" y="-130.5" font-family="Helvetica,sans-Serif" font-size="10.00">ABLStatsBase.H</text>
</a>
</g>
</g>
<!-- Node2&#45;&gt;Node16 -->
<g id="edge15" class="edge">
<title>Node2&#45;&gt;Node16</title>
<path fill="none" stroke="midnightblue" d="M644.74,-176.44C611.93,-166.26 564.92,-151.66 535.44,-142.52"/>
<polygon fill="midnightblue" stroke="midnightblue" points="643.84,-179.82 654.43,-179.44 645.92,-173.14 643.84,-179.82"/>
</g>
<!-- Node5 -->
<g id="node5" class="node">
<title>Node5</title>
<g id="a_node5"><a xlink:href="_a_b_l_forcing_8cpp.html" target="_top" xlink:title=" ">
<polygon fill="white" stroke="black" points="533.5,-6 533.5,-25 624.5,-25 624.5,-6 533.5,-6"/>
<text text-anchor="middle" x="579" y="-13" font-family="Helvetica,sans-Serif" font-size="10.00">ABLForcing.cpp</text>
</a>
</g>
</g>
<!-- Node4&#45;&gt;Node5 -->
<g id="edge4" class="edge">
<title>Node4&#45;&gt;Node5</title>
<path fill="none" stroke="midnightblue" d="M526.68,-60.97C540.07,-49.59 557.98,-34.37 568.99,-25.01"/>
<polygon fill="midnightblue" stroke="midnightblue" points="524.38,-58.33 519.03,-67.48 528.92,-63.67 524.38,-58.33"/>
</g>
<!-- Node6 -->
<g id="node6" class="node">
<title>Node6</title>
<g id="a_node6"><a xlink:href="_a_b_l_mean_boussinesq_8cpp.html" target="_top" xlink:title=" ">
<polygon fill="white" stroke="black" points="643,-6 643,-25 781,-25 781,-6 643,-6"/>
<text text-anchor="middle" x="712" y="-13" font-family="Helvetica,sans-Serif" font-size="10.00">ABLMeanBoussinesq.cpp</text>
</a>
</g>
</g>
<!-- Node4&#45;&gt;Node6 -->
<g id="edge5" class="edge">
<title>Node4&#45;&gt;Node6</title>
<path fill="none" stroke="midnightblue" d="M542.12,-66.29C581.18,-54.84 645.5,-35.99 682.78,-25.06"/>
<polygon fill="midnightblue" stroke="midnightblue" points="540.9,-63 532.29,-69.17 542.87,-69.72 540.9,-63"/>
</g>
<!-- Node7 -->
<g id="node7" class="node">
<title>Node7</title>
<g id="a_node7"><a xlink:href="_hurricane_forcing_8cpp.html" target="_top" xlink:title=" ">
<polygon fill="white" stroke="black" points="799.5,-6 799.5,-25 918.5,-25 918.5,-6 799.5,-6"/>
<text text-anchor="middle" x="859" y="-13" font-family="Helvetica,sans-Serif" font-size="10.00">HurricaneForcing.cpp</text>
</a>
</g>
</g>
<!-- Node4&#45;&gt;Node7 -->
<g id="edge6" class="edge">
<title>Node4&#45;&gt;Node7</title>
<path fill="none" stroke="midnightblue" d="M542.11,-71.23C594.74,-63.52 700.69,-47.53 790,-31 799.75,-29.2 810.24,-27.08 820.02,-25.03"/>
<polygon fill="midnightblue" stroke="midnightblue" points="541.4,-67.79 532.01,-72.7 542.41,-74.72 541.4,-67.79"/>
</g>
<!-- Node8 -->
<g id="node8" class="node">
<title>Node8</title>
<g id="a_node8"><a xlink:href="helics_8cpp.html" target="_top" xlink:title=" ">
<polygon fill="white" stroke="black" points="98.5,-6 98.5,-25 163.5,-25 163.5,-6 98.5,-6"/>
<text text-anchor="middle" x="131" y="-13" font-family="Helvetica,sans-Serif" font-size="10.00">helics.cpp</text>
</a>
</g>
</g>
<!-- Node4&#45;&gt;Node8 -->
<g id="edge7" class="edge">
<title>Node4&#45;&gt;Node8</title>
<path fill="none" stroke="midnightblue" d="M475.77,-67.28C340.62,-41.98 301.4,-61.15 172,-31 165.53,-29.49 158.66,-27.31 152.44,-25.09"/>
<polygon fill="midnightblue" stroke="midnightblue" points="475.18,-70.73 485.67,-69.18 476.5,-63.85 475.18,-70.73"/>
</g>
<!-- Node9 -->
<g id="node9" class="node">
<title>Node9</title>
<g id="a_node9"><a xlink:href="incflo_8cpp.html" target="_top" xlink:title=" ">
<polygon fill="white" stroke="black" points="181.5,-6 181.5,-25 244.5,-25 244.5,-6 181.5,-6"/>
<text text-anchor="middle" x="213" y="-13" font-family="Helvetica,sans-Serif" font-size="10.00">incflo.cpp</text>
</a>
</g>
</g>
<!-- Node4&#45;&gt;Node9 -->
<g id="edge8" class="edge">
<title>Node4&#45;&gt;Node9</title>
<path fill="none" stroke="midnightblue" d="M476.31,-67.07C476.2,-67.04 476.1,-67.02 476,-67 377.88,-45.76 350.18,-56.22 253,-31 246.85,-29.4 240.32,-27.24 234.36,-25.08"/>
<polygon fill="midnightblue" stroke="midnightblue" points="475.46,-70.46 486,-69.39 477.09,-63.66 475.46,-70.46"/>
</g>
<!-- Node10 -->
<g id="node10" class="node">
<title>Node10</title>
<g id="a_node10"><a xlink:href="incflo__apply__nodal__projection_8cpp.html" target="_top" xlink:title=" ">
<polygon fill="white" stroke="black" points="262.5,-0.5 262.5,-30.5 369.5,-30.5 369.5,-0.5 262.5,-0.5"/>
<text text-anchor="start" x="270.5" y="-18.5" font-family="Helvetica,sans-Serif" font-size="10.00">incflo_apply_nodal</text>
<text text-anchor="middle" x="316" y="-7.5" font-family="Helvetica,sans-Serif" font-size="10.00">_projection.cpp</text>
</a>
</g>
</g>
<!-- Node4&#45;&gt;Node10 -->
<g id="edge9" class="edge">
<title>Node4&#45;&gt;Node10</title>
<path fill="none" stroke="midnightblue" d="M476.08,-65.85C444.52,-56.12 396.6,-41.35 361.42,-30.5"/>
<polygon fill="midnightblue" stroke="midnightblue" points="475.13,-69.22 485.72,-68.82 477.19,-62.53 475.13,-69.22"/>
</g>
<!-- Node11 -->
<g id="node11" class="node">
<title>Node11</title>
<g id="a_node11"><a xlink:href="init_8cpp.html" target="_top" xlink:title=" ">
<polygon fill="white" stroke="black" points="387.5,-6 387.5,-25 440.5,-25 440.5,-6 387.5,-6"/>
<text text-anchor="middle" x="414" y="-13" font-family="Helvetica,sans-Serif" font-size="10.00">init.cpp</text>
</a>
</g>
</g>
<!-- Node4&#45;&gt;Node11 -->
<g id="edge10" class="edge">
<title>Node4&#45;&gt;Node11</title>
<path fill="none" stroke="midnightblue" d="M486.79,-62.09C468.45,-50.6 443.02,-34.68 427.59,-25.01"/>
<polygon fill="midnightblue" stroke="midnightblue" points="485.06,-65.13 495.39,-67.48 488.77,-59.2 485.06,-65.13"/>
</g>
<!-- Node12 -->
<g id="node12" class="node">
<title>Node12</title>
<g id="a_node12"><a xlink:href="_a_b_l_8cpp.html" target="_top" xlink:title=" ">
<polygon fill="white" stroke="black" points="459,-6 459,-25 515,-25 515,-6 459,-6"/>
<text text-anchor="middle" x="487" y="-13" font-family="Helvetica,sans-Serif" font-size="10.00">ABL.cpp</text>
</a>
</g>
</g>
<!-- Node4&#45;&gt;Node12 -->
<g id="edge11" class="edge">
<title>Node4&#45;&gt;Node12</title>
<path fill="none" stroke="midnightblue" d="M502.34,-58C498.3,-47.05 493.31,-33.57 490.15,-25.01"/>
<polygon fill="midnightblue" stroke="midnightblue" points="499.1,-59.31 505.85,-67.48 505.66,-56.88 499.1,-59.31"/>
</g>
<!-- Node4&#45;&gt;Node13 -->
<g id="edge12" class="edge">
<title>Node4&#45;&gt;Node13</title>
<path fill="none" stroke="midnightblue" d="M542.44,-73.62C613.65,-68.29 785.45,-54.01 928,-31 938.1,-29.37 948.98,-27.2 958.97,-25.03"/>
<polygon fill="midnightblue" stroke="midnightblue" points="542,-70.14 532.28,-74.37 542.51,-77.13 542,-70.14"/>
</g>
<!-- Node15 -->
<g id="node15" class="node">
<title>Node15</title>
<g id="a_node15"><a xlink:href="_a_b_l_stats_8cpp.html" target="_top" xlink:title=" ">
<polygon fill="white" stroke="black" points="0,-6 0,-25 80,-25 80,-6 0,-6"/>
<text text-anchor="middle" x="40" y="-13" font-family="Helvetica,sans-Serif" font-size="10.00">ABLStats.cpp</text>
</a>
</g>
</g>
<!-- Node14&#45;&gt;Node15 -->
<g id="edge14" class="edge">
<title>Node14&#45;&gt;Node15</title>
<path fill="none" stroke="midnightblue" d="M386.04,-72.28C319.86,-66.41 194.12,-53.3 89,-31 81.45,-29.4 73.37,-27.21 66,-25.02"/>
<polygon fill="midnightblue" stroke="midnightblue" points="385.87,-75.78 396.13,-73.17 386.48,-68.81 385.87,-75.78"/>
</g>
<!-- Node16&#45;&gt;Node4 -->
<g id="edge16" class="edge">
<title>Node16&#45;&gt;Node4</title>
<path fill="none" stroke="midnightblue" d="M508.36,-112.8C508.52,-103.91 508.71,-93.78 508.84,-86.75"/>
<polygon fill="midnightblue" stroke="midnightblue" points="504.85,-113.02 508.17,-123.08 511.85,-113.15 504.85,-113.02"/>
</g>
<!-- Node16&#45;&gt;Node14 -->
<g id="edge17" class="edge">
<title>Node16&#45;&gt;Node14</title>
<path fill="none" stroke="midnightblue" d="M487.42,-117.38C473.69,-107.62 456.07,-95.11 444.43,-86.83"/>
<polygon fill="midnightblue" stroke="midnightblue" points="485.61,-120.38 495.79,-123.32 489.66,-114.68 485.61,-120.38"/>
</g>
<!-- Node18&#45;&gt;Node13 -->
<g id="edge21" class="edge">
<title>Node18&#45;&gt;Node13</title>
<path fill="none" stroke="midnightblue" d="M975.68,-113.5C980.71,-88.26 989.52,-44.02 993.25,-25.28"/>
<polygon fill="midnightblue" stroke="midnightblue" points="972.25,-112.83 973.73,-123.32 979.11,-114.19 972.25,-112.83"/>
</g>
</g>
</svg>
