<?xml version="1.0" encoding="UTF-8" standalone="no"?>
<!DOCTYPE svg PUBLIC "-//W3C//DTD SVG 1.1//EN"
 "http://www.w3.org/Graphics/SVG/1.1/DTD/svg11.dtd">
<!-- Generated by graphviz version 2.43.0 (0)
 -->
<!-- Title: PDEBase.H Pages: 1 -->
<svg width="4645pt" height="196pt"
 viewBox="0.00 0.00 4644.51 196.00" xmlns="http://www.w3.org/2000/svg" xmlns:xlink="http://www.w3.org/1999/xlink">
<g id="graph0" class="graph" transform="scale(1 1) rotate(0) translate(4 192)">
<title>PDEBase.H</title>
<polygon fill="white" stroke="transparent" points="-4,4 -4,-192 4640.51,-192 4640.51,4 -4,4"/>
<!-- Node1 -->
<g id="node1" class="node">
<title>Node1</title>
<g id="a_node1"><a xlink:title=" ">
<polygon fill="#bfbfbf" stroke="black" points="4229.01,-168.5 4229.01,-187.5 4300.01,-187.5 4300.01,-168.5 4229.01,-168.5"/>
<text text-anchor="middle" x="4264.51" y="-175.5" font-family="Helvetica,sans-Serif" font-size="10.00">PDEBase.H</text>
</a>
</g>
</g>
<!-- Node2 -->
<g id="node2" class="node">
<title>Node2</title>
<g id="a_node2"><a xlink:href="_c_f_d_sim_8_h.html" target="_top" xlink:title=" ">
<polygon fill="white" stroke="red" points="2108.51,-112.5 2108.51,-131.5 2174.51,-131.5 2174.51,-112.5 2108.51,-112.5"/>
<text text-anchor="middle" x="2141.51" y="-119.5" font-family="Helvetica,sans-Serif" font-size="10.00">CFDSim.H</text>
</a>
</g>
</g>
<!-- Node1&#45;&gt;Node2 -->
<g id="edge1" class="edge">
<title>Node1&#45;&gt;Node2</title>
<path fill="none" stroke="midnightblue" d="M4218.65,-175.83C3934.51,-168.61 2418.43,-130.04 2174.61,-123.84"/>
<polygon fill="midnightblue" stroke="midnightblue" points="4218.91,-179.34 4228.99,-176.1 4219.09,-172.34 4218.91,-179.34"/>
</g>
<!-- Node18 -->
<g id="node18" class="node">
<title>Node18</title>
<g id="a_node18"><a xlink:href="_p_d_e_8_h.html" target="_top" xlink:title=" ">
<polygon fill="white" stroke="red" points="472.01,-0.5 472.01,-19.5 519.01,-19.5 519.01,-0.5 472.01,-0.5"/>
<text text-anchor="middle" x="495.51" y="-7.5" font-family="Helvetica,sans-Serif" font-size="10.00">PDE.H</text>
</a>
</g>
</g>
<!-- Node1&#45;&gt;Node18 -->
<g id="edge55" class="edge">
<title>Node1&#45;&gt;Node18</title>
<path fill="none" stroke="midnightblue" d="M4218.78,-176.85C3855.26,-175.62 1428.59,-166.2 696.51,-132 542.4,-124.8 109.11,-189.41 4.51,-76 -1.52,-69.47 -1.48,-62.57 4.51,-56 36.35,-21.1 378.37,-12.93 471.96,-11.34"/>
<polygon fill="midnightblue" stroke="midnightblue" points="4218.91,-180.35 4228.93,-176.89 4218.94,-173.35 4218.91,-180.35"/>
</g>
<!-- Node52 -->
<g id="node19" class="node">
<title>Node52</title>
<g id="a_node19"><a xlink:href="_p_d_e_base_8cpp.html" target="_top" xlink:title=" ">
<polygon fill="white" stroke="black" points="13.51,-56.5 13.51,-75.5 93.51,-75.5 93.51,-56.5 13.51,-56.5"/>
<text text-anchor="middle" x="53.51" y="-63.5" font-family="Helvetica,sans-Serif" font-size="10.00">PDEBase.cpp</text>
</a>
</g>
</g>
<!-- Node1&#45;&gt;Node52 -->
<g id="edge56" class="edge">
<title>Node1&#45;&gt;Node52</title>
<path fill="none" stroke="midnightblue" d="M4218.76,-176.91C3822.01,-175.96 958.19,-166.04 102.51,-76 99.59,-75.69 96.57,-75.31 93.55,-74.87"/>
<polygon fill="midnightblue" stroke="midnightblue" points="4218.99,-180.41 4228.99,-176.93 4219,-173.41 4218.99,-180.41"/>
</g>
<!-- Node81 -->
<g id="node28" class="node">
<title>Node81</title>
<g id="a_node28"><a xlink:href="incflo_8cpp.html" target="_top" xlink:title=" ">
<polygon fill="white" stroke="black" points="4062.01,-0.5 4062.01,-19.5 4125.01,-19.5 4125.01,-0.5 4062.01,-0.5"/>
<text text-anchor="middle" x="4093.51" y="-7.5" font-family="Helvetica,sans-Serif" font-size="10.00">incflo.cpp</text>
</a>
</g>
</g>
<!-- Node1&#45;&gt;Node81 -->
<g id="edge57" class="edge">
<title>Node1&#45;&gt;Node81</title>
<path fill="none" stroke="midnightblue" d="M4260.61,-158.19C4254,-128.01 4239.92,-70.65 4225.51,-56 4198.77,-28.81 4154.97,-18.04 4125.22,-13.78"/>
<polygon fill="midnightblue" stroke="midnightblue" points="4257.25,-159.23 4262.76,-168.28 4264.1,-157.77 4257.25,-159.23"/>
</g>
<!-- Node82 -->
<g id="node29" class="node">
<title>Node82</title>
<g id="a_node29"><a xlink:href="incflo__advance_8cpp.html" target="_top" xlink:title=" ">
<polygon fill="white" stroke="black" points="4199.51,-0.5 4199.51,-19.5 4309.51,-19.5 4309.51,-0.5 4199.51,-0.5"/>
<text text-anchor="middle" x="4254.51" y="-7.5" font-family="Helvetica,sans-Serif" font-size="10.00">incflo_advance.cpp</text>
</a>
</g>
</g>
<!-- Node1&#45;&gt;Node82 -->
<g id="edge58" class="edge">
<title>Node1&#45;&gt;Node82</title>
<path fill="none" stroke="midnightblue" d="M4264.14,-158.42C4263.58,-134.65 4262.27,-92.21 4259.51,-56 4258.54,-43.3 4256.8,-28.66 4255.65,-19.61"/>
<polygon fill="midnightblue" stroke="midnightblue" points="4260.65,-158.56 4264.36,-168.48 4267.64,-158.41 4260.65,-158.56"/>
</g>
<!-- Node100 -->
<g id="node32" class="node">
<title>Node100</title>
<g id="a_node32"><a xlink:href="_tioga_interface_8cpp.html" target="_top" xlink:title=" ">
<polygon fill="white" stroke="black" points="4110.01,-56.5 4110.01,-75.5 4217.01,-75.5 4217.01,-56.5 4110.01,-56.5"/>
<text text-anchor="middle" x="4163.51" y="-63.5" font-family="Helvetica,sans-Serif" font-size="10.00">TiogaInterface.cpp</text>
</a>
</g>
</g>
<!-- Node1&#45;&gt;Node100 -->
<g id="edge59" class="edge">
<title>Node1&#45;&gt;Node100</title>
<path fill="none" stroke="midnightblue" d="M4249.73,-160.9C4228.01,-137.25 4188.26,-93.95 4171.4,-75.59"/>
<polygon fill="midnightblue" stroke="midnightblue" points="4247.24,-163.37 4256.59,-168.37 4252.4,-158.64 4247.24,-163.37"/>
</g>
<!-- Node45 -->
<g id="node47" class="node">
<title>Node45</title>
<g id="a_node47"><a xlink:href="_one_eq_ksgs_8cpp.html" target="_top" xlink:title=" ">
<polygon fill="white" stroke="black" points="4311.51,-112.5 4311.51,-131.5 4403.51,-131.5 4403.51,-112.5 4311.51,-112.5"/>
<text text-anchor="middle" x="4357.51" y="-119.5" font-family="Helvetica,sans-Serif" font-size="10.00">OneEqKsgs.cpp</text>
</a>
</g>
</g>
<!-- Node1&#45;&gt;Node45 -->
<g id="edge60" class="edge">
<title>Node1&#45;&gt;Node45</title>
<path fill="none" stroke="midnightblue" d="M4288.32,-163.18C4305.43,-153.24 4327.98,-140.15 4342.61,-131.65"/>
<polygon fill="midnightblue" stroke="midnightblue" points="4286.34,-160.28 4279.45,-168.32 4289.86,-166.33 4286.34,-160.28"/>
</g>
<!-- Node37 -->
<g id="node48" class="node">
<title>Node37</title>
<g id="a_node48"><a xlink:href="_k_omega_s_s_t_8cpp.html" target="_top" xlink:title=" ">
<polygon fill="white" stroke="black" points="4389.01,-56.5 4389.01,-75.5 4484.01,-75.5 4484.01,-56.5 4389.01,-56.5"/>
<text text-anchor="middle" x="4436.51" y="-63.5" font-family="Helvetica,sans-Serif" font-size="10.00">KOmegaSST.cpp</text>
</a>
</g>
</g>
<!-- Node1&#45;&gt;Node37 -->
<g id="edge61" class="edge">
<title>Node1&#45;&gt;Node37</title>
<path fill="none" stroke="midnightblue" d="M4310.14,-173.71C4342.46,-169.1 4384.83,-158.1 4412.51,-132 4428.61,-116.81 4433.97,-89.88 4435.7,-75.93"/>
<polygon fill="midnightblue" stroke="midnightblue" points="4309.51,-170.26 4300.03,-174.99 4310.39,-177.21 4309.51,-170.26"/>
</g>
<!-- Node38 -->
<g id="node49" class="node">
<title>Node38</title>
<g id="a_node49"><a xlink:href="_k_omega_s_s_t_i_8_h.html" target="_top" xlink:title=" ">
<polygon fill="white" stroke="black" points="4460.01,-112.5 4460.01,-131.5 4549.01,-131.5 4549.01,-112.5 4460.01,-112.5"/>
<text text-anchor="middle" x="4504.51" y="-119.5" font-family="Helvetica,sans-Serif" font-size="10.00">KOmegaSSTI.H</text>
</a>
</g>
</g>
<!-- Node1&#45;&gt;Node38 -->
<g id="edge62" class="edge">
<title>Node1&#45;&gt;Node38</title>
<path fill="none" stroke="midnightblue" d="M4310.05,-166.75C4355.4,-156.55 4424.22,-141.07 4466.66,-131.52"/>
<polygon fill="midnightblue" stroke="midnightblue" points="4309.17,-163.36 4300.18,-168.97 4310.71,-170.19 4309.17,-163.36"/>
</g>
<!-- Node39 -->
<g id="node50" class="node">
<title>Node39</title>
<g id="a_node50"><a xlink:href="_k_omega_s_s_t_i_d_d_e_s_8cpp.html" target="_top" xlink:title=" ">
<polygon fill="white" stroke="black" points="4510.51,-56.5 4510.51,-75.5 4636.51,-75.5 4636.51,-56.5 4510.51,-56.5"/>
<text text-anchor="middle" x="4573.51" y="-63.5" font-family="Helvetica,sans-Serif" font-size="10.00">KOmegaSSTIDDES.cpp</text>
</a>
</g>
</g>
<!-- Node1&#45;&gt;Node39 -->
<g id="edge65" class="edge">
<title>Node1&#45;&gt;Node39</title>
<path fill="none" stroke="midnightblue" d="M4310.5,-175.99C4383.74,-173.41 4522.22,-164.28 4557.51,-132 4573.46,-117.41 4574.68,-89.71 4574.15,-75.65"/>
<polygon fill="midnightblue" stroke="midnightblue" points="4310.07,-172.5 4300.18,-176.32 4310.29,-179.5 4310.07,-172.5"/>
</g>
<!-- Node3 -->
<g id="node3" class="node">
<title>Node3</title>
<g id="a_node3"><a xlink:href="_c_f_d_sim_8cpp.html" target="_top" xlink:title=" ">
<polygon fill="white" stroke="black" points="3826.51,-56.5 3826.51,-75.5 3902.51,-75.5 3902.51,-56.5 3826.51,-56.5"/>
<text text-anchor="middle" x="3864.51" y="-63.5" font-family="Helvetica,sans-Serif" font-size="10.00">CFDSim.cpp</text>
</a>
</g>
</g>
<!-- Node2&#45;&gt;Node3 -->
<g id="edge2" class="edge">
<title>Node2&#45;&gt;Node3</title>
<path fill="none" stroke="midnightblue" d="M2185.05,-120.79C2414.71,-119.53 3487.43,-111.79 3817.51,-76 3820.4,-75.69 3823.38,-75.29 3826.37,-74.84"/>
<polygon fill="midnightblue" stroke="midnightblue" points="2184.73,-117.29 2174.75,-120.84 2184.77,-124.29 2184.73,-117.29"/>
</g>
<!-- Node4 -->
<g id="node4" class="node">
<title>Node4</title>
<g id="a_node4"><a xlink:href="_mesh_map_8cpp.html" target="_top" xlink:title=" ">
<polygon fill="white" stroke="black" points="383.51,-56.5 383.51,-75.5 467.51,-75.5 467.51,-56.5 383.51,-56.5"/>
<text text-anchor="middle" x="425.51" y="-63.5" font-family="Helvetica,sans-Serif" font-size="10.00">MeshMap.cpp</text>
</a>
</g>
</g>
<!-- Node2&#45;&gt;Node4 -->
<g id="edge3" class="edge">
<title>Node2&#45;&gt;Node4</title>
<path fill="none" stroke="midnightblue" d="M2098.04,-120.6C1869.88,-118.39 808.75,-106.6 481.51,-76 477,-75.58 472.3,-75.02 467.63,-74.38"/>
<polygon fill="midnightblue" stroke="midnightblue" points="2098.24,-124.1 2108.27,-120.7 2098.3,-117.1 2098.24,-124.1"/>
</g>
<!-- Node5 -->
<g id="node5" class="node">
<title>Node5</title>
<g id="a_node5"><a xlink:href="_a_b_l_forcing_8cpp.html" target="_top" xlink:title=" ">
<polygon fill="white" stroke="black" points="1171.01,-56.5 1171.01,-75.5 1262.01,-75.5 1262.01,-56.5 1171.01,-56.5"/>
<text text-anchor="middle" x="1216.51" y="-63.5" font-family="Helvetica,sans-Serif" font-size="10.00">ABLForcing.cpp</text>
</a>
</g>
</g>
<!-- Node2&#45;&gt;Node5 -->
<g id="edge4" class="edge">
<title>Node2&#45;&gt;Node5</title>
<path fill="none" stroke="midnightblue" d="M2098.1,-120.45C1970.78,-118.47 1587.45,-109.92 1271.51,-76 1268.43,-75.67 1265.26,-75.28 1262.08,-74.85"/>
<polygon fill="midnightblue" stroke="midnightblue" points="2098.17,-123.95 2108.22,-120.6 2098.27,-116.95 2098.17,-123.95"/>
</g>
<!-- Node6 -->
<g id="node6" class="node">
<title>Node6</title>
<g id="a_node6"><a xlink:href="_a_b_l_mean_boussinesq_8cpp.html" target="_top" xlink:title=" ">
<polygon fill="white" stroke="black" points="1280.51,-56.5 1280.51,-75.5 1418.51,-75.5 1418.51,-56.5 1280.51,-56.5"/>
<text text-anchor="middle" x="1349.51" y="-63.5" font-family="Helvetica,sans-Serif" font-size="10.00">ABLMeanBoussinesq.cpp</text>
</a>
</g>
</g>
<!-- Node2&#45;&gt;Node6 -->
<g id="edge5" class="edge">
<title>Node2&#45;&gt;Node6</title>
<path fill="none" stroke="midnightblue" d="M2098.2,-119.06C1986.81,-113.88 1681.29,-98.62 1427.51,-76 1424.66,-75.75 1421.75,-75.47 1418.81,-75.19"/>
<polygon fill="midnightblue" stroke="midnightblue" points="2098.22,-122.56 2108.37,-119.52 2098.54,-115.57 2098.22,-122.56"/>
</g>
<!-- Node7 -->
<g id="node7" class="node">
<title>Node7</title>
<g id="a_node7"><a xlink:href="_actuator_forcing_8cpp.html" target="_top" xlink:title=" ">
<polygon fill="white" stroke="black" points="1437.01,-56.5 1437.01,-75.5 1550.01,-75.5 1550.01,-56.5 1437.01,-56.5"/>
<text text-anchor="middle" x="1493.51" y="-63.5" font-family="Helvetica,sans-Serif" font-size="10.00">ActuatorForcing.cpp</text>
</a>
</g>
</g>
<!-- Node2&#45;&gt;Node7 -->
<g id="edge6" class="edge">
<title>Node2&#45;&gt;Node7</title>
<path fill="none" stroke="midnightblue" d="M2098.33,-118.53C2001.66,-112.8 1760.53,-97.46 1559.51,-76 1556.52,-75.68 1553.46,-75.33 1550.37,-74.97"/>
<polygon fill="midnightblue" stroke="midnightblue" points="2098.12,-122.02 2108.31,-119.11 2098.53,-115.03 2098.12,-122.02"/>
</g>
<!-- Node8 -->
<g id="node8" class="node">
<title>Node8</title>
<g id="a_node8"><a xlink:href="_body_force_8cpp.html" target="_top" xlink:title=" ">
<polygon fill="white" stroke="black" points="1568.51,-56.5 1568.51,-75.5 1656.51,-75.5 1656.51,-56.5 1568.51,-56.5"/>
<text text-anchor="middle" x="1612.51" y="-63.5" font-family="Helvetica,sans-Serif" font-size="10.00">BodyForce.cpp</text>
</a>
</g>
</g>
<!-- Node2&#45;&gt;Node8 -->
<g id="edge7" class="edge">
<title>Node2&#45;&gt;Node8</title>
<path fill="none" stroke="midnightblue" d="M2098.07,-117.97C2014.22,-111.89 1824.33,-96.96 1665.51,-76 1662.64,-75.62 1659.69,-75.2 1656.72,-74.76"/>
<polygon fill="midnightblue" stroke="midnightblue" points="2098.01,-121.48 2108.23,-118.71 2098.51,-114.5 2098.01,-121.48"/>
</g>
<!-- Node9 -->
<g id="node9" class="node">
<title>Node9</title>
<g id="a_node9"><a xlink:href="_boussinesq_buoyancy_8cpp.html" target="_top" xlink:title=" ">
<polygon fill="white" stroke="black" points="1675.01,-56.5 1675.01,-75.5 1814.01,-75.5 1814.01,-56.5 1675.01,-56.5"/>
<text text-anchor="middle" x="1744.51" y="-63.5" font-family="Helvetica,sans-Serif" font-size="10.00">BoussinesqBuoyancy.cpp</text>
</a>
</g>
</g>
<!-- Node2&#45;&gt;Node9 -->
<g id="edge8" class="edge">
<title>Node2&#45;&gt;Node9</title>
<path fill="none" stroke="midnightblue" d="M2098.06,-115.09C2027.63,-105.51 1888.27,-86.55 1807.14,-75.52"/>
<polygon fill="midnightblue" stroke="midnightblue" points="2097.97,-118.61 2108.35,-116.49 2098.91,-111.67 2097.97,-118.61"/>
</g>
<!-- Node10 -->
<g id="node10" class="node">
<title>Node10</title>
<g id="a_node10"><a xlink:href="_burggraf_flow_forcing_8cpp.html" target="_top" xlink:title=" ">
<polygon fill="white" stroke="black" points="2435.01,-0.5 2435.01,-19.5 2572.01,-19.5 2572.01,-0.5 2435.01,-0.5"/>
<text text-anchor="middle" x="2503.51" y="-7.5" font-family="Helvetica,sans-Serif" font-size="10.00">BurggrafFlowForcing.cpp</text>
</a>
</g>
</g>
<!-- Node2&#45;&gt;Node10 -->
<g id="edge9" class="edge">
<title>Node2&#45;&gt;Node10</title>
<path fill="none" stroke="midnightblue" d="M2149.37,-102.69C2156.87,-87.57 2169.68,-66.89 2187.51,-56 2227.83,-31.38 2354.61,-19.59 2434.8,-14.47"/>
<polygon fill="midnightblue" stroke="midnightblue" points="2146.05,-101.54 2145.03,-112.08 2152.4,-104.48 2146.05,-101.54"/>
</g>
<!-- Node11 -->
<g id="node11" class="node">
<title>Node11</title>
<g id="a_node11"><a xlink:href="_coriolis_forcing_8cpp.html" target="_top" xlink:title=" ">
<polygon fill="white" stroke="black" points="2197.01,-56.5 2197.01,-75.5 2306.01,-75.5 2306.01,-56.5 2197.01,-56.5"/>
<text text-anchor="middle" x="2251.51" y="-63.5" font-family="Helvetica,sans-Serif" font-size="10.00">CoriolisForcing.cpp</text>
</a>
</g>
</g>
<!-- Node2&#45;&gt;Node11 -->
<g id="edge10" class="edge">
<title>Node2&#45;&gt;Node11</title>
<path fill="none" stroke="midnightblue" d="M2168.27,-107.86C2188.67,-97.85 2216.18,-84.35 2233.88,-75.65"/>
<polygon fill="midnightblue" stroke="midnightblue" points="2166.62,-104.78 2159.18,-112.32 2169.7,-111.06 2166.62,-104.78"/>
</g>
<!-- Node12 -->
<g id="node12" class="node">
<title>Node12</title>
<g id="a_node12"><a xlink:href="_density_buoyancy_8cpp.html" target="_top" xlink:title=" ">
<polygon fill="white" stroke="black" points="2324.01,-56.5 2324.01,-75.5 2445.01,-75.5 2445.01,-56.5 2324.01,-56.5"/>
<text text-anchor="middle" x="2384.51" y="-63.5" font-family="Helvetica,sans-Serif" font-size="10.00">DensityBuoyancy.cpp</text>
</a>
</g>
</g>
<!-- Node2&#45;&gt;Node12 -->
<g id="edge11" class="edge">
<title>Node2&#45;&gt;Node12</title>
<path fill="none" stroke="midnightblue" d="M2184.45,-111.46C2230.19,-101.29 2301.94,-85.35 2345.94,-75.57"/>
<polygon fill="midnightblue" stroke="midnightblue" points="2183.54,-108.08 2174.54,-113.66 2185.06,-114.91 2183.54,-108.08"/>
</g>
<!-- Node13 -->
<g id="node13" class="node">
<title>Node13</title>
<g id="a_node13"><a xlink:href="_geostrophic_forcing_8cpp.html" target="_top" xlink:title=" ">
<polygon fill="white" stroke="black" points="2463.01,-56.5 2463.01,-75.5 2594.01,-75.5 2594.01,-56.5 2463.01,-56.5"/>
<text text-anchor="middle" x="2528.51" y="-63.5" font-family="Helvetica,sans-Serif" font-size="10.00">GeostrophicForcing.cpp</text>
</a>
</g>
</g>
<!-- Node2&#45;&gt;Node13 -->
<g id="edge12" class="edge">
<title>Node2&#45;&gt;Node13</title>
<path fill="none" stroke="midnightblue" d="M2184.93,-114.94C2253.93,-105.31 2388.82,-86.49 2467.5,-75.51"/>
<polygon fill="midnightblue" stroke="midnightblue" points="2184.26,-111.5 2174.84,-116.35 2185.23,-118.43 2184.26,-111.5"/>
</g>
<!-- Node14 -->
<g id="node14" class="node">
<title>Node14</title>
<g id="a_node14"><a xlink:href="_gravity_forcing_8cpp.html" target="_top" xlink:title=" ">
<polygon fill="white" stroke="black" points="2722.51,-56.5 2722.51,-75.5 2830.51,-75.5 2830.51,-56.5 2722.51,-56.5"/>
<text text-anchor="middle" x="2776.51" y="-63.5" font-family="Helvetica,sans-Serif" font-size="10.00">GravityForcing.cpp</text>
</a>
</g>
</g>
<!-- Node2&#45;&gt;Node14 -->
<g id="edge13" class="edge">
<title>Node2&#45;&gt;Node14</title>
<path fill="none" stroke="midnightblue" d="M2184.94,-118.53C2280.62,-112.87 2516.69,-97.78 2713.51,-76 2716.37,-75.68 2719.29,-75.34 2722.24,-74.98"/>
<polygon fill="midnightblue" stroke="midnightblue" points="2184.56,-115.04 2174.79,-119.12 2184.97,-122.03 2184.56,-115.04"/>
</g>
<!-- Node15 -->
<g id="node15" class="node">
<title>Node15</title>
<g id="a_node15"><a xlink:href="_hurricane_forcing_8cpp.html" target="_top" xlink:title=" ">
<polygon fill="white" stroke="black" points="2849.01,-56.5 2849.01,-75.5 2968.01,-75.5 2968.01,-56.5 2849.01,-56.5"/>
<text text-anchor="middle" x="2908.51" y="-63.5" font-family="Helvetica,sans-Serif" font-size="10.00">HurricaneForcing.cpp</text>
</a>
</g>
</g>
<!-- Node2&#45;&gt;Node15 -->
<g id="edge14" class="edge">
<title>Node2&#45;&gt;Node15</title>
<path fill="none" stroke="midnightblue" d="M2184.64,-119.2C2294.22,-114.42 2592.17,-100.08 2839.51,-76 2842.52,-75.71 2845.59,-75.39 2848.7,-75.04"/>
<polygon fill="midnightblue" stroke="midnightblue" points="2184.47,-115.7 2174.64,-119.63 2184.78,-122.7 2184.47,-115.7"/>
</g>
<!-- Node16 -->
<g id="node16" class="node">
<title>Node16</title>
<g id="a_node16"><a xlink:href="_rayleigh_damping_8cpp.html" target="_top" xlink:title=" ">
<polygon fill="white" stroke="black" points="2986.51,-56.5 2986.51,-75.5 3110.51,-75.5 3110.51,-56.5 2986.51,-56.5"/>
<text text-anchor="middle" x="3048.51" y="-63.5" font-family="Helvetica,sans-Serif" font-size="10.00">RayleighDamping.cpp</text>
</a>
</g>
</g>
<!-- Node2&#45;&gt;Node16 -->
<g id="edge15" class="edge">
<title>Node2&#45;&gt;Node16</title>
<path fill="none" stroke="midnightblue" d="M2184.78,-119.75C2308.46,-115.93 2674.07,-103.02 2976.51,-76 2979.77,-75.71 2983.12,-75.38 2986.49,-75.03"/>
<polygon fill="midnightblue" stroke="midnightblue" points="2184.48,-116.25 2174.59,-120.06 2184.69,-123.25 2184.48,-116.25"/>
</g>
<!-- Node17 -->
<g id="node17" class="node">
<title>Node17</title>
<g id="a_node17"><a xlink:href="_synth_turb_forcing_8cpp.html" target="_top" xlink:title=" ">
<polygon fill="white" stroke="black" points="3128.51,-56.5 3128.51,-75.5 3248.51,-75.5 3248.51,-56.5 3128.51,-56.5"/>
<text text-anchor="middle" x="3188.51" y="-63.5" font-family="Helvetica,sans-Serif" font-size="10.00">SynthTurbForcing.cpp</text>
</a>
</g>
</g>
<!-- Node2&#45;&gt;Node17 -->
<g id="edge16" class="edge">
<title>Node2&#45;&gt;Node17</title>
<path fill="none" stroke="midnightblue" d="M2185.06,-120.3C2322.51,-117.79 2759.36,-107.72 3119.51,-76 3122.4,-75.75 3125.35,-75.46 3128.33,-75.15"/>
<polygon fill="midnightblue" stroke="midnightblue" points="2184.87,-116.8 2174.93,-120.48 2184.99,-123.8 2184.87,-116.8"/>
</g>
<!-- Node2&#45;&gt;Node18 -->
<g id="edge17" class="edge">
<title>Node2&#45;&gt;Node18</title>
<path fill="none" stroke="midnightblue" d="M2097.88,-120.5C1842.04,-117.46 546.77,-100.88 514.51,-76 497.2,-62.64 495.01,-34.38 495.11,-19.93"/>
<polygon fill="midnightblue" stroke="midnightblue" points="2098.21,-124 2108.25,-120.62 2098.3,-117 2098.21,-124"/>
</g>
<!-- Node2&#45;&gt;Node52 -->
<g id="edge18" class="edge">
<title>Node2&#45;&gt;Node52</title>
<path fill="none" stroke="midnightblue" d="M2098.33,-120.46C1822.07,-116.96 307.26,-96.93 102.51,-76 99.59,-75.7 96.57,-75.32 93.55,-74.89"/>
<polygon fill="midnightblue" stroke="midnightblue" points="2098.33,-123.96 2108.37,-120.59 2098.41,-116.96 2098.33,-123.96"/>
</g>
<!-- Node53 -->
<g id="node20" class="node">
<title>Node53</title>
<g id="a_node20"><a xlink:href="_p_d_e_ops_8_h.html" target="_top" xlink:title=" ">
<polygon fill="white" stroke="red" points="524.01,-56.5 524.01,-75.5 589.01,-75.5 589.01,-56.5 524.01,-56.5"/>
<text text-anchor="middle" x="556.51" y="-63.5" font-family="Helvetica,sans-Serif" font-size="10.00">PDEOps.H</text>
</a>
</g>
</g>
<!-- Node2&#45;&gt;Node53 -->
<g id="edge19" class="edge">
<title>Node2&#45;&gt;Node53</title>
<path fill="none" stroke="midnightblue" d="M2098.28,-120.83C1880.23,-119.82 899.64,-113.23 597.51,-76 594.76,-75.66 591.93,-75.22 589.09,-74.73"/>
<polygon fill="midnightblue" stroke="midnightblue" points="2098.36,-124.33 2108.37,-120.88 2098.39,-117.33 2098.36,-124.33"/>
</g>
<!-- Node63 -->
<g id="node21" class="node">
<title>Node63</title>
<g id="a_node21"><a xlink:href="_s_d_r_src_8cpp.html" target="_top" xlink:title=" ">
<polygon fill="white" stroke="black" points="3266.51,-56.5 3266.51,-75.5 3338.51,-75.5 3338.51,-56.5 3266.51,-56.5"/>
<text text-anchor="middle" x="3302.51" y="-63.5" font-family="Helvetica,sans-Serif" font-size="10.00">SDRSrc.cpp</text>
</a>
</g>
</g>
<!-- Node2&#45;&gt;Node63 -->
<g id="edge21" class="edge">
<title>Node2&#45;&gt;Node63</title>
<path fill="none" stroke="midnightblue" d="M2184.73,-120.17C2363.29,-116.58 3044.07,-101.49 3257.51,-76 3260.36,-75.66 3263.3,-75.24 3266.24,-74.76"/>
<polygon fill="midnightblue" stroke="midnightblue" points="2184.59,-116.67 2174.67,-120.37 2184.73,-123.67 2184.59,-116.67"/>
</g>
<!-- Node64 -->
<g id="node22" class="node">
<title>Node64</title>
<g id="a_node22"><a xlink:href="_ksgs_m84_src_8cpp.html" target="_top" xlink:title=" ">
<polygon fill="white" stroke="black" points="3356.51,-56.5 3356.51,-75.5 3452.51,-75.5 3452.51,-56.5 3356.51,-56.5"/>
<text text-anchor="middle" x="3404.51" y="-63.5" font-family="Helvetica,sans-Serif" font-size="10.00">KsgsM84Src.cpp</text>
</a>
</g>
</g>
<!-- Node2&#45;&gt;Node64 -->
<g id="edge22" class="edge">
<title>Node2&#45;&gt;Node64</title>
<path fill="none" stroke="midnightblue" d="M2184.88,-121.25C2341.78,-121.75 2894.45,-120.06 3347.51,-76 3350.4,-75.72 3353.37,-75.39 3356.36,-75.02"/>
<polygon fill="midnightblue" stroke="midnightblue" points="2184.71,-117.75 2174.7,-121.21 2184.69,-124.75 2184.71,-117.75"/>
</g>
<!-- Node65 -->
<g id="node23" class="node">
<title>Node65</title>
<g id="a_node23"><a xlink:href="_kw_s_s_t_src_8cpp.html" target="_top" xlink:title=" ">
<polygon fill="white" stroke="black" points="3509.01,-56.5 3509.01,-75.5 3594.01,-75.5 3594.01,-56.5 3509.01,-56.5"/>
<text text-anchor="middle" x="3551.51" y="-63.5" font-family="Helvetica,sans-Serif" font-size="10.00">KwSSTSrc.cpp</text>
</a>
</g>
</g>
<!-- Node2&#45;&gt;Node65 -->
<g id="edge23" class="edge">
<title>Node2&#45;&gt;Node65</title>
<path fill="none" stroke="midnightblue" d="M2184.72,-120.28C2385.79,-116.83 3231.33,-101.06 3494.51,-76 3499.2,-75.55 3504.09,-74.97 3508.94,-74.31"/>
<polygon fill="midnightblue" stroke="midnightblue" points="2184.49,-116.78 2174.55,-120.46 2184.61,-123.78 2184.49,-116.78"/>
</g>
<!-- Node66 -->
<g id="node24" class="node">
<title>Node66</title>
<g id="a_node24"><a xlink:href="helics_8_h.html" target="_top" xlink:title=" ">
<polygon fill="white" stroke="red" points="3612.51,-56.5 3612.51,-75.5 3668.51,-75.5 3668.51,-56.5 3612.51,-56.5"/>
<text text-anchor="middle" x="3640.51" y="-63.5" font-family="Helvetica,sans-Serif" font-size="10.00">helics.H</text>
</a>
</g>
</g>
<!-- Node2&#45;&gt;Node66 -->
<g id="edge24" class="edge">
<title>Node2&#45;&gt;Node66</title>
<path fill="none" stroke="midnightblue" d="M2184.7,-120.83C2394.77,-119.85 3310.25,-113.52 3593.51,-76 3599.56,-75.2 3606.05,-73.85 3612.32,-72.43"/>
<polygon fill="midnightblue" stroke="midnightblue" points="2184.65,-117.33 2174.67,-120.88 2184.68,-124.33 2184.65,-117.33"/>
</g>
<!-- Node68 -->
<g id="node25" class="node">
<title>Node68</title>
<g id="a_node25"><a xlink:href="_i_b_8cpp.html" target="_top" xlink:title=" ">
<polygon fill="white" stroke="black" points="3687.01,-56.5 3687.01,-75.5 3734.01,-75.5 3734.01,-56.5 3687.01,-56.5"/>
<text text-anchor="middle" x="3710.51" y="-63.5" font-family="Helvetica,sans-Serif" font-size="10.00">IB.cpp</text>
</a>
</g>
</g>
<!-- Node2&#45;&gt;Node68 -->
<g id="edge26" class="edge">
<title>Node2&#45;&gt;Node68</title>
<path fill="none" stroke="midnightblue" d="M2184.91,-121.12C2402.73,-121.48 3378.13,-120.56 3677.51,-76 3680.57,-75.55 3683.74,-74.9 3686.86,-74.17"/>
<polygon fill="midnightblue" stroke="midnightblue" points="2184.83,-117.62 2174.82,-121.1 2184.82,-124.62 2184.83,-117.62"/>
</g>
<!-- Node69 -->
<g id="node26" class="node">
<title>Node69</title>
<g id="a_node26"><a xlink:href="_i_b_ops_8_h.html" target="_top" xlink:title=" ">
<polygon fill="white" stroke="red" points="3752.51,-56.5 3752.51,-75.5 3808.51,-75.5 3808.51,-56.5 3752.51,-56.5"/>
<text text-anchor="middle" x="3780.51" y="-63.5" font-family="Helvetica,sans-Serif" font-size="10.00">IBOps.H</text>
</a>
</g>
</g>
<!-- Node2&#45;&gt;Node69 -->
<g id="edge27" class="edge">
<title>Node2&#45;&gt;Node69</title>
<path fill="none" stroke="midnightblue" d="M2184.89,-120.98C2408.1,-120.69 3428.87,-117.11 3742.51,-76 3745.74,-75.58 3749.09,-75 3752.41,-74.33"/>
<polygon fill="midnightblue" stroke="midnightblue" points="2184.57,-117.48 2174.57,-120.99 2184.58,-124.48 2184.57,-117.48"/>
</g>
<!-- Node79 -->
<g id="node27" class="node">
<title>Node79</title>
<g id="a_node27"><a xlink:href="incflo_8_h.html" target="_top" xlink:title=" ">
<polygon fill="white" stroke="red" points="4039.01,-56.5 4039.01,-75.5 4092.01,-75.5 4092.01,-56.5 4039.01,-56.5"/>
<text text-anchor="middle" x="4065.51" y="-63.5" font-family="Helvetica,sans-Serif" font-size="10.00">incflo.H</text>
</a>
</g>
</g>
<!-- Node2&#45;&gt;Node79 -->
<g id="edge28" class="edge">
<title>Node2&#45;&gt;Node79</title>
<path fill="none" stroke="midnightblue" d="M2184.95,-121.27C2431.42,-122.59 3656.13,-126.49 4029.51,-76 4032.58,-75.59 4035.76,-75.01 4038.9,-74.35"/>
<polygon fill="midnightblue" stroke="midnightblue" points="2184.63,-117.77 2174.61,-121.21 2184.59,-124.77 2184.63,-117.77"/>
</g>
<!-- Node91 -->
<g id="node30" class="node">
<title>Node91</title>
<g id="a_node30"><a xlink:href="_ocean_waves_8cpp.html" target="_top" xlink:title=" ">
<polygon fill="white" stroke="black" points="3920.51,-56.5 3920.51,-75.5 4020.51,-75.5 4020.51,-56.5 3920.51,-56.5"/>
<text text-anchor="middle" x="3970.51" y="-63.5" font-family="Helvetica,sans-Serif" font-size="10.00">OceanWaves.cpp</text>
</a>
</g>
</g>
<!-- Node2&#45;&gt;Node91 -->
<g id="edge31" class="edge">
<title>Node2&#45;&gt;Node91</title>
<path fill="none" stroke="midnightblue" d="M2184.79,-120.64C2421.42,-118.56 3560.95,-107.07 3911.51,-76 3914.4,-75.74 3917.36,-75.44 3920.35,-75.09"/>
<polygon fill="midnightblue" stroke="midnightblue" points="2184.49,-117.14 2174.52,-120.73 2184.55,-124.14 2184.49,-117.14"/>
</g>
<!-- Node92 -->
<g id="node31" class="node">
<title>Node92</title>
<g id="a_node31"><a xlink:href="_ocean_waves_ops_8_h.html" target="_top" xlink:title=" ">
<polygon fill="white" stroke="red" points="112.01,-56.5 112.01,-75.5 221.01,-75.5 221.01,-56.5 112.01,-56.5"/>
<text text-anchor="middle" x="166.51" y="-63.5" font-family="Helvetica,sans-Serif" font-size="10.00">OceanWavesOps.H</text>
</a>
</g>
</g>
<!-- Node2&#45;&gt;Node92 -->
<g id="edge32" class="edge">
<title>Node2&#45;&gt;Node92</title>
<path fill="none" stroke="midnightblue" d="M2098.38,-120.67C1851.07,-118.65 611,-107.13 230.51,-76 227.49,-75.75 224.4,-75.46 221.28,-75.13"/>
<polygon fill="midnightblue" stroke="midnightblue" points="2098.39,-124.17 2108.41,-120.75 2098.44,-117.17 2098.39,-124.17"/>
</g>
<!-- Node2&#45;&gt;Node100 -->
<g id="edge33" class="edge">
<title>Node2&#45;&gt;Node100</title>
<path fill="none" stroke="midnightblue" d="M2184.92,-120.71C2436.53,-118.9 3710.08,-108.26 4100.51,-76 4103.59,-75.75 4106.76,-75.44 4109.94,-75.09"/>
<polygon fill="midnightblue" stroke="midnightblue" points="2184.69,-117.21 2174.71,-120.78 2184.74,-124.21 2184.69,-117.21"/>
</g>
<!-- Node101 -->
<g id="node33" class="node">
<title>Node101</title>
<g id="a_node33"><a xlink:href="_boussinesq_bubble_8cpp.html" target="_top" xlink:title=" ">
<polygon fill="white" stroke="black" points="239.51,-56.5 239.51,-75.5 365.51,-75.5 365.51,-56.5 239.51,-56.5"/>
<text text-anchor="middle" x="302.51" y="-63.5" font-family="Helvetica,sans-Serif" font-size="10.00">BoussinesqBubble.cpp</text>
</a>
</g>
</g>
<!-- Node2&#45;&gt;Node101 -->
<g id="edge34" class="edge">
<title>Node2&#45;&gt;Node101</title>
<path fill="none" stroke="midnightblue" d="M2097.94,-120.48C1860.93,-117.54 724.67,-102.28 374.51,-76 371.62,-75.78 368.67,-75.53 365.69,-75.26"/>
<polygon fill="midnightblue" stroke="midnightblue" points="2098.18,-123.98 2108.23,-120.6 2098.27,-116.98 2098.18,-123.98"/>
</g>
<!-- Node102 -->
<g id="node34" class="node">
<title>Node102</title>
<g id="a_node34"><a xlink:href="_burggraf_flow_8cpp.html" target="_top" xlink:title=" ">
<polygon fill="white" stroke="black" points="2762.01,-0.5 2762.01,-19.5 2863.01,-19.5 2863.01,-0.5 2762.01,-0.5"/>
<text text-anchor="middle" x="2812.51" y="-7.5" font-family="Helvetica,sans-Serif" font-size="10.00">BurggrafFlow.cpp</text>
</a>
</g>
</g>
<!-- Node2&#45;&gt;Node102 -->
<g id="edge35" class="edge">
<title>Node2&#45;&gt;Node102</title>
<path fill="none" stroke="midnightblue" d="M2184.83,-121.19C2407.67,-121.98 3416.17,-122.92 3461.51,-76 3467.69,-69.61 3467.58,-62.5 3461.51,-56 3420.99,-12.57 3008.79,-10.13 2863.14,-10.64"/>
<polygon fill="midnightblue" stroke="midnightblue" points="2184.54,-117.69 2174.52,-121.15 2184.51,-124.69 2184.54,-117.69"/>
</g>
<!-- Node103 -->
<g id="node35" class="node">
<title>Node103</title>
<g id="a_node35"><a xlink:href="_burggraf_flow_8_h.html" target="_top" xlink:title=" ">
<polygon fill="white" stroke="black" points="2612.51,-56.5 2612.51,-75.5 2704.51,-75.5 2704.51,-56.5 2612.51,-56.5"/>
<text text-anchor="middle" x="2658.51" y="-63.5" font-family="Helvetica,sans-Serif" font-size="10.00">BurggrafFlow.H</text>
</a>
</g>
</g>
<!-- Node2&#45;&gt;Node103 -->
<g id="edge36" class="edge">
<title>Node2&#45;&gt;Node103</title>
<path fill="none" stroke="midnightblue" d="M2184.73,-117.68C2266.48,-111.21 2449.32,-95.77 2602.51,-76 2605.73,-75.58 2609.06,-75.13 2612.4,-74.64"/>
<polygon fill="midnightblue" stroke="midnightblue" points="2184.27,-114.21 2174.57,-118.48 2184.82,-121.19 2184.27,-114.21"/>
</g>
<!-- Node104 -->
<g id="node36" class="node">
<title>Node104</title>
<g id="a_node36"><a xlink:href="_channel_flow_8cpp.html" target="_top" xlink:title=" ">
<polygon fill="white" stroke="black" points="616.01,-0.5 616.01,-19.5 715.01,-19.5 715.01,-0.5 616.01,-0.5"/>
<text text-anchor="middle" x="665.51" y="-7.5" font-family="Helvetica,sans-Serif" font-size="10.00">ChannelFlow.cpp</text>
</a>
</g>
</g>
<!-- Node2&#45;&gt;Node104 -->
<g id="edge39" class="edge">
<title>Node2&#45;&gt;Node104</title>
<path fill="none" stroke="midnightblue" d="M2097.9,-121.28C1875.43,-122.47 872.54,-125.08 743.51,-76 712.54,-64.22 684.99,-34.69 672.54,-19.83"/>
<polygon fill="midnightblue" stroke="midnightblue" points="2098.21,-124.78 2108.19,-121.22 2098.17,-117.78 2098.21,-124.78"/>
</g>
<!-- Node105 -->
<g id="node37" class="node">
<title>Node105</title>
<g id="a_node37"><a xlink:href="_channel_flow_8_h.html" target="_top" xlink:title=" ">
<polygon fill="white" stroke="black" points="607.01,-56.5 607.01,-75.5 696.01,-75.5 696.01,-56.5 607.01,-56.5"/>
<text text-anchor="middle" x="651.51" y="-63.5" font-family="Helvetica,sans-Serif" font-size="10.00">ChannelFlow.H</text>
</a>
</g>
</g>
<!-- Node2&#45;&gt;Node105 -->
<g id="edge40" class="edge">
<title>Node2&#45;&gt;Node105</title>
<path fill="none" stroke="midnightblue" d="M2098.2,-120.34C1889.92,-117.06 989.99,-101.62 710.51,-76 705.87,-75.57 701.03,-75.02 696.22,-74.4"/>
<polygon fill="midnightblue" stroke="midnightblue" points="2098.37,-123.84 2108.43,-120.5 2098.48,-116.84 2098.37,-123.84"/>
</g>
<!-- Node106 -->
<g id="node38" class="node">
<title>Node106</title>
<g id="a_node38"><a xlink:href="_convecting_taylor_vortex_8cpp.html" target="_top" xlink:title=" ">
<polygon fill="white" stroke="black" points="818.51,-0.5 818.51,-19.5 970.51,-19.5 970.51,-0.5 818.51,-0.5"/>
<text text-anchor="middle" x="894.51" y="-7.5" font-family="Helvetica,sans-Serif" font-size="10.00">ConvectingTaylorVortex.cpp</text>
</a>
</g>
</g>
<!-- Node2&#45;&gt;Node106 -->
<g id="edge42" class="edge">
<title>Node2&#45;&gt;Node106</title>
<path fill="none" stroke="midnightblue" d="M2098.09,-120.3C1908.28,-117.11 1156.52,-102.88 1054.51,-76 1035.67,-71.04 1033.34,-63.85 1015.51,-56 983.31,-41.81 945.1,-28.1 920.36,-19.62"/>
<polygon fill="midnightblue" stroke="midnightblue" points="2098.18,-123.81 2108.24,-120.47 2098.3,-116.81 2098.18,-123.81"/>
</g>
<!-- Node107 -->
<g id="node39" class="node">
<title>Node107</title>
<g id="a_node39"><a xlink:href="_convecting_taylor_vortex_8_h.html" target="_top" xlink:title=" ">
<polygon fill="white" stroke="red" points="753.01,-56.5 753.01,-75.5 896.01,-75.5 896.01,-56.5 753.01,-56.5"/>
<text text-anchor="middle" x="824.51" y="-63.5" font-family="Helvetica,sans-Serif" font-size="10.00">ConvectingTaylorVortex.H</text>
</a>
</g>
</g>
<!-- Node2&#45;&gt;Node107 -->
<g id="edge43" class="edge">
<title>Node2&#45;&gt;Node107</title>
<path fill="none" stroke="midnightblue" d="M2098.16,-120.61C1938.91,-118.92 1371.16,-110.69 904.51,-76 901.72,-75.79 898.88,-75.56 896.02,-75.32"/>
<polygon fill="midnightblue" stroke="midnightblue" points="2098.45,-124.11 2108.49,-120.72 2098.52,-117.11 2098.45,-124.11"/>
</g>
<!-- Node108 -->
<g id="node40" class="node">
<title>Node108</title>
<g id="a_node40"><a xlink:href="_ekman_spiral_8cpp.html" target="_top" xlink:title=" ">
<polygon fill="white" stroke="black" points="1378.51,-0.5 1378.51,-19.5 1476.51,-19.5 1476.51,-0.5 1378.51,-0.5"/>
<text text-anchor="middle" x="1427.51" y="-7.5" font-family="Helvetica,sans-Serif" font-size="10.00">EkmanSpiral.cpp</text>
</a>
</g>
</g>
<!-- Node2&#45;&gt;Node108 -->
<g id="edge45" class="edge">
<title>Node2&#45;&gt;Node108</title>
<path fill="none" stroke="midnightblue" d="M2098.21,-114.7C2047.95,-107.05 1962.72,-93.04 1890.51,-76 1859.85,-68.77 1853.39,-62.25 1822.51,-56 1699.39,-31.08 1551.69,-18.85 1476.58,-13.86"/>
<polygon fill="midnightblue" stroke="midnightblue" points="2097.98,-118.21 2108.39,-116.24 2099.02,-111.28 2097.98,-118.21"/>
</g>
<!-- Node109 -->
<g id="node41" class="node">
<title>Node109</title>
<g id="a_node41"><a xlink:href="_ekman_spiral_8_h.html" target="_top" xlink:title=" ">
<polygon fill="white" stroke="black" points="1064.01,-56.5 1064.01,-75.5 1153.01,-75.5 1153.01,-56.5 1064.01,-56.5"/>
<text text-anchor="middle" x="1108.51" y="-63.5" font-family="Helvetica,sans-Serif" font-size="10.00">EkmanSpiral.H</text>
</a>
</g>
</g>
<!-- Node2&#45;&gt;Node109 -->
<g id="edge46" class="edge">
<title>Node2&#45;&gt;Node109</title>
<path fill="none" stroke="midnightblue" d="M2098.29,-120.9C1960.92,-120.17 1522.13,-114.75 1161.51,-76 1158.82,-75.71 1156.06,-75.37 1153.28,-75"/>
<polygon fill="midnightblue" stroke="midnightblue" points="2098.39,-124.4 2108.41,-120.95 2098.42,-117.4 2098.39,-124.4"/>
</g>
<!-- Node110 -->
<g id="node42" class="node">
<title>Node110</title>
<g id="a_node42"><a xlink:href="_free_stream_8cpp.html" target="_top" xlink:title=" ">
<polygon fill="white" stroke="black" points="914.01,-56.5 914.01,-75.5 1007.01,-75.5 1007.01,-56.5 914.01,-56.5"/>
<text text-anchor="middle" x="960.51" y="-63.5" font-family="Helvetica,sans-Serif" font-size="10.00">FreeStream.cpp</text>
</a>
</g>
</g>
<!-- Node2&#45;&gt;Node110 -->
<g id="edge48" class="edge">
<title>Node2&#45;&gt;Node110</title>
<path fill="none" stroke="midnightblue" d="M2098.3,-120.91C1948.79,-120.27 1439.67,-115.14 1021.51,-76 1016.82,-75.56 1011.94,-75.01 1007.08,-74.39"/>
<polygon fill="midnightblue" stroke="midnightblue" points="2098.43,-124.42 2108.44,-120.95 2098.46,-117.42 2098.43,-124.42"/>
</g>
<!-- Node111 -->
<g id="node43" class="node">
<title>Node111</title>
<g id="a_node43"><a xlink:href="_hybrid_r_a_n_s_l_e_s_a_b_l_8cpp.html" target="_top" xlink:title=" ">
<polygon fill="white" stroke="black" points="1846.01,-0.5 1846.01,-19.5 1979.01,-19.5 1979.01,-0.5 1846.01,-0.5"/>
<text text-anchor="middle" x="1912.51" y="-7.5" font-family="Helvetica,sans-Serif" font-size="10.00">HybridRANSLESABL.cpp</text>
</a>
</g>
</g>
<!-- Node2&#45;&gt;Node111 -->
<g id="edge49" class="edge">
<title>Node2&#45;&gt;Node111</title>
<path fill="none" stroke="midnightblue" d="M2098.15,-119.36C2035.46,-115.97 1924.29,-105.81 1899.51,-76 1885.98,-59.72 1898.61,-33.26 1906.79,-19.67"/>
<polygon fill="midnightblue" stroke="midnightblue" points="2097.98,-122.85 2108.15,-119.86 2098.34,-115.86 2097.98,-122.85"/>
</g>
<!-- Node112 -->
<g id="node44" class="node">
<title>Node112</title>
<g id="a_node44"><a xlink:href="_hybrid_r_a_n_s_l_e_s_a_b_l_8_h.html" target="_top" xlink:title=" ">
<polygon fill="white" stroke="black" points="1909.01,-56.5 1909.01,-75.5 2032.01,-75.5 2032.01,-56.5 1909.01,-56.5"/>
<text text-anchor="middle" x="1970.51" y="-63.5" font-family="Helvetica,sans-Serif" font-size="10.00">HybridRANSLESABL.H</text>
</a>
</g>
</g>
<!-- Node2&#45;&gt;Node112 -->
<g id="edge50" class="edge">
<title>Node2&#45;&gt;Node112</title>
<path fill="none" stroke="midnightblue" d="M2104.48,-109.3C2072.25,-99.13 2026.32,-84.62 1997.48,-75.52"/>
<polygon fill="midnightblue" stroke="midnightblue" points="2103.83,-112.77 2114.42,-112.44 2105.93,-106.09 2103.83,-112.77"/>
</g>
<!-- Node113 -->
<g id="node45" class="node">
<title>Node113</title>
<g id="a_node45"><a xlink:href="_m_m_s_8cpp.html" target="_top" xlink:title=" ">
<polygon fill="white" stroke="black" points="2057.01,-0.5 2057.01,-19.5 2118.01,-19.5 2118.01,-0.5 2057.01,-0.5"/>
<text text-anchor="middle" x="2087.51" y="-7.5" font-family="Helvetica,sans-Serif" font-size="10.00">MMS.cpp</text>
</a>
</g>
</g>
<!-- Node2&#45;&gt;Node113 -->
<g id="edge52" class="edge">
<title>Node2&#45;&gt;Node113</title>
<path fill="none" stroke="midnightblue" d="M2112.41,-107.65C2099.88,-100.25 2086.51,-89.73 2079.51,-76 2070.11,-57.56 2078.12,-32.49 2083.54,-19.53"/>
<polygon fill="midnightblue" stroke="midnightblue" points="2110.83,-110.78 2121.29,-112.49 2114.18,-104.63 2110.83,-110.78"/>
</g>
<!-- Node114 -->
<g id="node46" class="node">
<title>Node114</title>
<g id="a_node46"><a xlink:href="_m_m_s_8_h.html" target="_top" xlink:title=" ">
<polygon fill="white" stroke="black" points="2089.01,-56.5 2089.01,-75.5 2140.01,-75.5 2140.01,-56.5 2089.01,-56.5"/>
<text text-anchor="middle" x="2114.51" y="-63.5" font-family="Helvetica,sans-Serif" font-size="10.00">MMS.H</text>
</a>
</g>
</g>
<!-- Node2&#45;&gt;Node114 -->
<g id="edge53" class="edge">
<title>Node2&#45;&gt;Node114</title>
<path fill="none" stroke="midnightblue" d="M2132.5,-102.98C2127.92,-93.82 2122.56,-83.09 2118.89,-75.75"/>
<polygon fill="midnightblue" stroke="midnightblue" points="2129.45,-104.7 2137.05,-112.08 2135.71,-101.57 2129.45,-104.7"/>
</g>
<!-- Node53&#45;&gt;Node18 -->
<g id="edge20" class="edge">
<title>Node53&#45;&gt;Node18</title>
<path fill="none" stroke="midnightblue" d="M539.04,-49.54C528.17,-39.91 514.57,-27.87 505.49,-19.83"/>
<polygon fill="midnightblue" stroke="midnightblue" points="536.9,-52.32 546.71,-56.32 541.54,-47.07 536.9,-52.32"/>
</g>
<!-- Node66&#45;&gt;Node2 -->
<g id="edge25" class="edge">
<title>Node66&#45;&gt;Node2</title>
<path fill="none" stroke="midnightblue" d="M3604.62,-76.82C3299.58,-114.61 2363.04,-120.16 2174.66,-120.9"/>
<polygon fill="midnightblue" stroke="midnightblue" points="3605.3,-80.27 3614.77,-75.52 3604.41,-73.32 3605.3,-80.27"/>
</g>
<!-- Node79&#45;&gt;Node81 -->
<g id="edge29" class="edge">
<title>Node79&#45;&gt;Node81</title>
<path fill="none" stroke="midnightblue" d="M4074.85,-46.98C4079.61,-37.82 4085.17,-27.09 4088.97,-19.75"/>
<polygon fill="midnightblue" stroke="midnightblue" points="4071.63,-45.59 4070.13,-56.08 4077.85,-48.82 4071.63,-45.59"/>
</g>
<!-- Node79&#45;&gt;Node82 -->
<g id="edge30" class="edge">
<title>Node79&#45;&gt;Node82</title>
<path fill="none" stroke="midnightblue" d="M4102.19,-54.52C4137.85,-44.33 4191.35,-29.04 4224.54,-19.56"/>
<polygon fill="midnightblue" stroke="midnightblue" points="4100.84,-51.27 4092.19,-57.38 4102.77,-58 4100.84,-51.27"/>
</g>
<!-- Node103&#45;&gt;Node10 -->
<g id="edge37" class="edge">
<title>Node103&#45;&gt;Node10</title>
<path fill="none" stroke="midnightblue" d="M2624.18,-53.04C2595.01,-42.88 2553.87,-28.55 2527.96,-19.52"/>
<polygon fill="midnightblue" stroke="midnightblue" points="2623.36,-56.46 2633.95,-56.44 2625.66,-49.85 2623.36,-56.46"/>
</g>
<!-- Node103&#45;&gt;Node102 -->
<g id="edge38" class="edge">
<title>Node103&#45;&gt;Node102</title>
<path fill="none" stroke="midnightblue" d="M2692.62,-53.04C2721.6,-42.88 2762.47,-28.55 2788.22,-19.52"/>
<polygon fill="midnightblue" stroke="midnightblue" points="2691.19,-49.83 2682.91,-56.44 2693.51,-56.44 2691.19,-49.83"/>
</g>
<!-- Node105&#45;&gt;Node104 -->
<g id="edge41" class="edge">
<title>Node105&#45;&gt;Node104</title>
<path fill="none" stroke="midnightblue" d="M656.33,-46.4C658.68,-37.36 661.38,-26.94 663.24,-19.75"/>
<polygon fill="midnightblue" stroke="midnightblue" points="652.94,-45.52 653.82,-56.08 659.72,-47.28 652.94,-45.52"/>
</g>
<!-- Node107&#45;&gt;Node106 -->
<g id="edge44" class="edge">
<title>Node107&#45;&gt;Node106</title>
<path fill="none" stroke="midnightblue" d="M843.83,-50.1C856.42,-40.38 872.44,-28.03 883.06,-19.83"/>
<polygon fill="midnightblue" stroke="midnightblue" points="841.54,-47.44 835.76,-56.32 845.81,-52.99 841.54,-47.44"/>
</g>
<!-- Node109&#45;&gt;Node108 -->
<g id="edge47" class="edge">
<title>Node109&#45;&gt;Node108</title>
<path fill="none" stroke="midnightblue" d="M1162.93,-55.76C1244.06,-42.01 1327.2,-27.95 1378.48,-19.28"/>
<polygon fill="midnightblue" stroke="midnightblue" points="1162.32,-52.31 1153.04,-57.44 1163.49,-59.22 1162.32,-52.31"/>
</g>
<!-- Node112&#45;&gt;Node111 -->
<g id="edge51" class="edge">
<title>Node112&#45;&gt;Node111</title>
<path fill="none" stroke="midnightblue" d="M1953.6,-49.25C1943.31,-39.67 1930.55,-27.79 1922,-19.83"/>
<polygon fill="midnightblue" stroke="midnightblue" points="1951.49,-52.07 1961.19,-56.32 1956.26,-46.95 1951.49,-52.07"/>
</g>
<!-- Node114&#45;&gt;Node113 -->
<g id="edge54" class="edge">
<title>Node114&#45;&gt;Node113</title>
<path fill="none" stroke="midnightblue" d="M2105.5,-46.98C2100.92,-37.82 2095.56,-27.09 2091.89,-19.75"/>
<polygon fill="midnightblue" stroke="midnightblue" points="2102.45,-48.7 2110.05,-56.08 2108.71,-45.57 2102.45,-48.7"/>
</g>
<!-- Node38&#45;&gt;Node37 -->
<g id="edge63" class="edge">
<title>Node38&#45;&gt;Node37</title>
<path fill="none" stroke="midnightblue" d="M4485.75,-106.1C4473.51,-96.38 4457.95,-84.03 4447.64,-75.83"/>
<polygon fill="midnightblue" stroke="midnightblue" points="4483.58,-108.85 4493.59,-112.32 4487.93,-103.36 4483.58,-108.85"/>
</g>
<!-- Node38&#45;&gt;Node39 -->
<g id="edge64" class="edge">
<title>Node38&#45;&gt;Node39</title>
<path fill="none" stroke="midnightblue" d="M4523.55,-106.1C4535.97,-96.38 4551.75,-84.03 4562.22,-75.83"/>
<polygon fill="midnightblue" stroke="midnightblue" points="4521.32,-103.4 4515.6,-112.32 4525.63,-108.92 4521.32,-103.4"/>
</g>
</g>
</svg>
