<?xml version="1.0" encoding="UTF-8" standalone="no"?>
<!DOCTYPE svg PUBLIC "-//W3C//DTD SVG 1.1//EN"
 "http://www.w3.org/Graphics/SVG/1.1/DTD/svg11.dtd">
<!-- Generated by graphviz version 2.43.0 (0)
 -->
<!-- Title: Physics.H Pages: 1 -->
<svg width="4230pt" height="196pt"
 viewBox="0.00 0.00 4230.00 196.00" xmlns="http://www.w3.org/2000/svg" xmlns:xlink="http://www.w3.org/1999/xlink">
<g id="graph0" class="graph" transform="scale(1 1) rotate(0) translate(4 192)">
<title>Physics.H</title>
<polygon fill="white" stroke="transparent" points="-4,4 -4,-192 4226,-192 4226,4 -4,4"/>
<!-- Node1 -->
<g id="node1" class="node">
<title>Node1</title>
<g id="a_node1"><a xlink:title=" ">
<polygon fill="#bfbfbf" stroke="black" points="2476,-168.5 2476,-187.5 2540,-187.5 2540,-168.5 2476,-168.5"/>
<text text-anchor="middle" x="2508" y="-175.5" font-family="Helvetica,sans-Serif" font-size="10.00">Physics.H</text>
</a>
</g>
</g>
<!-- Node2 -->
<g id="node2" class="node">
<title>Node2</title>
<g id="a_node2"><a xlink:href="_c_f_d_sim_8_h.html" target="_top" xlink:title=" ">
<polygon fill="white" stroke="red" points="1460,-112.5 1460,-131.5 1526,-131.5 1526,-112.5 1460,-112.5"/>
<text text-anchor="middle" x="1493" y="-119.5" font-family="Helvetica,sans-Serif" font-size="10.00">CFDSim.H</text>
</a>
</g>
</g>
<!-- Node1&#45;&gt;Node2 -->
<g id="edge1" class="edge">
<title>Node1&#45;&gt;Node2</title>
<path fill="none" stroke="midnightblue" d="M2465.75,-174.75C2297.47,-165.8 1676.69,-132.77 1526.08,-124.76"/>
<polygon fill="midnightblue" stroke="midnightblue" points="2465.77,-178.26 2475.95,-175.29 2466.15,-171.27 2465.77,-178.26"/>
</g>
<!-- Node103 -->
<g id="node21" class="node">
<title>Node103</title>
<g id="a_node21"><a xlink:href="_burggraf_flow_8_h.html" target="_top" xlink:title=" ">
<polygon fill="white" stroke="red" points="615,-56.5 615,-75.5 707,-75.5 707,-56.5 615,-56.5"/>
<text text-anchor="middle" x="661" y="-63.5" font-family="Helvetica,sans-Serif" font-size="10.00">BurggrafFlow.H</text>
</a>
</g>
</g>
<!-- Node1&#45;&gt;Node103 -->
<g id="edge34" class="edge">
<title>Node1&#45;&gt;Node103</title>
<path fill="none" stroke="midnightblue" d="M2465.91,-175.72C2323.33,-171.25 1845.42,-155.41 1451,-132 1123.96,-112.59 1041.29,-114.93 716,-76 713.12,-75.66 710.16,-75.27 707.17,-74.85"/>
<polygon fill="midnightblue" stroke="midnightblue" points="2465.88,-179.22 2475.98,-176.03 2466.1,-172.22 2465.88,-179.22"/>
</g>
<!-- Node105 -->
<g id="node22" class="node">
<title>Node105</title>
<g id="a_node22"><a xlink:href="_channel_flow_8_h.html" target="_top" xlink:title=" ">
<polygon fill="white" stroke="red" points="2262.5,-56.5 2262.5,-75.5 2351.5,-75.5 2351.5,-56.5 2262.5,-56.5"/>
<text text-anchor="middle" x="2307" y="-63.5" font-family="Helvetica,sans-Serif" font-size="10.00">ChannelFlow.H</text>
</a>
</g>
</g>
<!-- Node1&#45;&gt;Node105 -->
<g id="edge35" class="edge">
<title>Node1&#45;&gt;Node105</title>
<path fill="none" stroke="midnightblue" d="M2465.65,-176.67C2344.71,-175.28 2004.27,-168.17 1971,-132 1939.84,-98.12 1906.04,-127.65 2254,-76 2256.77,-75.59 2259.62,-75.15 2262.49,-74.7"/>
<polygon fill="midnightblue" stroke="midnightblue" points="2465.62,-180.17 2475.66,-176.77 2465.69,-173.17 2465.62,-180.17"/>
</g>
<!-- Node107 -->
<g id="node23" class="node">
<title>Node107</title>
<g id="a_node23"><a xlink:href="_convecting_taylor_vortex_8_h.html" target="_top" xlink:title=" ">
<polygon fill="white" stroke="red" points="2369.5,-56.5 2369.5,-75.5 2512.5,-75.5 2512.5,-56.5 2369.5,-56.5"/>
<text text-anchor="middle" x="2441" y="-63.5" font-family="Helvetica,sans-Serif" font-size="10.00">ConvectingTaylorVortex.H</text>
</a>
</g>
</g>
<!-- Node1&#45;&gt;Node107 -->
<g id="edge36" class="edge">
<title>Node1&#45;&gt;Node107</title>
<path fill="none" stroke="midnightblue" d="M2465.95,-176.31C2352.72,-174.01 2047.94,-164.82 2018,-132 1980.64,-91.05 1833.27,-133.38 2361,-76 2363.78,-75.7 2366.61,-75.39 2369.47,-75.07"/>
<polygon fill="midnightblue" stroke="midnightblue" points="2465.91,-179.81 2475.98,-176.5 2466.05,-172.81 2465.91,-179.81"/>
</g>
<!-- Node109 -->
<g id="node24" class="node">
<title>Node109</title>
<g id="a_node24"><a xlink:href="_ekman_spiral_8_h.html" target="_top" xlink:title=" ">
<polygon fill="white" stroke="red" points="2530.5,-56.5 2530.5,-75.5 2619.5,-75.5 2619.5,-56.5 2530.5,-56.5"/>
<text text-anchor="middle" x="2575" y="-63.5" font-family="Helvetica,sans-Serif" font-size="10.00">EkmanSpiral.H</text>
</a>
</g>
</g>
<!-- Node1&#45;&gt;Node109 -->
<g id="edge37" class="edge">
<title>Node1&#45;&gt;Node109</title>
<path fill="none" stroke="midnightblue" d="M2465.49,-177.37C2342.61,-177.73 1999.22,-173.34 2056,-112 2091.28,-73.89 2470.46,-82.35 2522,-76 2524.69,-75.67 2527.44,-75.3 2530.22,-74.9"/>
<polygon fill="midnightblue" stroke="midnightblue" points="2465.67,-180.87 2475.66,-177.33 2465.64,-173.87 2465.67,-180.87"/>
</g>
<!-- Node112 -->
<g id="node25" class="node">
<title>Node112</title>
<g id="a_node25"><a xlink:href="_hybrid_r_a_n_s_l_e_s_a_b_l_8_h.html" target="_top" xlink:title=" ">
<polygon fill="white" stroke="red" points="2637.5,-56.5 2637.5,-75.5 2760.5,-75.5 2760.5,-56.5 2637.5,-56.5"/>
<text text-anchor="middle" x="2699" y="-63.5" font-family="Helvetica,sans-Serif" font-size="10.00">HybridRANSLESABL.H</text>
</a>
</g>
</g>
<!-- Node1&#45;&gt;Node112 -->
<g id="edge39" class="edge">
<title>Node1&#45;&gt;Node112</title>
<path fill="none" stroke="midnightblue" d="M2465.57,-176.84C2350.09,-175.7 2042.14,-167.47 2094,-112 2134.69,-68.48 2569.7,-81.8 2629,-76 2631.68,-75.74 2634.42,-75.45 2637.19,-75.15"/>
<polygon fill="midnightblue" stroke="midnightblue" points="2465.77,-180.34 2475.8,-176.93 2465.84,-173.35 2465.77,-180.34"/>
</g>
<!-- Node114 -->
<g id="node26" class="node">
<title>Node114</title>
<g id="a_node26"><a xlink:href="_m_m_s_8_h.html" target="_top" xlink:title=" ">
<polygon fill="white" stroke="red" points="2778.5,-56.5 2778.5,-75.5 2829.5,-75.5 2829.5,-56.5 2778.5,-56.5"/>
<text text-anchor="middle" x="2804" y="-63.5" font-family="Helvetica,sans-Serif" font-size="10.00">MMS.H</text>
</a>
</g>
</g>
<!-- Node1&#45;&gt;Node114 -->
<g id="edge40" class="edge">
<title>Node1&#45;&gt;Node114</title>
<path fill="none" stroke="midnightblue" d="M2465.8,-176.22C2358.16,-173.5 2085.04,-161.68 2132,-112 2180.77,-60.4 2699.88,-87.14 2770,-76 2772.77,-75.56 2775.65,-74.99 2778.5,-74.34"/>
<polygon fill="midnightblue" stroke="midnightblue" points="2465.91,-179.72 2475.99,-176.46 2466.07,-172.73 2465.91,-179.72"/>
</g>
<!-- Node127 -->
<g id="node27" class="node">
<title>Node127</title>
<g id="a_node27"><a xlink:href="_synthetic_turbulence_8_h.html" target="_top" xlink:title=" ">
<polygon fill="white" stroke="red" points="2847.5,-56.5 2847.5,-75.5 2972.5,-75.5 2972.5,-56.5 2847.5,-56.5"/>
<text text-anchor="middle" x="2910" y="-63.5" font-family="Helvetica,sans-Serif" font-size="10.00">SyntheticTurbulence.H</text>
</a>
</g>
</g>
<!-- Node1&#45;&gt;Node127 -->
<g id="edge52" class="edge">
<title>Node1&#45;&gt;Node127</title>
<path fill="none" stroke="midnightblue" d="M2465.92,-174.52C2378.88,-168.98 2185.52,-154.25 2166,-132 2160.14,-125.32 2159.88,-118.45 2166,-112 2191.76,-84.83 2801.71,-79.36 2839,-76 2841.72,-75.75 2844.5,-75.49 2847.31,-75.2"/>
<polygon fill="midnightblue" stroke="midnightblue" points="2465.79,-178.02 2475.99,-175.16 2466.23,-171.04 2465.79,-178.02"/>
</g>
<!-- Node221 -->
<g id="node28" class="node">
<title>Node221</title>
<g id="a_node28"><a xlink:href="_i_b_8_h.html" target="_top" xlink:title=" ">
<polygon fill="white" stroke="red" points="2174.5,-112.5 2174.5,-131.5 2211.5,-131.5 2211.5,-112.5 2174.5,-112.5"/>
<text text-anchor="middle" x="2193" y="-119.5" font-family="Helvetica,sans-Serif" font-size="10.00">IB.H</text>
</a>
</g>
</g>
<!-- Node1&#45;&gt;Node221 -->
<g id="edge29" class="edge">
<title>Node1&#45;&gt;Node221</title>
<path fill="none" stroke="midnightblue" d="M2465.87,-172.47C2409.57,-165.95 2306.92,-152.41 2221,-132 2217.92,-131.27 2214.69,-130.36 2211.56,-129.41"/>
<polygon fill="midnightblue" stroke="midnightblue" points="2465.5,-175.95 2475.83,-173.61 2466.29,-169 2465.5,-175.95"/>
</g>
<!-- Node82 -->
<g id="node29" class="node">
<title>Node82</title>
<g id="a_node29"><a xlink:href="incflo__advance_8cpp.html" target="_top" xlink:title=" ">
<polygon fill="white" stroke="black" points="2230,-112.5 2230,-131.5 2340,-131.5 2340,-112.5 2230,-112.5"/>
<text text-anchor="middle" x="2285" y="-119.5" font-family="Helvetica,sans-Serif" font-size="10.00">incflo_advance.cpp</text>
</a>
</g>
</g>
<!-- Node1&#45;&gt;Node82 -->
<g id="edge30" class="edge">
<title>Node1&#45;&gt;Node82</title>
<path fill="none" stroke="midnightblue" d="M2465.64,-166.74C2423.59,-156.56 2359.86,-141.13 2320.41,-131.58"/>
<polygon fill="midnightblue" stroke="midnightblue" points="2465.03,-170.2 2475.57,-169.15 2466.68,-163.39 2465.03,-170.2"/>
</g>
<!-- Node222 -->
<g id="node30" class="node">
<title>Node222</title>
<g id="a_node30"><a xlink:href="_ocean_waves_8_h.html" target="_top" xlink:title=" ">
<polygon fill="white" stroke="red" points="2358,-112.5 2358,-131.5 2448,-131.5 2448,-112.5 2358,-112.5"/>
<text text-anchor="middle" x="2403" y="-119.5" font-family="Helvetica,sans-Serif" font-size="10.00">OceanWaves.H</text>
</a>
</g>
</g>
<!-- Node1&#45;&gt;Node222 -->
<g id="edge31" class="edge">
<title>Node1&#45;&gt;Node222</title>
<path fill="none" stroke="midnightblue" d="M2482.19,-163.73C2462.75,-153.73 2436.65,-140.31 2419.83,-131.65"/>
<polygon fill="midnightblue" stroke="midnightblue" points="2480.64,-166.86 2491.13,-168.32 2483.84,-160.64 2480.64,-166.86"/>
</g>
<!-- Node223 -->
<g id="node31" class="node">
<title>Node223</title>
<g id="a_node31"><a xlink:href="_boussinesq_bubble_8_h.html" target="_top" xlink:title=" ">
<polygon fill="white" stroke="red" points="0,-112.5 0,-131.5 116,-131.5 116,-112.5 0,-112.5"/>
<text text-anchor="middle" x="58" y="-119.5" font-family="Helvetica,sans-Serif" font-size="10.00">BoussinesqBubble.H</text>
</a>
</g>
</g>
<!-- Node1&#45;&gt;Node223 -->
<g id="edge32" class="edge">
<title>Node1&#45;&gt;Node223</title>
<path fill="none" stroke="midnightblue" d="M2465.7,-177.11C2234.42,-177.54 1099.32,-177.13 173,-132 154.5,-131.1 134.35,-129.67 116.17,-128.22"/>
<polygon fill="midnightblue" stroke="midnightblue" points="2465.73,-180.61 2475.72,-177.09 2465.72,-173.61 2465.73,-180.61"/>
</g>
<!-- Node87 -->
<g id="node32" class="node">
<title>Node87</title>
<g id="a_node32"><a xlink:href="init_8cpp.html" target="_top" xlink:title=" ">
<polygon fill="white" stroke="black" points="9.5,-56.5 9.5,-75.5 62.5,-75.5 62.5,-56.5 9.5,-56.5"/>
<text text-anchor="middle" x="36" y="-63.5" font-family="Helvetica,sans-Serif" font-size="10.00">init.cpp</text>
</a>
</g>
</g>
<!-- Node1&#45;&gt;Node87 -->
<g id="edge56" class="edge">
<title>Node1&#45;&gt;Node87</title>
<path fill="none" stroke="midnightblue" d="M2465.82,-176.95C2173.59,-176.49 455.32,-172.1 227,-132 161.62,-120.52 88.38,-90.42 54.73,-75.55"/>
<polygon fill="midnightblue" stroke="midnightblue" points="2465.99,-180.45 2475.99,-176.96 2466,-173.45 2465.99,-180.45"/>
</g>
<!-- Node224 -->
<g id="node33" class="node">
<title>Node224</title>
<g id="a_node33"><a xlink:href="_free_stream_8_h.html" target="_top" xlink:title=" ">
<polygon fill="white" stroke="red" points="2466.5,-112.5 2466.5,-131.5 2549.5,-131.5 2549.5,-112.5 2466.5,-112.5"/>
<text text-anchor="middle" x="2508" y="-119.5" font-family="Helvetica,sans-Serif" font-size="10.00">FreeStream.H</text>
</a>
</g>
</g>
<!-- Node1&#45;&gt;Node224 -->
<g id="edge38" class="edge">
<title>Node1&#45;&gt;Node224</title>
<path fill="none" stroke="midnightblue" d="M2508,-157.8C2508,-148.91 2508,-138.78 2508,-131.75"/>
<polygon fill="midnightblue" stroke="midnightblue" points="2504.5,-158.08 2508,-168.08 2511.5,-158.08 2504.5,-158.08"/>
</g>
<!-- Node225 -->
<g id="node34" class="node">
<title>Node225</title>
<g id="a_node34"><a xlink:href="_breaking_waves_8_h.html" target="_top" xlink:title=" ">
<polygon fill="white" stroke="red" points="2567.5,-112.5 2567.5,-131.5 2670.5,-131.5 2670.5,-112.5 2567.5,-112.5"/>
<text text-anchor="middle" x="2619" y="-119.5" font-family="Helvetica,sans-Serif" font-size="10.00">BreakingWaves.H</text>
</a>
</g>
</g>
<!-- Node1&#45;&gt;Node225 -->
<g id="edge41" class="edge">
<title>Node1&#45;&gt;Node225</title>
<path fill="none" stroke="midnightblue" d="M2535.01,-163.86C2555.59,-153.85 2583.34,-140.35 2601.21,-131.65"/>
<polygon fill="midnightblue" stroke="midnightblue" points="2533.3,-160.8 2525.83,-168.32 2536.36,-167.1 2533.3,-160.8"/>
</g>
<!-- Node226 -->
<g id="node35" class="node">
<title>Node226</title>
<g id="a_node35"><a xlink:href="_dam_break_8_h.html" target="_top" xlink:title=" ">
<polygon fill="white" stroke="red" points="2688.5,-112.5 2688.5,-131.5 2767.5,-131.5 2767.5,-112.5 2688.5,-112.5"/>
<text text-anchor="middle" x="2728" y="-119.5" font-family="Helvetica,sans-Serif" font-size="10.00">DamBreak.H</text>
</a>
</g>
</g>
<!-- Node1&#45;&gt;Node226 -->
<g id="edge42" class="edge">
<title>Node1&#45;&gt;Node226</title>
<path fill="none" stroke="midnightblue" d="M2550.28,-166.62C2591.83,-156.42 2654.48,-141.05 2693.22,-131.54"/>
<polygon fill="midnightblue" stroke="midnightblue" points="2549.34,-163.25 2540.46,-169.03 2551.01,-170.05 2549.34,-163.25"/>
</g>
<!-- Node227 -->
<g id="node36" class="node">
<title>Node227</title>
<g id="a_node36"><a xlink:href="_multi_phase_8_h.html" target="_top" xlink:title=" ">
<polygon fill="white" stroke="red" points="2785.5,-112.5 2785.5,-131.5 2866.5,-131.5 2866.5,-112.5 2785.5,-112.5"/>
<text text-anchor="middle" x="2826" y="-119.5" font-family="Helvetica,sans-Serif" font-size="10.00">MultiPhase.H</text>
</a>
</g>
</g>
<!-- Node1&#45;&gt;Node227 -->
<g id="edge43" class="edge">
<title>Node1&#45;&gt;Node227</title>
<path fill="none" stroke="midnightblue" d="M2550.38,-170.12C2603.4,-161.47 2696.99,-146.04 2777,-132 2779.73,-131.52 2782.54,-131.02 2785.37,-130.51"/>
<polygon fill="midnightblue" stroke="midnightblue" points="2549.63,-166.7 2540.33,-171.76 2550.76,-173.61 2549.63,-166.7"/>
</g>
<!-- Node230 -->
<g id="node37" class="node">
<title>Node230</title>
<g id="a_node37"><a xlink:href="_rain_drop_8_h.html" target="_top" xlink:title=" ">
<polygon fill="white" stroke="red" points="2885,-112.5 2885,-131.5 2957,-131.5 2957,-112.5 2885,-112.5"/>
<text text-anchor="middle" x="2921" y="-119.5" font-family="Helvetica,sans-Serif" font-size="10.00">RainDrop.H</text>
</a>
</g>
</g>
<!-- Node1&#45;&gt;Node230 -->
<g id="edge44" class="edge">
<title>Node1&#45;&gt;Node230</title>
<path fill="none" stroke="midnightblue" d="M2550.09,-172.9C2618.6,-165.99 2758.44,-150.92 2876,-132 2878.83,-131.54 2881.76,-131.04 2884.69,-130.51"/>
<polygon fill="midnightblue" stroke="midnightblue" points="2549.71,-169.42 2540.11,-173.9 2550.41,-176.39 2549.71,-169.42"/>
</g>
<!-- Node231 -->
<g id="node38" class="node">
<title>Node231</title>
<g id="a_node38"><a xlink:href="_sloshing_tank_8_h.html" target="_top" xlink:title=" ">
<polygon fill="white" stroke="red" points="2975.5,-112.5 2975.5,-131.5 3066.5,-131.5 3066.5,-112.5 2975.5,-112.5"/>
<text text-anchor="middle" x="3021" y="-119.5" font-family="Helvetica,sans-Serif" font-size="10.00">SloshingTank.H</text>
</a>
</g>
</g>
<!-- Node1&#45;&gt;Node231 -->
<g id="edge45" class="edge">
<title>Node1&#45;&gt;Node231</title>
<path fill="none" stroke="midnightblue" d="M2550.28,-173.76C2631.18,-167.36 2813.42,-151.96 2966,-132 2969.07,-131.6 2972.23,-131.16 2975.41,-130.69"/>
<polygon fill="midnightblue" stroke="midnightblue" points="2549.7,-170.29 2540.01,-174.57 2550.25,-177.27 2549.7,-170.29"/>
</g>
<!-- Node232 -->
<g id="node39" class="node">
<title>Node232</title>
<g id="a_node39"><a xlink:href="_vortex_patch_8_h.html" target="_top" xlink:title=" ">
<polygon fill="white" stroke="red" points="3084.5,-112.5 3084.5,-131.5 3169.5,-131.5 3169.5,-112.5 3084.5,-112.5"/>
<text text-anchor="middle" x="3127" y="-119.5" font-family="Helvetica,sans-Serif" font-size="10.00">VortexPatch.H</text>
</a>
</g>
</g>
<!-- Node1&#45;&gt;Node232 -->
<g id="edge46" class="edge">
<title>Node1&#45;&gt;Node232</title>
<path fill="none" stroke="midnightblue" d="M2550.15,-175.04C2644.59,-170.35 2880.22,-156.97 3076,-132 3078.76,-131.65 3081.61,-131.25 3084.47,-130.82"/>
<polygon fill="midnightblue" stroke="midnightblue" points="2549.95,-171.55 2540.14,-175.53 2550.3,-178.54 2549.95,-171.55"/>
</g>
<!-- Node233 -->
<g id="node40" class="node">
<title>Node233</title>
<g id="a_node40"><a xlink:href="_vortex_patch_scalar_vel_8_h.html" target="_top" xlink:title=" ">
<polygon fill="white" stroke="red" points="3188,-112.5 3188,-131.5 3318,-131.5 3318,-112.5 3188,-112.5"/>
<text text-anchor="middle" x="3253" y="-119.5" font-family="Helvetica,sans-Serif" font-size="10.00">VortexPatchScalarVel.H</text>
</a>
</g>
</g>
<!-- Node1&#45;&gt;Node233 -->
<g id="edge47" class="edge">
<title>Node1&#45;&gt;Node233</title>
<path fill="none" stroke="midnightblue" d="M2550.47,-174.95C2656.59,-169.66 2941.88,-154.35 3179,-132 3181.83,-131.73 3184.73,-131.44 3187.65,-131.14"/>
<polygon fill="midnightblue" stroke="midnightblue" points="2549.99,-171.47 2540.18,-175.46 2550.34,-178.46 2549.99,-171.47"/>
</g>
<!-- Node234 -->
<g id="node41" class="node">
<title>Node234</title>
<g id="a_node41"><a xlink:href="_zalesak_disk_8_h.html" target="_top" xlink:title=" ">
<polygon fill="white" stroke="red" points="3336,-112.5 3336,-131.5 3424,-131.5 3424,-112.5 3336,-112.5"/>
<text text-anchor="middle" x="3380" y="-119.5" font-family="Helvetica,sans-Serif" font-size="10.00">ZalesakDisk.H</text>
</a>
</g>
</g>
<!-- Node1&#45;&gt;Node234 -->
<g id="edge48" class="edge">
<title>Node1&#45;&gt;Node234</title>
<path fill="none" stroke="midnightblue" d="M2550.45,-176.36C2671.88,-174.17 3030.97,-165.16 3327,-132 3329.88,-131.68 3332.83,-131.3 3335.81,-130.89"/>
<polygon fill="midnightblue" stroke="midnightblue" points="2550.05,-172.87 2540.11,-176.54 2550.17,-179.87 2550.05,-172.87"/>
</g>
<!-- Node235 -->
<g id="node42" class="node">
<title>Node235</title>
<g id="a_node42"><a xlink:href="_zalesak_disk_scalar_vel_8_h.html" target="_top" xlink:title=" ">
<polygon fill="white" stroke="red" points="3442.5,-112.5 3442.5,-131.5 3575.5,-131.5 3575.5,-112.5 3442.5,-112.5"/>
<text text-anchor="middle" x="3509" y="-119.5" font-family="Helvetica,sans-Serif" font-size="10.00">ZalesakDiskScalarVel.H</text>
</a>
</g>
</g>
<!-- Node1&#45;&gt;Node235 -->
<g id="edge49" class="edge">
<title>Node1&#45;&gt;Node235</title>
<path fill="none" stroke="midnightblue" d="M2550.01,-175.99C2680.9,-172.63 3092.92,-160.37 3433,-132 3436.05,-131.75 3439.16,-131.46 3442.3,-131.16"/>
<polygon fill="midnightblue" stroke="midnightblue" points="2549.91,-172.49 2540,-176.25 2550.09,-179.49 2549.91,-172.49"/>
</g>
<!-- Node236 -->
<g id="node43" class="node">
<title>Node236</title>
<g id="a_node43"><a xlink:href="_rayleigh_taylor_8_h.html" target="_top" xlink:title=" ">
<polygon fill="white" stroke="red" points="3594,-112.5 3594,-131.5 3692,-131.5 3692,-112.5 3594,-112.5"/>
<text text-anchor="middle" x="3643" y="-119.5" font-family="Helvetica,sans-Serif" font-size="10.00">RayleighTaylor.H</text>
</a>
</g>
</g>
<!-- Node1&#45;&gt;Node236 -->
<g id="edge50" class="edge">
<title>Node1&#45;&gt;Node236</title>
<path fill="none" stroke="midnightblue" d="M2550.48,-176.93C2695.45,-176.35 3183.9,-171.37 3585,-132 3587.84,-131.72 3590.75,-131.4 3593.69,-131.04"/>
<polygon fill="midnightblue" stroke="midnightblue" points="2550.24,-173.44 2540.25,-176.97 2550.26,-180.44 2550.24,-173.44"/>
</g>
<!-- Node237 -->
<g id="node44" class="node">
<title>Node237</title>
<g id="a_node44"><a xlink:href="_scalar_advection_8_h.html" target="_top" xlink:title=" ">
<polygon fill="white" stroke="red" points="3710,-112.5 3710,-131.5 3816,-131.5 3816,-112.5 3710,-112.5"/>
<text text-anchor="middle" x="3763" y="-119.5" font-family="Helvetica,sans-Serif" font-size="10.00">ScalarAdvection.H</text>
</a>
</g>
</g>
<!-- Node1&#45;&gt;Node237 -->
<g id="edge51" class="edge">
<title>Node1&#45;&gt;Node237</title>
<path fill="none" stroke="midnightblue" d="M2550.36,-177.03C2704.8,-176.79 3252.06,-172.93 3701,-132 3703.92,-131.73 3706.92,-131.42 3709.94,-131.08"/>
<polygon fill="midnightblue" stroke="midnightblue" points="2550.34,-173.53 2540.35,-177.04 2550.35,-180.53 2550.34,-173.53"/>
</g>
<!-- Node238 -->
<g id="node45" class="node">
<title>Node238</title>
<g id="a_node45"><a xlink:href="_taylor_green_vortex_8_h.html" target="_top" xlink:title=" ">
<polygon fill="white" stroke="red" points="3834.5,-112.5 3834.5,-131.5 3951.5,-131.5 3951.5,-112.5 3834.5,-112.5"/>
<text text-anchor="middle" x="3893" y="-119.5" font-family="Helvetica,sans-Serif" font-size="10.00">TaylorGreenVortex.H</text>
</a>
</g>
</g>
<!-- Node1&#45;&gt;Node238 -->
<g id="edge53" class="edge">
<title>Node1&#45;&gt;Node238</title>
<path fill="none" stroke="midnightblue" d="M2550.32,-177.05C2714.45,-176.93 3324.71,-173.56 3825,-132 3828.09,-131.74 3831.25,-131.45 3834.43,-131.12"/>
<polygon fill="midnightblue" stroke="midnightblue" points="2550.15,-173.55 2540.16,-177.05 2550.16,-180.55 2550.15,-173.55"/>
</g>
<!-- Node239 -->
<g id="node46" class="node">
<title>Node239</title>
<g id="a_node46"><a xlink:href="_vortex_dipole_8_h.html" target="_top" xlink:title=" ">
<polygon fill="white" stroke="red" points="3970,-112.5 3970,-131.5 4060,-131.5 4060,-112.5 3970,-112.5"/>
<text text-anchor="middle" x="4015" y="-119.5" font-family="Helvetica,sans-Serif" font-size="10.00">VortexDipole.H</text>
</a>
</g>
</g>
<!-- Node1&#45;&gt;Node239 -->
<g id="edge54" class="edge">
<title>Node1&#45;&gt;Node239</title>
<path fill="none" stroke="midnightblue" d="M2550.28,-176.46C2758.52,-173.67 3676.63,-159.97 3961,-132 3963.93,-131.71 3966.95,-131.36 3969.98,-130.97"/>
<polygon fill="midnightblue" stroke="midnightblue" points="2550.02,-172.96 2540.06,-176.59 2550.11,-179.96 2550.02,-172.96"/>
</g>
<!-- Node240 -->
<g id="node47" class="node">
<title>Node240</title>
<g id="a_node47"><a xlink:href="_vortex_ring_8_h.html" target="_top" xlink:title=" ">
<polygon fill="white" stroke="red" points="4078,-112.5 4078,-131.5 4158,-131.5 4158,-112.5 4078,-112.5"/>
<text text-anchor="middle" x="4118" y="-119.5" font-family="Helvetica,sans-Serif" font-size="10.00">VortexRing.H</text>
</a>
</g>
</g>
<!-- Node1&#45;&gt;Node240 -->
<g id="edge55" class="edge">
<title>Node1&#45;&gt;Node240</title>
<path fill="none" stroke="midnightblue" d="M2550.26,-176.66C2767.72,-174.75 3762.28,-164.4 4069,-132 4071.92,-131.69 4074.94,-131.31 4077.96,-130.87"/>
<polygon fill="midnightblue" stroke="midnightblue" points="2550.18,-173.16 2540.21,-176.74 2550.24,-180.16 2550.18,-173.16"/>
</g>
<!-- Node89 -->
<g id="node48" class="node">
<title>Node89</title>
<g id="a_node48"><a xlink:href="io_8cpp.html" target="_top" xlink:title=" ">
<polygon fill="white" stroke="black" points="4176,-112.5 4176,-131.5 4222,-131.5 4222,-112.5 4176,-112.5"/>
<text text-anchor="middle" x="4199" y="-119.5" font-family="Helvetica,sans-Serif" font-size="10.00">io.cpp</text>
</a>
</g>
</g>
<!-- Node1&#45;&gt;Node89 -->
<g id="edge57" class="edge">
<title>Node1&#45;&gt;Node89</title>
<path fill="none" stroke="midnightblue" d="M2550.42,-177.27C2776.53,-178.47 3841.72,-181.37 4167,-132 4169.85,-131.57 4172.81,-130.96 4175.73,-130.26"/>
<polygon fill="midnightblue" stroke="midnightblue" points="2550.32,-173.77 2540.3,-177.21 2550.28,-180.77 2550.32,-173.77"/>
</g>
<!-- Node160 -->
<g id="node49" class="node">
<title>Node160</title>
<g id="a_node49"><a xlink:href="_a_b_l_8_h.html" target="_top" xlink:title=" ">
<polygon fill="white" stroke="red" points="236,-112.5 236,-131.5 282,-131.5 282,-112.5 236,-112.5"/>
<text text-anchor="middle" x="259" y="-119.5" font-family="Helvetica,sans-Serif" font-size="10.00">ABL.H</text>
</a>
</g>
</g>
<!-- Node1&#45;&gt;Node160 -->
<g id="edge58" class="edge">
<title>Node1&#45;&gt;Node160</title>
<path fill="none" stroke="midnightblue" d="M2465.64,-176.21C2255.57,-172.26 1304.63,-153.96 526,-132 435.83,-129.46 328.55,-125.58 282.21,-123.87"/>
<polygon fill="midnightblue" stroke="midnightblue" points="2465.86,-179.72 2475.92,-176.4 2465.99,-172.72 2465.86,-179.72"/>
</g>
<!-- Node241 -->
<g id="node50" class="node">
<title>Node241</title>
<g id="a_node50"><a xlink:href="_actuator_8_h.html" target="_top" xlink:title=" ">
<polygon fill="white" stroke="red" points="535,-112.5 535,-131.5 603,-131.5 603,-112.5 535,-112.5"/>
<text text-anchor="middle" x="569" y="-119.5" font-family="Helvetica,sans-Serif" font-size="10.00">Actuator.H</text>
</a>
</g>
</g>
<!-- Node1&#45;&gt;Node241 -->
<g id="edge63" class="edge">
<title>Node1&#45;&gt;Node241</title>
<path fill="none" stroke="midnightblue" d="M2465.85,-175.83C2207.23,-168.62 838.31,-130.5 603.34,-123.96"/>
<polygon fill="midnightblue" stroke="midnightblue" points="2465.87,-179.33 2475.96,-176.11 2466.06,-172.33 2465.87,-179.33"/>
</g>
<!-- Node3 -->
<g id="node3" class="node">
<title>Node3</title>
<g id="a_node3"><a xlink:href="_c_f_d_sim_8cpp.html" target="_top" xlink:title=" ">
<polygon fill="white" stroke="black" points="1305,-56.5 1305,-75.5 1381,-75.5 1381,-56.5 1305,-56.5"/>
<text text-anchor="middle" x="1343" y="-63.5" font-family="Helvetica,sans-Serif" font-size="10.00">CFDSim.cpp</text>
</a>
</g>
</g>
<!-- Node2&#45;&gt;Node3 -->
<g id="edge2" class="edge">
<title>Node2&#45;&gt;Node3</title>
<path fill="none" stroke="midnightblue" d="M1459.78,-109.04C1431.55,-98.88 1391.74,-84.55 1366.66,-75.52"/>
<polygon fill="midnightblue" stroke="midnightblue" points="1458.64,-112.35 1469.23,-112.44 1461.01,-105.76 1458.64,-112.35"/>
</g>
<!-- Node4 -->
<g id="node4" class="node">
<title>Node4</title>
<g id="a_node4"><a xlink:href="_mesh_map_8cpp.html" target="_top" xlink:title=" ">
<polygon fill="white" stroke="black" points="1399,-56.5 1399,-75.5 1483,-75.5 1483,-56.5 1399,-56.5"/>
<text text-anchor="middle" x="1441" y="-63.5" font-family="Helvetica,sans-Serif" font-size="10.00">MeshMap.cpp</text>
</a>
</g>
</g>
<!-- Node2&#45;&gt;Node4 -->
<g id="edge3" class="edge">
<title>Node2&#45;&gt;Node4</title>
<path fill="none" stroke="midnightblue" d="M1477.32,-104.72C1468.16,-95.2 1456.95,-83.56 1449.43,-75.75"/>
<polygon fill="midnightblue" stroke="midnightblue" points="1474.96,-107.31 1484.41,-112.08 1480,-102.45 1474.96,-107.31"/>
</g>
<!-- Node5 -->
<g id="node5" class="node">
<title>Node5</title>
<g id="a_node5"><a xlink:href="_a_b_l_forcing_8cpp.html" target="_top" xlink:title=" ">
<polygon fill="white" stroke="black" points="80.5,-56.5 80.5,-75.5 171.5,-75.5 171.5,-56.5 80.5,-56.5"/>
<text text-anchor="middle" x="126" y="-63.5" font-family="Helvetica,sans-Serif" font-size="10.00">ABLForcing.cpp</text>
</a>
</g>
</g>
<!-- Node2&#45;&gt;Node5 -->
<g id="edge4" class="edge">
<title>Node2&#45;&gt;Node5</title>
<path fill="none" stroke="midnightblue" d="M1449.52,-120.26C1251.71,-116.76 435.45,-101.08 181,-76 177.92,-75.7 174.75,-75.33 171.56,-74.92"/>
<polygon fill="midnightblue" stroke="midnightblue" points="1449.74,-123.76 1459.8,-120.44 1449.87,-116.76 1449.74,-123.76"/>
</g>
<!-- Node6 -->
<g id="node6" class="node">
<title>Node6</title>
<g id="a_node6"><a xlink:href="_a_b_l_mean_boussinesq_8cpp.html" target="_top" xlink:title=" ">
<polygon fill="white" stroke="black" points="190,-56.5 190,-75.5 328,-75.5 328,-56.5 190,-56.5"/>
<text text-anchor="middle" x="259" y="-63.5" font-family="Helvetica,sans-Serif" font-size="10.00">ABLMeanBoussinesq.cpp</text>
</a>
</g>
</g>
<!-- Node2&#45;&gt;Node6 -->
<g id="edge5" class="edge">
<title>Node2&#45;&gt;Node6</title>
<path fill="none" stroke="midnightblue" d="M1449.49,-120.5C1296.65,-118.48 770.16,-109.37 337,-76 334.15,-75.78 331.24,-75.54 328.3,-75.27"/>
<polygon fill="midnightblue" stroke="midnightblue" points="1449.8,-124 1459.84,-120.63 1449.89,-117 1449.8,-124"/>
</g>
<!-- Node7 -->
<g id="node7" class="node">
<title>Node7</title>
<g id="a_node7"><a xlink:href="_actuator_forcing_8cpp.html" target="_top" xlink:title=" ">
<polygon fill="white" stroke="black" points="483.5,-56.5 483.5,-75.5 596.5,-75.5 596.5,-56.5 483.5,-56.5"/>
<text text-anchor="middle" x="540" y="-63.5" font-family="Helvetica,sans-Serif" font-size="10.00">ActuatorForcing.cpp</text>
</a>
</g>
</g>
<!-- Node2&#45;&gt;Node7 -->
<g id="edge6" class="edge">
<title>Node2&#45;&gt;Node7</title>
<path fill="none" stroke="midnightblue" d="M1449.67,-120.1C1320.89,-117.16 929.29,-106.19 606,-76 603.01,-75.72 599.94,-75.4 596.85,-75.06"/>
<polygon fill="midnightblue" stroke="midnightblue" points="1449.83,-123.61 1459.9,-120.33 1449.99,-116.61 1449.83,-123.61"/>
</g>
<!-- Node8 -->
<g id="node8" class="node">
<title>Node8</title>
<g id="a_node8"><a xlink:href="_body_force_8cpp.html" target="_top" xlink:title=" ">
<polygon fill="white" stroke="black" points="1501,-56.5 1501,-75.5 1589,-75.5 1589,-56.5 1501,-56.5"/>
<text text-anchor="middle" x="1545" y="-63.5" font-family="Helvetica,sans-Serif" font-size="10.00">BodyForce.cpp</text>
</a>
</g>
</g>
<!-- Node2&#45;&gt;Node8 -->
<g id="edge7" class="edge">
<title>Node2&#45;&gt;Node8</title>
<path fill="none" stroke="midnightblue" d="M1508.68,-104.72C1517.84,-95.2 1529.05,-83.56 1536.57,-75.75"/>
<polygon fill="midnightblue" stroke="midnightblue" points="1506,-102.45 1501.59,-112.08 1511.04,-107.31 1506,-102.45"/>
</g>
<!-- Node9 -->
<g id="node9" class="node">
<title>Node9</title>
<g id="a_node9"><a xlink:href="_boussinesq_buoyancy_8cpp.html" target="_top" xlink:title=" ">
<polygon fill="white" stroke="black" points="1607.5,-56.5 1607.5,-75.5 1746.5,-75.5 1746.5,-56.5 1607.5,-56.5"/>
<text text-anchor="middle" x="1677" y="-63.5" font-family="Helvetica,sans-Serif" font-size="10.00">BoussinesqBuoyancy.cpp</text>
</a>
</g>
</g>
<!-- Node2&#45;&gt;Node9 -->
<g id="edge8" class="edge">
<title>Node2&#45;&gt;Node9</title>
<path fill="none" stroke="midnightblue" d="M1531.95,-109.57C1566.66,-99.38 1616.68,-84.7 1647.98,-75.52"/>
<polygon fill="midnightblue" stroke="midnightblue" points="1530.77,-106.27 1522.16,-112.44 1532.74,-112.99 1530.77,-106.27"/>
</g>
<!-- Node10 -->
<g id="node10" class="node">
<title>Node10</title>
<g id="a_node10"><a xlink:href="_burggraf_flow_forcing_8cpp.html" target="_top" xlink:title=" ">
<polygon fill="white" stroke="black" points="934.5,-0.5 934.5,-19.5 1071.5,-19.5 1071.5,-0.5 934.5,-0.5"/>
<text text-anchor="middle" x="1003" y="-7.5" font-family="Helvetica,sans-Serif" font-size="10.00">BurggrafFlowForcing.cpp</text>
</a>
</g>
</g>
<!-- Node2&#45;&gt;Node10 -->
<g id="edge9" class="edge">
<title>Node2&#45;&gt;Node10</title>
<path fill="none" stroke="midnightblue" d="M1449.47,-117.22C1389.83,-111.45 1279.67,-98.64 1188,-76 1156.19,-68.14 1067.61,-35.35 1025.63,-19.56"/>
<polygon fill="midnightblue" stroke="midnightblue" points="1449.36,-120.73 1459.65,-118.19 1450.02,-113.76 1449.36,-120.73"/>
</g>
<!-- Node11 -->
<g id="node11" class="node">
<title>Node11</title>
<g id="a_node11"><a xlink:href="_coriolis_forcing_8cpp.html" target="_top" xlink:title=" ">
<polygon fill="white" stroke="black" points="1847.5,-56.5 1847.5,-75.5 1956.5,-75.5 1956.5,-56.5 1847.5,-56.5"/>
<text text-anchor="middle" x="1902" y="-63.5" font-family="Helvetica,sans-Serif" font-size="10.00">CoriolisForcing.cpp</text>
</a>
</g>
</g>
<!-- Node2&#45;&gt;Node11 -->
<g id="edge10" class="edge">
<title>Node2&#45;&gt;Node11</title>
<path fill="none" stroke="midnightblue" d="M1536.26,-115.5C1601.63,-107.15 1729.48,-90.71 1838,-76 1841,-75.59 1844.08,-75.17 1847.19,-74.74"/>
<polygon fill="midnightblue" stroke="midnightblue" points="1535.8,-112.03 1526.32,-116.77 1536.68,-118.97 1535.8,-112.03"/>
</g>
<!-- Node12 -->
<g id="node12" class="node">
<title>Node12</title>
<g id="a_node12"><a xlink:href="_density_buoyancy_8cpp.html" target="_top" xlink:title=" ">
<polygon fill="white" stroke="black" points="1974.5,-56.5 1974.5,-75.5 2095.5,-75.5 2095.5,-56.5 1974.5,-56.5"/>
<text text-anchor="middle" x="2035" y="-63.5" font-family="Helvetica,sans-Serif" font-size="10.00">DensityBuoyancy.cpp</text>
</a>
</g>
</g>
<!-- Node2&#45;&gt;Node12 -->
<g id="edge11" class="edge">
<title>Node2&#45;&gt;Node12</title>
<path fill="none" stroke="midnightblue" d="M1536.32,-117.35C1619.49,-110.23 1807.32,-93.65 1965,-76 1968.04,-75.66 1971.16,-75.3 1974.31,-74.93"/>
<polygon fill="midnightblue" stroke="midnightblue" points="1535.9,-113.87 1526.23,-118.21 1536.49,-120.85 1535.9,-113.87"/>
</g>
<!-- Node13 -->
<g id="node13" class="node">
<title>Node13</title>
<g id="a_node13"><a xlink:href="_geostrophic_forcing_8cpp.html" target="_top" xlink:title=" ">
<polygon fill="white" stroke="black" points="2113.5,-56.5 2113.5,-75.5 2244.5,-75.5 2244.5,-56.5 2113.5,-56.5"/>
<text text-anchor="middle" x="2179" y="-63.5" font-family="Helvetica,sans-Serif" font-size="10.00">GeostrophicForcing.cpp</text>
</a>
</g>
</g>
<!-- Node2&#45;&gt;Node13 -->
<g id="edge12" class="edge">
<title>Node2&#45;&gt;Node13</title>
<path fill="none" stroke="midnightblue" d="M1536.19,-118.5C1636.18,-112.57 1891.32,-96.58 2104,-76 2107,-75.71 2110.07,-75.4 2113.17,-75.07"/>
<polygon fill="midnightblue" stroke="midnightblue" points="1535.94,-115.01 1526.16,-119.09 1536.35,-122 1535.94,-115.01"/>
</g>
<!-- Node14 -->
<g id="node14" class="node">
<title>Node14</title>
<g id="a_node14"><a xlink:href="_gravity_forcing_8cpp.html" target="_top" xlink:title=" ">
<polygon fill="white" stroke="black" points="725,-56.5 725,-75.5 833,-75.5 833,-56.5 725,-56.5"/>
<text text-anchor="middle" x="779" y="-63.5" font-family="Helvetica,sans-Serif" font-size="10.00">GravityForcing.cpp</text>
</a>
</g>
</g>
<!-- Node2&#45;&gt;Node14 -->
<g id="edge13" class="edge">
<title>Node2&#45;&gt;Node14</title>
<path fill="none" stroke="midnightblue" d="M1449.55,-119.09C1344.81,-114.26 1070.19,-100.15 842,-76 839.14,-75.7 836.22,-75.36 833.26,-75.01"/>
<polygon fill="midnightblue" stroke="midnightblue" points="1449.58,-122.6 1459.73,-119.56 1449.9,-115.6 1449.58,-122.6"/>
</g>
<!-- Node15 -->
<g id="node15" class="node">
<title>Node15</title>
<g id="a_node15"><a xlink:href="_hurricane_forcing_8cpp.html" target="_top" xlink:title=" ">
<polygon fill="white" stroke="black" points="346.5,-56.5 346.5,-75.5 465.5,-75.5 465.5,-56.5 346.5,-56.5"/>
<text text-anchor="middle" x="406" y="-63.5" font-family="Helvetica,sans-Serif" font-size="10.00">HurricaneForcing.cpp</text>
</a>
</g>
</g>
<!-- Node2&#45;&gt;Node15 -->
<g id="edge14" class="edge">
<title>Node2&#45;&gt;Node15</title>
<path fill="none" stroke="midnightblue" d="M1449.57,-120.44C1308.58,-118.33 850.94,-109.2 474,-76 471.27,-75.76 468.48,-75.49 465.67,-75.2"/>
<polygon fill="midnightblue" stroke="midnightblue" points="1449.89,-123.94 1459.94,-120.59 1449.99,-116.95 1449.89,-123.94"/>
</g>
<!-- Node16 -->
<g id="node16" class="node">
<title>Node16</title>
<g id="a_node16"><a xlink:href="_rayleigh_damping_8cpp.html" target="_top" xlink:title=" ">
<polygon fill="white" stroke="black" points="851,-56.5 851,-75.5 975,-75.5 975,-56.5 851,-56.5"/>
<text text-anchor="middle" x="913" y="-63.5" font-family="Helvetica,sans-Serif" font-size="10.00">RayleighDamping.cpp</text>
</a>
</g>
</g>
<!-- Node2&#45;&gt;Node16 -->
<g id="edge15" class="edge">
<title>Node2&#45;&gt;Node16</title>
<path fill="none" stroke="midnightblue" d="M1449.79,-117.74C1361.95,-110.98 1156.27,-94.53 984,-76 981.16,-75.69 978.25,-75.37 975.32,-75.04"/>
<polygon fill="midnightblue" stroke="midnightblue" points="1449.67,-121.24 1459.91,-118.51 1450.2,-114.26 1449.67,-121.24"/>
</g>
<!-- Node17 -->
<g id="node17" class="node">
<title>Node17</title>
<g id="a_node17"><a xlink:href="_synth_turb_forcing_8cpp.html" target="_top" xlink:title=" ">
<polygon fill="white" stroke="black" points="993,-56.5 993,-75.5 1113,-75.5 1113,-56.5 993,-56.5"/>
<text text-anchor="middle" x="1053" y="-63.5" font-family="Helvetica,sans-Serif" font-size="10.00">SynthTurbForcing.cpp</text>
</a>
</g>
</g>
<!-- Node2&#45;&gt;Node17 -->
<g id="edge16" class="edge">
<title>Node2&#45;&gt;Node17</title>
<path fill="none" stroke="midnightblue" d="M1449.86,-115.7C1370.97,-106.02 1203.33,-85.45 1113.24,-74.39"/>
<polygon fill="midnightblue" stroke="midnightblue" points="1449.58,-119.2 1459.93,-116.94 1450.43,-112.25 1449.58,-119.2"/>
</g>
<!-- Node18 -->
<g id="node18" class="node">
<title>Node18</title>
<g id="a_node18"><a xlink:href="_p_d_e_8_h.html" target="_top" xlink:title=" ">
<polygon fill="white" stroke="red" points="1293.5,-0.5 1293.5,-19.5 1340.5,-19.5 1340.5,-0.5 1293.5,-0.5"/>
<text text-anchor="middle" x="1317" y="-7.5" font-family="Helvetica,sans-Serif" font-size="10.00">PDE.H</text>
</a>
</g>
</g>
<!-- Node2&#45;&gt;Node18 -->
<g id="edge17" class="edge">
<title>Node2&#45;&gt;Node18</title>
<path fill="none" stroke="midnightblue" d="M1449.46,-121C1375.42,-119.96 1229.89,-113.13 1198,-76 1168.47,-41.63 1250.64,-22.19 1293.22,-14.67"/>
<polygon fill="midnightblue" stroke="midnightblue" points="1449.81,-124.5 1459.85,-121.11 1449.88,-117.5 1449.81,-124.5"/>
</g>
<!-- Node52 -->
<g id="node19" class="node">
<title>Node52</title>
<g id="a_node19"><a xlink:href="_p_d_e_base_8cpp.html" target="_top" xlink:title=" ">
<polygon fill="white" stroke="black" points="1207,-56.5 1207,-75.5 1287,-75.5 1287,-56.5 1207,-56.5"/>
<text text-anchor="middle" x="1247" y="-63.5" font-family="Helvetica,sans-Serif" font-size="10.00">PDEBase.cpp</text>
</a>
</g>
</g>
<!-- Node2&#45;&gt;Node52 -->
<g id="edge18" class="edge">
<title>Node2&#45;&gt;Node52</title>
<path fill="none" stroke="midnightblue" d="M1449.8,-111.52C1403.54,-101.36 1330.77,-85.39 1286.13,-75.59"/>
<polygon fill="midnightblue" stroke="midnightblue" points="1449.31,-114.99 1459.82,-113.72 1450.81,-108.15 1449.31,-114.99"/>
</g>
<!-- Node53 -->
<g id="node20" class="node">
<title>Node53</title>
<g id="a_node20"><a xlink:href="_p_d_e_ops_8_h.html" target="_top" xlink:title=" ">
<polygon fill="white" stroke="red" points="1764.5,-56.5 1764.5,-75.5 1829.5,-75.5 1829.5,-56.5 1764.5,-56.5"/>
<text text-anchor="middle" x="1797" y="-63.5" font-family="Helvetica,sans-Serif" font-size="10.00">PDEOps.H</text>
</a>
</g>
</g>
<!-- Node2&#45;&gt;Node53 -->
<g id="edge19" class="edge">
<title>Node2&#45;&gt;Node53</title>
<path fill="none" stroke="midnightblue" d="M1536.04,-114.16C1588.04,-105.78 1678.1,-90.84 1755,-76 1758.08,-75.41 1761.27,-74.77 1764.47,-74.11"/>
<polygon fill="midnightblue" stroke="midnightblue" points="1535.48,-110.71 1526.17,-115.75 1536.6,-117.62 1535.48,-110.71"/>
</g>
<!-- Node2&#45;&gt;Node103 -->
<g id="edge21" class="edge">
<title>Node2&#45;&gt;Node103</title>
<path fill="none" stroke="midnightblue" d="M1449.89,-120.08C1332.03,-117.23 994.67,-106.78 716,-76 713.11,-75.68 710.15,-75.31 707.17,-74.91"/>
<polygon fill="midnightblue" stroke="midnightblue" points="1449.87,-123.58 1459.95,-120.32 1450.04,-116.58 1449.87,-123.58"/>
</g>
<!-- Node2&#45;&gt;Node105 -->
<g id="edge23" class="edge">
<title>Node2&#45;&gt;Node105</title>
<path fill="none" stroke="midnightblue" d="M1536.4,-120.09C1652.9,-117.29 1982.08,-107.03 2254,-76 2256.69,-75.69 2259.45,-75.34 2262.23,-74.96"/>
<polygon fill="midnightblue" stroke="midnightblue" points="1536.03,-116.6 1526.12,-120.33 1536.2,-123.6 1536.03,-116.6"/>
</g>
<!-- Node2&#45;&gt;Node107 -->
<g id="edge24" class="edge">
<title>Node2&#45;&gt;Node107</title>
<path fill="none" stroke="midnightblue" d="M1536.24,-119.68C1663.07,-115.61 2045.04,-101.94 2361,-76 2363.79,-75.77 2366.62,-75.52 2369.49,-75.26"/>
<polygon fill="midnightblue" stroke="midnightblue" points="1536.04,-116.18 1526.16,-120 1536.27,-123.18 1536.04,-116.18"/>
</g>
<!-- Node2&#45;&gt;Node109 -->
<g id="edge25" class="edge">
<title>Node2&#45;&gt;Node109</title>
<path fill="none" stroke="midnightblue" d="M1536.48,-121.03C1678.53,-120.72 2141.66,-116.45 2522,-76 2524.69,-75.71 2527.45,-75.38 2530.23,-75"/>
<polygon fill="midnightblue" stroke="midnightblue" points="1536.42,-117.53 1526.43,-121.05 1536.43,-124.53 1536.42,-117.53"/>
</g>
<!-- Node2&#45;&gt;Node112 -->
<g id="edge26" class="edge">
<title>Node2&#45;&gt;Node112</title>
<path fill="none" stroke="midnightblue" d="M1536.28,-120.66C1687.19,-119.18 2204.03,-111.67 2629,-76 2631.69,-75.77 2634.43,-75.52 2637.2,-75.25"/>
<polygon fill="midnightblue" stroke="midnightblue" points="1536.02,-117.16 1526.06,-120.76 1536.09,-124.16 1536.02,-117.16"/>
</g>
<!-- Node2&#45;&gt;Node114 -->
<g id="edge27" class="edge">
<title>Node2&#45;&gt;Node114</title>
<path fill="none" stroke="midnightblue" d="M1536.54,-120.04C1746.13,-115.36 2646.04,-94.35 2770,-76 2772.66,-75.61 2775.41,-75.08 2778.14,-74.48"/>
<polygon fill="midnightblue" stroke="midnightblue" points="1536.16,-116.55 1526.24,-120.27 1536.32,-123.55 1536.16,-116.55"/>
</g>
<!-- Node2&#45;&gt;Node127 -->
<g id="edge28" class="edge">
<title>Node2&#45;&gt;Node127</title>
<path fill="none" stroke="midnightblue" d="M1536.27,-121.01C1704.04,-120.74 2327.6,-116.87 2839,-76 2841.72,-75.78 2844.51,-75.54 2847.31,-75.27"/>
<polygon fill="midnightblue" stroke="midnightblue" points="1536.11,-117.51 1526.11,-121.02 1536.11,-124.51 1536.11,-117.51"/>
</g>
<!-- Node53&#45;&gt;Node18 -->
<g id="edge20" class="edge">
<title>Node53&#45;&gt;Node18</title>
<path fill="none" stroke="midnightblue" d="M1753.8,-55.98C1590.17,-30.6 1405.6,-16.89 1340.86,-12.54"/>
<polygon fill="midnightblue" stroke="midnightblue" points="1753.63,-59.49 1764.05,-57.58 1754.71,-52.58 1753.63,-59.49"/>
</g>
<!-- Node103&#45;&gt;Node10 -->
<g id="edge22" class="edge">
<title>Node103&#45;&gt;Node10</title>
<path fill="none" stroke="midnightblue" d="M717.18,-55.82C803.57,-42 892.32,-28.15 947.96,-19.52"/>
<polygon fill="midnightblue" stroke="midnightblue" points="716.53,-52.38 707.21,-57.42 717.64,-59.29 716.53,-52.38"/>
</g>
<!-- Node223&#45;&gt;Node87 -->
<g id="edge33" class="edge">
<title>Node223&#45;&gt;Node87</title>
<path fill="none" stroke="midnightblue" d="M50.54,-102.69C46.83,-93.59 42.52,-83.01 39.57,-75.75"/>
<polygon fill="midnightblue" stroke="midnightblue" points="47.35,-104.14 54.37,-112.08 53.84,-101.5 47.35,-104.14"/>
</g>
<!-- Node160&#45;&gt;Node5 -->
<g id="edge59" class="edge">
<title>Node160&#45;&gt;Node5</title>
<path fill="none" stroke="midnightblue" d="M228.55,-108.64C203.59,-98.5 168.92,-84.43 146.98,-75.52"/>
<polygon fill="midnightblue" stroke="midnightblue" points="227.34,-111.92 237.93,-112.44 229.98,-105.44 227.34,-111.92"/>
</g>
<!-- Node160&#45;&gt;Node6 -->
<g id="edge60" class="edge">
<title>Node160&#45;&gt;Node6</title>
<path fill="none" stroke="midnightblue" d="M259,-101.8C259,-92.91 259,-82.78 259,-75.75"/>
<polygon fill="midnightblue" stroke="midnightblue" points="255.5,-102.08 259,-112.08 262.5,-102.08 255.5,-102.08"/>
</g>
<!-- Node160&#45;&gt;Node15 -->
<g id="edge61" class="edge">
<title>Node160&#45;&gt;Node15</title>
<path fill="none" stroke="midnightblue" d="M291.92,-108.91C319.56,-98.75 358.34,-84.51 382.82,-75.52"/>
<polygon fill="midnightblue" stroke="midnightblue" points="290.47,-105.71 282.29,-112.44 292.89,-112.28 290.47,-105.71"/>
</g>
<!-- Node160&#45;&gt;Node87 -->
<g id="edge62" class="edge">
<title>Node160&#45;&gt;Node87</title>
<path fill="none" stroke="midnightblue" d="M225.92,-113.26C188.34,-104.42 125.19,-89.45 71,-76 68.32,-75.33 65.53,-74.63 62.74,-73.93"/>
<polygon fill="midnightblue" stroke="midnightblue" points="225.28,-116.7 235.82,-115.58 226.88,-109.89 225.28,-116.7"/>
</g>
<!-- Node241&#45;&gt;Node7 -->
<g id="edge64" class="edge">
<title>Node241&#45;&gt;Node7</title>
<path fill="none" stroke="midnightblue" d="M559.32,-102.98C554.4,-93.82 548.64,-83.09 544.7,-75.75"/>
<polygon fill="midnightblue" stroke="midnightblue" points="556.4,-104.93 564.21,-112.08 562.56,-101.62 556.4,-104.93"/>
</g>
</g>
</svg>
