<?xml version="1.0" encoding="UTF-8" standalone="no"?>
<!DOCTYPE svg PUBLIC "-//W3C//DTD SVG 1.1//EN"
 "http://www.w3.org/Graphics/SVG/1.1/DTD/svg11.dtd">
<!-- Generated by graphviz version 2.43.0 (0)
 -->
<!-- Title: ScratchField.H Pages: 1 -->
<svg width="3909pt" height="196pt"
 viewBox="0.00 0.00 3909.00 196.00" xmlns="http://www.w3.org/2000/svg" xmlns:xlink="http://www.w3.org/1999/xlink">
<g id="graph0" class="graph" transform="scale(1 1) rotate(0) translate(4 192)">
<title>ScratchField.H</title>
<polygon fill="white" stroke="transparent" points="-4,4 -4,-192 3905,-192 3905,4 -4,4"/>
<!-- Node1 -->
<g id="node1" class="node">
<title>Node1</title>
<g id="a_node1"><a xlink:title=" ">
<polygon fill="#bfbfbf" stroke="black" points="113,-168.5 113,-187.5 199,-187.5 199,-168.5 113,-168.5"/>
<text text-anchor="middle" x="156" y="-175.5" font-family="Helvetica,sans-Serif" font-size="10.00">ScratchField.H</text>
</a>
</g>
</g>
<!-- Node2 -->
<g id="node2" class="node">
<title>Node2</title>
<g id="a_node2"><a xlink:href="_field_repo_8_h.html" target="_top" xlink:title=" ">
<polygon fill="white" stroke="red" points="1749.5,-112.5 1749.5,-131.5 1824.5,-131.5 1824.5,-112.5 1749.5,-112.5"/>
<text text-anchor="middle" x="1787" y="-119.5" font-family="Helvetica,sans-Serif" font-size="10.00">FieldRepo.H</text>
</a>
</g>
</g>
<!-- Node1&#45;&gt;Node2 -->
<g id="edge1" class="edge">
<title>Node1&#45;&gt;Node2</title>
<path fill="none" stroke="midnightblue" d="M209.22,-175.24C461.61,-166.88 1534.56,-131.36 1749.45,-124.24"/>
<polygon fill="midnightblue" stroke="midnightblue" points="209.08,-171.74 199.21,-175.57 209.32,-178.74 209.08,-171.74"/>
</g>
<!-- Node237 -->
<g id="node20" class="node">
<title>Node237</title>
<g id="a_node20"><a xlink:href="_scratch_field_8cpp.html" target="_top" xlink:title=" ">
<polygon fill="white" stroke="black" points="0,-56.5 0,-75.5 96,-75.5 96,-56.5 0,-56.5"/>
<text text-anchor="middle" x="48" y="-63.5" font-family="Helvetica,sans-Serif" font-size="10.00">ScratchField.cpp</text>
</a>
</g>
</g>
<!-- Node1&#45;&gt;Node237 -->
<g id="edge69" class="edge">
<title>Node1&#45;&gt;Node237</title>
<path fill="none" stroke="midnightblue" d="M140.49,-161.21C117.34,-137.63 74.54,-94.03 56.44,-75.59"/>
<polygon fill="midnightblue" stroke="midnightblue" points="138.02,-163.68 147.53,-168.37 143.02,-158.78 138.02,-163.68"/>
</g>
<!-- Node238 -->
<g id="node21" class="node">
<title>Node238</title>
<g id="a_node21"><a xlink:href="_view_field_8cpp.html" target="_top" xlink:title=" ">
<polygon fill="white" stroke="black" points="114,-56.5 114,-75.5 198,-75.5 198,-56.5 114,-56.5"/>
<text text-anchor="middle" x="156" y="-63.5" font-family="Helvetica,sans-Serif" font-size="10.00">ViewField.cpp</text>
</a>
</g>
</g>
<!-- Node1&#45;&gt;Node238 -->
<g id="edge70" class="edge">
<title>Node1&#45;&gt;Node238</title>
<path fill="none" stroke="midnightblue" d="M156,-158.35C156,-134.25 156,-93.31 156,-75.59"/>
<polygon fill="midnightblue" stroke="midnightblue" points="152.5,-158.37 156,-168.37 159.5,-158.37 152.5,-158.37"/>
</g>
<!-- Node3 -->
<g id="node3" class="node">
<title>Node3</title>
<g id="a_node3"><a xlink:href="_b_c_interface_8cpp.html" target="_top" xlink:title=" ">
<polygon fill="white" stroke="black" points="3759,-0.5 3759,-19.5 3853,-19.5 3853,-0.5 3759,-0.5"/>
<text text-anchor="middle" x="3806" y="-7.5" font-family="Helvetica,sans-Serif" font-size="10.00">BCInterface.cpp</text>
</a>
</g>
</g>
<!-- Node2&#45;&gt;Node3 -->
<g id="edge2" class="edge">
<title>Node2&#45;&gt;Node3</title>
<path fill="none" stroke="midnightblue" d="M1834.88,-120.96C2126.66,-120.55 3656.28,-116.52 3746,-76 3772.31,-64.12 3792.34,-34.63 3801.12,-19.81"/>
<polygon fill="midnightblue" stroke="midnightblue" points="1834.63,-117.46 1824.63,-120.97 1834.63,-124.46 1834.63,-117.46"/>
</g>
<!-- Node4 -->
<g id="node4" class="node">
<title>Node4</title>
<g id="a_node4"><a xlink:href="_fixed_gradient_b_c_8_h.html" target="_top" xlink:title=" ">
<polygon fill="white" stroke="red" points="3793,-56.5 3793,-75.5 3901,-75.5 3901,-56.5 3793,-56.5"/>
<text text-anchor="middle" x="3847" y="-63.5" font-family="Helvetica,sans-Serif" font-size="10.00">FixedGradientBC.H</text>
</a>
</g>
</g>
<!-- Node2&#45;&gt;Node4 -->
<g id="edge3" class="edge">
<title>Node2&#45;&gt;Node4</title>
<path fill="none" stroke="midnightblue" d="M1834.54,-120.63C2098.24,-118.47 3383.56,-106.54 3779,-76 3783.51,-75.65 3788.18,-75.21 3792.87,-74.71"/>
<polygon fill="midnightblue" stroke="midnightblue" points="1834.5,-117.13 1824.53,-120.71 1834.55,-124.13 1834.5,-117.13"/>
</g>
<!-- Node6 -->
<g id="node5" class="node">
<title>Node6</title>
<g id="a_node5"><a xlink:href="velocity__bcs_8_h.html" target="_top" xlink:title=" ">
<polygon fill="white" stroke="red" points="216,-56.5 216,-75.5 304,-75.5 304,-56.5 216,-56.5"/>
<text text-anchor="middle" x="260" y="-63.5" font-family="Helvetica,sans-Serif" font-size="10.00">velocity_bcs.H</text>
</a>
</g>
</g>
<!-- Node2&#45;&gt;Node6 -->
<g id="edge5" class="edge">
<title>Node2&#45;&gt;Node6</title>
<path fill="none" stroke="midnightblue" d="M1738.92,-120.33C1518.5,-117.11 603.28,-102.4 318,-76 313.54,-75.59 308.89,-75.05 304.26,-74.44"/>
<polygon fill="midnightblue" stroke="midnightblue" points="1739.13,-123.83 1749.18,-120.47 1739.23,-116.83 1739.13,-123.83"/>
</g>
<!-- Node9 -->
<g id="node6" class="node">
<title>Node9</title>
<g id="a_node6"><a xlink:href="_c_f_d_sim_8_h.html" target="_top" xlink:title=" ">
<polygon fill="white" stroke="red" points="632,-56.5 632,-75.5 698,-75.5 698,-56.5 632,-56.5"/>
<text text-anchor="middle" x="665" y="-63.5" font-family="Helvetica,sans-Serif" font-size="10.00">CFDSim.H</text>
</a>
</g>
</g>
<!-- Node2&#45;&gt;Node9 -->
<g id="edge6" class="edge">
<title>Node2&#45;&gt;Node9</title>
<path fill="none" stroke="midnightblue" d="M1738.9,-121.5C1587.37,-122.56 1106.57,-121.78 712,-76 707.46,-75.47 702.7,-74.76 698.03,-73.96"/>
<polygon fill="midnightblue" stroke="midnightblue" points="1739.26,-125 1749.23,-121.43 1739.21,-118 1739.26,-125"/>
</g>
<!-- Node57 -->
<g id="node7" class="node">
<title>Node57</title>
<g id="a_node7"><a xlink:href="_p_d_e_base_8cpp.html" target="_top" xlink:title=" ">
<polygon fill="white" stroke="black" points="316,-0.5 316,-19.5 396,-19.5 396,-0.5 316,-0.5"/>
<text text-anchor="middle" x="356" y="-7.5" font-family="Helvetica,sans-Serif" font-size="10.00">PDEBase.cpp</text>
</a>
</g>
</g>
<!-- Node2&#45;&gt;Node57 -->
<g id="edge39" class="edge">
<title>Node2&#45;&gt;Node57</title>
<path fill="none" stroke="midnightblue" d="M1739.23,-120.41C1492.8,-117.24 375.71,-101.49 351,-76 336.35,-60.88 345.63,-33.42 351.8,-19.53"/>
<polygon fill="midnightblue" stroke="midnightblue" points="1739.26,-123.91 1749.31,-120.54 1739.35,-116.91 1739.26,-123.91"/>
</g>
<!-- Node73 -->
<g id="node8" class="node">
<title>Node73</title>
<g id="a_node8"><a xlink:href="_i_b_8cpp.html" target="_top" xlink:title=" ">
<polygon fill="white" stroke="black" points="414.5,-0.5 414.5,-19.5 461.5,-19.5 461.5,-0.5 414.5,-0.5"/>
<text text-anchor="middle" x="438" y="-7.5" font-family="Helvetica,sans-Serif" font-size="10.00">IB.cpp</text>
</a>
</g>
</g>
<!-- Node2&#45;&gt;Node73 -->
<g id="edge48" class="edge">
<title>Node2&#45;&gt;Node73</title>
<path fill="none" stroke="midnightblue" d="M1739.13,-120.44C1511.56,-117.66 547.89,-104.24 491,-76 466.48,-63.83 449.39,-34.48 442.04,-19.75"/>
<polygon fill="midnightblue" stroke="midnightblue" points="1739.36,-123.95 1749.4,-120.57 1739.44,-116.95 1739.36,-123.95"/>
</g>
<!-- Node84 -->
<g id="node9" class="node">
<title>Node84</title>
<g id="a_node9"><a xlink:href="incflo_8_h.html" target="_top" xlink:title=" ">
<polygon fill="white" stroke="red" points="479.5,-0.5 479.5,-19.5 532.5,-19.5 532.5,-0.5 479.5,-0.5"/>
<text text-anchor="middle" x="506" y="-7.5" font-family="Helvetica,sans-Serif" font-size="10.00">incflo.H</text>
</a>
</g>
</g>
<!-- Node2&#45;&gt;Node84 -->
<g id="edge51" class="edge">
<title>Node2&#45;&gt;Node84</title>
<path fill="none" stroke="midnightblue" d="M1738.96,-120.68C1531.14,-119.07 715.09,-110.61 606,-76 568.7,-64.16 531.97,-34.38 515.3,-19.59"/>
<polygon fill="midnightblue" stroke="midnightblue" points="1739.21,-124.18 1749.24,-120.75 1739.27,-117.18 1739.21,-124.18"/>
</g>
<!-- Node96 -->
<g id="node10" class="node">
<title>Node96</title>
<g id="a_node10"><a xlink:href="_ocean_waves_8cpp.html" target="_top" xlink:title=" ">
<polygon fill="white" stroke="black" points="900,-0.5 900,-19.5 1000,-19.5 1000,-0.5 900,-0.5"/>
<text text-anchor="middle" x="950" y="-7.5" font-family="Helvetica,sans-Serif" font-size="10.00">OceanWaves.cpp</text>
</a>
</g>
</g>
<!-- Node2&#45;&gt;Node96 -->
<g id="edge52" class="edge">
<title>Node2&#45;&gt;Node96</title>
<path fill="none" stroke="midnightblue" d="M1739.11,-120.58C1548.57,-118.7 853,-109.52 821,-76 792.86,-46.52 852.42,-28.28 899.69,-18.88"/>
<polygon fill="midnightblue" stroke="midnightblue" points="1739.34,-124.09 1749.37,-120.68 1739.4,-117.09 1739.34,-124.09"/>
</g>
<!-- Node105 -->
<g id="node11" class="node">
<title>Node105</title>
<g id="a_node11"><a xlink:href="_tioga_interface_8cpp.html" target="_top" xlink:title=" ">
<polygon fill="white" stroke="black" points="550.5,-0.5 550.5,-19.5 657.5,-19.5 657.5,-0.5 550.5,-0.5"/>
<text text-anchor="middle" x="604" y="-7.5" font-family="Helvetica,sans-Serif" font-size="10.00">TiogaInterface.cpp</text>
</a>
</g>
</g>
<!-- Node2&#45;&gt;Node105 -->
<g id="edge57" class="edge">
<title>Node2&#45;&gt;Node105</title>
<path fill="none" stroke="midnightblue" d="M1738.99,-120.7C1525.11,-119.16 667.64,-110.83 623,-76 605.76,-62.55 603.54,-34.33 603.62,-19.9"/>
<polygon fill="midnightblue" stroke="midnightblue" points="1739.24,-124.2 1749.26,-120.77 1739.29,-117.2 1739.24,-124.2"/>
</g>
<!-- Node135 -->
<g id="node12" class="node">
<title>Node135</title>
<g id="a_node12"><a xlink:href="_vortex_ring_8cpp.html" target="_top" xlink:title=" ">
<polygon fill="white" stroke="black" points="676,-0.5 676,-19.5 766,-19.5 766,-0.5 676,-0.5"/>
<text text-anchor="middle" x="721" y="-7.5" font-family="Helvetica,sans-Serif" font-size="10.00">VortexRing.cpp</text>
</a>
</g>
</g>
<!-- Node2&#45;&gt;Node135 -->
<g id="edge64" class="edge">
<title>Node2&#45;&gt;Node135</title>
<path fill="none" stroke="midnightblue" d="M1739.16,-120.57C1553.83,-118.67 889.07,-109.55 801,-76 769.56,-64.02 741.15,-34.58 728.28,-19.79"/>
<polygon fill="midnightblue" stroke="midnightblue" points="1739.37,-124.07 1749.41,-120.67 1739.44,-117.07 1739.37,-124.07"/>
</g>
<!-- Node148 -->
<g id="node13" class="node">
<title>Node148</title>
<g id="a_node13"><a xlink:href="_re_averaging_8cpp.html" target="_top" xlink:title=" ">
<polygon fill="white" stroke="black" points="784,-0.5 784,-19.5 882,-19.5 882,-0.5 784,-0.5"/>
<text text-anchor="middle" x="833" y="-7.5" font-family="Helvetica,sans-Serif" font-size="10.00">ReAveraging.cpp</text>
</a>
</g>
</g>
<!-- Node2&#45;&gt;Node148 -->
<g id="edge68" class="edge">
<title>Node2&#45;&gt;Node148</title>
<path fill="none" stroke="midnightblue" d="M1739.17,-120.61C1547.34,-118.82 842.4,-109.93 810,-76 794.79,-60.07 813.33,-33.46 824.96,-19.75"/>
<polygon fill="midnightblue" stroke="midnightblue" points="1739.2,-124.11 1749.23,-120.7 1739.27,-117.11 1739.2,-124.11"/>
</g>
<!-- Node226 -->
<g id="node14" class="node">
<title>Node226</title>
<g id="a_node14"><a xlink:href="_godunov_8_h.html" target="_top" xlink:title=" ">
<polygon fill="white" stroke="red" points="976,-56.5 976,-75.5 1046,-75.5 1046,-56.5 976,-56.5"/>
<text text-anchor="middle" x="1011" y="-63.5" font-family="Helvetica,sans-Serif" font-size="10.00">Godunov.H</text>
</a>
</g>
</g>
<!-- Node2&#45;&gt;Node226 -->
<g id="edge14" class="edge">
<title>Node2&#45;&gt;Node226</title>
<path fill="none" stroke="midnightblue" d="M1739.44,-120.38C1622.48,-118.37 1311.69,-109.97 1055,-76 1052.22,-75.63 1049.35,-75.19 1046.47,-74.7"/>
<polygon fill="midnightblue" stroke="midnightblue" points="1739.44,-123.88 1749.49,-120.55 1739.55,-116.88 1739.44,-123.88"/>
</g>
<!-- Node231 -->
<g id="node15" class="node">
<title>Node231</title>
<g id="a_node15"><a xlink:href="_m_o_l_8_h.html" target="_top" xlink:title=" ">
<polygon fill="white" stroke="red" points="1064.5,-56.5 1064.5,-75.5 1113.5,-75.5 1113.5,-56.5 1064.5,-56.5"/>
<text text-anchor="middle" x="1089" y="-63.5" font-family="Helvetica,sans-Serif" font-size="10.00">MOL.H</text>
</a>
</g>
</g>
<!-- Node2&#45;&gt;Node231 -->
<g id="edge15" class="edge">
<title>Node2&#45;&gt;Node231</title>
<path fill="none" stroke="midnightblue" d="M1739.19,-120.88C1629.5,-119.93 1351.62,-113.65 1123,-76 1119.99,-75.5 1116.85,-74.86 1113.76,-74.14"/>
<polygon fill="midnightblue" stroke="midnightblue" points="1739.24,-124.38 1749.27,-120.96 1739.3,-117.38 1739.24,-124.38"/>
</g>
<!-- Node233 -->
<g id="node16" class="node">
<title>Node233</title>
<g id="a_node16"><a xlink:href="_field_8cpp.html" target="_top" xlink:title=" ">
<polygon fill="white" stroke="black" points="1132,-56.5 1132,-75.5 1192,-75.5 1192,-56.5 1132,-56.5"/>
<text text-anchor="middle" x="1162" y="-63.5" font-family="Helvetica,sans-Serif" font-size="10.00">Field.cpp</text>
</a>
</g>
</g>
<!-- Node2&#45;&gt;Node233 -->
<g id="edge16" class="edge">
<title>Node2&#45;&gt;Node233</title>
<path fill="none" stroke="midnightblue" d="M1739.31,-119.76C1639.08,-116.63 1399.49,-106.35 1201,-76 1198.12,-75.56 1195.13,-75.02 1192.15,-74.43"/>
<polygon fill="midnightblue" stroke="midnightblue" points="1739.31,-123.26 1749.41,-120.07 1739.52,-116.27 1739.31,-123.26"/>
</g>
<!-- Node234 -->
<g id="node17" class="node">
<title>Node234</title>
<g id="a_node17"><a xlink:href="_field_repo_8cpp.html" target="_top" xlink:title=" ">
<polygon fill="white" stroke="black" points="1210.5,-56.5 1210.5,-75.5 1295.5,-75.5 1295.5,-56.5 1210.5,-56.5"/>
<text text-anchor="middle" x="1253" y="-63.5" font-family="Helvetica,sans-Serif" font-size="10.00">FieldRepo.cpp</text>
</a>
</g>
</g>
<!-- Node2&#45;&gt;Node234 -->
<g id="edge17" class="edge">
<title>Node2&#45;&gt;Node234</title>
<path fill="none" stroke="midnightblue" d="M1739.23,-117.85C1652.36,-111.83 1462.8,-97.37 1304,-76 1301.24,-75.63 1298.4,-75.21 1295.54,-74.77"/>
<polygon fill="midnightblue" stroke="midnightblue" points="1739.09,-121.35 1749.3,-118.54 1739.57,-114.37 1739.09,-121.35"/>
</g>
<!-- Node235 -->
<g id="node18" class="node">
<title>Node235</title>
<g id="a_node18"><a xlink:href="_int_field_8cpp.html" target="_top" xlink:title=" ">
<polygon fill="white" stroke="black" points="1313.5,-56.5 1313.5,-75.5 1386.5,-75.5 1386.5,-56.5 1313.5,-56.5"/>
<text text-anchor="middle" x="1350" y="-63.5" font-family="Helvetica,sans-Serif" font-size="10.00">IntField.cpp</text>
</a>
</g>
</g>
<!-- Node2&#45;&gt;Node235 -->
<g id="edge18" class="edge">
<title>Node2&#45;&gt;Node235</title>
<path fill="none" stroke="midnightblue" d="M1738.89,-116.78C1664.79,-109.98 1518.36,-95.38 1395,-76 1392.32,-75.58 1389.57,-75.11 1386.79,-74.62"/>
<polygon fill="midnightblue" stroke="midnightblue" points="1739.02,-120.3 1749.29,-117.72 1739.65,-113.33 1739.02,-120.3"/>
</g>
<!-- Node236 -->
<g id="node19" class="node">
<title>Node236</title>
<g id="a_node19"><a xlink:href="_int_scratch_field_8cpp.html" target="_top" xlink:title=" ">
<polygon fill="white" stroke="black" points="1404.5,-56.5 1404.5,-75.5 1513.5,-75.5 1513.5,-56.5 1404.5,-56.5"/>
<text text-anchor="middle" x="1459" y="-63.5" font-family="Helvetica,sans-Serif" font-size="10.00">IntScratchField.cpp</text>
</a>
</g>
</g>
<!-- Node2&#45;&gt;Node236 -->
<g id="edge19" class="edge">
<title>Node2&#45;&gt;Node236</title>
<path fill="none" stroke="midnightblue" d="M1739.26,-113.14C1678.37,-103.12 1573.43,-85.84 1510.7,-75.51"/>
<polygon fill="midnightblue" stroke="midnightblue" points="1738.94,-116.63 1749.37,-114.81 1740.08,-109.73 1738.94,-116.63"/>
</g>
<!-- Node2&#45;&gt;Node237 -->
<g id="edge20" class="edge">
<title>Node2&#45;&gt;Node237</title>
<path fill="none" stroke="midnightblue" d="M1739.07,-120.56C1500,-118.23 434.8,-106.32 105,-76 102.11,-75.73 99.14,-75.41 96.15,-75.05"/>
<polygon fill="midnightblue" stroke="midnightblue" points="1739.15,-124.06 1749.18,-120.66 1739.22,-117.06 1739.15,-124.06"/>
</g>
<!-- Node2&#45;&gt;Node238 -->
<g id="edge21" class="edge">
<title>Node2&#45;&gt;Node238</title>
<path fill="none" stroke="midnightblue" d="M1739.41,-120.58C1509.83,-118.43 515.36,-107.43 207,-76 204.14,-75.71 201.19,-75.35 198.23,-74.94"/>
<polygon fill="midnightblue" stroke="midnightblue" points="1739.41,-124.08 1749.44,-120.68 1739.48,-117.08 1739.41,-124.08"/>
</g>
<!-- Node239 -->
<g id="node22" class="node">
<title>Node239</title>
<g id="a_node22"><a xlink:href="field__algebra_8cpp.html" target="_top" xlink:title=" ">
<polygon fill="white" stroke="black" points="1532,-56.5 1532,-75.5 1632,-75.5 1632,-56.5 1532,-56.5"/>
<text text-anchor="middle" x="1582" y="-63.5" font-family="Helvetica,sans-Serif" font-size="10.00">field_algebra.cpp</text>
</a>
</g>
</g>
<!-- Node2&#45;&gt;Node239 -->
<g id="edge22" class="edge">
<title>Node2&#45;&gt;Node239</title>
<path fill="none" stroke="midnightblue" d="M1744.59,-109.83C1705.89,-99.63 1649.51,-84.78 1614.33,-75.52"/>
<polygon fill="midnightblue" stroke="midnightblue" points="1743.96,-113.28 1754.52,-112.44 1745.74,-106.51 1743.96,-113.28"/>
</g>
<!-- Node240 -->
<g id="node23" class="node">
<title>Node240</title>
<g id="a_node23"><a xlink:href="diffusion_8_h.html" target="_top" xlink:title=" ">
<polygon fill="white" stroke="red" points="1650.5,-56.5 1650.5,-75.5 1719.5,-75.5 1719.5,-56.5 1650.5,-56.5"/>
<text text-anchor="middle" x="1685" y="-63.5" font-family="Helvetica,sans-Serif" font-size="10.00">diffusion.H</text>
</a>
</g>
</g>
<!-- Node2&#45;&gt;Node240 -->
<g id="edge23" class="edge">
<title>Node2&#45;&gt;Node240</title>
<path fill="none" stroke="midnightblue" d="M1761.67,-107.59C1742.81,-97.61 1717.62,-84.27 1701.35,-75.65"/>
<polygon fill="midnightblue" stroke="midnightblue" points="1760.14,-110.74 1770.61,-112.32 1763.41,-104.55 1760.14,-110.74"/>
</g>
<!-- Node241 -->
<g id="node24" class="node">
<title>Node241</title>
<g id="a_node24"><a xlink:href="_density_source_8_h.html" target="_top" xlink:title=" ">
<polygon fill="white" stroke="red" points="1738,-56.5 1738,-75.5 1836,-75.5 1836,-56.5 1738,-56.5"/>
<text text-anchor="middle" x="1787" y="-63.5" font-family="Helvetica,sans-Serif" font-size="10.00">DensitySource.H</text>
</a>
</g>
</g>
<!-- Node2&#45;&gt;Node241 -->
<g id="edge24" class="edge">
<title>Node2&#45;&gt;Node241</title>
<path fill="none" stroke="midnightblue" d="M1787,-101.8C1787,-92.91 1787,-82.78 1787,-75.75"/>
<polygon fill="midnightblue" stroke="midnightblue" points="1783.5,-102.08 1787,-112.08 1790.5,-102.08 1783.5,-102.08"/>
</g>
<!-- Node242 -->
<g id="node25" class="node">
<title>Node242</title>
<g id="a_node25"><a xlink:href="_momentum_source_8_h.html" target="_top" xlink:title=" ">
<polygon fill="white" stroke="red" points="2006,-56.5 2006,-75.5 2122,-75.5 2122,-56.5 2006,-56.5"/>
<text text-anchor="middle" x="2064" y="-63.5" font-family="Helvetica,sans-Serif" font-size="10.00">MomentumSource.H</text>
</a>
</g>
</g>
<!-- Node2&#45;&gt;Node242 -->
<g id="edge25" class="edge">
<title>Node2&#45;&gt;Node242</title>
<path fill="none" stroke="midnightblue" d="M1834.63,-111.71C1886.71,-101.56 1969.46,-85.43 2020.04,-75.57"/>
<polygon fill="midnightblue" stroke="midnightblue" points="1833.79,-108.31 1824.65,-113.66 1835.13,-115.18 1833.79,-108.31"/>
</g>
<!-- Node157 -->
<g id="node26" class="node">
<title>Node157</title>
<g id="a_node26"><a xlink:href="_a_b_l_mean_boussinesq_8_h.html" target="_top" xlink:title=" ">
<polygon fill="white" stroke="red" points="1579,-0.5 1579,-19.5 1707,-19.5 1707,-0.5 1579,-0.5"/>
<text text-anchor="middle" x="1643" y="-7.5" font-family="Helvetica,sans-Serif" font-size="10.00">ABLMeanBoussinesq.H</text>
</a>
</g>
</g>
<!-- Node2&#45;&gt;Node157 -->
<g id="edge33" class="edge">
<title>Node2&#45;&gt;Node157</title>
<path fill="none" stroke="midnightblue" d="M1813.5,-107.36C1835.07,-94.45 1859.73,-74.38 1845,-56 1835.69,-44.38 1753.75,-28.95 1697.14,-19.5"/>
<polygon fill="midnightblue" stroke="midnightblue" points="1811.53,-104.45 1804.56,-112.42 1814.99,-110.54 1811.53,-104.45"/>
</g>
<!-- Node246 -->
<g id="node27" class="node">
<title>Node246</title>
<g id="a_node27"><a xlink:href="_boussinesq_buoyancy_8_h.html" target="_top" xlink:title=" ">
<polygon fill="white" stroke="red" points="1725.5,-0.5 1725.5,-19.5 1854.5,-19.5 1854.5,-0.5 1725.5,-0.5"/>
<text text-anchor="middle" x="1790" y="-7.5" font-family="Helvetica,sans-Serif" font-size="10.00">BoussinesqBuoyancy.H</text>
</a>
</g>
</g>
<!-- Node2&#45;&gt;Node246 -->
<g id="edge34" class="edge">
<title>Node2&#45;&gt;Node246</title>
<path fill="none" stroke="midnightblue" d="M1834.28,-108.97C1851.07,-102.18 1868.21,-91.77 1878,-76 1894.63,-49.22 1852.7,-29.84 1821.15,-19.52"/>
<polygon fill="midnightblue" stroke="midnightblue" points="1832.68,-105.83 1824.5,-112.57 1835.1,-112.4 1832.68,-105.83"/>
</g>
<!-- Node248 -->
<g id="node28" class="node">
<title>Node248</title>
<g id="a_node28"><a xlink:href="_coriolis_forcing_8_h.html" target="_top" xlink:title=" ">
<polygon fill="white" stroke="red" points="1872.5,-0.5 1872.5,-19.5 1971.5,-19.5 1971.5,-0.5 1872.5,-0.5"/>
<text text-anchor="middle" x="1922" y="-7.5" font-family="Helvetica,sans-Serif" font-size="10.00">CoriolisForcing.H</text>
</a>
</g>
</g>
<!-- Node2&#45;&gt;Node248 -->
<g id="edge35" class="edge">
<title>Node2&#45;&gt;Node248</title>
<path fill="none" stroke="midnightblue" d="M1834.49,-109.65C1854.91,-102.76 1877.77,-92.09 1894,-76 1910.06,-60.08 1917.5,-33.47 1920.41,-19.76"/>
<polygon fill="midnightblue" stroke="midnightblue" points="1833.18,-106.39 1824.7,-112.74 1835.29,-113.07 1833.18,-106.39"/>
</g>
<!-- Node249 -->
<g id="node29" class="node">
<title>Node249</title>
<g id="a_node29"><a xlink:href="_density_buoyancy_8_h.html" target="_top" xlink:title=" ">
<polygon fill="white" stroke="red" points="1989.5,-0.5 1989.5,-19.5 2100.5,-19.5 2100.5,-0.5 1989.5,-0.5"/>
<text text-anchor="middle" x="2045" y="-7.5" font-family="Helvetica,sans-Serif" font-size="10.00">DensityBuoyancy.H</text>
</a>
</g>
</g>
<!-- Node2&#45;&gt;Node249 -->
<g id="edge36" class="edge">
<title>Node2&#45;&gt;Node249</title>
<path fill="none" stroke="midnightblue" d="M1824.1,-109.33C1849.91,-100.88 1884.94,-88.74 1915,-76 1957.28,-58.08 2005.15,-32.79 2029.29,-19.66"/>
<polygon fill="midnightblue" stroke="midnightblue" points="1822.78,-106.08 1814.35,-112.49 1824.94,-112.73 1822.78,-106.08"/>
</g>
<!-- Node251 -->
<g id="node30" class="node">
<title>Node251</title>
<g id="a_node30"><a xlink:href="_gravity_forcing_8_h.html" target="_top" xlink:title=" ">
<polygon fill="white" stroke="red" points="2119,-0.5 2119,-19.5 2217,-19.5 2217,-0.5 2119,-0.5"/>
<text text-anchor="middle" x="2168" y="-7.5" font-family="Helvetica,sans-Serif" font-size="10.00">GravityForcing.H</text>
</a>
</g>
</g>
<!-- Node2&#45;&gt;Node251 -->
<g id="edge37" class="edge">
<title>Node2&#45;&gt;Node251</title>
<path fill="none" stroke="midnightblue" d="M1834.81,-119.92C1917.65,-117.21 2083.6,-107.85 2131,-76 2151.05,-62.53 2161.49,-34.32 2165.71,-19.9"/>
<polygon fill="midnightblue" stroke="midnightblue" points="1834.54,-116.42 1824.65,-120.23 1834.75,-123.42 1834.54,-116.42"/>
</g>
<!-- Node158 -->
<g id="node31" class="node">
<title>Node158</title>
<g id="a_node31"><a xlink:href="_hurricane_forcing_8_h.html" target="_top" xlink:title=" ">
<polygon fill="white" stroke="red" points="2235,-0.5 2235,-19.5 2345,-19.5 2345,-0.5 2235,-0.5"/>
<text text-anchor="middle" x="2290" y="-7.5" font-family="Helvetica,sans-Serif" font-size="10.00">HurricaneForcing.H</text>
</a>
</g>
</g>
<!-- Node2&#45;&gt;Node158 -->
<g id="edge38" class="edge">
<title>Node2&#45;&gt;Node158</title>
<path fill="none" stroke="midnightblue" d="M1835.07,-119.97C1905.98,-117.36 2042.19,-108.19 2153,-76 2200.28,-62.27 2251.59,-33.92 2275.81,-19.63"/>
<polygon fill="midnightblue" stroke="midnightblue" points="1834.55,-116.48 1824.68,-120.32 1834.79,-123.48 1834.55,-116.48"/>
</g>
<!-- Node254 -->
<g id="node32" class="node">
<title>Node254</title>
<g id="a_node32"><a xlink:href="_m_m_s_forcing_8_h.html" target="_top" xlink:title=" ">
<polygon fill="white" stroke="red" points="2363,-0.5 2363,-19.5 2449,-19.5 2449,-0.5 2363,-0.5"/>
<text text-anchor="middle" x="2406" y="-7.5" font-family="Helvetica,sans-Serif" font-size="10.00">MMSForcing.H</text>
</a>
</g>
</g>
<!-- Node2&#45;&gt;Node254 -->
<g id="edge58" class="edge">
<title>Node2&#45;&gt;Node254</title>
<path fill="none" stroke="midnightblue" d="M1834.94,-119.54C1911.43,-116.36 2065.37,-106.42 2192,-76 2216.48,-70.12 2221.08,-63.84 2245,-56 2288.44,-41.76 2339.37,-28.01 2372.13,-19.54"/>
<polygon fill="midnightblue" stroke="midnightblue" points="1834.52,-116.06 1824.67,-119.95 1834.8,-123.05 1834.52,-116.06"/>
</g>
<!-- Node255 -->
<g id="node33" class="node">
<title>Node255</title>
<g id="a_node33"><a xlink:href="_p_d_e_helpers_8_h.html" target="_top" xlink:title=" ">
<polygon fill="white" stroke="red" points="360,-56.5 360,-75.5 444,-75.5 444,-56.5 360,-56.5"/>
<text text-anchor="middle" x="402" y="-63.5" font-family="Helvetica,sans-Serif" font-size="10.00">PDEHelpers.H</text>
</a>
</g>
</g>
<!-- Node2&#45;&gt;Node255 -->
<g id="edge40" class="edge">
<title>Node2&#45;&gt;Node255</title>
<path fill="none" stroke="midnightblue" d="M1739.21,-120.19C1532.49,-116.55 714.21,-100.83 458,-76 453.49,-75.56 448.8,-74.99 444.12,-74.35"/>
<polygon fill="midnightblue" stroke="midnightblue" points="1739.37,-123.69 1749.43,-120.37 1739.49,-116.69 1739.37,-123.69"/>
</g>
<!-- Node256 -->
<g id="node34" class="node">
<title>Node256</title>
<g id="a_node34"><a xlink:href="_s_d_r_source_8_h.html" target="_top" xlink:title=" ">
<polygon fill="white" stroke="red" points="2254,-56.5 2254,-75.5 2334,-75.5 2334,-56.5 2254,-56.5"/>
<text text-anchor="middle" x="2294" y="-63.5" font-family="Helvetica,sans-Serif" font-size="10.00">SDRSource.H</text>
</a>
</g>
</g>
<!-- Node2&#45;&gt;Node256 -->
<g id="edge42" class="edge">
<title>Node2&#45;&gt;Node256</title>
<path fill="none" stroke="midnightblue" d="M1834.78,-117.3C1917.52,-110.66 2092.74,-95.56 2240,-76 2244.52,-75.4 2249.25,-74.71 2253.94,-73.98"/>
<polygon fill="midnightblue" stroke="midnightblue" points="1834.37,-113.82 1824.68,-118.1 1834.93,-120.8 1834.37,-113.82"/>
</g>
<!-- Node258 -->
<g id="node35" class="node">
<title>Node258</title>
<g id="a_node35"><a xlink:href="_source_term_8_h.html" target="_top" xlink:title=" ">
<polygon fill="white" stroke="red" points="2352,-56.5 2352,-75.5 2436,-75.5 2436,-56.5 2352,-56.5"/>
<text text-anchor="middle" x="2394" y="-63.5" font-family="Helvetica,sans-Serif" font-size="10.00">SourceTerm.H</text>
</a>
</g>
</g>
<!-- Node2&#45;&gt;Node258 -->
<g id="edge43" class="edge">
<title>Node2&#45;&gt;Node258</title>
<path fill="none" stroke="midnightblue" d="M1834.55,-118.66C1930.82,-113.59 2155.56,-100.07 2343,-76 2345.85,-75.63 2348.79,-75.22 2351.75,-74.77"/>
<polygon fill="midnightblue" stroke="midnightblue" points="1834.35,-115.17 1824.55,-119.18 1834.71,-122.16 1834.35,-115.17"/>
</g>
<!-- Node259 -->
<g id="node36" class="node">
<title>Node259</title>
<g id="a_node36"><a xlink:href="_temperature_source_8_h.html" target="_top" xlink:title=" ">
<polygon fill="white" stroke="red" points="2454,-56.5 2454,-75.5 2576,-75.5 2576,-56.5 2454,-56.5"/>
<text text-anchor="middle" x="2515" y="-63.5" font-family="Helvetica,sans-Serif" font-size="10.00">TemperatureSource.H</text>
</a>
</g>
</g>
<!-- Node2&#45;&gt;Node259 -->
<g id="edge44" class="edge">
<title>Node2&#45;&gt;Node259</title>
<path fill="none" stroke="midnightblue" d="M1834.82,-118.71C1943.44,-113.29 2217,-98.43 2445,-76 2447.93,-75.71 2450.92,-75.4 2453.94,-75.07"/>
<polygon fill="midnightblue" stroke="midnightblue" points="1834.35,-115.23 1824.53,-119.22 1834.69,-122.22 1834.35,-115.23"/>
</g>
<!-- Node260 -->
<g id="node37" class="node">
<title>Node260</title>
<g id="a_node37"><a xlink:href="_t_k_e_source_8_h.html" target="_top" xlink:title=" ">
<polygon fill="white" stroke="red" points="2594.5,-56.5 2594.5,-75.5 2673.5,-75.5 2673.5,-56.5 2594.5,-56.5"/>
<text text-anchor="middle" x="2634" y="-63.5" font-family="Helvetica,sans-Serif" font-size="10.00">TKESource.H</text>
</a>
</g>
</g>
<!-- Node2&#45;&gt;Node260 -->
<g id="edge45" class="edge">
<title>Node2&#45;&gt;Node260</title>
<path fill="none" stroke="midnightblue" d="M1834.84,-120.39C1959.04,-118.35 2301.85,-109.85 2585,-76 2588.09,-75.63 2591.28,-75.19 2594.48,-74.7"/>
<polygon fill="midnightblue" stroke="midnightblue" points="1834.48,-116.89 1824.54,-120.55 1834.59,-123.89 1834.48,-116.89"/>
</g>
<!-- Node264 -->
<g id="node38" class="node">
<title>Node264</title>
<g id="a_node38"><a xlink:href="_split_advection_8_h.html" target="_top" xlink:title=" ">
<polygon fill="white" stroke="red" points="2691,-56.5 2691,-75.5 2789,-75.5 2789,-56.5 2691,-56.5"/>
<text text-anchor="middle" x="2740" y="-63.5" font-family="Helvetica,sans-Serif" font-size="10.00">SplitAdvection.H</text>
</a>
</g>
</g>
<!-- Node2&#45;&gt;Node264 -->
<g id="edge46" class="edge">
<title>Node2&#45;&gt;Node264</title>
<path fill="none" stroke="midnightblue" d="M1835.01,-120.38C1969.32,-118.28 2360.21,-109.49 2683,-76 2685.59,-75.73 2688.24,-75.42 2690.92,-75.09"/>
<polygon fill="midnightblue" stroke="midnightblue" points="1834.61,-116.89 1824.67,-120.54 1834.72,-123.89 1834.61,-116.89"/>
</g>
<!-- Node266 -->
<g id="node39" class="node">
<title>Node266</title>
<g id="a_node39"><a xlink:href="fvm__utils_8_h.html" target="_top" xlink:title=" ">
<polygon fill="white" stroke="red" points="2807.5,-56.5 2807.5,-75.5 2880.5,-75.5 2880.5,-56.5 2807.5,-56.5"/>
<text text-anchor="middle" x="2844" y="-63.5" font-family="Helvetica,sans-Serif" font-size="10.00">fvm_utils.H</text>
</a>
</g>
</g>
<!-- Node2&#45;&gt;Node266 -->
<g id="edge47" class="edge">
<title>Node2&#45;&gt;Node266</title>
<path fill="none" stroke="midnightblue" d="M1835.17,-121.39C1980.87,-122.03 2429.53,-120 2798,-76 2801.07,-75.63 2804.24,-75.18 2807.42,-74.67"/>
<polygon fill="midnightblue" stroke="midnightblue" points="1834.82,-117.89 1824.8,-121.34 1834.79,-124.89 1834.82,-117.89"/>
</g>
<!-- Node277 -->
<g id="node40" class="node">
<title>Node277</title>
<g id="a_node40"><a xlink:href="_i_b_8_h.html" target="_top" xlink:title=" ">
<polygon fill="white" stroke="red" points="500.5,-56.5 500.5,-75.5 537.5,-75.5 537.5,-56.5 500.5,-56.5"/>
<text text-anchor="middle" x="519" y="-63.5" font-family="Helvetica,sans-Serif" font-size="10.00">IB.H</text>
</a>
</g>
</g>
<!-- Node2&#45;&gt;Node277 -->
<g id="edge49" class="edge">
<title>Node2&#45;&gt;Node277</title>
<path fill="none" stroke="midnightblue" d="M1739.31,-120.73C1541.79,-119.36 787.2,-111.87 552,-76 547.3,-75.28 542.32,-74.14 537.69,-72.9"/>
<polygon fill="midnightblue" stroke="midnightblue" points="1739.35,-124.23 1749.37,-120.79 1739.4,-117.23 1739.35,-124.23"/>
</g>
<!-- Node278 -->
<g id="node41" class="node">
<title>Node278</title>
<g id="a_node41"><a xlink:href="_ocean_waves_8_h.html" target="_top" xlink:title=" ">
<polygon fill="white" stroke="red" points="830,-56.5 830,-75.5 920,-75.5 920,-56.5 830,-56.5"/>
<text text-anchor="middle" x="875" y="-63.5" font-family="Helvetica,sans-Serif" font-size="10.00">OceanWaves.H</text>
</a>
</g>
</g>
<!-- Node2&#45;&gt;Node278 -->
<g id="edge53" class="edge">
<title>Node2&#45;&gt;Node278</title>
<path fill="none" stroke="midnightblue" d="M1739.11,-120.13C1609.24,-117.41 1239.64,-107.3 934,-76 929.46,-75.54 924.75,-74.96 920.04,-74.34"/>
<polygon fill="midnightblue" stroke="midnightblue" points="1739.41,-123.64 1749.48,-120.34 1739.56,-116.64 1739.41,-123.64"/>
</g>
<!-- Node62 -->
<g id="node42" class="node">
<title>Node62</title>
<g id="a_node42"><a xlink:href="hos__waves__ops_8_h.html" target="_top" xlink:title=" ">
<polygon fill="white" stroke="red" points="1018,-0.5 1018,-19.5 1122,-19.5 1122,-0.5 1018,-0.5"/>
<text text-anchor="middle" x="1070" y="-7.5" font-family="Helvetica,sans-Serif" font-size="10.00">hos_waves_ops.H</text>
</a>
</g>
</g>
<!-- Node2&#45;&gt;Node62 -->
<g id="edge56" class="edge">
<title>Node2&#45;&gt;Node62</title>
<path fill="none" stroke="midnightblue" d="M1739.2,-120.17C1567.93,-116.97 993.67,-104.18 967,-76 942.51,-50.13 994.88,-30.15 1033.54,-19.52"/>
<polygon fill="midnightblue" stroke="midnightblue" points="1739.36,-123.67 1749.42,-120.36 1739.49,-116.68 1739.36,-123.67"/>
</g>
<!-- Node279 -->
<g id="node43" class="node">
<title>Node279</title>
<g id="a_node43"><a xlink:href="hydrostatic__ops_8_h.html" target="_top" xlink:title=" ">
<polygon fill="white" stroke="red" points="2899,-56.5 2899,-75.5 3003,-75.5 3003,-56.5 2899,-56.5"/>
<text text-anchor="middle" x="2951" y="-63.5" font-family="Helvetica,sans-Serif" font-size="10.00">hydrostatic_ops.H</text>
</a>
</g>
</g>
<!-- Node2&#45;&gt;Node279 -->
<g id="edge59" class="edge">
<title>Node2&#45;&gt;Node279</title>
<path fill="none" stroke="midnightblue" d="M1834.75,-120.85C1988.27,-119.99 2482.9,-114.23 2890,-76 2892.88,-75.73 2895.83,-75.42 2898.8,-75.07"/>
<polygon fill="midnightblue" stroke="midnightblue" points="1834.69,-117.35 1824.71,-120.9 1834.73,-124.35 1834.69,-117.35"/>
</g>
<!-- Node34 -->
<g id="node44" class="node">
<title>Node34</title>
<g id="a_node44"><a xlink:href="_burggraf_lid_8cpp.html" target="_top" xlink:title=" ">
<polygon fill="white" stroke="black" points="3021.5,-56.5 3021.5,-75.5 3114.5,-75.5 3114.5,-56.5 3021.5,-56.5"/>
<text text-anchor="middle" x="3068" y="-63.5" font-family="Helvetica,sans-Serif" font-size="10.00">BurggrafLid.cpp</text>
</a>
</g>
</g>
<!-- Node2&#45;&gt;Node34 -->
<g id="edge60" class="edge">
<title>Node2&#45;&gt;Node34</title>
<path fill="none" stroke="midnightblue" d="M1834.97,-121.35C1999.43,-122.09 2555.54,-120.89 3012,-76 3015.04,-75.7 3018.16,-75.34 3021.3,-74.94"/>
<polygon fill="midnightblue" stroke="midnightblue" points="1834.72,-117.85 1824.71,-121.3 1834.69,-124.85 1834.72,-117.85"/>
</g>
<!-- Node280 -->
<g id="node45" class="node">
<title>Node280</title>
<g id="a_node45"><a xlink:href="_linear_profile_8cpp.html" target="_top" xlink:title=" ">
<polygon fill="white" stroke="black" points="3133,-56.5 3133,-75.5 3231,-75.5 3231,-56.5 3133,-56.5"/>
<text text-anchor="middle" x="3182" y="-63.5" font-family="Helvetica,sans-Serif" font-size="10.00">LinearProfile.cpp</text>
</a>
</g>
</g>
<!-- Node2&#45;&gt;Node280 -->
<g id="edge61" class="edge">
<title>Node2&#45;&gt;Node280</title>
<path fill="none" stroke="midnightblue" d="M1834.66,-121.46C2008.01,-122.71 2621.23,-123.3 3124,-76 3126.84,-75.73 3129.75,-75.42 3132.69,-75.06"/>
<polygon fill="midnightblue" stroke="midnightblue" points="1834.62,-117.96 1824.59,-121.39 1834.56,-124.96 1834.62,-117.96"/>
</g>
<!-- Node35 -->
<g id="node46" class="node">
<title>Node35</title>
<g id="a_node46"><a xlink:href="_power_law_profile_8cpp.html" target="_top" xlink:title=" ">
<polygon fill="white" stroke="black" points="3249.5,-56.5 3249.5,-75.5 3366.5,-75.5 3366.5,-56.5 3249.5,-56.5"/>
<text text-anchor="middle" x="3308" y="-63.5" font-family="Helvetica,sans-Serif" font-size="10.00">PowerLawProfile.cpp</text>
</a>
</g>
</g>
<!-- Node2&#45;&gt;Node35 -->
<g id="edge62" class="edge">
<title>Node2&#45;&gt;Node35</title>
<path fill="none" stroke="midnightblue" d="M1834.76,-121.26C2017.42,-121.9 2689.12,-120.87 3240,-76 3243.09,-75.75 3246.25,-75.46 3249.43,-75.13"/>
<polygon fill="midnightblue" stroke="midnightblue" points="1834.7,-117.76 1824.68,-121.22 1834.67,-124.76 1834.7,-117.76"/>
</g>
<!-- Node281 -->
<g id="node47" class="node">
<title>Node281</title>
<g id="a_node47"><a xlink:href="_u_d_f_8cpp.html" target="_top" xlink:title=" ">
<polygon fill="white" stroke="black" points="3385,-56.5 3385,-75.5 3441,-75.5 3441,-56.5 3385,-56.5"/>
<text text-anchor="middle" x="3413" y="-63.5" font-family="Helvetica,sans-Serif" font-size="10.00">UDF.cpp</text>
</a>
</g>
</g>
<!-- Node2&#45;&gt;Node281 -->
<g id="edge63" class="edge">
<title>Node2&#45;&gt;Node281</title>
<path fill="none" stroke="midnightblue" d="M1834.91,-121C2066.02,-120.79 3067.05,-117.48 3376,-76 3378.88,-75.61 3381.87,-75.09 3384.83,-74.5"/>
<polygon fill="midnightblue" stroke="midnightblue" points="1834.81,-117.5 1824.81,-121.01 1834.81,-124.5 1834.81,-117.5"/>
</g>
<!-- Node282 -->
<g id="node48" class="node">
<title>Node282</title>
<g id="a_node48"><a xlink:href="_transport_model_8_h.html" target="_top" xlink:title=" ">
<polygon fill="white" stroke="red" points="3459,-56.5 3459,-75.5 3561,-75.5 3561,-56.5 3459,-56.5"/>
<text text-anchor="middle" x="3510" y="-63.5" font-family="Helvetica,sans-Serif" font-size="10.00">TransportModel.H</text>
</a>
</g>
</g>
<!-- Node2&#45;&gt;Node282 -->
<g id="edge65" class="edge">
<title>Node2&#45;&gt;Node282</title>
<path fill="none" stroke="midnightblue" d="M1834.77,-120.49C2071.88,-117.86 3123.99,-104.75 3450,-76 3452.94,-75.74 3455.95,-75.43 3458.99,-75.08"/>
<polygon fill="midnightblue" stroke="midnightblue" points="1834.7,-116.99 1824.74,-120.6 1834.78,-123.99 1834.7,-116.99"/>
</g>
<!-- Node140 -->
<g id="node49" class="node">
<title>Node140</title>
<g id="a_node49"><a xlink:href="_a_m_d_8_h.html" target="_top" xlink:title=" ">
<polygon fill="white" stroke="red" points="3579,-56.5 3579,-75.5 3629,-75.5 3629,-56.5 3579,-56.5"/>
<text text-anchor="middle" x="3604" y="-63.5" font-family="Helvetica,sans-Serif" font-size="10.00">AMD.H</text>
</a>
</g>
</g>
<!-- Node2&#45;&gt;Node140 -->
<g id="edge66" class="edge">
<title>Node2&#45;&gt;Node140</title>
<path fill="none" stroke="midnightblue" d="M1834.66,-121.3C2081.97,-122.63 3220.97,-125.9 3570,-76 3572.9,-75.59 3575.91,-75.01 3578.88,-74.35"/>
<polygon fill="midnightblue" stroke="midnightblue" points="1834.58,-117.8 1824.56,-121.24 1834.54,-124.8 1834.58,-117.8"/>
</g>
<!-- Node143 -->
<g id="node50" class="node">
<title>Node143</title>
<g id="a_node50"><a xlink:href="_smagorinsky_8_h.html" target="_top" xlink:title=" ">
<polygon fill="white" stroke="red" points="3647.5,-56.5 3647.5,-75.5 3736.5,-75.5 3736.5,-56.5 3647.5,-56.5"/>
<text text-anchor="middle" x="3692" y="-63.5" font-family="Helvetica,sans-Serif" font-size="10.00">Smagorinsky.H</text>
</a>
</g>
</g>
<!-- Node2&#45;&gt;Node143 -->
<g id="edge67" class="edge">
<title>Node2&#45;&gt;Node143</title>
<path fill="none" stroke="midnightblue" d="M1835.16,-120.75C2088.94,-119.28 3273.03,-110.68 3638,-76 3641.03,-75.71 3644.14,-75.36 3647.27,-74.95"/>
<polygon fill="midnightblue" stroke="midnightblue" points="1834.79,-117.25 1824.81,-120.81 1834.83,-124.25 1834.79,-117.25"/>
</g>
<!-- Node4&#45;&gt;Node3 -->
<g id="edge4" class="edge">
<title>Node4&#45;&gt;Node3</title>
<path fill="none" stroke="midnightblue" d="M3833.98,-47.86C3826.88,-38.5 3818.4,-27.33 3812.64,-19.75"/>
<polygon fill="midnightblue" stroke="midnightblue" points="3831.39,-50.24 3840.23,-56.08 3836.97,-46 3831.39,-50.24"/>
</g>
<!-- Node9&#45;&gt;Node57 -->
<g id="edge7" class="edge">
<title>Node9&#45;&gt;Node57</title>
<path fill="none" stroke="midnightblue" d="M621.61,-57.63C569.97,-48.83 481.16,-33.58 405,-20 402.1,-19.48 399.11,-18.95 396.11,-18.4"/>
<polygon fill="midnightblue" stroke="midnightblue" points="621.29,-61.13 631.74,-59.36 622.47,-54.23 621.29,-61.13"/>
</g>
<!-- Node9&#45;&gt;Node73 -->
<g id="edge8" class="edge">
<title>Node9&#45;&gt;Node73</title>
<path fill="none" stroke="midnightblue" d="M621.91,-55.67C582.3,-46.95 522.02,-33.31 470,-20 467.32,-19.31 464.51,-18.57 461.73,-17.81"/>
<polygon fill="midnightblue" stroke="midnightblue" points="621.24,-59.11 631.76,-57.83 622.74,-52.27 621.24,-59.11"/>
</g>
<!-- Node9&#45;&gt;Node84 -->
<g id="edge9" class="edge">
<title>Node9&#45;&gt;Node84</title>
<path fill="none" stroke="midnightblue" d="M630.17,-53.17C600.23,-43 557.78,-28.59 531.08,-19.52"/>
<polygon fill="midnightblue" stroke="midnightblue" points="629.21,-56.54 639.81,-56.44 631.46,-49.91 629.21,-56.54"/>
</g>
<!-- Node9&#45;&gt;Node96 -->
<g id="edge10" class="edge">
<title>Node9&#45;&gt;Node96</title>
<path fill="none" stroke="midnightblue" d="M708.36,-56.78C761.43,-46.73 850.88,-29.78 904.79,-19.57"/>
<polygon fill="midnightblue" stroke="midnightblue" points="707.42,-53.4 698.25,-58.7 708.73,-60.28 707.42,-53.4"/>
</g>
<!-- Node9&#45;&gt;Node105 -->
<g id="edge11" class="edge">
<title>Node9&#45;&gt;Node105</title>
<path fill="none" stroke="midnightblue" d="M647.53,-49.54C636.66,-39.91 623.06,-27.87 613.98,-19.83"/>
<polygon fill="midnightblue" stroke="midnightblue" points="645.39,-52.32 655.2,-56.32 650.03,-47.07 645.39,-52.32"/>
</g>
<!-- Node9&#45;&gt;Node135 -->
<g id="edge12" class="edge">
<title>Node9&#45;&gt;Node135</title>
<path fill="none" stroke="midnightblue" d="M681.33,-49.25C691.26,-39.67 703.59,-27.79 711.84,-19.83"/>
<polygon fill="midnightblue" stroke="midnightblue" points="678.77,-46.86 674,-56.32 683.63,-51.9 678.77,-46.86"/>
</g>
<!-- Node9&#45;&gt;Node148 -->
<g id="edge13" class="edge">
<title>Node9&#45;&gt;Node148</title>
<path fill="none" stroke="midnightblue" d="M701.39,-53.3C733.04,-43.13 778.17,-28.62 806.5,-19.52"/>
<polygon fill="midnightblue" stroke="midnightblue" points="700.07,-50.05 691.62,-56.44 702.21,-56.72 700.07,-50.05"/>
</g>
<!-- Node242&#45;&gt;Node157 -->
<g id="edge26" class="edge">
<title>Node242&#45;&gt;Node157</title>
<path fill="none" stroke="midnightblue" d="M1995.96,-56.27C1916.2,-46.04 1785.03,-29.22 1707.04,-19.21"/>
<polygon fill="midnightblue" stroke="midnightblue" points="1995.54,-59.75 2005.9,-57.55 1996.43,-52.8 1995.54,-59.75"/>
</g>
<!-- Node242&#45;&gt;Node246 -->
<g id="edge27" class="edge">
<title>Node242&#45;&gt;Node246</title>
<path fill="none" stroke="midnightblue" d="M2010.59,-54.47C1958.8,-44.27 1881.23,-28.98 1833.21,-19.52"/>
<polygon fill="midnightblue" stroke="midnightblue" points="2010.1,-57.94 2020.58,-56.44 2011.45,-51.08 2010.1,-57.94"/>
</g>
<!-- Node242&#45;&gt;Node248 -->
<g id="edge28" class="edge">
<title>Node242&#45;&gt;Node248</title>
<path fill="none" stroke="midnightblue" d="M2031.84,-52.77C2005.17,-42.63 1967.93,-28.47 1944.4,-19.52"/>
<polygon fill="midnightblue" stroke="midnightblue" points="2030.91,-56.16 2041.5,-56.44 2033.4,-49.62 2030.91,-56.16"/>
</g>
<!-- Node242&#45;&gt;Node249 -->
<g id="edge29" class="edge">
<title>Node242&#45;&gt;Node249</title>
<path fill="none" stroke="midnightblue" d="M2057.45,-46.4C2054.28,-37.36 2050.61,-26.94 2048.08,-19.75"/>
<polygon fill="midnightblue" stroke="midnightblue" points="2054.24,-47.81 2060.86,-56.08 2060.85,-45.49 2054.24,-47.81"/>
</g>
<!-- Node242&#45;&gt;Node251 -->
<g id="edge30" class="edge">
<title>Node242&#45;&gt;Node251</title>
<path fill="none" stroke="midnightblue" d="M2089.83,-51.59C2109.06,-41.61 2134.74,-28.27 2151.33,-19.65"/>
<polygon fill="midnightblue" stroke="midnightblue" points="2087.97,-48.61 2080.71,-56.32 2091.2,-54.82 2087.97,-48.61"/>
</g>
<!-- Node242&#45;&gt;Node158 -->
<g id="edge31" class="edge">
<title>Node242&#45;&gt;Node158</title>
<path fill="none" stroke="midnightblue" d="M2109.67,-54.09C2152.36,-43.89 2215.25,-28.86 2254.36,-19.52"/>
<polygon fill="midnightblue" stroke="midnightblue" points="2108.72,-50.72 2099.81,-56.44 2110.35,-57.52 2108.72,-50.72"/>
</g>
<!-- Node242&#45;&gt;Node254 -->
<g id="edge32" class="edge">
<title>Node242&#45;&gt;Node254</title>
<path fill="none" stroke="midnightblue" d="M2130.63,-55C2189.45,-46.09 2277.48,-32.56 2354,-20 2356.89,-19.53 2359.88,-19.03 2362.88,-18.52"/>
<polygon fill="midnightblue" stroke="midnightblue" points="2130.09,-51.54 2120.73,-56.5 2131.14,-58.46 2130.09,-51.54"/>
</g>
<!-- Node255&#45;&gt;Node57 -->
<g id="edge41" class="edge">
<title>Node255&#45;&gt;Node57</title>
<path fill="none" stroke="midnightblue" d="M387.89,-48.43C379.82,-38.97 370.04,-27.48 363.45,-19.75"/>
<polygon fill="midnightblue" stroke="midnightblue" points="385.25,-50.74 394.4,-56.08 390.58,-46.2 385.25,-50.74"/>
</g>
<!-- Node277&#45;&gt;Node73 -->
<g id="edge50" class="edge">
<title>Node277&#45;&gt;Node73</title>
<path fill="none" stroke="midnightblue" d="M497.43,-50.62C482.64,-40.76 463.49,-27.99 450.98,-19.65"/>
<polygon fill="midnightblue" stroke="midnightblue" points="495.72,-53.69 505.99,-56.32 499.61,-47.86 495.72,-53.69"/>
</g>
<!-- Node278&#45;&gt;Node96 -->
<g id="edge54" class="edge">
<title>Node278&#45;&gt;Node96</title>
<path fill="none" stroke="midnightblue" d="M895.31,-50.38C908.86,-40.62 926.24,-28.11 937.73,-19.83"/>
<polygon fill="midnightblue" stroke="midnightblue" points="893.12,-47.64 887.05,-56.32 897.21,-53.32 893.12,-47.64"/>
</g>
<!-- Node278&#45;&gt;Node62 -->
<g id="edge55" class="edge">
<title>Node278&#45;&gt;Node62</title>
<path fill="none" stroke="midnightblue" d="M915.81,-53.7C952.61,-43.51 1005.93,-28.74 1039.25,-19.52"/>
<polygon fill="midnightblue" stroke="midnightblue" points="914.6,-50.4 905.9,-56.44 916.47,-57.15 914.6,-50.4"/>
</g>
</g>
</svg>
