<?xml version="1.0" encoding="UTF-8" standalone="no"?>
<!DOCTYPE svg PUBLIC "-//W3C//DTD SVG 1.1//EN"
 "http://www.w3.org/Graphics/SVG/1.1/DTD/svg11.dtd">
<!-- Generated by graphviz version 2.43.0 (0)
 -->
<!-- Title: SimTime.H Pages: 1 -->
<svg width="3939pt" height="252pt"
 viewBox="0.00 0.00 3939.00 252.00" xmlns="http://www.w3.org/2000/svg" xmlns:xlink="http://www.w3.org/1999/xlink">
<g id="graph0" class="graph" transform="scale(1 1) rotate(0) translate(4 248)">
<title>SimTime.H</title>
<polygon fill="white" stroke="transparent" points="-4,4 -4,-248 3935,-248 3935,4 -4,4"/>
<!-- Node1 -->
<g id="node1" class="node">
<title>Node1</title>
<g id="a_node1"><a xlink:title=" ">
<polygon fill="#bfbfbf" stroke="black" points="906.5,-224.5 906.5,-243.5 977.5,-243.5 977.5,-224.5 906.5,-224.5"/>
<text text-anchor="middle" x="942" y="-231.5" font-family="Helvetica,sans-Serif" font-size="10.00">SimTime.H</text>
</a>
</g>
</g>
<!-- Node2 -->
<g id="node2" class="node">
<title>Node2</title>
<g id="a_node2"><a xlink:href="velocity__bcs_8_h.html" target="_top" xlink:title=" ">
<polygon fill="white" stroke="black" points="0,-112.5 0,-131.5 88,-131.5 88,-112.5 0,-112.5"/>
<text text-anchor="middle" x="44" y="-119.5" font-family="Helvetica,sans-Serif" font-size="10.00">velocity_bcs.H</text>
</a>
</g>
</g>
<!-- Node1&#45;&gt;Node2 -->
<g id="edge1" class="edge">
<title>Node1&#45;&gt;Node2</title>
<path fill="none" stroke="midnightblue" d="M896.25,-233.06C728.61,-232.96 154,-229.56 84,-188 62.58,-175.28 51.05,-146.19 46.43,-131.63"/>
<polygon fill="midnightblue" stroke="midnightblue" points="896.47,-236.56 906.47,-233.07 896.47,-229.56 896.47,-236.56"/>
</g>
<!-- Node5 -->
<g id="node4" class="node">
<title>Node5</title>
<g id="a_node4"><a xlink:href="_c_f_d_sim_8_h.html" target="_top" xlink:title=" ">
<polygon fill="white" stroke="red" points="2178,-168.5 2178,-187.5 2244,-187.5 2244,-168.5 2178,-168.5"/>
<text text-anchor="middle" x="2211" y="-175.5" font-family="Helvetica,sans-Serif" font-size="10.00">CFDSim.H</text>
</a>
</g>
</g>
<!-- Node1&#45;&gt;Node5 -->
<g id="edge3" class="edge">
<title>Node1&#45;&gt;Node5</title>
<path fill="none" stroke="midnightblue" d="M987.88,-231.05C1190.51,-222.43 2002.83,-187.86 2177.72,-180.42"/>
<polygon fill="midnightblue" stroke="midnightblue" points="987.44,-227.56 977.6,-231.49 987.74,-234.56 987.44,-227.56"/>
</g>
<!-- Node67 -->
<g id="node26" class="node">
<title>Node67</title>
<g id="a_node26"><a xlink:href="helics_8_h.html" target="_top" xlink:title=" ">
<polygon fill="white" stroke="red" points="3432,-112.5 3432,-131.5 3488,-131.5 3488,-112.5 3432,-112.5"/>
<text text-anchor="middle" x="3460" y="-119.5" font-family="Helvetica,sans-Serif" font-size="10.00">helics.H</text>
</a>
</g>
</g>
<!-- Node1&#45;&gt;Node67 -->
<g id="edge65" class="edge">
<title>Node1&#45;&gt;Node67</title>
<path fill="none" stroke="midnightblue" d="M987.91,-232.51C1205.57,-230.04 2128.11,-217.88 2253,-188 2273.5,-183.1 2275.5,-172.88 2296,-168 2539.76,-109.99 3174.72,-165.79 3423,-132 3425.88,-131.61 3428.87,-131.08 3431.83,-130.49"/>
<polygon fill="midnightblue" stroke="midnightblue" points="987.75,-229.01 977.79,-232.62 987.83,-236.01 987.75,-229.01"/>
</g>
<!-- Node80 -->
<g id="node29" class="node">
<title>Node80</title>
<g id="a_node29"><a xlink:href="incflo_8_h.html" target="_top" xlink:title=" ">
<polygon fill="white" stroke="red" points="3506.5,-112.5 3506.5,-131.5 3559.5,-131.5 3559.5,-112.5 3506.5,-112.5"/>
<text text-anchor="middle" x="3533" y="-119.5" font-family="Helvetica,sans-Serif" font-size="10.00">incflo.H</text>
</a>
</g>
</g>
<!-- Node1&#45;&gt;Node80 -->
<g id="edge66" class="edge">
<title>Node1&#45;&gt;Node80</title>
<path fill="none" stroke="midnightblue" d="M988.03,-232.49C1209.41,-229.87 2159.17,-217.05 2288,-188 2309.75,-183.1 2312.25,-172.88 2334,-168 2586.31,-111.44 3240.89,-167.56 3497,-132 3500.06,-131.57 3503.24,-130.99 3506.39,-130.33"/>
<polygon fill="midnightblue" stroke="midnightblue" points="987.71,-228.99 977.75,-232.61 987.79,-235.99 987.71,-228.99"/>
</g>
<!-- Node60 -->
<g id="node35" class="node">
<title>Node60</title>
<g id="a_node35"><a xlink:href="_multi_phase_8cpp.html" target="_top" xlink:title=" ">
<polygon fill="white" stroke="black" points="3577.5,-112.5 3577.5,-131.5 3668.5,-131.5 3668.5,-112.5 3577.5,-112.5"/>
<text text-anchor="middle" x="3623" y="-119.5" font-family="Helvetica,sans-Serif" font-size="10.00">MultiPhase.cpp</text>
</a>
</g>
</g>
<!-- Node1&#45;&gt;Node60 -->
<g id="edge68" class="edge">
<title>Node1&#45;&gt;Node60</title>
<path fill="none" stroke="midnightblue" d="M987.85,-232.51C1212.57,-229.98 2192.23,-217.33 2325,-188 2347.17,-183.1 2349.83,-172.87 2372,-168 2631.93,-110.91 3304.15,-157.93 3569,-132 3571.74,-131.73 3574.56,-131.41 3577.39,-131.05"/>
<polygon fill="midnightblue" stroke="midnightblue" points="987.69,-229.01 977.73,-232.62 987.76,-236.01 987.69,-229.01"/>
</g>
<!-- Node152 -->
<g id="node36" class="node">
<title>Node152</title>
<g id="a_node36"><a xlink:href="_field_plane_averaging_8_h.html" target="_top" xlink:title=" ">
<polygon fill="white" stroke="red" points="1093,-112.5 1093,-131.5 1219,-131.5 1219,-112.5 1093,-112.5"/>
<text text-anchor="middle" x="1156" y="-119.5" font-family="Helvetica,sans-Serif" font-size="10.00">FieldPlaneAveraging.H</text>
</a>
</g>
</g>
<!-- Node1&#45;&gt;Node152 -->
<g id="edge69" class="edge">
<title>Node1&#45;&gt;Node152</title>
<path fill="none" stroke="midnightblue" d="M987.24,-221.73C1013.5,-214.19 1046.67,-202.91 1074,-188 1103.34,-171.99 1132.87,-145.42 1147.15,-131.73"/>
<polygon fill="midnightblue" stroke="midnightblue" points="986.24,-218.38 977.55,-224.44 988.12,-225.12 986.24,-218.38"/>
</g>
<!-- Node161 -->
<g id="node37" class="node">
<title>Node161</title>
<g id="a_node37"><a xlink:href="_a_b_l_8_h.html" target="_top" xlink:title=" ">
<polygon fill="white" stroke="red" points="1113,-56.5 1113,-75.5 1159,-75.5 1159,-56.5 1113,-56.5"/>
<text text-anchor="middle" x="1136" y="-63.5" font-family="Helvetica,sans-Serif" font-size="10.00">ABL.H</text>
</a>
</g>
</g>
<!-- Node1&#45;&gt;Node161 -->
<g id="edge71" class="edge">
<title>Node1&#45;&gt;Node161</title>
<path fill="none" stroke="midnightblue" d="M896.01,-232.24C779.77,-229.85 476.69,-220.58 382,-188 334.08,-171.51 262.14,-148.78 297,-112 325.85,-81.56 980.09,-69.49 1112.69,-67.36"/>
<polygon fill="midnightblue" stroke="midnightblue" points="896.27,-235.74 906.34,-232.44 896.41,-228.75 896.27,-235.74"/>
</g>
<!-- Node165 -->
<g id="node38" class="node">
<title>Node165</title>
<g id="a_node38"><a xlink:href="_field_plane_averaging_fine_8_h.html" target="_top" xlink:title=" ">
<polygon fill="white" stroke="red" points="3687,-112.5 3687,-131.5 3833,-131.5 3833,-112.5 3687,-112.5"/>
<text text-anchor="middle" x="3760" y="-119.5" font-family="Helvetica,sans-Serif" font-size="10.00">FieldPlaneAveragingFine.H</text>
</a>
</g>
</g>
<!-- Node1&#45;&gt;Node165 -->
<g id="edge70" class="edge">
<title>Node1&#45;&gt;Node165</title>
<path fill="none" stroke="midnightblue" d="M987.95,-232.53C1216.5,-230.07 2225.33,-217.59 2362,-188 2384.59,-183.11 2387.4,-172.85 2410,-168 2685.6,-108.8 3396.78,-151.39 3678,-132 3680.86,-131.8 3683.77,-131.58 3686.71,-131.34"/>
<polygon fill="midnightblue" stroke="midnightblue" points="987.62,-229.03 977.66,-232.64 987.7,-236.03 987.62,-229.03"/>
</g>
<!-- Node221 -->
<g id="node39" class="node">
<title>Node221</title>
<g id="a_node39"><a xlink:href="_fast_iface_8cpp.html" target="_top" xlink:title=" ">
<polygon fill="white" stroke="black" points="3851,-112.5 3851,-131.5 3931,-131.5 3931,-112.5 3851,-112.5"/>
<text text-anchor="middle" x="3891" y="-119.5" font-family="Helvetica,sans-Serif" font-size="10.00">FastIface.cpp</text>
</a>
</g>
</g>
<!-- Node1&#45;&gt;Node221 -->
<g id="edge72" class="edge">
<title>Node1&#45;&gt;Node221</title>
<path fill="none" stroke="midnightblue" d="M987.72,-232.68C1219.58,-230.93 2260.01,-221.24 2400,-188 2420.51,-183.13 2422.48,-172.82 2443,-168 2745.76,-96.94 3532.68,-164.19 3842,-132 3844.92,-131.7 3847.94,-131.31 3850.96,-130.88"/>
<polygon fill="midnightblue" stroke="midnightblue" points="987.58,-229.18 977.61,-232.76 987.63,-236.18 987.58,-229.18"/>
</g>
<!-- Node222 -->
<g id="node40" class="node">
<title>Node222</title>
<g id="a_node40"><a xlink:href="_field_8cpp.html" target="_top" xlink:title=" ">
<polygon fill="white" stroke="black" points="113,-112.5 113,-131.5 173,-131.5 173,-112.5 113,-112.5"/>
<text text-anchor="middle" x="143" y="-119.5" font-family="Helvetica,sans-Serif" font-size="10.00">Field.cpp</text>
</a>
</g>
</g>
<!-- Node1&#45;&gt;Node222 -->
<g id="edge44" class="edge">
<title>Node1&#45;&gt;Node222</title>
<path fill="none" stroke="midnightblue" d="M896.3,-232.3C723.85,-229.44 120.84,-217.35 93,-188 75.27,-169.3 107.6,-144.55 128.07,-131.65"/>
<polygon fill="midnightblue" stroke="midnightblue" points="896.27,-235.8 906.33,-232.46 896.38,-228.8 896.27,-235.8"/>
</g>
<!-- Node223 -->
<g id="node41" class="node">
<title>Node223</title>
<g id="a_node41"><a xlink:href="_field_fill_patch_ops_8_h.html" target="_top" xlink:title=" ">
<polygon fill="white" stroke="red" points="102,-168.5 102,-187.5 212,-187.5 212,-168.5 102,-168.5"/>
<text text-anchor="middle" x="157" y="-175.5" font-family="Helvetica,sans-Serif" font-size="10.00">FieldFillPatchOps.H</text>
</a>
</g>
</g>
<!-- Node1&#45;&gt;Node223 -->
<g id="edge45" class="edge">
<title>Node1&#45;&gt;Node223</title>
<path fill="none" stroke="midnightblue" d="M896.08,-231.18C782.34,-226.44 478.46,-212.37 226,-188 221.55,-187.57 216.95,-187.08 212.32,-186.55"/>
<polygon fill="midnightblue" stroke="midnightblue" points="896.04,-234.68 906.17,-231.6 896.32,-227.69 896.04,-234.68"/>
</g>
<!-- Node224 -->
<g id="node42" class="node">
<title>Node224</title>
<g id="a_node42"><a xlink:href="_p_d_e_helpers_8_h.html" target="_top" xlink:title=" ">
<polygon fill="white" stroke="red" points="306,-112.5 306,-131.5 390,-131.5 390,-112.5 306,-112.5"/>
<text text-anchor="middle" x="348" y="-119.5" font-family="Helvetica,sans-Serif" font-size="10.00">PDEHelpers.H</text>
</a>
</g>
</g>
<!-- Node1&#45;&gt;Node224 -->
<g id="edge64" class="edge">
<title>Node1&#45;&gt;Node224</title>
<path fill="none" stroke="midnightblue" d="M895.92,-233.04C783.7,-232.51 499.21,-227.22 414,-188 386.54,-175.36 363.82,-146.23 353.68,-131.65"/>
<polygon fill="midnightblue" stroke="midnightblue" points="896.21,-236.54 906.23,-233.08 896.24,-229.54 896.21,-236.54"/>
</g>
<!-- Node225 -->
<g id="node43" class="node">
<title>Node225</title>
<g id="a_node43"><a xlink:href="_sim_time_8cpp.html" target="_top" xlink:title=" ">
<polygon fill="white" stroke="black" points="2452,-168.5 2452,-187.5 2532,-187.5 2532,-168.5 2452,-168.5"/>
<text text-anchor="middle" x="2492" y="-175.5" font-family="Helvetica,sans-Serif" font-size="10.00">SimTime.cpp</text>
</a>
</g>
</g>
<!-- Node1&#45;&gt;Node225 -->
<g id="edge51" class="edge">
<title>Node1&#45;&gt;Node225</title>
<path fill="none" stroke="midnightblue" d="M987.71,-232.46C1206.27,-229.74 2146.19,-216.57 2438,-188 2442.54,-187.56 2447.28,-186.96 2451.98,-186.29"/>
<polygon fill="midnightblue" stroke="midnightblue" points="987.51,-228.96 977.56,-232.58 987.6,-235.96 987.51,-228.96"/>
</g>
<!-- Node226 -->
<g id="node44" class="node">
<title>Node226</title>
<g id="a_node44"><a xlink:href="_a_b_l_forcing_8_h.html" target="_top" xlink:title=" ">
<polygon fill="white" stroke="red" points="606.5,-56.5 606.5,-75.5 687.5,-75.5 687.5,-56.5 606.5,-56.5"/>
<text text-anchor="middle" x="647" y="-63.5" font-family="Helvetica,sans-Serif" font-size="10.00">ABLForcing.H</text>
</a>
</g>
</g>
<!-- Node1&#45;&gt;Node226 -->
<g id="edge52" class="edge">
<title>Node1&#45;&gt;Node226</title>
<path fill="none" stroke="midnightblue" d="M895.79,-231.82C761.16,-228.08 375.59,-215.1 326,-188 298.7,-173.08 293.84,-161.51 284,-132 281.19,-123.57 278.11,-118.66 284,-112 305.08,-88.15 515.81,-74.05 606.19,-69.06"/>
<polygon fill="midnightblue" stroke="midnightblue" points="896.07,-235.33 906.17,-232.1 896.27,-228.33 896.07,-235.33"/>
</g>
<!-- Node227 -->
<g id="node45" class="node">
<title>Node227</title>
<g id="a_node45"><a xlink:href="_actuator_forcing_8_h.html" target="_top" xlink:title=" ">
<polygon fill="white" stroke="black" points="423,-168.5 423,-187.5 527,-187.5 527,-168.5 423,-168.5"/>
<text text-anchor="middle" x="475" y="-175.5" font-family="Helvetica,sans-Serif" font-size="10.00">ActuatorForcing.H</text>
</a>
</g>
</g>
<!-- Node1&#45;&gt;Node227 -->
<g id="edge54" class="edge">
<title>Node1&#45;&gt;Node227</title>
<path fill="none" stroke="midnightblue" d="M896.31,-228.23C821.83,-220.37 669.64,-203.99 541,-188 536.52,-187.44 531.88,-186.85 527.22,-186.24"/>
<polygon fill="midnightblue" stroke="midnightblue" points="895.98,-231.71 906.29,-229.28 896.71,-224.75 895.98,-231.71"/>
</g>
<!-- Node228 -->
<g id="node46" class="node">
<title>Node228</title>
<g id="a_node46"><a xlink:href="_body_force_8_h.html" target="_top" xlink:title=" ">
<polygon fill="white" stroke="black" points="550,-168.5 550,-187.5 628,-187.5 628,-168.5 550,-168.5"/>
<text text-anchor="middle" x="589" y="-175.5" font-family="Helvetica,sans-Serif" font-size="10.00">BodyForce.H</text>
</a>
</g>
</g>
<!-- Node1&#45;&gt;Node228 -->
<g id="edge56" class="edge">
<title>Node1&#45;&gt;Node228</title>
<path fill="none" stroke="midnightblue" d="M896.49,-226.16C838.36,-217.41 734.68,-201.74 646,-188 640.26,-187.11 634.19,-186.16 628.24,-185.23"/>
<polygon fill="midnightblue" stroke="midnightblue" points="896.04,-229.64 906.45,-227.66 897.08,-222.71 896.04,-229.64"/>
</g>
<!-- Node229 -->
<g id="node47" class="node">
<title>Node229</title>
<g id="a_node47"><a xlink:href="_burggraf_flow_forcing_8_h.html" target="_top" xlink:title=" ">
<polygon fill="white" stroke="black" points="655,-168.5 655,-187.5 783,-187.5 783,-168.5 655,-168.5"/>
<text text-anchor="middle" x="719" y="-175.5" font-family="Helvetica,sans-Serif" font-size="10.00">BurggrafFlowForcing.H</text>
</a>
</g>
</g>
<!-- Node1&#45;&gt;Node229 -->
<g id="edge58" class="edge">
<title>Node1&#45;&gt;Node229</title>
<path fill="none" stroke="midnightblue" d="M896.94,-222.09C854.81,-211.89 792.76,-196.86 754.17,-187.52"/>
<polygon fill="midnightblue" stroke="midnightblue" points="896.12,-225.49 906.66,-224.44 897.77,-218.69 896.12,-225.49"/>
</g>
<!-- Node230 -->
<g id="node48" class="node">
<title>Node230</title>
<g id="a_node48"><a xlink:href="_geostrophic_forcing_8_h.html" target="_top" xlink:title=" ">
<polygon fill="white" stroke="black" points="808.5,-168.5 808.5,-187.5 929.5,-187.5 929.5,-168.5 808.5,-168.5"/>
<text text-anchor="middle" x="869" y="-175.5" font-family="Helvetica,sans-Serif" font-size="10.00">GeostrophicForcing.H</text>
</a>
</g>
</g>
<!-- Node1&#45;&gt;Node230 -->
<g id="edge60" class="edge">
<title>Node1&#45;&gt;Node230</title>
<path fill="none" stroke="midnightblue" d="M921.86,-218.1C908.72,-208.38 892.02,-196.03 880.94,-187.83"/>
<polygon fill="midnightblue" stroke="midnightblue" points="920.15,-221.19 930.27,-224.32 924.31,-215.56 920.15,-221.19"/>
</g>
<!-- Node231 -->
<g id="node49" class="node">
<title>Node231</title>
<g id="a_node49"><a xlink:href="_rayleigh_damping_8_h.html" target="_top" xlink:title=" ">
<polygon fill="white" stroke="black" points="951,-168.5 951,-187.5 1065,-187.5 1065,-168.5 951,-168.5"/>
<text text-anchor="middle" x="1008" y="-175.5" font-family="Helvetica,sans-Serif" font-size="10.00">RayleighDamping.H</text>
</a>
</g>
</g>
<!-- Node1&#45;&gt;Node231 -->
<g id="edge62" class="edge">
<title>Node1&#45;&gt;Node231</title>
<path fill="none" stroke="midnightblue" d="M960.55,-217.82C972.38,-208.15 987.29,-195.95 997.2,-187.83"/>
<polygon fill="midnightblue" stroke="midnightblue" points="958.13,-215.28 952.6,-224.32 962.56,-220.7 958.13,-215.28"/>
</g>
<!-- Node232 -->
<g id="node50" class="node">
<title>Node232</title>
<g id="a_node50"><a xlink:href="_breaking_waves_8_h.html" target="_top" xlink:title=" ">
<polygon fill="white" stroke="red" points="2550.5,-168.5 2550.5,-187.5 2653.5,-187.5 2653.5,-168.5 2550.5,-168.5"/>
<text text-anchor="middle" x="2602" y="-175.5" font-family="Helvetica,sans-Serif" font-size="10.00">BreakingWaves.H</text>
</a>
</g>
</g>
<!-- Node1&#45;&gt;Node232 -->
<g id="edge67" class="edge">
<title>Node1&#45;&gt;Node232</title>
<path fill="none" stroke="midnightblue" d="M987.86,-232.44C1215.72,-229.57 2227.48,-215.44 2541,-188 2544.09,-187.73 2547.27,-187.4 2550.47,-187.04"/>
<polygon fill="midnightblue" stroke="midnightblue" points="987.57,-228.95 977.61,-232.57 987.66,-235.95 987.57,-228.95"/>
</g>
<!-- Node3 -->
<g id="node3" class="node">
<title>Node3</title>
<g id="a_node3"><a xlink:href="icns__bcop_8_h.html" target="_top" xlink:title=" ">
<polygon fill="white" stroke="red" points="6.5,-56.5 6.5,-75.5 81.5,-75.5 81.5,-56.5 6.5,-56.5"/>
<text text-anchor="middle" x="44" y="-63.5" font-family="Helvetica,sans-Serif" font-size="10.00">icns_bcop.H</text>
</a>
</g>
</g>
<!-- Node2&#45;&gt;Node3 -->
<g id="edge2" class="edge">
<title>Node2&#45;&gt;Node3</title>
<path fill="none" stroke="midnightblue" d="M44,-101.8C44,-92.91 44,-82.78 44,-75.75"/>
<polygon fill="midnightblue" stroke="midnightblue" points="40.5,-102.08 44,-112.08 47.5,-102.08 40.5,-102.08"/>
</g>
<!-- Node6 -->
<g id="node5" class="node">
<title>Node6</title>
<g id="a_node5"><a xlink:href="_c_f_d_sim_8cpp.html" target="_top" xlink:title=" ">
<polygon fill="white" stroke="black" points="1471,-112.5 1471,-131.5 1547,-131.5 1547,-112.5 1471,-112.5"/>
<text text-anchor="middle" x="1509" y="-119.5" font-family="Helvetica,sans-Serif" font-size="10.00">CFDSim.cpp</text>
</a>
</g>
</g>
<!-- Node5&#45;&gt;Node6 -->
<g id="edge4" class="edge">
<title>Node5&#45;&gt;Node6</title>
<path fill="none" stroke="midnightblue" d="M2167.57,-175.83C2062.29,-172.59 1785.22,-161.71 1556,-132 1553.12,-131.63 1550.14,-131.19 1547.16,-130.71"/>
<polygon fill="midnightblue" stroke="midnightblue" points="2167.7,-179.33 2177.8,-176.13 2167.91,-172.34 2167.7,-179.33"/>
</g>
<!-- Node7 -->
<g id="node6" class="node">
<title>Node7</title>
<g id="a_node6"><a xlink:href="_mesh_map_8cpp.html" target="_top" xlink:title=" ">
<polygon fill="white" stroke="black" points="1565,-112.5 1565,-131.5 1649,-131.5 1649,-112.5 1565,-112.5"/>
<text text-anchor="middle" x="1607" y="-119.5" font-family="Helvetica,sans-Serif" font-size="10.00">MeshMap.cpp</text>
</a>
</g>
</g>
<!-- Node5&#45;&gt;Node7 -->
<g id="edge5" class="edge">
<title>Node5&#45;&gt;Node7</title>
<path fill="none" stroke="midnightblue" d="M2167.74,-174.8C2074.5,-169.77 1847.74,-155.98 1659,-132 1655.82,-131.6 1652.54,-131.13 1649.24,-130.64"/>
<polygon fill="midnightblue" stroke="midnightblue" points="2167.74,-178.31 2177.92,-175.34 2168.12,-171.32 2167.74,-178.31"/>
</g>
<!-- Node8 -->
<g id="node7" class="node">
<title>Node8</title>
<g id="a_node7"><a xlink:href="_a_b_l_forcing_8cpp.html" target="_top" xlink:title=" ">
<polygon fill="white" stroke="black" points="1090.5,-0.5 1090.5,-19.5 1181.5,-19.5 1181.5,-0.5 1090.5,-0.5"/>
<text text-anchor="middle" x="1136" y="-7.5" font-family="Helvetica,sans-Serif" font-size="10.00">ABLForcing.cpp</text>
</a>
</g>
</g>
<!-- Node5&#45;&gt;Node8 -->
<g id="edge6" class="edge">
<title>Node5&#45;&gt;Node8</title>
<path fill="none" stroke="midnightblue" d="M2167.55,-176.92C1999.68,-176.35 1399,-171.51 1324,-132 1286.41,-112.2 1300.43,-80.9 1266,-56 1240.55,-37.6 1206.94,-26.23 1180.28,-19.52"/>
<polygon fill="midnightblue" stroke="midnightblue" points="2167.74,-180.43 2177.75,-176.96 2167.76,-173.43 2167.74,-180.43"/>
</g>
<!-- Node9 -->
<g id="node8" class="node">
<title>Node9</title>
<g id="a_node8"><a xlink:href="_a_b_l_mean_boussinesq_8cpp.html" target="_top" xlink:title=" ">
<polygon fill="white" stroke="black" points="1969,-0.5 1969,-19.5 2107,-19.5 2107,-0.5 1969,-0.5"/>
<text text-anchor="middle" x="2038" y="-7.5" font-family="Helvetica,sans-Serif" font-size="10.00">ABLMeanBoussinesq.cpp</text>
</a>
</g>
</g>
<!-- Node5&#45;&gt;Node9 -->
<g id="edge7" class="edge">
<title>Node5&#45;&gt;Node9</title>
<path fill="none" stroke="midnightblue" d="M2254.09,-167.51C2362.35,-155.16 2710.92,-179.02 2654,-112 2584.41,-30.07 2252.78,-14.47 2107.01,-11.6"/>
<polygon fill="midnightblue" stroke="midnightblue" points="2253.54,-164.05 2244.1,-168.86 2254.48,-170.98 2253.54,-164.05"/>
</g>
<!-- Node10 -->
<g id="node9" class="node">
<title>Node10</title>
<g id="a_node9"><a xlink:href="_actuator_forcing_8cpp.html" target="_top" xlink:title=" ">
<polygon fill="white" stroke="black" points="408.5,-112.5 408.5,-131.5 521.5,-131.5 521.5,-112.5 408.5,-112.5"/>
<text text-anchor="middle" x="465" y="-119.5" font-family="Helvetica,sans-Serif" font-size="10.00">ActuatorForcing.cpp</text>
</a>
</g>
</g>
<!-- Node5&#45;&gt;Node10 -->
<g id="edge8" class="edge">
<title>Node5&#45;&gt;Node10</title>
<path fill="none" stroke="midnightblue" d="M2167.39,-176.48C1937.33,-173.61 862.71,-158.98 531,-132 528,-131.76 524.93,-131.47 521.84,-131.15"/>
<polygon fill="midnightblue" stroke="midnightblue" points="2167.66,-179.98 2177.7,-176.6 2167.75,-172.98 2167.66,-179.98"/>
</g>
<!-- Node11 -->
<g id="node10" class="node">
<title>Node11</title>
<g id="a_node10"><a xlink:href="_body_force_8cpp.html" target="_top" xlink:title=" ">
<polygon fill="white" stroke="black" points="540,-112.5 540,-131.5 628,-131.5 628,-112.5 540,-112.5"/>
<text text-anchor="middle" x="584" y="-119.5" font-family="Helvetica,sans-Serif" font-size="10.00">BodyForce.cpp</text>
</a>
</g>
</g>
<!-- Node5&#45;&gt;Node11 -->
<g id="edge9" class="edge">
<title>Node5&#45;&gt;Node11</title>
<path fill="none" stroke="midnightblue" d="M2167.68,-176.58C1946.99,-174.32 946.16,-162.52 637,-132 634.12,-131.72 631.16,-131.37 628.18,-130.98"/>
<polygon fill="midnightblue" stroke="midnightblue" points="2167.85,-180.08 2177.89,-176.68 2167.93,-173.08 2167.85,-180.08"/>
</g>
<!-- Node12 -->
<g id="node11" class="node">
<title>Node12</title>
<g id="a_node11"><a xlink:href="_boussinesq_buoyancy_8cpp.html" target="_top" xlink:title=" ">
<polygon fill="white" stroke="black" points="1667.5,-112.5 1667.5,-131.5 1806.5,-131.5 1806.5,-112.5 1667.5,-112.5"/>
<text text-anchor="middle" x="1737" y="-119.5" font-family="Helvetica,sans-Serif" font-size="10.00">BoussinesqBuoyancy.cpp</text>
</a>
</g>
</g>
<!-- Node5&#45;&gt;Node12 -->
<g id="edge10" class="edge">
<title>Node5&#45;&gt;Node12</title>
<path fill="none" stroke="midnightblue" d="M2167.66,-172.06C2085.36,-162.69 1905.83,-142.23 1806.52,-130.92"/>
<polygon fill="midnightblue" stroke="midnightblue" points="2167.34,-175.55 2177.67,-173.2 2168.13,-168.59 2167.34,-175.55"/>
</g>
<!-- Node13 -->
<g id="node12" class="node">
<title>Node13</title>
<g id="a_node12"><a xlink:href="_burggraf_flow_forcing_8cpp.html" target="_top" xlink:title=" ">
<polygon fill="white" stroke="black" points="646.5,-112.5 646.5,-131.5 783.5,-131.5 783.5,-112.5 646.5,-112.5"/>
<text text-anchor="middle" x="715" y="-119.5" font-family="Helvetica,sans-Serif" font-size="10.00">BurggrafFlowForcing.cpp</text>
</a>
</g>
</g>
<!-- Node5&#45;&gt;Node13 -->
<g id="edge11" class="edge">
<title>Node5&#45;&gt;Node13</title>
<path fill="none" stroke="midnightblue" d="M2167.7,-176.96C1994.37,-176.53 1333.71,-172.18 792,-132 789.32,-131.8 786.58,-131.58 783.82,-131.34"/>
<polygon fill="midnightblue" stroke="midnightblue" points="2167.94,-180.46 2177.95,-176.98 2167.95,-173.46 2167.94,-180.46"/>
</g>
<!-- Node14 -->
<g id="node13" class="node">
<title>Node14</title>
<g id="a_node13"><a xlink:href="_coriolis_forcing_8cpp.html" target="_top" xlink:title=" ">
<polygon fill="white" stroke="black" points="1824.5,-112.5 1824.5,-131.5 1933.5,-131.5 1933.5,-112.5 1824.5,-112.5"/>
<text text-anchor="middle" x="1879" y="-119.5" font-family="Helvetica,sans-Serif" font-size="10.00">CoriolisForcing.cpp</text>
</a>
</g>
</g>
<!-- Node5&#45;&gt;Node14 -->
<g id="edge12" class="edge">
<title>Node5&#45;&gt;Node14</title>
<path fill="none" stroke="midnightblue" d="M2167.94,-170C2107.28,-160.13 1996.79,-142.16 1931.42,-131.53"/>
<polygon fill="midnightblue" stroke="midnightblue" points="2167.52,-173.47 2177.95,-171.62 2168.64,-166.56 2167.52,-173.47"/>
</g>
<!-- Node15 -->
<g id="node14" class="node">
<title>Node15</title>
<g id="a_node14"><a xlink:href="_density_buoyancy_8cpp.html" target="_top" xlink:title=" ">
<polygon fill="white" stroke="black" points="1951.5,-112.5 1951.5,-131.5 2072.5,-131.5 2072.5,-112.5 1951.5,-112.5"/>
<text text-anchor="middle" x="2012" y="-119.5" font-family="Helvetica,sans-Serif" font-size="10.00">DensityBuoyancy.cpp</text>
</a>
</g>
</g>
<!-- Node5&#45;&gt;Node15 -->
<g id="edge13" class="edge">
<title>Node5&#45;&gt;Node15</title>
<path fill="none" stroke="midnightblue" d="M2169.35,-165.7C2131.79,-155.51 2077.39,-140.74 2043.38,-131.52"/>
<polygon fill="midnightblue" stroke="midnightblue" points="2168.9,-169.2 2179.47,-168.44 2170.73,-162.45 2168.9,-169.2"/>
</g>
<!-- Node16 -->
<g id="node15" class="node">
<title>Node16</title>
<g id="a_node15"><a xlink:href="_geostrophic_forcing_8cpp.html" target="_top" xlink:title=" ">
<polygon fill="white" stroke="black" points="801.5,-112.5 801.5,-131.5 932.5,-131.5 932.5,-112.5 801.5,-112.5"/>
<text text-anchor="middle" x="867" y="-119.5" font-family="Helvetica,sans-Serif" font-size="10.00">GeostrophicForcing.cpp</text>
</a>
</g>
</g>
<!-- Node5&#45;&gt;Node16 -->
<g id="edge14" class="edge">
<title>Node5&#45;&gt;Node16</title>
<path fill="none" stroke="midnightblue" d="M2167.56,-176.78C2005.59,-175.68 1421.6,-169.21 942,-132 938.99,-131.77 935.92,-131.5 932.82,-131.22"/>
<polygon fill="midnightblue" stroke="midnightblue" points="2167.59,-180.28 2177.61,-176.85 2167.63,-173.28 2167.59,-180.28"/>
</g>
<!-- Node17 -->
<g id="node16" class="node">
<title>Node17</title>
<g id="a_node16"><a xlink:href="_gravity_forcing_8cpp.html" target="_top" xlink:title=" ">
<polygon fill="white" stroke="black" points="2091,-112.5 2091,-131.5 2199,-131.5 2199,-112.5 2091,-112.5"/>
<text text-anchor="middle" x="2145" y="-119.5" font-family="Helvetica,sans-Serif" font-size="10.00">GravityForcing.cpp</text>
</a>
</g>
</g>
<!-- Node5&#45;&gt;Node17 -->
<g id="edge15" class="edge">
<title>Node5&#45;&gt;Node17</title>
<path fill="none" stroke="midnightblue" d="M2192.45,-161.82C2180.62,-152.15 2165.71,-139.95 2155.8,-131.83"/>
<polygon fill="midnightblue" stroke="midnightblue" points="2190.44,-164.7 2200.4,-168.32 2194.87,-159.28 2190.44,-164.7"/>
</g>
<!-- Node18 -->
<g id="node17" class="node">
<title>Node18</title>
<g id="a_node17"><a xlink:href="_hurricane_forcing_8cpp.html" target="_top" xlink:title=" ">
<polygon fill="white" stroke="black" points="1231.5,-0.5 1231.5,-19.5 1350.5,-19.5 1350.5,-0.5 1231.5,-0.5"/>
<text text-anchor="middle" x="1291" y="-7.5" font-family="Helvetica,sans-Serif" font-size="10.00">HurricaneForcing.cpp</text>
</a>
</g>
</g>
<!-- Node5&#45;&gt;Node18 -->
<g id="edge16" class="edge">
<title>Node5&#45;&gt;Node18</title>
<path fill="none" stroke="midnightblue" d="M2167.64,-177.4C2001.46,-178.58 1411,-179.36 1343,-132 1323.21,-118.21 1300.72,-44.95 1293.42,-19.62"/>
<polygon fill="midnightblue" stroke="midnightblue" points="2167.99,-180.9 2177.96,-177.32 2167.94,-173.9 2167.99,-180.9"/>
</g>
<!-- Node19 -->
<g id="node18" class="node">
<title>Node19</title>
<g id="a_node18"><a xlink:href="_rayleigh_damping_8cpp.html" target="_top" xlink:title=" ">
<polygon fill="white" stroke="black" points="951,-112.5 951,-131.5 1075,-131.5 1075,-112.5 951,-112.5"/>
<text text-anchor="middle" x="1013" y="-119.5" font-family="Helvetica,sans-Serif" font-size="10.00">RayleighDamping.cpp</text>
</a>
</g>
</g>
<!-- Node5&#45;&gt;Node19 -->
<g id="edge17" class="edge">
<title>Node5&#45;&gt;Node19</title>
<path fill="none" stroke="midnightblue" d="M2167.55,-176.61C2017.2,-174.98 1505.16,-167.04 1084,-132 1081.15,-131.76 1078.24,-131.5 1075.31,-131.21"/>
<polygon fill="midnightblue" stroke="midnightblue" points="2167.71,-180.11 2177.75,-176.72 2167.78,-173.11 2167.71,-180.11"/>
</g>
<!-- Node20 -->
<g id="node19" class="node">
<title>Node20</title>
<g id="a_node19"><a xlink:href="_synth_turb_forcing_8cpp.html" target="_top" xlink:title=" ">
<polygon fill="white" stroke="black" points="2217,-112.5 2217,-131.5 2337,-131.5 2337,-112.5 2217,-112.5"/>
<text text-anchor="middle" x="2277" y="-119.5" font-family="Helvetica,sans-Serif" font-size="10.00">SynthTurbForcing.cpp</text>
</a>
</g>
</g>
<!-- Node5&#45;&gt;Node20 -->
<g id="edge18" class="edge">
<title>Node5&#45;&gt;Node20</title>
<path fill="none" stroke="midnightblue" d="M2229.55,-161.82C2241.38,-152.15 2256.29,-139.95 2266.2,-131.83"/>
<polygon fill="midnightblue" stroke="midnightblue" points="2227.13,-159.28 2221.6,-168.32 2231.56,-164.7 2227.13,-159.28"/>
</g>
<!-- Node21 -->
<g id="node20" class="node">
<title>Node21</title>
<g id="a_node20"><a xlink:href="_p_d_e_8_h.html" target="_top" xlink:title=" ">
<polygon fill="white" stroke="red" points="2694.5,-0.5 2694.5,-19.5 2741.5,-19.5 2741.5,-0.5 2694.5,-0.5"/>
<text text-anchor="middle" x="2718" y="-7.5" font-family="Helvetica,sans-Serif" font-size="10.00">PDE.H</text>
</a>
</g>
</g>
<!-- Node5&#45;&gt;Node21 -->
<g id="edge19" class="edge">
<title>Node5&#45;&gt;Node21</title>
<path fill="none" stroke="midnightblue" d="M2254.12,-167.48C2365.75,-154.48 2624.48,-188.86 2705,-132 2734.05,-111.49 2734.62,-91.26 2730,-56 2728.32,-43.17 2724.05,-28.8 2721.09,-19.83"/>
<polygon fill="midnightblue" stroke="midnightblue" points="2253.54,-164.03 2244.1,-168.84 2254.48,-170.97 2253.54,-164.03"/>
</g>
<!-- Node53 -->
<g id="node21" class="node">
<title>Node53</title>
<g id="a_node21"><a xlink:href="_p_d_e_base_8cpp.html" target="_top" xlink:title=" ">
<polygon fill="white" stroke="black" points="1177,-56.5 1177,-75.5 1257,-75.5 1257,-56.5 1177,-56.5"/>
<text text-anchor="middle" x="1217" y="-63.5" font-family="Helvetica,sans-Serif" font-size="10.00">PDEBase.cpp</text>
</a>
</g>
</g>
<!-- Node5&#45;&gt;Node53 -->
<g id="edge20" class="edge">
<title>Node5&#45;&gt;Node53</title>
<path fill="none" stroke="midnightblue" d="M2167.88,-176.97C1994.25,-176.56 1351.82,-172.31 1271,-132 1246.32,-119.69 1228.77,-90.4 1221.18,-75.72"/>
<polygon fill="midnightblue" stroke="midnightblue" points="2167.92,-180.47 2177.92,-176.99 2167.93,-173.47 2167.92,-180.47"/>
</g>
<!-- Node54 -->
<g id="node22" class="node">
<title>Node54</title>
<g id="a_node22"><a xlink:href="_p_d_e_ops_8_h.html" target="_top" xlink:title=" ">
<polygon fill="white" stroke="red" points="2655.5,-56.5 2655.5,-75.5 2720.5,-75.5 2720.5,-56.5 2655.5,-56.5"/>
<text text-anchor="middle" x="2688" y="-63.5" font-family="Helvetica,sans-Serif" font-size="10.00">PDEOps.H</text>
</a>
</g>
</g>
<!-- Node5&#45;&gt;Node54 -->
<g id="edge21" class="edge">
<title>Node5&#45;&gt;Node54</title>
<path fill="none" stroke="midnightblue" d="M2254.13,-168.56C2255.44,-168.36 2256.73,-168.17 2258,-168 2305.39,-161.49 2654.35,-166.96 2687,-132 2701.17,-116.82 2695.49,-89.88 2691.17,-75.93"/>
<polygon fill="midnightblue" stroke="midnightblue" points="2253.35,-165.14 2244.05,-170.22 2254.49,-172.05 2253.35,-165.14"/>
</g>
<!-- Node64 -->
<g id="node23" class="node">
<title>Node64</title>
<g id="a_node23"><a xlink:href="_s_d_r_src_8cpp.html" target="_top" xlink:title=" ">
<polygon fill="white" stroke="black" points="2355,-112.5 2355,-131.5 2427,-131.5 2427,-112.5 2355,-112.5"/>
<text text-anchor="middle" x="2391" y="-119.5" font-family="Helvetica,sans-Serif" font-size="10.00">SDRSrc.cpp</text>
</a>
</g>
</g>
<!-- Node5&#45;&gt;Node64 -->
<g id="edge23" class="edge">
<title>Node5&#45;&gt;Node64</title>
<path fill="none" stroke="midnightblue" d="M2249.11,-165.57C2283.06,-155.38 2331.99,-140.7 2362.61,-131.52"/>
<polygon fill="midnightblue" stroke="midnightblue" points="2248.09,-162.22 2239.52,-168.44 2250.11,-168.92 2248.09,-162.22"/>
</g>
<!-- Node65 -->
<g id="node24" class="node">
<title>Node65</title>
<g id="a_node24"><a xlink:href="_ksgs_m84_src_8cpp.html" target="_top" xlink:title=" ">
<polygon fill="white" stroke="black" points="2445,-112.5 2445,-131.5 2541,-131.5 2541,-112.5 2445,-112.5"/>
<text text-anchor="middle" x="2493" y="-119.5" font-family="Helvetica,sans-Serif" font-size="10.00">KsgsM84Src.cpp</text>
</a>
</g>
</g>
<!-- Node5&#45;&gt;Node65 -->
<g id="edge24" class="edge">
<title>Node5&#45;&gt;Node65</title>
<path fill="none" stroke="midnightblue" d="M2254.2,-168.73C2306.78,-158.66 2395.13,-141.74 2448.36,-131.55"/>
<polygon fill="midnightblue" stroke="midnightblue" points="2253.34,-165.33 2244.18,-170.65 2254.66,-172.2 2253.34,-165.33"/>
</g>
<!-- Node66 -->
<g id="node25" class="node">
<title>Node66</title>
<g id="a_node25"><a xlink:href="_kw_s_s_t_src_8cpp.html" target="_top" xlink:title=" ">
<polygon fill="white" stroke="black" points="2559.5,-112.5 2559.5,-131.5 2644.5,-131.5 2644.5,-112.5 2559.5,-112.5"/>
<text text-anchor="middle" x="2602" y="-119.5" font-family="Helvetica,sans-Serif" font-size="10.00">KwSSTSrc.cpp</text>
</a>
</g>
</g>
<!-- Node5&#45;&gt;Node66 -->
<g id="edge25" class="edge">
<title>Node5&#45;&gt;Node66</title>
<path fill="none" stroke="midnightblue" d="M2254.14,-168.62C2255.44,-168.41 2256.73,-168.2 2258,-168 2387.17,-147.69 2420.65,-151.16 2550,-132 2553.08,-131.54 2556.26,-131.05 2559.46,-130.54"/>
<polygon fill="midnightblue" stroke="midnightblue" points="2253.33,-165.21 2244.08,-170.38 2254.53,-172.11 2253.33,-165.21"/>
</g>
<!-- Node5&#45;&gt;Node67 -->
<g id="edge26" class="edge">
<title>Node5&#45;&gt;Node67</title>
<path fill="none" stroke="midnightblue" d="M2254.46,-167.47C2765.71,-112.29 2904.05,-201.13 3414,-132 3419.76,-131.22 3425.94,-129.91 3431.92,-128.53"/>
<polygon fill="midnightblue" stroke="midnightblue" points="2253.79,-164.02 2244.23,-168.59 2254.55,-170.98 2253.79,-164.02"/>
</g>
<!-- Node69 -->
<g id="node27" class="node">
<title>Node69</title>
<g id="a_node27"><a xlink:href="_i_b_8cpp.html" target="_top" xlink:title=" ">
<polygon fill="white" stroke="black" points="2777.5,-112.5 2777.5,-131.5 2824.5,-131.5 2824.5,-112.5 2777.5,-112.5"/>
<text text-anchor="middle" x="2801" y="-119.5" font-family="Helvetica,sans-Serif" font-size="10.00">IB.cpp</text>
</a>
</g>
</g>
<!-- Node5&#45;&gt;Node69 -->
<g id="edge28" class="edge">
<title>Node5&#45;&gt;Node69</title>
<path fill="none" stroke="midnightblue" d="M2254.13,-168.54C2255.43,-168.35 2256.73,-168.17 2258,-168 2481.11,-138.79 2540.58,-166.04 2763,-132 2767.69,-131.28 2772.66,-130.28 2777.4,-129.21"/>
<polygon fill="midnightblue" stroke="midnightblue" points="2253.36,-165.12 2244.04,-170.16 2254.47,-172.03 2253.36,-165.12"/>
</g>
<!-- Node70 -->
<g id="node28" class="node">
<title>Node70</title>
<g id="a_node28"><a xlink:href="_i_b_ops_8_h.html" target="_top" xlink:title=" ">
<polygon fill="white" stroke="red" points="2843,-112.5 2843,-131.5 2899,-131.5 2899,-112.5 2843,-112.5"/>
<text text-anchor="middle" x="2871" y="-119.5" font-family="Helvetica,sans-Serif" font-size="10.00">IBOps.H</text>
</a>
</g>
</g>
<!-- Node5&#45;&gt;Node70 -->
<g id="edge29" class="edge">
<title>Node5&#45;&gt;Node70</title>
<path fill="none" stroke="midnightblue" d="M2254.13,-168.52C2255.43,-168.34 2256.73,-168.16 2258,-168 2512.47,-135.82 2580.4,-170.46 2834,-132 2836.88,-131.56 2839.86,-131.01 2842.82,-130.4"/>
<polygon fill="midnightblue" stroke="midnightblue" points="2253.37,-165.1 2244.04,-170.13 2254.47,-172.01 2253.37,-165.1"/>
</g>
<!-- Node5&#45;&gt;Node80 -->
<g id="edge30" class="edge">
<title>Node5&#45;&gt;Node80</title>
<path fill="none" stroke="midnightblue" d="M2254,-171.81C2267.43,-170.36 2282.31,-168.93 2296,-168 2828.79,-131.86 2968.02,-205.18 3497,-132 3500.06,-131.58 3503.24,-130.99 3506.39,-130.33"/>
<polygon fill="midnightblue" stroke="midnightblue" points="2253.6,-168.33 2244.05,-172.91 2254.38,-175.29 2253.6,-168.33"/>
</g>
<!-- Node92 -->
<g id="node30" class="node">
<title>Node92</title>
<g id="a_node30"><a xlink:href="_ocean_waves_8cpp.html" target="_top" xlink:title=" ">
<polygon fill="white" stroke="black" points="2917,-112.5 2917,-131.5 3017,-131.5 3017,-112.5 2917,-112.5"/>
<text text-anchor="middle" x="2967" y="-119.5" font-family="Helvetica,sans-Serif" font-size="10.00">OceanWaves.cpp</text>
</a>
</g>
</g>
<!-- Node5&#45;&gt;Node92 -->
<g id="edge31" class="edge">
<title>Node5&#45;&gt;Node92</title>
<path fill="none" stroke="midnightblue" d="M2254.13,-168.51C2255.43,-168.33 2256.72,-168.16 2258,-168 2545.17,-132.71 2620.21,-161.85 2908,-132 2910.89,-131.7 2913.85,-131.36 2916.83,-130.99"/>
<polygon fill="midnightblue" stroke="midnightblue" points="2253.37,-165.09 2244.04,-170.1 2254.46,-172 2253.37,-165.09"/>
</g>
<!-- Node93 -->
<g id="node31" class="node">
<title>Node93</title>
<g id="a_node31"><a xlink:href="_ocean_waves_ops_8_h.html" target="_top" xlink:title=" ">
<polygon fill="white" stroke="red" points="3035.5,-112.5 3035.5,-131.5 3144.5,-131.5 3144.5,-112.5 3035.5,-112.5"/>
<text text-anchor="middle" x="3090" y="-119.5" font-family="Helvetica,sans-Serif" font-size="10.00">OceanWavesOps.H</text>
</a>
</g>
</g>
<!-- Node5&#45;&gt;Node93 -->
<g id="edge32" class="edge">
<title>Node5&#45;&gt;Node93</title>
<path fill="none" stroke="midnightblue" d="M2254.13,-168.5C2255.43,-168.32 2256.72,-168.15 2258,-168 2597.33,-127.77 2685.78,-163.83 3026,-132 3029.02,-131.72 3032.11,-131.4 3035.23,-131.04"/>
<polygon fill="midnightblue" stroke="midnightblue" points="2253.38,-165.07 2244.03,-170.06 2254.45,-171.99 2253.38,-165.07"/>
</g>
<!-- Node101 -->
<g id="node32" class="node">
<title>Node101</title>
<g id="a_node32"><a xlink:href="_tioga_interface_8cpp.html" target="_top" xlink:title=" ">
<polygon fill="white" stroke="black" points="3162.5,-112.5 3162.5,-131.5 3269.5,-131.5 3269.5,-112.5 3162.5,-112.5"/>
<text text-anchor="middle" x="3216" y="-119.5" font-family="Helvetica,sans-Serif" font-size="10.00">TiogaInterface.cpp</text>
</a>
</g>
</g>
<!-- Node5&#45;&gt;Node101 -->
<g id="edge33" class="edge">
<title>Node5&#45;&gt;Node101</title>
<path fill="none" stroke="midnightblue" d="M2254.12,-168.48C2255.43,-168.31 2256.72,-168.15 2258,-168 2653.93,-122.4 2757.15,-168.68 3154,-132 3156.71,-131.75 3159.48,-131.46 3162.27,-131.15"/>
<polygon fill="midnightblue" stroke="midnightblue" points="2253.38,-165.06 2244.03,-170.03 2254.44,-171.98 2253.38,-165.06"/>
</g>
<!-- Node102 -->
<g id="node33" class="node">
<title>Node102</title>
<g id="a_node33"><a xlink:href="_boussinesq_bubble_8cpp.html" target="_top" xlink:title=" ">
<polygon fill="white" stroke="black" points="3288,-112.5 3288,-131.5 3414,-131.5 3414,-112.5 3288,-112.5"/>
<text text-anchor="middle" x="3351" y="-119.5" font-family="Helvetica,sans-Serif" font-size="10.00">BoussinesqBubble.cpp</text>
</a>
</g>
</g>
<!-- Node5&#45;&gt;Node102 -->
<g id="edge34" class="edge">
<title>Node5&#45;&gt;Node102</title>
<path fill="none" stroke="midnightblue" d="M2254.12,-168.48C2255.43,-168.3 2256.72,-168.14 2258,-168 2709.2,-117.15 2826.39,-168.2 3279,-132 3281.89,-131.77 3284.84,-131.51 3287.82,-131.22"/>
<polygon fill="midnightblue" stroke="midnightblue" points="2253.39,-165.05 2244.03,-170.01 2254.44,-171.97 2253.39,-165.05"/>
</g>
<!-- Node103 -->
<g id="node34" class="node">
<title>Node103</title>
<g id="a_node34"><a xlink:href="_burggraf_flow_8cpp.html" target="_top" xlink:title=" ">
<polygon fill="white" stroke="black" points="1351.5,-112.5 1351.5,-131.5 1452.5,-131.5 1452.5,-112.5 1351.5,-112.5"/>
<text text-anchor="middle" x="1402" y="-119.5" font-family="Helvetica,sans-Serif" font-size="10.00">BurggrafFlow.cpp</text>
</a>
</g>
</g>
<!-- Node5&#45;&gt;Node103 -->
<g id="edge35" class="edge">
<title>Node5&#45;&gt;Node103</title>
<path fill="none" stroke="midnightblue" d="M2167.51,-175.74C2052.22,-172.1 1729.29,-160.02 1462,-132 1458.96,-131.68 1455.84,-131.32 1452.7,-130.93"/>
<polygon fill="midnightblue" stroke="midnightblue" points="2167.59,-179.24 2177.69,-176.05 2167.8,-172.25 2167.59,-179.24"/>
</g>
<!-- Node5&#45;&gt;Node60 -->
<g id="edge36" class="edge">
<title>Node5&#45;&gt;Node60</title>
<path fill="none" stroke="midnightblue" d="M2254.16,-173.38C2277.74,-171.51 2307.46,-169.36 2334,-168 2882.41,-139.96 3022.47,-185.26 3569,-132 3571.74,-131.73 3574.56,-131.41 3577.39,-131.05"/>
<polygon fill="midnightblue" stroke="midnightblue" points="2253.81,-169.89 2244.13,-174.18 2254.37,-176.87 2253.81,-169.89"/>
</g>
<!-- Node5&#45;&gt;Node152 -->
<g id="edge37" class="edge">
<title>Node5&#45;&gt;Node152</title>
<path fill="none" stroke="midnightblue" d="M2167.47,-176.09C2030.07,-172.98 1593.35,-161.31 1233,-132 1228.57,-131.64 1224.01,-131.22 1219.41,-130.77"/>
<polygon fill="midnightblue" stroke="midnightblue" points="2167.52,-179.59 2177.59,-176.32 2167.67,-172.59 2167.52,-179.59"/>
</g>
<!-- Node5&#45;&gt;Node165 -->
<g id="edge42" class="edge">
<title>Node5&#45;&gt;Node165</title>
<path fill="none" stroke="midnightblue" d="M2254.33,-174.25C2286.73,-172.27 2332.12,-169.66 2372,-168 2952.16,-143.79 3098.69,-171.71 3678,-132 3680.86,-131.8 3683.77,-131.58 3686.71,-131.34"/>
<polygon fill="midnightblue" stroke="midnightblue" points="2254.05,-170.76 2244.29,-174.86 2254.48,-177.74 2254.05,-170.76"/>
</g>
<!-- Node5&#45;&gt;Node221 -->
<g id="edge43" class="edge">
<title>Node5&#45;&gt;Node221</title>
<path fill="none" stroke="midnightblue" d="M2254.1,-174.8C2294.41,-172.8 2356.27,-169.89 2410,-168 3046.25,-145.62 3208.75,-197.71 3842,-132 3844.93,-131.7 3847.94,-131.31 3850.96,-130.88"/>
<polygon fill="midnightblue" stroke="midnightblue" points="2253.9,-171.31 2244.09,-175.3 2254.25,-178.3 2253.9,-171.31"/>
</g>
<!-- Node54&#45;&gt;Node21 -->
<g id="edge22" class="edge">
<title>Node54&#45;&gt;Node21</title>
<path fill="none" stroke="midnightblue" d="M2697.85,-47.27C2702.97,-38.05 2709.02,-27.17 2713.14,-19.75"/>
<polygon fill="midnightblue" stroke="midnightblue" points="2694.75,-45.64 2692.95,-56.08 2700.87,-49.04 2694.75,-45.64"/>
</g>
<!-- Node67&#45;&gt;Node5 -->
<g id="edge27" class="edge">
<title>Node67&#45;&gt;Node5</title>
<path fill="none" stroke="midnightblue" d="M3425.01,-132.89C2916.85,-200.41 2778.5,-111.48 2267,-168 2259.65,-168.81 2251.73,-170.15 2244.15,-171.54"/>
<polygon fill="midnightblue" stroke="midnightblue" points="3425.73,-136.32 3435.18,-131.52 3424.8,-129.39 3425.73,-136.32"/>
</g>
<!-- Node152&#45;&gt;Node161 -->
<g id="edge38" class="edge">
<title>Node152&#45;&gt;Node161</title>
<path fill="none" stroke="midnightblue" d="M1149.22,-102.69C1145.85,-93.59 1141.93,-83.01 1139.24,-75.75"/>
<polygon fill="midnightblue" stroke="midnightblue" points="1145.94,-103.92 1152.7,-112.08 1152.51,-101.49 1145.94,-103.92"/>
</g>
<!-- Node161&#45;&gt;Node8 -->
<g id="edge39" class="edge">
<title>Node161&#45;&gt;Node8</title>
<path fill="none" stroke="midnightblue" d="M1136,-45.8C1136,-36.91 1136,-26.78 1136,-19.75"/>
<polygon fill="midnightblue" stroke="midnightblue" points="1132.5,-46.08 1136,-56.08 1139.5,-46.08 1132.5,-46.08"/>
</g>
<!-- Node161&#45;&gt;Node9 -->
<g id="edge40" class="edge">
<title>Node161&#45;&gt;Node9</title>
<path fill="none" stroke="midnightblue" d="M1169.4,-56.2C1340.41,-30.19 1794.95,-16.9 1968.99,-12.59"/>
<polygon fill="midnightblue" stroke="midnightblue" points="1168.61,-52.78 1159.28,-57.81 1169.71,-59.69 1168.61,-52.78"/>
</g>
<!-- Node161&#45;&gt;Node18 -->
<g id="edge41" class="edge">
<title>Node161&#45;&gt;Node18</title>
<path fill="none" stroke="midnightblue" d="M1168.94,-53.52C1198.1,-43.36 1240.01,-28.76 1266.35,-19.59"/>
<polygon fill="midnightblue" stroke="midnightblue" points="1167.5,-50.32 1159.21,-56.92 1169.8,-56.93 1167.5,-50.32"/>
</g>
<!-- Node223&#45;&gt;Node2 -->
<g id="edge46" class="edge">
<title>Node223&#45;&gt;Node2</title>
<path fill="none" stroke="midnightblue" d="M130,-164.1C108.89,-154.01 80.14,-140.27 61.82,-131.52"/>
<polygon fill="midnightblue" stroke="midnightblue" points="128.56,-167.29 139.09,-168.44 131.58,-160.97 128.56,-167.29"/>
</g>
<!-- Node223&#45;&gt;Node222 -->
<g id="edge47" class="edge">
<title>Node223&#45;&gt;Node222</title>
<path fill="none" stroke="midnightblue" d="M152.18,-158.4C149.83,-149.36 147.13,-138.94 145.27,-131.75"/>
<polygon fill="midnightblue" stroke="midnightblue" points="148.79,-159.28 154.69,-168.08 155.57,-157.52 148.79,-159.28"/>
</g>
<!-- Node223&#45;&gt;Node224 -->
<g id="edge48" class="edge">
<title>Node223&#45;&gt;Node224</title>
<path fill="none" stroke="midnightblue" d="M196.97,-165.7C233.02,-155.51 285.24,-140.74 317.88,-131.52"/>
<polygon fill="midnightblue" stroke="midnightblue" points="195.94,-162.35 187.26,-168.44 197.84,-169.09 195.94,-162.35"/>
</g>
<!-- Node224&#45;&gt;Node53 -->
<g id="edge49" class="edge">
<title>Node224&#45;&gt;Node53</title>
<path fill="none" stroke="midnightblue" d="M400.39,-112C740.82,-74.98 831.4,-114.61 1168,-76 1170.92,-75.66 1173.93,-75.26 1176.95,-74.81"/>
<polygon fill="midnightblue" stroke="midnightblue" points="399.8,-108.54 390.24,-113.12 400.56,-115.5 399.8,-108.54"/>
</g>
<!-- Node224&#45;&gt;Node54 -->
<g id="edge50" class="edge">
<title>Node224&#45;&gt;Node54</title>
<path fill="none" stroke="midnightblue" d="M400.47,-112.05C886.64,-66.6 2412.42,-66.65 2655.28,-66.95"/>
<polygon fill="midnightblue" stroke="midnightblue" points="399.85,-108.59 390.23,-113.03 400.52,-115.56 399.85,-108.59"/>
</g>
<!-- Node226&#45;&gt;Node8 -->
<g id="edge53" class="edge">
<title>Node226&#45;&gt;Node8</title>
<path fill="none" stroke="midnightblue" d="M697.86,-59.38C793.52,-48.82 998.81,-26.15 1090.33,-16.04"/>
<polygon fill="midnightblue" stroke="midnightblue" points="697.41,-55.91 687.85,-60.49 698.17,-62.87 697.41,-55.91"/>
</g>
<!-- Node227&#45;&gt;Node10 -->
<g id="edge55" class="edge">
<title>Node227&#45;&gt;Node10</title>
<path fill="none" stroke="midnightblue" d="M471.5,-158.1C469.84,-149.14 467.94,-138.86 466.62,-131.75"/>
<polygon fill="midnightblue" stroke="midnightblue" points="468.09,-158.89 473.35,-168.08 474.97,-157.61 468.09,-158.89"/>
</g>
<!-- Node228&#45;&gt;Node11 -->
<g id="edge57" class="edge">
<title>Node228&#45;&gt;Node11</title>
<path fill="none" stroke="midnightblue" d="M587.25,-158.1C586.42,-149.14 585.47,-138.86 584.81,-131.75"/>
<polygon fill="midnightblue" stroke="midnightblue" points="583.77,-158.45 588.17,-168.08 590.74,-157.8 583.77,-158.45"/>
</g>
<!-- Node229&#45;&gt;Node13 -->
<g id="edge59" class="edge">
<title>Node229&#45;&gt;Node13</title>
<path fill="none" stroke="midnightblue" d="M717.6,-158.1C716.94,-149.14 716.17,-138.86 715.65,-131.75"/>
<polygon fill="midnightblue" stroke="midnightblue" points="714.11,-158.37 718.34,-168.08 721.09,-157.85 714.11,-158.37"/>
</g>
<!-- Node230&#45;&gt;Node16 -->
<g id="edge61" class="edge">
<title>Node230&#45;&gt;Node16</title>
<path fill="none" stroke="midnightblue" d="M868.29,-157.8C867.96,-148.91 867.58,-138.78 867.32,-131.75"/>
<polygon fill="midnightblue" stroke="midnightblue" points="864.8,-158.22 868.67,-168.08 871.8,-157.96 864.8,-158.22"/>
</g>
<!-- Node231&#45;&gt;Node19 -->
<g id="edge63" class="edge">
<title>Node231&#45;&gt;Node19</title>
<path fill="none" stroke="midnightblue" d="M1009.75,-158.1C1010.58,-149.14 1011.53,-138.86 1012.19,-131.75"/>
<polygon fill="midnightblue" stroke="midnightblue" points="1006.26,-157.8 1008.83,-168.08 1013.23,-158.45 1006.26,-157.8"/>
</g>
</g>
</svg>
