<?xml version="1.0" encoding="UTF-8" standalone="no"?>
<!DOCTYPE svg PUBLIC "-//W3C//DTD SVG 1.1//EN"
 "http://www.w3.org/Graphics/SVG/1.1/DTD/svg11.dtd">
<!-- Generated by graphviz version 2.43.0 (0)
 -->
<!-- Title: TransportModel.H Pages: 1 -->
<svg width="652pt" height="252pt"
 viewBox="0.00 0.00 651.50 252.00" xmlns="http://www.w3.org/2000/svg" xmlns:xlink="http://www.w3.org/1999/xlink">
<g id="graph0" class="graph" transform="scale(1 1) rotate(0) translate(4 248)">
<title>TransportModel.H</title>
<polygon fill="white" stroke="transparent" points="-4,4 -4,-248 647.5,-248 647.5,4 -4,4"/>
<!-- Node1 -->
<g id="node1" class="node">
<title>Node1</title>
<g id="a_node1"><a xlink:title=" ">
<polygon fill="#bfbfbf" stroke="black" points="311.5,-224.5 311.5,-243.5 413.5,-243.5 413.5,-224.5 311.5,-224.5"/>
<text text-anchor="middle" x="362.5" y="-231.5" font-family="Helvetica,sans-Serif" font-size="10.00">TransportModel.H</text>
</a>
</g>
</g>
<!-- Node2 -->
<g id="node2" class="node">
<title>Node2</title>
<g id="a_node2"><a xlink:href="_const_transport_8_h.html" target="_top" xlink:title=" ">
<polygon fill="white" stroke="black" points="248.5,-168.5 248.5,-187.5 348.5,-187.5 348.5,-168.5 248.5,-168.5"/>
<text text-anchor="middle" x="298.5" y="-175.5" font-family="Helvetica,sans-Serif" font-size="10.00">ConstTransport.H</text>
</a>
</g>
</g>
<!-- Node1&#45;&gt;Node2 -->
<g id="edge1" class="edge">
<title>Node1&#45;&gt;Node2</title>
<path fill="none" stroke="midnightblue" d="M344.51,-217.82C333.04,-208.15 318.59,-195.95 308.97,-187.83"/>
<polygon fill="midnightblue" stroke="midnightblue" points="342.32,-220.55 352.22,-224.32 346.83,-215.2 342.32,-220.55"/>
</g>
<!-- Node11 -->
<g id="node11" class="node">
<title>Node11</title>
<g id="a_node11"><a xlink:href="_two_phase_transport_8_h.html" target="_top" xlink:title=" ">
<polygon fill="white" stroke="black" points="366.5,-168.5 366.5,-187.5 486.5,-187.5 486.5,-168.5 366.5,-168.5"/>
<text text-anchor="middle" x="426.5" y="-175.5" font-family="Helvetica,sans-Serif" font-size="10.00">TwoPhaseTransport.H</text>
</a>
</g>
</g>
<!-- Node1&#45;&gt;Node11 -->
<g id="edge12" class="edge">
<title>Node1&#45;&gt;Node11</title>
<path fill="none" stroke="midnightblue" d="M380.49,-217.82C391.96,-208.15 406.41,-195.95 416.03,-187.83"/>
<polygon fill="midnightblue" stroke="midnightblue" points="378.17,-215.2 372.78,-224.32 382.68,-220.55 378.17,-215.2"/>
</g>
<!-- Node3 -->
<g id="node3" class="node">
<title>Node3</title>
<g id="a_node3"><a xlink:href="_turb_model_defs_8_h.html" target="_top" xlink:title=" ">
<polygon fill="white" stroke="black" points="312.5,-112.5 312.5,-131.5 412.5,-131.5 412.5,-112.5 312.5,-112.5"/>
<text text-anchor="middle" x="362.5" y="-119.5" font-family="Helvetica,sans-Serif" font-size="10.00">TurbModelDefs.H</text>
</a>
</g>
</g>
<!-- Node2&#45;&gt;Node3 -->
<g id="edge2" class="edge">
<title>Node2&#45;&gt;Node3</title>
<path fill="none" stroke="midnightblue" d="M316.49,-161.82C327.96,-152.15 342.41,-139.95 352.03,-131.83"/>
<polygon fill="midnightblue" stroke="midnightblue" points="314.17,-159.2 308.78,-168.32 318.68,-164.55 314.17,-159.2"/>
</g>
<!-- Node4 -->
<g id="node4" class="node">
<title>Node4</title>
<g id="a_node4"><a xlink:href="_laminar_model_8cpp.html" target="_top" xlink:title=" ">
<polygon fill="white" stroke="black" points="0,-56.5 0,-75.5 107,-75.5 107,-56.5 0,-56.5"/>
<text text-anchor="middle" x="53.5" y="-63.5" font-family="Helvetica,sans-Serif" font-size="10.00">LaminarModel.cpp</text>
</a>
</g>
</g>
<!-- Node3&#45;&gt;Node4 -->
<g id="edge3" class="edge">
<title>Node3&#45;&gt;Node4</title>
<path fill="none" stroke="midnightblue" d="M303.36,-110.66C244.96,-100.46 156.72,-85.04 102.23,-75.52"/>
<polygon fill="midnightblue" stroke="midnightblue" points="303.08,-114.17 313.54,-112.44 304.29,-107.27 303.08,-114.17"/>
</g>
<!-- Node5 -->
<g id="node5" class="node">
<title>Node5</title>
<g id="a_node5"><a xlink:href="_a_m_d_8cpp.html" target="_top" xlink:title=" ">
<polygon fill="white" stroke="black" points="125.5,-56.5 125.5,-75.5 185.5,-75.5 185.5,-56.5 125.5,-56.5"/>
<text text-anchor="middle" x="155.5" y="-63.5" font-family="Helvetica,sans-Serif" font-size="10.00">AMD.cpp</text>
</a>
</g>
</g>
<!-- Node3&#45;&gt;Node5 -->
<g id="edge4" class="edge">
<title>Node3&#45;&gt;Node5</title>
<path fill="none" stroke="midnightblue" d="M319.97,-109.91C280.01,-99.48 221.19,-84.14 185.79,-74.9"/>
<polygon fill="midnightblue" stroke="midnightblue" points="319.14,-113.31 329.7,-112.44 320.91,-106.53 319.14,-113.31"/>
</g>
<!-- Node6 -->
<g id="node6" class="node">
<title>Node6</title>
<g id="a_node6"><a xlink:href="_one_eq_ksgs_8cpp.html" target="_top" xlink:title=" ">
<polygon fill="white" stroke="black" points="203.5,-56.5 203.5,-75.5 295.5,-75.5 295.5,-56.5 203.5,-56.5"/>
<text text-anchor="middle" x="249.5" y="-63.5" font-family="Helvetica,sans-Serif" font-size="10.00">OneEqKsgs.cpp</text>
</a>
</g>
</g>
<!-- Node3&#45;&gt;Node6 -->
<g id="edge5" class="edge">
<title>Node3&#45;&gt;Node6</title>
<path fill="none" stroke="midnightblue" d="M335.5,-108.1C314.39,-98.01 285.64,-84.27 267.32,-75.52"/>
<polygon fill="midnightblue" stroke="midnightblue" points="334.06,-111.29 344.59,-112.44 337.08,-104.97 334.06,-111.29"/>
</g>
<!-- Node7 -->
<g id="node7" class="node">
<title>Node7</title>
<g id="a_node7"><a xlink:href="_smagorinsky_8cpp.html" target="_top" xlink:title=" ">
<polygon fill="white" stroke="black" points="313.5,-56.5 313.5,-75.5 411.5,-75.5 411.5,-56.5 313.5,-56.5"/>
<text text-anchor="middle" x="362.5" y="-63.5" font-family="Helvetica,sans-Serif" font-size="10.00">Smagorinsky.cpp</text>
</a>
</g>
</g>
<!-- Node3&#45;&gt;Node7 -->
<g id="edge6" class="edge">
<title>Node3&#45;&gt;Node7</title>
<path fill="none" stroke="midnightblue" d="M362.5,-101.8C362.5,-92.91 362.5,-82.78 362.5,-75.75"/>
<polygon fill="midnightblue" stroke="midnightblue" points="359,-102.08 362.5,-112.08 366,-102.08 359,-102.08"/>
</g>
<!-- Node8 -->
<g id="node8" class="node">
<title>Node8</title>
<g id="a_node8"><a xlink:href="_k_omega_s_s_t_8cpp.html" target="_top" xlink:title=" ">
<polygon fill="white" stroke="black" points="400,-0.5 400,-19.5 495,-19.5 495,-0.5 400,-0.5"/>
<text text-anchor="middle" x="447.5" y="-7.5" font-family="Helvetica,sans-Serif" font-size="10.00">KOmegaSST.cpp</text>
</a>
</g>
</g>
<!-- Node3&#45;&gt;Node8 -->
<g id="edge7" class="edge">
<title>Node3&#45;&gt;Node8</title>
<path fill="none" stroke="midnightblue" d="M386.03,-106.9C397.64,-99 411.13,-88.27 420.5,-76 434,-58.33 441.95,-32.93 445.42,-19.72"/>
<polygon fill="midnightblue" stroke="midnightblue" points="384.09,-103.99 377.62,-112.38 387.91,-109.86 384.09,-103.99"/>
</g>
<!-- Node9 -->
<g id="node9" class="node">
<title>Node9</title>
<g id="a_node9"><a xlink:href="_k_omega_s_s_t_i_8_h.html" target="_top" xlink:title=" ">
<polygon fill="white" stroke="black" points="468,-56.5 468,-75.5 557,-75.5 557,-56.5 468,-56.5"/>
<text text-anchor="middle" x="512.5" y="-63.5" font-family="Helvetica,sans-Serif" font-size="10.00">KOmegaSSTI.H</text>
</a>
</g>
</g>
<!-- Node3&#45;&gt;Node9 -->
<g id="edge8" class="edge">
<title>Node3&#45;&gt;Node9</title>
<path fill="none" stroke="midnightblue" d="M395.72,-109.04C423.95,-98.88 463.76,-84.55 488.84,-75.52"/>
<polygon fill="midnightblue" stroke="midnightblue" points="394.49,-105.76 386.27,-112.44 396.86,-112.35 394.49,-105.76"/>
</g>
<!-- Node10 -->
<g id="node10" class="node">
<title>Node10</title>
<g id="a_node10"><a xlink:href="_k_omega_s_s_t_i_d_d_e_s_8cpp.html" target="_top" xlink:title=" ">
<polygon fill="white" stroke="black" points="517.5,-0.5 517.5,-19.5 643.5,-19.5 643.5,-0.5 517.5,-0.5"/>
<text text-anchor="middle" x="580.5" y="-7.5" font-family="Helvetica,sans-Serif" font-size="10.00">KOmegaSSTIDDES.cpp</text>
</a>
</g>
</g>
<!-- Node3&#45;&gt;Node10 -->
<g id="edge11" class="edge">
<title>Node3&#45;&gt;Node10</title>
<path fill="none" stroke="midnightblue" d="M422.93,-114.73C475.26,-108.06 545.61,-95.72 565.5,-76 580.8,-60.83 581.78,-33.39 581.18,-19.52"/>
<polygon fill="midnightblue" stroke="midnightblue" points="422.21,-111.29 412.72,-115.99 423.07,-118.24 422.21,-111.29"/>
</g>
<!-- Node9&#45;&gt;Node8 -->
<g id="edge9" class="edge">
<title>Node9&#45;&gt;Node8</title>
<path fill="none" stroke="midnightblue" d="M494.23,-49.82C482.58,-40.15 467.9,-27.95 458.13,-19.83"/>
<polygon fill="midnightblue" stroke="midnightblue" points="492.13,-52.63 502.06,-56.32 496.6,-47.24 492.13,-52.63"/>
</g>
<!-- Node9&#45;&gt;Node10 -->
<g id="edge10" class="edge">
<title>Node9&#45;&gt;Node10</title>
<path fill="none" stroke="midnightblue" d="M531.26,-50.1C543.5,-40.38 559.06,-28.03 569.38,-19.83"/>
<polygon fill="midnightblue" stroke="midnightblue" points="529.08,-47.36 523.43,-56.32 533.43,-52.85 529.08,-47.36"/>
</g>
<!-- Node11&#45;&gt;Node3 -->
<g id="edge13" class="edge">
<title>Node11&#45;&gt;Node3</title>
<path fill="none" stroke="midnightblue" d="M408.51,-161.82C397.04,-152.15 382.59,-139.95 372.97,-131.83"/>
<polygon fill="midnightblue" stroke="midnightblue" points="406.32,-164.55 416.22,-168.32 410.83,-159.2 406.32,-164.55"/>
</g>
</g>
</svg>
