<?xml version="1.0" encoding="UTF-8" standalone="no"?>
<!DOCTYPE svg PUBLIC "-//W3C//DTD SVG 1.1//EN"
 "http://www.w3.org/Graphics/SVG/1.1/DTD/svg11.dtd">
<!-- Generated by graphviz version 2.43.0 (0)
 -->
<!-- Title: TurbModelBase.H Pages: 1 -->
<svg width="573pt" height="196pt"
 viewBox="0.00 0.00 573.00 196.00" xmlns="http://www.w3.org/2000/svg" xmlns:xlink="http://www.w3.org/1999/xlink">
<g id="graph0" class="graph" transform="scale(1 1) rotate(0) translate(4 192)">
<title>TurbModelBase.H</title>
<polygon fill="white" stroke="transparent" points="-4,4 -4,-192 569,-192 569,4 -4,4"/>
<!-- Node1 -->
<g id="node1" class="node">
<title>Node1</title>
<g id="a_node1"><a xlink:title=" ">
<polygon fill="#bfbfbf" stroke="black" points="127.5,-168.5 127.5,-187.5 228.5,-187.5 228.5,-168.5 127.5,-168.5"/>
<text text-anchor="middle" x="178" y="-175.5" font-family="Helvetica,sans-Serif" font-size="10.00">TurbModelBase.H</text>
</a>
</g>
</g>
<!-- Node2 -->
<g id="node2" class="node">
<title>Node2</title>
<g id="a_node2"><a xlink:href="_a_m_d_8_h.html" target="_top" xlink:title=" ">
<polygon fill="white" stroke="black" points="12,-112.5 12,-131.5 62,-131.5 62,-112.5 12,-112.5"/>
<text text-anchor="middle" x="37" y="-119.5" font-family="Helvetica,sans-Serif" font-size="10.00">AMD.H</text>
</a>
</g>
</g>
<!-- Node1&#45;&gt;Node2 -->
<g id="edge1" class="edge">
<title>Node1&#45;&gt;Node2</title>
<path fill="none" stroke="midnightblue" d="M146.07,-164.77C119.59,-154.63 82.61,-140.47 59.24,-131.52"/>
<polygon fill="midnightblue" stroke="midnightblue" points="145.07,-168.14 155.66,-168.44 147.57,-161.6 145.07,-168.14"/>
</g>
<!-- Node4 -->
<g id="node4" class="node">
<title>Node4</title>
<g id="a_node4"><a xlink:href="_one_eq_ksgs_8_h.html" target="_top" xlink:title=" ">
<polygon fill="white" stroke="black" points="85,-112.5 85,-131.5 167,-131.5 167,-112.5 85,-112.5"/>
<text text-anchor="middle" x="126" y="-119.5" font-family="Helvetica,sans-Serif" font-size="10.00">OneEqKsgs.H</text>
</a>
</g>
</g>
<!-- Node1&#45;&gt;Node4 -->
<g id="edge3" class="edge">
<title>Node1&#45;&gt;Node4</title>
<path fill="none" stroke="midnightblue" d="M162.32,-160.72C153.16,-151.2 141.95,-139.56 134.43,-131.75"/>
<polygon fill="midnightblue" stroke="midnightblue" points="159.96,-163.31 169.41,-168.08 165,-158.45 159.96,-163.31"/>
</g>
<!-- Node6 -->
<g id="node6" class="node">
<title>Node6</title>
<g id="a_node6"><a xlink:href="_smagorinsky_8_h.html" target="_top" xlink:title=" ">
<polygon fill="white" stroke="black" points="189.5,-112.5 189.5,-131.5 278.5,-131.5 278.5,-112.5 189.5,-112.5"/>
<text text-anchor="middle" x="234" y="-119.5" font-family="Helvetica,sans-Serif" font-size="10.00">Smagorinsky.H</text>
</a>
</g>
</g>
<!-- Node1&#45;&gt;Node6 -->
<g id="edge5" class="edge">
<title>Node1&#45;&gt;Node6</title>
<path fill="none" stroke="midnightblue" d="M194.33,-161.25C204.26,-151.67 216.59,-139.79 224.84,-131.83"/>
<polygon fill="midnightblue" stroke="midnightblue" points="191.77,-158.86 187,-168.32 196.63,-163.9 191.77,-158.86"/>
</g>
<!-- Node8 -->
<g id="node8" class="node">
<title>Node8</title>
<g id="a_node8"><a xlink:href="_k_omega_s_s_t_8_h.html" target="_top" xlink:title=" ">
<polygon fill="white" stroke="black" points="321,-112.5 321,-131.5 407,-131.5 407,-112.5 321,-112.5"/>
<text text-anchor="middle" x="364" y="-119.5" font-family="Helvetica,sans-Serif" font-size="10.00">KOmegaSST.H</text>
</a>
</g>
</g>
<!-- Node1&#45;&gt;Node8 -->
<g id="edge7" class="edge">
<title>Node1&#45;&gt;Node8</title>
<path fill="none" stroke="midnightblue" d="M217.38,-165.57C252.47,-155.38 303.02,-140.7 334.67,-131.52"/>
<polygon fill="midnightblue" stroke="midnightblue" points="216.1,-162.29 207.47,-168.44 218.05,-169.02 216.1,-162.29"/>
</g>
<!-- Node3 -->
<g id="node3" class="node">
<title>Node3</title>
<g id="a_node3"><a xlink:href="_a_m_d_8cpp.html" target="_top" xlink:title=" ">
<polygon fill="white" stroke="black" points="0,-56.5 0,-75.5 60,-75.5 60,-56.5 0,-56.5"/>
<text text-anchor="middle" x="30" y="-63.5" font-family="Helvetica,sans-Serif" font-size="10.00">AMD.cpp</text>
</a>
</g>
</g>
<!-- Node2&#45;&gt;Node3 -->
<g id="edge2" class="edge">
<title>Node2&#45;&gt;Node3</title>
<path fill="none" stroke="midnightblue" d="M34.55,-102.1C33.39,-93.14 32.06,-82.86 31.13,-75.75"/>
<polygon fill="midnightblue" stroke="midnightblue" points="31.09,-102.62 35.84,-112.08 38.03,-101.72 31.09,-102.62"/>
</g>
<!-- Node5 -->
<g id="node5" class="node">
<title>Node5</title>
<g id="a_node5"><a xlink:href="_one_eq_ksgs_8cpp.html" target="_top" xlink:title=" ">
<polygon fill="white" stroke="black" points="78,-56.5 78,-75.5 170,-75.5 170,-56.5 78,-56.5"/>
<text text-anchor="middle" x="124" y="-63.5" font-family="Helvetica,sans-Serif" font-size="10.00">OneEqKsgs.cpp</text>
</a>
</g>
</g>
<!-- Node4&#45;&gt;Node5 -->
<g id="edge4" class="edge">
<title>Node4&#45;&gt;Node5</title>
<path fill="none" stroke="midnightblue" d="M125.29,-101.8C124.96,-92.91 124.58,-82.78 124.32,-75.75"/>
<polygon fill="midnightblue" stroke="midnightblue" points="121.8,-102.22 125.67,-112.08 128.8,-101.96 121.8,-102.22"/>
</g>
<!-- Node7 -->
<g id="node7" class="node">
<title>Node7</title>
<g id="a_node7"><a xlink:href="_smagorinsky_8cpp.html" target="_top" xlink:title=" ">
<polygon fill="white" stroke="black" points="188,-56.5 188,-75.5 286,-75.5 286,-56.5 188,-56.5"/>
<text text-anchor="middle" x="237" y="-63.5" font-family="Helvetica,sans-Serif" font-size="10.00">Smagorinsky.cpp</text>
</a>
</g>
</g>
<!-- Node6&#45;&gt;Node7 -->
<g id="edge6" class="edge">
<title>Node6&#45;&gt;Node7</title>
<path fill="none" stroke="midnightblue" d="M235.07,-101.8C235.56,-92.91 236.12,-82.78 236.51,-75.75"/>
<polygon fill="midnightblue" stroke="midnightblue" points="231.56,-101.9 234.5,-112.08 238.54,-102.29 231.56,-101.9"/>
</g>
<!-- Node9 -->
<g id="node9" class="node">
<title>Node9</title>
<g id="a_node9"><a xlink:href="_k_omega_s_s_t_8cpp.html" target="_top" xlink:title=" ">
<polygon fill="white" stroke="black" points="298.5,-0.5 298.5,-19.5 393.5,-19.5 393.5,-0.5 298.5,-0.5"/>
<text text-anchor="middle" x="346" y="-7.5" font-family="Helvetica,sans-Serif" font-size="10.00">KOmegaSST.cpp</text>
</a>
</g>
</g>
<!-- Node8&#45;&gt;Node9 -->
<g id="edge8" class="edge">
<title>Node8&#45;&gt;Node9</title>
<path fill="none" stroke="midnightblue" d="M349.02,-104.47C342.78,-96.48 336.23,-86.38 333,-76 326.85,-56.22 335.77,-32.12 341.62,-19.56"/>
<polygon fill="midnightblue" stroke="midnightblue" points="346.42,-106.81 355.52,-112.23 351.79,-102.32 346.42,-106.81"/>
</g>
<!-- Node10 -->
<g id="node10" class="node">
<title>Node10</title>
<g id="a_node10"><a xlink:href="_k_omega_s_s_t_i_8_h.html" target="_top" xlink:title=" ">
<polygon fill="white" stroke="black" points="342.5,-56.5 342.5,-75.5 431.5,-75.5 431.5,-56.5 342.5,-56.5"/>
<text text-anchor="middle" x="387" y="-63.5" font-family="Helvetica,sans-Serif" font-size="10.00">KOmegaSSTI.H</text>
</a>
</g>
</g>
<!-- Node8&#45;&gt;Node10 -->
<g id="edge9" class="edge">
<title>Node8&#45;&gt;Node10</title>
<path fill="none" stroke="midnightblue" d="M371.8,-102.69C375.68,-93.59 380.18,-83.01 383.27,-75.75"/>
<polygon fill="midnightblue" stroke="midnightblue" points="368.5,-101.51 367.8,-112.08 374.94,-104.25 368.5,-101.51"/>
</g>
<!-- Node12 -->
<g id="node12" class="node">
<title>Node12</title>
<g id="a_node12"><a xlink:href="_k_omega_s_s_t_i_d_d_e_s_8_h.html" target="_top" xlink:title=" ">
<polygon fill="white" stroke="black" points="449,-56.5 449,-75.5 565,-75.5 565,-56.5 449,-56.5"/>
<text text-anchor="middle" x="507" y="-63.5" font-family="Helvetica,sans-Serif" font-size="10.00">KOmegaSSTIDDES.H</text>
</a>
</g>
</g>
<!-- Node8&#45;&gt;Node12 -->
<g id="edge12" class="edge">
<title>Node8&#45;&gt;Node12</title>
<path fill="none" stroke="midnightblue" d="M396.03,-108.91C422.91,-98.75 460.64,-84.51 484.45,-75.52"/>
<polygon fill="midnightblue" stroke="midnightblue" points="394.78,-105.64 386.66,-112.44 397.25,-112.19 394.78,-105.64"/>
</g>
<!-- Node10&#45;&gt;Node9 -->
<g id="edge10" class="edge">
<title>Node10&#45;&gt;Node9</title>
<path fill="none" stroke="midnightblue" d="M373.98,-47.86C366.88,-38.5 358.4,-27.33 352.64,-19.75"/>
<polygon fill="midnightblue" stroke="midnightblue" points="371.39,-50.24 380.23,-56.08 376.97,-46 371.39,-50.24"/>
</g>
<!-- Node11 -->
<g id="node11" class="node">
<title>Node11</title>
<g id="a_node11"><a xlink:href="_k_omega_s_s_t_i_d_d_e_s_8cpp.html" target="_top" xlink:title=" ">
<polygon fill="white" stroke="black" points="428,-0.5 428,-19.5 554,-19.5 554,-0.5 428,-0.5"/>
<text text-anchor="middle" x="491" y="-7.5" font-family="Helvetica,sans-Serif" font-size="10.00">KOmegaSSTIDDES.cpp</text>
</a>
</g>
</g>
<!-- Node10&#45;&gt;Node11 -->
<g id="edge11" class="edge">
<title>Node10&#45;&gt;Node11</title>
<path fill="none" stroke="midnightblue" d="M412.83,-51.59C432.06,-41.61 457.74,-28.27 474.33,-19.65"/>
<polygon fill="midnightblue" stroke="midnightblue" points="410.97,-48.61 403.71,-56.32 414.2,-54.82 410.97,-48.61"/>
</g>
<!-- Node12&#45;&gt;Node11 -->
<g id="edge13" class="edge">
<title>Node12&#45;&gt;Node11</title>
<path fill="none" stroke="midnightblue" d="M501.49,-46.4C498.81,-37.36 495.72,-26.94 493.59,-19.75"/>
<polygon fill="midnightblue" stroke="midnightblue" points="498.16,-47.49 504.36,-56.08 504.87,-45.5 498.16,-47.49"/>
</g>
</g>
</svg>
