<?xml version="1.0" encoding="UTF-8" standalone="no"?>
<!DOCTYPE svg PUBLIC "-//W3C//DTD SVG 1.1//EN"
 "http://www.w3.org/Graphics/SVG/1.1/DTD/svg11.dtd">
<!-- Generated by graphviz version 2.43.0 (0)
 -->
<!-- Title: TurbModelDefs.H Pages: 1 -->
<!--zoomable 408 -->
<svg id="main" version="1.1" xmlns="http://www.w3.org/2000/svg" xmlns:xlink="http://www.w3.org/1999/xlink" xml:space="preserve" onload="init(evt)">
<style type="text/css"><![CDATA[
.edge:hover path { stroke: red; }
.edge:hover polygon { stroke: red; fill: red; }
]]></style>
<script type="text/javascript"><![CDATA[
var edges = document.getElementsByTagName('g');
if (edges && edges.length) {
  for (var i=0;i<edges.length;i++) {
    if (edges[i].id.substr(0,4)=='edge') {
      edges[i].setAttribute('class','edge');
    }
  }
}
]]></script>
        <defs>
                <circle id="rim" cx="0" cy="0" r="7"/>
                <circle id="rim2" cx="0" cy="0" r="3.5"/>
                <g id="zoomPlus">
                        <use xlink:href="#rim" fill="#404040">
                                <set attributeName="fill" to="#808080" begin="zoomplus.mouseover" end="zoomplus.mouseout"/>
                        </use>
                        <path d="M-4,0h8M0,-4v8" fill="none" stroke="white" stroke-width="1.5" pointer-events="none"/>
                </g>
                <g id="zoomMin">
                        <use xlink:href="#rim" fill="#404040">
                                <set attributeName="fill" to="#808080" begin="zoomminus.mouseover" end="zoomminus.mouseout"/>
                        </use>
                        <path d="M-4,0h8" fill="none" stroke="white" stroke-width="1.5" pointer-events="none"/>
                </g>
                <g id="dirArrow">
                        <path fill="none" stroke="white" stroke-width="1.5" d="M0,-3.0v7 M-2.5,-0.5L0,-3.0L2.5,-0.5"/>
                </g>
               <g id="resetDef">
                       <use xlink:href="#rim2" fill="#404040">
                               <set attributeName="fill" to="#808080" begin="reset.mouseover" end="reset.mouseout"/>
                       </use>
               </g>
        </defs>

<script type="text/javascript">
var viewWidth = 2250;
var viewHeight = 408;
var sectionId = 'dynsection-0';
</script>
<script xlink:href="svgpan.js"/>
<svg id="graph" class="graph">
<g id="viewport">
<title>TurbModelDefs.H</title>
<polygon fill="white" stroke="transparent" points="-4,4 -4,-404 2245.71,-404 2245.71,4 -4,4"/>
<!-- Node1 -->
<g id="node1" class="node">
<title>Node1</title>
<g id="a_node1"><a xlink:title=" ">
<polygon fill="#bfbfbf" stroke="black" points="1004.6,-380.5 1004.6,-399.5 1104.6,-399.5 1104.6,-380.5 1004.6,-380.5"/>
<text text-anchor="middle" x="1054.6" y="-387.5" font-family="Helvetica,sans-Serif" font-size="10.00">TurbModelDefs.H</text>
</a>
</g>
</g>
<!-- Node2 -->
<g id="node2" class="node">
<title>Node2</title>
<g id="a_node2"><a xlink:href="_turbulence_model_8_h.html" target="_top" xlink:title=" ">
<polygon fill="white" stroke="black" points="675.6,-179.5 675.6,-209.5 793.6,-209.5 793.6,-179.5 675.6,-179.5"/>
<text text-anchor="start" x="683.6" y="-197.5" font-family="Helvetica,sans-Serif" font-size="10.00">amr&#45;wind/turbulence</text>
<text text-anchor="middle" x="734.6" y="-186.5" font-family="Helvetica,sans-Serif" font-size="10.00">/TurbulenceModel.H</text>
</a>
</g>
</g>
<!-- Node1&#45;&gt;Node2 -->
<g id="edge1" class="edge">
<title>Node1&#45;&gt;Node2</title>
<path fill="none" stroke="midnightblue" d="M1038.64,-380.43C1022.21,-371.54 995.93,-357.13 973.6,-344 897.61,-299.32 809.98,-243.83 764.89,-214.98"/>
<polygon fill="midnightblue" stroke="midnightblue" points="766.77,-212.03 756.46,-209.58 762.99,-217.92 766.77,-212.03"/>
</g>
<!-- Node10 -->
<g id="node10" class="node">
<title>Node10</title>
<g id="a_node10"><a xlink:href="_const_transport_8_h.html" target="_top" xlink:title=" ">
<polygon fill="white" stroke="black" points="982.6,-313.5 982.6,-343.5 1126.6,-343.5 1126.6,-313.5 982.6,-313.5"/>
<text text-anchor="start" x="990.6" y="-331.5" font-family="Helvetica,sans-Serif" font-size="10.00">amr&#45;wind/transport</text>
<text text-anchor="middle" x="1054.6" y="-320.5" font-family="Helvetica,sans-Serif" font-size="10.00">_models/ConstTransport.H</text>
</a>
</g>
</g>
<!-- Node1&#45;&gt;Node10 -->
<g id="edge10" class="edge">
<title>Node1&#45;&gt;Node10</title>
<path fill="none" stroke="midnightblue" d="M1054.6,-380.48C1054.6,-373.47 1054.6,-363.19 1054.6,-353.7"/>
<polygon fill="midnightblue" stroke="midnightblue" points="1058.1,-353.52 1054.6,-343.52 1051.1,-353.52 1058.1,-353.52"/>
</g>
<!-- Node32 -->
<g id="node32" class="node">
<title>Node32</title>
<g id="a_node32"><a xlink:href="_two_phase_transport_8_h.html" target="_top" xlink:title=" ">
<polygon fill="white" stroke="black" points="1144.6,-313.5 1144.6,-343.5 1308.6,-343.5 1308.6,-313.5 1144.6,-313.5"/>
<text text-anchor="start" x="1152.6" y="-331.5" font-family="Helvetica,sans-Serif" font-size="10.00">amr&#45;wind/transport</text>
<text text-anchor="middle" x="1226.6" y="-320.5" font-family="Helvetica,sans-Serif" font-size="10.00">_models/TwoPhaseTransport.H</text>
</a>
</g>
</g>
<!-- Node1&#45;&gt;Node32 -->
<g id="edge60" class="edge">
<title>Node1&#45;&gt;Node32</title>
<path fill="none" stroke="midnightblue" d="M1079.25,-380.48C1104.5,-371.74 1144.48,-357.91 1176.43,-346.86"/>
<polygon fill="midnightblue" stroke="midnightblue" points="1177.76,-350.1 1186.07,-343.52 1175.47,-343.48 1177.76,-350.1"/>
</g>
<!-- Node3 -->
<g id="node3" class="node">
<title>Node3</title>
<g id="a_node3"><a xlink:title=" ">
<polygon fill="white" stroke="#bfbfbf" points="1419.1,-56.5 1419.1,-75.5 1512.1,-75.5 1512.1,-56.5 1419.1,-56.5"/>
<text text-anchor="middle" x="1465.6" y="-63.5" font-family="Helvetica,sans-Serif" font-size="10.00">unordered_map</text>
</a>
</g>
</g>
<!-- Node2&#45;&gt;Node3 -->
<g id="edge2" class="edge">
<title>Node2&#45;&gt;Node3</title>
<path fill="none" stroke="midnightblue" d="M731.89,-179.25C729.29,-160.76 728.11,-128.87 746.6,-112 799.25,-63.98 1300.23,-82.47 1408.88,-75.7"/>
<polygon fill="midnightblue" stroke="midnightblue" points="1409.22,-79.18 1418.9,-74.88 1408.65,-72.21 1409.22,-79.18"/>
</g>
<!-- Node4 -->
<g id="node4" class="node">
<title>Node4</title>
<g id="a_node4"><a xlink:href="_factory_8_h.html" target="_top" xlink:title=" ">
<polygon fill="white" stroke="black" points="1264.6,-118 1264.6,-137 1398.6,-137 1398.6,-118 1264.6,-118"/>
<text text-anchor="middle" x="1331.6" y="-125" font-family="Helvetica,sans-Serif" font-size="10.00">amr&#45;wind/core/Factory.H</text>
</a>
</g>
</g>
<!-- Node2&#45;&gt;Node4 -->
<g id="edge3" class="edge">
<title>Node2&#45;&gt;Node4</title>
<path fill="none" stroke="midnightblue" d="M793.79,-180.92C797.78,-180.23 801.75,-179.58 805.6,-179 964.31,-155.24 1151.72,-140.37 1254.5,-133.34"/>
<polygon fill="midnightblue" stroke="midnightblue" points="1254.74,-136.83 1264.48,-132.66 1254.27,-129.85 1254.74,-136.83"/>
</g>
<!-- Node9 -->
<g id="node9" class="node">
<title>Node9</title>
<g id="a_node9"><a xlink:href="_field_desc_types_8_h.html" target="_top" xlink:title=" ">
<polygon fill="white" stroke="black" points="345.6,-0.5 345.6,-19.5 521.6,-19.5 521.6,-0.5 345.6,-0.5"/>
<text text-anchor="middle" x="433.6" y="-7.5" font-family="Helvetica,sans-Serif" font-size="10.00">amr&#45;wind/core/FieldDescTypes.H</text>
</a>
</g>
</g>
<!-- Node2&#45;&gt;Node9 -->
<g id="edge9" class="edge">
<title>Node2&#45;&gt;Node9</title>
<path fill="none" stroke="midnightblue" d="M675.34,-193.83C511.9,-194.12 63.9,-190.54 19.6,-143 -6.76,-114.71 -6.22,-84.78 19.6,-56 40.31,-32.92 219.22,-20.56 334.97,-14.92"/>
<polygon fill="midnightblue" stroke="midnightblue" points="335.45,-18.4 345.27,-14.43 335.12,-11.41 335.45,-18.4"/>
</g>
<!-- Node4&#45;&gt;Node3 -->
<g id="edge5" class="edge">
<title>Node4&#45;&gt;Node3</title>
<path fill="none" stroke="midnightblue" d="M1350.8,-117.98C1373.39,-107.95 1411.1,-91.2 1437.1,-79.65"/>
<polygon fill="midnightblue" stroke="midnightblue" points="1438.72,-82.77 1446.44,-75.51 1435.88,-76.37 1438.72,-82.77"/>
</g>
<!-- Node5 -->
<g id="node5" class="node">
<title>Node5</title>
<g id="a_node5"><a xlink:title=" ">
<polygon fill="white" stroke="#bfbfbf" points="1911.6,-56.5 1911.6,-75.5 1969.6,-75.5 1969.6,-56.5 1911.6,-56.5"/>
<text text-anchor="middle" x="1940.6" y="-63.5" font-family="Helvetica,sans-Serif" font-size="10.00">memory</text>
</a>
</g>
</g>
<!-- Node4&#45;&gt;Node5 -->
<g id="edge4" class="edge">
<title>Node4&#45;&gt;Node5</title>
<path fill="none" stroke="midnightblue" d="M1399.09,-121.76C1524.61,-112.75 1790.57,-92.68 1901.32,-75.96"/>
<polygon fill="midnightblue" stroke="midnightblue" points="1901.89,-79.41 1911.23,-74.4 1900.81,-72.49 1901.89,-79.41"/>
</g>
<!-- Node6 -->
<g id="node6" class="node">
<title>Node6</title>
<g id="a_node6"><a xlink:title=" ">
<polygon fill="white" stroke="#bfbfbf" points="1340.6,-56.5 1340.6,-75.5 1400.6,-75.5 1400.6,-56.5 1340.6,-56.5"/>
<text text-anchor="middle" x="1370.6" y="-63.5" font-family="Helvetica,sans-Serif" font-size="10.00">iostream</text>
</a>
</g>
</g>
<!-- Node4&#45;&gt;Node6 -->
<g id="edge6" class="edge">
<title>Node4&#45;&gt;Node6</title>
<path fill="none" stroke="midnightblue" d="M1337.19,-117.98C1342.98,-109.14 1352.19,-95.09 1359.48,-83.98"/>
<polygon fill="midnightblue" stroke="midnightblue" points="1362.47,-85.79 1365.02,-75.51 1356.62,-81.95 1362.47,-85.79"/>
</g>
<!-- Node7 -->
<g id="node7" class="node">
<title>Node7</title>
<g id="a_node7"><a xlink:title=" ">
<polygon fill="white" stroke="#bfbfbf" points="1152.6,-56.5 1152.6,-75.5 1242.6,-75.5 1242.6,-56.5 1152.6,-56.5"/>
<text text-anchor="middle" x="1197.6" y="-63.5" font-family="Helvetica,sans-Serif" font-size="10.00">AMReX_Print.H</text>
</a>
</g>
</g>
<!-- Node4&#45;&gt;Node7 -->
<g id="edge7" class="edge">
<title>Node4&#45;&gt;Node7</title>
<path fill="none" stroke="midnightblue" d="M1312.4,-117.98C1289.82,-107.95 1252.1,-91.2 1226.1,-79.65"/>
<polygon fill="midnightblue" stroke="midnightblue" points="1227.33,-76.37 1216.77,-75.51 1224.48,-82.77 1227.33,-76.37"/>
</g>
<!-- Node8 -->
<g id="node8" class="node">
<title>Node8</title>
<g id="a_node8"><a xlink:title=" ">
<polygon fill="white" stroke="#bfbfbf" points="1260.6,-56.5 1260.6,-75.5 1322.6,-75.5 1322.6,-56.5 1260.6,-56.5"/>
<text text-anchor="middle" x="1291.6" y="-63.5" font-family="Helvetica,sans-Serif" font-size="10.00">AMReX.H</text>
</a>
</g>
</g>
<!-- Node4&#45;&gt;Node8 -->
<g id="edge8" class="edge">
<title>Node4&#45;&gt;Node8</title>
<path fill="none" stroke="midnightblue" d="M1325.87,-117.98C1319.93,-109.14 1310.49,-95.09 1303.01,-83.98"/>
<polygon fill="midnightblue" stroke="midnightblue" points="1305.81,-81.86 1297.32,-75.51 1300,-85.76 1305.81,-81.86"/>
</g>
<!-- Node11 -->
<g id="node11" class="node">
<title>Node11</title>
<g id="a_node11"><a xlink:href="_transport_model_8_h.html" target="_top" xlink:title=" ">
<polygon fill="white" stroke="black" points="1147.6,-246.5 1147.6,-276.5 1293.6,-276.5 1293.6,-246.5 1147.6,-246.5"/>
<text text-anchor="start" x="1155.6" y="-264.5" font-family="Helvetica,sans-Serif" font-size="10.00">amr&#45;wind/transport</text>
<text text-anchor="middle" x="1220.6" y="-253.5" font-family="Helvetica,sans-Serif" font-size="10.00">_models/TransportModel.H</text>
</a>
</g>
</g>
<!-- Node10&#45;&gt;Node11 -->
<g id="edge11" class="edge">
<title>Node10&#45;&gt;Node11</title>
<path fill="none" stroke="midnightblue" d="M1090.62,-313.4C1115.42,-303.69 1148.56,-290.71 1175.17,-280.29"/>
<polygon fill="midnightblue" stroke="midnightblue" points="1176.62,-283.48 1184.65,-276.58 1174.07,-276.96 1176.62,-283.48"/>
</g>
<!-- Node31 -->
<g id="node31" class="node">
<title>Node31</title>
<g id="a_node31"><a xlink:title=" ">
<polygon fill="white" stroke="#bfbfbf" points="1000.1,-252 1000.1,-271 1119.1,-271 1119.1,-252 1000.1,-252"/>
<text text-anchor="middle" x="1059.6" y="-259" font-family="Helvetica,sans-Serif" font-size="10.00">AMReX_ParmParse.H</text>
</a>
</g>
</g>
<!-- Node10&#45;&gt;Node31 -->
<g id="edge59" class="edge">
<title>Node10&#45;&gt;Node31</title>
<path fill="none" stroke="midnightblue" d="M1055.69,-313.4C1056.41,-303.96 1057.38,-291.45 1058.16,-281.19"/>
<polygon fill="midnightblue" stroke="midnightblue" points="1061.66,-281.43 1058.93,-271.19 1054.68,-280.9 1061.66,-281.43"/>
</g>
<!-- Node11&#45;&gt;Node4 -->
<g id="edge12" class="edge">
<title>Node11&#45;&gt;Node4</title>
<path fill="none" stroke="midnightblue" d="M1232.48,-246.37C1253.18,-221.76 1295.76,-171.12 1317.76,-144.96"/>
<polygon fill="midnightblue" stroke="midnightblue" points="1320.62,-147 1324.37,-137.1 1315.26,-142.5 1320.62,-147"/>
</g>
<!-- Node12 -->
<g id="node12" class="node">
<title>Node12</title>
<g id="a_node12"><a xlink:href="_field_repo_8_h.html" target="_top" xlink:title=" ">
<polygon fill="white" stroke="black" points="815.1,-185 815.1,-204 964.1,-204 964.1,-185 815.1,-185"/>
<text text-anchor="middle" x="889.6" y="-192" font-family="Helvetica,sans-Serif" font-size="10.00">amr&#45;wind/core/FieldRepo.H</text>
</a>
</g>
</g>
<!-- Node11&#45;&gt;Node12 -->
<g id="edge13" class="edge">
<title>Node11&#45;&gt;Node12</title>
<path fill="none" stroke="midnightblue" d="M1149.19,-246.48C1087.28,-234.32 999.08,-217 943.1,-206.01"/>
<polygon fill="midnightblue" stroke="midnightblue" points="943.52,-202.52 933.03,-204.03 942.17,-209.39 943.52,-202.52"/>
</g>
<!-- Node12&#45;&gt;Node3 -->
<g id="edge15" class="edge">
<title>Node12&#45;&gt;Node3</title>
<path fill="none" stroke="midnightblue" d="M964.12,-193.45C1088.82,-192.19 1333.39,-184.32 1407.6,-143 1430.99,-129.98 1447.92,-103.21 1457.26,-85.18"/>
<polygon fill="midnightblue" stroke="midnightblue" points="1460.51,-86.49 1461.76,-75.97 1454.22,-83.41 1460.51,-86.49"/>
</g>
<!-- Node12&#45;&gt;Node9 -->
<g id="edge16" class="edge">
<title>Node12&#45;&gt;Node9</title>
<path fill="none" stroke="midnightblue" d="M844.58,-184.98C831.12,-182.71 816.3,-180.48 802.6,-179 762.89,-174.71 112.13,-171.94 84.6,-143 75.65,-133.59 73.59,-70.29 86.6,-56 103.22,-37.76 238.56,-24.54 335.2,-17.32"/>
<polygon fill="midnightblue" stroke="midnightblue" points="335.59,-20.8 345.31,-16.58 335.08,-13.82 335.59,-20.8"/>
</g>
<!-- Node13 -->
<g id="node13" class="node">
<title>Node13</title>
<g id="a_node13"><a xlink:title=" ">
<polygon fill="white" stroke="#bfbfbf" points="824.6,-0.5 824.6,-19.5 868.6,-19.5 868.6,-0.5 824.6,-0.5"/>
<text text-anchor="middle" x="846.6" y="-7.5" font-family="Helvetica,sans-Serif" font-size="10.00">string</text>
</a>
</g>
</g>
<!-- Node12&#45;&gt;Node13 -->
<g id="edge14" class="edge">
<title>Node12&#45;&gt;Node13</title>
<path fill="none" stroke="midnightblue" d="M888.27,-184.88C885.91,-169.96 880.67,-138.36 874.6,-112 867.89,-82.82 858.24,-49.43 852.2,-29.29"/>
<polygon fill="midnightblue" stroke="midnightblue" points="855.51,-28.14 849.26,-19.58 848.81,-30.17 855.51,-28.14"/>
</g>
<!-- Node14 -->
<g id="node14" class="node">
<title>Node14</title>
<g id="a_node14"><a xlink:href="_field_utils_8_h.html" target="_top" xlink:title=" ">
<polygon fill="white" stroke="black" points="912.6,-56.5 912.6,-75.5 1058.6,-75.5 1058.6,-56.5 912.6,-56.5"/>
<text text-anchor="middle" x="985.6" y="-63.5" font-family="Helvetica,sans-Serif" font-size="10.00">amr&#45;wind/core/FieldUtils.H</text>
</a>
</g>
</g>
<!-- Node12&#45;&gt;Node14 -->
<g id="edge17" class="edge">
<title>Node12&#45;&gt;Node14</title>
<path fill="none" stroke="midnightblue" d="M896.2,-184.81C911.96,-164.04 952,-111.27 972.73,-83.96"/>
<polygon fill="midnightblue" stroke="midnightblue" points="975.7,-85.84 978.96,-75.76 970.12,-81.61 975.7,-85.84"/>
</g>
<!-- Node15 -->
<g id="node15" class="node">
<title>Node15</title>
<g id="a_node15"><a xlink:title=" ">
<polygon fill="white" stroke="#bfbfbf" points="1068.1,-0.5 1068.1,-19.5 1177.1,-19.5 1177.1,-0.5 1068.1,-0.5"/>
<text text-anchor="middle" x="1122.6" y="-7.5" font-family="Helvetica,sans-Serif" font-size="10.00">AMReX_MultiFab.H</text>
</a>
</g>
</g>
<!-- Node12&#45;&gt;Node15 -->
<g id="edge57" class="edge">
<title>Node12&#45;&gt;Node15</title>
<path fill="none" stroke="midnightblue" d="M914.38,-184.88C956.18,-169.23 1041.16,-132.42 1092.6,-76 1104.76,-62.67 1112.78,-43.55 1117.44,-29.5"/>
<polygon fill="midnightblue" stroke="midnightblue" points="1120.91,-30.11 1120.47,-19.52 1114.21,-28.07 1120.91,-30.11"/>
</g>
<!-- Node17 -->
<g id="node17" class="node">
<title>Node17</title>
<g id="a_node17"><a xlink:href="_field_8_h.html" target="_top" xlink:title=" ">
<polygon fill="white" stroke="black" points="1576.6,-118 1576.6,-137 1700.6,-137 1700.6,-118 1576.6,-118"/>
<text text-anchor="middle" x="1638.6" y="-125" font-family="Helvetica,sans-Serif" font-size="10.00">amr&#45;wind/core/Field.H</text>
</a>
</g>
</g>
<!-- Node12&#45;&gt;Node17 -->
<g id="edge21" class="edge">
<title>Node12&#45;&gt;Node17</title>
<path fill="none" stroke="midnightblue" d="M964.16,-187.03C1108.28,-174.52 1423.45,-147.17 1566.01,-134.8"/>
<polygon fill="midnightblue" stroke="midnightblue" points="1566.72,-138.25 1576.38,-133.9 1566.11,-131.28 1566.72,-138.25"/>
</g>
<!-- Node24 -->
<g id="node24" class="node">
<title>Node24</title>
<g id="a_node24"><a xlink:href="_int_field_8_h.html" target="_top" xlink:title=" ">
<polygon fill="white" stroke="black" points="94.1,-118 94.1,-137 231.1,-137 231.1,-118 94.1,-118"/>
<text text-anchor="middle" x="162.6" y="-125" font-family="Helvetica,sans-Serif" font-size="10.00">amr&#45;wind/core/IntField.H</text>
</a>
</g>
</g>
<!-- Node12&#45;&gt;Node24 -->
<g id="edge36" class="edge">
<title>Node12&#45;&gt;Node24</title>
<path fill="none" stroke="midnightblue" d="M843.21,-184.94C830.12,-182.75 815.83,-180.57 802.6,-179 580.04,-152.55 522.85,-162.8 299.6,-143 280.72,-141.33 260.4,-139.3 241.34,-137.3"/>
<polygon fill="midnightblue" stroke="midnightblue" points="241.51,-133.8 231.2,-136.22 240.78,-140.76 241.51,-133.8"/>
</g>
<!-- Node25 -->
<g id="node25" class="node">
<title>Node25</title>
<g id="a_node25"><a xlink:title=" ">
<polygon fill="white" stroke="#bfbfbf" points="137.6,-56.5 137.6,-75.5 249.6,-75.5 249.6,-56.5 137.6,-56.5"/>
<text text-anchor="middle" x="193.6" y="-63.5" font-family="Helvetica,sans-Serif" font-size="10.00">AMReX_iMultiFab.H</text>
</a>
</g>
</g>
<!-- Node12&#45;&gt;Node25 -->
<g id="edge58" class="edge">
<title>Node12&#45;&gt;Node25</title>
<path fill="none" stroke="midnightblue" d="M842.75,-184.95C829.78,-182.78 815.67,-180.62 802.6,-179 606.56,-154.74 550.74,-192.87 359.6,-143 305.96,-129 248.13,-98.66 216.87,-80.83"/>
<polygon fill="midnightblue" stroke="midnightblue" points="218.47,-77.71 208.06,-75.74 214.96,-83.77 218.47,-77.71"/>
</g>
<!-- Node26 -->
<g id="node26" class="node">
<title>Node26</title>
<g id="a_node26"><a xlink:href="_scratch_field_8_h.html" target="_top" xlink:title=" ">
<polygon fill="white" stroke="black" points="539.6,-118 539.6,-137 699.6,-137 699.6,-118 539.6,-118"/>
<text text-anchor="middle" x="619.6" y="-125" font-family="Helvetica,sans-Serif" font-size="10.00">amr&#45;wind/core/ScratchField.H</text>
</a>
</g>
</g>
<!-- Node12&#45;&gt;Node26 -->
<g id="edge40" class="edge">
<title>Node12&#45;&gt;Node26</title>
<path fill="none" stroke="midnightblue" d="M854.03,-184.94C805.46,-173.24 718.38,-152.28 665.11,-139.46"/>
<polygon fill="midnightblue" stroke="midnightblue" points="665.8,-136.02 655.26,-137.08 664.16,-142.83 665.8,-136.02"/>
</g>
<!-- Node29 -->
<g id="node29" class="node">
<title>Node29</title>
<g id="a_node29"><a xlink:href="_int_scratch_field_8_h.html" target="_top" xlink:title=" ">
<polygon fill="white" stroke="black" points="369.1,-112.5 369.1,-142.5 508.1,-142.5 508.1,-112.5 369.1,-112.5"/>
<text text-anchor="start" x="377.1" y="-130.5" font-family="Helvetica,sans-Serif" font-size="10.00">amr&#45;wind/core/IntScratch</text>
<text text-anchor="middle" x="438.6" y="-119.5" font-family="Helvetica,sans-Serif" font-size="10.00">Field.H</text>
</a>
</g>
</g>
<!-- Node12&#45;&gt;Node29 -->
<g id="edge48" class="edge">
<title>Node12&#45;&gt;Node29</title>
<path fill="none" stroke="midnightblue" d="M839.96,-184.93C827.76,-182.91 814.72,-180.81 802.6,-179 682,-160.97 651.28,-160.49 530.6,-143 526.66,-142.43 522.63,-141.83 518.56,-141.22"/>
<polygon fill="midnightblue" stroke="midnightblue" points="518.81,-137.72 508.4,-139.69 517.76,-144.64 518.81,-137.72"/>
</g>
<!-- Node30 -->
<g id="node30" class="node">
<title>Node30</title>
<g id="a_node30"><a xlink:title=" ">
<polygon fill="white" stroke="#bfbfbf" points="755.6,-118 755.6,-137 865.6,-137 865.6,-118 755.6,-118"/>
<text text-anchor="middle" x="810.6" y="-125" font-family="Helvetica,sans-Serif" font-size="10.00">AMReX_AmrCore.H</text>
</a>
</g>
</g>
<!-- Node12&#45;&gt;Node30 -->
<g id="edge56" class="edge">
<title>Node12&#45;&gt;Node30</title>
<path fill="none" stroke="midnightblue" d="M878.95,-184.73C866.16,-174.21 844.49,-156.38 828.98,-143.62"/>
<polygon fill="midnightblue" stroke="midnightblue" points="831.03,-140.78 821.09,-137.13 826.59,-146.18 831.03,-140.78"/>
</g>
<!-- Node14&#45;&gt;Node9 -->
<g id="edge18" class="edge">
<title>Node14&#45;&gt;Node9</title>
<path fill="none" stroke="midnightblue" d="M912.59,-57.86C814.41,-48.25 639.62,-31.15 530.52,-20.48"/>
<polygon fill="midnightblue" stroke="midnightblue" points="530.79,-16.99 520.5,-19.5 530.11,-23.96 530.79,-16.99"/>
</g>
<!-- Node14&#45;&gt;Node15 -->
<g id="edge19" class="edge">
<title>Node14&#45;&gt;Node15</title>
<path fill="none" stroke="midnightblue" d="M1007.31,-56.44C1029.96,-47.52 1065.67,-33.44 1091.35,-23.32"/>
<polygon fill="midnightblue" stroke="midnightblue" points="1092.98,-26.44 1101,-19.52 1090.41,-19.93 1092.98,-26.44"/>
</g>
<!-- Node16 -->
<g id="node16" class="node">
<title>Node16</title>
<g id="a_node16"><a xlink:title=" ">
<polygon fill="white" stroke="#bfbfbf" points="923.6,-0.5 923.6,-19.5 1047.6,-19.5 1047.6,-0.5 923.6,-0.5"/>
<text text-anchor="middle" x="985.6" y="-7.5" font-family="Helvetica,sans-Serif" font-size="10.00">AMReX_Interpolater.H</text>
</a>
</g>
</g>
<!-- Node14&#45;&gt;Node16 -->
<g id="edge20" class="edge">
<title>Node14&#45;&gt;Node16</title>
<path fill="none" stroke="midnightblue" d="M985.6,-56.08C985.6,-49.01 985.6,-38.86 985.6,-29.99"/>
<polygon fill="midnightblue" stroke="midnightblue" points="989.1,-29.75 985.6,-19.75 982.1,-29.75 989.1,-29.75"/>
</g>
<!-- Node17&#45;&gt;Node3 -->
<g id="edge24" class="edge">
<title>Node17&#45;&gt;Node3</title>
<path fill="none" stroke="midnightblue" d="M1613.82,-117.98C1584.01,-107.72 1533.81,-90.46 1500.2,-78.9"/>
<polygon fill="midnightblue" stroke="midnightblue" points="1500.94,-75.45 1490.34,-75.51 1498.66,-82.07 1500.94,-75.45"/>
</g>
<!-- Node17&#45;&gt;Node5 -->
<g id="edge23" class="edge">
<title>Node17&#45;&gt;Node5</title>
<path fill="none" stroke="midnightblue" d="M1686.42,-118C1737.33,-108.81 1820.5,-93.37 1901.7,-76.12"/>
<polygon fill="midnightblue" stroke="midnightblue" points="1902.54,-79.52 1911.59,-74.01 1901.07,-72.68 1902.54,-79.52"/>
</g>
<!-- Node17&#45;&gt;Node9 -->
<g id="edge30" class="edge">
<title>Node17&#45;&gt;Node9</title>
<path fill="none" stroke="midnightblue" d="M1624.32,-117.94C1607.6,-107.9 1579.08,-90.77 1554.6,-76 1539.92,-67.14 1538.02,-60.95 1521.6,-56 1427.27,-27.57 734.04,-24.19 635.6,-20 601.91,-18.56 565.06,-16.94 532.17,-15.47"/>
<polygon fill="midnightblue" stroke="midnightblue" points="532.24,-11.97 522.09,-15.02 531.93,-18.96 532.24,-11.97"/>
</g>
<!-- Node17&#45;&gt;Node13 -->
<g id="edge22" class="edge">
<title>Node17&#45;&gt;Node13</title>
<path fill="none" stroke="midnightblue" d="M1631.64,-117.76C1618.53,-102.05 1588.41,-69.39 1554.6,-56 1422.17,-3.53 1056.42,-33.35 914.6,-20 902.8,-18.89 889.9,-17.28 878.53,-15.73"/>
<polygon fill="midnightblue" stroke="midnightblue" points="878.99,-12.26 868.6,-14.34 878.02,-19.19 878.99,-12.26"/>
</g>
<!-- Node17&#45;&gt;Node15 -->
<g id="edge26" class="edge">
<title>Node17&#45;&gt;Node15</title>
<path fill="none" stroke="midnightblue" d="M1700.75,-122.43C1831.47,-113.58 2124.08,-92.06 2138.6,-76 2144.56,-69.41 2144.75,-62.42 2138.6,-56 2105.67,-21.58 1406.14,-13.21 1187.38,-11.43"/>
<polygon fill="midnightblue" stroke="midnightblue" points="1187.36,-7.93 1177.34,-11.35 1187.31,-14.93 1187.36,-7.93"/>
</g>
<!-- Node18 -->
<g id="node18" class="node">
<title>Node18</title>
<g id="a_node18"><a xlink:title=" ">
<polygon fill="white" stroke="#bfbfbf" points="1606.6,-56.5 1606.6,-75.5 1670.6,-75.5 1670.6,-56.5 1606.6,-56.5"/>
<text text-anchor="middle" x="1638.6" y="-63.5" font-family="Helvetica,sans-Serif" font-size="10.00">algorithm</text>
</a>
</g>
</g>
<!-- Node17&#45;&gt;Node18 -->
<g id="edge25" class="edge">
<title>Node17&#45;&gt;Node18</title>
<path fill="none" stroke="midnightblue" d="M1638.6,-117.98C1638.6,-109.58 1638.6,-96.48 1638.6,-85.66"/>
<polygon fill="midnightblue" stroke="midnightblue" points="1642.1,-85.51 1638.6,-75.51 1635.1,-85.51 1642.1,-85.51"/>
</g>
<!-- Node19 -->
<g id="node19" class="node">
<title>Node19</title>
<g id="a_node19"><a xlink:title=" ">
<polygon fill="white" stroke="#bfbfbf" points="1689.1,-56.5 1689.1,-75.5 1788.1,-75.5 1788.1,-56.5 1689.1,-56.5"/>
<text text-anchor="middle" x="1738.6" y="-63.5" font-family="Helvetica,sans-Serif" font-size="10.00">AMReX_BCRec.H</text>
</a>
</g>
</g>
<!-- Node17&#45;&gt;Node19 -->
<g id="edge27" class="edge">
<title>Node17&#45;&gt;Node19</title>
<path fill="none" stroke="midnightblue" d="M1652.93,-117.98C1669.27,-108.25 1696.2,-92.23 1715.51,-80.74"/>
<polygon fill="midnightblue" stroke="midnightblue" points="1717.5,-83.63 1724.3,-75.51 1713.92,-77.61 1717.5,-83.63"/>
</g>
<!-- Node20 -->
<g id="node20" class="node">
<title>Node20</title>
<g id="a_node20"><a xlink:title=" ">
<polygon fill="white" stroke="#bfbfbf" points="1806.1,-56.5 1806.1,-75.5 1893.1,-75.5 1893.1,-56.5 1806.1,-56.5"/>
<text text-anchor="middle" x="1849.6" y="-63.5" font-family="Helvetica,sans-Serif" font-size="10.00">AMReX_Gpu.H</text>
</a>
</g>
</g>
<!-- Node17&#45;&gt;Node20 -->
<g id="edge28" class="edge">
<title>Node17&#45;&gt;Node20</title>
<path fill="none" stroke="midnightblue" d="M1668.83,-117.98C1705.89,-107.53 1768.8,-89.79 1809.77,-78.23"/>
<polygon fill="midnightblue" stroke="midnightblue" points="1810.75,-81.59 1819.43,-75.51 1808.85,-74.85 1810.75,-81.59"/>
</g>
<!-- Node21 -->
<g id="node21" class="node">
<title>Node21</title>
<g id="a_node21"><a xlink:href="incflo__enums_8_h.html" target="_top" xlink:title=" ">
<polygon fill="white" stroke="black" points="1988.1,-56.5 1988.1,-75.5 2129.1,-75.5 2129.1,-56.5 1988.1,-56.5"/>
<text text-anchor="middle" x="2058.6" y="-63.5" font-family="Helvetica,sans-Serif" font-size="10.00">amr&#45;wind/incflo_enums.H</text>
</a>
</g>
</g>
<!-- Node17&#45;&gt;Node21 -->
<g id="edge29" class="edge">
<title>Node17&#45;&gt;Node21</title>
<path fill="none" stroke="midnightblue" d="M1698.78,-117.98C1775.35,-107.13 1907.36,-88.43 1988.42,-76.94"/>
<polygon fill="midnightblue" stroke="midnightblue" points="1989.13,-80.38 1998.54,-75.51 1988.15,-73.45 1989.13,-80.38"/>
</g>
<!-- Node22 -->
<g id="node22" class="node">
<title>Node22</title>
<g id="a_node22"><a xlink:href="_view_field_8_h.html" target="_top" xlink:title=" ">
<polygon fill="white" stroke="black" points="670.6,-56.5 670.6,-75.5 818.6,-75.5 818.6,-56.5 670.6,-56.5"/>
<text text-anchor="middle" x="744.6" y="-63.5" font-family="Helvetica,sans-Serif" font-size="10.00">amr&#45;wind/core/ViewField.H</text>
</a>
</g>
</g>
<!-- Node17&#45;&gt;Node22 -->
<g id="edge31" class="edge">
<title>Node17&#45;&gt;Node22</title>
<path fill="none" stroke="midnightblue" d="M1576.45,-122.36C1419.52,-111.92 1007.14,-84.47 828.79,-72.6"/>
<polygon fill="midnightblue" stroke="midnightblue" points="828.88,-69.1 818.67,-71.93 828.42,-76.09 828.88,-69.1"/>
</g>
<!-- Node22&#45;&gt;Node9 -->
<g id="edge33" class="edge">
<title>Node22&#45;&gt;Node9</title>
<path fill="none" stroke="midnightblue" d="M695.32,-56.44C640.27,-46.89 551.2,-31.42 492.52,-21.23"/>
<polygon fill="midnightblue" stroke="midnightblue" points="493.1,-17.78 482.65,-19.52 491.9,-24.68 493.1,-17.78"/>
</g>
<!-- Node22&#45;&gt;Node13 -->
<g id="edge32" class="edge">
<title>Node22&#45;&gt;Node13</title>
<path fill="none" stroke="midnightblue" d="M760.99,-56.32C777.27,-47.7 802.47,-34.36 821.32,-24.39"/>
<polygon fill="midnightblue" stroke="midnightblue" points="823.05,-27.43 830.25,-19.65 819.78,-21.24 823.05,-27.43"/>
</g>
<!-- Node22&#45;&gt;Node15 -->
<g id="edge34" class="edge">
<title>Node22&#45;&gt;Node15</title>
<path fill="none" stroke="midnightblue" d="M804.5,-56.44C873.55,-46.58 986.63,-30.42 1057.72,-20.27"/>
<polygon fill="midnightblue" stroke="midnightblue" points="1058.49,-23.69 1067.9,-18.82 1057.5,-16.76 1058.49,-23.69"/>
</g>
<!-- Node23 -->
<g id="node23" class="node">
<title>Node23</title>
<g id="a_node23"><a xlink:title=" ">
<polygon fill="white" stroke="#bfbfbf" points="644.6,-0.5 644.6,-19.5 742.6,-19.5 742.6,-0.5 644.6,-0.5"/>
<text text-anchor="middle" x="693.6" y="-7.5" font-family="Helvetica,sans-Serif" font-size="10.00">AMReX_Vector.H</text>
</a>
</g>
</g>
<!-- Node22&#45;&gt;Node23 -->
<g id="edge35" class="edge">
<title>Node22&#45;&gt;Node23</title>
<path fill="none" stroke="midnightblue" d="M736.18,-56.08C728.75,-48.22 717.75,-36.57 708.79,-27.08"/>
<polygon fill="midnightblue" stroke="midnightblue" points="711.28,-24.62 701.87,-19.75 706.19,-29.42 711.28,-24.62"/>
</g>
<!-- Node24&#45;&gt;Node9 -->
<g id="edge38" class="edge">
<title>Node24&#45;&gt;Node9</title>
<path fill="none" stroke="midnightblue" d="M143.54,-117.81C117.3,-104.71 75.47,-78.99 95.6,-56 111.31,-38.06 241.15,-24.88 335.22,-17.57"/>
<polygon fill="midnightblue" stroke="midnightblue" points="335.65,-21.05 345.35,-16.79 335.12,-14.07 335.65,-21.05"/>
</g>
<!-- Node24&#45;&gt;Node13 -->
<g id="edge37" class="edge">
<title>Node24&#45;&gt;Node13</title>
<path fill="none" stroke="midnightblue" d="M152.47,-117.69C137.06,-103.27 111.25,-74.38 128.6,-56 176.2,-5.58 682.47,-25.27 751.6,-20 772.45,-18.41 795.84,-16.2 814.19,-14.37"/>
<polygon fill="midnightblue" stroke="midnightblue" points="814.76,-17.83 824.36,-13.34 814.05,-10.86 814.76,-17.83"/>
</g>
<!-- Node24&#45;&gt;Node25 -->
<g id="edge39" class="edge">
<title>Node24&#45;&gt;Node25</title>
<path fill="none" stroke="midnightblue" d="M167.04,-117.98C171.56,-109.32 178.68,-95.65 184.41,-84.65"/>
<polygon fill="midnightblue" stroke="midnightblue" points="187.65,-85.99 189.17,-75.51 181.44,-82.76 187.65,-85.99"/>
</g>
<!-- Node26&#45;&gt;Node9 -->
<g id="edge43" class="edge">
<title>Node26&#45;&gt;Node9</title>
<path fill="none" stroke="midnightblue" d="M617.67,-117.72C613.92,-102.81 604.25,-72.55 584.6,-56 564.56,-39.12 538.37,-28.58 513.45,-21.99"/>
<polygon fill="midnightblue" stroke="midnightblue" points="514.16,-18.55 503.61,-19.56 512.48,-25.35 514.16,-18.55"/>
</g>
<!-- Node26&#45;&gt;Node13 -->
<g id="edge41" class="edge">
<title>Node26&#45;&gt;Node13</title>
<path fill="none" stroke="midnightblue" d="M664.87,-118C722.43,-106.81 815.81,-87.26 827.6,-76 840.08,-64.08 844.5,-44.47 845.99,-29.9"/>
<polygon fill="midnightblue" stroke="midnightblue" points="849.51,-29.74 846.66,-19.53 842.52,-29.29 849.51,-29.74"/>
</g>
<!-- Node26&#45;&gt;Node15 -->
<g id="edge45" class="edge">
<title>Node26&#45;&gt;Node15</title>
<path fill="none" stroke="midnightblue" d="M671.74,-117.97C685.35,-115.87 700.01,-113.74 713.6,-112 792.04,-101.97 997.65,-112.86 1067.6,-76 1087.77,-65.37 1103.6,-43.96 1113,-28.61"/>
<polygon fill="midnightblue" stroke="midnightblue" points="1116.25,-29.99 1118.23,-19.58 1110.19,-26.48 1116.25,-29.99"/>
</g>
<!-- Node26&#45;&gt;Node22 -->
<g id="edge44" class="edge">
<title>Node26&#45;&gt;Node22</title>
<path fill="none" stroke="midnightblue" d="M637.51,-117.98C658.49,-107.99 693.45,-91.35 717.7,-79.81"/>
<polygon fill="midnightblue" stroke="midnightblue" points="719.2,-82.97 726.73,-75.51 716.19,-76.65 719.2,-82.97"/>
</g>
<!-- Node26&#45;&gt;Node23 -->
<g id="edge46" class="edge">
<title>Node26&#45;&gt;Node23</title>
<path fill="none" stroke="midnightblue" d="M624.55,-117.68C632.19,-104.19 647.44,-77.72 661.6,-56 667.75,-46.56 675,-36.31 681.04,-27.98"/>
<polygon fill="midnightblue" stroke="midnightblue" points="683.93,-29.95 687.01,-19.82 678.28,-25.82 683.93,-29.95"/>
</g>
<!-- Node27 -->
<g id="node27" class="node">
<title>Node27</title>
<g id="a_node27"><a xlink:title=" ">
<polygon fill="white" stroke="#bfbfbf" points="531.1,-56.5 531.1,-75.5 576.1,-75.5 576.1,-56.5 531.1,-56.5"/>
<text text-anchor="middle" x="553.6" y="-63.5" font-family="Helvetica,sans-Serif" font-size="10.00">utility</text>
</a>
</g>
</g>
<!-- Node26&#45;&gt;Node27 -->
<g id="edge42" class="edge">
<title>Node26&#45;&gt;Node27</title>
<path fill="none" stroke="midnightblue" d="M610.15,-117.98C599.85,-108.7 583.19,-93.67 570.61,-82.33"/>
<polygon fill="midnightblue" stroke="midnightblue" points="572.81,-79.61 563.04,-75.51 568.12,-84.8 572.81,-79.61"/>
</g>
<!-- Node28 -->
<g id="node28" class="node">
<title>Node28</title>
<g id="a_node28"><a xlink:title=" ">
<polygon fill="white" stroke="#bfbfbf" points="382.1,-56.5 382.1,-75.5 513.1,-75.5 513.1,-56.5 382.1,-56.5"/>
<text text-anchor="middle" x="447.6" y="-63.5" font-family="Helvetica,sans-Serif" font-size="10.00">AMReX_PhysBCFunct.H</text>
</a>
</g>
</g>
<!-- Node26&#45;&gt;Node28 -->
<g id="edge47" class="edge">
<title>Node26&#45;&gt;Node28</title>
<path fill="none" stroke="midnightblue" d="M594.96,-117.98C565.33,-107.72 515.42,-90.46 482,-78.9"/>
<polygon fill="midnightblue" stroke="midnightblue" points="482.79,-75.47 472.2,-75.51 480.51,-82.09 482.79,-75.47"/>
</g>
<!-- Node29&#45;&gt;Node9 -->
<g id="edge51" class="edge">
<title>Node29&#45;&gt;Node9</title>
<path fill="none" stroke="midnightblue" d="M368.8,-117.61C343.35,-110.61 317.04,-98.15 301.6,-76 281.76,-47.54 320.12,-30.99 360.51,-21.71"/>
<polygon fill="midnightblue" stroke="midnightblue" points="361.47,-25.09 370.51,-19.56 360,-18.24 361.47,-25.09"/>
</g>
<!-- Node29&#45;&gt;Node13 -->
<g id="edge49" class="edge">
<title>Node29&#45;&gt;Node13</title>
<path fill="none" stroke="midnightblue" d="M409.63,-112.3C384.47,-98.14 354.66,-75.72 372.6,-56 372.6,-56 707.28,-24.23 814.19,-14.08"/>
<polygon fill="midnightblue" stroke="midnightblue" points="814.75,-17.54 824.38,-13.11 814.09,-10.57 814.75,-17.54"/>
</g>
<!-- Node29&#45;&gt;Node22 -->
<g id="edge52" class="edge">
<title>Node29&#45;&gt;Node22</title>
<path fill="none" stroke="midnightblue" d="M508.42,-112.92C563.7,-102.17 639.8,-87.38 690.52,-77.52"/>
<polygon fill="midnightblue" stroke="midnightblue" points="691.48,-80.9 700.63,-75.55 690.14,-74.02 691.48,-80.9"/>
</g>
<!-- Node29&#45;&gt;Node23 -->
<g id="edge54" class="edge">
<title>Node29&#45;&gt;Node23</title>
<path fill="none" stroke="midnightblue" d="M390.98,-112.46C356.27,-99.87 318.68,-79.75 339.6,-56 358.74,-34.27 538.69,-20.28 634.39,-14.31"/>
<polygon fill="midnightblue" stroke="midnightblue" points="634.74,-17.8 644.51,-13.69 634.31,-10.81 634.74,-17.8"/>
</g>
<!-- Node29&#45;&gt;Node25 -->
<g id="edge53" class="edge">
<title>Node29&#45;&gt;Node25</title>
<path fill="none" stroke="midnightblue" d="M380.85,-112.47C337.29,-101.9 278.4,-87.59 238.38,-77.87"/>
<polygon fill="midnightblue" stroke="midnightblue" points="239.17,-74.47 228.63,-75.51 237.52,-81.27 239.17,-74.47"/>
</g>
<!-- Node29&#45;&gt;Node27 -->
<g id="edge50" class="edge">
<title>Node29&#45;&gt;Node27</title>
<path fill="none" stroke="midnightblue" d="M465.86,-112.4C484.63,-102.68 509.43,-89.86 527.87,-80.31"/>
<polygon fill="midnightblue" stroke="midnightblue" points="529.6,-83.36 536.87,-75.66 526.38,-77.14 529.6,-83.36"/>
</g>
<!-- Node29&#45;&gt;Node28 -->
<g id="edge55" class="edge">
<title>Node29&#45;&gt;Node28</title>
<path fill="none" stroke="midnightblue" d="M440.74,-112.4C441.95,-104.38 443.48,-94.23 444.79,-85.57"/>
<polygon fill="midnightblue" stroke="midnightblue" points="448.26,-86.07 446.29,-75.66 441.34,-85.02 448.26,-86.07"/>
</g>
<!-- Node32&#45;&gt;Node11 -->
<g id="edge72" class="edge">
<title>Node32&#45;&gt;Node11</title>
<path fill="none" stroke="midnightblue" d="M1225.3,-313.4C1224.58,-305.56 1223.66,-295.6 1222.82,-286.57"/>
<polygon fill="midnightblue" stroke="midnightblue" points="1226.31,-286.21 1221.9,-276.58 1219.34,-286.86 1226.31,-286.21"/>
</g>
<!-- Node32&#45;&gt;Node31 -->
<g id="edge73" class="edge">
<title>Node32&#45;&gt;Node31</title>
<path fill="none" stroke="midnightblue" d="M1190.37,-313.4C1160.67,-301.84 1119.1,-285.66 1090.85,-274.66"/>
<polygon fill="midnightblue" stroke="midnightblue" points="1092.05,-271.37 1081.46,-271.01 1089.51,-277.9 1092.05,-271.37"/>
</g>
<!-- Node33 -->
<g id="node33" class="node">
<title>Node33</title>
<g id="a_node33"><a xlink:href="_multi_phase_8_h.html" target="_top" xlink:title=" ">
<polygon fill="white" stroke="black" points="1558.1,-246.5 1558.1,-276.5 1719.1,-276.5 1719.1,-246.5 1558.1,-246.5"/>
<text text-anchor="start" x="1566.1" y="-264.5" font-family="Helvetica,sans-Serif" font-size="10.00">amr&#45;wind/physics/multiphase</text>
<text text-anchor="middle" x="1638.6" y="-253.5" font-family="Helvetica,sans-Serif" font-size="10.00">/MultiPhase.H</text>
</a>
</g>
</g>
<!-- Node32&#45;&gt;Node33 -->
<g id="edge61" class="edge">
<title>Node32&#45;&gt;Node33</title>
<path fill="none" stroke="midnightblue" d="M1308.99,-314.5C1377.92,-303.63 1476.17,-288.13 1547.45,-276.88"/>
<polygon fill="midnightblue" stroke="midnightblue" points="1548.43,-280.27 1557.76,-275.25 1547.34,-273.35 1548.43,-280.27"/>
</g>
<!-- Node33&#45;&gt;Node17 -->
<g id="edge71" class="edge">
<title>Node33&#45;&gt;Node17</title>
<path fill="none" stroke="midnightblue" d="M1638.6,-246.37C1638.6,-222.5 1638.6,-174.18 1638.6,-147.41"/>
<polygon fill="midnightblue" stroke="midnightblue" points="1642.1,-147.1 1638.6,-137.1 1635.1,-147.1 1642.1,-147.1"/>
</g>
<!-- Node34 -->
<g id="node34" class="node">
<title>Node34</title>
<g id="a_node34"><a xlink:href="_physics_8_h.html" target="_top" xlink:title=" ">
<polygon fill="white" stroke="black" points="1872.1,-185 1872.1,-204 2009.1,-204 2009.1,-185 1872.1,-185"/>
<text text-anchor="middle" x="1940.6" y="-192" font-family="Helvetica,sans-Serif" font-size="10.00">amr&#45;wind/core/Physics.H</text>
</a>
</g>
</g>
<!-- Node33&#45;&gt;Node34 -->
<g id="edge62" class="edge">
<title>Node33&#45;&gt;Node34</title>
<path fill="none" stroke="midnightblue" d="M1703.76,-246.48C1760.01,-234.37 1840.05,-217.14 1891.16,-206.14"/>
<polygon fill="midnightblue" stroke="midnightblue" points="1891.94,-209.55 1900.98,-204.03 1890.46,-202.71 1891.94,-209.55"/>
</g>
<!-- Node34&#45;&gt;Node4 -->
<g id="edge63" class="edge">
<title>Node34&#45;&gt;Node4</title>
<path fill="none" stroke="midnightblue" d="M1871.93,-186.17C1757.52,-173.96 1528.67,-149.53 1408.83,-136.74"/>
<polygon fill="midnightblue" stroke="midnightblue" points="1408.95,-133.24 1398.64,-135.65 1408.21,-140.2 1408.95,-133.24"/>
</g>
<!-- Node34&#45;&gt;Node15 -->
<g id="edge69" class="edge">
<title>Node34&#45;&gt;Node15</title>
<path fill="none" stroke="midnightblue" d="M2007.9,-184.94C2112.87,-169.11 2296.56,-129.91 2225.6,-56 2189.51,-18.41 1418.34,-12.21 1187.39,-11.2"/>
<polygon fill="midnightblue" stroke="midnightblue" points="1187.14,-7.7 1177.13,-11.15 1187.11,-14.7 1187.14,-7.7"/>
</g>
<!-- Node35 -->
<g id="node35" class="node">
<title>Node35</title>
<g id="a_node35"><a xlink:href="_coll_mgr_8_h.html" target="_top" xlink:title=" ">
<polygon fill="white" stroke="black" points="1872.1,-118 1872.1,-137 2009.1,-137 2009.1,-118 1872.1,-118"/>
<text text-anchor="middle" x="1940.6" y="-125" font-family="Helvetica,sans-Serif" font-size="10.00">amr&#45;wind/core/CollMgr.H</text>
</a>
</g>
</g>
<!-- Node34&#45;&gt;Node35 -->
<g id="edge64" class="edge">
<title>Node34&#45;&gt;Node35</title>
<path fill="none" stroke="midnightblue" d="M1940.6,-184.73C1940.6,-175.18 1940.6,-159.62 1940.6,-147.28"/>
<polygon fill="midnightblue" stroke="midnightblue" points="1944.1,-147.13 1940.6,-137.13 1937.1,-147.13 1944.1,-147.13"/>
</g>
<!-- Node36 -->
<g id="node36" class="node">
<title>Node36</title>
<g id="a_node36"><a xlink:title=" ">
<polygon fill="white" stroke="#bfbfbf" points="2027.1,-118 2027.1,-137 2142.1,-137 2142.1,-118 2027.1,-118"/>
<text text-anchor="middle" x="2084.6" y="-125" font-family="Helvetica,sans-Serif" font-size="10.00">AMReX_Geometry.H</text>
</a>
</g>
</g>
<!-- Node34&#45;&gt;Node36 -->
<g id="edge70" class="edge">
<title>Node34&#45;&gt;Node36</title>
<path fill="none" stroke="midnightblue" d="M1959.72,-184.87C1984.36,-173.75 2027.41,-154.32 2055.96,-141.43"/>
<polygon fill="midnightblue" stroke="midnightblue" points="2057.73,-144.47 2065.4,-137.17 2054.85,-138.09 2057.73,-144.47"/>
</g>
<!-- Node35&#45;&gt;Node3 -->
<g id="edge67" class="edge">
<title>Node35&#45;&gt;Node3</title>
<path fill="none" stroke="midnightblue" d="M1872.55,-117.98C1778.41,-106.18 1610.16,-85.11 1522.4,-74.11"/>
<polygon fill="midnightblue" stroke="midnightblue" points="1522.72,-70.63 1512.36,-72.86 1521.85,-77.57 1522.72,-70.63"/>
</g>
<!-- Node35&#45;&gt;Node5 -->
<g id="edge66" class="edge">
<title>Node35&#45;&gt;Node5</title>
<path fill="none" stroke="midnightblue" d="M1940.6,-117.98C1940.6,-109.58 1940.6,-96.48 1940.6,-85.66"/>
<polygon fill="midnightblue" stroke="midnightblue" points="1944.1,-85.51 1940.6,-75.51 1937.1,-85.51 1944.1,-85.51"/>
</g>
<!-- Node35&#45;&gt;Node13 -->
<g id="edge65" class="edge">
<title>Node35&#45;&gt;Node13</title>
<path fill="none" stroke="midnightblue" d="M1986.19,-117.99C2062.86,-103.67 2209.38,-76.27 2209.6,-76 2215.28,-69.16 2215.8,-62.37 2209.6,-56 2159.42,-4.41 986.35,-25.73 914.6,-20 903,-19.07 890.34,-17.54 879.13,-16"/>
<polygon fill="midnightblue" stroke="midnightblue" points="879.29,-12.49 868.9,-14.54 878.3,-19.42 879.29,-12.49"/>
</g>
<!-- Node35&#45;&gt;Node23 -->
<g id="edge68" class="edge">
<title>Node35&#45;&gt;Node23</title>
<path fill="none" stroke="midnightblue" d="M1986.1,-117.93C2041.57,-107.03 2129.16,-88.15 2138.6,-76 2144.06,-68.98 2144.8,-62.37 2138.6,-56 2112.96,-29.65 852.32,-21.85 815.6,-20 795.19,-18.97 772.89,-17.44 753,-15.94"/>
<polygon fill="midnightblue" stroke="midnightblue" points="753.08,-12.43 742.84,-15.16 752.54,-19.41 753.08,-12.43"/>
</g>
</g>
</svg>
        <g id="navigator" transform="translate(0 0)" fill="#404254">
                <rect fill="#f2f5e9" fill-opacity="0.5" stroke="#606060" stroke-width=".5" x="0" y="0" width="60" height="60"/>
                <use id="zoomplus" xlink:href="#zoomPlus" x="17" y="9" onmousedown="handleZoom(evt,'in')"/>
                <use id="zoomminus" xlink:href="#zoomMin" x="42" y="9" onmousedown="handleZoom(evt,'out')"/>
                <use id="reset" xlink:href="#resetDef" x="30" y="36" onmousedown="handleReset()"/>
                <g id="arrowUp" xlink:href="#dirArrow" transform="translate(30 24)" onmousedown="handlePan(0,-1)">
                  <use xlink:href="#rim" fill="#404040">
                        <set attributeName="fill" to="#808080" begin="arrowUp.mouseover" end="arrowUp.mouseout"/>
                  </use>
                  <path fill="none" stroke="white" stroke-width="1.5" d="M0,-3.0v7 M-2.5,-0.5L0,-3.0L2.5,-0.5"/>
                </g>
                <g id="arrowRight" xlink:href="#dirArrow" transform="rotate(90) translate(36 -43)" onmousedown="handlePan(1,0)">
                  <use xlink:href="#rim" fill="#404040">
                        <set attributeName="fill" to="#808080" begin="arrowRight.mouseover" end="arrowRight.mouseout"/>
                  </use>
                  <path fill="none" stroke="white" stroke-width="1.5" d="M0,-3.0v7 M-2.5,-0.5L0,-3.0L2.5,-0.5"/>
                </g>
                <g id="arrowDown" xlink:href="#dirArrow" transform="rotate(180) translate(-30 -48)" onmousedown="handlePan(0,1)">
                  <use xlink:href="#rim" fill="#404040">
                        <set attributeName="fill" to="#808080" begin="arrowDown.mouseover" end="arrowDown.mouseout"/>
                  </use>
                  <path fill="none" stroke="white" stroke-width="1.5" d="M0,-3.0v7 M-2.5,-0.5L0,-3.0L2.5,-0.5"/>
                </g>
                <g id="arrowLeft" xlink:href="#dirArrow" transform="rotate(270) translate(-36 17)" onmousedown="handlePan(-1,0)">
                  <use xlink:href="#rim" fill="#404040">
                        <set attributeName="fill" to="#808080" begin="arrowLeft.mouseover" end="arrowLeft.mouseout"/>
                  </use>
                  <path fill="none" stroke="white" stroke-width="1.5" d="M0,-3.0v7 M-2.5,-0.5L0,-3.0L2.5,-0.5"/>
                </g>
        </g>
        <svg viewBox="0 0 15 15" width="100%" height="30px" preserveAspectRatio="xMaxYMin meet">
         <g id="arrow_out" transform="scale(0.3 0.3)">
          <a xlink:href="_turb_model_defs_8_h__incl_org.svg" target="_base">
           <rect id="button" ry="5" rx="5" y="6" x="6" height="38" width="38"
                fill="#f2f5e9" fill-opacity="0.5" stroke="#606060" stroke-width="1.0"/>
           <path id="arrow"
             d="M 11.500037,31.436501 C 11.940474,20.09759 22.043105,11.32322 32.158766,21.979434 L 37.068811,17.246167 C 37.068811,17.246167 37.088388,32 37.088388,32 L 22.160133,31.978069 C 22.160133,31.978069 26.997745,27.140456 26.997745,27.140456 C 18.528582,18.264221 13.291696,25.230495 11.500037,31.436501 z"
             style="fill:#404040;"/>
          </a>
         </g>
        </svg>
</svg>
