<?xml version="1.0" encoding="UTF-8" standalone="no"?>
<!DOCTYPE svg PUBLIC "-//W3C//DTD SVG 1.1//EN"
 "http://www.w3.org/Graphics/SVG/1.1/DTD/svg11.dtd">
<!-- Generated by graphviz version 2.43.0 (0)
 -->
<!-- Title: incflo::Evolve Pages: 1 -->
<!--zoomable 635 -->
<svg id="main" version="1.1" xmlns="http://www.w3.org/2000/svg" xmlns:xlink="http://www.w3.org/1999/xlink" xml:space="preserve" onload="init(evt)">
<style type="text/css"><![CDATA[
.edge:hover path { stroke: red; }
.edge:hover polygon { stroke: red; fill: red; }
]]></style>
<script type="text/javascript"><![CDATA[
var edges = document.getElementsByTagName('g');
if (edges && edges.length) {
  for (var i=0;i<edges.length;i++) {
    if (edges[i].id.substr(0,4)=='edge') {
      edges[i].setAttribute('class','edge');
    }
  }
}
]]></script>
        <defs>
                <circle id="rim" cx="0" cy="0" r="7"/>
                <circle id="rim2" cx="0" cy="0" r="3.5"/>
                <g id="zoomPlus">
                        <use xlink:href="#rim" fill="#404040">
                                <set attributeName="fill" to="#808080" begin="zoomplus.mouseover" end="zoomplus.mouseout"/>
                        </use>
                        <path d="M-4,0h8M0,-4v8" fill="none" stroke="white" stroke-width="1.5" pointer-events="none"/>
                </g>
                <g id="zoomMin">
                        <use xlink:href="#rim" fill="#404040">
                                <set attributeName="fill" to="#808080" begin="zoomminus.mouseover" end="zoomminus.mouseout"/>
                        </use>
                        <path d="M-4,0h8" fill="none" stroke="white" stroke-width="1.5" pointer-events="none"/>
                </g>
                <g id="dirArrow">
                        <path fill="none" stroke="white" stroke-width="1.5" d="M0,-3.0v7 M-2.5,-0.5L0,-3.0L2.5,-0.5"/>
                </g>
               <g id="resetDef">
                       <use xlink:href="#rim2" fill="#404040">
                               <set attributeName="fill" to="#808080" begin="reset.mouseover" end="reset.mouseout"/>
                       </use>
               </g>
        </defs>

<script type="text/javascript">
var viewWidth = 275;
var viewHeight = 635;
var sectionId = 'dynsection-2';
</script>
<script xlink:href="svgpan.js"/>
<svg id="graph" class="graph">
<g id="viewport">
<title>incflo::Evolve</title>
<polygon fill="white" stroke="transparent" points="-4,4 -4,-630.5 271,-630.5 271,4 -4,4"/>
<!-- Node1 -->
<g id="node1" class="node">
<title>Node1</title>
<g id="a_node1"><a xlink:title="Perform time&#45;integration for user&#45;defined time or timesteps.">
<polygon fill="#bfbfbf" stroke="black" points="0,-317 0,-336 82,-336 82,-317 0,-317"/>
<text text-anchor="middle" x="41" y="-324" font-family="Helvetica,sans-Serif" font-size="10.00">incflo::Evolve</text>
</a>
</g>
</g>
<!-- Node2 -->
<g id="node2" class="node">
<title>Node2</title>
<g id="a_node2"><a xlink:href="classincflo.html#a22114d65c7a744e185cb768669061fec" target="_top" xlink:title="Advance simulation state by one timestep.">
<polygon fill="white" stroke="black" points="147.5,-607 147.5,-626 237.5,-626 237.5,-607 147.5,-607"/>
<text text-anchor="middle" x="192.5" y="-614" font-family="Helvetica,sans-Serif" font-size="10.00">incflo::advance</text>
</a>
</g>
</g>
<!-- Node1&#45;&gt;Node2 -->
<g id="edge1" class="edge">
<title>Node1&#45;&gt;Node2</title>
<path fill="none" stroke="midnightblue" d="M41.55,-336.07C40.27,-374.87 40.86,-521.93 118,-597.5 123.44,-602.83 130.16,-606.72 137.32,-609.55"/>
<polygon fill="midnightblue" stroke="midnightblue" points="136.66,-613.02 147.26,-612.79 138.83,-606.36 136.66,-613.02"/>
</g>
<!-- Node3 -->
<g id="node3" class="node">
<title>Node3</title>
<g id="a_node3"><a xlink:href="classincflo.html#a24c9953c346c266e1e5be73f0ae34667" target="_top" xlink:title=" ">
<polygon fill="white" stroke="black" points="118,-569 118,-588 267,-588 267,-569 118,-569"/>
<text text-anchor="middle" x="192.5" y="-576" font-family="Helvetica,sans-Serif" font-size="10.00">incflo::ComputePrescribeDt</text>
</a>
</g>
</g>
<!-- Node1&#45;&gt;Node3 -->
<g id="edge2" class="edge">
<title>Node1&#45;&gt;Node3</title>
<path fill="none" stroke="midnightblue" d="M42.06,-336.18C42.82,-371.68 50.4,-495.99 118,-559.5 119.68,-561.08 121.47,-562.53 123.35,-563.86"/>
<polygon fill="midnightblue" stroke="midnightblue" points="121.71,-566.95 132.1,-568.99 125.24,-560.91 121.71,-566.95"/>
</g>
<!-- Node4 -->
<g id="node4" class="node">
<title>Node4</title>
<g id="a_node4"><a xlink:href="classamr__wind_1_1_c_f_d_sim.html#a53f6989a504570158dff0a103e968b99" target="_top" xlink:title=" ">
<polygon fill="white" stroke="black" points="130,-519.5 130,-549.5 255,-549.5 255,-519.5 130,-519.5"/>
<text text-anchor="start" x="138" y="-537.5" font-family="Helvetica,sans-Serif" font-size="10.00">amr_wind::CFDSim::io</text>
<text text-anchor="middle" x="192.5" y="-526.5" font-family="Helvetica,sans-Serif" font-size="10.00">_manager</text>
</a>
</g>
</g>
<!-- Node1&#45;&gt;Node4 -->
<g id="edge3" class="edge">
<title>Node1&#45;&gt;Node4</title>
<path fill="none" stroke="midnightblue" d="M43.14,-336.09C47.25,-366.31 64,-460.46 118,-510.5 119.29,-511.69 120.63,-512.82 122.03,-513.9"/>
<polygon fill="midnightblue" stroke="midnightblue" points="120.24,-516.91 130.52,-519.47 124.08,-511.06 120.24,-516.91"/>
</g>
<!-- Node5 -->
<g id="node5" class="node">
<title>Node5</title>
<g id="a_node5"><a xlink:href="classamr__wind_1_1_sim_time.html#a6876c4852c53ab6f86bba1cb09386339" target="_top" xlink:title="Advance to a new time state and update internal time states.">
<polygon fill="white" stroke="black" points="132.5,-470.5 132.5,-500.5 252.5,-500.5 252.5,-470.5 132.5,-470.5"/>
<text text-anchor="start" x="140.5" y="-488.5" font-family="Helvetica,sans-Serif" font-size="10.00">amr_wind::SimTime::</text>
<text text-anchor="middle" x="192.5" y="-477.5" font-family="Helvetica,sans-Serif" font-size="10.00">new_timestep</text>
</a>
</g>
</g>
<!-- Node1&#45;&gt;Node5 -->
<g id="edge4" class="edge">
<title>Node1&#45;&gt;Node5</title>
<path fill="none" stroke="midnightblue" d="M44.82,-336.17C52.44,-360.64 75.76,-425.54 118,-460.5 120.04,-462.19 122.21,-463.77 124.46,-465.25"/>
<polygon fill="midnightblue" stroke="midnightblue" points="123.12,-468.51 133.54,-470.43 126.59,-462.43 123.12,-468.51"/>
</g>
<!-- Node6 -->
<g id="node6" class="node">
<title>Node6</title>
<g id="a_node6"><a xlink:href="classincflo.html#a339cc34ea0a08de4eaff982226dab8bf" target="_top" xlink:title="Perform actions after a timestep.">
<polygon fill="white" stroke="black" points="119.5,-432 119.5,-451 265.5,-451 265.5,-432 119.5,-432"/>
<text text-anchor="middle" x="192.5" y="-439" font-family="Helvetica,sans-Serif" font-size="10.00">incflo::post_advance_work</text>
</a>
</g>
</g>
<!-- Node1&#45;&gt;Node6 -->
<g id="edge5" class="edge">
<title>Node1&#45;&gt;Node6</title>
<path fill="none" stroke="midnightblue" d="M46.81,-336.1C57.08,-355.57 83.08,-399.77 118,-422.5 121.17,-424.56 124.55,-426.4 128.06,-428.04"/>
<polygon fill="midnightblue" stroke="midnightblue" points="126.99,-431.39 137.57,-431.93 129.64,-424.91 126.99,-431.39"/>
</g>
<!-- Node7 -->
<g id="node7" class="node">
<title>Node7</title>
<g id="a_node7"><a xlink:href="classincflo.html#a171fd353adf62e83b0e65a20fd27e567" target="_top" xlink:title=" ">
<polygon fill="white" stroke="black" points="137,-382.5 137,-412.5 248,-412.5 248,-382.5 137,-382.5"/>
<text text-anchor="start" x="145" y="-400.5" font-family="Helvetica,sans-Serif" font-size="10.00">incflo::pre_advance</text>
<text text-anchor="middle" x="192.5" y="-389.5" font-family="Helvetica,sans-Serif" font-size="10.00">_stage1</text>
</a>
</g>
</g>
<!-- Node1&#45;&gt;Node7 -->
<g id="edge6" class="edge">
<title>Node1&#45;&gt;Node7</title>
<path fill="none" stroke="midnightblue" d="M55.18,-336.01C69.92,-346.31 94.78,-362.72 118,-373.5 122.01,-375.36 126.21,-377.14 130.48,-378.83"/>
<polygon fill="midnightblue" stroke="midnightblue" points="129.3,-382.13 139.89,-382.38 131.77,-375.58 129.3,-382.13"/>
</g>
<!-- Node8 -->
<g id="node8" class="node">
<title>Node8</title>
<g id="a_node8"><a xlink:href="classincflo.html#ae9108a8fa888740a724bd6c2384f5bae" target="_top" xlink:title=" ">
<polygon fill="white" stroke="black" points="137,-333.5 137,-363.5 248,-363.5 248,-333.5 137,-333.5"/>
<text text-anchor="start" x="145" y="-351.5" font-family="Helvetica,sans-Serif" font-size="10.00">incflo::pre_advance</text>
<text text-anchor="middle" x="192.5" y="-340.5" font-family="Helvetica,sans-Serif" font-size="10.00">_stage2</text>
</a>
</g>
</g>
<!-- Node1&#45;&gt;Node8 -->
<g id="edge7" class="edge">
<title>Node1&#45;&gt;Node8</title>
<path fill="none" stroke="midnightblue" d="M82.06,-332.4C95.9,-334.43 111.77,-336.77 127.06,-339.02"/>
<polygon fill="midnightblue" stroke="midnightblue" points="126.59,-342.49 136.99,-340.48 127.61,-335.56 126.59,-342.49"/>
</g>
<!-- Node9 -->
<g id="node9" class="node">
<title>Node9</title>
<g id="a_node9"><a xlink:href="classincflo.html#aad85e85b57359821c0ebe12645069a7e" target="_top" xlink:title=" ">
<polygon fill="white" stroke="black" points="122.5,-295 122.5,-314 262.5,-314 262.5,-295 122.5,-295"/>
<text text-anchor="middle" x="192.5" y="-302" font-family="Helvetica,sans-Serif" font-size="10.00">incflo::prescribe_advance</text>
</a>
</g>
</g>
<!-- Node1&#45;&gt;Node9 -->
<g id="edge8" class="edge">
<title>Node1&#45;&gt;Node9</title>
<path fill="none" stroke="midnightblue" d="M82.06,-320.6C92.81,-319.02 104.78,-317.26 116.75,-315.5"/>
<polygon fill="midnightblue" stroke="midnightblue" points="117.4,-318.94 126.78,-314.02 116.38,-312.02 117.4,-318.94"/>
</g>
<!-- Node10 -->
<g id="node10" class="node">
<title>Node10</title>
<g id="a_node10"><a xlink:href="classincflo.html#ae09184db23dbf56c886e48000c7685d7" target="_top" xlink:title="Perform regrid actions at a given timestep.">
<polygon fill="white" stroke="black" points="142,-245.5 142,-275.5 243,-275.5 243,-245.5 142,-245.5"/>
<text text-anchor="start" x="150" y="-263.5" font-family="Helvetica,sans-Serif" font-size="10.00">incflo::regrid_and</text>
<text text-anchor="middle" x="192.5" y="-252.5" font-family="Helvetica,sans-Serif" font-size="10.00">_update</text>
</a>
</g>
</g>
<!-- Node1&#45;&gt;Node10 -->
<g id="edge9" class="edge">
<title>Node1&#45;&gt;Node10</title>
<path fill="none" stroke="midnightblue" d="M57.92,-316.9C73.03,-308.03 96.56,-294.85 118,-285.5 123.02,-283.31 128.3,-281.19 133.62,-279.16"/>
<polygon fill="midnightblue" stroke="midnightblue" points="135.04,-282.37 143.22,-275.63 132.63,-275.8 135.04,-282.37"/>
</g>
<!-- Node11 -->
<g id="node11" class="node">
<title>Node11</title>
<g id="a_node11"><a xlink:href="classamr__wind_1_1_sim_time.html#a2e5adf26426dc2125954797919edd02b" target="_top" xlink:title=" ">
<polygon fill="white" stroke="black" points="132.5,-196.5 132.5,-226.5 252.5,-226.5 252.5,-196.5 132.5,-196.5"/>
<text text-anchor="start" x="140.5" y="-214.5" font-family="Helvetica,sans-Serif" font-size="10.00">amr_wind::SimTime::</text>
<text text-anchor="middle" x="192.5" y="-203.5" font-family="Helvetica,sans-Serif" font-size="10.00">time_index</text>
</a>
</g>
</g>
<!-- Node1&#45;&gt;Node11 -->
<g id="edge10" class="edge">
<title>Node1&#45;&gt;Node11</title>
<path fill="none" stroke="midnightblue" d="M47.62,-316.87C58.76,-298.6 85.4,-258.74 118,-236.5 120.87,-234.54 123.91,-232.72 127.05,-231.04"/>
<polygon fill="midnightblue" stroke="midnightblue" points="128.66,-234.15 136.13,-226.63 125.61,-227.85 128.66,-234.15"/>
</g>
<!-- Node12 -->
<g id="node12" class="node">
<title>Node12</title>
<g id="a_node12"><a xlink:href="classamr__wind_1_1_i_o_manager.html#aecde0a3df1b74085446b4bb47c3984c9" target="_top" xlink:title="Write all necessary fields for restart.">
<polygon fill="white" stroke="black" points="129.5,-147.5 129.5,-177.5 255.5,-177.5 255.5,-147.5 129.5,-147.5"/>
<text text-anchor="start" x="137.5" y="-165.5" font-family="Helvetica,sans-Serif" font-size="10.00">amr_wind::IOManager</text>
<text text-anchor="middle" x="192.5" y="-154.5" font-family="Helvetica,sans-Serif" font-size="10.00">::write_checkpoint_file</text>
</a>
</g>
</g>
<!-- Node1&#45;&gt;Node12 -->
<g id="edge11" class="edge">
<title>Node1&#45;&gt;Node12</title>
<path fill="none" stroke="midnightblue" d="M44.6,-316.84C51.85,-291.75 74.64,-223.96 118,-187.5 119.99,-185.83 122.09,-184.27 124.28,-182.81"/>
<polygon fill="midnightblue" stroke="midnightblue" points="126.22,-185.74 133.11,-177.69 122.7,-179.68 126.22,-185.74"/>
</g>
<!-- Node13 -->
<g id="node13" class="node">
<title>Node13</title>
<g id="a_node13"><a xlink:href="classamr__wind_1_1_sim_time.html#a9c9ae99a73e7c12ba0e6ff5641a128a9" target="_top" xlink:title="Return true if checkpoint files should be written at this timestep.">
<polygon fill="white" stroke="black" points="131,-98.5 131,-128.5 254,-128.5 254,-98.5 131,-98.5"/>
<text text-anchor="start" x="139" y="-116.5" font-family="Helvetica,sans-Serif" font-size="10.00">amr_wind::SimTime::</text>
<text text-anchor="middle" x="192.5" y="-105.5" font-family="Helvetica,sans-Serif" font-size="10.00">write_last_checkpoint</text>
</a>
</g>
</g>
<!-- Node1&#45;&gt;Node13 -->
<g id="edge12" class="edge">
<title>Node1&#45;&gt;Node13</title>
<path fill="none" stroke="midnightblue" d="M43.1,-316.73C47.08,-285.95 63.5,-190.01 118,-138.5 119.67,-136.92 121.45,-135.44 123.3,-134.05"/>
<polygon fill="midnightblue" stroke="midnightblue" points="125.37,-136.89 131.91,-128.55 121.6,-130.99 125.37,-136.89"/>
</g>
<!-- Node14 -->
<g id="node14" class="node">
<title>Node14</title>
<g id="a_node14"><a xlink:href="classamr__wind_1_1_sim_time.html#a581cd4d49991970dbb6b28410fb61426" target="_top" xlink:title="Return true if plot files should be written at this timestep.">
<polygon fill="white" stroke="black" points="132.5,-49.5 132.5,-79.5 252.5,-79.5 252.5,-49.5 132.5,-49.5"/>
<text text-anchor="start" x="140.5" y="-67.5" font-family="Helvetica,sans-Serif" font-size="10.00">amr_wind::SimTime::</text>
<text text-anchor="middle" x="192.5" y="-56.5" font-family="Helvetica,sans-Serif" font-size="10.00">write_last_plot_file</text>
</a>
</g>
</g>
<!-- Node1&#45;&gt;Node14 -->
<g id="edge13" class="edge">
<title>Node1&#45;&gt;Node14</title>
<path fill="none" stroke="midnightblue" d="M42.16,-316.83C43.29,-281.31 51.98,-156.69 118,-89.5 119.82,-87.65 121.78,-85.94 123.85,-84.35"/>
<polygon fill="midnightblue" stroke="midnightblue" points="125.85,-87.22 132.32,-78.84 122.03,-81.36 125.85,-87.22"/>
</g>
<!-- Node15 -->
<g id="node15" class="node">
<title>Node15</title>
<g id="a_node15"><a xlink:href="classamr__wind_1_1_i_o_manager.html#a2751c61d7bc0b302032db0ebef39e57f" target="_top" xlink:title="Write all user&#45;requested fields to disk.">
<polygon fill="white" stroke="black" points="130.5,-0.5 130.5,-30.5 254.5,-30.5 254.5,-0.5 130.5,-0.5"/>
<text text-anchor="start" x="138.5" y="-18.5" font-family="Helvetica,sans-Serif" font-size="10.00">amr_wind::IOManager</text>
<text text-anchor="middle" x="192.5" y="-7.5" font-family="Helvetica,sans-Serif" font-size="10.00">::write_plot_file</text>
</a>
</g>
</g>
<!-- Node1&#45;&gt;Node15 -->
<g id="edge14" class="edge">
<title>Node1&#45;&gt;Node15</title>
<path fill="none" stroke="midnightblue" d="M41.54,-316.85C40.17,-277.02 40.32,-123.66 118,-40.5 119.23,-39.18 120.54,-37.93 121.91,-36.74"/>
<polygon fill="midnightblue" stroke="midnightblue" points="124.28,-39.35 130.33,-30.66 120.18,-33.68 124.28,-39.35"/>
</g>
</g>
</svg>
        <g id="navigator" transform="translate(0 0)" fill="#404254">
                <rect fill="#f2f5e9" fill-opacity="0.5" stroke="#606060" stroke-width=".5" x="0" y="0" width="60" height="60"/>
                <use id="zoomplus" xlink:href="#zoomPlus" x="17" y="9" onmousedown="handleZoom(evt,'in')"/>
                <use id="zoomminus" xlink:href="#zoomMin" x="42" y="9" onmousedown="handleZoom(evt,'out')"/>
                <use id="reset" xlink:href="#resetDef" x="30" y="36" onmousedown="handleReset()"/>
                <g id="arrowUp" xlink:href="#dirArrow" transform="translate(30 24)" onmousedown="handlePan(0,-1)">
                  <use xlink:href="#rim" fill="#404040">
                        <set attributeName="fill" to="#808080" begin="arrowUp.mouseover" end="arrowUp.mouseout"/>
                  </use>
                  <path fill="none" stroke="white" stroke-width="1.5" d="M0,-3.0v7 M-2.5,-0.5L0,-3.0L2.5,-0.5"/>
                </g>
                <g id="arrowRight" xlink:href="#dirArrow" transform="rotate(90) translate(36 -43)" onmousedown="handlePan(1,0)">
                  <use xlink:href="#rim" fill="#404040">
                        <set attributeName="fill" to="#808080" begin="arrowRight.mouseover" end="arrowRight.mouseout"/>
                  </use>
                  <path fill="none" stroke="white" stroke-width="1.5" d="M0,-3.0v7 M-2.5,-0.5L0,-3.0L2.5,-0.5"/>
                </g>
                <g id="arrowDown" xlink:href="#dirArrow" transform="rotate(180) translate(-30 -48)" onmousedown="handlePan(0,1)">
                  <use xlink:href="#rim" fill="#404040">
                        <set attributeName="fill" to="#808080" begin="arrowDown.mouseover" end="arrowDown.mouseout"/>
                  </use>
                  <path fill="none" stroke="white" stroke-width="1.5" d="M0,-3.0v7 M-2.5,-0.5L0,-3.0L2.5,-0.5"/>
                </g>
                <g id="arrowLeft" xlink:href="#dirArrow" transform="rotate(270) translate(-36 17)" onmousedown="handlePan(-1,0)">
                  <use xlink:href="#rim" fill="#404040">
                        <set attributeName="fill" to="#808080" begin="arrowLeft.mouseover" end="arrowLeft.mouseout"/>
                  </use>
                  <path fill="none" stroke="white" stroke-width="1.5" d="M0,-3.0v7 M-2.5,-0.5L0,-3.0L2.5,-0.5"/>
                </g>
        </g>
        <svg viewBox="0 0 15 15" width="100%" height="30px" preserveAspectRatio="xMaxYMin meet">
         <g id="arrow_out" transform="scale(0.3 0.3)">
          <a xlink:href="classincflo_a0141eeb4fa408c909bca038ec9de0ef5_cgraph_org.svg" target="_base">
           <rect id="button" ry="5" rx="5" y="6" x="6" height="38" width="38"
                fill="#f2f5e9" fill-opacity="0.5" stroke="#606060" stroke-width="1.0"/>
           <path id="arrow"
             d="M 11.500037,31.436501 C 11.940474,20.09759 22.043105,11.32322 32.158766,21.979434 L 37.068811,17.246167 C 37.068811,17.246167 37.088388,32 37.088388,32 L 22.160133,31.978069 C 22.160133,31.978069 26.997745,27.140456 26.997745,27.140456 C 18.528582,18.264221 13.291696,25.230495 11.500037,31.436501 z"
             style="fill:#404040;"/>
          </a>
         </g>
        </svg>
</svg>
