<?xml version="1.0" encoding="UTF-8" standalone="no"?>
<!DOCTYPE svg PUBLIC "-//W3C//DTD SVG 1.1//EN"
 "http://www.w3.org/Graphics/SVG/1.1/DTD/svg11.dtd">
<!-- Generated by graphviz version 2.43.0 (0)
 -->
<!-- Title: equation_systems Pages: 1 -->
<svg width="898pt" height="455pt"
 viewBox="0.00 0.00 898.00 455.00" xmlns="http://www.w3.org/2000/svg" xmlns:xlink="http://www.w3.org/1999/xlink">
<g id="graph0" class="graph" transform="scale(1 1) rotate(0) translate(4 451)">
<title>equation_systems</title>
<polygon fill="white" stroke="transparent" points="-4,4 -4,-451 894,-451 894,4 -4,4"/>
<g id="clust1" class="cluster">
<title>clusterdir_d85575251dd712327fe3cf057fa568b4</title>
<g id="a_clust1"><a xlink:href="dir_d85575251dd712327fe3cf057fa568b4.html" target="_top" xlink:title="amr&#45;wind">
<polygon fill="#ddddee" stroke="black" points="8,-8 8,-439 882,-439 882,-8 8,-8"/>
<text text-anchor="middle" x="445" y="-427" font-family="Helvetica,sans-Serif" font-size="10.00">amr&#45;wind</text>
</a>
</g>
</g>
<g id="clust2" class="cluster">
<title>clusterdir_4bb30ed846ea1df1fc4d16874a455d91</title>
<g id="a_clust2"><a xlink:href="dir_4bb30ed846ea1df1fc4d16874a455d91.html" target="_top">
<polygon fill="#eeeeff" stroke="black" points="294,-224 294,-348 874,-348 874,-224 294,-224"/>
</a>
</g>
</g>
<!-- dir_35ffb1505af3943bdf99903da87524fe -->
<g id="node1" class="node">
<title>dir_35ffb1505af3943bdf99903da87524fe</title>
<g id="a_node1"><a xlink:href="dir_35ffb1505af3943bdf99903da87524fe.html" target="_top" xlink:title="convection">
<polygon fill="none" stroke="black" points="262,-412 192,-412 192,-376 262,-376 262,-412"/>
<text text-anchor="middle" x="227" y="-391.5" font-family="Helvetica,sans-Serif" font-size="10.00">convection</text>
</a>
</g>
</g>
<!-- dir_3d3615e9a999cab4f3407307569d6ced -->
<g id="node2" class="node">
<title>dir_3d3615e9a999cab4f3407307569d6ced</title>
<g id="a_node2"><a xlink:href="dir_3d3615e9a999cab4f3407307569d6ced.html" target="_top" xlink:title="core">
<polygon fill="white" stroke="red" points="254,-340 200,-340 200,-304 254,-304 254,-340"/>
<text text-anchor="middle" x="227" y="-319.5" font-family="Helvetica,sans-Serif" font-size="10.00">core</text>
</a>
</g>
</g>
<!-- dir_35ffb1505af3943bdf99903da87524fe&#45;&gt;dir_3d3615e9a999cab4f3407307569d6ced -->
<g id="edge16" class="edge">
<title>dir_35ffb1505af3943bdf99903da87524fe&#45;&gt;dir_3d3615e9a999cab4f3407307569d6ced</title>
<path fill="none" stroke="black" d="M227,-375.7C227,-367.98 227,-358.71 227,-350.11"/>
<polygon fill="black" stroke="black" points="230.5,-350.1 227,-340.1 223.5,-350.1 230.5,-350.1"/>
<g id="a_edge16&#45;headlabel"><a xlink:href="dir_000030_000022.html" target="_top" xlink:title="2">
<text text-anchor="middle" x="233.34" y="-351.2" font-family="Helvetica,sans-Serif" font-size="10.00">2</text>
</a>
</g>
</g>
<!-- dir_e4cd57caa88bf1f4e1bf9521bc47c3c0 -->
<g id="node5" class="node">
<title>dir_e4cd57caa88bf1f4e1bf9521bc47c3c0</title>
<g id="a_node5"><a xlink:href="dir_e4cd57caa88bf1f4e1bf9521bc47c3c0.html" target="_top" xlink:title="utilities">
<polygon fill="white" stroke="red" points="130,-268 76,-268 76,-232 130,-232 130,-268"/>
<text text-anchor="middle" x="103" y="-247.5" font-family="Helvetica,sans-Serif" font-size="10.00">utilities</text>
</a>
</g>
</g>
<!-- dir_35ffb1505af3943bdf99903da87524fe&#45;&gt;dir_e4cd57caa88bf1f4e1bf9521bc47c3c0 -->
<g id="edge17" class="edge">
<title>dir_35ffb1505af3943bdf99903da87524fe&#45;&gt;dir_e4cd57caa88bf1f4e1bf9521bc47c3c0</title>
<path fill="none" stroke="black" d="M212.04,-375.87C190.26,-350.92 149.67,-304.45 124.63,-275.77"/>
<polygon fill="black" stroke="black" points="127.22,-273.42 118.01,-268.19 121.95,-278.02 127.22,-273.42"/>
<g id="a_edge17&#45;headlabel"><a xlink:href="dir_000030_000012.html" target="_top" xlink:title="1">
<text text-anchor="middle" x="131.73" y="-271.76" font-family="Helvetica,sans-Serif" font-size="10.00">1</text>
</a>
</g>
</g>
<!-- dir_3d3615e9a999cab4f3407307569d6ced&#45;&gt;dir_e4cd57caa88bf1f4e1bf9521bc47c3c0 -->
<g id="edge42" class="edge">
<title>dir_3d3615e9a999cab4f3407307569d6ced&#45;&gt;dir_e4cd57caa88bf1f4e1bf9521bc47c3c0</title>
<path fill="none" stroke="black" d="M199.83,-308.65C181.1,-298.91 156.25,-285.08 136.35,-273.41"/>
<polygon fill="black" stroke="black" points="137.98,-270.31 127.59,-268.22 134.41,-276.33 137.98,-270.31"/>
<g id="a_edge42&#45;headlabel"><a xlink:href="dir_000022_000012.html" target="_top" xlink:title="1">
<text text-anchor="middle" x="142.52" y="-267.2" font-family="Helvetica,sans-Serif" font-size="10.00">1</text>
</a>
</g>
</g>
<!-- dir_ebb19deee3cd40f4ac122fef25c04ca8 -->
<g id="node6" class="node">
<title>dir_ebb19deee3cd40f4ac122fef25c04ca8</title>
<g id="a_node6"><a xlink:href="dir_ebb19deee3cd40f4ac122fef25c04ca8.html" target="_top" xlink:title="boundary_conditions">
<polygon fill="none" stroke="black" points="286,-268 168,-268 168,-232 286,-232 286,-268"/>
<text text-anchor="middle" x="227" y="-247.5" font-family="Helvetica,sans-Serif" font-size="10.00">boundary_conditions</text>
</a>
</g>
</g>
<!-- dir_3d3615e9a999cab4f3407307569d6ced&#45;&gt;dir_ebb19deee3cd40f4ac122fef25c04ca8 -->
<g id="edge41" class="edge">
<title>dir_3d3615e9a999cab4f3407307569d6ced&#45;&gt;dir_ebb19deee3cd40f4ac122fef25c04ca8</title>
<path fill="none" stroke="black" d="M221.08,-303.7C220.29,-295.98 220.06,-286.71 220.4,-278.11"/>
<polygon fill="black" stroke="black" points="223.9,-278.32 221.1,-268.1 216.92,-277.84 223.9,-278.32"/>
<g id="a_edge41&#45;headlabel"><a xlink:href="dir_000022_000014.html" target="_top" xlink:title="1">
<text text-anchor="middle" x="226.48" y="-279.61" font-family="Helvetica,sans-Serif" font-size="10.00">1</text>
</a>
</g>
</g>
<!-- dir_9ff815a534beac751fa88e427dbab695 -->
<g id="node3" class="node">
<title>dir_9ff815a534beac751fa88e427dbab695</title>
<g id="a_node3"><a xlink:href="dir_9ff815a534beac751fa88e427dbab695.html" target="_top" xlink:title="turbulence">
<polygon fill="white" stroke="red" points="737,-124 669,-124 669,-88 737,-88 737,-124"/>
<text text-anchor="middle" x="703" y="-103.5" font-family="Helvetica,sans-Serif" font-size="10.00">turbulence</text>
</a>
</g>
</g>
<!-- dir_9ff815a534beac751fa88e427dbab695&#45;&gt;dir_3d3615e9a999cab4f3407307569d6ced -->
<g id="edge1" class="edge">
<title>dir_9ff815a534beac751fa88e427dbab695&#45;&gt;dir_3d3615e9a999cab4f3407307569d6ced</title>
<path fill="none" stroke="black" d="M668.9,-109.83C576.34,-117.69 321.85,-140.48 240,-160 160.26,-179.02 113.85,-156.72 67,-224 55.83,-240.05 55.55,-252.15 67,-268 94.87,-306.6 151.95,-317.54 189.84,-320.39"/>
<polygon fill="black" stroke="black" points="189.79,-323.9 199.98,-321 190.21,-316.91 189.79,-323.9"/>
<g id="a_edge1&#45;headlabel"><a xlink:href="dir_000010_000022.html" target="_top" xlink:title="6">
<text text-anchor="middle" x="186.04" y="-324.02" font-family="Helvetica,sans-Serif" font-size="10.00">6</text>
</a>
</g>
</g>
<!-- dir_9ff815a534beac751fa88e427dbab695&#45;&gt;dir_e4cd57caa88bf1f4e1bf9521bc47c3c0 -->
<g id="edge4" class="edge">
<title>dir_9ff815a534beac751fa88e427dbab695&#45;&gt;dir_e4cd57caa88bf1f4e1bf9521bc47c3c0</title>
<path fill="none" stroke="black" d="M668.98,-109.23C603.42,-114.12 455.39,-127.99 335,-160 292.97,-171.18 285.16,-181.95 244,-196 201.53,-210.49 188.35,-206.57 147,-224 144.51,-225.05 141.97,-226.21 139.45,-227.44"/>
<polygon fill="black" stroke="black" points="137.7,-224.4 130.43,-232.11 140.92,-230.62 137.7,-224.4"/>
<g id="a_edge4&#45;headlabel"><a xlink:href="dir_000010_000012.html" target="_top" xlink:title="1">
<text text-anchor="middle" x="139.59" y="-217.73" font-family="Helvetica,sans-Serif" font-size="10.00">1</text>
</a>
</g>
</g>
<!-- dir_9f8434f21d2c2598f33c85a8b98c6d56 -->
<g id="node13" class="node">
<title>dir_9f8434f21d2c2598f33c85a8b98c6d56</title>
<g id="a_node13"><a xlink:href="dir_9f8434f21d2c2598f33c85a8b98c6d56.html" target="_top" xlink:title="sdr">
<polygon fill="white" stroke="red" points="866,-340 812,-340 812,-304 866,-304 866,-340"/>
<text text-anchor="middle" x="839" y="-319.5" font-family="Helvetica,sans-Serif" font-size="10.00">sdr</text>
</a>
</g>
</g>
<!-- dir_9ff815a534beac751fa88e427dbab695&#45;&gt;dir_9f8434f21d2c2598f33c85a8b98c6d56 -->
<g id="edge2" class="edge">
<title>dir_9ff815a534beac751fa88e427dbab695&#45;&gt;dir_9f8434f21d2c2598f33c85a8b98c6d56</title>
<path fill="none" stroke="black" d="M737.24,-115.17C761.33,-122.74 792.31,-136.47 810,-160 839.49,-199.23 842.38,-258.85 841.15,-293.47"/>
<polygon fill="black" stroke="black" points="837.63,-293.61 840.63,-303.77 844.63,-293.96 837.63,-293.61"/>
<g id="a_edge2&#45;headlabel"><a xlink:href="dir_000010_000046.html" target="_top" xlink:title="3">
<text text-anchor="middle" x="834.98" y="-287.37" font-family="Helvetica,sans-Serif" font-size="10.00">3</text>
</a>
</g>
</g>
<!-- dir_be932497d8c26b6aa8596ee64638838f -->
<g id="node15" class="node">
<title>dir_be932497d8c26b6aa8596ee64638838f</title>
<g id="a_node15"><a xlink:href="dir_be932497d8c26b6aa8596ee64638838f.html" target="_top" xlink:title="tke">
<polygon fill="white" stroke="red" points="794,-340 740,-340 740,-304 794,-304 794,-340"/>
<text text-anchor="middle" x="767" y="-319.5" font-family="Helvetica,sans-Serif" font-size="10.00">tke</text>
</a>
</g>
</g>
<!-- dir_9ff815a534beac751fa88e427dbab695&#45;&gt;dir_be932497d8c26b6aa8596ee64638838f -->
<g id="edge3" class="edge">
<title>dir_9ff815a534beac751fa88e427dbab695&#45;&gt;dir_be932497d8c26b6aa8596ee64638838f</title>
<path fill="none" stroke="black" d="M718.17,-124.47C725.89,-134.28 734.74,-147.12 740,-160 758.2,-204.55 764.13,-260.84 766.07,-293.69"/>
<polygon fill="black" stroke="black" points="762.58,-294.07 766.58,-303.88 769.57,-293.71 762.58,-294.07"/>
<g id="a_edge3&#45;headlabel"><a xlink:href="dir_000010_000037.html" target="_top" xlink:title="4">
<text text-anchor="middle" x="759.57" y="-288.12" font-family="Helvetica,sans-Serif" font-size="10.00">4</text>
</a>
</g>
</g>
<!-- dir_a816a247b59c90f95e41afe29b966a18 -->
<g id="node4" class="node">
<title>dir_a816a247b59c90f95e41afe29b966a18</title>
<g id="a_node4"><a xlink:href="dir_a816a247b59c90f95e41afe29b966a18.html" target="_top" xlink:title="diffusion">
<polygon fill="none" stroke="black" points="486.5,-52 427.5,-52 427.5,-16 486.5,-16 486.5,-52"/>
<text text-anchor="middle" x="457" y="-31.5" font-family="Helvetica,sans-Serif" font-size="10.00">diffusion</text>
</a>
</g>
</g>
<!-- dir_a816a247b59c90f95e41afe29b966a18&#45;&gt;dir_3d3615e9a999cab4f3407307569d6ced -->
<g id="edge37" class="edge">
<title>dir_a816a247b59c90f95e41afe29b966a18&#45;&gt;dir_3d3615e9a999cab4f3407307569d6ced</title>
<path fill="none" stroke="black" d="M427.44,-39.06C338.73,-51.9 77.8,-94.69 28,-160 20.45,-169.9 20.68,-259.79 27,-268 46.67,-293.57 137.2,-309.35 189.47,-316.49"/>
<polygon fill="black" stroke="black" points="189.32,-320 199.69,-317.84 190.24,-313.06 189.32,-320"/>
<g id="a_edge37&#45;headlabel"><a xlink:href="dir_000026_000022.html" target="_top" xlink:title="1">
<text text-anchor="middle" x="185.38" y="-319.84" font-family="Helvetica,sans-Serif" font-size="10.00">1</text>
</a>
</g>
</g>
<!-- dir_e4cd57caa88bf1f4e1bf9521bc47c3c0&#45;&gt;dir_3d3615e9a999cab4f3407307569d6ced -->
<g id="edge26" class="edge">
<title>dir_e4cd57caa88bf1f4e1bf9521bc47c3c0&#45;&gt;dir_3d3615e9a999cab4f3407307569d6ced</title>
<path fill="none" stroke="black" d="M130.14,-263.34C148.92,-273.1 173.86,-286.98 193.8,-298.68"/>
<polygon fill="black" stroke="black" points="192.18,-301.79 202.56,-303.88 195.75,-295.76 192.18,-301.79"/>
<g id="a_edge26&#45;headlabel"><a xlink:href="dir_000012_000022.html" target="_top" xlink:title="23">
<text text-anchor="middle" x="187.64" y="-299.89" font-family="Helvetica,sans-Serif" font-size="10.00">23</text>
</a>
</g>
</g>
<!-- dir_f2c65bfcbdc19ebacbfc0bbbfb0d01b6 -->
<g id="node7" class="node">
<title>dir_f2c65bfcbdc19ebacbfc0bbbfb0d01b6</title>
<g id="a_node7"><a xlink:href="dir_f2c65bfcbdc19ebacbfc0bbbfb0d01b6.html" target="_top" xlink:title="physics">
<polygon fill="white" stroke="red" points="398,-196 344,-196 344,-160 398,-160 398,-196"/>
<text text-anchor="middle" x="371" y="-175.5" font-family="Helvetica,sans-Serif" font-size="10.00">physics</text>
</a>
</g>
</g>
<!-- dir_e4cd57caa88bf1f4e1bf9521bc47c3c0&#45;&gt;dir_f2c65bfcbdc19ebacbfc0bbbfb0d01b6 -->
<g id="edge28" class="edge">
<title>dir_e4cd57caa88bf1f4e1bf9521bc47c3c0&#45;&gt;dir_f2c65bfcbdc19ebacbfc0bbbfb0d01b6</title>
<path fill="none" stroke="black" d="M119.04,-231.92C124.03,-228.93 129.56,-226.11 135,-224 196.21,-200.32 215.64,-208.88 280,-196 297.59,-192.48 317.27,-188.4 333.95,-185.12"/>
<polygon fill="black" stroke="black" points="334.75,-188.53 343.91,-183.2 333.42,-181.66 334.75,-188.53"/>
<g id="a_edge28&#45;headlabel"><a xlink:href="dir_000012_000017.html" target="_top" xlink:title="1">
<text text-anchor="middle" x="331.76" y="-189.5" font-family="Helvetica,sans-Serif" font-size="10.00">1</text>
</a>
</g>
</g>
<!-- dir_bfcf7e25e8a41bb3b30f8e11e2280479 -->
<g id="node16" class="node">
<title>dir_bfcf7e25e8a41bb3b30f8e11e2280479</title>
<g id="a_node16"><a xlink:href="dir_bfcf7e25e8a41bb3b30f8e11e2280479.html" target="_top" xlink:title="vof">
<polygon fill="white" stroke="black" points="358,-268 304,-268 304,-232 358,-232 358,-268"/>
<text text-anchor="middle" x="331" y="-247.5" font-family="Helvetica,sans-Serif" font-size="10.00">vof</text>
</a>
</g>
</g>
<!-- dir_e4cd57caa88bf1f4e1bf9521bc47c3c0&#45;&gt;dir_bfcf7e25e8a41bb3b30f8e11e2280479 -->
<g id="edge27" class="edge">
<title>dir_e4cd57caa88bf1f4e1bf9521bc47c3c0&#45;&gt;dir_bfcf7e25e8a41bb3b30f8e11e2280479</title>
<path fill="none" stroke="black" d="M128.59,-268.12C140.08,-275.17 154.14,-282.42 168,-286 220.93,-299.68 239.96,-305.59 291,-286 297.3,-283.58 303.22,-279.67 308.49,-275.29"/>
<polygon fill="black" stroke="black" points="311.21,-277.54 316.17,-268.18 306.45,-272.4 311.21,-277.54"/>
<g id="a_edge27&#45;headlabel"><a xlink:href="dir_000012_000031.html" target="_top" xlink:title="1">
<text text-anchor="middle" x="310.5" y="-279.56" font-family="Helvetica,sans-Serif" font-size="10.00">1</text>
</a>
</g>
</g>
<!-- dir_ebb19deee3cd40f4ac122fef25c04ca8&#45;&gt;dir_3d3615e9a999cab4f3407307569d6ced -->
<g id="edge24" class="edge">
<title>dir_ebb19deee3cd40f4ac122fef25c04ca8&#45;&gt;dir_3d3615e9a999cab4f3407307569d6ced</title>
<path fill="none" stroke="black" d="M232.9,-268.1C233.7,-275.79 233.94,-285.05 233.6,-293.67"/>
<polygon fill="black" stroke="black" points="230.11,-293.48 232.92,-303.7 237.09,-293.96 230.11,-293.48"/>
<g id="a_edge24&#45;headlabel"><a xlink:href="dir_000014_000022.html" target="_top" xlink:title="8">
<text text-anchor="middle" x="227.52" y="-287.2" font-family="Helvetica,sans-Serif" font-size="10.00">8</text>
</a>
</g>
</g>
<!-- dir_ebb19deee3cd40f4ac122fef25c04ca8&#45;&gt;dir_f2c65bfcbdc19ebacbfc0bbbfb0d01b6 -->
<g id="edge25" class="edge">
<title>dir_ebb19deee3cd40f4ac122fef25c04ca8&#45;&gt;dir_f2c65bfcbdc19ebacbfc0bbbfb0d01b6</title>
<path fill="none" stroke="black" d="M262.23,-231.88C284.23,-221.18 312.49,-207.44 334.7,-196.65"/>
<polygon fill="black" stroke="black" points="336.34,-199.74 343.8,-192.22 333.28,-193.44 336.34,-199.74"/>
<g id="a_edge25&#45;headlabel"><a xlink:href="dir_000014_000017.html" target="_top" xlink:title="3">
<text text-anchor="middle" x="334.35" y="-201.36" font-family="Helvetica,sans-Serif" font-size="10.00">3</text>
</a>
</g>
</g>
<!-- dir_f2c65bfcbdc19ebacbfc0bbbfb0d01b6&#45;&gt;dir_3d3615e9a999cab4f3407307569d6ced -->
<g id="edge9" class="edge">
<title>dir_f2c65bfcbdc19ebacbfc0bbbfb0d01b6&#45;&gt;dir_3d3615e9a999cab4f3407307569d6ced</title>
<path fill="none" stroke="black" d="M343.83,-184.65C286.79,-196.54 159.73,-223.09 159,-224 146.69,-239.2 150.42,-250.43 159,-268 165.89,-282.1 178.53,-293.53 191.07,-302.13"/>
<polygon fill="black" stroke="black" points="189.35,-305.18 199.66,-307.62 193.12,-299.28 189.35,-305.18"/>
<g id="a_edge9&#45;headlabel"><a xlink:href="dir_000017_000022.html" target="_top" xlink:title="67">
<text text-anchor="middle" x="184.79" y="-303.14" font-family="Helvetica,sans-Serif" font-size="10.00">67</text>
</a>
</g>
</g>
<!-- dir_f2c65bfcbdc19ebacbfc0bbbfb0d01b6&#45;&gt;dir_9ff815a534beac751fa88e427dbab695 -->
<g id="edge11" class="edge">
<title>dir_f2c65bfcbdc19ebacbfc0bbbfb0d01b6&#45;&gt;dir_9ff815a534beac751fa88e427dbab695</title>
<path fill="none" stroke="black" d="M398.17,-171.27C455.51,-159.18 589.35,-130.96 659.05,-116.27"/>
<polygon fill="black" stroke="black" points="659.79,-119.69 668.85,-114.2 658.34,-112.84 659.79,-119.69"/>
<g id="a_edge11&#45;headlabel"><a xlink:href="dir_000017_000010.html" target="_top" xlink:title="1">
<text text-anchor="middle" x="656.86" y="-120.71" font-family="Helvetica,sans-Serif" font-size="10.00">1</text>
</a>
</g>
</g>
<!-- dir_f2c65bfcbdc19ebacbfc0bbbfb0d01b6&#45;&gt;dir_e4cd57caa88bf1f4e1bf9521bc47c3c0 -->
<g id="edge13" class="edge">
<title>dir_f2c65bfcbdc19ebacbfc0bbbfb0d01b6&#45;&gt;dir_e4cd57caa88bf1f4e1bf9521bc47c3c0</title>
<path fill="none" stroke="black" d="M343.85,-186.47C330.08,-189.48 313.25,-192.95 298,-196 233.64,-208.88 214.21,-200.32 153,-224 148.48,-225.75 143.89,-228 139.4,-230.42"/>
<polygon fill="black" stroke="black" points="137.33,-227.57 130.36,-235.55 140.79,-233.66 137.33,-227.57"/>
<g id="a_edge13&#45;headlabel"><a xlink:href="dir_000017_000012.html" target="_top" xlink:title="14">
<text text-anchor="middle" x="139.05" y="-220.83" font-family="Helvetica,sans-Serif" font-size="10.00">14</text>
</a>
</g>
</g>
<!-- dir_0c368f76a33d967d5b838b5681461de6 -->
<g id="node8" class="node">
<title>dir_0c368f76a33d967d5b838b5681461de6</title>
<g id="a_node8"><a xlink:href="dir_0c368f76a33d967d5b838b5681461de6.html" target="_top" xlink:title="wind_energy">
<polygon fill="white" stroke="red" points="496.5,-124 417.5,-124 417.5,-88 496.5,-88 496.5,-124"/>
<text text-anchor="middle" x="457" y="-103.5" font-family="Helvetica,sans-Serif" font-size="10.00">wind_energy</text>
</a>
</g>
</g>
<!-- dir_f2c65bfcbdc19ebacbfc0bbbfb0d01b6&#45;&gt;dir_0c368f76a33d967d5b838b5681461de6 -->
<g id="edge8" class="edge">
<title>dir_f2c65bfcbdc19ebacbfc0bbbfb0d01b6&#45;&gt;dir_0c368f76a33d967d5b838b5681461de6</title>
<path fill="none" stroke="black" d="M392.26,-159.7C403.09,-150.88 416.42,-140.03 428.16,-130.47"/>
<polygon fill="black" stroke="black" points="430.44,-133.13 435.99,-124.1 426.02,-127.7 430.44,-133.13"/>
<g id="a_edge8&#45;headlabel"><a xlink:href="dir_000017_000001.html" target="_top" xlink:title="1">
<text text-anchor="middle" x="429.44" y="-135.1" font-family="Helvetica,sans-Serif" font-size="10.00">1</text>
</a>
</g>
</g>
<!-- dir_4012ff34c1bb5bd303e44a1c9cef6c8a -->
<g id="node11" class="node">
<title>dir_4012ff34c1bb5bd303e44a1c9cef6c8a</title>
<g id="a_node11"><a xlink:href="dir_4012ff34c1bb5bd303e44a1c9cef6c8a.html" target="_top" xlink:title="icns">
<polygon fill="white" stroke="red" points="524,-340 470,-340 470,-304 524,-304 524,-340"/>
<text text-anchor="middle" x="497" y="-319.5" font-family="Helvetica,sans-Serif" font-size="10.00">icns</text>
</a>
</g>
</g>
<!-- dir_f2c65bfcbdc19ebacbfc0bbbfb0d01b6&#45;&gt;dir_4012ff34c1bb5bd303e44a1c9cef6c8a -->
<g id="edge10" class="edge">
<title>dir_f2c65bfcbdc19ebacbfc0bbbfb0d01b6&#45;&gt;dir_4012ff34c1bb5bd303e44a1c9cef6c8a</title>
<path fill="none" stroke="black" d="M378.1,-196.16C386.57,-215.2 402.11,-246.13 422,-268 433.26,-280.39 447.9,-291.53 461.26,-300.36"/>
<polygon fill="black" stroke="black" points="459.49,-303.38 469.8,-305.82 463.26,-297.49 459.49,-303.38"/>
<g id="a_edge10&#45;headlabel"><a xlink:href="dir_000017_000003.html" target="_top" xlink:title="3">
<text text-anchor="middle" x="454.93" y="-301.34" font-family="Helvetica,sans-Serif" font-size="10.00">3</text>
</a>
</g>
</g>
<!-- dir_f2c65bfcbdc19ebacbfc0bbbfb0d01b6&#45;&gt;dir_bfcf7e25e8a41bb3b30f8e11e2280479 -->
<g id="edge12" class="edge">
<title>dir_f2c65bfcbdc19ebacbfc0bbbfb0d01b6&#45;&gt;dir_bfcf7e25e8a41bb3b30f8e11e2280479</title>
<path fill="none" stroke="black" d="M367.12,-196.1C363.34,-204.21 357.92,-214.08 352.36,-223.08"/>
<polygon fill="black" stroke="black" points="349.28,-221.39 346.8,-231.7 355.16,-225.19 349.28,-221.39"/>
<g id="a_edge12&#45;headlabel"><a xlink:href="dir_000017_000031.html" target="_top" xlink:title="1">
<text text-anchor="middle" x="348.84" y="-214.34" font-family="Helvetica,sans-Serif" font-size="10.00">1</text>
</a>
</g>
</g>
<!-- dir_0c368f76a33d967d5b838b5681461de6&#45;&gt;dir_3d3615e9a999cab4f3407307569d6ced -->
<g id="edge18" class="edge">
<title>dir_0c368f76a33d967d5b838b5681461de6&#45;&gt;dir_3d3615e9a999cab4f3407307569d6ced</title>
<path fill="none" stroke="black" d="M417.33,-109.26C320.06,-115.22 75.91,-132.75 52,-160 20.34,-196.08 23.4,-229.45 52,-268 83.58,-310.57 148.41,-320.15 189.68,-321.67"/>
<polygon fill="black" stroke="black" points="189.81,-325.18 199.89,-321.9 189.97,-318.18 189.81,-325.18"/>
<g id="a_edge18&#45;headlabel"><a xlink:href="dir_000001_000022.html" target="_top" xlink:title="33">
<text text-anchor="middle" x="186.15" y="-325.43" font-family="Helvetica,sans-Serif" font-size="10.00">33</text>
</a>
</g>
</g>
<!-- dir_0c368f76a33d967d5b838b5681461de6&#45;&gt;dir_a816a247b59c90f95e41afe29b966a18 -->
<g id="edge21" class="edge">
<title>dir_0c368f76a33d967d5b838b5681461de6&#45;&gt;dir_a816a247b59c90f95e41afe29b966a18</title>
<path fill="none" stroke="black" d="M457,-87.7C457,-79.98 457,-70.71 457,-62.11"/>
<polygon fill="black" stroke="black" points="460.5,-62.1 457,-52.1 453.5,-62.1 460.5,-62.1"/>
<g id="a_edge21&#45;headlabel"><a xlink:href="dir_000001_000026.html" target="_top" xlink:title="1">
<text text-anchor="middle" x="463.34" y="-63.2" font-family="Helvetica,sans-Serif" font-size="10.00">1</text>
</a>
</g>
</g>
<!-- dir_0c368f76a33d967d5b838b5681461de6&#45;&gt;dir_e4cd57caa88bf1f4e1bf9521bc47c3c0 -->
<g id="edge23" class="edge">
<title>dir_0c368f76a33d967d5b838b5681461de6&#45;&gt;dir_e4cd57caa88bf1f4e1bf9521bc47c3c0</title>
<path fill="none" stroke="black" d="M417.5,-116.79C381.01,-126.29 325.59,-141.91 279,-160 218.22,-183.6 204.71,-193.66 147,-224 144.45,-225.34 141.83,-226.75 139.2,-228.19"/>
<polygon fill="black" stroke="black" points="137.36,-225.21 130.31,-233.12 140.75,-231.33 137.36,-225.21"/>
<g id="a_edge23&#45;headlabel"><a xlink:href="dir_000001_000012.html" target="_top" xlink:title="43">
<text text-anchor="middle" x="139.12" y="-218.48" font-family="Helvetica,sans-Serif" font-size="10.00">43</text>
</a>
</g>
</g>
<!-- dir_4bb30ed846ea1df1fc4d16874a455d91 -->
<g id="node9" class="node">
<title>dir_4bb30ed846ea1df1fc4d16874a455d91</title>
<text text-anchor="middle" x="669" y="-319.5" font-family="Helvetica,sans-Serif" font-size="10.00">equation_systems</text>
</g>
<!-- dir_0c368f76a33d967d5b838b5681461de6&#45;&gt;dir_4bb30ed846ea1df1fc4d16874a455d91 -->
<g id="edge20" class="edge">
<title>dir_0c368f76a33d967d5b838b5681461de6&#45;&gt;dir_4bb30ed846ea1df1fc4d16874a455d91</title>
<path fill="none" stroke="black" d="M468.92,-124.33C490.8,-155.38 539.82,-221.58 591,-268 603.23,-279.1 617.94,-289.68 631.27,-298.43"/>
<polygon fill="black" stroke="black" points="629.49,-301.45 639.79,-303.9 633.27,-295.56 629.49,-301.45"/>
<g id="a_edge20&#45;headlabel"><a xlink:href="dir_000001_000002.html" target="_top" xlink:title="7">
<text text-anchor="middle" x="624.93" y="-299.39" font-family="Helvetica,sans-Serif" font-size="10.00">7</text>
</a>
</g>
</g>
<!-- dir_0c368f76a33d967d5b838b5681461de6&#45;&gt;dir_4012ff34c1bb5bd303e44a1c9cef6c8a -->
<g id="edge19" class="edge">
<title>dir_0c368f76a33d967d5b838b5681461de6&#45;&gt;dir_4012ff34c1bb5bd303e44a1c9cef6c8a</title>
<path fill="none" stroke="black" d="M460.22,-124.23C467.17,-161.4 483.61,-249.35 491.95,-294"/>
<polygon fill="black" stroke="black" points="488.52,-294.66 493.79,-303.85 495.4,-293.38 488.52,-294.66"/>
<g id="a_edge19&#45;headlabel"><a xlink:href="dir_000001_000003.html" target="_top" xlink:title="4">
<text text-anchor="middle" x="485.07" y="-289.15" font-family="Helvetica,sans-Serif" font-size="10.00">4</text>
</a>
</g>
</g>
<!-- dir_0c368f76a33d967d5b838b5681461de6&#45;&gt;dir_be932497d8c26b6aa8596ee64638838f -->
<g id="edge22" class="edge">
<title>dir_0c368f76a33d967d5b838b5681461de6&#45;&gt;dir_be932497d8c26b6aa8596ee64638838f</title>
<path fill="none" stroke="black" d="M481.96,-124.23C537.51,-162.58 671.35,-254.97 733.83,-298.1"/>
<polygon fill="black" stroke="black" points="731.94,-301.05 742.16,-303.85 735.91,-295.29 731.94,-301.05"/>
<g id="a_edge22&#45;headlabel"><a xlink:href="dir_000001_000037.html" target="_top" xlink:title="1">
<text text-anchor="middle" x="727.37" y="-298.84" font-family="Helvetica,sans-Serif" font-size="10.00">1</text>
</a>
</g>
</g>
<!-- dir_4bb30ed846ea1df1fc4d16874a455d91&#45;&gt;dir_35ffb1505af3943bdf99903da87524fe -->
<g id="edge43" class="edge">
<title>dir_4bb30ed846ea1df1fc4d16874a455d91&#45;&gt;dir_35ffb1505af3943bdf99903da87524fe</title>
<path fill="none" stroke="black" d="M631.17,-340.1C623.31,-343.12 614.98,-345.96 607,-348 488.61,-378.3 344.15,-388.29 272.22,-391.51"/>
<polygon fill="black" stroke="black" points="271.99,-388.02 262.15,-391.94 272.29,-395.01 271.99,-388.02"/>
<g id="a_edge43&#45;headlabel"><a xlink:href="dir_000002_000030.html" target="_top" xlink:title="2">
<text text-anchor="middle" x="275.46" y="-382.53" font-family="Helvetica,sans-Serif" font-size="10.00">2</text>
</a>
</g>
</g>
<!-- dir_4bb30ed846ea1df1fc4d16874a455d91&#45;&gt;dir_9ff815a534beac751fa88e427dbab695 -->
<g id="edge44" class="edge">
<title>dir_4bb30ed846ea1df1fc4d16874a455d91&#45;&gt;dir_9ff815a534beac751fa88e427dbab695</title>
<path fill="none" stroke="black" d="M671.72,-303.85C677.61,-266.83 691.53,-179.18 698.65,-134.39"/>
<polygon fill="black" stroke="black" points="702.15,-134.66 700.26,-124.23 695.24,-133.56 702.15,-134.66"/>
<g id="a_edge44&#45;headlabel"><a xlink:href="dir_000002_000010.html" target="_top" xlink:title="4">
<text text-anchor="middle" x="704.39" y="-136.15" font-family="Helvetica,sans-Serif" font-size="10.00">4</text>
</a>
</g>
</g>
<!-- dir_4bb30ed846ea1df1fc4d16874a455d91&#45;&gt;dir_a816a247b59c90f95e41afe29b966a18 -->
<g id="edge45" class="edge">
<title>dir_4bb30ed846ea1df1fc4d16874a455d91&#45;&gt;dir_a816a247b59c90f95e41afe29b966a18</title>
<path fill="none" stroke="black" d="M658.1,-303.76C632.92,-264.34 568.11,-165.07 506,-88 498.22,-78.34 489.12,-68.23 480.9,-59.45"/>
<polygon fill="black" stroke="black" points="483.37,-56.98 473.95,-52.13 478.3,-61.8 483.37,-56.98"/>
<g id="a_edge45&#45;headlabel"><a xlink:href="dir_000002_000026.html" target="_top" xlink:title="1">
<text text-anchor="middle" x="487.91" y="-55.13" font-family="Helvetica,sans-Serif" font-size="10.00">1</text>
</a>
</g>
</g>
<!-- dir_4bb30ed846ea1df1fc4d16874a455d91&#45;&gt;dir_e4cd57caa88bf1f4e1bf9521bc47c3c0 -->
<g id="edge46" class="edge">
<title>dir_4bb30ed846ea1df1fc4d16874a455d91&#45;&gt;dir_e4cd57caa88bf1f4e1bf9521bc47c3c0</title>
<path fill="none" stroke="black" d="M615.71,-305.71C612.78,-305.08 609.86,-304.5 607,-304 410.26,-269.44 355.25,-305.23 159,-268 152.71,-266.81 146.13,-265.17 139.77,-263.38"/>
<polygon fill="black" stroke="black" points="140.63,-259.99 130.05,-260.49 138.64,-266.7 140.63,-259.99"/>
<g id="a_edge46&#45;headlabel"><a xlink:href="dir_000002_000012.html" target="_top" xlink:title="16">
<text text-anchor="middle" x="144.89" y="-255.79" font-family="Helvetica,sans-Serif" font-size="10.00">16</text>
</a>
</g>
</g>
<!-- dir_4bb30ed846ea1df1fc4d16874a455d91&#45;&gt;dir_ebb19deee3cd40f4ac122fef25c04ca8 -->
<g id="edge47" class="edge">
<title>dir_4bb30ed846ea1df1fc4d16874a455d91&#45;&gt;dir_ebb19deee3cd40f4ac122fef25c04ca8</title>
<path fill="none" stroke="black" d="M615.69,-305.82C612.76,-305.16 609.85,-304.55 607,-304 471.03,-277.8 431.15,-293.76 296.18,-269.11"/>
<polygon fill="black" stroke="black" points="296.77,-265.66 286.3,-267.27 295.49,-272.54 296.77,-265.66"/>
<g id="a_edge47&#45;headlabel"><a xlink:href="dir_000002_000014.html" target="_top" xlink:title="3">
<text text-anchor="middle" x="300.82" y="-261.03" font-family="Helvetica,sans-Serif" font-size="10.00">3</text>
</a>
</g>
</g>
<!-- dir_70329d5a297148af2b67b1d844b9f654 -->
<g id="node10" class="node">
<title>dir_70329d5a297148af2b67b1d844b9f654</title>
<g id="a_node10"><a xlink:href="dir_70329d5a297148af2b67b1d844b9f654.html" target="_top" xlink:title="density">
<polygon fill="white" stroke="black" points="356,-340 302,-340 302,-304 356,-304 356,-340"/>
<text text-anchor="middle" x="329" y="-319.5" font-family="Helvetica,sans-Serif" font-size="10.00">density</text>
</a>
</g>
</g>
<!-- dir_70329d5a297148af2b67b1d844b9f654&#45;&gt;dir_3d3615e9a999cab4f3407307569d6ced -->
<g id="edge5" class="edge">
<title>dir_70329d5a297148af2b67b1d844b9f654&#45;&gt;dir_3d3615e9a999cab4f3407307569d6ced</title>
<path fill="none" stroke="black" d="M301.79,-322C289.24,-322 276.7,-322 264.15,-322"/>
<polygon fill="black" stroke="black" points="264.09,-318.5 254.09,-322 264.09,-325.5 264.09,-318.5"/>
<g id="a_edge5&#45;headlabel"><a xlink:href="dir_000025_000022.html" target="_top" xlink:title="4">
<text text-anchor="middle" x="267.69" y="-313.16" font-family="Helvetica,sans-Serif" font-size="10.00">4</text>
</a>
</g>
</g>
<!-- dir_4012ff34c1bb5bd303e44a1c9cef6c8a&#45;&gt;dir_3d3615e9a999cab4f3407307569d6ced -->
<g id="edge29" class="edge">
<title>dir_4012ff34c1bb5bd303e44a1c9cef6c8a&#45;&gt;dir_3d3615e9a999cab4f3407307569d6ced</title>
<path fill="none" stroke="black" d="M482.32,-340.1C474.34,-348.47 463.72,-357.54 452,-362 420.22,-374.08 331.91,-370.53 299,-362 285.78,-358.58 272.41,-352.14 260.84,-345.42"/>
<polygon fill="black" stroke="black" points="262.34,-342.23 251.98,-340.02 258.69,-348.21 262.34,-342.23"/>
<g id="a_edge29&#45;headlabel"><a xlink:href="dir_000003_000022.html" target="_top" xlink:title="24">
<text text-anchor="middle" x="266.88" y="-339.18" font-family="Helvetica,sans-Serif" font-size="10.00">24</text>
</a>
</g>
</g>
<!-- dir_4012ff34c1bb5bd303e44a1c9cef6c8a&#45;&gt;dir_e4cd57caa88bf1f4e1bf9521bc47c3c0 -->
<g id="edge31" class="edge">
<title>dir_4012ff34c1bb5bd303e44a1c9cef6c8a&#45;&gt;dir_e4cd57caa88bf1f4e1bf9521bc47c3c0</title>
<path fill="none" stroke="black" d="M469.84,-307.06C466.9,-305.89 463.92,-304.84 461,-304 331.09,-266.66 291.3,-295.74 159,-268 152.74,-266.69 146.16,-264.99 139.81,-263.18"/>
<polygon fill="black" stroke="black" points="140.68,-259.78 130.09,-260.28 138.67,-266.49 140.68,-259.78"/>
<g id="a_edge31&#45;headlabel"><a xlink:href="dir_000003_000012.html" target="_top" xlink:title="14">
<text text-anchor="middle" x="144.93" y="-255.59" font-family="Helvetica,sans-Serif" font-size="10.00">14</text>
</a>
</g>
</g>
<!-- dir_4012ff34c1bb5bd303e44a1c9cef6c8a&#45;&gt;dir_ebb19deee3cd40f4ac122fef25c04ca8 -->
<g id="edge32" class="edge">
<title>dir_4012ff34c1bb5bd303e44a1c9cef6c8a&#45;&gt;dir_ebb19deee3cd40f4ac122fef25c04ca8</title>
<path fill="none" stroke="black" d="M469.76,-307.33C466.84,-306.11 463.88,-304.97 461,-304 390.55,-280.31 367.5,-285.59 296.23,-269.42"/>
<polygon fill="black" stroke="black" points="296.87,-265.98 286.33,-267.11 295.27,-272.79 296.87,-265.98"/>
<g id="a_edge32&#45;headlabel"><a xlink:href="dir_000003_000014.html" target="_top" xlink:title="1">
<text text-anchor="middle" x="301.01" y="-261.53" font-family="Helvetica,sans-Serif" font-size="10.00">1</text>
</a>
</g>
</g>
<!-- dir_4012ff34c1bb5bd303e44a1c9cef6c8a&#45;&gt;dir_f2c65bfcbdc19ebacbfc0bbbfb0d01b6 -->
<g id="edge34" class="edge">
<title>dir_4012ff34c1bb5bd303e44a1c9cef6c8a&#45;&gt;dir_f2c65bfcbdc19ebacbfc0bbbfb0d01b6</title>
<path fill="none" stroke="black" d="M482.05,-303.74C465.15,-284.27 436.77,-251.72 412,-224 406.03,-217.32 399.51,-210.12 393.47,-203.49"/>
<polygon fill="black" stroke="black" points="395.98,-201.05 386.65,-196.02 390.81,-205.77 395.98,-201.05"/>
<g id="a_edge34&#45;headlabel"><a xlink:href="dir_000003_000017.html" target="_top" xlink:title="1">
<text text-anchor="middle" x="400.5" y="-199.29" font-family="Helvetica,sans-Serif" font-size="10.00">1</text>
</a>
</g>
</g>
<!-- dir_4012ff34c1bb5bd303e44a1c9cef6c8a&#45;&gt;dir_0c368f76a33d967d5b838b5681461de6 -->
<g id="edge33" class="edge">
<title>dir_4012ff34c1bb5bd303e44a1c9cef6c8a&#45;&gt;dir_0c368f76a33d967d5b838b5681461de6</title>
<path fill="none" stroke="black" d="M488.64,-303.69C484.02,-293.51 478.52,-280.26 475,-268 461.9,-222.34 458.25,-166.84 457.29,-134.37"/>
<polygon fill="black" stroke="black" points="460.78,-134.2 457.05,-124.29 453.78,-134.36 460.78,-134.2"/>
<g id="a_edge33&#45;headlabel"><a xlink:href="dir_000003_000001.html" target="_top" xlink:title="4">
<text text-anchor="middle" x="463.7" y="-135.23" font-family="Helvetica,sans-Serif" font-size="10.00">4</text>
</a>
</g>
</g>
<!-- dir_4012ff34c1bb5bd303e44a1c9cef6c8a&#45;&gt;dir_bfcf7e25e8a41bb3b30f8e11e2280479 -->
<g id="edge30" class="edge">
<title>dir_4012ff34c1bb5bd303e44a1c9cef6c8a&#45;&gt;dir_bfcf7e25e8a41bb3b30f8e11e2280479</title>
<path fill="none" stroke="black" d="M469.99,-307.92C466.98,-306.56 463.93,-305.22 461,-304 420.82,-287.25 406.65,-287.22 367.58,-270.37"/>
<polygon fill="black" stroke="black" points="368.83,-267.1 358.27,-266.25 365.99,-273.5 368.83,-267.1"/>
<g id="a_edge30&#45;headlabel"><a xlink:href="dir_000003_000031.html" target="_top" xlink:title="1">
<text text-anchor="middle" x="373.27" y="-263.46" font-family="Helvetica,sans-Serif" font-size="10.00">1</text>
</a>
</g>
</g>
<!-- dir_ce0741f9b73f67c263a459724eeecf8b -->
<g id="node12" class="node">
<title>dir_ce0741f9b73f67c263a459724eeecf8b</title>
<g id="a_node12"><a xlink:href="dir_ce0741f9b73f67c263a459724eeecf8b.html" target="_top" xlink:title="levelset">
<polygon fill="white" stroke="black" points="598,-340 542,-340 542,-304 598,-304 598,-340"/>
<text text-anchor="middle" x="570" y="-319.5" font-family="Helvetica,sans-Serif" font-size="10.00">levelset</text>
</a>
</g>
</g>
<!-- dir_ce0741f9b73f67c263a459724eeecf8b&#45;&gt;dir_f2c65bfcbdc19ebacbfc0bbbfb0d01b6 -->
<g id="edge14" class="edge">
<title>dir_ce0741f9b73f67c263a459724eeecf8b&#45;&gt;dir_f2c65bfcbdc19ebacbfc0bbbfb0d01b6</title>
<path fill="none" stroke="black" d="M546.15,-303.75C519.22,-284.3 474.05,-251.76 435,-224 424.79,-216.75 413.64,-208.88 403.54,-201.79"/>
<polygon fill="black" stroke="black" points="405.55,-198.92 395.35,-196.04 401.53,-204.65 405.55,-198.92"/>
<g id="a_edge14&#45;headlabel"><a xlink:href="dir_000039_000017.html" target="_top" xlink:title="1">
<text text-anchor="middle" x="410.12" y="-196.16" font-family="Helvetica,sans-Serif" font-size="10.00">1</text>
</a>
</g>
</g>
<!-- dir_9f8434f21d2c2598f33c85a8b98c6d56&#45;&gt;dir_3d3615e9a999cab4f3407307569d6ced -->
<g id="edge35" class="edge">
<title>dir_9f8434f21d2c2598f33c85a8b98c6d56&#45;&gt;dir_3d3615e9a999cab4f3407307569d6ced</title>
<path fill="none" stroke="black" d="M824.32,-340.1C816.34,-348.47 805.72,-357.54 794,-362 742.59,-381.55 352.24,-375.8 299,-362 285.78,-358.58 272.41,-352.14 260.84,-345.42"/>
<polygon fill="black" stroke="black" points="262.34,-342.23 251.98,-340.02 258.69,-348.21 262.34,-342.23"/>
<g id="a_edge35&#45;headlabel"><a xlink:href="dir_000046_000022.html" target="_top" xlink:title="6">
<text text-anchor="middle" x="266.88" y="-339.18" font-family="Helvetica,sans-Serif" font-size="10.00">6</text>
</a>
</g>
</g>
<!-- dir_9f8434f21d2c2598f33c85a8b98c6d56&#45;&gt;dir_9ff815a534beac751fa88e427dbab695 -->
<g id="edge36" class="edge">
<title>dir_9f8434f21d2c2598f33c85a8b98c6d56&#45;&gt;dir_9ff815a534beac751fa88e427dbab695</title>
<path fill="none" stroke="black" d="M831.06,-303.82C816.75,-273.56 784.84,-209.29 750,-160 743.15,-150.31 734.79,-140.4 727.03,-131.81"/>
<polygon fill="black" stroke="black" points="729.49,-129.31 720.13,-124.33 724.34,-134.05 729.49,-129.31"/>
<g id="a_edge36&#45;headlabel"><a xlink:href="dir_000046_000010.html" target="_top" xlink:title="1">
<text text-anchor="middle" x="734.01" y="-127.52" font-family="Helvetica,sans-Serif" font-size="10.00">1</text>
</a>
</g>
</g>
<!-- dir_c96908905c9887b0bdc2167e5354d30c -->
<g id="node14" class="node">
<title>dir_c96908905c9887b0bdc2167e5354d30c</title>
<g id="a_node14"><a xlink:href="dir_c96908905c9887b0bdc2167e5354d30c.html" target="_top" xlink:title="temperature">
<polygon fill="white" stroke="black" points="451.5,-340 374.5,-340 374.5,-304 451.5,-304 451.5,-340"/>
<text text-anchor="middle" x="413" y="-319.5" font-family="Helvetica,sans-Serif" font-size="10.00">temperature</text>
</a>
</g>
</g>
<!-- dir_c96908905c9887b0bdc2167e5354d30c&#45;&gt;dir_3d3615e9a999cab4f3407307569d6ced -->
<g id="edge15" class="edge">
<title>dir_c96908905c9887b0bdc2167e5354d30c&#45;&gt;dir_3d3615e9a999cab4f3407307569d6ced</title>
<path fill="none" stroke="black" d="M393.54,-340.17C383.22,-348.57 369.83,-357.63 356,-362 331.84,-369.63 323.52,-368.35 299,-362 285.78,-358.58 272.41,-352.14 260.84,-345.42"/>
<polygon fill="black" stroke="black" points="262.34,-342.23 251.98,-340.02 258.69,-348.21 262.34,-342.23"/>
<g id="a_edge15&#45;headlabel"><a xlink:href="dir_000048_000022.html" target="_top" xlink:title="4">
<text text-anchor="middle" x="266.88" y="-339.18" font-family="Helvetica,sans-Serif" font-size="10.00">4</text>
</a>
</g>
</g>
<!-- dir_be932497d8c26b6aa8596ee64638838f&#45;&gt;dir_3d3615e9a999cab4f3407307569d6ced -->
<g id="edge6" class="edge">
<title>dir_be932497d8c26b6aa8596ee64638838f&#45;&gt;dir_3d3615e9a999cab4f3407307569d6ced</title>
<path fill="none" stroke="black" d="M752.32,-340.1C744.34,-348.47 733.72,-357.54 722,-362 678.07,-378.7 344.5,-373.79 299,-362 285.78,-358.58 272.41,-352.14 260.84,-345.42"/>
<polygon fill="black" stroke="black" points="262.34,-342.23 251.98,-340.02 258.69,-348.21 262.34,-342.23"/>
<g id="a_edge6&#45;headlabel"><a xlink:href="dir_000037_000022.html" target="_top" xlink:title="6">
<text text-anchor="middle" x="266.88" y="-339.18" font-family="Helvetica,sans-Serif" font-size="10.00">6</text>
</a>
</g>
</g>
<!-- dir_be932497d8c26b6aa8596ee64638838f&#45;&gt;dir_9ff815a534beac751fa88e427dbab695 -->
<g id="edge7" class="edge">
<title>dir_be932497d8c26b6aa8596ee64638838f&#45;&gt;dir_9ff815a534beac751fa88e427dbab695</title>
<path fill="none" stroke="black" d="M761.87,-303.85C750.75,-266.68 724.36,-178.44 711.02,-133.82"/>
<polygon fill="black" stroke="black" points="714.37,-132.81 708.15,-124.23 707.67,-134.82 714.37,-132.81"/>
<g id="a_edge7&#45;headlabel"><a xlink:href="dir_000037_000010.html" target="_top" xlink:title="2">
<text text-anchor="middle" x="718.12" y="-132.94" font-family="Helvetica,sans-Serif" font-size="10.00">2</text>
</a>
</g>
</g>
<!-- dir_bfcf7e25e8a41bb3b30f8e11e2280479&#45;&gt;dir_3d3615e9a999cab4f3407307569d6ced -->
<g id="edge38" class="edge">
<title>dir_bfcf7e25e8a41bb3b30f8e11e2280479&#45;&gt;dir_3d3615e9a999cab4f3407307569d6ced</title>
<path fill="none" stroke="black" d="M305.46,-268.19C292.1,-277.18 275.56,-288.32 261.12,-298.04"/>
<polygon fill="black" stroke="black" points="258.78,-295.39 252.44,-303.88 262.69,-301.2 258.78,-295.39"/>
<g id="a_edge38&#45;headlabel"><a xlink:href="dir_000031_000022.html" target="_top" xlink:title="1">
<text text-anchor="middle" x="260.18" y="-288.53" font-family="Helvetica,sans-Serif" font-size="10.00">1</text>
</a>
</g>
</g>
<!-- dir_bfcf7e25e8a41bb3b30f8e11e2280479&#45;&gt;dir_ebb19deee3cd40f4ac122fef25c04ca8 -->
<g id="edge39" class="edge">
<title>dir_bfcf7e25e8a41bb3b30f8e11e2280479&#45;&gt;dir_ebb19deee3cd40f4ac122fef25c04ca8</title>
<path fill="none" stroke="black" d="M303.77,-250C301.31,-250 298.86,-250 296.4,-250"/>
<polygon fill="black" stroke="black" points="296.31,-246.5 286.31,-250 296.31,-253.5 296.31,-246.5"/>
<g id="a_edge39&#45;headlabel"><a xlink:href="dir_000031_000014.html" target="_top" xlink:title="1">
<text text-anchor="middle" x="299.91" y="-241.16" font-family="Helvetica,sans-Serif" font-size="10.00">1</text>
</a>
</g>
</g>
<!-- dir_bfcf7e25e8a41bb3b30f8e11e2280479&#45;&gt;dir_f2c65bfcbdc19ebacbfc0bbbfb0d01b6 -->
<g id="edge40" class="edge">
<title>dir_bfcf7e25e8a41bb3b30f8e11e2280479&#45;&gt;dir_f2c65bfcbdc19ebacbfc0bbbfb0d01b6</title>
<path fill="none" stroke="black" d="M334.97,-231.7C338.78,-223.56 344.22,-213.69 349.78,-204.7"/>
<polygon fill="black" stroke="black" points="352.85,-206.4 355.33,-196.1 346.97,-202.61 352.85,-206.4"/>
<g id="a_edge40&#45;headlabel"><a xlink:href="dir_000031_000017.html" target="_top" xlink:title="1">
<text text-anchor="middle" x="353.28" y="-208.46" font-family="Helvetica,sans-Serif" font-size="10.00">1</text>
</a>
</g>
</g>
</g>
</svg>
