<?xml version="1.0" encoding="UTF-8" standalone="no"?>
<!DOCTYPE svg PUBLIC "-//W3C//DTD SVG 1.1//EN"
 "http://www.w3.org/Graphics/SVG/1.1/DTD/svg11.dtd">
<!-- Generated by graphviz version 2.43.0 (0)
 -->
<!-- Title: core Pages: 1 -->
<svg width="174pt" height="247pt"
 viewBox="0.00 0.00 174.00 247.00" xmlns="http://www.w3.org/2000/svg" xmlns:xlink="http://www.w3.org/1999/xlink">
<g id="graph0" class="graph" transform="scale(1 1) rotate(0) translate(4 243)">
<title>core</title>
<polygon fill="white" stroke="transparent" points="-4,4 -4,-243 170,-243 170,4 -4,4"/>
<g id="clust1" class="cluster">
<title>clusterdir_d85575251dd712327fe3cf057fa568b4</title>
<g id="a_clust1"><a xlink:href="dir_d85575251dd712327fe3cf057fa568b4.html" target="_top" xlink:title="amr&#45;wind">
<polygon fill="#ddddee" stroke="black" points="8,-8 8,-231 158,-231 158,-8 8,-8"/>
<text text-anchor="middle" x="83" y="-219" font-family="Helvetica,sans-Serif" font-size="10.00">amr&#45;wind</text>
</a>
</g>
</g>
<g id="clust2" class="cluster">
<title>clusterdir_3d3615e9a999cab4f3407307569d6ced</title>
<g id="a_clust2"><a xlink:href="dir_3d3615e9a999cab4f3407307569d6ced.html" target="_top">
<polygon fill="#eeeeff" stroke="black" points="80,-16 80,-140 150,-140 150,-16 80,-16"/>
</a>
</g>
</g>
<!-- dir_ebb19deee3cd40f4ac122fef25c04ca8 -->
<g id="node1" class="node">
<title>dir_ebb19deee3cd40f4ac122fef25c04ca8</title>
<g id="a_node1"><a xlink:href="dir_ebb19deee3cd40f4ac122fef25c04ca8.html" target="_top" xlink:title="boundary_conditions">
<polygon fill="none" stroke="black" points="150,-204 32,-204 32,-168 150,-168 150,-204"/>
<text text-anchor="middle" x="91" y="-183.5" font-family="Helvetica,sans-Serif" font-size="10.00">boundary_conditions</text>
</a>
</g>
</g>
<!-- dir_3d3615e9a999cab4f3407307569d6ced -->
<g id="node3" class="node">
<title>dir_3d3615e9a999cab4f3407307569d6ced</title>
<text text-anchor="middle" x="115" y="-111.5" font-family="Helvetica,sans-Serif" font-size="10.00">core</text>
</g>
<!-- dir_ebb19deee3cd40f4ac122fef25c04ca8&#45;&gt;dir_3d3615e9a999cab4f3407307569d6ced -->
<g id="edge1" class="edge">
<title>dir_ebb19deee3cd40f4ac122fef25c04ca8&#45;&gt;dir_3d3615e9a999cab4f3407307569d6ced</title>
<path fill="none" stroke="black" d="M102.85,-167.7C106.33,-159.9 109.77,-150.51 112.39,-141.83"/>
<polygon fill="black" stroke="black" points="115.78,-142.67 115.03,-132.1 109.03,-140.83 115.78,-142.67"/>
<g id="a_edge1&#45;headlabel"><a xlink:href="dir_000014_000022.html" target="_top" xlink:title="8">
<text text-anchor="middle" x="117.58" y="-144.39" font-family="Helvetica,sans-Serif" font-size="10.00">8</text>
</a>
</g>
</g>
<!-- dir_e4cd57caa88bf1f4e1bf9521bc47c3c0 -->
<g id="node2" class="node">
<title>dir_e4cd57caa88bf1f4e1bf9521bc47c3c0</title>
<g id="a_node2"><a xlink:href="dir_e4cd57caa88bf1f4e1bf9521bc47c3c0.html" target="_top" xlink:title="utilities">
<polygon fill="white" stroke="red" points="70,-132 16,-132 16,-96 70,-96 70,-132"/>
<text text-anchor="middle" x="43" y="-111.5" font-family="Helvetica,sans-Serif" font-size="10.00">utilities</text>
</a>
</g>
</g>
<!-- dir_746f6964e321f098213c94f0f6cc69fe -->
<g id="node4" class="node">
<title>dir_746f6964e321f098213c94f0f6cc69fe</title>
<g id="a_node4"><a xlink:href="dir_746f6964e321f098213c94f0f6cc69fe.html" target="_top" xlink:title="vs">
<polygon fill="white" stroke="black" points="142,-60 88,-60 88,-24 142,-24 142,-60"/>
<text text-anchor="middle" x="115" y="-39.5" font-family="Helvetica,sans-Serif" font-size="10.00">vs</text>
</a>
</g>
</g>
<!-- dir_e4cd57caa88bf1f4e1bf9521bc47c3c0&#45;&gt;dir_746f6964e321f098213c94f0f6cc69fe -->
<g id="edge3" class="edge">
<title>dir_e4cd57caa88bf1f4e1bf9521bc47c3c0&#45;&gt;dir_746f6964e321f098213c94f0f6cc69fe</title>
<path fill="none" stroke="black" d="M66.71,-95.7C76.31,-87.22 87.15,-76.86 96.19,-67.58"/>
<polygon fill="black" stroke="black" points="98.95,-69.76 103.3,-60.1 93.88,-64.94 98.95,-69.76"/>
<g id="a_edge3&#45;headlabel"><a xlink:href="dir_000012_000049.html" target="_top" xlink:title="4">
<text text-anchor="middle" x="98.53" y="-71.82" font-family="Helvetica,sans-Serif" font-size="10.00">4</text>
</a>
</g>
</g>
<!-- dir_3d3615e9a999cab4f3407307569d6ced&#45;&gt;dir_ebb19deee3cd40f4ac122fef25c04ca8 -->
<g id="edge5" class="edge">
<title>dir_3d3615e9a999cab4f3407307569d6ced&#45;&gt;dir_ebb19deee3cd40f4ac122fef25c04ca8</title>
<path fill="none" stroke="black" d="M103.24,-132.1C99.76,-139.88 96.31,-149.26 93.68,-157.95"/>
<polygon fill="black" stroke="black" points="90.28,-157.13 91.02,-167.7 97.03,-158.97 90.28,-157.13"/>
<g id="a_edge5&#45;headlabel"><a xlink:href="dir_000022_000014.html" target="_top" xlink:title="1">
<text text-anchor="middle" x="88.49" y="-150.41" font-family="Helvetica,sans-Serif" font-size="10.00">1</text>
</a>
</g>
</g>
<!-- dir_3d3615e9a999cab4f3407307569d6ced&#45;&gt;dir_746f6964e321f098213c94f0f6cc69fe -->
<g id="edge4" class="edge">
<title>dir_3d3615e9a999cab4f3407307569d6ced&#45;&gt;dir_746f6964e321f098213c94f0f6cc69fe</title>
<path fill="none" stroke="black" d="M115,-95.7C115,-87.98 115,-78.71 115,-70.11"/>
<polygon fill="black" stroke="black" points="118.5,-70.1 115,-60.1 111.5,-70.1 118.5,-70.1"/>
<g id="a_edge4&#45;headlabel"><a xlink:href="dir_000022_000049.html" target="_top" xlink:title="1">
<text text-anchor="middle" x="121.34" y="-71.2" font-family="Helvetica,sans-Serif" font-size="10.00">1</text>
</a>
</g>
</g>
<!-- dir_746f6964e321f098213c94f0f6cc69fe&#45;&gt;dir_e4cd57caa88bf1f4e1bf9521bc47c3c0 -->
<g id="edge2" class="edge">
<title>dir_746f6964e321f098213c94f0f6cc69fe&#45;&gt;dir_e4cd57caa88bf1f4e1bf9521bc47c3c0</title>
<path fill="none" stroke="black" d="M91.51,-60.1C81.94,-68.55 71.09,-78.9 62.02,-88.2"/>
<polygon fill="black" stroke="black" points="59.24,-86.04 54.88,-95.7 64.31,-90.87 59.24,-86.04"/>
<g id="a_edge2&#45;headlabel"><a xlink:href="dir_000049_000012.html" target="_top" xlink:title="1">
<text text-anchor="middle" x="59.67" y="-78.98" font-family="Helvetica,sans-Serif" font-size="10.00">1</text>
</a>
</g>
</g>
</g>
</svg>
