<?xml version="1.0" encoding="UTF-8" standalone="no"?>
<!DOCTYPE svg PUBLIC "-//W3C//DTD SVG 1.1//EN"
 "http://www.w3.org/Graphics/SVG/1.1/DTD/svg11.dtd">
<!-- Generated by graphviz version 2.43.0 (0)
 -->
<!-- Title: icns Pages: 1 -->
<svg width="438pt" height="322pt"
 viewBox="0.00 0.00 437.56 321.53" xmlns="http://www.w3.org/2000/svg" xmlns:xlink="http://www.w3.org/1999/xlink">
<g id="graph0" class="graph" transform="scale(1 1) rotate(0) translate(4 317.53)">
<title>icns</title>
<polygon fill="white" stroke="transparent" points="-4,4 -4,-317.53 433.56,-317.53 433.56,4 -4,4"/>
<g id="clust1" class="cluster">
<title>clusterdir_4bb30ed846ea1df1fc4d16874a455d91</title>
<g id="a_clust1"><a xlink:href="dir_4bb30ed846ea1df1fc4d16874a455d91.html" target="_top" xlink:title="equation_systems">
<polygon fill="#ddddee" stroke="black" points="8,-136 8,-287 196,-287 196,-136 8,-136"/>
<text text-anchor="middle" x="102" y="-275" font-family="Helvetica,sans-Serif" font-size="10.00">equation_systems</text>
</a>
</g>
</g>
<g id="clust2" class="cluster">
<title>clusterdir_4012ff34c1bb5bd303e44a1c9cef6c8a</title>
<g id="a_clust2"><a xlink:href="dir_4012ff34c1bb5bd303e44a1c9cef6c8a.html" target="_top">
<polygon fill="#eeeeff" stroke="black" points="16,-208 16,-260 188,-260 188,-208 16,-208"/>
</a>
</g>
</g>
<!-- dir_bfcf7e25e8a41bb3b30f8e11e2280479 -->
<g id="node1" class="node">
<title>dir_bfcf7e25e8a41bb3b30f8e11e2280479</title>
<g id="a_node1"><a xlink:href="dir_bfcf7e25e8a41bb3b30f8e11e2280479.html" target="_top" xlink:title="vof">
<polygon fill="none" stroke="black" points="186,-180 132,-180 132,-144 186,-144 186,-180"/>
<text text-anchor="middle" x="159" y="-159.5" font-family="Helvetica,sans-Serif" font-size="10.00">vof</text>
</a>
</g>
</g>
<!-- dir_3d3615e9a999cab4f3407307569d6ced -->
<g id="node4" class="node">
<title>dir_3d3615e9a999cab4f3407307569d6ced</title>
<g id="a_node4"><a xlink:href="dir_3d3615e9a999cab4f3407307569d6ced.html" target="_top" xlink:title="core">
<polygon fill="white" stroke="red" points="258,-252 204,-252 204,-216 258,-216 258,-252"/>
<text text-anchor="middle" x="231" y="-231.5" font-family="Helvetica,sans-Serif" font-size="10.00">core</text>
</a>
</g>
</g>
<!-- dir_bfcf7e25e8a41bb3b30f8e11e2280479&#45;&gt;dir_3d3615e9a999cab4f3407307569d6ced -->
<g id="edge22" class="edge">
<title>dir_bfcf7e25e8a41bb3b30f8e11e2280479&#45;&gt;dir_3d3615e9a999cab4f3407307569d6ced</title>
<path fill="none" stroke="black" d="M176.59,-180.1C185.37,-188.64 196.14,-199.11 205.78,-208.48"/>
<polygon fill="black" stroke="black" points="203.59,-211.24 213.2,-215.7 208.47,-206.22 203.59,-211.24"/>
<g id="a_edge22&#45;headlabel"><a xlink:href="dir_000031_000022.html" target="_top" xlink:title="1">
<text text-anchor="middle" x="199.04" y="-208.27" font-family="Helvetica,sans-Serif" font-size="10.00">1</text>
</a>
</g>
</g>
<!-- dir_ebb19deee3cd40f4ac122fef25c04ca8 -->
<g id="node6" class="node">
<title>dir_ebb19deee3cd40f4ac122fef25c04ca8</title>
<g id="a_node6"><a xlink:href="dir_ebb19deee3cd40f4ac122fef25c04ca8.html" target="_top" xlink:title="boundary_conditions">
<polygon fill="none" stroke="black" points="394,-180 276,-180 276,-144 394,-144 394,-180"/>
<text text-anchor="middle" x="335" y="-159.5" font-family="Helvetica,sans-Serif" font-size="10.00">boundary_conditions</text>
</a>
</g>
</g>
<!-- dir_bfcf7e25e8a41bb3b30f8e11e2280479&#45;&gt;dir_ebb19deee3cd40f4ac122fef25c04ca8 -->
<g id="edge23" class="edge">
<title>dir_bfcf7e25e8a41bb3b30f8e11e2280479&#45;&gt;dir_ebb19deee3cd40f4ac122fef25c04ca8</title>
<path fill="none" stroke="black" d="M179.04,-180.26C186.36,-185.78 195.05,-191.14 204,-194 233.17,-203.31 266.73,-194.76 292.58,-184.16"/>
<polygon fill="black" stroke="black" points="294.3,-187.23 302.08,-180.03 291.51,-180.81 294.3,-187.23"/>
<g id="a_edge23&#45;headlabel"><a xlink:href="dir_000031_000014.html" target="_top" xlink:title="1">
<text text-anchor="middle" x="292.14" y="-188.76" font-family="Helvetica,sans-Serif" font-size="10.00">1</text>
</a>
</g>
</g>
<!-- dir_f2c65bfcbdc19ebacbfc0bbbfb0d01b6 -->
<g id="node8" class="node">
<title>dir_f2c65bfcbdc19ebacbfc0bbbfb0d01b6</title>
<g id="a_node8"><a xlink:href="dir_f2c65bfcbdc19ebacbfc0bbbfb0d01b6.html" target="_top" xlink:title="physics">
<polygon fill="white" stroke="red" points="203,-108 149,-108 149,-72 203,-72 203,-108"/>
<text text-anchor="middle" x="176" y="-87.5" font-family="Helvetica,sans-Serif" font-size="10.00">physics</text>
</a>
</g>
</g>
<!-- dir_bfcf7e25e8a41bb3b30f8e11e2280479&#45;&gt;dir_f2c65bfcbdc19ebacbfc0bbbfb0d01b6 -->
<g id="edge24" class="edge">
<title>dir_bfcf7e25e8a41bb3b30f8e11e2280479&#45;&gt;dir_f2c65bfcbdc19ebacbfc0bbbfb0d01b6</title>
<path fill="none" stroke="black" d="M157.29,-143.7C158.38,-135.9 160.43,-126.51 162.9,-117.83"/>
<polygon fill="black" stroke="black" points="166.3,-118.69 165.95,-108.1 159.62,-116.6 166.3,-118.69"/>
<g id="a_edge24&#45;headlabel"><a xlink:href="dir_000031_000017.html" target="_top" xlink:title="1">
<text text-anchor="middle" x="167.93" y="-120.47" font-family="Helvetica,sans-Serif" font-size="10.00">1</text>
</a>
</g>
</g>
<!-- dir_4012ff34c1bb5bd303e44a1c9cef6c8a -->
<g id="node2" class="node">
<title>dir_4012ff34c1bb5bd303e44a1c9cef6c8a</title>
<text text-anchor="middle" x="153" y="-231.5" font-family="Helvetica,sans-Serif" font-size="10.00">icns</text>
</g>
<!-- dir_4012ff34c1bb5bd303e44a1c9cef6c8a&#45;&gt;dir_bfcf7e25e8a41bb3b30f8e11e2280479 -->
<g id="edge19" class="edge">
<title>dir_4012ff34c1bb5bd303e44a1c9cef6c8a&#45;&gt;dir_bfcf7e25e8a41bb3b30f8e11e2280479</title>
<path fill="none" stroke="black" d="M154.48,-215.7C155.14,-207.98 155.94,-198.71 156.68,-190.11"/>
<polygon fill="black" stroke="black" points="160.17,-190.37 157.53,-180.1 153.19,-189.77 160.17,-190.37"/>
<g id="a_edge19&#45;headlabel"><a xlink:href="dir_000003_000031.html" target="_top" xlink:title="1">
<text text-anchor="middle" x="162.69" y="-191.69" font-family="Helvetica,sans-Serif" font-size="10.00">1</text>
</a>
</g>
</g>
<!-- dir_4012ff34c1bb5bd303e44a1c9cef6c8a&#45;&gt;dir_3d3615e9a999cab4f3407307569d6ced -->
<g id="edge18" class="edge">
<title>dir_4012ff34c1bb5bd303e44a1c9cef6c8a&#45;&gt;dir_3d3615e9a999cab4f3407307569d6ced</title>
<path fill="none" stroke="black" d="M180.12,-234C184.71,-234 189.31,-234 193.91,-234"/>
<polygon fill="black" stroke="black" points="193.97,-237.5 203.97,-234 193.97,-230.5 193.97,-237.5"/>
<g id="a_edge18&#45;headlabel"><a xlink:href="dir_000003_000022.html" target="_top" xlink:title="24">
<text text-anchor="middle" x="190.37" y="-237.84" font-family="Helvetica,sans-Serif" font-size="10.00">24</text>
</a>
</g>
</g>
<!-- dir_e4cd57caa88bf1f4e1bf9521bc47c3c0 -->
<g id="node5" class="node">
<title>dir_e4cd57caa88bf1f4e1bf9521bc47c3c0</title>
<g id="a_node5"><a xlink:href="dir_e4cd57caa88bf1f4e1bf9521bc47c3c0.html" target="_top" xlink:title="utilities">
<polygon fill="white" stroke="red" points="258,-180 204,-180 204,-144 258,-144 258,-180"/>
<text text-anchor="middle" x="231" y="-159.5" font-family="Helvetica,sans-Serif" font-size="10.00">utilities</text>
</a>
</g>
</g>
<!-- dir_4012ff34c1bb5bd303e44a1c9cef6c8a&#45;&gt;dir_e4cd57caa88bf1f4e1bf9521bc47c3c0 -->
<g id="edge20" class="edge">
<title>dir_4012ff34c1bb5bd303e44a1c9cef6c8a&#45;&gt;dir_e4cd57caa88bf1f4e1bf9521bc47c3c0</title>
<path fill="none" stroke="black" d="M172.28,-215.7C181.92,-207.05 193.73,-196.45 204.23,-187.03"/>
<polygon fill="black" stroke="black" points="206.84,-189.39 211.94,-180.1 202.16,-184.18 206.84,-189.39"/>
<g id="a_edge20&#45;headlabel"><a xlink:href="dir_000003_000012.html" target="_top" xlink:title="14">
<text text-anchor="middle" x="206.06" y="-191.4" font-family="Helvetica,sans-Serif" font-size="10.00">14</text>
</a>
</g>
</g>
<!-- dir_4012ff34c1bb5bd303e44a1c9cef6c8a&#45;&gt;dir_ebb19deee3cd40f4ac122fef25c04ca8 -->
<g id="edge21" class="edge">
<title>dir_4012ff34c1bb5bd303e44a1c9cef6c8a&#45;&gt;dir_ebb19deee3cd40f4ac122fef25c04ca8</title>
<path fill="none" stroke="black" d="M179.63,-215.94C184.63,-213.08 189.9,-210.3 195,-208 217.6,-197.8 243.2,-188.86 266.28,-181.7"/>
<polygon fill="black" stroke="black" points="267.45,-185 276,-178.74 265.41,-178.3 267.45,-185"/>
<g id="a_edge21&#45;headlabel"><a xlink:href="dir_000003_000014.html" target="_top" xlink:title="1">
<text text-anchor="middle" x="264.84" y="-186.26" font-family="Helvetica,sans-Serif" font-size="10.00">1</text>
</a>
</g>
</g>
<!-- dir_5d2cf0e24161a778738de20190787a10 -->
<g id="node3" class="node">
<title>dir_5d2cf0e24161a778738de20190787a10</title>
<g id="a_node3"><a xlink:href="dir_5d2cf0e24161a778738de20190787a10.html" target="_top" xlink:title="source_terms">
<polygon fill="white" stroke="black" points="107.5,-252 24.5,-252 24.5,-216 107.5,-216 107.5,-252"/>
<text text-anchor="middle" x="66" y="-231.5" font-family="Helvetica,sans-Serif" font-size="10.00">source_terms</text>
</a>
</g>
</g>
<!-- dir_5d2cf0e24161a778738de20190787a10&#45;&gt;dir_3d3615e9a999cab4f3407307569d6ced -->
<g id="edge2" class="edge">
<title>dir_5d2cf0e24161a778738de20190787a10&#45;&gt;dir_3d3615e9a999cab4f3407307569d6ced</title>
<path fill="none" stroke="black" d="M75.29,-252.2C85.22,-269.42 102.73,-294.2 126,-305 148.98,-315.67 160.63,-316.88 183,-305 200.3,-295.81 212.51,-277.29 220.28,-261.47"/>
<polygon fill="black" stroke="black" points="223.59,-262.63 224.55,-252.08 217.22,-259.73 223.59,-262.63"/>
<g id="a_edge2&#45;headlabel"><a xlink:href="dir_000004_000022.html" target="_top" xlink:title="19">
<text text-anchor="middle" x="224.69" y="-264.58" font-family="Helvetica,sans-Serif" font-size="10.00">19</text>
</a>
</g>
</g>
<!-- dir_5d2cf0e24161a778738de20190787a10&#45;&gt;dir_e4cd57caa88bf1f4e1bf9521bc47c3c0 -->
<g id="edge3" class="edge">
<title>dir_5d2cf0e24161a778738de20190787a10&#45;&gt;dir_e4cd57caa88bf1f4e1bf9521bc47c3c0</title>
<path fill="none" stroke="black" d="M99.18,-215.96C105.06,-213.17 111.16,-210.4 117,-208 149.91,-194.45 162.22,-195.35 194.18,-182.34"/>
<polygon fill="black" stroke="black" points="195.91,-185.41 203.75,-178.28 193.17,-178.97 195.91,-185.41"/>
<g id="a_edge3&#45;headlabel"><a xlink:href="dir_000004_000012.html" target="_top" xlink:title="11">
<text text-anchor="middle" x="193.71" y="-186.93" font-family="Helvetica,sans-Serif" font-size="10.00">11</text>
</a>
</g>
</g>
<!-- dir_0c368f76a33d967d5b838b5681461de6 -->
<g id="node7" class="node">
<title>dir_0c368f76a33d967d5b838b5681461de6</title>
<g id="a_node7"><a xlink:href="dir_0c368f76a33d967d5b838b5681461de6.html" target="_top" xlink:title="wind_energy">
<polygon fill="white" stroke="red" points="179.5,-36 100.5,-36 100.5,0 179.5,0 179.5,-36"/>
<text text-anchor="middle" x="140" y="-15.5" font-family="Helvetica,sans-Serif" font-size="10.00">wind_energy</text>
</a>
</g>
</g>
<!-- dir_5d2cf0e24161a778738de20190787a10&#45;&gt;dir_0c368f76a33d967d5b838b5681461de6 -->
<g id="edge1" class="edge">
<title>dir_5d2cf0e24161a778738de20190787a10&#45;&gt;dir_0c368f76a33d967d5b838b5681461de6</title>
<path fill="none" stroke="black" d="M61.31,-215.74C56.77,-196 51.68,-162.92 60,-136 71.01,-100.41 96.98,-65.99 116.36,-43.81"/>
<polygon fill="black" stroke="black" points="119.1,-45.99 123.16,-36.21 113.89,-41.32 119.1,-45.99"/>
<g id="a_edge1&#45;headlabel"><a xlink:href="dir_000004_000001.html" target="_top" xlink:title="4">
<text text-anchor="middle" x="118.82" y="-48.07" font-family="Helvetica,sans-Serif" font-size="10.00">4</text>
</a>
</g>
</g>
<!-- dir_5d2cf0e24161a778738de20190787a10&#45;&gt;dir_f2c65bfcbdc19ebacbfc0bbbfb0d01b6 -->
<g id="edge4" class="edge">
<title>dir_5d2cf0e24161a778738de20190787a10&#45;&gt;dir_f2c65bfcbdc19ebacbfc0bbbfb0d01b6</title>
<path fill="none" stroke="black" d="M63.87,-215.75C62.25,-194.8 62.67,-159.37 80,-136 94.13,-116.94 118.37,-105.66 138.96,-99.17"/>
<polygon fill="black" stroke="black" points="140.08,-102.49 148.71,-96.35 138.13,-95.76 140.08,-102.49"/>
<g id="a_edge4&#45;headlabel"><a xlink:href="dir_000004_000017.html" target="_top" xlink:title="1">
<text text-anchor="middle" x="137.41" y="-103.71" font-family="Helvetica,sans-Serif" font-size="10.00">1</text>
</a>
</g>
</g>
<!-- dir_3d3615e9a999cab4f3407307569d6ced&#45;&gt;dir_e4cd57caa88bf1f4e1bf9521bc47c3c0 -->
<g id="edge26" class="edge">
<title>dir_3d3615e9a999cab4f3407307569d6ced&#45;&gt;dir_e4cd57caa88bf1f4e1bf9521bc47c3c0</title>
<path fill="none" stroke="black" d="M225.08,-215.7C224.29,-207.98 224.06,-198.71 224.4,-190.11"/>
<polygon fill="black" stroke="black" points="227.9,-190.32 225.1,-180.1 220.92,-189.84 227.9,-190.32"/>
<g id="a_edge26&#45;headlabel"><a xlink:href="dir_000022_000012.html" target="_top" xlink:title="1">
<text text-anchor="middle" x="230.48" y="-191.61" font-family="Helvetica,sans-Serif" font-size="10.00">1</text>
</a>
</g>
</g>
<!-- dir_3d3615e9a999cab4f3407307569d6ced&#45;&gt;dir_ebb19deee3cd40f4ac122fef25c04ca8 -->
<g id="edge25" class="edge">
<title>dir_3d3615e9a999cab4f3407307569d6ced&#45;&gt;dir_ebb19deee3cd40f4ac122fef25c04ca8</title>
<path fill="none" stroke="black" d="M250.79,-215.7C263.33,-206.63 279.86,-195.4 294.99,-185.65"/>
<polygon fill="black" stroke="black" points="297.14,-188.43 303.69,-180.1 293.38,-182.52 297.14,-188.43"/>
<g id="a_edge25&#45;headlabel"><a xlink:href="dir_000022_000014.html" target="_top" xlink:title="1">
<text text-anchor="middle" x="295.63" y="-190.25" font-family="Helvetica,sans-Serif" font-size="10.00">1</text>
</a>
</g>
</g>
<!-- dir_e4cd57caa88bf1f4e1bf9521bc47c3c0&#45;&gt;dir_bfcf7e25e8a41bb3b30f8e11e2280479 -->
<g id="edge16" class="edge">
<title>dir_e4cd57caa88bf1f4e1bf9521bc47c3c0&#45;&gt;dir_bfcf7e25e8a41bb3b30f8e11e2280479</title>
<path fill="none" stroke="black" d="M203.75,-162C201.29,-162 198.84,-162 196.38,-162"/>
<polygon fill="black" stroke="black" points="196.28,-158.5 186.28,-162 196.28,-165.5 196.28,-158.5"/>
<g id="a_edge16&#45;headlabel"><a xlink:href="dir_000012_000031.html" target="_top" xlink:title="1">
<text text-anchor="middle" x="199.88" y="-153.16" font-family="Helvetica,sans-Serif" font-size="10.00">1</text>
</a>
</g>
</g>
<!-- dir_e4cd57caa88bf1f4e1bf9521bc47c3c0&#45;&gt;dir_3d3615e9a999cab4f3407307569d6ced -->
<g id="edge15" class="edge">
<title>dir_e4cd57caa88bf1f4e1bf9521bc47c3c0&#45;&gt;dir_3d3615e9a999cab4f3407307569d6ced</title>
<path fill="none" stroke="black" d="M236.9,-180.1C237.7,-187.79 237.94,-197.05 237.6,-205.67"/>
<polygon fill="black" stroke="black" points="234.11,-205.48 236.92,-215.7 241.09,-205.96 234.11,-205.48"/>
<g id="a_edge15&#45;headlabel"><a xlink:href="dir_000012_000022.html" target="_top" xlink:title="23">
<text text-anchor="middle" x="231.52" y="-199.2" font-family="Helvetica,sans-Serif" font-size="10.00">23</text>
</a>
</g>
</g>
<!-- dir_e4cd57caa88bf1f4e1bf9521bc47c3c0&#45;&gt;dir_f2c65bfcbdc19ebacbfc0bbbfb0d01b6 -->
<g id="edge17" class="edge">
<title>dir_e4cd57caa88bf1f4e1bf9521bc47c3c0&#45;&gt;dir_f2c65bfcbdc19ebacbfc0bbbfb0d01b6</title>
<path fill="none" stroke="black" d="M211.49,-143.7C204.18,-135.47 196.13,-125.48 189.45,-116.42"/>
<polygon fill="black" stroke="black" points="192.19,-114.23 183.54,-108.1 186.48,-118.28 192.19,-114.23"/>
<g id="a_edge17&#45;headlabel"><a xlink:href="dir_000012_000017.html" target="_top" xlink:title="1">
<text text-anchor="middle" x="196.59" y="-113.01" font-family="Helvetica,sans-Serif" font-size="10.00">1</text>
</a>
</g>
</g>
<!-- dir_ebb19deee3cd40f4ac122fef25c04ca8&#45;&gt;dir_3d3615e9a999cab4f3407307569d6ced -->
<g id="edge13" class="edge">
<title>dir_ebb19deee3cd40f4ac122fef25c04ca8&#45;&gt;dir_3d3615e9a999cab4f3407307569d6ced</title>
<path fill="none" stroke="black" d="M315.35,-180.2C301.64,-190.12 283.13,-202.64 266.89,-212.99"/>
<polygon fill="black" stroke="black" points="264.74,-210.21 258.14,-218.5 268.47,-216.13 264.74,-210.21"/>
<g id="a_edge13&#45;headlabel"><a xlink:href="dir_000014_000022.html" target="_top" xlink:title="8">
<text text-anchor="middle" x="266.27" y="-203.39" font-family="Helvetica,sans-Serif" font-size="10.00">8</text>
</a>
</g>
</g>
<!-- dir_ebb19deee3cd40f4ac122fef25c04ca8&#45;&gt;dir_f2c65bfcbdc19ebacbfc0bbbfb0d01b6 -->
<g id="edge14" class="edge">
<title>dir_ebb19deee3cd40f4ac122fef25c04ca8&#45;&gt;dir_f2c65bfcbdc19ebacbfc0bbbfb0d01b6</title>
<path fill="none" stroke="black" d="M296.1,-143.88C270.51,-132.61 237.23,-117.96 212.2,-106.94"/>
<polygon fill="black" stroke="black" points="213.6,-103.73 203.04,-102.9 210.78,-110.14 213.6,-103.73"/>
<g id="a_edge14&#45;headlabel"><a xlink:href="dir_000014_000017.html" target="_top" xlink:title="3">
<text text-anchor="middle" x="218.04" y="-100.08" font-family="Helvetica,sans-Serif" font-size="10.00">3</text>
</a>
</g>
</g>
<!-- dir_0c368f76a33d967d5b838b5681461de6&#45;&gt;dir_4012ff34c1bb5bd303e44a1c9cef6c8a -->
<g id="edge10" class="edge">
<title>dir_0c368f76a33d967d5b838b5681461de6&#45;&gt;dir_4012ff34c1bb5bd303e44a1c9cef6c8a</title>
<path fill="none" stroke="black" d="M132.94,-36.29C121.76,-66.19 102.74,-129.21 118,-180 120.92,-189.72 126.26,-199.3 131.91,-207.59"/>
<polygon fill="black" stroke="black" points="129.1,-209.68 137.82,-215.7 134.76,-205.56 129.1,-209.68"/>
<g id="a_edge10&#45;headlabel"><a xlink:href="dir_000001_000003.html" target="_top" xlink:title="4">
<text text-anchor="middle" x="124.69" y="-205.94" font-family="Helvetica,sans-Serif" font-size="10.00">4</text>
</a>
</g>
</g>
<!-- dir_0c368f76a33d967d5b838b5681461de6&#45;&gt;dir_5d2cf0e24161a778738de20190787a10 -->
<g id="edge11" class="edge">
<title>dir_0c368f76a33d967d5b838b5681461de6&#45;&gt;dir_5d2cf0e24161a778738de20190787a10</title>
<path fill="none" stroke="black" d="M107.68,-36.1C93.6,-45.05 78.05,-57.25 68,-72 40.65,-112.16 44.32,-131.87 51,-180 52.18,-188.52 54.39,-197.61 56.75,-205.8"/>
<polygon fill="black" stroke="black" points="53.48,-207.06 59.76,-215.59 60.17,-205.01 53.48,-207.06"/>
<g id="a_edge11&#45;headlabel"><a xlink:href="dir_000001_000004.html" target="_top" xlink:title="4">
<text text-anchor="middle" x="49.71" y="-201.96" font-family="Helvetica,sans-Serif" font-size="10.00">4</text>
</a>
</g>
</g>
<!-- dir_0c368f76a33d967d5b838b5681461de6&#45;&gt;dir_3d3615e9a999cab4f3407307569d6ced -->
<g id="edge9" class="edge">
<title>dir_0c368f76a33d967d5b838b5681461de6&#45;&gt;dir_3d3615e9a999cab4f3407307569d6ced</title>
<path fill="none" stroke="black" d="M179.56,-22.15C243.17,-29.58 366.54,-54.33 421,-136 431.85,-152.27 432.83,-164.42 421,-180 402.59,-204.25 318.05,-220.39 268.16,-227.98"/>
<polygon fill="black" stroke="black" points="267.46,-224.54 258.08,-229.47 268.48,-231.47 267.46,-224.54"/>
<g id="a_edge9&#45;headlabel"><a xlink:href="dir_000001_000022.html" target="_top" xlink:title="33">
<text text-anchor="middle" x="270.6" y="-218.71" font-family="Helvetica,sans-Serif" font-size="10.00">33</text>
</a>
</g>
</g>
<!-- dir_0c368f76a33d967d5b838b5681461de6&#45;&gt;dir_e4cd57caa88bf1f4e1bf9521bc47c3c0 -->
<g id="edge12" class="edge">
<title>dir_0c368f76a33d967d5b838b5681461de6&#45;&gt;dir_e4cd57caa88bf1f4e1bf9521bc47c3c0</title>
<path fill="none" stroke="black" d="M173.02,-36.11C187.08,-45 202.4,-57.13 212,-72 223.89,-90.42 228.47,-115.02 230.18,-133.69"/>
<polygon fill="black" stroke="black" points="226.7,-134.17 230.88,-143.9 233.69,-133.69 226.7,-134.17"/>
<g id="a_edge12&#45;headlabel"><a xlink:href="dir_000001_000012.html" target="_top" xlink:title="43">
<text text-anchor="middle" x="223.62" y="-128.28" font-family="Helvetica,sans-Serif" font-size="10.00">43</text>
</a>
</g>
</g>
<!-- dir_f2c65bfcbdc19ebacbfc0bbbfb0d01b6&#45;&gt;dir_bfcf7e25e8a41bb3b30f8e11e2280479 -->
<g id="edge7" class="edge">
<title>dir_f2c65bfcbdc19ebacbfc0bbbfb0d01b6&#45;&gt;dir_bfcf7e25e8a41bb3b30f8e11e2280479</title>
<path fill="none" stroke="black" d="M177.74,-108.1C176.67,-115.88 174.62,-125.26 172.16,-133.95"/>
<polygon fill="black" stroke="black" points="168.76,-133.11 169.12,-143.7 175.44,-135.19 168.76,-133.11"/>
<g id="a_edge7&#45;headlabel"><a xlink:href="dir_000017_000031.html" target="_top" xlink:title="1">
<text text-anchor="middle" x="167.12" y="-126.33" font-family="Helvetica,sans-Serif" font-size="10.00">1</text>
</a>
</g>
</g>
<!-- dir_f2c65bfcbdc19ebacbfc0bbbfb0d01b6&#45;&gt;dir_3d3615e9a999cab4f3407307569d6ced -->
<g id="edge6" class="edge">
<title>dir_f2c65bfcbdc19ebacbfc0bbbfb0d01b6&#45;&gt;dir_3d3615e9a999cab4f3407307569d6ced</title>
<path fill="none" stroke="black" d="M203.03,-92.22C257.61,-95.31 377.95,-105.49 403,-136 415.41,-151.11 414.61,-164.27 403,-180 372.18,-221.74 308.98,-231.63 268.37,-233.43"/>
<polygon fill="black" stroke="black" points="268.21,-229.93 258.32,-233.73 268.42,-236.93 268.21,-229.93"/>
<g id="a_edge6&#45;headlabel"><a xlink:href="dir_000017_000022.html" target="_top" xlink:title="67">
<text text-anchor="middle" x="271.71" y="-224.49" font-family="Helvetica,sans-Serif" font-size="10.00">67</text>
</a>
</g>
</g>
<!-- dir_f2c65bfcbdc19ebacbfc0bbbfb0d01b6&#45;&gt;dir_e4cd57caa88bf1f4e1bf9521bc47c3c0 -->
<g id="edge8" class="edge">
<title>dir_f2c65bfcbdc19ebacbfc0bbbfb0d01b6&#45;&gt;dir_e4cd57caa88bf1f4e1bf9521bc47c3c0</title>
<path fill="none" stroke="black" d="M195.33,-108.1C202.63,-116.3 210.69,-126.28 217.38,-135.36"/>
<polygon fill="black" stroke="black" points="214.67,-137.58 223.32,-143.7 220.37,-133.52 214.67,-137.58"/>
<g id="a_edge8&#45;headlabel"><a xlink:href="dir_000017_000012.html" target="_top" xlink:title="14">
<text text-anchor="middle" x="210.27" y="-133.8" font-family="Helvetica,sans-Serif" font-size="10.00">14</text>
</a>
</g>
</g>
<!-- dir_f2c65bfcbdc19ebacbfc0bbbfb0d01b6&#45;&gt;dir_0c368f76a33d967d5b838b5681461de6 -->
<g id="edge5" class="edge">
<title>dir_f2c65bfcbdc19ebacbfc0bbbfb0d01b6&#45;&gt;dir_0c368f76a33d967d5b838b5681461de6</title>
<path fill="none" stroke="black" d="M167.1,-71.7C163,-63.73 158.05,-54.1 153.51,-45.26"/>
<polygon fill="black" stroke="black" points="156.48,-43.4 148.8,-36.1 150.26,-46.6 156.48,-43.4"/>
<g id="a_edge5&#45;headlabel"><a xlink:href="dir_000017_000001.html" target="_top" xlink:title="1">
<text text-anchor="middle" x="160.65" y="-42.79" font-family="Helvetica,sans-Serif" font-size="10.00">1</text>
</a>
</g>
</g>
</g>
</svg>
