<?xml version="1.0" encoding="UTF-8" standalone="no"?>
<!DOCTYPE svg PUBLIC "-//W3C//DTD SVG 1.1//EN"
 "http://www.w3.org/Graphics/SVG/1.1/DTD/svg11.dtd">
<!-- Generated by graphviz version 2.43.0 (0)
 -->
<!-- Title: physics Pages: 1 -->
<!--zoomable 484 -->
<svg id="main" version="1.1" xmlns="http://www.w3.org/2000/svg" xmlns:xlink="http://www.w3.org/1999/xlink" xml:space="preserve" onload="init(evt)">
<style type="text/css"><![CDATA[
.edge:hover path { stroke: red; }
.edge:hover polygon { stroke: red; fill: red; }
]]></style>
<script type="text/javascript"><![CDATA[
var edges = document.getElementsByTagName('g');
if (edges && edges.length) {
  for (var i=0;i<edges.length;i++) {
    if (edges[i].id.substr(0,4)=='edge') {
      edges[i].setAttribute('class','edge');
    }
  }
}
]]></script>
        <defs>
                <circle id="rim" cx="0" cy="0" r="7"/>
                <circle id="rim2" cx="0" cy="0" r="3.5"/>
                <g id="zoomPlus">
                        <use xlink:href="#rim" fill="#404040">
                                <set attributeName="fill" to="#808080" begin="zoomplus.mouseover" end="zoomplus.mouseout"/>
                        </use>
                        <path d="M-4,0h8M0,-4v8" fill="none" stroke="white" stroke-width="1.5" pointer-events="none"/>
                </g>
                <g id="zoomMin">
                        <use xlink:href="#rim" fill="#404040">
                                <set attributeName="fill" to="#808080" begin="zoomminus.mouseover" end="zoomminus.mouseout"/>
                        </use>
                        <path d="M-4,0h8" fill="none" stroke="white" stroke-width="1.5" pointer-events="none"/>
                </g>
                <g id="dirArrow">
                        <path fill="none" stroke="white" stroke-width="1.5" d="M0,-3.0v7 M-2.5,-0.5L0,-3.0L2.5,-0.5"/>
                </g>
               <g id="resetDef">
                       <use xlink:href="#rim2" fill="#404040">
                               <set attributeName="fill" to="#808080" begin="reset.mouseover" end="reset.mouseout"/>
                       </use>
               </g>
        </defs>

<script type="text/javascript">
var viewWidth = 394;
var viewHeight = 484;
var sectionId = 'dynsection-0';
</script>
<script xlink:href="svgpan.js"/>
<svg id="graph" class="graph">
<g id="viewport">
<title>physics</title>
<polygon fill="white" stroke="transparent" points="-4,4 -4,-479.7 390,-479.7 390,4 -4,4"/>
<g id="clust1" class="cluster">
<title>clusterdir_d85575251dd712327fe3cf057fa568b4</title>
<g id="a_clust1"><a xlink:href="dir_d85575251dd712327fe3cf057fa568b4.html" target="_top" xlink:title="amr&#45;wind">
<polygon fill="#ddddee" stroke="black" points="8,-8 8,-447 378,-447 378,-8 8,-8"/>
<text text-anchor="middle" x="193" y="-435" font-family="Helvetica,sans-Serif" font-size="10.00">amr&#45;wind</text>
</a>
</g>
</g>
<g id="clust2" class="cluster">
<title>clusterdir_f2c65bfcbdc19ebacbfc0bbbfb0d01b6</title>
<g id="a_clust2"><a xlink:href="dir_f2c65bfcbdc19ebacbfc0bbbfb0d01b6.html" target="_top">
<polygon fill="#eeeeff" stroke="black" points="138,-296 138,-420 370,-420 370,-296 138,-296"/>
</a>
</g>
</g>
<!-- dir_0c368f76a33d967d5b838b5681461de6 -->
<g id="node1" class="node">
<title>dir_0c368f76a33d967d5b838b5681461de6</title>
<g id="a_node1"><a xlink:href="dir_0c368f76a33d967d5b838b5681461de6.html" target="_top" xlink:title="wind_energy">
<polygon fill="white" stroke="red" points="108.5,-412 29.5,-412 29.5,-376 108.5,-376 108.5,-412"/>
<text text-anchor="middle" x="69" y="-391.5" font-family="Helvetica,sans-Serif" font-size="10.00">wind_energy</text>
</a>
</g>
</g>
<!-- dir_3d3615e9a999cab4f3407307569d6ced -->
<g id="node2" class="node">
<title>dir_3d3615e9a999cab4f3407307569d6ced</title>
<g id="a_node2"><a xlink:href="dir_3d3615e9a999cab4f3407307569d6ced.html" target="_top" xlink:title="core">
<polygon fill="white" stroke="red" points="110,-340 56,-340 56,-304 110,-304 110,-340"/>
<text text-anchor="middle" x="83" y="-319.5" font-family="Helvetica,sans-Serif" font-size="10.00">core</text>
</a>
</g>
</g>
<!-- dir_0c368f76a33d967d5b838b5681461de6&#45;&gt;dir_3d3615e9a999cab4f3407307569d6ced -->
<g id="edge16" class="edge">
<title>dir_0c368f76a33d967d5b838b5681461de6&#45;&gt;dir_3d3615e9a999cab4f3407307569d6ced</title>
<path fill="none" stroke="black" d="M72.46,-375.7C74,-367.98 75.86,-358.71 77.58,-350.11"/>
<polygon fill="black" stroke="black" points="81.05,-350.6 79.58,-340.1 74.19,-349.22 81.05,-350.6"/>
<g id="a_edge16&#45;headlabel"><a xlink:href="dir_000001_000022.html" target="_top" xlink:title="33">
<text text-anchor="middle" x="83.13" y="-352.18" font-family="Helvetica,sans-Serif" font-size="10.00">33</text>
</a>
</g>
</g>
<!-- dir_4bb30ed846ea1df1fc4d16874a455d91 -->
<g id="node3" class="node">
<title>dir_4bb30ed846ea1df1fc4d16874a455d91</title>
<g id="a_node3"><a xlink:href="dir_4bb30ed846ea1df1fc4d16874a455d91.html" target="_top" xlink:title="equation_systems">
<polygon fill="white" stroke="red" points="222,-196 116,-196 116,-160 222,-160 222,-196"/>
<text text-anchor="middle" x="169" y="-175.5" font-family="Helvetica,sans-Serif" font-size="10.00">equation_systems</text>
</a>
</g>
</g>
<!-- dir_0c368f76a33d967d5b838b5681461de6&#45;&gt;dir_4bb30ed846ea1df1fc4d16874a455d91 -->
<g id="edge17" class="edge">
<title>dir_0c368f76a33d967d5b838b5681461de6&#45;&gt;dir_4bb30ed846ea1df1fc4d16874a455d91</title>
<path fill="none" stroke="black" d="M51.99,-375.88C45.99,-365.76 40.49,-352.51 38,-340 34.18,-320.82 32.5,-314.77 38,-296 47.49,-263.58 55.23,-256 79,-232 90.65,-220.23 105.34,-209.67 119.51,-201.13"/>
<polygon fill="black" stroke="black" points="121.33,-204.12 128.23,-196.08 117.82,-198.06 121.33,-204.12"/>
<g id="a_edge17&#45;headlabel"><a xlink:href="dir_000001_000002.html" target="_top" xlink:title="7">
<text text-anchor="middle" x="119.64" y="-205.88" font-family="Helvetica,sans-Serif" font-size="10.00">7</text>
</a>
</g>
</g>
<!-- dir_7f7a014517bfe31ea45620a6a947e37b -->
<g id="node4" class="node">
<title>dir_7f7a014517bfe31ea45620a6a947e37b</title>
<g id="a_node4"><a xlink:href="dir_7f7a014517bfe31ea45620a6a947e37b.html" target="_top" xlink:title="fvm">
<polygon fill="none" stroke="black" points="84,-52 30,-52 30,-16 84,-16 84,-52"/>
<text text-anchor="middle" x="57" y="-31.5" font-family="Helvetica,sans-Serif" font-size="10.00">fvm</text>
</a>
</g>
</g>
<!-- dir_0c368f76a33d967d5b838b5681461de6&#45;&gt;dir_7f7a014517bfe31ea45620a6a947e37b -->
<g id="edge18" class="edge">
<title>dir_0c368f76a33d967d5b838b5681461de6&#45;&gt;dir_7f7a014517bfe31ea45620a6a947e37b</title>
<path fill="none" stroke="black" d="M58.23,-375.81C42.99,-349.83 17,-298.52 17,-251 17,-251 17,-251 17,-177 17,-135.48 33.04,-89.61 44.8,-61.54"/>
<polygon fill="black" stroke="black" points="48.15,-62.62 48.91,-52.05 41.73,-59.84 48.15,-62.62"/>
<g id="a_edge18&#45;headlabel"><a xlink:href="dir_000001_000024.html" target="_top" xlink:title="1">
<text text-anchor="middle" x="49.33" y="-64.54" font-family="Helvetica,sans-Serif" font-size="10.00">1</text>
</a>
</g>
</g>
<!-- dir_e4cd57caa88bf1f4e1bf9521bc47c3c0 -->
<g id="node6" class="node">
<title>dir_e4cd57caa88bf1f4e1bf9521bc47c3c0</title>
<g id="a_node6"><a xlink:href="dir_e4cd57caa88bf1f4e1bf9521bc47c3c0.html" target="_top" xlink:title="utilities">
<polygon fill="white" stroke="red" points="170,-268 116,-268 116,-232 170,-232 170,-268"/>
<text text-anchor="middle" x="143" y="-247.5" font-family="Helvetica,sans-Serif" font-size="10.00">utilities</text>
</a>
</g>
</g>
<!-- dir_0c368f76a33d967d5b838b5681461de6&#45;&gt;dir_e4cd57caa88bf1f4e1bf9521bc47c3c0 -->
<g id="edge19" class="edge">
<title>dir_0c368f76a33d967d5b838b5681461de6&#45;&gt;dir_e4cd57caa88bf1f4e1bf9521bc47c3c0</title>
<path fill="none" stroke="black" d="M89.32,-375.94C99.57,-366.35 111.41,-353.58 119,-340 124.93,-329.39 132.28,-300.02 137.27,-277.9"/>
<polygon fill="black" stroke="black" points="140.71,-278.56 139.45,-268.04 133.87,-277.05 140.71,-278.56"/>
<g id="a_edge19&#45;headlabel"><a xlink:href="dir_000001_000012.html" target="_top" xlink:title="43">
<text text-anchor="middle" x="142.7" y="-280.18" font-family="Helvetica,sans-Serif" font-size="10.00">43</text>
</a>
</g>
</g>
<!-- dir_3d3615e9a999cab4f3407307569d6ced&#45;&gt;dir_e4cd57caa88bf1f4e1bf9521bc47c3c0 -->
<g id="edge30" class="edge">
<title>dir_3d3615e9a999cab4f3407307569d6ced&#45;&gt;dir_e4cd57caa88bf1f4e1bf9521bc47c3c0</title>
<path fill="none" stroke="black" d="M91.92,-303.7C98.31,-295.22 107,-284.86 115.45,-275.58"/>
<polygon fill="black" stroke="black" points="118.17,-277.8 122.44,-268.1 113.06,-273.02 118.17,-277.8"/>
<g id="a_edge30&#45;headlabel"><a xlink:href="dir_000022_000012.html" target="_top" xlink:title="1">
<text text-anchor="middle" x="117.79" y="-279.86" font-family="Helvetica,sans-Serif" font-size="10.00">1</text>
</a>
</g>
</g>
<!-- dir_4bb30ed846ea1df1fc4d16874a455d91&#45;&gt;dir_0c368f76a33d967d5b838b5681461de6 -->
<g id="edge29" class="edge">
<title>dir_4bb30ed846ea1df1fc4d16874a455d91&#45;&gt;dir_0c368f76a33d967d5b838b5681461de6</title>
<path fill="none" stroke="black" d="M144.42,-196.08C129.56,-205.34 111.07,-217.79 97,-232 73.23,-256 65.49,-263.58 56,-296 50.5,-314.77 52.18,-320.82 56,-340 57.77,-348.89 61.06,-358.16 64.17,-366.41"/>
<polygon fill="black" stroke="black" points="60.94,-367.76 67.74,-375.88 67.48,-365.29 60.94,-367.76"/>
<g id="a_edge29&#45;headlabel"><a xlink:href="dir_000002_000001.html" target="_top" xlink:title="4">
<text text-anchor="middle" x="57.01" y="-362.9" font-family="Helvetica,sans-Serif" font-size="10.00">4</text>
</a>
</g>
</g>
<!-- dir_4bb30ed846ea1df1fc4d16874a455d91&#45;&gt;dir_3d3615e9a999cab4f3407307569d6ced -->
<g id="edge25" class="edge">
<title>dir_4bb30ed846ea1df1fc4d16874a455d91&#45;&gt;dir_3d3615e9a999cab4f3407307569d6ced</title>
<path fill="none" stroke="black" d="M142.47,-196.05C130.03,-205.3 116,-217.75 107,-232 95.21,-250.66 89.16,-275.05 86.08,-293.58"/>
<polygon fill="black" stroke="black" points="82.58,-293.32 84.6,-303.72 89.51,-294.33 82.58,-293.32"/>
<g id="a_edge25&#45;headlabel"><a xlink:href="dir_000002_000022.html" target="_top" xlink:title="59">
<text text-anchor="middle" x="80.3" y="-286.85" font-family="Helvetica,sans-Serif" font-size="10.00">59</text>
</a>
</g>
</g>
<!-- dir_9ff815a534beac751fa88e427dbab695 -->
<g id="node5" class="node">
<title>dir_9ff815a534beac751fa88e427dbab695</title>
<g id="a_node5"><a xlink:href="dir_9ff815a534beac751fa88e427dbab695.html" target="_top" xlink:title="turbulence">
<polygon fill="white" stroke="red" points="174,-124 106,-124 106,-88 174,-88 174,-124"/>
<text text-anchor="middle" x="140" y="-103.5" font-family="Helvetica,sans-Serif" font-size="10.00">turbulence</text>
</a>
</g>
</g>
<!-- dir_4bb30ed846ea1df1fc4d16874a455d91&#45;&gt;dir_9ff815a534beac751fa88e427dbab695 -->
<g id="edge26" class="edge">
<title>dir_4bb30ed846ea1df1fc4d16874a455d91&#45;&gt;dir_9ff815a534beac751fa88e427dbab695</title>
<path fill="none" stroke="black" d="M155.92,-159.7C151.88,-151.9 147.77,-142.51 144.53,-133.83"/>
<polygon fill="black" stroke="black" points="147.75,-132.43 141.19,-124.1 141.13,-134.7 147.75,-132.43"/>
<g id="a_edge26&#45;headlabel"><a xlink:href="dir_000002_000010.html" target="_top" xlink:title="4">
<text text-anchor="middle" x="151.6" y="-132.4" font-family="Helvetica,sans-Serif" font-size="10.00">4</text>
</a>
</g>
</g>
<!-- dir_4bb30ed846ea1df1fc4d16874a455d91&#45;&gt;dir_e4cd57caa88bf1f4e1bf9521bc47c3c0 -->
<g id="edge27" class="edge">
<title>dir_4bb30ed846ea1df1fc4d16874a455d91&#45;&gt;dir_e4cd57caa88bf1f4e1bf9521bc47c3c0</title>
<path fill="none" stroke="black" d="M168.54,-196.1C166.42,-204.04 163.08,-213.67 159.41,-222.51"/>
<polygon fill="black" stroke="black" points="156.19,-221.14 155.34,-231.7 162.59,-223.97 156.19,-221.14"/>
<g id="a_edge27&#45;headlabel"><a xlink:href="dir_000002_000012.html" target="_top" xlink:title="16">
<text text-anchor="middle" x="155.05" y="-214.2" font-family="Helvetica,sans-Serif" font-size="10.00">16</text>
</a>
</g>
</g>
<!-- dir_e037da66ad872c58acfc861df6f5c212 -->
<g id="node9" class="node">
<title>dir_e037da66ad872c58acfc861df6f5c212</title>
<g id="a_node9"><a xlink:href="dir_e037da66ad872c58acfc861df6f5c212.html" target="_top" xlink:title="multiphase">
<polygon fill="white" stroke="black" points="289.5,-412 218.5,-412 218.5,-376 289.5,-376 289.5,-412"/>
<text text-anchor="middle" x="254" y="-391.5" font-family="Helvetica,sans-Serif" font-size="10.00">multiphase</text>
</a>
</g>
</g>
<!-- dir_4bb30ed846ea1df1fc4d16874a455d91&#45;&gt;dir_e037da66ad872c58acfc861df6f5c212 -->
<g id="edge28" class="edge">
<title>dir_4bb30ed846ea1df1fc4d16874a455d91&#45;&gt;dir_e037da66ad872c58acfc861df6f5c212</title>
<path fill="none" stroke="black" d="M202.85,-196.17C218.13,-205.21 235.52,-217.46 248,-232 268.46,-255.84 271.17,-265.34 278,-296 282.25,-315.09 282.13,-320.88 278,-340 276.04,-349.08 272.39,-358.48 268.51,-366.8"/>
<polygon fill="black" stroke="black" points="265.27,-365.47 263.95,-375.98 271.54,-368.58 265.27,-365.47"/>
<g id="a_edge28&#45;headlabel"><a xlink:href="dir_000002_000019.html" target="_top" xlink:title="2">
<text text-anchor="middle" x="264.33" y="-358.48" font-family="Helvetica,sans-Serif" font-size="10.00">2</text>
</a>
</g>
</g>
<!-- dir_7f7a014517bfe31ea45620a6a947e37b&#45;&gt;dir_3d3615e9a999cab4f3407307569d6ced -->
<g id="edge24" class="edge">
<title>dir_7f7a014517bfe31ea45620a6a947e37b&#45;&gt;dir_3d3615e9a999cab4f3407307569d6ced</title>
<path fill="none" stroke="black" d="M57.19,-52.08C57.47,-70.01 58.19,-99.02 60,-124 64.64,-188.23 68.23,-204.08 76,-268 77.02,-276.42 78.21,-285.59 79.31,-293.89"/>
<polygon fill="black" stroke="black" points="75.84,-294.38 80.64,-303.83 82.78,-293.45 75.84,-294.38"/>
<g id="a_edge24&#45;headlabel"><a xlink:href="dir_000024_000022.html" target="_top" xlink:title="1">
<text text-anchor="middle" x="72.55" y="-288.69" font-family="Helvetica,sans-Serif" font-size="10.00">1</text>
</a>
</g>
</g>
<!-- dir_9ff815a534beac751fa88e427dbab695&#45;&gt;dir_3d3615e9a999cab4f3407307569d6ced -->
<g id="edge1" class="edge">
<title>dir_9ff815a534beac751fa88e427dbab695&#45;&gt;dir_3d3615e9a999cab4f3407307569d6ced</title>
<path fill="none" stroke="black" d="M123.07,-124.17C114.48,-133.89 104.68,-146.74 99,-160 80.21,-203.84 79.3,-260.35 80.83,-293.44"/>
<polygon fill="black" stroke="black" points="77.35,-293.93 81.42,-303.72 84.34,-293.53 77.35,-293.93"/>
<g id="a_edge1&#45;headlabel"><a xlink:href="dir_000010_000022.html" target="_top" xlink:title="6">
<text text-anchor="middle" x="74.31" y="-288" font-family="Helvetica,sans-Serif" font-size="10.00">6</text>
</a>
</g>
</g>
<!-- dir_9ff815a534beac751fa88e427dbab695&#45;&gt;dir_4bb30ed846ea1df1fc4d16874a455d91 -->
<g id="edge2" class="edge">
<title>dir_9ff815a534beac751fa88e427dbab695&#45;&gt;dir_4bb30ed846ea1df1fc4d16874a455d91</title>
<path fill="none" stroke="black" d="M152.98,-124.1C157.06,-131.96 161.22,-141.46 164.49,-150.23"/>
<polygon fill="black" stroke="black" points="161.18,-151.38 167.75,-159.7 167.8,-149.1 161.18,-151.38"/>
<g id="a_edge2&#45;headlabel"><a xlink:href="dir_000010_000002.html" target="_top" xlink:title="11">
<text text-anchor="middle" x="157.33" y="-146.4" font-family="Helvetica,sans-Serif" font-size="10.00">11</text>
</a>
</g>
</g>
<!-- dir_9ff815a534beac751fa88e427dbab695&#45;&gt;dir_7f7a014517bfe31ea45620a6a947e37b -->
<g id="edge3" class="edge">
<title>dir_9ff815a534beac751fa88e427dbab695&#45;&gt;dir_7f7a014517bfe31ea45620a6a947e37b</title>
<path fill="none" stroke="black" d="M119.48,-87.7C109.13,-78.97 96.41,-68.24 85.16,-58.75"/>
<polygon fill="black" stroke="black" points="87.18,-55.88 77.28,-52.1 82.67,-61.23 87.18,-55.88"/>
<g id="a_edge3&#45;headlabel"><a xlink:href="dir_000010_000024.html" target="_top" xlink:title="9">
<text text-anchor="middle" x="91.76" y="-53.52" font-family="Helvetica,sans-Serif" font-size="10.00">9</text>
</a>
</g>
</g>
<!-- dir_9ff815a534beac751fa88e427dbab695&#45;&gt;dir_e4cd57caa88bf1f4e1bf9521bc47c3c0 -->
<g id="edge4" class="edge">
<title>dir_9ff815a534beac751fa88e427dbab695&#45;&gt;dir_e4cd57caa88bf1f4e1bf9521bc47c3c0</title>
<path fill="none" stroke="black" d="M125.67,-124.43C118.55,-134.24 110.69,-147.08 107,-160 102.6,-175.38 102.3,-180.71 107,-196 110.01,-205.78 115.51,-215.38 121.32,-223.67"/>
<polygon fill="black" stroke="black" points="118.59,-225.87 127.39,-231.77 124.19,-221.67 118.59,-225.87"/>
<g id="a_edge4&#45;headlabel"><a xlink:href="dir_000010_000012.html" target="_top" xlink:title="1">
<text text-anchor="middle" x="114.17" y="-222.2" font-family="Helvetica,sans-Serif" font-size="10.00">1</text>
</a>
</g>
</g>
<!-- dir_e4cd57caa88bf1f4e1bf9521bc47c3c0&#45;&gt;dir_3d3615e9a999cab4f3407307569d6ced -->
<g id="edge20" class="edge">
<title>dir_e4cd57caa88bf1f4e1bf9521bc47c3c0&#45;&gt;dir_3d3615e9a999cab4f3407307569d6ced</title>
<path fill="none" stroke="black" d="M134.23,-268.1C127.88,-276.55 119.21,-286.9 110.75,-296.2"/>
<polygon fill="black" stroke="black" points="108.01,-294 103.75,-303.7 113.13,-298.78 108.01,-294"/>
<g id="a_edge20&#45;headlabel"><a xlink:href="dir_000012_000022.html" target="_top" xlink:title="23">
<text text-anchor="middle" x="108.39" y="-286.93" font-family="Helvetica,sans-Serif" font-size="10.00">23</text>
</a>
</g>
</g>
<!-- dir_e4cd57caa88bf1f4e1bf9521bc47c3c0&#45;&gt;dir_4bb30ed846ea1df1fc4d16874a455d91 -->
<g id="edge21" class="edge">
<title>dir_e4cd57caa88bf1f4e1bf9521bc47c3c0&#45;&gt;dir_4bb30ed846ea1df1fc4d16874a455d91</title>
<path fill="none" stroke="black" d="M143.51,-231.7C145.65,-223.73 149.01,-214.1 152.69,-205.26"/>
<polygon fill="black" stroke="black" points="155.89,-206.66 156.75,-196.1 149.5,-203.82 155.89,-206.66"/>
<g id="a_edge21&#45;headlabel"><a xlink:href="dir_000012_000002.html" target="_top" xlink:title="1">
<text text-anchor="middle" x="157.03" y="-208.6" font-family="Helvetica,sans-Serif" font-size="10.00">1</text>
</a>
</g>
</g>
<!-- dir_e4cd57caa88bf1f4e1bf9521bc47c3c0&#45;&gt;dir_7f7a014517bfe31ea45620a6a947e37b -->
<g id="edge22" class="edge">
<title>dir_e4cd57caa88bf1f4e1bf9521bc47c3c0&#45;&gt;dir_7f7a014517bfe31ea45620a6a947e37b</title>
<path fill="none" stroke="black" d="M125.37,-231.78C116.3,-222.04 105.77,-209.19 99,-196 76.61,-152.36 65.44,-95.78 60.46,-62.62"/>
<polygon fill="black" stroke="black" points="63.87,-61.74 59,-52.33 56.94,-62.72 63.87,-61.74"/>
<g id="a_edge22&#45;headlabel"><a xlink:href="dir_000012_000024.html" target="_top" xlink:title="2">
<text text-anchor="middle" x="67.19" y="-62.4" font-family="Helvetica,sans-Serif" font-size="10.00">2</text>
</a>
</g>
</g>
<!-- dir_e4cd57caa88bf1f4e1bf9521bc47c3c0&#45;&gt;dir_e037da66ad872c58acfc861df6f5c212 -->
<g id="edge23" class="edge">
<title>dir_e4cd57caa88bf1f4e1bf9521bc47c3c0&#45;&gt;dir_e037da66ad872c58acfc861df6f5c212</title>
<path fill="none" stroke="black" d="M152.18,-268.22C162.44,-286.78 180.11,-316.77 199,-340 207.24,-350.13 217.27,-360.3 226.5,-368.99"/>
<polygon fill="black" stroke="black" points="224.28,-371.71 234.01,-375.91 229.03,-366.56 224.28,-371.71"/>
<g id="a_edge23&#45;headlabel"><a xlink:href="dir_000012_000019.html" target="_top" xlink:title="1">
<text text-anchor="middle" x="219.72" y="-368.86" font-family="Helvetica,sans-Serif" font-size="10.00">1</text>
</a>
</g>
</g>
<!-- dir_f2c65bfcbdc19ebacbfc0bbbfb0d01b6 -->
<g id="node7" class="node">
<title>dir_f2c65bfcbdc19ebacbfc0bbbfb0d01b6</title>
<text text-anchor="middle" x="335" y="-391.5" font-family="Helvetica,sans-Serif" font-size="10.00">physics</text>
</g>
<!-- dir_f2c65bfcbdc19ebacbfc0bbbfb0d01b6&#45;&gt;dir_0c368f76a33d967d5b838b5681461de6 -->
<g id="edge7" class="edge">
<title>dir_f2c65bfcbdc19ebacbfc0bbbfb0d01b6&#45;&gt;dir_0c368f76a33d967d5b838b5681461de6</title>
<path fill="none" stroke="black" d="M329.27,-412.04C322.77,-429.14 310.33,-453.82 290,-465 261.38,-480.75 173.31,-477.19 143,-465 120.63,-456.01 101.23,-436.66 87.9,-420.44"/>
<polygon fill="black" stroke="black" points="90.44,-418 81.51,-412.31 84.94,-422.33 90.44,-418"/>
<g id="a_edge7&#45;headlabel"><a xlink:href="dir_000017_000001.html" target="_top" xlink:title="1">
<text text-anchor="middle" x="94.9" y="-416.57" font-family="Helvetica,sans-Serif" font-size="10.00">1</text>
</a>
</g>
</g>
<!-- dir_f2c65bfcbdc19ebacbfc0bbbfb0d01b6&#45;&gt;dir_9ff815a534beac751fa88e427dbab695 -->
<g id="edge9" class="edge">
<title>dir_f2c65bfcbdc19ebacbfc0bbbfb0d01b6&#45;&gt;dir_9ff815a534beac751fa88e427dbab695</title>
<path fill="none" stroke="black" d="M331.24,-375.74C321.41,-334.09 291.41,-226.61 231,-160 217.84,-145.49 199.75,-133.84 183.17,-125.2"/>
<polygon fill="black" stroke="black" points="184.66,-122.03 174.15,-120.71 181.54,-128.3 184.66,-122.03"/>
<g id="a_edge9&#45;headlabel"><a xlink:href="dir_000017_000010.html" target="_top" xlink:title="1">
<text text-anchor="middle" x="189.15" y="-118.59" font-family="Helvetica,sans-Serif" font-size="10.00">1</text>
</a>
</g>
</g>
<!-- dir_112afea7a726e6a1d518c2be02377acb -->
<g id="node10" class="node">
<title>dir_112afea7a726e6a1d518c2be02377acb</title>
<g id="a_node10"><a xlink:href="dir_112afea7a726e6a1d518c2be02377acb.html" target="_top" xlink:title="udfs">
<polygon fill="white" stroke="black" points="262,-340 208,-340 208,-304 262,-304 262,-340"/>
<text text-anchor="middle" x="235" y="-319.5" font-family="Helvetica,sans-Serif" font-size="10.00">udfs</text>
</a>
</g>
</g>
<!-- dir_f2c65bfcbdc19ebacbfc0bbbfb0d01b6&#45;&gt;dir_112afea7a726e6a1d518c2be02377acb -->
<g id="edge8" class="edge">
<title>dir_f2c65bfcbdc19ebacbfc0bbbfb0d01b6&#45;&gt;dir_112afea7a726e6a1d518c2be02377acb</title>
<path fill="none" stroke="black" d="M310.54,-375.88C297.7,-366.89 281.8,-355.76 267.91,-346.03"/>
<polygon fill="black" stroke="black" points="269.76,-343.06 259.56,-340.19 265.74,-348.79 269.76,-343.06"/>
<g id="a_edge8&#45;headlabel"><a xlink:href="dir_000017_000020.html" target="_top" xlink:title="2">
<text text-anchor="middle" x="274.33" y="-340.29" font-family="Helvetica,sans-Serif" font-size="10.00">2</text>
</a>
</g>
</g>
<!-- dir_cc5375afd167f33c2803dc418e7dff36 -->
<g id="node8" class="node">
<title>dir_cc5375afd167f33c2803dc418e7dff36</title>
<g id="a_node8"><a xlink:href="dir_cc5375afd167f33c2803dc418e7dff36.html" target="_top" xlink:title="mms">
<polygon fill="white" stroke="black" points="200,-412 146,-412 146,-376 200,-376 200,-412"/>
<text text-anchor="middle" x="173" y="-391.5" font-family="Helvetica,sans-Serif" font-size="10.00">mms</text>
</a>
</g>
</g>
<!-- dir_cc5375afd167f33c2803dc418e7dff36&#45;&gt;dir_3d3615e9a999cab4f3407307569d6ced -->
<g id="edge5" class="edge">
<title>dir_cc5375afd167f33c2803dc418e7dff36&#45;&gt;dir_3d3615e9a999cab4f3407307569d6ced</title>
<path fill="none" stroke="black" d="M150.75,-375.7C139.42,-366.88 125.47,-356.03 113.18,-346.47"/>
<polygon fill="black" stroke="black" points="115.03,-343.48 104.99,-340.1 110.74,-349.01 115.03,-343.48"/>
<g id="a_edge5&#45;headlabel"><a xlink:href="dir_000042_000022.html" target="_top" xlink:title="3">
<text text-anchor="middle" x="119.61" y="-340.95" font-family="Helvetica,sans-Serif" font-size="10.00">3</text>
</a>
</g>
</g>
<!-- dir_cc5375afd167f33c2803dc418e7dff36&#45;&gt;dir_4bb30ed846ea1df1fc4d16874a455d91 -->
<g id="edge6" class="edge">
<title>dir_cc5375afd167f33c2803dc418e7dff36&#45;&gt;dir_4bb30ed846ea1df1fc4d16874a455d91</title>
<path fill="none" stroke="black" d="M175.13,-375.57C178.42,-345.98 183.87,-284.08 179,-232 178.2,-223.48 176.7,-214.28 175.1,-205.99"/>
<polygon fill="black" stroke="black" points="178.5,-205.16 173.06,-196.07 171.64,-206.57 178.5,-205.16"/>
<g id="a_edge6&#45;headlabel"><a xlink:href="dir_000042_000002.html" target="_top" xlink:title="1">
<text text-anchor="middle" x="182.01" y="-205.61" font-family="Helvetica,sans-Serif" font-size="10.00">1</text>
</a>
</g>
</g>
<!-- dir_e037da66ad872c58acfc861df6f5c212&#45;&gt;dir_3d3615e9a999cab4f3407307569d6ced -->
<g id="edge12" class="edge">
<title>dir_e037da66ad872c58acfc861df6f5c212&#45;&gt;dir_3d3615e9a999cab4f3407307569d6ced</title>
<path fill="none" stroke="black" d="M218.15,-378.33C189.2,-366.48 148.64,-349.87 119.51,-337.95"/>
<polygon fill="black" stroke="black" points="120.69,-334.65 110.11,-334.1 118.04,-341.12 120.69,-334.65"/>
<g id="a_edge12&#45;headlabel"><a xlink:href="dir_000019_000022.html" target="_top" xlink:title="25">
<text text-anchor="middle" x="125.09" y="-330.88" font-family="Helvetica,sans-Serif" font-size="10.00">25</text>
</a>
</g>
</g>
<!-- dir_e037da66ad872c58acfc861df6f5c212&#45;&gt;dir_4bb30ed846ea1df1fc4d16874a455d91 -->
<g id="edge13" class="edge">
<title>dir_e037da66ad872c58acfc861df6f5c212&#45;&gt;dir_4bb30ed846ea1df1fc4d16874a455d91</title>
<path fill="none" stroke="black" d="M262.37,-375.67C270.73,-355.87 281.02,-322.74 271,-296 256.75,-257.97 223.94,-224.18 199.35,-202.8"/>
<polygon fill="black" stroke="black" points="201.58,-200.11 191.69,-196.31 197.05,-205.45 201.58,-200.11"/>
<g id="a_edge13&#45;headlabel"><a xlink:href="dir_000019_000002.html" target="_top" xlink:title="2">
<text text-anchor="middle" x="206.16" y="-197.76" font-family="Helvetica,sans-Serif" font-size="10.00">2</text>
</a>
</g>
</g>
<!-- dir_e037da66ad872c58acfc861df6f5c212&#45;&gt;dir_7f7a014517bfe31ea45620a6a947e37b -->
<g id="edge14" class="edge">
<title>dir_e037da66ad872c58acfc861df6f5c212&#45;&gt;dir_7f7a014517bfe31ea45620a6a947e37b</title>
<path fill="none" stroke="black" d="M273.31,-375.82C298.94,-351.01 341,-302.46 341,-251 341,-251 341,-251 341,-177 341,-68.02 171.62,-42.67 94.48,-36.78"/>
<polygon fill="black" stroke="black" points="94.45,-33.27 84.23,-36.07 93.97,-40.26 94.45,-33.27"/>
<g id="a_edge14&#45;headlabel"><a xlink:href="dir_000019_000024.html" target="_top" xlink:title="5">
<text text-anchor="middle" x="98.23" y="-28.19" font-family="Helvetica,sans-Serif" font-size="10.00">5</text>
</a>
</g>
</g>
<!-- dir_e037da66ad872c58acfc861df6f5c212&#45;&gt;dir_e4cd57caa88bf1f4e1bf9521bc47c3c0 -->
<g id="edge15" class="edge">
<title>dir_e037da66ad872c58acfc861df6f5c212&#45;&gt;dir_e4cd57caa88bf1f4e1bf9521bc47c3c0</title>
<path fill="none" stroke="black" d="M218.43,-380.11C199.57,-371.52 177.56,-358.39 164,-340 150.79,-322.08 145.75,-297.08 143.9,-278.14"/>
<polygon fill="black" stroke="black" points="147.38,-277.77 143.15,-268.05 140.4,-278.28 147.38,-277.77"/>
<g id="a_edge15&#45;headlabel"><a xlink:href="dir_000019_000012.html" target="_top" xlink:title="1">
<text text-anchor="middle" x="150.47" y="-278.64" font-family="Helvetica,sans-Serif" font-size="10.00">1</text>
</a>
</g>
</g>
<!-- dir_112afea7a726e6a1d518c2be02377acb&#45;&gt;dir_3d3615e9a999cab4f3407307569d6ced -->
<g id="edge10" class="edge">
<title>dir_112afea7a726e6a1d518c2be02377acb&#45;&gt;dir_3d3615e9a999cab4f3407307569d6ced</title>
<path fill="none" stroke="black" d="M207.66,-322C178.54,-322 149.43,-322 120.31,-322"/>
<polygon fill="black" stroke="black" points="120.02,-318.5 110.02,-322 120.02,-325.5 120.02,-318.5"/>
<g id="a_edge10&#45;headlabel"><a xlink:href="dir_000020_000022.html" target="_top" xlink:title="11">
<text text-anchor="middle" x="123.61" y="-313.16" font-family="Helvetica,sans-Serif" font-size="10.00">11</text>
</a>
</g>
</g>
<!-- dir_112afea7a726e6a1d518c2be02377acb&#45;&gt;dir_4bb30ed846ea1df1fc4d16874a455d91 -->
<g id="edge11" class="edge">
<title>dir_112afea7a726e6a1d518c2be02377acb&#45;&gt;dir_4bb30ed846ea1df1fc4d16874a455d91</title>
<path fill="none" stroke="black" d="M227.19,-303.92C218.97,-285.98 205.64,-256.98 194,-232 189.94,-223.29 185.47,-213.79 181.45,-205.27"/>
<polygon fill="black" stroke="black" points="184.58,-203.71 177.15,-196.17 178.26,-206.7 184.58,-203.71"/>
<g id="a_edge11&#45;headlabel"><a xlink:href="dir_000020_000002.html" target="_top" xlink:title="2">
<text text-anchor="middle" x="188.69" y="-203.25" font-family="Helvetica,sans-Serif" font-size="10.00">2</text>
</a>
</g>
</g>
</g>
</svg>
        <g id="navigator" transform="translate(0 0)" fill="#404254">
                <rect fill="#f2f5e9" fill-opacity="0.5" stroke="#606060" stroke-width=".5" x="0" y="0" width="60" height="60"/>
                <use id="zoomplus" xlink:href="#zoomPlus" x="17" y="9" onmousedown="handleZoom(evt,'in')"/>
                <use id="zoomminus" xlink:href="#zoomMin" x="42" y="9" onmousedown="handleZoom(evt,'out')"/>
                <use id="reset" xlink:href="#resetDef" x="30" y="36" onmousedown="handleReset()"/>
                <g id="arrowUp" xlink:href="#dirArrow" transform="translate(30 24)" onmousedown="handlePan(0,-1)">
                  <use xlink:href="#rim" fill="#404040">
                        <set attributeName="fill" to="#808080" begin="arrowUp.mouseover" end="arrowUp.mouseout"/>
                  </use>
                  <path fill="none" stroke="white" stroke-width="1.5" d="M0,-3.0v7 M-2.5,-0.5L0,-3.0L2.5,-0.5"/>
                </g>
                <g id="arrowRight" xlink:href="#dirArrow" transform="rotate(90) translate(36 -43)" onmousedown="handlePan(1,0)">
                  <use xlink:href="#rim" fill="#404040">
                        <set attributeName="fill" to="#808080" begin="arrowRight.mouseover" end="arrowRight.mouseout"/>
                  </use>
                  <path fill="none" stroke="white" stroke-width="1.5" d="M0,-3.0v7 M-2.5,-0.5L0,-3.0L2.5,-0.5"/>
                </g>
                <g id="arrowDown" xlink:href="#dirArrow" transform="rotate(180) translate(-30 -48)" onmousedown="handlePan(0,1)">
                  <use xlink:href="#rim" fill="#404040">
                        <set attributeName="fill" to="#808080" begin="arrowDown.mouseover" end="arrowDown.mouseout"/>
                  </use>
                  <path fill="none" stroke="white" stroke-width="1.5" d="M0,-3.0v7 M-2.5,-0.5L0,-3.0L2.5,-0.5"/>
                </g>
                <g id="arrowLeft" xlink:href="#dirArrow" transform="rotate(270) translate(-36 17)" onmousedown="handlePan(-1,0)">
                  <use xlink:href="#rim" fill="#404040">
                        <set attributeName="fill" to="#808080" begin="arrowLeft.mouseover" end="arrowLeft.mouseout"/>
                  </use>
                  <path fill="none" stroke="white" stroke-width="1.5" d="M0,-3.0v7 M-2.5,-0.5L0,-3.0L2.5,-0.5"/>
                </g>
        </g>
        <svg viewBox="0 0 15 15" width="100%" height="30px" preserveAspectRatio="xMaxYMin meet">
         <g id="arrow_out" transform="scale(0.3 0.3)">
          <a xlink:href="dir_f2c65bfcbdc19ebacbfc0bbbfb0d01b6_dep_org.svg" target="_base">
           <rect id="button" ry="5" rx="5" y="6" x="6" height="38" width="38"
                fill="#f2f5e9" fill-opacity="0.5" stroke="#606060" stroke-width="1.0"/>
           <path id="arrow"
             d="M 11.500037,31.436501 C 11.940474,20.09759 22.043105,11.32322 32.158766,21.979434 L 37.068811,17.246167 C 37.068811,17.246167 37.088388,32 37.088388,32 L 22.160133,31.978069 C 22.160133,31.978069 26.997745,27.140456 26.997745,27.140456 C 18.528582,18.264221 13.291696,25.230495 11.500037,31.436501 z"
             style="fill:#404040;"/>
          </a>
         </g>
        </svg>
</svg>
