<?xml version="1.0" encoding="UTF-8" standalone="no"?>
<!DOCTYPE svg PUBLIC "-//W3C//DTD SVG 1.1//EN"
 "http://www.w3.org/Graphics/SVG/1.1/DTD/svg11.dtd">
<!-- Generated by graphviz version 2.43.0 (0)
 -->
<!-- Title: field_ops.H Pages: 1 -->
<svg width="2022pt" height="263pt"
 viewBox="0.00 0.00 2022.00 263.00" xmlns="http://www.w3.org/2000/svg" xmlns:xlink="http://www.w3.org/1999/xlink">
<g id="graph0" class="graph" transform="scale(1 1) rotate(0) translate(4 259)">
<title>field_ops.H</title>
<polygon fill="white" stroke="transparent" points="-4,4 -4,-259 2018,-259 2018,4 -4,4"/>
<!-- Node1 -->
<g id="node1" class="node">
<title>Node1</title>
<g id="a_node1"><a xlink:title=" ">
<polygon fill="#bfbfbf" stroke="black" points="868,-235.5 868,-254.5 939,-254.5 939,-235.5 868,-235.5"/>
<text text-anchor="middle" x="903.5" y="-242.5" font-family="Helvetica,sans-Serif" font-size="10.00">field_ops.H</text>
</a>
</g>
</g>
<!-- Node2 -->
<g id="node2" class="node">
<title>Node2</title>
<g id="a_node2"><a xlink:href="_s_d_r_8_h.html" target="_top" xlink:title=" ">
<polygon fill="white" stroke="black" points="111,-112.5 111,-131.5 158,-131.5 158,-112.5 111,-112.5"/>
<text text-anchor="middle" x="134.5" y="-119.5" font-family="Helvetica,sans-Serif" font-size="10.00">SDR.H</text>
</a>
</g>
</g>
<!-- Node1&#45;&gt;Node2 -->
<g id="edge1" class="edge">
<title>Node1&#45;&gt;Node2</title>
<path fill="none" stroke="midnightblue" d="M857.44,-243.95C705.07,-243.39 223.88,-238.5 167.5,-199 144.88,-183.15 137.63,-148.33 135.42,-131.9"/>
<polygon fill="midnightblue" stroke="midnightblue" points="857.82,-247.45 867.83,-243.98 857.84,-240.45 857.82,-247.45"/>
</g>
<!-- Node4 -->
<g id="node4" class="node">
<title>Node4</title>
<g id="a_node4"><a xlink:href="sdr__ops_8_h.html" target="_top" xlink:title=" ">
<polygon fill="white" stroke="black" points="0,-56.5 0,-75.5 65,-75.5 65,-56.5 0,-56.5"/>
<text text-anchor="middle" x="32.5" y="-63.5" font-family="Helvetica,sans-Serif" font-size="10.00">sdr_ops.H</text>
</a>
</g>
</g>
<!-- Node1&#45;&gt;Node4 -->
<g id="edge10" class="edge">
<title>Node1&#45;&gt;Node4</title>
<path fill="none" stroke="midnightblue" d="M857.73,-243.41C702.96,-241.14 205.25,-231.36 141.5,-199 85.85,-170.75 48.15,-100.02 36.4,-75.52"/>
<polygon fill="midnightblue" stroke="midnightblue" points="857.8,-246.91 867.85,-243.56 857.9,-239.92 857.8,-246.91"/>
</g>
<!-- Node8 -->
<g id="node8" class="node">
<title>Node8</title>
<g id="a_node8"><a xlink:href="_t_k_e_8_h.html" target="_top" xlink:title=" ">
<polygon fill="white" stroke="black" points="528.5,-112.5 528.5,-131.5 574.5,-131.5 574.5,-112.5 528.5,-112.5"/>
<text text-anchor="middle" x="551.5" y="-119.5" font-family="Helvetica,sans-Serif" font-size="10.00">TKE.H</text>
</a>
</g>
</g>
<!-- Node1&#45;&gt;Node8 -->
<g id="edge11" class="edge">
<title>Node1&#45;&gt;Node8</title>
<path fill="none" stroke="midnightblue" d="M857.97,-243.91C728.16,-243.18 363.27,-237.67 327.5,-199 318.14,-188.89 318.77,-178.66 327.5,-168 340.26,-152.43 473.63,-133.26 528.31,-125.99"/>
<polygon fill="midnightblue" stroke="midnightblue" points="857.97,-247.41 867.99,-243.96 858,-240.41 857.97,-247.41"/>
</g>
<!-- Node10 -->
<g id="node10" class="node">
<title>Node10</title>
<g id="a_node10"><a xlink:href="tke__ops_8_h.html" target="_top" xlink:title=" ">
<polygon fill="white" stroke="black" points="690,-56.5 690,-75.5 755,-75.5 755,-56.5 690,-56.5"/>
<text text-anchor="middle" x="722.5" y="-63.5" font-family="Helvetica,sans-Serif" font-size="10.00">tke_ops.H</text>
</a>
</g>
</g>
<!-- Node1&#45;&gt;Node10 -->
<g id="edge20" class="edge">
<title>Node1&#45;&gt;Node10</title>
<path fill="none" stroke="midnightblue" d="M857.66,-243.56C785.9,-241.8 652.17,-233.8 622.5,-199 584.45,-154.37 670.54,-97.05 707.09,-75.6"/>
<polygon fill="midnightblue" stroke="midnightblue" points="857.7,-247.07 867.77,-243.78 857.85,-240.07 857.7,-247.07"/>
</g>
<!-- Node13 -->
<g id="node13" class="node">
<title>Node13</title>
<g id="a_node13"><a xlink:href="bluff__body__ops_8cpp.html" target="_top" xlink:title=" ">
<polygon fill="white" stroke="black" points="336.5,-174 336.5,-193 446.5,-193 446.5,-174 336.5,-174"/>
<text text-anchor="middle" x="391.5" y="-181" font-family="Helvetica,sans-Serif" font-size="10.00">bluff_body_ops.cpp</text>
</a>
</g>
</g>
<!-- Node1&#45;&gt;Node13 -->
<g id="edge21" class="edge">
<title>Node1&#45;&gt;Node13</title>
<path fill="none" stroke="midnightblue" d="M857.48,-241.25C776.04,-235.96 601.33,-222.75 455.5,-199 445.72,-197.41 435.19,-195.22 425.56,-193.03"/>
<polygon fill="midnightblue" stroke="midnightblue" points="857.68,-244.77 867.88,-241.91 858.12,-237.78 857.68,-244.77"/>
</g>
<!-- Node14 -->
<g id="node14" class="node">
<title>Node14</title>
<g id="a_node14"><a xlink:href="incflo__advance_8cpp.html" target="_top" xlink:title=" ">
<polygon fill="white" stroke="black" points="464.5,-174 464.5,-193 574.5,-193 574.5,-174 464.5,-174"/>
<text text-anchor="middle" x="519.5" y="-181" font-family="Helvetica,sans-Serif" font-size="10.00">incflo_advance.cpp</text>
</a>
</g>
</g>
<!-- Node1&#45;&gt;Node14 -->
<g id="edge22" class="edge">
<title>Node1&#45;&gt;Node14</title>
<path fill="none" stroke="midnightblue" d="M857.82,-238.42C796.4,-230.71 683.9,-215.82 588.5,-199 578.61,-197.26 567.98,-195.14 558.1,-193.07"/>
<polygon fill="midnightblue" stroke="midnightblue" points="857.59,-241.92 867.95,-239.69 858.46,-234.98 857.59,-241.92"/>
</g>
<!-- Node15 -->
<g id="node15" class="node">
<title>Node15</title>
<g id="a_node15"><a xlink:href="hos__waves__ops_8_h.html" target="_top" xlink:title=" ">
<polygon fill="white" stroke="black" points="176.5,-174 176.5,-193 280.5,-193 280.5,-174 176.5,-174"/>
<text text-anchor="middle" x="228.5" y="-181" font-family="Helvetica,sans-Serif" font-size="10.00">hos_waves_ops.H</text>
</a>
</g>
</g>
<!-- Node1&#45;&gt;Node15 -->
<g id="edge23" class="edge">
<title>Node1&#45;&gt;Node15</title>
<path fill="none" stroke="midnightblue" d="M857.73,-242.84C755.97,-239.79 503.47,-229.52 294.5,-199 284.17,-197.49 273.04,-195.28 262.93,-193.03"/>
<polygon fill="midnightblue" stroke="midnightblue" points="857.86,-246.35 867.95,-243.14 858.06,-239.35 857.86,-246.35"/>
</g>
<!-- Node17 -->
<g id="node17" class="node">
<title>Node17</title>
<g id="a_node17"><a xlink:href="relaxation__zones__ops_8cpp.html" target="_top" xlink:title=" ">
<polygon fill="white" stroke="black" points="631,-174 631,-193 774,-193 774,-174 631,-174"/>
<text text-anchor="middle" x="702.5" y="-181" font-family="Helvetica,sans-Serif" font-size="10.00">relaxation_zones_ops.cpp</text>
</a>
</g>
</g>
<!-- Node1&#45;&gt;Node17 -->
<g id="edge25" class="edge">
<title>Node1&#45;&gt;Node17</title>
<path fill="none" stroke="midnightblue" d="M864.75,-232.53C825.68,-220.96 766.3,-203.38 731.24,-193.01"/>
<polygon fill="midnightblue" stroke="midnightblue" points="864.12,-235.99 874.7,-235.48 866.11,-229.28 864.12,-235.99"/>
</g>
<!-- Node18 -->
<g id="node18" class="node">
<title>Node18</title>
<g id="a_node18"><a xlink:href="_tioga_interface_8cpp.html" target="_top" xlink:title=" ">
<polygon fill="white" stroke="black" points="792,-174 792,-193 899,-193 899,-174 792,-174"/>
<text text-anchor="middle" x="845.5" y="-181" font-family="Helvetica,sans-Serif" font-size="10.00">TiogaInterface.cpp</text>
</a>
</g>
</g>
<!-- Node1&#45;&gt;Node18 -->
<g id="edge26" class="edge">
<title>Node1&#45;&gt;Node18</title>
<path fill="none" stroke="midnightblue" d="M887.9,-228C876.92,-216.74 862.66,-202.1 853.79,-193.01"/>
<polygon fill="midnightblue" stroke="midnightblue" points="885.7,-230.76 895.19,-235.48 890.72,-225.87 885.7,-230.76"/>
</g>
<!-- Node19 -->
<g id="node19" class="node">
<title>Node19</title>
<g id="a_node19"><a xlink:href="_dam_break_8cpp.html" target="_top" xlink:title=" ">
<polygon fill="white" stroke="black" points="917,-174 917,-193 1006,-193 1006,-174 917,-174"/>
<text text-anchor="middle" x="961.5" y="-181" font-family="Helvetica,sans-Serif" font-size="10.00">DamBreak.cpp</text>
</a>
</g>
</g>
<!-- Node1&#45;&gt;Node19 -->
<g id="edge27" class="edge">
<title>Node1&#45;&gt;Node19</title>
<path fill="none" stroke="midnightblue" d="M919.1,-228C930.08,-216.74 944.34,-202.1 953.21,-193.01"/>
<polygon fill="midnightblue" stroke="midnightblue" points="916.28,-225.87 911.81,-235.48 921.3,-230.76 916.28,-225.87"/>
</g>
<!-- Node20 -->
<g id="node20" class="node">
<title>Node20</title>
<g id="a_node20"><a xlink:href="_multi_phase_8cpp.html" target="_top" xlink:title=" ">
<polygon fill="white" stroke="black" points="1024,-174 1024,-193 1115,-193 1115,-174 1024,-174"/>
<text text-anchor="middle" x="1069.5" y="-181" font-family="Helvetica,sans-Serif" font-size="10.00">MultiPhase.cpp</text>
</a>
</g>
</g>
<!-- Node1&#45;&gt;Node20 -->
<g id="edge28" class="edge">
<title>Node1&#45;&gt;Node20</title>
<path fill="none" stroke="midnightblue" d="M936.75,-232.08C969.02,-220.52 1017.18,-203.25 1045.76,-193.01"/>
<polygon fill="midnightblue" stroke="midnightblue" points="935.52,-228.81 927.28,-235.48 937.88,-235.4 935.52,-228.81"/>
</g>
<!-- Node21 -->
<g id="node21" class="node">
<title>Node21</title>
<g id="a_node21"><a xlink:href="_sloshing_tank_8cpp.html" target="_top" xlink:title=" ">
<polygon fill="white" stroke="black" points="1133,-174 1133,-193 1234,-193 1234,-174 1133,-174"/>
<text text-anchor="middle" x="1183.5" y="-181" font-family="Helvetica,sans-Serif" font-size="10.00">SloshingTank.cpp</text>
</a>
</g>
</g>
<!-- Node1&#45;&gt;Node21 -->
<g id="edge29" class="edge">
<title>Node1&#45;&gt;Node21</title>
<path fill="none" stroke="midnightblue" d="M949.17,-235.25C993.94,-226.55 1064.07,-212.57 1124.5,-199 1132.73,-197.15 1141.58,-195.04 1149.86,-193.01"/>
<polygon fill="midnightblue" stroke="midnightblue" points="948.34,-231.85 939.19,-237.19 949.67,-238.72 948.34,-231.85"/>
</g>
<!-- Node22 -->
<g id="node22" class="node">
<title>Node22</title>
<g id="a_node22"><a xlink:href="_zalesak_disk_8cpp.html" target="_top" xlink:title=" ">
<polygon fill="white" stroke="black" points="1252.5,-174 1252.5,-193 1350.5,-193 1350.5,-174 1252.5,-174"/>
<text text-anchor="middle" x="1301.5" y="-181" font-family="Helvetica,sans-Serif" font-size="10.00">ZalesakDisk.cpp</text>
</a>
</g>
</g>
<!-- Node1&#45;&gt;Node22 -->
<g id="edge30" class="edge">
<title>Node1&#45;&gt;Node22</title>
<path fill="none" stroke="midnightblue" d="M949.46,-239.59C1015.05,-232.92 1139.12,-218.89 1243.5,-199 1252.17,-197.35 1261.47,-195.2 1270.04,-193.06"/>
<polygon fill="midnightblue" stroke="midnightblue" points="949.05,-236.11 939.45,-240.6 949.75,-243.08 949.05,-236.11"/>
</g>
<!-- Node23 -->
<g id="node23" class="node">
<title>Node23</title>
<g id="a_node23"><a xlink:href="_zalesak_disk_scalar_vel_8cpp.html" target="_top" xlink:title=" ">
<polygon fill="white" stroke="black" points="1369,-174 1369,-193 1512,-193 1512,-174 1369,-174"/>
<text text-anchor="middle" x="1440.5" y="-181" font-family="Helvetica,sans-Serif" font-size="10.00">ZalesakDiskScalarVel.cpp</text>
</a>
</g>
</g>
<!-- Node1&#45;&gt;Node23 -->
<g id="edge31" class="edge">
<title>Node1&#45;&gt;Node23</title>
<path fill="none" stroke="midnightblue" d="M949.1,-240.7C1031.35,-234.47 1209.88,-219.74 1359.5,-199 1371.53,-197.33 1384.5,-195.17 1396.46,-193.03"/>
<polygon fill="midnightblue" stroke="midnightblue" points="948.8,-237.21 939.09,-241.45 949.32,-244.19 948.8,-237.21"/>
</g>
<!-- Node24 -->
<g id="node24" class="node">
<title>Node24</title>
<g id="a_node24"><a xlink:href="incflo__apply__nodal__projection_8cpp.html" target="_top" xlink:title=" ">
<polygon fill="white" stroke="black" points="1530,-168.5 1530,-198.5 1637,-198.5 1637,-168.5 1530,-168.5"/>
<text text-anchor="start" x="1538" y="-186.5" font-family="Helvetica,sans-Serif" font-size="10.00">incflo_apply_nodal</text>
<text text-anchor="middle" x="1583.5" y="-175.5" font-family="Helvetica,sans-Serif" font-size="10.00">_projection.cpp</text>
</a>
</g>
</g>
<!-- Node1&#45;&gt;Node24 -->
<g id="edge32" class="edge">
<title>Node1&#45;&gt;Node24</title>
<path fill="none" stroke="midnightblue" d="M949.29,-243.12C1052.17,-240.61 1309.18,-231.35 1521.5,-199 1524.23,-198.58 1527.02,-198.11 1529.83,-197.6"/>
<polygon fill="midnightblue" stroke="midnightblue" points="949.16,-239.62 939.25,-243.36 949.33,-246.62 949.16,-239.62"/>
</g>
<!-- Node25 -->
<g id="node25" class="node">
<title>Node25</title>
<g id="a_node25"><a xlink:href="_laminar_model_8cpp.html" target="_top" xlink:title=" ">
<polygon fill="white" stroke="black" points="1655,-174 1655,-193 1762,-193 1762,-174 1655,-174"/>
<text text-anchor="middle" x="1708.5" y="-181" font-family="Helvetica,sans-Serif" font-size="10.00">LaminarModel.cpp</text>
</a>
</g>
</g>
<!-- Node1&#45;&gt;Node25 -->
<g id="edge33" class="edge">
<title>Node1&#45;&gt;Node25</title>
<path fill="none" stroke="midnightblue" d="M949.31,-243.91C1066.17,-243.11 1384.6,-237.28 1646.5,-199 1656.34,-197.56 1666.93,-195.34 1676.52,-193.07"/>
<polygon fill="midnightblue" stroke="midnightblue" points="949.27,-240.41 939.29,-243.97 949.31,-247.41 949.27,-240.41"/>
</g>
<!-- Node26 -->
<g id="node26" class="node">
<title>Node26</title>
<g id="a_node26"><a xlink:href="_turb_model_base_8_h.html" target="_top" xlink:title=" ">
<polygon fill="white" stroke="black" points="1780,-174 1780,-193 1881,-193 1881,-174 1780,-174"/>
<text text-anchor="middle" x="1830.5" y="-181" font-family="Helvetica,sans-Serif" font-size="10.00">TurbModelBase.H</text>
</a>
</g>
</g>
<!-- Node1&#45;&gt;Node26 -->
<g id="edge34" class="edge">
<title>Node1&#45;&gt;Node26</title>
<path fill="none" stroke="midnightblue" d="M949.66,-244.66C1079.73,-245.88 1460.04,-244.92 1771.5,-199 1781,-197.6 1791.2,-195.36 1800.4,-193.06"/>
<polygon fill="midnightblue" stroke="midnightblue" points="949.33,-241.16 939.29,-244.56 949.25,-248.16 949.33,-241.16"/>
</g>
<!-- Node34 -->
<g id="node34" class="node">
<title>Node34</title>
<g id="a_node34"><a xlink:href="_derived_qty_defs_8cpp.html" target="_top" xlink:title=" ">
<polygon fill="white" stroke="black" points="1899,-174 1899,-193 2014,-193 2014,-174 1899,-174"/>
<text text-anchor="middle" x="1956.5" y="-181" font-family="Helvetica,sans-Serif" font-size="10.00">DerivedQtyDefs.cpp</text>
</a>
</g>
</g>
<!-- Node1&#45;&gt;Node34 -->
<g id="edge46" class="edge">
<title>Node1&#45;&gt;Node34</title>
<path fill="none" stroke="midnightblue" d="M949.04,-242.96C1117.44,-238.94 1704.77,-223.45 1890.5,-199 1901.08,-197.61 1912.48,-195.37 1922.78,-193.07"/>
<polygon fill="midnightblue" stroke="midnightblue" points="948.94,-239.46 939.02,-243.19 949.1,-246.46 948.94,-239.46"/>
</g>
<!-- Node3 -->
<g id="node3" class="node">
<title>Node3</title>
<g id="a_node3"><a xlink:href="_s_d_r_8cpp.html" target="_top" xlink:title=" ">
<polygon fill="white" stroke="black" points="35,-0.5 35,-19.5 92,-19.5 92,-0.5 35,-0.5"/>
<text text-anchor="middle" x="63.5" y="-7.5" font-family="Helvetica,sans-Serif" font-size="10.00">SDR.cpp</text>
</a>
</g>
</g>
<!-- Node2&#45;&gt;Node3 -->
<g id="edge2" class="edge">
<title>Node2&#45;&gt;Node3</title>
<path fill="none" stroke="midnightblue" d="M123.5,-103.96C108.11,-80.12 80.74,-37.71 69.05,-19.59"/>
<polygon fill="midnightblue" stroke="midnightblue" points="120.57,-105.86 128.93,-112.37 126.45,-102.07 120.57,-105.86"/>
</g>
<!-- Node2&#45;&gt;Node4 -->
<g id="edge3" class="edge">
<title>Node2&#45;&gt;Node4</title>
<path fill="none" stroke="midnightblue" d="M109.17,-107.59C90.31,-97.61 65.12,-84.27 48.85,-75.65"/>
<polygon fill="midnightblue" stroke="midnightblue" points="107.64,-110.74 118.11,-112.32 110.91,-104.55 107.64,-110.74"/>
</g>
<!-- Node5 -->
<g id="node5" class="node">
<title>Node5</title>
<g id="a_node5"><a xlink:href="_k_omega_s_s_t_8cpp.html" target="_top" xlink:title=" ">
<polygon fill="white" stroke="black" points="389,-0.5 389,-19.5 484,-19.5 484,-0.5 389,-0.5"/>
<text text-anchor="middle" x="436.5" y="-7.5" font-family="Helvetica,sans-Serif" font-size="10.00">KOmegaSST.cpp</text>
</a>
</g>
</g>
<!-- Node2&#45;&gt;Node5 -->
<g id="edge5" class="edge">
<title>Node2&#45;&gt;Node5</title>
<path fill="none" stroke="midnightblue" d="M144.35,-103.27C153.7,-88.21 169.17,-67.29 188.5,-56 205.55,-46.04 321.85,-27.76 388.96,-17.84"/>
<polygon fill="midnightblue" stroke="midnightblue" points="141.18,-101.77 139.12,-112.16 147.21,-105.32 141.18,-101.77"/>
</g>
<!-- Node6 -->
<g id="node6" class="node">
<title>Node6</title>
<g id="a_node6"><a xlink:href="_k_omega_s_s_t_i_8_h.html" target="_top" xlink:title=" ">
<polygon fill="white" stroke="black" points="332,-56.5 332,-75.5 421,-75.5 421,-56.5 332,-56.5"/>
<text text-anchor="middle" x="376.5" y="-63.5" font-family="Helvetica,sans-Serif" font-size="10.00">KOmegaSSTI.H</text>
</a>
</g>
</g>
<!-- Node2&#45;&gt;Node6 -->
<g id="edge6" class="edge">
<title>Node2&#45;&gt;Node6</title>
<path fill="none" stroke="midnightblue" d="M168.18,-113.42C170.32,-112.94 172.44,-112.46 174.5,-112 231.47,-99.24 297.51,-84.55 338.15,-75.52"/>
<polygon fill="midnightblue" stroke="midnightblue" points="167.18,-110.05 158.19,-115.66 168.71,-116.88 167.18,-110.05"/>
</g>
<!-- Node7 -->
<g id="node7" class="node">
<title>Node7</title>
<g id="a_node7"><a xlink:href="_k_omega_s_s_t_i_d_d_e_s_8cpp.html" target="_top" xlink:title=" ">
<polygon fill="white" stroke="black" points="218.5,-0.5 218.5,-19.5 344.5,-19.5 344.5,-0.5 218.5,-0.5"/>
<text text-anchor="middle" x="281.5" y="-7.5" font-family="Helvetica,sans-Serif" font-size="10.00">KOmegaSSTIDDES.cpp</text>
</a>
</g>
</g>
<!-- Node2&#45;&gt;Node7 -->
<g id="edge9" class="edge">
<title>Node2&#45;&gt;Node7</title>
<path fill="none" stroke="midnightblue" d="M136.16,-101.95C138.37,-87.61 143.51,-68.36 155.5,-56 174.02,-36.91 201.18,-25.89 225.54,-19.55"/>
<polygon fill="midnightblue" stroke="midnightblue" points="132.65,-101.84 134.94,-112.18 139.6,-102.67 132.65,-101.84"/>
</g>
<!-- Node4&#45;&gt;Node3 -->
<g id="edge4" class="edge">
<title>Node4&#45;&gt;Node3</title>
<path fill="none" stroke="midnightblue" d="M42.68,-47.27C47.97,-38.05 54.22,-27.17 58.48,-19.75"/>
<polygon fill="midnightblue" stroke="midnightblue" points="39.56,-45.67 37.62,-56.08 45.63,-49.15 39.56,-45.67"/>
</g>
<!-- Node6&#45;&gt;Node5 -->
<g id="edge7" class="edge">
<title>Node6&#45;&gt;Node5</title>
<path fill="none" stroke="midnightblue" d="M393.68,-49.54C404.38,-39.91 417.76,-27.87 426.68,-19.83"/>
<polygon fill="midnightblue" stroke="midnightblue" points="391.23,-47.03 386.14,-56.32 395.91,-52.24 391.23,-47.03"/>
</g>
<!-- Node6&#45;&gt;Node7 -->
<g id="edge8" class="edge">
<title>Node6&#45;&gt;Node7</title>
<path fill="none" stroke="midnightblue" d="M352.18,-51.18C334.7,-41.24 311.67,-28.15 296.73,-19.65"/>
<polygon fill="midnightblue" stroke="midnightblue" points="350.81,-54.43 361.24,-56.32 354.27,-48.34 350.81,-54.43"/>
</g>
<!-- Node8&#45;&gt;Node5 -->
<g id="edge16" class="edge">
<title>Node8&#45;&gt;Node5</title>
<path fill="none" stroke="midnightblue" d="M576.4,-106.83C596.1,-93.79 618.18,-73.83 604.5,-56 589.89,-36.96 528.62,-24.21 484.29,-17.28"/>
<polygon fill="midnightblue" stroke="midnightblue" points="574.28,-104.03 567.66,-112.3 577.99,-109.96 574.28,-104.03"/>
</g>
<!-- Node8&#45;&gt;Node6 -->
<g id="edge17" class="edge">
<title>Node8&#45;&gt;Node6</title>
<path fill="none" stroke="midnightblue" d="M518.6,-110.85C485.56,-100.65 435.22,-85.12 404.17,-75.54"/>
<polygon fill="midnightblue" stroke="midnightblue" points="517.67,-114.23 528.26,-113.83 519.74,-107.54 517.67,-114.23"/>
</g>
<!-- Node8&#45;&gt;Node7 -->
<g id="edge18" class="edge">
<title>Node8&#45;&gt;Node7</title>
<path fill="none" stroke="midnightblue" d="M529.16,-107.25C505.37,-93.02 466.28,-70.84 430.5,-56 392.68,-40.32 347.44,-27.44 316.81,-19.53"/>
<polygon fill="midnightblue" stroke="midnightblue" points="527.42,-110.28 537.79,-112.46 531.04,-104.29 527.42,-110.28"/>
</g>
<!-- Node9 -->
<g id="node9" class="node">
<title>Node9</title>
<g id="a_node9"><a xlink:href="_t_k_e_8cpp.html" target="_top" xlink:title=" ">
<polygon fill="white" stroke="black" points="663.5,-0.5 663.5,-19.5 719.5,-19.5 719.5,-0.5 663.5,-0.5"/>
<text text-anchor="middle" x="691.5" y="-7.5" font-family="Helvetica,sans-Serif" font-size="10.00">TKE.cpp</text>
</a>
</g>
</g>
<!-- Node8&#45;&gt;Node9 -->
<g id="edge12" class="edge">
<title>Node8&#45;&gt;Node9</title>
<path fill="none" stroke="midnightblue" d="M575.03,-106.99C588.68,-98.53 605.99,-87.25 620.5,-76 644.27,-57.57 669.72,-32.92 682.73,-19.91"/>
<polygon fill="midnightblue" stroke="midnightblue" points="572.95,-104.15 566.24,-112.35 576.6,-110.13 572.95,-104.15"/>
</g>
<!-- Node8&#45;&gt;Node10 -->
<g id="edge13" class="edge">
<title>Node8&#45;&gt;Node10</title>
<path fill="none" stroke="midnightblue" d="M584.41,-110.61C616.64,-100.43 665.18,-85.1 695.3,-75.59"/>
<polygon fill="midnightblue" stroke="midnightblue" points="583.04,-107.37 574.56,-113.72 585.15,-114.04 583.04,-107.37"/>
</g>
<!-- Node11 -->
<g id="node11" class="node">
<title>Node11</title>
<g id="a_node11"><a xlink:href="_one_eq_ksgs_8cpp.html" target="_top" xlink:title=" ">
<polygon fill="white" stroke="black" points="1233.5,-56.5 1233.5,-75.5 1325.5,-75.5 1325.5,-56.5 1233.5,-56.5"/>
<text text-anchor="middle" x="1279.5" y="-63.5" font-family="Helvetica,sans-Serif" font-size="10.00">OneEqKsgs.cpp</text>
</a>
</g>
</g>
<!-- Node8&#45;&gt;Node11 -->
<g id="edge15" class="edge">
<title>Node8&#45;&gt;Node11</title>
<path fill="none" stroke="midnightblue" d="M585.11,-118.51C702.99,-109.76 1097.81,-80.48 1233.36,-70.42"/>
<polygon fill="midnightblue" stroke="midnightblue" points="584.61,-115.03 574.9,-119.26 585.13,-122.02 584.61,-115.03"/>
</g>
<!-- Node12 -->
<g id="node12" class="node">
<title>Node12</title>
<g id="a_node12"><a xlink:href="_a_b_l_stats_8cpp.html" target="_top" xlink:title=" ">
<polygon fill="white" stroke="black" points="515.5,-56.5 515.5,-75.5 595.5,-75.5 595.5,-56.5 515.5,-56.5"/>
<text text-anchor="middle" x="555.5" y="-63.5" font-family="Helvetica,sans-Serif" font-size="10.00">ABLStats.cpp</text>
</a>
</g>
</g>
<!-- Node8&#45;&gt;Node12 -->
<g id="edge19" class="edge">
<title>Node8&#45;&gt;Node12</title>
<path fill="none" stroke="midnightblue" d="M552.9,-102.1C553.56,-93.14 554.33,-82.86 554.85,-75.75"/>
<polygon fill="midnightblue" stroke="midnightblue" points="549.41,-101.85 552.16,-112.08 556.39,-102.37 549.41,-101.85"/>
</g>
<!-- Node10&#45;&gt;Node9 -->
<g id="edge14" class="edge">
<title>Node10&#45;&gt;Node9</title>
<path fill="none" stroke="midnightblue" d="M712.32,-47.27C707.03,-38.05 700.78,-27.17 696.52,-19.75"/>
<polygon fill="midnightblue" stroke="midnightblue" points="709.37,-49.15 717.38,-56.08 715.44,-45.67 709.37,-49.15"/>
</g>
<!-- Node16 -->
<g id="node16" class="node">
<title>Node16</title>
<g id="a_node16"><a xlink:href="_h_o_s_waves_8cpp.html" target="_top" xlink:title=" ">
<polygon fill="white" stroke="black" points="183.5,-112.5 183.5,-131.5 273.5,-131.5 273.5,-112.5 183.5,-112.5"/>
<text text-anchor="middle" x="228.5" y="-119.5" font-family="Helvetica,sans-Serif" font-size="10.00">HOSWaves.cpp</text>
</a>
</g>
</g>
<!-- Node15&#45;&gt;Node16 -->
<g id="edge24" class="edge">
<title>Node15&#45;&gt;Node16</title>
<path fill="none" stroke="midnightblue" d="M228.5,-163.82C228.5,-153 228.5,-139.9 228.5,-131.51"/>
<polygon fill="midnightblue" stroke="midnightblue" points="225,-163.98 228.5,-173.98 232,-163.98 225,-163.98"/>
</g>
<!-- Node27 -->
<g id="node27" class="node">
<title>Node27</title>
<g id="a_node27"><a xlink:href="_a_m_d_8_h.html" target="_top" xlink:title=" ">
<polygon fill="white" stroke="black" points="1759.5,-112.5 1759.5,-131.5 1809.5,-131.5 1809.5,-112.5 1759.5,-112.5"/>
<text text-anchor="middle" x="1784.5" y="-119.5" font-family="Helvetica,sans-Serif" font-size="10.00">AMD.H</text>
</a>
</g>
</g>
<!-- Node26&#45;&gt;Node27 -->
<g id="edge35" class="edge">
<title>Node26&#45;&gt;Node27</title>
<path fill="none" stroke="midnightblue" d="M1817.62,-165.84C1808.98,-154.67 1797.97,-140.43 1791.08,-131.51"/>
<polygon fill="midnightblue" stroke="midnightblue" points="1815.02,-168.2 1823.91,-173.98 1820.56,-163.92 1815.02,-168.2"/>
</g>
<!-- Node29 -->
<g id="node29" class="node">
<title>Node29</title>
<g id="a_node29"><a xlink:href="_one_eq_ksgs_8_h.html" target="_top" xlink:title=" ">
<polygon fill="white" stroke="black" points="1447.5,-112.5 1447.5,-131.5 1529.5,-131.5 1529.5,-112.5 1447.5,-112.5"/>
<text text-anchor="middle" x="1488.5" y="-119.5" font-family="Helvetica,sans-Serif" font-size="10.00">OneEqKsgs.H</text>
</a>
</g>
</g>
<!-- Node26&#45;&gt;Node29 -->
<g id="edge37" class="edge">
<title>Node26&#45;&gt;Node29</title>
<path fill="none" stroke="midnightblue" d="M1788.02,-171.61C1782.48,-170.32 1776.86,-169.08 1771.5,-168 1686.16,-150.76 1585.25,-136.06 1529.94,-128.49"/>
<polygon fill="midnightblue" stroke="midnightblue" points="1787.3,-175.04 1797.84,-173.96 1788.93,-168.23 1787.3,-175.04"/>
</g>
<!-- Node30 -->
<g id="node30" class="node">
<title>Node30</title>
<g id="a_node30"><a xlink:href="_smagorinsky_8_h.html" target="_top" xlink:title=" ">
<polygon fill="white" stroke="black" points="1832,-112.5 1832,-131.5 1921,-131.5 1921,-112.5 1832,-112.5"/>
<text text-anchor="middle" x="1876.5" y="-119.5" font-family="Helvetica,sans-Serif" font-size="10.00">Smagorinsky.H</text>
</a>
</g>
</g>
<!-- Node26&#45;&gt;Node30 -->
<g id="edge39" class="edge">
<title>Node26&#45;&gt;Node30</title>
<path fill="none" stroke="midnightblue" d="M1843.38,-165.84C1852.02,-154.67 1863.03,-140.43 1869.92,-131.51"/>
<polygon fill="midnightblue" stroke="midnightblue" points="1840.44,-163.92 1837.09,-173.98 1845.98,-168.2 1840.44,-163.92"/>
</g>
<!-- Node32 -->
<g id="node32" class="node">
<title>Node32</title>
<g id="a_node32"><a xlink:href="_k_omega_s_s_t_8_h.html" target="_top" xlink:title=" ">
<polygon fill="white" stroke="black" points="378.5,-112.5 378.5,-131.5 464.5,-131.5 464.5,-112.5 378.5,-112.5"/>
<text text-anchor="middle" x="421.5" y="-119.5" font-family="Helvetica,sans-Serif" font-size="10.00">KOmegaSST.H</text>
</a>
</g>
</g>
<!-- Node26&#45;&gt;Node32 -->
<g id="edge41" class="edge">
<title>Node26&#45;&gt;Node32</title>
<path fill="none" stroke="midnightblue" d="M1791.06,-171.59C1784.57,-170.14 1777.88,-168.87 1771.5,-168 1219.88,-93.15 1075.17,-165.47 519.5,-132 501.59,-130.92 481.89,-129.21 464.87,-127.57"/>
<polygon fill="midnightblue" stroke="midnightblue" points="1790.49,-175.05 1801.02,-173.95 1792.11,-168.24 1790.49,-175.05"/>
</g>
<!-- Node28 -->
<g id="node28" class="node">
<title>Node28</title>
<g id="a_node28"><a xlink:href="_a_m_d_8cpp.html" target="_top" xlink:title=" ">
<polygon fill="white" stroke="black" points="1752.5,-56.5 1752.5,-75.5 1812.5,-75.5 1812.5,-56.5 1752.5,-56.5"/>
<text text-anchor="middle" x="1782.5" y="-63.5" font-family="Helvetica,sans-Serif" font-size="10.00">AMD.cpp</text>
</a>
</g>
</g>
<!-- Node27&#45;&gt;Node28 -->
<g id="edge36" class="edge">
<title>Node27&#45;&gt;Node28</title>
<path fill="none" stroke="midnightblue" d="M1783.79,-101.8C1783.46,-92.91 1783.08,-82.78 1782.82,-75.75"/>
<polygon fill="midnightblue" stroke="midnightblue" points="1780.3,-102.22 1784.17,-112.08 1787.3,-101.96 1780.3,-102.22"/>
</g>
<!-- Node29&#45;&gt;Node11 -->
<g id="edge38" class="edge">
<title>Node29&#45;&gt;Node11</title>
<path fill="none" stroke="midnightblue" d="M1445.52,-109.89C1406.05,-99.7 1348.4,-84.8 1312.46,-75.52"/>
<polygon fill="midnightblue" stroke="midnightblue" points="1444.83,-113.33 1455.38,-112.44 1446.58,-106.55 1444.83,-113.33"/>
</g>
<!-- Node31 -->
<g id="node31" class="node">
<title>Node31</title>
<g id="a_node31"><a xlink:href="_smagorinsky_8cpp.html" target="_top" xlink:title=" ">
<polygon fill="white" stroke="black" points="1830.5,-56.5 1830.5,-75.5 1928.5,-75.5 1928.5,-56.5 1830.5,-56.5"/>
<text text-anchor="middle" x="1879.5" y="-63.5" font-family="Helvetica,sans-Serif" font-size="10.00">Smagorinsky.cpp</text>
</a>
</g>
</g>
<!-- Node30&#45;&gt;Node31 -->
<g id="edge40" class="edge">
<title>Node30&#45;&gt;Node31</title>
<path fill="none" stroke="midnightblue" d="M1877.57,-101.8C1878.06,-92.91 1878.62,-82.78 1879.01,-75.75"/>
<polygon fill="midnightblue" stroke="midnightblue" points="1874.06,-101.9 1877,-112.08 1881.04,-102.29 1874.06,-101.9"/>
</g>
<!-- Node32&#45;&gt;Node5 -->
<g id="edge42" class="edge">
<title>Node32&#45;&gt;Node5</title>
<path fill="none" stroke="midnightblue" d="M425.65,-102.55C427.35,-94.44 429.22,-84.78 430.5,-76 433.41,-56.04 435.17,-32.41 435.98,-19.87"/>
<polygon fill="midnightblue" stroke="midnightblue" points="422.2,-101.9 423.5,-112.42 429.04,-103.39 422.2,-101.9"/>
</g>
<!-- Node32&#45;&gt;Node6 -->
<g id="edge43" class="edge">
<title>Node32&#45;&gt;Node6</title>
<path fill="none" stroke="midnightblue" d="M407.45,-104.14C399.61,-94.74 390.17,-83.4 383.79,-75.75"/>
<polygon fill="midnightblue" stroke="midnightblue" points="404.98,-106.64 414.07,-112.08 410.36,-102.16 404.98,-106.64"/>
</g>
<!-- Node33 -->
<g id="node33" class="node">
<title>Node33</title>
<g id="a_node33"><a xlink:href="_k_omega_s_s_t_i_d_d_e_s_8_h.html" target="_top" xlink:title=" ">
<polygon fill="white" stroke="black" points="197.5,-56.5 197.5,-75.5 313.5,-75.5 313.5,-56.5 197.5,-56.5"/>
<text text-anchor="middle" x="255.5" y="-63.5" font-family="Helvetica,sans-Serif" font-size="10.00">KOmegaSSTIDDES.H</text>
</a>
</g>
</g>
<!-- Node32&#45;&gt;Node33 -->
<g id="edge44" class="edge">
<title>Node32&#45;&gt;Node33</title>
<path fill="none" stroke="midnightblue" d="M385.55,-109.3C354.27,-99.13 309.68,-84.62 281.68,-75.52"/>
<polygon fill="midnightblue" stroke="midnightblue" points="384.6,-112.68 395.2,-112.44 386.77,-106.02 384.6,-112.68"/>
</g>
<!-- Node33&#45;&gt;Node7 -->
<g id="edge45" class="edge">
<title>Node33&#45;&gt;Node7</title>
<path fill="none" stroke="midnightblue" d="M264.17,-46.98C268.59,-37.82 273.75,-27.09 277.29,-19.75"/>
<polygon fill="midnightblue" stroke="midnightblue" points="260.98,-45.55 259.79,-56.08 267.29,-48.59 260.98,-45.55"/>
</g>
</g>
</svg>
