<?xml version="1.0" encoding="UTF-8" standalone="no"?>
<!DOCTYPE svg PUBLIC "-//W3C//DTD SVG 1.1//EN"
 "http://www.w3.org/Graphics/SVG/1.1/DTD/svg11.dtd">
<!-- Generated by graphviz version 2.43.0 (0)
 -->
<!-- Title: fvm_utils.H Pages: 1 -->
<svg width="1742pt" height="252pt"
 viewBox="0.00 0.00 1741.50 252.00" xmlns="http://www.w3.org/2000/svg" xmlns:xlink="http://www.w3.org/1999/xlink">
<g id="graph0" class="graph" transform="scale(1 1) rotate(0) translate(4 248)">
<title>fvm_utils.H</title>
<polygon fill="white" stroke="transparent" points="-4,4 -4,-248 1737.5,-248 1737.5,4 -4,4"/>
<!-- Node1 -->
<g id="node1" class="node">
<title>Node1</title>
<g id="a_node1"><a xlink:title=" ">
<polygon fill="#bfbfbf" stroke="black" points="371,-224.5 371,-243.5 444,-243.5 444,-224.5 371,-224.5"/>
<text text-anchor="middle" x="407.5" y="-231.5" font-family="Helvetica,sans-Serif" font-size="10.00">fvm_utils.H</text>
</a>
</g>
</g>
<!-- Node2 -->
<g id="node2" class="node">
<title>Node2</title>
<g id="a_node2"><a xlink:href="curvature_8_h.html" target="_top" xlink:title=" ">
<polygon fill="white" stroke="black" points="180.5,-168.5 180.5,-187.5 254.5,-187.5 254.5,-168.5 180.5,-168.5"/>
<text text-anchor="middle" x="217.5" y="-175.5" font-family="Helvetica,sans-Serif" font-size="10.00">curvature.H</text>
</a>
</g>
</g>
<!-- Node1&#45;&gt;Node2 -->
<g id="edge1" class="edge">
<title>Node1&#45;&gt;Node2</title>
<path fill="none" stroke="midnightblue" d="M367.74,-221.7C331.88,-211.51 279.93,-196.74 247.47,-187.52"/>
<polygon fill="midnightblue" stroke="midnightblue" points="366.82,-225.08 377.39,-224.44 368.73,-218.34 366.82,-225.08"/>
</g>
<!-- Node5 -->
<g id="node5" class="node">
<title>Node5</title>
<g id="a_node5"><a xlink:href="divergence_8_h.html" target="_top" xlink:title=" ">
<polygon fill="white" stroke="black" points="273,-168.5 273,-187.5 354,-187.5 354,-168.5 273,-168.5"/>
<text text-anchor="middle" x="313.5" y="-175.5" font-family="Helvetica,sans-Serif" font-size="10.00">divergence.H</text>
</a>
</g>
</g>
<!-- Node1&#45;&gt;Node5 -->
<g id="edge4" class="edge">
<title>Node1&#45;&gt;Node5</title>
<path fill="none" stroke="midnightblue" d="M383.44,-219.18C366.14,-209.24 343.35,-196.15 328.57,-187.65"/>
<polygon fill="midnightblue" stroke="midnightblue" points="381.98,-222.38 392.4,-224.32 385.47,-216.31 381.98,-222.38"/>
</g>
<!-- Node6 -->
<g id="node6" class="node">
<title>Node6</title>
<g id="a_node6"><a xlink:href="filter_8_h.html" target="_top" xlink:title=" ">
<polygon fill="white" stroke="black" points="21,-168.5 21,-187.5 70,-187.5 70,-168.5 21,-168.5"/>
<text text-anchor="middle" x="45.5" y="-175.5" font-family="Helvetica,sans-Serif" font-size="10.00">filter.H</text>
</a>
</g>
</g>
<!-- Node1&#45;&gt;Node6 -->
<g id="edge6" class="edge">
<title>Node1&#45;&gt;Node6</title>
<path fill="none" stroke="midnightblue" d="M360.69,-228.4C296.78,-221.71 178.8,-207.88 79.5,-188 76.51,-187.4 73.39,-186.69 70.3,-185.94"/>
<polygon fill="midnightblue" stroke="midnightblue" points="360.55,-231.91 370.85,-229.45 361.27,-224.94 360.55,-231.91"/>
</g>
<!-- Node8 -->
<g id="node8" class="node">
<title>Node8</title>
<g id="a_node8"><a xlink:href="gradient_8_h.html" target="_top" xlink:title=" ">
<polygon fill="white" stroke="black" points="592.5,-168.5 592.5,-187.5 660.5,-187.5 660.5,-168.5 592.5,-168.5"/>
<text text-anchor="middle" x="626.5" y="-175.5" font-family="Helvetica,sans-Serif" font-size="10.00">gradient.H</text>
</a>
</g>
</g>
<!-- Node1&#45;&gt;Node8 -->
<g id="edge9" class="edge">
<title>Node1&#45;&gt;Node8</title>
<path fill="none" stroke="midnightblue" d="M452.05,-222.02C493.55,-211.78 554.54,-196.74 592.32,-187.43"/>
<polygon fill="midnightblue" stroke="midnightblue" points="451.07,-218.65 442.2,-224.44 452.75,-225.45 451.07,-218.65"/>
</g>
<!-- Node33 -->
<g id="node33" class="node">
<title>Node33</title>
<g id="a_node33"><a xlink:href="laplacian_8_h.html" target="_top" xlink:title=" ">
<polygon fill="white" stroke="black" points="372,-168.5 372,-187.5 443,-187.5 443,-168.5 372,-168.5"/>
<text text-anchor="middle" x="407.5" y="-175.5" font-family="Helvetica,sans-Serif" font-size="10.00">laplacian.H</text>
</a>
</g>
</g>
<!-- Node1&#45;&gt;Node33 -->
<g id="edge37" class="edge">
<title>Node1&#45;&gt;Node33</title>
<path fill="none" stroke="midnightblue" d="M407.5,-213.8C407.5,-204.91 407.5,-194.78 407.5,-187.75"/>
<polygon fill="midnightblue" stroke="midnightblue" points="404,-214.08 407.5,-224.08 411,-214.08 404,-214.08"/>
</g>
<!-- Node34 -->
<g id="node34" class="node">
<title>Node34</title>
<g id="a_node34"><a xlink:href="qcriterion_8_h.html" target="_top" xlink:title=" ">
<polygon fill="white" stroke="black" points="88.5,-168.5 88.5,-187.5 162.5,-187.5 162.5,-168.5 88.5,-168.5"/>
<text text-anchor="middle" x="125.5" y="-175.5" font-family="Helvetica,sans-Serif" font-size="10.00">qcriterion.H</text>
</a>
</g>
</g>
<!-- Node1&#45;&gt;Node34 -->
<g id="edge39" class="edge">
<title>Node1&#45;&gt;Node34</title>
<path fill="none" stroke="midnightblue" d="M360.69,-224.14C313.06,-215.11 237.12,-200.68 171.5,-188 168.62,-187.44 165.65,-186.87 162.65,-186.29"/>
<polygon fill="midnightblue" stroke="midnightblue" points="360.22,-227.62 370.7,-226.04 361.53,-220.74 360.22,-227.62"/>
</g>
<!-- Node35 -->
<g id="node35" class="node">
<title>Node35</title>
<g id="a_node35"><a xlink:href="strainrate_8_h.html" target="_top" xlink:title=" ">
<polygon fill="white" stroke="black" points="678.5,-168.5 678.5,-187.5 752.5,-187.5 752.5,-168.5 678.5,-168.5"/>
<text text-anchor="middle" x="715.5" y="-175.5" font-family="Helvetica,sans-Serif" font-size="10.00">strainrate.H</text>
</a>
</g>
</g>
<!-- Node1&#45;&gt;Node35 -->
<g id="edge41" class="edge">
<title>Node1&#45;&gt;Node35</title>
<path fill="none" stroke="midnightblue" d="M454.44,-225.27C506.92,-216.56 594.39,-201.8 669.5,-188 672.38,-187.47 675.36,-186.91 678.36,-186.34"/>
<polygon fill="midnightblue" stroke="midnightblue" points="453.72,-221.85 444.43,-226.93 454.87,-228.75 453.72,-221.85"/>
</g>
<!-- Node37 -->
<g id="node37" class="node">
<title>Node37</title>
<g id="a_node37"><a xlink:href="vorticity_8_h.html" target="_top" xlink:title=" ">
<polygon fill="white" stroke="black" points="461.5,-168.5 461.5,-187.5 527.5,-187.5 527.5,-168.5 461.5,-168.5"/>
<text text-anchor="middle" x="494.5" y="-175.5" font-family="Helvetica,sans-Serif" font-size="10.00">vorticity.H</text>
</a>
</g>
</g>
<!-- Node1&#45;&gt;Node37 -->
<g id="edge47" class="edge">
<title>Node1&#45;&gt;Node37</title>
<path fill="none" stroke="midnightblue" d="M430.22,-218.9C446.17,-209 467,-196.07 480.56,-187.65"/>
<polygon fill="midnightblue" stroke="midnightblue" points="428.13,-216.08 421.48,-224.32 431.82,-222.02 428.13,-216.08"/>
</g>
<!-- Node38 -->
<g id="node38" class="node">
<title>Node38</title>
<g id="a_node38"><a xlink:href="vorticity__mag_8_h.html" target="_top" xlink:title=" ">
<polygon fill="white" stroke="black" points="771,-168.5 771,-187.5 866,-187.5 866,-168.5 771,-168.5"/>
<text text-anchor="middle" x="818.5" y="-175.5" font-family="Helvetica,sans-Serif" font-size="10.00">vorticity_mag.H</text>
</a>
</g>
</g>
<!-- Node1&#45;&gt;Node38 -->
<g id="edge50" class="edge">
<title>Node1&#45;&gt;Node38</title>
<path fill="none" stroke="midnightblue" d="M454.18,-227.52C521.96,-219.46 651.53,-203.67 761.5,-188 764.57,-187.56 767.74,-187.1 770.93,-186.62"/>
<polygon fill="midnightblue" stroke="midnightblue" points="453.76,-224.05 444.24,-228.7 454.58,-231 453.76,-224.05"/>
</g>
<!-- Node3 -->
<g id="node3" class="node">
<title>Node3</title>
<g id="a_node3"><a xlink:href="fvm_8_h.html" target="_top" xlink:title=" ">
<polygon fill="white" stroke="black" points="151,-112.5 151,-131.5 198,-131.5 198,-112.5 151,-112.5"/>
<text text-anchor="middle" x="174.5" y="-119.5" font-family="Helvetica,sans-Serif" font-size="10.00">fvm.H</text>
</a>
</g>
</g>
<!-- Node2&#45;&gt;Node3 -->
<g id="edge2" class="edge">
<title>Node2&#45;&gt;Node3</title>
<path fill="none" stroke="midnightblue" d="M204.08,-160.14C196.59,-150.74 187.56,-139.4 181.47,-131.75"/>
<polygon fill="midnightblue" stroke="midnightblue" points="201.43,-162.44 210.4,-168.08 206.91,-158.08 201.43,-162.44"/>
</g>
<!-- Node4 -->
<g id="node4" class="node">
<title>Node4</title>
<g id="a_node4"><a xlink:href="_derived_qty_defs_8cpp.html" target="_top" xlink:title=" ">
<polygon fill="white" stroke="black" points="93,-56.5 93,-75.5 208,-75.5 208,-56.5 93,-56.5"/>
<text text-anchor="middle" x="150.5" y="-63.5" font-family="Helvetica,sans-Serif" font-size="10.00">DerivedQtyDefs.cpp</text>
</a>
</g>
</g>
<!-- Node3&#45;&gt;Node4 -->
<g id="edge3" class="edge">
<title>Node3&#45;&gt;Node4</title>
<path fill="none" stroke="midnightblue" d="M166.36,-102.69C162.32,-93.59 157.62,-83.01 154.39,-75.75"/>
<polygon fill="midnightblue" stroke="midnightblue" points="163.28,-104.37 170.54,-112.08 169.67,-101.52 163.28,-104.37"/>
</g>
<!-- Node5&#45;&gt;Node3 -->
<g id="edge5" class="edge">
<title>Node5&#45;&gt;Node3</title>
<path fill="none" stroke="midnightblue" d="M282.02,-164.77C255.91,-154.63 219.46,-140.47 196.42,-131.52"/>
<polygon fill="midnightblue" stroke="midnightblue" points="280.89,-168.08 291.48,-168.44 283.42,-161.56 280.89,-168.08"/>
</g>
<!-- Node6&#45;&gt;Node3 -->
<g id="edge7" class="edge">
<title>Node6&#45;&gt;Node3</title>
<path fill="none" stroke="midnightblue" d="M75.35,-164.5C99.54,-154.38 132.96,-140.39 154.16,-131.52"/>
<polygon fill="midnightblue" stroke="midnightblue" points="73.81,-161.35 65.94,-168.44 76.52,-167.81 73.81,-161.35"/>
</g>
<!-- Node7 -->
<g id="node7" class="node">
<title>Node7</title>
<g id="a_node7"><a xlink:href="_multi_phase_8cpp.html" target="_top" xlink:title=" ">
<polygon fill="white" stroke="black" points="0,-112.5 0,-131.5 91,-131.5 91,-112.5 0,-112.5"/>
<text text-anchor="middle" x="45.5" y="-119.5" font-family="Helvetica,sans-Serif" font-size="10.00">MultiPhase.cpp</text>
</a>
</g>
</g>
<!-- Node6&#45;&gt;Node7 -->
<g id="edge8" class="edge">
<title>Node6&#45;&gt;Node7</title>
<path fill="none" stroke="midnightblue" d="M45.5,-157.8C45.5,-148.91 45.5,-138.78 45.5,-131.75"/>
<polygon fill="midnightblue" stroke="midnightblue" points="42,-158.08 45.5,-168.08 49,-158.08 42,-158.08"/>
</g>
<!-- Node8&#45;&gt;Node3 -->
<g id="edge10" class="edge">
<title>Node8&#45;&gt;Node3</title>
<path fill="none" stroke="midnightblue" d="M582.07,-172.42C477.99,-161.67 225.72,-135.44 207.5,-132 204.47,-131.43 201.3,-130.72 198.19,-129.95"/>
<polygon fill="midnightblue" stroke="midnightblue" points="581.95,-175.93 592.26,-173.47 582.67,-168.96 581.95,-175.93"/>
</g>
<!-- Node9 -->
<g id="node9" class="node">
<title>Node9</title>
<g id="a_node9"><a xlink:href="bluff__body__ops_8cpp.html" target="_top" xlink:title=" ">
<polygon fill="white" stroke="black" points="226.5,-56.5 226.5,-75.5 336.5,-75.5 336.5,-56.5 226.5,-56.5"/>
<text text-anchor="middle" x="281.5" y="-63.5" font-family="Helvetica,sans-Serif" font-size="10.00">bluff_body_ops.cpp</text>
</a>
</g>
</g>
<!-- Node8&#45;&gt;Node9 -->
<g id="edge11" class="edge">
<title>Node8&#45;&gt;Node9</title>
<path fill="none" stroke="midnightblue" d="M585.79,-165.58C557.98,-157.33 520.51,-145.33 488.5,-132 470.52,-124.51 467.68,-119 449.5,-112 407.52,-95.82 357.49,-83.23 323.01,-75.53"/>
<polygon fill="midnightblue" stroke="midnightblue" points="584.99,-168.99 595.57,-168.45 586.96,-162.27 584.99,-168.99"/>
</g>
<!-- Node10 -->
<g id="node10" class="node">
<title>Node10</title>
<g id="a_node10"><a xlink:href="bluff__body__ops_8_h.html" target="_top" xlink:title=" ">
<polygon fill="white" stroke="black" points="497,-112.5 497,-131.5 598,-131.5 598,-112.5 497,-112.5"/>
<text text-anchor="middle" x="547.5" y="-119.5" font-family="Helvetica,sans-Serif" font-size="10.00">bluff_body_ops.H</text>
</a>
</g>
</g>
<!-- Node8&#45;&gt;Node10 -->
<g id="edge12" class="edge">
<title>Node8&#45;&gt;Node10</title>
<path fill="none" stroke="midnightblue" d="M605.47,-162.62C591.03,-152.76 572.36,-139.99 560.16,-131.65"/>
<polygon fill="midnightblue" stroke="midnightblue" points="603.58,-165.57 613.81,-168.32 607.53,-159.79 603.58,-165.57"/>
</g>
<!-- Node17 -->
<g id="node17" class="node">
<title>Node17</title>
<g id="a_node17"><a xlink:href="relaxation__zones__ops_8cpp.html" target="_top" xlink:title=" ">
<polygon fill="white" stroke="black" points="650,-56.5 650,-75.5 793,-75.5 793,-56.5 650,-56.5"/>
<text text-anchor="middle" x="721.5" y="-63.5" font-family="Helvetica,sans-Serif" font-size="10.00">relaxation_zones_ops.cpp</text>
</a>
</g>
</g>
<!-- Node8&#45;&gt;Node17 -->
<g id="edge20" class="edge">
<title>Node8&#45;&gt;Node17</title>
<path fill="none" stroke="midnightblue" d="M628.63,-158.13C631.03,-144.18 636.04,-125.35 646.5,-112 659.89,-94.91 681.72,-82.87 698.39,-75.57"/>
<polygon fill="midnightblue" stroke="midnightblue" points="625.16,-157.7 627.23,-168.09 632.09,-158.68 625.16,-157.7"/>
</g>
<!-- Node18 -->
<g id="node18" class="node">
<title>Node18</title>
<g id="a_node18"><a xlink:href="relaxation__zones__ops_8_h.html" target="_top" xlink:title=" ">
<polygon fill="white" stroke="black" points="655,-112.5 655,-131.5 788,-131.5 788,-112.5 655,-112.5"/>
<text text-anchor="middle" x="721.5" y="-119.5" font-family="Helvetica,sans-Serif" font-size="10.00">relaxation_zones_ops.H</text>
</a>
</g>
</g>
<!-- Node8&#45;&gt;Node18 -->
<g id="edge21" class="edge">
<title>Node8&#45;&gt;Node18</title>
<path fill="none" stroke="midnightblue" d="M650.82,-163.18C668.3,-153.24 691.33,-140.15 706.27,-131.65"/>
<polygon fill="midnightblue" stroke="midnightblue" points="648.73,-160.34 641.76,-168.32 652.19,-166.43 648.73,-160.34"/>
</g>
<!-- Node25 -->
<g id="node25" class="node">
<title>Node25</title>
<g id="a_node25"><a xlink:href="_dam_break_8cpp.html" target="_top" xlink:title=" ">
<polygon fill="white" stroke="black" points="806,-112.5 806,-131.5 895,-131.5 895,-112.5 806,-112.5"/>
<text text-anchor="middle" x="850.5" y="-119.5" font-family="Helvetica,sans-Serif" font-size="10.00">DamBreak.cpp</text>
</a>
</g>
</g>
<!-- Node8&#45;&gt;Node25 -->
<g id="edge29" class="edge">
<title>Node8&#45;&gt;Node25</title>
<path fill="none" stroke="midnightblue" d="M670.26,-166.45C712.55,-156.26 775.81,-141 815.05,-131.55"/>
<polygon fill="midnightblue" stroke="midnightblue" points="669.42,-163.05 660.52,-168.8 671.06,-169.86 669.42,-163.05"/>
</g>
<!-- Node26 -->
<g id="node26" class="node">
<title>Node26</title>
<g id="a_node26"><a xlink:href="_sloshing_tank_8cpp.html" target="_top" xlink:title=" ">
<polygon fill="white" stroke="black" points="913,-112.5 913,-131.5 1014,-131.5 1014,-112.5 913,-112.5"/>
<text text-anchor="middle" x="963.5" y="-119.5" font-family="Helvetica,sans-Serif" font-size="10.00">SloshingTank.cpp</text>
</a>
</g>
</g>
<!-- Node8&#45;&gt;Node26 -->
<g id="edge30" class="edge">
<title>Node8&#45;&gt;Node26</title>
<path fill="none" stroke="midnightblue" d="M670.76,-168C708.88,-161.9 839.56,-141.93 912.92,-130.72"/>
<polygon fill="midnightblue" stroke="midnightblue" points="670.03,-164.57 660.73,-169.66 671.17,-171.48 670.03,-164.57"/>
</g>
<!-- Node27 -->
<g id="node27" class="node">
<title>Node27</title>
<g id="a_node27"><a xlink:href="_zalesak_disk_8cpp.html" target="_top" xlink:title=" ">
<polygon fill="white" stroke="black" points="1032.5,-112.5 1032.5,-131.5 1130.5,-131.5 1130.5,-112.5 1032.5,-112.5"/>
<text text-anchor="middle" x="1081.5" y="-119.5" font-family="Helvetica,sans-Serif" font-size="10.00">ZalesakDisk.cpp</text>
</a>
</g>
</g>
<!-- Node8&#45;&gt;Node27 -->
<g id="edge31" class="edge">
<title>Node8&#45;&gt;Node27</title>
<path fill="none" stroke="midnightblue" d="M670.71,-167.96C827.5,-144.1 869.86,-151.72 1023.5,-132 1026.43,-131.62 1029.44,-131.22 1032.48,-130.79"/>
<polygon fill="midnightblue" stroke="midnightblue" points="670.06,-164.52 660.71,-169.5 671.12,-171.44 670.06,-164.52"/>
</g>
<!-- Node28 -->
<g id="node28" class="node">
<title>Node28</title>
<g id="a_node28"><a xlink:href="_zalesak_disk_scalar_vel_8cpp.html" target="_top" xlink:title=" ">
<polygon fill="white" stroke="black" points="1149,-112.5 1149,-131.5 1292,-131.5 1292,-112.5 1149,-112.5"/>
<text text-anchor="middle" x="1220.5" y="-119.5" font-family="Helvetica,sans-Serif" font-size="10.00">ZalesakDiskScalarVel.cpp</text>
</a>
</g>
</g>
<!-- Node8&#45;&gt;Node28 -->
<g id="edge32" class="edge">
<title>Node8&#45;&gt;Node28</title>
<path fill="none" stroke="midnightblue" d="M670.71,-168.01C878.64,-138.88 934.17,-151.26 1139.5,-132 1142.6,-131.71 1145.76,-131.4 1148.96,-131.08"/>
<polygon fill="midnightblue" stroke="midnightblue" points="670.11,-164.56 660.7,-169.42 671.09,-171.49 670.11,-164.56"/>
</g>
<!-- Node29 -->
<g id="node29" class="node">
<title>Node29</title>
<g id="a_node29"><a xlink:href="_one_eq_ksgs_8cpp.html" target="_top" xlink:title=" ">
<polygon fill="white" stroke="black" points="1423.5,-112.5 1423.5,-131.5 1515.5,-131.5 1515.5,-112.5 1423.5,-112.5"/>
<text text-anchor="middle" x="1469.5" y="-119.5" font-family="Helvetica,sans-Serif" font-size="10.00">OneEqKsgs.cpp</text>
</a>
</g>
</g>
<!-- Node8&#45;&gt;Node29 -->
<g id="edge33" class="edge">
<title>Node8&#45;&gt;Node29</title>
<path fill="none" stroke="midnightblue" d="M670.99,-168.03C1000.11,-126.74 1088.22,-166.47 1414.5,-132 1417.39,-131.7 1420.35,-131.34 1423.34,-130.95"/>
<polygon fill="midnightblue" stroke="midnightblue" points="670.16,-164.6 660.68,-169.34 671.05,-171.55 670.16,-164.6"/>
</g>
<!-- Node30 -->
<g id="node30" class="node">
<title>Node30</title>
<g id="a_node30"><a xlink:href="_k_omega_s_s_t_8cpp.html" target="_top" xlink:title=" ">
<polygon fill="white" stroke="black" points="1310,-112.5 1310,-131.5 1405,-131.5 1405,-112.5 1310,-112.5"/>
<text text-anchor="middle" x="1357.5" y="-119.5" font-family="Helvetica,sans-Serif" font-size="10.00">KOmegaSST.cpp</text>
</a>
</g>
</g>
<!-- Node8&#45;&gt;Node30 -->
<g id="edge34" class="edge">
<title>Node8&#45;&gt;Node30</title>
<path fill="none" stroke="midnightblue" d="M670.72,-168.05C950.16,-131.8 1025.08,-162.01 1301.5,-132 1304.24,-131.7 1307.05,-131.36 1309.89,-130.99"/>
<polygon fill="midnightblue" stroke="midnightblue" points="670.15,-164.59 660.69,-169.36 671.06,-171.53 670.15,-164.59"/>
</g>
<!-- Node31 -->
<g id="node31" class="node">
<title>Node31</title>
<g id="a_node31"><a xlink:href="_k_omega_s_s_t_i_d_d_e_s_8cpp.html" target="_top" xlink:title=" ">
<polygon fill="white" stroke="black" points="314.5,-112.5 314.5,-131.5 440.5,-131.5 440.5,-112.5 314.5,-112.5"/>
<text text-anchor="middle" x="377.5" y="-119.5" font-family="Helvetica,sans-Serif" font-size="10.00">KOmegaSSTIDDES.cpp</text>
</a>
</g>
</g>
<!-- Node8&#45;&gt;Node31 -->
<g id="edge35" class="edge">
<title>Node8&#45;&gt;Node31</title>
<path fill="none" stroke="midnightblue" d="M582.53,-167.46C535.63,-157.29 462.01,-141.33 416.93,-131.55"/>
<polygon fill="midnightblue" stroke="midnightblue" points="581.89,-170.91 592.4,-169.6 583.37,-164.06 581.89,-170.91"/>
</g>
<!-- Node32 -->
<g id="node32" class="node">
<title>Node32</title>
<g id="a_node32"><a xlink:href="_a_b_l_stats_8cpp.html" target="_top" xlink:title=" ">
<polygon fill="white" stroke="black" points="216.5,-112.5 216.5,-131.5 296.5,-131.5 296.5,-112.5 216.5,-112.5"/>
<text text-anchor="middle" x="256.5" y="-119.5" font-family="Helvetica,sans-Serif" font-size="10.00">ABLStats.cpp</text>
</a>
</g>
</g>
<!-- Node8&#45;&gt;Node32 -->
<g id="edge36" class="edge">
<title>Node8&#45;&gt;Node32</title>
<path fill="none" stroke="midnightblue" d="M582.01,-171.37C519.96,-163.38 403.96,-147.94 305.5,-132 302.6,-131.53 299.6,-131.03 296.59,-130.51"/>
<polygon fill="midnightblue" stroke="midnightblue" points="581.86,-174.88 592.22,-172.68 582.75,-167.94 581.86,-174.88"/>
</g>
<!-- Node10&#45;&gt;Node9 -->
<g id="edge13" class="edge">
<title>Node10&#45;&gt;Node9</title>
<path fill="none" stroke="midnightblue" d="M495.33,-110.41C445.06,-100.2 369.97,-84.96 323.45,-75.52"/>
<polygon fill="midnightblue" stroke="midnightblue" points="494.86,-113.88 505.35,-112.44 496.25,-107.02 494.86,-113.88"/>
</g>
<!-- Node11 -->
<g id="node11" class="node">
<title>Node11</title>
<g id="a_node11"><a xlink:href="box__ops_8_h.html" target="_top" xlink:title=" ">
<polygon fill="white" stroke="black" points="563.5,-56.5 563.5,-75.5 631.5,-75.5 631.5,-56.5 563.5,-56.5"/>
<text text-anchor="middle" x="597.5" y="-63.5" font-family="Helvetica,sans-Serif" font-size="10.00">box_ops.H</text>
</a>
</g>
</g>
<!-- Node10&#45;&gt;Node11 -->
<g id="edge14" class="edge">
<title>Node10&#45;&gt;Node11</title>
<path fill="none" stroke="midnightblue" d="M562.58,-104.72C571.39,-95.2 582.17,-83.56 589.4,-75.75"/>
<polygon fill="midnightblue" stroke="midnightblue" points="559.98,-102.37 555.76,-112.08 565.12,-107.12 559.98,-102.37"/>
</g>
<!-- Node13 -->
<g id="node13" class="node">
<title>Node13</title>
<g id="a_node13"><a xlink:href="cylinder__ops_8_h.html" target="_top" xlink:title=" ">
<polygon fill="white" stroke="black" points="355,-56.5 355,-75.5 444,-75.5 444,-56.5 355,-56.5"/>
<text text-anchor="middle" x="399.5" y="-63.5" font-family="Helvetica,sans-Serif" font-size="10.00">cylinder_ops.H</text>
</a>
</g>
</g>
<!-- Node10&#45;&gt;Node13 -->
<g id="edge16" class="edge">
<title>Node10&#45;&gt;Node13</title>
<path fill="none" stroke="midnightblue" d="M514.35,-108.91C486.53,-98.75 447.48,-84.51 422.84,-75.52"/>
<polygon fill="midnightblue" stroke="midnightblue" points="513.46,-112.3 524.05,-112.44 515.85,-105.73 513.46,-112.3"/>
</g>
<!-- Node15 -->
<g id="node15" class="node">
<title>Node15</title>
<g id="a_node15"><a xlink:href="sphere__ops_8_h.html" target="_top" xlink:title=" ">
<polygon fill="white" stroke="black" points="462,-56.5 462,-75.5 545,-75.5 545,-56.5 462,-56.5"/>
<text text-anchor="middle" x="503.5" y="-63.5" font-family="Helvetica,sans-Serif" font-size="10.00">sphere_ops.H</text>
</a>
</g>
</g>
<!-- Node10&#45;&gt;Node15 -->
<g id="edge18" class="edge">
<title>Node10&#45;&gt;Node15</title>
<path fill="none" stroke="midnightblue" d="M533.77,-104.14C526.1,-94.74 516.87,-83.4 510.63,-75.75"/>
<polygon fill="midnightblue" stroke="midnightblue" points="531.2,-106.54 540.23,-112.08 536.63,-102.12 531.2,-106.54"/>
</g>
<!-- Node12 -->
<g id="node12" class="node">
<title>Node12</title>
<g id="a_node12"><a xlink:href="_box_8cpp.html" target="_top" xlink:title=" ">
<polygon fill="white" stroke="black" points="569.5,-0.5 569.5,-19.5 625.5,-19.5 625.5,-0.5 569.5,-0.5"/>
<text text-anchor="middle" x="597.5" y="-7.5" font-family="Helvetica,sans-Serif" font-size="10.00">Box.cpp</text>
</a>
</g>
</g>
<!-- Node11&#45;&gt;Node12 -->
<g id="edge15" class="edge">
<title>Node11&#45;&gt;Node12</title>
<path fill="none" stroke="midnightblue" d="M597.5,-45.8C597.5,-36.91 597.5,-26.78 597.5,-19.75"/>
<polygon fill="midnightblue" stroke="midnightblue" points="594,-46.08 597.5,-56.08 601,-46.08 594,-46.08"/>
</g>
<!-- Node14 -->
<g id="node14" class="node">
<title>Node14</title>
<g id="a_node14"><a xlink:href="_cylinder_8cpp.html" target="_top" xlink:title=" ">
<polygon fill="white" stroke="black" points="361,-0.5 361,-19.5 438,-19.5 438,-0.5 361,-0.5"/>
<text text-anchor="middle" x="399.5" y="-7.5" font-family="Helvetica,sans-Serif" font-size="10.00">Cylinder.cpp</text>
</a>
</g>
</g>
<!-- Node13&#45;&gt;Node14 -->
<g id="edge17" class="edge">
<title>Node13&#45;&gt;Node14</title>
<path fill="none" stroke="midnightblue" d="M399.5,-45.8C399.5,-36.91 399.5,-26.78 399.5,-19.75"/>
<polygon fill="midnightblue" stroke="midnightblue" points="396,-46.08 399.5,-56.08 403,-46.08 396,-46.08"/>
</g>
<!-- Node16 -->
<g id="node16" class="node">
<title>Node16</title>
<g id="a_node16"><a xlink:href="_sphere_8cpp.html" target="_top" xlink:title=" ">
<polygon fill="white" stroke="black" points="468,-0.5 468,-19.5 539,-19.5 539,-0.5 468,-0.5"/>
<text text-anchor="middle" x="503.5" y="-7.5" font-family="Helvetica,sans-Serif" font-size="10.00">Sphere.cpp</text>
</a>
</g>
</g>
<!-- Node15&#45;&gt;Node16 -->
<g id="edge19" class="edge">
<title>Node15&#45;&gt;Node16</title>
<path fill="none" stroke="midnightblue" d="M503.5,-45.8C503.5,-36.91 503.5,-26.78 503.5,-19.75"/>
<polygon fill="midnightblue" stroke="midnightblue" points="500,-46.08 503.5,-56.08 507,-46.08 500,-46.08"/>
</g>
<!-- Node18&#45;&gt;Node17 -->
<g id="edge26" class="edge">
<title>Node18&#45;&gt;Node17</title>
<path fill="none" stroke="midnightblue" d="M721.5,-101.8C721.5,-92.91 721.5,-82.78 721.5,-75.75"/>
<polygon fill="midnightblue" stroke="midnightblue" points="718,-102.08 721.5,-112.08 725,-102.08 718,-102.08"/>
</g>
<!-- Node19 -->
<g id="node19" class="node">
<title>Node19</title>
<g id="a_node19"><a xlink:href="hos__waves__ops_8_h.html" target="_top" xlink:title=" ">
<polygon fill="white" stroke="black" points="1079.5,-56.5 1079.5,-75.5 1183.5,-75.5 1183.5,-56.5 1079.5,-56.5"/>
<text text-anchor="middle" x="1131.5" y="-63.5" font-family="Helvetica,sans-Serif" font-size="10.00">hos_waves_ops.H</text>
</a>
</g>
</g>
<!-- Node18&#45;&gt;Node19 -->
<g id="edge22" class="edge">
<title>Node18&#45;&gt;Node19</title>
<path fill="none" stroke="midnightblue" d="M798.29,-111.51C869.04,-102.66 976.91,-88.94 1070.5,-76 1073.36,-75.6 1076.3,-75.19 1079.27,-74.77"/>
<polygon fill="midnightblue" stroke="midnightblue" points="797.62,-108.06 788.13,-112.78 798.49,-115.01 797.62,-108.06"/>
</g>
<!-- Node21 -->
<g id="node21" class="node">
<title>Node21</title>
<g id="a_node21"><a xlink:href="linear__waves__ops_8_h.html" target="_top" xlink:title=" ">
<polygon fill="white" stroke="black" points="811.5,-56.5 811.5,-75.5 925.5,-75.5 925.5,-56.5 811.5,-56.5"/>
<text text-anchor="middle" x="868.5" y="-63.5" font-family="Helvetica,sans-Serif" font-size="10.00">linear_waves_ops.H</text>
</a>
</g>
</g>
<!-- Node18&#45;&gt;Node21 -->
<g id="edge24" class="edge">
<title>Node18&#45;&gt;Node21</title>
<path fill="none" stroke="midnightblue" d="M754.42,-108.91C782.06,-98.75 820.84,-84.51 845.32,-75.52"/>
<polygon fill="midnightblue" stroke="midnightblue" points="752.97,-105.71 744.79,-112.44 755.39,-112.28 752.97,-105.71"/>
</g>
<!-- Node23 -->
<g id="node23" class="node">
<title>Node23</title>
<g id="a_node23"><a xlink:href="stokes__waves__ops_8_h.html" target="_top" xlink:title=" ">
<polygon fill="white" stroke="black" points="943.5,-56.5 943.5,-75.5 1061.5,-75.5 1061.5,-56.5 943.5,-56.5"/>
<text text-anchor="middle" x="1002.5" y="-63.5" font-family="Helvetica,sans-Serif" font-size="10.00">stokes_waves_ops.H</text>
</a>
</g>
</g>
<!-- Node18&#45;&gt;Node23 -->
<g id="edge27" class="edge">
<title>Node18&#45;&gt;Node23</title>
<path fill="none" stroke="midnightblue" d="M775.95,-110.54C829.05,-100.33 908.84,-85 958.18,-75.52"/>
<polygon fill="midnightblue" stroke="midnightblue" points="775.19,-107.12 766.03,-112.44 776.51,-113.99 775.19,-107.12"/>
</g>
<!-- Node20 -->
<g id="node20" class="node">
<title>Node20</title>
<g id="a_node20"><a xlink:href="_h_o_s_waves_8cpp.html" target="_top" xlink:title=" ">
<polygon fill="white" stroke="black" points="1086.5,-0.5 1086.5,-19.5 1176.5,-19.5 1176.5,-0.5 1086.5,-0.5"/>
<text text-anchor="middle" x="1131.5" y="-7.5" font-family="Helvetica,sans-Serif" font-size="10.00">HOSWaves.cpp</text>
</a>
</g>
</g>
<!-- Node19&#45;&gt;Node20 -->
<g id="edge23" class="edge">
<title>Node19&#45;&gt;Node20</title>
<path fill="none" stroke="midnightblue" d="M1131.5,-45.8C1131.5,-36.91 1131.5,-26.78 1131.5,-19.75"/>
<polygon fill="midnightblue" stroke="midnightblue" points="1128,-46.08 1131.5,-56.08 1135,-46.08 1128,-46.08"/>
</g>
<!-- Node22 -->
<g id="node22" class="node">
<title>Node22</title>
<g id="a_node22"><a xlink:href="_linear_waves_8cpp.html" target="_top" xlink:title=" ">
<polygon fill="white" stroke="black" points="819,-0.5 819,-19.5 918,-19.5 918,-0.5 819,-0.5"/>
<text text-anchor="middle" x="868.5" y="-7.5" font-family="Helvetica,sans-Serif" font-size="10.00">LinearWaves.cpp</text>
</a>
</g>
</g>
<!-- Node21&#45;&gt;Node22 -->
<g id="edge25" class="edge">
<title>Node21&#45;&gt;Node22</title>
<path fill="none" stroke="midnightblue" d="M868.5,-45.8C868.5,-36.91 868.5,-26.78 868.5,-19.75"/>
<polygon fill="midnightblue" stroke="midnightblue" points="865,-46.08 868.5,-56.08 872,-46.08 865,-46.08"/>
</g>
<!-- Node24 -->
<g id="node24" class="node">
<title>Node24</title>
<g id="a_node24"><a xlink:href="_stokes_waves_8cpp.html" target="_top" xlink:title=" ">
<polygon fill="white" stroke="black" points="952,-0.5 952,-19.5 1053,-19.5 1053,-0.5 952,-0.5"/>
<text text-anchor="middle" x="1002.5" y="-7.5" font-family="Helvetica,sans-Serif" font-size="10.00">StokesWaves.cpp</text>
</a>
</g>
</g>
<!-- Node23&#45;&gt;Node24 -->
<g id="edge28" class="edge">
<title>Node23&#45;&gt;Node24</title>
<path fill="none" stroke="midnightblue" d="M1002.5,-45.8C1002.5,-36.91 1002.5,-26.78 1002.5,-19.75"/>
<polygon fill="midnightblue" stroke="midnightblue" points="999,-46.08 1002.5,-56.08 1006,-46.08 999,-46.08"/>
</g>
<!-- Node33&#45;&gt;Node3 -->
<g id="edge38" class="edge">
<title>Node33&#45;&gt;Node3</title>
<path fill="none" stroke="midnightblue" d="M362.11,-167.4C321.49,-158.66 260.35,-145.15 207.5,-132 204.5,-131.25 201.36,-130.44 198.26,-129.62"/>
<polygon fill="midnightblue" stroke="midnightblue" points="361.47,-170.84 371.98,-169.51 362.94,-163.99 361.47,-170.84"/>
</g>
<!-- Node34&#45;&gt;Node3 -->
<g id="edge40" class="edge">
<title>Node34&#45;&gt;Node3</title>
<path fill="none" stroke="midnightblue" d="M140.53,-160.43C149.12,-150.97 159.54,-139.48 166.56,-131.75"/>
<polygon fill="midnightblue" stroke="midnightblue" points="137.72,-158.33 133.59,-168.08 142.9,-163.03 137.72,-158.33"/>
</g>
<!-- Node35&#45;&gt;Node3 -->
<g id="edge42" class="edge">
<title>Node35&#45;&gt;Node3</title>
<path fill="none" stroke="midnightblue" d="M668.23,-167.99C463.62,-141.04 407.15,-166.68 207.5,-132 204.46,-131.47 201.29,-130.79 198.17,-130.03"/>
<polygon fill="midnightblue" stroke="midnightblue" points="668.03,-171.5 678.4,-169.36 668.96,-164.56 668.03,-171.5"/>
</g>
<!-- Node35&#45;&gt;Node29 -->
<g id="edge43" class="edge">
<title>Node35&#45;&gt;Node29</title>
<path fill="none" stroke="midnightblue" d="M762.58,-168.2C1052.28,-133.31 1129.23,-163.13 1414.5,-132 1417.39,-131.69 1420.35,-131.32 1423.34,-130.92"/>
<polygon fill="midnightblue" stroke="midnightblue" points="762.13,-164.73 752.63,-169.41 762.98,-171.68 762.13,-164.73"/>
</g>
<!-- Node35&#45;&gt;Node30 -->
<g id="edge45" class="edge">
<title>Node35&#45;&gt;Node30</title>
<path fill="none" stroke="midnightblue" d="M762.7,-168.17C1002.36,-137.95 1066.2,-158.71 1301.5,-132 1304.24,-131.69 1307.05,-131.34 1309.88,-130.96"/>
<polygon fill="midnightblue" stroke="midnightblue" points="762.11,-164.72 752.63,-169.45 763,-171.66 762.11,-164.72"/>
</g>
<!-- Node35&#45;&gt;Node31 -->
<g id="edge46" class="edge">
<title>Node35&#45;&gt;Node31</title>
<path fill="none" stroke="midnightblue" d="M668.45,-167.87C582.57,-152.98 494.37,-139.77 437.45,-131.52"/>
<polygon fill="midnightblue" stroke="midnightblue" points="667.91,-171.33 678.37,-169.6 669.12,-164.44 667.91,-171.33"/>
</g>
<!-- Node36 -->
<g id="node36" class="node">
<title>Node36</title>
<g id="a_node36"><a xlink:href="_smagorinsky_8cpp.html" target="_top" xlink:title=" ">
<polygon fill="white" stroke="black" points="1533.5,-112.5 1533.5,-131.5 1631.5,-131.5 1631.5,-112.5 1533.5,-112.5"/>
<text text-anchor="middle" x="1582.5" y="-119.5" font-family="Helvetica,sans-Serif" font-size="10.00">Smagorinsky.cpp</text>
</a>
</g>
</g>
<!-- Node35&#45;&gt;Node36 -->
<g id="edge44" class="edge">
<title>Node35&#45;&gt;Node36</title>
<path fill="none" stroke="midnightblue" d="M762.7,-168.2C1100.92,-128.75 1190.46,-165.71 1524.5,-132 1527.44,-131.7 1530.46,-131.36 1533.5,-130.98"/>
<polygon fill="midnightblue" stroke="midnightblue" points="762.15,-164.74 752.62,-169.39 762.97,-171.69 762.15,-164.74"/>
</g>
<!-- Node37&#45;&gt;Node3 -->
<g id="edge48" class="edge">
<title>Node37&#45;&gt;Node3</title>
<path fill="none" stroke="midnightblue" d="M451.02,-167.84C342.43,-148.79 312.07,-153.86 207.5,-132 204.48,-131.37 201.32,-130.62 198.21,-129.83"/>
<polygon fill="midnightblue" stroke="midnightblue" points="450.61,-171.32 461.07,-169.63 451.84,-164.43 450.61,-171.32"/>
</g>
<!-- Node37&#45;&gt;Node31 -->
<g id="edge49" class="edge">
<title>Node37&#45;&gt;Node31</title>
<path fill="none" stroke="midnightblue" d="M466.84,-164.23C444.95,-154.13 415,-140.31 395.95,-131.52"/>
<polygon fill="midnightblue" stroke="midnightblue" points="465.41,-167.43 475.96,-168.44 468.35,-161.08 465.41,-167.43"/>
</g>
<!-- Node38&#45;&gt;Node3 -->
<g id="edge51" class="edge">
<title>Node38&#45;&gt;Node3</title>
<path fill="none" stroke="midnightblue" d="M760.98,-168.07C514.51,-141.56 447.66,-172.13 207.5,-132 204.45,-131.49 201.28,-130.82 198.17,-130.07"/>
<polygon fill="midnightblue" stroke="midnightblue" points="760.64,-171.55 770.96,-169.16 761.4,-164.59 760.64,-171.55"/>
</g>
<!-- Node39 -->
<g id="node39" class="node">
<title>Node39</title>
<g id="a_node39"><a xlink:href="_enstrophy_8cpp.html" target="_top" xlink:title=" ">
<polygon fill="white" stroke="black" points="1649.5,-112.5 1649.5,-131.5 1733.5,-131.5 1733.5,-112.5 1649.5,-112.5"/>
<text text-anchor="middle" x="1691.5" y="-119.5" font-family="Helvetica,sans-Serif" font-size="10.00">Enstrophy.cpp</text>
</a>
</g>
</g>
<!-- Node38&#45;&gt;Node39 -->
<g id="edge52" class="edge">
<title>Node38&#45;&gt;Node39</title>
<path fill="none" stroke="midnightblue" d="M876.48,-176.21C1011.09,-173.87 1355.1,-164.87 1640.5,-132 1643.36,-131.67 1646.3,-131.28 1649.26,-130.86"/>
<polygon fill="midnightblue" stroke="midnightblue" points="876.33,-172.72 866.39,-176.38 876.45,-179.71 876.33,-172.72"/>
</g>
</g>
</svg>
