<?xml version="1.0" encoding="UTF-8" standalone="no"?>
<!DOCTYPE svg PUBLIC "-//W3C//DTD SVG 1.1//EN"
 "http://www.w3.org/Graphics/SVG/1.1/DTD/svg11.dtd">
<!-- Generated by graphviz version 2.43.0 (0)
 -->
<!-- Title: gradient.H Pages: 1 -->
<svg width="1720pt" height="196pt"
 viewBox="0.00 0.00 1719.50 196.00" xmlns="http://www.w3.org/2000/svg" xmlns:xlink="http://www.w3.org/1999/xlink">
<g id="graph0" class="graph" transform="scale(1 1) rotate(0) translate(4 192)">
<title>gradient.H</title>
<polygon fill="white" stroke="transparent" points="-4,4 -4,-192 1715.5,-192 1715.5,4 -4,4"/>
<!-- Node1 -->
<g id="node1" class="node">
<title>Node1</title>
<g id="a_node1"><a xlink:title=" ">
<polygon fill="#bfbfbf" stroke="black" points="882.5,-168.5 882.5,-187.5 950.5,-187.5 950.5,-168.5 882.5,-168.5"/>
<text text-anchor="middle" x="916.5" y="-175.5" font-family="Helvetica,sans-Serif" font-size="10.00">gradient.H</text>
</a>
</g>
</g>
<!-- Node2 -->
<g id="node2" class="node">
<title>Node2</title>
<g id="a_node2"><a xlink:href="fvm_8_h.html" target="_top" xlink:title=" ">
<polygon fill="white" stroke="black" points="136,-112.5 136,-131.5 183,-131.5 183,-112.5 136,-112.5"/>
<text text-anchor="middle" x="159.5" y="-119.5" font-family="Helvetica,sans-Serif" font-size="10.00">fvm.H</text>
</a>
</g>
</g>
<!-- Node1&#45;&gt;Node2 -->
<g id="edge1" class="edge">
<title>Node1&#45;&gt;Node2</title>
<path fill="none" stroke="midnightblue" d="M872.26,-174.84C763.78,-169.39 475.95,-153.9 236.5,-132 218.54,-130.36 198.28,-127.97 183.06,-126.06"/>
<polygon fill="midnightblue" stroke="midnightblue" points="872.33,-178.35 882.49,-175.36 872.68,-171.36 872.33,-178.35"/>
</g>
<!-- Node4 -->
<g id="node4" class="node">
<title>Node4</title>
<g id="a_node4"><a xlink:href="bluff__body__ops_8cpp.html" target="_top" xlink:title=" ">
<polygon fill="white" stroke="black" points="133.5,-56.5 133.5,-75.5 243.5,-75.5 243.5,-56.5 133.5,-56.5"/>
<text text-anchor="middle" x="188.5" y="-63.5" font-family="Helvetica,sans-Serif" font-size="10.00">bluff_body_ops.cpp</text>
</a>
</g>
</g>
<!-- Node1&#45;&gt;Node4 -->
<g id="edge3" class="edge">
<title>Node1&#45;&gt;Node4</title>
<path fill="none" stroke="midnightblue" d="M872.13,-175.57C754.12,-171.44 434.59,-158.12 332.5,-132 282.54,-119.22 228.3,-90.16 203.01,-75.62"/>
<polygon fill="midnightblue" stroke="midnightblue" points="872.14,-179.07 882.25,-175.92 872.38,-172.07 872.14,-179.07"/>
</g>
<!-- Node5 -->
<g id="node5" class="node">
<title>Node5</title>
<g id="a_node5"><a xlink:href="bluff__body__ops_8_h.html" target="_top" xlink:title=" ">
<polygon fill="white" stroke="black" points="342,-112.5 342,-131.5 443,-131.5 443,-112.5 342,-112.5"/>
<text text-anchor="middle" x="392.5" y="-119.5" font-family="Helvetica,sans-Serif" font-size="10.00">bluff_body_ops.H</text>
</a>
</g>
</g>
<!-- Node1&#45;&gt;Node5 -->
<g id="edge4" class="edge">
<title>Node1&#45;&gt;Node5</title>
<path fill="none" stroke="midnightblue" d="M872.07,-172.42C775.15,-162.43 545.26,-138.74 443.03,-128.21"/>
<polygon fill="midnightblue" stroke="midnightblue" points="871.81,-175.91 882.12,-173.46 872.53,-168.95 871.81,-175.91"/>
</g>
<!-- Node12 -->
<g id="node12" class="node">
<title>Node12</title>
<g id="a_node12"><a xlink:href="relaxation__zones__ops_8cpp.html" target="_top" xlink:title=" ">
<polygon fill="white" stroke="black" points="556,-56.5 556,-75.5 699,-75.5 699,-56.5 556,-56.5"/>
<text text-anchor="middle" x="627.5" y="-63.5" font-family="Helvetica,sans-Serif" font-size="10.00">relaxation_zones_ops.cpp</text>
</a>
</g>
</g>
<!-- Node1&#45;&gt;Node12 -->
<g id="edge12" class="edge">
<title>Node1&#45;&gt;Node12</title>
<path fill="none" stroke="midnightblue" d="M872.37,-177.55C793.53,-177.47 633.45,-172.24 598.5,-132 583.75,-115.02 604.63,-89.33 617.93,-75.9"/>
<polygon fill="midnightblue" stroke="midnightblue" points="872.48,-181.05 882.48,-177.53 872.47,-174.05 872.48,-181.05"/>
</g>
<!-- Node13 -->
<g id="node13" class="node">
<title>Node13</title>
<g id="a_node13"><a xlink:href="relaxation__zones__ops_8_h.html" target="_top" xlink:title=" ">
<polygon fill="white" stroke="black" points="608,-112.5 608,-131.5 741,-131.5 741,-112.5 608,-112.5"/>
<text text-anchor="middle" x="674.5" y="-119.5" font-family="Helvetica,sans-Serif" font-size="10.00">relaxation_zones_ops.H</text>
</a>
</g>
</g>
<!-- Node1&#45;&gt;Node13 -->
<g id="edge13" class="edge">
<title>Node1&#45;&gt;Node13</title>
<path fill="none" stroke="midnightblue" d="M872.44,-167.17C826.83,-156.99 756.28,-141.25 712.88,-131.56"/>
<polygon fill="midnightblue" stroke="midnightblue" points="871.82,-170.62 882.34,-169.38 873.34,-163.78 871.82,-170.62"/>
</g>
<!-- Node20 -->
<g id="node20" class="node">
<title>Node20</title>
<g id="a_node20"><a xlink:href="_dam_break_8cpp.html" target="_top" xlink:title=" ">
<polygon fill="white" stroke="black" points="759,-112.5 759,-131.5 848,-131.5 848,-112.5 759,-112.5"/>
<text text-anchor="middle" x="803.5" y="-119.5" font-family="Helvetica,sans-Serif" font-size="10.00">DamBreak.cpp</text>
</a>
</g>
</g>
<!-- Node1&#45;&gt;Node20 -->
<g id="edge21" class="edge">
<title>Node1&#45;&gt;Node20</title>
<path fill="none" stroke="midnightblue" d="M889.5,-164.1C868.39,-154.01 839.64,-140.27 821.32,-131.52"/>
<polygon fill="midnightblue" stroke="midnightblue" points="888.06,-167.29 898.59,-168.44 891.08,-160.97 888.06,-167.29"/>
</g>
<!-- Node21 -->
<g id="node21" class="node">
<title>Node21</title>
<g id="a_node21"><a xlink:href="_sloshing_tank_8cpp.html" target="_top" xlink:title=" ">
<polygon fill="white" stroke="black" points="866,-112.5 866,-131.5 967,-131.5 967,-112.5 866,-112.5"/>
<text text-anchor="middle" x="916.5" y="-119.5" font-family="Helvetica,sans-Serif" font-size="10.00">SloshingTank.cpp</text>
</a>
</g>
</g>
<!-- Node1&#45;&gt;Node21 -->
<g id="edge22" class="edge">
<title>Node1&#45;&gt;Node21</title>
<path fill="none" stroke="midnightblue" d="M916.5,-157.8C916.5,-148.91 916.5,-138.78 916.5,-131.75"/>
<polygon fill="midnightblue" stroke="midnightblue" points="913,-158.08 916.5,-168.08 920,-158.08 913,-158.08"/>
</g>
<!-- Node22 -->
<g id="node22" class="node">
<title>Node22</title>
<g id="a_node22"><a xlink:href="_zalesak_disk_8cpp.html" target="_top" xlink:title=" ">
<polygon fill="white" stroke="black" points="985.5,-112.5 985.5,-131.5 1083.5,-131.5 1083.5,-112.5 985.5,-112.5"/>
<text text-anchor="middle" x="1034.5" y="-119.5" font-family="Helvetica,sans-Serif" font-size="10.00">ZalesakDisk.cpp</text>
</a>
</g>
</g>
<!-- Node1&#45;&gt;Node22 -->
<g id="edge23" class="edge">
<title>Node1&#45;&gt;Node22</title>
<path fill="none" stroke="midnightblue" d="M944.4,-164.23C966.47,-154.13 996.68,-140.31 1015.89,-131.52"/>
<polygon fill="midnightblue" stroke="midnightblue" points="942.83,-161.1 935.2,-168.44 945.75,-167.46 942.83,-161.1"/>
</g>
<!-- Node23 -->
<g id="node23" class="node">
<title>Node23</title>
<g id="a_node23"><a xlink:href="_zalesak_disk_scalar_vel_8cpp.html" target="_top" xlink:title=" ">
<polygon fill="white" stroke="black" points="1102,-112.5 1102,-131.5 1245,-131.5 1245,-112.5 1102,-112.5"/>
<text text-anchor="middle" x="1173.5" y="-119.5" font-family="Helvetica,sans-Serif" font-size="10.00">ZalesakDiskScalarVel.cpp</text>
</a>
</g>
</g>
<!-- Node1&#45;&gt;Node23 -->
<g id="edge24" class="edge">
<title>Node1&#45;&gt;Node23</title>
<path fill="none" stroke="midnightblue" d="M960.49,-167.76C1008.85,-157.6 1085.89,-141.41 1132.87,-131.54"/>
<polygon fill="midnightblue" stroke="midnightblue" points="959.69,-164.35 950.63,-169.83 961.13,-171.2 959.69,-164.35"/>
</g>
<!-- Node24 -->
<g id="node24" class="node">
<title>Node24</title>
<g id="a_node24"><a xlink:href="_one_eq_ksgs_8cpp.html" target="_top" xlink:title=" ">
<polygon fill="white" stroke="black" points="1263.5,-112.5 1263.5,-131.5 1355.5,-131.5 1355.5,-112.5 1263.5,-112.5"/>
<text text-anchor="middle" x="1309.5" y="-119.5" font-family="Helvetica,sans-Serif" font-size="10.00">OneEqKsgs.cpp</text>
</a>
</g>
</g>
<!-- Node1&#45;&gt;Node24 -->
<g id="edge25" class="edge">
<title>Node1&#45;&gt;Node24</title>
<path fill="none" stroke="midnightblue" d="M960.84,-171.52C1025.5,-163.44 1149.39,-147.59 1254.5,-132 1257.37,-131.57 1260.32,-131.12 1263.3,-130.66"/>
<polygon fill="midnightblue" stroke="midnightblue" points="960.1,-168.09 950.61,-172.8 960.97,-175.04 960.1,-168.09"/>
</g>
<!-- Node25 -->
<g id="node25" class="node">
<title>Node25</title>
<g id="a_node25"><a xlink:href="_k_omega_s_s_t_8cpp.html" target="_top" xlink:title=" ">
<polygon fill="white" stroke="black" points="1374,-112.5 1374,-131.5 1469,-131.5 1469,-112.5 1374,-112.5"/>
<text text-anchor="middle" x="1421.5" y="-119.5" font-family="Helvetica,sans-Serif" font-size="10.00">KOmegaSST.cpp</text>
</a>
</g>
</g>
<!-- Node1&#45;&gt;Node25 -->
<g id="edge26" class="edge">
<title>Node1&#45;&gt;Node25</title>
<path fill="none" stroke="midnightblue" d="M960.84,-173.38C1041.38,-166.63 1217.04,-151.03 1364.5,-132 1367.58,-131.6 1370.75,-131.17 1373.94,-130.71"/>
<polygon fill="midnightblue" stroke="midnightblue" points="960.25,-169.92 950.58,-174.24 960.83,-176.9 960.25,-169.92"/>
</g>
<!-- Node26 -->
<g id="node26" class="node">
<title>Node26</title>
<g id="a_node26"><a xlink:href="_k_omega_s_s_t_i_d_d_e_s_8cpp.html" target="_top" xlink:title=" ">
<polygon fill="white" stroke="black" points="1487.5,-112.5 1487.5,-131.5 1613.5,-131.5 1613.5,-112.5 1487.5,-112.5"/>
<text text-anchor="middle" x="1550.5" y="-119.5" font-family="Helvetica,sans-Serif" font-size="10.00">KOmegaSSTIDDES.cpp</text>
</a>
</g>
</g>
<!-- Node1&#45;&gt;Node26 -->
<g id="edge27" class="edge">
<title>Node1&#45;&gt;Node26</title>
<path fill="none" stroke="midnightblue" d="M960.87,-174.12C1055.9,-167.81 1286.1,-151.72 1478.5,-132 1481.38,-131.7 1484.33,-131.39 1487.3,-131.06"/>
<polygon fill="midnightblue" stroke="midnightblue" points="960.51,-170.64 950.76,-174.79 960.97,-177.62 960.51,-170.64"/>
</g>
<!-- Node27 -->
<g id="node27" class="node">
<title>Node27</title>
<g id="a_node27"><a xlink:href="_a_b_l_stats_8cpp.html" target="_top" xlink:title=" ">
<polygon fill="white" stroke="black" points="1631.5,-112.5 1631.5,-131.5 1711.5,-131.5 1711.5,-112.5 1631.5,-112.5"/>
<text text-anchor="middle" x="1671.5" y="-119.5" font-family="Helvetica,sans-Serif" font-size="10.00">ABLStats.cpp</text>
</a>
</g>
</g>
<!-- Node1&#45;&gt;Node27 -->
<g id="edge28" class="edge">
<title>Node1&#45;&gt;Node27</title>
<path fill="none" stroke="midnightblue" d="M961,-175.99C1072.68,-173.04 1373.63,-162.68 1622.5,-132 1625.42,-131.64 1628.43,-131.22 1631.45,-130.75"/>
<polygon fill="midnightblue" stroke="midnightblue" points="960.7,-172.49 950.8,-176.25 960.88,-179.49 960.7,-172.49"/>
</g>
<!-- Node3 -->
<g id="node3" class="node">
<title>Node3</title>
<g id="a_node3"><a xlink:href="_derived_qty_defs_8cpp.html" target="_top" xlink:title=" ">
<polygon fill="white" stroke="black" points="0,-56.5 0,-75.5 115,-75.5 115,-56.5 0,-56.5"/>
<text text-anchor="middle" x="57.5" y="-63.5" font-family="Helvetica,sans-Serif" font-size="10.00">DerivedQtyDefs.cpp</text>
</a>
</g>
</g>
<!-- Node2&#45;&gt;Node3 -->
<g id="edge2" class="edge">
<title>Node2&#45;&gt;Node3</title>
<path fill="none" stroke="midnightblue" d="M134.17,-107.59C115.31,-97.61 90.12,-84.27 73.85,-75.65"/>
<polygon fill="midnightblue" stroke="midnightblue" points="132.64,-110.74 143.11,-112.32 135.91,-104.55 132.64,-110.74"/>
</g>
<!-- Node5&#45;&gt;Node4 -->
<g id="edge5" class="edge">
<title>Node5&#45;&gt;Node4</title>
<path fill="none" stroke="midnightblue" d="M350.3,-109.83C311.78,-99.63 255.68,-84.78 220.67,-75.52"/>
<polygon fill="midnightblue" stroke="midnightblue" points="349.61,-113.27 360.18,-112.44 351.4,-106.5 349.61,-113.27"/>
</g>
<!-- Node6 -->
<g id="node6" class="node">
<title>Node6</title>
<g id="a_node6"><a xlink:href="box__ops_8_h.html" target="_top" xlink:title=" ">
<polygon fill="white" stroke="black" points="261.5,-56.5 261.5,-75.5 329.5,-75.5 329.5,-56.5 261.5,-56.5"/>
<text text-anchor="middle" x="295.5" y="-63.5" font-family="Helvetica,sans-Serif" font-size="10.00">box_ops.H</text>
</a>
</g>
</g>
<!-- Node5&#45;&gt;Node6 -->
<g id="edge6" class="edge">
<title>Node5&#45;&gt;Node6</title>
<path fill="none" stroke="midnightblue" d="M368.16,-107.45C350.26,-97.48 326.45,-84.23 311.05,-75.65"/>
<polygon fill="midnightblue" stroke="midnightblue" points="366.48,-110.52 376.92,-112.32 369.88,-104.4 366.48,-110.52"/>
</g>
<!-- Node8 -->
<g id="node8" class="node">
<title>Node8</title>
<g id="a_node8"><a xlink:href="cylinder__ops_8_h.html" target="_top" xlink:title=" ">
<polygon fill="white" stroke="black" points="348,-56.5 348,-75.5 437,-75.5 437,-56.5 348,-56.5"/>
<text text-anchor="middle" x="392.5" y="-63.5" font-family="Helvetica,sans-Serif" font-size="10.00">cylinder_ops.H</text>
</a>
</g>
</g>
<!-- Node5&#45;&gt;Node8 -->
<g id="edge8" class="edge">
<title>Node5&#45;&gt;Node8</title>
<path fill="none" stroke="midnightblue" d="M392.5,-101.8C392.5,-92.91 392.5,-82.78 392.5,-75.75"/>
<polygon fill="midnightblue" stroke="midnightblue" points="389,-102.08 392.5,-112.08 396,-102.08 389,-102.08"/>
</g>
<!-- Node10 -->
<g id="node10" class="node">
<title>Node10</title>
<g id="a_node10"><a xlink:href="sphere__ops_8_h.html" target="_top" xlink:title=" ">
<polygon fill="white" stroke="black" points="455,-56.5 455,-75.5 538,-75.5 538,-56.5 455,-56.5"/>
<text text-anchor="middle" x="496.5" y="-63.5" font-family="Helvetica,sans-Serif" font-size="10.00">sphere_ops.H</text>
</a>
</g>
</g>
<!-- Node5&#45;&gt;Node10 -->
<g id="edge10" class="edge">
<title>Node5&#45;&gt;Node10</title>
<path fill="none" stroke="midnightblue" d="M418.33,-107.59C437.56,-97.61 463.24,-84.27 479.83,-75.65"/>
<polygon fill="midnightblue" stroke="midnightblue" points="416.47,-104.61 409.21,-112.32 419.7,-110.82 416.47,-104.61"/>
</g>
<!-- Node7 -->
<g id="node7" class="node">
<title>Node7</title>
<g id="a_node7"><a xlink:href="_box_8cpp.html" target="_top" xlink:title=" ">
<polygon fill="white" stroke="black" points="267.5,-0.5 267.5,-19.5 323.5,-19.5 323.5,-0.5 267.5,-0.5"/>
<text text-anchor="middle" x="295.5" y="-7.5" font-family="Helvetica,sans-Serif" font-size="10.00">Box.cpp</text>
</a>
</g>
</g>
<!-- Node6&#45;&gt;Node7 -->
<g id="edge7" class="edge">
<title>Node6&#45;&gt;Node7</title>
<path fill="none" stroke="midnightblue" d="M295.5,-45.8C295.5,-36.91 295.5,-26.78 295.5,-19.75"/>
<polygon fill="midnightblue" stroke="midnightblue" points="292,-46.08 295.5,-56.08 299,-46.08 292,-46.08"/>
</g>
<!-- Node9 -->
<g id="node9" class="node">
<title>Node9</title>
<g id="a_node9"><a xlink:href="_cylinder_8cpp.html" target="_top" xlink:title=" ">
<polygon fill="white" stroke="black" points="354,-0.5 354,-19.5 431,-19.5 431,-0.5 354,-0.5"/>
<text text-anchor="middle" x="392.5" y="-7.5" font-family="Helvetica,sans-Serif" font-size="10.00">Cylinder.cpp</text>
</a>
</g>
</g>
<!-- Node8&#45;&gt;Node9 -->
<g id="edge9" class="edge">
<title>Node8&#45;&gt;Node9</title>
<path fill="none" stroke="midnightblue" d="M392.5,-45.8C392.5,-36.91 392.5,-26.78 392.5,-19.75"/>
<polygon fill="midnightblue" stroke="midnightblue" points="389,-46.08 392.5,-56.08 396,-46.08 389,-46.08"/>
</g>
<!-- Node11 -->
<g id="node11" class="node">
<title>Node11</title>
<g id="a_node11"><a xlink:href="_sphere_8cpp.html" target="_top" xlink:title=" ">
<polygon fill="white" stroke="black" points="461,-0.5 461,-19.5 532,-19.5 532,-0.5 461,-0.5"/>
<text text-anchor="middle" x="496.5" y="-7.5" font-family="Helvetica,sans-Serif" font-size="10.00">Sphere.cpp</text>
</a>
</g>
</g>
<!-- Node10&#45;&gt;Node11 -->
<g id="edge11" class="edge">
<title>Node10&#45;&gt;Node11</title>
<path fill="none" stroke="midnightblue" d="M496.5,-45.8C496.5,-36.91 496.5,-26.78 496.5,-19.75"/>
<polygon fill="midnightblue" stroke="midnightblue" points="493,-46.08 496.5,-56.08 500,-46.08 493,-46.08"/>
</g>
<!-- Node13&#45;&gt;Node12 -->
<g id="edge18" class="edge">
<title>Node13&#45;&gt;Node12</title>
<path fill="none" stroke="midnightblue" d="M660.08,-104.43C651.84,-94.97 641.85,-83.48 635.12,-75.75"/>
<polygon fill="midnightblue" stroke="midnightblue" points="657.53,-106.84 666.74,-112.08 662.81,-102.24 657.53,-106.84"/>
</g>
<!-- Node14 -->
<g id="node14" class="node">
<title>Node14</title>
<g id="a_node14"><a xlink:href="hos__waves__ops_8_h.html" target="_top" xlink:title=" ">
<polygon fill="white" stroke="black" points="717.5,-56.5 717.5,-75.5 821.5,-75.5 821.5,-56.5 717.5,-56.5"/>
<text text-anchor="middle" x="769.5" y="-63.5" font-family="Helvetica,sans-Serif" font-size="10.00">hos_waves_ops.H</text>
</a>
</g>
</g>
<!-- Node13&#45;&gt;Node14 -->
<g id="edge14" class="edge">
<title>Node13&#45;&gt;Node14</title>
<path fill="none" stroke="midnightblue" d="M698.82,-107.18C716.3,-97.24 739.33,-84.15 754.27,-75.65"/>
<polygon fill="midnightblue" stroke="midnightblue" points="696.73,-104.34 689.76,-112.32 700.19,-110.43 696.73,-104.34"/>
</g>
<!-- Node16 -->
<g id="node16" class="node">
<title>Node16</title>
<g id="a_node16"><a xlink:href="linear__waves__ops_8_h.html" target="_top" xlink:title=" ">
<polygon fill="white" stroke="black" points="839.5,-56.5 839.5,-75.5 953.5,-75.5 953.5,-56.5 839.5,-56.5"/>
<text text-anchor="middle" x="896.5" y="-63.5" font-family="Helvetica,sans-Serif" font-size="10.00">linear_waves_ops.H</text>
</a>
</g>
</g>
<!-- Node13&#45;&gt;Node16 -->
<g id="edge16" class="edge">
<title>Node13&#45;&gt;Node16</title>
<path fill="none" stroke="midnightblue" d="M719.62,-110.02C761.56,-99.82 823.15,-84.84 861.49,-75.52"/>
<polygon fill="midnightblue" stroke="midnightblue" points="718.57,-106.68 709.68,-112.44 720.22,-113.48 718.57,-106.68"/>
</g>
<!-- Node18 -->
<g id="node18" class="node">
<title>Node18</title>
<g id="a_node18"><a xlink:href="stokes__waves__ops_8_h.html" target="_top" xlink:title=" ">
<polygon fill="white" stroke="black" points="971.5,-56.5 971.5,-75.5 1089.5,-75.5 1089.5,-56.5 971.5,-56.5"/>
<text text-anchor="middle" x="1030.5" y="-63.5" font-family="Helvetica,sans-Serif" font-size="10.00">stokes_waves_ops.H</text>
</a>
</g>
</g>
<!-- Node13&#45;&gt;Node18 -->
<g id="edge19" class="edge">
<title>Node13&#45;&gt;Node18</title>
<path fill="none" stroke="midnightblue" d="M740.98,-110.92C808.23,-100.71 911.06,-85.12 974.35,-75.52"/>
<polygon fill="midnightblue" stroke="midnightblue" points="740.27,-107.48 730.91,-112.44 741.32,-114.4 740.27,-107.48"/>
</g>
<!-- Node15 -->
<g id="node15" class="node">
<title>Node15</title>
<g id="a_node15"><a xlink:href="_h_o_s_waves_8cpp.html" target="_top" xlink:title=" ">
<polygon fill="white" stroke="black" points="724.5,-0.5 724.5,-19.5 814.5,-19.5 814.5,-0.5 724.5,-0.5"/>
<text text-anchor="middle" x="769.5" y="-7.5" font-family="Helvetica,sans-Serif" font-size="10.00">HOSWaves.cpp</text>
</a>
</g>
</g>
<!-- Node14&#45;&gt;Node15 -->
<g id="edge15" class="edge">
<title>Node14&#45;&gt;Node15</title>
<path fill="none" stroke="midnightblue" d="M769.5,-45.8C769.5,-36.91 769.5,-26.78 769.5,-19.75"/>
<polygon fill="midnightblue" stroke="midnightblue" points="766,-46.08 769.5,-56.08 773,-46.08 766,-46.08"/>
</g>
<!-- Node17 -->
<g id="node17" class="node">
<title>Node17</title>
<g id="a_node17"><a xlink:href="_linear_waves_8cpp.html" target="_top" xlink:title=" ">
<polygon fill="white" stroke="black" points="847,-0.5 847,-19.5 946,-19.5 946,-0.5 847,-0.5"/>
<text text-anchor="middle" x="896.5" y="-7.5" font-family="Helvetica,sans-Serif" font-size="10.00">LinearWaves.cpp</text>
</a>
</g>
</g>
<!-- Node16&#45;&gt;Node17 -->
<g id="edge17" class="edge">
<title>Node16&#45;&gt;Node17</title>
<path fill="none" stroke="midnightblue" d="M896.5,-45.8C896.5,-36.91 896.5,-26.78 896.5,-19.75"/>
<polygon fill="midnightblue" stroke="midnightblue" points="893,-46.08 896.5,-56.08 900,-46.08 893,-46.08"/>
</g>
<!-- Node19 -->
<g id="node19" class="node">
<title>Node19</title>
<g id="a_node19"><a xlink:href="_stokes_waves_8cpp.html" target="_top" xlink:title=" ">
<polygon fill="white" stroke="black" points="980,-0.5 980,-19.5 1081,-19.5 1081,-0.5 980,-0.5"/>
<text text-anchor="middle" x="1030.5" y="-7.5" font-family="Helvetica,sans-Serif" font-size="10.00">StokesWaves.cpp</text>
</a>
</g>
</g>
<!-- Node18&#45;&gt;Node19 -->
<g id="edge20" class="edge">
<title>Node18&#45;&gt;Node19</title>
<path fill="none" stroke="midnightblue" d="M1030.5,-45.8C1030.5,-36.91 1030.5,-26.78 1030.5,-19.75"/>
<polygon fill="midnightblue" stroke="midnightblue" points="1027,-46.08 1030.5,-56.08 1034,-46.08 1027,-46.08"/>
</g>
</g>
</svg>
