<?xml version="1.0" encoding="UTF-8" standalone="no"?>
<!DOCTYPE svg PUBLIC "-//W3C//DTD SVG 1.1//EN"
 "http://www.w3.org/Graphics/SVG/1.1/DTD/svg11.dtd">
<!-- Generated by graphviz version 2.43.0 (0)
 -->
<!-- Title: helics.H Pages: 1 -->
<svg width="4821pt" height="196pt"
 viewBox="0.00 0.00 4820.50 196.00" xmlns="http://www.w3.org/2000/svg" xmlns:xlink="http://www.w3.org/1999/xlink">
<g id="graph0" class="graph" transform="scale(1 1) rotate(0) translate(4 192)">
<title>helics.H</title>
<polygon fill="white" stroke="transparent" points="-4,4 -4,-192 4816.5,-192 4816.5,4 -4,4"/>
<!-- Node1 -->
<g id="node1" class="node">
<title>Node1</title>
<g id="a_node1"><a xlink:title=" ">
<polygon fill="#bfbfbf" stroke="black" points="2522,-168.5 2522,-187.5 2578,-187.5 2578,-168.5 2522,-168.5"/>
<text text-anchor="middle" x="2550" y="-175.5" font-family="Helvetica,sans-Serif" font-size="10.00">helics.H</text>
</a>
</g>
</g>
<!-- Node2 -->
<g id="node2" class="node">
<title>Node2</title>
<g id="a_node2"><a xlink:href="_c_f_d_sim_8_h.html" target="_top" xlink:title=" ">
<polygon fill="white" stroke="red" points="2517,-112.5 2517,-131.5 2583,-131.5 2583,-112.5 2517,-112.5"/>
<text text-anchor="middle" x="2550" y="-119.5" font-family="Helvetica,sans-Serif" font-size="10.00">CFDSim.H</text>
</a>
</g>
</g>
<!-- Node1&#45;&gt;Node2 -->
<g id="edge1" class="edge">
<title>Node1&#45;&gt;Node2</title>
<path fill="none" stroke="midnightblue" d="M2543.53,-158.1C2542.9,-149.14 2543.34,-138.86 2544.87,-131.75"/>
<polygon fill="midnightblue" stroke="midnightblue" points="2540.07,-158.62 2544.83,-168.08 2547.01,-157.71 2540.07,-158.62"/>
</g>
<!-- Node159 -->
<g id="node50" class="node">
<title>Node159</title>
<g id="a_node50"><a xlink:href="helics_8cpp.html" target="_top" xlink:title=" ">
<polygon fill="white" stroke="black" points="2601.5,-112.5 2601.5,-131.5 2666.5,-131.5 2666.5,-112.5 2601.5,-112.5"/>
<text text-anchor="middle" x="2634" y="-119.5" font-family="Helvetica,sans-Serif" font-size="10.00">helics.cpp</text>
</a>
</g>
</g>
<!-- Node1&#45;&gt;Node159 -->
<g id="edge58" class="edge">
<title>Node1&#45;&gt;Node159</title>
<path fill="none" stroke="midnightblue" d="M2571.93,-162.9C2587.34,-153 2607.45,-140.07 2620.54,-131.65"/>
<polygon fill="midnightblue" stroke="midnightblue" points="2570.02,-159.97 2563.5,-168.32 2573.8,-165.86 2570.02,-159.97"/>
</g>
<!-- Node2&#45;&gt;Node1 -->
<g id="edge24" class="edge">
<title>Node2&#45;&gt;Node1</title>
<path fill="none" stroke="midnightblue" d="M2556.46,-141.69C2557.11,-150.64 2556.68,-160.93 2555.17,-168.08"/>
<polygon fill="midnightblue" stroke="midnightblue" points="2559.92,-141.2 2555.13,-131.75 2552.98,-142.13 2559.92,-141.2"/>
</g>
<!-- Node3 -->
<g id="node3" class="node">
<title>Node3</title>
<g id="a_node3"><a xlink:href="_c_f_d_sim_8cpp.html" target="_top" xlink:title=" ">
<polygon fill="white" stroke="black" points="0,-56.5 0,-75.5 76,-75.5 76,-56.5 0,-56.5"/>
<text text-anchor="middle" x="38" y="-63.5" font-family="Helvetica,sans-Serif" font-size="10.00">CFDSim.cpp</text>
</a>
</g>
</g>
<!-- Node2&#45;&gt;Node3 -->
<g id="edge2" class="edge">
<title>Node2&#45;&gt;Node3</title>
<path fill="none" stroke="midnightblue" d="M2506.41,-120.65C2196.75,-118.14 334.68,-101.99 85,-76 82.11,-75.7 79.13,-75.31 76.14,-74.87"/>
<polygon fill="midnightblue" stroke="midnightblue" points="2506.74,-124.16 2516.77,-120.74 2506.8,-117.16 2506.74,-124.16"/>
</g>
<!-- Node4 -->
<g id="node4" class="node">
<title>Node4</title>
<g id="a_node4"><a xlink:href="_mesh_map_8cpp.html" target="_top" xlink:title=" ">
<polygon fill="white" stroke="black" points="94,-56.5 94,-75.5 178,-75.5 178,-56.5 94,-56.5"/>
<text text-anchor="middle" x="136" y="-63.5" font-family="Helvetica,sans-Serif" font-size="10.00">MeshMap.cpp</text>
</a>
</g>
</g>
<!-- Node2&#45;&gt;Node4 -->
<g id="edge3" class="edge">
<title>Node2&#45;&gt;Node4</title>
<path fill="none" stroke="midnightblue" d="M2506.41,-121.1C2225.04,-121.59 662.03,-122.15 187,-76 184.14,-75.72 181.19,-75.37 178.23,-74.97"/>
<polygon fill="midnightblue" stroke="midnightblue" points="2506.63,-124.6 2516.62,-121.08 2506.61,-117.6 2506.63,-124.6"/>
</g>
<!-- Node5 -->
<g id="node5" class="node">
<title>Node5</title>
<g id="a_node5"><a xlink:href="_a_b_l_forcing_8cpp.html" target="_top" xlink:title=" ">
<polygon fill="white" stroke="black" points="196.5,-56.5 196.5,-75.5 287.5,-75.5 287.5,-56.5 196.5,-56.5"/>
<text text-anchor="middle" x="242" y="-63.5" font-family="Helvetica,sans-Serif" font-size="10.00">ABLForcing.cpp</text>
</a>
</g>
</g>
<!-- Node2&#45;&gt;Node5 -->
<g id="edge4" class="edge">
<title>Node2&#45;&gt;Node5</title>
<path fill="none" stroke="midnightblue" d="M2506.31,-120.98C2232.43,-120.7 748.99,-117.28 297,-76 293.92,-75.72 290.74,-75.37 287.55,-74.97"/>
<polygon fill="midnightblue" stroke="midnightblue" points="2506.63,-124.48 2516.64,-120.99 2506.64,-117.48 2506.63,-124.48"/>
</g>
<!-- Node6 -->
<g id="node6" class="node">
<title>Node6</title>
<g id="a_node6"><a xlink:href="_a_b_l_mean_boussinesq_8cpp.html" target="_top" xlink:title=" ">
<polygon fill="white" stroke="black" points="306,-56.5 306,-75.5 444,-75.5 444,-56.5 306,-56.5"/>
<text text-anchor="middle" x="375" y="-63.5" font-family="Helvetica,sans-Serif" font-size="10.00">ABLMeanBoussinesq.cpp</text>
</a>
</g>
</g>
<!-- Node2&#45;&gt;Node6 -->
<g id="edge5" class="edge">
<title>Node2&#45;&gt;Node6</title>
<path fill="none" stroke="midnightblue" d="M2506.5,-120.62C2244.41,-118.26 872.92,-104.67 453,-76 450.14,-75.81 447.23,-75.58 444.29,-75.34"/>
<polygon fill="midnightblue" stroke="midnightblue" points="2506.72,-124.12 2516.75,-120.71 2506.78,-117.12 2506.72,-124.12"/>
</g>
<!-- Node7 -->
<g id="node7" class="node">
<title>Node7</title>
<g id="a_node7"><a xlink:href="_actuator_forcing_8cpp.html" target="_top" xlink:title=" ">
<polygon fill="white" stroke="black" points="462.5,-56.5 462.5,-75.5 575.5,-75.5 575.5,-56.5 462.5,-56.5"/>
<text text-anchor="middle" x="519" y="-63.5" font-family="Helvetica,sans-Serif" font-size="10.00">ActuatorForcing.cpp</text>
</a>
</g>
</g>
<!-- Node2&#45;&gt;Node7 -->
<g id="edge6" class="edge">
<title>Node2&#45;&gt;Node7</title>
<path fill="none" stroke="midnightblue" d="M2506.46,-120.67C2254.1,-118.66 976.73,-107.09 585,-76 582,-75.76 578.93,-75.48 575.84,-75.16"/>
<polygon fill="midnightblue" stroke="midnightblue" points="2506.67,-124.17 2516.7,-120.75 2506.73,-117.17 2506.67,-124.17"/>
</g>
<!-- Node8 -->
<g id="node8" class="node">
<title>Node8</title>
<g id="a_node8"><a xlink:href="_body_force_8cpp.html" target="_top" xlink:title=" ">
<polygon fill="white" stroke="black" points="594,-56.5 594,-75.5 682,-75.5 682,-56.5 594,-56.5"/>
<text text-anchor="middle" x="638" y="-63.5" font-family="Helvetica,sans-Serif" font-size="10.00">BodyForce.cpp</text>
</a>
</g>
</g>
<!-- Node2&#45;&gt;Node8 -->
<g id="edge7" class="edge">
<title>Node2&#45;&gt;Node8</title>
<path fill="none" stroke="midnightblue" d="M2506.5,-120.8C2262.3,-119.54 1059.88,-111.6 691,-76 688.12,-75.72 685.16,-75.38 682.18,-74.99"/>
<polygon fill="midnightblue" stroke="midnightblue" points="2506.73,-124.3 2516.74,-120.85 2506.76,-117.3 2506.73,-124.3"/>
</g>
<!-- Node9 -->
<g id="node9" class="node">
<title>Node9</title>
<g id="a_node9"><a xlink:href="_boussinesq_buoyancy_8cpp.html" target="_top" xlink:title=" ">
<polygon fill="white" stroke="black" points="700.5,-56.5 700.5,-75.5 839.5,-75.5 839.5,-56.5 700.5,-56.5"/>
<text text-anchor="middle" x="770" y="-63.5" font-family="Helvetica,sans-Serif" font-size="10.00">BoussinesqBuoyancy.cpp</text>
</a>
</g>
</g>
<!-- Node2&#45;&gt;Node9 -->
<g id="edge8" class="edge">
<title>Node2&#45;&gt;Node9</title>
<path fill="none" stroke="midnightblue" d="M2506.73,-121.13C2313.58,-121.43 1510.89,-119.83 854,-76 849.32,-75.69 844.49,-75.31 839.63,-74.9"/>
<polygon fill="midnightblue" stroke="midnightblue" points="2506.77,-124.63 2516.77,-121.11 2506.76,-117.63 2506.77,-124.63"/>
</g>
<!-- Node10 -->
<g id="node10" class="node">
<title>Node10</title>
<g id="a_node10"><a xlink:href="_burggraf_flow_forcing_8cpp.html" target="_top" xlink:title=" ">
<polygon fill="white" stroke="black" points="2464.5,-0.5 2464.5,-19.5 2601.5,-19.5 2601.5,-0.5 2464.5,-0.5"/>
<text text-anchor="middle" x="2533" y="-7.5" font-family="Helvetica,sans-Serif" font-size="10.00">BurggrafFlowForcing.cpp</text>
</a>
</g>
</g>
<!-- Node2&#45;&gt;Node10 -->
<g id="edge9" class="edge">
<title>Node2&#45;&gt;Node10</title>
<path fill="none" stroke="midnightblue" d="M2506.97,-120.23C2394.14,-117.76 2096.36,-108.22 2067,-76 2012.43,-16.11 2322.25,-10.01 2464.5,-10.29"/>
<polygon fill="midnightblue" stroke="midnightblue" points="2506.92,-123.73 2516.99,-120.44 2507.06,-116.73 2506.92,-123.73"/>
</g>
<!-- Node11 -->
<g id="node11" class="node">
<title>Node11</title>
<g id="a_node11"><a xlink:href="_coriolis_forcing_8cpp.html" target="_top" xlink:title=" ">
<polygon fill="white" stroke="black" points="896.5,-56.5 896.5,-75.5 1005.5,-75.5 1005.5,-56.5 896.5,-56.5"/>
<text text-anchor="middle" x="951" y="-63.5" font-family="Helvetica,sans-Serif" font-size="10.00">CoriolisForcing.cpp</text>
</a>
</g>
</g>
<!-- Node2&#45;&gt;Node11 -->
<g id="edge10" class="edge">
<title>Node2&#45;&gt;Node11</title>
<path fill="none" stroke="midnightblue" d="M2506.69,-120.39C2289.28,-117.23 1315.57,-101.88 1014,-76 1011.25,-75.76 1008.43,-75.49 1005.59,-75.18"/>
<polygon fill="midnightblue" stroke="midnightblue" points="2506.7,-123.89 2516.75,-120.54 2506.8,-116.89 2506.7,-123.89"/>
</g>
<!-- Node12 -->
<g id="node12" class="node">
<title>Node12</title>
<g id="a_node12"><a xlink:href="_density_buoyancy_8cpp.html" target="_top" xlink:title=" ">
<polygon fill="white" stroke="black" points="1023.5,-56.5 1023.5,-75.5 1144.5,-75.5 1144.5,-56.5 1023.5,-56.5"/>
<text text-anchor="middle" x="1084" y="-63.5" font-family="Helvetica,sans-Serif" font-size="10.00">DensityBuoyancy.cpp</text>
</a>
</g>
</g>
<!-- Node2&#45;&gt;Node12 -->
<g id="edge11" class="edge">
<title>Node2&#45;&gt;Node12</title>
<path fill="none" stroke="midnightblue" d="M2506.79,-121.14C2335.21,-121.38 1685.45,-119.2 1153,-76 1150.23,-75.78 1147.4,-75.52 1144.55,-75.24"/>
<polygon fill="midnightblue" stroke="midnightblue" points="2506.94,-124.64 2516.93,-121.12 2506.93,-117.64 2506.94,-124.64"/>
</g>
<!-- Node13 -->
<g id="node13" class="node">
<title>Node13</title>
<g id="a_node13"><a xlink:href="_geostrophic_forcing_8cpp.html" target="_top" xlink:title=" ">
<polygon fill="white" stroke="black" points="1162.5,-56.5 1162.5,-75.5 1293.5,-75.5 1293.5,-56.5 1162.5,-56.5"/>
<text text-anchor="middle" x="1228" y="-63.5" font-family="Helvetica,sans-Serif" font-size="10.00">GeostrophicForcing.cpp</text>
</a>
</g>
</g>
<!-- Node2&#45;&gt;Node13 -->
<g id="edge12" class="edge">
<title>Node2&#45;&gt;Node13</title>
<path fill="none" stroke="midnightblue" d="M2506.29,-120.74C2345.72,-119.51 1773.29,-112.64 1303,-76 1299.99,-75.77 1296.92,-75.5 1293.82,-75.21"/>
<polygon fill="midnightblue" stroke="midnightblue" points="2506.68,-124.24 2516.7,-120.82 2506.73,-117.24 2506.68,-124.24"/>
</g>
<!-- Node14 -->
<g id="node14" class="node">
<title>Node14</title>
<g id="a_node14"><a xlink:href="_gravity_forcing_8cpp.html" target="_top" xlink:title=" ">
<polygon fill="white" stroke="black" points="1312,-56.5 1312,-75.5 1420,-75.5 1420,-56.5 1312,-56.5"/>
<text text-anchor="middle" x="1366" y="-63.5" font-family="Helvetica,sans-Serif" font-size="10.00">GravityForcing.cpp</text>
</a>
</g>
</g>
<!-- Node2&#45;&gt;Node14 -->
<g id="edge13" class="edge">
<title>Node2&#45;&gt;Node14</title>
<path fill="none" stroke="midnightblue" d="M2506.76,-120.85C2357.14,-119.98 1847.62,-114.2 1429,-76 1426.14,-75.74 1423.21,-75.44 1420.26,-75.11"/>
<polygon fill="midnightblue" stroke="midnightblue" points="2506.89,-124.35 2516.91,-120.9 2506.93,-117.35 2506.89,-124.35"/>
</g>
<!-- Node15 -->
<g id="node15" class="node">
<title>Node15</title>
<g id="a_node15"><a xlink:href="_hurricane_forcing_8cpp.html" target="_top" xlink:title=" ">
<polygon fill="white" stroke="black" points="1438.5,-56.5 1438.5,-75.5 1557.5,-75.5 1557.5,-56.5 1438.5,-56.5"/>
<text text-anchor="middle" x="1498" y="-63.5" font-family="Helvetica,sans-Serif" font-size="10.00">HurricaneForcing.cpp</text>
</a>
</g>
</g>
<!-- Node2&#45;&gt;Node15 -->
<g id="edge14" class="edge">
<title>Node2&#45;&gt;Node15</title>
<path fill="none" stroke="midnightblue" d="M2506.7,-120.31C2369.08,-117.86 1929.41,-107.87 1567,-76 1563.99,-75.74 1560.91,-75.44 1557.81,-75.11"/>
<polygon fill="midnightblue" stroke="midnightblue" points="2506.78,-123.82 2516.84,-120.49 2506.9,-116.82 2506.78,-123.82"/>
</g>
<!-- Node16 -->
<g id="node16" class="node">
<title>Node16</title>
<g id="a_node16"><a xlink:href="_rayleigh_damping_8cpp.html" target="_top" xlink:title=" ">
<polygon fill="white" stroke="black" points="1576,-56.5 1576,-75.5 1700,-75.5 1700,-56.5 1576,-56.5"/>
<text text-anchor="middle" x="1638" y="-63.5" font-family="Helvetica,sans-Serif" font-size="10.00">RayleighDamping.cpp</text>
</a>
</g>
</g>
<!-- Node2&#45;&gt;Node16 -->
<g id="edge15" class="edge">
<title>Node2&#45;&gt;Node16</title>
<path fill="none" stroke="midnightblue" d="M2506.42,-119.79C2381.84,-116.07 2013.58,-103.42 1709,-76 1706.15,-75.74 1703.25,-75.46 1700.31,-75.16"/>
<polygon fill="midnightblue" stroke="midnightblue" points="2506.58,-123.29 2516.68,-120.09 2506.79,-116.29 2506.58,-123.29"/>
</g>
<!-- Node17 -->
<g id="node17" class="node">
<title>Node17</title>
<g id="a_node17"><a xlink:href="_synth_turb_forcing_8cpp.html" target="_top" xlink:title=" ">
<polygon fill="white" stroke="black" points="1718,-56.5 1718,-75.5 1838,-75.5 1838,-56.5 1718,-56.5"/>
<text text-anchor="middle" x="1778" y="-63.5" font-family="Helvetica,sans-Serif" font-size="10.00">SynthTurbForcing.cpp</text>
</a>
</g>
</g>
<!-- Node2&#45;&gt;Node17 -->
<g id="edge16" class="edge">
<title>Node2&#45;&gt;Node17</title>
<path fill="none" stroke="midnightblue" d="M2506.95,-119.23C2396.9,-114.5 2096.4,-100.22 1847,-76 1844.11,-75.72 1841.16,-75.41 1838.18,-75.09"/>
<polygon fill="midnightblue" stroke="midnightblue" points="2506.86,-122.73 2517,-119.66 2507.15,-115.74 2506.86,-122.73"/>
</g>
<!-- Node18 -->
<g id="node18" class="node">
<title>Node18</title>
<g id="a_node18"><a xlink:href="_p_d_e_8_h.html" target="_top" xlink:title=" ">
<polygon fill="white" stroke="red" points="1355.5,-0.5 1355.5,-19.5 1402.5,-19.5 1402.5,-0.5 1355.5,-0.5"/>
<text text-anchor="middle" x="1379" y="-7.5" font-family="Helvetica,sans-Serif" font-size="10.00">PDE.H</text>
</a>
</g>
</g>
<!-- Node2&#45;&gt;Node18 -->
<g id="edge17" class="edge">
<title>Node2&#45;&gt;Node18</title>
<path fill="none" stroke="midnightblue" d="M2506.51,-120.65C2247.28,-118.48 916.09,-105.89 887,-76 819.54,-6.69 1248.77,-8.96 1355.42,-10.56"/>
<polygon fill="midnightblue" stroke="midnightblue" points="2506.64,-124.15 2516.67,-120.74 2506.7,-117.15 2506.64,-124.15"/>
</g>
<!-- Node52 -->
<g id="node19" class="node">
<title>Node52</title>
<g id="a_node19"><a xlink:href="_p_d_e_base_8cpp.html" target="_top" xlink:title=" ">
<polygon fill="white" stroke="black" points="1940,-56.5 1940,-75.5 2020,-75.5 2020,-56.5 1940,-56.5"/>
<text text-anchor="middle" x="1980" y="-63.5" font-family="Helvetica,sans-Serif" font-size="10.00">PDEBase.cpp</text>
</a>
</g>
</g>
<!-- Node2&#45;&gt;Node52 -->
<g id="edge18" class="edge">
<title>Node2&#45;&gt;Node52</title>
<path fill="none" stroke="midnightblue" d="M2506.46,-118.36C2417.47,-112.7 2208.45,-98.11 2034,-76 2029.47,-75.43 2024.75,-74.75 2020.05,-74.03"/>
<polygon fill="midnightblue" stroke="midnightblue" points="2506.5,-121.87 2516.7,-119 2506.94,-114.88 2506.5,-121.87"/>
</g>
<!-- Node53 -->
<g id="node20" class="node">
<title>Node53</title>
<g id="a_node20"><a xlink:href="_p_d_e_ops_8_h.html" target="_top" xlink:title=" ">
<polygon fill="white" stroke="red" points="1856.5,-56.5 1856.5,-75.5 1921.5,-75.5 1921.5,-56.5 1856.5,-56.5"/>
<text text-anchor="middle" x="1889" y="-63.5" font-family="Helvetica,sans-Serif" font-size="10.00">PDEOps.H</text>
</a>
</g>
</g>
<!-- Node2&#45;&gt;Node53 -->
<g id="edge19" class="edge">
<title>Node2&#45;&gt;Node53</title>
<path fill="none" stroke="midnightblue" d="M2506.82,-119.92C2405.68,-116.93 2145.8,-106.67 1931,-76 1928.05,-75.58 1924.99,-75.07 1921.94,-74.51"/>
<polygon fill="midnightblue" stroke="midnightblue" points="2506.85,-123.42 2516.95,-120.21 2507.05,-116.42 2506.85,-123.42"/>
</g>
<!-- Node63 -->
<g id="node21" class="node">
<title>Node63</title>
<g id="a_node21"><a xlink:href="_s_d_r_src_8cpp.html" target="_top" xlink:title=" ">
<polygon fill="white" stroke="black" points="2076,-56.5 2076,-75.5 2148,-75.5 2148,-56.5 2076,-56.5"/>
<text text-anchor="middle" x="2112" y="-63.5" font-family="Helvetica,sans-Serif" font-size="10.00">SDRSrc.cpp</text>
</a>
</g>
</g>
<!-- Node2&#45;&gt;Node63 -->
<g id="edge21" class="edge">
<title>Node2&#45;&gt;Node63</title>
<path fill="none" stroke="midnightblue" d="M2506.62,-117.23C2434.02,-110.64 2283.42,-95.84 2157,-76 2154.17,-75.56 2151.24,-75.06 2148.3,-74.53"/>
<polygon fill="midnightblue" stroke="midnightblue" points="2506.48,-120.73 2516.75,-118.14 2507.1,-113.75 2506.48,-120.73"/>
</g>
<!-- Node64 -->
<g id="node22" class="node">
<title>Node64</title>
<g id="a_node22"><a xlink:href="_ksgs_m84_src_8cpp.html" target="_top" xlink:title=" ">
<polygon fill="white" stroke="black" points="2166,-56.5 2166,-75.5 2262,-75.5 2262,-56.5 2166,-56.5"/>
<text text-anchor="middle" x="2214" y="-63.5" font-family="Helvetica,sans-Serif" font-size="10.00">KsgsM84Src.cpp</text>
</a>
</g>
</g>
<!-- Node2&#45;&gt;Node64 -->
<g id="edge22" class="edge">
<title>Node2&#45;&gt;Node64</title>
<path fill="none" stroke="midnightblue" d="M2506.89,-114.07C2444.07,-103.98 2327.74,-85.28 2262.18,-74.74"/>
<polygon fill="midnightblue" stroke="midnightblue" points="2506.43,-117.54 2516.86,-115.67 2507.55,-110.63 2506.43,-117.54"/>
</g>
<!-- Node65 -->
<g id="node23" class="node">
<title>Node65</title>
<g id="a_node23"><a xlink:href="_kw_s_s_t_src_8cpp.html" target="_top" xlink:title=" ">
<polygon fill="white" stroke="black" points="2280.5,-56.5 2280.5,-75.5 2365.5,-75.5 2365.5,-56.5 2280.5,-56.5"/>
<text text-anchor="middle" x="2323" y="-63.5" font-family="Helvetica,sans-Serif" font-size="10.00">KwSSTSrc.cpp</text>
</a>
</g>
</g>
<!-- Node2&#45;&gt;Node65 -->
<g id="edge23" class="edge">
<title>Node2&#45;&gt;Node65</title>
<path fill="none" stroke="midnightblue" d="M2507.15,-110.81C2464.35,-100.62 2399.28,-85.15 2359.05,-75.58"/>
<polygon fill="midnightblue" stroke="midnightblue" points="2506.45,-114.24 2516.99,-113.15 2508.07,-107.43 2506.45,-114.24"/>
</g>
<!-- Node66 -->
<g id="node24" class="node">
<title>Node66</title>
<g id="a_node24"><a xlink:href="_i_b_8cpp.html" target="_top" xlink:title=" ">
<polygon fill="white" stroke="black" points="2383.5,-56.5 2383.5,-75.5 2430.5,-75.5 2430.5,-56.5 2383.5,-56.5"/>
<text text-anchor="middle" x="2407" y="-63.5" font-family="Helvetica,sans-Serif" font-size="10.00">IB.cpp</text>
</a>
</g>
</g>
<!-- Node2&#45;&gt;Node66 -->
<g id="edge25" class="edge">
<title>Node2&#45;&gt;Node66</title>
<path fill="none" stroke="midnightblue" d="M2517.97,-108.91C2491.09,-98.75 2453.36,-84.51 2429.55,-75.52"/>
<polygon fill="midnightblue" stroke="midnightblue" points="2516.75,-112.19 2527.34,-112.44 2519.22,-105.64 2516.75,-112.19"/>
</g>
<!-- Node67 -->
<g id="node25" class="node">
<title>Node67</title>
<g id="a_node25"><a xlink:href="_i_b_ops_8_h.html" target="_top" xlink:title=" ">
<polygon fill="white" stroke="red" points="2449,-56.5 2449,-75.5 2505,-75.5 2505,-56.5 2449,-56.5"/>
<text text-anchor="middle" x="2477" y="-63.5" font-family="Helvetica,sans-Serif" font-size="10.00">IBOps.H</text>
</a>
</g>
</g>
<!-- Node2&#45;&gt;Node67 -->
<g id="edge26" class="edge">
<title>Node2&#45;&gt;Node67</title>
<path fill="none" stroke="midnightblue" d="M2529.86,-106.1C2516.72,-96.38 2500.02,-84.03 2488.94,-75.83"/>
<polygon fill="midnightblue" stroke="midnightblue" points="2528.15,-109.19 2538.27,-112.32 2532.31,-103.56 2528.15,-109.19"/>
</g>
<!-- Node77 -->
<g id="node26" class="node">
<title>Node77</title>
<g id="a_node26"><a xlink:href="incflo_8_h.html" target="_top" xlink:title=" ">
<polygon fill="white" stroke="red" points="2523.5,-56.5 2523.5,-75.5 2576.5,-75.5 2576.5,-56.5 2523.5,-56.5"/>
<text text-anchor="middle" x="2550" y="-63.5" font-family="Helvetica,sans-Serif" font-size="10.00">incflo.H</text>
</a>
</g>
</g>
<!-- Node2&#45;&gt;Node77 -->
<g id="edge27" class="edge">
<title>Node2&#45;&gt;Node77</title>
<path fill="none" stroke="midnightblue" d="M2550,-101.8C2550,-92.91 2550,-82.78 2550,-75.75"/>
<polygon fill="midnightblue" stroke="midnightblue" points="2546.5,-102.08 2550,-112.08 2553.5,-102.08 2546.5,-102.08"/>
</g>
<!-- Node89 -->
<g id="node27" class="node">
<title>Node89</title>
<g id="a_node27"><a xlink:href="_ocean_waves_8cpp.html" target="_top" xlink:title=" ">
<polygon fill="white" stroke="black" points="2595,-56.5 2595,-75.5 2695,-75.5 2695,-56.5 2595,-56.5"/>
<text text-anchor="middle" x="2645" y="-63.5" font-family="Helvetica,sans-Serif" font-size="10.00">OceanWaves.cpp</text>
</a>
</g>
</g>
<!-- Node2&#45;&gt;Node89 -->
<g id="edge28" class="edge">
<title>Node2&#45;&gt;Node89</title>
<path fill="none" stroke="midnightblue" d="M2574.32,-107.18C2591.8,-97.24 2614.83,-84.15 2629.77,-75.65"/>
<polygon fill="midnightblue" stroke="midnightblue" points="2572.23,-104.34 2565.26,-112.32 2575.69,-110.43 2572.23,-104.34"/>
</g>
<!-- Node90 -->
<g id="node28" class="node">
<title>Node90</title>
<g id="a_node28"><a xlink:href="_ocean_waves_ops_8_h.html" target="_top" xlink:title=" ">
<polygon fill="white" stroke="red" points="2713.5,-56.5 2713.5,-75.5 2822.5,-75.5 2822.5,-56.5 2713.5,-56.5"/>
<text text-anchor="middle" x="2768" y="-63.5" font-family="Helvetica,sans-Serif" font-size="10.00">OceanWavesOps.H</text>
</a>
</g>
</g>
<!-- Node2&#45;&gt;Node90 -->
<g id="edge29" class="edge">
<title>Node2&#45;&gt;Node90</title>
<path fill="none" stroke="midnightblue" d="M2592.85,-110.39C2634.01,-100.19 2695.4,-84.98 2733.5,-75.55"/>
<polygon fill="midnightblue" stroke="midnightblue" points="2591.97,-107 2583.11,-112.8 2593.66,-113.79 2591.97,-107"/>
</g>
<!-- Node98 -->
<g id="node29" class="node">
<title>Node98</title>
<g id="a_node29"><a xlink:href="_tioga_interface_8cpp.html" target="_top" xlink:title=" ">
<polygon fill="white" stroke="black" points="2840.5,-56.5 2840.5,-75.5 2947.5,-75.5 2947.5,-56.5 2840.5,-56.5"/>
<text text-anchor="middle" x="2894" y="-63.5" font-family="Helvetica,sans-Serif" font-size="10.00">TiogaInterface.cpp</text>
</a>
</g>
</g>
<!-- Node2&#45;&gt;Node98 -->
<g id="edge30" class="edge">
<title>Node2&#45;&gt;Node98</title>
<path fill="none" stroke="midnightblue" d="M2593.29,-111.92C2638.61,-104.33 2766.74,-85.54 2840.48,-74.79"/>
<polygon fill="midnightblue" stroke="midnightblue" points="2592.69,-108.48 2583.43,-113.64 2593.88,-115.37 2592.69,-108.48"/>
</g>
<!-- Node99 -->
<g id="node30" class="node">
<title>Node99</title>
<g id="a_node30"><a xlink:href="_boussinesq_bubble_8cpp.html" target="_top" xlink:title=" ">
<polygon fill="white" stroke="black" points="2966,-56.5 2966,-75.5 3092,-75.5 3092,-56.5 2966,-56.5"/>
<text text-anchor="middle" x="3029" y="-63.5" font-family="Helvetica,sans-Serif" font-size="10.00">BoussinesqBubble.cpp</text>
</a>
</g>
</g>
<!-- Node2&#45;&gt;Node99 -->
<g id="edge31" class="edge">
<title>Node2&#45;&gt;Node99</title>
<path fill="none" stroke="midnightblue" d="M2593.66,-111.89C2754.39,-87.21 2797.74,-93.58 2956,-76 2959.17,-75.65 2962.42,-75.28 2965.7,-74.9"/>
<polygon fill="midnightblue" stroke="midnightblue" points="2592.75,-108.49 2583.41,-113.49 2593.83,-115.41 2592.75,-108.49"/>
</g>
<!-- Node100 -->
<g id="node31" class="node">
<title>Node100</title>
<g id="a_node31"><a xlink:href="_burggraf_flow_8cpp.html" target="_top" xlink:title=" ">
<polygon fill="white" stroke="black" points="3119.5,-0.5 3119.5,-19.5 3220.5,-19.5 3220.5,-0.5 3119.5,-0.5"/>
<text text-anchor="middle" x="3170" y="-7.5" font-family="Helvetica,sans-Serif" font-size="10.00">BurggrafFlow.cpp</text>
</a>
</g>
</g>
<!-- Node2&#45;&gt;Node100 -->
<g id="edge32" class="edge">
<title>Node2&#45;&gt;Node100</title>
<path fill="none" stroke="midnightblue" d="M2593.35,-112.34C2696.06,-104.35 3165.43,-124.3 3211,-76 3227.76,-58.24 3199.61,-32.66 3182.19,-19.51"/>
<polygon fill="midnightblue" stroke="midnightblue" points="2592.98,-108.86 2583.39,-113.36 2593.69,-115.82 2592.98,-108.86"/>
</g>
<!-- Node101 -->
<g id="node32" class="node">
<title>Node101</title>
<g id="a_node32"><a xlink:href="_burggraf_flow_8_h.html" target="_top" xlink:title=" ">
<polygon fill="white" stroke="black" points="3110,-56.5 3110,-75.5 3202,-75.5 3202,-56.5 3110,-56.5"/>
<text text-anchor="middle" x="3156" y="-63.5" font-family="Helvetica,sans-Serif" font-size="10.00">BurggrafFlow.H</text>
</a>
</g>
</g>
<!-- Node2&#45;&gt;Node101 -->
<g id="edge33" class="edge">
<title>Node2&#45;&gt;Node101</title>
<path fill="none" stroke="midnightblue" d="M2593.53,-111.98C2818.31,-80.8 2879.05,-101.95 3101,-76 3103.88,-75.66 3106.85,-75.28 3109.83,-74.87"/>
<polygon fill="midnightblue" stroke="midnightblue" points="2592.81,-108.54 2583.39,-113.4 2593.78,-115.47 2592.81,-108.54"/>
</g>
<!-- Node102 -->
<g id="node33" class="node">
<title>Node102</title>
<g id="a_node33"><a xlink:href="_channel_flow_8cpp.html" target="_top" xlink:title=" ">
<polygon fill="white" stroke="black" points="3267.5,-0.5 3267.5,-19.5 3366.5,-19.5 3366.5,-0.5 3267.5,-0.5"/>
<text text-anchor="middle" x="3317" y="-7.5" font-family="Helvetica,sans-Serif" font-size="10.00">ChannelFlow.cpp</text>
</a>
</g>
</g>
<!-- Node2&#45;&gt;Node102 -->
<g id="edge36" class="edge">
<title>Node2&#45;&gt;Node102</title>
<path fill="none" stroke="midnightblue" d="M2593.38,-112.49C2692.43,-106.49 3327.93,-105.42 3356,-76 3372.62,-58.57 3345.55,-32.85 3328.76,-19.59"/>
<polygon fill="midnightblue" stroke="midnightblue" points="2593.06,-109 2583.39,-113.33 2593.64,-115.98 2593.06,-109"/>
</g>
<!-- Node103 -->
<g id="node34" class="node">
<title>Node103</title>
<g id="a_node34"><a xlink:href="_channel_flow_8_h.html" target="_top" xlink:title=" ">
<polygon fill="white" stroke="black" points="3258.5,-56.5 3258.5,-75.5 3347.5,-75.5 3347.5,-56.5 3258.5,-56.5"/>
<text text-anchor="middle" x="3303" y="-63.5" font-family="Helvetica,sans-Serif" font-size="10.00">ChannelFlow.H</text>
</a>
</g>
</g>
<!-- Node2&#45;&gt;Node103 -->
<g id="edge37" class="edge">
<title>Node2&#45;&gt;Node103</title>
<path fill="none" stroke="midnightblue" d="M2593.71,-111.98C2881.45,-74.23 2958.71,-105.57 3244,-76 3248.64,-75.52 3253.47,-74.93 3258.28,-74.28"/>
<polygon fill="midnightblue" stroke="midnightblue" points="2592.84,-108.57 2583.39,-113.35 2593.76,-115.51 2592.84,-108.57"/>
</g>
<!-- Node104 -->
<g id="node35" class="node">
<title>Node104</title>
<g id="a_node35"><a xlink:href="_convecting_taylor_vortex_8cpp.html" target="_top" xlink:title=" ">
<polygon fill="white" stroke="black" points="3415,-0.5 3415,-19.5 3567,-19.5 3567,-0.5 3415,-0.5"/>
<text text-anchor="middle" x="3491" y="-7.5" font-family="Helvetica,sans-Serif" font-size="10.00">ConvectingTaylorVortex.cpp</text>
</a>
</g>
</g>
<!-- Node2&#45;&gt;Node104 -->
<g id="edge39" class="edge">
<title>Node2&#45;&gt;Node104</title>
<path fill="none" stroke="midnightblue" d="M2593.53,-112.48C2708.87,-105.98 3520.2,-113.16 3556,-76 3575.82,-55.43 3536.14,-31.85 3510.48,-19.52"/>
<polygon fill="midnightblue" stroke="midnightblue" points="2593.07,-109.01 2583.38,-113.3 2593.63,-115.99 2593.07,-109.01"/>
</g>
<!-- Node105 -->
<g id="node36" class="node">
<title>Node105</title>
<g id="a_node36"><a xlink:href="_convecting_taylor_vortex_8_h.html" target="_top" xlink:title=" ">
<polygon fill="white" stroke="red" points="3404.5,-56.5 3404.5,-75.5 3547.5,-75.5 3547.5,-56.5 3404.5,-56.5"/>
<text text-anchor="middle" x="3476" y="-63.5" font-family="Helvetica,sans-Serif" font-size="10.00">ConvectingTaylorVortex.H</text>
</a>
</g>
</g>
<!-- Node2&#45;&gt;Node105 -->
<g id="edge40" class="edge">
<title>Node2&#45;&gt;Node105</title>
<path fill="none" stroke="midnightblue" d="M2593.36,-112.05C2945.85,-67.31 3039.25,-102.24 3390,-76 3394.64,-75.65 3399.42,-75.26 3404.23,-74.83"/>
<polygon fill="midnightblue" stroke="midnightblue" points="2592.86,-108.58 2583.38,-113.32 2593.75,-115.52 2592.86,-108.58"/>
</g>
<!-- Node106 -->
<g id="node37" class="node">
<title>Node106</title>
<g id="a_node37"><a xlink:href="_ekman_spiral_8cpp.html" target="_top" xlink:title=" ">
<polygon fill="white" stroke="black" points="3636,-0.5 3636,-19.5 3734,-19.5 3734,-0.5 3636,-0.5"/>
<text text-anchor="middle" x="3685" y="-7.5" font-family="Helvetica,sans-Serif" font-size="10.00">EkmanSpiral.cpp</text>
</a>
</g>
</g>
<!-- Node2&#45;&gt;Node106 -->
<g id="edge42" class="edge">
<title>Node2&#45;&gt;Node106</title>
<path fill="none" stroke="midnightblue" d="M2593.36,-112.49C2718.97,-105.49 3660.51,-118.86 3702,-76 3716.93,-60.58 3701.61,-33.75 3691.82,-19.87"/>
<polygon fill="midnightblue" stroke="midnightblue" points="2593.07,-109 2583.38,-113.28 2593.63,-115.98 2593.07,-109"/>
</g>
<!-- Node107 -->
<g id="node38" class="node">
<title>Node107</title>
<g id="a_node38"><a xlink:href="_ekman_spiral_8_h.html" target="_top" xlink:title=" ">
<polygon fill="white" stroke="black" points="3604.5,-56.5 3604.5,-75.5 3693.5,-75.5 3693.5,-56.5 3604.5,-56.5"/>
<text text-anchor="middle" x="3649" y="-63.5" font-family="Helvetica,sans-Serif" font-size="10.00">EkmanSpiral.H</text>
</a>
</g>
</g>
<!-- Node2&#45;&gt;Node107 -->
<g id="edge43" class="edge">
<title>Node2&#45;&gt;Node107</title>
<path fill="none" stroke="midnightblue" d="M2593.52,-112.04C3034.23,-58.2 3151.45,-117.22 3590,-76 3594.64,-75.56 3599.48,-75 3604.29,-74.37"/>
<polygon fill="midnightblue" stroke="midnightblue" points="2592.88,-108.6 2583.38,-113.3 2593.73,-115.54 2592.88,-108.6"/>
</g>
<!-- Node108 -->
<g id="node39" class="node">
<title>Node108</title>
<g id="a_node39"><a xlink:href="_free_stream_8cpp.html" target="_top" xlink:title=" ">
<polygon fill="white" stroke="black" points="3750.5,-56.5 3750.5,-75.5 3843.5,-75.5 3843.5,-56.5 3750.5,-56.5"/>
<text text-anchor="middle" x="3797" y="-63.5" font-family="Helvetica,sans-Serif" font-size="10.00">FreeStream.cpp</text>
</a>
</g>
</g>
<!-- Node2&#45;&gt;Node108 -->
<g id="edge45" class="edge">
<title>Node2&#45;&gt;Node108</title>
<path fill="none" stroke="midnightblue" d="M2593.49,-112.06C3098.72,-51.39 3232.66,-120.9 3736,-76 3740.69,-75.58 3745.57,-75.04 3750.44,-74.43"/>
<polygon fill="midnightblue" stroke="midnightblue" points="2592.89,-108.6 2583.38,-113.28 2593.73,-115.55 2592.89,-108.6"/>
</g>
<!-- Node109 -->
<g id="node40" class="node">
<title>Node109</title>
<g id="a_node40"><a xlink:href="_hybrid_r_a_n_s_l_e_s_a_b_l_8cpp.html" target="_top" xlink:title=" ">
<polygon fill="white" stroke="black" points="3884.5,-0.5 3884.5,-19.5 4017.5,-19.5 4017.5,-0.5 3884.5,-0.5"/>
<text text-anchor="middle" x="3951" y="-7.5" font-family="Helvetica,sans-Serif" font-size="10.00">HybridRANSLESABL.cpp</text>
</a>
</g>
</g>
<!-- Node2&#45;&gt;Node109 -->
<g id="edge46" class="edge">
<title>Node2&#45;&gt;Node109</title>
<path fill="none" stroke="midnightblue" d="M2593.47,-112.47C2740.24,-104.38 3940.2,-130.18 3993,-76 4010.16,-58.39 3981.33,-32.74 3963.48,-19.55"/>
<polygon fill="midnightblue" stroke="midnightblue" points="2593.07,-108.99 2583.38,-113.26 2593.62,-115.97 2593.07,-108.99"/>
</g>
<!-- Node110 -->
<g id="node41" class="node">
<title>Node110</title>
<g id="a_node41"><a xlink:href="_hybrid_r_a_n_s_l_e_s_a_b_l_8_h.html" target="_top" xlink:title=" ">
<polygon fill="white" stroke="black" points="3861.5,-56.5 3861.5,-75.5 3984.5,-75.5 3984.5,-56.5 3861.5,-56.5"/>
<text text-anchor="middle" x="3923" y="-63.5" font-family="Helvetica,sans-Serif" font-size="10.00">HybridRANSLESABL.H</text>
</a>
</g>
</g>
<!-- Node2&#45;&gt;Node110 -->
<g id="edge47" class="edge">
<title>Node2&#45;&gt;Node110</title>
<path fill="none" stroke="midnightblue" d="M2593.67,-112.04C3150,-45.93 3296.85,-119.01 3852,-76 3855.1,-75.76 3858.27,-75.48 3861.46,-75.17"/>
<polygon fill="midnightblue" stroke="midnightblue" points="2592.89,-108.61 2583.38,-113.27 2593.72,-115.56 2592.89,-108.61"/>
</g>
<!-- Node111 -->
<g id="node42" class="node">
<title>Node111</title>
<g id="a_node42"><a xlink:href="_m_m_s_8cpp.html" target="_top" xlink:title=" ">
<polygon fill="white" stroke="black" points="4063.5,-0.5 4063.5,-19.5 4124.5,-19.5 4124.5,-0.5 4063.5,-0.5"/>
<text text-anchor="middle" x="4094" y="-7.5" font-family="Helvetica,sans-Serif" font-size="10.00">MMS.cpp</text>
</a>
</g>
</g>
<!-- Node2&#45;&gt;Node111 -->
<g id="edge49" class="edge">
<title>Node2&#45;&gt;Node111</title>
<path fill="none" stroke="midnightblue" d="M2593.71,-112.62C2733.11,-106.97 4073.72,-104.96 4102,-76 4116.77,-60.87 4105.86,-33.41 4098.78,-19.53"/>
<polygon fill="midnightblue" stroke="midnightblue" points="2593.14,-109.15 2583.38,-113.26 2593.57,-116.14 2593.14,-109.15"/>
</g>
<!-- Node112 -->
<g id="node43" class="node">
<title>Node112</title>
<g id="a_node43"><a xlink:href="_m_m_s_8_h.html" target="_top" xlink:title=" ">
<polygon fill="white" stroke="black" points="4041.5,-56.5 4041.5,-75.5 4092.5,-75.5 4092.5,-56.5 4041.5,-56.5"/>
<text text-anchor="middle" x="4067" y="-63.5" font-family="Helvetica,sans-Serif" font-size="10.00">MMS.H</text>
</a>
</g>
</g>
<!-- Node2&#45;&gt;Node112 -->
<g id="edge50" class="edge">
<title>Node2&#45;&gt;Node112</title>
<path fill="none" stroke="midnightblue" d="M2593.68,-112.05C3227.36,-38.09 3397.26,-153.98 4027,-76 4031.66,-75.42 4036.58,-74.54 4041.31,-73.56"/>
<polygon fill="midnightblue" stroke="midnightblue" points="2592.9,-108.62 2583.38,-113.26 2593.72,-115.57 2592.9,-108.62"/>
</g>
<!-- Node113 -->
<g id="node44" class="node">
<title>Node113</title>
<g id="a_node44"><a xlink:href="_m_m_s_forcing_8cpp.html" target="_top" xlink:title=" ">
<polygon fill="white" stroke="black" points="4149,-56.5 4149,-75.5 4245,-75.5 4245,-56.5 4149,-56.5"/>
<text text-anchor="middle" x="4197" y="-63.5" font-family="Helvetica,sans-Serif" font-size="10.00">MMSForcing.cpp</text>
</a>
</g>
</g>
<!-- Node2&#45;&gt;Node113 -->
<g id="edge52" class="edge">
<title>Node2&#45;&gt;Node113</title>
<path fill="none" stroke="midnightblue" d="M2593.45,-112.08C3275.01,-32.77 3454.78,-133.1 4135,-76 4139.44,-75.63 4144.05,-75.14 4148.66,-74.59"/>
<polygon fill="midnightblue" stroke="midnightblue" points="2592.9,-108.62 2583.38,-113.26 2593.72,-115.57 2592.9,-108.62"/>
</g>
<!-- Node114 -->
<g id="node45" class="node">
<title>Node114</title>
<g id="a_node45"><a xlink:href="_breaking_waves_8cpp.html" target="_top" xlink:title=" ">
<polygon fill="white" stroke="black" points="4263.5,-56.5 4263.5,-75.5 4376.5,-75.5 4376.5,-56.5 4263.5,-56.5"/>
<text text-anchor="middle" x="4320" y="-63.5" font-family="Helvetica,sans-Serif" font-size="10.00">BreakingWaves.cpp</text>
</a>
</g>
</g>
<!-- Node2&#45;&gt;Node114 -->
<g id="edge53" class="edge">
<title>Node2&#45;&gt;Node114</title>
<path fill="none" stroke="midnightblue" d="M2593.4,-112.08C3327.58,-27.18 3520.77,-133.75 4254,-76 4257,-75.76 4260.07,-75.48 4263.16,-75.17"/>
<polygon fill="midnightblue" stroke="midnightblue" points="2592.9,-108.62 2583.38,-113.25 2593.71,-115.57 2592.9,-108.62"/>
</g>
<!-- Node115 -->
<g id="node46" class="node">
<title>Node115</title>
<g id="a_node46"><a xlink:href="_dam_break_8cpp.html" target="_top" xlink:title=" ">
<polygon fill="white" stroke="black" points="4394.5,-56.5 4394.5,-75.5 4483.5,-75.5 4483.5,-56.5 4394.5,-56.5"/>
<text text-anchor="middle" x="4439" y="-63.5" font-family="Helvetica,sans-Serif" font-size="10.00">DamBreak.cpp</text>
</a>
</g>
</g>
<!-- Node2&#45;&gt;Node115 -->
<g id="edge54" class="edge">
<title>Node2&#45;&gt;Node115</title>
<path fill="none" stroke="midnightblue" d="M2593.32,-112.1C3385.91,-21.11 3595.33,-150.65 4386,-76 4388.69,-75.75 4391.46,-75.43 4394.24,-75.08"/>
<polygon fill="midnightblue" stroke="midnightblue" points="2592.91,-108.62 2583.37,-113.25 2593.71,-115.58 2592.91,-108.62"/>
</g>
<!-- Node59 -->
<g id="node47" class="node">
<title>Node59</title>
<g id="a_node47"><a xlink:href="_multi_phase_8cpp.html" target="_top" xlink:title=" ">
<polygon fill="white" stroke="black" points="4501.5,-56.5 4501.5,-75.5 4592.5,-75.5 4592.5,-56.5 4501.5,-56.5"/>
<text text-anchor="middle" x="4547" y="-63.5" font-family="Helvetica,sans-Serif" font-size="10.00">MultiPhase.cpp</text>
</a>
</g>
</g>
<!-- Node2&#45;&gt;Node59 -->
<g id="edge55" class="edge">
<title>Node2&#45;&gt;Node59</title>
<path fill="none" stroke="midnightblue" d="M2593.59,-112.07C3433.24,-16.14 3654.93,-153.36 4493,-76 4495.74,-75.75 4498.56,-75.44 4501.4,-75.08"/>
<polygon fill="midnightblue" stroke="midnightblue" points="2592.91,-108.62 2583.37,-113.24 2593.71,-115.58 2592.91,-108.62"/>
</g>
<!-- Node116 -->
<g id="node48" class="node">
<title>Node116</title>
<g id="a_node48"><a xlink:href="_rain_drop_8cpp.html" target="_top" xlink:title=" ">
<polygon fill="white" stroke="black" points="4611,-56.5 4611,-75.5 4693,-75.5 4693,-56.5 4611,-56.5"/>
<text text-anchor="middle" x="4652" y="-63.5" font-family="Helvetica,sans-Serif" font-size="10.00">RainDrop.cpp</text>
</a>
</g>
</g>
<!-- Node2&#45;&gt;Node116 -->
<g id="edge56" class="edge">
<title>Node2&#45;&gt;Node116</title>
<path fill="none" stroke="midnightblue" d="M2593.42,-112.11C3052.21,-61.81 4160.66,-119.39 4602,-76 4604.9,-75.72 4607.88,-75.35 4610.87,-74.94"/>
<polygon fill="midnightblue" stroke="midnightblue" points="2592.92,-108.64 2583.37,-113.24 2593.7,-115.6 2592.92,-108.64"/>
</g>
<!-- Node117 -->
<g id="node49" class="node">
<title>Node117</title>
<g id="a_node49"><a xlink:href="_sloshing_tank_8cpp.html" target="_top" xlink:title=" ">
<polygon fill="white" stroke="black" points="4711.5,-56.5 4711.5,-75.5 4812.5,-75.5 4812.5,-56.5 4711.5,-56.5"/>
<text text-anchor="middle" x="4762" y="-63.5" font-family="Helvetica,sans-Serif" font-size="10.00">SloshingTank.cpp</text>
</a>
</g>
</g>
<!-- Node2&#45;&gt;Node117 -->
<g id="edge57" class="edge">
<title>Node2&#45;&gt;Node117</title>
<path fill="none" stroke="midnightblue" d="M2593.56,-112.09C3074.54,-59.41 4237.97,-114.59 4702,-76 4705.04,-75.75 4708.17,-75.44 4711.32,-75.08"/>
<polygon fill="midnightblue" stroke="midnightblue" points="2592.92,-108.64 2583.37,-113.24 2593.7,-115.6 2592.92,-108.64"/>
</g>
<!-- Node53&#45;&gt;Node18 -->
<g id="edge20" class="edge">
<title>Node53&#45;&gt;Node18</title>
<path fill="none" stroke="midnightblue" d="M1846.11,-56.04C1670.42,-29.36 1470.9,-16.29 1402.99,-12.33"/>
<polygon fill="midnightblue" stroke="midnightblue" points="1845.64,-59.5 1856.05,-57.56 1846.7,-52.59 1845.64,-59.5"/>
</g>
<!-- Node101&#45;&gt;Node10 -->
<g id="edge34" class="edge">
<title>Node101&#45;&gt;Node10</title>
<path fill="none" stroke="midnightblue" d="M3099.88,-55.96C2914.09,-33.77 2706.96,-20.51 2601.82,-14.6"/>
<polygon fill="midnightblue" stroke="midnightblue" points="3099.48,-59.44 3109.83,-57.16 3100.32,-52.49 3099.48,-59.44"/>
</g>
<!-- Node101&#45;&gt;Node100 -->
<g id="edge35" class="edge">
<title>Node101&#45;&gt;Node100</title>
<path fill="none" stroke="midnightblue" d="M3160.82,-46.4C3163.17,-37.36 3165.87,-26.94 3167.73,-19.75"/>
<polygon fill="midnightblue" stroke="midnightblue" points="3157.43,-45.52 3158.31,-56.08 3164.21,-47.28 3157.43,-45.52"/>
</g>
<!-- Node103&#45;&gt;Node102 -->
<g id="edge38" class="edge">
<title>Node103&#45;&gt;Node102</title>
<path fill="none" stroke="midnightblue" d="M3307.82,-46.4C3310.17,-37.36 3312.87,-26.94 3314.73,-19.75"/>
<polygon fill="midnightblue" stroke="midnightblue" points="3304.43,-45.52 3305.31,-56.08 3311.21,-47.28 3304.43,-45.52"/>
</g>
<!-- Node105&#45;&gt;Node104 -->
<g id="edge41" class="edge">
<title>Node105&#45;&gt;Node104</title>
<path fill="none" stroke="midnightblue" d="M3481.17,-46.4C3483.68,-37.36 3486.57,-26.94 3488.57,-19.75"/>
<polygon fill="midnightblue" stroke="midnightblue" points="3477.78,-45.51 3478.48,-56.08 3484.53,-47.38 3477.78,-45.51"/>
</g>
<!-- Node107&#45;&gt;Node106 -->
<g id="edge44" class="edge">
<title>Node107&#45;&gt;Node106</title>
<path fill="none" stroke="midnightblue" d="M3660.62,-47.57C3666.82,-38.27 3674.17,-27.25 3679.17,-19.75"/>
<polygon fill="midnightblue" stroke="midnightblue" points="3657.58,-45.82 3654.94,-56.08 3663.4,-49.7 3657.58,-45.82"/>
</g>
<!-- Node110&#45;&gt;Node109 -->
<g id="edge48" class="edge">
<title>Node110&#45;&gt;Node109</title>
<path fill="none" stroke="midnightblue" d="M3932.34,-46.98C3937.09,-37.82 3942.66,-27.09 3946.46,-19.75"/>
<polygon fill="midnightblue" stroke="midnightblue" points="3929.12,-45.59 3927.62,-56.08 3935.33,-48.82 3929.12,-45.59"/>
</g>
<!-- Node112&#45;&gt;Node111 -->
<g id="edge51" class="edge">
<title>Node112&#45;&gt;Node111</title>
<path fill="none" stroke="midnightblue" d="M4076.01,-46.98C4080.59,-37.82 4085.95,-27.09 4089.62,-19.75"/>
<polygon fill="midnightblue" stroke="midnightblue" points="4072.8,-45.57 4071.46,-56.08 4079.06,-48.7 4072.8,-45.57"/>
</g>
</g>
</svg>
