<?xml version="1.0" encoding="UTF-8" standalone="no"?>
<!DOCTYPE svg PUBLIC "-//W3C//DTD SVG 1.1//EN"
 "http://www.w3.org/Graphics/SVG/1.1/DTD/svg11.dtd">
<!-- Generated by graphviz version 2.43.0 (0)
 -->
<!-- Title: Graphical Class Hierarchy Pages: 1 -->
<svg width="483pt" height="151pt"
 viewBox="0.00 0.00 483.00 150.50" xmlns="http://www.w3.org/2000/svg" xmlns:xlink="http://www.w3.org/1999/xlink">
<g id="graph0" class="graph" transform="scale(1 1) rotate(0) translate(4 146.5)">
<title>Graphical Class Hierarchy</title>
<polygon fill="white" stroke="transparent" points="-4,4 -4,-146.5 479,-146.5 479,4 -4,4"/>
<!-- Node0 -->
<g id="node1" class="node">
<title>Node0</title>
<g id="a_node1"><a xlink:href="classamr__wind_1_1_field_fill_patch_ops_base.html" target="_top" xlink:title="Abstract interface for classes that handle fill patch and physical boundary condition operations for ...">
<polygon fill="white" stroke="black" points="0,-49.5 0,-79.5 134,-79.5 134,-49.5 0,-49.5"/>
<text text-anchor="start" x="8" y="-67.5" font-family="Helvetica,sans-Serif" font-size="10.00">amr_wind::FieldFillPatch</text>
<text text-anchor="middle" x="67" y="-56.5" font-family="Helvetica,sans-Serif" font-size="10.00">OpsBase</text>
</a>
</g>
</g>
<!-- Node1 -->
<g id="node2" class="node">
<title>Node1</title>
<g id="a_node2"><a xlink:href="classamr__wind_1_1_field_fill_patch_ops.html" target="_top" xlink:title=" ">
<polygon fill="white" stroke="black" points="171,-98.5 171,-128.5 305,-128.5 305,-98.5 171,-98.5"/>
<text text-anchor="start" x="179" y="-116.5" font-family="Helvetica,sans-Serif" font-size="10.00">amr_wind::FieldFillPatch</text>
<text text-anchor="middle" x="238" y="-105.5" font-family="Helvetica,sans-Serif" font-size="10.00">Ops&lt; FieldBCNoOp &gt;</text>
</a>
</g>
</g>
<!-- Node0&#45;&gt;Node1 -->
<g id="edge1" class="edge">
<title>Node0&#45;&gt;Node1</title>
<path fill="none" stroke="midnightblue" d="M129.72,-82.39C147.89,-87.66 167.59,-93.38 185.09,-98.45"/>
<polygon fill="midnightblue" stroke="midnightblue" points="130.66,-79.02 120.08,-79.6 128.71,-85.75 130.66,-79.02"/>
</g>
<!-- Node4 -->
<g id="node5" class="node">
<title>Node4</title>
<g id="a_node5"><a xlink:href="classamr__wind_1_1_field_fill_const_scalar.html" target="_top" xlink:title="Implementation that just fills a constant value on newly created grids.">
<polygon fill="white" stroke="black" points="170,-49.5 170,-79.5 306,-79.5 306,-49.5 170,-49.5"/>
<text text-anchor="start" x="178" y="-67.5" font-family="Helvetica,sans-Serif" font-size="10.00">amr_wind::FieldFillConst</text>
<text text-anchor="middle" x="238" y="-56.5" font-family="Helvetica,sans-Serif" font-size="10.00">Scalar</text>
</a>
</g>
</g>
<!-- Node0&#45;&gt;Node4 -->
<g id="edge4" class="edge">
<title>Node0&#45;&gt;Node4</title>
<path fill="none" stroke="midnightblue" d="M144.51,-64.5C152.94,-64.5 161.47,-64.5 169.77,-64.5"/>
<polygon fill="midnightblue" stroke="midnightblue" points="144.31,-61 134.31,-64.5 144.31,-68 144.31,-61"/>
</g>
<!-- Node5 -->
<g id="node6" class="node">
<title>Node5</title>
<g id="a_node6"><a xlink:href="classamr__wind_1_1_field_fill_patch_ops.html" target="_top" xlink:title="Concrete implementation of filling patches and boundary conditions on multi&#45;level AMR meshes.">
<polygon fill="white" stroke="black" points="171,-0.5 171,-30.5 305,-30.5 305,-0.5 171,-0.5"/>
<text text-anchor="start" x="179" y="-18.5" font-family="Helvetica,sans-Serif" font-size="10.00">amr_wind::FieldFillPatch</text>
<text text-anchor="middle" x="238" y="-7.5" font-family="Helvetica,sans-Serif" font-size="10.00">Ops&lt; BCOpCreator &gt;</text>
</a>
</g>
</g>
<!-- Node0&#45;&gt;Node5 -->
<g id="edge5" class="edge">
<title>Node0&#45;&gt;Node5</title>
<path fill="none" stroke="midnightblue" d="M129.72,-46.61C147.89,-41.34 167.59,-35.62 185.09,-30.55"/>
<polygon fill="midnightblue" stroke="midnightblue" points="128.71,-43.25 120.08,-49.4 130.66,-49.98 128.71,-43.25"/>
</g>
<!-- Node2 -->
<g id="node3" class="node">
<title>Node2</title>
<g id="a_node3"><a xlink:href="classamr__wind_1_1_a_b_l_fill_inflow.html" target="_top" xlink:title="Operations to perform inflow of data from boundary planes.">
<polygon fill="white" stroke="black" points="342,-123 342,-142 475,-142 475,-123 342,-123"/>
<text text-anchor="middle" x="408.5" y="-130" font-family="Helvetica,sans-Serif" font-size="10.00">amr_wind::ABLFillInflow</text>
</a>
</g>
</g>
<!-- Node1&#45;&gt;Node2 -->
<g id="edge2" class="edge">
<title>Node1&#45;&gt;Node2</title>
<path fill="none" stroke="midnightblue" d="M315.12,-122.08C324.04,-123.09 333.09,-124.11 341.85,-125.1"/>
<polygon fill="midnightblue" stroke="midnightblue" points="315.44,-118.6 305.11,-120.95 314.66,-125.55 315.44,-118.6"/>
</g>
<!-- Node3 -->
<g id="node4" class="node">
<title>Node3</title>
<g id="a_node4"><a xlink:href="classamr__wind_1_1_a_b_l_fill_m_p_l.html" target="_top" xlink:title="Operations to perform inflow of data from boundary planes.">
<polygon fill="white" stroke="black" points="346.5,-85 346.5,-104 470.5,-104 470.5,-85 346.5,-85"/>
<text text-anchor="middle" x="408.5" y="-92" font-family="Helvetica,sans-Serif" font-size="10.00">amr_wind::ABLFillMPL</text>
</a>
</g>
</g>
<!-- Node1&#45;&gt;Node3 -->
<g id="edge3" class="edge">
<title>Node1&#45;&gt;Node3</title>
<path fill="none" stroke="midnightblue" d="M315.05,-104.92C325.5,-103.75 336.12,-102.55 346.25,-101.41"/>
<polygon fill="midnightblue" stroke="midnightblue" points="314.66,-101.45 305.11,-106.05 315.44,-108.4 314.66,-101.45"/>
</g>
</g>
</svg>
