<?xml version="1.0" encoding="UTF-8" standalone="no"?>
<!DOCTYPE svg PUBLIC "-//W3C//DTD SVG 1.1//EN"
 "http://www.w3.org/Graphics/SVG/1.1/DTD/svg11.dtd">
<!-- Generated by graphviz version 2.43.0 (0)
 -->
<!-- Title: Graphical Class Hierarchy Pages: 1 -->
<svg width="1115pt" height="186pt"
 viewBox="0.00 0.00 1115.00 186.00" xmlns="http://www.w3.org/2000/svg" xmlns:xlink="http://www.w3.org/1999/xlink">
<g id="graph0" class="graph" transform="scale(1 1) rotate(0) translate(4 182)">
<title>Graphical Class Hierarchy</title>
<polygon fill="white" stroke="transparent" points="-4,4 -4,-182 1111,-182 1111,4 -4,4"/>
<!-- Node0 -->
<g id="node1" class="node">
<title>Node0</title>
<g id="a_node1"><a xlink:href="structamr__wind_1_1_factory.html" target="_top" xlink:title=" ">
<polygon fill="white" stroke="black" points="0,-97.5 0,-127.5 169,-127.5 169,-97.5 0,-97.5"/>
<text text-anchor="start" x="8" y="-115.5" font-family="Helvetica,sans-Serif" font-size="10.00">amr_wind::Factory&lt;</text>
<text text-anchor="middle" x="84.5" y="-104.5" font-family="Helvetica,sans-Serif" font-size="10.00"> TurbulenceModel, CFDSim &amp; &gt;</text>
</a>
</g>
</g>
<!-- Node1 -->
<g id="node2" class="node">
<title>Node1</title>
<g id="a_node2"><a xlink:href="classamr__wind_1_1turbulence_1_1_turbulence_model.html" target="_top" xlink:title="Abstract representation of a turbulence model.">
<polygon fill="white" stroke="black" points="205,-97.5 205,-127.5 327,-127.5 327,-97.5 205,-97.5"/>
<text text-anchor="start" x="213" y="-115.5" font-family="Helvetica,sans-Serif" font-size="10.00">amr_wind::turbulence</text>
<text text-anchor="middle" x="266" y="-104.5" font-family="Helvetica,sans-Serif" font-size="10.00">::TurbulenceModel</text>
</a>
</g>
</g>
<!-- Node0&#45;&gt;Node1 -->
<g id="edge1" class="edge">
<title>Node0&#45;&gt;Node1</title>
<path fill="none" stroke="midnightblue" d="M179.4,-112.5C188.08,-112.5 196.71,-112.5 204.96,-112.5"/>
<polygon fill="midnightblue" stroke="midnightblue" points="179.21,-109 169.21,-112.5 179.21,-116 179.21,-109"/>
</g>
<!-- Node2 -->
<g id="node3" class="node">
<title>Node2</title>
<g id="a_node3"><a xlink:href="classamr__wind_1_1turbulence_1_1_turb_model.html" target="_top" xlink:title="Turbulence model with a specific transport model.">
<polygon fill="white" stroke="black" points="363,-97.5 363,-127.5 503,-127.5 503,-97.5 363,-97.5"/>
<text text-anchor="start" x="371" y="-115.5" font-family="Helvetica,sans-Serif" font-size="10.00">amr_wind::turbulence</text>
<text text-anchor="middle" x="433" y="-104.5" font-family="Helvetica,sans-Serif" font-size="10.00">::TurbModel&lt; Transport &gt;</text>
</a>
</g>
</g>
<!-- Node1&#45;&gt;Node2 -->
<g id="edge2" class="edge">
<title>Node1&#45;&gt;Node2</title>
<path fill="none" stroke="midnightblue" d="M337.24,-112.5C345.7,-112.5 354.33,-112.5 362.77,-112.5"/>
<polygon fill="midnightblue" stroke="midnightblue" points="337.04,-109 327.04,-112.5 337.04,-116 337.04,-109"/>
</g>
<!-- Node3 -->
<g id="node4" class="node">
<title>Node3</title>
<g id="a_node4"><a xlink:href="classamr__wind_1_1turbulence_1_1_laminar.html" target="_top" xlink:title="Laminar model.">
<polygon fill="white" stroke="black" points="556,-122.5 556,-152.5 686,-152.5 686,-122.5 556,-122.5"/>
<text text-anchor="start" x="564" y="-140.5" font-family="Helvetica,sans-Serif" font-size="10.00">amr_wind::turbulence</text>
<text text-anchor="middle" x="621" y="-129.5" font-family="Helvetica,sans-Serif" font-size="10.00">::Laminar&lt; Transport &gt;</text>
</a>
</g>
</g>
<!-- Node2&#45;&gt;Node3 -->
<g id="edge3" class="edge">
<title>Node2&#45;&gt;Node3</title>
<path fill="none" stroke="midnightblue" d="M513.48,-123.18C527.65,-125.09 542.24,-127.05 555.91,-128.89"/>
<polygon fill="midnightblue" stroke="midnightblue" points="513.64,-119.67 503.26,-121.81 512.7,-126.61 513.64,-119.67"/>
</g>
<!-- Node4 -->
<g id="node5" class="node">
<title>Node4</title>
<g id="a_node5"><a xlink:href="classamr__wind_1_1turbulence_1_1_turb_model_base.html" target="_top" xlink:title="Turbulence model aspects common to both LES and RANS models.">
<polygon fill="white" stroke="black" points="539,-73.5 539,-103.5 703,-103.5 703,-73.5 539,-73.5"/>
<text text-anchor="start" x="547" y="-91.5" font-family="Helvetica,sans-Serif" font-size="10.00">amr_wind::turbulence</text>
<text text-anchor="middle" x="621" y="-80.5" font-family="Helvetica,sans-Serif" font-size="10.00">::TurbModelBase&lt; Transport &gt;</text>
</a>
</g>
</g>
<!-- Node2&#45;&gt;Node4 -->
<g id="edge4" class="edge">
<title>Node2&#45;&gt;Node4</title>
<path fill="none" stroke="midnightblue" d="M513.4,-102.25C521.8,-101.17 530.34,-100.07 538.76,-98.98"/>
<polygon fill="midnightblue" stroke="midnightblue" points="512.73,-98.81 503.26,-103.56 513.63,-105.75 512.73,-98.81"/>
</g>
<!-- Node5 -->
<g id="node6" class="node">
<title>Node5</title>
<g id="a_node6"><a xlink:href="classamr__wind_1_1turbulence_1_1_a_m_d.html" target="_top" xlink:title="AMD LES Model.">
<polygon fill="white" stroke="black" points="754.5,-147.5 754.5,-177.5 876.5,-177.5 876.5,-147.5 754.5,-147.5"/>
<text text-anchor="start" x="762.5" y="-165.5" font-family="Helvetica,sans-Serif" font-size="10.00">amr_wind::turbulence</text>
<text text-anchor="middle" x="815.5" y="-154.5" font-family="Helvetica,sans-Serif" font-size="10.00">::AMD&lt; Transport &gt;</text>
</a>
</g>
</g>
<!-- Node4&#45;&gt;Node5 -->
<g id="edge5" class="edge">
<title>Node4&#45;&gt;Node5</title>
<path fill="none" stroke="midnightblue" d="M688.37,-107.13C693.39,-109.1 698.32,-111.22 703,-113.5 720.51,-122.03 721.52,-129.9 739,-138.5 745.66,-141.78 752.88,-144.74 760.11,-147.38"/>
<polygon fill="midnightblue" stroke="midnightblue" points="689.23,-103.71 678.64,-103.52 686.8,-110.28 689.23,-103.71"/>
</g>
<!-- Node6 -->
<g id="node7" class="node">
<title>Node6</title>
<g id="a_node7"><a xlink:href="classamr__wind_1_1turbulence_1_1_k_omega_s_s_t.html" target="_top" xlink:title="K&#45;Omega&#45;SST RANS turbulence model.">
<polygon fill="white" stroke="black" points="741,-98.5 741,-128.5 890,-128.5 890,-98.5 741,-98.5"/>
<text text-anchor="start" x="749" y="-116.5" font-family="Helvetica,sans-Serif" font-size="10.00">amr_wind::turbulence</text>
<text text-anchor="middle" x="815.5" y="-105.5" font-family="Helvetica,sans-Serif" font-size="10.00">::KOmegaSST&lt; Transport &gt;</text>
</a>
</g>
</g>
<!-- Node4&#45;&gt;Node6 -->
<g id="edge6" class="edge">
<title>Node4&#45;&gt;Node6</title>
<path fill="none" stroke="midnightblue" d="M713.13,-100.33C722.42,-101.54 731.79,-102.76 740.86,-103.94"/>
<polygon fill="midnightblue" stroke="midnightblue" points="713.45,-96.85 703.08,-99.03 712.55,-103.79 713.45,-96.85"/>
</g>
<!-- Node8 -->
<g id="node9" class="node">
<title>Node8</title>
<g id="a_node9"><a xlink:href="classamr__wind_1_1turbulence_1_1_one_eq_ksgs.html" target="_top" xlink:title="Base class for 1&#45;Equation subgrid scale TKE turbulence model.">
<polygon fill="white" stroke="black" points="743,-49.5 743,-79.5 888,-79.5 888,-49.5 743,-49.5"/>
<text text-anchor="start" x="751" y="-67.5" font-family="Helvetica,sans-Serif" font-size="10.00">amr_wind::turbulence</text>
<text text-anchor="middle" x="815.5" y="-56.5" font-family="Helvetica,sans-Serif" font-size="10.00">::OneEqKsgs&lt; Transport &gt;</text>
</a>
</g>
</g>
<!-- Node4&#45;&gt;Node8 -->
<g id="edge8" class="edge">
<title>Node4&#45;&gt;Node8</title>
<path fill="none" stroke="midnightblue" d="M713.08,-77.14C723.12,-75.89 733.23,-74.63 742.99,-73.42"/>
<polygon fill="midnightblue" stroke="midnightblue" points="712.57,-73.68 703.08,-78.39 713.44,-80.63 712.57,-73.68"/>
</g>
<!-- Node11 -->
<g id="node12" class="node">
<title>Node11</title>
<g id="a_node12"><a xlink:href="classamr__wind_1_1turbulence_1_1_smagorinsky.html" target="_top" xlink:title="Smagorinsky LES Model.">
<polygon fill="white" stroke="black" points="739,-0.5 739,-30.5 892,-30.5 892,-0.5 739,-0.5"/>
<text text-anchor="start" x="747" y="-18.5" font-family="Helvetica,sans-Serif" font-size="10.00">amr_wind::turbulence</text>
<text text-anchor="middle" x="815.5" y="-7.5" font-family="Helvetica,sans-Serif" font-size="10.00">::Smagorinsky&lt; Transport &gt;</text>
</a>
</g>
</g>
<!-- Node4&#45;&gt;Node11 -->
<g id="edge11" class="edge">
<title>Node4&#45;&gt;Node11</title>
<path fill="none" stroke="midnightblue" d="M666.14,-69.54C687.93,-60.4 714.7,-49.5 739,-40.5 748.06,-37.14 757.82,-33.76 767.2,-30.6"/>
<polygon fill="midnightblue" stroke="midnightblue" points="664.67,-66.36 656.82,-73.47 667.39,-72.81 664.67,-66.36"/>
</g>
<!-- Node7 -->
<g id="node8" class="node">
<title>Node7</title>
<g id="a_node8"><a xlink:href="classamr__wind_1_1turbulence_1_1_k_omega_s_s_t_i_d_d_e_s.html" target="_top" xlink:title="K&#45;Omega&#45;SST&#45;IDDES Hybrid RANS/LES turbulence model.">
<polygon fill="white" stroke="black" points="928,-98.5 928,-128.5 1107,-128.5 1107,-98.5 928,-98.5"/>
<text text-anchor="start" x="936" y="-116.5" font-family="Helvetica,sans-Serif" font-size="10.00">amr_wind::turbulence</text>
<text text-anchor="middle" x="1017.5" y="-105.5" font-family="Helvetica,sans-Serif" font-size="10.00">::KOmegaSSTIDDES&lt; Transport &gt;</text>
</a>
</g>
</g>
<!-- Node6&#45;&gt;Node7 -->
<g id="edge7" class="edge">
<title>Node6&#45;&gt;Node7</title>
<path fill="none" stroke="midnightblue" d="M900.28,-113.5C909.37,-113.5 918.63,-113.5 927.77,-113.5"/>
<polygon fill="midnightblue" stroke="midnightblue" points="900.12,-110 890.12,-113.5 900.12,-117 900.12,-110"/>
</g>
<!-- Node9 -->
<g id="node10" class="node">
<title>Node9</title>
<g id="a_node10"><a xlink:href="classamr__wind_1_1turbulence_1_1_one_eq_ksgs_m84.html" target="_top" xlink:title="1&#45;equation subgrid scale TKE turbulence model">
<polygon fill="white" stroke="black" points="934.5,-49.5 934.5,-79.5 1100.5,-79.5 1100.5,-49.5 934.5,-49.5"/>
<text text-anchor="start" x="942.5" y="-67.5" font-family="Helvetica,sans-Serif" font-size="10.00">amr_wind::turbulence</text>
<text text-anchor="middle" x="1017.5" y="-56.5" font-family="Helvetica,sans-Serif" font-size="10.00">::OneEqKsgsM84&lt; Transport &gt;</text>
</a>
</g>
</g>
<!-- Node8&#45;&gt;Node9 -->
<g id="edge9" class="edge">
<title>Node8&#45;&gt;Node9</title>
<path fill="none" stroke="midnightblue" d="M898.47,-64.5C910.36,-64.5 922.59,-64.5 934.47,-64.5"/>
<polygon fill="midnightblue" stroke="midnightblue" points="898.14,-61 888.14,-64.5 898.14,-68 898.14,-61"/>
</g>
<!-- Node10 -->
<g id="node11" class="node">
<title>Node10</title>
<g id="a_node11"><a xlink:href="classamr__wind_1_1turbulence_1_1_one_eq_ksgs_s94.html" target="_top" xlink:title="1&#45;equation subgrid scale TKE turbulence model">
<polygon fill="white" stroke="black" points="936,-0.5 936,-30.5 1099,-30.5 1099,-0.5 936,-0.5"/>
<text text-anchor="start" x="944" y="-18.5" font-family="Helvetica,sans-Serif" font-size="10.00">amr_wind::turbulence</text>
<text text-anchor="middle" x="1017.5" y="-7.5" font-family="Helvetica,sans-Serif" font-size="10.00">::OneEqKsgsS94&lt; Transport &gt;</text>
</a>
</g>
</g>
<!-- Node8&#45;&gt;Node10 -->
<g id="edge10" class="edge">
<title>Node8&#45;&gt;Node10</title>
<path fill="none" stroke="midnightblue" d="M887.83,-47.02C909.88,-41.62 933.95,-35.72 955.25,-30.51"/>
<polygon fill="midnightblue" stroke="midnightblue" points="886.75,-43.69 877.87,-49.47 888.41,-50.49 886.75,-43.69"/>
</g>
</g>
</svg>
