<?xml version="1.0" encoding="UTF-8" standalone="no"?>
<!DOCTYPE svg PUBLIC "-//W3C//DTD SVG 1.1//EN"
 "http://www.w3.org/Graphics/SVG/1.1/DTD/svg11.dtd">
<!-- Generated by graphviz version 2.43.0 (0)
 -->
<!-- Title: stencils.H Pages: 1 -->
<svg width="1891pt" height="308pt"
 viewBox="0.00 0.00 1890.50 308.00" xmlns="http://www.w3.org/2000/svg" xmlns:xlink="http://www.w3.org/1999/xlink">
<g id="graph0" class="graph" transform="scale(1 1) rotate(0) translate(4 304)">
<title>stencils.H</title>
<polygon fill="white" stroke="transparent" points="-4,4 -4,-304 1886.5,-304 1886.5,4 -4,4"/>
<!-- Node1 -->
<g id="node1" class="node">
<title>Node1</title>
<g id="a_node1"><a xlink:title="Second&#45;order finite volume discretization stencil coefficients.">
<polygon fill="#bfbfbf" stroke="black" points="678,-280.5 678,-299.5 743,-299.5 743,-280.5 678,-280.5"/>
<text text-anchor="middle" x="710.5" y="-287.5" font-family="Helvetica,sans-Serif" font-size="10.00">stencils.H</text>
</a>
</g>
</g>
<!-- Node2 -->
<g id="node2" class="node">
<title>Node2</title>
<g id="a_node2"><a xlink:href="fvm__utils_8_h.html" target="_top" xlink:title=" ">
<polygon fill="white" stroke="black" points="634,-224.5 634,-243.5 707,-243.5 707,-224.5 634,-224.5"/>
<text text-anchor="middle" x="670.5" y="-231.5" font-family="Helvetica,sans-Serif" font-size="10.00">fvm_utils.H</text>
</a>
</g>
</g>
<!-- Node1&#45;&gt;Node2 -->
<g id="edge1" class="edge">
<title>Node1&#45;&gt;Node2</title>
<path fill="none" stroke="midnightblue" d="M697.8,-271.86C690.87,-262.5 682.59,-251.33 676.98,-243.75"/>
<polygon fill="midnightblue" stroke="midnightblue" points="695.13,-274.13 703.89,-280.08 700.75,-269.96 695.13,-274.13"/>
</g>
<!-- Node41 -->
<g id="node41" class="node">
<title>Node41</title>
<g id="a_node41"><a xlink:href="_a_m_d_8_h.html" target="_top" xlink:title=" ">
<polygon fill="white" stroke="black" points="893.5,-224.5 893.5,-243.5 943.5,-243.5 943.5,-224.5 893.5,-224.5"/>
<text text-anchor="middle" x="918.5" y="-231.5" font-family="Helvetica,sans-Serif" font-size="10.00">AMD.H</text>
</a>
</g>
</g>
<!-- Node1&#45;&gt;Node41 -->
<g id="edge54" class="edge">
<title>Node1&#45;&gt;Node41</title>
<path fill="none" stroke="midnightblue" d="M753.17,-277.92C795.34,-266.97 858.44,-250.59 893.22,-241.56"/>
<polygon fill="midnightblue" stroke="midnightblue" points="752.26,-274.54 743.46,-280.44 754.02,-281.32 752.26,-274.54"/>
</g>
<!-- Node3 -->
<g id="node3" class="node">
<title>Node3</title>
<g id="a_node3"><a xlink:href="curvature_8_h.html" target="_top" xlink:title=" ">
<polygon fill="white" stroke="black" points="308.5,-168.5 308.5,-187.5 382.5,-187.5 382.5,-168.5 308.5,-168.5"/>
<text text-anchor="middle" x="345.5" y="-175.5" font-family="Helvetica,sans-Serif" font-size="10.00">curvature.H</text>
</a>
</g>
</g>
<!-- Node2&#45;&gt;Node3 -->
<g id="edge2" class="edge">
<title>Node2&#45;&gt;Node3</title>
<path fill="none" stroke="midnightblue" d="M623.65,-225.93C568.16,-217.45 472.95,-202.53 391.5,-188 388.62,-187.49 385.63,-186.94 382.64,-186.38"/>
<polygon fill="midnightblue" stroke="midnightblue" points="623.46,-229.44 633.87,-227.49 624.52,-222.52 623.46,-229.44"/>
</g>
<!-- Node6 -->
<g id="node6" class="node">
<title>Node6</title>
<g id="a_node6"><a xlink:href="divergence_8_h.html" target="_top" xlink:title=" ">
<polygon fill="white" stroke="black" points="401,-168.5 401,-187.5 482,-187.5 482,-168.5 401,-168.5"/>
<text text-anchor="middle" x="441.5" y="-175.5" font-family="Helvetica,sans-Serif" font-size="10.00">divergence.H</text>
</a>
</g>
</g>
<!-- Node2&#45;&gt;Node6 -->
<g id="edge5" class="edge">
<title>Node2&#45;&gt;Node6</title>
<path fill="none" stroke="midnightblue" d="M624.23,-222.09C580.96,-211.89 517.24,-196.86 477.62,-187.52"/>
<polygon fill="midnightblue" stroke="midnightblue" points="623.68,-225.55 634.21,-224.44 625.28,-218.74 623.68,-225.55"/>
</g>
<!-- Node7 -->
<g id="node7" class="node">
<title>Node7</title>
<g id="a_node7"><a xlink:href="filter_8_h.html" target="_top" xlink:title=" ">
<polygon fill="white" stroke="black" points="241,-168.5 241,-187.5 290,-187.5 290,-168.5 241,-168.5"/>
<text text-anchor="middle" x="265.5" y="-175.5" font-family="Helvetica,sans-Serif" font-size="10.00">filter.H</text>
</a>
</g>
</g>
<!-- Node2&#45;&gt;Node7 -->
<g id="edge7" class="edge">
<title>Node2&#45;&gt;Node7</title>
<path fill="none" stroke="midnightblue" d="M623.56,-229.4C552.84,-223.5 414.95,-210.17 299.5,-188 296.5,-187.42 293.38,-186.73 290.29,-185.99"/>
<polygon fill="midnightblue" stroke="midnightblue" points="623.65,-232.92 633.91,-230.25 624.23,-225.94 623.65,-232.92"/>
</g>
<!-- Node9 -->
<g id="node9" class="node">
<title>Node9</title>
<g id="a_node9"><a xlink:href="gradient_8_h.html" target="_top" xlink:title=" ">
<polygon fill="white" stroke="black" points="811.5,-168.5 811.5,-187.5 879.5,-187.5 879.5,-168.5 811.5,-168.5"/>
<text text-anchor="middle" x="845.5" y="-175.5" font-family="Helvetica,sans-Serif" font-size="10.00">gradient.H</text>
</a>
</g>
</g>
<!-- Node2&#45;&gt;Node9 -->
<g id="edge10" class="edge">
<title>Node2&#45;&gt;Node9</title>
<path fill="none" stroke="midnightblue" d="M707.97,-221.44C740.97,-211.26 788.26,-196.66 817.9,-187.52"/>
<polygon fill="midnightblue" stroke="midnightblue" points="706.75,-218.15 698.23,-224.44 708.82,-224.84 706.75,-218.15"/>
</g>
<!-- Node34 -->
<g id="node34" class="node">
<title>Node34</title>
<g id="a_node34"><a xlink:href="laplacian_8_h.html" target="_top" xlink:title=" ">
<polygon fill="white" stroke="black" points="500,-168.5 500,-187.5 571,-187.5 571,-168.5 500,-168.5"/>
<text text-anchor="middle" x="535.5" y="-175.5" font-family="Helvetica,sans-Serif" font-size="10.00">laplacian.H</text>
</a>
</g>
</g>
<!-- Node2&#45;&gt;Node34 -->
<g id="edge38" class="edge">
<title>Node2&#45;&gt;Node34</title>
<path fill="none" stroke="midnightblue" d="M639.59,-220.64C614.26,-210.5 579.07,-196.43 556.79,-187.52"/>
<polygon fill="midnightblue" stroke="midnightblue" points="638.52,-223.98 649.11,-224.44 641.12,-217.48 638.52,-223.98"/>
</g>
<!-- Node35 -->
<g id="node35" class="node">
<title>Node35</title>
<g id="a_node35"><a xlink:href="qcriterion_8_h.html" target="_top" xlink:title=" ">
<polygon fill="white" stroke="black" points="589.5,-168.5 589.5,-187.5 663.5,-187.5 663.5,-168.5 589.5,-168.5"/>
<text text-anchor="middle" x="626.5" y="-175.5" font-family="Helvetica,sans-Serif" font-size="10.00">qcriterion.H</text>
</a>
</g>
</g>
<!-- Node2&#45;&gt;Node35 -->
<g id="edge40" class="edge">
<title>Node2&#45;&gt;Node35</title>
<path fill="none" stroke="midnightblue" d="M656.77,-216.14C649.1,-206.74 639.87,-195.4 633.63,-187.75"/>
<polygon fill="midnightblue" stroke="midnightblue" points="654.2,-218.54 663.23,-224.08 659.63,-214.12 654.2,-218.54"/>
</g>
<!-- Node36 -->
<g id="node36" class="node">
<title>Node36</title>
<g id="a_node36"><a xlink:href="strainrate_8_h.html" target="_top" xlink:title=" ">
<polygon fill="white" stroke="black" points="1081.5,-168.5 1081.5,-187.5 1155.5,-187.5 1155.5,-168.5 1081.5,-168.5"/>
<text text-anchor="middle" x="1118.5" y="-175.5" font-family="Helvetica,sans-Serif" font-size="10.00">strainrate.H</text>
</a>
</g>
</g>
<!-- Node2&#45;&gt;Node36 -->
<g id="edge42" class="edge">
<title>Node2&#45;&gt;Node36</title>
<path fill="none" stroke="midnightblue" d="M717.28,-227.36C806.66,-216.59 1000.05,-193.28 1081.33,-183.48"/>
<polygon fill="midnightblue" stroke="midnightblue" points="716.67,-223.91 707.16,-228.58 717.51,-230.86 716.67,-223.91"/>
</g>
<!-- Node38 -->
<g id="node38" class="node">
<title>Node38</title>
<g id="a_node38"><a xlink:href="vorticity_8_h.html" target="_top" xlink:title=" ">
<polygon fill="white" stroke="black" points="681.5,-168.5 681.5,-187.5 747.5,-187.5 747.5,-168.5 681.5,-168.5"/>
<text text-anchor="middle" x="714.5" y="-175.5" font-family="Helvetica,sans-Serif" font-size="10.00">vorticity.H</text>
</a>
</g>
</g>
<!-- Node2&#45;&gt;Node38 -->
<g id="edge48" class="edge">
<title>Node2&#45;&gt;Node38</title>
<path fill="none" stroke="midnightblue" d="M684.23,-216.14C691.9,-206.74 701.13,-195.4 707.37,-187.75"/>
<polygon fill="midnightblue" stroke="midnightblue" points="681.37,-214.12 677.77,-224.08 686.8,-218.54 681.37,-214.12"/>
</g>
<!-- Node39 -->
<g id="node39" class="node">
<title>Node39</title>
<g id="a_node39"><a xlink:href="vorticity__mag_8_h.html" target="_top" xlink:title=" ">
<polygon fill="white" stroke="black" points="1174,-168.5 1174,-187.5 1269,-187.5 1269,-168.5 1174,-168.5"/>
<text text-anchor="middle" x="1221.5" y="-175.5" font-family="Helvetica,sans-Serif" font-size="10.00">vorticity_mag.H</text>
</a>
</g>
</g>
<!-- Node2&#45;&gt;Node39 -->
<g id="edge51" class="edge">
<title>Node2&#45;&gt;Node39</title>
<path fill="none" stroke="midnightblue" d="M717.32,-229.77C805.18,-223.47 1000.67,-208.37 1164.5,-188 1167.58,-187.62 1170.75,-187.19 1173.95,-186.75"/>
<polygon fill="midnightblue" stroke="midnightblue" points="716.88,-226.29 707.15,-230.49 717.38,-233.27 716.88,-226.29"/>
</g>
<!-- Node4 -->
<g id="node4" class="node">
<title>Node4</title>
<g id="a_node4"><a xlink:href="fvm_8_h.html" target="_top" xlink:title=" ">
<polygon fill="white" stroke="black" points="299,-112.5 299,-131.5 346,-131.5 346,-112.5 299,-112.5"/>
<text text-anchor="middle" x="322.5" y="-119.5" font-family="Helvetica,sans-Serif" font-size="10.00">fvm.H</text>
</a>
</g>
</g>
<!-- Node3&#45;&gt;Node4 -->
<g id="edge3" class="edge">
<title>Node3&#45;&gt;Node4</title>
<path fill="none" stroke="midnightblue" d="M337.7,-158.69C333.82,-149.59 329.32,-139.01 326.23,-131.75"/>
<polygon fill="midnightblue" stroke="midnightblue" points="334.56,-160.25 341.7,-168.08 341,-157.51 334.56,-160.25"/>
</g>
<!-- Node5 -->
<g id="node5" class="node">
<title>Node5</title>
<g id="a_node5"><a xlink:href="_derived_qty_defs_8cpp.html" target="_top" xlink:title=" ">
<polygon fill="white" stroke="black" points="0,-56.5 0,-75.5 115,-75.5 115,-56.5 0,-56.5"/>
<text text-anchor="middle" x="57.5" y="-63.5" font-family="Helvetica,sans-Serif" font-size="10.00">DerivedQtyDefs.cpp</text>
</a>
</g>
</g>
<!-- Node4&#45;&gt;Node5 -->
<g id="edge4" class="edge">
<title>Node4&#45;&gt;Node5</title>
<path fill="none" stroke="midnightblue" d="M288.66,-111.95C220.2,-96.17 151.98,-83.46 107.06,-75.51"/>
<polygon fill="midnightblue" stroke="midnightblue" points="288.23,-115.44 298.76,-114.3 289.81,-108.62 288.23,-115.44"/>
</g>
<!-- Node6&#45;&gt;Node4 -->
<g id="edge6" class="edge">
<title>Node6&#45;&gt;Node4</title>
<path fill="none" stroke="midnightblue" d="M413.36,-164.23C391.1,-154.13 360.64,-140.31 341.27,-131.52"/>
<polygon fill="midnightblue" stroke="midnightblue" points="412.09,-167.5 422.64,-168.44 414.98,-161.12 412.09,-167.5"/>
</g>
<!-- Node7&#45;&gt;Node4 -->
<g id="edge8" class="edge">
<title>Node7&#45;&gt;Node4</title>
<path fill="none" stroke="midnightblue" d="M282.12,-161.25C292.23,-151.67 304.78,-139.79 313.18,-131.83"/>
<polygon fill="midnightblue" stroke="midnightblue" points="279.51,-158.91 274.66,-168.32 284.32,-163.99 279.51,-158.91"/>
</g>
<!-- Node8 -->
<g id="node8" class="node">
<title>Node8</title>
<g id="a_node8"><a xlink:href="_multi_phase_8cpp.html" target="_top" xlink:title=" ">
<polygon fill="white" stroke="black" points="190,-112.5 190,-131.5 281,-131.5 281,-112.5 190,-112.5"/>
<text text-anchor="middle" x="235.5" y="-119.5" font-family="Helvetica,sans-Serif" font-size="10.00">MultiPhase.cpp</text>
</a>
</g>
</g>
<!-- Node7&#45;&gt;Node8 -->
<g id="edge9" class="edge">
<title>Node7&#45;&gt;Node8</title>
<path fill="none" stroke="midnightblue" d="M255.65,-159.27C250.53,-150.05 244.48,-139.17 240.36,-131.75"/>
<polygon fill="midnightblue" stroke="midnightblue" points="252.63,-161.04 260.55,-168.08 258.75,-157.64 252.63,-161.04"/>
</g>
<!-- Node9&#45;&gt;Node4 -->
<g id="edge11" class="edge">
<title>Node9&#45;&gt;Node4</title>
<path fill="none" stroke="midnightblue" d="M801.21,-172.43C786.94,-170.98 771.05,-169.4 756.5,-168 580.58,-151.11 534.92,-160.44 360.5,-132 355.82,-131.24 350.85,-130.22 346.11,-129.14"/>
<polygon fill="midnightblue" stroke="midnightblue" points="800.97,-175.93 811.27,-173.46 801.68,-168.96 800.97,-175.93"/>
</g>
<!-- Node10 -->
<g id="node10" class="node">
<title>Node10</title>
<g id="a_node10"><a xlink:href="bluff__body__ops_8cpp.html" target="_top" xlink:title=" ">
<polygon fill="white" stroke="black" points="133.5,-56.5 133.5,-75.5 243.5,-75.5 243.5,-56.5 133.5,-56.5"/>
<text text-anchor="middle" x="188.5" y="-63.5" font-family="Helvetica,sans-Serif" font-size="10.00">bluff_body_ops.cpp</text>
</a>
</g>
</g>
<!-- Node9&#45;&gt;Node10 -->
<g id="edge12" class="edge">
<title>Node9&#45;&gt;Node10</title>
<path fill="none" stroke="midnightblue" d="M801.2,-172.5C786.93,-171.06 771.05,-169.46 756.5,-168 595.18,-151.84 549.02,-177.79 393.5,-132 374.81,-126.5 372.67,-119.03 354.5,-112 312.87,-95.89 263.25,-83.25 229.17,-75.52"/>
<polygon fill="midnightblue" stroke="midnightblue" points="800.97,-176 811.27,-173.52 801.67,-169.03 800.97,-176"/>
</g>
<!-- Node11 -->
<g id="node11" class="node">
<title>Node11</title>
<g id="a_node11"><a xlink:href="bluff__body__ops_8_h.html" target="_top" xlink:title=" ">
<polygon fill="white" stroke="black" points="403,-112.5 403,-131.5 504,-131.5 504,-112.5 403,-112.5"/>
<text text-anchor="middle" x="453.5" y="-119.5" font-family="Helvetica,sans-Serif" font-size="10.00">bluff_body_ops.H</text>
</a>
</g>
</g>
<!-- Node9&#45;&gt;Node11 -->
<g id="edge13" class="edge">
<title>Node9&#45;&gt;Node11</title>
<path fill="none" stroke="midnightblue" d="M801.16,-170.91C738.28,-162.27 619.6,-145.95 518.5,-132 513.87,-131.36 509.06,-130.7 504.24,-130.03"/>
<polygon fill="midnightblue" stroke="midnightblue" points="800.75,-174.39 811.13,-172.28 801.7,-167.45 800.75,-174.39"/>
</g>
<!-- Node18 -->
<g id="node18" class="node">
<title>Node18</title>
<g id="a_node18"><a xlink:href="relaxation__zones__ops_8cpp.html" target="_top" xlink:title=" ">
<polygon fill="white" stroke="black" points="556,-56.5 556,-75.5 699,-75.5 699,-56.5 556,-56.5"/>
<text text-anchor="middle" x="627.5" y="-63.5" font-family="Helvetica,sans-Serif" font-size="10.00">relaxation_zones_ops.cpp</text>
</a>
</g>
</g>
<!-- Node9&#45;&gt;Node18 -->
<g id="edge21" class="edge">
<title>Node9&#45;&gt;Node18</title>
<path fill="none" stroke="midnightblue" d="M800.93,-171.71C720.72,-161.99 559.57,-141.4 551.5,-132 531.82,-109.08 574,-87.29 603.05,-75.68"/>
<polygon fill="midnightblue" stroke="midnightblue" points="800.88,-175.23 811.23,-172.96 801.72,-168.28 800.88,-175.23"/>
</g>
<!-- Node19 -->
<g id="node19" class="node">
<title>Node19</title>
<g id="a_node19"><a xlink:href="relaxation__zones__ops_8_h.html" target="_top" xlink:title=" ">
<polygon fill="white" stroke="black" points="561,-112.5 561,-131.5 694,-131.5 694,-112.5 561,-112.5"/>
<text text-anchor="middle" x="627.5" y="-119.5" font-family="Helvetica,sans-Serif" font-size="10.00">relaxation_zones_ops.H</text>
</a>
</g>
</g>
<!-- Node9&#45;&gt;Node19 -->
<g id="edge22" class="edge">
<title>Node9&#45;&gt;Node19</title>
<path fill="none" stroke="midnightblue" d="M801.69,-166.15C760.56,-155.96 699.85,-140.92 662.04,-131.56"/>
<polygon fill="midnightblue" stroke="midnightblue" points="800.89,-169.56 811.44,-168.56 802.57,-162.76 800.89,-169.56"/>
</g>
<!-- Node26 -->
<g id="node26" class="node">
<title>Node26</title>
<g id="a_node26"><a xlink:href="_dam_break_8cpp.html" target="_top" xlink:title=" ">
<polygon fill="white" stroke="black" points="712,-112.5 712,-131.5 801,-131.5 801,-112.5 712,-112.5"/>
<text text-anchor="middle" x="756.5" y="-119.5" font-family="Helvetica,sans-Serif" font-size="10.00">DamBreak.cpp</text>
</a>
</g>
</g>
<!-- Node9&#45;&gt;Node26 -->
<g id="edge30" class="edge">
<title>Node9&#45;&gt;Node26</title>
<path fill="none" stroke="midnightblue" d="M822.26,-162.9C805.94,-153 784.63,-140.07 770.76,-131.65"/>
<polygon fill="midnightblue" stroke="midnightblue" points="820.84,-166.13 831.2,-168.32 824.47,-160.14 820.84,-166.13"/>
</g>
<!-- Node27 -->
<g id="node27" class="node">
<title>Node27</title>
<g id="a_node27"><a xlink:href="_sloshing_tank_8cpp.html" target="_top" xlink:title=" ">
<polygon fill="white" stroke="black" points="819,-112.5 819,-131.5 920,-131.5 920,-112.5 819,-112.5"/>
<text text-anchor="middle" x="869.5" y="-119.5" font-family="Helvetica,sans-Serif" font-size="10.00">SloshingTank.cpp</text>
</a>
</g>
</g>
<!-- Node9&#45;&gt;Node27 -->
<g id="edge31" class="edge">
<title>Node9&#45;&gt;Node27</title>
<path fill="none" stroke="midnightblue" d="M853.64,-158.69C857.68,-149.59 862.38,-139.01 865.61,-131.75"/>
<polygon fill="midnightblue" stroke="midnightblue" points="850.33,-157.52 849.46,-168.08 856.72,-160.37 850.33,-157.52"/>
</g>
<!-- Node28 -->
<g id="node28" class="node">
<title>Node28</title>
<g id="a_node28"><a xlink:href="_zalesak_disk_8cpp.html" target="_top" xlink:title=" ">
<polygon fill="white" stroke="black" points="938.5,-112.5 938.5,-131.5 1036.5,-131.5 1036.5,-112.5 938.5,-112.5"/>
<text text-anchor="middle" x="987.5" y="-119.5" font-family="Helvetica,sans-Serif" font-size="10.00">ZalesakDisk.cpp</text>
</a>
</g>
</g>
<!-- Node9&#45;&gt;Node28 -->
<g id="edge32" class="edge">
<title>Node9&#45;&gt;Node28</title>
<path fill="none" stroke="midnightblue" d="M877.66,-164.77C904.33,-154.63 941.57,-140.47 965.1,-131.52"/>
<polygon fill="midnightblue" stroke="midnightblue" points="876.1,-161.62 868,-168.44 878.59,-168.16 876.1,-161.62"/>
</g>
<!-- Node29 -->
<g id="node29" class="node">
<title>Node29</title>
<g id="a_node29"><a xlink:href="_zalesak_disk_scalar_vel_8cpp.html" target="_top" xlink:title=" ">
<polygon fill="white" stroke="black" points="1055,-112.5 1055,-131.5 1198,-131.5 1198,-112.5 1055,-112.5"/>
<text text-anchor="middle" x="1126.5" y="-119.5" font-family="Helvetica,sans-Serif" font-size="10.00">ZalesakDiskScalarVel.cpp</text>
</a>
</g>
</g>
<!-- Node9&#45;&gt;Node29 -->
<g id="edge33" class="edge">
<title>Node9&#45;&gt;Node29</title>
<path fill="none" stroke="midnightblue" d="M889.69,-168.51C942.19,-158.42 1029.27,-141.68 1081.93,-131.56"/>
<polygon fill="midnightblue" stroke="midnightblue" points="888.83,-165.11 879.68,-170.43 890.16,-171.98 888.83,-165.11"/>
</g>
<!-- Node30 -->
<g id="node30" class="node">
<title>Node30</title>
<g id="a_node30"><a xlink:href="_one_eq_ksgs_8cpp.html" target="_top" xlink:title=" ">
<polygon fill="white" stroke="black" points="1458.5,-112.5 1458.5,-131.5 1550.5,-131.5 1550.5,-112.5 1458.5,-112.5"/>
<text text-anchor="middle" x="1504.5" y="-119.5" font-family="Helvetica,sans-Serif" font-size="10.00">OneEqKsgs.cpp</text>
</a>
</g>
</g>
<!-- Node9&#45;&gt;Node30 -->
<g id="edge34" class="edge">
<title>Node9&#45;&gt;Node30</title>
<path fill="none" stroke="midnightblue" d="M889.7,-175.04C989.67,-170.31 1240.74,-156.81 1449.5,-132 1452.38,-131.66 1455.34,-131.27 1458.33,-130.86"/>
<polygon fill="midnightblue" stroke="midnightblue" points="889.48,-171.55 879.66,-175.51 889.81,-178.54 889.48,-171.55"/>
</g>
<!-- Node31 -->
<g id="node31" class="node">
<title>Node31</title>
<g id="a_node31"><a xlink:href="_k_omega_s_s_t_8cpp.html" target="_top" xlink:title=" ">
<polygon fill="white" stroke="black" points="1569,-112.5 1569,-131.5 1664,-131.5 1664,-112.5 1569,-112.5"/>
<text text-anchor="middle" x="1616.5" y="-119.5" font-family="Helvetica,sans-Serif" font-size="10.00">KOmegaSST.cpp</text>
</a>
</g>
</g>
<!-- Node9&#45;&gt;Node31 -->
<g id="edge35" class="edge">
<title>Node9&#45;&gt;Node31</title>
<path fill="none" stroke="midnightblue" d="M889.91,-174.75C1024.83,-167.82 1428.63,-146.42 1559.5,-132 1562.59,-131.66 1565.76,-131.27 1568.96,-130.85"/>
<polygon fill="midnightblue" stroke="midnightblue" points="889.36,-171.27 879.55,-175.28 889.72,-178.26 889.36,-171.27"/>
</g>
<!-- Node32 -->
<g id="node32" class="node">
<title>Node32</title>
<g id="a_node32"><a xlink:href="_k_omega_s_s_t_i_d_d_e_s_8cpp.html" target="_top" xlink:title=" ">
<polygon fill="white" stroke="black" points="1216.5,-112.5 1216.5,-131.5 1342.5,-131.5 1342.5,-112.5 1216.5,-112.5"/>
<text text-anchor="middle" x="1279.5" y="-119.5" font-family="Helvetica,sans-Serif" font-size="10.00">KOmegaSSTIDDES.cpp</text>
</a>
</g>
</g>
<!-- Node9&#45;&gt;Node32 -->
<g id="edge36" class="edge">
<title>Node9&#45;&gt;Node32</title>
<path fill="none" stroke="midnightblue" d="M889.92,-171.47C967.41,-161.83 1127.46,-141.92 1216.41,-130.85"/>
<polygon fill="midnightblue" stroke="midnightblue" points="889.05,-168.05 879.56,-172.76 889.91,-175 889.05,-168.05"/>
</g>
<!-- Node33 -->
<g id="node33" class="node">
<title>Node33</title>
<g id="a_node33"><a xlink:href="_a_b_l_stats_8cpp.html" target="_top" xlink:title=" ">
<polygon fill="white" stroke="black" points="1360.5,-112.5 1360.5,-131.5 1440.5,-131.5 1440.5,-112.5 1360.5,-112.5"/>
<text text-anchor="middle" x="1400.5" y="-119.5" font-family="Helvetica,sans-Serif" font-size="10.00">ABLStats.cpp</text>
</a>
</g>
</g>
<!-- Node9&#45;&gt;Node33 -->
<g id="edge37" class="edge">
<title>Node9&#45;&gt;Node33</title>
<path fill="none" stroke="midnightblue" d="M889.85,-174.45C978.06,-169.06 1181.66,-155.1 1351.5,-132 1354.41,-131.6 1357.42,-131.15 1360.44,-130.67"/>
<polygon fill="midnightblue" stroke="midnightblue" points="889.45,-170.96 879.68,-175.06 889.87,-177.95 889.45,-170.96"/>
</g>
<!-- Node11&#45;&gt;Node10 -->
<g id="edge14" class="edge">
<title>Node11&#45;&gt;Node10</title>
<path fill="none" stroke="midnightblue" d="M401.53,-110.41C351.45,-100.2 276.64,-84.96 230.29,-75.52"/>
<polygon fill="midnightblue" stroke="midnightblue" points="401.01,-113.88 411.51,-112.44 402.41,-107.02 401.01,-113.88"/>
</g>
<!-- Node12 -->
<g id="node12" class="node">
<title>Node12</title>
<g id="a_node12"><a xlink:href="box__ops_8_h.html" target="_top" xlink:title=" ">
<polygon fill="white" stroke="black" points="261.5,-56.5 261.5,-75.5 329.5,-75.5 329.5,-56.5 261.5,-56.5"/>
<text text-anchor="middle" x="295.5" y="-63.5" font-family="Helvetica,sans-Serif" font-size="10.00">box_ops.H</text>
</a>
</g>
</g>
<!-- Node11&#45;&gt;Node12 -->
<g id="edge15" class="edge">
<title>Node11&#45;&gt;Node12</title>
<path fill="none" stroke="midnightblue" d="M418.89,-109.17C389.14,-99 346.95,-84.59 320.42,-75.52"/>
<polygon fill="midnightblue" stroke="midnightblue" points="417.87,-112.52 428.46,-112.44 420.13,-105.9 417.87,-112.52"/>
</g>
<!-- Node14 -->
<g id="node14" class="node">
<title>Node14</title>
<g id="a_node14"><a xlink:href="cylinder__ops_8_h.html" target="_top" xlink:title=" ">
<polygon fill="white" stroke="black" points="348,-56.5 348,-75.5 437,-75.5 437,-56.5 348,-56.5"/>
<text text-anchor="middle" x="392.5" y="-63.5" font-family="Helvetica,sans-Serif" font-size="10.00">cylinder_ops.H</text>
</a>
</g>
</g>
<!-- Node11&#45;&gt;Node14 -->
<g id="edge17" class="edge">
<title>Node11&#45;&gt;Node14</title>
<path fill="none" stroke="midnightblue" d="M436.03,-105.54C425.16,-95.91 411.56,-83.87 402.48,-75.83"/>
<polygon fill="midnightblue" stroke="midnightblue" points="433.89,-108.32 443.7,-112.32 438.53,-103.07 433.89,-108.32"/>
</g>
<!-- Node16 -->
<g id="node16" class="node">
<title>Node16</title>
<g id="a_node16"><a xlink:href="sphere__ops_8_h.html" target="_top" xlink:title=" ">
<polygon fill="white" stroke="black" points="455,-56.5 455,-75.5 538,-75.5 538,-56.5 455,-56.5"/>
<text text-anchor="middle" x="496.5" y="-63.5" font-family="Helvetica,sans-Serif" font-size="10.00">sphere_ops.H</text>
</a>
</g>
</g>
<!-- Node11&#45;&gt;Node16 -->
<g id="edge19" class="edge">
<title>Node11&#45;&gt;Node16</title>
<path fill="none" stroke="midnightblue" d="M466.92,-104.14C474.41,-94.74 483.44,-83.4 489.53,-75.75"/>
<polygon fill="midnightblue" stroke="midnightblue" points="464.09,-102.08 460.6,-112.08 469.57,-106.44 464.09,-102.08"/>
</g>
<!-- Node13 -->
<g id="node13" class="node">
<title>Node13</title>
<g id="a_node13"><a xlink:href="_box_8cpp.html" target="_top" xlink:title=" ">
<polygon fill="white" stroke="black" points="267.5,-0.5 267.5,-19.5 323.5,-19.5 323.5,-0.5 267.5,-0.5"/>
<text text-anchor="middle" x="295.5" y="-7.5" font-family="Helvetica,sans-Serif" font-size="10.00">Box.cpp</text>
</a>
</g>
</g>
<!-- Node12&#45;&gt;Node13 -->
<g id="edge16" class="edge">
<title>Node12&#45;&gt;Node13</title>
<path fill="none" stroke="midnightblue" d="M295.5,-45.8C295.5,-36.91 295.5,-26.78 295.5,-19.75"/>
<polygon fill="midnightblue" stroke="midnightblue" points="292,-46.08 295.5,-56.08 299,-46.08 292,-46.08"/>
</g>
<!-- Node15 -->
<g id="node15" class="node">
<title>Node15</title>
<g id="a_node15"><a xlink:href="_cylinder_8cpp.html" target="_top" xlink:title=" ">
<polygon fill="white" stroke="black" points="354,-0.5 354,-19.5 431,-19.5 431,-0.5 354,-0.5"/>
<text text-anchor="middle" x="392.5" y="-7.5" font-family="Helvetica,sans-Serif" font-size="10.00">Cylinder.cpp</text>
</a>
</g>
</g>
<!-- Node14&#45;&gt;Node15 -->
<g id="edge18" class="edge">
<title>Node14&#45;&gt;Node15</title>
<path fill="none" stroke="midnightblue" d="M392.5,-45.8C392.5,-36.91 392.5,-26.78 392.5,-19.75"/>
<polygon fill="midnightblue" stroke="midnightblue" points="389,-46.08 392.5,-56.08 396,-46.08 389,-46.08"/>
</g>
<!-- Node17 -->
<g id="node17" class="node">
<title>Node17</title>
<g id="a_node17"><a xlink:href="_sphere_8cpp.html" target="_top" xlink:title=" ">
<polygon fill="white" stroke="black" points="461,-0.5 461,-19.5 532,-19.5 532,-0.5 461,-0.5"/>
<text text-anchor="middle" x="496.5" y="-7.5" font-family="Helvetica,sans-Serif" font-size="10.00">Sphere.cpp</text>
</a>
</g>
</g>
<!-- Node16&#45;&gt;Node17 -->
<g id="edge20" class="edge">
<title>Node16&#45;&gt;Node17</title>
<path fill="none" stroke="midnightblue" d="M496.5,-45.8C496.5,-36.91 496.5,-26.78 496.5,-19.75"/>
<polygon fill="midnightblue" stroke="midnightblue" points="493,-46.08 496.5,-56.08 500,-46.08 493,-46.08"/>
</g>
<!-- Node19&#45;&gt;Node18 -->
<g id="edge27" class="edge">
<title>Node19&#45;&gt;Node18</title>
<path fill="none" stroke="midnightblue" d="M627.5,-101.8C627.5,-92.91 627.5,-82.78 627.5,-75.75"/>
<polygon fill="midnightblue" stroke="midnightblue" points="624,-102.08 627.5,-112.08 631,-102.08 624,-102.08"/>
</g>
<!-- Node20 -->
<g id="node20" class="node">
<title>Node20</title>
<g id="a_node20"><a xlink:href="hos__waves__ops_8_h.html" target="_top" xlink:title=" ">
<polygon fill="white" stroke="black" points="717.5,-56.5 717.5,-75.5 821.5,-75.5 821.5,-56.5 717.5,-56.5"/>
<text text-anchor="middle" x="769.5" y="-63.5" font-family="Helvetica,sans-Serif" font-size="10.00">hos_waves_ops.H</text>
</a>
</g>
</g>
<!-- Node19&#45;&gt;Node20 -->
<g id="edge23" class="edge">
<title>Node19&#45;&gt;Node20</title>
<path fill="none" stroke="midnightblue" d="M659.66,-108.77C686.33,-98.63 723.57,-84.47 747.1,-75.52"/>
<polygon fill="midnightblue" stroke="midnightblue" points="658.1,-105.62 650,-112.44 660.59,-112.16 658.1,-105.62"/>
</g>
<!-- Node22 -->
<g id="node22" class="node">
<title>Node22</title>
<g id="a_node22"><a xlink:href="linear__waves__ops_8_h.html" target="_top" xlink:title=" ">
<polygon fill="white" stroke="black" points="839.5,-56.5 839.5,-75.5 953.5,-75.5 953.5,-56.5 839.5,-56.5"/>
<text text-anchor="middle" x="896.5" y="-63.5" font-family="Helvetica,sans-Serif" font-size="10.00">linear_waves_ops.H</text>
</a>
</g>
</g>
<!-- Node19&#45;&gt;Node22 -->
<g id="edge25" class="edge">
<title>Node19&#45;&gt;Node22</title>
<path fill="none" stroke="midnightblue" d="M679.94,-110.47C730.78,-100.27 806.94,-84.98 854.08,-75.52"/>
<polygon fill="midnightblue" stroke="midnightblue" points="679.24,-107.04 670.12,-112.44 680.62,-113.91 679.24,-107.04"/>
</g>
<!-- Node24 -->
<g id="node24" class="node">
<title>Node24</title>
<g id="a_node24"><a xlink:href="stokes__waves__ops_8_h.html" target="_top" xlink:title=" ">
<polygon fill="white" stroke="black" points="971.5,-56.5 971.5,-75.5 1089.5,-75.5 1089.5,-56.5 971.5,-56.5"/>
<text text-anchor="middle" x="1030.5" y="-63.5" font-family="Helvetica,sans-Serif" font-size="10.00">stokes_waves_ops.H</text>
</a>
</g>
</g>
<!-- Node19&#45;&gt;Node24 -->
<g id="edge28" class="edge">
<title>Node19&#45;&gt;Node24</title>
<path fill="none" stroke="midnightblue" d="M701.55,-111.08C779.17,-100.68 899.62,-84.54 971.21,-74.94"/>
<polygon fill="midnightblue" stroke="midnightblue" points="700.8,-107.65 691.36,-112.44 701.73,-114.58 700.8,-107.65"/>
</g>
<!-- Node21 -->
<g id="node21" class="node">
<title>Node21</title>
<g id="a_node21"><a xlink:href="_h_o_s_waves_8cpp.html" target="_top" xlink:title=" ">
<polygon fill="white" stroke="black" points="724.5,-0.5 724.5,-19.5 814.5,-19.5 814.5,-0.5 724.5,-0.5"/>
<text text-anchor="middle" x="769.5" y="-7.5" font-family="Helvetica,sans-Serif" font-size="10.00">HOSWaves.cpp</text>
</a>
</g>
</g>
<!-- Node20&#45;&gt;Node21 -->
<g id="edge24" class="edge">
<title>Node20&#45;&gt;Node21</title>
<path fill="none" stroke="midnightblue" d="M769.5,-45.8C769.5,-36.91 769.5,-26.78 769.5,-19.75"/>
<polygon fill="midnightblue" stroke="midnightblue" points="766,-46.08 769.5,-56.08 773,-46.08 766,-46.08"/>
</g>
<!-- Node23 -->
<g id="node23" class="node">
<title>Node23</title>
<g id="a_node23"><a xlink:href="_linear_waves_8cpp.html" target="_top" xlink:title=" ">
<polygon fill="white" stroke="black" points="847,-0.5 847,-19.5 946,-19.5 946,-0.5 847,-0.5"/>
<text text-anchor="middle" x="896.5" y="-7.5" font-family="Helvetica,sans-Serif" font-size="10.00">LinearWaves.cpp</text>
</a>
</g>
</g>
<!-- Node22&#45;&gt;Node23 -->
<g id="edge26" class="edge">
<title>Node22&#45;&gt;Node23</title>
<path fill="none" stroke="midnightblue" d="M896.5,-45.8C896.5,-36.91 896.5,-26.78 896.5,-19.75"/>
<polygon fill="midnightblue" stroke="midnightblue" points="893,-46.08 896.5,-56.08 900,-46.08 893,-46.08"/>
</g>
<!-- Node25 -->
<g id="node25" class="node">
<title>Node25</title>
<g id="a_node25"><a xlink:href="_stokes_waves_8cpp.html" target="_top" xlink:title=" ">
<polygon fill="white" stroke="black" points="980,-0.5 980,-19.5 1081,-19.5 1081,-0.5 980,-0.5"/>
<text text-anchor="middle" x="1030.5" y="-7.5" font-family="Helvetica,sans-Serif" font-size="10.00">StokesWaves.cpp</text>
</a>
</g>
</g>
<!-- Node24&#45;&gt;Node25 -->
<g id="edge29" class="edge">
<title>Node24&#45;&gt;Node25</title>
<path fill="none" stroke="midnightblue" d="M1030.5,-45.8C1030.5,-36.91 1030.5,-26.78 1030.5,-19.75"/>
<polygon fill="midnightblue" stroke="midnightblue" points="1027,-46.08 1030.5,-56.08 1034,-46.08 1027,-46.08"/>
</g>
<!-- Node34&#45;&gt;Node4 -->
<g id="edge39" class="edge">
<title>Node34&#45;&gt;Node4</title>
<path fill="none" stroke="midnightblue" d="M491.88,-165.94C447.8,-154.77 381.33,-137.91 346.2,-129.01"/>
<polygon fill="midnightblue" stroke="midnightblue" points="491.2,-169.38 501.75,-168.44 492.92,-162.59 491.2,-169.38"/>
</g>
<!-- Node35&#45;&gt;Node4 -->
<g id="edge41" class="edge">
<title>Node35&#45;&gt;Node4</title>
<path fill="none" stroke="midnightblue" d="M579.23,-168C480.69,-150.74 454.1,-150.75 360.5,-132 355.85,-131.07 350.9,-129.97 346.16,-128.87"/>
<polygon fill="midnightblue" stroke="midnightblue" points="578.86,-171.49 589.32,-169.79 580.08,-164.6 578.86,-171.49"/>
</g>
<!-- Node36&#45;&gt;Node4 -->
<g id="edge43" class="edge">
<title>Node36&#45;&gt;Node4</title>
<path fill="none" stroke="midnightblue" d="M1071.19,-175.11C955.39,-170.27 648.57,-156.06 393.5,-132 377.67,-130.51 359.92,-128.26 346.12,-126.38"/>
<polygon fill="midnightblue" stroke="midnightblue" points="1071.33,-178.62 1081.46,-175.54 1071.62,-171.63 1071.33,-178.62"/>
</g>
<!-- Node36&#45;&gt;Node30 -->
<g id="edge44" class="edge">
<title>Node36&#45;&gt;Node30</title>
<path fill="none" stroke="midnightblue" d="M1165.7,-167.9C1292.27,-147.85 1326.36,-149.85 1449.5,-132 1452.37,-131.58 1455.33,-131.14 1458.31,-130.68"/>
<polygon fill="midnightblue" stroke="midnightblue" points="1164.94,-164.48 1155.62,-169.51 1166.05,-171.39 1164.94,-164.48"/>
</g>
<!-- Node36&#45;&gt;Node31 -->
<g id="edge46" class="edge">
<title>Node36&#45;&gt;Node31</title>
<path fill="none" stroke="midnightblue" d="M1165.67,-167.97C1340.74,-143.43 1387.81,-153.35 1559.5,-132 1562.58,-131.62 1565.75,-131.19 1568.95,-130.75"/>
<polygon fill="midnightblue" stroke="midnightblue" points="1165.01,-164.53 1155.6,-169.4 1165.99,-171.46 1165.01,-164.53"/>
</g>
<!-- Node36&#45;&gt;Node32 -->
<g id="edge47" class="edge">
<title>Node36&#45;&gt;Node32</title>
<path fill="none" stroke="midnightblue" d="M1153.76,-165.17C1184.08,-155 1227.07,-140.59 1254.11,-131.52"/>
<polygon fill="midnightblue" stroke="midnightblue" points="1152.38,-161.95 1144.01,-168.44 1154.6,-168.58 1152.38,-161.95"/>
</g>
<!-- Node37 -->
<g id="node37" class="node">
<title>Node37</title>
<g id="a_node37"><a xlink:href="_smagorinsky_8cpp.html" target="_top" xlink:title=" ">
<polygon fill="white" stroke="black" points="1682.5,-112.5 1682.5,-131.5 1780.5,-131.5 1780.5,-112.5 1682.5,-112.5"/>
<text text-anchor="middle" x="1731.5" y="-119.5" font-family="Helvetica,sans-Serif" font-size="10.00">Smagorinsky.cpp</text>
</a>
</g>
</g>
<!-- Node36&#45;&gt;Node37 -->
<g id="edge45" class="edge">
<title>Node36&#45;&gt;Node37</title>
<path fill="none" stroke="midnightblue" d="M1165.75,-168C1391.08,-138.73 1451.44,-157.04 1673.5,-132 1676.44,-131.67 1679.45,-131.3 1682.49,-130.9"/>
<polygon fill="midnightblue" stroke="midnightblue" points="1165.05,-164.56 1155.59,-169.34 1165.96,-171.5 1165.05,-164.56"/>
</g>
<!-- Node38&#45;&gt;Node4 -->
<g id="edge49" class="edge">
<title>Node38&#45;&gt;Node4</title>
<path fill="none" stroke="midnightblue" d="M670.97,-167.89C532.98,-145.84 494.76,-155.56 360.5,-132 355.83,-131.18 350.87,-130.14 346.13,-129.05"/>
<polygon fill="midnightblue" stroke="midnightblue" points="670.65,-171.39 681.08,-169.54 671.78,-164.48 670.65,-171.39"/>
</g>
<!-- Node38&#45;&gt;Node32 -->
<g id="edge50" class="edge">
<title>Node38&#45;&gt;Node32</title>
<path fill="none" stroke="midnightblue" d="M757.57,-172.48C771.86,-171.01 787.86,-169.4 802.5,-168 981.95,-150.83 1027.24,-151.03 1206.5,-132 1209.67,-131.66 1212.93,-131.31 1216.21,-130.94"/>
<polygon fill="midnightblue" stroke="midnightblue" points="757.09,-169.01 747.5,-173.52 757.81,-175.98 757.09,-169.01"/>
</g>
<!-- Node39&#45;&gt;Node4 -->
<g id="edge52" class="edge">
<title>Node39&#45;&gt;Node4</title>
<path fill="none" stroke="midnightblue" d="M1163.76,-168.06C821.49,-133.75 731.92,-161.3 393.5,-132 377.66,-130.63 359.91,-128.38 346.12,-126.47"/>
<polygon fill="midnightblue" stroke="midnightblue" points="1163.66,-171.57 1173.97,-169.09 1164.37,-164.6 1163.66,-171.57"/>
</g>
<!-- Node40 -->
<g id="node40" class="node">
<title>Node40</title>
<g id="a_node40"><a xlink:href="_enstrophy_8cpp.html" target="_top" xlink:title=" ">
<polygon fill="white" stroke="black" points="1798.5,-112.5 1798.5,-131.5 1882.5,-131.5 1882.5,-112.5 1798.5,-112.5"/>
<text text-anchor="middle" x="1840.5" y="-119.5" font-family="Helvetica,sans-Serif" font-size="10.00">Enstrophy.cpp</text>
</a>
</g>
</g>
<!-- Node39&#45;&gt;Node40 -->
<g id="edge53" class="edge">
<title>Node39&#45;&gt;Node40</title>
<path fill="none" stroke="midnightblue" d="M1279.29,-168.02C1506.47,-142.73 1566.84,-159.41 1789.5,-132 1792.36,-131.65 1795.29,-131.24 1798.25,-130.81"/>
<polygon fill="midnightblue" stroke="midnightblue" points="1278.59,-164.58 1269.04,-169.18 1279.37,-171.54 1278.59,-164.58"/>
</g>
<!-- Node42 -->
<g id="node42" class="node">
<title>Node42</title>
<g id="a_node42"><a xlink:href="_a_m_d_8cpp.html" target="_top" xlink:title=" ">
<polygon fill="white" stroke="black" points="1287.5,-168.5 1287.5,-187.5 1347.5,-187.5 1347.5,-168.5 1287.5,-168.5"/>
<text text-anchor="middle" x="1317.5" y="-175.5" font-family="Helvetica,sans-Serif" font-size="10.00">AMD.cpp</text>
</a>
</g>
</g>
<!-- Node41&#45;&gt;Node42 -->
<g id="edge55" class="edge">
<title>Node41&#45;&gt;Node42</title>
<path fill="none" stroke="midnightblue" d="M953.93,-229.71C1018.53,-223.44 1159.69,-208.59 1277.5,-188 1280.73,-187.44 1284.08,-186.78 1287.42,-186.09"/>
<polygon fill="midnightblue" stroke="midnightblue" points="953.49,-226.23 943.87,-230.67 954.16,-233.2 953.49,-226.23"/>
</g>
</g>
</svg>
