<?xml version="1.0" encoding="UTF-8" standalone="no"?>
<!DOCTYPE svg PUBLIC "-//W3C//DTD SVG 1.1//EN"
 "http://www.w3.org/Graphics/SVG/1.1/DTD/svg11.dtd">
<!-- Generated by graphviz version 2.43.0 (0)
 -->
<!-- Title: trig_ops.H Pages: 1 -->
<svg width="3698pt" height="375pt"
 viewBox="0.00 0.00 3698.00 375.00" xmlns="http://www.w3.org/2000/svg" xmlns:xlink="http://www.w3.org/1999/xlink">
<g id="graph0" class="graph" transform="scale(1 1) rotate(0) translate(4 371)">
<title>trig_ops.H</title>
<polygon fill="white" stroke="transparent" points="-4,4 -4,-371 3694,-371 3694,4 -4,4"/>
<!-- Node1 -->
<g id="node1" class="node">
<title>Node1</title>
<g id="a_node1"><a xlink:title="Trigonometric utilities.">
<polygon fill="#bfbfbf" stroke="black" points="1878,-347.5 1878,-366.5 1944,-366.5 1944,-347.5 1878,-347.5"/>
<text text-anchor="middle" x="1911" y="-354.5" font-family="Helvetica,sans-Serif" font-size="10.00">trig_ops.H</text>
</a>
</g>
</g>
<!-- Node2 -->
<g id="node2" class="node">
<title>Node2</title>
<g id="a_node2"><a xlink:href="tensor_i_8_h.html" target="_top" xlink:title=" ">
<polygon fill="white" stroke="black" points="314.5,-291.5 314.5,-310.5 375.5,-310.5 375.5,-291.5 314.5,-291.5"/>
<text text-anchor="middle" x="345" y="-298.5" font-family="Helvetica,sans-Serif" font-size="10.00">tensorI.H</text>
</a>
</g>
</g>
<!-- Node1&#45;&gt;Node2 -->
<g id="edge1" class="edge">
<title>Node1&#45;&gt;Node2</title>
<path fill="none" stroke="midnightblue" d="M1867.62,-355.54C1651.93,-353.13 693.53,-340.92 397,-311 390.07,-310.3 382.67,-309.22 375.7,-308.05"/>
<polygon fill="midnightblue" stroke="midnightblue" points="1867.86,-359.04 1877.9,-355.65 1867.94,-352.04 1867.86,-359.04"/>
</g>
<!-- Node75 -->
<g id="node5" class="node">
<title>Node75</title>
<g id="a_node5"><a xlink:href="_a_b_l_modulated_power_law_8_h.html" target="_top" xlink:title=" ">
<polygon fill="white" stroke="black" points="264,-123.5 264,-142.5 410,-142.5 410,-123.5 264,-123.5"/>
<text text-anchor="middle" x="337" y="-130.5" font-family="Helvetica,sans-Serif" font-size="10.00">ABLModulatedPowerLaw.H</text>
</a>
</g>
</g>
<!-- Node1&#45;&gt;Node75 -->
<g id="edge45" class="edge">
<title>Node1&#45;&gt;Node75</title>
<path fill="none" stroke="midnightblue" d="M1867.49,-356.07C1629.49,-356.29 493.75,-355.03 435,-311 385.63,-274 426.84,-229.92 392,-179 381.41,-163.52 364.01,-150.56 351.61,-142.58"/>
<polygon fill="midnightblue" stroke="midnightblue" points="1867.83,-359.57 1877.82,-356.06 1867.82,-352.57 1867.83,-359.57"/>
</g>
<!-- Node77 -->
<g id="node7" class="node">
<title>Node77</title>
<g id="a_node7"><a xlink:href="_a_b_l_forcing_8cpp.html" target="_top" xlink:title=" ">
<polygon fill="white" stroke="black" points="282.5,-6 282.5,-25 373.5,-25 373.5,-6 282.5,-6"/>
<text text-anchor="middle" x="328" y="-13" font-family="Helvetica,sans-Serif" font-size="10.00">ABLForcing.cpp</text>
</a>
</g>
</g>
<!-- Node1&#45;&gt;Node77 -->
<g id="edge20" class="edge">
<title>Node1&#45;&gt;Node77</title>
<path fill="none" stroke="midnightblue" d="M1867.7,-355.5C1681.74,-353.16 950,-342.15 722,-311 598.42,-294.12 449,-370.73 449,-246 449,-246 449,-246 449,-132 449,-77.4 383.74,-40.71 349.08,-25.06"/>
<polygon fill="midnightblue" stroke="midnightblue" points="1867.86,-359 1877.9,-355.62 1867.95,-352 1867.86,-359"/>
</g>
<!-- Node79 -->
<g id="node9" class="node">
<title>Node79</title>
<g id="a_node9"><a xlink:href="_hurricane_forcing_8cpp.html" target="_top" xlink:title=" ">
<polygon fill="white" stroke="black" points="998.5,-6 998.5,-25 1117.5,-25 1117.5,-6 998.5,-6"/>
<text text-anchor="middle" x="1058" y="-13" font-family="Helvetica,sans-Serif" font-size="10.00">HurricaneForcing.cpp</text>
</a>
</g>
</g>
<!-- Node1&#45;&gt;Node79 -->
<g id="edge28" class="edge">
<title>Node1&#45;&gt;Node79</title>
<path fill="none" stroke="midnightblue" d="M1867.67,-355.55C1683,-353.06 971,-337.52 971,-246 971,-246 971,-246 971,-132 971,-83.55 1020.45,-42.51 1044.79,-25.24"/>
<polygon fill="midnightblue" stroke="midnightblue" points="1867.78,-359.05 1877.82,-355.68 1867.87,-352.05 1867.78,-359.05"/>
</g>
<!-- Node80 -->
<g id="node10" class="node">
<title>Node80</title>
<g id="a_node10"><a xlink:href="helics_8cpp.html" target="_top" xlink:title=" ">
<polygon fill="white" stroke="black" points="1270.5,-6 1270.5,-25 1335.5,-25 1335.5,-6 1270.5,-6"/>
<text text-anchor="middle" x="1303" y="-13" font-family="Helvetica,sans-Serif" font-size="10.00">helics.cpp</text>
</a>
</g>
</g>
<!-- Node1&#45;&gt;Node80 -->
<g id="edge30" class="edge">
<title>Node1&#45;&gt;Node80</title>
<path fill="none" stroke="midnightblue" d="M1867.36,-356.07C1721.84,-355.91 1259.4,-352.16 1208,-311 1184.51,-292.19 1189,-276.1 1189,-246 1189,-246 1189,-246 1189,-132 1189,-78.61 1251.47,-40.97 1283.92,-25.02"/>
<polygon fill="midnightblue" stroke="midnightblue" points="1867.68,-359.57 1877.68,-356.07 1867.68,-352.57 1867.68,-359.57"/>
</g>
<!-- Node85 -->
<g id="node15" class="node">
<title>Node85</title>
<g id="a_node15"><a xlink:href="_a_b_l_wall_function_8cpp.html" target="_top" xlink:title=" ">
<polygon fill="white" stroke="black" points="1135.5,-6 1135.5,-25 1252.5,-25 1252.5,-6 1135.5,-6"/>
<text text-anchor="middle" x="1194" y="-13" font-family="Helvetica,sans-Serif" font-size="10.00">ABLWallFunction.cpp</text>
</a>
</g>
</g>
<!-- Node1&#45;&gt;Node85 -->
<g id="edge46" class="edge">
<title>Node1&#45;&gt;Node85</title>
<path fill="none" stroke="midnightblue" d="M1867.55,-355.65C1720.38,-354.14 1246.71,-346.54 1189,-311 1160.51,-293.45 1151,-279.46 1151,-246 1151,-246 1151,-246 1151,-132 1151,-89.63 1176.72,-43.71 1188.38,-25.08"/>
<polygon fill="midnightblue" stroke="midnightblue" points="1867.94,-359.15 1877.97,-355.75 1868.01,-352.15 1867.94,-359.15"/>
</g>
<!-- Node108 -->
<g id="node19" class="node">
<title>Node108</title>
<g id="a_node19"><a xlink:href="_a_b_l_forcing_8_h.html" target="_top" xlink:title=" ">
<polygon fill="white" stroke="black" points="477.5,-67.5 477.5,-86.5 558.5,-86.5 558.5,-67.5 477.5,-67.5"/>
<text text-anchor="middle" x="518" y="-74.5" font-family="Helvetica,sans-Serif" font-size="10.00">ABLForcing.H</text>
</a>
</g>
</g>
<!-- Node1&#45;&gt;Node108 -->
<g id="edge21" class="edge">
<title>Node1&#45;&gt;Node108</title>
<path fill="none" stroke="midnightblue" d="M1867.53,-354.88C1632.48,-348.56 524,-315.1 524,-246 524,-246 524,-246 524,-188 524,-150.13 520.41,-105.04 518.78,-86.55"/>
<polygon fill="midnightblue" stroke="midnightblue" points="1867.65,-358.39 1877.74,-355.16 1867.84,-351.39 1867.65,-358.39"/>
</g>
<!-- Node110 -->
<g id="node21" class="node">
<title>Node110</title>
<g id="a_node21"><a xlink:href="_body_force_8cpp.html" target="_top" xlink:title=" ">
<polygon fill="white" stroke="black" points="1217,-291.5 1217,-310.5 1305,-310.5 1305,-291.5 1217,-291.5"/>
<text text-anchor="middle" x="1261" y="-298.5" font-family="Helvetica,sans-Serif" font-size="10.00">BodyForce.cpp</text>
</a>
</g>
</g>
<!-- Node1&#45;&gt;Node110 -->
<g id="edge25" class="edge">
<title>Node1&#45;&gt;Node110</title>
<path fill="none" stroke="midnightblue" d="M1867.72,-354.12C1769.16,-349.54 1520.55,-336.27 1314,-311 1311.13,-310.65 1308.17,-310.25 1305.2,-309.82"/>
<polygon fill="midnightblue" stroke="midnightblue" points="1867.74,-357.62 1877.89,-354.59 1868.06,-350.63 1867.74,-357.62"/>
</g>
<!-- Node111 -->
<g id="node22" class="node">
<title>Node111</title>
<g id="a_node22"><a xlink:href="_coriolis_forcing_8cpp.html" target="_top" xlink:title=" ">
<polygon fill="white" stroke="black" points="1323.5,-291.5 1323.5,-310.5 1432.5,-310.5 1432.5,-291.5 1323.5,-291.5"/>
<text text-anchor="middle" x="1378" y="-298.5" font-family="Helvetica,sans-Serif" font-size="10.00">CoriolisForcing.cpp</text>
</a>
</g>
</g>
<!-- Node1&#45;&gt;Node111 -->
<g id="edge26" class="edge">
<title>Node1&#45;&gt;Node111</title>
<path fill="none" stroke="midnightblue" d="M1867.84,-352.54C1784.98,-345.76 1597.89,-329.71 1441,-311 1438.26,-310.67 1435.45,-310.32 1432.62,-309.96"/>
<polygon fill="midnightblue" stroke="midnightblue" points="1867.64,-356.04 1877.89,-353.36 1868.21,-349.06 1867.64,-356.04"/>
</g>
<!-- Node112 -->
<g id="node23" class="node">
<title>Node112</title>
<g id="a_node23"><a xlink:href="_geostrophic_forcing_8cpp.html" target="_top" xlink:title=" ">
<polygon fill="white" stroke="black" points="1450.5,-291.5 1450.5,-310.5 1581.5,-310.5 1581.5,-291.5 1450.5,-291.5"/>
<text text-anchor="middle" x="1516" y="-298.5" font-family="Helvetica,sans-Serif" font-size="10.00">GeostrophicForcing.cpp</text>
</a>
</g>
</g>
<!-- Node1&#45;&gt;Node112 -->
<g id="edge27" class="edge">
<title>Node1&#45;&gt;Node112</title>
<path fill="none" stroke="midnightblue" d="M1867.4,-350.04C1797.18,-340.44 1658.75,-321.51 1578.18,-310.5"/>
<polygon fill="midnightblue" stroke="midnightblue" points="1867.28,-353.56 1877.66,-351.44 1868.23,-346.62 1867.28,-353.56"/>
</g>
<!-- Node113 -->
<g id="node24" class="node">
<title>Node113</title>
<g id="a_node24"><a xlink:href="_rayleigh_damping_8cpp.html" target="_top" xlink:title=" ">
<polygon fill="white" stroke="black" points="1600,-291.5 1600,-310.5 1724,-310.5 1724,-291.5 1600,-291.5"/>
<text text-anchor="middle" x="1662" y="-298.5" font-family="Helvetica,sans-Serif" font-size="10.00">RayleighDamping.cpp</text>
</a>
</g>
</g>
<!-- Node1&#45;&gt;Node113 -->
<g id="edge29" class="edge">
<title>Node1&#45;&gt;Node113</title>
<path fill="none" stroke="midnightblue" d="M1868.09,-346.69C1821.22,-336.53 1746.78,-320.39 1701.37,-310.54"/>
<polygon fill="midnightblue" stroke="midnightblue" points="1867.42,-350.13 1877.93,-348.83 1868.9,-343.29 1867.42,-350.13"/>
</g>
<!-- Node114 -->
<g id="node25" class="node">
<title>Node114</title>
<g id="a_node25"><a xlink:href="_burggraf_flow_8cpp.html" target="_top" xlink:title=" ">
<polygon fill="white" stroke="black" points="1742.5,-291.5 1742.5,-310.5 1843.5,-310.5 1843.5,-291.5 1742.5,-291.5"/>
<text text-anchor="middle" x="1793" y="-298.5" font-family="Helvetica,sans-Serif" font-size="10.00">BurggrafFlow.cpp</text>
</a>
</g>
</g>
<!-- Node1&#45;&gt;Node114 -->
<g id="edge31" class="edge">
<title>Node1&#45;&gt;Node114</title>
<path fill="none" stroke="midnightblue" d="M1883.1,-343.23C1861.03,-333.13 1830.82,-319.31 1811.61,-310.52"/>
<polygon fill="midnightblue" stroke="midnightblue" points="1881.75,-346.46 1892.3,-347.44 1884.67,-340.1 1881.75,-346.46"/>
</g>
<!-- Node115 -->
<g id="node26" class="node">
<title>Node115</title>
<g id="a_node26"><a xlink:href="_channel_flow_8cpp.html" target="_top" xlink:title=" ">
<polygon fill="white" stroke="black" points="1861.5,-291.5 1861.5,-310.5 1960.5,-310.5 1960.5,-291.5 1861.5,-291.5"/>
<text text-anchor="middle" x="1911" y="-298.5" font-family="Helvetica,sans-Serif" font-size="10.00">ChannelFlow.cpp</text>
</a>
</g>
</g>
<!-- Node1&#45;&gt;Node115 -->
<g id="edge32" class="edge">
<title>Node1&#45;&gt;Node115</title>
<path fill="none" stroke="midnightblue" d="M1911,-336.8C1911,-327.91 1911,-317.78 1911,-310.75"/>
<polygon fill="midnightblue" stroke="midnightblue" points="1907.5,-337.08 1911,-347.08 1914.5,-337.08 1907.5,-337.08"/>
</g>
<!-- Node116 -->
<g id="node27" class="node">
<title>Node116</title>
<g id="a_node27"><a xlink:href="_convecting_taylor_vortex_8cpp.html" target="_top" xlink:title=" ">
<polygon fill="white" stroke="black" points="1979,-291.5 1979,-310.5 2131,-310.5 2131,-291.5 1979,-291.5"/>
<text text-anchor="middle" x="2055" y="-298.5" font-family="Helvetica,sans-Serif" font-size="10.00">ConvectingTaylorVortex.cpp</text>
</a>
</g>
</g>
<!-- Node1&#45;&gt;Node116 -->
<g id="edge33" class="edge">
<title>Node1&#45;&gt;Node116</title>
<path fill="none" stroke="midnightblue" d="M1943.25,-343.91C1970.32,-333.75 2008.32,-319.51 2032.29,-310.52"/>
<polygon fill="midnightblue" stroke="midnightblue" points="1941.95,-340.66 1933.82,-347.44 1944.41,-347.21 1941.95,-340.66"/>
</g>
<!-- Node117 -->
<g id="node28" class="node">
<title>Node117</title>
<g id="a_node28"><a xlink:href="_ekman_spiral_8cpp.html" target="_top" xlink:title=" ">
<polygon fill="white" stroke="black" points="2149,-291.5 2149,-310.5 2247,-310.5 2247,-291.5 2149,-291.5"/>
<text text-anchor="middle" x="2198" y="-298.5" font-family="Helvetica,sans-Serif" font-size="10.00">EkmanSpiral.cpp</text>
</a>
</g>
</g>
<!-- Node1&#45;&gt;Node117 -->
<g id="edge34" class="edge">
<title>Node1&#45;&gt;Node117</title>
<path fill="none" stroke="midnightblue" d="M1954.03,-347.9C2007.37,-337.87 2097.86,-320.84 2152.37,-310.59"/>
<polygon fill="midnightblue" stroke="midnightblue" points="1953.38,-344.46 1944.2,-349.75 1954.68,-351.34 1953.38,-344.46"/>
</g>
<!-- Node118 -->
<g id="node29" class="node">
<title>Node118</title>
<g id="a_node29"><a xlink:href="_free_stream_8cpp.html" target="_top" xlink:title=" ">
<polygon fill="white" stroke="black" points="2265.5,-291.5 2265.5,-310.5 2358.5,-310.5 2358.5,-291.5 2265.5,-291.5"/>
<text text-anchor="middle" x="2312" y="-298.5" font-family="Helvetica,sans-Serif" font-size="10.00">FreeStream.cpp</text>
</a>
</g>
</g>
<!-- Node1&#45;&gt;Node118 -->
<g id="edge35" class="edge">
<title>Node1&#45;&gt;Node118</title>
<path fill="none" stroke="midnightblue" d="M1954.3,-350.77C2019.72,-342.77 2147.63,-326.77 2256,-311 2259.02,-310.56 2262.13,-310.1 2265.26,-309.62"/>
<polygon fill="midnightblue" stroke="midnightblue" points="1953.85,-347.3 1944.35,-351.98 1954.7,-354.25 1953.85,-347.3"/>
</g>
<!-- Node119 -->
<g id="node30" class="node">
<title>Node119</title>
<g id="a_node30"><a xlink:href="_breaking_waves_8cpp.html" target="_top" xlink:title=" ">
<polygon fill="white" stroke="black" points="2376.5,-291.5 2376.5,-310.5 2489.5,-310.5 2489.5,-291.5 2376.5,-291.5"/>
<text text-anchor="middle" x="2433" y="-298.5" font-family="Helvetica,sans-Serif" font-size="10.00">BreakingWaves.cpp</text>
</a>
</g>
</g>
<!-- Node1&#45;&gt;Node119 -->
<g id="edge36" class="edge">
<title>Node1&#45;&gt;Node119</title>
<path fill="none" stroke="midnightblue" d="M1954.56,-352.24C2035.77,-345.12 2215.77,-328.77 2367,-311 2370.1,-310.64 2373.28,-310.25 2376.49,-309.85"/>
<polygon fill="midnightblue" stroke="midnightblue" points="1953.89,-348.79 1944.23,-353.15 1954.5,-355.76 1953.89,-348.79"/>
</g>
<!-- Node120 -->
<g id="node31" class="node">
<title>Node120</title>
<g id="a_node31"><a xlink:href="_scalar_advection_8_h.html" target="_top" xlink:title=" ">
<polygon fill="white" stroke="black" points="2508,-291.5 2508,-310.5 2614,-310.5 2614,-291.5 2508,-291.5"/>
<text text-anchor="middle" x="2561" y="-298.5" font-family="Helvetica,sans-Serif" font-size="10.00">ScalarAdvection.H</text>
</a>
</g>
</g>
<!-- Node1&#45;&gt;Node120 -->
<g id="edge37" class="edge">
<title>Node1&#45;&gt;Node120</title>
<path fill="none" stroke="midnightblue" d="M1954.21,-353.66C2051.5,-348.17 2295.08,-333.25 2498,-311 2501.18,-310.65 2504.46,-310.27 2507.75,-309.86"/>
<polygon fill="midnightblue" stroke="midnightblue" points="1953.96,-350.17 1944.17,-354.22 1954.35,-357.16 1953.96,-350.17"/>
</g>
<!-- Node66 -->
<g id="node33" class="node">
<title>Node66</title>
<g id="a_node33"><a xlink:href="_synthetic_turbulence_8cpp.html" target="_top" xlink:title=" ">
<polygon fill="white" stroke="black" points="2632.5,-291.5 2632.5,-310.5 2767.5,-310.5 2767.5,-291.5 2632.5,-291.5"/>
<text text-anchor="middle" x="2700" y="-298.5" font-family="Helvetica,sans-Serif" font-size="10.00">SyntheticTurbulence.cpp</text>
</a>
</g>
</g>
<!-- Node1&#45;&gt;Node66 -->
<g id="edge39" class="edge">
<title>Node1&#45;&gt;Node66</title>
<path fill="none" stroke="midnightblue" d="M1954.19,-354.07C2065.28,-348.94 2369.95,-333.77 2623,-311 2626.08,-310.72 2629.23,-310.42 2632.41,-310.11"/>
<polygon fill="midnightblue" stroke="midnightblue" points="1953.88,-350.58 1944.05,-354.54 1954.2,-357.58 1953.88,-350.58"/>
</g>
<!-- Node122 -->
<g id="node34" class="node">
<title>Node122</title>
<g id="a_node34"><a xlink:href="_taylor_green_vortex_8cpp.html" target="_top" xlink:title=" ">
<polygon fill="white" stroke="black" points="2785.5,-291.5 2785.5,-310.5 2912.5,-310.5 2912.5,-291.5 2785.5,-291.5"/>
<text text-anchor="middle" x="2849" y="-298.5" font-family="Helvetica,sans-Serif" font-size="10.00">TaylorGreenVortex.cpp</text>
</a>
</g>
</g>
<!-- Node1&#45;&gt;Node122 -->
<g id="edge40" class="edge">
<title>Node1&#45;&gt;Node122</title>
<path fill="none" stroke="midnightblue" d="M1954.11,-354.84C2080.54,-351.19 2461.27,-338.55 2776,-311 2779.05,-310.73 2782.18,-310.44 2785.33,-310.12"/>
<polygon fill="midnightblue" stroke="midnightblue" points="1953.95,-351.34 1944.06,-355.12 1954.15,-358.34 1953.95,-351.34"/>
</g>
<!-- Node123 -->
<g id="node35" class="node">
<title>Node123</title>
<g id="a_node35"><a xlink:href="_vortex_dipole_8cpp.html" target="_top" xlink:title=" ">
<polygon fill="white" stroke="black" points="2931,-291.5 2931,-310.5 3031,-310.5 3031,-291.5 2931,-291.5"/>
<text text-anchor="middle" x="2981" y="-298.5" font-family="Helvetica,sans-Serif" font-size="10.00">VortexDipole.cpp</text>
</a>
</g>
</g>
<!-- Node1&#45;&gt;Node123 -->
<g id="edge41" class="edge">
<title>Node1&#45;&gt;Node123</title>
<path fill="none" stroke="midnightblue" d="M1954.55,-355.68C2094.93,-354.31 2548.12,-347.17 2921,-311 2924.25,-310.68 2927.59,-310.31 2930.96,-309.91"/>
<polygon fill="midnightblue" stroke="midnightblue" points="1954.19,-352.18 1944.22,-355.78 1954.25,-359.18 1954.19,-352.18"/>
</g>
<!-- Node124 -->
<g id="node36" class="node">
<title>Node124</title>
<g id="a_node36"><a xlink:href="_vortex_ring_8cpp.html" target="_top" xlink:title=" ">
<polygon fill="white" stroke="black" points="3049,-291.5 3049,-310.5 3139,-310.5 3139,-291.5 3049,-291.5"/>
<text text-anchor="middle" x="3094" y="-298.5" font-family="Helvetica,sans-Serif" font-size="10.00">VortexRing.cpp</text>
</a>
</g>
</g>
<!-- Node1&#45;&gt;Node124 -->
<g id="edge42" class="edge">
<title>Node1&#45;&gt;Node124</title>
<path fill="none" stroke="midnightblue" d="M1954.58,-356.22C2105.39,-356.58 2618.86,-354.32 3040,-311 3042.93,-310.7 3045.94,-310.34 3048.98,-309.94"/>
<polygon fill="midnightblue" stroke="midnightblue" points="1954.37,-352.72 1944.36,-356.19 1954.35,-359.72 1954.37,-352.72"/>
</g>
<!-- Node125 -->
<g id="node37" class="node">
<title>Node125</title>
<g id="a_node37"><a xlink:href="_a_b_l_field_init_8cpp.html" target="_top" xlink:title=" ">
<polygon fill="white" stroke="black" points="3157.5,-291.5 3157.5,-310.5 3252.5,-310.5 3252.5,-291.5 3157.5,-291.5"/>
<text text-anchor="middle" x="3205" y="-298.5" font-family="Helvetica,sans-Serif" font-size="10.00">ABLFieldInit.cpp</text>
</a>
</g>
</g>
<!-- Node1&#45;&gt;Node125 -->
<g id="edge43" class="edge">
<title>Node1&#45;&gt;Node125</title>
<path fill="none" stroke="midnightblue" d="M1954.41,-356.31C2113.87,-357.03 2682.24,-356.08 3148,-311 3151.09,-310.7 3154.27,-310.34 3157.47,-309.94"/>
<polygon fill="midnightblue" stroke="midnightblue" points="1954.09,-352.8 1944.07,-356.25 1954.05,-359.8 1954.09,-352.8"/>
</g>
<!-- Node126 -->
<g id="node38" class="node">
<title>Node126</title>
<g id="a_node38"><a xlink:href="_a_b_l_field_init_file_8cpp.html" target="_top" xlink:title=" ">
<polygon fill="white" stroke="black" points="3271,-291.5 3271,-310.5 3383,-310.5 3383,-291.5 3271,-291.5"/>
<text text-anchor="middle" x="3327" y="-298.5" font-family="Helvetica,sans-Serif" font-size="10.00">ABLFieldInitFile.cpp</text>
</a>
</g>
</g>
<!-- Node1&#45;&gt;Node126 -->
<g id="edge44" class="edge">
<title>Node1&#45;&gt;Node126</title>
<path fill="none" stroke="midnightblue" d="M1954.41,-356.16C2122.72,-356.46 2748.28,-354.39 3261,-311 3264.23,-310.73 3267.54,-310.41 3270.87,-310.05"/>
<polygon fill="midnightblue" stroke="midnightblue" points="1954.23,-352.66 1944.22,-356.14 1954.21,-359.66 1954.23,-352.66"/>
</g>
<!-- Node39 -->
<g id="node39" class="node">
<title>Node39</title>
<g id="a_node39"><a xlink:href="_joukowsky__ops_8_h.html" target="_top" xlink:title=" ">
<polygon fill="white" stroke="black" points="3521.5,-291.5 3521.5,-310.5 3622.5,-310.5 3622.5,-291.5 3521.5,-291.5"/>
<text text-anchor="middle" x="3572" y="-298.5" font-family="Helvetica,sans-Serif" font-size="10.00">Joukowsky_ops.H</text>
</a>
</g>
</g>
<!-- Node1&#45;&gt;Node39 -->
<g id="edge47" class="edge">
<title>Node1&#45;&gt;Node39</title>
<path fill="none" stroke="midnightblue" d="M1954.33,-355.49C2177.27,-352.77 3196.91,-338.96 3512,-311 3515.04,-310.73 3518.17,-310.41 3521.31,-310.04"/>
<polygon fill="midnightblue" stroke="midnightblue" points="1953.98,-352 1944.02,-355.62 1954.06,-358.99 1953.98,-352"/>
</g>
<!-- Node40 -->
<g id="node42" class="node">
<title>Node40</title>
<g id="a_node42"><a xlink:href="uniform__ct__ops_8_h.html" target="_top" xlink:title=" ">
<polygon fill="white" stroke="black" points="3401,-291.5 3401,-310.5 3503,-310.5 3503,-291.5 3401,-291.5"/>
<text text-anchor="middle" x="3452" y="-298.5" font-family="Helvetica,sans-Serif" font-size="10.00">uniform_ct_ops.H</text>
</a>
</g>
</g>
<!-- Node1&#45;&gt;Node40 -->
<g id="edge50" class="edge">
<title>Node1&#45;&gt;Node40</title>
<path fill="none" stroke="midnightblue" d="M1954.46,-355.38C2167.4,-352.21 3102.1,-337.05 3392,-311 3394.94,-310.74 3397.95,-310.42 3400.99,-310.07"/>
<polygon fill="midnightblue" stroke="midnightblue" points="1954.24,-351.88 1944.3,-355.53 1954.35,-358.88 1954.24,-351.88"/>
</g>
<!-- Node127 -->
<g id="node44" class="node">
<title>Node127</title>
<g id="a_node44"><a xlink:href="_m_o_data_8_h.html" target="_top" xlink:title=" ">
<polygon fill="white" stroke="black" points="872.5,-235.5 872.5,-254.5 939.5,-254.5 939.5,-235.5 872.5,-235.5"/>
<text text-anchor="middle" x="906" y="-242.5" font-family="Helvetica,sans-Serif" font-size="10.00">MOData.H</text>
</a>
</g>
</g>
<!-- Node1&#45;&gt;Node127 -->
<g id="edge53" class="edge">
<title>Node1&#45;&gt;Node127</title>
<path fill="none" stroke="midnightblue" d="M1867.79,-356.06C1692.32,-356.03 1038.54,-353.07 957,-311 933.04,-298.64 916.76,-269.38 909.81,-254.7"/>
<polygon fill="midnightblue" stroke="midnightblue" points="1867.93,-359.56 1877.93,-356.06 1867.93,-352.56 1867.93,-359.56"/>
</g>
<!-- Node3 -->
<g id="node3" class="node">
<title>Node3</title>
<g id="a_node3"><a xlink:href="tensor_8_h.html" target="_top" xlink:title=" ">
<polygon fill="white" stroke="black" points="316.5,-235.5 316.5,-254.5 373.5,-254.5 373.5,-235.5 316.5,-235.5"/>
<text text-anchor="middle" x="345" y="-242.5" font-family="Helvetica,sans-Serif" font-size="10.00">tensor.H</text>
</a>
</g>
</g>
<!-- Node2&#45;&gt;Node3 -->
<g id="edge2" class="edge">
<title>Node2&#45;&gt;Node3</title>
<path fill="none" stroke="midnightblue" d="M338.53,-281.1C337.9,-272.14 338.34,-261.86 339.87,-254.75"/>
<polygon fill="midnightblue" stroke="midnightblue" points="335.07,-281.62 339.83,-291.08 342.01,-280.71 335.07,-281.62"/>
</g>
<!-- Node3&#45;&gt;Node2 -->
<g id="edge3" class="edge">
<title>Node3&#45;&gt;Node2</title>
<path fill="none" stroke="midnightblue" d="M351.46,-264.69C352.11,-273.64 351.68,-283.93 350.17,-291.08"/>
<polygon fill="midnightblue" stroke="midnightblue" points="354.92,-264.2 350.13,-254.75 347.98,-265.13 354.92,-264.2"/>
</g>
<!-- Node4 -->
<g id="node4" class="node">
<title>Node4</title>
<g id="a_node4"><a xlink:href="vector__space_8_h.html" target="_top" xlink:title=" ">
<polygon fill="white" stroke="red" points="291,-179.5 291,-198.5 383,-198.5 383,-179.5 291,-179.5"/>
<text text-anchor="middle" x="337" y="-186.5" font-family="Helvetica,sans-Serif" font-size="10.00">vector_space.H</text>
</a>
</g>
</g>
<!-- Node3&#45;&gt;Node4 -->
<g id="edge4" class="edge">
<title>Node3&#45;&gt;Node4</title>
<path fill="none" stroke="midnightblue" d="M342.2,-225.1C340.87,-216.14 339.35,-205.86 338.3,-198.75"/>
<polygon fill="midnightblue" stroke="midnightblue" points="338.75,-225.7 343.68,-235.08 345.68,-224.68 338.75,-225.7"/>
</g>
<!-- Node4&#45;&gt;Node75 -->
<g id="edge5" class="edge">
<title>Node4&#45;&gt;Node75</title>
<path fill="none" stroke="midnightblue" d="M337,-168.8C337,-159.91 337,-149.78 337,-142.75"/>
<polygon fill="midnightblue" stroke="midnightblue" points="333.5,-169.08 337,-179.08 340.5,-169.08 333.5,-169.08"/>
</g>
<!-- Node76 -->
<g id="node6" class="node">
<title>Node76</title>
<g id="a_node6"><a xlink:href="_a_b_l_8_h.html" target="_top" xlink:title=" ">
<polygon fill="white" stroke="black" points="795,-67.5 795,-86.5 841,-86.5 841,-67.5 795,-67.5"/>
<text text-anchor="middle" x="818" y="-74.5" font-family="Helvetica,sans-Serif" font-size="10.00">ABL.H</text>
</a>
</g>
</g>
<!-- Node75&#45;&gt;Node76 -->
<g id="edge6" class="edge">
<title>Node75&#45;&gt;Node76</title>
<path fill="none" stroke="midnightblue" d="M420.29,-124.52C506.09,-116.5 643.62,-102.77 762,-87 772.83,-85.56 784.8,-83.67 794.88,-82"/>
<polygon fill="midnightblue" stroke="midnightblue" points="419.72,-121.06 410.09,-125.47 420.37,-128.03 419.72,-121.06"/>
</g>
<!-- Node86 -->
<g id="node16" class="node">
<title>Node86</title>
<g id="a_node16"><a xlink:href="_a_b_l_fill_m_p_l_8_h.html" target="_top" xlink:title=" ">
<polygon fill="white" stroke="black" points="146,-67.5 146,-86.5 226,-86.5 226,-67.5 146,-67.5"/>
<text text-anchor="middle" x="186" y="-74.5" font-family="Helvetica,sans-Serif" font-size="10.00">ABLFillMPL.H</text>
</a>
</g>
</g>
<!-- Node75&#45;&gt;Node86 -->
<g id="edge16" class="edge">
<title>Node75&#45;&gt;Node86</title>
<path fill="none" stroke="midnightblue" d="M303.55,-120.04C275.14,-109.88 235.06,-95.55 209.81,-86.52"/>
<polygon fill="midnightblue" stroke="midnightblue" points="302.48,-123.37 313.07,-123.44 304.84,-116.78 302.48,-123.37"/>
</g>
<!-- Node88 -->
<g id="node18" class="node">
<title>Node88</title>
<g id="a_node18"><a xlink:href="_a_b_l_modulated_power_law_8cpp.html" target="_top" xlink:title=" ">
<polygon fill="white" stroke="black" points="108,-6 108,-25 264,-25 264,-6 108,-6"/>
<text text-anchor="middle" x="186" y="-13" font-family="Helvetica,sans-Serif" font-size="10.00">ABLModulatedPowerLaw.cpp</text>
</a>
</g>
</g>
<!-- Node75&#45;&gt;Node88 -->
<g id="edge19" class="edge">
<title>Node75&#45;&gt;Node88</title>
<path fill="none" stroke="midnightblue" d="M317.52,-117.1C285.61,-92.69 223.19,-44.94 197.48,-25.28"/>
<polygon fill="midnightblue" stroke="midnightblue" points="315.58,-120.02 325.65,-123.32 319.83,-114.46 315.58,-120.02"/>
</g>
<!-- Node76&#45;&gt;Node77 -->
<g id="edge7" class="edge">
<title>Node76&#45;&gt;Node77</title>
<path fill="none" stroke="midnightblue" d="M784.98,-70.33C777.44,-69.14 769.45,-67.95 762,-67 594.16,-45.56 549.58,-60.67 383,-31 374.44,-29.48 365.27,-27.29 356.92,-25.07"/>
<polygon fill="midnightblue" stroke="midnightblue" points="784.46,-73.79 794.89,-71.94 785.58,-66.88 784.46,-73.79"/>
</g>
<!-- Node78 -->
<g id="node8" class="node">
<title>Node78</title>
<g id="a_node8"><a xlink:href="_a_b_l_mean_boussinesq_8cpp.html" target="_top" xlink:title=" ">
<polygon fill="white" stroke="black" points="636,-6 636,-25 774,-25 774,-6 636,-6"/>
<text text-anchor="middle" x="705" y="-13" font-family="Helvetica,sans-Serif" font-size="10.00">ABLMeanBoussinesq.cpp</text>
</a>
</g>
</g>
<!-- Node76&#45;&gt;Node78 -->
<g id="edge8" class="edge">
<title>Node76&#45;&gt;Node78</title>
<path fill="none" stroke="midnightblue" d="M792.76,-62.71C770.88,-51.19 739.86,-34.86 721.16,-25.01"/>
<polygon fill="midnightblue" stroke="midnightblue" points="791.33,-65.91 801.81,-67.48 794.59,-59.72 791.33,-65.91"/>
</g>
<!-- Node76&#45;&gt;Node79 -->
<g id="edge9" class="edge">
<title>Node76&#45;&gt;Node79</title>
<path fill="none" stroke="midnightblue" d="M850.92,-67.84C896.23,-56.6 977.46,-36.47 1023.56,-25.04"/>
<polygon fill="midnightblue" stroke="midnightblue" points="849.88,-64.49 841.01,-70.29 851.56,-71.29 849.88,-64.49"/>
</g>
<!-- Node76&#45;&gt;Node80 -->
<g id="edge10" class="edge">
<title>Node76&#45;&gt;Node80</title>
<path fill="none" stroke="midnightblue" d="M851.53,-75.23C926.03,-72.95 1110.61,-64.13 1261,-31 1267.63,-29.54 1274.66,-27.37 1281.04,-25.15"/>
<polygon fill="midnightblue" stroke="midnightblue" points="851.25,-71.74 841.36,-75.52 851.45,-78.73 851.25,-71.74"/>
</g>
<!-- Node81 -->
<g id="node11" class="node">
<title>Node81</title>
<g id="a_node11"><a xlink:href="incflo_8cpp.html" target="_top" xlink:title=" ">
<polygon fill="white" stroke="black" points="792.5,-6 792.5,-25 855.5,-25 855.5,-6 792.5,-6"/>
<text text-anchor="middle" x="824" y="-13" font-family="Helvetica,sans-Serif" font-size="10.00">incflo.cpp</text>
</a>
</g>
</g>
<!-- Node76&#45;&gt;Node81 -->
<g id="edge11" class="edge">
<title>Node76&#45;&gt;Node81</title>
<path fill="none" stroke="midnightblue" d="M819.88,-57.32C820.98,-46.5 822.3,-33.4 823.14,-25.01"/>
<polygon fill="midnightblue" stroke="midnightblue" points="816.38,-57.17 818.86,-67.48 823.35,-57.88 816.38,-57.17"/>
</g>
<!-- Node82 -->
<g id="node12" class="node">
<title>Node82</title>
<g id="a_node12"><a xlink:href="incflo__apply__nodal__projection_8cpp.html" target="_top" xlink:title=" ">
<polygon fill="white" stroke="black" points="873.5,-0.5 873.5,-30.5 980.5,-30.5 980.5,-0.5 873.5,-0.5"/>
<text text-anchor="start" x="881.5" y="-18.5" font-family="Helvetica,sans-Serif" font-size="10.00">incflo_apply_nodal</text>
<text text-anchor="middle" x="927" y="-7.5" font-family="Helvetica,sans-Serif" font-size="10.00">_projection.cpp</text>
</a>
</g>
</g>
<!-- Node76&#45;&gt;Node82 -->
<g id="edge12" class="edge">
<title>Node76&#45;&gt;Node82</title>
<path fill="none" stroke="midnightblue" d="M842.65,-62.54C860.15,-52.99 883.58,-40.2 901.31,-30.52"/>
<polygon fill="midnightblue" stroke="midnightblue" points="840.72,-59.61 833.62,-67.48 844.07,-65.76 840.72,-59.61"/>
</g>
<!-- Node83 -->
<g id="node13" class="node">
<title>Node83</title>
<g id="a_node13"><a xlink:href="init_8cpp.html" target="_top" xlink:title=" ">
<polygon fill="white" stroke="black" points="564.5,-6 564.5,-25 617.5,-25 617.5,-6 564.5,-6"/>
<text text-anchor="middle" x="591" y="-13" font-family="Helvetica,sans-Serif" font-size="10.00">init.cpp</text>
</a>
</g>
</g>
<!-- Node76&#45;&gt;Node83 -->
<g id="edge13" class="edge">
<title>Node76&#45;&gt;Node83</title>
<path fill="none" stroke="midnightblue" d="M784.65,-69.74C746.2,-62.16 681.32,-48.23 627,-31 621.61,-29.29 615.87,-27.14 610.61,-25.02"/>
<polygon fill="midnightblue" stroke="midnightblue" points="784.28,-73.23 794.76,-71.71 785.61,-66.36 784.28,-73.23"/>
</g>
<!-- Node84 -->
<g id="node14" class="node">
<title>Node84</title>
<g id="a_node14"><a xlink:href="_a_b_l_8cpp.html" target="_top" xlink:title=" ">
<polygon fill="white" stroke="black" points="490,-6 490,-25 546,-25 546,-6 490,-6"/>
<text text-anchor="middle" x="518" y="-13" font-family="Helvetica,sans-Serif" font-size="10.00">ABL.cpp</text>
</a>
</g>
</g>
<!-- Node76&#45;&gt;Node84 -->
<g id="edge14" class="edge">
<title>Node76&#45;&gt;Node84</title>
<path fill="none" stroke="midnightblue" d="M784.74,-70.49C716.47,-59.17 566.01,-34.07 555,-31 549.28,-29.41 543.23,-27.25 537.72,-25.09"/>
<polygon fill="midnightblue" stroke="midnightblue" points="784.51,-74 794.95,-72.19 785.66,-67.1 784.51,-74"/>
</g>
<!-- Node76&#45;&gt;Node85 -->
<g id="edge15" class="edge">
<title>Node76&#45;&gt;Node85</title>
<path fill="none" stroke="midnightblue" d="M851.43,-71.84C908.1,-64.63 1026.56,-48.85 1126,-31 1135.74,-29.25 1146.22,-27.14 1155.96,-25.07"/>
<polygon fill="midnightblue" stroke="midnightblue" points="850.75,-68.4 841.27,-73.13 851.63,-75.34 850.75,-68.4"/>
</g>
<!-- Node87 -->
<g id="node17" class="node">
<title>Node87</title>
<g id="a_node17"><a xlink:href="_a_b_l_fill_m_p_l_8cpp.html" target="_top" xlink:title=" ">
<polygon fill="white" stroke="black" points="0,-6 0,-25 90,-25 90,-6 0,-6"/>
<text text-anchor="middle" x="45" y="-13" font-family="Helvetica,sans-Serif" font-size="10.00">ABLFillMPL.cpp</text>
</a>
</g>
</g>
<!-- Node86&#45;&gt;Node87 -->
<g id="edge17" class="edge">
<title>Node86&#45;&gt;Node87</title>
<path fill="none" stroke="midnightblue" d="M156.33,-63.48C128.95,-51.92 89.02,-35.08 65.16,-25.01"/>
<polygon fill="midnightblue" stroke="midnightblue" points="155.22,-66.81 165.8,-67.48 157.95,-60.36 155.22,-66.81"/>
</g>
<!-- Node86&#45;&gt;Node88 -->
<g id="edge18" class="edge">
<title>Node86&#45;&gt;Node88</title>
<path fill="none" stroke="midnightblue" d="M186,-57.32C186,-46.5 186,-33.4 186,-25.01"/>
<polygon fill="midnightblue" stroke="midnightblue" points="182.5,-57.48 186,-67.48 189.5,-57.48 182.5,-57.48"/>
</g>
<!-- Node108&#45;&gt;Node77 -->
<g id="edge22" class="edge">
<title>Node108&#45;&gt;Node77</title>
<path fill="none" stroke="midnightblue" d="M480.9,-64.38C443.96,-52.82 388.16,-35.34 355.17,-25.01"/>
<polygon fill="midnightblue" stroke="midnightblue" points="480.19,-67.83 490.78,-67.48 482.28,-61.15 480.19,-67.83"/>
</g>
<!-- Node108&#45;&gt;Node84 -->
<g id="edge23" class="edge">
<title>Node108&#45;&gt;Node84</title>
<path fill="none" stroke="midnightblue" d="M518,-57.32C518,-46.5 518,-33.4 518,-25.01"/>
<polygon fill="midnightblue" stroke="midnightblue" points="514.5,-57.48 518,-67.48 521.5,-57.48 514.5,-57.48"/>
</g>
<!-- Node109 -->
<g id="node20" class="node">
<title>Node109</title>
<g id="a_node20"><a xlink:href="_a_b_l_stats_8cpp.html" target="_top" xlink:title=" ">
<polygon fill="white" stroke="black" points="392,-6 392,-25 472,-25 472,-6 392,-6"/>
<text text-anchor="middle" x="432" y="-13" font-family="Helvetica,sans-Serif" font-size="10.00">ABLStats.cpp</text>
</a>
</g>
</g>
<!-- Node108&#45;&gt;Node109 -->
<g id="edge24" class="edge">
<title>Node108&#45;&gt;Node109</title>
<path fill="none" stroke="midnightblue" d="M497.2,-61.61C480.66,-50.17 458.08,-34.55 444.3,-25.01"/>
<polygon fill="midnightblue" stroke="midnightblue" points="495.46,-64.66 505.68,-67.48 499.45,-58.91 495.46,-64.66"/>
</g>
<!-- Node121 -->
<g id="node32" class="node">
<title>Node121</title>
<g id="a_node32"><a xlink:href="_scalar_advection_8cpp.html" target="_top" xlink:title=" ">
<polygon fill="white" stroke="black" points="2503,-235.5 2503,-254.5 2619,-254.5 2619,-235.5 2503,-235.5"/>
<text text-anchor="middle" x="2561" y="-242.5" font-family="Helvetica,sans-Serif" font-size="10.00">ScalarAdvection.cpp</text>
</a>
</g>
</g>
<!-- Node120&#45;&gt;Node121 -->
<g id="edge38" class="edge">
<title>Node120&#45;&gt;Node121</title>
<path fill="none" stroke="midnightblue" d="M2561,-280.8C2561,-271.91 2561,-261.78 2561,-254.75"/>
<polygon fill="midnightblue" stroke="midnightblue" points="2557.5,-281.08 2561,-291.08 2564.5,-281.08 2557.5,-281.08"/>
</g>
<!-- Node31 -->
<g id="node40" class="node">
<title>Node31</title>
<g id="a_node40"><a xlink:href="_actuator_disk_8cpp.html" target="_top" xlink:title=" ">
<polygon fill="white" stroke="black" points="3462,-235.5 3462,-254.5 3562,-254.5 3562,-235.5 3462,-235.5"/>
<text text-anchor="middle" x="3512" y="-242.5" font-family="Helvetica,sans-Serif" font-size="10.00">ActuatorDisk.cpp</text>
</a>
</g>
</g>
<!-- Node39&#45;&gt;Node31 -->
<g id="edge48" class="edge">
<title>Node39&#45;&gt;Node31</title>
<path fill="none" stroke="midnightblue" d="M3554.82,-284.54C3544.12,-274.91 3530.74,-262.87 3521.82,-254.83"/>
<polygon fill="midnightblue" stroke="midnightblue" points="3552.59,-287.24 3562.36,-291.32 3557.27,-282.03 3552.59,-287.24"/>
</g>
<!-- Node38 -->
<g id="node41" class="node">
<title>Node38</title>
<g id="a_node41"><a xlink:href="_joukowsky__ops_8cpp.html" target="_top" xlink:title=" ">
<polygon fill="white" stroke="black" points="3580,-235.5 3580,-254.5 3690,-254.5 3690,-235.5 3580,-235.5"/>
<text text-anchor="middle" x="3635" y="-242.5" font-family="Helvetica,sans-Serif" font-size="10.00">Joukowsky_ops.cpp</text>
</a>
</g>
</g>
<!-- Node39&#45;&gt;Node38 -->
<g id="edge49" class="edge">
<title>Node39&#45;&gt;Node38</title>
<path fill="none" stroke="midnightblue" d="M3590.04,-284.54C3601.27,-274.91 3615.32,-262.87 3624.69,-254.83"/>
<polygon fill="midnightblue" stroke="midnightblue" points="3587.44,-282.16 3582.12,-291.32 3591.99,-287.47 3587.44,-282.16"/>
</g>
<!-- Node40&#45;&gt;Node31 -->
<g id="edge51" class="edge">
<title>Node40&#45;&gt;Node31</title>
<path fill="none" stroke="midnightblue" d="M3469.18,-284.54C3479.88,-274.91 3493.26,-262.87 3502.18,-254.83"/>
<polygon fill="midnightblue" stroke="midnightblue" points="3466.73,-282.03 3461.64,-291.32 3471.41,-287.24 3466.73,-282.03"/>
</g>
<!-- Node41 -->
<g id="node43" class="node">
<title>Node41</title>
<g id="a_node43"><a xlink:href="uniform__ct__ops_8cpp.html" target="_top" xlink:title=" ">
<polygon fill="white" stroke="black" points="3332,-235.5 3332,-254.5 3444,-254.5 3444,-235.5 3332,-235.5"/>
<text text-anchor="middle" x="3388" y="-242.5" font-family="Helvetica,sans-Serif" font-size="10.00">uniform_ct_ops.cpp</text>
</a>
</g>
</g>
<!-- Node40&#45;&gt;Node41 -->
<g id="edge52" class="edge">
<title>Node40&#45;&gt;Node41</title>
<path fill="none" stroke="midnightblue" d="M3434.01,-284.82C3422.54,-275.15 3408.09,-262.95 3398.47,-254.83"/>
<polygon fill="midnightblue" stroke="midnightblue" points="3431.82,-287.55 3441.72,-291.32 3436.33,-282.2 3431.82,-287.55"/>
</g>
<!-- Node128 -->
<g id="node45" class="node">
<title>Node128</title>
<g id="a_node45"><a xlink:href="_a_b_l_wall_function_8_h.html" target="_top" xlink:title=" ">
<polygon fill="white" stroke="black" points="740.5,-179.5 740.5,-198.5 847.5,-198.5 847.5,-179.5 740.5,-179.5"/>
<text text-anchor="middle" x="794" y="-186.5" font-family="Helvetica,sans-Serif" font-size="10.00">ABLWallFunction.H</text>
</a>
</g>
</g>
<!-- Node127&#45;&gt;Node128 -->
<g id="edge54" class="edge">
<title>Node127&#45;&gt;Node128</title>
<path fill="none" stroke="midnightblue" d="M878.75,-230.86C857.98,-220.85 829.98,-207.35 811.95,-198.65"/>
<polygon fill="midnightblue" stroke="midnightblue" points="877.48,-234.13 888.01,-235.32 880.52,-227.83 877.48,-234.13"/>
</g>
<!-- Node132 -->
<g id="node49" class="node">
<title>Node132</title>
<g id="a_node49"><a xlink:href="_m_o_data_8cpp.html" target="_top" xlink:title=" ">
<polygon fill="white" stroke="black" points="865.5,-179.5 865.5,-198.5 942.5,-198.5 942.5,-179.5 865.5,-179.5"/>
<text text-anchor="middle" x="904" y="-186.5" font-family="Helvetica,sans-Serif" font-size="10.00">MOData.cpp</text>
</a>
</g>
</g>
<!-- Node127&#45;&gt;Node132 -->
<g id="edge63" class="edge">
<title>Node127&#45;&gt;Node132</title>
<path fill="none" stroke="midnightblue" d="M905.29,-224.8C904.96,-215.91 904.58,-205.78 904.32,-198.75"/>
<polygon fill="midnightblue" stroke="midnightblue" points="901.8,-225.22 905.67,-235.08 908.8,-224.96 901.8,-225.22"/>
</g>
<!-- Node133 -->
<g id="node50" class="node">
<title>Node133</title>
<g id="a_node50"><a xlink:href="_shear_stress_8_h.html" target="_top" xlink:title=" ">
<polygon fill="white" stroke="black" points="1037.5,-123.5 1037.5,-142.5 1122.5,-142.5 1122.5,-123.5 1037.5,-123.5"/>
<text text-anchor="middle" x="1080" y="-130.5" font-family="Helvetica,sans-Serif" font-size="10.00">ShearStress.H</text>
</a>
</g>
</g>
<!-- Node127&#45;&gt;Node133 -->
<g id="edge64" class="edge">
<title>Node127&#45;&gt;Node133</title>
<path fill="none" stroke="midnightblue" d="M928.13,-230.01C964.66,-206.92 1036.48,-161.51 1066.41,-142.59"/>
<polygon fill="midnightblue" stroke="midnightblue" points="926.24,-227.07 919.65,-235.37 929.98,-232.98 926.24,-227.07"/>
</g>
<!-- Node128&#45;&gt;Node76 -->
<g id="edge56" class="edge">
<title>Node128&#45;&gt;Node76</title>
<path fill="none" stroke="midnightblue" d="M820.32,-174.05C831.66,-166.51 843.75,-156.05 850,-143 859.68,-122.81 840.43,-99.27 827.8,-86.8"/>
<polygon fill="midnightblue" stroke="midnightblue" points="818.19,-171.25 811.5,-179.46 821.85,-177.21 818.19,-171.25"/>
</g>
<!-- Node128&#45;&gt;Node85 -->
<g id="edge62" class="edge">
<title>Node128&#45;&gt;Node85</title>
<path fill="none" stroke="midnightblue" d="M823.45,-175.37C900.88,-142.17 1108.7,-53.07 1174.04,-25.06"/>
<polygon fill="midnightblue" stroke="midnightblue" points="821.65,-172.34 813.84,-179.5 824.41,-178.77 821.65,-172.34"/>
</g>
<!-- Node129 -->
<g id="node46" class="node">
<title>Node129</title>
<g id="a_node46"><a xlink:href="_boussinesq_bubble_8cpp.html" target="_top" xlink:title=" ">
<polygon fill="white" stroke="black" points="564,-123.5 564,-142.5 690,-142.5 690,-123.5 564,-123.5"/>
<text text-anchor="middle" x="627" y="-130.5" font-family="Helvetica,sans-Serif" font-size="10.00">BoussinesqBubble.cpp</text>
</a>
</g>
</g>
<!-- Node128&#45;&gt;Node129 -->
<g id="edge55" class="edge">
<title>Node128&#45;&gt;Node129</title>
<path fill="none" stroke="midnightblue" d="M757.83,-176.3C726.36,-166.13 681.51,-151.62 653.34,-142.52"/>
<polygon fill="midnightblue" stroke="midnightblue" points="756.95,-179.7 767.54,-179.44 759.1,-173.04 756.95,-179.7"/>
</g>
<!-- Node130 -->
<g id="node47" class="node">
<title>Node130</title>
<g id="a_node47"><a xlink:href="_a_b_l_stats_8_h.html" target="_top" xlink:title=" ">
<polygon fill="white" stroke="black" points="682.5,-67.5 682.5,-86.5 753.5,-86.5 753.5,-67.5 682.5,-67.5"/>
<text text-anchor="middle" x="718" y="-74.5" font-family="Helvetica,sans-Serif" font-size="10.00">ABLStats.H</text>
</a>
</g>
</g>
<!-- Node128&#45;&gt;Node130 -->
<g id="edge57" class="edge">
<title>Node128&#45;&gt;Node130</title>
<path fill="none" stroke="midnightblue" d="M769.75,-173.85C758.33,-166.06 745.4,-155.45 737,-143 725.03,-125.26 720.48,-99.89 718.85,-86.71"/>
<polygon fill="midnightblue" stroke="midnightblue" points="768.17,-176.99 778.47,-179.46 771.96,-171.11 768.17,-176.99"/>
</g>
<!-- Node131 -->
<g id="node48" class="node">
<title>Node131</title>
<g id="a_node48"><a xlink:href="_a_b_l_stats_base_8_h.html" target="_top" xlink:title=" ">
<polygon fill="white" stroke="black" points="746.5,-123.5 746.5,-142.5 841.5,-142.5 841.5,-123.5 746.5,-123.5"/>
<text text-anchor="middle" x="794" y="-130.5" font-family="Helvetica,sans-Serif" font-size="10.00">ABLStatsBase.H</text>
</a>
</g>
</g>
<!-- Node128&#45;&gt;Node131 -->
<g id="edge59" class="edge">
<title>Node128&#45;&gt;Node131</title>
<path fill="none" stroke="midnightblue" d="M794,-168.8C794,-159.91 794,-149.78 794,-142.75"/>
<polygon fill="midnightblue" stroke="midnightblue" points="790.5,-169.08 794,-179.08 797.5,-169.08 790.5,-169.08"/>
</g>
<!-- Node130&#45;&gt;Node109 -->
<g id="edge58" class="edge">
<title>Node130&#45;&gt;Node109</title>
<path fill="none" stroke="midnightblue" d="M672.37,-68.73C624.43,-60.77 546.98,-46.98 481,-31 473.84,-29.27 466.18,-27.13 459.08,-25.04"/>
<polygon fill="midnightblue" stroke="midnightblue" points="671.99,-72.22 682.43,-70.39 673.13,-65.31 671.99,-72.22"/>
</g>
<!-- Node131&#45;&gt;Node76 -->
<g id="edge60" class="edge">
<title>Node131&#45;&gt;Node76</title>
<path fill="none" stroke="midnightblue" d="M802.14,-113.69C806.18,-104.59 810.88,-94.01 814.11,-86.75"/>
<polygon fill="midnightblue" stroke="midnightblue" points="798.83,-112.52 797.96,-123.08 805.22,-115.37 798.83,-112.52"/>
</g>
<!-- Node131&#45;&gt;Node130 -->
<g id="edge61" class="edge">
<title>Node131&#45;&gt;Node130</title>
<path fill="none" stroke="midnightblue" d="M773.42,-117.38C759.69,-107.62 742.07,-95.11 730.43,-86.83"/>
<polygon fill="midnightblue" stroke="midnightblue" points="771.61,-120.38 781.79,-123.32 775.66,-114.68 771.61,-120.38"/>
</g>
<!-- Node133&#45;&gt;Node85 -->
<g id="edge65" class="edge">
<title>Node133&#45;&gt;Node85</title>
<path fill="none" stroke="midnightblue" d="M1093.59,-115.37C1104.81,-101.92 1121.37,-82.71 1137,-67 1152.48,-51.44 1171.85,-34.83 1183.56,-25.07"/>
<polygon fill="midnightblue" stroke="midnightblue" points="1090.72,-113.34 1087.05,-123.28 1096.12,-117.8 1090.72,-113.34"/>
</g>
</g>
</svg>
