<?xml version="1.0" encoding="UTF-8" standalone="no"?>
<!DOCTYPE svg PUBLIC "-//W3C//DTD SVG 1.1//EN"
 "http://www.w3.org/Graphics/SVG/1.1/DTD/svg11.dtd">
<!-- Generated by graphviz version 2.43.0 (0)
 -->
<!-- Title: /home/runner/work/amr&#45;wind/amr&#45;wind/src/wind_energy/ABLFieldInit.H Pages: 1 -->
<svg width="2996pt" height="291pt"
 viewBox="0.00 0.00 2996.00 291.00" xmlns="http://www.w3.org/2000/svg" xmlns:xlink="http://www.w3.org/1999/xlink">
<g id="graph0" class="graph" transform="scale(1 1) rotate(0) translate(4 287)">
<title>/home/runner/work/amr&#45;wind/amr&#45;wind/src/wind_energy/ABLFieldInit.H</title>
<!-- Node1 -->
<g id="Node000001" class="node">
<title>Node1</title>
<g id="a_Node000001"><a xlink:title=" ">
<polygon fill="#999999" stroke="#666666" points="2386,-283 2249,-283 2249,-242 2386,-242 2386,-283"/>
<text text-anchor="start" x="2257" y="-271" font-family="Helvetica,sans-Serif" font-size="10.00">/home/runner/work/amr</text>
<text text-anchor="start" x="2257" y="-260" font-family="Helvetica,sans-Serif" font-size="10.00">&#45;wind/amr&#45;wind/src/wind</text>
<text text-anchor="middle" x="2317.5" y="-249" font-family="Helvetica,sans-Serif" font-size="10.00">_energy/ABLFieldInit.H</text>
</a>
</g>
</g>
<!-- Node2 -->
<g id="Node000002" class="node">
<title>Node2</title>
<g id="a_Node000002"><a xlink:href="_a_b_l_8_h.html" target="_top" xlink:title=" ">
<polygon fill="white" stroke="#666666" points="1688,-206 1551,-206 1551,-165 1688,-165 1688,-206"/>
<text text-anchor="start" x="1559" y="-194" font-family="Helvetica,sans-Serif" font-size="10.00">/home/runner/work/amr</text>
<text text-anchor="start" x="1559" y="-183" font-family="Helvetica,sans-Serif" font-size="10.00">&#45;wind/amr&#45;wind/src/wind</text>
<text text-anchor="middle" x="1619.5" y="-172" font-family="Helvetica,sans-Serif" font-size="10.00">_energy/ABL.H</text>
</a>
</g>
</g>
<!-- Node1&#45;&gt;Node2 -->
<g id="edge1_Node000001_Node000002" class="edge">
<title>Node1&#45;&gt;Node2</title>
<g id="a_edge1_Node000001_Node000002"><a xlink:title=" ">
<path fill="none" stroke="#63b8ff" d="M2238.92,-253.06C2101.21,-238.26 1818.53,-207.89 1688.16,-193.88"/>
<polygon fill="#63b8ff" stroke="#63b8ff" points="2238.67,-256.55 2248.98,-254.14 2239.41,-249.59 2238.67,-256.55"/>
</a>
</g>
</g>
<!-- Node19 -->
<g id="Node000019" class="node">
<title>Node19</title>
<g id="a_Node000019"><a xlink:href="_a_b_l_8cpp.html" target="_top" xlink:title=" ">
<polygon fill="white" stroke="#666666" points="2988,-123.5 2851,-123.5 2851,-82.5 2988,-82.5 2988,-123.5"/>
<text text-anchor="start" x="2859" y="-111.5" font-family="Helvetica,sans-Serif" font-size="10.00">/home/runner/work/amr</text>
<text text-anchor="start" x="2859" y="-100.5" font-family="Helvetica,sans-Serif" font-size="10.00">&#45;wind/amr&#45;wind/src/wind</text>
<text text-anchor="middle" x="2919.5" y="-89.5" font-family="Helvetica,sans-Serif" font-size="10.00">_energy/ABL.cpp</text>
</a>
</g>
</g>
<!-- Node1&#45;&gt;Node19 -->
<g id="edge21_Node000001_Node000019" class="edge">
<title>Node1&#45;&gt;Node19</title>
<g id="a_edge21_Node000001_Node000019"><a xlink:title=" ">
<path fill="none" stroke="#63b8ff" d="M2314.65,-231.77C2314.35,-209.93 2318.03,-181.33 2336.5,-165 2378.65,-127.75 2786.27,-139.66 2841.5,-129 2848.9,-127.57 2856.58,-125.66 2864.1,-123.53"/>
<polygon fill="#63b8ff" stroke="#63b8ff" points="2311.16,-232.02 2315.07,-241.87 2318.15,-231.73 2311.16,-232.02"/>
</a>
</g>
</g>
<!-- Node22 -->
<g id="Node000022" class="node">
<title>Node22</title>
<g id="a_Node000022"><a xlink:href="_a_b_l_field_init_8cpp.html" target="_top" xlink:title=" ">
<polygon fill="white" stroke="#666666" points="2483,-206 2346,-206 2346,-165 2483,-165 2483,-206"/>
<text text-anchor="start" x="2354" y="-194" font-family="Helvetica,sans-Serif" font-size="10.00">/home/runner/work/amr</text>
<text text-anchor="start" x="2354" y="-183" font-family="Helvetica,sans-Serif" font-size="10.00">&#45;wind/amr&#45;wind/src/wind</text>
<text text-anchor="middle" x="2414.5" y="-172" font-family="Helvetica,sans-Serif" font-size="10.00">_energy/ABLFieldInit.cpp</text>
</a>
</g>
</g>
<!-- Node1&#45;&gt;Node22 -->
<g id="edge22_Node000001_Node000022" class="edge">
<title>Node1&#45;&gt;Node22</title>
<g id="a_edge22_Node000001_Node000022"><a xlink:title=" ">
<path fill="none" stroke="#63b8ff" d="M2350.72,-235.82C2363.27,-226.11 2377.33,-215.24 2389.06,-206.17"/>
<polygon fill="#63b8ff" stroke="#63b8ff" points="2348.5,-233.1 2342.73,-241.99 2352.78,-238.64 2348.5,-233.1"/>
</a>
</g>
</g>
<!-- Node3 -->
<g id="Node000003" class="node">
<title>Node3</title>
<g id="a_Node000003"><a xlink:href="_c_f_d_sim_8cpp.html" target="_top" xlink:title=" ">
<polygon fill="white" stroke="#666666" points="173,-118 0,-118 0,-88 173,-88 173,-118"/>
<text text-anchor="start" x="8" y="-106" font-family="Helvetica,sans-Serif" font-size="10.00">/home/runner/work/amr</text>
<text text-anchor="middle" x="86.5" y="-95" font-family="Helvetica,sans-Serif" font-size="10.00">&#45;wind/amr&#45;wind/src/CFDSim.cpp</text>
</a>
</g>
</g>
<!-- Node2&#45;&gt;Node3 -->
<g id="edge2_Node000002_Node000003" class="edge">
<title>Node2&#45;&gt;Node3</title>
<g id="a_edge2_Node000002_Node000003"><a xlink:title=" ">
<path fill="none" stroke="#63b8ff" d="M1540.72,-183.7C1280.18,-180.7 447.86,-168.2 182.5,-129 165.97,-126.56 148.19,-122.38 132.47,-118.13"/>
<polygon fill="#63b8ff" stroke="#63b8ff" points="1540.82,-187.2 1550.85,-183.81 1540.9,-180.2 1540.82,-187.2"/>
</a>
</g>
</g>
<!-- Node4 -->
<g id="Node000004" class="node">
<title>Node4</title>
<g id="a_Node000004"><a xlink:href="_a_b_l_forcing_8cpp.html" target="_top" xlink:title=" ">
<polygon fill="white" stroke="#666666" points="347.5,-129 191.5,-129 191.5,-77 347.5,-77 347.5,-129"/>
<text text-anchor="start" x="199.5" y="-117" font-family="Helvetica,sans-Serif" font-size="10.00">/home/runner/work/amr</text>
<text text-anchor="start" x="199.5" y="-106" font-family="Helvetica,sans-Serif" font-size="10.00">&#45;wind/amr&#45;wind/src/equation</text>
<text text-anchor="start" x="199.5" y="-95" font-family="Helvetica,sans-Serif" font-size="10.00">_systems/icns/source_terms</text>
<text text-anchor="middle" x="269.5" y="-84" font-family="Helvetica,sans-Serif" font-size="10.00">/ABLForcing.cpp</text>
</a>
</g>
</g>
<!-- Node2&#45;&gt;Node4 -->
<g id="edge3_Node000002_Node000004" class="edge">
<title>Node2&#45;&gt;Node4</title>
<g id="a_edge3_Node000002_Node000004"><a xlink:title=" ">
<path fill="none" stroke="#63b8ff" d="M1540.59,-183.47C1301.28,-179.94 586.06,-166.49 356.5,-129 353.55,-128.52 350.56,-127.97 347.56,-127.37"/>
<polygon fill="#63b8ff" stroke="#63b8ff" points="1540.56,-186.97 1550.61,-183.61 1540.66,-179.97 1540.56,-186.97"/>
</a>
</g>
</g>
<!-- Node5 -->
<g id="Node000005" class="node">
<title>Node5</title>
<g id="a_Node000005"><a xlink:href="_a_b_l_mean_boussinesq_8cpp.html" target="_top" xlink:title=" ">
<polygon fill="white" stroke="#666666" points="521.5,-129 365.5,-129 365.5,-77 521.5,-77 521.5,-129"/>
<text text-anchor="start" x="373.5" y="-117" font-family="Helvetica,sans-Serif" font-size="10.00">/home/runner/work/amr</text>
<text text-anchor="start" x="373.5" y="-106" font-family="Helvetica,sans-Serif" font-size="10.00">&#45;wind/amr&#45;wind/src/equation</text>
<text text-anchor="start" x="373.5" y="-95" font-family="Helvetica,sans-Serif" font-size="10.00">_systems/icns/source_terms</text>
<text text-anchor="middle" x="443.5" y="-84" font-family="Helvetica,sans-Serif" font-size="10.00">/ABLMeanBoussinesq.cpp</text>
</a>
</g>
</g>
<!-- Node2&#45;&gt;Node5 -->
<g id="edge4_Node000002_Node000005" class="edge">
<title>Node2&#45;&gt;Node5</title>
<g id="a_edge4_Node000002_Node000005"><a xlink:title=" ">
<path fill="none" stroke="#63b8ff" d="M1540.54,-182.82C1324.18,-177.85 725.01,-161.46 530.5,-129 527.55,-128.51 524.57,-127.95 521.56,-127.34"/>
<polygon fill="#63b8ff" stroke="#63b8ff" points="1540.78,-186.33 1550.86,-183.06 1540.94,-179.33 1540.78,-186.33"/>
</a>
</g>
</g>
<!-- Node6 -->
<g id="Node000006" class="node">
<title>Node6</title>
<g id="a_Node000006"><a xlink:href="_a_b_l_meso_forcing_mom_8cpp.html" target="_top" xlink:title=" ">
<polygon fill="white" stroke="#666666" points="695.5,-129 539.5,-129 539.5,-77 695.5,-77 695.5,-129"/>
<text text-anchor="start" x="547.5" y="-117" font-family="Helvetica,sans-Serif" font-size="10.00">/home/runner/work/amr</text>
<text text-anchor="start" x="547.5" y="-106" font-family="Helvetica,sans-Serif" font-size="10.00">&#45;wind/amr&#45;wind/src/equation</text>
<text text-anchor="start" x="547.5" y="-95" font-family="Helvetica,sans-Serif" font-size="10.00">_systems/icns/source_terms</text>
<text text-anchor="middle" x="617.5" y="-84" font-family="Helvetica,sans-Serif" font-size="10.00">/ABLMesoForcingMom.cpp</text>
</a>
</g>
</g>
<!-- Node2&#45;&gt;Node6 -->
<g id="edge5_Node000002_Node000006" class="edge">
<title>Node2&#45;&gt;Node6</title>
<g id="a_edge5_Node000002_Node000006"><a xlink:title=" ">
<path fill="none" stroke="#63b8ff" d="M1540.68,-181.94C1349.34,-175.37 864.29,-156.46 704.5,-129 701.56,-128.49 698.57,-127.93 695.57,-127.31"/>
<polygon fill="#63b8ff" stroke="#63b8ff" points="1540.83,-185.45 1550.94,-182.29 1541.07,-178.45 1540.83,-185.45"/>
</a>
</g>
</g>
<!-- Node7 -->
<g id="Node000007" class="node">
<title>Node7</title>
<g id="a_Node000007"><a xlink:href="_drag_forcing_8cpp.html" target="_top" xlink:title=" ">
<polygon fill="white" stroke="#666666" points="869.5,-129 713.5,-129 713.5,-77 869.5,-77 869.5,-129"/>
<text text-anchor="start" x="721.5" y="-117" font-family="Helvetica,sans-Serif" font-size="10.00">/home/runner/work/amr</text>
<text text-anchor="start" x="721.5" y="-106" font-family="Helvetica,sans-Serif" font-size="10.00">&#45;wind/amr&#45;wind/src/equation</text>
<text text-anchor="start" x="721.5" y="-95" font-family="Helvetica,sans-Serif" font-size="10.00">_systems/icns/source_terms</text>
<text text-anchor="middle" x="791.5" y="-84" font-family="Helvetica,sans-Serif" font-size="10.00">/DragForcing.cpp</text>
</a>
</g>
</g>
<!-- Node2&#45;&gt;Node7 -->
<g id="edge6_Node000002_Node000007" class="edge">
<title>Node2&#45;&gt;Node7</title>
<g id="a_edge6_Node000002_Node000007"><a xlink:title=" ">
<path fill="none" stroke="#63b8ff" d="M1540.65,-183.88C1404.51,-181.64 1117.05,-171.74 878.5,-129 875.56,-128.47 872.58,-127.89 869.58,-127.25"/>
<polygon fill="#63b8ff" stroke="#63b8ff" points="1540.92,-187.39 1550.97,-184.04 1541.03,-180.39 1540.92,-187.39"/>
</a>
</g>
</g>
<!-- Node8 -->
<g id="Node000008" class="node">
<title>Node8</title>
<g id="a_Node000008"><a xlink:href="_forest_forcing_8cpp.html" target="_top" xlink:title=" ">
<polygon fill="white" stroke="#666666" points="1043.5,-129 887.5,-129 887.5,-77 1043.5,-77 1043.5,-129"/>
<text text-anchor="start" x="895.5" y="-117" font-family="Helvetica,sans-Serif" font-size="10.00">/home/runner/work/amr</text>
<text text-anchor="start" x="895.5" y="-106" font-family="Helvetica,sans-Serif" font-size="10.00">&#45;wind/amr&#45;wind/src/equation</text>
<text text-anchor="start" x="895.5" y="-95" font-family="Helvetica,sans-Serif" font-size="10.00">_systems/icns/source_terms</text>
<text text-anchor="middle" x="965.5" y="-84" font-family="Helvetica,sans-Serif" font-size="10.00">/ForestForcing.cpp</text>
</a>
</g>
</g>
<!-- Node2&#45;&gt;Node8 -->
<g id="edge7_Node000002_Node000008" class="edge">
<title>Node2&#45;&gt;Node8</title>
<g id="a_edge7_Node000002_Node000008"><a xlink:title=" ">
<path fill="none" stroke="#63b8ff" d="M1540.82,-181.33C1430.75,-175.87 1224.91,-161.92 1052.5,-129 1049.57,-128.44 1046.59,-127.83 1043.59,-127.17"/>
<polygon fill="#63b8ff" stroke="#63b8ff" points="1540.69,-184.83 1550.85,-181.82 1541.03,-177.84 1540.69,-184.83"/>
</a>
</g>
</g>
<!-- Node9 -->
<g id="Node000009" class="node">
<title>Node9</title>
<g id="a_Node000009"><a xlink:href="_hurricane_forcing_8cpp.html" target="_top" xlink:title=" ">
<polygon fill="white" stroke="#666666" points="1217.5,-129 1061.5,-129 1061.5,-77 1217.5,-77 1217.5,-129"/>
<text text-anchor="start" x="1069.5" y="-117" font-family="Helvetica,sans-Serif" font-size="10.00">/home/runner/work/amr</text>
<text text-anchor="start" x="1069.5" y="-106" font-family="Helvetica,sans-Serif" font-size="10.00">&#45;wind/amr&#45;wind/src/equation</text>
<text text-anchor="start" x="1069.5" y="-95" font-family="Helvetica,sans-Serif" font-size="10.00">_systems/icns/source_terms</text>
<text text-anchor="middle" x="1139.5" y="-84" font-family="Helvetica,sans-Serif" font-size="10.00">/HurricaneForcing.cpp</text>
</a>
</g>
</g>
<!-- Node2&#45;&gt;Node9 -->
<g id="edge8_Node000002_Node000009" class="edge">
<title>Node2&#45;&gt;Node9</title>
<g id="a_edge8_Node000002_Node000009"><a xlink:title=" ">
<path fill="none" stroke="#63b8ff" d="M1540.87,-176.66C1461.12,-167.95 1334.43,-152.01 1226.5,-129 1223.58,-128.38 1220.61,-127.71 1217.62,-127.01"/>
<polygon fill="#63b8ff" stroke="#63b8ff" points="1540.52,-180.14 1550.84,-177.74 1541.27,-173.19 1540.52,-180.14"/>
</a>
</g>
</g>
<!-- Node10 -->
<g id="Node000010" class="node">
<title>Node10</title>
<g id="a_Node000010"><a xlink:href="_a_b_l_meso_forcing_temp_8cpp.html" target="_top" xlink:title=" ">
<polygon fill="white" stroke="#666666" points="1415.5,-129 1235.5,-129 1235.5,-77 1415.5,-77 1415.5,-129"/>
<text text-anchor="start" x="1243.5" y="-117" font-family="Helvetica,sans-Serif" font-size="10.00">/home/runner/work/amr</text>
<text text-anchor="start" x="1243.5" y="-106" font-family="Helvetica,sans-Serif" font-size="10.00">&#45;wind/amr&#45;wind/src/equation</text>
<text text-anchor="start" x="1243.5" y="-95" font-family="Helvetica,sans-Serif" font-size="10.00">_systems/temperature/source</text>
<text text-anchor="middle" x="1325.5" y="-84" font-family="Helvetica,sans-Serif" font-size="10.00">_terms/ABLMesoForcingTemp.cpp</text>
</a>
</g>
</g>
<!-- Node2&#45;&gt;Node10 -->
<g id="edge9_Node000002_Node000010" class="edge">
<title>Node2&#45;&gt;Node10</title>
<g id="a_edge9_Node000002_Node000010"><a xlink:title=" ">
<path fill="none" stroke="#63b8ff" d="M1540.81,-162.95C1502.26,-152.4 1455.65,-139.64 1415.67,-128.69"/>
<polygon fill="#63b8ff" stroke="#63b8ff" points="1540.37,-166.46 1550.94,-165.73 1542.22,-159.71 1540.37,-166.46"/>
</a>
</g>
</g>
<!-- Node11 -->
<g id="Node000011" class="node">
<title>Node11</title>
<g id="a_Node000011"><a xlink:href="_hurricane_temp_forcing_8cpp.html" target="_top" xlink:title=" ">
<polygon fill="white" stroke="#666666" points="1615.5,-129 1433.5,-129 1433.5,-77 1615.5,-77 1615.5,-129"/>
<text text-anchor="start" x="1441.5" y="-117" font-family="Helvetica,sans-Serif" font-size="10.00">/home/runner/work/amr</text>
<text text-anchor="start" x="1441.5" y="-106" font-family="Helvetica,sans-Serif" font-size="10.00">&#45;wind/amr&#45;wind/src/equation</text>
<text text-anchor="start" x="1441.5" y="-95" font-family="Helvetica,sans-Serif" font-size="10.00">_systems/temperature/source</text>
<text text-anchor="middle" x="1524.5" y="-84" font-family="Helvetica,sans-Serif" font-size="10.00">_terms/HurricaneTempForcing.cpp</text>
</a>
</g>
</g>
<!-- Node2&#45;&gt;Node11 -->
<g id="edge10_Node000002_Node000011" class="edge">
<title>Node2&#45;&gt;Node11</title>
<g id="a_edge10_Node000002_Node000011"><a xlink:title=" ">
<path fill="none" stroke="#63b8ff" d="M1588.3,-158.06C1577.33,-148.76 1565.03,-138.35 1554.19,-129.16"/>
<polygon fill="#63b8ff" stroke="#63b8ff" points="1586.12,-160.81 1596.02,-164.6 1590.65,-155.47 1586.12,-160.81"/>
</a>
</g>
</g>
<!-- Node12 -->
<g id="Node000012" class="node">
<title>Node12</title>
<g id="a_Node000012"><a xlink:href="helics_8cpp.html" target="_top" xlink:title=" ">
<polygon fill="white" stroke="#666666" points="1795.5,-118 1633.5,-118 1633.5,-88 1795.5,-88 1795.5,-118"/>
<text text-anchor="start" x="1641.5" y="-106" font-family="Helvetica,sans-Serif" font-size="10.00">/home/runner/work/amr</text>
<text text-anchor="middle" x="1714.5" y="-95" font-family="Helvetica,sans-Serif" font-size="10.00">&#45;wind/amr&#45;wind/src/helics.cpp</text>
</a>
</g>
</g>
<!-- Node2&#45;&gt;Node12 -->
<g id="edge11_Node000002_Node000012" class="edge">
<title>Node2&#45;&gt;Node12</title>
<g id="a_edge11_Node000002_Node000012"><a xlink:title=" ">
<path fill="none" stroke="#63b8ff" d="M1650.9,-157.9C1666.57,-144.61 1684.9,-129.08 1697.84,-118.12"/>
<polygon fill="#63b8ff" stroke="#63b8ff" points="1648.35,-155.47 1642.98,-164.6 1652.88,-160.81 1648.35,-155.47"/>
</a>
</g>
</g>
<!-- Node13 -->
<g id="Node000013" class="node">
<title>Node13</title>
<g id="a_Node000013"><a xlink:href="incflo_8cpp.html" target="_top" xlink:title=" ">
<polygon fill="white" stroke="#666666" points="1973.5,-118 1813.5,-118 1813.5,-88 1973.5,-88 1973.5,-118"/>
<text text-anchor="start" x="1821.5" y="-106" font-family="Helvetica,sans-Serif" font-size="10.00">/home/runner/work/amr</text>
<text text-anchor="middle" x="1893.5" y="-95" font-family="Helvetica,sans-Serif" font-size="10.00">&#45;wind/amr&#45;wind/src/incflo.cpp</text>
</a>
</g>
</g>
<!-- Node2&#45;&gt;Node13 -->
<g id="edge12_Node000002_Node000013" class="edge">
<title>Node2&#45;&gt;Node13</title>
<g id="a_edge12_Node000002_Node000013"><a xlink:title=" ">
<path fill="none" stroke="#63b8ff" d="M1695.9,-162.05C1743.85,-147.97 1804.2,-130.24 1845.51,-118.1"/>
<polygon fill="#63b8ff" stroke="#63b8ff" points="1694.79,-158.73 1686.18,-164.91 1696.76,-165.45 1694.79,-158.73"/>
</a>
</g>
</g>
<!-- Node14 -->
<g id="Node000014" class="node">
<title>Node14</title>
<g id="a_Node000014"><a xlink:href="nodal__projection__ops_8_h.html" target="_top" xlink:title=" ">
<polygon fill="white" stroke="#666666" points="2153.5,-123.5 1991.5,-123.5 1991.5,-82.5 2153.5,-82.5 2153.5,-123.5"/>
<text text-anchor="start" x="1999.5" y="-111.5" font-family="Helvetica,sans-Serif" font-size="10.00">/home/runner/work/amr</text>
<text text-anchor="start" x="1999.5" y="-100.5" font-family="Helvetica,sans-Serif" font-size="10.00">&#45;wind/amr&#45;wind/src/projection</text>
<text text-anchor="middle" x="2072.5" y="-89.5" font-family="Helvetica,sans-Serif" font-size="10.00">/nodal_projection_ops.H</text>
</a>
</g>
</g>
<!-- Node2&#45;&gt;Node14 -->
<g id="edge13_Node000002_Node000014" class="edge">
<title>Node2&#45;&gt;Node14</title>
<g id="a_edge13_Node000002_Node000014"><a xlink:title=" ">
<path fill="none" stroke="#63b8ff" d="M1698.34,-175.2C1772.2,-165.84 1885.46,-149.82 1982.5,-129 1989.95,-127.4 1997.7,-125.55 2005.39,-123.58"/>
<polygon fill="#63b8ff" stroke="#63b8ff" points="1697.67,-171.76 1688.18,-176.48 1698.54,-178.7 1697.67,-171.76"/>
</a>
</g>
</g>
<!-- Node17 -->
<g id="Node000017" class="node">
<title>Node17</title>
<g id="a_Node000017"><a xlink:href="init_8cpp.html" target="_top" xlink:title=" ">
<polygon fill="white" stroke="#666666" points="2311.5,-123.5 2171.5,-123.5 2171.5,-82.5 2311.5,-82.5 2311.5,-123.5"/>
<text text-anchor="start" x="2179.5" y="-111.5" font-family="Helvetica,sans-Serif" font-size="10.00">/home/runner/work/amr</text>
<text text-anchor="start" x="2179.5" y="-100.5" font-family="Helvetica,sans-Serif" font-size="10.00">&#45;wind/amr&#45;wind/src/setup</text>
<text text-anchor="middle" x="2241.5" y="-89.5" font-family="Helvetica,sans-Serif" font-size="10.00">/init.cpp</text>
</a>
</g>
</g>
<!-- Node2&#45;&gt;Node17 -->
<g id="edge16_Node000002_Node000017" class="edge">
<title>Node2&#45;&gt;Node17</title>
<g id="a_edge16_Node000002_Node000017"><a xlink:title=" ">
<path fill="none" stroke="#63b8ff" d="M1698.34,-181.5C1804.69,-176.3 1999.57,-162.74 2162.5,-129 2169.68,-127.51 2177.14,-125.63 2184.48,-123.56"/>
<polygon fill="#63b8ff" stroke="#63b8ff" points="1698.15,-178 1688.33,-181.97 1698.49,-185 1698.15,-178"/>
</a>
</g>
</g>
<!-- Node18 -->
<g id="Node000018" class="node">
<title>Node18</title>
<g id="a_Node000018"><a xlink:href="_kosovic_8cpp.html" target="_top" xlink:title=" ">
<polygon fill="white" stroke="#666666" points="2495,-123.5 2330,-123.5 2330,-82.5 2495,-82.5 2495,-123.5"/>
<text text-anchor="start" x="2338" y="-111.5" font-family="Helvetica,sans-Serif" font-size="10.00">/home/runner/work/amr</text>
<text text-anchor="start" x="2338" y="-100.5" font-family="Helvetica,sans-Serif" font-size="10.00">&#45;wind/amr&#45;wind/src/turbulence</text>
<text text-anchor="middle" x="2412.5" y="-89.5" font-family="Helvetica,sans-Serif" font-size="10.00">/LES/Kosovic.cpp</text>
</a>
</g>
</g>
<!-- Node2&#45;&gt;Node18 -->
<g id="edge17_Node000002_Node000018" class="edge">
<title>Node2&#45;&gt;Node18</title>
<g id="a_edge17_Node000002_Node000018"><a xlink:title=" ">
<path fill="none" stroke="#63b8ff" d="M1698.48,-183.03C1828.91,-179.54 2097.12,-167.84 2320.5,-129 2328.98,-127.53 2337.81,-125.62 2346.5,-123.52"/>
<polygon fill="#63b8ff" stroke="#63b8ff" points="1698.1,-179.54 1688.19,-183.3 1698.28,-186.54 1698.1,-179.54"/>
</a>
</g>
</g>
<!-- Node2&#45;&gt;Node19 -->
<g id="edge18_Node000002_Node000019" class="edge">
<title>Node2&#45;&gt;Node19</title>
<g id="a_edge18_Node000002_Node000019"><a xlink:title=" ">
<path fill="none" stroke="#63b8ff" d="M1698.24,-182.13C1950.64,-174.38 2729.65,-149.1 2841.5,-129 2849.06,-127.64 2856.9,-125.74 2864.56,-123.6"/>
<polygon fill="#63b8ff" stroke="#63b8ff" points="1697.93,-178.64 1688.05,-182.45 1698.15,-185.64 1697.93,-178.64"/>
</a>
</g>
</g>
<!-- Node20 -->
<g id="Node000020" class="node">
<title>Node20</title>
<g id="a_Node000020"><a xlink:href="_a_b_l_anelastic_8cpp.html" target="_top" xlink:title=" ">
<polygon fill="white" stroke="#666666" points="2656,-123.5 2513,-123.5 2513,-82.5 2656,-82.5 2656,-123.5"/>
<text text-anchor="start" x="2521" y="-111.5" font-family="Helvetica,sans-Serif" font-size="10.00">/home/runner/work/amr</text>
<text text-anchor="start" x="2521" y="-100.5" font-family="Helvetica,sans-Serif" font-size="10.00">&#45;wind/amr&#45;wind/src/wind</text>
<text text-anchor="middle" x="2584.5" y="-89.5" font-family="Helvetica,sans-Serif" font-size="10.00">_energy/ABLAnelastic.cpp</text>
</a>
</g>
</g>
<!-- Node2&#45;&gt;Node20 -->
<g id="edge19_Node000002_Node000020" class="edge">
<title>Node2&#45;&gt;Node20</title>
<g id="a_edge19_Node000002_Node000020"><a xlink:title=" ">
<path fill="none" stroke="#63b8ff" d="M1698.04,-181.95C1884.57,-175.51 2350.05,-157.09 2503.5,-129 2511.17,-127.6 2519.14,-125.7 2526.95,-123.58"/>
<polygon fill="#63b8ff" stroke="#63b8ff" points="1697.9,-178.45 1688.03,-182.29 1698.14,-185.45 1697.9,-178.45"/>
</a>
</g>
</g>
<!-- Node21 -->
<g id="Node000021" class="node">
<title>Node21</title>
<g id="a_Node000021"><a xlink:href="_a_b_l_wall_function_8cpp.html" target="_top" xlink:title=" ">
<polygon fill="white" stroke="#666666" points="2833,-123.5 2674,-123.5 2674,-82.5 2833,-82.5 2833,-123.5"/>
<text text-anchor="start" x="2682" y="-111.5" font-family="Helvetica,sans-Serif" font-size="10.00">/home/runner/work/amr</text>
<text text-anchor="start" x="2682" y="-100.5" font-family="Helvetica,sans-Serif" font-size="10.00">&#45;wind/amr&#45;wind/src/wind</text>
<text text-anchor="middle" x="2753.5" y="-89.5" font-family="Helvetica,sans-Serif" font-size="10.00">_energy/ABLWallFunction.cpp</text>
</a>
</g>
</g>
<!-- Node2&#45;&gt;Node21 -->
<g id="edge20_Node000002_Node000021" class="edge">
<title>Node2&#45;&gt;Node21</title>
<g id="a_edge20_Node000002_Node000021"><a xlink:title=" ">
<path fill="none" stroke="#63b8ff" d="M1698.23,-182.57C1908.28,-177.06 2478.65,-159.65 2664.5,-129 2672.89,-127.62 2681.63,-125.73 2690.2,-123.62"/>
<polygon fill="#63b8ff" stroke="#63b8ff" points="1698.11,-179.07 1688.2,-182.83 1698.29,-186.07 1698.11,-179.07"/>
</a>
</g>
</g>
<!-- Node15 -->
<g id="Node000015" class="node">
<title>Node15</title>
<g id="a_Node000015"><a xlink:href="_overset_ops_8cpp.html" target="_top" xlink:title=" ">
<polygon fill="white" stroke="#666666" points="2055.5,-41 1905.5,-41 1905.5,0 2055.5,0 2055.5,-41"/>
<text text-anchor="start" x="1913.5" y="-29" font-family="Helvetica,sans-Serif" font-size="10.00">/home/runner/work/amr</text>
<text text-anchor="start" x="1913.5" y="-18" font-family="Helvetica,sans-Serif" font-size="10.00">&#45;wind/amr&#45;wind/src/overset</text>
<text text-anchor="middle" x="1980.5" y="-7" font-family="Helvetica,sans-Serif" font-size="10.00">/OversetOps.cpp</text>
</a>
</g>
</g>
<!-- Node14&#45;&gt;Node15 -->
<g id="edge14_Node000014_Node000015" class="edge">
<title>Node14&#45;&gt;Node15</title>
<g id="a_edge14_Node000014_Node000015"><a xlink:title=" ">
<path fill="none" stroke="#63b8ff" d="M2042.09,-75.39C2029.33,-64.22 2014.75,-51.47 2002.98,-41.17"/>
<polygon fill="#63b8ff" stroke="#63b8ff" points="2039.93,-78.15 2049.76,-82.1 2044.54,-72.88 2039.93,-78.15"/>
</a>
</g>
</g>
<!-- Node16 -->
<g id="Node000016" class="node">
<title>Node16</title>
<g id="a_Node000016"><a xlink:href="incflo__apply__nodal__projection_8cpp.html" target="_top" xlink:title=" ">
<polygon fill="white" stroke="#666666" points="2258,-41 2073,-41 2073,0 2258,0 2258,-41"/>
<text text-anchor="start" x="2081" y="-29" font-family="Helvetica,sans-Serif" font-size="10.00">/home/runner/work/amr</text>
<text text-anchor="start" x="2081" y="-18" font-family="Helvetica,sans-Serif" font-size="10.00">&#45;wind/amr&#45;wind/src/projection</text>
<text text-anchor="middle" x="2165.5" y="-7" font-family="Helvetica,sans-Serif" font-size="10.00">/incflo_apply_nodal_projection.cpp</text>
</a>
</g>
</g>
<!-- Node14&#45;&gt;Node16 -->
<g id="edge15_Node000014_Node000016" class="edge">
<title>Node14&#45;&gt;Node16</title>
<g id="a_edge15_Node000014_Node000016"><a xlink:title=" ">
<path fill="none" stroke="#63b8ff" d="M2103.24,-75.39C2116.14,-64.22 2130.88,-51.47 2142.78,-41.17"/>
<polygon fill="#63b8ff" stroke="#63b8ff" points="2100.76,-72.91 2095.49,-82.1 2105.34,-78.2 2100.76,-72.91"/>
</a>
</g>
</g>
</g>
</svg>
