<?xml version="1.0" encoding="UTF-8" standalone="no"?>
<!DOCTYPE svg PUBLIC "-//W3C//DTD SVG 1.1//EN"
 "http://www.w3.org/Graphics/SVG/1.1/DTD/svg11.dtd">
<!-- Generated by graphviz version 2.43.0 (0)
 -->
<!-- Title: /home/runner/work/amr&#45;wind/amr&#45;wind/src/wind_energy/ABLMesoscaleInput.H Pages: 1 -->
<!--zoomable 225 -->

<svg id="main" version="1.1" xmlns="http://www.w3.org/2000/svg" xmlns:xlink="http://www.w3.org/1999/xlink" xml:space="preserve" onload="init(evt)">

<style type="text/css"><![CDATA[
.node, .edge {opacity: 0.7;}
.node.selected, .edge.selected {opacity: 1;}
.edge:hover path { stroke: red; }
.edge:hover polygon { stroke: red; fill: red; }
]]></style>

<defs>
  <circle id="rim" cx="0" cy="0" r="7"/>
  <circle id="rim2" cx="0" cy="0" r="3.5"/>
  <g id="zoomPlus">
    <use xlink:href="#rim" fill="#404040"><set attributeName="fill" to="#808080" begin="zoomplus.mouseover" end="zoomplus.mouseout"/></use>
    <path d="M-4,0h8M0,-4v8" fill="none" stroke="white" stroke-width="1.5" pointer-events="none"/>
  </g>
  <g id="zoomMin">
    <use xlink:href="#rim" fill="#404040"><set attributeName="fill" to="#808080" begin="zoomminus.mouseover" end="zoomminus.mouseout"/></use>
    <path d="M-4,0h8" fill="none" stroke="white" stroke-width="1.5" pointer-events="none"/>
  </g>
  <g id="arrowUp" transform="translate(30 24)">
    <use xlink:href="#rim"/>
    <path pointer-events="none" fill="none" stroke="white" stroke-width="1.5" d="M0,-3.0v7 M-2.5,-0.5L0,-3.0L2.5,-0.5"/>
  </g>
  <g id="arrowRight" transform="rotate(90) translate(36 -43)">
    <use xlink:href="#rim"/>
    <path pointer-events="none" fill="none" stroke="white" stroke-width="1.5" d="M0,-3.0v7 M-2.5,-0.5L0,-3.0L2.5,-0.5"/>
  </g>
  <g id="arrowDown" transform="rotate(180) translate(-30 -48)">
    <use xlink:href="#rim"/>
    <path pointer-events="none" fill="none" stroke="white" stroke-width="1.5" d="M0,-3.0v7 M-2.5,-0.5L0,-3.0L2.5,-0.5"/>
  </g>
  <g id="arrowLeft" transform="rotate(270) translate(-36 17)">
    <use xlink:href="#rim"/>
    <path pointer-events="none" fill="none" stroke="white" stroke-width="1.5" d="M0,-3.0v7 M-2.5,-0.5L0,-3.0L2.5,-0.5"/>
  </g>
  <g id="resetDef">
    <use xlink:href="#rim2" fill="#404040"><set attributeName="fill" to="#808080" begin="reset.mouseover" end="reset.mouseout"/></use>
  </g>
</defs>
<script type="application/ecmascript">
var viewWidth = 683;
var viewHeight = 225;
var sectionId = 'dynsection-1';
</script>
<script type="application/ecmascript" xlink:href="svg.min.js"/>
<svg id="graph" class="graph">
<g id="viewport">
<title>/home/runner/work/amr&#45;wind/amr&#45;wind/src/wind_energy/ABLMesoscaleInput.H</title>
<!-- Node1 -->
<g id="Node000001" class="node">
<title>Node1</title>
<g id="a_Node000001"><a xlink:title=" ">
<polygon fill="#999999" stroke="#666666" points="423,-217 259,-217 259,-176 423,-176 423,-217"/>
<text text-anchor="start" x="267" y="-205" font-family="Helvetica,sans-Serif" font-size="10.00">/home/runner/work/amr</text>
<text text-anchor="start" x="267" y="-194" font-family="Helvetica,sans-Serif" font-size="10.00">&#45;wind/amr&#45;wind/src/wind</text>
<text text-anchor="middle" x="341" y="-183" font-family="Helvetica,sans-Serif" font-size="10.00">_energy/ABLMesoscaleInput.H</text>
</a>
</g>
</g>
<!-- Node2 -->
<g id="Node000002" class="node">
<title>Node2</title>
<g id="a_Node000002"><a xlink:href="_a_b_l_meso_forcing_mom_8_h.html" target="_top" xlink:title=" ">
<polygon fill="white" stroke="#666666" points="257,-140 101,-140 101,-88 257,-88 257,-140"/>
<text text-anchor="start" x="109" y="-128" font-family="Helvetica,sans-Serif" font-size="10.00">/home/runner/work/amr</text>
<text text-anchor="start" x="109" y="-117" font-family="Helvetica,sans-Serif" font-size="10.00">&#45;wind/amr&#45;wind/src/equation</text>
<text text-anchor="start" x="109" y="-106" font-family="Helvetica,sans-Serif" font-size="10.00">_systems/icns/source_terms</text>
<text text-anchor="middle" x="179" y="-95" font-family="Helvetica,sans-Serif" font-size="10.00">/ABLMesoForcingMom.H</text>
</a>
</g>
</g>
<!-- Node1&#45;&gt;Node2 -->
<g id="edge1_Node000001_Node000002" class="edge">
<title>Node1&#45;&gt;Node2</title>
<g id="a_edge1_Node000001_Node000002"><a xlink:title=" ">
<path fill="none" stroke="#63b8ff" d="M292.22,-171.26C272.42,-161.42 249.55,-150.06 229.57,-140.13"/>
<polygon fill="#63b8ff" stroke="#63b8ff" points="290.86,-174.49 301.37,-175.81 293.97,-168.22 290.86,-174.49"/>
</a>
</g>
</g>
<!-- Node4 -->
<g id="Node000004" class="node">
<title>Node4</title>
<g id="a_Node000004"><a xlink:href="_a_b_l_8cpp.html" target="_top" xlink:title=" ">
<polygon fill="white" stroke="#666666" points="311.5,-46.5 174.5,-46.5 174.5,-5.5 311.5,-5.5 311.5,-46.5"/>
<text text-anchor="start" x="182.5" y="-34.5" font-family="Helvetica,sans-Serif" font-size="10.00">/home/runner/work/amr</text>
<text text-anchor="start" x="182.5" y="-23.5" font-family="Helvetica,sans-Serif" font-size="10.00">&#45;wind/amr&#45;wind/src/wind</text>
<text text-anchor="middle" x="243" y="-12.5" font-family="Helvetica,sans-Serif" font-size="10.00">_energy/ABL.cpp</text>
</a>
</g>
</g>
<!-- Node1&#45;&gt;Node4 -->
<g id="edge9_Node000001_Node000004" class="edge">
<title>Node1&#45;&gt;Node4</title>
<g id="a_edge9_Node000001_Node000004"><a xlink:title=" ">
<path fill="none" stroke="#63b8ff" d="M321.57,-167.45C315.75,-158.76 309.46,-149.08 304,-140 284.7,-107.9 264.46,-69.27 252.83,-46.5"/>
<polygon fill="#63b8ff" stroke="#63b8ff" points="318.68,-169.43 327.19,-175.75 324.48,-165.51 318.68,-169.43"/>
</a>
</g>
</g>
<!-- Node6 -->
<g id="Node000006" class="node">
<title>Node6</title>
<g id="a_Node000006"><a xlink:href="_a_b_l_meso_forcing_temp_8_h.html" target="_top" xlink:title=" ">
<polygon fill="white" stroke="#666666" points="483,-140 313,-140 313,-88 483,-88 483,-140"/>
<text text-anchor="start" x="321" y="-128" font-family="Helvetica,sans-Serif" font-size="10.00">/home/runner/work/amr</text>
<text text-anchor="start" x="321" y="-117" font-family="Helvetica,sans-Serif" font-size="10.00">&#45;wind/amr&#45;wind/src/equation</text>
<text text-anchor="start" x="321" y="-106" font-family="Helvetica,sans-Serif" font-size="10.00">_systems/temperature/source</text>
<text text-anchor="middle" x="398" y="-95" font-family="Helvetica,sans-Serif" font-size="10.00">_terms/ABLMesoForcingTemp.H</text>
</a>
</g>
</g>
<!-- Node1&#45;&gt;Node6 -->
<g id="edge5_Node000001_Node000006" class="edge">
<title>Node1&#45;&gt;Node6</title>
<g id="a_edge5_Node000001_Node000006"><a xlink:title=" ">
<path fill="none" stroke="#63b8ff" d="M360.88,-167.43C367.16,-158.55 374.06,-148.81 380.19,-140.16"/>
<polygon fill="#63b8ff" stroke="#63b8ff" points="358.01,-165.42 355.09,-175.6 363.73,-169.46 358.01,-165.42"/>
</a>
</g>
</g>
<!-- Node8 -->
<g id="Node000008" class="node">
<title>Node8</title>
<g id="a_Node000008"><a xlink:href="_a_b_l_mesoscale_input_8cpp.html" target="_top" xlink:title=" ">
<polygon fill="white" stroke="#666666" points="675,-134.5 501,-134.5 501,-93.5 675,-93.5 675,-134.5"/>
<text text-anchor="start" x="509" y="-122.5" font-family="Helvetica,sans-Serif" font-size="10.00">/home/runner/work/amr</text>
<text text-anchor="start" x="509" y="-111.5" font-family="Helvetica,sans-Serif" font-size="10.00">&#45;wind/amr&#45;wind/src/wind</text>
<text text-anchor="middle" x="588" y="-100.5" font-family="Helvetica,sans-Serif" font-size="10.00">_energy/ABLMesoscaleInput.cpp</text>
</a>
</g>
</g>
<!-- Node1&#45;&gt;Node8 -->
<g id="edge10_Node000001_Node000008" class="edge">
<title>Node1&#45;&gt;Node8</title>
<g id="a_edge10_Node000001_Node000008"><a xlink:title=" ">
<path fill="none" stroke="#63b8ff" d="M410.81,-172.75C447.77,-160.7 492.69,-146.06 528.05,-134.54"/>
<polygon fill="#63b8ff" stroke="#63b8ff" points="409.53,-169.48 401.11,-175.91 411.7,-176.14 409.53,-169.48"/>
</a>
</g>
</g>
<!-- Node3 -->
<g id="Node000003" class="node">
<title>Node3</title>
<g id="a_Node000003"><a xlink:href="_a_b_l_meso_forcing_mom_8cpp.html" target="_top" xlink:title=" ">
<polygon fill="white" stroke="#666666" points="156,-52 0,-52 0,0 156,0 156,-52"/>
<text text-anchor="start" x="8" y="-40" font-family="Helvetica,sans-Serif" font-size="10.00">/home/runner/work/amr</text>
<text text-anchor="start" x="8" y="-29" font-family="Helvetica,sans-Serif" font-size="10.00">&#45;wind/amr&#45;wind/src/equation</text>
<text text-anchor="start" x="8" y="-18" font-family="Helvetica,sans-Serif" font-size="10.00">_systems/icns/source_terms</text>
<text text-anchor="middle" x="78" y="-7" font-family="Helvetica,sans-Serif" font-size="10.00">/ABLMesoForcingMom.cpp</text>
</a>
</g>
</g>
<!-- Node2&#45;&gt;Node3 -->
<g id="edge2_Node000002_Node000003" class="edge">
<title>Node2&#45;&gt;Node3</title>
<g id="a_edge2_Node000002_Node000003"><a xlink:title=" ">
<path fill="none" stroke="#63b8ff" d="M141.9,-81.41C130.63,-71.82 118.41,-61.41 107.7,-52.29"/>
<polygon fill="#63b8ff" stroke="#63b8ff" points="139.63,-84.08 149.52,-87.89 144.17,-78.75 139.63,-84.08"/>
</a>
</g>
</g>
<!-- Node2&#45;&gt;Node4 -->
<g id="edge3_Node000002_Node000004" class="edge">
<title>Node2&#45;&gt;Node4</title>
<g id="a_edge3_Node000002_Node000004"><a xlink:title=" ">
<path fill="none" stroke="#63b8ff" d="M203.99,-79.42C212.23,-68.34 221.13,-56.39 228.34,-46.7"/>
<polygon fill="#63b8ff" stroke="#63b8ff" points="201.02,-77.55 197.86,-87.66 206.63,-81.73 201.02,-77.55"/>
</a>
</g>
</g>
<!-- Node5 -->
<g id="Node000005" class="node">
<title>Node5</title>
<g id="a_Node000005"><a xlink:href="_a_b_l_stats_8cpp.html" target="_top" xlink:title=" ">
<polygon fill="white" stroke="#666666" points="466.5,-46.5 329.5,-46.5 329.5,-5.5 466.5,-5.5 466.5,-46.5"/>
<text text-anchor="start" x="337.5" y="-34.5" font-family="Helvetica,sans-Serif" font-size="10.00">/home/runner/work/amr</text>
<text text-anchor="start" x="337.5" y="-23.5" font-family="Helvetica,sans-Serif" font-size="10.00">&#45;wind/amr&#45;wind/src/wind</text>
<text text-anchor="middle" x="398" y="-12.5" font-family="Helvetica,sans-Serif" font-size="10.00">_energy/ABLStats.cpp</text>
</a>
</g>
</g>
<!-- Node2&#45;&gt;Node5 -->
<g id="edge4_Node000002_Node000005" class="edge">
<title>Node2&#45;&gt;Node5</title>
<g id="a_edge4_Node000002_Node000005"><a xlink:title=" ">
<path fill="none" stroke="#63b8ff" d="M252.55,-84.12C284.04,-71.75 319.98,-57.64 348.26,-46.53"/>
<polygon fill="#63b8ff" stroke="#63b8ff" points="250.96,-80.98 242.93,-87.89 253.52,-87.5 250.96,-80.98"/>
</a>
</g>
</g>
<!-- Node6&#45;&gt;Node4 -->
<g id="edge7_Node000006_Node000004" class="edge">
<title>Node6&#45;&gt;Node4</title>
<g id="a_edge7_Node000006_Node000004"><a xlink:title=" ">
<path fill="none" stroke="#63b8ff" d="M343.92,-82.99C322.13,-70.9 297.61,-57.3 278.2,-46.53"/>
<polygon fill="#63b8ff" stroke="#63b8ff" points="342.31,-86.1 352.75,-87.89 345.7,-79.98 342.31,-86.1"/>
</a>
</g>
</g>
<!-- Node6&#45;&gt;Node5 -->
<g id="edge8_Node000006_Node000005" class="edge">
<title>Node6&#45;&gt;Node5</title>
<g id="a_edge8_Node000006_Node000005"><a xlink:title=" ">
<path fill="none" stroke="#63b8ff" d="M398,-77.45C398,-66.94 398,-55.82 398,-46.7"/>
<polygon fill="#63b8ff" stroke="#63b8ff" points="394.5,-77.66 398,-87.66 401.5,-77.66 394.5,-77.66"/>
</a>
</g>
</g>
<!-- Node7 -->
<g id="Node000007" class="node">
<title>Node7</title>
<g id="a_Node000007"><a xlink:href="_a_b_l_meso_forcing_temp_8cpp.html" target="_top" xlink:title=" ">
<polygon fill="white" stroke="#666666" points="665,-52 485,-52 485,0 665,0 665,-52"/>
<text text-anchor="start" x="493" y="-40" font-family="Helvetica,sans-Serif" font-size="10.00">/home/runner/work/amr</text>
<text text-anchor="start" x="493" y="-29" font-family="Helvetica,sans-Serif" font-size="10.00">&#45;wind/amr&#45;wind/src/equation</text>
<text text-anchor="start" x="493" y="-18" font-family="Helvetica,sans-Serif" font-size="10.00">_systems/temperature/source</text>
<text text-anchor="middle" x="575" y="-7" font-family="Helvetica,sans-Serif" font-size="10.00">_terms/ABLMesoForcingTemp.cpp</text>
</a>
</g>
</g>
<!-- Node6&#45;&gt;Node7 -->
<g id="edge6_Node000006_Node000007" class="edge">
<title>Node6&#45;&gt;Node7</title>
<g id="a_edge6_Node000006_Node000007"><a xlink:title=" ">
<path fill="none" stroke="#63b8ff" d="M458.82,-83.45C479.79,-73.26 503.08,-61.94 523.26,-52.14"/>
<polygon fill="#63b8ff" stroke="#63b8ff" points="457.14,-80.38 449.67,-87.89 460.2,-86.67 457.14,-80.38"/>
</a>
</g>
</g>
</g>
</svg>

<g id="navigator" transform="translate(0 0)" fill="#404254">
  <rect fill="#f2f5e9" fill-opacity="0.5" stroke="#606060" stroke-width=".5" x="0" y="0" width="60" height="60"/>
  <use id="zoomplus" xlink:href="#zoomPlus" x="17" y="9" onmousedown="handleZoom(evt,'in')"/>
  <use id="zoomminus" xlink:href="#zoomMin" x="42" y="9" onmousedown="handleZoom(evt,'out')"/>
  <use id="reset" xlink:href="#resetDef" x="30" y="36" onmousedown="handleReset()"/>
   <use id="arrowup" xlink:href="#arrowUp" x="0" y="0" onmousedown="handlePan(0,-1)"/>
  <use id="arrowright" xlink:href="#arrowRight" x="0" y="0" onmousedown="handlePan(1,0)"/>
  <use id="arrowdown" xlink:href="#arrowDown" x="0" y="0" onmousedown="handlePan(0,1)"/>
  <use id="arrowleft" xlink:href="#arrowLeft" x="0" y="0" onmousedown="handlePan(-1,0)"/>
</g>
<svg viewBox="0 0 15 15" width="100%" height="30px" preserveAspectRatio="xMaxYMin meet">
 <g id="arrow_out" transform="scale(0.3 0.3)">
  <a xlink:href="_a_b_l_mesoscale_input_8_h__dep__incl_org.svg" target="_base">
   <rect id="button" ry="5" rx="5" y="6" x="6" height="38" width="38"
        fill="#f2f5e9" fill-opacity="0.5" stroke="#606060" stroke-width="1.0"/>
   <path id="arrow"
     d="M 11.500037,31.436501 C 11.940474,20.09759 22.043105,11.32322 32.158766,21.979434 L 37.068811,17.246167 C 37.068811,17.246167 37.088388,32 37.088388,32 L 22.160133,31.978069 C 22.160133,31.978069 26.997745,27.140456 26.997745,27.140456 C 18.528582,18.264221 13.291696,25.230495 11.500037,31.436501 z"
     style="fill:#404040;"/>
  </a>
 </g>
</svg>

<style type='text/css'>
<![CDATA[
[data-mouse-over-selected='false'] { opacity: 0.7; }
[data-mouse-over-selected='true']  { opacity: 1.0; }
]]>
</style>
<script type="application/ecmascript"><![CDATA[
document.addEventListener('DOMContentLoaded', (event) => {
  highlightEdges();
  highlightAdjacentNodes();
});
]]></script>
</svg>
