<?xml version="1.0" encoding="UTF-8" standalone="no"?>
<!DOCTYPE svg PUBLIC "-//W3C//DTD SVG 1.1//EN"
 "http://www.w3.org/Graphics/SVG/1.1/DTD/svg11.dtd">
<!-- Generated by graphviz version 2.43.0 (0)
 -->
<!-- Title: /home/runner/work/amr&#45;wind/amr&#45;wind/src/wind_energy/actuator/ActParser.H Pages: 1 -->
<svg width="518pt" height="401pt"
 viewBox="0.00 0.00 517.50 401.00" xmlns="http://www.w3.org/2000/svg" xmlns:xlink="http://www.w3.org/1999/xlink">
<g id="graph0" class="graph" transform="scale(1 1) rotate(0) translate(4 397)">
<title>/home/runner/work/amr&#45;wind/amr&#45;wind/src/wind_energy/actuator/ActParser.H</title>
<!-- Node1 -->
<g id="Node000001" class="node">
<title>Node1</title>
<g id="a_Node000001"><a xlink:title=" ">
<polygon fill="#999999" stroke="#666666" points="375,-393 217,-393 217,-352 375,-352 375,-393"/>
<text text-anchor="start" x="225" y="-381" font-family="Helvetica,sans-Serif" font-size="10.00">/home/runner/work/amr</text>
<text text-anchor="start" x="225" y="-370" font-family="Helvetica,sans-Serif" font-size="10.00">&#45;wind/amr&#45;wind/src/wind</text>
<text text-anchor="middle" x="296" y="-359" font-family="Helvetica,sans-Serif" font-size="10.00">_energy/actuator/ActParser.H</text>
</a>
</g>
</g>
<!-- Node2 -->
<g id="Node000002" class="node">
<title>Node2</title>
<g id="a_Node000002"><a xlink:href="_multi_parser_8_h.html" target="_top" xlink:title=" ">
<polygon fill="white" stroke="#666666" points="357,-316 235,-316 235,-297 357,-297 357,-316"/>
<text text-anchor="middle" x="296" y="-304" font-family="Helvetica,sans-Serif" font-size="10.00">src/core/MultiParser.H</text>
</a>
</g>
</g>
<!-- Node1&#45;&gt;Node2 -->
<g id="edge1_Node000001_Node000002" class="edge">
<title>Node1&#45;&gt;Node2</title>
<g id="a_edge1_Node000001_Node000002"><a xlink:title=" ">
<path fill="none" stroke="#63b8ff" d="M296,-351.95C296,-343.85 296,-334.5 296,-326.47"/>
<polygon fill="#63b8ff" stroke="#63b8ff" points="299.5,-326.26 296,-316.26 292.5,-326.26 299.5,-326.26"/>
</a>
</g>
</g>
<!-- Node3 -->
<g id="Node000003" class="node">
<title>Node3</title>
<g id="a_Node000003"><a xlink:href="vector__space_8_h.html" target="_top" xlink:title=" ">
<polygon fill="white" stroke="#666666" points="283.5,-261 180.5,-261 180.5,-231 283.5,-231 283.5,-261"/>
<text text-anchor="start" x="188.5" y="-249" font-family="Helvetica,sans-Serif" font-size="10.00">src/core/vs/vector</text>
<text text-anchor="middle" x="232" y="-238" font-family="Helvetica,sans-Serif" font-size="10.00">_space.H</text>
</a>
</g>
</g>
<!-- Node2&#45;&gt;Node3 -->
<g id="edge2_Node000002_Node000003" class="edge">
<title>Node2&#45;&gt;Node3</title>
<g id="a_edge2_Node000002_Node000003"><a xlink:title=" ">
<path fill="none" stroke="#63b8ff" d="M286.56,-296.87C278.27,-289.3 265.89,-277.98 255.01,-268.04"/>
<polygon fill="#63b8ff" stroke="#63b8ff" points="257.18,-265.28 247.44,-261.11 252.46,-270.44 257.18,-265.28"/>
</a>
</g>
</g>
<!-- Node16 -->
<g id="Node000016" class="node">
<title>Node16</title>
<g id="a_Node000016"><a xlink:title=" ">
<polygon fill="#e0e0e0" stroke="#999999" points="420.5,-255.5 301.5,-255.5 301.5,-236.5 420.5,-236.5 420.5,-255.5"/>
<text text-anchor="middle" x="361" y="-243.5" font-family="Helvetica,sans-Serif" font-size="10.00">AMReX_ParmParse.H</text>
</a>
</g>
</g>
<!-- Node2&#45;&gt;Node16 -->
<g id="edge23_Node000002_Node000016" class="edge">
<title>Node2&#45;&gt;Node16</title>
<g id="a_edge23_Node000002_Node000016"><a xlink:title=" ">
<path fill="none" stroke="#63b8ff" d="M305.59,-296.87C315.58,-287.88 331.43,-273.61 343.63,-262.64"/>
<polygon fill="#63b8ff" stroke="#63b8ff" points="346.28,-264.96 351.37,-255.67 341.6,-259.76 346.28,-264.96"/>
</a>
</g>
</g>
<!-- Node4 -->
<g id="Node000004" class="node">
<title>Node4</title>
<g id="a_Node000004"><a xlink:href="vector_8_h.html" target="_top" xlink:title=" ">
<polygon fill="white" stroke="#666666" points="203.5,-140 90.5,-140 90.5,-121 203.5,-121 203.5,-140"/>
<text text-anchor="middle" x="147" y="-128" font-family="Helvetica,sans-Serif" font-size="10.00">src/core/vs/vector.H</text>
</a>
</g>
</g>
<!-- Node3&#45;&gt;Node4 -->
<g id="edge3_Node000003_Node000004" class="edge">
<title>Node3&#45;&gt;Node4</title>
<g id="a_edge3_Node000003_Node000004"><a xlink:title=" ">
<path fill="none" stroke="#63b8ff" d="M221.23,-230.63C205.53,-209.65 176.39,-170.75 159.67,-148.42"/>
<polygon fill="#63b8ff" stroke="#63b8ff" points="162.33,-146.14 153.54,-140.23 156.73,-150.33 162.33,-146.14"/>
</a>
</g>
</g>
<!-- Node11 -->
<g id="Node000011" class="node">
<title>Node11</title>
<g id="a_Node000011"><a xlink:href="tensor_8_h.html" target="_top" xlink:title=" ">
<polygon fill="white" stroke="#666666" points="331.5,-195 218.5,-195 218.5,-176 331.5,-176 331.5,-195"/>
<text text-anchor="middle" x="275" y="-183" font-family="Helvetica,sans-Serif" font-size="10.00">src/core/vs/tensor.H</text>
</a>
</g>
</g>
<!-- Node3&#45;&gt;Node11 -->
<g id="edge11_Node000003_Node000011" class="edge">
<title>Node3&#45;&gt;Node11</title>
<g id="a_edge11_Node000003_Node000011"><a xlink:title=" ">
<path fill="none" stroke="#63b8ff" d="M242.41,-230.84C248.46,-222.61 256.12,-212.18 262.5,-203.51"/>
<polygon fill="#63b8ff" stroke="#63b8ff" points="265.45,-205.4 268.56,-195.27 259.81,-201.25 265.45,-205.4"/>
</a>
</g>
</g>
<!-- Node5 -->
<g id="Node000005" class="node">
<title>Node5</title>
<g id="a_Node000005"><a xlink:title=" ">
<polygon fill="#e0e0e0" stroke="#999999" points="509.5,-19 422.5,-19 422.5,0 509.5,0 509.5,-19"/>
<text text-anchor="middle" x="466" y="-7" font-family="Helvetica,sans-Serif" font-size="10.00">AMReX_Gpu.H</text>
</a>
</g>
</g>
<!-- Node4&#45;&gt;Node5 -->
<g id="edge4_Node000004_Node000005" class="edge">
<title>Node4&#45;&gt;Node5</title>
<g id="a_edge4_Node000004_Node000005"><a xlink:title=" ">
<path fill="none" stroke="#63b8ff" d="M203.59,-124.75C269.98,-118.35 375.28,-105.35 409,-85 431.38,-71.49 448.1,-45.64 457.46,-28.23"/>
<polygon fill="#63b8ff" stroke="#63b8ff" points="460.69,-29.61 462.11,-19.11 454.45,-26.43 460.69,-29.61"/>
</a>
</g>
</g>
<!-- Node6 -->
<g id="Node000006" class="node">
<title>Node6</title>
<g id="a_Node000006"><a xlink:href="vstraits_8_h.html" target="_top" xlink:title=" ">
<polygon fill="white" stroke="#666666" points="253.5,-79.5 134.5,-79.5 134.5,-60.5 253.5,-60.5 253.5,-79.5"/>
<text text-anchor="middle" x="194" y="-67.5" font-family="Helvetica,sans-Serif" font-size="10.00">src/core/vs/vstraits.H</text>
</a>
</g>
</g>
<!-- Node4&#45;&gt;Node6 -->
<g id="edge5_Node000004_Node000006" class="edge">
<title>Node4&#45;&gt;Node6</title>
<g id="a_edge5_Node000004_Node000006"><a xlink:title=" ">
<path fill="none" stroke="#63b8ff" d="M153.94,-120.87C160.95,-112.14 171.96,-98.43 180.67,-87.59"/>
<polygon fill="#63b8ff" stroke="#63b8ff" points="183.5,-89.66 187.04,-79.67 178.04,-85.27 183.5,-89.66"/>
</a>
</g>
</g>
<!-- Node8 -->
<g id="Node000008" class="node">
<title>Node8</title>
<g id="a_Node000008"><a xlink:href="vector_i_8_h.html" target="_top" xlink:title=" ">
<polygon fill="white" stroke="#666666" points="116,-79.5 0,-79.5 0,-60.5 116,-60.5 116,-79.5"/>
<text text-anchor="middle" x="58" y="-67.5" font-family="Helvetica,sans-Serif" font-size="10.00">src/core/vs/vectorI.H</text>
</a>
</g>
</g>
<!-- Node4&#45;&gt;Node8 -->
<g id="edge7_Node000004_Node000008" class="edge">
<title>Node4&#45;&gt;Node8</title>
<g id="a_edge7_Node000004_Node000008"><a xlink:title=" ">
<path fill="none" stroke="#63b8ff" d="M128.91,-120.87C112.85,-111.62 89.94,-96.78 74.41,-85.69"/>
<polygon fill="#63b8ff" stroke="#63b8ff" points="76.35,-82.78 66.22,-79.67 72.2,-88.41 76.35,-82.78"/>
</a>
</g>
</g>
<!-- Node7 -->
<g id="Node000007" class="node">
<title>Node7</title>
<g id="a_Node000007"><a xlink:title=" ">
<polygon fill="#e0e0e0" stroke="#999999" points="151,-19 107,-19 107,0 151,0 151,-19"/>
<text text-anchor="middle" x="129" y="-7" font-family="Helvetica,sans-Serif" font-size="10.00">limits</text>
</a>
</g>
</g>
<!-- Node6&#45;&gt;Node7 -->
<g id="edge6_Node000006_Node000007" class="edge">
<title>Node6&#45;&gt;Node7</title>
<g id="a_edge6_Node000006_Node000007"><a xlink:title=" ">
<path fill="none" stroke="#63b8ff" d="M184.41,-60.37C174.42,-51.38 158.57,-37.11 146.37,-26.14"/>
<polygon fill="#63b8ff" stroke="#63b8ff" points="148.4,-23.26 138.63,-19.17 143.72,-28.46 148.4,-23.26"/>
</a>
</g>
</g>
<!-- Node8&#45;&gt;Node4 -->
<g id="edge10_Node000008_Node000004" class="edge">
<title>Node8&#45;&gt;Node4</title>
<g id="a_edge10_Node000008_Node000004"><a xlink:title=" ">
<path fill="none" stroke="#63b8ff" d="M76.15,-79.67C92.23,-88.93 115.13,-103.77 130.65,-114.85"/>
<polygon fill="#63b8ff" stroke="#63b8ff" points="128.7,-117.76 138.82,-120.87 132.85,-112.12 128.7,-117.76"/>
</a>
</g>
</g>
<!-- Node9 -->
<g id="Node000009" class="node">
<title>Node9</title>
<g id="a_Node000009"><a xlink:title=" ">
<polygon fill="#e0e0e0" stroke="#999999" points="86.5,-19 29.5,-19 29.5,0 86.5,0 86.5,-19"/>
<text text-anchor="middle" x="58" y="-7" font-family="Helvetica,sans-Serif" font-size="10.00">ostream</text>
</a>
</g>
</g>
<!-- Node8&#45;&gt;Node9 -->
<g id="edge8_Node000008_Node000009" class="edge">
<title>Node8&#45;&gt;Node9</title>
<g id="a_edge8_Node000008_Node000009"><a xlink:title=" ">
<path fill="none" stroke="#63b8ff" d="M58,-60.37C58,-52.25 58,-39.81 58,-29.39"/>
<polygon fill="#63b8ff" stroke="#63b8ff" points="61.5,-29.17 58,-19.17 54.5,-29.17 61.5,-29.17"/>
</a>
</g>
</g>
<!-- Node10 -->
<g id="Node000010" class="node">
<title>Node10</title>
<g id="a_Node000010"><a xlink:title=" ">
<polygon fill="#e0e0e0" stroke="#999999" points="216.5,-19 169.5,-19 169.5,0 216.5,0 216.5,-19"/>
<text text-anchor="middle" x="193" y="-7" font-family="Helvetica,sans-Serif" font-size="10.00">cmath</text>
</a>
</g>
</g>
<!-- Node8&#45;&gt;Node10 -->
<g id="edge9_Node000008_Node000010" class="edge">
<title>Node8&#45;&gt;Node10</title>
<g id="a_edge9_Node000008_Node000010"><a xlink:title=" ">
<path fill="none" stroke="#63b8ff" d="M77.63,-60.49C100.33,-50.66 137.9,-34.38 163.97,-23.08"/>
<polygon fill="#63b8ff" stroke="#63b8ff" points="165.56,-26.2 173.35,-19.02 162.78,-19.78 165.56,-26.2"/>
</a>
</g>
</g>
<!-- Node11&#45;&gt;Node4 -->
<g id="edge14_Node000011_Node000004" class="edge">
<title>Node11&#45;&gt;Node4</title>
<g id="a_edge14_Node000011_Node000004"><a xlink:title=" ">
<path fill="none" stroke="#63b8ff" d="M254.43,-175.98C233.57,-167.34 201.03,-153.87 177.23,-144.02"/>
<polygon fill="#63b8ff" stroke="#63b8ff" points="178.52,-140.76 167.94,-140.17 175.84,-147.23 178.52,-140.76"/>
</a>
</g>
</g>
<!-- Node11&#45;&gt;Node5 -->
<g id="edge12_Node000011_Node000005" class="edge">
<title>Node11&#45;&gt;Node5</title>
<g id="a_edge12_Node000011_Node000005"><a xlink:title=" ">
<path fill="none" stroke="#63b8ff" d="M305.63,-175.94C328.69,-168.61 360.42,-156.61 385,-140 413.13,-121 419.88,-113.7 438,-85 449.04,-67.51 456.74,-45.01 461.24,-29.33"/>
<polygon fill="#63b8ff" stroke="#63b8ff" points="464.72,-29.86 463.94,-19.29 457.96,-28.03 464.72,-29.86"/>
</a>
</g>
</g>
<!-- Node11&#45;&gt;Node6 -->
<g id="edge13_Node000011_Node000006" class="edge">
<title>Node11&#45;&gt;Node6</title>
<g id="a_edge13_Node000011_Node000006"><a xlink:title=" ">
<path fill="none" stroke="#63b8ff" d="M268.91,-175.97C255.6,-157.32 223.7,-112.61 206.12,-87.99"/>
<polygon fill="#63b8ff" stroke="#63b8ff" points="208.82,-85.74 200.16,-79.63 203.12,-89.8 208.82,-85.74"/>
</a>
</g>
</g>
<!-- Node12 -->
<g id="Node000012" class="node">
<title>Node12</title>
<g id="a_Node000012"><a xlink:href="tensor_i_8_h.html" target="_top" xlink:title=" ">
<polygon fill="white" stroke="#666666" points="376,-140 260,-140 260,-121 376,-121 376,-140"/>
<text text-anchor="middle" x="318" y="-128" font-family="Helvetica,sans-Serif" font-size="10.00">src/core/vs/tensorI.H</text>
</a>
</g>
</g>
<!-- Node11&#45;&gt;Node12 -->
<g id="edge15_Node000011_Node000012" class="edge">
<title>Node11&#45;&gt;Node12</title>
<g id="a_edge15_Node000011_Node000012"><a xlink:title=" ">
<path fill="none" stroke="#63b8ff" d="M276.93,-175.75C281.49,-168.11 290.28,-156.82 298.71,-147.56"/>
<polygon fill="#63b8ff" stroke="#63b8ff" points="301.49,-149.72 305.9,-140.09 296.44,-144.87 301.49,-149.72"/>
</a>
</g>
</g>
<!-- Node12&#45;&gt;Node10 -->
<g id="edge16_Node000012_Node000010" class="edge">
<title>Node12&#45;&gt;Node10</title>
<g id="a_edge16_Node000012_Node000010"><a xlink:title=" ">
<path fill="none" stroke="#63b8ff" d="M313.1,-120.89C304.4,-106.13 285.1,-75.61 263,-55 249.91,-42.79 233.02,-31.95 219.12,-24.02"/>
<polygon fill="#63b8ff" stroke="#63b8ff" points="220.5,-20.78 210.05,-19.02 217.12,-26.91 220.5,-20.78"/>
</a>
</g>
</g>
<!-- Node12&#45;&gt;Node11 -->
<g id="edge17_Node000012_Node000011" class="edge">
<title>Node12&#45;&gt;Node11</title>
<g id="a_edge17_Node000012_Node000011"><a xlink:title=" ">
<path fill="none" stroke="#63b8ff" d="M316.16,-140.09C311.62,-147.75 302.73,-159.18 294.22,-168.52"/>
<polygon fill="#63b8ff" stroke="#63b8ff" points="291.68,-166.11 287.27,-175.75 296.72,-170.97 291.68,-166.11"/>
</a>
</g>
</g>
<!-- Node13 -->
<g id="Node000013" class="node">
<title>Node13</title>
<g id="a_Node000013"><a xlink:href="trig__ops_8_h.html" target="_top" xlink:title=" ">
<polygon fill="white" stroke="#666666" points="400,-85 310,-85 310,-55 400,-55 400,-85"/>
<text text-anchor="start" x="318" y="-73" font-family="Helvetica,sans-Serif" font-size="10.00">src/utilities/trig</text>
<text text-anchor="middle" x="355" y="-62" font-family="Helvetica,sans-Serif" font-size="10.00">_ops.H</text>
</a>
</g>
</g>
<!-- Node12&#45;&gt;Node13 -->
<g id="edge18_Node000012_Node000013" class="edge">
<title>Node12&#45;&gt;Node13</title>
<g id="a_edge18_Node000012_Node000013"><a xlink:title=" ">
<path fill="none" stroke="#63b8ff" d="M323.46,-120.87C327.97,-113.74 334.58,-103.28 340.59,-93.79"/>
<polygon fill="#63b8ff" stroke="#63b8ff" points="343.69,-95.44 346.07,-85.11 337.77,-91.7 343.69,-95.44"/>
</a>
</g>
</g>
<!-- Node13&#45;&gt;Node5 -->
<g id="edge22_Node000013_Node000005" class="edge">
<title>Node13&#45;&gt;Node5</title>
<g id="a_edge22_Node000013_Node000005"><a xlink:title=" ">
<path fill="none" stroke="#63b8ff" d="M381.59,-54.99C399.45,-45.58 422.84,-33.24 440.48,-23.95"/>
<polygon fill="#63b8ff" stroke="#63b8ff" points="442.39,-26.9 449.61,-19.14 439.13,-20.71 442.39,-26.9"/>
</a>
</g>
</g>
<!-- Node13&#45;&gt;Node10 -->
<g id="edge19_Node000013_Node000010" class="edge">
<title>Node13&#45;&gt;Node10</title>
<g id="a_edge19_Node000013_Node000010"><a xlink:title=" ">
<path fill="none" stroke="#63b8ff" d="M316.2,-54.99C288.81,-45.1 252.48,-31.98 226.39,-22.56"/>
<polygon fill="#63b8ff" stroke="#63b8ff" points="227.52,-19.24 216.92,-19.14 225.14,-25.83 227.52,-19.24"/>
</a>
</g>
</g>
<!-- Node14 -->
<g id="Node000014" class="node">
<title>Node14</title>
<g id="a_Node000014"><a xlink:title=" ">
<polygon fill="#e0e0e0" stroke="#999999" points="293.5,-19 234.5,-19 234.5,0 293.5,0 293.5,-19"/>
<text text-anchor="middle" x="264" y="-7" font-family="Helvetica,sans-Serif" font-size="10.00">numbers</text>
</a>
</g>
</g>
<!-- Node13&#45;&gt;Node14 -->
<g id="edge20_Node000013_Node000014" class="edge">
<title>Node13&#45;&gt;Node14</title>
<g id="a_edge20_Node000013_Node000014"><a xlink:title=" ">
<path fill="none" stroke="#63b8ff" d="M332.97,-54.84C318.73,-45.68 300.27,-33.82 286.03,-24.66"/>
<polygon fill="#63b8ff" stroke="#63b8ff" points="287.67,-21.56 277.37,-19.09 283.89,-27.45 287.67,-21.56"/>
</a>
</g>
</g>
<!-- Node15 -->
<g id="Node000015" class="node">
<title>Node15</title>
<g id="a_Node000015"><a xlink:title=" ">
<polygon fill="#e0e0e0" stroke="#999999" points="404,-19 312,-19 312,0 404,0 404,-19"/>
<text text-anchor="middle" x="358" y="-7" font-family="Helvetica,sans-Serif" font-size="10.00">AMReX_REAL.H</text>
</a>
</g>
</g>
<!-- Node13&#45;&gt;Node15 -->
<g id="edge21_Node000013_Node000015" class="edge">
<title>Node13&#45;&gt;Node15</title>
<g id="a_edge21_Node000013_Node000015"><a xlink:title=" ">
<path fill="none" stroke="#63b8ff" d="M355.73,-54.84C356.12,-47.21 356.6,-37.7 357.03,-29.45"/>
<polygon fill="#63b8ff" stroke="#63b8ff" points="360.53,-29.43 357.55,-19.27 353.54,-29.07 360.53,-29.43"/>
</a>
</g>
</g>
</g>
</svg>
