<?xml version="1.0" encoding="UTF-8" standalone="no"?>
<!DOCTYPE svg PUBLIC "-//W3C//DTD SVG 1.1//EN"
 "http://www.w3.org/Graphics/SVG/1.1/DTD/svg11.dtd">
<!-- Generated by graphviz version 2.43.0 (0)
 -->
<!-- Title: /home/runner/work/amr&#45;wind/amr&#45;wind/src/wind_energy/actuator/disk/ActuatorDisk.H Pages: 1 -->
<svg width="1861pt" height="566pt"
 viewBox="0.00 0.00 1860.94 566.00" xmlns="http://www.w3.org/2000/svg" xmlns:xlink="http://www.w3.org/1999/xlink">
<g id="graph0" class="graph" transform="scale(1 1) rotate(0) translate(4 562)">
<title>/home/runner/work/amr&#45;wind/amr&#45;wind/src/wind_energy/actuator/disk/ActuatorDisk.H</title>
<!-- Node1 -->
<g id="Node000001" class="node">
<title>Node1</title>
<g id="a_Node000001"><a xlink:title=" ">
<polygon fill="#999999" stroke="#666666" points="1515.5,-558 1348.5,-558 1348.5,-506 1515.5,-506 1515.5,-558"/>
<text text-anchor="start" x="1356.5" y="-546" font-family="Helvetica,sans-Serif" font-size="10.00">/home/runner/work/amr</text>
<text text-anchor="start" x="1356.5" y="-535" font-family="Helvetica,sans-Serif" font-size="10.00">&#45;wind/amr&#45;wind/src/wind</text>
<text text-anchor="start" x="1356.5" y="-524" font-family="Helvetica,sans-Serif" font-size="10.00">_energy/actuator/disk/Actuator</text>
<text text-anchor="middle" x="1432" y="-513" font-family="Helvetica,sans-Serif" font-size="10.00">Disk.H</text>
</a>
</g>
</g>
<!-- Node2 -->
<g id="Node000002" class="node">
<title>Node2</title>
<g id="a_Node000002"><a xlink:href="_joukowsky_8_h.html" target="_top" xlink:title=" ">
<polygon fill="white" stroke="#666666" points="1524.5,-470 1339.5,-470 1339.5,-429 1524.5,-429 1524.5,-470"/>
<text text-anchor="start" x="1347.5" y="-458" font-family="Helvetica,sans-Serif" font-size="10.00">/home/runner/work/amr</text>
<text text-anchor="start" x="1347.5" y="-447" font-family="Helvetica,sans-Serif" font-size="10.00">&#45;wind/amr&#45;wind/src/wind</text>
<text text-anchor="middle" x="1432" y="-436" font-family="Helvetica,sans-Serif" font-size="10.00">_energy/actuator/disk/Joukowsky.H</text>
</a>
</g>
</g>
<!-- Node1&#45;&gt;Node2 -->
<g id="edge1_Node000001_Node000002" class="edge">
<title>Node1&#45;&gt;Node2</title>
<g id="a_edge1_Node000001_Node000002"><a xlink:title=" ">
<path fill="none" stroke="#63b8ff" d="M1432,-495.87C1432,-487.05 1432,-477.9 1432,-470.15"/>
<polygon fill="#63b8ff" stroke="#63b8ff" points="1428.5,-495.97 1432,-505.97 1435.5,-495.97 1428.5,-495.97"/>
</a>
</g>
</g>
<!-- Node6 -->
<g id="Node000006" class="node">
<title>Node6</title>
<g id="a_Node000006"><a xlink:href="_uniform_ct_8_h.html" target="_top" xlink:title=" ">
<polygon fill="white" stroke="#666666" points="1295,-470 1109,-470 1109,-429 1295,-429 1295,-470"/>
<text text-anchor="start" x="1117" y="-458" font-family="Helvetica,sans-Serif" font-size="10.00">/home/runner/work/amr</text>
<text text-anchor="start" x="1117" y="-447" font-family="Helvetica,sans-Serif" font-size="10.00">&#45;wind/amr&#45;wind/src/wind</text>
<text text-anchor="middle" x="1202" y="-436" font-family="Helvetica,sans-Serif" font-size="10.00">_energy/actuator/disk/UniformCt.H</text>
</a>
</g>
</g>
<!-- Node1&#45;&gt;Node6 -->
<g id="edge6_Node000001_Node000006" class="edge">
<title>Node1&#45;&gt;Node6</title>
<g id="a_edge6_Node000001_Node000006"><a xlink:title=" ">
<path fill="none" stroke="#63b8ff" d="M1351.04,-502.66C1320.19,-491.87 1285.76,-479.81 1257.76,-470.02"/>
<polygon fill="#63b8ff" stroke="#63b8ff" points="1349.89,-505.97 1360.49,-505.97 1352.2,-499.36 1349.89,-505.97"/>
</a>
</g>
</g>
<!-- Node20 -->
<g id="Node000020" class="node">
<title>Node20</title>
<g id="a_Node000020"><a xlink:href="disk__ops_8_h.html" target="_top" xlink:title=" ">
<polygon fill="white" stroke="#666666" points="1721.5,-470 1542.5,-470 1542.5,-429 1721.5,-429 1721.5,-470"/>
<text text-anchor="start" x="1550.5" y="-458" font-family="Helvetica,sans-Serif" font-size="10.00">/home/runner/work/amr</text>
<text text-anchor="start" x="1550.5" y="-447" font-family="Helvetica,sans-Serif" font-size="10.00">&#45;wind/amr&#45;wind/src/wind</text>
<text text-anchor="middle" x="1632" y="-436" font-family="Helvetica,sans-Serif" font-size="10.00">_energy/actuator/disk/disk_ops.H</text>
</a>
</g>
</g>
<!-- Node1&#45;&gt;Node20 -->
<g id="edge24_Node000001_Node000020" class="edge">
<title>Node1&#45;&gt;Node20</title>
<g id="a_edge24_Node000001_Node000020"><a xlink:title=" ">
<path fill="none" stroke="#63b8ff" d="M1503.79,-502.1C1530.25,-491.45 1559.59,-479.65 1583.51,-470.02"/>
<polygon fill="#63b8ff" stroke="#63b8ff" points="1502.15,-498.99 1494.18,-505.97 1504.77,-505.48 1502.15,-498.99"/>
</a>
</g>
</g>
<!-- Node3 -->
<g id="Node000003" class="node">
<title>Node3</title>
<g id="a_Node000003"><a xlink:href="_actuator_disk_8cpp.html" target="_top" xlink:title=" ">
<polygon fill="white" stroke="#666666" points="1321.5,-140 1154.5,-140 1154.5,-88 1321.5,-88 1321.5,-140"/>
<text text-anchor="start" x="1162.5" y="-128" font-family="Helvetica,sans-Serif" font-size="10.00">/home/runner/work/amr</text>
<text text-anchor="start" x="1162.5" y="-117" font-family="Helvetica,sans-Serif" font-size="10.00">&#45;wind/amr&#45;wind/src/wind</text>
<text text-anchor="start" x="1162.5" y="-106" font-family="Helvetica,sans-Serif" font-size="10.00">_energy/actuator/disk/Actuator</text>
<text text-anchor="middle" x="1238" y="-95" font-family="Helvetica,sans-Serif" font-size="10.00">Disk.cpp</text>
</a>
</g>
</g>
<!-- Node2&#45;&gt;Node3 -->
<g id="edge2_Node000002_Node000003" class="edge">
<title>Node2&#45;&gt;Node3</title>
<g id="a_edge2_Node000002_Node000003"><a xlink:title=" ">
<path fill="none" stroke="#63b8ff" d="M1436.01,-418.76C1439.96,-378.53 1441.81,-305.75 1413,-253 1385.18,-202.07 1329.88,-163.44 1288.85,-140.19"/>
<polygon fill="#63b8ff" stroke="#63b8ff" points="1432.52,-418.41 1434.92,-428.73 1439.48,-419.17 1432.52,-418.41"/>
</a>
</g>
</g>
<!-- Node4 -->
<g id="Node000004" class="node">
<title>Node4</title>
<g id="a_Node000004"><a xlink:href="_joukowsky__ops_8_h.html" target="_top" xlink:title=" ">
<polygon fill="white" stroke="#666666" points="1669.5,-387.5 1460.5,-387.5 1460.5,-346.5 1669.5,-346.5 1669.5,-387.5"/>
<text text-anchor="start" x="1468.5" y="-375.5" font-family="Helvetica,sans-Serif" font-size="10.00">/home/runner/work/amr</text>
<text text-anchor="start" x="1468.5" y="-364.5" font-family="Helvetica,sans-Serif" font-size="10.00">&#45;wind/amr&#45;wind/src/wind</text>
<text text-anchor="middle" x="1565" y="-353.5" font-family="Helvetica,sans-Serif" font-size="10.00">_energy/actuator/disk/Joukowsky_ops.H</text>
</a>
</g>
</g>
<!-- Node2&#45;&gt;Node4 -->
<g id="edge3_Node000002_Node000004" class="edge">
<title>Node2&#45;&gt;Node4</title>
<g id="a_edge3_Node000002_Node000004"><a xlink:title=" ">
<path fill="none" stroke="#63b8ff" d="M1473.29,-423.51C1492.3,-412 1514.53,-398.55 1532.34,-387.77"/>
<polygon fill="#63b8ff" stroke="#63b8ff" points="1471.28,-420.64 1464.54,-428.81 1474.9,-426.62 1471.28,-420.64"/>
</a>
</g>
</g>
<!-- Node4&#45;&gt;Node3 -->
<g id="edge4_Node000004_Node000003" class="edge">
<title>Node4&#45;&gt;Node3</title>
<g id="a_edge4_Node000004_Node000003"><a xlink:title=" ">
<path fill="none" stroke="#63b8ff" d="M1554.55,-336.94C1538.02,-295.1 1501.87,-218.32 1446,-176 1410.08,-148.79 1362.25,-133.69 1321.51,-125.32"/>
<polygon fill="#63b8ff" stroke="#63b8ff" points="1551.29,-338.21 1558.14,-346.29 1557.82,-335.7 1551.29,-338.21"/>
</a>
</g>
</g>
<!-- Node5 -->
<g id="Node000005" class="node">
<title>Node5</title>
<g id="a_Node000005"><a xlink:href="_joukowsky__ops_8cpp.html" target="_top" xlink:title=" ">
<polygon fill="white" stroke="#666666" points="1812,-305 1636,-305 1636,-253 1812,-253 1812,-305"/>
<text text-anchor="start" x="1644" y="-293" font-family="Helvetica,sans-Serif" font-size="10.00">/home/runner/work/amr</text>
<text text-anchor="start" x="1644" y="-282" font-family="Helvetica,sans-Serif" font-size="10.00">&#45;wind/amr&#45;wind/src/wind</text>
<text text-anchor="start" x="1644" y="-271" font-family="Helvetica,sans-Serif" font-size="10.00">_energy/actuator/disk/Joukowsky</text>
<text text-anchor="middle" x="1724" y="-260" font-family="Helvetica,sans-Serif" font-size="10.00">_ops.cpp</text>
</a>
</g>
</g>
<!-- Node4&#45;&gt;Node5 -->
<g id="edge5_Node000004_Node000005" class="edge">
<title>Node4&#45;&gt;Node5</title>
<g id="a_edge5_Node000004_Node000005"><a xlink:title=" ">
<path fill="none" stroke="#63b8ff" d="M1610.14,-341.58C1631.21,-330.19 1656.26,-316.64 1677.49,-305.16"/>
<polygon fill="#63b8ff" stroke="#63b8ff" points="1608.21,-338.65 1601.08,-346.49 1611.54,-344.81 1608.21,-338.65"/>
</a>
</g>
</g>
<!-- Node6&#45;&gt;Node3 -->
<g id="edge7_Node000006_Node000003" class="edge">
<title>Node6&#45;&gt;Node3</title>
<g id="a_edge7_Node000006_Node000003"><a xlink:title=" ">
<path fill="none" stroke="#63b8ff" d="M1199.85,-418.47C1196.96,-367.8 1194.16,-262.41 1213,-176 1215.66,-163.81 1220.58,-150.94 1225.37,-140.18"/>
<polygon fill="#63b8ff" stroke="#63b8ff" points="1196.37,-418.94 1200.48,-428.71 1203.36,-418.51 1196.37,-418.94"/>
</a>
</g>
</g>
<!-- Node7 -->
<g id="Node000007" class="node">
<title>Node7</title>
<g id="a_Node000007"><a xlink:href="disk__spreading_8_h.html" target="_top" xlink:title=" ">
<polygon fill="white" stroke="#666666" points="1146,-393 1000,-393 1000,-341 1146,-341 1146,-393"/>
<text text-anchor="start" x="1008" y="-381" font-family="Helvetica,sans-Serif" font-size="10.00">/home/runner/work/amr</text>
<text text-anchor="start" x="1008" y="-370" font-family="Helvetica,sans-Serif" font-size="10.00">&#45;wind/amr&#45;wind/src/wind</text>
<text text-anchor="start" x="1008" y="-359" font-family="Helvetica,sans-Serif" font-size="10.00">_energy/actuator/disk/disk</text>
<text text-anchor="middle" x="1073" y="-348" font-family="Helvetica,sans-Serif" font-size="10.00">_spreading.H</text>
</a>
</g>
</g>
<!-- Node6&#45;&gt;Node7 -->
<g id="edge8_Node000006_Node000007" class="edge">
<title>Node6&#45;&gt;Node7</title>
<g id="a_edge8_Node000006_Node000007"><a xlink:title=" ">
<path fill="none" stroke="#63b8ff" d="M1161.69,-423.34C1146.34,-413.77 1128.87,-402.86 1113.51,-393.28"/>
<polygon fill="#63b8ff" stroke="#63b8ff" points="1160.11,-426.48 1170.44,-428.81 1163.81,-420.54 1160.11,-426.48"/>
</a>
</g>
</g>
<!-- Node18 -->
<g id="Node000018" class="node">
<title>Node18</title>
<g id="a_Node000018"><a xlink:href="uniform__ct__ops_8_h.html" target="_top" xlink:title=" ">
<polygon fill="white" stroke="#666666" points="1385,-393 1221,-393 1221,-341 1385,-341 1385,-393"/>
<text text-anchor="start" x="1229" y="-381" font-family="Helvetica,sans-Serif" font-size="10.00">/home/runner/work/amr</text>
<text text-anchor="start" x="1229" y="-370" font-family="Helvetica,sans-Serif" font-size="10.00">&#45;wind/amr&#45;wind/src/wind</text>
<text text-anchor="start" x="1229" y="-359" font-family="Helvetica,sans-Serif" font-size="10.00">_energy/actuator/disk/uniform</text>
<text text-anchor="middle" x="1303" y="-348" font-family="Helvetica,sans-Serif" font-size="10.00">_ct_ops.H</text>
</a>
</g>
</g>
<!-- Node6&#45;&gt;Node18 -->
<g id="edge21_Node000006_Node000018" class="edge">
<title>Node6&#45;&gt;Node18</title>
<g id="a_edge21_Node000006_Node000018"><a xlink:title=" ">
<path fill="none" stroke="#63b8ff" d="M1234.58,-422.54C1246.34,-413.16 1259.6,-402.59 1271.29,-393.28"/>
<polygon fill="#63b8ff" stroke="#63b8ff" points="1232.35,-419.84 1226.71,-428.81 1236.71,-425.31 1232.35,-419.84"/>
</a>
</g>
</g>
<!-- Node7&#45;&gt;Node3 -->
<g id="edge20_Node000007_Node000003" class="edge">
<title>Node7&#45;&gt;Node3</title>
<g id="a_edge20_Node000007_Node000003"><a xlink:title=" ">
<path fill="none" stroke="#63b8ff" d="M1083.33,-331.21C1096.49,-290.91 1122.18,-223.91 1160,-176 1170.76,-162.37 1185.17,-150 1198.67,-140.02"/>
<polygon fill="#63b8ff" stroke="#63b8ff" points="1079.96,-330.27 1080.25,-340.86 1086.63,-332.4 1079.96,-330.27"/>
</a>
</g>
</g>
<!-- Node8 -->
<g id="Node000008" class="node">
<title>Node8</title>
<g id="a_Node000008"><a xlink:href="_act_src_disk_op_8_h.html" target="_top" xlink:title=" ">
<polygon fill="white" stroke="#666666" points="1030,-299.5 828,-299.5 828,-258.5 1030,-258.5 1030,-299.5"/>
<text text-anchor="start" x="836" y="-287.5" font-family="Helvetica,sans-Serif" font-size="10.00">/home/runner/work/amr</text>
<text text-anchor="start" x="836" y="-276.5" font-family="Helvetica,sans-Serif" font-size="10.00">&#45;wind/amr&#45;wind/src/wind</text>
<text text-anchor="middle" x="929" y="-265.5" font-family="Helvetica,sans-Serif" font-size="10.00">_energy/actuator/disk/ActSrcDiskOp.H</text>
</a>
</g>
</g>
<!-- Node7&#45;&gt;Node8 -->
<g id="edge9_Node000007_Node000008" class="edge">
<title>Node7&#45;&gt;Node8</title>
<g id="a_edge9_Node000007_Node000008"><a xlink:title=" ">
<path fill="none" stroke="#63b8ff" d="M1022.22,-335.67C1002.11,-323.66 979.58,-310.21 961.7,-299.53"/>
<polygon fill="#63b8ff" stroke="#63b8ff" points="1020.58,-338.77 1030.96,-340.89 1024.17,-332.76 1020.58,-338.77"/>
</a>
</g>
</g>
<!-- Node9 -->
<g id="Node000009" class="node">
<title>Node9</title>
<g id="a_Node000009"><a xlink:href="_actuator_model_8_h.html" target="_top" xlink:title=" ">
<polygon fill="white" stroke="#666666" points="918,-217 734,-217 734,-176 918,-176 918,-217"/>
<text text-anchor="start" x="742" y="-205" font-family="Helvetica,sans-Serif" font-size="10.00">/home/runner/work/amr</text>
<text text-anchor="start" x="742" y="-194" font-family="Helvetica,sans-Serif" font-size="10.00">&#45;wind/amr&#45;wind/src/wind</text>
<text text-anchor="middle" x="826" y="-183" font-family="Helvetica,sans-Serif" font-size="10.00">_energy/actuator/ActuatorModel.H</text>
</a>
</g>
</g>
<!-- Node8&#45;&gt;Node9 -->
<g id="edge10_Node000008_Node000009" class="edge">
<title>Node8&#45;&gt;Node9</title>
<g id="a_edge10_Node000008_Node000009"><a xlink:title=" ">
<path fill="none" stroke="#63b8ff" d="M895.62,-251.91C881.22,-240.65 864.65,-227.71 851.29,-217.27"/>
<polygon fill="#63b8ff" stroke="#63b8ff" points="893.77,-254.91 903.8,-258.31 898.08,-249.39 893.77,-254.91"/>
</a>
</g>
</g>
<!-- Node9&#45;&gt;Node3 -->
<g id="edge15_Node000009_Node000003" class="edge">
<title>Node9&#45;&gt;Node3</title>
<g id="a_edge15_Node000009_Node000003"><a xlink:title=" ">
<path fill="none" stroke="#63b8ff" d="M928.13,-180.14C990.96,-170.1 1072.97,-155.91 1145,-140 1148.1,-139.31 1151.26,-138.59 1154.44,-137.85"/>
<polygon fill="#63b8ff" stroke="#63b8ff" points="927.54,-176.69 918.22,-181.72 928.64,-183.6 927.54,-176.69"/>
</a>
</g>
</g>
<!-- Node10 -->
<g id="Node000010" class="node">
<title>Node10</title>
<g id="a_Node000010"><a xlink:href="_actuator_8_h.html" target="_top" xlink:title=" ">
<polygon fill="white" stroke="#666666" points="332.5,-134.5 179.5,-134.5 179.5,-93.5 332.5,-93.5 332.5,-134.5"/>
<text text-anchor="start" x="187.5" y="-122.5" font-family="Helvetica,sans-Serif" font-size="10.00">/home/runner/work/amr</text>
<text text-anchor="start" x="187.5" y="-111.5" font-family="Helvetica,sans-Serif" font-size="10.00">&#45;wind/amr&#45;wind/src/wind</text>
<text text-anchor="middle" x="256" y="-100.5" font-family="Helvetica,sans-Serif" font-size="10.00">_energy/actuator/Actuator.H</text>
</a>
</g>
</g>
<!-- Node9&#45;&gt;Node10 -->
<g id="edge11_Node000009_Node000010" class="edge">
<title>Node9&#45;&gt;Node10</title>
<g id="a_edge11_Node000009_Node000010"><a xlink:title=" ">
<path fill="none" stroke="#63b8ff" d="M723.66,-188.93C624.95,-181.38 471.69,-166.49 341,-140 333.46,-138.47 325.63,-136.59 317.9,-134.54"/>
<polygon fill="#63b8ff" stroke="#63b8ff" points="723.4,-192.42 733.64,-189.68 723.93,-185.44 723.4,-192.42"/>
</a>
</g>
</g>
<!-- Node14 -->
<g id="Node000014" class="node">
<title>Node14</title>
<g id="a_Node000014"><a xlink:href="_turbine_fast_8cpp.html" target="_top" xlink:title=" ">
<polygon fill="white" stroke="#666666" points="487.5,-140 350.5,-140 350.5,-88 487.5,-88 487.5,-140"/>
<text text-anchor="start" x="358.5" y="-128" font-family="Helvetica,sans-Serif" font-size="10.00">/home/runner/work/amr</text>
<text text-anchor="start" x="358.5" y="-117" font-family="Helvetica,sans-Serif" font-size="10.00">&#45;wind/amr&#45;wind/src/wind</text>
<text text-anchor="start" x="358.5" y="-106" font-family="Helvetica,sans-Serif" font-size="10.00">_energy/actuator/turbine</text>
<text text-anchor="middle" x="419" y="-95" font-family="Helvetica,sans-Serif" font-size="10.00">/fast/TurbineFast.cpp</text>
</a>
</g>
</g>
<!-- Node9&#45;&gt;Node14 -->
<g id="edge16_Node000009_Node000014" class="edge">
<title>Node9&#45;&gt;Node14</title>
<g id="a_edge16_Node000009_Node000014"><a xlink:title=" ">
<path fill="none" stroke="#63b8ff" d="M723.51,-182.07C658.21,-172.56 572.06,-158.26 497,-140 493.96,-139.26 490.87,-138.46 487.75,-137.62"/>
<polygon fill="#63b8ff" stroke="#63b8ff" points="723.41,-185.59 733.81,-183.55 724.41,-178.66 723.41,-185.59"/>
</a>
</g>
</g>
<!-- Node15 -->
<g id="Node000015" class="node">
<title>Node15</title>
<g id="a_Node000015"><a xlink:href="_turbine_kynema_f_m_b_8cpp.html" target="_top" xlink:title=" ">
<polygon fill="white" stroke="#666666" points="708.5,-140 505.5,-140 505.5,-88 708.5,-88 708.5,-140"/>
<text text-anchor="start" x="513.5" y="-128" font-family="Helvetica,sans-Serif" font-size="10.00">/home/runner/work/amr</text>
<text text-anchor="start" x="513.5" y="-117" font-family="Helvetica,sans-Serif" font-size="10.00">&#45;wind/amr&#45;wind/src/wind</text>
<text text-anchor="start" x="513.5" y="-106" font-family="Helvetica,sans-Serif" font-size="10.00">_energy/actuator/turbine</text>
<text text-anchor="middle" x="607" y="-95" font-family="Helvetica,sans-Serif" font-size="10.00">/kynema_fmb/TurbineKynemaFMB.cpp</text>
</a>
</g>
</g>
<!-- Node9&#45;&gt;Node15 -->
<g id="edge17_Node000009_Node000015" class="edge">
<title>Node9&#45;&gt;Node15</title>
<g id="a_edge17_Node000009_Node000015"><a xlink:title=" ">
<path fill="none" stroke="#63b8ff" d="M763.18,-172.41C735.63,-162.28 703.24,-150.38 675.12,-140.04"/>
<polygon fill="#63b8ff" stroke="#63b8ff" points="762.11,-175.75 772.71,-175.91 764.53,-169.18 762.11,-175.75"/>
</a>
</g>
</g>
<!-- Node16 -->
<g id="Node000016" class="node">
<title>Node16</title>
<g id="a_Node000016"><a xlink:href="_fixed_wing_8cpp.html" target="_top" xlink:title=" ">
<polygon fill="white" stroke="#666666" points="925.5,-134.5 726.5,-134.5 726.5,-93.5 925.5,-93.5 925.5,-134.5"/>
<text text-anchor="start" x="734.5" y="-122.5" font-family="Helvetica,sans-Serif" font-size="10.00">/home/runner/work/amr</text>
<text text-anchor="start" x="734.5" y="-111.5" font-family="Helvetica,sans-Serif" font-size="10.00">&#45;wind/amr&#45;wind/src/wind</text>
<text text-anchor="middle" x="826" y="-100.5" font-family="Helvetica,sans-Serif" font-size="10.00">_energy/actuator/wing/FixedWing.cpp</text>
</a>
</g>
</g>
<!-- Node9&#45;&gt;Node16 -->
<g id="edge18_Node000009_Node000016" class="edge">
<title>Node9&#45;&gt;Node16</title>
<g id="a_edge18_Node000009_Node000016"><a xlink:title=" ">
<path fill="none" stroke="#63b8ff" d="M826,-165.37C826,-155.1 826,-143.9 826,-134.67"/>
<polygon fill="#63b8ff" stroke="#63b8ff" points="822.5,-165.6 826,-175.6 829.5,-165.6 822.5,-165.6"/>
</a>
</g>
</g>
<!-- Node17 -->
<g id="Node000017" class="node">
<title>Node17</title>
<g id="a_Node000017"><a xlink:href="_flat_plate_8cpp.html" target="_top" xlink:title=" ">
<polygon fill="white" stroke="#666666" points="1136,-134.5 944,-134.5 944,-93.5 1136,-93.5 1136,-134.5"/>
<text text-anchor="start" x="952" y="-122.5" font-family="Helvetica,sans-Serif" font-size="10.00">/home/runner/work/amr</text>
<text text-anchor="start" x="952" y="-111.5" font-family="Helvetica,sans-Serif" font-size="10.00">&#45;wind/amr&#45;wind/src/wind</text>
<text text-anchor="middle" x="1040" y="-100.5" font-family="Helvetica,sans-Serif" font-size="10.00">_energy/actuator/wing/FlatPlate.cpp</text>
</a>
</g>
</g>
<!-- Node9&#45;&gt;Node17 -->
<g id="edge19_Node000009_Node000017" class="edge">
<title>Node9&#45;&gt;Node17</title>
<g id="a_edge19_Node000009_Node000017"><a xlink:title=" ">
<path fill="none" stroke="#63b8ff" d="M887.71,-172.29C919.5,-160.33 957.81,-145.92 988.06,-134.54"/>
<polygon fill="#63b8ff" stroke="#63b8ff" points="886.2,-169.11 878.08,-175.91 888.67,-175.67 886.2,-169.11"/>
</a>
</g>
</g>
<!-- Node11 -->
<g id="Node000011" class="node">
<title>Node11</title>
<g id="a_Node000011"><a xlink:href="_actuator_forcing_8cpp.html" target="_top" xlink:title=" ">
<polygon fill="white" stroke="#666666" points="156,-52 0,-52 0,0 156,0 156,-52"/>
<text text-anchor="start" x="8" y="-40" font-family="Helvetica,sans-Serif" font-size="10.00">/home/runner/work/amr</text>
<text text-anchor="start" x="8" y="-29" font-family="Helvetica,sans-Serif" font-size="10.00">&#45;wind/amr&#45;wind/src/equation</text>
<text text-anchor="start" x="8" y="-18" font-family="Helvetica,sans-Serif" font-size="10.00">_systems/icns/source_terms</text>
<text text-anchor="middle" x="78" y="-7" font-family="Helvetica,sans-Serif" font-size="10.00">/ActuatorForcing.cpp</text>
</a>
</g>
</g>
<!-- Node10&#45;&gt;Node11 -->
<g id="edge12_Node000010_Node000011" class="edge">
<title>Node10&#45;&gt;Node11</title>
<g id="a_edge12_Node000010_Node000011"><a xlink:title=" ">
<path fill="none" stroke="#63b8ff" d="M206.41,-89.04C182.64,-77.55 154.16,-63.8 130.07,-52.16"/>
<polygon fill="#63b8ff" stroke="#63b8ff" points="205.08,-92.29 215.61,-93.49 208.13,-85.98 205.08,-92.29"/>
</a>
</g>
</g>
<!-- Node12 -->
<g id="Node000012" class="node">
<title>Node12</title>
<g id="a_Node000012"><a xlink:href="_actuator_8cpp.html" target="_top" xlink:title=" ">
<polygon fill="white" stroke="#666666" points="337.5,-46.5 174.5,-46.5 174.5,-5.5 337.5,-5.5 337.5,-46.5"/>
<text text-anchor="start" x="182.5" y="-34.5" font-family="Helvetica,sans-Serif" font-size="10.00">/home/runner/work/amr</text>
<text text-anchor="start" x="182.5" y="-23.5" font-family="Helvetica,sans-Serif" font-size="10.00">&#45;wind/amr&#45;wind/src/wind</text>
<text text-anchor="middle" x="256" y="-12.5" font-family="Helvetica,sans-Serif" font-size="10.00">_energy/actuator/Actuator.cpp</text>
</a>
</g>
</g>
<!-- Node10&#45;&gt;Node12 -->
<g id="edge13_Node000010_Node000012" class="edge">
<title>Node10&#45;&gt;Node12</title>
<g id="a_edge13_Node000010_Node000012"><a xlink:title=" ">
<path fill="none" stroke="#63b8ff" d="M256,-83.36C256,-71.26 256,-57.58 256,-46.74"/>
<polygon fill="#63b8ff" stroke="#63b8ff" points="252.5,-83.49 256,-93.49 259.5,-83.49 252.5,-83.49"/>
</a>
</g>
</g>
<!-- Node13 -->
<g id="Node000013" class="node">
<title>Node13</title>
<g id="a_Node000013"><a xlink:href="_actuator_container_8cpp.html" target="_top" xlink:title=" ">
<polygon fill="white" stroke="#666666" points="566,-46.5 356,-46.5 356,-5.5 566,-5.5 566,-46.5"/>
<text text-anchor="start" x="364" y="-34.5" font-family="Helvetica,sans-Serif" font-size="10.00">/home/runner/work/amr</text>
<text text-anchor="start" x="364" y="-23.5" font-family="Helvetica,sans-Serif" font-size="10.00">&#45;wind/amr&#45;wind/src/wind</text>
<text text-anchor="middle" x="461" y="-12.5" font-family="Helvetica,sans-Serif" font-size="10.00">_energy/actuator/ActuatorContainer.cpp</text>
</a>
</g>
</g>
<!-- Node10&#45;&gt;Node13 -->
<g id="edge14_Node000010_Node000013" class="edge">
<title>Node10&#45;&gt;Node13</title>
<g id="a_edge14_Node000010_Node000013"><a xlink:title=" ">
<path fill="none" stroke="#63b8ff" d="M311.79,-89.6C343.92,-76.12 383.85,-59.37 414.31,-46.59"/>
<polygon fill="#63b8ff" stroke="#63b8ff" points="310.39,-86.39 302.52,-93.49 313.09,-92.84 310.39,-86.39"/>
</a>
</g>
</g>
<!-- Node18&#45;&gt;Node3 -->
<g id="edge22_Node000018_Node000003" class="edge">
<title>Node18&#45;&gt;Node3</title>
<g id="a_edge22_Node000018_Node000003"><a xlink:title=" ">
<path fill="none" stroke="#63b8ff" d="M1253.38,-334.1C1244.31,-325.79 1236.11,-316.03 1231,-305 1205.81,-250.64 1219.86,-177.86 1230.17,-140.1"/>
<polygon fill="#63b8ff" stroke="#63b8ff" points="1251.27,-336.9 1261.15,-340.72 1255.81,-331.57 1251.27,-336.9"/>
</a>
</g>
</g>
<!-- Node19 -->
<g id="Node000019" class="node">
<title>Node19</title>
<g id="a_Node000019"><a xlink:href="uniform__ct__ops_8cpp.html" target="_top" xlink:title=" ">
<polygon fill="white" stroke="#666666" points="1404,-305 1240,-305 1240,-253 1404,-253 1404,-305"/>
<text text-anchor="start" x="1248" y="-293" font-family="Helvetica,sans-Serif" font-size="10.00">/home/runner/work/amr</text>
<text text-anchor="start" x="1248" y="-282" font-family="Helvetica,sans-Serif" font-size="10.00">&#45;wind/amr&#45;wind/src/wind</text>
<text text-anchor="start" x="1248" y="-271" font-family="Helvetica,sans-Serif" font-size="10.00">_energy/actuator/disk/uniform</text>
<text text-anchor="middle" x="1322" y="-260" font-family="Helvetica,sans-Serif" font-size="10.00">_ct_ops.cpp</text>
</a>
</g>
</g>
<!-- Node18&#45;&gt;Node19 -->
<g id="edge23_Node000018_Node000019" class="edge">
<title>Node18&#45;&gt;Node19</title>
<g id="a_edge23_Node000018_Node000019"><a xlink:title=" ">
<path fill="none" stroke="#63b8ff" d="M1310.77,-330.84C1312.67,-322.23 1314.67,-313.19 1316.44,-305.16"/>
<polygon fill="#63b8ff" stroke="#63b8ff" points="1307.34,-330.14 1308.6,-340.66 1314.17,-331.65 1307.34,-330.14"/>
</a>
</g>
</g>
<!-- Node20&#45;&gt;Node4 -->
<g id="edge25_Node000020_Node000004" class="edge">
<title>Node20&#45;&gt;Node4</title>
<g id="a_edge25_Node000020_Node000004"><a xlink:title=" ">
<path fill="none" stroke="#63b8ff" d="M1608.79,-420.62C1599.76,-409.76 1589.62,-397.58 1581.37,-387.67"/>
<polygon fill="#63b8ff" stroke="#63b8ff" points="1606.35,-423.15 1615.44,-428.6 1611.73,-418.68 1606.35,-423.15"/>
</a>
</g>
</g>
<!-- Node20&#45;&gt;Node5 -->
<g id="edge26_Node000020_Node000005" class="edge">
<title>Node20&#45;&gt;Node5</title>
<g id="a_edge26_Node000020_Node000005"><a xlink:title=" ">
<path fill="none" stroke="#63b8ff" d="M1731.62,-434.17C1779.14,-425.08 1828.72,-411.52 1843,-393 1857.11,-374.7 1855.05,-360.72 1843,-341 1833.56,-325.55 1818.82,-313.85 1802.89,-305.05"/>
<polygon fill="#63b8ff" stroke="#63b8ff" points="1730.72,-430.77 1721.53,-436.04 1732,-437.66 1730.72,-430.77"/>
</a>
</g>
</g>
<!-- Node20&#45;&gt;Node18 -->
<g id="edge28_Node000020_Node000018" class="edge">
<title>Node20&#45;&gt;Node18</title>
<g id="a_edge28_Node000020_Node000018"><a xlink:title=" ">
<path fill="none" stroke="#63b8ff" d="M1541.98,-426.47C1493,-414.49 1432.84,-399.77 1385.14,-388.1"/>
<polygon fill="#63b8ff" stroke="#63b8ff" points="1541.39,-429.93 1551.94,-428.91 1543.06,-423.13 1541.39,-429.93"/>
</a>
</g>
</g>
<!-- Node21 -->
<g id="Node000021" class="node">
<title>Node21</title>
<g id="a_Node000021"><a xlink:href="disk__ops_8cpp.html" target="_top" xlink:title=" ">
<polygon fill="white" stroke="#666666" points="1834,-393 1688,-393 1688,-341 1834,-341 1834,-393"/>
<text text-anchor="start" x="1696" y="-381" font-family="Helvetica,sans-Serif" font-size="10.00">/home/runner/work/amr</text>
<text text-anchor="start" x="1696" y="-370" font-family="Helvetica,sans-Serif" font-size="10.00">&#45;wind/amr&#45;wind/src/wind</text>
<text text-anchor="start" x="1696" y="-359" font-family="Helvetica,sans-Serif" font-size="10.00">_energy/actuator/disk/disk</text>
<text text-anchor="middle" x="1761" y="-348" font-family="Helvetica,sans-Serif" font-size="10.00">_ops.cpp</text>
</a>
</g>
</g>
<!-- Node20&#45;&gt;Node21 -->
<g id="edge27_Node000020_Node000021" class="edge">
<title>Node20&#45;&gt;Node21</title>
<g id="a_edge27_Node000020_Node000021"><a xlink:title=" ">
<path fill="none" stroke="#63b8ff" d="M1672.31,-423.34C1687.66,-413.77 1705.13,-402.86 1720.49,-393.28"/>
<polygon fill="#63b8ff" stroke="#63b8ff" points="1670.19,-420.54 1663.56,-428.81 1673.89,-426.48 1670.19,-420.54"/>
</a>
</g>
</g>
</g>
</svg>
