<?xml version="1.0" encoding="UTF-8" standalone="no"?>
<!DOCTYPE svg PUBLIC "-//W3C//DTD SVG 1.1//EN"
 "http://www.w3.org/Graphics/SVG/1.1/DTD/svg11.dtd">
<!-- Generated by graphviz version 2.43.0 (0)
 -->
<!-- Title: /home/runner/work/amr&#45;wind/amr&#45;wind/src/wind_energy/actuator/wing/ActuatorWing.H Pages: 1 -->
<!--zoomable 423 -->

<svg id="main" version="1.1" xmlns="http://www.w3.org/2000/svg" xmlns:xlink="http://www.w3.org/1999/xlink" xml:space="preserve" onload="init(evt)">

<style type="text/css"><![CDATA[
.node, .edge {opacity: 0.7;}
.node.selected, .edge.selected {opacity: 1;}
.edge:hover path { stroke: red; }
.edge:hover polygon { stroke: red; fill: red; }
]]></style>

<defs>
  <circle id="rim" cx="0" cy="0" r="7"/>
  <circle id="rim2" cx="0" cy="0" r="3.5"/>
  <g id="zoomPlus">
    <use xlink:href="#rim" fill="#404040"><set attributeName="fill" to="#808080" begin="zoomplus.mouseover" end="zoomplus.mouseout"/></use>
    <path d="M-4,0h8M0,-4v8" fill="none" stroke="white" stroke-width="1.5" pointer-events="none"/>
  </g>
  <g id="zoomMin">
    <use xlink:href="#rim" fill="#404040"><set attributeName="fill" to="#808080" begin="zoomminus.mouseover" end="zoomminus.mouseout"/></use>
    <path d="M-4,0h8" fill="none" stroke="white" stroke-width="1.5" pointer-events="none"/>
  </g>
  <g id="arrowUp" transform="translate(30 24)">
    <use xlink:href="#rim"/>
    <path pointer-events="none" fill="none" stroke="white" stroke-width="1.5" d="M0,-3.0v7 M-2.5,-0.5L0,-3.0L2.5,-0.5"/>
  </g>
  <g id="arrowRight" transform="rotate(90) translate(36 -43)">
    <use xlink:href="#rim"/>
    <path pointer-events="none" fill="none" stroke="white" stroke-width="1.5" d="M0,-3.0v7 M-2.5,-0.5L0,-3.0L2.5,-0.5"/>
  </g>
  <g id="arrowDown" transform="rotate(180) translate(-30 -48)">
    <use xlink:href="#rim"/>
    <path pointer-events="none" fill="none" stroke="white" stroke-width="1.5" d="M0,-3.0v7 M-2.5,-0.5L0,-3.0L2.5,-0.5"/>
  </g>
  <g id="arrowLeft" transform="rotate(270) translate(-36 17)">
    <use xlink:href="#rim"/>
    <path pointer-events="none" fill="none" stroke="white" stroke-width="1.5" d="M0,-3.0v7 M-2.5,-0.5L0,-3.0L2.5,-0.5"/>
  </g>
  <g id="resetDef">
    <use xlink:href="#rim2" fill="#404040"><set attributeName="fill" to="#808080" begin="reset.mouseover" end="reset.mouseout"/></use>
  </g>
</defs>
<script type="application/ecmascript">
var viewWidth = 886;
var viewHeight = 423;
var sectionId = 'dynsection-0';
</script>
<script type="application/ecmascript" xlink:href="svg.min.js"/>
<svg id="graph" class="graph">
<g id="viewport">
<title>/home/runner/work/amr&#45;wind/amr&#45;wind/src/wind_energy/actuator/wing/ActuatorWing.H</title>
<!-- Node1 -->
<g id="Node000001" class="node">
<title>Node1</title>
<g id="a_Node000001"><a xlink:title=" ">
<polygon fill="#999999" stroke="#666666" points="815,-415 645,-415 645,-363 815,-363 815,-415"/>
<text text-anchor="start" x="653" y="-403" font-family="Helvetica,sans-Serif" font-size="10.00">/home/runner/work/amr</text>
<text text-anchor="start" x="653" y="-392" font-family="Helvetica,sans-Serif" font-size="10.00">&#45;wind/amr&#45;wind/src/wind</text>
<text text-anchor="start" x="653" y="-381" font-family="Helvetica,sans-Serif" font-size="10.00">_energy/actuator/wing/Actuator</text>
<text text-anchor="middle" x="730" y="-370" font-family="Helvetica,sans-Serif" font-size="10.00">Wing.H</text>
</a>
</g>
</g>
<!-- Node2 -->
<g id="Node000002" class="node">
<title>Node2</title>
<g id="a_Node000002"><a xlink:href="actuator__types_8_h.html" target="_top" xlink:title=" ">
<polygon fill="white" stroke="#666666" points="682,-327 542,-327 542,-297 682,-297 682,-327"/>
<text text-anchor="start" x="550" y="-315" font-family="Helvetica,sans-Serif" font-size="10.00">src/wind_energy/actuator</text>
<text text-anchor="middle" x="612" y="-304" font-family="Helvetica,sans-Serif" font-size="10.00">/actuator_types.H</text>
</a>
</g>
</g>
<!-- Node1&#45;&gt;Node2 -->
<g id="edge1_Node000001_Node000002" class="edge">
<title>Node1&#45;&gt;Node2</title>
<g id="a_edge1_Node000001_Node000002"><a xlink:title=" ">
<path fill="none" stroke="#63b8ff" d="M690.38,-362.82C674.85,-352.95 657.32,-341.8 642.77,-332.56"/>
<polygon fill="#63b8ff" stroke="#63b8ff" points="644.46,-329.49 634.15,-327.08 640.71,-335.39 644.46,-329.49"/>
</a>
</g>
</g>
<!-- Node7 -->
<g id="Node000007" class="node">
<title>Node7</title>
<g id="a_Node000007"><a xlink:href="vector__space_8_h.html" target="_top" xlink:title=" ">
<polygon fill="white" stroke="#666666" points="351.5,-261 248.5,-261 248.5,-231 351.5,-231 351.5,-261"/>
<text text-anchor="start" x="256.5" y="-249" font-family="Helvetica,sans-Serif" font-size="10.00">src/core/vs/vector</text>
<text text-anchor="middle" x="300" y="-238" font-family="Helvetica,sans-Serif" font-size="10.00">_space.H</text>
</a>
</g>
</g>
<!-- Node1&#45;&gt;Node7 -->
<g id="edge32_Node000001_Node000007" class="edge">
<title>Node1&#45;&gt;Node7</title>
<g id="a_edge32_Node000001_Node000007"><a xlink:title=" ">
<path fill="none" stroke="#63b8ff" d="M646.91,-362.89C611.7,-352.08 570.27,-339.17 533,-327 469.42,-306.25 396.57,-281 349.51,-264.49"/>
<polygon fill="#63b8ff" stroke="#63b8ff" points="350.46,-261.11 339.87,-261.1 348.14,-267.72 350.46,-261.11"/>
</a>
</g>
</g>
<!-- Node18 -->
<g id="Node000018" class="node">
<title>Node18</title>
<g id="a_Node000018"><a xlink:title=" ">
<polygon fill="#e0e0e0" stroke="#999999" points="814,-19 722,-19 722,0 814,0 814,-19"/>
<text text-anchor="middle" x="768" y="-7" font-family="Helvetica,sans-Serif" font-size="10.00">AMReX_REAL.H</text>
</a>
</g>
</g>
<!-- Node1&#45;&gt;Node18 -->
<g id="edge34_Node000001_Node000018" class="edge">
<title>Node1&#45;&gt;Node18</title>
<g id="a_edge34_Node000001_Node000018"><a xlink:title=" ">
<path fill="none" stroke="#63b8ff" d="M753.63,-362.66C775.94,-336 806,-291.77 806,-247 806,-247 806,-247 806,-129.5 806,-92.07 788.73,-51.03 777.48,-28.25"/>
<polygon fill="#63b8ff" stroke="#63b8ff" points="780.49,-26.46 772.81,-19.15 774.26,-29.65 780.49,-26.46"/>
</a>
</g>
</g>
<!-- Node22 -->
<g id="Node000022" class="node">
<title>Node22</title>
<g id="a_Node000022"><a xlink:title=" ">
<polygon fill="#e0e0e0" stroke="#999999" points="878,-321.5 834,-321.5 834,-302.5 878,-302.5 878,-321.5"/>
<text text-anchor="middle" x="856" y="-309.5" font-family="Helvetica,sans-Serif" font-size="10.00">string</text>
</a>
</g>
</g>
<!-- Node1&#45;&gt;Node22 -->
<g id="edge33_Node000001_Node000022" class="edge">
<title>Node1&#45;&gt;Node22</title>
<g id="a_edge33_Node000001_Node000022"><a xlink:title=" ">
<path fill="none" stroke="#63b8ff" d="M772.31,-362.82C792.57,-350.75 816.06,-336.78 832.98,-326.7"/>
<polygon fill="#63b8ff" stroke="#63b8ff" points="834.84,-329.67 841.65,-321.54 831.26,-323.65 834.84,-329.67"/>
</a>
</g>
</g>
<!-- Node3 -->
<g id="Node000003" class="node">
<title>Node3</title>
<g id="a_Node000003"><a xlink:href="_slice_8_h.html" target="_top" xlink:title=" ">
<polygon fill="white" stroke="#666666" points="702,-255.5 610,-255.5 610,-236.5 702,-236.5 702,-255.5"/>
<text text-anchor="middle" x="656" y="-243.5" font-family="Helvetica,sans-Serif" font-size="10.00">src/core/Slice.H</text>
</a>
</g>
</g>
<!-- Node2&#45;&gt;Node3 -->
<g id="edge2_Node000002_Node000003" class="edge">
<title>Node2&#45;&gt;Node3</title>
<g id="a_edge2_Node000002_Node000003"><a xlink:title=" ">
<path fill="none" stroke="#63b8ff" d="M621.77,-296.8C628.36,-287.21 637.09,-274.5 644.09,-264.32"/>
<polygon fill="#63b8ff" stroke="#63b8ff" points="647.14,-266.07 649.92,-255.84 641.37,-262.1 647.14,-266.07"/>
</a>
</g>
</g>
<!-- Node6 -->
<g id="Node000006" class="node">
<title>Node6</title>
<g id="a_Node000006"><a xlink:title=" ">
<polygon fill="#e0e0e0" stroke="#999999" points="509.5,-19 422.5,-19 422.5,0 509.5,0 509.5,-19"/>
<text text-anchor="middle" x="466" y="-7" font-family="Helvetica,sans-Serif" font-size="10.00">AMReX_Gpu.H</text>
</a>
</g>
</g>
<!-- Node2&#45;&gt;Node6 -->
<g id="edge27_Node000002_Node000006" class="edge">
<title>Node2&#45;&gt;Node6</title>
<g id="a_edge27_Node000002_Node000006"><a xlink:title=" ">
<path fill="none" stroke="#63b8ff" d="M658.68,-296.98C677.41,-289.18 697.68,-277.59 711,-261 732.39,-234.35 730,-220.67 730,-186.5 730,-186.5 730,-186.5 730,-129.5 730,-38.08 596.81,-16.49 519.63,-11.66"/>
<polygon fill="#63b8ff" stroke="#63b8ff" points="519.77,-8.16 509.59,-11.1 519.39,-15.15 519.77,-8.16"/>
</a>
</g>
</g>
<!-- Node2&#45;&gt;Node7 -->
<g id="edge6_Node000002_Node000007" class="edge">
<title>Node2&#45;&gt;Node7</title>
<g id="a_edge6_Node000002_Node000007"><a xlink:title=" ">
<path fill="none" stroke="#63b8ff" d="M541.83,-297.59C493.8,-288.27 428.41,-275.34 361.45,-261.06"/>
<polygon fill="#63b8ff" stroke="#63b8ff" points="362.07,-257.61 351.56,-258.94 360.61,-264.46 362.07,-257.61"/>
</a>
</g>
</g>
<!-- Node2&#45;&gt;Node18 -->
<g id="edge31_Node000002_Node000018" class="edge">
<title>Node2&#45;&gt;Node18</title>
<g id="a_edge31_Node000002_Node000018"><a xlink:title=" ">
<path fill="none" stroke="#63b8ff" d="M670.56,-296.94C692.59,-289.28 716.51,-277.82 734,-261 760.24,-235.77 768,-222.9 768,-186.5 768,-186.5 768,-186.5 768,-129.5 768,-94.15 768,-52.9 768,-29.42"/>
<polygon fill="#63b8ff" stroke="#63b8ff" points="771.5,-29.16 768,-19.16 764.5,-29.16 771.5,-29.16"/>
</a>
</g>
</g>
<!-- Node19 -->
<g id="Node000019" class="node">
<title>Node19</title>
<g id="a_Node000019"><a xlink:title=" ">
<polygon fill="#e0e0e0" stroke="#999999" points="478,-255.5 370,-255.5 370,-236.5 478,-236.5 478,-255.5"/>
<text text-anchor="middle" x="424" y="-243.5" font-family="Helvetica,sans-Serif" font-size="10.00">AMReX_RealBox.H</text>
</a>
</g>
</g>
<!-- Node2&#45;&gt;Node19 -->
<g id="edge28_Node000002_Node000019" class="edge">
<title>Node2&#45;&gt;Node19</title>
<g id="a_edge28_Node000002_Node000019"><a xlink:title=" ">
<path fill="none" stroke="#63b8ff" d="M570.74,-296.95C537.19,-285.53 490.39,-269.6 458.73,-258.82"/>
<polygon fill="#63b8ff" stroke="#63b8ff" points="459.61,-255.43 449.02,-255.52 457.36,-262.05 459.61,-255.43"/>
</a>
</g>
</g>
<!-- Node20 -->
<g id="Node000020" class="node">
<title>Node20</title>
<g id="a_Node000020"><a xlink:title=" ">
<polygon fill="#e0e0e0" stroke="#999999" points="528,-255.5 496,-255.5 496,-236.5 528,-236.5 528,-255.5"/>
<text text-anchor="middle" x="512" y="-243.5" font-family="Helvetica,sans-Serif" font-size="10.00">set</text>
</a>
</g>
</g>
<!-- Node2&#45;&gt;Node20 -->
<g id="edge29_Node000002_Node000020" class="edge">
<title>Node2&#45;&gt;Node20</title>
<g id="a_edge29_Node000002_Node000020"><a xlink:title=" ">
<path fill="none" stroke="#63b8ff" d="M589.81,-296.8C573.2,-286.17 550.6,-271.7 534.03,-261.1"/>
<polygon fill="#63b8ff" stroke="#63b8ff" points="535.84,-258.1 525.53,-255.66 532.06,-264 535.84,-258.1"/>
</a>
</g>
</g>
<!-- Node21 -->
<g id="Node000021" class="node">
<title>Node21</title>
<g id="a_Node000021"><a xlink:title=" ">
<polygon fill="#e0e0e0" stroke="#999999" points="591.5,-255.5 546.5,-255.5 546.5,-236.5 591.5,-236.5 591.5,-255.5"/>
<text text-anchor="middle" x="569" y="-243.5" font-family="Helvetica,sans-Serif" font-size="10.00">utility</text>
</a>
</g>
</g>
<!-- Node2&#45;&gt;Node21 -->
<g id="edge30_Node000002_Node000021" class="edge">
<title>Node2&#45;&gt;Node21</title>
<g id="a_edge30_Node000002_Node000021"><a xlink:title=" ">
<path fill="none" stroke="#63b8ff" d="M602.46,-296.8C596.02,-287.21 587.48,-274.5 580.64,-264.32"/>
<polygon fill="#63b8ff" stroke="#63b8ff" points="583.42,-262.19 574.94,-255.84 577.61,-266.1 583.42,-262.19"/>
</a>
</g>
</g>
<!-- Node4 -->
<g id="Node000004" class="node">
<title>Node4</title>
<g id="a_Node000004"><a xlink:title=" ">
<polygon fill="#e0e0e0" stroke="#999999" points="585.5,-195 532.5,-195 532.5,-176 585.5,-176 585.5,-195"/>
<text text-anchor="middle" x="559" y="-183" font-family="Helvetica,sans-Serif" font-size="10.00">iterator</text>
</a>
</g>
</g>
<!-- Node3&#45;&gt;Node4 -->
<g id="edge3_Node000003_Node000004" class="edge">
<title>Node3&#45;&gt;Node4</title>
<g id="a_edge3_Node000003_Node000004"><a xlink:title=" ">
<path fill="none" stroke="#63b8ff" d="M641.69,-236.37C626,-226.91 600.6,-211.59 582.09,-200.42"/>
<polygon fill="#63b8ff" stroke="#63b8ff" points="583.74,-197.33 573.37,-195.17 580.13,-203.33 583.74,-197.33"/>
</a>
</g>
</g>
<!-- Node5 -->
<g id="Node000005" class="node">
<title>Node5</title>
<g id="a_Node000005"><a xlink:title=" ">
<polygon fill="#e0e0e0" stroke="#999999" points="702,-195 604,-195 604,-176 702,-176 702,-195"/>
<text text-anchor="middle" x="653" y="-183" font-family="Helvetica,sans-Serif" font-size="10.00">AMReX_Vector.H</text>
</a>
</g>
</g>
<!-- Node3&#45;&gt;Node5 -->
<g id="edge4_Node000003_Node000005" class="edge">
<title>Node3&#45;&gt;Node5</title>
<g id="a_edge4_Node000003_Node000005"><a xlink:title=" ">
<path fill="none" stroke="#63b8ff" d="M655.56,-236.37C655.14,-228.25 654.5,-215.81 653.97,-205.39"/>
<polygon fill="#63b8ff" stroke="#63b8ff" points="657.45,-204.97 653.44,-195.17 650.46,-205.33 657.45,-204.97"/>
</a>
</g>
</g>
<!-- Node3&#45;&gt;Node6 -->
<g id="edge5_Node000003_Node000006" class="edge">
<title>Node3&#45;&gt;Node6</title>
<g id="a_edge5_Node000003_Node000006"><a xlink:title=" ">
<path fill="none" stroke="#63b8ff" d="M623.76,-236.42C589.1,-226.6 537.08,-209.95 523,-195 478.41,-147.65 468.67,-66.11 466.56,-29.39"/>
<polygon fill="#63b8ff" stroke="#63b8ff" points="470.05,-28.98 466.12,-19.14 463.06,-29.29 470.05,-28.98"/>
</a>
</g>
</g>
<!-- Node8 -->
<g id="Node000008" class="node">
<title>Node8</title>
<g id="a_Node000008"><a xlink:href="vector_8_h.html" target="_top" xlink:title=" ">
<polygon fill="white" stroke="#666666" points="223.5,-140 110.5,-140 110.5,-121 223.5,-121 223.5,-140"/>
<text text-anchor="middle" x="167" y="-128" font-family="Helvetica,sans-Serif" font-size="10.00">src/core/vs/vector.H</text>
</a>
</g>
</g>
<!-- Node7&#45;&gt;Node8 -->
<g id="edge7_Node000007_Node000008" class="edge">
<title>Node7&#45;&gt;Node8</title>
<g id="a_edge7_Node000007_Node000008"><a xlink:title=" ">
<path fill="none" stroke="#63b8ff" d="M283.42,-230.85C258.4,-209.5 211.15,-169.17 185.2,-147.03"/>
<polygon fill="#63b8ff" stroke="#63b8ff" points="187.16,-144.1 177.28,-140.27 182.61,-149.42 187.16,-144.1"/>
</a>
</g>
</g>
<!-- Node14 -->
<g id="Node000014" class="node">
<title>Node14</title>
<g id="a_Node000014"><a xlink:href="tensor_8_h.html" target="_top" xlink:title=" ">
<polygon fill="white" stroke="#666666" points="373.5,-195 260.5,-195 260.5,-176 373.5,-176 373.5,-195"/>
<text text-anchor="middle" x="317" y="-183" font-family="Helvetica,sans-Serif" font-size="10.00">src/core/vs/tensor.H</text>
</a>
</g>
</g>
<!-- Node7&#45;&gt;Node14 -->
<g id="edge15_Node000007_Node000014" class="edge">
<title>Node7&#45;&gt;Node14</title>
<g id="a_edge15_Node000007_Node000014"><a xlink:title=" ">
<path fill="none" stroke="#63b8ff" d="M304.12,-230.84C306.38,-223.04 309.22,-213.27 311.66,-204.89"/>
<polygon fill="#63b8ff" stroke="#63b8ff" points="315.02,-205.85 314.45,-195.27 308.3,-203.89 315.02,-205.85"/>
</a>
</g>
</g>
<!-- Node8&#45;&gt;Node6 -->
<g id="edge8_Node000008_Node000006" class="edge">
<title>Node8&#45;&gt;Node6</title>
<g id="a_edge8_Node000008_Node000006"><a xlink:title=" ">
<path fill="none" stroke="#63b8ff" d="M223.66,-123.83C285.15,-116.86 378.63,-103.61 409,-85 431.29,-71.34 448.03,-45.53 457.43,-28.17"/>
<polygon fill="#63b8ff" stroke="#63b8ff" points="460.64,-29.57 462.09,-19.08 454.41,-26.37 460.64,-29.57"/>
</a>
</g>
</g>
<!-- Node9 -->
<g id="Node000009" class="node">
<title>Node9</title>
<g id="a_Node000009"><a xlink:href="vstraits_8_h.html" target="_top" xlink:title=" ">
<polygon fill="white" stroke="#666666" points="253.5,-79.5 134.5,-79.5 134.5,-60.5 253.5,-60.5 253.5,-79.5"/>
<text text-anchor="middle" x="194" y="-67.5" font-family="Helvetica,sans-Serif" font-size="10.00">src/core/vs/vstraits.H</text>
</a>
</g>
</g>
<!-- Node8&#45;&gt;Node9 -->
<g id="edge9_Node000008_Node000009" class="edge">
<title>Node8&#45;&gt;Node9</title>
<g id="a_edge9_Node000008_Node000009"><a xlink:title=" ">
<path fill="none" stroke="#63b8ff" d="M170.98,-120.87C174.85,-112.49 180.84,-99.51 185.74,-88.89"/>
<polygon fill="#63b8ff" stroke="#63b8ff" points="188.99,-90.21 190,-79.67 182.63,-87.28 188.99,-90.21"/>
</a>
</g>
</g>
<!-- Node11 -->
<g id="Node000011" class="node">
<title>Node11</title>
<g id="a_Node000011"><a xlink:href="vector_i_8_h.html" target="_top" xlink:title=" ">
<polygon fill="white" stroke="#666666" points="116,-79.5 0,-79.5 0,-60.5 116,-60.5 116,-79.5"/>
<text text-anchor="middle" x="58" y="-67.5" font-family="Helvetica,sans-Serif" font-size="10.00">src/core/vs/vectorI.H</text>
</a>
</g>
</g>
<!-- Node8&#45;&gt;Node11 -->
<g id="edge11_Node000008_Node000011" class="edge">
<title>Node8&#45;&gt;Node11</title>
<g id="a_edge11_Node000008_Node000011"><a xlink:title=" ">
<path fill="none" stroke="#63b8ff" d="M146.22,-120.99C126.38,-111.46 97.04,-95.88 77.6,-84.64"/>
<polygon fill="#63b8ff" stroke="#63b8ff" points="79.33,-81.59 68.94,-79.52 75.77,-87.62 79.33,-81.59"/>
</a>
</g>
</g>
<!-- Node10 -->
<g id="Node000010" class="node">
<title>Node10</title>
<g id="a_Node000010"><a xlink:title=" ">
<polygon fill="#e0e0e0" stroke="#999999" points="216,-19 172,-19 172,0 216,0 216,-19"/>
<text text-anchor="middle" x="194" y="-7" font-family="Helvetica,sans-Serif" font-size="10.00">limits</text>
</a>
</g>
</g>
<!-- Node9&#45;&gt;Node10 -->
<g id="edge10_Node000009_Node000010" class="edge">
<title>Node9&#45;&gt;Node10</title>
<g id="a_edge10_Node000009_Node000010"><a xlink:title=" ">
<path fill="none" stroke="#63b8ff" d="M194,-60.37C194,-52.25 194,-39.81 194,-29.39"/>
<polygon fill="#63b8ff" stroke="#63b8ff" points="197.5,-29.17 194,-19.17 190.5,-29.17 197.5,-29.17"/>
</a>
</g>
</g>
<!-- Node11&#45;&gt;Node8 -->
<g id="edge14_Node000011_Node000008" class="edge">
<title>Node11&#45;&gt;Node8</title>
<g id="a_edge14_Node000011_Node000008"><a xlink:title=" ">
<path fill="none" stroke="#63b8ff" d="M79.11,-79.67C98.9,-89.19 127.91,-104.6 147.24,-115.77"/>
<polygon fill="#63b8ff" stroke="#63b8ff" points="145.48,-118.8 155.87,-120.87 149.04,-112.77 145.48,-118.8"/>
</a>
</g>
</g>
<!-- Node12 -->
<g id="Node000012" class="node">
<title>Node12</title>
<g id="a_Node000012"><a xlink:title=" ">
<polygon fill="#e0e0e0" stroke="#999999" points="86.5,-19 29.5,-19 29.5,0 86.5,0 86.5,-19"/>
<text text-anchor="middle" x="58" y="-7" font-family="Helvetica,sans-Serif" font-size="10.00">ostream</text>
</a>
</g>
</g>
<!-- Node11&#45;&gt;Node12 -->
<g id="edge12_Node000011_Node000012" class="edge">
<title>Node11&#45;&gt;Node12</title>
<g id="a_edge12_Node000011_Node000012"><a xlink:title=" ">
<path fill="none" stroke="#63b8ff" d="M58,-60.37C58,-52.25 58,-39.81 58,-29.39"/>
<polygon fill="#63b8ff" stroke="#63b8ff" points="61.5,-29.17 58,-19.17 54.5,-29.17 61.5,-29.17"/>
</a>
</g>
</g>
<!-- Node13 -->
<g id="Node000013" class="node">
<title>Node13</title>
<g id="a_Node000013"><a xlink:title=" ">
<polygon fill="#e0e0e0" stroke="#999999" points="305.5,-19 258.5,-19 258.5,0 305.5,0 305.5,-19"/>
<text text-anchor="middle" x="282" y="-7" font-family="Helvetica,sans-Serif" font-size="10.00">cmath</text>
</a>
</g>
</g>
<!-- Node11&#45;&gt;Node13 -->
<g id="edge13_Node000011_Node000013" class="edge">
<title>Node11&#45;&gt;Node13</title>
<g id="a_edge13_Node000011_Node000013"><a xlink:title=" ">
<path fill="none" stroke="#63b8ff" d="M90.57,-60.49C132.72,-49.49 205.79,-30.4 248.42,-19.27"/>
<polygon fill="#63b8ff" stroke="#63b8ff" points="249.52,-22.6 258.31,-16.69 247.75,-15.83 249.52,-22.6"/>
</a>
</g>
</g>
<!-- Node14&#45;&gt;Node6 -->
<g id="edge16_Node000014_Node000006" class="edge">
<title>Node14&#45;&gt;Node6</title>
<g id="a_edge16_Node000014_Node000006"><a xlink:title=" ">
<path fill="none" stroke="#63b8ff" d="M342.36,-175.97C361.27,-168.67 386.84,-156.67 405,-140 438.31,-109.42 455.08,-56.9 462,-29.07"/>
<polygon fill="#63b8ff" stroke="#63b8ff" points="465.46,-29.63 464.32,-19.09 458.65,-28.04 465.46,-29.63"/>
</a>
</g>
</g>
<!-- Node14&#45;&gt;Node8 -->
<g id="edge18_Node000014_Node000008" class="edge">
<title>Node14&#45;&gt;Node8</title>
<g id="a_edge18_Node000014_Node000008"><a xlink:title=" ">
<path fill="none" stroke="#63b8ff" d="M292.9,-175.98C268.12,-167.23 229.3,-153.51 201.31,-143.62"/>
<polygon fill="#63b8ff" stroke="#63b8ff" points="202.13,-140.2 191.54,-140.17 199.8,-146.8 202.13,-140.2"/>
</a>
</g>
</g>
<!-- Node14&#45;&gt;Node9 -->
<g id="edge17_Node000014_Node000009" class="edge">
<title>Node14&#45;&gt;Node9</title>
<g id="a_edge17_Node000014_Node000009"><a xlink:title=" ">
<path fill="none" stroke="#63b8ff" d="M307.76,-175.97C287.19,-156.99 237.38,-111.03 211.02,-86.71"/>
<polygon fill="#63b8ff" stroke="#63b8ff" points="213.08,-83.84 203.35,-79.63 208.33,-88.98 213.08,-83.84"/>
</a>
</g>
</g>
<!-- Node15 -->
<g id="Node000015" class="node">
<title>Node15</title>
<g id="a_Node000015"><a xlink:href="tensor_i_8_h.html" target="_top" xlink:title=" ">
<polygon fill="white" stroke="#666666" points="396,-140 280,-140 280,-121 396,-121 396,-140"/>
<text text-anchor="middle" x="338" y="-128" font-family="Helvetica,sans-Serif" font-size="10.00">src/core/vs/tensorI.H</text>
</a>
</g>
</g>
<!-- Node14&#45;&gt;Node15 -->
<g id="edge19_Node000014_Node000015" class="edge">
<title>Node14&#45;&gt;Node15</title>
<g id="a_edge19_Node000014_Node000015"><a xlink:title=" ">
<path fill="none" stroke="#63b8ff" d="M315.3,-175.75C316.62,-168.49 320.38,-157.95 324.68,-148.98"/>
<polygon fill="#63b8ff" stroke="#63b8ff" points="327.81,-150.55 329.47,-140.09 321.65,-147.24 327.81,-150.55"/>
</a>
</g>
</g>
<!-- Node15&#45;&gt;Node13 -->
<g id="edge20_Node000015_Node000013" class="edge">
<title>Node15&#45;&gt;Node13</title>
<g id="a_edge20_Node000015_Node000013"><a xlink:title=" ">
<path fill="none" stroke="#63b8ff" d="M328.73,-120.83C320.3,-112.43 308.12,-98.96 301,-85 291.92,-67.2 286.96,-44.75 284.41,-29.17"/>
<polygon fill="#63b8ff" stroke="#63b8ff" points="287.87,-28.59 282.95,-19.2 280.94,-29.6 287.87,-28.59"/>
</a>
</g>
</g>
<!-- Node15&#45;&gt;Node14 -->
<g id="edge21_Node000015_Node000014" class="edge">
<title>Node15&#45;&gt;Node14</title>
<g id="a_edge21_Node000015_Node000014"><a xlink:title=" ">
<path fill="none" stroke="#63b8ff" d="M339.73,-140.09C338.45,-147.29 334.7,-157.82 330.41,-166.82"/>
<polygon fill="#63b8ff" stroke="#63b8ff" points="327.27,-165.28 325.63,-175.75 333.44,-168.58 327.27,-165.28"/>
</a>
</g>
</g>
<!-- Node16 -->
<g id="Node000016" class="node">
<title>Node16</title>
<g id="a_Node000016"><a xlink:href="trig__ops_8_h.html" target="_top" xlink:title=" ">
<polygon fill="white" stroke="#666666" points="400,-85 310,-85 310,-55 400,-55 400,-85"/>
<text text-anchor="start" x="318" y="-73" font-family="Helvetica,sans-Serif" font-size="10.00">src/utilities/trig</text>
<text text-anchor="middle" x="355" y="-62" font-family="Helvetica,sans-Serif" font-size="10.00">_ops.H</text>
</a>
</g>
</g>
<!-- Node15&#45;&gt;Node16 -->
<g id="edge22_Node000015_Node000016" class="edge">
<title>Node15&#45;&gt;Node16</title>
<g id="a_edge22_Node000015_Node000016"><a xlink:title=" ">
<path fill="none" stroke="#63b8ff" d="M340.51,-120.87C342.49,-114.03 345.37,-104.14 348.04,-94.97"/>
<polygon fill="#63b8ff" stroke="#63b8ff" points="351.47,-95.69 350.9,-85.11 344.75,-93.74 351.47,-95.69"/>
</a>
</g>
</g>
<!-- Node16&#45;&gt;Node6 -->
<g id="edge26_Node000016_Node000006" class="edge">
<title>Node16&#45;&gt;Node6</title>
<g id="a_edge26_Node000016_Node000006"><a xlink:title=" ">
<path fill="none" stroke="#63b8ff" d="M381.59,-54.99C399.45,-45.58 422.84,-33.24 440.48,-23.95"/>
<polygon fill="#63b8ff" stroke="#63b8ff" points="442.39,-26.9 449.61,-19.14 439.13,-20.71 442.39,-26.9"/>
</a>
</g>
</g>
<!-- Node16&#45;&gt;Node13 -->
<g id="edge23_Node000016_Node000013" class="edge">
<title>Node16&#45;&gt;Node13</title>
<g id="a_edge23_Node000016_Node000013"><a xlink:title=" ">
<path fill="none" stroke="#63b8ff" d="M337.33,-54.84C326.3,-46 312.11,-34.63 300.87,-25.62"/>
<polygon fill="#63b8ff" stroke="#63b8ff" points="302.93,-22.79 292.94,-19.27 298.55,-28.25 302.93,-22.79"/>
</a>
</g>
</g>
<!-- Node17 -->
<g id="Node000017" class="node">
<title>Node17</title>
<g id="a_Node000017"><a xlink:title=" ">
<polygon fill="#e0e0e0" stroke="#999999" points="384.5,-19 325.5,-19 325.5,0 384.5,0 384.5,-19"/>
<text text-anchor="middle" x="355" y="-7" font-family="Helvetica,sans-Serif" font-size="10.00">numbers</text>
</a>
</g>
</g>
<!-- Node16&#45;&gt;Node17 -->
<g id="edge24_Node000016_Node000017" class="edge">
<title>Node16&#45;&gt;Node17</title>
<g id="a_edge24_Node000016_Node000017"><a xlink:title=" ">
<path fill="none" stroke="#63b8ff" d="M355,-54.84C355,-47.21 355,-37.7 355,-29.45"/>
<polygon fill="#63b8ff" stroke="#63b8ff" points="358.5,-29.27 355,-19.27 351.5,-29.27 358.5,-29.27"/>
</a>
</g>
</g>
<!-- Node16&#45;&gt;Node18 -->
<g id="edge25_Node000016_Node000018" class="edge">
<title>Node16&#45;&gt;Node18</title>
<g id="a_edge25_Node000016_Node000018"><a xlink:title=" ">
<path fill="none" stroke="#63b8ff" d="M400.38,-62.57C476.42,-51.8 629.33,-30.14 711.95,-18.44"/>
<polygon fill="#63b8ff" stroke="#63b8ff" points="712.5,-21.9 721.91,-17.03 711.52,-14.96 712.5,-21.9"/>
</a>
</g>
</g>
</g>
</svg>

<g id="navigator" transform="translate(0 0)" fill="#404254">
  <rect fill="#f2f5e9" fill-opacity="0.5" stroke="#606060" stroke-width=".5" x="0" y="0" width="60" height="60"/>
  <use id="zoomplus" xlink:href="#zoomPlus" x="17" y="9" onmousedown="handleZoom(evt,'in')"/>
  <use id="zoomminus" xlink:href="#zoomMin" x="42" y="9" onmousedown="handleZoom(evt,'out')"/>
  <use id="reset" xlink:href="#resetDef" x="30" y="36" onmousedown="handleReset()"/>
   <use id="arrowup" xlink:href="#arrowUp" x="0" y="0" onmousedown="handlePan(0,-1)"/>
  <use id="arrowright" xlink:href="#arrowRight" x="0" y="0" onmousedown="handlePan(1,0)"/>
  <use id="arrowdown" xlink:href="#arrowDown" x="0" y="0" onmousedown="handlePan(0,1)"/>
  <use id="arrowleft" xlink:href="#arrowLeft" x="0" y="0" onmousedown="handlePan(-1,0)"/>
</g>
<svg viewBox="0 0 15 15" width="100%" height="30px" preserveAspectRatio="xMaxYMin meet">
 <g id="arrow_out" transform="scale(0.3 0.3)">
  <a xlink:href="_actuator_wing_8_h__incl_org.svg" target="_base">
   <rect id="button" ry="5" rx="5" y="6" x="6" height="38" width="38"
        fill="#f2f5e9" fill-opacity="0.5" stroke="#606060" stroke-width="1.0"/>
   <path id="arrow"
     d="M 11.500037,31.436501 C 11.940474,20.09759 22.043105,11.32322 32.158766,21.979434 L 37.068811,17.246167 C 37.068811,17.246167 37.088388,32 37.088388,32 L 22.160133,31.978069 C 22.160133,31.978069 26.997745,27.140456 26.997745,27.140456 C 18.528582,18.264221 13.291696,25.230495 11.500037,31.436501 z"
     style="fill:#404040;"/>
  </a>
 </g>
</svg>

<style type='text/css'>
<![CDATA[
[data-mouse-over-selected='false'] { opacity: 0.7; }
[data-mouse-over-selected='true']  { opacity: 1.0; }
]]>
</style>
<script type="application/ecmascript"><![CDATA[
document.addEventListener('DOMContentLoaded', (event) => {
  highlightEdges();
  highlightAdjacentNodes();
});
]]></script>
</svg>
