<?xml version="1.0" encoding="UTF-8" standalone="no"?>
<!DOCTYPE svg PUBLIC "-//W3C//DTD SVG 1.1//EN"
 "http://www.w3.org/Graphics/SVG/1.1/DTD/svg11.dtd">
<!-- Generated by graphviz version 2.43.0 (0)
 -->
<!-- Title: /home/runner/work/amr&#45;wind/amr&#45;wind/src/equation_systems/AdvOp_MOL.H Pages: 1 -->
<svg width="1667pt" height="214pt"
 viewBox="0.00 0.00 1667.00 214.00" xmlns="http://www.w3.org/2000/svg" xmlns:xlink="http://www.w3.org/1999/xlink">
<g id="graph0" class="graph" transform="scale(1 1) rotate(0) translate(4 210)">
<title>/home/runner/work/amr&#45;wind/amr&#45;wind/src/equation_systems/AdvOp_MOL.H</title>
<!-- Node1 -->
<g id="Node000001" class="node">
<title>Node1</title>
<g id="a_Node000001"><a xlink:title=" ">
<polygon fill="#999999" stroke="#666666" points="895,-206 739,-206 739,-165 895,-165 895,-206"/>
<text text-anchor="start" x="747" y="-194" font-family="Helvetica,sans-Serif" font-size="10.00">/home/runner/work/amr</text>
<text text-anchor="start" x="747" y="-183" font-family="Helvetica,sans-Serif" font-size="10.00">&#45;wind/amr&#45;wind/src/equation</text>
<text text-anchor="middle" x="817" y="-172" font-family="Helvetica,sans-Serif" font-size="10.00">_systems/AdvOp_MOL.H</text>
</a>
</g>
</g>
<!-- Node2 -->
<g id="Node000002" class="node">
<title>Node2</title>
<g id="a_Node000002"><a xlink:href="density_8cpp.html" target="_top" xlink:title=" ">
<polygon fill="white" stroke="#666666" points="160,-123.5 0,-123.5 0,-82.5 160,-82.5 160,-123.5"/>
<text text-anchor="start" x="8" y="-111.5" font-family="Helvetica,sans-Serif" font-size="10.00">/home/runner/work/amr</text>
<text text-anchor="start" x="8" y="-100.5" font-family="Helvetica,sans-Serif" font-size="10.00">&#45;wind/amr&#45;wind/src/equation</text>
<text text-anchor="middle" x="80" y="-89.5" font-family="Helvetica,sans-Serif" font-size="10.00">_systems/density/density.cpp</text>
</a>
</g>
</g>
<!-- Node1&#45;&gt;Node2 -->
<g id="edge1_Node000001_Node000002" class="edge">
<title>Node1&#45;&gt;Node2</title>
<g id="a_edge1_Node000001_Node000002"><a xlink:title=" ">
<path fill="none" stroke="#63b8ff" d="M728.25,-182.18C602.77,-177.71 366.74,-164.91 169,-129 160.95,-127.54 152.57,-125.67 144.32,-123.61"/>
<polygon fill="#63b8ff" stroke="#63b8ff" points="728.46,-185.69 738.57,-182.54 728.7,-178.7 728.46,-185.69"/>
</a>
</g>
</g>
<!-- Node3 -->
<g id="Node000003" class="node">
<title>Node3</title>
<g id="a_Node000003"><a xlink:href="icns__advection_8_h.html" target="_top" xlink:title=" ">
<polygon fill="white" stroke="#666666" points="524,-123.5 352,-123.5 352,-82.5 524,-82.5 524,-123.5"/>
<text text-anchor="start" x="360" y="-111.5" font-family="Helvetica,sans-Serif" font-size="10.00">/home/runner/work/amr</text>
<text text-anchor="start" x="360" y="-100.5" font-family="Helvetica,sans-Serif" font-size="10.00">&#45;wind/amr&#45;wind/src/equation</text>
<text text-anchor="middle" x="438" y="-89.5" font-family="Helvetica,sans-Serif" font-size="10.00">_systems/icns/icns_advection.H</text>
</a>
</g>
</g>
<!-- Node1&#45;&gt;Node3 -->
<g id="edge2_Node000001_Node000003" class="edge">
<title>Node1&#45;&gt;Node3</title>
<g id="a_edge2_Node000001_Node000003"><a xlink:title=" ">
<path fill="none" stroke="#63b8ff" d="M729.06,-168.69C673.05,-158.26 599.05,-143.83 534,-129 526.53,-127.3 518.75,-125.43 511.01,-123.51"/>
<polygon fill="#63b8ff" stroke="#63b8ff" points="728.48,-172.14 738.95,-170.52 729.76,-165.26 728.48,-172.14"/>
</a>
</g>
</g>
<!-- Node6 -->
<g id="Node000006" class="node">
<title>Node6</title>
<g id="a_Node000006"><a xlink:href="icns__ops_8_h.html" target="_top" xlink:title=" ">
<polygon fill="white" stroke="#666666" points="334,-123.5 178,-123.5 178,-82.5 334,-82.5 334,-123.5"/>
<text text-anchor="start" x="186" y="-111.5" font-family="Helvetica,sans-Serif" font-size="10.00">/home/runner/work/amr</text>
<text text-anchor="start" x="186" y="-100.5" font-family="Helvetica,sans-Serif" font-size="10.00">&#45;wind/amr&#45;wind/src/equation</text>
<text text-anchor="middle" x="256" y="-89.5" font-family="Helvetica,sans-Serif" font-size="10.00">_systems/icns/icns_ops.H</text>
</a>
</g>
</g>
<!-- Node1&#45;&gt;Node6 -->
<g id="edge5_Node000001_Node000006" class="edge">
<title>Node1&#45;&gt;Node6</title>
<g id="a_edge5_Node000001_Node000006"><a xlink:title=" ">
<path fill="none" stroke="#63b8ff" d="M728.58,-178.48C632.86,-170.97 476.04,-155.72 343,-129 335.3,-127.45 327.28,-125.56 319.37,-123.51"/>
<polygon fill="#63b8ff" stroke="#63b8ff" points="728.56,-181.99 738.8,-179.28 729.1,-175.01 728.56,-181.99"/>
</a>
</g>
</g>
<!-- Node7 -->
<g id="Node000007" class="node">
<title>Node7</title>
<g id="a_Node000007"><a xlink:href="levelset_8cpp.html" target="_top" xlink:title=" ">
<polygon fill="white" stroke="#666666" points="709.5,-123.5 542.5,-123.5 542.5,-82.5 709.5,-82.5 709.5,-123.5"/>
<text text-anchor="start" x="550.5" y="-111.5" font-family="Helvetica,sans-Serif" font-size="10.00">/home/runner/work/amr</text>
<text text-anchor="start" x="550.5" y="-100.5" font-family="Helvetica,sans-Serif" font-size="10.00">&#45;wind/amr&#45;wind/src/equation</text>
<text text-anchor="middle" x="626" y="-89.5" font-family="Helvetica,sans-Serif" font-size="10.00">_systems/levelset/levelset.cpp</text>
</a>
</g>
</g>
<!-- Node1&#45;&gt;Node7 -->
<g id="edge7_Node000001_Node000007" class="edge">
<title>Node1&#45;&gt;Node7</title>
<g id="a_edge7_Node000001_Node000007"><a xlink:title=" ">
<path fill="none" stroke="#63b8ff" d="M760.98,-160.89C732.87,-149.04 699.24,-134.87 672.57,-123.63"/>
<polygon fill="#63b8ff" stroke="#63b8ff" points="759.7,-164.15 770.28,-164.81 762.42,-157.7 759.7,-164.15"/>
</a>
</g>
</g>
<!-- Node8 -->
<g id="Node000008" class="node">
<title>Node8</title>
<g id="a_Node000008"><a xlink:href="passive__scalar_8cpp.html" target="_top" xlink:title=" ">
<polygon fill="white" stroke="#666666" points="906.5,-129 727.5,-129 727.5,-77 906.5,-77 906.5,-129"/>
<text text-anchor="start" x="735.5" y="-117" font-family="Helvetica,sans-Serif" font-size="10.00">/home/runner/work/amr</text>
<text text-anchor="start" x="735.5" y="-106" font-family="Helvetica,sans-Serif" font-size="10.00">&#45;wind/amr&#45;wind/src/equation</text>
<text text-anchor="start" x="735.5" y="-95" font-family="Helvetica,sans-Serif" font-size="10.00">_systems/passive_scalar/passive</text>
<text text-anchor="middle" x="817" y="-84" font-family="Helvetica,sans-Serif" font-size="10.00">_scalar.cpp</text>
</a>
</g>
</g>
<!-- Node1&#45;&gt;Node8 -->
<g id="edge8_Node000001_Node000008" class="edge">
<title>Node1&#45;&gt;Node8</title>
<g id="a_edge8_Node000001_Node000008"><a xlink:title=" ">
<path fill="none" stroke="#63b8ff" d="M817,-154.49C817,-146.15 817,-137.19 817,-129.16"/>
<polygon fill="#63b8ff" stroke="#63b8ff" points="813.5,-154.6 817,-164.6 820.5,-154.6 813.5,-154.6"/>
</a>
</g>
</g>
<!-- Node9 -->
<g id="Node000009" class="node">
<title>Node9</title>
<g id="a_Node000009"><a xlink:href="_s_d_r_8cpp.html" target="_top" xlink:title=" ">
<polygon fill="white" stroke="#666666" points="1081,-123.5 925,-123.5 925,-82.5 1081,-82.5 1081,-123.5"/>
<text text-anchor="start" x="933" y="-111.5" font-family="Helvetica,sans-Serif" font-size="10.00">/home/runner/work/amr</text>
<text text-anchor="start" x="933" y="-100.5" font-family="Helvetica,sans-Serif" font-size="10.00">&#45;wind/amr&#45;wind/src/equation</text>
<text text-anchor="middle" x="1003" y="-89.5" font-family="Helvetica,sans-Serif" font-size="10.00">_systems/sdr/SDR.cpp</text>
</a>
</g>
</g>
<!-- Node1&#45;&gt;Node9 -->
<g id="edge9_Node000001_Node000009" class="edge">
<title>Node1&#45;&gt;Node9</title>
<g id="a_edge9_Node000001_Node000009"><a xlink:title=" ">
<path fill="none" stroke="#63b8ff" d="M871.91,-160.73C899.21,-148.92 931.79,-134.82 957.65,-123.63"/>
<polygon fill="#63b8ff" stroke="#63b8ff" points="870.29,-157.62 862.5,-164.81 873.07,-164.05 870.29,-157.62"/>
</a>
</g>
</g>
<!-- Node10 -->
<g id="Node000010" class="node">
<title>Node10</title>
<g id="a_Node000010"><a xlink:href="temperature_8cpp.html" target="_top" xlink:title=" ">
<polygon fill="white" stroke="#666666" points="1310.5,-123.5 1099.5,-123.5 1099.5,-82.5 1310.5,-82.5 1310.5,-123.5"/>
<text text-anchor="start" x="1107.5" y="-111.5" font-family="Helvetica,sans-Serif" font-size="10.00">/home/runner/work/amr</text>
<text text-anchor="start" x="1107.5" y="-100.5" font-family="Helvetica,sans-Serif" font-size="10.00">&#45;wind/amr&#45;wind/src/equation</text>
<text text-anchor="middle" x="1205" y="-89.5" font-family="Helvetica,sans-Serif" font-size="10.00">_systems/temperature/temperature.cpp</text>
</a>
</g>
</g>
<!-- Node1&#45;&gt;Node10 -->
<g id="edge10_Node000001_Node000010" class="edge">
<title>Node1&#45;&gt;Node10</title>
<g id="a_edge10_Node000001_Node000010"><a xlink:title=" ">
<path fill="none" stroke="#63b8ff" d="M904.82,-166.96C958.37,-156.19 1028.18,-142 1090,-129 1098.3,-127.25 1106.93,-125.42 1115.56,-123.57"/>
<polygon fill="#63b8ff" stroke="#63b8ff" points="904.13,-163.53 895.02,-168.93 905.51,-170.39 904.13,-163.53"/>
</a>
</g>
</g>
<!-- Node11 -->
<g id="Node000011" class="node">
<title>Node11</title>
<g id="a_Node000011"><a xlink:href="_t_k_e_8cpp.html" target="_top" xlink:title=" ">
<polygon fill="white" stroke="#666666" points="1485,-123.5 1329,-123.5 1329,-82.5 1485,-82.5 1485,-123.5"/>
<text text-anchor="start" x="1337" y="-111.5" font-family="Helvetica,sans-Serif" font-size="10.00">/home/runner/work/amr</text>
<text text-anchor="start" x="1337" y="-100.5" font-family="Helvetica,sans-Serif" font-size="10.00">&#45;wind/amr&#45;wind/src/equation</text>
<text text-anchor="middle" x="1407" y="-89.5" font-family="Helvetica,sans-Serif" font-size="10.00">_systems/tke/TKE.cpp</text>
</a>
</g>
</g>
<!-- Node1&#45;&gt;Node11 -->
<g id="edge11_Node000001_Node000011" class="edge">
<title>Node1&#45;&gt;Node11</title>
<g id="a_edge11_Node000001_Node000011"><a xlink:title=" ">
<path fill="none" stroke="#63b8ff" d="M905.33,-179.31C1006.33,-172.33 1176.25,-157.37 1320,-129 1327.71,-127.48 1335.73,-125.6 1343.64,-123.56"/>
<polygon fill="#63b8ff" stroke="#63b8ff" points="904.92,-175.83 895.18,-180 905.39,-182.82 904.92,-175.83"/>
</a>
</g>
</g>
<!-- Node12 -->
<g id="Node000012" class="node">
<title>Node12</title>
<g id="a_Node000012"><a xlink:href="vof_8cpp.html" target="_top" xlink:title=" ">
<polygon fill="white" stroke="#666666" points="1659,-123.5 1503,-123.5 1503,-82.5 1659,-82.5 1659,-123.5"/>
<text text-anchor="start" x="1511" y="-111.5" font-family="Helvetica,sans-Serif" font-size="10.00">/home/runner/work/amr</text>
<text text-anchor="start" x="1511" y="-100.5" font-family="Helvetica,sans-Serif" font-size="10.00">&#45;wind/amr&#45;wind/src/equation</text>
<text text-anchor="middle" x="1581" y="-89.5" font-family="Helvetica,sans-Serif" font-size="10.00">_systems/vof/vof.cpp</text>
</a>
</g>
</g>
<!-- Node1&#45;&gt;Node12 -->
<g id="edge12_Node000001_Node000012" class="edge">
<title>Node1&#45;&gt;Node12</title>
<g id="a_edge12_Node000001_Node000012"><a xlink:title=" ">
<path fill="none" stroke="#63b8ff" d="M905.36,-182.82C1035.32,-179.1 1285.19,-167.17 1494,-129 1502.04,-127.53 1510.4,-125.63 1518.62,-123.53"/>
<polygon fill="#63b8ff" stroke="#63b8ff" points="904.97,-179.33 895.07,-183.11 905.16,-186.33 904.97,-179.33"/>
</a>
</g>
</g>
<!-- Node4 -->
<g id="Node000004" class="node">
<title>Node4</title>
<g id="a_Node000004"><a xlink:href="icns_8cpp.html" target="_top" xlink:title=" ">
<polygon fill="white" stroke="#666666" points="334,-41 178,-41 178,0 334,0 334,-41"/>
<text text-anchor="start" x="186" y="-29" font-family="Helvetica,sans-Serif" font-size="10.00">/home/runner/work/amr</text>
<text text-anchor="start" x="186" y="-18" font-family="Helvetica,sans-Serif" font-size="10.00">&#45;wind/amr&#45;wind/src/equation</text>
<text text-anchor="middle" x="256" y="-7" font-family="Helvetica,sans-Serif" font-size="10.00">_systems/icns/icns.cpp</text>
</a>
</g>
</g>
<!-- Node3&#45;&gt;Node4 -->
<g id="edge3_Node000003_Node000004" class="edge">
<title>Node3&#45;&gt;Node4</title>
<g id="a_edge3_Node000003_Node000004"><a xlink:title=" ">
<path fill="none" stroke="#63b8ff" d="M384.27,-78.23C357.56,-66.42 325.68,-52.32 300.38,-41.13"/>
<polygon fill="#63b8ff" stroke="#63b8ff" points="382.92,-81.46 393.48,-82.31 385.75,-75.06 382.92,-81.46"/>
</a>
</g>
</g>
<!-- Node5 -->
<g id="Node000005" class="node">
<title>Node5</title>
<g id="a_Node000005"><a xlink:href="icns__advection_8cpp.html" target="_top" xlink:title=" ">
<polygon fill="white" stroke="#666666" points="534,-41 352,-41 352,0 534,0 534,-41"/>
<text text-anchor="start" x="360" y="-29" font-family="Helvetica,sans-Serif" font-size="10.00">/home/runner/work/amr</text>
<text text-anchor="start" x="360" y="-18" font-family="Helvetica,sans-Serif" font-size="10.00">&#45;wind/amr&#45;wind/src/equation</text>
<text text-anchor="middle" x="443" y="-7" font-family="Helvetica,sans-Serif" font-size="10.00">_systems/icns/icns_advection.cpp</text>
</a>
</g>
</g>
<!-- Node3&#45;&gt;Node5 -->
<g id="edge4_Node000003_Node000005" class="edge">
<title>Node3&#45;&gt;Node5</title>
<g id="a_edge4_Node000003_Node000005"><a xlink:title=" ">
<path fill="none" stroke="#63b8ff" d="M439.87,-71.87C440.51,-61.6 441.21,-50.4 441.78,-41.17"/>
<polygon fill="#63b8ff" stroke="#63b8ff" points="436.36,-71.9 439.24,-82.1 443.35,-72.34 436.36,-71.9"/>
</a>
</g>
</g>
<!-- Node6&#45;&gt;Node4 -->
<g id="edge6_Node000006_Node000004" class="edge">
<title>Node6&#45;&gt;Node4</title>
<g id="a_edge6_Node000006_Node000004"><a xlink:title=" ">
<path fill="none" stroke="#63b8ff" d="M256,-71.87C256,-61.6 256,-50.4 256,-41.17"/>
<polygon fill="#63b8ff" stroke="#63b8ff" points="252.5,-72.1 256,-82.1 259.5,-72.1 252.5,-72.1"/>
</a>
</g>
</g>
</g>
</svg>
