<?xml version="1.0" encoding="UTF-8" standalone="no"?>
<!DOCTYPE svg PUBLIC "-//W3C//DTD SVG 1.1//EN"
 "http://www.w3.org/Graphics/SVG/1.1/DTD/svg11.dtd">
<!-- Generated by graphviz version 2.43.0 (0)
 -->
<!-- Title: /home/runner/work/amr&#45;wind/amr&#45;wind/src/wind_energy/actuator/aero/AirfoilTable.H Pages: 1 -->
<svg width="1248pt" height="412pt"
 viewBox="0.00 0.00 1248.00 412.00" xmlns="http://www.w3.org/2000/svg" xmlns:xlink="http://www.w3.org/1999/xlink">
<g id="graph0" class="graph" transform="scale(1 1) rotate(0) translate(4 408)">
<title>/home/runner/work/amr&#45;wind/amr&#45;wind/src/wind_energy/actuator/aero/AirfoilTable.H</title>
<!-- Node1 -->
<g id="Node000001" class="node">
<title>Node1</title>
<g id="a_Node000001"><a xlink:title=" ">
<polygon fill="#999999" stroke="#666666" points="1113,-404 921,-404 921,-363 1113,-363 1113,-404"/>
<text text-anchor="start" x="929" y="-392" font-family="Helvetica,sans-Serif" font-size="10.00">/home/runner/work/amr</text>
<text text-anchor="start" x="929" y="-381" font-family="Helvetica,sans-Serif" font-size="10.00">&#45;wind/amr&#45;wind/src/wind</text>
<text text-anchor="middle" x="1017" y="-370" font-family="Helvetica,sans-Serif" font-size="10.00">_energy/actuator/aero/AirfoilTable.H</text>
</a>
</g>
</g>
<!-- Node2 -->
<g id="Node000002" class="node">
<title>Node2</title>
<g id="a_Node000002"><a xlink:href="actuator__types_8_h.html" target="_top" xlink:title=" ">
<polygon fill="white" stroke="#666666" points="810,-327 670,-327 670,-297 810,-297 810,-327"/>
<text text-anchor="start" x="678" y="-315" font-family="Helvetica,sans-Serif" font-size="10.00">src/wind_energy/actuator</text>
<text text-anchor="middle" x="740" y="-304" font-family="Helvetica,sans-Serif" font-size="10.00">/actuator_types.H</text>
</a>
</g>
</g>
<!-- Node1&#45;&gt;Node2 -->
<g id="edge1_Node000001_Node000002" class="edge">
<title>Node1&#45;&gt;Node2</title>
<g id="a_edge1_Node000001_Node000002"><a xlink:title=" ">
<path fill="none" stroke="#63b8ff" d="M939.1,-362.96C897.06,-352.41 845.74,-339.53 805.73,-329.49"/>
<polygon fill="#63b8ff" stroke="#63b8ff" points="806.37,-326.04 795.81,-327 804.66,-332.83 806.37,-326.04"/>
</a>
</g>
</g>
<!-- Node18 -->
<g id="Node000018" class="node">
<title>Node18</title>
<g id="a_Node000018"><a xlink:title=" ">
<polygon fill="#e0e0e0" stroke="#999999" points="938,-19 846,-19 846,0 938,0 938,-19"/>
<text text-anchor="middle" x="892" y="-7" font-family="Helvetica,sans-Serif" font-size="10.00">AMReX_REAL.H</text>
</a>
</g>
</g>
<!-- Node1&#45;&gt;Node18 -->
<g id="edge34_Node000001_Node000018" class="edge">
<title>Node1&#45;&gt;Node18</title>
<g id="a_edge34_Node000001_Node000018"><a xlink:title=" ">
<path fill="none" stroke="#63b8ff" d="M984.56,-362.8C971.71,-353.45 957.9,-341.2 949,-327 929.6,-296.03 930,-283.54 930,-247 930,-247 930,-247 930,-129.5 930,-92.07 912.73,-51.03 901.48,-28.25"/>
<polygon fill="#63b8ff" stroke="#63b8ff" points="904.49,-26.46 896.81,-19.15 898.26,-29.65 904.49,-26.46"/>
</a>
</g>
</g>
<!-- Node22 -->
<g id="Node000022" class="node">
<title>Node22</title>
<g id="a_Node000022"><a xlink:title=" ">
<polygon fill="#e0e0e0" stroke="#999999" points="1006,-321.5 958,-321.5 958,-302.5 1006,-302.5 1006,-321.5"/>
<text text-anchor="middle" x="982" y="-309.5" font-family="Helvetica,sans-Serif" font-size="10.00">iosfwd</text>
</a>
</g>
</g>
<!-- Node1&#45;&gt;Node22 -->
<g id="edge32_Node000001_Node000022" class="edge">
<title>Node1&#45;&gt;Node22</title>
<g id="a_edge32_Node000001_Node000022"><a xlink:title=" ">
<path fill="none" stroke="#63b8ff" d="M1007.06,-362.77C1002.02,-352.76 995.95,-340.7 991.04,-330.95"/>
<polygon fill="#63b8ff" stroke="#63b8ff" points="994.07,-329.18 986.44,-321.82 987.81,-332.33 994.07,-329.18"/>
</a>
</g>
</g>
<!-- Node23 -->
<g id="Node000023" class="node">
<title>Node23</title>
<g id="a_Node000023"><a xlink:title=" ">
<polygon fill="#e0e0e0" stroke="#999999" points="1082,-321.5 1024,-321.5 1024,-302.5 1082,-302.5 1082,-321.5"/>
<text text-anchor="middle" x="1053" y="-309.5" font-family="Helvetica,sans-Serif" font-size="10.00">memory</text>
</a>
</g>
</g>
<!-- Node1&#45;&gt;Node23 -->
<g id="edge33_Node000001_Node000023" class="edge">
<title>Node1&#45;&gt;Node23</title>
<g id="a_edge33_Node000001_Node000023"><a xlink:title=" ">
<path fill="none" stroke="#63b8ff" d="M1027.22,-362.77C1032.4,-352.76 1038.65,-340.7 1043.7,-330.95"/>
<polygon fill="#63b8ff" stroke="#63b8ff" points="1046.94,-332.31 1048.43,-321.82 1040.72,-329.09 1046.94,-332.31"/>
</a>
</g>
</g>
<!-- Node24 -->
<g id="Node000024" class="node">
<title>Node24</title>
<g id="a_Node000024"><a xlink:href="_airfoil_table_i_8_h.html" target="_top" xlink:title=" ">
<polygon fill="white" stroke="#666666" points="1240,-327 1100,-327 1100,-297 1240,-297 1240,-327"/>
<text text-anchor="start" x="1108" y="-315" font-family="Helvetica,sans-Serif" font-size="10.00">src/wind_energy/actuator</text>
<text text-anchor="middle" x="1170" y="-304" font-family="Helvetica,sans-Serif" font-size="10.00">/aero/AirfoilTableI.H</text>
</a>
</g>
</g>
<!-- Node1&#45;&gt;Node24 -->
<g id="edge35_Node000001_Node000024" class="edge">
<title>Node1&#45;&gt;Node24</title>
<g id="a_edge35_Node000001_Node000024"><a xlink:title=" ">
<path fill="none" stroke="#63b8ff" d="M1053.89,-362.96C1075.07,-352.94 1101.78,-340.83 1124.27,-331.04"/>
<polygon fill="#63b8ff" stroke="#63b8ff" points="1125.84,-334.18 1133.63,-327 1123.06,-327.76 1125.84,-334.18"/>
</a>
</g>
</g>
<!-- Node3 -->
<g id="Node000003" class="node">
<title>Node3</title>
<g id="a_Node000003"><a xlink:href="_slice_8_h.html" target="_top" xlink:title=" ">
<polygon fill="white" stroke="#666666" points="624,-255.5 532,-255.5 532,-236.5 624,-236.5 624,-255.5"/>
<text text-anchor="middle" x="578" y="-243.5" font-family="Helvetica,sans-Serif" font-size="10.00">src/core/Slice.H</text>
</a>
</g>
</g>
<!-- Node2&#45;&gt;Node3 -->
<g id="edge2_Node000002_Node000003" class="edge">
<title>Node2&#45;&gt;Node3</title>
<g id="a_edge2_Node000002_Node000003"><a xlink:title=" ">
<path fill="none" stroke="#63b8ff" d="M704.45,-296.95C675.91,-285.68 636.25,-270.01 609,-259.25"/>
<polygon fill="#63b8ff" stroke="#63b8ff" points="610.15,-255.94 599.56,-255.52 607.57,-262.45 610.15,-255.94"/>
</a>
</g>
</g>
<!-- Node6 -->
<g id="Node000006" class="node">
<title>Node6</title>
<g id="a_Node000006"><a xlink:title=" ">
<polygon fill="#e0e0e0" stroke="#999999" points="518.5,-19 431.5,-19 431.5,0 518.5,0 518.5,-19"/>
<text text-anchor="middle" x="475" y="-7" font-family="Helvetica,sans-Serif" font-size="10.00">AMReX_Gpu.H</text>
</a>
</g>
</g>
<!-- Node2&#45;&gt;Node6 -->
<g id="edge27_Node000002_Node000006" class="edge">
<title>Node2&#45;&gt;Node6</title>
<g id="a_edge27_Node000002_Node000006"><a xlink:title=" ">
<path fill="none" stroke="#63b8ff" d="M669.86,-302.8C614.68,-294.95 543.74,-281.26 523,-261 498.56,-237.12 504,-220.67 504,-186.5 504,-186.5 504,-186.5 504,-129.5 504,-92.97 490.94,-51.88 482.35,-28.8"/>
<polygon fill="#63b8ff" stroke="#63b8ff" points="485.54,-27.35 478.67,-19.28 479.01,-29.87 485.54,-27.35"/>
</a>
</g>
</g>
<!-- Node7 -->
<g id="Node000007" class="node">
<title>Node7</title>
<g id="a_Node000007"><a xlink:href="vector__space_8_h.html" target="_top" xlink:title=" ">
<polygon fill="white" stroke="#666666" points="416.5,-261 313.5,-261 313.5,-231 416.5,-231 416.5,-261"/>
<text text-anchor="start" x="321.5" y="-249" font-family="Helvetica,sans-Serif" font-size="10.00">src/core/vs/vector</text>
<text text-anchor="middle" x="365" y="-238" font-family="Helvetica,sans-Serif" font-size="10.00">_space.H</text>
</a>
</g>
</g>
<!-- Node2&#45;&gt;Node7 -->
<g id="edge6_Node000002_Node000007" class="edge">
<title>Node2&#45;&gt;Node7</title>
<g id="a_edge6_Node000002_Node000007"><a xlink:title=" ">
<path fill="none" stroke="#63b8ff" d="M669.91,-299.04C599.94,-287.1 493.47,-268.93 426.64,-257.52"/>
<polygon fill="#63b8ff" stroke="#63b8ff" points="427.12,-254.05 416.67,-255.82 425.94,-260.95 427.12,-254.05"/>
</a>
</g>
</g>
<!-- Node2&#45;&gt;Node18 -->
<g id="edge31_Node000002_Node000018" class="edge">
<title>Node2&#45;&gt;Node18</title>
<g id="a_edge31_Node000002_Node000018"><a xlink:title=" ">
<path fill="none" stroke="#63b8ff" d="M810.33,-298.17C833.12,-290.79 856.71,-279.19 873,-261 895.8,-235.55 892,-220.67 892,-186.5 892,-186.5 892,-186.5 892,-129.5 892,-94.15 892,-52.9 892,-29.42"/>
<polygon fill="#63b8ff" stroke="#63b8ff" points="895.5,-29.16 892,-19.16 888.5,-29.16 895.5,-29.16"/>
</a>
</g>
</g>
<!-- Node19 -->
<g id="Node000019" class="node">
<title>Node19</title>
<g id="a_Node000019"><a xlink:title=" ">
<polygon fill="#e0e0e0" stroke="#999999" points="750,-255.5 642,-255.5 642,-236.5 750,-236.5 750,-255.5"/>
<text text-anchor="middle" x="696" y="-243.5" font-family="Helvetica,sans-Serif" font-size="10.00">AMReX_RealBox.H</text>
</a>
</g>
</g>
<!-- Node2&#45;&gt;Node19 -->
<g id="edge28_Node000002_Node000019" class="edge">
<title>Node2&#45;&gt;Node19</title>
<g id="a_edge28_Node000002_Node000019"><a xlink:title=" ">
<path fill="none" stroke="#63b8ff" d="M730.23,-296.8C723.64,-287.21 714.91,-274.5 707.91,-264.32"/>
<polygon fill="#63b8ff" stroke="#63b8ff" points="710.63,-262.1 702.08,-255.84 704.86,-266.07 710.63,-262.1"/>
</a>
</g>
</g>
<!-- Node20 -->
<g id="Node000020" class="node">
<title>Node20</title>
<g id="a_Node000020"><a xlink:title=" ">
<polygon fill="#e0e0e0" stroke="#999999" points="800,-255.5 768,-255.5 768,-236.5 800,-236.5 800,-255.5"/>
<text text-anchor="middle" x="784" y="-243.5" font-family="Helvetica,sans-Serif" font-size="10.00">set</text>
</a>
</g>
</g>
<!-- Node2&#45;&gt;Node20 -->
<g id="edge29_Node000002_Node000020" class="edge">
<title>Node2&#45;&gt;Node20</title>
<g id="a_edge29_Node000002_Node000020"><a xlink:title=" ">
<path fill="none" stroke="#63b8ff" d="M749.77,-296.8C756.36,-287.21 765.09,-274.5 772.09,-264.32"/>
<polygon fill="#63b8ff" stroke="#63b8ff" points="775.14,-266.07 777.92,-255.84 769.37,-262.1 775.14,-266.07"/>
</a>
</g>
</g>
<!-- Node21 -->
<g id="Node000021" class="node">
<title>Node21</title>
<g id="a_Node000021"><a xlink:title=" ">
<polygon fill="#e0e0e0" stroke="#999999" points="863.5,-255.5 818.5,-255.5 818.5,-236.5 863.5,-236.5 863.5,-255.5"/>
<text text-anchor="middle" x="841" y="-243.5" font-family="Helvetica,sans-Serif" font-size="10.00">utility</text>
</a>
</g>
</g>
<!-- Node2&#45;&gt;Node21 -->
<g id="edge30_Node000002_Node000021" class="edge">
<title>Node2&#45;&gt;Node21</title>
<g id="a_edge30_Node000002_Node000021"><a xlink:title=" ">
<path fill="none" stroke="#63b8ff" d="M762.42,-296.8C779.19,-286.17 802.01,-271.7 818.75,-261.1"/>
<polygon fill="#63b8ff" stroke="#63b8ff" points="820.76,-263.97 827.34,-255.66 817.02,-258.05 820.76,-263.97"/>
</a>
</g>
</g>
<!-- Node4 -->
<g id="Node000004" class="node">
<title>Node4</title>
<g id="a_Node000004"><a xlink:title=" ">
<polygon fill="#e0e0e0" stroke="#999999" points="623.5,-195 570.5,-195 570.5,-176 623.5,-176 623.5,-195"/>
<text text-anchor="middle" x="597" y="-183" font-family="Helvetica,sans-Serif" font-size="10.00">iterator</text>
</a>
</g>
</g>
<!-- Node3&#45;&gt;Node4 -->
<g id="edge3_Node000003_Node000004" class="edge">
<title>Node3&#45;&gt;Node4</title>
<g id="a_edge3_Node000003_Node000004"><a xlink:title=" ">
<path fill="none" stroke="#63b8ff" d="M580.8,-236.37C583.5,-228.07 587.65,-215.28 591.08,-204.72"/>
<polygon fill="#63b8ff" stroke="#63b8ff" points="594.42,-205.76 594.18,-195.17 587.77,-203.6 594.42,-205.76"/>
</a>
</g>
</g>
<!-- Node5 -->
<g id="Node000005" class="node">
<title>Node5</title>
<g id="a_Node000005"><a xlink:title=" ">
<polygon fill="#e0e0e0" stroke="#999999" points="740,-195 642,-195 642,-176 740,-176 740,-195"/>
<text text-anchor="middle" x="691" y="-183" font-family="Helvetica,sans-Serif" font-size="10.00">AMReX_Vector.H</text>
</a>
</g>
</g>
<!-- Node3&#45;&gt;Node5 -->
<g id="edge4_Node000003_Node000005" class="edge">
<title>Node3&#45;&gt;Node5</title>
<g id="a_edge4_Node000003_Node000005"><a xlink:title=" ">
<path fill="none" stroke="#63b8ff" d="M594.67,-236.37C613.28,-226.73 643.62,-211.03 665.28,-199.81"/>
<polygon fill="#63b8ff" stroke="#63b8ff" points="666.99,-202.87 674.26,-195.17 663.77,-196.66 666.99,-202.87"/>
</a>
</g>
</g>
<!-- Node3&#45;&gt;Node6 -->
<g id="edge5_Node000003_Node000006" class="edge">
<title>Node3&#45;&gt;Node6</title>
<g id="a_edge5_Node000003_Node000006"><a xlink:title=" ">
<path fill="none" stroke="#63b8ff" d="M574.91,-236.18C571.44,-226.21 565.68,-209.48 561,-195 540.97,-133.07 551.08,-111.06 518,-55 511.63,-44.2 502.13,-34 493.68,-26.1"/>
<polygon fill="#63b8ff" stroke="#63b8ff" points="495.83,-23.32 486.03,-19.28 491.17,-28.55 495.83,-23.32"/>
</a>
</g>
</g>
<!-- Node8 -->
<g id="Node000008" class="node">
<title>Node8</title>
<g id="a_Node000008"><a xlink:href="vector_8_h.html" target="_top" xlink:title=" ">
<polygon fill="white" stroke="#666666" points="250.5,-140 137.5,-140 137.5,-121 250.5,-121 250.5,-140"/>
<text text-anchor="middle" x="194" y="-128" font-family="Helvetica,sans-Serif" font-size="10.00">src/core/vs/vector.H</text>
</a>
</g>
</g>
<!-- Node7&#45;&gt;Node8 -->
<g id="edge7_Node000007_Node000008" class="edge">
<title>Node7&#45;&gt;Node8</title>
<g id="a_edge7_Node000007_Node000008"><a xlink:title=" ">
<path fill="none" stroke="#63b8ff" d="M343.69,-230.85C310.95,-209.13 248.64,-167.77 215.68,-145.89"/>
<polygon fill="#63b8ff" stroke="#63b8ff" points="217.48,-142.88 207.21,-140.27 213.61,-148.72 217.48,-142.88"/>
</a>
</g>
</g>
<!-- Node14 -->
<g id="Node000014" class="node">
<title>Node14</title>
<g id="a_Node000014"><a xlink:href="tensor_8_h.html" target="_top" xlink:title=" ">
<polygon fill="white" stroke="#666666" points="421.5,-195 308.5,-195 308.5,-176 421.5,-176 421.5,-195"/>
<text text-anchor="middle" x="365" y="-183" font-family="Helvetica,sans-Serif" font-size="10.00">src/core/vs/tensor.H</text>
</a>
</g>
</g>
<!-- Node7&#45;&gt;Node14 -->
<g id="edge15_Node000007_Node000014" class="edge">
<title>Node7&#45;&gt;Node14</title>
<g id="a_edge15_Node000007_Node000014"><a xlink:title=" ">
<path fill="none" stroke="#63b8ff" d="M365,-230.84C365,-223.21 365,-213.7 365,-205.45"/>
<polygon fill="#63b8ff" stroke="#63b8ff" points="368.5,-205.27 365,-195.27 361.5,-205.27 368.5,-205.27"/>
</a>
</g>
</g>
<!-- Node8&#45;&gt;Node6 -->
<g id="edge8_Node000008_Node000006" class="edge">
<title>Node8&#45;&gt;Node6</title>
<g id="a_edge8_Node000008_Node000006"><a xlink:title=" ">
<path fill="none" stroke="#63b8ff" d="M208.86,-120.86C234.72,-106.07 289.9,-75.5 339,-55 370.44,-41.87 407.23,-30.04 434.61,-21.88"/>
<polygon fill="#63b8ff" stroke="#63b8ff" points="435.64,-25.23 444.25,-19.05 433.67,-18.51 435.64,-25.23"/>
</a>
</g>
</g>
<!-- Node9 -->
<g id="Node000009" class="node">
<title>Node9</title>
<g id="a_Node000009"><a xlink:href="vstraits_8_h.html" target="_top" xlink:title=" ">
<polygon fill="white" stroke="#666666" points="253.5,-79.5 134.5,-79.5 134.5,-60.5 253.5,-60.5 253.5,-79.5"/>
<text text-anchor="middle" x="194" y="-67.5" font-family="Helvetica,sans-Serif" font-size="10.00">src/core/vs/vstraits.H</text>
</a>
</g>
</g>
<!-- Node8&#45;&gt;Node9 -->
<g id="edge9_Node000008_Node000009" class="edge">
<title>Node8&#45;&gt;Node9</title>
<g id="a_edge9_Node000008_Node000009"><a xlink:title=" ">
<path fill="none" stroke="#63b8ff" d="M194,-120.87C194,-112.75 194,-100.31 194,-89.89"/>
<polygon fill="#63b8ff" stroke="#63b8ff" points="197.5,-89.67 194,-79.67 190.5,-89.67 197.5,-89.67"/>
</a>
</g>
</g>
<!-- Node11 -->
<g id="Node000011" class="node">
<title>Node11</title>
<g id="a_Node000011"><a xlink:href="vector_i_8_h.html" target="_top" xlink:title=" ">
<polygon fill="white" stroke="#666666" points="116,-79.5 0,-79.5 0,-60.5 116,-60.5 116,-79.5"/>
<text text-anchor="middle" x="58" y="-67.5" font-family="Helvetica,sans-Serif" font-size="10.00">src/core/vs/vectorI.H</text>
</a>
</g>
</g>
<!-- Node8&#45;&gt;Node11 -->
<g id="edge11_Node000008_Node000011" class="edge">
<title>Node8&#45;&gt;Node11</title>
<g id="a_edge11_Node000008_Node000011"><a xlink:title=" ">
<path fill="none" stroke="#63b8ff" d="M169.3,-120.99C144.5,-111.25 106.86,-95.16 82.24,-83.88"/>
<polygon fill="#63b8ff" stroke="#63b8ff" points="83.41,-80.57 72.87,-79.52 80.46,-86.91 83.41,-80.57"/>
</a>
</g>
</g>
<!-- Node10 -->
<g id="Node000010" class="node">
<title>Node10</title>
<g id="a_Node000010"><a xlink:title=" ">
<polygon fill="#e0e0e0" stroke="#999999" points="216,-19 172,-19 172,0 216,0 216,-19"/>
<text text-anchor="middle" x="194" y="-7" font-family="Helvetica,sans-Serif" font-size="10.00">limits</text>
</a>
</g>
</g>
<!-- Node9&#45;&gt;Node10 -->
<g id="edge10_Node000009_Node000010" class="edge">
<title>Node9&#45;&gt;Node10</title>
<g id="a_edge10_Node000009_Node000010"><a xlink:title=" ">
<path fill="none" stroke="#63b8ff" d="M194,-60.37C194,-52.25 194,-39.81 194,-29.39"/>
<polygon fill="#63b8ff" stroke="#63b8ff" points="197.5,-29.17 194,-19.17 190.5,-29.17 197.5,-29.17"/>
</a>
</g>
</g>
<!-- Node11&#45;&gt;Node8 -->
<g id="edge14_Node000011_Node000008" class="edge">
<title>Node11&#45;&gt;Node8</title>
<g id="a_edge14_Node000011_Node000008"><a xlink:title=" ">
<path fill="none" stroke="#63b8ff" d="M82.73,-79.52C107.54,-89.27 145.18,-105.35 169.79,-116.63"/>
<polygon fill="#63b8ff" stroke="#63b8ff" points="168.61,-119.94 179.15,-120.99 171.57,-113.6 168.61,-119.94"/>
</a>
</g>
</g>
<!-- Node12 -->
<g id="Node000012" class="node">
<title>Node12</title>
<g id="a_Node000012"><a xlink:title=" ">
<polygon fill="#e0e0e0" stroke="#999999" points="86.5,-19 29.5,-19 29.5,0 86.5,0 86.5,-19"/>
<text text-anchor="middle" x="58" y="-7" font-family="Helvetica,sans-Serif" font-size="10.00">ostream</text>
</a>
</g>
</g>
<!-- Node11&#45;&gt;Node12 -->
<g id="edge12_Node000011_Node000012" class="edge">
<title>Node11&#45;&gt;Node12</title>
<g id="a_edge12_Node000011_Node000012"><a xlink:title=" ">
<path fill="none" stroke="#63b8ff" d="M58,-60.37C58,-52.25 58,-39.81 58,-29.39"/>
<polygon fill="#63b8ff" stroke="#63b8ff" points="61.5,-29.17 58,-19.17 54.5,-29.17 61.5,-29.17"/>
</a>
</g>
</g>
<!-- Node13 -->
<g id="Node000013" class="node">
<title>Node13</title>
<g id="a_Node000013"><a xlink:title=" ">
<polygon fill="#e0e0e0" stroke="#999999" points="305.5,-19 258.5,-19 258.5,0 305.5,0 305.5,-19"/>
<text text-anchor="middle" x="282" y="-7" font-family="Helvetica,sans-Serif" font-size="10.00">cmath</text>
</a>
</g>
</g>
<!-- Node11&#45;&gt;Node13 -->
<g id="edge13_Node000011_Node000013" class="edge">
<title>Node11&#45;&gt;Node13</title>
<g id="a_edge13_Node000011_Node000013"><a xlink:title=" ">
<path fill="none" stroke="#63b8ff" d="M90.57,-60.49C132.72,-49.49 205.79,-30.4 248.42,-19.27"/>
<polygon fill="#63b8ff" stroke="#63b8ff" points="249.52,-22.6 258.31,-16.69 247.75,-15.83 249.52,-22.6"/>
</a>
</g>
</g>
<!-- Node14&#45;&gt;Node6 -->
<g id="edge16_Node000014_Node000006" class="edge">
<title>Node14&#45;&gt;Node6</title>
<g id="a_edge16_Node000014_Node000006"><a xlink:title=" ">
<path fill="none" stroke="#63b8ff" d="M384.62,-175.88C399.57,-168.39 419.62,-156.2 432,-140 457.8,-106.24 468.56,-56.21 472.68,-29.29"/>
<polygon fill="#63b8ff" stroke="#63b8ff" points="476.17,-29.66 474.07,-19.28 469.23,-28.7 476.17,-29.66"/>
</a>
</g>
</g>
<!-- Node14&#45;&gt;Node8 -->
<g id="edge18_Node000014_Node000008" class="edge">
<title>Node14&#45;&gt;Node8</title>
<g id="a_edge18_Node000014_Node000008"><a xlink:title=" ">
<path fill="none" stroke="#63b8ff" d="M337.53,-175.98C308.82,-167.09 263.58,-153.07 231.58,-143.15"/>
<polygon fill="#63b8ff" stroke="#63b8ff" points="232.28,-139.7 221.69,-140.08 230.2,-146.39 232.28,-139.7"/>
</a>
</g>
</g>
<!-- Node14&#45;&gt;Node9 -->
<g id="edge17_Node000014_Node000009" class="edge">
<title>Node14&#45;&gt;Node9</title>
<g id="a_edge17_Node000014_Node000009"><a xlink:title=" ">
<path fill="none" stroke="#63b8ff" d="M352.15,-175.97C323.06,-156.66 251.9,-109.43 215.79,-85.46"/>
<polygon fill="#63b8ff" stroke="#63b8ff" points="217.27,-82.24 207,-79.63 213.4,-88.08 217.27,-82.24"/>
</a>
</g>
</g>
<!-- Node15 -->
<g id="Node000015" class="node">
<title>Node15</title>
<g id="a_Node000015"><a xlink:href="tensor_i_8_h.html" target="_top" xlink:title=" ">
<polygon fill="white" stroke="#666666" points="423,-140 307,-140 307,-121 423,-121 423,-140"/>
<text text-anchor="middle" x="365" y="-128" font-family="Helvetica,sans-Serif" font-size="10.00">src/core/vs/tensorI.H</text>
</a>
</g>
</g>
<!-- Node14&#45;&gt;Node15 -->
<g id="edge19_Node000014_Node000015" class="edge">
<title>Node14&#45;&gt;Node15</title>
<g id="a_edge19_Node000014_Node000015"><a xlink:title=" ">
<path fill="none" stroke="#63b8ff" d="M359.83,-175.75C358.34,-168.8 357.9,-158.85 358.52,-150.13"/>
<polygon fill="#63b8ff" stroke="#63b8ff" points="362.01,-150.47 359.87,-140.09 355.07,-149.53 362.01,-150.47"/>
</a>
</g>
</g>
<!-- Node15&#45;&gt;Node13 -->
<g id="edge20_Node000015_Node000013" class="edge">
<title>Node15&#45;&gt;Node13</title>
<g id="a_edge20_Node000015_Node000013"><a xlink:title=" ">
<path fill="none" stroke="#63b8ff" d="M359.03,-120.94C345.46,-101.48 312.06,-53.6 294.02,-27.74"/>
<polygon fill="#63b8ff" stroke="#63b8ff" points="296.73,-25.5 288.14,-19.3 290.99,-29.51 296.73,-25.5"/>
</a>
</g>
</g>
<!-- Node15&#45;&gt;Node14 -->
<g id="edge21_Node000015_Node000014" class="edge">
<title>Node15&#45;&gt;Node14</title>
<g id="a_edge21_Node000015_Node000014"><a xlink:title=" ">
<path fill="none" stroke="#63b8ff" d="M370.13,-140.09C371.64,-146.99 372.09,-156.93 371.49,-165.66"/>
<polygon fill="#63b8ff" stroke="#63b8ff" points="368,-165.38 370.17,-175.75 374.94,-166.29 368,-165.38"/>
</a>
</g>
</g>
<!-- Node16 -->
<g id="Node000016" class="node">
<title>Node16</title>
<g id="a_Node000016"><a xlink:href="trig__ops_8_h.html" target="_top" xlink:title=" ">
<polygon fill="white" stroke="#666666" points="438,-85 348,-85 348,-55 438,-55 438,-85"/>
<text text-anchor="start" x="356" y="-73" font-family="Helvetica,sans-Serif" font-size="10.00">src/utilities/trig</text>
<text text-anchor="middle" x="393" y="-62" font-family="Helvetica,sans-Serif" font-size="10.00">_ops.H</text>
</a>
</g>
</g>
<!-- Node15&#45;&gt;Node16 -->
<g id="edge22_Node000015_Node000016" class="edge">
<title>Node15&#45;&gt;Node16</title>
<g id="a_edge22_Node000015_Node000016"><a xlink:title=" ">
<path fill="none" stroke="#63b8ff" d="M369.13,-120.87C372.47,-113.89 377.34,-103.71 381.81,-94.38"/>
<polygon fill="#63b8ff" stroke="#63b8ff" points="385.08,-95.65 386.24,-85.11 378.77,-92.62 385.08,-95.65"/>
</a>
</g>
</g>
<!-- Node16&#45;&gt;Node6 -->
<g id="edge26_Node000016_Node000006" class="edge">
<title>Node16&#45;&gt;Node6</title>
<g id="a_edge26_Node000016_Node000006"><a xlink:title=" ">
<path fill="none" stroke="#63b8ff" d="M412.85,-54.84C425.48,-45.83 441.8,-34.18 454.55,-25.09"/>
<polygon fill="#63b8ff" stroke="#63b8ff" points="456.6,-27.92 462.71,-19.27 452.54,-22.22 456.6,-27.92"/>
</a>
</g>
</g>
<!-- Node16&#45;&gt;Node13 -->
<g id="edge23_Node000016_Node000013" class="edge">
<title>Node16&#45;&gt;Node13</title>
<g id="a_edge23_Node000016_Node000013"><a xlink:title=" ">
<path fill="none" stroke="#63b8ff" d="M366.41,-54.99C348.55,-45.58 325.16,-33.24 307.52,-23.95"/>
<polygon fill="#63b8ff" stroke="#63b8ff" points="308.87,-20.71 298.39,-19.14 305.61,-26.9 308.87,-20.71"/>
</a>
</g>
</g>
<!-- Node17 -->
<g id="Node000017" class="node">
<title>Node17</title>
<g id="a_Node000017"><a xlink:title=" ">
<polygon fill="#e0e0e0" stroke="#999999" points="413.5,-19 354.5,-19 354.5,0 413.5,0 413.5,-19"/>
<text text-anchor="middle" x="384" y="-7" font-family="Helvetica,sans-Serif" font-size="10.00">numbers</text>
</a>
</g>
</g>
<!-- Node16&#45;&gt;Node17 -->
<g id="edge24_Node000016_Node000017" class="edge">
<title>Node16&#45;&gt;Node17</title>
<g id="a_edge24_Node000016_Node000017"><a xlink:title=" ">
<path fill="none" stroke="#63b8ff" d="M390.82,-54.84C389.63,-47.13 388.15,-37.49 386.87,-29.17"/>
<polygon fill="#63b8ff" stroke="#63b8ff" points="390.33,-28.62 385.35,-19.27 383.41,-29.68 390.33,-28.62"/>
</a>
</g>
</g>
<!-- Node16&#45;&gt;Node18 -->
<g id="edge25_Node000016_Node000018" class="edge">
<title>Node16&#45;&gt;Node18</title>
<g id="a_edge25_Node000016_Node000018"><a xlink:title=" ">
<path fill="none" stroke="#63b8ff" d="M438.16,-63.71C529.46,-53 735.74,-28.82 835.66,-17.11"/>
<polygon fill="#63b8ff" stroke="#63b8ff" points="836.33,-20.55 845.86,-15.91 835.52,-13.6 836.33,-20.55"/>
</a>
</g>
</g>
<!-- Node24&#45;&gt;Node1 -->
<g id="edge36_Node000024_Node000001" class="edge">
<title>Node24&#45;&gt;Node1</title>
<g id="a_edge36_Node000024_Node000001"><a xlink:title=" ">
<path fill="none" stroke="#63b8ff" d="M1144.49,-327.11C1125.64,-336.22 1099.35,-348.3 1075.51,-358.85"/>
<polygon fill="#63b8ff" stroke="#63b8ff" points="1073.91,-355.73 1066.17,-362.96 1076.73,-362.13 1073.91,-355.73"/>
</a>
</g>
</g>
<!-- Node25 -->
<g id="Node000025" class="node">
<title>Node25</title>
<g id="a_Node000025"><a xlink:title=" ">
<polygon fill="#e0e0e0" stroke="#999999" points="1192,-255.5 1148,-255.5 1148,-236.5 1192,-236.5 1192,-255.5"/>
<text text-anchor="middle" x="1170" y="-243.5" font-family="Helvetica,sans-Serif" font-size="10.00">string</text>
</a>
</g>
</g>
<!-- Node24&#45;&gt;Node25 -->
<g id="edge37_Node000024_Node000025" class="edge">
<title>Node24&#45;&gt;Node25</title>
<g id="a_edge37_Node000024_Node000025"><a xlink:title=" ">
<path fill="none" stroke="#63b8ff" d="M1170,-296.8C1170,-287.7 1170,-275.79 1170,-265.9"/>
<polygon fill="#63b8ff" stroke="#63b8ff" points="1173.5,-265.84 1170,-255.84 1166.5,-265.84 1173.5,-265.84"/>
</a>
</g>
</g>
</g>
</svg>
