<?xml version="1.0" encoding="UTF-8" standalone="no"?>
<!DOCTYPE svg PUBLIC "-//W3C//DTD SVG 1.1//EN"
 "http://www.w3.org/Graphics/SVG/1.1/DTD/svg11.dtd">
<!-- Generated by graphviz version 2.43.0 (0)
 -->
<!-- Title: /home/runner/work/amr&#45;wind/amr&#45;wind/src/wind_energy/actuator/aero/AirfoilTable.H Pages: 1 -->
<svg width="1053pt" height="291pt"
 viewBox="0.00 0.00 1053.00 291.00" xmlns="http://www.w3.org/2000/svg" xmlns:xlink="http://www.w3.org/1999/xlink">
<g id="graph0" class="graph" transform="scale(1 1) rotate(0) translate(4 287)">
<title>/home/runner/work/amr&#45;wind/amr&#45;wind/src/wind_energy/actuator/aero/AirfoilTable.H</title>
<!-- Node1 -->
<g id="Node000001" class="node">
<title>Node1</title>
<g id="a_Node000001"><a xlink:title=" ">
<polygon fill="#999999" stroke="#666666" points="519,-283 327,-283 327,-242 519,-242 519,-283"/>
<text text-anchor="start" x="335" y="-271" font-family="Helvetica,sans-Serif" font-size="10.00">/home/runner/work/amr</text>
<text text-anchor="start" x="335" y="-260" font-family="Helvetica,sans-Serif" font-size="10.00">&#45;wind/amr&#45;wind/src/wind</text>
<text text-anchor="middle" x="423" y="-249" font-family="Helvetica,sans-Serif" font-size="10.00">_energy/actuator/aero/AirfoilTable.H</text>
</a>
</g>
</g>
<!-- Node2 -->
<g id="Node000002" class="node">
<title>Node2</title>
<g id="a_Node000002"><a xlink:href="_airfoil_table_8cpp.html" target="_top" xlink:title=" ">
<polygon fill="white" stroke="#666666" points="202,-206 0,-206 0,-165 202,-165 202,-206"/>
<text text-anchor="start" x="8" y="-194" font-family="Helvetica,sans-Serif" font-size="10.00">/home/runner/work/amr</text>
<text text-anchor="start" x="8" y="-183" font-family="Helvetica,sans-Serif" font-size="10.00">&#45;wind/amr&#45;wind/src/wind</text>
<text text-anchor="middle" x="101" y="-172" font-family="Helvetica,sans-Serif" font-size="10.00">_energy/actuator/aero/AirfoilTable.cpp</text>
</a>
</g>
</g>
<!-- Node1&#45;&gt;Node2 -->
<g id="edge1_Node000001_Node000002" class="edge">
<title>Node1&#45;&gt;Node2</title>
<g id="a_edge1_Node000001_Node000002"><a xlink:title=" ">
<path fill="none" stroke="#63b8ff" d="M329.34,-239.68C283.67,-229.05 229.19,-216.36 184.9,-206.04"/>
<polygon fill="#63b8ff" stroke="#63b8ff" points="328.71,-243.13 339.24,-241.99 330.29,-236.31 328.71,-243.13"/>
</a>
</g>
</g>
<!-- Node3 -->
<g id="Node000003" class="node">
<title>Node3</title>
<g id="a_Node000003"><a xlink:href="_airfoil_table_i_8_h.html" target="_top" xlink:title=" ">
<polygon fill="white" stroke="#666666" points="415.5,-206 220.5,-206 220.5,-165 415.5,-165 415.5,-206"/>
<text text-anchor="start" x="228.5" y="-194" font-family="Helvetica,sans-Serif" font-size="10.00">/home/runner/work/amr</text>
<text text-anchor="start" x="228.5" y="-183" font-family="Helvetica,sans-Serif" font-size="10.00">&#45;wind/amr&#45;wind/src/wind</text>
<text text-anchor="middle" x="318" y="-172" font-family="Helvetica,sans-Serif" font-size="10.00">_energy/actuator/aero/AirfoilTableI.H</text>
</a>
</g>
</g>
<!-- Node1&#45;&gt;Node3 -->
<g id="edge2_Node000001_Node000003" class="edge">
<title>Node1&#45;&gt;Node3</title>
<g id="a_edge2_Node000001_Node000003"><a xlink:title=" ">
<path fill="none" stroke="#63b8ff" d="M381.4,-236.37C367.07,-226.53 351.64,-215.41 339.52,-206.17"/>
<polygon fill="#63b8ff" stroke="#63b8ff" points="379.44,-239.27 389.68,-241.99 383.37,-233.48 379.44,-239.27"/>
</a>
</g>
</g>
<!-- Node4 -->
<g id="Node000004" class="node">
<title>Node4</title>
<g id="a_Node000004"><a xlink:href="_fixed_wing_8_h.html" target="_top" xlink:title=" ">
<polygon fill="white" stroke="#666666" points="622.5,-206 433.5,-206 433.5,-165 622.5,-165 622.5,-206"/>
<text text-anchor="start" x="441.5" y="-194" font-family="Helvetica,sans-Serif" font-size="10.00">/home/runner/work/amr</text>
<text text-anchor="start" x="441.5" y="-183" font-family="Helvetica,sans-Serif" font-size="10.00">&#45;wind/amr&#45;wind/src/wind</text>
<text text-anchor="middle" x="528" y="-172" font-family="Helvetica,sans-Serif" font-size="10.00">_energy/actuator/wing/FixedWing.H</text>
</a>
</g>
</g>
<!-- Node1&#45;&gt;Node4 -->
<g id="edge4_Node000001_Node000004" class="edge">
<title>Node1&#45;&gt;Node4</title>
<g id="a_edge4_Node000001_Node000004"><a xlink:title=" ">
<path fill="none" stroke="#63b8ff" d="M458.57,-236.09C472.25,-226.32 487.65,-215.32 500.46,-206.17"/>
<polygon fill="#63b8ff" stroke="#63b8ff" points="456.42,-233.33 450.31,-241.99 460.49,-239.03 456.42,-233.33"/>
</a>
</g>
</g>
<!-- Node7 -->
<g id="Node000007" class="node">
<title>Node7</title>
<g id="a_Node000007"><a xlink:href="_flat_plate_8_h.html" target="_top" xlink:title=" ">
<polygon fill="white" stroke="#666666" points="1026,-206 844,-206 844,-165 1026,-165 1026,-206"/>
<text text-anchor="start" x="852" y="-194" font-family="Helvetica,sans-Serif" font-size="10.00">/home/runner/work/amr</text>
<text text-anchor="start" x="852" y="-183" font-family="Helvetica,sans-Serif" font-size="10.00">&#45;wind/amr&#45;wind/src/wind</text>
<text text-anchor="middle" x="935" y="-172" font-family="Helvetica,sans-Serif" font-size="10.00">_energy/actuator/wing/FlatPlate.H</text>
</a>
</g>
</g>
<!-- Node1&#45;&gt;Node7 -->
<g id="edge8_Node000001_Node000007" class="edge">
<title>Node1&#45;&gt;Node7</title>
<g id="a_edge8_Node000001_Node000007"><a xlink:title=" ">
<path fill="none" stroke="#63b8ff" d="M529.11,-248.84C612.24,-238.52 730.73,-222.93 834,-206 837.26,-205.47 840.58,-204.91 843.92,-204.33"/>
<polygon fill="#63b8ff" stroke="#63b8ff" points="528.64,-245.37 519.15,-250.08 529.5,-252.32 528.64,-245.37"/>
</a>
</g>
</g>
<!-- Node10 -->
<g id="Node000010" class="node">
<title>Node10</title>
<g id="a_Node000010"><a xlink:href="wing__ops_8_h.html" target="_top" xlink:title=" ">
<polygon fill="white" stroke="#666666" points="825.5,-206 640.5,-206 640.5,-165 825.5,-165 825.5,-206"/>
<text text-anchor="start" x="648.5" y="-194" font-family="Helvetica,sans-Serif" font-size="10.00">/home/runner/work/amr</text>
<text text-anchor="start" x="648.5" y="-183" font-family="Helvetica,sans-Serif" font-size="10.00">&#45;wind/amr&#45;wind/src/wind</text>
<text text-anchor="middle" x="733" y="-172" font-family="Helvetica,sans-Serif" font-size="10.00">_energy/actuator/wing/wing_ops.H</text>
</a>
</g>
</g>
<!-- Node1&#45;&gt;Node10 -->
<g id="edge12_Node000001_Node000010" class="edge">
<title>Node1&#45;&gt;Node10</title>
<g id="a_edge12_Node000001_Node000010"><a xlink:title=" ">
<path fill="none" stroke="#63b8ff" d="M513.45,-239.62C557.36,-228.99 609.68,-216.34 652.23,-206.04"/>
<polygon fill="#63b8ff" stroke="#63b8ff" points="512.54,-236.24 503.64,-241.99 514.18,-243.04 512.54,-236.24"/>
</a>
</g>
</g>
<!-- Node3&#45;&gt;Node1 -->
<g id="edge3_Node000003_Node000001" class="edge">
<title>Node3&#45;&gt;Node1</title>
<g id="a_edge3_Node000003_Node000001"><a xlink:title=" ">
<path fill="none" stroke="#63b8ff" d="M359.85,-211.81C374.19,-221.66 389.62,-232.77 401.69,-241.99"/>
<polygon fill="#63b8ff" stroke="#63b8ff" points="361.8,-208.9 351.56,-206.17 357.86,-214.69 361.8,-208.9"/>
</a>
</g>
</g>
<!-- Node5 -->
<g id="Node000005" class="node">
<title>Node5</title>
<g id="a_Node000005"><a xlink:href="_fixed_wing_8cpp.html" target="_top" xlink:title=" ">
<polygon fill="white" stroke="#666666" points="610.5,-41 411.5,-41 411.5,0 610.5,0 610.5,-41"/>
<text text-anchor="start" x="419.5" y="-29" font-family="Helvetica,sans-Serif" font-size="10.00">/home/runner/work/amr</text>
<text text-anchor="start" x="419.5" y="-18" font-family="Helvetica,sans-Serif" font-size="10.00">&#45;wind/amr&#45;wind/src/wind</text>
<text text-anchor="middle" x="511" y="-7" font-family="Helvetica,sans-Serif" font-size="10.00">_energy/actuator/wing/FixedWing.cpp</text>
</a>
</g>
</g>
<!-- Node4&#45;&gt;Node5 -->
<g id="edge5_Node000004_Node000005" class="edge">
<title>Node4&#45;&gt;Node5</title>
<g id="a_edge5_Node000004_Node000005"><a xlink:title=" ">
<path fill="none" stroke="#63b8ff" d="M496.76,-157.72C489.16,-149.38 482.06,-139.57 478,-129 469.71,-107.43 471.88,-99.28 478,-77 481.54,-64.14 488.91,-51.24 495.8,-41.12"/>
<polygon fill="#63b8ff" stroke="#63b8ff" points="494.32,-160.24 503.81,-164.96 499.33,-155.35 494.32,-160.24"/>
</a>
</g>
</g>
<!-- Node6 -->
<g id="Node000006" class="node">
<title>Node6</title>
<g id="a_Node000006"><a xlink:href="fixed__wing__ops_8_h.html" target="_top" xlink:title=" ">
<polygon fill="white" stroke="#666666" points="639,-129 487,-129 487,-77 639,-77 639,-129"/>
<text text-anchor="start" x="495" y="-117" font-family="Helvetica,sans-Serif" font-size="10.00">/home/runner/work/amr</text>
<text text-anchor="start" x="495" y="-106" font-family="Helvetica,sans-Serif" font-size="10.00">&#45;wind/amr&#45;wind/src/wind</text>
<text text-anchor="start" x="495" y="-95" font-family="Helvetica,sans-Serif" font-size="10.00">_energy/actuator/wing/fixed</text>
<text text-anchor="middle" x="563" y="-84" font-family="Helvetica,sans-Serif" font-size="10.00">_wing_ops.H</text>
</a>
</g>
</g>
<!-- Node4&#45;&gt;Node6 -->
<g id="edge6_Node000004_Node000006" class="edge">
<title>Node4&#45;&gt;Node6</title>
<g id="a_edge6_Node000004_Node000006"><a xlink:title=" ">
<path fill="none" stroke="#63b8ff" d="M540.69,-155.32C544.41,-146.75 548.46,-137.45 552.06,-129.16"/>
<polygon fill="#63b8ff" stroke="#63b8ff" points="537.43,-154.03 536.65,-164.6 543.85,-156.83 537.43,-154.03"/>
</a>
</g>
</g>
<!-- Node6&#45;&gt;Node5 -->
<g id="edge7_Node000006_Node000005" class="edge">
<title>Node6&#45;&gt;Node5</title>
<g id="a_edge7_Node000006_Node000005"><a xlink:title=" ">
<path fill="none" stroke="#63b8ff" d="M541.24,-68.31C535.26,-59.05 528.97,-49.32 523.69,-41.15"/>
<polygon fill="#63b8ff" stroke="#63b8ff" points="538.47,-70.47 546.83,-76.97 544.35,-66.67 538.47,-70.47"/>
</a>
</g>
</g>
<!-- Node8 -->
<g id="Node000008" class="node">
<title>Node8</title>
<g id="a_Node000008"><a xlink:href="_flat_plate_8cpp.html" target="_top" xlink:title=" ">
<polygon fill="white" stroke="#666666" points="1045,-41 853,-41 853,0 1045,0 1045,-41"/>
<text text-anchor="start" x="861" y="-29" font-family="Helvetica,sans-Serif" font-size="10.00">/home/runner/work/amr</text>
<text text-anchor="start" x="861" y="-18" font-family="Helvetica,sans-Serif" font-size="10.00">&#45;wind/amr&#45;wind/src/wind</text>
<text text-anchor="middle" x="949" y="-7" font-family="Helvetica,sans-Serif" font-size="10.00">_energy/actuator/wing/FlatPlate.cpp</text>
</a>
</g>
</g>
<!-- Node7&#45;&gt;Node8 -->
<g id="edge9_Node000007_Node000008" class="edge">
<title>Node7&#45;&gt;Node8</title>
<g id="a_edge9_Node000007_Node000008"><a xlink:title=" ">
<path fill="none" stroke="#63b8ff" d="M963.19,-157.21C970.02,-148.87 976.39,-139.19 980,-129 987.72,-107.22 985.82,-99.37 980,-77 976.69,-64.29 969.76,-51.4 963.29,-41.25"/>
<polygon fill="#63b8ff" stroke="#63b8ff" points="960.53,-154.94 956.58,-164.77 965.8,-159.55 960.53,-154.94"/>
</a>
</g>
</g>
<!-- Node9 -->
<g id="Node000009" class="node">
<title>Node9</title>
<g id="a_Node000009"><a xlink:href="flat__plate__ops_8_h.html" target="_top" xlink:title=" ">
<polygon fill="white" stroke="#666666" points="971,-129 827,-129 827,-77 971,-77 971,-129"/>
<text text-anchor="start" x="835" y="-117" font-family="Helvetica,sans-Serif" font-size="10.00">/home/runner/work/amr</text>
<text text-anchor="start" x="835" y="-106" font-family="Helvetica,sans-Serif" font-size="10.00">&#45;wind/amr&#45;wind/src/wind</text>
<text text-anchor="start" x="835" y="-95" font-family="Helvetica,sans-Serif" font-size="10.00">_energy/actuator/wing/flat</text>
<text text-anchor="middle" x="899" y="-84" font-family="Helvetica,sans-Serif" font-size="10.00">_plate_ops.H</text>
</a>
</g>
</g>
<!-- Node7&#45;&gt;Node9 -->
<g id="edge10_Node000007_Node000009" class="edge">
<title>Node7&#45;&gt;Node9</title>
<g id="a_edge10_Node000007_Node000009"><a xlink:title=" ">
<path fill="none" stroke="#63b8ff" d="M921.95,-155.32C918.12,-146.75 913.96,-137.45 910.25,-129.16"/>
<polygon fill="#63b8ff" stroke="#63b8ff" points="918.82,-156.9 926.1,-164.6 925.21,-154.04 918.82,-156.9"/>
</a>
</g>
</g>
<!-- Node9&#45;&gt;Node8 -->
<g id="edge11_Node000009_Node000008" class="edge">
<title>Node9&#45;&gt;Node8</title>
<g id="a_edge11_Node000009_Node000008"><a xlink:title=" ">
<path fill="none" stroke="#63b8ff" d="M919.93,-68.31C925.67,-59.05 931.72,-49.32 936.8,-41.15"/>
<polygon fill="#63b8ff" stroke="#63b8ff" points="916.85,-66.63 914.55,-76.97 922.8,-70.32 916.85,-66.63"/>
</a>
</g>
</g>
<!-- Node10&#45;&gt;Node6 -->
<g id="edge13_Node000010_Node000006" class="edge">
<title>Node10&#45;&gt;Node6</title>
<g id="a_edge13_Node000010_Node000006"><a xlink:title=" ">
<path fill="none" stroke="#63b8ff" d="M682.37,-160.53C661.46,-150.63 637.22,-139.14 616.06,-129.13"/>
<polygon fill="#63b8ff" stroke="#63b8ff" points="680.88,-163.69 691.41,-164.81 683.87,-157.36 680.88,-163.69"/>
</a>
</g>
</g>
<!-- Node10&#45;&gt;Node9 -->
<g id="edge14_Node000010_Node000009" class="edge">
<title>Node10&#45;&gt;Node9</title>
<g id="a_edge14_Node000010_Node000009"><a xlink:title=" ">
<path fill="none" stroke="#63b8ff" d="M782.71,-160.39C803.07,-150.52 826.62,-139.1 847.19,-129.13"/>
<polygon fill="#63b8ff" stroke="#63b8ff" points="781.08,-157.29 773.61,-164.81 784.13,-163.59 781.08,-157.29"/>
</a>
</g>
</g>
<!-- Node11 -->
<g id="Node000011" class="node">
<title>Node11</title>
<g id="a_Node000011"><a xlink:href="wing__ops_8cpp.html" target="_top" xlink:title=" ">
<polygon fill="white" stroke="#666666" points="809,-129 657,-129 657,-77 809,-77 809,-129"/>
<text text-anchor="start" x="665" y="-117" font-family="Helvetica,sans-Serif" font-size="10.00">/home/runner/work/amr</text>
<text text-anchor="start" x="665" y="-106" font-family="Helvetica,sans-Serif" font-size="10.00">&#45;wind/amr&#45;wind/src/wind</text>
<text text-anchor="start" x="665" y="-95" font-family="Helvetica,sans-Serif" font-size="10.00">_energy/actuator/wing/wing</text>
<text text-anchor="middle" x="733" y="-84" font-family="Helvetica,sans-Serif" font-size="10.00">_ops.cpp</text>
</a>
</g>
</g>
<!-- Node10&#45;&gt;Node11 -->
<g id="edge15_Node000010_Node000011" class="edge">
<title>Node10&#45;&gt;Node11</title>
<g id="a_edge15_Node000010_Node000011"><a xlink:title=" ">
<path fill="none" stroke="#63b8ff" d="M733,-154.49C733,-146.15 733,-137.19 733,-129.16"/>
<polygon fill="#63b8ff" stroke="#63b8ff" points="729.5,-154.6 733,-164.6 736.5,-154.6 729.5,-154.6"/>
</a>
</g>
</g>
</g>
</svg>
