<?xml version="1.0" encoding="UTF-8" standalone="no"?>
<!DOCTYPE svg PUBLIC "-//W3C//DTD SVG 1.1//EN"
 "http://www.w3.org/Graphics/SVG/1.1/DTD/svg11.dtd">
<!-- Generated by graphviz version 2.43.0 (0)
 -->
<!-- Title: /home/runner/work/amr&#45;wind/amr&#45;wind/src/immersed_boundary/bluff_body/BluffBody.H Pages: 1 -->
<svg width="652pt" height="412pt"
 viewBox="0.00 0.00 652.31 412.00" xmlns="http://www.w3.org/2000/svg" xmlns:xlink="http://www.w3.org/1999/xlink">
<g id="graph0" class="graph" transform="scale(1 1) rotate(0) translate(4 408)">
<title>/home/runner/work/amr&#45;wind/amr&#45;wind/src/immersed_boundary/bluff_body/BluffBody.H</title>
<!-- Node1 -->
<g id="Node000001" class="node">
<title>Node1</title>
<g id="a_Node000001"><a xlink:title=" ">
<polygon fill="#999999" stroke="#666666" points="592.81,-404 411.81,-404 411.81,-363 592.81,-363 592.81,-404"/>
<text text-anchor="start" x="419.81" y="-392" font-family="Helvetica,sans-Serif" font-size="10.00">/home/runner/work/amr</text>
<text text-anchor="start" x="419.81" y="-381" font-family="Helvetica,sans-Serif" font-size="10.00">&#45;wind/amr&#45;wind/src/immersed</text>
<text text-anchor="middle" x="502.31" y="-370" font-family="Helvetica,sans-Serif" font-size="10.00">_boundary/bluff_body/BluffBody.H</text>
</a>
</g>
</g>
<!-- Node2 -->
<g id="Node000002" class="node">
<title>Node2</title>
<g id="a_Node000002"><a xlink:href="_i_b_types_8_h.html" target="_top" xlink:title=" ">
<polygon fill="white" stroke="#666666" points="289.31,-327 155.31,-327 155.31,-297 289.31,-297 289.31,-327"/>
<text text-anchor="start" x="163.31" y="-315" font-family="Helvetica,sans-Serif" font-size="10.00">src/immersed_boundary</text>
<text text-anchor="middle" x="222.31" y="-304" font-family="Helvetica,sans-Serif" font-size="10.00">/IBTypes.H</text>
</a>
</g>
</g>
<!-- Node1&#45;&gt;Node2 -->
<g id="edge1_Node000001_Node000002" class="edge">
<title>Node1&#45;&gt;Node2</title>
<g id="a_edge1_Node000001_Node000002"><a xlink:title=" ">
<path fill="none" stroke="#63b8ff" d="M423.57,-362.96C380.98,-352.38 328.97,-339.48 288.5,-329.43"/>
<polygon fill="#63b8ff" stroke="#63b8ff" points="289.28,-326.02 278.73,-327 287.59,-332.81 289.28,-326.02"/>
</a>
</g>
</g>
<!-- Node8 -->
<g id="Node000008" class="node">
<title>Node8</title>
<g id="a_Node000008"><a xlink:href="vector__space_8_h.html" target="_top" xlink:title=" ">
<polygon fill="white" stroke="#666666" points="443.81,-261 340.81,-261 340.81,-231 443.81,-231 443.81,-261"/>
<text text-anchor="start" x="348.81" y="-249" font-family="Helvetica,sans-Serif" font-size="10.00">src/core/vs/vector</text>
<text text-anchor="middle" x="392.31" y="-238" font-family="Helvetica,sans-Serif" font-size="10.00">_space.H</text>
</a>
</g>
</g>
<!-- Node1&#45;&gt;Node8 -->
<g id="edge30_Node000001_Node000008" class="edge">
<title>Node1&#45;&gt;Node8</title>
<g id="a_edge30_Node000001_Node000008"><a xlink:title=" ">
<path fill="none" stroke="#63b8ff" d="M486.32,-362.8C466.1,-337.89 431.4,-295.15 410.29,-269.14"/>
<polygon fill="#63b8ff" stroke="#63b8ff" points="412.96,-266.89 403.94,-261.33 407.53,-271.3 412.96,-266.89"/>
</a>
</g>
</g>
<!-- Node19 -->
<g id="Node000019" class="node">
<title>Node19</title>
<g id="a_Node000019"><a xlink:title=" ">
<polygon fill="#e0e0e0" stroke="#999999" points="627.31,-19 535.31,-19 535.31,0 627.31,0 627.31,-19"/>
<text text-anchor="middle" x="581.31" y="-7" font-family="Helvetica,sans-Serif" font-size="10.00">AMReX_REAL.H</text>
</a>
</g>
</g>
<!-- Node1&#45;&gt;Node19 -->
<g id="edge32_Node000001_Node000019" class="edge">
<title>Node1&#45;&gt;Node19</title>
<g id="a_edge32_Node000001_Node000019"><a xlink:title=" ">
<path fill="none" stroke="#63b8ff" d="M520.34,-362.58C541.08,-337.52 572.31,-292.28 572.31,-247 572.31,-247 572.31,-247 572.31,-129.5 572.31,-94.05 576.33,-52.83 579,-29.39"/>
<polygon fill="#63b8ff" stroke="#63b8ff" points="582.51,-29.48 580.21,-19.14 575.56,-28.66 582.51,-29.48"/>
</a>
</g>
</g>
<!-- Node21 -->
<g id="Node000021" class="node">
<title>Node21</title>
<g id="a_Node000021"><a xlink:title=" ">
<polygon fill="#e0e0e0" stroke="#999999" points="644.31,-321.5 600.31,-321.5 600.31,-302.5 644.31,-302.5 644.31,-321.5"/>
<text text-anchor="middle" x="622.31" y="-309.5" font-family="Helvetica,sans-Serif" font-size="10.00">string</text>
</a>
</g>
</g>
<!-- Node1&#45;&gt;Node21 -->
<g id="edge31_Node000001_Node000021" class="edge">
<title>Node1&#45;&gt;Node21</title>
<g id="a_edge31_Node000001_Node000021"><a xlink:title=" ">
<path fill="none" stroke="#63b8ff" d="M536.06,-362.96C555.94,-351.44 580.62,-337.14 598.48,-326.8"/>
<polygon fill="#63b8ff" stroke="#63b8ff" points="600.73,-329.54 607.63,-321.5 597.22,-323.49 600.73,-329.54"/>
</a>
</g>
</g>
<!-- Node3 -->
<g id="Node000003" class="node">
<title>Node3</title>
<g id="a_Node000003"><a xlink:title=" ">
<polygon fill="#e0e0e0" stroke="#999999" points="200.81,-255.5 155.81,-255.5 155.81,-236.5 200.81,-236.5 200.81,-255.5"/>
<text text-anchor="middle" x="178.31" y="-243.5" font-family="Helvetica,sans-Serif" font-size="10.00">utility</text>
</a>
</g>
</g>
<!-- Node2&#45;&gt;Node3 -->
<g id="edge2_Node000002_Node000003" class="edge">
<title>Node2&#45;&gt;Node3</title>
<g id="a_edge2_Node000002_Node000003"><a xlink:title=" ">
<path fill="none" stroke="#63b8ff" d="M212.55,-296.8C205.96,-287.21 197.22,-274.5 190.22,-264.32"/>
<polygon fill="#63b8ff" stroke="#63b8ff" points="192.94,-262.1 184.39,-255.84 187.17,-266.07 192.94,-262.1"/>
</a>
</g>
</g>
<!-- Node4 -->
<g id="Node000004" class="node">
<title>Node4</title>
<g id="a_Node000004"><a xlink:href="_slice_8_h.html" target="_top" xlink:title=" ">
<polygon fill="white" stroke="#666666" points="311.31,-255.5 219.31,-255.5 219.31,-236.5 311.31,-236.5 311.31,-255.5"/>
<text text-anchor="middle" x="265.31" y="-243.5" font-family="Helvetica,sans-Serif" font-size="10.00">src/core/Slice.H</text>
</a>
</g>
</g>
<!-- Node2&#45;&gt;Node4 -->
<g id="edge3_Node000002_Node000004" class="edge">
<title>Node2&#45;&gt;Node4</title>
<g id="a_edge3_Node000002_Node000004"><a xlink:title=" ">
<path fill="none" stroke="#63b8ff" d="M231.86,-296.8C238.3,-287.21 246.84,-274.5 253.68,-264.32"/>
<polygon fill="#63b8ff" stroke="#63b8ff" points="256.7,-266.1 259.37,-255.84 250.89,-262.19 256.7,-266.1"/>
</a>
</g>
</g>
<!-- Node7 -->
<g id="Node000007" class="node">
<title>Node7</title>
<g id="a_Node000007"><a xlink:title=" ">
<polygon fill="#e0e0e0" stroke="#999999" points="121.81,-19 34.81,-19 34.81,0 121.81,0 121.81,-19"/>
<text text-anchor="middle" x="78.31" y="-7" font-family="Helvetica,sans-Serif" font-size="10.00">AMReX_Gpu.H</text>
</a>
</g>
</g>
<!-- Node2&#45;&gt;Node7 -->
<g id="edge28_Node000002_Node000007" class="edge">
<title>Node2&#45;&gt;Node7</title>
<g id="a_edge28_Node000002_Node000007"><a xlink:title=" ">
<path fill="none" stroke="#63b8ff" d="M155.18,-301.91C104.05,-293.65 39.31,-279.87 20.31,-261 -3.94,-236.92 1.31,-220.67 1.31,-186.5 1.31,-186.5 1.31,-186.5 1.31,-129.5 1.31,-86.54 37.11,-46.84 59.89,-25.92"/>
<polygon fill="#63b8ff" stroke="#63b8ff" points="62.44,-28.35 67.61,-19.1 57.8,-23.11 62.44,-28.35"/>
</a>
</g>
</g>
<!-- Node2&#45;&gt;Node8 -->
<g id="edge7_Node000002_Node000008" class="edge">
<title>Node2&#45;&gt;Node8</title>
<g id="a_edge7_Node000002_Node000008"><a xlink:title=" ">
<path fill="none" stroke="#63b8ff" d="M259.62,-296.95C284.86,-287.45 318.41,-274.82 345.45,-264.64"/>
<polygon fill="#63b8ff" stroke="#63b8ff" points="346.97,-267.81 355.09,-261.01 344.5,-261.26 346.97,-267.81"/>
</a>
</g>
</g>
<!-- Node20 -->
<g id="Node000020" class="node">
<title>Node20</title>
<g id="a_Node000020"><a xlink:title=" ">
<polygon fill="#e0e0e0" stroke="#999999" points="137.31,-255.5 29.31,-255.5 29.31,-236.5 137.31,-236.5 137.31,-255.5"/>
<text text-anchor="middle" x="83.31" y="-243.5" font-family="Helvetica,sans-Serif" font-size="10.00">AMReX_RealBox.H</text>
</a>
</g>
</g>
<!-- Node2&#45;&gt;Node20 -->
<g id="edge29_Node000002_Node000020" class="edge">
<title>Node2&#45;&gt;Node20</title>
<g id="a_edge29_Node000002_Node000020"><a xlink:title=" ">
<path fill="none" stroke="#63b8ff" d="M191.81,-296.95C167.75,-285.88 134.48,-270.56 111.15,-259.82"/>
<polygon fill="#63b8ff" stroke="#63b8ff" points="112.36,-256.52 101.81,-255.52 109.43,-262.88 112.36,-256.52"/>
</a>
</g>
</g>
<!-- Node5 -->
<g id="Node000005" class="node">
<title>Node5</title>
<g id="a_Node000005"><a xlink:title=" ">
<polygon fill="#e0e0e0" stroke="#999999" points="173.81,-195 120.81,-195 120.81,-176 173.81,-176 173.81,-195"/>
<text text-anchor="middle" x="147.31" y="-183" font-family="Helvetica,sans-Serif" font-size="10.00">iterator</text>
</a>
</g>
</g>
<!-- Node4&#45;&gt;Node5 -->
<g id="edge4_Node000004_Node000005" class="edge">
<title>Node4&#45;&gt;Node5</title>
<g id="a_edge4_Node000004_Node000005"><a xlink:title=" ">
<path fill="none" stroke="#63b8ff" d="M248.15,-236.49C228.58,-226.79 196.34,-210.81 173.59,-199.53"/>
<polygon fill="#63b8ff" stroke="#63b8ff" points="175,-196.32 164.49,-195.02 171.9,-202.59 175,-196.32"/>
</a>
</g>
</g>
<!-- Node6 -->
<g id="Node000006" class="node">
<title>Node6</title>
<g id="a_Node000006"><a xlink:title=" ">
<polygon fill="#e0e0e0" stroke="#999999" points="290.31,-195 192.31,-195 192.31,-176 290.31,-176 290.31,-195"/>
<text text-anchor="middle" x="241.31" y="-183" font-family="Helvetica,sans-Serif" font-size="10.00">AMReX_Vector.H</text>
</a>
</g>
</g>
<!-- Node4&#45;&gt;Node6 -->
<g id="edge5_Node000004_Node000006" class="edge">
<title>Node4&#45;&gt;Node6</title>
<g id="a_edge5_Node000004_Node000006"><a xlink:title=" ">
<path fill="none" stroke="#63b8ff" d="M261.77,-236.37C258.37,-228.07 253.12,-215.28 248.79,-204.72"/>
<polygon fill="#63b8ff" stroke="#63b8ff" points="251.9,-203.09 244.87,-195.17 245.43,-205.75 251.9,-203.09"/>
</a>
</g>
</g>
<!-- Node4&#45;&gt;Node7 -->
<g id="edge6_Node000004_Node000007" class="edge">
<title>Node4&#45;&gt;Node7</title>
<g id="a_edge6_Node000004_Node000007"><a xlink:title=" ">
<path fill="none" stroke="#63b8ff" d="M233.48,-236.48C190.91,-224.8 119.75,-204.24 111.31,-195 68.74,-148.39 71.74,-66.47 75.69,-29.52"/>
<polygon fill="#63b8ff" stroke="#63b8ff" points="79.21,-29.56 76.95,-19.21 72.26,-28.71 79.21,-29.56"/>
</a>
</g>
</g>
<!-- Node9 -->
<g id="Node000009" class="node">
<title>Node9</title>
<g id="a_Node000009"><a xlink:href="vector_8_h.html" target="_top" xlink:title=" ">
<polygon fill="white" stroke="#666666" points="283.81,-140 170.81,-140 170.81,-121 283.81,-121 283.81,-140"/>
<text text-anchor="middle" x="227.31" y="-128" font-family="Helvetica,sans-Serif" font-size="10.00">src/core/vs/vector.H</text>
</a>
</g>
</g>
<!-- Node8&#45;&gt;Node9 -->
<g id="edge8_Node000008_Node000009" class="edge">
<title>Node8&#45;&gt;Node9</title>
<g id="a_edge8_Node000008_Node000009"><a xlink:title=" ">
<path fill="none" stroke="#63b8ff" d="M374.12,-230.79C355.61,-216.49 325.93,-194.06 299.31,-176 283.35,-165.17 264.83,-153.75 250.57,-145.19"/>
<polygon fill="#63b8ff" stroke="#63b8ff" points="252.27,-142.13 241.88,-140.01 248.68,-148.14 252.27,-142.13"/>
</a>
</g>
</g>
<!-- Node15 -->
<g id="Node000015" class="node">
<title>Node15</title>
<g id="a_Node000015"><a xlink:href="tensor_8_h.html" target="_top" xlink:title=" ">
<polygon fill="white" stroke="#666666" points="459.81,-195 346.81,-195 346.81,-176 459.81,-176 459.81,-195"/>
<text text-anchor="middle" x="403.31" y="-183" font-family="Helvetica,sans-Serif" font-size="10.00">src/core/vs/tensor.H</text>
</a>
</g>
</g>
<!-- Node8&#45;&gt;Node15 -->
<g id="edge16_Node000008_Node000015" class="edge">
<title>Node8&#45;&gt;Node15</title>
<g id="a_edge16_Node000008_Node000015"><a xlink:title=" ">
<path fill="none" stroke="#63b8ff" d="M394.97,-230.84C396.42,-223.13 398.24,-213.49 399.8,-205.17"/>
<polygon fill="#63b8ff" stroke="#63b8ff" points="403.26,-205.74 401.66,-195.27 396.38,-204.45 403.26,-205.74"/>
</a>
</g>
</g>
<!-- Node9&#45;&gt;Node7 -->
<g id="edge9_Node000009_Node000007" class="edge">
<title>Node9&#45;&gt;Node7</title>
<g id="a_edge9_Node000009_Node000007"><a xlink:title=" ">
<path fill="none" stroke="#63b8ff" d="M202.07,-120.98C182.49,-113.54 155.39,-101.37 135.31,-85 115.48,-68.83 98.51,-44.43 88.37,-28.01"/>
<polygon fill="#63b8ff" stroke="#63b8ff" points="91.35,-26.17 83.22,-19.38 85.34,-29.76 91.35,-26.17"/>
</a>
</g>
</g>
<!-- Node10 -->
<g id="Node000010" class="node">
<title>Node10</title>
<g id="a_Node000010"><a xlink:href="vstraits_8_h.html" target="_top" xlink:title=" ">
<polygon fill="white" stroke="#666666" points="397.81,-79.5 278.81,-79.5 278.81,-60.5 397.81,-60.5 397.81,-79.5"/>
<text text-anchor="middle" x="338.31" y="-67.5" font-family="Helvetica,sans-Serif" font-size="10.00">src/core/vs/vstraits.H</text>
</a>
</g>
</g>
<!-- Node9&#45;&gt;Node10 -->
<g id="edge10_Node000009_Node000010" class="edge">
<title>Node9&#45;&gt;Node10</title>
<g id="a_edge10_Node000009_Node000010"><a xlink:title=" ">
<path fill="none" stroke="#63b8ff" d="M243.69,-120.87C261.89,-111.28 291.51,-95.67 312.76,-84.47"/>
<polygon fill="#63b8ff" stroke="#63b8ff" points="314.65,-87.43 321.87,-79.67 311.39,-81.23 314.65,-87.43"/>
</a>
</g>
</g>
<!-- Node12 -->
<g id="Node000012" class="node">
<title>Node12</title>
<g id="a_Node000012"><a xlink:href="vector_i_8_h.html" target="_top" xlink:title=" ">
<polygon fill="white" stroke="#666666" points="260.31,-79.5 144.31,-79.5 144.31,-60.5 260.31,-60.5 260.31,-79.5"/>
<text text-anchor="middle" x="202.31" y="-67.5" font-family="Helvetica,sans-Serif" font-size="10.00">src/core/vs/vectorI.H</text>
</a>
</g>
</g>
<!-- Node9&#45;&gt;Node12 -->
<g id="edge12_Node000009_Node000012" class="edge">
<title>Node9&#45;&gt;Node12</title>
<g id="a_edge12_Node000009_Node000012"><a xlink:title=" ">
<path fill="none" stroke="#63b8ff" d="M218.67,-120.87C213.39,-112.66 207.53,-100.04 203.91,-89.55"/>
<polygon fill="#63b8ff" stroke="#63b8ff" points="207.19,-88.3 201.05,-79.67 200.47,-90.25 207.19,-88.3"/>
</a>
</g>
</g>
<!-- Node11 -->
<g id="Node000011" class="node">
<title>Node11</title>
<g id="a_Node000011"><a xlink:title=" ">
<polygon fill="#e0e0e0" stroke="#999999" points="360.31,-19 316.31,-19 316.31,0 360.31,0 360.31,-19"/>
<text text-anchor="middle" x="338.31" y="-7" font-family="Helvetica,sans-Serif" font-size="10.00">limits</text>
</a>
</g>
</g>
<!-- Node10&#45;&gt;Node11 -->
<g id="edge11_Node000010_Node000011" class="edge">
<title>Node10&#45;&gt;Node11</title>
<g id="a_edge11_Node000010_Node000011"><a xlink:title=" ">
<path fill="none" stroke="#63b8ff" d="M338.31,-60.37C338.31,-52.25 338.31,-39.81 338.31,-29.39"/>
<polygon fill="#63b8ff" stroke="#63b8ff" points="341.81,-29.17 338.31,-19.17 334.81,-29.17 341.81,-29.17"/>
</a>
</g>
</g>
<!-- Node12&#45;&gt;Node9 -->
<g id="edge15_Node000012_Node000009" class="edge">
<title>Node12&#45;&gt;Node9</title>
<g id="a_edge15_Node000012_Node000009"><a xlink:title=" ">
<path fill="none" stroke="#63b8ff" d="M210.98,-79.67C216.26,-87.89 222.11,-100.51 225.73,-110.99"/>
<polygon fill="#63b8ff" stroke="#63b8ff" points="222.44,-112.23 228.58,-120.87 229.17,-110.29 222.44,-112.23"/>
</a>
</g>
</g>
<!-- Node13 -->
<g id="Node000013" class="node">
<title>Node13</title>
<g id="a_Node000013"><a xlink:title=" ">
<polygon fill="#e0e0e0" stroke="#999999" points="230.81,-19 173.81,-19 173.81,0 230.81,0 230.81,-19"/>
<text text-anchor="middle" x="202.31" y="-7" font-family="Helvetica,sans-Serif" font-size="10.00">ostream</text>
</a>
</g>
</g>
<!-- Node12&#45;&gt;Node13 -->
<g id="edge13_Node000012_Node000013" class="edge">
<title>Node12&#45;&gt;Node13</title>
<g id="a_edge13_Node000012_Node000013"><a xlink:title=" ">
<path fill="none" stroke="#63b8ff" d="M202.31,-60.37C202.31,-52.25 202.31,-39.81 202.31,-29.39"/>
<polygon fill="#63b8ff" stroke="#63b8ff" points="205.81,-29.17 202.31,-19.17 198.81,-29.17 205.81,-29.17"/>
</a>
</g>
</g>
<!-- Node14 -->
<g id="Node000014" class="node">
<title>Node14</title>
<g id="a_Node000014"><a xlink:title=" ">
<polygon fill="#e0e0e0" stroke="#999999" points="439.81,-19 392.81,-19 392.81,0 439.81,0 439.81,-19"/>
<text text-anchor="middle" x="416.31" y="-7" font-family="Helvetica,sans-Serif" font-size="10.00">cmath</text>
</a>
</g>
</g>
<!-- Node12&#45;&gt;Node14 -->
<g id="edge14_Node000012_Node000014" class="edge">
<title>Node12&#45;&gt;Node14</title>
<g id="a_edge14_Node000012_Node000014"><a xlink:title=" ">
<path fill="none" stroke="#63b8ff" d="M233.43,-60.49C273.29,-49.6 342.1,-30.79 382.99,-19.61"/>
<polygon fill="#63b8ff" stroke="#63b8ff" points="384.03,-22.95 392.75,-16.94 382.18,-16.2 384.03,-22.95"/>
</a>
</g>
</g>
<!-- Node15&#45;&gt;Node7 -->
<g id="edge17_Node000015_Node000007" class="edge">
<title>Node15&#45;&gt;Node7</title>
<g id="a_edge17_Node000015_Node000007"><a xlink:title=" ">
<path fill="none" stroke="#63b8ff" d="M346.61,-177.86C285.57,-170.05 192.97,-156.09 161.31,-140 129.64,-123.9 122.42,-114.95 103.31,-85 92.33,-67.79 85.64,-45.23 81.98,-29.47"/>
<polygon fill="#63b8ff" stroke="#63b8ff" points="85.34,-28.42 79.84,-19.37 78.49,-29.88 85.34,-28.42"/>
</a>
</g>
</g>
<!-- Node15&#45;&gt;Node9 -->
<g id="edge19_Node000015_Node000009" class="edge">
<title>Node15&#45;&gt;Node9</title>
<g id="a_edge19_Node000015_Node000009"><a xlink:title=" ">
<path fill="none" stroke="#63b8ff" d="M375.03,-175.98C345.36,-167.05 298.52,-152.94 265.56,-143.02"/>
<polygon fill="#63b8ff" stroke="#63b8ff" points="266.4,-139.61 255.81,-140.08 264.38,-146.32 266.4,-139.61"/>
</a>
</g>
</g>
<!-- Node15&#45;&gt;Node10 -->
<g id="edge18_Node000015_Node000010" class="edge">
<title>Node15&#45;&gt;Node10</title>
<g id="a_edge18_Node000015_Node000010"><a xlink:title=" ">
<path fill="none" stroke="#63b8ff" d="M391.69,-175.86C381.49,-167.69 366.96,-154.54 358.31,-140 349.06,-124.44 343.87,-104.33 341.11,-89.84"/>
<polygon fill="#63b8ff" stroke="#63b8ff" points="344.5,-88.9 339.38,-79.62 337.59,-90.07 344.5,-88.9"/>
</a>
</g>
</g>
<!-- Node16 -->
<g id="Node000016" class="node">
<title>Node16</title>
<g id="a_Node000016"><a xlink:href="tensor_i_8_h.html" target="_top" xlink:title=" ">
<polygon fill="white" stroke="#666666" points="483.31,-140 367.31,-140 367.31,-121 483.31,-121 483.31,-140"/>
<text text-anchor="middle" x="425.31" y="-128" font-family="Helvetica,sans-Serif" font-size="10.00">src/core/vs/tensorI.H</text>
</a>
</g>
</g>
<!-- Node15&#45;&gt;Node16 -->
<g id="edge20_Node000015_Node000016" class="edge">
<title>Node15&#45;&gt;Node16</title>
<g id="a_edge20_Node000015_Node000016"><a xlink:title=" ">
<path fill="none" stroke="#63b8ff" d="M401.78,-175.75C403.23,-168.49 407.2,-157.95 411.67,-148.98"/>
<polygon fill="#63b8ff" stroke="#63b8ff" points="414.81,-150.53 416.62,-140.09 408.69,-147.12 414.81,-150.53"/>
</a>
</g>
</g>
<!-- Node16&#45;&gt;Node14 -->
<g id="edge21_Node000016_Node000014" class="edge">
<title>Node16&#45;&gt;Node14</title>
<g id="a_edge21_Node000016_Node000014"><a xlink:title=" ">
<path fill="none" stroke="#63b8ff" d="M424.66,-120.94C423.23,-101.91 419.73,-55.69 417.75,-29.47"/>
<polygon fill="#63b8ff" stroke="#63b8ff" points="421.22,-29.01 416.98,-19.3 414.24,-29.54 421.22,-29.01"/>
</a>
</g>
</g>
<!-- Node16&#45;&gt;Node15 -->
<g id="edge22_Node000016_Node000015" class="edge">
<title>Node16&#45;&gt;Node15</title>
<g id="a_edge22_Node000016_Node000015"><a xlink:title=" ">
<path fill="none" stroke="#63b8ff" d="M426.88,-140.09C425.46,-147.29 421.52,-157.82 417.06,-166.82"/>
<polygon fill="#63b8ff" stroke="#63b8ff" points="413.9,-165.3 412.11,-175.75 420.02,-168.7 413.9,-165.3"/>
</a>
</g>
</g>
<!-- Node17 -->
<g id="Node000017" class="node">
<title>Node17</title>
<g id="a_Node000017"><a xlink:href="trig__ops_8_h.html" target="_top" xlink:title=" ">
<polygon fill="white" stroke="#666666" points="544.31,-85 454.31,-85 454.31,-55 544.31,-55 544.31,-85"/>
<text text-anchor="start" x="462.31" y="-73" font-family="Helvetica,sans-Serif" font-size="10.00">src/utilities/trig</text>
<text text-anchor="middle" x="499.31" y="-62" font-family="Helvetica,sans-Serif" font-size="10.00">_ops.H</text>
</a>
</g>
</g>
<!-- Node16&#45;&gt;Node17 -->
<g id="edge23_Node000016_Node000017" class="edge">
<title>Node16&#45;&gt;Node17</title>
<g id="a_edge23_Node000016_Node000017"><a xlink:title=" ">
<path fill="none" stroke="#63b8ff" d="M436.23,-120.87C445.99,-113.15 460.68,-101.54 473.43,-91.46"/>
<polygon fill="#63b8ff" stroke="#63b8ff" points="475.78,-94.06 481.46,-85.11 471.44,-88.57 475.78,-94.06"/>
</a>
</g>
</g>
<!-- Node17&#45;&gt;Node7 -->
<g id="edge27_Node000017_Node000007" class="edge">
<title>Node17&#45;&gt;Node7</title>
<g id="a_edge27_Node000017_Node000007"><a xlink:title=" ">
<path fill="none" stroke="#63b8ff" d="M453.92,-62.03C438.79,-59.74 421.83,-57.22 406.31,-55 309.66,-41.17 196.81,-26.09 131.85,-17.52"/>
<polygon fill="#63b8ff" stroke="#63b8ff" points="132.22,-14.04 121.85,-16.2 131.3,-20.98 132.22,-14.04"/>
</a>
</g>
</g>
<!-- Node17&#45;&gt;Node14 -->
<g id="edge24_Node000017_Node000014" class="edge">
<title>Node17&#45;&gt;Node14</title>
<g id="a_edge24_Node000017_Node000014"><a xlink:title=" ">
<path fill="none" stroke="#63b8ff" d="M479.22,-54.84C466.43,-45.83 449.91,-34.18 437.01,-25.09"/>
<polygon fill="#63b8ff" stroke="#63b8ff" points="438.94,-22.17 428.75,-19.27 434.91,-27.89 438.94,-22.17"/>
</a>
</g>
</g>
<!-- Node18 -->
<g id="Node000018" class="node">
<title>Node18</title>
<g id="a_Node000018"><a xlink:title=" ">
<polygon fill="#e0e0e0" stroke="#999999" points="516.81,-19 457.81,-19 457.81,0 516.81,0 516.81,-19"/>
<text text-anchor="middle" x="487.31" y="-7" font-family="Helvetica,sans-Serif" font-size="10.00">numbers</text>
</a>
</g>
</g>
<!-- Node17&#45;&gt;Node18 -->
<g id="edge25_Node000017_Node000018" class="edge">
<title>Node17&#45;&gt;Node18</title>
<g id="a_edge25_Node000017_Node000018"><a xlink:title=" ">
<path fill="none" stroke="#63b8ff" d="M496.41,-54.84C494.83,-47.13 492.85,-37.49 491.14,-29.17"/>
<polygon fill="#63b8ff" stroke="#63b8ff" points="494.55,-28.36 489.11,-19.27 487.69,-29.77 494.55,-28.36"/>
</a>
</g>
</g>
<!-- Node17&#45;&gt;Node19 -->
<g id="edge26_Node000017_Node000019" class="edge">
<title>Node17&#45;&gt;Node19</title>
<g id="a_edge26_Node000017_Node000019"><a xlink:title=" ">
<path fill="none" stroke="#63b8ff" d="M519.16,-54.84C531.79,-45.83 548.11,-34.18 560.86,-25.09"/>
<polygon fill="#63b8ff" stroke="#63b8ff" points="562.92,-27.92 569.02,-19.27 558.85,-22.22 562.92,-27.92"/>
</a>
</g>
</g>
</g>
</svg>
