<?xml version="1.0" encoding="UTF-8" standalone="no"?>
<!DOCTYPE svg PUBLIC "-//W3C//DTD SVG 1.1//EN"
 "http://www.w3.org/Graphics/SVG/1.1/DTD/svg11.dtd">
<!-- Generated by graphviz version 2.43.0 (0)
 -->
<!-- Title: /home/runner/work/amr&#45;wind/amr&#45;wind/src/boundary_conditions/field_boundary_fill/BoundaryPlane.H Pages: 1 -->
<!--zoomable 313 -->

<svg id="main" version="1.1" xmlns="http://www.w3.org/2000/svg" xmlns:xlink="http://www.w3.org/1999/xlink" xml:space="preserve" onload="init(evt)">

<style type="text/css"><![CDATA[
.node, .edge {opacity: 0.7;}
.node.selected, .edge.selected {opacity: 1;}
.edge:hover path { stroke: red; }
.edge:hover polygon { stroke: red; fill: red; }
]]></style>

<defs>
  <circle id="rim" cx="0" cy="0" r="7"/>
  <circle id="rim2" cx="0" cy="0" r="3.5"/>
  <g id="zoomPlus">
    <use xlink:href="#rim" fill="#404040"><set attributeName="fill" to="#808080" begin="zoomplus.mouseover" end="zoomplus.mouseout"/></use>
    <path d="M-4,0h8M0,-4v8" fill="none" stroke="white" stroke-width="1.5" pointer-events="none"/>
  </g>
  <g id="zoomMin">
    <use xlink:href="#rim" fill="#404040"><set attributeName="fill" to="#808080" begin="zoomminus.mouseover" end="zoomminus.mouseout"/></use>
    <path d="M-4,0h8" fill="none" stroke="white" stroke-width="1.5" pointer-events="none"/>
  </g>
  <g id="arrowUp" transform="translate(30 24)">
    <use xlink:href="#rim"/>
    <path pointer-events="none" fill="none" stroke="white" stroke-width="1.5" d="M0,-3.0v7 M-2.5,-0.5L0,-3.0L2.5,-0.5"/>
  </g>
  <g id="arrowRight" transform="rotate(90) translate(36 -43)">
    <use xlink:href="#rim"/>
    <path pointer-events="none" fill="none" stroke="white" stroke-width="1.5" d="M0,-3.0v7 M-2.5,-0.5L0,-3.0L2.5,-0.5"/>
  </g>
  <g id="arrowDown" transform="rotate(180) translate(-30 -48)">
    <use xlink:href="#rim"/>
    <path pointer-events="none" fill="none" stroke="white" stroke-width="1.5" d="M0,-3.0v7 M-2.5,-0.5L0,-3.0L2.5,-0.5"/>
  </g>
  <g id="arrowLeft" transform="rotate(270) translate(-36 17)">
    <use xlink:href="#rim"/>
    <path pointer-events="none" fill="none" stroke="white" stroke-width="1.5" d="M0,-3.0v7 M-2.5,-0.5L0,-3.0L2.5,-0.5"/>
  </g>
  <g id="resetDef">
    <use xlink:href="#rim2" fill="#404040"><set attributeName="fill" to="#808080" begin="reset.mouseover" end="reset.mouseout"/></use>
  </g>
</defs>
<script type="application/ecmascript">
var viewWidth = 3519;
var viewHeight = 313;
var sectionId = 'dynsection-1';
</script>
<script type="application/ecmascript" xlink:href="svg.min.js"/>
<svg id="graph" class="graph">
<g id="viewport">
<title>/home/runner/work/amr&#45;wind/amr&#45;wind/src/boundary_conditions/field_boundary_fill/BoundaryPlane.H</title>
<!-- Node1 -->
<g id="Node000001" class="node">
<title>Node1</title>
<g id="a_Node000001"><a xlink:title=" ">
<polygon fill="#999999" stroke="#666666" points="514,-305 355,-305 355,-253 514,-253 514,-305"/>
<text text-anchor="start" x="363" y="-293" font-family="Helvetica,sans-Serif" font-size="10.00">/home/runner/work/amr</text>
<text text-anchor="start" x="363" y="-282" font-family="Helvetica,sans-Serif" font-size="10.00">&#45;wind/amr&#45;wind/src/boundary</text>
<text text-anchor="start" x="363" y="-271" font-family="Helvetica,sans-Serif" font-size="10.00">_conditions/field_boundary</text>
<text text-anchor="middle" x="434.5" y="-260" font-family="Helvetica,sans-Serif" font-size="10.00">_fill/BoundaryPlane.H</text>
</a>
</g>
</g>
<!-- Node2 -->
<g id="Node000002" class="node">
<title>Node2</title>
<g id="a_Node000002"><a xlink:href="_boundary_plane_8cpp.html" target="_top" xlink:title=" ">
<polygon fill="white" stroke="#666666" points="159,-129 0,-129 0,-77 159,-77 159,-129"/>
<text text-anchor="start" x="8" y="-117" font-family="Helvetica,sans-Serif" font-size="10.00">/home/runner/work/amr</text>
<text text-anchor="start" x="8" y="-106" font-family="Helvetica,sans-Serif" font-size="10.00">&#45;wind/amr&#45;wind/src/boundary</text>
<text text-anchor="start" x="8" y="-95" font-family="Helvetica,sans-Serif" font-size="10.00">_conditions/field_boundary</text>
<text text-anchor="middle" x="79.5" y="-84" font-family="Helvetica,sans-Serif" font-size="10.00">_fill/BoundaryPlane.cpp</text>
</a>
</g>
</g>
<!-- Node1&#45;&gt;Node2 -->
<g id="edge1_Node000001_Node000002" class="edge">
<title>Node1&#45;&gt;Node2</title>
<g id="a_edge1_Node000001_Node000002"><a xlink:title=" ">
<path fill="none" stroke="#63b8ff" d="M344.8,-273.26C256.83,-266.65 131.14,-251.36 97.5,-217 74.99,-194.01 73.76,-154.86 75.89,-129.22"/>
<polygon fill="#63b8ff" stroke="#63b8ff" points="344.57,-276.75 354.8,-273.98 345.08,-269.77 344.57,-276.75"/>
</a>
</g>
</g>
<!-- Node3 -->
<g id="Node000003" class="node">
<title>Node3</title>
<g id="a_Node000003"><a xlink:href="_plane_fill_inflow_8_h.html" target="_top" xlink:title=" ">
<polygon fill="white" stroke="#666666" points="266,-217 107,-217 107,-165 266,-165 266,-217"/>
<text text-anchor="start" x="115" y="-205" font-family="Helvetica,sans-Serif" font-size="10.00">/home/runner/work/amr</text>
<text text-anchor="start" x="115" y="-194" font-family="Helvetica,sans-Serif" font-size="10.00">&#45;wind/amr&#45;wind/src/boundary</text>
<text text-anchor="start" x="115" y="-183" font-family="Helvetica,sans-Serif" font-size="10.00">_conditions/field_boundary</text>
<text text-anchor="middle" x="186.5" y="-172" font-family="Helvetica,sans-Serif" font-size="10.00">_fill/PlaneFillInflow.H</text>
</a>
</g>
</g>
<!-- Node1&#45;&gt;Node3 -->
<g id="edge2_Node000001_Node000003" class="edge">
<title>Node1&#45;&gt;Node3</title>
<g id="a_edge2_Node000001_Node000003"><a xlink:title=" ">
<path fill="none" stroke="#63b8ff" d="M352.44,-249.54C322.24,-239.07 288.28,-227.3 258.99,-217.14"/>
<polygon fill="#63b8ff" stroke="#63b8ff" points="351.51,-252.92 362.1,-252.89 353.8,-246.31 351.51,-252.92"/>
</a>
</g>
</g>
<!-- Node5 -->
<g id="Node000005" class="node">
<title>Node5</title>
<g id="a_Node000005"><a xlink:href="icns__advection_8cpp.html" target="_top" xlink:title=" ">
<polygon fill="white" stroke="#666666" points="466.5,-211.5 284.5,-211.5 284.5,-170.5 466.5,-170.5 466.5,-211.5"/>
<text text-anchor="start" x="292.5" y="-199.5" font-family="Helvetica,sans-Serif" font-size="10.00">/home/runner/work/amr</text>
<text text-anchor="start" x="292.5" y="-188.5" font-family="Helvetica,sans-Serif" font-size="10.00">&#45;wind/amr&#45;wind/src/equation</text>
<text text-anchor="middle" x="375.5" y="-177.5" font-family="Helvetica,sans-Serif" font-size="10.00">_systems/icns/icns_advection.cpp</text>
</a>
</g>
</g>
<!-- Node1&#45;&gt;Node5 -->
<g id="edge5_Node000001_Node000005" class="edge">
<title>Node1&#45;&gt;Node5</title>
<g id="a_edge5_Node000001_Node000005"><a xlink:title=" ">
<path fill="none" stroke="#63b8ff" d="M411.24,-244.09C403.7,-233.11 395.6,-221.3 389.02,-211.7"/>
<polygon fill="#63b8ff" stroke="#63b8ff" points="408.57,-246.4 417.12,-252.66 414.35,-242.44 408.57,-246.4"/>
</a>
</g>
</g>
<!-- Node6 -->
<g id="Node000006" class="node">
<title>Node6</title>
<g id="a_Node000006"><a xlink:href="_overset_ops_8cpp.html" target="_top" xlink:title=" ">
<polygon fill="white" stroke="#666666" points="1527.5,-41 1377.5,-41 1377.5,0 1527.5,0 1527.5,-41"/>
<text text-anchor="start" x="1385.5" y="-29" font-family="Helvetica,sans-Serif" font-size="10.00">/home/runner/work/amr</text>
<text text-anchor="start" x="1385.5" y="-18" font-family="Helvetica,sans-Serif" font-size="10.00">&#45;wind/amr&#45;wind/src/overset</text>
<text text-anchor="middle" x="1452.5" y="-7" font-family="Helvetica,sans-Serif" font-size="10.00">/OversetOps.cpp</text>
</a>
</g>
</g>
<!-- Node1&#45;&gt;Node6 -->
<g id="edge6_Node000001_Node000006" class="edge">
<title>Node1&#45;&gt;Node6</title>
<g id="a_edge6_Node000001_Node000006"><a xlink:title=" ">
<path fill="none" stroke="#63b8ff" d="M459.76,-244.64C465.53,-235.96 471.21,-226.4 475.5,-217 502.28,-158.35 463.46,-117.66 513.5,-77 579.88,-23.06 1166.47,-20.24 1377.38,-20.99"/>
<polygon fill="#63b8ff" stroke="#63b8ff" points="456.81,-242.76 454.03,-252.98 462.58,-246.72 456.81,-242.76"/>
</a>
</g>
</g>
<!-- Node7 -->
<g id="Node000007" class="node">
<title>Node7</title>
<g id="a_Node000007"><a xlink:href="_a_b_l_8_h.html" target="_top" xlink:title=" ">
<polygon fill="white" stroke="#666666" points="2016,-211.5 1879,-211.5 1879,-170.5 2016,-170.5 2016,-211.5"/>
<text text-anchor="start" x="1887" y="-199.5" font-family="Helvetica,sans-Serif" font-size="10.00">/home/runner/work/amr</text>
<text text-anchor="start" x="1887" y="-188.5" font-family="Helvetica,sans-Serif" font-size="10.00">&#45;wind/amr&#45;wind/src/wind</text>
<text text-anchor="middle" x="1947.5" y="-177.5" font-family="Helvetica,sans-Serif" font-size="10.00">_energy/ABL.H</text>
</a>
</g>
</g>
<!-- Node1&#45;&gt;Node7 -->
<g id="edge7_Node000001_Node000007" class="edge">
<title>Node1&#45;&gt;Node7</title>
<g id="a_edge7_Node000001_Node000007"><a xlink:title=" ">
<path fill="none" stroke="#63b8ff" d="M524.64,-272.88C801.18,-257.16 1633.67,-209.84 1878.85,-195.9"/>
<polygon fill="#63b8ff" stroke="#63b8ff" points="524.03,-269.41 514.25,-273.47 524.43,-276.39 524.03,-269.41"/>
</a>
</g>
</g>
<!-- Node23 -->
<g id="Node000023" class="node">
<title>Node23</title>
<g id="a_Node000023"><a xlink:href="_a_b_l_8cpp.html" target="_top" xlink:title=" ">
<polygon fill="white" stroke="#666666" points="3511,-123.5 3374,-123.5 3374,-82.5 3511,-82.5 3511,-123.5"/>
<text text-anchor="start" x="3382" y="-111.5" font-family="Helvetica,sans-Serif" font-size="10.00">/home/runner/work/amr</text>
<text text-anchor="start" x="3382" y="-100.5" font-family="Helvetica,sans-Serif" font-size="10.00">&#45;wind/amr&#45;wind/src/wind</text>
<text text-anchor="middle" x="3442.5" y="-89.5" font-family="Helvetica,sans-Serif" font-size="10.00">_energy/ABL.cpp</text>
</a>
</g>
</g>
<!-- Node1&#45;&gt;Node23 -->
<g id="edge27_Node000001_Node000023" class="edge">
<title>Node1&#45;&gt;Node23</title>
<g id="a_edge27_Node000001_Node000023"><a xlink:title=" ">
<path fill="none" stroke="#63b8ff" d="M524.42,-276.79C954.13,-270.48 2800.92,-237.42 3365.5,-129 3372.82,-127.6 3380.4,-125.7 3387.83,-123.58"/>
<polygon fill="#63b8ff" stroke="#63b8ff" points="524.18,-273.29 514.23,-276.94 524.28,-280.29 524.18,-273.29"/>
</a>
</g>
</g>
<!-- Node3&#45;&gt;Node2 -->
<g id="edge3_Node000003_Node000002" class="edge">
<title>Node3&#45;&gt;Node2</title>
<g id="a_edge3_Node000003_Node000002"><a xlink:title=" ">
<path fill="none" stroke="#63b8ff" d="M147.2,-158.41C135.26,-148.82 122.31,-138.41 110.96,-129.29"/>
<polygon fill="#63b8ff" stroke="#63b8ff" points="145.28,-161.36 155.26,-164.89 149.66,-155.9 145.28,-161.36"/>
</a>
</g>
</g>
<!-- Node4 -->
<g id="Node000004" class="node">
<title>Node4</title>
<g id="a_Node000004"><a xlink:href="_plane_fill_inflow_8cpp.html" target="_top" xlink:title=" ">
<polygon fill="white" stroke="#666666" points="336,-129 177,-129 177,-77 336,-77 336,-129"/>
<text text-anchor="start" x="185" y="-117" font-family="Helvetica,sans-Serif" font-size="10.00">/home/runner/work/amr</text>
<text text-anchor="start" x="185" y="-106" font-family="Helvetica,sans-Serif" font-size="10.00">&#45;wind/amr&#45;wind/src/boundary</text>
<text text-anchor="start" x="185" y="-95" font-family="Helvetica,sans-Serif" font-size="10.00">_conditions/field_boundary</text>
<text text-anchor="middle" x="256.5" y="-84" font-family="Helvetica,sans-Serif" font-size="10.00">_fill/PlaneFillInflow.cpp</text>
</a>
</g>
</g>
<!-- Node3&#45;&gt;Node4 -->
<g id="edge4_Node000003_Node000004" class="edge">
<title>Node3&#45;&gt;Node4</title>
<g id="a_edge4_Node000003_Node000004"><a xlink:title=" ">
<path fill="none" stroke="#63b8ff" d="M213.52,-156.8C221,-147.61 228.99,-137.8 236.02,-129.16"/>
<polygon fill="#63b8ff" stroke="#63b8ff" points="210.72,-154.7 207.12,-164.66 216.15,-159.12 210.72,-154.7"/>
</a>
</g>
</g>
<!-- Node8 -->
<g id="Node000008" class="node">
<title>Node8</title>
<g id="a_Node000008"><a xlink:href="_c_f_d_sim_8cpp.html" target="_top" xlink:title=" ">
<polygon fill="white" stroke="#666666" points="696,-118 523,-118 523,-88 696,-88 696,-118"/>
<text text-anchor="start" x="531" y="-106" font-family="Helvetica,sans-Serif" font-size="10.00">/home/runner/work/amr</text>
<text text-anchor="middle" x="609.5" y="-95" font-family="Helvetica,sans-Serif" font-size="10.00">&#45;wind/amr&#45;wind/src/CFDSim.cpp</text>
</a>
</g>
</g>
<!-- Node7&#45;&gt;Node8 -->
<g id="edge8_Node000007_Node000008" class="edge">
<title>Node7&#45;&gt;Node8</title>
<g id="a_edge8_Node000007_Node000008"><a xlink:title=" ">
<path fill="none" stroke="#63b8ff" d="M1868.77,-188.25C1632.39,-182.67 931.28,-163.57 705.5,-129 688.99,-126.47 671.2,-122.27 655.49,-118.03"/>
<polygon fill="#63b8ff" stroke="#63b8ff" points="1868.92,-191.76 1879,-188.49 1869.08,-184.76 1868.92,-191.76"/>
</a>
</g>
</g>
<!-- Node9 -->
<g id="Node000009" class="node">
<title>Node9</title>
<g id="a_Node000009"><a xlink:href="_a_b_l_forcing_8cpp.html" target="_top" xlink:title=" ">
<polygon fill="white" stroke="#666666" points="870.5,-129 714.5,-129 714.5,-77 870.5,-77 870.5,-129"/>
<text text-anchor="start" x="722.5" y="-117" font-family="Helvetica,sans-Serif" font-size="10.00">/home/runner/work/amr</text>
<text text-anchor="start" x="722.5" y="-106" font-family="Helvetica,sans-Serif" font-size="10.00">&#45;wind/amr&#45;wind/src/equation</text>
<text text-anchor="start" x="722.5" y="-95" font-family="Helvetica,sans-Serif" font-size="10.00">_systems/icns/source_terms</text>
<text text-anchor="middle" x="792.5" y="-84" font-family="Helvetica,sans-Serif" font-size="10.00">/ABLForcing.cpp</text>
</a>
</g>
</g>
<!-- Node7&#45;&gt;Node9 -->
<g id="edge9_Node000007_Node000009" class="edge">
<title>Node7&#45;&gt;Node9</title>
<g id="a_edge9_Node000007_Node000009"><a xlink:title=" ">
<path fill="none" stroke="#63b8ff" d="M1868.55,-187.77C1655.09,-181.38 1069.77,-161.36 879.5,-129 876.56,-128.5 873.57,-127.94 870.56,-127.32"/>
<polygon fill="#63b8ff" stroke="#63b8ff" points="1868.63,-191.28 1878.73,-188.07 1868.84,-184.28 1868.63,-191.28"/>
</a>
</g>
</g>
<!-- Node10 -->
<g id="Node000010" class="node">
<title>Node10</title>
<g id="a_Node000010"><a xlink:href="_a_b_l_mean_boussinesq_8cpp.html" target="_top" xlink:title=" ">
<polygon fill="white" stroke="#666666" points="1044.5,-129 888.5,-129 888.5,-77 1044.5,-77 1044.5,-129"/>
<text text-anchor="start" x="896.5" y="-117" font-family="Helvetica,sans-Serif" font-size="10.00">/home/runner/work/amr</text>
<text text-anchor="start" x="896.5" y="-106" font-family="Helvetica,sans-Serif" font-size="10.00">&#45;wind/amr&#45;wind/src/equation</text>
<text text-anchor="start" x="896.5" y="-95" font-family="Helvetica,sans-Serif" font-size="10.00">_systems/icns/source_terms</text>
<text text-anchor="middle" x="966.5" y="-84" font-family="Helvetica,sans-Serif" font-size="10.00">/ABLMeanBoussinesq.cpp</text>
</a>
</g>
</g>
<!-- Node7&#45;&gt;Node10 -->
<g id="edge10_Node000007_Node000010" class="edge">
<title>Node7&#45;&gt;Node10</title>
<g id="a_edge10_Node000007_Node000010"><a xlink:title=" ">
<path fill="none" stroke="#63b8ff" d="M1868.76,-190.2C1712.21,-189.37 1351.3,-181.34 1053.5,-129 1050.56,-128.48 1047.58,-127.91 1044.57,-127.28"/>
<polygon fill="#63b8ff" stroke="#63b8ff" points="1868.76,-193.7 1878.77,-190.24 1868.79,-186.7 1868.76,-193.7"/>
</a>
</g>
</g>
<!-- Node11 -->
<g id="Node000011" class="node">
<title>Node11</title>
<g id="a_Node000011"><a xlink:href="_a_b_l_meso_forcing_mom_8cpp.html" target="_top" xlink:title=" ">
<polygon fill="white" stroke="#666666" points="1218.5,-129 1062.5,-129 1062.5,-77 1218.5,-77 1218.5,-129"/>
<text text-anchor="start" x="1070.5" y="-117" font-family="Helvetica,sans-Serif" font-size="10.00">/home/runner/work/amr</text>
<text text-anchor="start" x="1070.5" y="-106" font-family="Helvetica,sans-Serif" font-size="10.00">&#45;wind/amr&#45;wind/src/equation</text>
<text text-anchor="start" x="1070.5" y="-95" font-family="Helvetica,sans-Serif" font-size="10.00">_systems/icns/source_terms</text>
<text text-anchor="middle" x="1140.5" y="-84" font-family="Helvetica,sans-Serif" font-size="10.00">/ABLMesoForcingMom.cpp</text>
</a>
</g>
</g>
<!-- Node7&#45;&gt;Node11 -->
<g id="edge11_Node000007_Node000011" class="edge">
<title>Node7&#45;&gt;Node11</title>
<g id="a_edge11_Node000007_Node000011"><a xlink:title=" ">
<path fill="none" stroke="#63b8ff" d="M1868.81,-188.35C1735.69,-184.44 1458.06,-171.47 1227.5,-129 1224.56,-128.46 1221.58,-127.86 1218.58,-127.22"/>
<polygon fill="#63b8ff" stroke="#63b8ff" points="1868.82,-191.85 1878.91,-188.64 1869.01,-184.85 1868.82,-191.85"/>
</a>
</g>
</g>
<!-- Node12 -->
<g id="Node000012" class="node">
<title>Node12</title>
<g id="a_Node000012"><a xlink:href="_drag_forcing_8cpp.html" target="_top" xlink:title=" ">
<polygon fill="white" stroke="#666666" points="1392.5,-129 1236.5,-129 1236.5,-77 1392.5,-77 1392.5,-129"/>
<text text-anchor="start" x="1244.5" y="-117" font-family="Helvetica,sans-Serif" font-size="10.00">/home/runner/work/amr</text>
<text text-anchor="start" x="1244.5" y="-106" font-family="Helvetica,sans-Serif" font-size="10.00">&#45;wind/amr&#45;wind/src/equation</text>
<text text-anchor="start" x="1244.5" y="-95" font-family="Helvetica,sans-Serif" font-size="10.00">_systems/icns/source_terms</text>
<text text-anchor="middle" x="1314.5" y="-84" font-family="Helvetica,sans-Serif" font-size="10.00">/DragForcing.cpp</text>
</a>
</g>
</g>
<!-- Node7&#45;&gt;Node12 -->
<g id="edge12_Node000007_Node000012" class="edge">
<title>Node7&#45;&gt;Node12</title>
<g id="a_edge12_Node000007_Node000012"><a xlink:title=" ">
<path fill="none" stroke="#63b8ff" d="M1868.8,-185.39C1762.11,-178.18 1566.01,-161.58 1401.5,-129 1398.57,-128.42 1395.6,-127.79 1392.6,-127.12"/>
<polygon fill="#63b8ff" stroke="#63b8ff" points="1868.63,-188.88 1878.84,-186.05 1869.09,-181.9 1868.63,-188.88"/>
</a>
</g>
</g>
<!-- Node13 -->
<g id="Node000013" class="node">
<title>Node13</title>
<g id="a_Node000013"><a xlink:href="_forest_forcing_8cpp.html" target="_top" xlink:title=" ">
<polygon fill="white" stroke="#666666" points="1566.5,-129 1410.5,-129 1410.5,-77 1566.5,-77 1566.5,-129"/>
<text text-anchor="start" x="1418.5" y="-117" font-family="Helvetica,sans-Serif" font-size="10.00">/home/runner/work/amr</text>
<text text-anchor="start" x="1418.5" y="-106" font-family="Helvetica,sans-Serif" font-size="10.00">&#45;wind/amr&#45;wind/src/equation</text>
<text text-anchor="start" x="1418.5" y="-95" font-family="Helvetica,sans-Serif" font-size="10.00">_systems/icns/source_terms</text>
<text text-anchor="middle" x="1488.5" y="-84" font-family="Helvetica,sans-Serif" font-size="10.00">/ForestForcing.cpp</text>
</a>
</g>
</g>
<!-- Node7&#45;&gt;Node13 -->
<g id="edge13_Node000007_Node000013" class="edge">
<title>Node7&#45;&gt;Node13</title>
<g id="a_edge13_Node000007_Node000013"><a xlink:title=" ">
<path fill="none" stroke="#63b8ff" d="M1868.88,-179.84C1793.24,-169.42 1675.87,-151.57 1575.5,-129 1572.59,-128.34 1569.63,-127.65 1566.64,-126.92"/>
<polygon fill="#63b8ff" stroke="#63b8ff" points="1868.43,-183.31 1878.82,-181.2 1869.38,-176.37 1868.43,-183.31"/>
</a>
</g>
</g>
<!-- Node14 -->
<g id="Node000014" class="node">
<title>Node14</title>
<g id="a_Node000014"><a xlink:href="_hurricane_forcing_8cpp.html" target="_top" xlink:title=" ">
<polygon fill="white" stroke="#666666" points="1740.5,-129 1584.5,-129 1584.5,-77 1740.5,-77 1740.5,-129"/>
<text text-anchor="start" x="1592.5" y="-117" font-family="Helvetica,sans-Serif" font-size="10.00">/home/runner/work/amr</text>
<text text-anchor="start" x="1592.5" y="-106" font-family="Helvetica,sans-Serif" font-size="10.00">&#45;wind/amr&#45;wind/src/equation</text>
<text text-anchor="start" x="1592.5" y="-95" font-family="Helvetica,sans-Serif" font-size="10.00">_systems/icns/source_terms</text>
<text text-anchor="middle" x="1662.5" y="-84" font-family="Helvetica,sans-Serif" font-size="10.00">/HurricaneForcing.cpp</text>
</a>
</g>
</g>
<!-- Node7&#45;&gt;Node14 -->
<g id="edge14_Node000007_Node000014" class="edge">
<title>Node7&#45;&gt;Node14</title>
<g id="a_edge14_Node000007_Node000014"><a xlink:title=" ">
<path fill="none" stroke="#63b8ff" d="M1873.22,-167.59C1832.46,-155.29 1781.96,-140.05 1740.61,-127.57"/>
<polygon fill="#63b8ff" stroke="#63b8ff" points="1872.24,-170.95 1882.83,-170.49 1874.27,-164.25 1872.24,-170.95"/>
</a>
</g>
</g>
<!-- Node15 -->
<g id="Node000015" class="node">
<title>Node15</title>
<g id="a_Node000015"><a xlink:href="_a_b_l_meso_forcing_temp_8cpp.html" target="_top" xlink:title=" ">
<polygon fill="white" stroke="#666666" points="1938.5,-129 1758.5,-129 1758.5,-77 1938.5,-77 1938.5,-129"/>
<text text-anchor="start" x="1766.5" y="-117" font-family="Helvetica,sans-Serif" font-size="10.00">/home/runner/work/amr</text>
<text text-anchor="start" x="1766.5" y="-106" font-family="Helvetica,sans-Serif" font-size="10.00">&#45;wind/amr&#45;wind/src/equation</text>
<text text-anchor="start" x="1766.5" y="-95" font-family="Helvetica,sans-Serif" font-size="10.00">_systems/temperature/source</text>
<text text-anchor="middle" x="1848.5" y="-84" font-family="Helvetica,sans-Serif" font-size="10.00">_terms/ABLMesoForcingTemp.cpp</text>
</a>
</g>
</g>
<!-- Node7&#45;&gt;Node15 -->
<g id="edge15_Node000007_Node000015" class="edge">
<title>Node7&#45;&gt;Node15</title>
<g id="a_edge15_Node000007_Node000015"><a xlink:title=" ">
<path fill="none" stroke="#63b8ff" d="M1917.47,-163.91C1904.83,-152.93 1890.18,-140.21 1877.64,-129.32"/>
<polygon fill="#63b8ff" stroke="#63b8ff" points="1915.19,-166.57 1925.04,-170.49 1919.78,-161.28 1915.19,-166.57"/>
</a>
</g>
</g>
<!-- Node16 -->
<g id="Node000016" class="node">
<title>Node16</title>
<g id="a_Node000016"><a xlink:href="_hurricane_temp_forcing_8cpp.html" target="_top" xlink:title=" ">
<polygon fill="white" stroke="#666666" points="2138.5,-129 1956.5,-129 1956.5,-77 2138.5,-77 2138.5,-129"/>
<text text-anchor="start" x="1964.5" y="-117" font-family="Helvetica,sans-Serif" font-size="10.00">/home/runner/work/amr</text>
<text text-anchor="start" x="1964.5" y="-106" font-family="Helvetica,sans-Serif" font-size="10.00">&#45;wind/amr&#45;wind/src/equation</text>
<text text-anchor="start" x="1964.5" y="-95" font-family="Helvetica,sans-Serif" font-size="10.00">_systems/temperature/source</text>
<text text-anchor="middle" x="2047.5" y="-84" font-family="Helvetica,sans-Serif" font-size="10.00">_terms/HurricaneTempForcing.cpp</text>
</a>
</g>
</g>
<!-- Node7&#45;&gt;Node16 -->
<g id="edge16_Node000007_Node000016" class="edge">
<title>Node7&#45;&gt;Node16</title>
<g id="a_edge16_Node000007_Node000016"><a xlink:title=" ">
<path fill="none" stroke="#63b8ff" d="M1977.84,-163.91C1990.6,-152.93 2005.4,-140.21 2018.06,-129.32"/>
<polygon fill="#63b8ff" stroke="#63b8ff" points="1975.49,-161.31 1970.19,-170.49 1980.06,-166.62 1975.49,-161.31"/>
</a>
</g>
</g>
<!-- Node17 -->
<g id="Node000017" class="node">
<title>Node17</title>
<g id="a_Node000017"><a xlink:href="helics_8cpp.html" target="_top" xlink:title=" ">
<polygon fill="white" stroke="#666666" points="2318.5,-118 2156.5,-118 2156.5,-88 2318.5,-88 2318.5,-118"/>
<text text-anchor="start" x="2164.5" y="-106" font-family="Helvetica,sans-Serif" font-size="10.00">/home/runner/work/amr</text>
<text text-anchor="middle" x="2237.5" y="-95" font-family="Helvetica,sans-Serif" font-size="10.00">&#45;wind/amr&#45;wind/src/helics.cpp</text>
</a>
</g>
</g>
<!-- Node7&#45;&gt;Node17 -->
<g id="edge17_Node000007_Node000017" class="edge">
<title>Node7&#45;&gt;Node17</title>
<g id="a_edge17_Node000007_Node000017"><a xlink:title=" ">
<path fill="none" stroke="#63b8ff" d="M2022.97,-167.62C2075.79,-151.96 2144.74,-131.51 2190.02,-118.08"/>
<polygon fill="#63b8ff" stroke="#63b8ff" points="2021.9,-164.29 2013.31,-170.49 2023.89,-171 2021.9,-164.29"/>
</a>
</g>
</g>
<!-- Node18 -->
<g id="Node000018" class="node">
<title>Node18</title>
<g id="a_Node000018"><a xlink:href="incflo_8cpp.html" target="_top" xlink:title=" ">
<polygon fill="white" stroke="#666666" points="2496.5,-118 2336.5,-118 2336.5,-88 2496.5,-88 2496.5,-118"/>
<text text-anchor="start" x="2344.5" y="-106" font-family="Helvetica,sans-Serif" font-size="10.00">/home/runner/work/amr</text>
<text text-anchor="middle" x="2416.5" y="-95" font-family="Helvetica,sans-Serif" font-size="10.00">&#45;wind/amr&#45;wind/src/incflo.cpp</text>
</a>
</g>
</g>
<!-- Node7&#45;&gt;Node18 -->
<g id="edge18_Node000007_Node000018" class="edge">
<title>Node7&#45;&gt;Node18</title>
<g id="a_edge18_Node000007_Node000018"><a xlink:title=" ">
<path fill="none" stroke="#63b8ff" d="M2026.38,-180.03C2103.58,-169.63 2224.3,-151.7 2327.5,-129 2341.45,-125.93 2356.46,-121.98 2370.1,-118.12"/>
<polygon fill="#63b8ff" stroke="#63b8ff" points="2025.7,-176.59 2016.25,-181.38 2026.62,-183.52 2025.7,-176.59"/>
</a>
</g>
</g>
<!-- Node19 -->
<g id="Node000019" class="node">
<title>Node19</title>
<g id="a_Node000019"><a xlink:href="nodal__projection__ops_8_h.html" target="_top" xlink:title=" ">
<polygon fill="white" stroke="#666666" points="2676.5,-123.5 2514.5,-123.5 2514.5,-82.5 2676.5,-82.5 2676.5,-123.5"/>
<text text-anchor="start" x="2522.5" y="-111.5" font-family="Helvetica,sans-Serif" font-size="10.00">/home/runner/work/amr</text>
<text text-anchor="start" x="2522.5" y="-100.5" font-family="Helvetica,sans-Serif" font-size="10.00">&#45;wind/amr&#45;wind/src/projection</text>
<text text-anchor="middle" x="2595.5" y="-89.5" font-family="Helvetica,sans-Serif" font-size="10.00">/nodal_projection_ops.H</text>
</a>
</g>
</g>
<!-- Node7&#45;&gt;Node19 -->
<g id="edge19_Node000007_Node000019" class="edge">
<title>Node7&#45;&gt;Node19</title>
<g id="a_edge19_Node000007_Node000019"><a xlink:title=" ">
<path fill="none" stroke="#63b8ff" d="M2026.55,-185.41C2135.22,-178.17 2336.54,-161.48 2505.5,-129 2513.46,-127.47 2521.75,-125.58 2529.93,-123.54"/>
<polygon fill="#63b8ff" stroke="#63b8ff" points="2026.07,-181.93 2016.32,-186.08 2026.53,-188.91 2026.07,-181.93"/>
</a>
</g>
</g>
<!-- Node21 -->
<g id="Node000021" class="node">
<title>Node21</title>
<g id="a_Node000021"><a xlink:href="init_8cpp.html" target="_top" xlink:title=" ">
<polygon fill="white" stroke="#666666" points="2834.5,-123.5 2694.5,-123.5 2694.5,-82.5 2834.5,-82.5 2834.5,-123.5"/>
<text text-anchor="start" x="2702.5" y="-111.5" font-family="Helvetica,sans-Serif" font-size="10.00">/home/runner/work/amr</text>
<text text-anchor="start" x="2702.5" y="-100.5" font-family="Helvetica,sans-Serif" font-size="10.00">&#45;wind/amr&#45;wind/src/setup</text>
<text text-anchor="middle" x="2764.5" y="-89.5" font-family="Helvetica,sans-Serif" font-size="10.00">/init.cpp</text>
</a>
</g>
</g>
<!-- Node7&#45;&gt;Node21 -->
<g id="edge22_Node000007_Node000021" class="edge">
<title>Node7&#45;&gt;Node21</title>
<g id="a_edge22_Node000007_Node000021"><a xlink:title=" ">
<path fill="none" stroke="#63b8ff" d="M2026.43,-189.25C2162.32,-186.68 2448.7,-175.64 2685.5,-129 2692.84,-127.55 2700.46,-125.66 2707.94,-123.57"/>
<polygon fill="#63b8ff" stroke="#63b8ff" points="2026.06,-185.76 2016.12,-189.43 2026.18,-192.76 2026.06,-185.76"/>
</a>
</g>
</g>
<!-- Node22 -->
<g id="Node000022" class="node">
<title>Node22</title>
<g id="a_Node000022"><a xlink:href="_kosovic_8cpp.html" target="_top" xlink:title=" ">
<polygon fill="white" stroke="#666666" points="3018,-123.5 2853,-123.5 2853,-82.5 3018,-82.5 3018,-123.5"/>
<text text-anchor="start" x="2861" y="-111.5" font-family="Helvetica,sans-Serif" font-size="10.00">/home/runner/work/amr</text>
<text text-anchor="start" x="2861" y="-100.5" font-family="Helvetica,sans-Serif" font-size="10.00">&#45;wind/amr&#45;wind/src/turbulence</text>
<text text-anchor="middle" x="2935.5" y="-89.5" font-family="Helvetica,sans-Serif" font-size="10.00">/LES/Kosovic.cpp</text>
</a>
</g>
</g>
<!-- Node7&#45;&gt;Node22 -->
<g id="edge23_Node000007_Node000022" class="edge">
<title>Node7&#45;&gt;Node22</title>
<g id="a_edge23_Node000007_Node000022"><a xlink:title=" ">
<path fill="none" stroke="#63b8ff" d="M2026.06,-189.84C2182.68,-188.38 2544.48,-179.3 2843.5,-129 2852.07,-127.56 2860.99,-125.66 2869.77,-123.54"/>
<polygon fill="#63b8ff" stroke="#63b8ff" points="2026.01,-186.34 2016.04,-189.92 2026.07,-193.34 2026.01,-186.34"/>
</a>
</g>
</g>
<!-- Node7&#45;&gt;Node23 -->
<g id="edge24_Node000007_Node000023" class="edge">
<title>Node7&#45;&gt;Node23</title>
<g id="a_edge24_Node000007_Node000023"><a xlink:title=" ">
<path fill="none" stroke="#63b8ff" d="M2026.31,-187.86C2304.92,-180.11 3233.83,-152.75 3365.5,-129 3372.97,-127.65 3380.71,-125.76 3388.28,-123.62"/>
<polygon fill="#63b8ff" stroke="#63b8ff" points="2026.18,-184.36 2016.28,-188.14 2026.37,-191.36 2026.18,-184.36"/>
</a>
</g>
</g>
<!-- Node24 -->
<g id="Node000024" class="node">
<title>Node24</title>
<g id="a_Node000024"><a xlink:href="_a_b_l_anelastic_8cpp.html" target="_top" xlink:title=" ">
<polygon fill="white" stroke="#666666" points="3179,-123.5 3036,-123.5 3036,-82.5 3179,-82.5 3179,-123.5"/>
<text text-anchor="start" x="3044" y="-111.5" font-family="Helvetica,sans-Serif" font-size="10.00">/home/runner/work/amr</text>
<text text-anchor="start" x="3044" y="-100.5" font-family="Helvetica,sans-Serif" font-size="10.00">&#45;wind/amr&#45;wind/src/wind</text>
<text text-anchor="middle" x="3107.5" y="-89.5" font-family="Helvetica,sans-Serif" font-size="10.00">_energy/ABLAnelastic.cpp</text>
</a>
</g>
</g>
<!-- Node7&#45;&gt;Node24 -->
<g id="edge25_Node000007_Node000024" class="edge">
<title>Node7&#45;&gt;Node24</title>
<g id="a_edge25_Node000007_Node000024"><a xlink:title=" ">
<path fill="none" stroke="#63b8ff" d="M2026.61,-188.06C2241.94,-182.37 2835.25,-163.92 3027.5,-129 3035.23,-127.6 3043.26,-125.67 3051.12,-123.51"/>
<polygon fill="#63b8ff" stroke="#63b8ff" points="2026.25,-184.57 2016.34,-188.33 2026.43,-191.56 2026.25,-184.57"/>
</a>
</g>
</g>
<!-- Node25 -->
<g id="Node000025" class="node">
<title>Node25</title>
<g id="a_Node000025"><a xlink:href="_a_b_l_wall_function_8cpp.html" target="_top" xlink:title=" ">
<polygon fill="white" stroke="#666666" points="3356,-123.5 3197,-123.5 3197,-82.5 3356,-82.5 3356,-123.5"/>
<text text-anchor="start" x="3205" y="-111.5" font-family="Helvetica,sans-Serif" font-size="10.00">/home/runner/work/amr</text>
<text text-anchor="start" x="3205" y="-100.5" font-family="Helvetica,sans-Serif" font-size="10.00">&#45;wind/amr&#45;wind/src/wind</text>
<text text-anchor="middle" x="3276.5" y="-89.5" font-family="Helvetica,sans-Serif" font-size="10.00">_energy/ABLWallFunction.cpp</text>
</a>
</g>
</g>
<!-- Node7&#45;&gt;Node25 -->
<g id="edge26_Node000007_Node000025" class="edge">
<title>Node7&#45;&gt;Node25</title>
<g id="a_edge26_Node000007_Node000025"><a xlink:title=" ">
<path fill="none" stroke="#63b8ff" d="M2026.62,-188.46C2263.31,-183.5 2963.43,-166.01 3188.5,-129 3196.96,-127.61 3205.77,-125.69 3214.4,-123.53"/>
<polygon fill="#63b8ff" stroke="#63b8ff" points="2026.3,-184.97 2016.37,-188.68 2026.44,-191.97 2026.3,-184.97"/>
</a>
</g>
</g>
<!-- Node19&#45;&gt;Node6 -->
<g id="edge20_Node000019_Node000006" class="edge">
<title>Node19&#45;&gt;Node6</title>
<g id="a_edge20_Node000019_Node000006"><a xlink:title=" ">
<path fill="none" stroke="#63b8ff" d="M2521.69,-80.12C2516.24,-78.93 2510.8,-77.87 2505.5,-77 2316.92,-46.22 1735.72,-28.73 1527.6,-23.33"/>
<polygon fill="#63b8ff" stroke="#63b8ff" points="2520.95,-83.54 2531.48,-82.38 2522.52,-76.72 2520.95,-83.54"/>
</a>
</g>
</g>
<!-- Node20 -->
<g id="Node000020" class="node">
<title>Node20</title>
<g id="a_Node000020"><a xlink:href="incflo__apply__nodal__projection_8cpp.html" target="_top" xlink:title=" ">
<polygon fill="white" stroke="#666666" points="2688,-41 2503,-41 2503,0 2688,0 2688,-41"/>
<text text-anchor="start" x="2511" y="-29" font-family="Helvetica,sans-Serif" font-size="10.00">/home/runner/work/amr</text>
<text text-anchor="start" x="2511" y="-18" font-family="Helvetica,sans-Serif" font-size="10.00">&#45;wind/amr&#45;wind/src/projection</text>
<text text-anchor="middle" x="2595.5" y="-7" font-family="Helvetica,sans-Serif" font-size="10.00">/incflo_apply_nodal_projection.cpp</text>
</a>
</g>
</g>
<!-- Node19&#45;&gt;Node20 -->
<g id="edge21_Node000019_Node000020" class="edge">
<title>Node19&#45;&gt;Node20</title>
<g id="a_edge21_Node000019_Node000020"><a xlink:title=" ">
<path fill="none" stroke="#63b8ff" d="M2595.5,-71.87C2595.5,-61.6 2595.5,-50.4 2595.5,-41.17"/>
<polygon fill="#63b8ff" stroke="#63b8ff" points="2592,-72.1 2595.5,-82.1 2599,-72.1 2592,-72.1"/>
</a>
</g>
</g>
</g>
</svg>

<g id="navigator" transform="translate(0 0)" fill="#404254">
  <rect fill="#f2f5e9" fill-opacity="0.5" stroke="#606060" stroke-width=".5" x="0" y="0" width="60" height="60"/>
  <use id="zoomplus" xlink:href="#zoomPlus" x="17" y="9" onmousedown="handleZoom(evt,'in')"/>
  <use id="zoomminus" xlink:href="#zoomMin" x="42" y="9" onmousedown="handleZoom(evt,'out')"/>
  <use id="reset" xlink:href="#resetDef" x="30" y="36" onmousedown="handleReset()"/>
   <use id="arrowup" xlink:href="#arrowUp" x="0" y="0" onmousedown="handlePan(0,-1)"/>
  <use id="arrowright" xlink:href="#arrowRight" x="0" y="0" onmousedown="handlePan(1,0)"/>
  <use id="arrowdown" xlink:href="#arrowDown" x="0" y="0" onmousedown="handlePan(0,1)"/>
  <use id="arrowleft" xlink:href="#arrowLeft" x="0" y="0" onmousedown="handlePan(-1,0)"/>
</g>
<svg viewBox="0 0 15 15" width="100%" height="30px" preserveAspectRatio="xMaxYMin meet">
 <g id="arrow_out" transform="scale(0.3 0.3)">
  <a xlink:href="_boundary_plane_8_h__dep__incl_org.svg" target="_base">
   <rect id="button" ry="5" rx="5" y="6" x="6" height="38" width="38"
        fill="#f2f5e9" fill-opacity="0.5" stroke="#606060" stroke-width="1.0"/>
   <path id="arrow"
     d="M 11.500037,31.436501 C 11.940474,20.09759 22.043105,11.32322 32.158766,21.979434 L 37.068811,17.246167 C 37.068811,17.246167 37.088388,32 37.088388,32 L 22.160133,31.978069 C 22.160133,31.978069 26.997745,27.140456 26.997745,27.140456 C 18.528582,18.264221 13.291696,25.230495 11.500037,31.436501 z"
     style="fill:#404040;"/>
  </a>
 </g>
</svg>

<style type='text/css'>
<![CDATA[
[data-mouse-over-selected='false'] { opacity: 0.7; }
[data-mouse-over-selected='true']  { opacity: 1.0; }
]]>
</style>
<script type="application/ecmascript"><![CDATA[
document.addEventListener('DOMContentLoaded', (event) => {
  highlightEdges();
  highlightAdjacentNodes();
});
]]></script>
</svg>
