<?xml version="1.0" encoding="UTF-8" standalone="no"?>
<!DOCTYPE svg PUBLIC "-//W3C//DTD SVG 1.1//EN"
 "http://www.w3.org/Graphics/SVG/1.1/DTD/svg11.dtd">
<!-- Generated by graphviz version 2.43.0 (0)
 -->
<!-- Title: /home/runner/work/amr&#45;wind/amr&#45;wind/src/utilities/tagging/BoxRefiner.cpp Pages: 1 -->
<!--zoomable 423 -->

<svg id="main" version="1.1" xmlns="http://www.w3.org/2000/svg" xmlns:xlink="http://www.w3.org/1999/xlink" xml:space="preserve" onload="init(evt)">

<style type="text/css"><![CDATA[
.node, .edge {opacity: 0.7;}
.node.selected, .edge.selected {opacity: 1;}
.edge:hover path { stroke: red; }
.edge:hover polygon { stroke: red; fill: red; }
]]></style>

<defs>
  <circle id="rim" cx="0" cy="0" r="7"/>
  <circle id="rim2" cx="0" cy="0" r="3.5"/>
  <g id="zoomPlus">
    <use xlink:href="#rim" fill="#404040"><set attributeName="fill" to="#808080" begin="zoomplus.mouseover" end="zoomplus.mouseout"/></use>
    <path d="M-4,0h8M0,-4v8" fill="none" stroke="white" stroke-width="1.5" pointer-events="none"/>
  </g>
  <g id="zoomMin">
    <use xlink:href="#rim" fill="#404040"><set attributeName="fill" to="#808080" begin="zoomminus.mouseover" end="zoomminus.mouseout"/></use>
    <path d="M-4,0h8" fill="none" stroke="white" stroke-width="1.5" pointer-events="none"/>
  </g>
  <g id="arrowUp" transform="translate(30 24)">
    <use xlink:href="#rim"/>
    <path pointer-events="none" fill="none" stroke="white" stroke-width="1.5" d="M0,-3.0v7 M-2.5,-0.5L0,-3.0L2.5,-0.5"/>
  </g>
  <g id="arrowRight" transform="rotate(90) translate(36 -43)">
    <use xlink:href="#rim"/>
    <path pointer-events="none" fill="none" stroke="white" stroke-width="1.5" d="M0,-3.0v7 M-2.5,-0.5L0,-3.0L2.5,-0.5"/>
  </g>
  <g id="arrowDown" transform="rotate(180) translate(-30 -48)">
    <use xlink:href="#rim"/>
    <path pointer-events="none" fill="none" stroke="white" stroke-width="1.5" d="M0,-3.0v7 M-2.5,-0.5L0,-3.0L2.5,-0.5"/>
  </g>
  <g id="arrowLeft" transform="rotate(270) translate(-36 17)">
    <use xlink:href="#rim"/>
    <path pointer-events="none" fill="none" stroke="white" stroke-width="1.5" d="M0,-3.0v7 M-2.5,-0.5L0,-3.0L2.5,-0.5"/>
  </g>
  <g id="resetDef">
    <use xlink:href="#rim2" fill="#404040"><set attributeName="fill" to="#808080" begin="reset.mouseover" end="reset.mouseout"/></use>
  </g>
</defs>
<script type="application/ecmascript">
var viewWidth = 1757;
var viewHeight = 423;
var sectionId = 'dynsection-0';
</script>
<script type="application/ecmascript" xlink:href="svg.min.js"/>
<svg id="graph" class="graph">
<g id="viewport">
<title>/home/runner/work/amr&#45;wind/amr&#45;wind/src/utilities/tagging/BoxRefiner.cpp</title>
<!-- Node1 -->
<g id="Node000001" class="node">
<title>Node1</title>
<g id="a_Node000001"><a xlink:title=" ">
<polygon fill="#999999" stroke="#666666" points="1676.5,-415 1526.5,-415 1526.5,-374 1676.5,-374 1676.5,-415"/>
<text text-anchor="start" x="1534.5" y="-403" font-family="Helvetica,sans-Serif" font-size="10.00">/home/runner/work/amr</text>
<text text-anchor="start" x="1534.5" y="-392" font-family="Helvetica,sans-Serif" font-size="10.00">&#45;wind/amr&#45;wind/src/utilities</text>
<text text-anchor="middle" x="1601.5" y="-381" font-family="Helvetica,sans-Serif" font-size="10.00">/tagging/BoxRefiner.cpp</text>
</a>
</g>
</g>
<!-- Node2 -->
<g id="Node000002" class="node">
<title>Node2</title>
<g id="a_Node000002"><a xlink:href="_box_refiner_8_h.html" target="_top" xlink:title=" ">
<polygon fill="white" stroke="#666666" points="1094.5,-338 984.5,-338 984.5,-308 1094.5,-308 1094.5,-338"/>
<text text-anchor="start" x="992.5" y="-326" font-family="Helvetica,sans-Serif" font-size="10.00">src/utilities/tagging</text>
<text text-anchor="middle" x="1039.5" y="-315" font-family="Helvetica,sans-Serif" font-size="10.00">/BoxRefiner.H</text>
</a>
</g>
</g>
<!-- Node1&#45;&gt;Node2 -->
<g id="edge1_Node000001_Node000002" class="edge">
<title>Node1&#45;&gt;Node2</title>
<g id="a_edge1_Node000001_Node000002"><a xlink:title=" ">
<path fill="none" stroke="#63b8ff" d="M1526.29,-384.2C1415.43,-370.49 1209.96,-345.08 1104.96,-332.1"/>
<polygon fill="#63b8ff" stroke="#63b8ff" points="1105.17,-328.59 1094.82,-330.84 1104.31,-335.54 1105.17,-328.59"/>
</a>
</g>
</g>
<!-- Node6 -->
<g id="Node000006" class="node">
<title>Node6</title>
<g id="a_Node000006"><a xlink:title=" ">
<polygon fill="#e0e0e0" stroke="#999999" points="569.5,-19 477.5,-19 477.5,0 569.5,0 569.5,-19"/>
<text text-anchor="middle" x="523.5" y="-7" font-family="Helvetica,sans-Serif" font-size="10.00">AMReX_REAL.H</text>
</a>
</g>
</g>
<!-- Node1&#45;&gt;Node6 -->
<g id="edge42_Node000001_Node000006" class="edge">
<title>Node1&#45;&gt;Node6</title>
<g id="a_edge42_Node000001_Node000006"><a xlink:title=" ">
<path fill="none" stroke="#63b8ff" d="M1601.5,-373.75C1601.5,-347.37 1601.5,-299.17 1601.5,-258 1601.5,-258 1601.5,-258 1601.5,-129.5 1601.5,-95.33 1609.04,-76.53 1582.5,-55 1543.31,-23.21 793.41,-13.22 579.83,-11.02"/>
<polygon fill="#63b8ff" stroke="#63b8ff" points="579.8,-7.52 569.77,-10.92 579.73,-14.52 579.8,-7.52"/>
</a>
</g>
</g>
<!-- Node33 -->
<g id="Node000033" class="node">
<title>Node33</title>
<g id="a_Node000033"><a xlink:title=" ">
<polygon fill="#e0e0e0" stroke="#999999" points="1749,-332.5 1630,-332.5 1630,-313.5 1749,-313.5 1749,-332.5"/>
<text text-anchor="middle" x="1689.5" y="-320.5" font-family="Helvetica,sans-Serif" font-size="10.00">AMReX_ParmParse.H</text>
</a>
</g>
</g>
<!-- Node1&#45;&gt;Node33 -->
<g id="edge41_Node000001_Node000033" class="edge">
<title>Node1&#45;&gt;Node33</title>
<g id="a_edge41_Node000001_Node000033"><a xlink:title=" ">
<path fill="none" stroke="#63b8ff" d="M1626.48,-373.77C1640.35,-362.81 1657.35,-349.39 1670.19,-339.25"/>
<polygon fill="#63b8ff" stroke="#63b8ff" points="1672.65,-341.76 1678.33,-332.82 1668.32,-336.27 1672.65,-341.76"/>
</a>
</g>
</g>
<!-- Node3 -->
<g id="Node000003" class="node">
<title>Node3</title>
<g id="a_Node000003"><a xlink:href="_geometry_refinement_8_h.html" target="_top" xlink:title=" ">
<polygon fill="white" stroke="#666666" points="1107,-272 972,-272 972,-242 1107,-242 1107,-272"/>
<text text-anchor="start" x="980" y="-260" font-family="Helvetica,sans-Serif" font-size="10.00">src/utilities/tagging</text>
<text text-anchor="middle" x="1039.5" y="-249" font-family="Helvetica,sans-Serif" font-size="10.00">/GeometryRefinement.H</text>
</a>
</g>
</g>
<!-- Node2&#45;&gt;Node3 -->
<g id="edge2_Node000002_Node000003" class="edge">
<title>Node2&#45;&gt;Node3</title>
<g id="a_edge2_Node000002_Node000003"><a xlink:title=" ">
<path fill="none" stroke="#63b8ff" d="M1039.5,-307.8C1039.5,-300.34 1039.5,-290.99 1039.5,-282.41"/>
<polygon fill="#63b8ff" stroke="#63b8ff" points="1043,-282.16 1039.5,-272.16 1036,-282.16 1043,-282.16"/>
</a>
</g>
</g>
<!-- Node21 -->
<g id="Node000021" class="node">
<title>Node21</title>
<g id="a_Node000021"><a xlink:href="vector__space_8_h.html" target="_top" xlink:title=" ">
<polygon fill="white" stroke="#666666" points="369,-272 266,-272 266,-242 369,-242 369,-272"/>
<text text-anchor="start" x="274" y="-260" font-family="Helvetica,sans-Serif" font-size="10.00">src/core/vs/vector</text>
<text text-anchor="middle" x="317.5" y="-249" font-family="Helvetica,sans-Serif" font-size="10.00">_space.H</text>
</a>
</g>
</g>
<!-- Node2&#45;&gt;Node21 -->
<g id="edge20_Node000002_Node000021" class="edge">
<title>Node2&#45;&gt;Node21</title>
<g id="a_edge20_Node000002_Node000021"><a xlink:title=" ">
<path fill="none" stroke="#63b8ff" d="M984.34,-317.11C852.17,-305.39 518.04,-275.78 379.33,-263.48"/>
<polygon fill="#63b8ff" stroke="#63b8ff" points="379.56,-259.99 369.29,-262.59 378.95,-266.96 379.56,-259.99"/>
</a>
</g>
</g>
<!-- Node4 -->
<g id="Node000004" class="node">
<title>Node4</title>
<g id="a_Node000004"><a xlink:href="index__operations_8_h.html" target="_top" xlink:title=" ">
<polygon fill="white" stroke="#666666" points="920,-206 819,-206 819,-176 920,-176 920,-206"/>
<text text-anchor="start" x="827" y="-194" font-family="Helvetica,sans-Serif" font-size="10.00">src/utilities/index</text>
<text text-anchor="middle" x="869.5" y="-183" font-family="Helvetica,sans-Serif" font-size="10.00">_operations.H</text>
</a>
</g>
</g>
<!-- Node3&#45;&gt;Node4 -->
<g id="edge3_Node000003_Node000004" class="edge">
<title>Node3&#45;&gt;Node4</title>
<g id="a_edge3_Node000003_Node000004"><a xlink:title=" ">
<path fill="none" stroke="#63b8ff" d="M1002.19,-241.95C976.95,-232.45 943.41,-219.82 916.36,-209.64"/>
<polygon fill="#63b8ff" stroke="#63b8ff" points="917.31,-206.26 906.72,-206.01 914.85,-212.81 917.31,-206.26"/>
</a>
</g>
</g>
<!-- Node12 -->
<g id="Node000012" class="node">
<title>Node12</title>
<g id="a_Node000012"><a xlink:href="_refinement_criteria_8_h.html" target="_top" xlink:title=" ">
<polygon fill="white" stroke="#666666" points="1394.5,-206 1272.5,-206 1272.5,-176 1394.5,-176 1394.5,-206"/>
<text text-anchor="start" x="1280.5" y="-194" font-family="Helvetica,sans-Serif" font-size="10.00">src/utilities/tagging</text>
<text text-anchor="middle" x="1333.5" y="-183" font-family="Helvetica,sans-Serif" font-size="10.00">/RefinementCriteria.H</text>
</a>
</g>
</g>
<!-- Node3&#45;&gt;Node12 -->
<g id="edge11_Node000003_Node000012" class="edge">
<title>Node3&#45;&gt;Node12</title>
<g id="a_edge11_Node000003_Node000012"><a xlink:title=" ">
<path fill="none" stroke="#63b8ff" d="M1104.02,-241.95C1150.73,-231.79 1213.87,-218.04 1262.09,-207.54"/>
<polygon fill="#63b8ff" stroke="#63b8ff" points="1263.12,-210.9 1272.15,-205.36 1261.63,-204.06 1263.12,-210.9"/>
</a>
</g>
</g>
<!-- Node5 -->
<g id="Node000005" class="node">
<title>Node5</title>
<g id="a_Node000005"><a xlink:title=" ">
<polygon fill="#e0e0e0" stroke="#999999" points="1203.5,-140 1139.5,-140 1139.5,-121 1203.5,-121 1203.5,-140"/>
<text text-anchor="middle" x="1171.5" y="-128" font-family="Helvetica,sans-Serif" font-size="10.00">algorithm</text>
</a>
</g>
</g>
<!-- Node4&#45;&gt;Node5 -->
<g id="edge4_Node000004_Node000005" class="edge">
<title>Node4&#45;&gt;Node5</title>
<g id="a_edge4_Node000004_Node000005"><a xlink:title=" ">
<path fill="none" stroke="#63b8ff" d="M920.34,-180.37C972.78,-170.41 1056.89,-154.33 1129.5,-140 1129.6,-139.98 1129.7,-139.96 1129.8,-139.94"/>
<polygon fill="#63b8ff" stroke="#63b8ff" points="1130.28,-143.41 1139.4,-138.03 1128.91,-136.55 1130.28,-143.41"/>
</a>
</g>
</g>
<!-- Node4&#45;&gt;Node6 -->
<g id="edge5_Node000004_Node000006" class="edge">
<title>Node4&#45;&gt;Node6</title>
<g id="a_edge5_Node000004_Node000006"><a xlink:title=" ">
<path fill="none" stroke="#63b8ff" d="M818.72,-190.45C731.8,-190.03 560.21,-183.53 522.5,-140 495.6,-108.94 507.61,-56.24 516.69,-28.62"/>
<polygon fill="#63b8ff" stroke="#63b8ff" points="520.04,-29.65 520.05,-19.05 513.44,-27.32 520.04,-29.65"/>
</a>
</g>
</g>
<!-- Node7 -->
<g id="Node000007" class="node">
<title>Node7</title>
<g id="a_Node000007"><a xlink:title=" ">
<polygon fill="#e0e0e0" stroke="#999999" points="629.5,-140 531.5,-140 531.5,-121 629.5,-121 629.5,-140"/>
<text text-anchor="middle" x="580.5" y="-128" font-family="Helvetica,sans-Serif" font-size="10.00">AMReX_Vector.H</text>
</a>
</g>
</g>
<!-- Node4&#45;&gt;Node7 -->
<g id="edge6_Node000004_Node000007" class="edge">
<title>Node4&#45;&gt;Node7</title>
<g id="a_edge6_Node000004_Node000007"><a xlink:title=" ">
<path fill="none" stroke="#63b8ff" d="M818.83,-179.74C766.51,-169.15 685.29,-152.71 632.49,-142.02"/>
<polygon fill="#63b8ff" stroke="#63b8ff" points="633.15,-138.59 622.65,-140.03 631.76,-145.45 633.15,-138.59"/>
</a>
</g>
</g>
<!-- Node8 -->
<g id="Node000008" class="node">
<title>Node8</title>
<g id="a_Node000008"><a xlink:title=" ">
<polygon fill="#e0e0e0" stroke="#999999" points="733.5,-140 647.5,-140 647.5,-121 733.5,-121 733.5,-140"/>
<text text-anchor="middle" x="690.5" y="-128" font-family="Helvetica,sans-Serif" font-size="10.00">AMReX_Box.H</text>
</a>
</g>
</g>
<!-- Node4&#45;&gt;Node8 -->
<g id="edge7_Node000004_Node000008" class="edge">
<title>Node4&#45;&gt;Node8</title>
<g id="a_edge7_Node000004_Node000008"><a xlink:title=" ">
<path fill="none" stroke="#63b8ff" d="M826.63,-175.99C796,-165.98 755.27,-152.67 726.37,-143.22"/>
<polygon fill="#63b8ff" stroke="#63b8ff" points="727.27,-139.83 716.67,-140.05 725.09,-146.49 727.27,-139.83"/>
</a>
</g>
</g>
<!-- Node9 -->
<g id="Node000009" class="node">
<title>Node9</title>
<g id="a_Node000009"><a xlink:title=" ">
<polygon fill="#e0e0e0" stroke="#999999" points="859.5,-140 751.5,-140 751.5,-121 859.5,-121 859.5,-140"/>
<text text-anchor="middle" x="805.5" y="-128" font-family="Helvetica,sans-Serif" font-size="10.00">AMReX_RealBox.H</text>
</a>
</g>
</g>
<!-- Node4&#45;&gt;Node9 -->
<g id="edge8_Node000004_Node000009" class="edge">
<title>Node4&#45;&gt;Node9</title>
<g id="a_edge8_Node000004_Node000009"><a xlink:title=" ">
<path fill="none" stroke="#63b8ff" d="M854.01,-175.84C844.53,-167.17 832.39,-156.08 822.62,-147.15"/>
<polygon fill="#63b8ff" stroke="#63b8ff" points="824.83,-144.43 815.09,-140.27 820.11,-149.6 824.83,-144.43"/>
</a>
</g>
</g>
<!-- Node10 -->
<g id="Node000010" class="node">
<title>Node10</title>
<g id="a_Node000010"><a xlink:title=" ">
<polygon fill="#e0e0e0" stroke="#999999" points="987.5,-140 877.5,-140 877.5,-121 987.5,-121 987.5,-140"/>
<text text-anchor="middle" x="932.5" y="-128" font-family="Helvetica,sans-Serif" font-size="10.00">AMReX_RealVect.H</text>
</a>
</g>
</g>
<!-- Node4&#45;&gt;Node10 -->
<g id="edge9_Node000004_Node000010" class="edge">
<title>Node4&#45;&gt;Node10</title>
<g id="a_edge9_Node000004_Node000010"><a xlink:title=" ">
<path fill="none" stroke="#63b8ff" d="M884.75,-175.84C894.08,-167.17 906.03,-156.08 915.65,-147.15"/>
<polygon fill="#63b8ff" stroke="#63b8ff" points="918.11,-149.64 923.06,-140.27 913.35,-144.51 918.11,-149.64"/>
</a>
</g>
</g>
<!-- Node11 -->
<g id="Node000011" class="node">
<title>Node11</title>
<g id="a_Node000011"><a xlink:title=" ">
<polygon fill="#e0e0e0" stroke="#999999" points="1121,-140 1006,-140 1006,-121 1121,-121 1121,-140"/>
<text text-anchor="middle" x="1063.5" y="-128" font-family="Helvetica,sans-Serif" font-size="10.00">AMReX_Geometry.H</text>
</a>
</g>
</g>
<!-- Node4&#45;&gt;Node11 -->
<g id="edge10_Node000004_Node000011" class="edge">
<title>Node4&#45;&gt;Node11</title>
<g id="a_edge10_Node000004_Node000011"><a xlink:title=" ">
<path fill="none" stroke="#63b8ff" d="M915.97,-175.99C949.45,-165.89 994.07,-152.44 1025.44,-142.98"/>
<polygon fill="#63b8ff" stroke="#63b8ff" points="1026.57,-146.29 1035.13,-140.05 1024.55,-139.59 1026.57,-146.29"/>
</a>
</g>
</g>
<!-- Node13 -->
<g id="Node000013" class="node">
<title>Node13</title>
<g id="a_Node000013"><a xlink:title=" ">
<polygon fill="#e0e0e0" stroke="#999999" points="1573.5,-140 1463.5,-140 1463.5,-121 1573.5,-121 1573.5,-140"/>
<text text-anchor="middle" x="1518.5" y="-128" font-family="Helvetica,sans-Serif" font-size="10.00">AMReX_AmrCore.H</text>
</a>
</g>
</g>
<!-- Node12&#45;&gt;Node13 -->
<g id="edge12_Node000012_Node000013" class="edge">
<title>Node12&#45;&gt;Node13</title>
<g id="a_edge12_Node000012_Node000013"><a xlink:title=" ">
<path fill="none" stroke="#63b8ff" d="M1377.81,-175.99C1409.6,-165.94 1451.92,-152.55 1481.82,-143.1"/>
<polygon fill="#63b8ff" stroke="#63b8ff" points="1482.97,-146.41 1491.45,-140.05 1480.86,-139.73 1482.97,-146.41"/>
</a>
</g>
</g>
<!-- Node14 -->
<g id="Node000014" class="node">
<title>Node14</title>
<g id="a_Node000014"><a xlink:title=" ">
<polygon fill="#e0e0e0" stroke="#999999" points="1325,-140 1222,-140 1222,-121 1325,-121 1325,-140"/>
<text text-anchor="middle" x="1273.5" y="-128" font-family="Helvetica,sans-Serif" font-size="10.00">AMReX_TagBox.H</text>
</a>
</g>
</g>
<!-- Node12&#45;&gt;Node14 -->
<g id="edge13_Node000012_Node000014" class="edge">
<title>Node12&#45;&gt;Node14</title>
<g id="a_edge13_Node000012_Node000014"><a xlink:title=" ">
<path fill="none" stroke="#63b8ff" d="M1318.98,-175.84C1310.18,-167.26 1298.93,-156.3 1289.83,-147.42"/>
<polygon fill="#63b8ff" stroke="#63b8ff" points="1292.09,-144.74 1282.49,-140.27 1287.21,-149.75 1292.09,-144.74"/>
</a>
</g>
</g>
<!-- Node15 -->
<g id="Node000015" class="node">
<title>Node15</title>
<g id="a_Node000015"><a xlink:href="_factory_8_h.html" target="_top" xlink:title=" ">
<polygon fill="white" stroke="#666666" points="1445.5,-140 1343.5,-140 1343.5,-121 1445.5,-121 1445.5,-140"/>
<text text-anchor="middle" x="1394.5" y="-128" font-family="Helvetica,sans-Serif" font-size="10.00">src/core/Factory.H</text>
</a>
</g>
</g>
<!-- Node12&#45;&gt;Node15 -->
<g id="edge14_Node000012_Node000015" class="edge">
<title>Node12&#45;&gt;Node15</title>
<g id="a_edge14_Node000012_Node000015"><a xlink:title=" ">
<path fill="none" stroke="#63b8ff" d="M1348.27,-175.84C1357.21,-167.26 1368.64,-156.3 1377.9,-147.42"/>
<polygon fill="#63b8ff" stroke="#63b8ff" points="1380.56,-149.71 1385.36,-140.27 1375.72,-144.66 1380.56,-149.71"/>
</a>
</g>
</g>
<!-- Node16 -->
<g id="Node000016" class="node">
<title>Node16</title>
<g id="a_Node000016"><a xlink:title=" ">
<polygon fill="#e0e0e0" stroke="#999999" points="1275.5,-79.5 1217.5,-79.5 1217.5,-60.5 1275.5,-60.5 1275.5,-79.5"/>
<text text-anchor="middle" x="1246.5" y="-67.5" font-family="Helvetica,sans-Serif" font-size="10.00">memory</text>
</a>
</g>
</g>
<!-- Node15&#45;&gt;Node16 -->
<g id="edge15_Node000015_Node000016" class="edge">
<title>Node15&#45;&gt;Node16</title>
<g id="a_edge15_Node000015_Node000016"><a xlink:title=" ">
<path fill="none" stroke="#63b8ff" d="M1372.98,-120.99C1347.88,-111.07 1306.18,-94.59 1277.57,-83.28"/>
<polygon fill="#63b8ff" stroke="#63b8ff" points="1278.63,-79.94 1268.05,-79.52 1276.06,-86.45 1278.63,-79.94"/>
</a>
</g>
</g>
<!-- Node17 -->
<g id="Node000017" class="node">
<title>Node17</title>
<g id="a_Node000017"><a xlink:title=" ">
<polygon fill="#e0e0e0" stroke="#999999" points="1387,-79.5 1294,-79.5 1294,-60.5 1387,-60.5 1387,-79.5"/>
<text text-anchor="middle" x="1340.5" y="-67.5" font-family="Helvetica,sans-Serif" font-size="10.00">unordered_map</text>
</a>
</g>
</g>
<!-- Node15&#45;&gt;Node17 -->
<g id="edge16_Node000015_Node000017" class="edge">
<title>Node15&#45;&gt;Node17</title>
<g id="a_edge16_Node000015_Node000017"><a xlink:title=" ">
<path fill="none" stroke="#63b8ff" d="M1386.53,-120.87C1378.4,-112.05 1365.57,-98.16 1355.52,-87.27"/>
<polygon fill="#63b8ff" stroke="#63b8ff" points="1357.86,-84.64 1348.5,-79.67 1352.71,-89.39 1357.86,-84.64"/>
</a>
</g>
</g>
<!-- Node18 -->
<g id="Node000018" class="node">
<title>Node18</title>
<g id="a_Node000018"><a xlink:title=" ">
<polygon fill="#e0e0e0" stroke="#999999" points="1465.5,-79.5 1405.5,-79.5 1405.5,-60.5 1465.5,-60.5 1465.5,-79.5"/>
<text text-anchor="middle" x="1435.5" y="-67.5" font-family="Helvetica,sans-Serif" font-size="10.00">iostream</text>
</a>
</g>
</g>
<!-- Node15&#45;&gt;Node18 -->
<g id="edge17_Node000015_Node000018" class="edge">
<title>Node15&#45;&gt;Node18</title>
<g id="a_edge17_Node000015_Node000018"><a xlink:title=" ">
<path fill="none" stroke="#63b8ff" d="M1400.55,-120.87C1406.61,-112.23 1416.09,-98.7 1423.64,-87.92"/>
<polygon fill="#63b8ff" stroke="#63b8ff" points="1426.55,-89.87 1429.43,-79.67 1420.82,-85.85 1426.55,-89.87"/>
</a>
</g>
</g>
<!-- Node19 -->
<g id="Node000019" class="node">
<title>Node19</title>
<g id="a_Node000019"><a xlink:title=" ">
<polygon fill="#e0e0e0" stroke="#999999" points="1573.5,-79.5 1483.5,-79.5 1483.5,-60.5 1573.5,-60.5 1573.5,-79.5"/>
<text text-anchor="middle" x="1528.5" y="-67.5" font-family="Helvetica,sans-Serif" font-size="10.00">AMReX_Print.H</text>
</a>
</g>
</g>
<!-- Node15&#45;&gt;Node19 -->
<g id="edge18_Node000015_Node000019" class="edge">
<title>Node15&#45;&gt;Node19</title>
<g id="a_edge18_Node000015_Node000019"><a xlink:title=" ">
<path fill="none" stroke="#63b8ff" d="M1413.98,-120.99C1436.51,-111.16 1473.81,-94.88 1499.69,-83.58"/>
<polygon fill="#63b8ff" stroke="#63b8ff" points="1501.23,-86.73 1508.99,-79.52 1498.43,-80.31 1501.23,-86.73"/>
</a>
</g>
</g>
<!-- Node20 -->
<g id="Node000020" class="node">
<title>Node20</title>
<g id="a_Node000020"><a xlink:title=" ">
<polygon fill="#e0e0e0" stroke="#999999" points="1199.5,-79.5 1137.5,-79.5 1137.5,-60.5 1199.5,-60.5 1199.5,-79.5"/>
<text text-anchor="middle" x="1168.5" y="-67.5" font-family="Helvetica,sans-Serif" font-size="10.00">AMReX.H</text>
</a>
</g>
</g>
<!-- Node15&#45;&gt;Node20 -->
<g id="edge19_Node000015_Node000020" class="edge">
<title>Node15&#45;&gt;Node20</title>
<g id="a_edge19_Node000015_Node000020"><a xlink:title=" ">
<path fill="none" stroke="#63b8ff" d="M1353.55,-120.96C1315.65,-112.76 1257.88,-99.51 1208.5,-85 1206.09,-84.29 1203.61,-83.52 1201.13,-82.73"/>
<polygon fill="#63b8ff" stroke="#63b8ff" points="1202.23,-79.4 1191.64,-79.55 1200.01,-86.04 1202.23,-79.4"/>
</a>
</g>
</g>
<!-- Node22 -->
<g id="Node000022" class="node">
<title>Node22</title>
<g id="a_Node000022"><a xlink:href="vector_8_h.html" target="_top" xlink:title=" ">
<polygon fill="white" stroke="#666666" points="289,-140 176,-140 176,-121 289,-121 289,-140"/>
<text text-anchor="middle" x="232.5" y="-128" font-family="Helvetica,sans-Serif" font-size="10.00">src/core/vs/vector.H</text>
</a>
</g>
</g>
<!-- Node21&#45;&gt;Node22 -->
<g id="edge21_Node000021_Node000022" class="edge">
<title>Node21&#45;&gt;Node22</title>
<g id="a_edge21_Node000021_Node000022"><a xlink:title=" ">
<path fill="none" stroke="#63b8ff" d="M316.95,-241.75C315.66,-224.7 311.4,-195.98 297.5,-176 288.33,-162.81 273.88,-152.35 260.94,-144.9"/>
<polygon fill="#63b8ff" stroke="#63b8ff" points="262.34,-141.68 251.87,-140.01 259.01,-147.84 262.34,-141.68"/>
</a>
</g>
</g>
<!-- Node29 -->
<g id="Node000029" class="node">
<title>Node29</title>
<g id="a_Node000029"><a xlink:href="tensor_8_h.html" target="_top" xlink:title=" ">
<polygon fill="white" stroke="#666666" points="289,-200.5 176,-200.5 176,-181.5 289,-181.5 289,-200.5"/>
<text text-anchor="middle" x="232.5" y="-188.5" font-family="Helvetica,sans-Serif" font-size="10.00">src/core/vs/tensor.H</text>
</a>
</g>
</g>
<!-- Node21&#45;&gt;Node29 -->
<g id="edge29_Node000021_Node000029" class="edge">
<title>Node21&#45;&gt;Node29</title>
<g id="a_edge29_Node000021_Node000029"><a xlink:title=" ">
<path fill="none" stroke="#63b8ff" d="M298.64,-241.8C284.86,-231.43 266.24,-217.4 252.26,-206.88"/>
<polygon fill="#63b8ff" stroke="#63b8ff" points="254.34,-204.06 244.25,-200.84 250.13,-209.66 254.34,-204.06"/>
</a>
</g>
</g>
<!-- Node23 -->
<g id="Node000023" class="node">
<title>Node23</title>
<g id="a_Node000023"><a xlink:title=" ">
<polygon fill="#e0e0e0" stroke="#999999" points="227,-19 140,-19 140,0 227,0 227,-19"/>
<text text-anchor="middle" x="183.5" y="-7" font-family="Helvetica,sans-Serif" font-size="10.00">AMReX_Gpu.H</text>
</a>
</g>
</g>
<!-- Node22&#45;&gt;Node23 -->
<g id="edge22_Node000022_Node000023" class="edge">
<title>Node22&#45;&gt;Node23</title>
<g id="a_edge22_Node000022_Node000023"><a xlink:title=" ">
<path fill="none" stroke="#63b8ff" d="M225.91,-120.72C219.65,-112.04 210.36,-98.18 204.5,-85 196.33,-66.62 190.54,-44.27 187.13,-28.87"/>
<polygon fill="#63b8ff" stroke="#63b8ff" points="190.55,-28.11 185.07,-19.04 183.7,-29.55 190.55,-28.11"/>
</a>
</g>
</g>
<!-- Node24 -->
<g id="Node000024" class="node">
<title>Node24</title>
<g id="a_Node000024"><a xlink:href="vstraits_8_h.html" target="_top" xlink:title=" ">
<polygon fill="white" stroke="#666666" points="119,-79.5 0,-79.5 0,-60.5 119,-60.5 119,-79.5"/>
<text text-anchor="middle" x="59.5" y="-67.5" font-family="Helvetica,sans-Serif" font-size="10.00">src/core/vs/vstraits.H</text>
</a>
</g>
</g>
<!-- Node22&#45;&gt;Node24 -->
<g id="edge23_Node000022_Node000024" class="edge">
<title>Node22&#45;&gt;Node24</title>
<g id="a_edge23_Node000022_Node000024"><a xlink:title=" ">
<path fill="none" stroke="#63b8ff" d="M207.34,-120.99C177.62,-110.94 127.98,-94.16 94.51,-82.84"/>
<polygon fill="#63b8ff" stroke="#63b8ff" points="95.28,-79.4 84.69,-79.52 93.04,-86.04 95.28,-79.4"/>
</a>
</g>
</g>
<!-- Node26 -->
<g id="Node000026" class="node">
<title>Node26</title>
<g id="a_Node000026"><a xlink:href="vector_i_8_h.html" target="_top" xlink:title=" ">
<polygon fill="white" stroke="#666666" points="329.5,-79.5 213.5,-79.5 213.5,-60.5 329.5,-60.5 329.5,-79.5"/>
<text text-anchor="middle" x="271.5" y="-67.5" font-family="Helvetica,sans-Serif" font-size="10.00">src/core/vs/vectorI.H</text>
</a>
</g>
</g>
<!-- Node22&#45;&gt;Node26 -->
<g id="edge25_Node000022_Node000026" class="edge">
<title>Node22&#45;&gt;Node26</title>
<g id="a_edge25_Node000022_Node000026"><a xlink:title=" ">
<path fill="none" stroke="#63b8ff" d="M233.3,-120.87C237.23,-112.14 245.97,-98.43 254.28,-87.59"/>
<polygon fill="#63b8ff" stroke="#63b8ff" points="257.14,-89.63 260.76,-79.67 251.72,-85.2 257.14,-89.63"/>
</a>
</g>
</g>
<!-- Node25 -->
<g id="Node000025" class="node">
<title>Node25</title>
<g id="a_Node000025"><a xlink:title=" ">
<polygon fill="#e0e0e0" stroke="#999999" points="81.5,-19 37.5,-19 37.5,0 81.5,0 81.5,-19"/>
<text text-anchor="middle" x="59.5" y="-7" font-family="Helvetica,sans-Serif" font-size="10.00">limits</text>
</a>
</g>
</g>
<!-- Node24&#45;&gt;Node25 -->
<g id="edge24_Node000024_Node000025" class="edge">
<title>Node24&#45;&gt;Node25</title>
<g id="a_edge24_Node000024_Node000025"><a xlink:title=" ">
<path fill="none" stroke="#63b8ff" d="M59.5,-60.37C59.5,-52.25 59.5,-39.81 59.5,-29.39"/>
<polygon fill="#63b8ff" stroke="#63b8ff" points="63,-29.17 59.5,-19.17 56,-29.17 63,-29.17"/>
</a>
</g>
</g>
<!-- Node26&#45;&gt;Node22 -->
<g id="edge28_Node000026_Node000022" class="edge">
<title>Node26&#45;&gt;Node22</title>
<g id="a_edge28_Node000026_Node000022"><a xlink:title=" ">
<path fill="none" stroke="#63b8ff" d="M270.68,-79.67C266.74,-88.41 257.99,-102.12 249.68,-112.95"/>
<polygon fill="#63b8ff" stroke="#63b8ff" points="246.83,-110.91 243.21,-120.87 252.25,-115.34 246.83,-110.91"/>
</a>
</g>
</g>
<!-- Node27 -->
<g id="Node000027" class="node">
<title>Node27</title>
<g id="a_Node000027"><a xlink:title=" ">
<polygon fill="#e0e0e0" stroke="#999999" points="302,-19 245,-19 245,0 302,0 302,-19"/>
<text text-anchor="middle" x="273.5" y="-7" font-family="Helvetica,sans-Serif" font-size="10.00">ostream</text>
</a>
</g>
</g>
<!-- Node26&#45;&gt;Node27 -->
<g id="edge26_Node000026_Node000027" class="edge">
<title>Node26&#45;&gt;Node27</title>
<g id="a_edge26_Node000026_Node000027"><a xlink:title=" ">
<path fill="none" stroke="#63b8ff" d="M271.8,-60.37C272.07,-52.25 272.5,-39.81 272.85,-29.39"/>
<polygon fill="#63b8ff" stroke="#63b8ff" points="276.36,-29.28 273.2,-19.17 269.36,-29.04 276.36,-29.28"/>
</a>
</g>
</g>
<!-- Node28 -->
<g id="Node000028" class="node">
<title>Node28</title>
<g id="a_Node000028"><a xlink:title=" ">
<polygon fill="#e0e0e0" stroke="#999999" points="381,-19 334,-19 334,0 381,0 381,-19"/>
<text text-anchor="middle" x="357.5" y="-7" font-family="Helvetica,sans-Serif" font-size="10.00">cmath</text>
</a>
</g>
</g>
<!-- Node26&#45;&gt;Node28 -->
<g id="edge27_Node000026_Node000028" class="edge">
<title>Node26&#45;&gt;Node28</title>
<g id="a_edge27_Node000026_Node000028"><a xlink:title=" ">
<path fill="none" stroke="#63b8ff" d="M284.19,-60.37C297.91,-51.04 320,-36.01 336.35,-24.88"/>
<polygon fill="#63b8ff" stroke="#63b8ff" points="338.46,-27.69 344.76,-19.17 334.52,-21.9 338.46,-27.69"/>
</a>
</g>
</g>
<!-- Node29&#45;&gt;Node22 -->
<g id="edge32_Node000029_Node000022" class="edge">
<title>Node29&#45;&gt;Node22</title>
<g id="a_edge32_Node000029_Node000022"><a xlink:title=" ">
<path fill="none" stroke="#63b8ff" d="M232.5,-181.37C232.5,-173.25 232.5,-160.81 232.5,-150.39"/>
<polygon fill="#63b8ff" stroke="#63b8ff" points="236,-150.17 232.5,-140.17 229,-150.17 236,-150.17"/>
</a>
</g>
</g>
<!-- Node29&#45;&gt;Node23 -->
<g id="edge30_Node000029_Node000023" class="edge">
<title>Node29&#45;&gt;Node23</title>
<g id="a_edge30_Node000029_Node000023"><a xlink:title=" ">
<path fill="none" stroke="#63b8ff" d="M213.17,-181.48C197.39,-173.34 176.16,-159.44 166.5,-140 148.41,-103.59 164,-54.66 174.96,-28.6"/>
<polygon fill="#63b8ff" stroke="#63b8ff" points="178.27,-29.79 179.13,-19.23 171.87,-26.95 178.27,-29.79"/>
</a>
</g>
</g>
<!-- Node29&#45;&gt;Node24 -->
<g id="edge31_Node000029_Node000024" class="edge">
<title>Node29&#45;&gt;Node24</title>
<g id="a_edge31_Node000029_Node000024"><a xlink:title=" ">
<path fill="none" stroke="#63b8ff" d="M211.45,-181.45C190.72,-172.56 158.61,-157.52 133.5,-140 111.13,-124.4 88.68,-102.34 74.47,-87.4"/>
<polygon fill="#63b8ff" stroke="#63b8ff" points="76.86,-84.83 67.48,-79.92 71.75,-89.61 76.86,-84.83"/>
</a>
</g>
</g>
<!-- Node30 -->
<g id="Node000030" class="node">
<title>Node30</title>
<g id="a_Node000030"><a xlink:href="tensor_i_8_h.html" target="_top" xlink:title=" ">
<polygon fill="white" stroke="#666666" points="423.5,-140 307.5,-140 307.5,-121 423.5,-121 423.5,-140"/>
<text text-anchor="middle" x="365.5" y="-128" font-family="Helvetica,sans-Serif" font-size="10.00">src/core/vs/tensorI.H</text>
</a>
</g>
</g>
<!-- Node29&#45;&gt;Node30 -->
<g id="edge33_Node000029_Node000030" class="edge">
<title>Node29&#45;&gt;Node30</title>
<g id="a_edge33_Node000029_Node000030"><a xlink:title=" ">
<path fill="none" stroke="#63b8ff" d="M246.91,-181.49C267.21,-171.62 304.21,-155.23 331.6,-143.93"/>
<polygon fill="#63b8ff" stroke="#63b8ff" points="333.27,-147.03 341.21,-140.02 330.63,-140.55 333.27,-147.03"/>
</a>
</g>
</g>
<!-- Node30&#45;&gt;Node28 -->
<g id="edge34_Node000030_Node000028" class="edge">
<title>Node30&#45;&gt;Node28</title>
<g id="a_edge34_Node000030_Node000028"><a xlink:title=" ">
<path fill="none" stroke="#63b8ff" d="M364.92,-120.94C363.65,-101.91 360.54,-55.69 358.78,-29.47"/>
<polygon fill="#63b8ff" stroke="#63b8ff" points="362.25,-29.04 358.09,-19.3 355.27,-29.51 362.25,-29.04"/>
</a>
</g>
</g>
<!-- Node30&#45;&gt;Node29 -->
<g id="edge35_Node000030_Node000029" class="edge">
<title>Node30&#45;&gt;Node29</title>
<g id="a_edge35_Node000030_Node000029"><a xlink:title=" ">
<path fill="none" stroke="#63b8ff" d="M351.07,-140.02C330.76,-149.9 293.75,-166.28 266.37,-177.58"/>
<polygon fill="#63b8ff" stroke="#63b8ff" points="264.71,-174.48 256.77,-181.49 267.35,-180.96 264.71,-174.48"/>
</a>
</g>
</g>
<!-- Node31 -->
<g id="Node000031" class="node">
<title>Node31</title>
<g id="a_Node000031"><a xlink:href="trig__ops_8_h.html" target="_top" xlink:title=" ">
<polygon fill="white" stroke="#666666" points="475.5,-85 385.5,-85 385.5,-55 475.5,-55 475.5,-85"/>
<text text-anchor="start" x="393.5" y="-73" font-family="Helvetica,sans-Serif" font-size="10.00">src/utilities/trig</text>
<text text-anchor="middle" x="430.5" y="-62" font-family="Helvetica,sans-Serif" font-size="10.00">_ops.H</text>
</a>
</g>
</g>
<!-- Node30&#45;&gt;Node31 -->
<g id="edge36_Node000030_Node000031" class="edge">
<title>Node30&#45;&gt;Node31</title>
<g id="a_edge36_Node000030_Node000031"><a xlink:title=" ">
<path fill="none" stroke="#63b8ff" d="M375.09,-120.87C383.5,-113.3 396.08,-101.98 407.13,-92.04"/>
<polygon fill="#63b8ff" stroke="#63b8ff" points="409.73,-94.41 414.82,-85.11 405.04,-89.2 409.73,-94.41"/>
</a>
</g>
</g>
<!-- Node31&#45;&gt;Node6 -->
<g id="edge39_Node000031_Node000006" class="edge">
<title>Node31&#45;&gt;Node6</title>
<g id="a_edge39_Node000031_Node000006"><a xlink:title=" ">
<path fill="none" stroke="#63b8ff" d="M453.01,-54.84C467.56,-45.68 486.43,-33.82 500.99,-24.66"/>
<polygon fill="#63b8ff" stroke="#63b8ff" points="503.24,-27.38 509.84,-19.09 499.51,-21.46 503.24,-27.38"/>
</a>
</g>
</g>
<!-- Node31&#45;&gt;Node23 -->
<g id="edge40_Node000031_Node000023" class="edge">
<title>Node31&#45;&gt;Node23</title>
<g id="a_edge40_Node000031_Node000023"><a xlink:title=" ">
<path fill="none" stroke="#63b8ff" d="M385.48,-58.34C341.21,-47.85 273.94,-31.92 229.37,-21.36"/>
<polygon fill="#63b8ff" stroke="#63b8ff" points="229.93,-17.9 219.39,-19 228.32,-24.71 229.93,-17.9"/>
</a>
</g>
</g>
<!-- Node31&#45;&gt;Node28 -->
<g id="edge37_Node000031_Node000028" class="edge">
<title>Node31&#45;&gt;Node28</title>
<g id="a_edge37_Node000031_Node000028"><a xlink:title=" ">
<path fill="none" stroke="#63b8ff" d="M412.83,-54.84C401.8,-46 387.61,-34.63 376.37,-25.62"/>
<polygon fill="#63b8ff" stroke="#63b8ff" points="378.43,-22.79 368.44,-19.27 374.05,-28.25 378.43,-22.79"/>
</a>
</g>
</g>
<!-- Node32 -->
<g id="Node000032" class="node">
<title>Node32</title>
<g id="a_Node000032"><a xlink:title=" ">
<polygon fill="#e0e0e0" stroke="#999999" points="459,-19 400,-19 400,0 459,0 459,-19"/>
<text text-anchor="middle" x="429.5" y="-7" font-family="Helvetica,sans-Serif" font-size="10.00">numbers</text>
</a>
</g>
</g>
<!-- Node31&#45;&gt;Node32 -->
<g id="edge38_Node000031_Node000032" class="edge">
<title>Node31&#45;&gt;Node32</title>
<g id="a_edge38_Node000031_Node000032"><a xlink:title=" ">
<path fill="none" stroke="#63b8ff" d="M430.26,-54.84C430.13,-47.21 429.97,-37.7 429.82,-29.45"/>
<polygon fill="#63b8ff" stroke="#63b8ff" points="433.32,-29.2 429.65,-19.27 426.32,-29.32 433.32,-29.2"/>
</a>
</g>
</g>
</g>
</svg>

<g id="navigator" transform="translate(0 0)" fill="#404254">
  <rect fill="#f2f5e9" fill-opacity="0.5" stroke="#606060" stroke-width=".5" x="0" y="0" width="60" height="60"/>
  <use id="zoomplus" xlink:href="#zoomPlus" x="17" y="9" onmousedown="handleZoom(evt,'in')"/>
  <use id="zoomminus" xlink:href="#zoomMin" x="42" y="9" onmousedown="handleZoom(evt,'out')"/>
  <use id="reset" xlink:href="#resetDef" x="30" y="36" onmousedown="handleReset()"/>
   <use id="arrowup" xlink:href="#arrowUp" x="0" y="0" onmousedown="handlePan(0,-1)"/>
  <use id="arrowright" xlink:href="#arrowRight" x="0" y="0" onmousedown="handlePan(1,0)"/>
  <use id="arrowdown" xlink:href="#arrowDown" x="0" y="0" onmousedown="handlePan(0,1)"/>
  <use id="arrowleft" xlink:href="#arrowLeft" x="0" y="0" onmousedown="handlePan(-1,0)"/>
</g>
<svg viewBox="0 0 15 15" width="100%" height="30px" preserveAspectRatio="xMaxYMin meet">
 <g id="arrow_out" transform="scale(0.3 0.3)">
  <a xlink:href="_box_refiner_8cpp__incl_org.svg" target="_base">
   <rect id="button" ry="5" rx="5" y="6" x="6" height="38" width="38"
        fill="#f2f5e9" fill-opacity="0.5" stroke="#606060" stroke-width="1.0"/>
   <path id="arrow"
     d="M 11.500037,31.436501 C 11.940474,20.09759 22.043105,11.32322 32.158766,21.979434 L 37.068811,17.246167 C 37.068811,17.246167 37.088388,32 37.088388,32 L 22.160133,31.978069 C 22.160133,31.978069 26.997745,27.140456 26.997745,27.140456 C 18.528582,18.264221 13.291696,25.230495 11.500037,31.436501 z"
     style="fill:#404040;"/>
  </a>
 </g>
</svg>

<style type='text/css'>
<![CDATA[
[data-mouse-over-selected='false'] { opacity: 0.7; }
[data-mouse-over-selected='true']  { opacity: 1.0; }
]]>
</style>
<script type="application/ecmascript"><![CDATA[
document.addEventListener('DOMContentLoaded', (event) => {
  highlightEdges();
  highlightAdjacentNodes();
});
]]></script>
</svg>
