<?xml version="1.0" encoding="UTF-8" standalone="no"?>
<!DOCTYPE svg PUBLIC "-//W3C//DTD SVG 1.1//EN"
 "http://www.w3.org/Graphics/SVG/1.1/DTD/svg11.dtd">
<!-- Generated by graphviz version 2.43.0 (0)
 -->
<!-- Title: /home/runner/work/amr&#45;wind/amr&#45;wind/src/utilities/tagging/BoxRefiner.H Pages: 1 -->
<!--zoomable 357 -->

<svg id="main" version="1.1" xmlns="http://www.w3.org/2000/svg" xmlns:xlink="http://www.w3.org/1999/xlink" xml:space="preserve" onload="init(evt)">

<style type="text/css"><![CDATA[
.node, .edge {opacity: 0.7;}
.node.selected, .edge.selected {opacity: 1;}
.edge:hover path { stroke: red; }
.edge:hover polygon { stroke: red; fill: red; }
]]></style>

<defs>
  <circle id="rim" cx="0" cy="0" r="7"/>
  <circle id="rim2" cx="0" cy="0" r="3.5"/>
  <g id="zoomPlus">
    <use xlink:href="#rim" fill="#404040"><set attributeName="fill" to="#808080" begin="zoomplus.mouseover" end="zoomplus.mouseout"/></use>
    <path d="M-4,0h8M0,-4v8" fill="none" stroke="white" stroke-width="1.5" pointer-events="none"/>
  </g>
  <g id="zoomMin">
    <use xlink:href="#rim" fill="#404040"><set attributeName="fill" to="#808080" begin="zoomminus.mouseover" end="zoomminus.mouseout"/></use>
    <path d="M-4,0h8" fill="none" stroke="white" stroke-width="1.5" pointer-events="none"/>
  </g>
  <g id="arrowUp" transform="translate(30 24)">
    <use xlink:href="#rim"/>
    <path pointer-events="none" fill="none" stroke="white" stroke-width="1.5" d="M0,-3.0v7 M-2.5,-0.5L0,-3.0L2.5,-0.5"/>
  </g>
  <g id="arrowRight" transform="rotate(90) translate(36 -43)">
    <use xlink:href="#rim"/>
    <path pointer-events="none" fill="none" stroke="white" stroke-width="1.5" d="M0,-3.0v7 M-2.5,-0.5L0,-3.0L2.5,-0.5"/>
  </g>
  <g id="arrowDown" transform="rotate(180) translate(-30 -48)">
    <use xlink:href="#rim"/>
    <path pointer-events="none" fill="none" stroke="white" stroke-width="1.5" d="M0,-3.0v7 M-2.5,-0.5L0,-3.0L2.5,-0.5"/>
  </g>
  <g id="arrowLeft" transform="rotate(270) translate(-36 17)">
    <use xlink:href="#rim"/>
    <path pointer-events="none" fill="none" stroke="white" stroke-width="1.5" d="M0,-3.0v7 M-2.5,-0.5L0,-3.0L2.5,-0.5"/>
  </g>
  <g id="resetDef">
    <use xlink:href="#rim2" fill="#404040"><set attributeName="fill" to="#808080" begin="reset.mouseover" end="reset.mouseout"/></use>
  </g>
</defs>
<script type="application/ecmascript">
var viewWidth = 1651;
var viewHeight = 357;
var sectionId = 'dynsection-0';
</script>
<script type="application/ecmascript" xlink:href="svg.min.js"/>
<svg id="graph" class="graph">
<g id="viewport">
<title>/home/runner/work/amr&#45;wind/amr&#45;wind/src/utilities/tagging/BoxRefiner.H</title>
<!-- Node1 -->
<g id="Node000001" class="node">
<title>Node1</title>
<g id="a_Node000001"><a xlink:title=" ">
<polygon fill="#999999" stroke="#666666" points="1161,-349 1011,-349 1011,-308 1161,-308 1161,-349"/>
<text text-anchor="start" x="1019" y="-337" font-family="Helvetica,sans-Serif" font-size="10.00">/home/runner/work/amr</text>
<text text-anchor="start" x="1019" y="-326" font-family="Helvetica,sans-Serif" font-size="10.00">&#45;wind/amr&#45;wind/src/utilities</text>
<text text-anchor="middle" x="1086" y="-315" font-family="Helvetica,sans-Serif" font-size="10.00">/tagging/BoxRefiner.H</text>
</a>
</g>
</g>
<!-- Node2 -->
<g id="Node000002" class="node">
<title>Node2</title>
<g id="a_Node000002"><a xlink:href="_geometry_refinement_8_h.html" target="_top" xlink:title=" ">
<polygon fill="white" stroke="#666666" points="975.5,-272 840.5,-272 840.5,-242 975.5,-242 975.5,-272"/>
<text text-anchor="start" x="848.5" y="-260" font-family="Helvetica,sans-Serif" font-size="10.00">src/utilities/tagging</text>
<text text-anchor="middle" x="908" y="-249" font-family="Helvetica,sans-Serif" font-size="10.00">/GeometryRefinement.H</text>
</a>
</g>
</g>
<!-- Node1&#45;&gt;Node2 -->
<g id="edge1_Node000001_Node000002" class="edge">
<title>Node1&#45;&gt;Node2</title>
<g id="a_edge1_Node000001_Node000002"><a xlink:title=" ">
<path fill="none" stroke="#63b8ff" d="M1035.94,-307.96C1009.96,-297.81 978.45,-285.51 953.21,-275.65"/>
<polygon fill="#63b8ff" stroke="#63b8ff" points="954.45,-272.38 943.87,-272 951.91,-278.9 954.45,-272.38"/>
</a>
</g>
</g>
<!-- Node20 -->
<g id="Node000020" class="node">
<title>Node20</title>
<g id="a_Node000020"><a xlink:href="vector__space_8_h.html" target="_top" xlink:title=" ">
<polygon fill="white" stroke="#666666" points="1316.5,-272 1213.5,-272 1213.5,-242 1316.5,-242 1316.5,-272"/>
<text text-anchor="start" x="1221.5" y="-260" font-family="Helvetica,sans-Serif" font-size="10.00">src/core/vs/vector</text>
<text text-anchor="middle" x="1265" y="-249" font-family="Helvetica,sans-Serif" font-size="10.00">_space.H</text>
</a>
</g>
</g>
<!-- Node1&#45;&gt;Node20 -->
<g id="edge19_Node000001_Node000020" class="edge">
<title>Node1&#45;&gt;Node20</title>
<g id="a_edge19_Node000001_Node000020"><a xlink:title=" ">
<path fill="none" stroke="#63b8ff" d="M1136.34,-307.96C1162.47,-297.81 1194.15,-285.51 1219.54,-275.65"/>
<polygon fill="#63b8ff" stroke="#63b8ff" points="1220.88,-278.89 1228.93,-272 1218.34,-272.36 1220.88,-278.89"/>
</a>
</g>
</g>
<!-- Node3 -->
<g id="Node000003" class="node">
<title>Node3</title>
<g id="a_Node000003"><a xlink:href="index__operations_8_h.html" target="_top" xlink:title=" ">
<polygon fill="white" stroke="#666666" points="426.5,-206 325.5,-206 325.5,-176 426.5,-176 426.5,-206"/>
<text text-anchor="start" x="333.5" y="-194" font-family="Helvetica,sans-Serif" font-size="10.00">src/utilities/index</text>
<text text-anchor="middle" x="376" y="-183" font-family="Helvetica,sans-Serif" font-size="10.00">_operations.H</text>
</a>
</g>
</g>
<!-- Node2&#45;&gt;Node3 -->
<g id="edge2_Node000002_Node000003" class="edge">
<title>Node2&#45;&gt;Node3</title>
<g id="a_edge2_Node000002_Node000003"><a xlink:title=" ">
<path fill="none" stroke="#63b8ff" d="M840.35,-247.86C735.78,-235.28 536.51,-211.31 436.47,-199.27"/>
<polygon fill="#63b8ff" stroke="#63b8ff" points="436.87,-195.8 426.52,-198.08 436.03,-202.75 436.87,-195.8"/>
</a>
</g>
</g>
<!-- Node11 -->
<g id="Node000011" class="node">
<title>Node11</title>
<g id="a_Node000011"><a xlink:href="_refinement_criteria_8_h.html" target="_top" xlink:title=" ">
<polygon fill="white" stroke="#666666" points="969,-206 847,-206 847,-176 969,-176 969,-206"/>
<text text-anchor="start" x="855" y="-194" font-family="Helvetica,sans-Serif" font-size="10.00">src/utilities/tagging</text>
<text text-anchor="middle" x="908" y="-183" font-family="Helvetica,sans-Serif" font-size="10.00">/RefinementCriteria.H</text>
</a>
</g>
</g>
<!-- Node2&#45;&gt;Node11 -->
<g id="edge10_Node000002_Node000011" class="edge">
<title>Node2&#45;&gt;Node11</title>
<g id="a_edge10_Node000002_Node000011"><a xlink:title=" ">
<path fill="none" stroke="#63b8ff" d="M908,-241.8C908,-234.34 908,-224.99 908,-216.41"/>
<polygon fill="#63b8ff" stroke="#63b8ff" points="911.5,-216.16 908,-206.16 904.5,-216.16 911.5,-216.16"/>
</a>
</g>
</g>
<!-- Node4 -->
<g id="Node000004" class="node">
<title>Node4</title>
<g id="a_Node000004"><a xlink:title=" ">
<polygon fill="#e0e0e0" stroke="#999999" points="710,-140 646,-140 646,-121 710,-121 710,-140"/>
<text text-anchor="middle" x="678" y="-128" font-family="Helvetica,sans-Serif" font-size="10.00">algorithm</text>
</a>
</g>
</g>
<!-- Node3&#45;&gt;Node4 -->
<g id="edge3_Node000003_Node000004" class="edge">
<title>Node3&#45;&gt;Node4</title>
<g id="a_edge3_Node000003_Node000004"><a xlink:title=" ">
<path fill="none" stroke="#63b8ff" d="M426.84,-180.37C479.28,-170.41 563.39,-154.33 636,-140 636.1,-139.98 636.2,-139.96 636.3,-139.94"/>
<polygon fill="#63b8ff" stroke="#63b8ff" points="636.78,-143.41 645.9,-138.03 635.41,-136.55 636.78,-143.41"/>
</a>
</g>
</g>
<!-- Node5 -->
<g id="Node000005" class="node">
<title>Node5</title>
<g id="a_Node000005"><a xlink:title=" ">
<polygon fill="#e0e0e0" stroke="#999999" points="669,-19 577,-19 577,0 669,0 669,-19"/>
<text text-anchor="middle" x="623" y="-7" font-family="Helvetica,sans-Serif" font-size="10.00">AMReX_REAL.H</text>
</a>
</g>
</g>
<!-- Node3&#45;&gt;Node5 -->
<g id="edge4_Node000003_Node000005" class="edge">
<title>Node3&#45;&gt;Node5</title>
<g id="a_edge4_Node000003_Node000005"><a xlink:title=" ">
<path fill="none" stroke="#63b8ff" d="M325.4,-186.3C264.38,-180.67 167.22,-167.55 145,-140 139.7,-133.43 139.74,-127.61 145,-121 197.23,-55.32 452.27,-25.28 566.95,-14.93"/>
<polygon fill="#63b8ff" stroke="#63b8ff" points="567.29,-18.41 576.94,-14.05 566.67,-11.44 567.29,-18.41"/>
</a>
</g>
</g>
<!-- Node6 -->
<g id="Node000006" class="node">
<title>Node6</title>
<g id="a_Node000006"><a xlink:title=" ">
<polygon fill="#e0e0e0" stroke="#999999" points="98,-140 0,-140 0,-121 98,-121 98,-140"/>
<text text-anchor="middle" x="49" y="-128" font-family="Helvetica,sans-Serif" font-size="10.00">AMReX_Vector.H</text>
</a>
</g>
</g>
<!-- Node3&#45;&gt;Node6 -->
<g id="edge5_Node000003_Node000006" class="edge">
<title>Node3&#45;&gt;Node6</title>
<g id="a_edge5_Node000003_Node000006"><a xlink:title=" ">
<path fill="none" stroke="#63b8ff" d="M325.27,-180.92C266.13,-170.34 168.62,-152.9 106.66,-141.82"/>
<polygon fill="#63b8ff" stroke="#63b8ff" points="107.12,-138.34 96.66,-140.03 105.89,-145.23 107.12,-138.34"/>
</a>
</g>
</g>
<!-- Node7 -->
<g id="Node000007" class="node">
<title>Node7</title>
<g id="a_Node000007"><a xlink:title=" ">
<polygon fill="#e0e0e0" stroke="#999999" points="240,-140 154,-140 154,-121 240,-121 240,-140"/>
<text text-anchor="middle" x="197" y="-128" font-family="Helvetica,sans-Serif" font-size="10.00">AMReX_Box.H</text>
</a>
</g>
</g>
<!-- Node3&#45;&gt;Node7 -->
<g id="edge6_Node000003_Node000007" class="edge">
<title>Node3&#45;&gt;Node7</title>
<g id="a_edge6_Node000003_Node000007"><a xlink:title=" ">
<path fill="none" stroke="#63b8ff" d="M333.13,-175.99C302.5,-165.98 261.77,-152.67 232.87,-143.22"/>
<polygon fill="#63b8ff" stroke="#63b8ff" points="233.77,-139.83 223.17,-140.05 231.59,-146.49 233.77,-139.83"/>
</a>
</g>
</g>
<!-- Node8 -->
<g id="Node000008" class="node">
<title>Node8</title>
<g id="a_Node000008"><a xlink:title=" ">
<polygon fill="#e0e0e0" stroke="#999999" points="366,-140 258,-140 258,-121 366,-121 366,-140"/>
<text text-anchor="middle" x="312" y="-128" font-family="Helvetica,sans-Serif" font-size="10.00">AMReX_RealBox.H</text>
</a>
</g>
</g>
<!-- Node3&#45;&gt;Node8 -->
<g id="edge7_Node000003_Node000008" class="edge">
<title>Node3&#45;&gt;Node8</title>
<g id="a_edge7_Node000003_Node000008"><a xlink:title=" ">
<path fill="none" stroke="#63b8ff" d="M360.51,-175.84C351.03,-167.17 338.89,-156.08 329.12,-147.15"/>
<polygon fill="#63b8ff" stroke="#63b8ff" points="331.33,-144.43 321.59,-140.27 326.61,-149.6 331.33,-144.43"/>
</a>
</g>
</g>
<!-- Node9 -->
<g id="Node000009" class="node">
<title>Node9</title>
<g id="a_Node000009"><a xlink:title=" ">
<polygon fill="#e0e0e0" stroke="#999999" points="494,-140 384,-140 384,-121 494,-121 494,-140"/>
<text text-anchor="middle" x="439" y="-128" font-family="Helvetica,sans-Serif" font-size="10.00">AMReX_RealVect.H</text>
</a>
</g>
</g>
<!-- Node3&#45;&gt;Node9 -->
<g id="edge8_Node000003_Node000009" class="edge">
<title>Node3&#45;&gt;Node9</title>
<g id="a_edge8_Node000003_Node000009"><a xlink:title=" ">
<path fill="none" stroke="#63b8ff" d="M391.25,-175.84C400.58,-167.17 412.53,-156.08 422.15,-147.15"/>
<polygon fill="#63b8ff" stroke="#63b8ff" points="424.61,-149.64 429.56,-140.27 419.85,-144.51 424.61,-149.64"/>
</a>
</g>
</g>
<!-- Node10 -->
<g id="Node000010" class="node">
<title>Node10</title>
<g id="a_Node000010"><a xlink:title=" ">
<polygon fill="#e0e0e0" stroke="#999999" points="627.5,-140 512.5,-140 512.5,-121 627.5,-121 627.5,-140"/>
<text text-anchor="middle" x="570" y="-128" font-family="Helvetica,sans-Serif" font-size="10.00">AMReX_Geometry.H</text>
</a>
</g>
</g>
<!-- Node3&#45;&gt;Node10 -->
<g id="edge9_Node000003_Node000010" class="edge">
<title>Node3&#45;&gt;Node10</title>
<g id="a_edge9_Node000003_Node000010"><a xlink:title=" ">
<path fill="none" stroke="#63b8ff" d="M422.47,-175.99C455.95,-165.89 500.57,-152.44 531.94,-142.98"/>
<polygon fill="#63b8ff" stroke="#63b8ff" points="533.07,-146.29 541.63,-140.05 531.05,-139.59 533.07,-146.29"/>
</a>
</g>
</g>
<!-- Node12 -->
<g id="Node000012" class="node">
<title>Node12</title>
<g id="a_Node000012"><a xlink:title=" ">
<polygon fill="#e0e0e0" stroke="#999999" points="838,-140 728,-140 728,-121 838,-121 838,-140"/>
<text text-anchor="middle" x="783" y="-128" font-family="Helvetica,sans-Serif" font-size="10.00">AMReX_AmrCore.H</text>
</a>
</g>
</g>
<!-- Node11&#45;&gt;Node12 -->
<g id="edge11_Node000011_Node000012" class="edge">
<title>Node11&#45;&gt;Node12</title>
<g id="a_edge11_Node000011_Node000012"><a xlink:title=" ">
<path fill="none" stroke="#63b8ff" d="M878.06,-175.99C857.58,-166.4 830.62,-153.79 810.65,-144.44"/>
<polygon fill="#63b8ff" stroke="#63b8ff" points="812,-141.21 801.46,-140.14 809.03,-147.55 812,-141.21"/>
</a>
</g>
</g>
<!-- Node13 -->
<g id="Node000013" class="node">
<title>Node13</title>
<g id="a_Node000013"><a xlink:title=" ">
<polygon fill="#e0e0e0" stroke="#999999" points="959.5,-140 856.5,-140 856.5,-121 959.5,-121 959.5,-140"/>
<text text-anchor="middle" x="908" y="-128" font-family="Helvetica,sans-Serif" font-size="10.00">AMReX_TagBox.H</text>
</a>
</g>
</g>
<!-- Node11&#45;&gt;Node13 -->
<g id="edge12_Node000011_Node000013" class="edge">
<title>Node11&#45;&gt;Node13</title>
<g id="a_edge12_Node000011_Node000013"><a xlink:title=" ">
<path fill="none" stroke="#63b8ff" d="M908,-175.84C908,-168.21 908,-158.7 908,-150.45"/>
<polygon fill="#63b8ff" stroke="#63b8ff" points="911.5,-150.27 908,-140.27 904.5,-150.27 911.5,-150.27"/>
</a>
</g>
</g>
<!-- Node14 -->
<g id="Node000014" class="node">
<title>Node14</title>
<g id="a_Node000014"><a xlink:href="_factory_8_h.html" target="_top" xlink:title=" ">
<polygon fill="white" stroke="#666666" points="1080,-140 978,-140 978,-121 1080,-121 1080,-140"/>
<text text-anchor="middle" x="1029" y="-128" font-family="Helvetica,sans-Serif" font-size="10.00">src/core/Factory.H</text>
</a>
</g>
</g>
<!-- Node11&#45;&gt;Node14 -->
<g id="edge13_Node000011_Node000014" class="edge">
<title>Node11&#45;&gt;Node14</title>
<g id="a_edge13_Node000011_Node000014"><a xlink:title=" ">
<path fill="none" stroke="#63b8ff" d="M936.98,-175.99C956.72,-166.45 982.67,-153.9 1001.97,-144.57"/>
<polygon fill="#63b8ff" stroke="#63b8ff" points="1003.65,-147.64 1011.13,-140.14 1000.6,-141.34 1003.65,-147.64"/>
</a>
</g>
</g>
<!-- Node15 -->
<g id="Node000015" class="node">
<title>Node15</title>
<g id="a_Node000015"><a xlink:title=" ">
<polygon fill="#e0e0e0" stroke="#999999" points="1136,-79.5 1078,-79.5 1078,-60.5 1136,-60.5 1136,-79.5"/>
<text text-anchor="middle" x="1107" y="-67.5" font-family="Helvetica,sans-Serif" font-size="10.00">memory</text>
</a>
</g>
</g>
<!-- Node14&#45;&gt;Node15 -->
<g id="edge14_Node000014_Node000015" class="edge">
<title>Node14&#45;&gt;Node15</title>
<g id="a_edge14_Node000014_Node000015"><a xlink:title=" ">
<path fill="none" stroke="#63b8ff" d="M1040.51,-120.87C1052.84,-111.62 1072.62,-96.78 1087.41,-85.69"/>
<polygon fill="#63b8ff" stroke="#63b8ff" points="1089.54,-88.47 1095.44,-79.67 1085.34,-82.87 1089.54,-88.47"/>
</a>
</g>
</g>
<!-- Node16 -->
<g id="Node000016" class="node">
<title>Node16</title>
<g id="a_Node000016"><a xlink:title=" ">
<polygon fill="#e0e0e0" stroke="#999999" points="793.5,-79.5 700.5,-79.5 700.5,-60.5 793.5,-60.5 793.5,-79.5"/>
<text text-anchor="middle" x="747" y="-67.5" font-family="Helvetica,sans-Serif" font-size="10.00">unordered_map</text>
</a>
</g>
</g>
<!-- Node14&#45;&gt;Node16 -->
<g id="edge15_Node000014_Node000016" class="edge">
<title>Node14&#45;&gt;Node16</title>
<g id="a_edge15_Node000014_Node000016"><a xlink:title=" ">
<path fill="none" stroke="#63b8ff" d="M982.11,-120.98C936.3,-112.49 864.66,-98.77 803,-85 798.82,-84.07 794.47,-83.05 790.13,-82.02"/>
<polygon fill="#63b8ff" stroke="#63b8ff" points="790.64,-78.54 780.1,-79.57 788.99,-85.34 790.64,-78.54"/>
</a>
</g>
</g>
<!-- Node17 -->
<g id="Node000017" class="node">
<title>Node17</title>
<g id="a_Node000017"><a xlink:title=" ">
<polygon fill="#e0e0e0" stroke="#999999" points="872,-79.5 812,-79.5 812,-60.5 872,-60.5 872,-79.5"/>
<text text-anchor="middle" x="842" y="-67.5" font-family="Helvetica,sans-Serif" font-size="10.00">iostream</text>
</a>
</g>
</g>
<!-- Node14&#45;&gt;Node17 -->
<g id="edge16_Node000014_Node000017" class="edge">
<title>Node14&#45;&gt;Node17</title>
<g id="a_edge16_Node000014_Node000017"><a xlink:title=" ">
<path fill="none" stroke="#63b8ff" d="M998.81,-120.93C968.8,-112.29 921.52,-98.35 881,-85 879.1,-84.38 877.16,-83.72 875.2,-83.05"/>
<polygon fill="#63b8ff" stroke="#63b8ff" points="876.04,-79.64 865.44,-79.64 873.73,-86.24 876.04,-79.64"/>
</a>
</g>
</g>
<!-- Node18 -->
<g id="Node000018" class="node">
<title>Node18</title>
<g id="a_Node000018"><a xlink:title=" ">
<polygon fill="#e0e0e0" stroke="#999999" points="980,-79.5 890,-79.5 890,-60.5 980,-60.5 980,-79.5"/>
<text text-anchor="middle" x="935" y="-67.5" font-family="Helvetica,sans-Serif" font-size="10.00">AMReX_Print.H</text>
</a>
</g>
</g>
<!-- Node14&#45;&gt;Node18 -->
<g id="edge17_Node000014_Node000018" class="edge">
<title>Node14&#45;&gt;Node18</title>
<g id="a_edge17_Node000014_Node000018"><a xlink:title=" ">
<path fill="none" stroke="#63b8ff" d="M1015.13,-120.87C1000,-111.45 975.54,-96.23 957.62,-85.08"/>
<polygon fill="#63b8ff" stroke="#63b8ff" points="959.27,-81.98 948.93,-79.67 955.57,-87.92 959.27,-81.98"/>
</a>
</g>
</g>
<!-- Node19 -->
<g id="Node000019" class="node">
<title>Node19</title>
<g id="a_Node000019"><a xlink:title=" ">
<polygon fill="#e0e0e0" stroke="#999999" points="1060,-79.5 998,-79.5 998,-60.5 1060,-60.5 1060,-79.5"/>
<text text-anchor="middle" x="1029" y="-67.5" font-family="Helvetica,sans-Serif" font-size="10.00">AMReX.H</text>
</a>
</g>
</g>
<!-- Node14&#45;&gt;Node19 -->
<g id="edge18_Node000014_Node000019" class="edge">
<title>Node14&#45;&gt;Node19</title>
<g id="a_edge18_Node000014_Node000019"><a xlink:title=" ">
<path fill="none" stroke="#63b8ff" d="M1029,-120.87C1029,-112.75 1029,-100.31 1029,-89.89"/>
<polygon fill="#63b8ff" stroke="#63b8ff" points="1032.5,-89.67 1029,-79.67 1025.5,-89.67 1032.5,-89.67"/>
</a>
</g>
</g>
<!-- Node21 -->
<g id="Node000021" class="node">
<title>Node21</title>
<g id="a_Node000021"><a xlink:href="vector_8_h.html" target="_top" xlink:title=" ">
<polygon fill="white" stroke="#666666" points="1321.5,-140 1208.5,-140 1208.5,-121 1321.5,-121 1321.5,-140"/>
<text text-anchor="middle" x="1265" y="-128" font-family="Helvetica,sans-Serif" font-size="10.00">src/core/vs/vector.H</text>
</a>
</g>
</g>
<!-- Node20&#45;&gt;Node21 -->
<g id="edge20_Node000020_Node000021" class="edge">
<title>Node20&#45;&gt;Node21</title>
<g id="a_edge20_Node000020_Node000021"><a xlink:title=" ">
<path fill="none" stroke="#63b8ff" d="M1265,-241.72C1265,-219.12 1265,-175.12 1265,-150.09"/>
<polygon fill="#63b8ff" stroke="#63b8ff" points="1268.5,-150.07 1265,-140.07 1261.5,-150.07 1268.5,-150.07"/>
</a>
</g>
</g>
<!-- Node28 -->
<g id="Node000028" class="node">
<title>Node28</title>
<g id="a_Node000028"><a xlink:href="tensor_8_h.html" target="_top" xlink:title=" ">
<polygon fill="white" stroke="#666666" points="1449.5,-200.5 1336.5,-200.5 1336.5,-181.5 1449.5,-181.5 1449.5,-200.5"/>
<text text-anchor="middle" x="1393" y="-188.5" font-family="Helvetica,sans-Serif" font-size="10.00">src/core/vs/tensor.H</text>
</a>
</g>
</g>
<!-- Node20&#45;&gt;Node28 -->
<g id="edge28_Node000020_Node000028" class="edge">
<title>Node20&#45;&gt;Node28</title>
<g id="a_edge28_Node000020_Node000028"><a xlink:title=" ">
<path fill="none" stroke="#63b8ff" d="M1293.09,-241.95C1315.04,-230.98 1345.33,-215.83 1366.79,-205.11"/>
<polygon fill="#63b8ff" stroke="#63b8ff" points="1368.59,-208.12 1375.97,-200.52 1365.46,-201.86 1368.59,-208.12"/>
</a>
</g>
</g>
<!-- Node22 -->
<g id="Node000022" class="node">
<title>Node22</title>
<g id="a_Node000022"><a xlink:title=" ">
<polygon fill="#e0e0e0" stroke="#999999" points="1642.5,-19 1555.5,-19 1555.5,0 1642.5,0 1642.5,-19"/>
<text text-anchor="middle" x="1599" y="-7" font-family="Helvetica,sans-Serif" font-size="10.00">AMReX_Gpu.H</text>
</a>
</g>
</g>
<!-- Node21&#45;&gt;Node22 -->
<g id="edge21_Node000021_Node000022" class="edge">
<title>Node21&#45;&gt;Node22</title>
<g id="a_edge21_Node000021_Node000022"><a xlink:title=" ">
<path fill="none" stroke="#63b8ff" d="M1321.5,-123.93C1402.47,-115.51 1543.91,-99.05 1563,-85 1581.22,-71.59 1590.65,-46.48 1595.21,-29.14"/>
<polygon fill="#63b8ff" stroke="#63b8ff" points="1598.69,-29.61 1597.54,-19.08 1591.87,-28.03 1598.69,-29.61"/>
</a>
</g>
</g>
<!-- Node23 -->
<g id="Node000023" class="node">
<title>Node23</title>
<g id="a_Node000023"><a xlink:href="vstraits_8_h.html" target="_top" xlink:title=" ">
<polygon fill="white" stroke="#666666" points="1407.5,-79.5 1288.5,-79.5 1288.5,-60.5 1407.5,-60.5 1407.5,-79.5"/>
<text text-anchor="middle" x="1348" y="-67.5" font-family="Helvetica,sans-Serif" font-size="10.00">src/core/vs/vstraits.H</text>
</a>
</g>
</g>
<!-- Node21&#45;&gt;Node23 -->
<g id="edge22_Node000021_Node000023" class="edge">
<title>Node21&#45;&gt;Node23</title>
<g id="a_edge22_Node000021_Node000023"><a xlink:title=" ">
<path fill="none" stroke="#63b8ff" d="M1277.25,-120.87C1290.36,-111.62 1311.42,-96.78 1327.15,-85.69"/>
<polygon fill="#63b8ff" stroke="#63b8ff" points="1329.55,-88.29 1335.7,-79.67 1325.51,-82.57 1329.55,-88.29"/>
</a>
</g>
</g>
<!-- Node25 -->
<g id="Node000025" class="node">
<title>Node25</title>
<g id="a_Node000025"><a xlink:href="vector_i_8_h.html" target="_top" xlink:title=" ">
<polygon fill="white" stroke="#666666" points="1270,-79.5 1154,-79.5 1154,-60.5 1270,-60.5 1270,-79.5"/>
<text text-anchor="middle" x="1212" y="-67.5" font-family="Helvetica,sans-Serif" font-size="10.00">src/core/vs/vectorI.H</text>
</a>
</g>
</g>
<!-- Node21&#45;&gt;Node25 -->
<g id="edge24_Node000021_Node000025" class="edge">
<title>Node21&#45;&gt;Node25</title>
<g id="a_edge24_Node000021_Node000025"><a xlink:title=" ">
<path fill="none" stroke="#63b8ff" d="M1252.22,-120.87C1242.53,-112.23 1229.86,-98.7 1221.14,-87.92"/>
<polygon fill="#63b8ff" stroke="#63b8ff" points="1223.72,-85.52 1214.89,-79.67 1218.14,-89.75 1223.72,-85.52"/>
</a>
</g>
</g>
<!-- Node24 -->
<g id="Node000024" class="node">
<title>Node24</title>
<g id="a_Node000024"><a xlink:title=" ">
<polygon fill="#e0e0e0" stroke="#999999" points="1370,-19 1326,-19 1326,0 1370,0 1370,-19"/>
<text text-anchor="middle" x="1348" y="-7" font-family="Helvetica,sans-Serif" font-size="10.00">limits</text>
</a>
</g>
</g>
<!-- Node23&#45;&gt;Node24 -->
<g id="edge23_Node000023_Node000024" class="edge">
<title>Node23&#45;&gt;Node24</title>
<g id="a_edge23_Node000023_Node000024"><a xlink:title=" ">
<path fill="none" stroke="#63b8ff" d="M1348,-60.37C1348,-52.25 1348,-39.81 1348,-29.39"/>
<polygon fill="#63b8ff" stroke="#63b8ff" points="1351.5,-29.17 1348,-19.17 1344.5,-29.17 1351.5,-29.17"/>
</a>
</g>
</g>
<!-- Node25&#45;&gt;Node21 -->
<g id="edge27_Node000025_Node000021" class="edge">
<title>Node25&#45;&gt;Node21</title>
<g id="a_edge27_Node000025_Node000021"><a xlink:title=" ">
<path fill="none" stroke="#63b8ff" d="M1224.82,-79.67C1234.52,-88.32 1247.18,-101.85 1255.9,-112.63"/>
<polygon fill="#63b8ff" stroke="#63b8ff" points="1253.31,-115.01 1262.14,-120.87 1258.89,-110.78 1253.31,-115.01"/>
</a>
</g>
</g>
<!-- Node26 -->
<g id="Node000026" class="node">
<title>Node26</title>
<g id="a_Node000026"><a xlink:title=" ">
<polygon fill="#e0e0e0" stroke="#999999" points="1240.5,-19 1183.5,-19 1183.5,0 1240.5,0 1240.5,-19"/>
<text text-anchor="middle" x="1212" y="-7" font-family="Helvetica,sans-Serif" font-size="10.00">ostream</text>
</a>
</g>
</g>
<!-- Node25&#45;&gt;Node26 -->
<g id="edge25_Node000025_Node000026" class="edge">
<title>Node25&#45;&gt;Node26</title>
<g id="a_edge25_Node000025_Node000026"><a xlink:title=" ">
<path fill="none" stroke="#63b8ff" d="M1212,-60.37C1212,-52.25 1212,-39.81 1212,-29.39"/>
<polygon fill="#63b8ff" stroke="#63b8ff" points="1215.5,-29.17 1212,-19.17 1208.5,-29.17 1215.5,-29.17"/>
</a>
</g>
</g>
<!-- Node27 -->
<g id="Node000027" class="node">
<title>Node27</title>
<g id="a_Node000027"><a xlink:title=" ">
<polygon fill="#e0e0e0" stroke="#999999" points="1459.5,-19 1412.5,-19 1412.5,0 1459.5,0 1459.5,-19"/>
<text text-anchor="middle" x="1436" y="-7" font-family="Helvetica,sans-Serif" font-size="10.00">cmath</text>
</a>
</g>
</g>
<!-- Node25&#45;&gt;Node27 -->
<g id="edge26_Node000025_Node000027" class="edge">
<title>Node25&#45;&gt;Node27</title>
<g id="a_edge26_Node000025_Node000027"><a xlink:title=" ">
<path fill="none" stroke="#63b8ff" d="M1244.57,-60.49C1286.72,-49.49 1359.79,-30.4 1402.42,-19.27"/>
<polygon fill="#63b8ff" stroke="#63b8ff" points="1403.52,-22.6 1412.31,-16.69 1401.75,-15.83 1403.52,-22.6"/>
</a>
</g>
</g>
<!-- Node28&#45;&gt;Node21 -->
<g id="edge31_Node000028_Node000021" class="edge">
<title>Node28&#45;&gt;Node21</title>
<g id="a_edge31_Node000028_Node000021"><a xlink:title=" ">
<path fill="none" stroke="#63b8ff" d="M1374.39,-181.49C1352.96,-171.7 1317.56,-155.52 1292.85,-144.23"/>
<polygon fill="#63b8ff" stroke="#63b8ff" points="1294.18,-140.99 1283.63,-140.02 1291.28,-147.36 1294.18,-140.99"/>
</a>
</g>
</g>
<!-- Node28&#45;&gt;Node22 -->
<g id="edge29_Node000028_Node000022" class="edge">
<title>Node28&#45;&gt;Node22</title>
<g id="a_edge29_Node000028_Node000022"><a xlink:title=" ">
<path fill="none" stroke="#63b8ff" d="M1430.65,-181.47C1476.5,-168.9 1552.23,-140.62 1588,-85 1598.7,-68.36 1600.59,-45.37 1600.35,-29.35"/>
<polygon fill="#63b8ff" stroke="#63b8ff" points="1603.84,-28.94 1599.9,-19.1 1596.85,-29.25 1603.84,-28.94"/>
</a>
</g>
</g>
<!-- Node28&#45;&gt;Node23 -->
<g id="edge30_Node000028_Node000023" class="edge">
<title>Node28&#45;&gt;Node23</title>
<g id="a_edge30_Node000028_Node000023"><a xlink:title=" ">
<path fill="none" stroke="#63b8ff" d="M1388.34,-181.33C1383.17,-171.5 1374.8,-154.89 1369,-140 1362.47,-123.24 1356.66,-103.57 1352.81,-89.53"/>
<polygon fill="#63b8ff" stroke="#63b8ff" points="1356.14,-88.4 1350.18,-79.64 1349.37,-90.2 1356.14,-88.4"/>
</a>
</g>
</g>
<!-- Node29 -->
<g id="Node000029" class="node">
<title>Node29</title>
<g id="a_Node000029"><a xlink:href="tensor_i_8_h.html" target="_top" xlink:title=" ">
<polygon fill="white" stroke="#666666" points="1494,-140 1378,-140 1378,-121 1494,-121 1494,-140"/>
<text text-anchor="middle" x="1436" y="-128" font-family="Helvetica,sans-Serif" font-size="10.00">src/core/vs/tensorI.H</text>
</a>
</g>
</g>
<!-- Node28&#45;&gt;Node29 -->
<g id="edge32_Node000028_Node000029" class="edge">
<title>Node28&#45;&gt;Node29</title>
<g id="a_edge32_Node000028_Node000029"><a xlink:title=" ">
<path fill="none" stroke="#63b8ff" d="M1394.39,-181.37C1398.96,-172.55 1408.79,-158.66 1417.92,-147.77"/>
<polygon fill="#63b8ff" stroke="#63b8ff" points="1420.65,-149.97 1424.67,-140.17 1415.41,-145.32 1420.65,-149.97"/>
</a>
</g>
</g>
<!-- Node29&#45;&gt;Node27 -->
<g id="edge33_Node000029_Node000027" class="edge">
<title>Node29&#45;&gt;Node27</title>
<g id="a_edge33_Node000029_Node000027"><a xlink:title=" ">
<path fill="none" stroke="#63b8ff" d="M1436,-120.94C1436,-101.91 1436,-55.69 1436,-29.47"/>
<polygon fill="#63b8ff" stroke="#63b8ff" points="1439.5,-29.3 1436,-19.3 1432.5,-29.3 1439.5,-29.3"/>
</a>
</g>
</g>
<!-- Node29&#45;&gt;Node28 -->
<g id="edge34_Node000029_Node000028" class="edge">
<title>Node29&#45;&gt;Node28</title>
<g id="a_edge34_Node000029_Node000028"><a xlink:title=" ">
<path fill="none" stroke="#63b8ff" d="M1434.59,-140.17C1430,-148.99 1420.17,-162.89 1411.04,-173.77"/>
<polygon fill="#63b8ff" stroke="#63b8ff" points="1408.32,-171.57 1404.3,-181.37 1413.56,-176.21 1408.32,-171.57"/>
</a>
</g>
</g>
<!-- Node30 -->
<g id="Node000030" class="node">
<title>Node30</title>
<g id="a_Node000030"><a xlink:href="trig__ops_8_h.html" target="_top" xlink:title=" ">
<polygon fill="white" stroke="#666666" points="1554,-85 1464,-85 1464,-55 1554,-55 1554,-85"/>
<text text-anchor="start" x="1472" y="-73" font-family="Helvetica,sans-Serif" font-size="10.00">src/utilities/trig</text>
<text text-anchor="middle" x="1509" y="-62" font-family="Helvetica,sans-Serif" font-size="10.00">_ops.H</text>
</a>
</g>
</g>
<!-- Node29&#45;&gt;Node30 -->
<g id="edge35_Node000029_Node000030" class="edge">
<title>Node29&#45;&gt;Node30</title>
<g id="a_edge35_Node000029_Node000030"><a xlink:title=" ">
<path fill="none" stroke="#63b8ff" d="M1446.77,-120.87C1456.4,-113.15 1470.89,-101.54 1483.47,-91.46"/>
<polygon fill="#63b8ff" stroke="#63b8ff" points="1485.77,-94.1 1491.39,-85.11 1481.39,-88.64 1485.77,-94.1"/>
</a>
</g>
</g>
<!-- Node30&#45;&gt;Node5 -->
<g id="edge38_Node000030_Node000005" class="edge">
<title>Node30&#45;&gt;Node5</title>
<g id="a_edge38_Node000030_Node000005"><a xlink:title=" ">
<path fill="none" stroke="#63b8ff" d="M1463.72,-61.23C1448.87,-58.92 1432.27,-56.59 1417,-55 1141.24,-26.36 809.54,-15.27 679.34,-11.82"/>
<polygon fill="#63b8ff" stroke="#63b8ff" points="679.3,-8.32 669.21,-11.56 679.12,-15.31 679.3,-8.32"/>
</a>
</g>
</g>
<!-- Node30&#45;&gt;Node22 -->
<g id="edge39_Node000030_Node000022" class="edge">
<title>Node30&#45;&gt;Node22</title>
<g id="a_edge39_Node000030_Node000022"><a xlink:title=" ">
<path fill="none" stroke="#63b8ff" d="M1530.79,-54.84C1544.87,-45.68 1563.13,-33.82 1577.21,-24.66"/>
<polygon fill="#63b8ff" stroke="#63b8ff" points="1579.3,-27.48 1585.78,-19.09 1575.49,-21.61 1579.3,-27.48"/>
</a>
</g>
</g>
<!-- Node30&#45;&gt;Node27 -->
<g id="edge36_Node000030_Node000027" class="edge">
<title>Node30&#45;&gt;Node27</title>
<g id="a_edge36_Node000030_Node000027"><a xlink:title=" ">
<path fill="none" stroke="#63b8ff" d="M1491.33,-54.84C1480.3,-46 1466.11,-34.63 1454.87,-25.62"/>
<polygon fill="#63b8ff" stroke="#63b8ff" points="1456.93,-22.79 1446.94,-19.27 1452.55,-28.25 1456.93,-22.79"/>
</a>
</g>
</g>
<!-- Node31 -->
<g id="Node000031" class="node">
<title>Node31</title>
<g id="a_Node000031"><a xlink:title=" ">
<polygon fill="#e0e0e0" stroke="#999999" points="1537.5,-19 1478.5,-19 1478.5,0 1537.5,0 1537.5,-19"/>
<text text-anchor="middle" x="1508" y="-7" font-family="Helvetica,sans-Serif" font-size="10.00">numbers</text>
</a>
</g>
</g>
<!-- Node30&#45;&gt;Node31 -->
<g id="edge37_Node000030_Node000031" class="edge">
<title>Node30&#45;&gt;Node31</title>
<g id="a_edge37_Node000030_Node000031"><a xlink:title=" ">
<path fill="none" stroke="#63b8ff" d="M1508.76,-54.84C1508.63,-47.21 1508.47,-37.7 1508.32,-29.45"/>
<polygon fill="#63b8ff" stroke="#63b8ff" points="1511.82,-29.2 1508.15,-19.27 1504.82,-29.32 1511.82,-29.2"/>
</a>
</g>
</g>
</g>
</svg>

<g id="navigator" transform="translate(0 0)" fill="#404254">
  <rect fill="#f2f5e9" fill-opacity="0.5" stroke="#606060" stroke-width=".5" x="0" y="0" width="60" height="60"/>
  <use id="zoomplus" xlink:href="#zoomPlus" x="17" y="9" onmousedown="handleZoom(evt,'in')"/>
  <use id="zoomminus" xlink:href="#zoomMin" x="42" y="9" onmousedown="handleZoom(evt,'out')"/>
  <use id="reset" xlink:href="#resetDef" x="30" y="36" onmousedown="handleReset()"/>
   <use id="arrowup" xlink:href="#arrowUp" x="0" y="0" onmousedown="handlePan(0,-1)"/>
  <use id="arrowright" xlink:href="#arrowRight" x="0" y="0" onmousedown="handlePan(1,0)"/>
  <use id="arrowdown" xlink:href="#arrowDown" x="0" y="0" onmousedown="handlePan(0,1)"/>
  <use id="arrowleft" xlink:href="#arrowLeft" x="0" y="0" onmousedown="handlePan(-1,0)"/>
</g>
<svg viewBox="0 0 15 15" width="100%" height="30px" preserveAspectRatio="xMaxYMin meet">
 <g id="arrow_out" transform="scale(0.3 0.3)">
  <a xlink:href="_box_refiner_8_h__incl_org.svg" target="_base">
   <rect id="button" ry="5" rx="5" y="6" x="6" height="38" width="38"
        fill="#f2f5e9" fill-opacity="0.5" stroke="#606060" stroke-width="1.0"/>
   <path id="arrow"
     d="M 11.500037,31.436501 C 11.940474,20.09759 22.043105,11.32322 32.158766,21.979434 L 37.068811,17.246167 C 37.068811,17.246167 37.088388,32 37.088388,32 L 22.160133,31.978069 C 22.160133,31.978069 26.997745,27.140456 26.997745,27.140456 C 18.528582,18.264221 13.291696,25.230495 11.500037,31.436501 z"
     style="fill:#404040;"/>
  </a>
 </g>
</svg>

<style type='text/css'>
<![CDATA[
[data-mouse-over-selected='false'] { opacity: 0.7; }
[data-mouse-over-selected='true']  { opacity: 1.0; }
]]>
</style>
<script type="application/ecmascript"><![CDATA[
document.addEventListener('DOMContentLoaded', (event) => {
  highlightEdges();
  highlightAdjacentNodes();
});
]]></script>
</svg>
