<?xml version="1.0" encoding="UTF-8" standalone="no"?>
<!DOCTYPE svg PUBLIC "-//W3C//DTD SVG 1.1//EN"
 "http://www.w3.org/Graphics/SVG/1.1/DTD/svg11.dtd">
<!-- Generated by graphviz version 2.43.0 (0)
 -->
<!-- Title: /home/runner/work/amr&#45;wind/amr&#45;wind/src/utilities/tagging/CylinderRefiner.H Pages: 1 -->
<!--zoomable 357 -->

<svg id="main" version="1.1" xmlns="http://www.w3.org/2000/svg" xmlns:xlink="http://www.w3.org/1999/xlink" xml:space="preserve" onload="init(evt)">

<style type="text/css"><![CDATA[
.node, .edge {opacity: 0.7;}
.node.selected, .edge.selected {opacity: 1;}
.edge:hover path { stroke: red; }
.edge:hover polygon { stroke: red; fill: red; }
]]></style>

<defs>
  <circle id="rim" cx="0" cy="0" r="7"/>
  <circle id="rim2" cx="0" cy="0" r="3.5"/>
  <g id="zoomPlus">
    <use xlink:href="#rim" fill="#404040"><set attributeName="fill" to="#808080" begin="zoomplus.mouseover" end="zoomplus.mouseout"/></use>
    <path d="M-4,0h8M0,-4v8" fill="none" stroke="white" stroke-width="1.5" pointer-events="none"/>
  </g>
  <g id="zoomMin">
    <use xlink:href="#rim" fill="#404040"><set attributeName="fill" to="#808080" begin="zoomminus.mouseover" end="zoomminus.mouseout"/></use>
    <path d="M-4,0h8" fill="none" stroke="white" stroke-width="1.5" pointer-events="none"/>
  </g>
  <g id="arrowUp" transform="translate(30 24)">
    <use xlink:href="#rim"/>
    <path pointer-events="none" fill="none" stroke="white" stroke-width="1.5" d="M0,-3.0v7 M-2.5,-0.5L0,-3.0L2.5,-0.5"/>
  </g>
  <g id="arrowRight" transform="rotate(90) translate(36 -43)">
    <use xlink:href="#rim"/>
    <path pointer-events="none" fill="none" stroke="white" stroke-width="1.5" d="M0,-3.0v7 M-2.5,-0.5L0,-3.0L2.5,-0.5"/>
  </g>
  <g id="arrowDown" transform="rotate(180) translate(-30 -48)">
    <use xlink:href="#rim"/>
    <path pointer-events="none" fill="none" stroke="white" stroke-width="1.5" d="M0,-3.0v7 M-2.5,-0.5L0,-3.0L2.5,-0.5"/>
  </g>
  <g id="arrowLeft" transform="rotate(270) translate(-36 17)">
    <use xlink:href="#rim"/>
    <path pointer-events="none" fill="none" stroke="white" stroke-width="1.5" d="M0,-3.0v7 M-2.5,-0.5L0,-3.0L2.5,-0.5"/>
  </g>
  <g id="resetDef">
    <use xlink:href="#rim2" fill="#404040"><set attributeName="fill" to="#808080" begin="reset.mouseover" end="reset.mouseout"/></use>
  </g>
</defs>
<script type="application/ecmascript">
var viewWidth = 1702;
var viewHeight = 357;
var sectionId = 'dynsection-0';
</script>
<script type="application/ecmascript" xlink:href="svg.min.js"/>
<svg id="graph" class="graph">
<g id="viewport">
<title>/home/runner/work/amr&#45;wind/amr&#45;wind/src/utilities/tagging/CylinderRefiner.H</title>
<!-- Node1 -->
<g id="Node000001" class="node">
<title>Node1</title>
<g id="a_Node000001"><a xlink:title=" ">
<polygon fill="#999999" stroke="#666666" points="576.5,-349 426.5,-349 426.5,-308 576.5,-308 576.5,-349"/>
<text text-anchor="start" x="434.5" y="-337" font-family="Helvetica,sans-Serif" font-size="10.00">/home/runner/work/amr</text>
<text text-anchor="start" x="434.5" y="-326" font-family="Helvetica,sans-Serif" font-size="10.00">&#45;wind/amr&#45;wind/src/utilities</text>
<text text-anchor="middle" x="501.5" y="-315" font-family="Helvetica,sans-Serif" font-size="10.00">/tagging/CylinderRefiner.H</text>
</a>
</g>
</g>
<!-- Node2 -->
<g id="Node000002" class="node">
<title>Node2</title>
<g id="a_Node000002"><a xlink:href="_geometry_refinement_8_h.html" target="_top" xlink:title=" ">
<polygon fill="white" stroke="#666666" points="856,-272 721,-272 721,-242 856,-242 856,-272"/>
<text text-anchor="start" x="729" y="-260" font-family="Helvetica,sans-Serif" font-size="10.00">src/utilities/tagging</text>
<text text-anchor="middle" x="788.5" y="-249" font-family="Helvetica,sans-Serif" font-size="10.00">/GeometryRefinement.H</text>
</a>
</g>
</g>
<!-- Node1&#45;&gt;Node2 -->
<g id="edge1_Node000001_Node000002" class="edge">
<title>Node1&#45;&gt;Node2</title>
<g id="a_edge1_Node000001_Node000002"><a xlink:title=" ">
<path fill="none" stroke="#63b8ff" d="M576.53,-309.33C621.21,-298.51 677.47,-284.89 720.79,-274.4"/>
<polygon fill="#63b8ff" stroke="#63b8ff" points="721.78,-277.76 730.67,-272 720.13,-270.96 721.78,-277.76"/>
</a>
</g>
</g>
<!-- Node5 -->
<g id="Node000005" class="node">
<title>Node5</title>
<g id="a_Node000005"><a xlink:title=" ">
<polygon fill="#e0e0e0" stroke="#999999" points="567.5,-19 475.5,-19 475.5,0 567.5,0 567.5,-19"/>
<text text-anchor="middle" x="521.5" y="-7" font-family="Helvetica,sans-Serif" font-size="10.00">AMReX_REAL.H</text>
</a>
</g>
</g>
<!-- Node1&#45;&gt;Node5 -->
<g id="edge40_Node000001_Node000005" class="edge">
<title>Node1&#45;&gt;Node5</title>
<g id="a_edge40_Node000001_Node000005"><a xlink:title=" ">
<path fill="none" stroke="#63b8ff" d="M501.5,-307.75C501.5,-281.37 501.5,-233.17 501.5,-192 501.5,-192 501.5,-192 501.5,-129.5 501.5,-93.49 510.52,-52.19 516.44,-28.94"/>
<polygon fill="#63b8ff" stroke="#63b8ff" points="519.88,-29.64 519.05,-19.08 513.11,-27.85 519.88,-29.64"/>
</a>
</g>
</g>
<!-- Node20 -->
<g id="Node000020" class="node">
<title>Node20</title>
<g id="a_Node000020"><a xlink:href="vector__space_8_h.html" target="_top" xlink:title=" ">
<polygon fill="white" stroke="#666666" points="319,-272 216,-272 216,-242 319,-242 319,-272"/>
<text text-anchor="start" x="224" y="-260" font-family="Helvetica,sans-Serif" font-size="10.00">src/core/vs/vector</text>
<text text-anchor="middle" x="267.5" y="-249" font-family="Helvetica,sans-Serif" font-size="10.00">_space.H</text>
</a>
</g>
</g>
<!-- Node1&#45;&gt;Node20 -->
<g id="edge19_Node000001_Node000020" class="edge">
<title>Node1&#45;&gt;Node20</title>
<g id="a_edge19_Node000001_Node000020"><a xlink:title=" ">
<path fill="none" stroke="#63b8ff" d="M435.7,-307.96C400.63,-297.54 357.92,-284.86 324.32,-274.88"/>
<polygon fill="#63b8ff" stroke="#63b8ff" points="325.23,-271.5 314.65,-272 323.24,-278.21 325.23,-271.5"/>
</a>
</g>
</g>
<!-- Node3 -->
<g id="Node000003" class="node">
<title>Node3</title>
<g id="a_Node000003"><a xlink:href="index__operations_8_h.html" target="_top" xlink:title=" ">
<polygon fill="white" stroke="#666666" points="1288,-206 1187,-206 1187,-176 1288,-176 1288,-206"/>
<text text-anchor="start" x="1195" y="-194" font-family="Helvetica,sans-Serif" font-size="10.00">src/utilities/index</text>
<text text-anchor="middle" x="1237.5" y="-183" font-family="Helvetica,sans-Serif" font-size="10.00">_operations.H</text>
</a>
</g>
</g>
<!-- Node2&#45;&gt;Node3 -->
<g id="edge2_Node000002_Node000003" class="edge">
<title>Node2&#45;&gt;Node3</title>
<g id="a_edge2_Node000002_Node000003"><a xlink:title=" ">
<path fill="none" stroke="#63b8ff" d="M856.21,-246.35C943.22,-233.95 1093.01,-212.6 1176.59,-200.68"/>
<polygon fill="#63b8ff" stroke="#63b8ff" points="1177.29,-204.12 1186.7,-199.24 1176.3,-197.19 1177.29,-204.12"/>
</a>
</g>
</g>
<!-- Node11 -->
<g id="Node000011" class="node">
<title>Node11</title>
<g id="a_Node000011"><a xlink:href="_refinement_criteria_8_h.html" target="_top" xlink:title=" ">
<polygon fill="white" stroke="#666666" points="849.5,-206 727.5,-206 727.5,-176 849.5,-176 849.5,-206"/>
<text text-anchor="start" x="735.5" y="-194" font-family="Helvetica,sans-Serif" font-size="10.00">src/utilities/tagging</text>
<text text-anchor="middle" x="788.5" y="-183" font-family="Helvetica,sans-Serif" font-size="10.00">/RefinementCriteria.H</text>
</a>
</g>
</g>
<!-- Node2&#45;&gt;Node11 -->
<g id="edge10_Node000002_Node000011" class="edge">
<title>Node2&#45;&gt;Node11</title>
<g id="a_edge10_Node000002_Node000011"><a xlink:title=" ">
<path fill="none" stroke="#63b8ff" d="M788.5,-241.8C788.5,-234.34 788.5,-224.99 788.5,-216.41"/>
<polygon fill="#63b8ff" stroke="#63b8ff" points="792,-216.16 788.5,-206.16 785,-216.16 792,-216.16"/>
</a>
</g>
</g>
<!-- Node4 -->
<g id="Node000004" class="node">
<title>Node4</title>
<g id="a_Node000004"><a xlink:title=" ">
<polygon fill="#e0e0e0" stroke="#999999" points="1693.5,-140 1629.5,-140 1629.5,-121 1693.5,-121 1693.5,-140"/>
<text text-anchor="middle" x="1661.5" y="-128" font-family="Helvetica,sans-Serif" font-size="10.00">algorithm</text>
</a>
</g>
</g>
<!-- Node3&#45;&gt;Node4 -->
<g id="edge3_Node000003_Node000004" class="edge">
<title>Node3&#45;&gt;Node4</title>
<g id="a_edge3_Node000003_Node000004"><a xlink:title=" ">
<path fill="none" stroke="#63b8ff" d="M1288.17,-184.6C1359.72,-176.72 1494.62,-160.86 1619.22,-140.11"/>
<polygon fill="#63b8ff" stroke="#63b8ff" points="1620.03,-143.52 1629.31,-138.41 1618.87,-136.61 1620.03,-143.52"/>
</a>
</g>
</g>
<!-- Node3&#45;&gt;Node5 -->
<g id="edge4_Node000003_Node000005" class="edge">
<title>Node3&#45;&gt;Node5</title>
<g id="a_edge4_Node000003_Node000005"><a xlink:title=" ">
<path fill="none" stroke="#63b8ff" d="M1186.79,-184.08C1128.89,-176.41 1038.77,-161.44 1012.5,-140 980.44,-113.83 1008.08,-79.18 974.5,-55 942.94,-32.27 692.06,-18.18 577.81,-12.89"/>
<polygon fill="#63b8ff" stroke="#63b8ff" points="577.67,-9.38 567.53,-12.42 577.35,-16.37 577.67,-9.38"/>
</a>
</g>
</g>
<!-- Node6 -->
<g id="Node000006" class="node">
<title>Node6</title>
<g id="a_Node000006"><a xlink:title=" ">
<polygon fill="#e0e0e0" stroke="#999999" points="1119.5,-140 1021.5,-140 1021.5,-121 1119.5,-121 1119.5,-140"/>
<text text-anchor="middle" x="1070.5" y="-128" font-family="Helvetica,sans-Serif" font-size="10.00">AMReX_Vector.H</text>
</a>
</g>
</g>
<!-- Node3&#45;&gt;Node6 -->
<g id="edge5_Node000003_Node000006" class="edge">
<title>Node3&#45;&gt;Node6</title>
<g id="a_edge5_Node000003_Node000006"><a xlink:title=" ">
<path fill="none" stroke="#63b8ff" d="M1197.5,-175.99C1169.26,-166.1 1131.82,-152.98 1104.92,-143.56"/>
<polygon fill="#63b8ff" stroke="#63b8ff" points="1105.76,-140.14 1095.16,-140.14 1103.44,-146.75 1105.76,-140.14"/>
</a>
</g>
</g>
<!-- Node7 -->
<g id="Node000007" class="node">
<title>Node7</title>
<g id="a_Node000007"><a xlink:title=" ">
<polygon fill="#e0e0e0" stroke="#999999" points="1223.5,-140 1137.5,-140 1137.5,-121 1223.5,-121 1223.5,-140"/>
<text text-anchor="middle" x="1180.5" y="-128" font-family="Helvetica,sans-Serif" font-size="10.00">AMReX_Box.H</text>
</a>
</g>
</g>
<!-- Node3&#45;&gt;Node7 -->
<g id="edge6_Node000003_Node000007" class="edge">
<title>Node3&#45;&gt;Node7</title>
<g id="a_edge6_Node000003_Node000007"><a xlink:title=" ">
<path fill="none" stroke="#63b8ff" d="M1223.7,-175.84C1215.43,-167.35 1204.88,-156.52 1196.27,-147.69"/>
<polygon fill="#63b8ff" stroke="#63b8ff" points="1198.53,-144.99 1189.04,-140.27 1193.51,-149.87 1198.53,-144.99"/>
</a>
</g>
</g>
<!-- Node8 -->
<g id="Node000008" class="node">
<title>Node8</title>
<g id="a_Node000008"><a xlink:title=" ">
<polygon fill="#e0e0e0" stroke="#999999" points="1349.5,-140 1241.5,-140 1241.5,-121 1349.5,-121 1349.5,-140"/>
<text text-anchor="middle" x="1295.5" y="-128" font-family="Helvetica,sans-Serif" font-size="10.00">AMReX_RealBox.H</text>
</a>
</g>
</g>
<!-- Node3&#45;&gt;Node8 -->
<g id="edge7_Node000003_Node000008" class="edge">
<title>Node3&#45;&gt;Node8</title>
<g id="a_edge7_Node000003_Node000008"><a xlink:title=" ">
<path fill="none" stroke="#63b8ff" d="M1251.54,-175.84C1260.05,-167.26 1270.91,-156.3 1279.72,-147.42"/>
<polygon fill="#63b8ff" stroke="#63b8ff" points="1282.25,-149.83 1286.81,-140.27 1277.28,-144.9 1282.25,-149.83"/>
</a>
</g>
</g>
<!-- Node9 -->
<g id="Node000009" class="node">
<title>Node9</title>
<g id="a_Node000009"><a xlink:title=" ">
<polygon fill="#e0e0e0" stroke="#999999" points="1477.5,-140 1367.5,-140 1367.5,-121 1477.5,-121 1477.5,-140"/>
<text text-anchor="middle" x="1422.5" y="-128" font-family="Helvetica,sans-Serif" font-size="10.00">AMReX_RealVect.H</text>
</a>
</g>
</g>
<!-- Node3&#45;&gt;Node9 -->
<g id="edge8_Node000003_Node000009" class="edge">
<title>Node3&#45;&gt;Node9</title>
<g id="a_edge8_Node000003_Node000009"><a xlink:title=" ">
<path fill="none" stroke="#63b8ff" d="M1281.81,-175.99C1313.6,-165.94 1355.92,-152.55 1385.82,-143.1"/>
<polygon fill="#63b8ff" stroke="#63b8ff" points="1386.97,-146.41 1395.45,-140.05 1384.86,-139.73 1386.97,-146.41"/>
</a>
</g>
</g>
<!-- Node10 -->
<g id="Node000010" class="node">
<title>Node10</title>
<g id="a_Node000010"><a xlink:title=" ">
<polygon fill="#e0e0e0" stroke="#999999" points="1611,-140 1496,-140 1496,-121 1611,-121 1611,-140"/>
<text text-anchor="middle" x="1553.5" y="-128" font-family="Helvetica,sans-Serif" font-size="10.00">AMReX_Geometry.H</text>
</a>
</g>
</g>
<!-- Node3&#45;&gt;Node10 -->
<g id="edge9_Node000003_Node000010" class="edge">
<title>Node3&#45;&gt;Node10</title>
<g id="a_edge9_Node000003_Node000010"><a xlink:title=" ">
<path fill="none" stroke="#63b8ff" d="M1288.27,-180.6C1345.5,-170.01 1438.26,-152.83 1497.54,-141.86"/>
<polygon fill="#63b8ff" stroke="#63b8ff" points="1498.28,-145.28 1507.48,-140.02 1497.01,-138.4 1498.28,-145.28"/>
</a>
</g>
</g>
<!-- Node12 -->
<g id="Node000012" class="node">
<title>Node12</title>
<g id="a_Node000012"><a xlink:title=" ">
<polygon fill="#e0e0e0" stroke="#999999" points="843.5,-140 733.5,-140 733.5,-121 843.5,-121 843.5,-140"/>
<text text-anchor="middle" x="788.5" y="-128" font-family="Helvetica,sans-Serif" font-size="10.00">AMReX_AmrCore.H</text>
</a>
</g>
</g>
<!-- Node11&#45;&gt;Node12 -->
<g id="edge11_Node000011_Node000012" class="edge">
<title>Node11&#45;&gt;Node12</title>
<g id="a_edge11_Node000011_Node000012"><a xlink:title=" ">
<path fill="none" stroke="#63b8ff" d="M788.5,-175.84C788.5,-168.21 788.5,-158.7 788.5,-150.45"/>
<polygon fill="#63b8ff" stroke="#63b8ff" points="792,-150.27 788.5,-140.27 785,-150.27 792,-150.27"/>
</a>
</g>
</g>
<!-- Node13 -->
<g id="Node000013" class="node">
<title>Node13</title>
<g id="a_Node000013"><a xlink:title=" ">
<polygon fill="#e0e0e0" stroke="#999999" points="965,-140 862,-140 862,-121 965,-121 965,-140"/>
<text text-anchor="middle" x="913.5" y="-128" font-family="Helvetica,sans-Serif" font-size="10.00">AMReX_TagBox.H</text>
</a>
</g>
</g>
<!-- Node11&#45;&gt;Node13 -->
<g id="edge12_Node000011_Node000013" class="edge">
<title>Node11&#45;&gt;Node13</title>
<g id="a_edge12_Node000011_Node000013"><a xlink:title=" ">
<path fill="none" stroke="#63b8ff" d="M818.44,-175.99C838.92,-166.4 865.88,-153.79 885.85,-144.44"/>
<polygon fill="#63b8ff" stroke="#63b8ff" points="887.47,-147.55 895.04,-140.14 884.5,-141.21 887.47,-147.55"/>
</a>
</g>
</g>
<!-- Node14 -->
<g id="Node000014" class="node">
<title>Node14</title>
<g id="a_Node000014"><a xlink:href="_factory_8_h.html" target="_top" xlink:title=" ">
<polygon fill="white" stroke="#666666" points="715.5,-140 613.5,-140 613.5,-121 715.5,-121 715.5,-140"/>
<text text-anchor="middle" x="664.5" y="-128" font-family="Helvetica,sans-Serif" font-size="10.00">src/core/Factory.H</text>
</a>
</g>
</g>
<!-- Node11&#45;&gt;Node14 -->
<g id="edge13_Node000011_Node000014" class="edge">
<title>Node11&#45;&gt;Node14</title>
<g id="a_edge13_Node000011_Node000014"><a xlink:title=" ">
<path fill="none" stroke="#63b8ff" d="M758.8,-175.99C738.48,-166.4 711.74,-153.79 691.92,-144.44"/>
<polygon fill="#63b8ff" stroke="#63b8ff" points="693.35,-141.24 682.81,-140.14 690.36,-147.57 693.35,-141.24"/>
</a>
</g>
</g>
<!-- Node15 -->
<g id="Node000015" class="node">
<title>Node15</title>
<g id="a_Node000015"><a xlink:title=" ">
<polygon fill="#e0e0e0" stroke="#999999" points="853.5,-79.5 795.5,-79.5 795.5,-60.5 853.5,-60.5 853.5,-79.5"/>
<text text-anchor="middle" x="824.5" y="-67.5" font-family="Helvetica,sans-Serif" font-size="10.00">memory</text>
</a>
</g>
</g>
<!-- Node14&#45;&gt;Node15 -->
<g id="edge14_Node000014_Node000015" class="edge">
<title>Node14&#45;&gt;Node15</title>
<g id="a_edge14_Node000014_Node000015"><a xlink:title=" ">
<path fill="none" stroke="#63b8ff" d="M687.9,-120.99C712.46,-112.05 752.21,-97.57 786.5,-85 788.13,-84.4 789.81,-83.79 791.5,-83.17"/>
<polygon fill="#63b8ff" stroke="#63b8ff" points="793.02,-86.34 801.19,-79.6 790.6,-79.77 793.02,-86.34"/>
</a>
</g>
</g>
<!-- Node16 -->
<g id="Node000016" class="node">
<title>Node16</title>
<g id="a_Node000016"><a xlink:title=" ">
<polygon fill="#e0e0e0" stroke="#999999" points="965,-79.5 872,-79.5 872,-60.5 965,-60.5 965,-79.5"/>
<text text-anchor="middle" x="918.5" y="-67.5" font-family="Helvetica,sans-Serif" font-size="10.00">unordered_map</text>
</a>
</g>
</g>
<!-- Node14&#45;&gt;Node16 -->
<g id="edge15_Node000014_Node000016" class="edge">
<title>Node14&#45;&gt;Node16</title>
<g id="a_edge15_Node000014_Node000016"><a xlink:title=" ">
<path fill="none" stroke="#63b8ff" d="M703.63,-120.99C743.62,-112.23 807.48,-98.06 862.5,-85 866.56,-84.04 870.78,-83.02 875,-81.98"/>
<polygon fill="#63b8ff" stroke="#63b8ff" points="875.9,-85.37 884.77,-79.57 874.23,-78.57 875.9,-85.37"/>
</a>
</g>
</g>
<!-- Node17 -->
<g id="Node000017" class="node">
<title>Node17</title>
<g id="a_Node000017"><a xlink:title=" ">
<polygon fill="#e0e0e0" stroke="#999999" points="589.5,-79.5 529.5,-79.5 529.5,-60.5 589.5,-60.5 589.5,-79.5"/>
<text text-anchor="middle" x="559.5" y="-67.5" font-family="Helvetica,sans-Serif" font-size="10.00">iostream</text>
</a>
</g>
</g>
<!-- Node14&#45;&gt;Node17 -->
<g id="edge16_Node000014_Node000017" class="edge">
<title>Node14&#45;&gt;Node17</title>
<g id="a_edge16_Node000014_Node000017"><a xlink:title=" ">
<path fill="none" stroke="#63b8ff" d="M649.01,-120.87C631.87,-111.32 604.03,-95.81 583.94,-84.62"/>
<polygon fill="#63b8ff" stroke="#63b8ff" points="585.5,-81.48 575.06,-79.67 582.09,-87.59 585.5,-81.48"/>
</a>
</g>
</g>
<!-- Node18 -->
<g id="Node000018" class="node">
<title>Node18</title>
<g id="a_Node000018"><a xlink:title=" ">
<polygon fill="#e0e0e0" stroke="#999999" points="697.5,-79.5 607.5,-79.5 607.5,-60.5 697.5,-60.5 697.5,-79.5"/>
<text text-anchor="middle" x="652.5" y="-67.5" font-family="Helvetica,sans-Serif" font-size="10.00">AMReX_Print.H</text>
</a>
</g>
</g>
<!-- Node14&#45;&gt;Node18 -->
<g id="edge17_Node000014_Node000018" class="edge">
<title>Node14&#45;&gt;Node18</title>
<g id="a_edge17_Node000014_Node000018"><a xlink:title=" ">
<path fill="none" stroke="#63b8ff" d="M662.73,-120.87C661.05,-112.66 658.46,-100.04 656.31,-89.55"/>
<polygon fill="#63b8ff" stroke="#63b8ff" points="659.72,-88.76 654.28,-79.67 652.86,-90.17 659.72,-88.76"/>
</a>
</g>
</g>
<!-- Node19 -->
<g id="Node000019" class="node">
<title>Node19</title>
<g id="a_Node000019"><a xlink:title=" ">
<polygon fill="#e0e0e0" stroke="#999999" points="777.5,-79.5 715.5,-79.5 715.5,-60.5 777.5,-60.5 777.5,-79.5"/>
<text text-anchor="middle" x="746.5" y="-67.5" font-family="Helvetica,sans-Serif" font-size="10.00">AMReX.H</text>
</a>
</g>
</g>
<!-- Node14&#45;&gt;Node19 -->
<g id="edge18_Node000014_Node000019" class="edge">
<title>Node14&#45;&gt;Node19</title>
<g id="a_edge18_Node000014_Node000019"><a xlink:title=" ">
<path fill="none" stroke="#63b8ff" d="M676.6,-120.87C689.56,-111.62 710.36,-96.78 725.9,-85.69"/>
<polygon fill="#63b8ff" stroke="#63b8ff" points="728.24,-88.32 734.35,-79.67 724.18,-82.63 728.24,-88.32"/>
</a>
</g>
</g>
<!-- Node21 -->
<g id="Node000021" class="node">
<title>Node21</title>
<g id="a_Node000021"><a xlink:href="vector_8_h.html" target="_top" xlink:title=" ">
<polygon fill="white" stroke="#666666" points="201,-140 88,-140 88,-121 201,-121 201,-140"/>
<text text-anchor="middle" x="144.5" y="-128" font-family="Helvetica,sans-Serif" font-size="10.00">src/core/vs/vector.H</text>
</a>
</g>
</g>
<!-- Node20&#45;&gt;Node21 -->
<g id="edge20_Node000020_Node000021" class="edge">
<title>Node20&#45;&gt;Node21</title>
<g id="a_edge20_Node000020_Node000021"><a xlink:title=" ">
<path fill="none" stroke="#63b8ff" d="M245.82,-241.8C232.34,-232.46 215.05,-219.49 201.5,-206 183.72,-188.3 166.7,-164.93 155.96,-149.12"/>
<polygon fill="#63b8ff" stroke="#63b8ff" points="158.59,-146.76 150.14,-140.37 152.77,-150.64 158.59,-146.76"/>
</a>
</g>
</g>
<!-- Node28 -->
<g id="Node000028" class="node">
<title>Node28</title>
<g id="a_Node000028"><a xlink:href="tensor_8_h.html" target="_top" xlink:title=" ">
<polygon fill="white" stroke="#666666" points="324,-200.5 211,-200.5 211,-181.5 324,-181.5 324,-200.5"/>
<text text-anchor="middle" x="267.5" y="-188.5" font-family="Helvetica,sans-Serif" font-size="10.00">src/core/vs/tensor.H</text>
</a>
</g>
</g>
<!-- Node20&#45;&gt;Node28 -->
<g id="edge28_Node000020_Node000028" class="edge">
<title>Node20&#45;&gt;Node28</title>
<g id="a_edge28_Node000020_Node000028"><a xlink:title=" ">
<path fill="none" stroke="#63b8ff" d="M267.5,-241.8C267.5,-232.7 267.5,-220.79 267.5,-210.9"/>
<polygon fill="#63b8ff" stroke="#63b8ff" points="271,-210.84 267.5,-200.84 264,-210.84 271,-210.84"/>
</a>
</g>
</g>
<!-- Node22 -->
<g id="Node000022" class="node">
<title>Node22</title>
<g id="a_Node000022"><a xlink:title=" ">
<polygon fill="#e0e0e0" stroke="#999999" points="87,-19 0,-19 0,0 87,0 87,-19"/>
<text text-anchor="middle" x="43.5" y="-7" font-family="Helvetica,sans-Serif" font-size="10.00">AMReX_Gpu.H</text>
</a>
</g>
</g>
<!-- Node21&#45;&gt;Node22 -->
<g id="edge21_Node000021_Node000022" class="edge">
<title>Node21&#45;&gt;Node22</title>
<g id="a_edge21_Node000021_Node000022"><a xlink:title=" ">
<path fill="none" stroke="#63b8ff" d="M118.23,-120.97C100.61,-113.96 78.2,-102.33 64.5,-85 51.89,-69.05 46.85,-45.94 44.84,-29.69"/>
<polygon fill="#63b8ff" stroke="#63b8ff" points="48.28,-28.9 43.84,-19.28 41.31,-29.57 48.28,-28.9"/>
</a>
</g>
</g>
<!-- Node23 -->
<g id="Node000023" class="node">
<title>Node23</title>
<g id="a_Node000023"><a xlink:href="vstraits_8_h.html" target="_top" xlink:title=" ">
<polygon fill="white" stroke="#666666" points="327,-79.5 208,-79.5 208,-60.5 327,-60.5 327,-79.5"/>
<text text-anchor="middle" x="267.5" y="-67.5" font-family="Helvetica,sans-Serif" font-size="10.00">src/core/vs/vstraits.H</text>
</a>
</g>
</g>
<!-- Node21&#45;&gt;Node23 -->
<g id="edge22_Node000021_Node000023" class="edge">
<title>Node21&#45;&gt;Node23</title>
<g id="a_edge22_Node000021_Node000023"><a xlink:title=" ">
<path fill="none" stroke="#63b8ff" d="M162.39,-120.99C182.88,-111.25 216.69,-95.16 240.42,-83.88"/>
<polygon fill="#63b8ff" stroke="#63b8ff" points="242.07,-86.97 249.59,-79.52 239.06,-80.65 242.07,-86.97"/>
</a>
</g>
</g>
<!-- Node25 -->
<g id="Node000025" class="node">
<title>Node25</title>
<g id="a_Node000025"><a xlink:href="vector_i_8_h.html" target="_top" xlink:title=" ">
<polygon fill="white" stroke="#666666" points="189.5,-79.5 73.5,-79.5 73.5,-60.5 189.5,-60.5 189.5,-79.5"/>
<text text-anchor="middle" x="131.5" y="-67.5" font-family="Helvetica,sans-Serif" font-size="10.00">src/core/vs/vectorI.H</text>
</a>
</g>
</g>
<!-- Node21&#45;&gt;Node25 -->
<g id="edge24_Node000021_Node000025" class="edge">
<title>Node21&#45;&gt;Node25</title>
<g id="a_edge24_Node000021_Node000025"><a xlink:title=" ">
<path fill="none" stroke="#63b8ff" d="M137.63,-120.87C134.07,-112.75 130.83,-100.31 129.34,-89.89"/>
<polygon fill="#63b8ff" stroke="#63b8ff" points="132.8,-89.33 128.46,-79.67 125.83,-89.93 132.8,-89.33"/>
</a>
</g>
</g>
<!-- Node24 -->
<g id="Node000024" class="node">
<title>Node24</title>
<g id="a_Node000024"><a xlink:title=" ">
<polygon fill="#e0e0e0" stroke="#999999" points="289.5,-19 245.5,-19 245.5,0 289.5,0 289.5,-19"/>
<text text-anchor="middle" x="267.5" y="-7" font-family="Helvetica,sans-Serif" font-size="10.00">limits</text>
</a>
</g>
</g>
<!-- Node23&#45;&gt;Node24 -->
<g id="edge23_Node000023_Node000024" class="edge">
<title>Node23&#45;&gt;Node24</title>
<g id="a_edge23_Node000023_Node000024"><a xlink:title=" ">
<path fill="none" stroke="#63b8ff" d="M267.5,-60.37C267.5,-52.25 267.5,-39.81 267.5,-29.39"/>
<polygon fill="#63b8ff" stroke="#63b8ff" points="271,-29.17 267.5,-19.17 264,-29.17 271,-29.17"/>
</a>
</g>
</g>
<!-- Node25&#45;&gt;Node21 -->
<g id="edge27_Node000025_Node000021" class="edge">
<title>Node25&#45;&gt;Node21</title>
<g id="a_edge27_Node000025_Node000021"><a xlink:title=" ">
<path fill="none" stroke="#63b8ff" d="M138.39,-79.67C141.95,-87.8 145.18,-100.24 146.67,-110.66"/>
<polygon fill="#63b8ff" stroke="#63b8ff" points="143.2,-111.2 147.54,-120.87 150.18,-110.61 143.2,-111.2"/>
</a>
</g>
</g>
<!-- Node26 -->
<g id="Node000026" class="node">
<title>Node26</title>
<g id="a_Node000026"><a xlink:title=" ">
<polygon fill="#e0e0e0" stroke="#999999" points="162,-19 105,-19 105,0 162,0 162,-19"/>
<text text-anchor="middle" x="133.5" y="-7" font-family="Helvetica,sans-Serif" font-size="10.00">ostream</text>
</a>
</g>
</g>
<!-- Node25&#45;&gt;Node26 -->
<g id="edge25_Node000025_Node000026" class="edge">
<title>Node25&#45;&gt;Node26</title>
<g id="a_edge25_Node000025_Node000026"><a xlink:title=" ">
<path fill="none" stroke="#63b8ff" d="M131.8,-60.37C132.07,-52.25 132.5,-39.81 132.85,-29.39"/>
<polygon fill="#63b8ff" stroke="#63b8ff" points="136.36,-29.28 133.2,-19.17 129.36,-29.04 136.36,-29.28"/>
</a>
</g>
</g>
<!-- Node27 -->
<g id="Node000027" class="node">
<title>Node27</title>
<g id="a_Node000027"><a xlink:title=" ">
<polygon fill="#e0e0e0" stroke="#999999" points="379,-19 332,-19 332,0 379,0 379,-19"/>
<text text-anchor="middle" x="355.5" y="-7" font-family="Helvetica,sans-Serif" font-size="10.00">cmath</text>
</a>
</g>
</g>
<!-- Node25&#45;&gt;Node27 -->
<g id="edge26_Node000025_Node000027" class="edge">
<title>Node25&#45;&gt;Node27</title>
<g id="a_edge26_Node000025_Node000027"><a xlink:title=" ">
<path fill="none" stroke="#63b8ff" d="M164.07,-60.49C206.22,-49.49 279.29,-30.4 321.92,-19.27"/>
<polygon fill="#63b8ff" stroke="#63b8ff" points="323.02,-22.6 331.81,-16.69 321.25,-15.83 323.02,-22.6"/>
</a>
</g>
</g>
<!-- Node28&#45;&gt;Node21 -->
<g id="edge31_Node000028_Node000021" class="edge">
<title>Node28&#45;&gt;Node21</title>
<g id="a_edge31_Node000028_Node000021"><a xlink:title=" ">
<path fill="none" stroke="#63b8ff" d="M249.61,-181.49C229.12,-171.75 195.31,-155.66 171.58,-144.38"/>
<polygon fill="#63b8ff" stroke="#63b8ff" points="172.94,-141.15 162.41,-140.02 169.93,-147.47 172.94,-141.15"/>
</a>
</g>
</g>
<!-- Node28&#45;&gt;Node22 -->
<g id="edge29_Node000028_Node000022" class="edge">
<title>Node28&#45;&gt;Node22</title>
<g id="a_edge29_Node000028_Node000022"><a xlink:title=" ">
<path fill="none" stroke="#63b8ff" d="M210.82,-186.41C170.41,-181.32 116.7,-169.11 78.5,-140 56.01,-122.86 54.41,-112.15 46.5,-85 41.19,-66.78 40.98,-44.99 41.77,-29.7"/>
<polygon fill="#63b8ff" stroke="#63b8ff" points="45.28,-29.66 42.5,-19.44 38.3,-29.16 45.28,-29.66"/>
</a>
</g>
</g>
<!-- Node28&#45;&gt;Node23 -->
<g id="edge30_Node000028_Node000023" class="edge">
<title>Node28&#45;&gt;Node23</title>
<g id="a_edge30_Node000028_Node000023"><a xlink:title=" ">
<path fill="none" stroke="#63b8ff" d="M267.5,-181.44C267.5,-162.41 267.5,-116.19 267.5,-89.97"/>
<polygon fill="#63b8ff" stroke="#63b8ff" points="271,-89.8 267.5,-79.8 264,-89.8 271,-89.8"/>
</a>
</g>
</g>
<!-- Node29 -->
<g id="Node000029" class="node">
<title>Node29</title>
<g id="a_Node000029"><a xlink:href="tensor_i_8_h.html" target="_top" xlink:title=" ">
<polygon fill="white" stroke="#666666" points="412.5,-140 296.5,-140 296.5,-121 412.5,-121 412.5,-140"/>
<text text-anchor="middle" x="354.5" y="-128" font-family="Helvetica,sans-Serif" font-size="10.00">src/core/vs/tensorI.H</text>
</a>
</g>
</g>
<!-- Node28&#45;&gt;Node29 -->
<g id="edge32_Node000028_Node000029" class="edge">
<title>Node28&#45;&gt;Node29</title>
<g id="a_edge32_Node000028_Node000029"><a xlink:title=" ">
<path fill="none" stroke="#63b8ff" d="M275.38,-181.37C287.35,-171.95 309.69,-156.73 327.7,-145.58"/>
<polygon fill="#63b8ff" stroke="#63b8ff" points="329.9,-148.34 336.65,-140.17 326.28,-142.34 329.9,-148.34"/>
</a>
</g>
</g>
<!-- Node29&#45;&gt;Node27 -->
<g id="edge33_Node000029_Node000027" class="edge">
<title>Node29&#45;&gt;Node27</title>
<g id="a_edge33_Node000029_Node000027"><a xlink:title=" ">
<path fill="none" stroke="#63b8ff" d="M354.57,-120.94C354.73,-101.91 355.12,-55.69 355.34,-29.47"/>
<polygon fill="#63b8ff" stroke="#63b8ff" points="358.84,-29.33 355.43,-19.3 351.84,-29.27 358.84,-29.33"/>
</a>
</g>
</g>
<!-- Node29&#45;&gt;Node28 -->
<g id="edge34_Node000029_Node000028" class="edge">
<title>Node29&#45;&gt;Node28</title>
<g id="a_edge34_Node000029_Node000028"><a xlink:title=" ">
<path fill="none" stroke="#63b8ff" d="M346.57,-140.17C334.58,-149.6 312.23,-164.82 294.23,-175.97"/>
<polygon fill="#63b8ff" stroke="#63b8ff" points="292.04,-173.2 285.29,-181.37 295.66,-179.19 292.04,-173.2"/>
</a>
</g>
</g>
<!-- Node30 -->
<g id="Node000030" class="node">
<title>Node30</title>
<g id="a_Node000030"><a xlink:href="trig__ops_8_h.html" target="_top" xlink:title=" ">
<polygon fill="white" stroke="#666666" points="473.5,-85 383.5,-85 383.5,-55 473.5,-55 473.5,-85"/>
<text text-anchor="start" x="391.5" y="-73" font-family="Helvetica,sans-Serif" font-size="10.00">src/utilities/trig</text>
<text text-anchor="middle" x="428.5" y="-62" font-family="Helvetica,sans-Serif" font-size="10.00">_ops.H</text>
</a>
</g>
</g>
<!-- Node29&#45;&gt;Node30 -->
<g id="edge35_Node000029_Node000030" class="edge">
<title>Node29&#45;&gt;Node30</title>
<g id="a_edge35_Node000029_Node000030"><a xlink:title=" ">
<path fill="none" stroke="#63b8ff" d="M365.42,-120.87C375.18,-113.15 389.87,-101.54 402.62,-91.46"/>
<polygon fill="#63b8ff" stroke="#63b8ff" points="404.97,-94.06 410.65,-85.11 400.63,-88.57 404.97,-94.06"/>
</a>
</g>
</g>
<!-- Node30&#45;&gt;Node5 -->
<g id="edge38_Node000030_Node000005" class="edge">
<title>Node30&#45;&gt;Node5</title>
<g id="a_edge38_Node000030_Node000005"><a xlink:title=" ">
<path fill="none" stroke="#63b8ff" d="M451.01,-54.84C465.56,-45.68 484.43,-33.82 498.99,-24.66"/>
<polygon fill="#63b8ff" stroke="#63b8ff" points="501.24,-27.38 507.84,-19.09 497.51,-21.46 501.24,-27.38"/>
</a>
</g>
</g>
<!-- Node30&#45;&gt;Node22 -->
<g id="edge39_Node000030_Node000022" class="edge">
<title>Node30&#45;&gt;Node22</title>
<g id="a_edge39_Node000030_Node000022"><a xlink:title=" ">
<path fill="none" stroke="#63b8ff" d="M383.09,-62.16C367.95,-59.88 351,-57.33 335.5,-55 232.07,-39.46 203.75,-35.91 97.38,-19.28"/>
<polygon fill="#63b8ff" stroke="#63b8ff" points="97.61,-15.77 87.19,-17.68 96.52,-22.69 97.61,-15.77"/>
</a>
</g>
</g>
<!-- Node30&#45;&gt;Node27 -->
<g id="edge36_Node000030_Node000027" class="edge">
<title>Node30&#45;&gt;Node27</title>
<g id="a_edge36_Node000030_Node000027"><a xlink:title=" ">
<path fill="none" stroke="#63b8ff" d="M410.83,-54.84C399.8,-46 385.61,-34.63 374.37,-25.62"/>
<polygon fill="#63b8ff" stroke="#63b8ff" points="376.43,-22.79 366.44,-19.27 372.05,-28.25 376.43,-22.79"/>
</a>
</g>
</g>
<!-- Node31 -->
<g id="Node000031" class="node">
<title>Node31</title>
<g id="a_Node000031"><a xlink:title=" ">
<polygon fill="#e0e0e0" stroke="#999999" points="457,-19 398,-19 398,0 457,0 457,-19"/>
<text text-anchor="middle" x="427.5" y="-7" font-family="Helvetica,sans-Serif" font-size="10.00">numbers</text>
</a>
</g>
</g>
<!-- Node30&#45;&gt;Node31 -->
<g id="edge37_Node000030_Node000031" class="edge">
<title>Node30&#45;&gt;Node31</title>
<g id="a_edge37_Node000030_Node000031"><a xlink:title=" ">
<path fill="none" stroke="#63b8ff" d="M428.26,-54.84C428.13,-47.21 427.97,-37.7 427.82,-29.45"/>
<polygon fill="#63b8ff" stroke="#63b8ff" points="431.32,-29.2 427.65,-19.27 424.32,-29.32 431.32,-29.2"/>
</a>
</g>
</g>
</g>
</svg>

<g id="navigator" transform="translate(0 0)" fill="#404254">
  <rect fill="#f2f5e9" fill-opacity="0.5" stroke="#606060" stroke-width=".5" x="0" y="0" width="60" height="60"/>
  <use id="zoomplus" xlink:href="#zoomPlus" x="17" y="9" onmousedown="handleZoom(evt,'in')"/>
  <use id="zoomminus" xlink:href="#zoomMin" x="42" y="9" onmousedown="handleZoom(evt,'out')"/>
  <use id="reset" xlink:href="#resetDef" x="30" y="36" onmousedown="handleReset()"/>
   <use id="arrowup" xlink:href="#arrowUp" x="0" y="0" onmousedown="handlePan(0,-1)"/>
  <use id="arrowright" xlink:href="#arrowRight" x="0" y="0" onmousedown="handlePan(1,0)"/>
  <use id="arrowdown" xlink:href="#arrowDown" x="0" y="0" onmousedown="handlePan(0,1)"/>
  <use id="arrowleft" xlink:href="#arrowLeft" x="0" y="0" onmousedown="handlePan(-1,0)"/>
</g>
<svg viewBox="0 0 15 15" width="100%" height="30px" preserveAspectRatio="xMaxYMin meet">
 <g id="arrow_out" transform="scale(0.3 0.3)">
  <a xlink:href="_cylinder_refiner_8_h__incl_org.svg" target="_base">
   <rect id="button" ry="5" rx="5" y="6" x="6" height="38" width="38"
        fill="#f2f5e9" fill-opacity="0.5" stroke="#606060" stroke-width="1.0"/>
   <path id="arrow"
     d="M 11.500037,31.436501 C 11.940474,20.09759 22.043105,11.32322 32.158766,21.979434 L 37.068811,17.246167 C 37.068811,17.246167 37.088388,32 37.088388,32 L 22.160133,31.978069 C 22.160133,31.978069 26.997745,27.140456 26.997745,27.140456 C 18.528582,18.264221 13.291696,25.230495 11.500037,31.436501 z"
     style="fill:#404040;"/>
  </a>
 </g>
</svg>

<style type='text/css'>
<![CDATA[
[data-mouse-over-selected='false'] { opacity: 0.7; }
[data-mouse-over-selected='true']  { opacity: 1.0; }
]]>
</style>
<script type="application/ecmascript"><![CDATA[
document.addEventListener('DOMContentLoaded', (event) => {
  highlightEdges();
  highlightAdjacentNodes();
});
]]></script>
</svg>
