<?xml version="1.0" encoding="UTF-8" standalone="no"?>
<!DOCTYPE svg PUBLIC "-//W3C//DTD SVG 1.1//EN"
 "http://www.w3.org/Graphics/SVG/1.1/DTD/svg11.dtd">
<!-- Generated by graphviz version 2.43.0 (0)
 -->
<!-- Title: /home/runner/work/amr&#45;wind/amr&#45;wind/src/utilities/tagging/CylinderRefiner.cpp Pages: 1 -->
<!--zoomable 423 -->

<svg id="main" version="1.1" xmlns="http://www.w3.org/2000/svg" xmlns:xlink="http://www.w3.org/1999/xlink" xml:space="preserve" onload="init(evt)">

<style type="text/css"><![CDATA[
.node, .edge {opacity: 0.7;}
.node.selected, .edge.selected {opacity: 1;}
.edge:hover path { stroke: red; }
.edge:hover polygon { stroke: red; fill: red; }
]]></style>

<defs>
  <circle id="rim" cx="0" cy="0" r="7"/>
  <circle id="rim2" cx="0" cy="0" r="3.5"/>
  <g id="zoomPlus">
    <use xlink:href="#rim" fill="#404040"><set attributeName="fill" to="#808080" begin="zoomplus.mouseover" end="zoomplus.mouseout"/></use>
    <path d="M-4,0h8M0,-4v8" fill="none" stroke="white" stroke-width="1.5" pointer-events="none"/>
  </g>
  <g id="zoomMin">
    <use xlink:href="#rim" fill="#404040"><set attributeName="fill" to="#808080" begin="zoomminus.mouseover" end="zoomminus.mouseout"/></use>
    <path d="M-4,0h8" fill="none" stroke="white" stroke-width="1.5" pointer-events="none"/>
  </g>
  <g id="arrowUp" transform="translate(30 24)">
    <use xlink:href="#rim"/>
    <path pointer-events="none" fill="none" stroke="white" stroke-width="1.5" d="M0,-3.0v7 M-2.5,-0.5L0,-3.0L2.5,-0.5"/>
  </g>
  <g id="arrowRight" transform="rotate(90) translate(36 -43)">
    <use xlink:href="#rim"/>
    <path pointer-events="none" fill="none" stroke="white" stroke-width="1.5" d="M0,-3.0v7 M-2.5,-0.5L0,-3.0L2.5,-0.5"/>
  </g>
  <g id="arrowDown" transform="rotate(180) translate(-30 -48)">
    <use xlink:href="#rim"/>
    <path pointer-events="none" fill="none" stroke="white" stroke-width="1.5" d="M0,-3.0v7 M-2.5,-0.5L0,-3.0L2.5,-0.5"/>
  </g>
  <g id="arrowLeft" transform="rotate(270) translate(-36 17)">
    <use xlink:href="#rim"/>
    <path pointer-events="none" fill="none" stroke="white" stroke-width="1.5" d="M0,-3.0v7 M-2.5,-0.5L0,-3.0L2.5,-0.5"/>
  </g>
  <g id="resetDef">
    <use xlink:href="#rim2" fill="#404040"><set attributeName="fill" to="#808080" begin="reset.mouseover" end="reset.mouseout"/></use>
  </g>
</defs>
<script type="application/ecmascript">
var viewWidth = 1793;
var viewHeight = 423;
var sectionId = 'dynsection-0';
</script>
<script type="application/ecmascript" xlink:href="svg.min.js"/>
<svg id="graph" class="graph">
<g id="viewport">
<title>/home/runner/work/amr&#45;wind/amr&#45;wind/src/utilities/tagging/CylinderRefiner.cpp</title>
<!-- Node1 -->
<g id="Node000001" class="node">
<title>Node1</title>
<g id="a_Node000001"><a xlink:title=" ">
<polygon fill="#999999" stroke="#666666" points="1714.5,-415 1560.5,-415 1560.5,-374 1714.5,-374 1714.5,-415"/>
<text text-anchor="start" x="1568.5" y="-403" font-family="Helvetica,sans-Serif" font-size="10.00">/home/runner/work/amr</text>
<text text-anchor="start" x="1568.5" y="-392" font-family="Helvetica,sans-Serif" font-size="10.00">&#45;wind/amr&#45;wind/src/utilities</text>
<text text-anchor="middle" x="1637.5" y="-381" font-family="Helvetica,sans-Serif" font-size="10.00">/tagging/CylinderRefiner.cpp</text>
</a>
</g>
</g>
<!-- Node2 -->
<g id="Node000002" class="node">
<title>Node2</title>
<g id="a_Node000002"><a xlink:href="_cylinder_refiner_8_h.html" target="_top" xlink:title=" ">
<polygon fill="white" stroke="#666666" points="658.5,-338 548.5,-338 548.5,-308 658.5,-308 658.5,-338"/>
<text text-anchor="start" x="556.5" y="-326" font-family="Helvetica,sans-Serif" font-size="10.00">src/utilities/tagging</text>
<text text-anchor="middle" x="603.5" y="-315" font-family="Helvetica,sans-Serif" font-size="10.00">/CylinderRefiner.H</text>
</a>
</g>
</g>
<!-- Node1&#45;&gt;Node2 -->
<g id="edge1_Node000001_Node000002" class="edge">
<title>Node1&#45;&gt;Node2</title>
<g id="a_edge1_Node000001_Node000002"><a xlink:title=" ">
<path fill="none" stroke="#63b8ff" d="M1560.2,-388.3C1364.28,-375.14 850.86,-340.63 668.73,-328.38"/>
<polygon fill="#63b8ff" stroke="#63b8ff" points="668.72,-324.88 658.5,-327.7 668.25,-331.86 668.72,-324.88"/>
</a>
</g>
</g>
<!-- Node6 -->
<g id="Node000006" class="node">
<title>Node6</title>
<g id="a_Node000006"><a xlink:title=" ">
<polygon fill="#e0e0e0" stroke="#999999" points="1106.5,-19 1014.5,-19 1014.5,0 1106.5,0 1106.5,-19"/>
<text text-anchor="middle" x="1060.5" y="-7" font-family="Helvetica,sans-Serif" font-size="10.00">AMReX_REAL.H</text>
</a>
</g>
</g>
<!-- Node1&#45;&gt;Node6 -->
<g id="edge43_Node000001_Node000006" class="edge">
<title>Node1&#45;&gt;Node6</title>
<g id="a_edge43_Node000001_Node000006"><a xlink:title=" ">
<path fill="none" stroke="#63b8ff" d="M1637.5,-373.75C1637.5,-347.37 1637.5,-299.17 1637.5,-258 1637.5,-258 1637.5,-258 1637.5,-129.5 1637.5,-23.87 1261.91,-11.23 1116.79,-10.28"/>
<polygon fill="#63b8ff" stroke="#63b8ff" points="1116.76,-6.78 1106.74,-10.23 1116.73,-13.78 1116.76,-6.78"/>
</a>
</g>
</g>
<!-- Node33 -->
<g id="Node000033" class="node">
<title>Node33</title>
<g id="a_Node000033"><a xlink:title=" ">
<polygon fill="#e0e0e0" stroke="#999999" points="1785,-332.5 1666,-332.5 1666,-313.5 1785,-313.5 1785,-332.5"/>
<text text-anchor="middle" x="1725.5" y="-320.5" font-family="Helvetica,sans-Serif" font-size="10.00">AMReX_ParmParse.H</text>
</a>
</g>
</g>
<!-- Node1&#45;&gt;Node33 -->
<g id="edge42_Node000001_Node000033" class="edge">
<title>Node1&#45;&gt;Node33</title>
<g id="a_edge42_Node000001_Node000033"><a xlink:title=" ">
<path fill="none" stroke="#63b8ff" d="M1662.48,-373.77C1676.35,-362.81 1693.35,-349.39 1706.19,-339.25"/>
<polygon fill="#63b8ff" stroke="#63b8ff" points="1708.65,-341.76 1714.33,-332.82 1704.32,-336.27 1708.65,-341.76"/>
</a>
</g>
</g>
<!-- Node3 -->
<g id="Node000003" class="node">
<title>Node3</title>
<g id="a_Node000003"><a xlink:href="_geometry_refinement_8_h.html" target="_top" xlink:title=" ">
<polygon fill="white" stroke="#666666" points="772,-272 637,-272 637,-242 772,-242 772,-272"/>
<text text-anchor="start" x="645" y="-260" font-family="Helvetica,sans-Serif" font-size="10.00">src/utilities/tagging</text>
<text text-anchor="middle" x="704.5" y="-249" font-family="Helvetica,sans-Serif" font-size="10.00">/GeometryRefinement.H</text>
</a>
</g>
</g>
<!-- Node2&#45;&gt;Node3 -->
<g id="edge2_Node000002_Node000003" class="edge">
<title>Node2&#45;&gt;Node3</title>
<g id="a_edge2_Node000002_Node000003"><a xlink:title=" ">
<path fill="none" stroke="#63b8ff" d="M625.92,-307.8C639.91,-298.93 658.12,-287.39 673.48,-277.66"/>
<polygon fill="#63b8ff" stroke="#63b8ff" points="675.57,-280.47 682.15,-272.16 671.83,-274.56 675.57,-280.47"/>
</a>
</g>
</g>
<!-- Node2&#45;&gt;Node6 -->
<g id="edge41_Node000002_Node000006" class="edge">
<title>Node2&#45;&gt;Node6</title>
<g id="a_edge41_Node000002_Node000006"><a xlink:title=" ">
<path fill="none" stroke="#63b8ff" d="M581.62,-307.91C551.65,-286.69 501.5,-243.49 501.5,-192 501.5,-192 501.5,-192 501.5,-129.5 501.5,-95.33 494.4,-77.06 520.5,-55 556.83,-24.3 872.87,-14.33 1003.93,-11.5"/>
<polygon fill="#63b8ff" stroke="#63b8ff" points="1004.24,-14.99 1014.16,-11.29 1004.09,-8 1004.24,-14.99"/>
</a>
</g>
</g>
<!-- Node21 -->
<g id="Node000021" class="node">
<title>Node21</title>
<g id="a_Node000021"><a xlink:href="vector__space_8_h.html" target="_top" xlink:title=" ">
<polygon fill="white" stroke="#666666" points="319,-272 216,-272 216,-242 319,-242 319,-272"/>
<text text-anchor="start" x="224" y="-260" font-family="Helvetica,sans-Serif" font-size="10.00">src/core/vs/vector</text>
<text text-anchor="middle" x="267.5" y="-249" font-family="Helvetica,sans-Serif" font-size="10.00">_space.H</text>
</a>
</g>
</g>
<!-- Node2&#45;&gt;Node21 -->
<g id="edge20_Node000002_Node000021" class="edge">
<title>Node2&#45;&gt;Node21</title>
<g id="a_edge20_Node000002_Node000021"><a xlink:title=" ">
<path fill="none" stroke="#63b8ff" d="M548.39,-311.5C488.17,-300.03 391.91,-281.7 329.2,-269.75"/>
<polygon fill="#63b8ff" stroke="#63b8ff" points="329.53,-266.25 319.05,-267.82 328.22,-273.13 329.53,-266.25"/>
</a>
</g>
</g>
<!-- Node4 -->
<g id="Node000004" class="node">
<title>Node4</title>
<g id="a_Node000004"><a xlink:href="index__operations_8_h.html" target="_top" xlink:title=" ">
<polygon fill="white" stroke="#666666" points="1287,-206 1186,-206 1186,-176 1287,-176 1287,-206"/>
<text text-anchor="start" x="1194" y="-194" font-family="Helvetica,sans-Serif" font-size="10.00">src/utilities/index</text>
<text text-anchor="middle" x="1236.5" y="-183" font-family="Helvetica,sans-Serif" font-size="10.00">_operations.H</text>
</a>
</g>
</g>
<!-- Node3&#45;&gt;Node4 -->
<g id="edge3_Node000003_Node000004" class="edge">
<title>Node3&#45;&gt;Node4</title>
<g id="a_edge3_Node000003_Node000004"><a xlink:title=" ">
<path fill="none" stroke="#63b8ff" d="M772.15,-247.86C876.72,-235.28 1075.99,-211.31 1176.03,-199.27"/>
<polygon fill="#63b8ff" stroke="#63b8ff" points="1176.47,-202.75 1185.98,-198.08 1175.63,-195.8 1176.47,-202.75"/>
</a>
</g>
</g>
<!-- Node12 -->
<g id="Node000012" class="node">
<title>Node12</title>
<g id="a_Node000012"><a xlink:href="_refinement_criteria_8_h.html" target="_top" xlink:title=" ">
<polygon fill="white" stroke="#666666" points="765.5,-206 643.5,-206 643.5,-176 765.5,-176 765.5,-206"/>
<text text-anchor="start" x="651.5" y="-194" font-family="Helvetica,sans-Serif" font-size="10.00">src/utilities/tagging</text>
<text text-anchor="middle" x="704.5" y="-183" font-family="Helvetica,sans-Serif" font-size="10.00">/RefinementCriteria.H</text>
</a>
</g>
</g>
<!-- Node3&#45;&gt;Node12 -->
<g id="edge11_Node000003_Node000012" class="edge">
<title>Node3&#45;&gt;Node12</title>
<g id="a_edge11_Node000003_Node000012"><a xlink:title=" ">
<path fill="none" stroke="#63b8ff" d="M704.5,-241.8C704.5,-234.34 704.5,-224.99 704.5,-216.41"/>
<polygon fill="#63b8ff" stroke="#63b8ff" points="708,-216.16 704.5,-206.16 701,-216.16 708,-216.16"/>
</a>
</g>
</g>
<!-- Node5 -->
<g id="Node000005" class="node">
<title>Node5</title>
<g id="a_Node000005"><a xlink:title=" ">
<polygon fill="#e0e0e0" stroke="#999999" points="1571.5,-140 1507.5,-140 1507.5,-121 1571.5,-121 1571.5,-140"/>
<text text-anchor="middle" x="1539.5" y="-128" font-family="Helvetica,sans-Serif" font-size="10.00">algorithm</text>
</a>
</g>
</g>
<!-- Node4&#45;&gt;Node5 -->
<g id="edge4_Node000004_Node000005" class="edge">
<title>Node4&#45;&gt;Node5</title>
<g id="a_edge4_Node000004_Node000005"><a xlink:title=" ">
<path fill="none" stroke="#63b8ff" d="M1287.26,-180.56C1337.91,-171.08 1418.23,-155.91 1497.16,-140.24"/>
<polygon fill="#63b8ff" stroke="#63b8ff" points="1498.16,-143.61 1507.28,-138.23 1496.79,-136.75 1498.16,-143.61"/>
</a>
</g>
</g>
<!-- Node4&#45;&gt;Node6 -->
<g id="edge5_Node000004_Node000006" class="edge">
<title>Node4&#45;&gt;Node6</title>
<g id="a_edge5_Node000004_Node000006"><a xlink:title=" ">
<path fill="none" stroke="#63b8ff" d="M1287.32,-188.2C1391.91,-183.51 1618.45,-167.86 1580.5,-121 1522.58,-49.48 1239.31,-22.33 1116.96,-13.82"/>
<polygon fill="#63b8ff" stroke="#63b8ff" points="1116.89,-10.31 1106.68,-13.13 1116.42,-17.3 1116.89,-10.31"/>
</a>
</g>
</g>
<!-- Node7 -->
<g id="Node000007" class="node">
<title>Node7</title>
<g id="a_Node000007"><a xlink:title=" ">
<polygon fill="#e0e0e0" stroke="#999999" points="997.5,-140 899.5,-140 899.5,-121 997.5,-121 997.5,-140"/>
<text text-anchor="middle" x="948.5" y="-128" font-family="Helvetica,sans-Serif" font-size="10.00">AMReX_Vector.H</text>
</a>
</g>
</g>
<!-- Node4&#45;&gt;Node7 -->
<g id="edge6_Node000004_Node000007" class="edge">
<title>Node4&#45;&gt;Node7</title>
<g id="a_edge6_Node000004_Node000007"><a xlink:title=" ">
<path fill="none" stroke="#63b8ff" d="M1185.67,-179.68C1133.6,-169.1 1053.02,-152.73 1000.52,-142.07"/>
<polygon fill="#63b8ff" stroke="#63b8ff" points="1000.9,-138.57 990.41,-140.01 999.51,-145.43 1000.9,-138.57"/>
</a>
</g>
</g>
<!-- Node8 -->
<g id="Node000008" class="node">
<title>Node8</title>
<g id="a_Node000008"><a xlink:title=" ">
<polygon fill="#e0e0e0" stroke="#999999" points="1101.5,-140 1015.5,-140 1015.5,-121 1101.5,-121 1101.5,-140"/>
<text text-anchor="middle" x="1058.5" y="-128" font-family="Helvetica,sans-Serif" font-size="10.00">AMReX_Box.H</text>
</a>
</g>
</g>
<!-- Node4&#45;&gt;Node8 -->
<g id="edge7_Node000004_Node000008" class="edge">
<title>Node4&#45;&gt;Node8</title>
<g id="a_edge7_Node000004_Node000008"><a xlink:title=" ">
<path fill="none" stroke="#63b8ff" d="M1193.86,-175.99C1163.41,-165.98 1122.91,-152.67 1094.17,-143.22"/>
<polygon fill="#63b8ff" stroke="#63b8ff" points="1095.12,-139.85 1084.53,-140.05 1092.93,-146.5 1095.12,-139.85"/>
</a>
</g>
</g>
<!-- Node9 -->
<g id="Node000009" class="node">
<title>Node9</title>
<g id="a_Node000009"><a xlink:title=" ">
<polygon fill="#e0e0e0" stroke="#999999" points="1227.5,-140 1119.5,-140 1119.5,-121 1227.5,-121 1227.5,-140"/>
<text text-anchor="middle" x="1173.5" y="-128" font-family="Helvetica,sans-Serif" font-size="10.00">AMReX_RealBox.H</text>
</a>
</g>
</g>
<!-- Node4&#45;&gt;Node9 -->
<g id="edge8_Node000004_Node000009" class="edge">
<title>Node4&#45;&gt;Node9</title>
<g id="a_edge8_Node000004_Node000009"><a xlink:title=" ">
<path fill="none" stroke="#63b8ff" d="M1221.25,-175.84C1211.92,-167.17 1199.97,-156.08 1190.35,-147.15"/>
<polygon fill="#63b8ff" stroke="#63b8ff" points="1192.65,-144.51 1182.94,-140.27 1187.89,-149.64 1192.65,-144.51"/>
</a>
</g>
</g>
<!-- Node10 -->
<g id="Node000010" class="node">
<title>Node10</title>
<g id="a_Node000010"><a xlink:title=" ">
<polygon fill="#e0e0e0" stroke="#999999" points="1355.5,-140 1245.5,-140 1245.5,-121 1355.5,-121 1355.5,-140"/>
<text text-anchor="middle" x="1300.5" y="-128" font-family="Helvetica,sans-Serif" font-size="10.00">AMReX_RealVect.H</text>
</a>
</g>
</g>
<!-- Node4&#45;&gt;Node10 -->
<g id="edge9_Node000004_Node000010" class="edge">
<title>Node4&#45;&gt;Node10</title>
<g id="a_edge9_Node000004_Node000010"><a xlink:title=" ">
<path fill="none" stroke="#63b8ff" d="M1251.99,-175.84C1261.47,-167.17 1273.61,-156.08 1283.38,-147.15"/>
<polygon fill="#63b8ff" stroke="#63b8ff" points="1285.89,-149.6 1290.91,-140.27 1281.17,-144.43 1285.89,-149.6"/>
</a>
</g>
</g>
<!-- Node11 -->
<g id="Node000011" class="node">
<title>Node11</title>
<g id="a_Node000011"><a xlink:title=" ">
<polygon fill="#e0e0e0" stroke="#999999" points="1489,-140 1374,-140 1374,-121 1489,-121 1489,-140"/>
<text text-anchor="middle" x="1431.5" y="-128" font-family="Helvetica,sans-Serif" font-size="10.00">AMReX_Geometry.H</text>
</a>
</g>
</g>
<!-- Node4&#45;&gt;Node11 -->
<g id="edge10_Node000004_Node000011" class="edge">
<title>Node4&#45;&gt;Node11</title>
<g id="a_edge10_Node000004_Node000011"><a xlink:title=" ">
<path fill="none" stroke="#63b8ff" d="M1283.21,-175.99C1316.86,-165.89 1361.71,-152.44 1393.25,-142.98"/>
<polygon fill="#63b8ff" stroke="#63b8ff" points="1394.42,-146.28 1402.99,-140.05 1392.4,-139.57 1394.42,-146.28"/>
</a>
</g>
</g>
<!-- Node13 -->
<g id="Node000013" class="node">
<title>Node13</title>
<g id="a_Node000013"><a xlink:title=" ">
<polygon fill="#e0e0e0" stroke="#999999" points="759.5,-140 649.5,-140 649.5,-121 759.5,-121 759.5,-140"/>
<text text-anchor="middle" x="704.5" y="-128" font-family="Helvetica,sans-Serif" font-size="10.00">AMReX_AmrCore.H</text>
</a>
</g>
</g>
<!-- Node12&#45;&gt;Node13 -->
<g id="edge12_Node000012_Node000013" class="edge">
<title>Node12&#45;&gt;Node13</title>
<g id="a_edge12_Node000012_Node000013"><a xlink:title=" ">
<path fill="none" stroke="#63b8ff" d="M704.5,-175.84C704.5,-168.21 704.5,-158.7 704.5,-150.45"/>
<polygon fill="#63b8ff" stroke="#63b8ff" points="708,-150.27 704.5,-140.27 701,-150.27 708,-150.27"/>
</a>
</g>
</g>
<!-- Node14 -->
<g id="Node000014" class="node">
<title>Node14</title>
<g id="a_Node000014"><a xlink:title=" ">
<polygon fill="#e0e0e0" stroke="#999999" points="881,-140 778,-140 778,-121 881,-121 881,-140"/>
<text text-anchor="middle" x="829.5" y="-128" font-family="Helvetica,sans-Serif" font-size="10.00">AMReX_TagBox.H</text>
</a>
</g>
</g>
<!-- Node12&#45;&gt;Node14 -->
<g id="edge13_Node000012_Node000014" class="edge">
<title>Node12&#45;&gt;Node14</title>
<g id="a_edge13_Node000012_Node000014"><a xlink:title=" ">
<path fill="none" stroke="#63b8ff" d="M734.44,-175.99C754.92,-166.4 781.88,-153.79 801.85,-144.44"/>
<polygon fill="#63b8ff" stroke="#63b8ff" points="803.47,-147.55 811.04,-140.14 800.5,-141.21 803.47,-147.55"/>
</a>
</g>
</g>
<!-- Node15 -->
<g id="Node000015" class="node">
<title>Node15</title>
<g id="a_Node000015"><a xlink:href="_factory_8_h.html" target="_top" xlink:title=" ">
<polygon fill="white" stroke="#666666" points="631.5,-140 529.5,-140 529.5,-121 631.5,-121 631.5,-140"/>
<text text-anchor="middle" x="580.5" y="-128" font-family="Helvetica,sans-Serif" font-size="10.00">src/core/Factory.H</text>
</a>
</g>
</g>
<!-- Node12&#45;&gt;Node15 -->
<g id="edge14_Node000012_Node000015" class="edge">
<title>Node12&#45;&gt;Node15</title>
<g id="a_edge14_Node000012_Node000015"><a xlink:title=" ">
<path fill="none" stroke="#63b8ff" d="M674.8,-175.99C654.48,-166.4 627.74,-153.79 607.92,-144.44"/>
<polygon fill="#63b8ff" stroke="#63b8ff" points="609.35,-141.24 598.81,-140.14 606.36,-147.57 609.35,-141.24"/>
</a>
</g>
</g>
<!-- Node16 -->
<g id="Node000016" class="node">
<title>Node16</title>
<g id="a_Node000016"><a xlink:title=" ">
<polygon fill="#e0e0e0" stroke="#999999" points="853.5,-79.5 795.5,-79.5 795.5,-60.5 853.5,-60.5 853.5,-79.5"/>
<text text-anchor="middle" x="824.5" y="-67.5" font-family="Helvetica,sans-Serif" font-size="10.00">memory</text>
</a>
</g>
</g>
<!-- Node15&#45;&gt;Node16 -->
<g id="edge15_Node000015_Node000016" class="edge">
<title>Node15&#45;&gt;Node16</title>
<g id="a_edge15_Node000015_Node000016"><a xlink:title=" ">
<path fill="none" stroke="#63b8ff" d="M629.26,-120.97C671.31,-113.13 733.45,-100.42 786.5,-85 788.78,-84.34 791.12,-83.61 793.46,-82.84"/>
<polygon fill="#63b8ff" stroke="#63b8ff" points="794.68,-86.12 802.97,-79.53 792.38,-79.51 794.68,-86.12"/>
</a>
</g>
</g>
<!-- Node17 -->
<g id="Node000017" class="node">
<title>Node17</title>
<g id="a_Node000017"><a xlink:title=" ">
<polygon fill="#e0e0e0" stroke="#999999" points="965,-79.5 872,-79.5 872,-60.5 965,-60.5 965,-79.5"/>
<text text-anchor="middle" x="918.5" y="-67.5" font-family="Helvetica,sans-Serif" font-size="10.00">unordered_map</text>
</a>
</g>
</g>
<!-- Node15&#45;&gt;Node17 -->
<g id="edge16_Node000015_Node000017" class="edge">
<title>Node15&#45;&gt;Node17</title>
<g id="a_edge16_Node000015_Node000017"><a xlink:title=" ">
<path fill="none" stroke="#63b8ff" d="M631.63,-121.99C700.49,-111.77 819.4,-93.77 862.5,-85 866.99,-84.09 871.65,-83.05 876.29,-81.97"/>
<polygon fill="#63b8ff" stroke="#63b8ff" points="877.43,-85.3 886.33,-79.56 875.79,-78.49 877.43,-85.3"/>
</a>
</g>
</g>
<!-- Node18 -->
<g id="Node000018" class="node">
<title>Node18</title>
<g id="a_Node000018"><a xlink:title=" ">
<polygon fill="#e0e0e0" stroke="#999999" points="589.5,-79.5 529.5,-79.5 529.5,-60.5 589.5,-60.5 589.5,-79.5"/>
<text text-anchor="middle" x="559.5" y="-67.5" font-family="Helvetica,sans-Serif" font-size="10.00">iostream</text>
</a>
</g>
</g>
<!-- Node15&#45;&gt;Node18 -->
<g id="edge17_Node000015_Node000018" class="edge">
<title>Node15&#45;&gt;Node18</title>
<g id="a_edge17_Node000015_Node000018"><a xlink:title=" ">
<path fill="none" stroke="#63b8ff" d="M577.4,-120.87C574.42,-112.57 569.83,-99.78 566.04,-89.22"/>
<polygon fill="#63b8ff" stroke="#63b8ff" points="569.28,-87.9 562.61,-79.67 562.7,-90.26 569.28,-87.9"/>
</a>
</g>
</g>
<!-- Node19 -->
<g id="Node000019" class="node">
<title>Node19</title>
<g id="a_Node000019"><a xlink:title=" ">
<polygon fill="#e0e0e0" stroke="#999999" points="697.5,-79.5 607.5,-79.5 607.5,-60.5 697.5,-60.5 697.5,-79.5"/>
<text text-anchor="middle" x="652.5" y="-67.5" font-family="Helvetica,sans-Serif" font-size="10.00">AMReX_Print.H</text>
</a>
</g>
</g>
<!-- Node15&#45;&gt;Node19 -->
<g id="edge18_Node000015_Node000019" class="edge">
<title>Node15&#45;&gt;Node19</title>
<g id="a_edge18_Node000015_Node000019"><a xlink:title=" ">
<path fill="none" stroke="#63b8ff" d="M591.12,-120.87C602.4,-111.71 620.42,-97.06 634.03,-86.01"/>
<polygon fill="#63b8ff" stroke="#63b8ff" points="636.28,-88.69 641.83,-79.67 631.86,-83.26 636.28,-88.69"/>
</a>
</g>
</g>
<!-- Node20 -->
<g id="Node000020" class="node">
<title>Node20</title>
<g id="a_Node000020"><a xlink:title=" ">
<polygon fill="#e0e0e0" stroke="#999999" points="777.5,-79.5 715.5,-79.5 715.5,-60.5 777.5,-60.5 777.5,-79.5"/>
<text text-anchor="middle" x="746.5" y="-67.5" font-family="Helvetica,sans-Serif" font-size="10.00">AMReX.H</text>
</a>
</g>
</g>
<!-- Node15&#45;&gt;Node20 -->
<g id="edge19_Node000015_Node000020" class="edge">
<title>Node15&#45;&gt;Node20</title>
<g id="a_edge19_Node000015_Node000020"><a xlink:title=" ">
<path fill="none" stroke="#63b8ff" d="M604.64,-120.99C633.04,-110.99 680.38,-94.3 712.49,-82.99"/>
<polygon fill="#63b8ff" stroke="#63b8ff" points="714.06,-86.14 722.33,-79.52 711.74,-79.54 714.06,-86.14"/>
</a>
</g>
</g>
<!-- Node22 -->
<g id="Node000022" class="node">
<title>Node22</title>
<g id="a_Node000022"><a xlink:href="vector_8_h.html" target="_top" xlink:title=" ">
<polygon fill="white" stroke="#666666" points="201,-140 88,-140 88,-121 201,-121 201,-140"/>
<text text-anchor="middle" x="144.5" y="-128" font-family="Helvetica,sans-Serif" font-size="10.00">src/core/vs/vector.H</text>
</a>
</g>
</g>
<!-- Node21&#45;&gt;Node22 -->
<g id="edge21_Node000021_Node000022" class="edge">
<title>Node21&#45;&gt;Node22</title>
<g id="a_edge21_Node000021_Node000022"><a xlink:title=" ">
<path fill="none" stroke="#63b8ff" d="M245.82,-241.8C232.34,-232.46 215.05,-219.49 201.5,-206 183.72,-188.3 166.7,-164.93 155.96,-149.12"/>
<polygon fill="#63b8ff" stroke="#63b8ff" points="158.59,-146.76 150.14,-140.37 152.77,-150.64 158.59,-146.76"/>
</a>
</g>
</g>
<!-- Node29 -->
<g id="Node000029" class="node">
<title>Node29</title>
<g id="a_Node000029"><a xlink:href="tensor_8_h.html" target="_top" xlink:title=" ">
<polygon fill="white" stroke="#666666" points="324,-200.5 211,-200.5 211,-181.5 324,-181.5 324,-200.5"/>
<text text-anchor="middle" x="267.5" y="-188.5" font-family="Helvetica,sans-Serif" font-size="10.00">src/core/vs/tensor.H</text>
</a>
</g>
</g>
<!-- Node21&#45;&gt;Node29 -->
<g id="edge29_Node000021_Node000029" class="edge">
<title>Node21&#45;&gt;Node29</title>
<g id="a_edge29_Node000021_Node000029"><a xlink:title=" ">
<path fill="none" stroke="#63b8ff" d="M267.5,-241.8C267.5,-232.7 267.5,-220.79 267.5,-210.9"/>
<polygon fill="#63b8ff" stroke="#63b8ff" points="271,-210.84 267.5,-200.84 264,-210.84 271,-210.84"/>
</a>
</g>
</g>
<!-- Node23 -->
<g id="Node000023" class="node">
<title>Node23</title>
<g id="a_Node000023"><a xlink:title=" ">
<polygon fill="#e0e0e0" stroke="#999999" points="87,-19 0,-19 0,0 87,0 87,-19"/>
<text text-anchor="middle" x="43.5" y="-7" font-family="Helvetica,sans-Serif" font-size="10.00">AMReX_Gpu.H</text>
</a>
</g>
</g>
<!-- Node22&#45;&gt;Node23 -->
<g id="edge22_Node000022_Node000023" class="edge">
<title>Node22&#45;&gt;Node23</title>
<g id="a_edge22_Node000022_Node000023"><a xlink:title=" ">
<path fill="none" stroke="#63b8ff" d="M118.23,-120.97C100.61,-113.96 78.2,-102.33 64.5,-85 51.89,-69.05 46.85,-45.94 44.84,-29.69"/>
<polygon fill="#63b8ff" stroke="#63b8ff" points="48.28,-28.9 43.84,-19.28 41.31,-29.57 48.28,-28.9"/>
</a>
</g>
</g>
<!-- Node24 -->
<g id="Node000024" class="node">
<title>Node24</title>
<g id="a_Node000024"><a xlink:href="vstraits_8_h.html" target="_top" xlink:title=" ">
<polygon fill="white" stroke="#666666" points="327,-79.5 208,-79.5 208,-60.5 327,-60.5 327,-79.5"/>
<text text-anchor="middle" x="267.5" y="-67.5" font-family="Helvetica,sans-Serif" font-size="10.00">src/core/vs/vstraits.H</text>
</a>
</g>
</g>
<!-- Node22&#45;&gt;Node24 -->
<g id="edge23_Node000022_Node000024" class="edge">
<title>Node22&#45;&gt;Node24</title>
<g id="a_edge23_Node000022_Node000024"><a xlink:title=" ">
<path fill="none" stroke="#63b8ff" d="M162.39,-120.99C182.88,-111.25 216.69,-95.16 240.42,-83.88"/>
<polygon fill="#63b8ff" stroke="#63b8ff" points="242.07,-86.97 249.59,-79.52 239.06,-80.65 242.07,-86.97"/>
</a>
</g>
</g>
<!-- Node26 -->
<g id="Node000026" class="node">
<title>Node26</title>
<g id="a_Node000026"><a xlink:href="vector_i_8_h.html" target="_top" xlink:title=" ">
<polygon fill="white" stroke="#666666" points="189.5,-79.5 73.5,-79.5 73.5,-60.5 189.5,-60.5 189.5,-79.5"/>
<text text-anchor="middle" x="131.5" y="-67.5" font-family="Helvetica,sans-Serif" font-size="10.00">src/core/vs/vectorI.H</text>
</a>
</g>
</g>
<!-- Node22&#45;&gt;Node26 -->
<g id="edge25_Node000022_Node000026" class="edge">
<title>Node22&#45;&gt;Node26</title>
<g id="a_edge25_Node000022_Node000026"><a xlink:title=" ">
<path fill="none" stroke="#63b8ff" d="M137.63,-120.87C134.07,-112.75 130.83,-100.31 129.34,-89.89"/>
<polygon fill="#63b8ff" stroke="#63b8ff" points="132.8,-89.33 128.46,-79.67 125.83,-89.93 132.8,-89.33"/>
</a>
</g>
</g>
<!-- Node25 -->
<g id="Node000025" class="node">
<title>Node25</title>
<g id="a_Node000025"><a xlink:title=" ">
<polygon fill="#e0e0e0" stroke="#999999" points="289.5,-19 245.5,-19 245.5,0 289.5,0 289.5,-19"/>
<text text-anchor="middle" x="267.5" y="-7" font-family="Helvetica,sans-Serif" font-size="10.00">limits</text>
</a>
</g>
</g>
<!-- Node24&#45;&gt;Node25 -->
<g id="edge24_Node000024_Node000025" class="edge">
<title>Node24&#45;&gt;Node25</title>
<g id="a_edge24_Node000024_Node000025"><a xlink:title=" ">
<path fill="none" stroke="#63b8ff" d="M267.5,-60.37C267.5,-52.25 267.5,-39.81 267.5,-29.39"/>
<polygon fill="#63b8ff" stroke="#63b8ff" points="271,-29.17 267.5,-19.17 264,-29.17 271,-29.17"/>
</a>
</g>
</g>
<!-- Node26&#45;&gt;Node22 -->
<g id="edge28_Node000026_Node000022" class="edge">
<title>Node26&#45;&gt;Node22</title>
<g id="a_edge28_Node000026_Node000022"><a xlink:title=" ">
<path fill="none" stroke="#63b8ff" d="M138.39,-79.67C141.95,-87.8 145.18,-100.24 146.67,-110.66"/>
<polygon fill="#63b8ff" stroke="#63b8ff" points="143.2,-111.2 147.54,-120.87 150.18,-110.61 143.2,-111.2"/>
</a>
</g>
</g>
<!-- Node27 -->
<g id="Node000027" class="node">
<title>Node27</title>
<g id="a_Node000027"><a xlink:title=" ">
<polygon fill="#e0e0e0" stroke="#999999" points="162,-19 105,-19 105,0 162,0 162,-19"/>
<text text-anchor="middle" x="133.5" y="-7" font-family="Helvetica,sans-Serif" font-size="10.00">ostream</text>
</a>
</g>
</g>
<!-- Node26&#45;&gt;Node27 -->
<g id="edge26_Node000026_Node000027" class="edge">
<title>Node26&#45;&gt;Node27</title>
<g id="a_edge26_Node000026_Node000027"><a xlink:title=" ">
<path fill="none" stroke="#63b8ff" d="M131.8,-60.37C132.07,-52.25 132.5,-39.81 132.85,-29.39"/>
<polygon fill="#63b8ff" stroke="#63b8ff" points="136.36,-29.28 133.2,-19.17 129.36,-29.04 136.36,-29.28"/>
</a>
</g>
</g>
<!-- Node28 -->
<g id="Node000028" class="node">
<title>Node28</title>
<g id="a_Node000028"><a xlink:title=" ">
<polygon fill="#e0e0e0" stroke="#999999" points="379,-19 332,-19 332,0 379,0 379,-19"/>
<text text-anchor="middle" x="355.5" y="-7" font-family="Helvetica,sans-Serif" font-size="10.00">cmath</text>
</a>
</g>
</g>
<!-- Node26&#45;&gt;Node28 -->
<g id="edge27_Node000026_Node000028" class="edge">
<title>Node26&#45;&gt;Node28</title>
<g id="a_edge27_Node000026_Node000028"><a xlink:title=" ">
<path fill="none" stroke="#63b8ff" d="M164.07,-60.49C206.22,-49.49 279.29,-30.4 321.92,-19.27"/>
<polygon fill="#63b8ff" stroke="#63b8ff" points="323.02,-22.6 331.81,-16.69 321.25,-15.83 323.02,-22.6"/>
</a>
</g>
</g>
<!-- Node29&#45;&gt;Node22 -->
<g id="edge32_Node000029_Node000022" class="edge">
<title>Node29&#45;&gt;Node22</title>
<g id="a_edge32_Node000029_Node000022"><a xlink:title=" ">
<path fill="none" stroke="#63b8ff" d="M249.61,-181.49C229.12,-171.75 195.31,-155.66 171.58,-144.38"/>
<polygon fill="#63b8ff" stroke="#63b8ff" points="172.94,-141.15 162.41,-140.02 169.93,-147.47 172.94,-141.15"/>
</a>
</g>
</g>
<!-- Node29&#45;&gt;Node23 -->
<g id="edge30_Node000029_Node000023" class="edge">
<title>Node29&#45;&gt;Node23</title>
<g id="a_edge30_Node000029_Node000023"><a xlink:title=" ">
<path fill="none" stroke="#63b8ff" d="M210.82,-186.41C170.41,-181.32 116.7,-169.11 78.5,-140 56.01,-122.86 54.41,-112.15 46.5,-85 41.19,-66.78 40.98,-44.99 41.77,-29.7"/>
<polygon fill="#63b8ff" stroke="#63b8ff" points="45.28,-29.66 42.5,-19.44 38.3,-29.16 45.28,-29.66"/>
</a>
</g>
</g>
<!-- Node29&#45;&gt;Node24 -->
<g id="edge31_Node000029_Node000024" class="edge">
<title>Node29&#45;&gt;Node24</title>
<g id="a_edge31_Node000029_Node000024"><a xlink:title=" ">
<path fill="none" stroke="#63b8ff" d="M267.5,-181.44C267.5,-162.41 267.5,-116.19 267.5,-89.97"/>
<polygon fill="#63b8ff" stroke="#63b8ff" points="271,-89.8 267.5,-79.8 264,-89.8 271,-89.8"/>
</a>
</g>
</g>
<!-- Node30 -->
<g id="Node000030" class="node">
<title>Node30</title>
<g id="a_Node000030"><a xlink:href="tensor_i_8_h.html" target="_top" xlink:title=" ">
<polygon fill="white" stroke="#666666" points="412.5,-140 296.5,-140 296.5,-121 412.5,-121 412.5,-140"/>
<text text-anchor="middle" x="354.5" y="-128" font-family="Helvetica,sans-Serif" font-size="10.00">src/core/vs/tensorI.H</text>
</a>
</g>
</g>
<!-- Node29&#45;&gt;Node30 -->
<g id="edge33_Node000029_Node000030" class="edge">
<title>Node29&#45;&gt;Node30</title>
<g id="a_edge33_Node000029_Node000030"><a xlink:title=" ">
<path fill="none" stroke="#63b8ff" d="M275.38,-181.37C287.35,-171.95 309.69,-156.73 327.7,-145.58"/>
<polygon fill="#63b8ff" stroke="#63b8ff" points="329.9,-148.34 336.65,-140.17 326.28,-142.34 329.9,-148.34"/>
</a>
</g>
</g>
<!-- Node30&#45;&gt;Node28 -->
<g id="edge34_Node000030_Node000028" class="edge">
<title>Node30&#45;&gt;Node28</title>
<g id="a_edge34_Node000030_Node000028"><a xlink:title=" ">
<path fill="none" stroke="#63b8ff" d="M354.57,-120.94C354.73,-101.91 355.12,-55.69 355.34,-29.47"/>
<polygon fill="#63b8ff" stroke="#63b8ff" points="358.84,-29.33 355.43,-19.3 351.84,-29.27 358.84,-29.33"/>
</a>
</g>
</g>
<!-- Node30&#45;&gt;Node29 -->
<g id="edge35_Node000030_Node000029" class="edge">
<title>Node30&#45;&gt;Node29</title>
<g id="a_edge35_Node000030_Node000029"><a xlink:title=" ">
<path fill="none" stroke="#63b8ff" d="M346.57,-140.17C334.58,-149.6 312.23,-164.82 294.23,-175.97"/>
<polygon fill="#63b8ff" stroke="#63b8ff" points="292.04,-173.2 285.29,-181.37 295.66,-179.19 292.04,-173.2"/>
</a>
</g>
</g>
<!-- Node31 -->
<g id="Node000031" class="node">
<title>Node31</title>
<g id="a_Node000031"><a xlink:href="trig__ops_8_h.html" target="_top" xlink:title=" ">
<polygon fill="white" stroke="#666666" points="473.5,-85 383.5,-85 383.5,-55 473.5,-55 473.5,-85"/>
<text text-anchor="start" x="391.5" y="-73" font-family="Helvetica,sans-Serif" font-size="10.00">src/utilities/trig</text>
<text text-anchor="middle" x="428.5" y="-62" font-family="Helvetica,sans-Serif" font-size="10.00">_ops.H</text>
</a>
</g>
</g>
<!-- Node30&#45;&gt;Node31 -->
<g id="edge36_Node000030_Node000031" class="edge">
<title>Node30&#45;&gt;Node31</title>
<g id="a_edge36_Node000030_Node000031"><a xlink:title=" ">
<path fill="none" stroke="#63b8ff" d="M365.42,-120.87C375.18,-113.15 389.87,-101.54 402.62,-91.46"/>
<polygon fill="#63b8ff" stroke="#63b8ff" points="404.97,-94.06 410.65,-85.11 400.63,-88.57 404.97,-94.06"/>
</a>
</g>
</g>
<!-- Node31&#45;&gt;Node6 -->
<g id="edge39_Node000031_Node000006" class="edge">
<title>Node31&#45;&gt;Node6</title>
<g id="a_edge39_Node000031_Node000006"><a xlink:title=" ">
<path fill="none" stroke="#63b8ff" d="M473.78,-57.51C478.39,-56.56 483.03,-55.7 487.5,-55 675.25,-25.62 900.8,-15.32 1003.98,-11.98"/>
<polygon fill="#63b8ff" stroke="#63b8ff" points="1004.28,-15.47 1014.17,-11.66 1004.06,-8.47 1004.28,-15.47"/>
</a>
</g>
</g>
<!-- Node31&#45;&gt;Node23 -->
<g id="edge40_Node000031_Node000023" class="edge">
<title>Node31&#45;&gt;Node23</title>
<g id="a_edge40_Node000031_Node000023"><a xlink:title=" ">
<path fill="none" stroke="#63b8ff" d="M383.09,-62.16C367.95,-59.88 351,-57.33 335.5,-55 232.07,-39.46 203.75,-35.91 97.38,-19.28"/>
<polygon fill="#63b8ff" stroke="#63b8ff" points="97.61,-15.77 87.19,-17.68 96.52,-22.69 97.61,-15.77"/>
</a>
</g>
</g>
<!-- Node31&#45;&gt;Node28 -->
<g id="edge37_Node000031_Node000028" class="edge">
<title>Node31&#45;&gt;Node28</title>
<g id="a_edge37_Node000031_Node000028"><a xlink:title=" ">
<path fill="none" stroke="#63b8ff" d="M410.83,-54.84C399.8,-46 385.61,-34.63 374.37,-25.62"/>
<polygon fill="#63b8ff" stroke="#63b8ff" points="376.43,-22.79 366.44,-19.27 372.05,-28.25 376.43,-22.79"/>
</a>
</g>
</g>
<!-- Node32 -->
<g id="Node000032" class="node">
<title>Node32</title>
<g id="a_Node000032"><a xlink:title=" ">
<polygon fill="#e0e0e0" stroke="#999999" points="458,-19 399,-19 399,0 458,0 458,-19"/>
<text text-anchor="middle" x="428.5" y="-7" font-family="Helvetica,sans-Serif" font-size="10.00">numbers</text>
</a>
</g>
</g>
<!-- Node31&#45;&gt;Node32 -->
<g id="edge38_Node000031_Node000032" class="edge">
<title>Node31&#45;&gt;Node32</title>
<g id="a_edge38_Node000031_Node000032"><a xlink:title=" ">
<path fill="none" stroke="#63b8ff" d="M428.5,-54.84C428.5,-47.21 428.5,-37.7 428.5,-29.45"/>
<polygon fill="#63b8ff" stroke="#63b8ff" points="432,-29.27 428.5,-19.27 425,-29.27 432,-29.27"/>
</a>
</g>
</g>
</g>
</svg>

<g id="navigator" transform="translate(0 0)" fill="#404254">
  <rect fill="#f2f5e9" fill-opacity="0.5" stroke="#606060" stroke-width=".5" x="0" y="0" width="60" height="60"/>
  <use id="zoomplus" xlink:href="#zoomPlus" x="17" y="9" onmousedown="handleZoom(evt,'in')"/>
  <use id="zoomminus" xlink:href="#zoomMin" x="42" y="9" onmousedown="handleZoom(evt,'out')"/>
  <use id="reset" xlink:href="#resetDef" x="30" y="36" onmousedown="handleReset()"/>
   <use id="arrowup" xlink:href="#arrowUp" x="0" y="0" onmousedown="handlePan(0,-1)"/>
  <use id="arrowright" xlink:href="#arrowRight" x="0" y="0" onmousedown="handlePan(1,0)"/>
  <use id="arrowdown" xlink:href="#arrowDown" x="0" y="0" onmousedown="handlePan(0,1)"/>
  <use id="arrowleft" xlink:href="#arrowLeft" x="0" y="0" onmousedown="handlePan(-1,0)"/>
</g>
<svg viewBox="0 0 15 15" width="100%" height="30px" preserveAspectRatio="xMaxYMin meet">
 <g id="arrow_out" transform="scale(0.3 0.3)">
  <a xlink:href="_cylinder_refiner_8cpp__incl_org.svg" target="_base">
   <rect id="button" ry="5" rx="5" y="6" x="6" height="38" width="38"
        fill="#f2f5e9" fill-opacity="0.5" stroke="#606060" stroke-width="1.0"/>
   <path id="arrow"
     d="M 11.500037,31.436501 C 11.940474,20.09759 22.043105,11.32322 32.158766,21.979434 L 37.068811,17.246167 C 37.068811,17.246167 37.088388,32 37.088388,32 L 22.160133,31.978069 C 22.160133,31.978069 26.997745,27.140456 26.997745,27.140456 C 18.528582,18.264221 13.291696,25.230495 11.500037,31.436501 z"
     style="fill:#404040;"/>
  </a>
 </g>
</svg>

<style type='text/css'>
<![CDATA[
[data-mouse-over-selected='false'] { opacity: 0.7; }
[data-mouse-over-selected='true']  { opacity: 1.0; }
]]>
</style>
<script type="application/ecmascript"><![CDATA[
document.addEventListener('DOMContentLoaded', (event) => {
  highlightEdges();
  highlightAdjacentNodes();
});
]]></script>
</svg>
