<?xml version="1.0" encoding="UTF-8" standalone="no"?>
<!DOCTYPE svg PUBLIC "-//W3C//DTD SVG 1.1//EN"
 "http://www.w3.org/Graphics/SVG/1.1/DTD/svg11.dtd">
<!-- Generated by graphviz version 2.43.0 (0)
 -->
<!-- Title: /home/runner/work/amr&#45;wind/amr&#45;wind/src/core/ExtSolver.H Pages: 1 -->
<svg width="692pt" height="599pt"
 viewBox="0.00 0.00 692.00 599.00" xmlns="http://www.w3.org/2000/svg" xmlns:xlink="http://www.w3.org/1999/xlink">
<g id="graph0" class="graph" transform="scale(1 1) rotate(0) translate(4 595)">
<title>/home/runner/work/amr&#45;wind/amr&#45;wind/src/core/ExtSolver.H</title>
<!-- Node1 -->
<g id="Node000001" class="node">
<title>Node1</title>
<g id="a_Node000001"><a xlink:title=" ">
<polygon fill="#999999" stroke="#666666" points="333.5,-591 199.5,-591 199.5,-550 333.5,-550 333.5,-591"/>
<text text-anchor="start" x="207.5" y="-579" font-family="Helvetica,sans-Serif" font-size="10.00">/home/runner/work/amr</text>
<text text-anchor="start" x="207.5" y="-568" font-family="Helvetica,sans-Serif" font-size="10.00">&#45;wind/amr&#45;wind/src/core</text>
<text text-anchor="middle" x="266.5" y="-557" font-family="Helvetica,sans-Serif" font-size="10.00">/ExtSolver.H</text>
</a>
</g>
</g>
<!-- Node2 -->
<g id="Node000002" class="node">
<title>Node2</title>
<g id="a_Node000002"><a xlink:href="_c_f_d_sim_8cpp.html" target="_top" xlink:title=" ">
<polygon fill="white" stroke="#666666" points="238,-503 65,-503 65,-473 238,-473 238,-503"/>
<text text-anchor="start" x="73" y="-491" font-family="Helvetica,sans-Serif" font-size="10.00">/home/runner/work/amr</text>
<text text-anchor="middle" x="151.5" y="-480" font-family="Helvetica,sans-Serif" font-size="10.00">&#45;wind/amr&#45;wind/src/CFDSim.cpp</text>
</a>
</g>
</g>
<!-- Node1&#45;&gt;Node2 -->
<g id="edge1_Node000001_Node000002" class="edge">
<title>Node1&#45;&gt;Node2</title>
<g id="a_edge1_Node000001_Node000002"><a xlink:title=" ">
<path fill="none" stroke="#63b8ff" d="M230.09,-544.01C210.81,-530.52 187.87,-514.46 171.77,-503.19"/>
<polygon fill="#63b8ff" stroke="#63b8ff" points="228.17,-546.94 238.37,-549.81 232.18,-541.21 228.17,-546.94"/>
</a>
</g>
</g>
<!-- Node3 -->
<g id="Node000003" class="node">
<title>Node3</title>
<g id="a_Node000003"><a xlink:href="_ext_turb_iface_8_h.html" target="_top" xlink:title=" ">
<polygon fill="white" stroke="#666666" points="478,-514 341,-514 341,-462 478,-462 478,-514"/>
<text text-anchor="start" x="349" y="-502" font-family="Helvetica,sans-Serif" font-size="10.00">/home/runner/work/amr</text>
<text text-anchor="start" x="349" y="-491" font-family="Helvetica,sans-Serif" font-size="10.00">&#45;wind/amr&#45;wind/src/wind</text>
<text text-anchor="start" x="349" y="-480" font-family="Helvetica,sans-Serif" font-size="10.00">_energy/actuator/turbine</text>
<text text-anchor="middle" x="409.5" y="-469" font-family="Helvetica,sans-Serif" font-size="10.00">/external/ExtTurbIface.H</text>
</a>
</g>
</g>
<!-- Node1&#45;&gt;Node3 -->
<g id="edge2_Node000001_Node000003" class="edge">
<title>Node1&#45;&gt;Node3</title>
<g id="a_edge2_Node000001_Node000003"><a xlink:title=" ">
<path fill="none" stroke="#63b8ff" d="M310.27,-544.86C327.59,-535.11 347.47,-523.92 364.86,-514.13"/>
<polygon fill="#63b8ff" stroke="#63b8ff" points="308.48,-541.85 301.48,-549.81 311.91,-547.95 308.48,-541.85"/>
</a>
</g>
</g>
<!-- Node4 -->
<g id="Node000004" class="node">
<title>Node4</title>
<g id="a_Node000004"><a xlink:href="_turbine_external_8_h.html" target="_top" xlink:title=" ">
<polygon fill="white" stroke="#666666" points="318,-426 169,-426 169,-374 318,-374 318,-426"/>
<text text-anchor="start" x="177" y="-414" font-family="Helvetica,sans-Serif" font-size="10.00">/home/runner/work/amr</text>
<text text-anchor="start" x="177" y="-403" font-family="Helvetica,sans-Serif" font-size="10.00">&#45;wind/amr&#45;wind/src/wind</text>
<text text-anchor="start" x="177" y="-392" font-family="Helvetica,sans-Serif" font-size="10.00">_energy/actuator/turbine</text>
<text text-anchor="middle" x="243.5" y="-381" font-family="Helvetica,sans-Serif" font-size="10.00">/external/TurbineExternal.H</text>
</a>
</g>
</g>
<!-- Node1&#45;&gt;Node4 -->
<g id="edge18_Node000001_Node000004" class="edge">
<title>Node1&#45;&gt;Node4</title>
<g id="a_edge18_Node000001_Node000004"><a xlink:title=" ">
<path fill="none" stroke="#63b8ff" d="M262.43,-539.68C258.03,-507.44 251.09,-456.63 246.95,-426.28"/>
<polygon fill="#63b8ff" stroke="#63b8ff" points="259,-540.41 263.82,-549.84 265.93,-539.46 259,-540.41"/>
</a>
</g>
</g>
<!-- Node3&#45;&gt;Node4 -->
<g id="edge3_Node000003_Node000004" class="edge">
<title>Node3&#45;&gt;Node4</title>
<g id="a_edge3_Node000003_Node000004"><a xlink:title=" ">
<path fill="none" stroke="#63b8ff" d="M351.93,-457.18C332.4,-447.06 310.78,-435.86 292.02,-426.14"/>
<polygon fill="#63b8ff" stroke="#63b8ff" points="350.55,-460.4 361.04,-461.89 353.77,-454.19 350.55,-460.4"/>
</a>
</g>
</g>
<!-- Node13 -->
<g id="Node000013" class="node">
<title>Node13</title>
<g id="a_Node000013"><a xlink:href="_fast_iface_8cpp.html" target="_top" xlink:title=" ">
<polygon fill="white" stroke="#666666" points="684,-426 547,-426 547,-374 684,-374 684,-426"/>
<text text-anchor="start" x="555" y="-414" font-family="Helvetica,sans-Serif" font-size="10.00">/home/runner/work/amr</text>
<text text-anchor="start" x="555" y="-403" font-family="Helvetica,sans-Serif" font-size="10.00">&#45;wind/amr&#45;wind/src/wind</text>
<text text-anchor="start" x="555" y="-392" font-family="Helvetica,sans-Serif" font-size="10.00">_energy/actuator/turbine</text>
<text text-anchor="middle" x="615.5" y="-381" font-family="Helvetica,sans-Serif" font-size="10.00">/fast/FastIface.cpp</text>
</a>
</g>
</g>
<!-- Node3&#45;&gt;Node13 -->
<g id="edge16_Node000003_Node000013" class="edge">
<title>Node3&#45;&gt;Node13</title>
<g id="a_edge16_Node000003_Node000013"><a xlink:title=" ">
<path fill="none" stroke="#63b8ff" d="M478.97,-458C503.72,-447.66 531.38,-436.12 555.29,-426.14"/>
<polygon fill="#63b8ff" stroke="#63b8ff" points="477.52,-454.81 469.64,-461.89 480.21,-461.27 477.52,-454.81"/>
</a>
</g>
</g>
<!-- Node14 -->
<g id="Node000014" class="node">
<title>Node14</title>
<g id="a_Node000014"><a xlink:href="_kynema_f_m_b_iface_8cpp.html" target="_top" xlink:title=" ">
<polygon fill="white" stroke="#666666" points="528.5,-426 336.5,-426 336.5,-374 528.5,-374 528.5,-426"/>
<text text-anchor="start" x="344.5" y="-414" font-family="Helvetica,sans-Serif" font-size="10.00">/home/runner/work/amr</text>
<text text-anchor="start" x="344.5" y="-403" font-family="Helvetica,sans-Serif" font-size="10.00">&#45;wind/amr&#45;wind/src/wind</text>
<text text-anchor="start" x="344.5" y="-392" font-family="Helvetica,sans-Serif" font-size="10.00">_energy/actuator/turbine</text>
<text text-anchor="middle" x="432.5" y="-381" font-family="Helvetica,sans-Serif" font-size="10.00">/kynema_fmb/KynemaFMBIface.cpp</text>
</a>
</g>
</g>
<!-- Node3&#45;&gt;Node14 -->
<g id="edge17_Node000003_Node000014" class="edge">
<title>Node3&#45;&gt;Node14</title>
<g id="a_edge17_Node000003_Node000014"><a xlink:title=" ">
<path fill="none" stroke="#63b8ff" d="M418.9,-451.84C421.21,-443.23 423.62,-434.19 425.77,-426.16"/>
<polygon fill="#63b8ff" stroke="#63b8ff" points="415.48,-451.1 416.28,-461.66 422.24,-452.91 415.48,-451.1"/>
</a>
</g>
</g>
<!-- Node5 -->
<g id="Node000005" class="node">
<title>Node5</title>
<g id="a_Node000005"><a xlink:href="turbine__external__utils_8_h.html" target="_top" xlink:title=" ">
<polygon fill="white" stroke="#666666" points="315,-338 172,-338 172,-275 315,-275 315,-338"/>
<text text-anchor="start" x="180" y="-326" font-family="Helvetica,sans-Serif" font-size="10.00">/home/runner/work/amr</text>
<text text-anchor="start" x="180" y="-315" font-family="Helvetica,sans-Serif" font-size="10.00">&#45;wind/amr&#45;wind/src/wind</text>
<text text-anchor="start" x="180" y="-304" font-family="Helvetica,sans-Serif" font-size="10.00">_energy/actuator/turbine</text>
<text text-anchor="start" x="180" y="-293" font-family="Helvetica,sans-Serif" font-size="10.00">/external/turbine_external</text>
<text text-anchor="middle" x="243.5" y="-282" font-family="Helvetica,sans-Serif" font-size="10.00">_utils.H</text>
</a>
</g>
</g>
<!-- Node4&#45;&gt;Node5 -->
<g id="edge4_Node000004_Node000005" class="edge">
<title>Node4&#45;&gt;Node5</title>
<g id="a_edge4_Node000004_Node000005"><a xlink:title=" ">
<path fill="none" stroke="#63b8ff" d="M243.5,-363.93C243.5,-355.39 243.5,-346.32 243.5,-338.02"/>
<polygon fill="#63b8ff" stroke="#63b8ff" points="240,-364 243.5,-374 247,-364 240,-364"/>
</a>
</g>
</g>
<!-- Node11 -->
<g id="Node000011" class="node">
<title>Node11</title>
<g id="a_Node000011"><a xlink:href="_turbine_fast_8_h.html" target="_top" xlink:title=" ">
<polygon fill="white" stroke="#666666" points="137,-239 0,-239 0,-187 137,-187 137,-239"/>
<text text-anchor="start" x="8" y="-227" font-family="Helvetica,sans-Serif" font-size="10.00">/home/runner/work/amr</text>
<text text-anchor="start" x="8" y="-216" font-family="Helvetica,sans-Serif" font-size="10.00">&#45;wind/amr&#45;wind/src/wind</text>
<text text-anchor="start" x="8" y="-205" font-family="Helvetica,sans-Serif" font-size="10.00">_energy/actuator/turbine</text>
<text text-anchor="middle" x="68.5" y="-194" font-family="Helvetica,sans-Serif" font-size="10.00">/fast/TurbineFast.H</text>
</a>
</g>
</g>
<!-- Node4&#45;&gt;Node11 -->
<g id="edge10_Node000004_Node000011" class="edge">
<title>Node4&#45;&gt;Node11</title>
<g id="a_edge10_Node000004_Node000011"><a xlink:title=" ">
<path fill="none" stroke="#63b8ff" d="M197.68,-367.95C185.68,-358.91 173.14,-348.6 162.5,-338 131.51,-307.1 102.1,-265.65 84.68,-239.38"/>
<polygon fill="#63b8ff" stroke="#63b8ff" points="195.74,-370.87 205.87,-373.99 199.89,-365.24 195.74,-370.87"/>
</a>
</g>
</g>
<!-- Node12 -->
<g id="Node000012" class="node">
<title>Node12</title>
<g id="a_Node000012"><a xlink:href="_turbine_kynema_f_m_b_8_h.html" target="_top" xlink:title=" ">
<polygon fill="white" stroke="#666666" points="543.5,-239 349.5,-239 349.5,-187 543.5,-187 543.5,-239"/>
<text text-anchor="start" x="357.5" y="-227" font-family="Helvetica,sans-Serif" font-size="10.00">/home/runner/work/amr</text>
<text text-anchor="start" x="357.5" y="-216" font-family="Helvetica,sans-Serif" font-size="10.00">&#45;wind/amr&#45;wind/src/wind</text>
<text text-anchor="start" x="357.5" y="-205" font-family="Helvetica,sans-Serif" font-size="10.00">_energy/actuator/turbine</text>
<text text-anchor="middle" x="446.5" y="-194" font-family="Helvetica,sans-Serif" font-size="10.00">/kynema_fmb/TurbineKynemaFMB.H</text>
</a>
</g>
</g>
<!-- Node4&#45;&gt;Node12 -->
<g id="edge13_Node000004_Node000012" class="edge">
<title>Node4&#45;&gt;Node12</title>
<g id="a_edge13_Node000004_Node000012"><a xlink:title=" ">
<path fill="none" stroke="#63b8ff" d="M286.82,-367.69C298.96,-358.46 311.98,-348.11 323.5,-338 360.19,-305.79 399.38,-265.05 423.41,-239.25"/>
<polygon fill="#63b8ff" stroke="#63b8ff" points="284.47,-365.08 278.58,-373.89 288.68,-370.67 284.47,-365.08"/>
</a>
</g>
</g>
<!-- Node6 -->
<g id="Node000006" class="node">
<title>Node6</title>
<g id="a_Node000006"><a xlink:href="turbine__external__ops_8_h.html" target="_top" xlink:title=" ">
<polygon fill="white" stroke="#666666" points="331.5,-239 155.5,-239 155.5,-187 331.5,-187 331.5,-239"/>
<text text-anchor="start" x="163.5" y="-227" font-family="Helvetica,sans-Serif" font-size="10.00">/home/runner/work/amr</text>
<text text-anchor="start" x="163.5" y="-216" font-family="Helvetica,sans-Serif" font-size="10.00">&#45;wind/amr&#45;wind/src/wind</text>
<text text-anchor="start" x="163.5" y="-205" font-family="Helvetica,sans-Serif" font-size="10.00">_energy/actuator/turbine</text>
<text text-anchor="middle" x="243.5" y="-194" font-family="Helvetica,sans-Serif" font-size="10.00">/external/turbine_external_ops.H</text>
</a>
</g>
</g>
<!-- Node5&#45;&gt;Node6 -->
<g id="edge5_Node000005_Node000006" class="edge">
<title>Node5&#45;&gt;Node6</title>
<g id="a_edge5_Node000005_Node000006"><a xlink:title=" ">
<path fill="none" stroke="#63b8ff" d="M243.5,-264.7C243.5,-255.95 243.5,-246.96 243.5,-239.02"/>
<polygon fill="#63b8ff" stroke="#63b8ff" points="240,-264.78 243.5,-274.78 247,-264.78 240,-264.78"/>
</a>
</g>
</g>
<!-- Node7 -->
<g id="Node000007" class="node">
<title>Node7</title>
<g id="a_Node000007"><a xlink:href="turbine__fast__ops_8_h.html" target="_top" xlink:title=" ">
<polygon fill="white" stroke="#666666" points="234,-145.5 97,-145.5 97,-93.5 234,-93.5 234,-145.5"/>
<text text-anchor="start" x="105" y="-133.5" font-family="Helvetica,sans-Serif" font-size="10.00">/home/runner/work/amr</text>
<text text-anchor="start" x="105" y="-122.5" font-family="Helvetica,sans-Serif" font-size="10.00">&#45;wind/amr&#45;wind/src/wind</text>
<text text-anchor="start" x="105" y="-111.5" font-family="Helvetica,sans-Serif" font-size="10.00">_energy/actuator/turbine</text>
<text text-anchor="middle" x="165.5" y="-100.5" font-family="Helvetica,sans-Serif" font-size="10.00">/fast/turbine_fast_ops.H</text>
</a>
</g>
</g>
<!-- Node6&#45;&gt;Node7 -->
<g id="edge6_Node000006_Node000007" class="edge">
<title>Node6&#45;&gt;Node7</title>
<g id="a_edge6_Node000006_Node000007"><a xlink:title=" ">
<path fill="none" stroke="#63b8ff" d="M215.56,-179.22C206.18,-168.22 195.87,-156.13 187.06,-145.79"/>
<polygon fill="#63b8ff" stroke="#63b8ff" points="213.04,-181.66 222.19,-187 218.36,-177.12 213.04,-181.66"/>
</a>
</g>
</g>
<!-- Node9 -->
<g id="Node000009" class="node">
<title>Node9</title>
<g id="a_Node000009"><a xlink:href="turbine__kynema__fmb__ops_8_h.html" target="_top" xlink:title=" ">
<polygon fill="white" stroke="#666666" points="418,-151 253,-151 253,-88 418,-88 418,-151"/>
<text text-anchor="start" x="261" y="-139" font-family="Helvetica,sans-Serif" font-size="10.00">/home/runner/work/amr</text>
<text text-anchor="start" x="261" y="-128" font-family="Helvetica,sans-Serif" font-size="10.00">&#45;wind/amr&#45;wind/src/wind</text>
<text text-anchor="start" x="261" y="-117" font-family="Helvetica,sans-Serif" font-size="10.00">_energy/actuator/turbine</text>
<text text-anchor="start" x="261" y="-106" font-family="Helvetica,sans-Serif" font-size="10.00">/kynema_fmb/turbine_kynema</text>
<text text-anchor="middle" x="335.5" y="-95" font-family="Helvetica,sans-Serif" font-size="10.00">_fmb_ops.H</text>
</a>
</g>
</g>
<!-- Node6&#45;&gt;Node9 -->
<g id="edge8_Node000006_Node000009" class="edge">
<title>Node6&#45;&gt;Node9</title>
<g id="a_edge8_Node000006_Node000009"><a xlink:title=" ">
<path fill="none" stroke="#63b8ff" d="M275.95,-179.72C285.34,-170.39 295.55,-160.24 304.82,-151.02"/>
<polygon fill="#63b8ff" stroke="#63b8ff" points="273.26,-177.46 268.64,-187 278.2,-182.43 273.26,-177.46"/>
</a>
</g>
</g>
<!-- Node8 -->
<g id="Node000008" class="node">
<title>Node8</title>
<g id="a_Node000008"><a xlink:href="_turbine_fast_8cpp.html" target="_top" xlink:title=" ">
<polygon fill="white" stroke="#666666" points="205,-52 68,-52 68,0 205,0 205,-52"/>
<text text-anchor="start" x="76" y="-40" font-family="Helvetica,sans-Serif" font-size="10.00">/home/runner/work/amr</text>
<text text-anchor="start" x="76" y="-29" font-family="Helvetica,sans-Serif" font-size="10.00">&#45;wind/amr&#45;wind/src/wind</text>
<text text-anchor="start" x="76" y="-18" font-family="Helvetica,sans-Serif" font-size="10.00">_energy/actuator/turbine</text>
<text text-anchor="middle" x="136.5" y="-7" font-family="Helvetica,sans-Serif" font-size="10.00">/fast/TurbineFast.cpp</text>
</a>
</g>
</g>
<!-- Node7&#45;&gt;Node8 -->
<g id="edge7_Node000007_Node000008" class="edge">
<title>Node7&#45;&gt;Node8</title>
<g id="a_edge7_Node000007_Node000008"><a xlink:title=" ">
<path fill="none" stroke="#63b8ff" d="M154.5,-83.79C151.18,-73.32 147.6,-62.03 144.52,-52.29"/>
<polygon fill="#63b8ff" stroke="#63b8ff" points="151.22,-85.02 157.58,-93.5 157.89,-82.91 151.22,-85.02"/>
</a>
</g>
</g>
<!-- Node10 -->
<g id="Node000010" class="node">
<title>Node10</title>
<g id="a_Node000010"><a xlink:href="_turbine_kynema_f_m_b_8cpp.html" target="_top" xlink:title=" ">
<polygon fill="white" stroke="#666666" points="465,-52 262,-52 262,0 465,0 465,-52"/>
<text text-anchor="start" x="270" y="-40" font-family="Helvetica,sans-Serif" font-size="10.00">/home/runner/work/amr</text>
<text text-anchor="start" x="270" y="-29" font-family="Helvetica,sans-Serif" font-size="10.00">&#45;wind/amr&#45;wind/src/wind</text>
<text text-anchor="start" x="270" y="-18" font-family="Helvetica,sans-Serif" font-size="10.00">_energy/actuator/turbine</text>
<text text-anchor="middle" x="363.5" y="-7" font-family="Helvetica,sans-Serif" font-size="10.00">/kynema_fmb/TurbineKynemaFMB.cpp</text>
</a>
</g>
</g>
<!-- Node9&#45;&gt;Node10 -->
<g id="edge9_Node000009_Node000010" class="edge">
<title>Node9&#45;&gt;Node10</title>
<g id="a_edge9_Node000009_Node000010"><a xlink:title=" ">
<path fill="none" stroke="#63b8ff" d="M347.9,-77.98C350.6,-69.14 353.39,-60.04 355.84,-52.02"/>
<polygon fill="#63b8ff" stroke="#63b8ff" points="344.48,-77.19 344.9,-87.78 351.17,-79.24 344.48,-77.19"/>
</a>
</g>
</g>
<!-- Node11&#45;&gt;Node7 -->
<g id="edge12_Node000011_Node000007" class="edge">
<title>Node11&#45;&gt;Node7</title>
<g id="a_edge12_Node000011_Node000007"><a xlink:title=" ">
<path fill="none" stroke="#63b8ff" d="M102.57,-179.86C114.41,-168.69 127.52,-156.33 138.69,-145.79"/>
<polygon fill="#63b8ff" stroke="#63b8ff" points="99.88,-177.59 95.01,-187 104.68,-182.68 99.88,-177.59"/>
</a>
</g>
</g>
<!-- Node11&#45;&gt;Node8 -->
<g id="edge11_Node000011_Node000008" class="edge">
<title>Node11&#45;&gt;Node8</title>
<g id="a_edge11_Node000011_Node000008"><a xlink:title=" ">
<path fill="none" stroke="#63b8ff" d="M69.06,-176.7C70.6,-151.12 75.09,-116.21 87.5,-88 93.24,-74.94 102.52,-62.34 111.46,-52.01"/>
<polygon fill="#63b8ff" stroke="#63b8ff" points="65.56,-176.55 68.57,-186.71 72.55,-176.89 65.56,-176.55"/>
</a>
</g>
</g>
<!-- Node12&#45;&gt;Node9 -->
<g id="edge15_Node000012_Node000009" class="edge">
<title>Node12&#45;&gt;Node9</title>
<g id="a_edge15_Node000012_Node000009"><a xlink:title=" ">
<path fill="none" stroke="#63b8ff" d="M408.35,-180.55C396.76,-170.99 384.04,-160.51 372.52,-151.02"/>
<polygon fill="#63b8ff" stroke="#63b8ff" points="406.23,-183.34 416.17,-187 410.68,-177.94 406.23,-183.34"/>
</a>
</g>
</g>
<!-- Node12&#45;&gt;Node10 -->
<g id="edge14_Node000012_Node000010" class="edge">
<title>Node12&#45;&gt;Node10</title>
<g id="a_edge14_Node000012_Node000010"><a xlink:title=" ">
<path fill="none" stroke="#63b8ff" d="M446.66,-176.67C445.43,-150.79 440.86,-115.53 426.5,-88 419.39,-74.37 408.08,-62 397,-52.01"/>
<polygon fill="#63b8ff" stroke="#63b8ff" points="443.17,-176.91 447,-186.79 450.16,-176.68 443.17,-176.91"/>
</a>
</g>
</g>
</g>
</svg>
