<?xml version="1.0" encoding="UTF-8" standalone="no"?>
<!DOCTYPE svg PUBLIC "-//W3C//DTD SVG 1.1//EN"
 "http://www.w3.org/Graphics/SVG/1.1/DTD/svg11.dtd">
<!-- Generated by graphviz version 2.43.0 (0)
 -->
<!-- Title: /home/runner/work/amr&#45;wind/amr&#45;wind/src/wind_energy/actuator/FLLCOp.H Pages: 1 -->
<svg width="858pt" height="544pt"
 viewBox="0.00 0.00 857.50 544.00" xmlns="http://www.w3.org/2000/svg" xmlns:xlink="http://www.w3.org/1999/xlink">
<g id="graph0" class="graph" transform="scale(1 1) rotate(0) translate(4 540)">
<title>/home/runner/work/amr&#45;wind/amr&#45;wind/src/wind_energy/actuator/FLLCOp.H</title>
<!-- Node1 -->
<g id="Node000001" class="node">
<title>Node1</title>
<g id="a_Node000001"><a xlink:title=" ">
<polygon fill="#999999" stroke="#666666" points="583,-536 434,-536 434,-495 583,-495 583,-536"/>
<text text-anchor="start" x="442" y="-524" font-family="Helvetica,sans-Serif" font-size="10.00">/home/runner/work/amr</text>
<text text-anchor="start" x="442" y="-513" font-family="Helvetica,sans-Serif" font-size="10.00">&#45;wind/amr&#45;wind/src/wind</text>
<text text-anchor="middle" x="508.5" y="-502" font-family="Helvetica,sans-Serif" font-size="10.00">_energy/actuator/FLLCOp.H</text>
</a>
</g>
</g>
<!-- Node2 -->
<g id="Node000002" class="node">
<title>Node2</title>
<g id="a_Node000002"><a xlink:title=" ">
<polygon fill="#e0e0e0" stroke="#999999" points="59,-19 0,-19 0,0 59,0 59,-19"/>
<text text-anchor="middle" x="29.5" y="-7" font-family="Helvetica,sans-Serif" font-size="10.00">numbers</text>
</a>
</g>
</g>
<!-- Node1&#45;&gt;Node2 -->
<g id="edge1_Node000001_Node000002" class="edge">
<title>Node1&#45;&gt;Node2</title>
<g id="a_edge1_Node000001_Node000002"><a xlink:title=" ">
<path fill="none" stroke="#63b8ff" d="M433.84,-510.03C293.09,-499.54 2.5,-467.21 2.5,-379 2.5,-379 2.5,-379 2.5,-129.5 2.5,-92.92 14.78,-51.55 22.78,-28.5"/>
<polygon fill="#63b8ff" stroke="#63b8ff" points="26.1,-29.6 26.19,-19.01 19.51,-27.24 26.1,-29.6"/>
</a>
</g>
</g>
<!-- Node3 -->
<g id="Node000003" class="node">
<title>Node3</title>
<g id="a_Node000003"><a xlink:href="actuator__types_8_h.html" target="_top" xlink:title=" ">
<polygon fill="white" stroke="#666666" points="424.5,-327 284.5,-327 284.5,-297 424.5,-297 424.5,-327"/>
<text text-anchor="start" x="292.5" y="-315" font-family="Helvetica,sans-Serif" font-size="10.00">src/wind_energy/actuator</text>
<text text-anchor="middle" x="354.5" y="-304" font-family="Helvetica,sans-Serif" font-size="10.00">/actuator_types.H</text>
</a>
</g>
</g>
<!-- Node1&#45;&gt;Node3 -->
<g id="edge2_Node000001_Node000003" class="edge">
<title>Node1&#45;&gt;Node3</title>
<g id="a_edge2_Node000001_Node000003"><a xlink:title=" ">
<path fill="none" stroke="#63b8ff" d="M472.94,-494.76C458.19,-485.33 441.72,-473.03 429.5,-459 396.88,-421.54 373.91,-367.41 362.57,-336.68"/>
<polygon fill="#63b8ff" stroke="#63b8ff" points="365.85,-335.44 359.18,-327.21 359.26,-337.8 365.85,-335.44"/>
</a>
</g>
</g>
<!-- Node18 -->
<g id="Node000018" class="node">
<title>Node18</title>
<g id="a_Node000018"><a xlink:title=" ">
<polygon fill="#e0e0e0" stroke="#999999" points="715.5,-19 623.5,-19 623.5,0 715.5,0 715.5,-19"/>
<text text-anchor="middle" x="669.5" y="-7" font-family="Helvetica,sans-Serif" font-size="10.00">AMReX_REAL.H</text>
</a>
</g>
</g>
<!-- Node1&#45;&gt;Node18 -->
<g id="edge45_Node000001_Node000018" class="edge">
<title>Node1&#45;&gt;Node18</title>
<g id="a_edge45_Node000001_Node000018"><a xlink:title=" ">
<path fill="none" stroke="#63b8ff" d="M583.16,-506.27C631.89,-498.74 695.82,-484.7 747.5,-459 797.23,-434.27 843.5,-434.54 843.5,-379 843.5,-379 843.5,-379 843.5,-129.5 843.5,-95.33 848.3,-79.52 824.5,-55 810.63,-40.71 764.29,-28.56 725.87,-20.58"/>
<polygon fill="#63b8ff" stroke="#63b8ff" points="726.28,-17.09 715.79,-18.54 724.89,-23.95 726.28,-17.09"/>
</a>
</g>
</g>
<!-- Node22 -->
<g id="Node000022" class="node">
<title>Node22</title>
<g id="a_Node000022"><a xlink:href="_f_l_l_c_8_h.html" target="_top" xlink:title=" ">
<polygon fill="white" stroke="#666666" points="578.5,-459 438.5,-459 438.5,-429 578.5,-429 578.5,-459"/>
<text text-anchor="start" x="446.5" y="-447" font-family="Helvetica,sans-Serif" font-size="10.00">src/wind_energy/actuator</text>
<text text-anchor="middle" x="508.5" y="-436" font-family="Helvetica,sans-Serif" font-size="10.00">/FLLC.H</text>
</a>
</g>
</g>
<!-- Node1&#45;&gt;Node22 -->
<g id="edge33_Node000001_Node000022" class="edge">
<title>Node1&#45;&gt;Node22</title>
<g id="a_edge33_Node000001_Node000022"><a xlink:title=" ">
<path fill="none" stroke="#63b8ff" d="M508.5,-494.77C508.5,-486.85 508.5,-477.63 508.5,-469.3"/>
<polygon fill="#63b8ff" stroke="#63b8ff" points="512,-469.04 508.5,-459.04 505,-469.04 512,-469.04"/>
</a>
</g>
</g>
<!-- Node27 -->
<g id="Node000027" class="node">
<title>Node27</title>
<g id="a_Node000027"><a xlink:href="linear__interpolation_8_h.html" target="_top" xlink:title=" ">
<polygon fill="white" stroke="#666666" points="815,-85 714,-85 714,-55 815,-55 815,-85"/>
<text text-anchor="start" x="722" y="-73" font-family="Helvetica,sans-Serif" font-size="10.00">src/utilities/linear</text>
<text text-anchor="middle" x="764.5" y="-62" font-family="Helvetica,sans-Serif" font-size="10.00">_interpolation.H</text>
</a>
</g>
</g>
<!-- Node1&#45;&gt;Node27 -->
<g id="edge41_Node000001_Node000027" class="edge">
<title>Node1&#45;&gt;Node27</title>
<g id="a_edge41_Node000001_Node000027"><a xlink:title=" ">
<path fill="none" stroke="#63b8ff" d="M583.23,-506.65C658.8,-494.08 764.5,-461.72 764.5,-379 764.5,-379 764.5,-379 764.5,-184.5 764.5,-153.85 764.5,-118.54 764.5,-95.56"/>
<polygon fill="#63b8ff" stroke="#63b8ff" points="768,-95.33 764.5,-85.33 761,-95.33 768,-95.33"/>
</a>
</g>
</g>
<!-- Node4 -->
<g id="Node000004" class="node">
<title>Node4</title>
<g id="a_Node000004"><a xlink:href="_slice_8_h.html" target="_top" xlink:title=" ">
<polygon fill="white" stroke="#666666" points="400.5,-255.5 308.5,-255.5 308.5,-236.5 400.5,-236.5 400.5,-255.5"/>
<text text-anchor="middle" x="354.5" y="-243.5" font-family="Helvetica,sans-Serif" font-size="10.00">src/core/Slice.H</text>
</a>
</g>
</g>
<!-- Node3&#45;&gt;Node4 -->
<g id="edge3_Node000003_Node000004" class="edge">
<title>Node3&#45;&gt;Node4</title>
<g id="a_edge3_Node000003_Node000004"><a xlink:title=" ">
<path fill="none" stroke="#63b8ff" d="M354.5,-296.8C354.5,-287.7 354.5,-275.79 354.5,-265.9"/>
<polygon fill="#63b8ff" stroke="#63b8ff" points="358,-265.84 354.5,-255.84 351,-265.84 358,-265.84"/>
</a>
</g>
</g>
<!-- Node7 -->
<g id="Node000007" class="node">
<title>Node7</title>
<g id="a_Node000007"><a xlink:title=" ">
<polygon fill="#e0e0e0" stroke="#999999" points="224,-19 137,-19 137,0 224,0 224,-19"/>
<text text-anchor="middle" x="180.5" y="-7" font-family="Helvetica,sans-Serif" font-size="10.00">AMReX_Gpu.H</text>
</a>
</g>
</g>
<!-- Node3&#45;&gt;Node7 -->
<g id="edge28_Node000003_Node000007" class="edge">
<title>Node3&#45;&gt;Node7</title>
<g id="a_edge28_Node000003_Node000007"><a xlink:title=" ">
<path fill="none" stroke="#63b8ff" d="M284.24,-307.75C207.56,-302.75 91.45,-290.43 59.5,-261 34.37,-237.85 40.5,-220.67 40.5,-186.5 40.5,-186.5 40.5,-186.5 40.5,-129.5 40.5,-74.57 103.84,-39.7 145.31,-22.75"/>
<polygon fill="#63b8ff" stroke="#63b8ff" points="146.79,-25.93 154.82,-19.02 144.23,-19.41 146.79,-25.93"/>
</a>
</g>
</g>
<!-- Node8 -->
<g id="Node000008" class="node">
<title>Node8</title>
<g id="a_Node000008"><a xlink:href="vector__space_8_h.html" target="_top" xlink:title=" ">
<polygon fill="white" stroke="#666666" points="522,-261 419,-261 419,-231 522,-231 522,-261"/>
<text text-anchor="start" x="427" y="-249" font-family="Helvetica,sans-Serif" font-size="10.00">src/core/vs/vector</text>
<text text-anchor="middle" x="470.5" y="-238" font-family="Helvetica,sans-Serif" font-size="10.00">_space.H</text>
</a>
</g>
</g>
<!-- Node3&#45;&gt;Node8 -->
<g id="edge7_Node000003_Node000008" class="edge">
<title>Node3&#45;&gt;Node8</title>
<g id="a_edge7_Node000003_Node000008"><a xlink:title=" ">
<path fill="none" stroke="#63b8ff" d="M379.96,-296.95C396.43,-287.87 418.07,-275.93 436.07,-266"/>
<polygon fill="#63b8ff" stroke="#63b8ff" points="438.04,-268.91 445.1,-261.01 434.66,-262.78 438.04,-268.91"/>
</a>
</g>
</g>
<!-- Node3&#45;&gt;Node18 -->
<g id="edge32_Node000003_Node000018" class="edge">
<title>Node3&#45;&gt;Node18</title>
<g id="a_edge32_Node000003_Node000018"><a xlink:title=" ">
<path fill="none" stroke="#63b8ff" d="M424.58,-304.08C459.71,-297.62 501.12,-285.13 531.5,-261 611.05,-197.81 651.59,-75.62 664.66,-29.1"/>
<polygon fill="#63b8ff" stroke="#63b8ff" points="668.04,-30.01 667.29,-19.44 661.29,-28.17 668.04,-30.01"/>
</a>
</g>
</g>
<!-- Node19 -->
<g id="Node000019" class="node">
<title>Node19</title>
<g id="a_Node000019"><a xlink:title=" ">
<polygon fill="#e0e0e0" stroke="#999999" points="176.5,-255.5 68.5,-255.5 68.5,-236.5 176.5,-236.5 176.5,-255.5"/>
<text text-anchor="middle" x="122.5" y="-243.5" font-family="Helvetica,sans-Serif" font-size="10.00">AMReX_RealBox.H</text>
</a>
</g>
</g>
<!-- Node3&#45;&gt;Node19 -->
<g id="edge29_Node000003_Node000019" class="edge">
<title>Node3&#45;&gt;Node19</title>
<g id="a_edge29_Node000003_Node000019"><a xlink:title=" ">
<path fill="none" stroke="#63b8ff" d="M303.59,-296.95C261.47,-285.34 202.42,-269.05 163.35,-258.27"/>
<polygon fill="#63b8ff" stroke="#63b8ff" points="163.95,-254.8 153.38,-255.52 162.08,-261.55 163.95,-254.8"/>
</a>
</g>
</g>
<!-- Node20 -->
<g id="Node000020" class="node">
<title>Node20</title>
<g id="a_Node000020"><a xlink:title=" ">
<polygon fill="#e0e0e0" stroke="#999999" points="226.5,-255.5 194.5,-255.5 194.5,-236.5 226.5,-236.5 226.5,-255.5"/>
<text text-anchor="middle" x="210.5" y="-243.5" font-family="Helvetica,sans-Serif" font-size="10.00">set</text>
</a>
</g>
</g>
<!-- Node3&#45;&gt;Node20 -->
<g id="edge30_Node000003_Node000020" class="edge">
<title>Node3&#45;&gt;Node20</title>
<g id="a_edge30_Node000003_Node000020"><a xlink:title=" ">
<path fill="none" stroke="#63b8ff" d="M318.1,-296.94C294.29,-287.45 262.69,-274.27 235.5,-261 235.08,-260.79 234.65,-260.58 234.22,-260.37"/>
<polygon fill="#63b8ff" stroke="#63b8ff" points="235.63,-257.16 225.16,-255.57 232.36,-263.34 235.63,-257.16"/>
</a>
</g>
</g>
<!-- Node21 -->
<g id="Node000021" class="node">
<title>Node21</title>
<g id="a_Node000021"><a xlink:title=" ">
<polygon fill="#e0e0e0" stroke="#999999" points="290,-255.5 245,-255.5 245,-236.5 290,-236.5 290,-255.5"/>
<text text-anchor="middle" x="267.5" y="-243.5" font-family="Helvetica,sans-Serif" font-size="10.00">utility</text>
</a>
</g>
</g>
<!-- Node3&#45;&gt;Node21 -->
<g id="edge31_Node000003_Node000021" class="edge">
<title>Node3&#45;&gt;Node21</title>
<g id="a_edge31_Node000003_Node000021"><a xlink:title=" ">
<path fill="none" stroke="#63b8ff" d="M335.19,-296.8C321.01,-286.37 301.81,-272.24 287.48,-261.69"/>
<polygon fill="#63b8ff" stroke="#63b8ff" points="289.4,-258.76 279.27,-255.66 285.25,-264.4 289.4,-258.76"/>
</a>
</g>
</g>
<!-- Node5 -->
<g id="Node000005" class="node">
<title>Node5</title>
<g id="a_Node000005"><a xlink:title=" ">
<polygon fill="#e0e0e0" stroke="#999999" points="195,-195 142,-195 142,-176 195,-176 195,-195"/>
<text text-anchor="middle" x="168.5" y="-183" font-family="Helvetica,sans-Serif" font-size="10.00">iterator</text>
</a>
</g>
</g>
<!-- Node4&#45;&gt;Node5 -->
<g id="edge4_Node000004_Node000005" class="edge">
<title>Node4&#45;&gt;Node5</title>
<g id="a_edge4_Node000004_Node000005"><a xlink:title=" ">
<path fill="none" stroke="#63b8ff" d="M327.45,-236.49C295.13,-226.33 240.9,-209.27 204.91,-197.95"/>
<polygon fill="#63b8ff" stroke="#63b8ff" points="205.87,-194.58 195.28,-194.92 203.77,-201.26 205.87,-194.58"/>
</a>
</g>
</g>
<!-- Node6 -->
<g id="Node000006" class="node">
<title>Node6</title>
<g id="a_Node000006"><a xlink:title=" ">
<polygon fill="#e0e0e0" stroke="#999999" points="311.5,-195 213.5,-195 213.5,-176 311.5,-176 311.5,-195"/>
<text text-anchor="middle" x="262.5" y="-183" font-family="Helvetica,sans-Serif" font-size="10.00">AMReX_Vector.H</text>
</a>
</g>
</g>
<!-- Node4&#45;&gt;Node6 -->
<g id="edge5_Node000004_Node000006" class="edge">
<title>Node4&#45;&gt;Node6</title>
<g id="a_edge5_Node000004_Node000006"><a xlink:title=" ">
<path fill="none" stroke="#63b8ff" d="M340.93,-236.37C326.11,-226.95 302.17,-211.73 284.64,-200.58"/>
<polygon fill="#63b8ff" stroke="#63b8ff" points="286.45,-197.58 276.13,-195.17 282.69,-203.49 286.45,-197.58"/>
</a>
</g>
</g>
<!-- Node4&#45;&gt;Node7 -->
<g id="edge6_Node000004_Node000007" class="edge">
<title>Node4&#45;&gt;Node7</title>
<g id="a_edge6_Node000004_Node000007"><a xlink:title=" ">
<path fill="none" stroke="#63b8ff" d="M321.08,-236.46C313.66,-234.62 305.82,-232.71 298.5,-231 224.98,-213.84 179.89,-253.77 132.5,-195 91.69,-144.39 141.78,-62.81 167.29,-27.59"/>
<polygon fill="#63b8ff" stroke="#63b8ff" points="170.29,-29.43 173.46,-19.32 164.68,-25.24 170.29,-29.43"/>
</a>
</g>
</g>
<!-- Node9 -->
<g id="Node000009" class="node">
<title>Node9</title>
<g id="a_Node000009"><a xlink:href="vector_8_h.html" target="_top" xlink:title=" ">
<polygon fill="white" stroke="#666666" points="529,-140 416,-140 416,-121 529,-121 529,-140"/>
<text text-anchor="middle" x="472.5" y="-128" font-family="Helvetica,sans-Serif" font-size="10.00">src/core/vs/vector.H</text>
</a>
</g>
</g>
<!-- Node8&#45;&gt;Node9 -->
<g id="edge8_Node000008_Node000009" class="edge">
<title>Node8&#45;&gt;Node9</title>
<g id="a_edge8_Node000008_Node000009"><a xlink:title=" ">
<path fill="none" stroke="#63b8ff" d="M470.75,-230.63C471.11,-210.21 471.77,-172.81 472.17,-150.24"/>
<polygon fill="#63b8ff" stroke="#63b8ff" points="475.67,-150.29 472.35,-140.23 468.67,-150.17 475.67,-150.29"/>
</a>
</g>
</g>
<!-- Node15 -->
<g id="Node000015" class="node">
<title>Node15</title>
<g id="a_Node000015"><a xlink:href="tensor_8_h.html" target="_top" xlink:title=" ">
<polygon fill="white" stroke="#666666" points="443,-195 330,-195 330,-176 443,-176 443,-195"/>
<text text-anchor="middle" x="386.5" y="-183" font-family="Helvetica,sans-Serif" font-size="10.00">src/core/vs/tensor.H</text>
</a>
</g>
</g>
<!-- Node8&#45;&gt;Node15 -->
<g id="edge16_Node000008_Node000015" class="edge">
<title>Node8&#45;&gt;Node15</title>
<g id="a_edge16_Node000008_Node000015"><a xlink:title=" ">
<path fill="none" stroke="#63b8ff" d="M450.17,-230.84C437.23,-221.83 420.51,-210.18 407.45,-201.09"/>
<polygon fill="#63b8ff" stroke="#63b8ff" points="409.29,-198.11 399.09,-195.27 405.29,-203.85 409.29,-198.11"/>
</a>
</g>
</g>
<!-- Node9&#45;&gt;Node7 -->
<g id="edge9_Node000009_Node000007" class="edge">
<title>Node9&#45;&gt;Node7</title>
<g id="a_edge9_Node000009_Node000007"><a xlink:title=" ">
<path fill="none" stroke="#63b8ff" d="M473.08,-120.86C473.63,-105.21 472.3,-72.22 453.5,-55 437.58,-40.42 309.36,-24.37 234.44,-16.11"/>
<polygon fill="#63b8ff" stroke="#63b8ff" points="234.56,-12.6 224.24,-14.99 233.8,-19.56 234.56,-12.6"/>
</a>
</g>
</g>
<!-- Node10 -->
<g id="Node000010" class="node">
<title>Node10</title>
<g id="a_Node000010"><a xlink:href="vstraits_8_h.html" target="_top" xlink:title=" ">
<polygon fill="white" stroke="#666666" points="444,-79.5 325,-79.5 325,-60.5 444,-60.5 444,-79.5"/>
<text text-anchor="middle" x="384.5" y="-67.5" font-family="Helvetica,sans-Serif" font-size="10.00">src/core/vs/vstraits.H</text>
</a>
</g>
</g>
<!-- Node9&#45;&gt;Node10 -->
<g id="edge10_Node000009_Node000010" class="edge">
<title>Node9&#45;&gt;Node10</title>
<g id="a_edge10_Node000009_Node000010"><a xlink:title=" ">
<path fill="none" stroke="#63b8ff" d="M459.52,-120.87C445.48,-111.54 422.87,-96.51 406.14,-85.38"/>
<polygon fill="#63b8ff" stroke="#63b8ff" points="407.8,-82.29 397.54,-79.67 403.93,-88.12 407.8,-82.29"/>
</a>
</g>
</g>
<!-- Node12 -->
<g id="Node000012" class="node">
<title>Node12</title>
<g id="a_Node000012"><a xlink:href="vector_i_8_h.html" target="_top" xlink:title=" ">
<polygon fill="white" stroke="#666666" points="616.5,-79.5 500.5,-79.5 500.5,-60.5 616.5,-60.5 616.5,-79.5"/>
<text text-anchor="middle" x="558.5" y="-67.5" font-family="Helvetica,sans-Serif" font-size="10.00">src/core/vs/vectorI.H</text>
</a>
</g>
</g>
<!-- Node9&#45;&gt;Node12 -->
<g id="edge12_Node000009_Node000012" class="edge">
<title>Node9&#45;&gt;Node12</title>
<g id="a_edge12_Node000009_Node000012"><a xlink:title=" ">
<path fill="none" stroke="#63b8ff" d="M480.23,-120.87C492.04,-111.45 514.12,-96.23 531.94,-85.08"/>
<polygon fill="#63b8ff" stroke="#63b8ff" points="534.09,-87.87 540.8,-79.67 530.44,-81.89 534.09,-87.87"/>
</a>
</g>
</g>
<!-- Node11 -->
<g id="Node000011" class="node">
<title>Node11</title>
<g id="a_Node000011"><a xlink:title=" ">
<polygon fill="#e0e0e0" stroke="#999999" points="406.5,-19 362.5,-19 362.5,0 406.5,0 406.5,-19"/>
<text text-anchor="middle" x="384.5" y="-7" font-family="Helvetica,sans-Serif" font-size="10.00">limits</text>
</a>
</g>
</g>
<!-- Node10&#45;&gt;Node11 -->
<g id="edge11_Node000010_Node000011" class="edge">
<title>Node10&#45;&gt;Node11</title>
<g id="a_edge11_Node000010_Node000011"><a xlink:title=" ">
<path fill="none" stroke="#63b8ff" d="M384.5,-60.37C384.5,-52.25 384.5,-39.81 384.5,-29.39"/>
<polygon fill="#63b8ff" stroke="#63b8ff" points="388,-29.17 384.5,-19.17 381,-29.17 388,-29.17"/>
</a>
</g>
</g>
<!-- Node12&#45;&gt;Node9 -->
<g id="edge15_Node000012_Node000009" class="edge">
<title>Node12&#45;&gt;Node9</title>
<g id="a_edge15_Node000012_Node000009"><a xlink:title=" ">
<path fill="none" stroke="#63b8ff" d="M550.72,-79.67C538.88,-89.1 516.8,-104.32 498.99,-115.47"/>
<polygon fill="#63b8ff" stroke="#63b8ff" points="496.86,-112.67 490.14,-120.87 500.5,-118.64 496.86,-112.67"/>
</a>
</g>
</g>
<!-- Node13 -->
<g id="Node000013" class="node">
<title>Node13</title>
<g id="a_Node000013"><a xlink:title=" ">
<polygon fill="#e0e0e0" stroke="#999999" points="587,-19 530,-19 530,0 587,0 587,-19"/>
<text text-anchor="middle" x="558.5" y="-7" font-family="Helvetica,sans-Serif" font-size="10.00">ostream</text>
</a>
</g>
</g>
<!-- Node12&#45;&gt;Node13 -->
<g id="edge13_Node000012_Node000013" class="edge">
<title>Node12&#45;&gt;Node13</title>
<g id="a_edge13_Node000012_Node000013"><a xlink:title=" ">
<path fill="none" stroke="#63b8ff" d="M558.5,-60.37C558.5,-52.25 558.5,-39.81 558.5,-29.39"/>
<polygon fill="#63b8ff" stroke="#63b8ff" points="562,-29.17 558.5,-19.17 555,-29.17 562,-29.17"/>
</a>
</g>
</g>
<!-- Node14 -->
<g id="Node000014" class="node">
<title>Node14</title>
<g id="a_Node000014"><a xlink:title=" ">
<polygon fill="#e0e0e0" stroke="#999999" points="320,-19 273,-19 273,0 320,0 320,-19"/>
<text text-anchor="middle" x="296.5" y="-7" font-family="Helvetica,sans-Serif" font-size="10.00">cmath</text>
</a>
</g>
</g>
<!-- Node12&#45;&gt;Node14 -->
<g id="edge14_Node000012_Node000014" class="edge">
<title>Node12&#45;&gt;Node14</title>
<g id="a_edge14_Node000012_Node000014"><a xlink:title=" ">
<path fill="none" stroke="#63b8ff" d="M520.4,-60.49C469.23,-49.07 379.1,-28.94 330.25,-18.04"/>
<polygon fill="#63b8ff" stroke="#63b8ff" points="330.72,-14.55 320.2,-15.79 329.2,-21.39 330.72,-14.55"/>
</a>
</g>
</g>
<!-- Node15&#45;&gt;Node7 -->
<g id="edge17_Node000015_Node000007" class="edge">
<title>Node15&#45;&gt;Node7</title>
<g id="a_edge17_Node000015_Node000007"><a xlink:title=" ">
<path fill="none" stroke="#63b8ff" d="M335.05,-175.97C303.48,-169.28 263.02,-158.01 230.5,-140 198.57,-122.31 184.34,-118.35 169.5,-85 161.47,-66.95 166.75,-44.25 172.43,-28.68"/>
<polygon fill="#63b8ff" stroke="#63b8ff" points="175.77,-29.76 176.27,-19.18 169.28,-27.14 175.77,-29.76"/>
</a>
</g>
</g>
<!-- Node15&#45;&gt;Node9 -->
<g id="edge19_Node000015_Node000009" class="edge">
<title>Node15&#45;&gt;Node9</title>
<g id="a_edge19_Node000015_Node000009"><a xlink:title=" ">
<path fill="none" stroke="#63b8ff" d="M400.32,-175.98C413.65,-167.77 434.08,-155.18 449.81,-145.49"/>
<polygon fill="#63b8ff" stroke="#63b8ff" points="451.75,-148.4 458.43,-140.17 448.08,-142.44 451.75,-148.4"/>
</a>
</g>
</g>
<!-- Node15&#45;&gt;Node10 -->
<g id="edge18_Node000015_Node000010" class="edge">
<title>Node15&#45;&gt;Node10</title>
<g id="a_edge18_Node000015_Node000010"><a xlink:title=" ">
<path fill="none" stroke="#63b8ff" d="M386.35,-175.97C386.03,-157.73 385.27,-114.57 384.83,-89.64"/>
<polygon fill="#63b8ff" stroke="#63b8ff" points="388.33,-89.57 384.65,-79.63 381.33,-89.69 388.33,-89.57"/>
</a>
</g>
</g>
<!-- Node16 -->
<g id="Node000016" class="node">
<title>Node16</title>
<g id="a_Node000016"><a xlink:href="tensor_i_8_h.html" target="_top" xlink:title=" ">
<polygon fill="white" stroke="#666666" points="355.5,-140 239.5,-140 239.5,-121 355.5,-121 355.5,-140"/>
<text text-anchor="middle" x="297.5" y="-128" font-family="Helvetica,sans-Serif" font-size="10.00">src/core/vs/tensorI.H</text>
</a>
</g>
</g>
<!-- Node15&#45;&gt;Node16 -->
<g id="edge20_Node000015_Node000016" class="edge">
<title>Node15&#45;&gt;Node16</title>
<g id="a_edge20_Node000015_Node000016"><a xlink:title=" ">
<path fill="none" stroke="#63b8ff" d="M367.09,-175.98C351.62,-167.84 330.43,-155.41 315.38,-145.76"/>
<polygon fill="#63b8ff" stroke="#63b8ff" points="317.19,-142.76 306.91,-140.17 313.33,-148.6 317.19,-142.76"/>
</a>
</g>
</g>
<!-- Node16&#45;&gt;Node14 -->
<g id="edge21_Node000016_Node000014" class="edge">
<title>Node16&#45;&gt;Node14</title>
<g id="a_edge21_Node000016_Node000014"><a xlink:title=" ">
<path fill="none" stroke="#63b8ff" d="M297.43,-120.94C297.27,-101.91 296.88,-55.69 296.66,-29.47"/>
<polygon fill="#63b8ff" stroke="#63b8ff" points="300.16,-29.27 296.57,-19.3 293.16,-29.33 300.16,-29.27"/>
</a>
</g>
</g>
<!-- Node16&#45;&gt;Node15 -->
<g id="edge22_Node000016_Node000015" class="edge">
<title>Node16&#45;&gt;Node15</title>
<g id="a_edge22_Node000016_Node000015"><a xlink:title=" ">
<path fill="none" stroke="#63b8ff" d="M317.21,-140.17C332.75,-148.37 353.94,-160.81 368.9,-170.42"/>
<polygon fill="#63b8ff" stroke="#63b8ff" points="367.04,-173.39 377.32,-175.98 370.9,-167.55 367.04,-173.39"/>
</a>
</g>
</g>
<!-- Node17 -->
<g id="Node000017" class="node">
<title>Node17</title>
<g id="a_Node000017"><a xlink:href="trig__ops_8_h.html" target="_top" xlink:title=" ">
<polygon fill="white" stroke="#666666" points="268.5,-85 178.5,-85 178.5,-55 268.5,-55 268.5,-85"/>
<text text-anchor="start" x="186.5" y="-73" font-family="Helvetica,sans-Serif" font-size="10.00">src/utilities/trig</text>
<text text-anchor="middle" x="223.5" y="-62" font-family="Helvetica,sans-Serif" font-size="10.00">_ops.H</text>
</a>
</g>
</g>
<!-- Node16&#45;&gt;Node17 -->
<g id="edge23_Node000016_Node000017" class="edge">
<title>Node16&#45;&gt;Node17</title>
<g id="a_edge23_Node000016_Node000017"><a xlink:title=" ">
<path fill="none" stroke="#63b8ff" d="M286.58,-120.87C276.82,-113.15 262.13,-101.54 249.38,-91.46"/>
<polygon fill="#63b8ff" stroke="#63b8ff" points="251.37,-88.57 241.35,-85.11 247.03,-94.06 251.37,-88.57"/>
</a>
</g>
</g>
<!-- Node17&#45;&gt;Node2 -->
<g id="edge25_Node000017_Node000002" class="edge">
<title>Node17&#45;&gt;Node2</title>
<g id="a_edge25_Node000017_Node000002"><a xlink:title=" ">
<path fill="none" stroke="#63b8ff" d="M178.02,-55.28C144.46,-45.17 99.33,-31.56 67.65,-22.01"/>
<polygon fill="#63b8ff" stroke="#63b8ff" points="68.46,-18.59 57.87,-19.06 66.44,-25.29 68.46,-18.59"/>
</a>
</g>
</g>
<!-- Node17&#45;&gt;Node7 -->
<g id="edge27_Node000017_Node000007" class="edge">
<title>Node17&#45;&gt;Node7</title>
<g id="a_edge27_Node000017_Node000007"><a xlink:title=" ">
<path fill="none" stroke="#63b8ff" d="M213.09,-54.84C207.04,-46.61 199.38,-36.18 193,-27.51"/>
<polygon fill="#63b8ff" stroke="#63b8ff" points="195.69,-25.25 186.94,-19.27 190.05,-29.4 195.69,-25.25"/>
</a>
</g>
</g>
<!-- Node17&#45;&gt;Node14 -->
<g id="edge24_Node000017_Node000014" class="edge">
<title>Node17&#45;&gt;Node14</title>
<g id="a_edge24_Node000017_Node000014"><a xlink:title=" ">
<path fill="none" stroke="#63b8ff" d="M241.17,-54.84C252.2,-46 266.39,-34.63 277.63,-25.62"/>
<polygon fill="#63b8ff" stroke="#63b8ff" points="279.95,-28.25 285.56,-19.27 275.57,-22.79 279.95,-28.25"/>
</a>
</g>
</g>
<!-- Node17&#45;&gt;Node18 -->
<g id="edge26_Node000017_Node000018" class="edge">
<title>Node17&#45;&gt;Node18</title>
<g id="a_edge26_Node000017_Node000018"><a xlink:title=" ">
<path fill="none" stroke="#63b8ff" d="M268.86,-61.86C283.71,-59.58 300.3,-57.11 315.5,-55 420.4,-40.43 543.08,-25.47 613,-17.14"/>
<polygon fill="#63b8ff" stroke="#63b8ff" points="613.83,-20.57 623.34,-15.91 613,-13.62 613.83,-20.57"/>
</a>
</g>
</g>
<!-- Node22&#45;&gt;Node3 -->
<g id="edge35_Node000022_Node000003" class="edge">
<title>Node22&#45;&gt;Node3</title>
<g id="a_edge35_Node000022_Node000003"><a xlink:title=" ">
<path fill="none" stroke="#63b8ff" d="M491.73,-428.84C464.53,-405.88 410.7,-360.44 379.14,-333.8"/>
<polygon fill="#63b8ff" stroke="#63b8ff" points="381.15,-330.92 371.25,-327.14 376.64,-336.27 381.15,-330.92"/>
</a>
</g>
</g>
<!-- Node22&#45;&gt;Node18 -->
<g id="edge40_Node000022_Node000018" class="edge">
<title>Node22&#45;&gt;Node18</title>
<g id="a_edge40_Node000022_Node000018"><a xlink:title=" ">
<path fill="none" stroke="#63b8ff" d="M578.59,-439.56C614.23,-434.1 655.41,-421.46 681.5,-393 778.06,-287.66 703.89,-89.32 677.72,-28.62"/>
<polygon fill="#63b8ff" stroke="#63b8ff" points="680.81,-26.95 673.57,-19.22 674.41,-29.78 680.81,-26.95"/>
</a>
</g>
</g>
<!-- Node23 -->
<g id="Node000023" class="node">
<title>Node23</title>
<g id="a_Node000023"><a xlink:title=" ">
<polygon fill="#e0e0e0" stroke="#999999" points="514.5,-387.5 464.5,-387.5 464.5,-368.5 514.5,-368.5 514.5,-387.5"/>
<text text-anchor="middle" x="489.5" y="-375.5" font-family="Helvetica,sans-Serif" font-size="10.00">cstdint</text>
</a>
</g>
</g>
<!-- Node22&#45;&gt;Node23 -->
<g id="edge34_Node000022_Node000023" class="edge">
<title>Node22&#45;&gt;Node23</title>
<g id="a_edge34_Node000022_Node000023"><a xlink:title=" ">
<path fill="none" stroke="#63b8ff" d="M504.28,-428.8C501.55,-419.6 497.97,-407.53 495.02,-397.58"/>
<polygon fill="#63b8ff" stroke="#63b8ff" points="498.33,-396.43 492.13,-387.84 491.62,-398.43 498.33,-396.43"/>
</a>
</g>
</g>
<!-- Node24 -->
<g id="Node000024" class="node">
<title>Node24</title>
<g id="a_Node000024"><a xlink:href="_act_parser_8_h.html" target="_top" xlink:title=" ">
<polygon fill="white" stroke="#666666" points="672.5,-393 532.5,-393 532.5,-363 672.5,-363 672.5,-393"/>
<text text-anchor="start" x="540.5" y="-381" font-family="Helvetica,sans-Serif" font-size="10.00">src/wind_energy/actuator</text>
<text text-anchor="middle" x="602.5" y="-370" font-family="Helvetica,sans-Serif" font-size="10.00">/ActParser.H</text>
</a>
</g>
</g>
<!-- Node22&#45;&gt;Node24 -->
<g id="edge36_Node000022_Node000024" class="edge">
<title>Node22&#45;&gt;Node24</title>
<g id="a_edge36_Node000022_Node000024"><a xlink:title=" ">
<path fill="none" stroke="#63b8ff" d="M529.36,-428.8C542.26,-420.01 559.01,-408.61 573.23,-398.93"/>
<polygon fill="#63b8ff" stroke="#63b8ff" points="575.4,-401.69 581.7,-393.16 571.46,-395.9 575.4,-401.69"/>
</a>
</g>
</g>
<!-- Node25 -->
<g id="Node000025" class="node">
<title>Node25</title>
<g id="a_Node000025"><a xlink:href="_multi_parser_8_h.html" target="_top" xlink:title=" ">
<polygon fill="white" stroke="#666666" points="663.5,-321.5 541.5,-321.5 541.5,-302.5 663.5,-302.5 663.5,-321.5"/>
<text text-anchor="middle" x="602.5" y="-309.5" font-family="Helvetica,sans-Serif" font-size="10.00">src/core/MultiParser.H</text>
</a>
</g>
</g>
<!-- Node24&#45;&gt;Node25 -->
<g id="edge37_Node000024_Node000025" class="edge">
<title>Node24&#45;&gt;Node25</title>
<g id="a_edge37_Node000024_Node000025"><a xlink:title=" ">
<path fill="none" stroke="#63b8ff" d="M602.5,-362.8C602.5,-353.7 602.5,-341.79 602.5,-331.9"/>
<polygon fill="#63b8ff" stroke="#63b8ff" points="606,-331.84 602.5,-321.84 599,-331.84 606,-331.84"/>
</a>
</g>
</g>
<!-- Node25&#45;&gt;Node8 -->
<g id="edge38_Node000025_Node000008" class="edge">
<title>Node25&#45;&gt;Node8</title>
<g id="a_edge38_Node000025_Node000008"><a xlink:title=" ">
<path fill="none" stroke="#63b8ff" d="M584.7,-302.37C565.35,-292.99 533.86,-277.72 508.85,-265.59"/>
<polygon fill="#63b8ff" stroke="#63b8ff" points="510.14,-262.33 499.61,-261.12 507.08,-268.63 510.14,-262.33"/>
</a>
</g>
</g>
<!-- Node26 -->
<g id="Node000026" class="node">
<title>Node26</title>
<g id="a_Node000026"><a xlink:title=" ">
<polygon fill="#e0e0e0" stroke="#999999" points="698,-255.5 579,-255.5 579,-236.5 698,-236.5 698,-255.5"/>
<text text-anchor="middle" x="638.5" y="-243.5" font-family="Helvetica,sans-Serif" font-size="10.00">AMReX_ParmParse.H</text>
</a>
</g>
</g>
<!-- Node25&#45;&gt;Node26 -->
<g id="edge39_Node000025_Node000026" class="edge">
<title>Node25&#45;&gt;Node26</title>
<g id="a_edge39_Node000025_Node000026"><a xlink:title=" ">
<path fill="none" stroke="#63b8ff" d="M607.36,-302.37C612.75,-292.78 621.6,-277.05 628.49,-264.8"/>
<polygon fill="#63b8ff" stroke="#63b8ff" points="631.64,-266.34 633.49,-255.91 625.54,-262.91 631.64,-266.34"/>
</a>
</g>
</g>
<!-- Node27&#45;&gt;Node7 -->
<g id="edge42_Node000027_Node000007" class="edge">
<title>Node27&#45;&gt;Node7</title>
<g id="a_edge42_Node000027_Node000007"><a xlink:title=" ">
<path fill="none" stroke="#63b8ff" d="M713.99,-63.9C687.62,-61.24 654.82,-57.93 625.5,-55 464.62,-38.9 424.37,-35.24 263.5,-19 253.98,-18.04 243.85,-17.01 234.05,-16.01"/>
<polygon fill="#63b8ff" stroke="#63b8ff" points="234.31,-12.52 224,-14.98 233.6,-19.48 234.31,-12.52"/>
</a>
</g>
</g>
<!-- Node27&#45;&gt;Node18 -->
<g id="edge43_Node000027_Node000018" class="edge">
<title>Node27&#45;&gt;Node18</title>
<g id="a_edge43_Node000027_Node000018"><a xlink:title=" ">
<path fill="none" stroke="#63b8ff" d="M741.5,-54.84C726.5,-45.6 707,-33.59 692.07,-24.4"/>
<polygon fill="#63b8ff" stroke="#63b8ff" points="693.81,-21.36 683.46,-19.09 690.14,-27.32 693.81,-21.36"/>
</a>
</g>
</g>
<!-- Node28 -->
<g id="Node000028" class="node">
<title>Node28</title>
<g id="a_Node000028"><a xlink:title=" ">
<polygon fill="#e0e0e0" stroke="#999999" points="849.5,-19 733.5,-19 733.5,0 849.5,0 849.5,-19"/>
<text text-anchor="middle" x="791.5" y="-7" font-family="Helvetica,sans-Serif" font-size="10.00">AMReX_Extension.H</text>
</a>
</g>
</g>
<!-- Node27&#45;&gt;Node28 -->
<g id="edge44_Node000027_Node000028" class="edge">
<title>Node27&#45;&gt;Node28</title>
<g id="a_edge44_Node000027_Node000028"><a xlink:title=" ">
<path fill="none" stroke="#63b8ff" d="M771.04,-54.84C774.68,-46.95 779.24,-37.05 783.14,-28.61"/>
<polygon fill="#63b8ff" stroke="#63b8ff" points="786.44,-29.81 787.45,-19.27 780.09,-26.88 786.44,-29.81"/>
</a>
</g>
</g>
</g>
</svg>
