<?xml version="1.0" encoding="UTF-8" standalone="no"?>
<!DOCTYPE svg PUBLIC "-//W3C//DTD SVG 1.1//EN"
 "http://www.w3.org/Graphics/SVG/1.1/DTD/svg11.dtd">
<!-- Generated by graphviz version 2.43.0 (0)
 -->
<!-- Title: /home/runner/work/amr&#45;wind/amr&#45;wind/src/wind_energy/actuator/FLLCOp.H Pages: 1 -->
<svg width="868pt" height="423pt"
 viewBox="0.00 0.00 867.50 423.00" xmlns="http://www.w3.org/2000/svg" xmlns:xlink="http://www.w3.org/1999/xlink">
<g id="graph0" class="graph" transform="scale(1 1) rotate(0) translate(4 419)">
<title>/home/runner/work/amr&#45;wind/amr&#45;wind/src/wind_energy/actuator/FLLCOp.H</title>
<!-- Node1 -->
<g id="Node000001" class="node">
<title>Node1</title>
<g id="a_Node000001"><a xlink:title=" ">
<polygon fill="#999999" stroke="#666666" points="426,-415 277,-415 277,-374 426,-374 426,-415"/>
<text text-anchor="start" x="285" y="-403" font-family="Helvetica,sans-Serif" font-size="10.00">/home/runner/work/amr</text>
<text text-anchor="start" x="285" y="-392" font-family="Helvetica,sans-Serif" font-size="10.00">&#45;wind/amr&#45;wind/src/wind</text>
<text text-anchor="middle" x="351.5" y="-381" font-family="Helvetica,sans-Serif" font-size="10.00">_energy/actuator/FLLCOp.H</text>
</a>
</g>
</g>
<!-- Node2 -->
<g id="Node000002" class="node">
<title>Node2</title>
<g id="a_Node000002"><a xlink:href="turbine__external__ops_8_h.html" target="_top" xlink:title=" ">
<polygon fill="white" stroke="#666666" points="339.5,-239 163.5,-239 163.5,-187 339.5,-187 339.5,-239"/>
<text text-anchor="start" x="171.5" y="-227" font-family="Helvetica,sans-Serif" font-size="10.00">/home/runner/work/amr</text>
<text text-anchor="start" x="171.5" y="-216" font-family="Helvetica,sans-Serif" font-size="10.00">&#45;wind/amr&#45;wind/src/wind</text>
<text text-anchor="start" x="171.5" y="-205" font-family="Helvetica,sans-Serif" font-size="10.00">_energy/actuator/turbine</text>
<text text-anchor="middle" x="251.5" y="-194" font-family="Helvetica,sans-Serif" font-size="10.00">/external/turbine_external_ops.H</text>
</a>
</g>
</g>
<!-- Node1&#45;&gt;Node2 -->
<g id="edge1_Node000001_Node000002" class="edge">
<title>Node1&#45;&gt;Node2</title>
<g id="a_edge1_Node000001_Node000002"><a xlink:title=" ">
<path fill="none" stroke="#63b8ff" d="M301.13,-368.33C289.37,-360.19 278.09,-350.08 270.5,-338 251.61,-307.94 249.07,-265.89 249.72,-239.3"/>
<polygon fill="#63b8ff" stroke="#63b8ff" points="299.43,-371.4 309.72,-373.91 303.24,-365.53 299.43,-371.4"/>
</a>
</g>
</g>
<!-- Node7 -->
<g id="Node000007" class="node">
<title>Node7</title>
<g id="a_Node000007"><a xlink:href="turbine__external__utils_8_h.html" target="_top" xlink:title=" ">
<polygon fill="white" stroke="#666666" points="423,-338 280,-338 280,-275 423,-275 423,-338"/>
<text text-anchor="start" x="288" y="-326" font-family="Helvetica,sans-Serif" font-size="10.00">/home/runner/work/amr</text>
<text text-anchor="start" x="288" y="-315" font-family="Helvetica,sans-Serif" font-size="10.00">&#45;wind/amr&#45;wind/src/wind</text>
<text text-anchor="start" x="288" y="-304" font-family="Helvetica,sans-Serif" font-size="10.00">_energy/actuator/turbine</text>
<text text-anchor="start" x="288" y="-293" font-family="Helvetica,sans-Serif" font-size="10.00">/external/turbine_external</text>
<text text-anchor="middle" x="351.5" y="-282" font-family="Helvetica,sans-Serif" font-size="10.00">_utils.H</text>
</a>
</g>
</g>
<!-- Node1&#45;&gt;Node7 -->
<g id="edge6_Node000001_Node000007" class="edge">
<title>Node1&#45;&gt;Node7</title>
<g id="a_edge6_Node000001_Node000007"><a xlink:title=" ">
<path fill="none" stroke="#63b8ff" d="M351.5,-363.92C351.5,-355.57 351.5,-346.48 351.5,-338.07"/>
<polygon fill="#63b8ff" stroke="#63b8ff" points="348,-363.99 351.5,-373.99 355,-363.99 348,-363.99"/>
</a>
</g>
</g>
<!-- Node8 -->
<g id="Node000008" class="node">
<title>Node8</title>
<g id="a_Node000008"><a xlink:href="wing__ops_8_h.html" target="_top" xlink:title=" ">
<polygon fill="white" stroke="#666666" points="668,-327 483,-327 483,-286 668,-286 668,-327"/>
<text text-anchor="start" x="491" y="-315" font-family="Helvetica,sans-Serif" font-size="10.00">/home/runner/work/amr</text>
<text text-anchor="start" x="491" y="-304" font-family="Helvetica,sans-Serif" font-size="10.00">&#45;wind/amr&#45;wind/src/wind</text>
<text text-anchor="middle" x="575.5" y="-293" font-family="Helvetica,sans-Serif" font-size="10.00">_energy/actuator/wing/wing_ops.H</text>
</a>
</g>
</g>
<!-- Node1&#45;&gt;Node8 -->
<g id="edge8_Node000001_Node000008" class="edge">
<title>Node1&#45;&gt;Node8</title>
<g id="a_edge8_Node000001_Node000008"><a xlink:title=" ">
<path fill="none" stroke="#63b8ff" d="M412.01,-370.27C447.2,-356.76 491.06,-339.92 524.48,-327.09"/>
<polygon fill="#63b8ff" stroke="#63b8ff" points="410.41,-367.13 402.33,-373.99 412.92,-373.67 410.41,-367.13"/>
</a>
</g>
</g>
<!-- Node3 -->
<g id="Node000003" class="node">
<title>Node3</title>
<g id="a_Node000003"><a xlink:href="turbine__fast__ops_8_h.html" target="_top" xlink:title=" ">
<polygon fill="white" stroke="#666666" points="146,-145.5 9,-145.5 9,-93.5 146,-93.5 146,-145.5"/>
<text text-anchor="start" x="17" y="-133.5" font-family="Helvetica,sans-Serif" font-size="10.00">/home/runner/work/amr</text>
<text text-anchor="start" x="17" y="-122.5" font-family="Helvetica,sans-Serif" font-size="10.00">&#45;wind/amr&#45;wind/src/wind</text>
<text text-anchor="start" x="17" y="-111.5" font-family="Helvetica,sans-Serif" font-size="10.00">_energy/actuator/turbine</text>
<text text-anchor="middle" x="77.5" y="-100.5" font-family="Helvetica,sans-Serif" font-size="10.00">/fast/turbine_fast_ops.H</text>
</a>
</g>
</g>
<!-- Node2&#45;&gt;Node3 -->
<g id="edge2_Node000002_Node000003" class="edge">
<title>Node2&#45;&gt;Node3</title>
<g id="a_edge2_Node000002_Node000003"><a xlink:title=" ">
<path fill="none" stroke="#63b8ff" d="M194.86,-182.21C172.38,-170.39 146.81,-156.95 125.29,-145.63"/>
<polygon fill="#63b8ff" stroke="#63b8ff" points="193.47,-185.44 203.95,-187 196.73,-179.25 193.47,-185.44"/>
</a>
</g>
</g>
<!-- Node5 -->
<g id="Node000005" class="node">
<title>Node5</title>
<g id="a_Node000005"><a xlink:href="turbine__kynema__fmb__ops_8_h.html" target="_top" xlink:title=" ">
<polygon fill="white" stroke="#666666" points="334,-151 169,-151 169,-88 334,-88 334,-151"/>
<text text-anchor="start" x="177" y="-139" font-family="Helvetica,sans-Serif" font-size="10.00">/home/runner/work/amr</text>
<text text-anchor="start" x="177" y="-128" font-family="Helvetica,sans-Serif" font-size="10.00">&#45;wind/amr&#45;wind/src/wind</text>
<text text-anchor="start" x="177" y="-117" font-family="Helvetica,sans-Serif" font-size="10.00">_energy/actuator/turbine</text>
<text text-anchor="start" x="177" y="-106" font-family="Helvetica,sans-Serif" font-size="10.00">/kynema_fmb/turbine_kynema</text>
<text text-anchor="middle" x="251.5" y="-95" font-family="Helvetica,sans-Serif" font-size="10.00">_fmb_ops.H</text>
</a>
</g>
</g>
<!-- Node2&#45;&gt;Node5 -->
<g id="edge4_Node000002_Node000005" class="edge">
<title>Node2&#45;&gt;Node5</title>
<g id="a_edge4_Node000002_Node000005"><a xlink:title=" ">
<path fill="none" stroke="#63b8ff" d="M251.5,-176.93C251.5,-168.39 251.5,-159.32 251.5,-151.02"/>
<polygon fill="#63b8ff" stroke="#63b8ff" points="248,-177 251.5,-187 255,-177 248,-177"/>
</a>
</g>
</g>
<!-- Node4 -->
<g id="Node000004" class="node">
<title>Node4</title>
<g id="a_Node000004"><a xlink:href="_turbine_fast_8cpp.html" target="_top" xlink:title=" ">
<polygon fill="white" stroke="#666666" points="137,-52 0,-52 0,0 137,0 137,-52"/>
<text text-anchor="start" x="8" y="-40" font-family="Helvetica,sans-Serif" font-size="10.00">/home/runner/work/amr</text>
<text text-anchor="start" x="8" y="-29" font-family="Helvetica,sans-Serif" font-size="10.00">&#45;wind/amr&#45;wind/src/wind</text>
<text text-anchor="start" x="8" y="-18" font-family="Helvetica,sans-Serif" font-size="10.00">_energy/actuator/turbine</text>
<text text-anchor="middle" x="68.5" y="-7" font-family="Helvetica,sans-Serif" font-size="10.00">/fast/TurbineFast.cpp</text>
</a>
</g>
</g>
<!-- Node3&#45;&gt;Node4 -->
<g id="edge3_Node000003_Node000004" class="edge">
<title>Node3&#45;&gt;Node4</title>
<g id="a_edge3_Node000003_Node000004"><a xlink:title=" ">
<path fill="none" stroke="#63b8ff" d="M74.05,-83.46C73.03,-73.08 71.94,-61.92 70.99,-52.29"/>
<polygon fill="#63b8ff" stroke="#63b8ff" points="70.58,-83.89 75.04,-93.5 77.54,-83.2 70.58,-83.89"/>
</a>
</g>
</g>
<!-- Node6 -->
<g id="Node000006" class="node">
<title>Node6</title>
<g id="a_Node000006"><a xlink:href="_turbine_kynema_f_m_b_8cpp.html" target="_top" xlink:title=" ">
<polygon fill="white" stroke="#666666" points="358,-52 155,-52 155,0 358,0 358,-52"/>
<text text-anchor="start" x="163" y="-40" font-family="Helvetica,sans-Serif" font-size="10.00">/home/runner/work/amr</text>
<text text-anchor="start" x="163" y="-29" font-family="Helvetica,sans-Serif" font-size="10.00">&#45;wind/amr&#45;wind/src/wind</text>
<text text-anchor="start" x="163" y="-18" font-family="Helvetica,sans-Serif" font-size="10.00">_energy/actuator/turbine</text>
<text text-anchor="middle" x="256.5" y="-7" font-family="Helvetica,sans-Serif" font-size="10.00">/kynema_fmb/TurbineKynemaFMB.cpp</text>
</a>
</g>
</g>
<!-- Node5&#45;&gt;Node6 -->
<g id="edge5_Node000005_Node000006" class="edge">
<title>Node5&#45;&gt;Node6</title>
<g id="a_edge5_Node000005_Node000006"><a xlink:title=" ">
<path fill="none" stroke="#63b8ff" d="M253.73,-77.7C254.21,-68.95 254.7,-59.96 255.13,-52.02"/>
<polygon fill="#63b8ff" stroke="#63b8ff" points="250.23,-77.6 253.18,-87.78 257.22,-77.98 250.23,-77.6"/>
</a>
</g>
</g>
<!-- Node7&#45;&gt;Node2 -->
<g id="edge7_Node000007_Node000002" class="edge">
<title>Node7&#45;&gt;Node2</title>
<g id="a_edge7_Node000007_Node000002"><a xlink:title=" ">
<path fill="none" stroke="#63b8ff" d="M310.32,-267.82C299.71,-258.11 288.55,-247.9 278.84,-239.02"/>
<polygon fill="#63b8ff" stroke="#63b8ff" points="308.18,-270.61 317.92,-274.78 312.91,-265.44 308.18,-270.61"/>
</a>
</g>
</g>
<!-- Node9 -->
<g id="Node000009" class="node">
<title>Node9</title>
<g id="a_Node000009"><a xlink:href="fixed__wing__ops_8_h.html" target="_top" xlink:title=" ">
<polygon fill="white" stroke="#666666" points="527.5,-239 375.5,-239 375.5,-187 527.5,-187 527.5,-239"/>
<text text-anchor="start" x="383.5" y="-227" font-family="Helvetica,sans-Serif" font-size="10.00">/home/runner/work/amr</text>
<text text-anchor="start" x="383.5" y="-216" font-family="Helvetica,sans-Serif" font-size="10.00">&#45;wind/amr&#45;wind/src/wind</text>
<text text-anchor="start" x="383.5" y="-205" font-family="Helvetica,sans-Serif" font-size="10.00">_energy/actuator/wing/fixed</text>
<text text-anchor="middle" x="451.5" y="-194" font-family="Helvetica,sans-Serif" font-size="10.00">_wing_ops.H</text>
</a>
</g>
</g>
<!-- Node8&#45;&gt;Node9 -->
<g id="edge9_Node000008_Node000009" class="edge">
<title>Node8&#45;&gt;Node9</title>
<g id="a_edge9_Node000008_Node000009"><a xlink:title=" ">
<path fill="none" stroke="#63b8ff" d="M540.75,-279.86C523.51,-267.14 502.76,-251.83 485.61,-239.17"/>
<polygon fill="#63b8ff" stroke="#63b8ff" points="538.77,-282.75 548.9,-285.87 542.93,-277.12 538.77,-282.75"/>
</a>
</g>
</g>
<!-- Node11 -->
<g id="Node000011" class="node">
<title>Node11</title>
<g id="a_Node000011"><a xlink:href="flat__plate__ops_8_h.html" target="_top" xlink:title=" ">
<polygon fill="white" stroke="#666666" points="689.5,-239 545.5,-239 545.5,-187 689.5,-187 689.5,-239"/>
<text text-anchor="start" x="553.5" y="-227" font-family="Helvetica,sans-Serif" font-size="10.00">/home/runner/work/amr</text>
<text text-anchor="start" x="553.5" y="-216" font-family="Helvetica,sans-Serif" font-size="10.00">&#45;wind/amr&#45;wind/src/wind</text>
<text text-anchor="start" x="553.5" y="-205" font-family="Helvetica,sans-Serif" font-size="10.00">_energy/actuator/wing/flat</text>
<text text-anchor="middle" x="617.5" y="-194" font-family="Helvetica,sans-Serif" font-size="10.00">_plate_ops.H</text>
</a>
</g>
</g>
<!-- Node8&#45;&gt;Node11 -->
<g id="edge11_Node000008_Node000011" class="edge">
<title>Node8&#45;&gt;Node11</title>
<g id="a_edge11_Node000008_Node000011"><a xlink:title=" ">
<path fill="none" stroke="#63b8ff" d="M588.83,-276.46C594.35,-264.44 600.69,-250.62 606,-239.05"/>
<polygon fill="#63b8ff" stroke="#63b8ff" points="585.6,-275.1 584.61,-285.65 591.97,-278.02 585.6,-275.1"/>
</a>
</g>
</g>
<!-- Node13 -->
<g id="Node000013" class="node">
<title>Node13</title>
<g id="a_Node000013"><a xlink:href="wing__ops_8cpp.html" target="_top" xlink:title=" ">
<polygon fill="white" stroke="#666666" points="859.5,-239 707.5,-239 707.5,-187 859.5,-187 859.5,-239"/>
<text text-anchor="start" x="715.5" y="-227" font-family="Helvetica,sans-Serif" font-size="10.00">/home/runner/work/amr</text>
<text text-anchor="start" x="715.5" y="-216" font-family="Helvetica,sans-Serif" font-size="10.00">&#45;wind/amr&#45;wind/src/wind</text>
<text text-anchor="start" x="715.5" y="-205" font-family="Helvetica,sans-Serif" font-size="10.00">_energy/actuator/wing/wing</text>
<text text-anchor="middle" x="783.5" y="-194" font-family="Helvetica,sans-Serif" font-size="10.00">_ops.cpp</text>
</a>
</g>
</g>
<!-- Node8&#45;&gt;Node13 -->
<g id="edge13_Node000008_Node000013" class="edge">
<title>Node8&#45;&gt;Node13</title>
<g id="a_edge13_Node000008_Node000013"><a xlink:title=" ">
<path fill="none" stroke="#63b8ff" d="M629.28,-281.84C659.11,-268.72 696.2,-252.4 726.53,-239.06"/>
<polygon fill="#63b8ff" stroke="#63b8ff" points="627.61,-278.75 619.87,-285.98 630.43,-285.16 627.61,-278.75"/>
</a>
</g>
</g>
<!-- Node10 -->
<g id="Node000010" class="node">
<title>Node10</title>
<g id="a_Node000010"><a xlink:href="_fixed_wing_8cpp.html" target="_top" xlink:title=" ">
<polygon fill="white" stroke="#666666" points="551,-140 352,-140 352,-99 551,-99 551,-140"/>
<text text-anchor="start" x="360" y="-128" font-family="Helvetica,sans-Serif" font-size="10.00">/home/runner/work/amr</text>
<text text-anchor="start" x="360" y="-117" font-family="Helvetica,sans-Serif" font-size="10.00">&#45;wind/amr&#45;wind/src/wind</text>
<text text-anchor="middle" x="451.5" y="-106" font-family="Helvetica,sans-Serif" font-size="10.00">_energy/actuator/wing/FixedWing.cpp</text>
</a>
</g>
</g>
<!-- Node9&#45;&gt;Node10 -->
<g id="edge10_Node000009_Node000010" class="edge">
<title>Node9&#45;&gt;Node10</title>
<g id="a_edge10_Node000009_Node000010"><a xlink:title=" ">
<path fill="none" stroke="#63b8ff" d="M451.5,-176.91C451.5,-164.49 451.5,-150.95 451.5,-140.26"/>
<polygon fill="#63b8ff" stroke="#63b8ff" points="448,-177 451.5,-187 455,-177 448,-177"/>
</a>
</g>
</g>
<!-- Node12 -->
<g id="Node000012" class="node">
<title>Node12</title>
<g id="a_Node000012"><a xlink:href="_flat_plate_8cpp.html" target="_top" xlink:title=" ">
<polygon fill="white" stroke="#666666" points="761.5,-140 569.5,-140 569.5,-99 761.5,-99 761.5,-140"/>
<text text-anchor="start" x="577.5" y="-128" font-family="Helvetica,sans-Serif" font-size="10.00">/home/runner/work/amr</text>
<text text-anchor="start" x="577.5" y="-117" font-family="Helvetica,sans-Serif" font-size="10.00">&#45;wind/amr&#45;wind/src/wind</text>
<text text-anchor="middle" x="665.5" y="-106" font-family="Helvetica,sans-Serif" font-size="10.00">_energy/actuator/wing/FlatPlate.cpp</text>
</a>
</g>
</g>
<!-- Node11&#45;&gt;Node12 -->
<g id="edge12_Node000011_Node000012" class="edge">
<title>Node11&#45;&gt;Node12</title>
<g id="a_edge12_Node000011_Node000012"><a xlink:title=" ">
<path fill="none" stroke="#63b8ff" d="M635.32,-178.02C642,-165.3 649.36,-151.27 655.14,-140.26"/>
<polygon fill="#63b8ff" stroke="#63b8ff" points="632.16,-176.52 630.62,-187 638.36,-179.77 632.16,-176.52"/>
</a>
</g>
</g>
</g>
</svg>
