<?xml version="1.0" encoding="UTF-8" standalone="no"?>
<!DOCTYPE svg PUBLIC "-//W3C//DTD SVG 1.1//EN"
 "http://www.w3.org/Graphics/SVG/1.1/DTD/svg11.dtd">
<!-- Generated by graphviz version 2.43.0 (0)
 -->
<!-- Title: /home/runner/work/amr&#45;wind/amr&#45;wind/src/wind_energy/actuator/FLLC.cpp Pages: 1 -->
<!--zoomable 544 -->

<svg id="main" version="1.1" xmlns="http://www.w3.org/2000/svg" xmlns:xlink="http://www.w3.org/1999/xlink" xml:space="preserve" onload="init(evt)">

<style type="text/css"><![CDATA[
.node, .edge {opacity: 0.7;}
.node.selected, .edge.selected {opacity: 1;}
.edge:hover path { stroke: red; }
.edge:hover polygon { stroke: red; fill: red; }
]]></style>

<defs>
  <circle id="rim" cx="0" cy="0" r="7"/>
  <circle id="rim2" cx="0" cy="0" r="3.5"/>
  <g id="zoomPlus">
    <use xlink:href="#rim" fill="#404040"><set attributeName="fill" to="#808080" begin="zoomplus.mouseover" end="zoomplus.mouseout"/></use>
    <path d="M-4,0h8M0,-4v8" fill="none" stroke="white" stroke-width="1.5" pointer-events="none"/>
  </g>
  <g id="zoomMin">
    <use xlink:href="#rim" fill="#404040"><set attributeName="fill" to="#808080" begin="zoomminus.mouseover" end="zoomminus.mouseout"/></use>
    <path d="M-4,0h8" fill="none" stroke="white" stroke-width="1.5" pointer-events="none"/>
  </g>
  <g id="arrowUp" transform="translate(30 24)">
    <use xlink:href="#rim"/>
    <path pointer-events="none" fill="none" stroke="white" stroke-width="1.5" d="M0,-3.0v7 M-2.5,-0.5L0,-3.0L2.5,-0.5"/>
  </g>
  <g id="arrowRight" transform="rotate(90) translate(36 -43)">
    <use xlink:href="#rim"/>
    <path pointer-events="none" fill="none" stroke="white" stroke-width="1.5" d="M0,-3.0v7 M-2.5,-0.5L0,-3.0L2.5,-0.5"/>
  </g>
  <g id="arrowDown" transform="rotate(180) translate(-30 -48)">
    <use xlink:href="#rim"/>
    <path pointer-events="none" fill="none" stroke="white" stroke-width="1.5" d="M0,-3.0v7 M-2.5,-0.5L0,-3.0L2.5,-0.5"/>
  </g>
  <g id="arrowLeft" transform="rotate(270) translate(-36 17)">
    <use xlink:href="#rim"/>
    <path pointer-events="none" fill="none" stroke="white" stroke-width="1.5" d="M0,-3.0v7 M-2.5,-0.5L0,-3.0L2.5,-0.5"/>
  </g>
  <g id="resetDef">
    <use xlink:href="#rim2" fill="#404040"><set attributeName="fill" to="#808080" begin="reset.mouseover" end="reset.mouseout"/></use>
  </g>
</defs>
<script type="application/ecmascript">
var viewWidth = 1061;
var viewHeight = 544;
var sectionId = 'dynsection-0';
</script>
<script type="application/ecmascript" xlink:href="svg.min.js"/>
<svg id="graph" class="graph">
<g id="viewport">
<title>/home/runner/work/amr&#45;wind/amr&#45;wind/src/wind_energy/actuator/FLLC.cpp</title>
<!-- Node1 -->
<g id="Node000001" class="node">
<title>Node1</title>
<g id="a_Node000001"><a xlink:title=" ">
<polygon fill="#999999" stroke="#666666" points="987,-536 841,-536 841,-495 987,-495 987,-536"/>
<text text-anchor="start" x="849" y="-524" font-family="Helvetica,sans-Serif" font-size="10.00">/home/runner/work/amr</text>
<text text-anchor="start" x="849" y="-513" font-family="Helvetica,sans-Serif" font-size="10.00">&#45;wind/amr&#45;wind/src/wind</text>
<text text-anchor="middle" x="914" y="-502" font-family="Helvetica,sans-Serif" font-size="10.00">_energy/actuator/FLLC.cpp</text>
</a>
</g>
</g>
<!-- Node2 -->
<g id="Node000002" class="node">
<title>Node2</title>
<g id="a_Node000002"><a xlink:href="_f_l_l_c_8_h.html" target="_top" xlink:title=" ">
<polygon fill="white" stroke="#666666" points="799,-459 659,-459 659,-429 799,-429 799,-459"/>
<text text-anchor="start" x="667" y="-447" font-family="Helvetica,sans-Serif" font-size="10.00">src/wind_energy/actuator</text>
<text text-anchor="middle" x="729" y="-436" font-family="Helvetica,sans-Serif" font-size="10.00">/FLLC.H</text>
</a>
</g>
</g>
<!-- Node1&#45;&gt;Node2 -->
<g id="edge1_Node000001_Node000002" class="edge">
<title>Node1&#45;&gt;Node2</title>
<g id="a_edge1_Node000001_Node000002"><a xlink:title=" ">
<path fill="none" stroke="#63b8ff" d="M861.97,-494.96C834.85,-484.76 801.94,-472.4 775.64,-462.52"/>
<polygon fill="#63b8ff" stroke="#63b8ff" points="776.87,-459.24 766.28,-459 774.41,-465.8 776.87,-459.24"/>
</a>
</g>
</g>
<!-- Node20 -->
<g id="Node000020" class="node">
<title>Node20</title>
<g id="a_Node000020"><a xlink:title=" ">
<polygon fill="#e0e0e0" stroke="#999999" points="919,-19 827,-19 827,0 919,0 919,-19"/>
<text text-anchor="middle" x="873" y="-7" font-family="Helvetica,sans-Serif" font-size="10.00">AMReX_REAL.H</text>
</a>
</g>
</g>
<!-- Node1&#45;&gt;Node20 -->
<g id="edge43_Node000001_Node000020" class="edge">
<title>Node1&#45;&gt;Node20</title>
<g id="a_edge43_Node000001_Node000020"><a xlink:title=" ">
<path fill="none" stroke="#63b8ff" d="M914,-494.75C914,-468.37 914,-420.17 914,-379 914,-379 914,-379 914,-129.5 914,-91.62 895.2,-50.48 883.06,-27.86"/>
<polygon fill="#63b8ff" stroke="#63b8ff" points="886.11,-26.14 878.19,-19.1 879.99,-29.54 886.11,-26.14"/>
</a>
</g>
</g>
<!-- Node27 -->
<g id="Node000027" class="node">
<title>Node27</title>
<g id="a_Node000027"><a xlink:href="linear__interpolation_8_h.html" target="_top" xlink:title=" ">
<polygon fill="white" stroke="#666666" points="1043.5,-85 942.5,-85 942.5,-55 1043.5,-55 1043.5,-85"/>
<text text-anchor="start" x="950.5" y="-73" font-family="Helvetica,sans-Serif" font-size="10.00">src/utilities/linear</text>
<text text-anchor="middle" x="993" y="-62" font-family="Helvetica,sans-Serif" font-size="10.00">_interpolation.H</text>
</a>
</g>
</g>
<!-- Node1&#45;&gt;Node27 -->
<g id="edge39_Node000001_Node000027" class="edge">
<title>Node1&#45;&gt;Node27</title>
<g id="a_edge39_Node000001_Node000027"><a xlink:title=" ">
<path fill="none" stroke="#63b8ff" d="M928.34,-494.97C945.51,-469.59 972,-423.27 972,-379 972,-379 972,-379 972,-184.5 972,-153.19 979.82,-117.82 985.92,-95"/>
<polygon fill="#63b8ff" stroke="#63b8ff" points="989.35,-95.75 988.65,-85.18 982.6,-93.88 989.35,-95.75"/>
</a>
</g>
</g>
<!-- Node3 -->
<g id="Node000003" class="node">
<title>Node3</title>
<g id="a_Node000003"><a xlink:title=" ">
<polygon fill="#e0e0e0" stroke="#999999" points="754,-387.5 704,-387.5 704,-368.5 754,-368.5 754,-387.5"/>
<text text-anchor="middle" x="729" y="-375.5" font-family="Helvetica,sans-Serif" font-size="10.00">cstdint</text>
</a>
</g>
</g>
<!-- Node2&#45;&gt;Node3 -->
<g id="edge2_Node000002_Node000003" class="edge">
<title>Node2&#45;&gt;Node3</title>
<g id="a_edge2_Node000002_Node000003"><a xlink:title=" ">
<path fill="none" stroke="#63b8ff" d="M729,-428.8C729,-419.7 729,-407.79 729,-397.9"/>
<polygon fill="#63b8ff" stroke="#63b8ff" points="732.5,-397.84 729,-387.84 725.5,-397.84 732.5,-397.84"/>
</a>
</g>
</g>
<!-- Node4 -->
<g id="Node000004" class="node">
<title>Node4</title>
<g id="a_Node000004"><a xlink:href="actuator__types_8_h.html" target="_top" xlink:title=" ">
<polygon fill="white" stroke="#666666" points="680,-327 540,-327 540,-297 680,-297 680,-327"/>
<text text-anchor="start" x="548" y="-315" font-family="Helvetica,sans-Serif" font-size="10.00">src/wind_energy/actuator</text>
<text text-anchor="middle" x="610" y="-304" font-family="Helvetica,sans-Serif" font-size="10.00">/actuator_types.H</text>
</a>
</g>
</g>
<!-- Node2&#45;&gt;Node4 -->
<g id="edge3_Node000002_Node000004" class="edge">
<title>Node2&#45;&gt;Node4</title>
<g id="a_edge3_Node000002_Node000004"><a xlink:title=" ">
<path fill="none" stroke="#63b8ff" d="M716.04,-428.84C695.29,-406.18 654.48,-361.6 629.98,-334.83"/>
<polygon fill="#63b8ff" stroke="#63b8ff" points="632.28,-332.16 622.95,-327.14 627.12,-336.88 632.28,-332.16"/>
</a>
</g>
</g>
<!-- Node2&#45;&gt;Node20 -->
<g id="edge38_Node000002_Node000020" class="edge">
<title>Node2&#45;&gt;Node20</title>
<g id="a_edge38_Node000002_Node000020"><a xlink:title=" ">
<path fill="none" stroke="#63b8ff" d="M766.47,-428.96C810.03,-409.92 876,-371.43 876,-313 876,-313 876,-313 876,-129.5 876,-94.14 874.66,-52.89 873.77,-29.42"/>
<polygon fill="#63b8ff" stroke="#63b8ff" points="877.26,-29.01 873.37,-19.16 870.26,-29.29 877.26,-29.01"/>
</a>
</g>
</g>
<!-- Node24 -->
<g id="Node000024" class="node">
<title>Node24</title>
<g id="a_Node000024"><a xlink:href="_act_parser_8_h.html" target="_top" xlink:title=" ">
<polygon fill="white" stroke="#666666" points="500,-393 360,-393 360,-363 500,-363 500,-393"/>
<text text-anchor="start" x="368" y="-381" font-family="Helvetica,sans-Serif" font-size="10.00">src/wind_energy/actuator</text>
<text text-anchor="middle" x="430" y="-370" font-family="Helvetica,sans-Serif" font-size="10.00">/ActParser.H</text>
</a>
</g>
</g>
<!-- Node2&#45;&gt;Node24 -->
<g id="edge34_Node000002_Node000024" class="edge">
<title>Node2&#45;&gt;Node24</title>
<g id="a_edge34_Node000002_Node000024"><a xlink:title=" ">
<path fill="none" stroke="#63b8ff" d="M663.38,-428.95C616.74,-418.97 554,-405.54 505.32,-395.12"/>
<polygon fill="#63b8ff" stroke="#63b8ff" points="505.97,-391.68 495.46,-393.01 504.51,-398.53 505.97,-391.68"/>
</a>
</g>
</g>
<!-- Node5 -->
<g id="Node000005" class="node">
<title>Node5</title>
<g id="a_Node000005"><a xlink:href="_slice_8_h.html" target="_top" xlink:title=" ">
<polygon fill="white" stroke="#666666" points="634,-255.5 542,-255.5 542,-236.5 634,-236.5 634,-255.5"/>
<text text-anchor="middle" x="588" y="-243.5" font-family="Helvetica,sans-Serif" font-size="10.00">src/core/Slice.H</text>
</a>
</g>
</g>
<!-- Node4&#45;&gt;Node5 -->
<g id="edge4_Node000004_Node000005" class="edge">
<title>Node4&#45;&gt;Node5</title>
<g id="a_edge4_Node000004_Node000005"><a xlink:title=" ">
<path fill="none" stroke="#63b8ff" d="M605.12,-296.8C601.96,-287.6 597.81,-275.53 594.39,-265.58"/>
<polygon fill="#63b8ff" stroke="#63b8ff" points="597.6,-264.16 591.04,-255.84 590.98,-266.44 597.6,-264.16"/>
</a>
</g>
</g>
<!-- Node8 -->
<g id="Node000008" class="node">
<title>Node8</title>
<g id="a_Node000008"><a xlink:title=" ">
<polygon fill="#e0e0e0" stroke="#999999" points="537.5,-19 450.5,-19 450.5,0 537.5,0 537.5,-19"/>
<text text-anchor="middle" x="494" y="-7" font-family="Helvetica,sans-Serif" font-size="10.00">AMReX_Gpu.H</text>
</a>
</g>
</g>
<!-- Node4&#45;&gt;Node8 -->
<g id="edge29_Node000004_Node000008" class="edge">
<title>Node4&#45;&gt;Node8</title>
<g id="a_edge29_Node000004_Node000008"><a xlink:title=" ">
<path fill="none" stroke="#63b8ff" d="M540,-302.91C513.68,-296.1 486.23,-283.66 470,-261 424.25,-197.11 475.69,-162.77 487,-85 489.74,-66.15 491.64,-44.45 492.76,-29.35"/>
<polygon fill="#63b8ff" stroke="#63b8ff" points="496.26,-29.47 493.47,-19.25 489.28,-28.98 496.26,-29.47"/>
</a>
</g>
</g>
<!-- Node9 -->
<g id="Node000009" class="node">
<title>Node9</title>
<g id="a_Node000009"><a xlink:href="vector__space_8_h.html" target="_top" xlink:title=" ">
<polygon fill="white" stroke="#666666" points="419.5,-261 316.5,-261 316.5,-231 419.5,-231 419.5,-261"/>
<text text-anchor="start" x="324.5" y="-249" font-family="Helvetica,sans-Serif" font-size="10.00">src/core/vs/vector</text>
<text text-anchor="middle" x="368" y="-238" font-family="Helvetica,sans-Serif" font-size="10.00">_space.H</text>
</a>
</g>
</g>
<!-- Node4&#45;&gt;Node9 -->
<g id="edge8_Node000004_Node000009" class="edge">
<title>Node4&#45;&gt;Node9</title>
<g id="a_edge8_Node000004_Node000009"><a xlink:title=" ">
<path fill="none" stroke="#63b8ff" d="M556.89,-296.95C519.31,-287.02 468.81,-273.66 429.48,-263.26"/>
<polygon fill="#63b8ff" stroke="#63b8ff" points="430.3,-259.86 419.74,-260.68 428.51,-266.62 430.3,-259.86"/>
</a>
</g>
</g>
<!-- Node4&#45;&gt;Node20 -->
<g id="edge33_Node000004_Node000020" class="edge">
<title>Node4&#45;&gt;Node20</title>
<g id="a_edge33_Node000004_Node000020"><a xlink:title=" ">
<path fill="none" stroke="#63b8ff" d="M622.33,-296.91C665.81,-247.23 811.87,-80.35 858.54,-27.03"/>
<polygon fill="#63b8ff" stroke="#63b8ff" points="861.42,-29.05 865.37,-19.22 856.15,-24.44 861.42,-29.05"/>
</a>
</g>
</g>
<!-- Node21 -->
<g id="Node000021" class="node">
<title>Node21</title>
<g id="a_Node000021"><a xlink:title=" ">
<polygon fill="#e0e0e0" stroke="#999999" points="798,-255.5 690,-255.5 690,-236.5 798,-236.5 798,-255.5"/>
<text text-anchor="middle" x="744" y="-243.5" font-family="Helvetica,sans-Serif" font-size="10.00">AMReX_RealBox.H</text>
</a>
</g>
</g>
<!-- Node4&#45;&gt;Node21 -->
<g id="edge30_Node000004_Node000021" class="edge">
<title>Node4&#45;&gt;Node21</title>
<g id="a_edge30_Node000004_Node000021"><a xlink:title=" ">
<path fill="none" stroke="#63b8ff" d="M639.41,-296.95C662.49,-285.93 694.38,-270.7 716.86,-259.96"/>
<polygon fill="#63b8ff" stroke="#63b8ff" points="718.65,-262.99 726.17,-255.52 715.63,-256.67 718.65,-262.99"/>
</a>
</g>
</g>
<!-- Node22 -->
<g id="Node000022" class="node">
<title>Node22</title>
<g id="a_Node000022"><a xlink:title=" ">
<polygon fill="#e0e0e0" stroke="#999999" points="848,-255.5 816,-255.5 816,-236.5 848,-236.5 848,-255.5"/>
<text text-anchor="middle" x="832" y="-243.5" font-family="Helvetica,sans-Serif" font-size="10.00">set</text>
</a>
</g>
</g>
<!-- Node4&#45;&gt;Node22 -->
<g id="edge31_Node000004_Node000022" class="edge">
<title>Node4&#45;&gt;Node22</title>
<g id="a_edge31_Node000004_Node000022"><a xlink:title=" ">
<path fill="none" stroke="#63b8ff" d="M680.24,-297.86C718.49,-289.55 766.2,-277.28 807,-261 807.71,-260.72 808.43,-260.42 809.14,-260.1"/>
<polygon fill="#63b8ff" stroke="#63b8ff" points="810.93,-263.12 818.3,-255.52 807.79,-256.86 810.93,-263.12"/>
</a>
</g>
</g>
<!-- Node23 -->
<g id="Node000023" class="node">
<title>Node23</title>
<g id="a_Node000023"><a xlink:title=" ">
<polygon fill="#e0e0e0" stroke="#999999" points="523.5,-255.5 478.5,-255.5 478.5,-236.5 523.5,-236.5 523.5,-255.5"/>
<text text-anchor="middle" x="501" y="-243.5" font-family="Helvetica,sans-Serif" font-size="10.00">utility</text>
</a>
</g>
</g>
<!-- Node4&#45;&gt;Node23 -->
<g id="edge32_Node000004_Node000023" class="edge">
<title>Node4&#45;&gt;Node23</title>
<g id="a_edge32_Node000004_Node000023"><a xlink:title=" ">
<path fill="none" stroke="#63b8ff" d="M586.08,-296.95C567.72,-286.18 542.52,-271.38 524.31,-260.69"/>
<polygon fill="#63b8ff" stroke="#63b8ff" points="525.9,-257.56 515.51,-255.52 522.36,-263.6 525.9,-257.56"/>
</a>
</g>
</g>
<!-- Node6 -->
<g id="Node000006" class="node">
<title>Node6</title>
<g id="a_Node000006"><a xlink:title=" ">
<polygon fill="#e0e0e0" stroke="#999999" points="685.5,-195 632.5,-195 632.5,-176 685.5,-176 685.5,-195"/>
<text text-anchor="middle" x="659" y="-183" font-family="Helvetica,sans-Serif" font-size="10.00">iterator</text>
</a>
</g>
</g>
<!-- Node5&#45;&gt;Node6 -->
<g id="edge5_Node000005_Node000006" class="edge">
<title>Node5&#45;&gt;Node6</title>
<g id="a_edge5_Node000005_Node000006"><a xlink:title=" ">
<path fill="none" stroke="#63b8ff" d="M598.48,-236.37C609.49,-227.3 627.04,-212.84 640.41,-201.82"/>
<polygon fill="#63b8ff" stroke="#63b8ff" points="642.99,-204.23 648.48,-195.17 638.54,-198.83 642.99,-204.23"/>
</a>
</g>
</g>
<!-- Node7 -->
<g id="Node000007" class="node">
<title>Node7</title>
<g id="a_Node000007"><a xlink:title=" ">
<polygon fill="#e0e0e0" stroke="#999999" points="576,-195 478,-195 478,-176 576,-176 576,-195"/>
<text text-anchor="middle" x="527" y="-183" font-family="Helvetica,sans-Serif" font-size="10.00">AMReX_Vector.H</text>
</a>
</g>
</g>
<!-- Node5&#45;&gt;Node7 -->
<g id="edge6_Node000005_Node000007" class="edge">
<title>Node5&#45;&gt;Node7</title>
<g id="a_edge6_Node000005_Node000007"><a xlink:title=" ">
<path fill="none" stroke="#63b8ff" d="M579,-236.37C569.63,-227.38 554.75,-213.11 543.3,-202.14"/>
<polygon fill="#63b8ff" stroke="#63b8ff" points="545.68,-199.56 536.04,-195.17 540.83,-204.62 545.68,-199.56"/>
</a>
</g>
</g>
<!-- Node5&#45;&gt;Node8 -->
<g id="edge7_Node000005_Node000008" class="edge">
<title>Node5&#45;&gt;Node8</title>
<g id="a_edge7_Node000005_Node000008"><a xlink:title=" ">
<path fill="none" stroke="#63b8ff" d="M588.87,-236.3C589.92,-223.02 590.89,-197.01 585,-176 568.48,-117.02 527.62,-56 506.74,-27.32"/>
<polygon fill="#63b8ff" stroke="#63b8ff" points="509.48,-25.14 500.71,-19.19 503.85,-29.3 509.48,-25.14"/>
</a>
</g>
</g>
<!-- Node10 -->
<g id="Node000010" class="node">
<title>Node10</title>
<g id="a_Node000010"><a xlink:href="vector_8_h.html" target="_top" xlink:title=" ">
<polygon fill="white" stroke="#666666" points="250.5,-140 137.5,-140 137.5,-121 250.5,-121 250.5,-140"/>
<text text-anchor="middle" x="194" y="-128" font-family="Helvetica,sans-Serif" font-size="10.00">src/core/vs/vector.H</text>
</a>
</g>
</g>
<!-- Node9&#45;&gt;Node10 -->
<g id="edge9_Node000009_Node000010" class="edge">
<title>Node9&#45;&gt;Node10</title>
<g id="a_edge9_Node000009_Node000010"><a xlink:title=" ">
<path fill="none" stroke="#63b8ff" d="M346.31,-230.85C313.01,-209.13 249.6,-167.77 216.06,-145.89"/>
<polygon fill="#63b8ff" stroke="#63b8ff" points="217.73,-142.8 207.45,-140.27 213.91,-148.67 217.73,-142.8"/>
</a>
</g>
</g>
<!-- Node16 -->
<g id="Node000016" class="node">
<title>Node16</title>
<g id="a_Node000016"><a xlink:href="tensor_8_h.html" target="_top" xlink:title=" ">
<polygon fill="white" stroke="#666666" points="421.5,-195 308.5,-195 308.5,-176 421.5,-176 421.5,-195"/>
<text text-anchor="middle" x="365" y="-183" font-family="Helvetica,sans-Serif" font-size="10.00">src/core/vs/tensor.H</text>
</a>
</g>
</g>
<!-- Node9&#45;&gt;Node16 -->
<g id="edge17_Node000009_Node000016" class="edge">
<title>Node9&#45;&gt;Node16</title>
<g id="a_edge17_Node000009_Node000016"><a xlink:title=" ">
<path fill="none" stroke="#63b8ff" d="M367.27,-230.84C366.88,-223.21 366.4,-213.7 365.97,-205.45"/>
<polygon fill="#63b8ff" stroke="#63b8ff" points="369.46,-205.07 365.45,-195.27 362.47,-205.43 369.46,-205.07"/>
</a>
</g>
</g>
<!-- Node10&#45;&gt;Node8 -->
<g id="edge10_Node000010_Node000008" class="edge">
<title>Node10&#45;&gt;Node8</title>
<g id="a_edge10_Node000010_Node000008"><a xlink:title=" ">
<path fill="none" stroke="#63b8ff" d="M208.38,-120.91C233.93,-105.92 289.27,-74.7 339,-55 374.35,-41 415.81,-29.33 446.96,-21.46"/>
<polygon fill="#63b8ff" stroke="#63b8ff" points="447.82,-24.85 456.68,-19.04 446.13,-18.06 447.82,-24.85"/>
</a>
</g>
</g>
<!-- Node11 -->
<g id="Node000011" class="node">
<title>Node11</title>
<g id="a_Node000011"><a xlink:href="vstraits_8_h.html" target="_top" xlink:title=" ">
<polygon fill="white" stroke="#666666" points="253.5,-79.5 134.5,-79.5 134.5,-60.5 253.5,-60.5 253.5,-79.5"/>
<text text-anchor="middle" x="194" y="-67.5" font-family="Helvetica,sans-Serif" font-size="10.00">src/core/vs/vstraits.H</text>
</a>
</g>
</g>
<!-- Node10&#45;&gt;Node11 -->
<g id="edge11_Node000010_Node000011" class="edge">
<title>Node10&#45;&gt;Node11</title>
<g id="a_edge11_Node000010_Node000011"><a xlink:title=" ">
<path fill="none" stroke="#63b8ff" d="M194,-120.87C194,-112.75 194,-100.31 194,-89.89"/>
<polygon fill="#63b8ff" stroke="#63b8ff" points="197.5,-89.67 194,-79.67 190.5,-89.67 197.5,-89.67"/>
</a>
</g>
</g>
<!-- Node13 -->
<g id="Node000013" class="node">
<title>Node13</title>
<g id="a_Node000013"><a xlink:href="vector_i_8_h.html" target="_top" xlink:title=" ">
<polygon fill="white" stroke="#666666" points="116,-79.5 0,-79.5 0,-60.5 116,-60.5 116,-79.5"/>
<text text-anchor="middle" x="58" y="-67.5" font-family="Helvetica,sans-Serif" font-size="10.00">src/core/vs/vectorI.H</text>
</a>
</g>
</g>
<!-- Node10&#45;&gt;Node13 -->
<g id="edge13_Node000010_Node000013" class="edge">
<title>Node10&#45;&gt;Node13</title>
<g id="a_edge13_Node000010_Node000013"><a xlink:title=" ">
<path fill="none" stroke="#63b8ff" d="M169.3,-120.99C144.5,-111.25 106.86,-95.16 82.24,-83.88"/>
<polygon fill="#63b8ff" stroke="#63b8ff" points="83.41,-80.57 72.87,-79.52 80.46,-86.91 83.41,-80.57"/>
</a>
</g>
</g>
<!-- Node12 -->
<g id="Node000012" class="node">
<title>Node12</title>
<g id="a_Node000012"><a xlink:title=" ">
<polygon fill="#e0e0e0" stroke="#999999" points="216,-19 172,-19 172,0 216,0 216,-19"/>
<text text-anchor="middle" x="194" y="-7" font-family="Helvetica,sans-Serif" font-size="10.00">limits</text>
</a>
</g>
</g>
<!-- Node11&#45;&gt;Node12 -->
<g id="edge12_Node000011_Node000012" class="edge">
<title>Node11&#45;&gt;Node12</title>
<g id="a_edge12_Node000011_Node000012"><a xlink:title=" ">
<path fill="none" stroke="#63b8ff" d="M194,-60.37C194,-52.25 194,-39.81 194,-29.39"/>
<polygon fill="#63b8ff" stroke="#63b8ff" points="197.5,-29.17 194,-19.17 190.5,-29.17 197.5,-29.17"/>
</a>
</g>
</g>
<!-- Node13&#45;&gt;Node10 -->
<g id="edge16_Node000013_Node000010" class="edge">
<title>Node13&#45;&gt;Node10</title>
<g id="a_edge16_Node000013_Node000010"><a xlink:title=" ">
<path fill="none" stroke="#63b8ff" d="M82.73,-79.52C107.54,-89.27 145.18,-105.35 169.79,-116.63"/>
<polygon fill="#63b8ff" stroke="#63b8ff" points="168.61,-119.94 179.15,-120.99 171.57,-113.6 168.61,-119.94"/>
</a>
</g>
</g>
<!-- Node14 -->
<g id="Node000014" class="node">
<title>Node14</title>
<g id="a_Node000014"><a xlink:title=" ">
<polygon fill="#e0e0e0" stroke="#999999" points="86.5,-19 29.5,-19 29.5,0 86.5,0 86.5,-19"/>
<text text-anchor="middle" x="58" y="-7" font-family="Helvetica,sans-Serif" font-size="10.00">ostream</text>
</a>
</g>
</g>
<!-- Node13&#45;&gt;Node14 -->
<g id="edge14_Node000013_Node000014" class="edge">
<title>Node13&#45;&gt;Node14</title>
<g id="a_edge14_Node000013_Node000014"><a xlink:title=" ">
<path fill="none" stroke="#63b8ff" d="M58,-60.37C58,-52.25 58,-39.81 58,-29.39"/>
<polygon fill="#63b8ff" stroke="#63b8ff" points="61.5,-29.17 58,-19.17 54.5,-29.17 61.5,-29.17"/>
</a>
</g>
</g>
<!-- Node15 -->
<g id="Node000015" class="node">
<title>Node15</title>
<g id="a_Node000015"><a xlink:title=" ">
<polygon fill="#e0e0e0" stroke="#999999" points="305.5,-19 258.5,-19 258.5,0 305.5,0 305.5,-19"/>
<text text-anchor="middle" x="282" y="-7" font-family="Helvetica,sans-Serif" font-size="10.00">cmath</text>
</a>
</g>
</g>
<!-- Node13&#45;&gt;Node15 -->
<g id="edge15_Node000013_Node000015" class="edge">
<title>Node13&#45;&gt;Node15</title>
<g id="a_edge15_Node000013_Node000015"><a xlink:title=" ">
<path fill="none" stroke="#63b8ff" d="M90.57,-60.49C132.72,-49.49 205.79,-30.4 248.42,-19.27"/>
<polygon fill="#63b8ff" stroke="#63b8ff" points="249.52,-22.6 258.31,-16.69 247.75,-15.83 249.52,-22.6"/>
</a>
</g>
</g>
<!-- Node16&#45;&gt;Node8 -->
<g id="edge18_Node000016_Node000008" class="edge">
<title>Node16&#45;&gt;Node8</title>
<g id="a_edge18_Node000016_Node000008"><a xlink:title=" ">
<path fill="none" stroke="#63b8ff" d="M383.18,-175.91C397.89,-168.2 418.35,-155.7 432,-140 461.46,-106.1 480.16,-55.77 488.66,-28.93"/>
<polygon fill="#63b8ff" stroke="#63b8ff" points="492.03,-29.86 491.59,-19.28 485.33,-27.83 492.03,-29.86"/>
</a>
</g>
</g>
<!-- Node16&#45;&gt;Node10 -->
<g id="edge20_Node000016_Node000010" class="edge">
<title>Node16&#45;&gt;Node10</title>
<g id="a_edge20_Node000016_Node000010"><a xlink:title=" ">
<path fill="none" stroke="#63b8ff" d="M337.53,-175.98C308.82,-167.09 263.58,-153.07 231.58,-143.15"/>
<polygon fill="#63b8ff" stroke="#63b8ff" points="232.28,-139.7 221.69,-140.08 230.2,-146.39 232.28,-139.7"/>
</a>
</g>
</g>
<!-- Node16&#45;&gt;Node11 -->
<g id="edge19_Node000016_Node000011" class="edge">
<title>Node16&#45;&gt;Node11</title>
<g id="a_edge19_Node000016_Node000011"><a xlink:title=" ">
<path fill="none" stroke="#63b8ff" d="M352.15,-175.97C323.06,-156.66 251.9,-109.43 215.79,-85.46"/>
<polygon fill="#63b8ff" stroke="#63b8ff" points="217.27,-82.24 207,-79.63 213.4,-88.08 217.27,-82.24"/>
</a>
</g>
</g>
<!-- Node17 -->
<g id="Node000017" class="node">
<title>Node17</title>
<g id="a_Node000017"><a xlink:href="tensor_i_8_h.html" target="_top" xlink:title=" ">
<polygon fill="white" stroke="#666666" points="423,-140 307,-140 307,-121 423,-121 423,-140"/>
<text text-anchor="middle" x="365" y="-128" font-family="Helvetica,sans-Serif" font-size="10.00">src/core/vs/tensorI.H</text>
</a>
</g>
</g>
<!-- Node16&#45;&gt;Node17 -->
<g id="edge21_Node000016_Node000017" class="edge">
<title>Node16&#45;&gt;Node17</title>
<g id="a_edge21_Node000016_Node000017"><a xlink:title=" ">
<path fill="none" stroke="#63b8ff" d="M359.83,-175.75C358.34,-168.8 357.9,-158.85 358.52,-150.13"/>
<polygon fill="#63b8ff" stroke="#63b8ff" points="362.01,-150.47 359.87,-140.09 355.07,-149.53 362.01,-150.47"/>
</a>
</g>
</g>
<!-- Node17&#45;&gt;Node15 -->
<g id="edge22_Node000017_Node000015" class="edge">
<title>Node17&#45;&gt;Node15</title>
<g id="a_edge22_Node000017_Node000015"><a xlink:title=" ">
<path fill="none" stroke="#63b8ff" d="M359.03,-120.94C345.46,-101.48 312.06,-53.6 294.02,-27.74"/>
<polygon fill="#63b8ff" stroke="#63b8ff" points="296.73,-25.5 288.14,-19.3 290.99,-29.51 296.73,-25.5"/>
</a>
</g>
</g>
<!-- Node17&#45;&gt;Node16 -->
<g id="edge23_Node000017_Node000016" class="edge">
<title>Node17&#45;&gt;Node16</title>
<g id="a_edge23_Node000017_Node000016"><a xlink:title=" ">
<path fill="none" stroke="#63b8ff" d="M370.13,-140.09C371.64,-146.99 372.09,-156.93 371.49,-165.66"/>
<polygon fill="#63b8ff" stroke="#63b8ff" points="368,-165.38 370.17,-175.75 374.94,-166.29 368,-165.38"/>
</a>
</g>
</g>
<!-- Node18 -->
<g id="Node000018" class="node">
<title>Node18</title>
<g id="a_Node000018"><a xlink:href="trig__ops_8_h.html" target="_top" xlink:title=" ">
<polygon fill="white" stroke="#666666" points="438,-85 348,-85 348,-55 438,-55 438,-85"/>
<text text-anchor="start" x="356" y="-73" font-family="Helvetica,sans-Serif" font-size="10.00">src/utilities/trig</text>
<text text-anchor="middle" x="393" y="-62" font-family="Helvetica,sans-Serif" font-size="10.00">_ops.H</text>
</a>
</g>
</g>
<!-- Node17&#45;&gt;Node18 -->
<g id="edge24_Node000017_Node000018" class="edge">
<title>Node17&#45;&gt;Node18</title>
<g id="a_edge24_Node000017_Node000018"><a xlink:title=" ">
<path fill="none" stroke="#63b8ff" d="M369.13,-120.87C372.47,-113.89 377.34,-103.71 381.81,-94.38"/>
<polygon fill="#63b8ff" stroke="#63b8ff" points="385.08,-95.65 386.24,-85.11 378.77,-92.62 385.08,-95.65"/>
</a>
</g>
</g>
<!-- Node18&#45;&gt;Node8 -->
<g id="edge28_Node000018_Node000008" class="edge">
<title>Node18&#45;&gt;Node8</title>
<g id="a_edge28_Node000018_Node000008"><a xlink:title=" ">
<path fill="none" stroke="#63b8ff" d="M417.19,-54.99C433.29,-45.66 454.34,-33.47 470.33,-24.21"/>
<polygon fill="#63b8ff" stroke="#63b8ff" points="472.19,-27.18 479.08,-19.14 468.68,-21.12 472.19,-27.18"/>
</a>
</g>
</g>
<!-- Node18&#45;&gt;Node15 -->
<g id="edge25_Node000018_Node000015" class="edge">
<title>Node18&#45;&gt;Node15</title>
<g id="a_edge25_Node000018_Node000015"><a xlink:title=" ">
<path fill="none" stroke="#63b8ff" d="M366.41,-54.99C348.55,-45.58 325.16,-33.24 307.52,-23.95"/>
<polygon fill="#63b8ff" stroke="#63b8ff" points="308.87,-20.71 298.39,-19.14 305.61,-26.9 308.87,-20.71"/>
</a>
</g>
</g>
<!-- Node19 -->
<g id="Node000019" class="node">
<title>Node19</title>
<g id="a_Node000019"><a xlink:title=" ">
<polygon fill="#e0e0e0" stroke="#999999" points="422.5,-19 363.5,-19 363.5,0 422.5,0 422.5,-19"/>
<text text-anchor="middle" x="393" y="-7" font-family="Helvetica,sans-Serif" font-size="10.00">numbers</text>
</a>
</g>
</g>
<!-- Node18&#45;&gt;Node19 -->
<g id="edge26_Node000018_Node000019" class="edge">
<title>Node18&#45;&gt;Node19</title>
<g id="a_edge26_Node000018_Node000019"><a xlink:title=" ">
<path fill="none" stroke="#63b8ff" d="M393,-54.84C393,-47.21 393,-37.7 393,-29.45"/>
<polygon fill="#63b8ff" stroke="#63b8ff" points="396.5,-29.27 393,-19.27 389.5,-29.27 396.5,-29.27"/>
</a>
</g>
</g>
<!-- Node18&#45;&gt;Node20 -->
<g id="edge27_Node000018_Node000020" class="edge">
<title>Node18&#45;&gt;Node20</title>
<g id="a_edge27_Node000018_Node000020"><a xlink:title=" ">
<path fill="none" stroke="#63b8ff" d="M438.16,-63.5C526.2,-52.77 720.58,-29.08 816.79,-17.35"/>
<polygon fill="#63b8ff" stroke="#63b8ff" points="817.41,-20.8 826.91,-16.12 816.56,-13.85 817.41,-20.8"/>
</a>
</g>
</g>
<!-- Node25 -->
<g id="Node000025" class="node">
<title>Node25</title>
<g id="a_Node000025"><a xlink:href="_multi_parser_8_h.html" target="_top" xlink:title=" ">
<polygon fill="white" stroke="#666666" points="429,-321.5 307,-321.5 307,-302.5 429,-302.5 429,-321.5"/>
<text text-anchor="middle" x="368" y="-309.5" font-family="Helvetica,sans-Serif" font-size="10.00">src/core/MultiParser.H</text>
</a>
</g>
</g>
<!-- Node24&#45;&gt;Node25 -->
<g id="edge35_Node000024_Node000025" class="edge">
<title>Node24&#45;&gt;Node25</title>
<g id="a_edge35_Node000024_Node000025"><a xlink:title=" ">
<path fill="none" stroke="#63b8ff" d="M416.24,-362.8C406.57,-352.82 393.63,-339.46 383.58,-329.09"/>
<polygon fill="#63b8ff" stroke="#63b8ff" points="386.04,-326.59 376.57,-321.84 381.01,-331.46 386.04,-326.59"/>
</a>
</g>
</g>
<!-- Node25&#45;&gt;Node9 -->
<g id="edge36_Node000025_Node000009" class="edge">
<title>Node25&#45;&gt;Node9</title>
<g id="a_edge36_Node000025_Node000009"><a xlink:title=" ">
<path fill="none" stroke="#63b8ff" d="M368,-302.37C368,-294.49 368,-282.45 368,-271.6"/>
<polygon fill="#63b8ff" stroke="#63b8ff" points="371.5,-271.36 368,-261.36 364.5,-271.36 371.5,-271.36"/>
</a>
</g>
</g>
<!-- Node26 -->
<g id="Node000026" class="node">
<title>Node26</title>
<g id="a_Node000026"><a xlink:title=" ">
<polygon fill="#e0e0e0" stroke="#999999" points="298.5,-255.5 179.5,-255.5 179.5,-236.5 298.5,-236.5 298.5,-255.5"/>
<text text-anchor="middle" x="239" y="-243.5" font-family="Helvetica,sans-Serif" font-size="10.00">AMReX_ParmParse.H</text>
</a>
</g>
</g>
<!-- Node25&#45;&gt;Node26 -->
<g id="edge37_Node000025_Node000026" class="edge">
<title>Node25&#45;&gt;Node26</title>
<g id="a_edge37_Node000025_Node000026"><a xlink:title=" ">
<path fill="none" stroke="#63b8ff" d="M350.6,-302.37C328.77,-291.54 291.11,-272.85 265.64,-260.22"/>
<polygon fill="#63b8ff" stroke="#63b8ff" points="267.05,-257.01 256.53,-255.7 263.94,-263.28 267.05,-257.01"/>
</a>
</g>
</g>
<!-- Node27&#45;&gt;Node8 -->
<g id="edge40_Node000027_Node000008" class="edge">
<title>Node27&#45;&gt;Node8</title>
<g id="a_edge40_Node000027_Node000008"><a xlink:title=" ">
<path fill="none" stroke="#63b8ff" d="M942.41,-63.07C847.74,-51.97 644.65,-28.16 547.68,-16.79"/>
<polygon fill="#63b8ff" stroke="#63b8ff" points="547.85,-13.29 537.51,-15.6 547.04,-20.24 547.85,-13.29"/>
</a>
</g>
</g>
<!-- Node27&#45;&gt;Node20 -->
<g id="edge41_Node000027_Node000020" class="edge">
<title>Node27&#45;&gt;Node20</title>
<g id="a_edge41_Node000027_Node000020"><a xlink:title=" ">
<path fill="none" stroke="#63b8ff" d="M964.26,-54.99C944.68,-45.45 918.95,-32.9 899.8,-23.57"/>
<polygon fill="#63b8ff" stroke="#63b8ff" points="901.24,-20.38 890.72,-19.14 898.18,-26.67 901.24,-20.38"/>
</a>
</g>
</g>
<!-- Node28 -->
<g id="Node000028" class="node">
<title>Node28</title>
<g id="a_Node000028"><a xlink:title=" ">
<polygon fill="#e0e0e0" stroke="#999999" points="1053,-19 937,-19 937,0 1053,0 1053,-19"/>
<text text-anchor="middle" x="995" y="-7" font-family="Helvetica,sans-Serif" font-size="10.00">AMReX_Extension.H</text>
</a>
</g>
</g>
<!-- Node27&#45;&gt;Node28 -->
<g id="edge42_Node000027_Node000028" class="edge">
<title>Node27&#45;&gt;Node28</title>
<g id="a_edge42_Node000027_Node000028"><a xlink:title=" ">
<path fill="none" stroke="#63b8ff" d="M993.48,-54.84C993.74,-47.21 994.07,-37.7 994.35,-29.45"/>
<polygon fill="#63b8ff" stroke="#63b8ff" points="997.86,-29.38 994.7,-19.27 990.86,-29.14 997.86,-29.38"/>
</a>
</g>
</g>
</g>
</svg>

<g id="navigator" transform="translate(0 0)" fill="#404254">
  <rect fill="#f2f5e9" fill-opacity="0.5" stroke="#606060" stroke-width=".5" x="0" y="0" width="60" height="60"/>
  <use id="zoomplus" xlink:href="#zoomPlus" x="17" y="9" onmousedown="handleZoom(evt,'in')"/>
  <use id="zoomminus" xlink:href="#zoomMin" x="42" y="9" onmousedown="handleZoom(evt,'out')"/>
  <use id="reset" xlink:href="#resetDef" x="30" y="36" onmousedown="handleReset()"/>
   <use id="arrowup" xlink:href="#arrowUp" x="0" y="0" onmousedown="handlePan(0,-1)"/>
  <use id="arrowright" xlink:href="#arrowRight" x="0" y="0" onmousedown="handlePan(1,0)"/>
  <use id="arrowdown" xlink:href="#arrowDown" x="0" y="0" onmousedown="handlePan(0,1)"/>
  <use id="arrowleft" xlink:href="#arrowLeft" x="0" y="0" onmousedown="handlePan(-1,0)"/>
</g>
<svg viewBox="0 0 15 15" width="100%" height="30px" preserveAspectRatio="xMaxYMin meet">
 <g id="arrow_out" transform="scale(0.3 0.3)">
  <a xlink:href="_f_l_l_c_8cpp__incl_org.svg" target="_base">
   <rect id="button" ry="5" rx="5" y="6" x="6" height="38" width="38"
        fill="#f2f5e9" fill-opacity="0.5" stroke="#606060" stroke-width="1.0"/>
   <path id="arrow"
     d="M 11.500037,31.436501 C 11.940474,20.09759 22.043105,11.32322 32.158766,21.979434 L 37.068811,17.246167 C 37.068811,17.246167 37.088388,32 37.088388,32 L 22.160133,31.978069 C 22.160133,31.978069 26.997745,27.140456 26.997745,27.140456 C 18.528582,18.264221 13.291696,25.230495 11.500037,31.436501 z"
     style="fill:#404040;"/>
  </a>
 </g>
</svg>

<style type='text/css'>
<![CDATA[
[data-mouse-over-selected='false'] { opacity: 0.7; }
[data-mouse-over-selected='true']  { opacity: 1.0; }
]]>
</style>
<script type="application/ecmascript"><![CDATA[
document.addEventListener('DOMContentLoaded', (event) => {
  highlightEdges();
  highlightAdjacentNodes();
});
]]></script>
</svg>
