<?xml version="1.0" encoding="UTF-8" standalone="no"?>
<!DOCTYPE svg PUBLIC "-//W3C//DTD SVG 1.1//EN"
 "http://www.w3.org/Graphics/SVG/1.1/DTD/svg11.dtd">
<!-- Generated by graphviz version 2.43.0 (0)
 -->
<!-- Title: /home/runner/work/amr&#45;wind/amr&#45;wind/src/wind_energy/actuator/FLLC.H Pages: 1 -->
<svg width="898pt" height="478pt"
 viewBox="0.00 0.00 898.00 478.00" xmlns="http://www.w3.org/2000/svg" xmlns:xlink="http://www.w3.org/1999/xlink">
<g id="graph0" class="graph" transform="scale(1 1) rotate(0) translate(4 474)">
<title>/home/runner/work/amr&#45;wind/amr&#45;wind/src/wind_energy/actuator/FLLC.H</title>
<!-- Node1 -->
<g id="Node000001" class="node">
<title>Node1</title>
<g id="a_Node000001"><a xlink:title=" ">
<polygon fill="#999999" stroke="#666666" points="669.5,-470 532.5,-470 532.5,-429 669.5,-429 669.5,-470"/>
<text text-anchor="start" x="540.5" y="-458" font-family="Helvetica,sans-Serif" font-size="10.00">/home/runner/work/amr</text>
<text text-anchor="start" x="540.5" y="-447" font-family="Helvetica,sans-Serif" font-size="10.00">&#45;wind/amr&#45;wind/src/wind</text>
<text text-anchor="middle" x="601" y="-436" font-family="Helvetica,sans-Serif" font-size="10.00">_energy/actuator/FLLC.H</text>
</a>
</g>
</g>
<!-- Node2 -->
<g id="Node000002" class="node">
<title>Node2</title>
<g id="a_Node000002"><a xlink:title=" ">
<polygon fill="#e0e0e0" stroke="#999999" points="524,-387.5 474,-387.5 474,-368.5 524,-368.5 524,-387.5"/>
<text text-anchor="middle" x="499" y="-375.5" font-family="Helvetica,sans-Serif" font-size="10.00">cstdint</text>
</a>
</g>
</g>
<!-- Node1&#45;&gt;Node2 -->
<g id="edge1_Node000001_Node000002" class="edge">
<title>Node1&#45;&gt;Node2</title>
<g id="a_edge1_Node000001_Node000002"><a xlink:title=" ">
<path fill="none" stroke="#63b8ff" d="M572.32,-428.96C555.73,-417.65 535.21,-403.67 520.1,-393.38"/>
<polygon fill="#63b8ff" stroke="#63b8ff" points="521.71,-390.24 511.48,-387.5 517.77,-396.03 521.71,-390.24"/>
</a>
</g>
</g>
<!-- Node3 -->
<g id="Node000003" class="node">
<title>Node3</title>
<g id="a_Node000003"><a xlink:href="actuator__types_8_h.html" target="_top" xlink:title=" ">
<polygon fill="white" stroke="#666666" points="413,-327 273,-327 273,-297 413,-297 413,-327"/>
<text text-anchor="start" x="281" y="-315" font-family="Helvetica,sans-Serif" font-size="10.00">src/wind_energy/actuator</text>
<text text-anchor="middle" x="343" y="-304" font-family="Helvetica,sans-Serif" font-size="10.00">/actuator_types.H</text>
</a>
</g>
</g>
<!-- Node1&#45;&gt;Node3 -->
<g id="edge2_Node000001_Node000003" class="edge">
<title>Node1&#45;&gt;Node3</title>
<g id="a_edge2_Node000001_Node000003"><a xlink:title=" ">
<path fill="none" stroke="#63b8ff" d="M590.42,-428.81C578.88,-409.2 558.57,-379.69 533,-363 500.36,-341.7 459.01,-329.46 423.22,-322.42"/>
<polygon fill="#63b8ff" stroke="#63b8ff" points="423.76,-318.96 413.29,-320.58 422.48,-325.85 423.76,-318.96"/>
</a>
</g>
</g>
<!-- Node19 -->
<g id="Node000019" class="node">
<title>Node19</title>
<g id="a_Node000019"><a xlink:title=" ">
<polygon fill="#e0e0e0" stroke="#999999" points="890,-19 798,-19 798,0 890,0 890,-19"/>
<text text-anchor="middle" x="844" y="-7" font-family="Helvetica,sans-Serif" font-size="10.00">AMReX_REAL.H</text>
</a>
</g>
</g>
<!-- Node1&#45;&gt;Node19 -->
<g id="edge37_Node000001_Node000019" class="edge">
<title>Node1&#45;&gt;Node19</title>
<g id="a_edge37_Node000001_Node000019"><a xlink:title=" ">
<path fill="none" stroke="#63b8ff" d="M669.72,-444.3C752.04,-435.11 879,-405.89 879,-313 879,-313 879,-313 879,-129.5 879,-92.34 863.1,-51.2 852.73,-28.34"/>
<polygon fill="#63b8ff" stroke="#63b8ff" points="855.85,-26.76 848.43,-19.2 849.52,-29.74 855.85,-26.76"/>
</a>
</g>
</g>
<!-- Node23 -->
<g id="Node000023" class="node">
<title>Node23</title>
<g id="a_Node000023"><a xlink:href="_act_parser_8_h.html" target="_top" xlink:title=" ">
<polygon fill="white" stroke="#666666" points="720,-393 580,-393 580,-363 720,-363 720,-393"/>
<text text-anchor="start" x="588" y="-381" font-family="Helvetica,sans-Serif" font-size="10.00">src/wind_energy/actuator</text>
<text text-anchor="middle" x="650" y="-370" font-family="Helvetica,sans-Serif" font-size="10.00">/ActParser.H</text>
</a>
</g>
</g>
<!-- Node1&#45;&gt;Node23 -->
<g id="edge33_Node000001_Node000023" class="edge">
<title>Node1&#45;&gt;Node23</title>
<g id="a_edge33_Node000001_Node000023"><a xlink:title=" ">
<path fill="none" stroke="#63b8ff" d="M614.91,-428.77C620.94,-420.22 628.02,-410.17 634.24,-401.35"/>
<polygon fill="#63b8ff" stroke="#63b8ff" points="637.2,-403.23 640.1,-393.04 631.48,-399.19 637.2,-403.23"/>
</a>
</g>
</g>
<!-- Node4 -->
<g id="Node000004" class="node">
<title>Node4</title>
<g id="a_Node000004"><a xlink:href="_slice_8_h.html" target="_top" xlink:title=" ">
<polygon fill="white" stroke="#666666" points="113,-255.5 21,-255.5 21,-236.5 113,-236.5 113,-255.5"/>
<text text-anchor="middle" x="67" y="-243.5" font-family="Helvetica,sans-Serif" font-size="10.00">src/core/Slice.H</text>
</a>
</g>
</g>
<!-- Node3&#45;&gt;Node4 -->
<g id="edge3_Node000003_Node000004" class="edge">
<title>Node3&#45;&gt;Node4</title>
<g id="a_edge3_Node000003_Node000004"><a xlink:title=" ">
<path fill="none" stroke="#63b8ff" d="M278.59,-296.9C234.44,-287.13 174.59,-273.64 122,-261 117.96,-260.03 113.76,-259 109.55,-257.95"/>
<polygon fill="#63b8ff" stroke="#63b8ff" points="110.38,-254.55 99.83,-255.51 108.67,-261.34 110.38,-254.55"/>
</a>
</g>
</g>
<!-- Node7 -->
<g id="Node000007" class="node">
<title>Node7</title>
<g id="a_Node000007"><a xlink:title=" ">
<polygon fill="#e0e0e0" stroke="#999999" points="373.5,-19 286.5,-19 286.5,0 373.5,0 373.5,-19"/>
<text text-anchor="middle" x="330" y="-7" font-family="Helvetica,sans-Serif" font-size="10.00">AMReX_Gpu.H</text>
</a>
</g>
</g>
<!-- Node3&#45;&gt;Node7 -->
<g id="edge28_Node000003_Node000007" class="edge">
<title>Node3&#45;&gt;Node7</title>
<g id="a_edge28_Node000003_Node000007"><a xlink:title=" ">
<path fill="none" stroke="#63b8ff" d="M340.54,-296.61C338.94,-286.64 336.98,-273.06 336,-261 328.94,-174.6 329.24,-70.93 329.71,-29.23"/>
<polygon fill="#63b8ff" stroke="#63b8ff" points="333.21,-29.22 329.85,-19.17 326.21,-29.12 333.21,-29.22"/>
</a>
</g>
</g>
<!-- Node8 -->
<g id="Node000008" class="node">
<title>Node8</title>
<g id="a_Node000008"><a xlink:href="vector__space_8_h.html" target="_top" xlink:title=" ">
<polygon fill="white" stroke="#666666" points="570.5,-261 467.5,-261 467.5,-231 570.5,-231 570.5,-261"/>
<text text-anchor="start" x="475.5" y="-249" font-family="Helvetica,sans-Serif" font-size="10.00">src/core/vs/vector</text>
<text text-anchor="middle" x="519" y="-238" font-family="Helvetica,sans-Serif" font-size="10.00">_space.H</text>
</a>
</g>
</g>
<!-- Node3&#45;&gt;Node8 -->
<g id="edge7_Node000003_Node000008" class="edge">
<title>Node3&#45;&gt;Node8</title>
<g id="a_edge7_Node000003_Node000008"><a xlink:title=" ">
<path fill="none" stroke="#63b8ff" d="M381.62,-296.95C407.87,-287.41 442.79,-274.71 470.85,-264.51"/>
<polygon fill="#63b8ff" stroke="#63b8ff" points="472.26,-267.72 480.47,-261.01 469.87,-261.14 472.26,-267.72"/>
</a>
</g>
</g>
<!-- Node3&#45;&gt;Node19 -->
<g id="edge32_Node000003_Node000019" class="edge">
<title>Node3&#45;&gt;Node19</title>
<g id="a_edge32_Node000003_Node000019"><a xlink:title=" ">
<path fill="none" stroke="#63b8ff" d="M413.23,-304.44C461.58,-297.96 526.34,-285.32 579,-261 694.58,-207.62 723.96,-183.18 805,-85 819.04,-67.98 830.1,-45.1 836.8,-29.2"/>
<polygon fill="#63b8ff" stroke="#63b8ff" points="840.23,-30.05 840.72,-19.47 833.74,-27.43 840.23,-30.05"/>
</a>
</g>
</g>
<!-- Node20 -->
<g id="Node000020" class="node">
<title>Node20</title>
<g id="a_Node000020"><a xlink:title=" ">
<polygon fill="#e0e0e0" stroke="#999999" points="239,-255.5 131,-255.5 131,-236.5 239,-236.5 239,-255.5"/>
<text text-anchor="middle" x="185" y="-243.5" font-family="Helvetica,sans-Serif" font-size="10.00">AMReX_RealBox.H</text>
</a>
</g>
</g>
<!-- Node3&#45;&gt;Node20 -->
<g id="edge29_Node000003_Node000020" class="edge">
<title>Node3&#45;&gt;Node20</title>
<g id="a_edge29_Node000003_Node000020"><a xlink:title=" ">
<path fill="none" stroke="#63b8ff" d="M308.33,-296.95C280.62,-285.73 242.15,-270.15 215.58,-259.39"/>
<polygon fill="#63b8ff" stroke="#63b8ff" points="216.61,-256.03 206.03,-255.52 213.98,-262.52 216.61,-256.03"/>
</a>
</g>
</g>
<!-- Node21 -->
<g id="Node000021" class="node">
<title>Node21</title>
<g id="a_Node000021"><a xlink:title=" ">
<polygon fill="#e0e0e0" stroke="#999999" points="289,-255.5 257,-255.5 257,-236.5 289,-236.5 289,-255.5"/>
<text text-anchor="middle" x="273" y="-243.5" font-family="Helvetica,sans-Serif" font-size="10.00">set</text>
</a>
</g>
</g>
<!-- Node3&#45;&gt;Node21 -->
<g id="edge30_Node000003_Node000021" class="edge">
<title>Node3&#45;&gt;Node21</title>
<g id="a_edge30_Node000003_Node000021"><a xlink:title=" ">
<path fill="none" stroke="#63b8ff" d="M327.46,-296.8C316.44,-286.72 301.65,-273.19 290.26,-262.78"/>
<polygon fill="#63b8ff" stroke="#63b8ff" points="292.42,-260.01 282.67,-255.84 287.69,-265.18 292.42,-260.01"/>
</a>
</g>
</g>
<!-- Node22 -->
<g id="Node000022" class="node">
<title>Node22</title>
<g id="a_Node000022"><a xlink:title=" ">
<polygon fill="#e0e0e0" stroke="#999999" points="390.5,-255.5 345.5,-255.5 345.5,-236.5 390.5,-236.5 390.5,-255.5"/>
<text text-anchor="middle" x="368" y="-243.5" font-family="Helvetica,sans-Serif" font-size="10.00">utility</text>
</a>
</g>
</g>
<!-- Node3&#45;&gt;Node22 -->
<g id="edge31_Node000003_Node000022" class="edge">
<title>Node3&#45;&gt;Node22</title>
<g id="a_edge31_Node000003_Node000022"><a xlink:title=" ">
<path fill="none" stroke="#63b8ff" d="M348.55,-296.8C352.18,-287.5 356.96,-275.27 360.87,-265.26"/>
<polygon fill="#63b8ff" stroke="#63b8ff" points="364.17,-266.43 364.55,-255.84 357.65,-263.89 364.17,-266.43"/>
</a>
</g>
</g>
<!-- Node5 -->
<g id="Node000005" class="node">
<title>Node5</title>
<g id="a_Node000005"><a xlink:title=" ">
<polygon fill="#e0e0e0" stroke="#999999" points="169.5,-195 116.5,-195 116.5,-176 169.5,-176 169.5,-195"/>
<text text-anchor="middle" x="143" y="-183" font-family="Helvetica,sans-Serif" font-size="10.00">iterator</text>
</a>
</g>
</g>
<!-- Node4&#45;&gt;Node5 -->
<g id="edge4_Node000004_Node000005" class="edge">
<title>Node4&#45;&gt;Node5</title>
<g id="a_edge4_Node000004_Node000005"><a xlink:title=" ">
<path fill="none" stroke="#63b8ff" d="M78.21,-236.37C90.11,-227.21 109.14,-212.56 123.51,-201.51"/>
<polygon fill="#63b8ff" stroke="#63b8ff" points="125.95,-204.04 131.74,-195.17 121.68,-198.49 125.95,-204.04"/>
</a>
</g>
</g>
<!-- Node6 -->
<g id="Node000006" class="node">
<title>Node6</title>
<g id="a_Node000006"><a xlink:title=" ">
<polygon fill="#e0e0e0" stroke="#999999" points="98,-195 0,-195 0,-176 98,-176 98,-195"/>
<text text-anchor="middle" x="49" y="-183" font-family="Helvetica,sans-Serif" font-size="10.00">AMReX_Vector.H</text>
</a>
</g>
</g>
<!-- Node4&#45;&gt;Node6 -->
<g id="edge5_Node000004_Node000006" class="edge">
<title>Node4&#45;&gt;Node6</title>
<g id="a_edge5_Node000004_Node000006"><a xlink:title=" ">
<path fill="none" stroke="#63b8ff" d="M64.34,-236.37C61.82,-228.16 57.94,-215.54 54.71,-205.05"/>
<polygon fill="#63b8ff" stroke="#63b8ff" points="57.95,-203.7 51.67,-195.17 51.26,-205.75 57.95,-203.7"/>
</a>
</g>
</g>
<!-- Node4&#45;&gt;Node7 -->
<g id="edge6_Node000004_Node000007" class="edge">
<title>Node4&#45;&gt;Node7</title>
<g id="a_edge6_Node000004_Node000007"><a xlink:title=" ">
<path fill="none" stroke="#63b8ff" d="M96.68,-236.4C120.49,-228.45 153.81,-214.84 178,-195 237.12,-146.51 226.35,-111.38 278,-55 287.78,-44.32 300.04,-33.72 310.19,-25.55"/>
<polygon fill="#63b8ff" stroke="#63b8ff" points="312.43,-28.24 318.13,-19.31 308.1,-22.74 312.43,-28.24"/>
</a>
</g>
</g>
<!-- Node9 -->
<g id="Node000009" class="node">
<title>Node9</title>
<g id="a_Node000009"><a xlink:href="vector_8_h.html" target="_top" xlink:title=" ">
<polygon fill="white" stroke="#666666" points="518.5,-140 405.5,-140 405.5,-121 518.5,-121 518.5,-140"/>
<text text-anchor="middle" x="462" y="-128" font-family="Helvetica,sans-Serif" font-size="10.00">src/core/vs/vector.H</text>
</a>
</g>
</g>
<!-- Node8&#45;&gt;Node9 -->
<g id="edge8_Node000008_Node000009" class="edge">
<title>Node8&#45;&gt;Node9</title>
<g id="a_edge8_Node000008_Node000009"><a xlink:title=" ">
<path fill="none" stroke="#63b8ff" d="M510.2,-230.79C504.21,-220.91 496.28,-207.34 490,-195 482.41,-180.07 474.8,-162.62 469.44,-149.8"/>
<polygon fill="#63b8ff" stroke="#63b8ff" points="472.55,-148.18 465.51,-140.27 466.08,-150.85 472.55,-148.18"/>
</a>
</g>
</g>
<!-- Node15 -->
<g id="Node000015" class="node">
<title>Node15</title>
<g id="a_Node000015"><a xlink:href="tensor_8_h.html" target="_top" xlink:title=" ">
<polygon fill="white" stroke="#666666" points="612.5,-195 499.5,-195 499.5,-176 612.5,-176 612.5,-195"/>
<text text-anchor="middle" x="556" y="-183" font-family="Helvetica,sans-Serif" font-size="10.00">src/core/vs/tensor.H</text>
</a>
</g>
</g>
<!-- Node8&#45;&gt;Node15 -->
<g id="edge16_Node000008_Node000015" class="edge">
<title>Node8&#45;&gt;Node15</title>
<g id="a_edge16_Node000008_Node000015"><a xlink:title=" ">
<path fill="none" stroke="#63b8ff" d="M527.96,-230.84C533.11,-222.69 539.62,-212.4 545.07,-203.78"/>
<polygon fill="#63b8ff" stroke="#63b8ff" points="548.07,-205.59 550.46,-195.27 542.15,-201.85 548.07,-205.59"/>
</a>
</g>
</g>
<!-- Node9&#45;&gt;Node7 -->
<g id="edge9_Node000009_Node000007" class="edge">
<title>Node9&#45;&gt;Node7</title>
<g id="a_edge9_Node000009_Node000007"><a xlink:title=" ">
<path fill="none" stroke="#63b8ff" d="M443.12,-120.85C427.11,-112.94 404.09,-100.19 387,-85 368.05,-68.16 351.07,-44.25 340.67,-28.09"/>
<polygon fill="#63b8ff" stroke="#63b8ff" points="343.36,-25.79 335.08,-19.17 337.42,-29.51 343.36,-25.79"/>
</a>
</g>
</g>
<!-- Node10 -->
<g id="Node000010" class="node">
<title>Node10</title>
<g id="a_Node000010"><a xlink:href="vstraits_8_h.html" target="_top" xlink:title=" ">
<polygon fill="white" stroke="#666666" points="649.5,-79.5 530.5,-79.5 530.5,-60.5 649.5,-60.5 649.5,-79.5"/>
<text text-anchor="middle" x="590" y="-67.5" font-family="Helvetica,sans-Serif" font-size="10.00">src/core/vs/vstraits.H</text>
</a>
</g>
</g>
<!-- Node9&#45;&gt;Node10 -->
<g id="edge10_Node000009_Node000010" class="edge">
<title>Node9&#45;&gt;Node10</title>
<g id="a_edge10_Node000009_Node000010"><a xlink:title=" ">
<path fill="none" stroke="#63b8ff" d="M480.61,-120.99C502.04,-111.2 537.44,-95.02 562.15,-83.73"/>
<polygon fill="#63b8ff" stroke="#63b8ff" points="563.72,-86.86 571.37,-79.52 560.82,-80.49 563.72,-86.86"/>
</a>
</g>
</g>
<!-- Node12 -->
<g id="Node000012" class="node">
<title>Node12</title>
<g id="a_Node000012"><a xlink:href="vector_i_8_h.html" target="_top" xlink:title=" ">
<polygon fill="white" stroke="#666666" points="512,-79.5 396,-79.5 396,-60.5 512,-60.5 512,-79.5"/>
<text text-anchor="middle" x="454" y="-67.5" font-family="Helvetica,sans-Serif" font-size="10.00">src/core/vs/vectorI.H</text>
</a>
</g>
</g>
<!-- Node9&#45;&gt;Node12 -->
<g id="edge12_Node000009_Node000012" class="edge">
<title>Node9&#45;&gt;Node12</title>
<g id="a_edge12_Node000009_Node000012"><a xlink:title=" ">
<path fill="none" stroke="#63b8ff" d="M455.86,-120.87C453,-112.75 450.83,-100.31 450.22,-89.89"/>
<polygon fill="#63b8ff" stroke="#63b8ff" points="453.72,-89.67 450.22,-79.67 446.72,-89.67 453.72,-89.67"/>
</a>
</g>
</g>
<!-- Node11 -->
<g id="Node000011" class="node">
<title>Node11</title>
<g id="a_Node000011"><a xlink:title=" ">
<polygon fill="#e0e0e0" stroke="#999999" points="612,-19 568,-19 568,0 612,0 612,-19"/>
<text text-anchor="middle" x="590" y="-7" font-family="Helvetica,sans-Serif" font-size="10.00">limits</text>
</a>
</g>
</g>
<!-- Node10&#45;&gt;Node11 -->
<g id="edge11_Node000010_Node000011" class="edge">
<title>Node10&#45;&gt;Node11</title>
<g id="a_edge11_Node000010_Node000011"><a xlink:title=" ">
<path fill="none" stroke="#63b8ff" d="M590,-60.37C590,-52.25 590,-39.81 590,-29.39"/>
<polygon fill="#63b8ff" stroke="#63b8ff" points="593.5,-29.17 590,-19.17 586.5,-29.17 593.5,-29.17"/>
</a>
</g>
</g>
<!-- Node12&#45;&gt;Node9 -->
<g id="edge15_Node000012_Node000009" class="edge">
<title>Node12&#45;&gt;Node9</title>
<g id="a_edge15_Node000012_Node000009"><a xlink:title=" ">
<path fill="none" stroke="#63b8ff" d="M460.15,-79.67C463.01,-87.8 465.18,-100.24 465.78,-110.66"/>
<polygon fill="#63b8ff" stroke="#63b8ff" points="462.28,-110.87 465.77,-120.87 469.28,-110.87 462.28,-110.87"/>
</a>
</g>
</g>
<!-- Node13 -->
<g id="Node000013" class="node">
<title>Node13</title>
<g id="a_Node000013"><a xlink:title=" ">
<polygon fill="#e0e0e0" stroke="#999999" points="482.5,-19 425.5,-19 425.5,0 482.5,0 482.5,-19"/>
<text text-anchor="middle" x="454" y="-7" font-family="Helvetica,sans-Serif" font-size="10.00">ostream</text>
</a>
</g>
</g>
<!-- Node12&#45;&gt;Node13 -->
<g id="edge13_Node000012_Node000013" class="edge">
<title>Node12&#45;&gt;Node13</title>
<g id="a_edge13_Node000012_Node000013"><a xlink:title=" ">
<path fill="none" stroke="#63b8ff" d="M454,-60.37C454,-52.25 454,-39.81 454,-29.39"/>
<polygon fill="#63b8ff" stroke="#63b8ff" points="457.5,-29.17 454,-19.17 450.5,-29.17 457.5,-29.17"/>
</a>
</g>
</g>
<!-- Node14 -->
<g id="Node000014" class="node">
<title>Node14</title>
<g id="a_Node000014"><a xlink:title=" ">
<polygon fill="#e0e0e0" stroke="#999999" points="701.5,-19 654.5,-19 654.5,0 701.5,0 701.5,-19"/>
<text text-anchor="middle" x="678" y="-7" font-family="Helvetica,sans-Serif" font-size="10.00">cmath</text>
</a>
</g>
</g>
<!-- Node12&#45;&gt;Node14 -->
<g id="edge14_Node000012_Node000014" class="edge">
<title>Node12&#45;&gt;Node14</title>
<g id="a_edge14_Node000012_Node000014"><a xlink:title=" ">
<path fill="none" stroke="#63b8ff" d="M486.57,-60.49C528.72,-49.49 601.79,-30.4 644.42,-19.27"/>
<polygon fill="#63b8ff" stroke="#63b8ff" points="645.52,-22.6 654.31,-16.69 643.75,-15.83 645.52,-22.6"/>
</a>
</g>
</g>
<!-- Node15&#45;&gt;Node7 -->
<g id="edge17_Node000015_Node000007" class="edge">
<title>Node15&#45;&gt;Node7</title>
<g id="a_edge17_Node000015_Node000007"><a xlink:title=" ">
<path fill="none" stroke="#63b8ff" d="M499.4,-178.3C466.82,-172.52 426.43,-161.39 396,-140 358.09,-113.36 340.61,-58.31 333.75,-29.31"/>
<polygon fill="#63b8ff" stroke="#63b8ff" points="337.11,-28.29 331.56,-19.27 330.27,-29.78 337.11,-28.29"/>
</a>
</g>
</g>
<!-- Node15&#45;&gt;Node9 -->
<g id="edge19_Node000015_Node000009" class="edge">
<title>Node15&#45;&gt;Node9</title>
<g id="a_edge19_Node000015_Node000009"><a xlink:title=" ">
<path fill="none" stroke="#63b8ff" d="M540.9,-175.98C526.18,-167.69 503.58,-154.94 486.33,-145.22"/>
<polygon fill="#63b8ff" stroke="#63b8ff" points="487.81,-142.03 477.38,-140.17 484.37,-148.13 487.81,-142.03"/>
</a>
</g>
</g>
<!-- Node15&#45;&gt;Node10 -->
<g id="edge18_Node000015_Node000010" class="edge">
<title>Node15&#45;&gt;Node10</title>
<g id="a_edge18_Node000015_Node000010"><a xlink:title=" ">
<path fill="none" stroke="#63b8ff" d="M558.56,-175.97C564.04,-157.65 577.06,-114.18 584.52,-89.31"/>
<polygon fill="#63b8ff" stroke="#63b8ff" points="587.9,-90.21 587.41,-79.63 581.19,-88.2 587.9,-90.21"/>
</a>
</g>
</g>
<!-- Node16 -->
<g id="Node000016" class="node">
<title>Node16</title>
<g id="a_Node000016"><a xlink:href="tensor_i_8_h.html" target="_top" xlink:title=" ">
<polygon fill="white" stroke="#666666" points="727,-140 611,-140 611,-121 727,-121 727,-140"/>
<text text-anchor="middle" x="669" y="-128" font-family="Helvetica,sans-Serif" font-size="10.00">src/core/vs/tensorI.H</text>
</a>
</g>
</g>
<!-- Node15&#45;&gt;Node16 -->
<g id="edge20_Node000015_Node000016" class="edge">
<title>Node15&#45;&gt;Node16</title>
<g id="a_edge20_Node000015_Node000016"><a xlink:title=" ">
<path fill="none" stroke="#63b8ff" d="M569.04,-175.98C585.48,-167.38 613.79,-153.99 636.18,-144.15"/>
<polygon fill="#63b8ff" stroke="#63b8ff" points="637.58,-147.36 645.37,-140.17 634.8,-140.93 637.58,-147.36"/>
</a>
</g>
</g>
<!-- Node16&#45;&gt;Node14 -->
<g id="edge21_Node000016_Node000014" class="edge">
<title>Node16&#45;&gt;Node14</title>
<g id="a_edge21_Node000016_Node000014"><a xlink:title=" ">
<path fill="none" stroke="#63b8ff" d="M669.65,-120.94C671.09,-101.91 674.58,-55.69 676.57,-29.47"/>
<polygon fill="#63b8ff" stroke="#63b8ff" points="680.07,-29.54 677.33,-19.3 673.09,-29.01 680.07,-29.54"/>
</a>
</g>
</g>
<!-- Node16&#45;&gt;Node15 -->
<g id="edge22_Node000016_Node000015" class="edge">
<title>Node16&#45;&gt;Node15</title>
<g id="a_edge22_Node000016_Node000015"><a xlink:title=" ">
<path fill="none" stroke="#63b8ff" d="M655.66,-140.17C639.15,-148.79 610.99,-162.11 588.72,-171.9"/>
<polygon fill="#63b8ff" stroke="#63b8ff" points="587.06,-168.8 579.27,-175.98 589.84,-175.23 587.06,-168.8"/>
</a>
</g>
</g>
<!-- Node17 -->
<g id="Node000017" class="node">
<title>Node17</title>
<g id="a_Node000017"><a xlink:href="trig__ops_8_h.html" target="_top" xlink:title=" ">
<polygon fill="white" stroke="#666666" points="796,-85 706,-85 706,-55 796,-55 796,-85"/>
<text text-anchor="start" x="714" y="-73" font-family="Helvetica,sans-Serif" font-size="10.00">src/utilities/trig</text>
<text text-anchor="middle" x="751" y="-62" font-family="Helvetica,sans-Serif" font-size="10.00">_ops.H</text>
</a>
</g>
</g>
<!-- Node16&#45;&gt;Node17 -->
<g id="edge23_Node000016_Node000017" class="edge">
<title>Node16&#45;&gt;Node17</title>
<g id="a_edge23_Node000016_Node000017"><a xlink:title=" ">
<path fill="none" stroke="#63b8ff" d="M681.1,-120.87C692.02,-113.08 708.51,-101.32 722.72,-91.17"/>
<polygon fill="#63b8ff" stroke="#63b8ff" points="725.11,-93.77 731.22,-85.11 721.04,-88.07 725.11,-93.77"/>
</a>
</g>
</g>
<!-- Node17&#45;&gt;Node7 -->
<g id="edge27_Node000017_Node000007" class="edge">
<title>Node17&#45;&gt;Node7</title>
<g id="a_edge27_Node000017_Node000007"><a xlink:title=" ">
<path fill="none" stroke="#63b8ff" d="M705.63,-61.94C690.78,-59.67 674.19,-57.18 659,-55 562.06,-41.07 448.87,-26.03 383.71,-17.49"/>
<polygon fill="#63b8ff" stroke="#63b8ff" points="384.04,-14 373.67,-16.17 383.13,-20.94 384.04,-14"/>
</a>
</g>
</g>
<!-- Node17&#45;&gt;Node14 -->
<g id="edge24_Node000017_Node000014" class="edge">
<title>Node17&#45;&gt;Node14</title>
<g id="a_edge24_Node000017_Node000014"><a xlink:title=" ">
<path fill="none" stroke="#63b8ff" d="M733.33,-54.84C722.3,-46 708.11,-34.63 696.87,-25.62"/>
<polygon fill="#63b8ff" stroke="#63b8ff" points="698.93,-22.79 688.94,-19.27 694.55,-28.25 698.93,-22.79"/>
</a>
</g>
</g>
<!-- Node18 -->
<g id="Node000018" class="node">
<title>Node18</title>
<g id="a_Node000018"><a xlink:title=" ">
<polygon fill="#e0e0e0" stroke="#999999" points="779.5,-19 720.5,-19 720.5,0 779.5,0 779.5,-19"/>
<text text-anchor="middle" x="750" y="-7" font-family="Helvetica,sans-Serif" font-size="10.00">numbers</text>
</a>
</g>
</g>
<!-- Node17&#45;&gt;Node18 -->
<g id="edge25_Node000017_Node000018" class="edge">
<title>Node17&#45;&gt;Node18</title>
<g id="a_edge25_Node000017_Node000018"><a xlink:title=" ">
<path fill="none" stroke="#63b8ff" d="M750.76,-54.84C750.63,-47.21 750.47,-37.7 750.32,-29.45"/>
<polygon fill="#63b8ff" stroke="#63b8ff" points="753.82,-29.2 750.15,-19.27 746.82,-29.32 753.82,-29.2"/>
</a>
</g>
</g>
<!-- Node17&#45;&gt;Node19 -->
<g id="edge26_Node000017_Node000019" class="edge">
<title>Node17&#45;&gt;Node19</title>
<g id="a_edge26_Node000017_Node000019"><a xlink:title=" ">
<path fill="none" stroke="#63b8ff" d="M773.51,-54.84C788.06,-45.68 806.93,-33.82 821.49,-24.66"/>
<polygon fill="#63b8ff" stroke="#63b8ff" points="823.74,-27.38 830.34,-19.09 820.01,-21.46 823.74,-27.38"/>
</a>
</g>
</g>
<!-- Node24 -->
<g id="Node000024" class="node">
<title>Node24</title>
<g id="a_Node000024"><a xlink:href="_multi_parser_8_h.html" target="_top" xlink:title=" ">
<polygon fill="white" stroke="#666666" points="711,-321.5 589,-321.5 589,-302.5 711,-302.5 711,-321.5"/>
<text text-anchor="middle" x="650" y="-309.5" font-family="Helvetica,sans-Serif" font-size="10.00">src/core/MultiParser.H</text>
</a>
</g>
</g>
<!-- Node23&#45;&gt;Node24 -->
<g id="edge34_Node000023_Node000024" class="edge">
<title>Node23&#45;&gt;Node24</title>
<g id="a_edge34_Node000023_Node000024"><a xlink:title=" ">
<path fill="none" stroke="#63b8ff" d="M650,-362.8C650,-353.7 650,-341.79 650,-331.9"/>
<polygon fill="#63b8ff" stroke="#63b8ff" points="653.5,-331.84 650,-321.84 646.5,-331.84 653.5,-331.84"/>
</a>
</g>
</g>
<!-- Node24&#45;&gt;Node8 -->
<g id="edge35_Node000024_Node000008" class="edge">
<title>Node24&#45;&gt;Node8</title>
<g id="a_edge35_Node000024_Node000008"><a xlink:title=" ">
<path fill="none" stroke="#63b8ff" d="M632.33,-302.37C613.14,-292.99 581.88,-277.72 557.06,-265.59"/>
<polygon fill="#63b8ff" stroke="#63b8ff" points="558.41,-262.36 547.89,-261.12 555.34,-268.65 558.41,-262.36"/>
</a>
</g>
</g>
<!-- Node25 -->
<g id="Node000025" class="node">
<title>Node25</title>
<g id="a_Node000025"><a xlink:title=" ">
<polygon fill="#e0e0e0" stroke="#999999" points="850.5,-255.5 731.5,-255.5 731.5,-236.5 850.5,-236.5 850.5,-255.5"/>
<text text-anchor="middle" x="791" y="-243.5" font-family="Helvetica,sans-Serif" font-size="10.00">AMReX_ParmParse.H</text>
</a>
</g>
</g>
<!-- Node24&#45;&gt;Node25 -->
<g id="edge36_Node000024_Node000025" class="edge">
<title>Node24&#45;&gt;Node25</title>
<g id="a_edge36_Node000024_Node000025"><a xlink:title=" ">
<path fill="none" stroke="#63b8ff" d="M669.02,-302.37C693.09,-291.44 734.77,-272.52 762.61,-259.88"/>
<polygon fill="#63b8ff" stroke="#63b8ff" points="764.18,-263.02 771.84,-255.7 761.28,-256.65 764.18,-263.02"/>
</a>
</g>
</g>
</g>
</svg>
