<?xml version="1.0" encoding="UTF-8" standalone="no"?>
<!DOCTYPE svg PUBLIC "-//W3C//DTD SVG 1.1//EN"
 "http://www.w3.org/Graphics/SVG/1.1/DTD/svg11.dtd">
<!-- Generated by graphviz version 2.43.0 (0)
 -->
<!-- Title: /home/runner/work/amr&#45;wind/amr&#45;wind/src/wind_energy/actuator/wing/FixedWing.H Pages: 1 -->
<!--zoomable 478 -->

<svg id="main" version="1.1" xmlns="http://www.w3.org/2000/svg" xmlns:xlink="http://www.w3.org/1999/xlink" xml:space="preserve" onload="init(evt)">

<style type="text/css"><![CDATA[
.node, .edge {opacity: 0.7;}
.node.selected, .edge.selected {opacity: 1;}
.edge:hover path { stroke: red; }
.edge:hover polygon { stroke: red; fill: red; }
]]></style>

<defs>
  <circle id="rim" cx="0" cy="0" r="7"/>
  <circle id="rim2" cx="0" cy="0" r="3.5"/>
  <g id="zoomPlus">
    <use xlink:href="#rim" fill="#404040"><set attributeName="fill" to="#808080" begin="zoomplus.mouseover" end="zoomplus.mouseout"/></use>
    <path d="M-4,0h8M0,-4v8" fill="none" stroke="white" stroke-width="1.5" pointer-events="none"/>
  </g>
  <g id="zoomMin">
    <use xlink:href="#rim" fill="#404040"><set attributeName="fill" to="#808080" begin="zoomminus.mouseover" end="zoomminus.mouseout"/></use>
    <path d="M-4,0h8" fill="none" stroke="white" stroke-width="1.5" pointer-events="none"/>
  </g>
  <g id="arrowUp" transform="translate(30 24)">
    <use xlink:href="#rim"/>
    <path pointer-events="none" fill="none" stroke="white" stroke-width="1.5" d="M0,-3.0v7 M-2.5,-0.5L0,-3.0L2.5,-0.5"/>
  </g>
  <g id="arrowRight" transform="rotate(90) translate(36 -43)">
    <use xlink:href="#rim"/>
    <path pointer-events="none" fill="none" stroke="white" stroke-width="1.5" d="M0,-3.0v7 M-2.5,-0.5L0,-3.0L2.5,-0.5"/>
  </g>
  <g id="arrowDown" transform="rotate(180) translate(-30 -48)">
    <use xlink:href="#rim"/>
    <path pointer-events="none" fill="none" stroke="white" stroke-width="1.5" d="M0,-3.0v7 M-2.5,-0.5L0,-3.0L2.5,-0.5"/>
  </g>
  <g id="arrowLeft" transform="rotate(270) translate(-36 17)">
    <use xlink:href="#rim"/>
    <path pointer-events="none" fill="none" stroke="white" stroke-width="1.5" d="M0,-3.0v7 M-2.5,-0.5L0,-3.0L2.5,-0.5"/>
  </g>
  <g id="resetDef">
    <use xlink:href="#rim2" fill="#404040"><set attributeName="fill" to="#808080" begin="reset.mouseover" end="reset.mouseout"/></use>
  </g>
</defs>
<script type="application/ecmascript">
var viewWidth = 786;
var viewHeight = 478;
var sectionId = 'dynsection-0';
</script>
<script type="application/ecmascript" xlink:href="svg.min.js"/>
<svg id="graph" class="graph">
<g id="viewport">
<title>/home/runner/work/amr&#45;wind/amr&#45;wind/src/wind_energy/actuator/wing/FixedWing.H</title>
<!-- Node1 -->
<g id="Node000001" class="node">
<title>Node1</title>
<g id="a_Node000001"><a xlink:title=" ">
<polygon fill="#999999" stroke="#666666" points="324.5,-470 135.5,-470 135.5,-429 324.5,-429 324.5,-470"/>
<text text-anchor="start" x="143.5" y="-458" font-family="Helvetica,sans-Serif" font-size="10.00">/home/runner/work/amr</text>
<text text-anchor="start" x="143.5" y="-447" font-family="Helvetica,sans-Serif" font-size="10.00">&#45;wind/amr&#45;wind/src/wind</text>
<text text-anchor="middle" x="230" y="-436" font-family="Helvetica,sans-Serif" font-size="10.00">_energy/actuator/wing/FixedWing.H</text>
</a>
</g>
</g>
<!-- Node2 -->
<g id="Node000002" class="node">
<title>Node2</title>
<g id="a_Node000002"><a xlink:href="_actuator_wing_8_h.html" target="_top" xlink:title=" ">
<polygon fill="white" stroke="#666666" points="300,-393 160,-393 160,-363 300,-363 300,-393"/>
<text text-anchor="start" x="168" y="-381" font-family="Helvetica,sans-Serif" font-size="10.00">src/wind_energy/actuator</text>
<text text-anchor="middle" x="230" y="-370" font-family="Helvetica,sans-Serif" font-size="10.00">/wing/ActuatorWing.H</text>
</a>
</g>
</g>
<!-- Node1&#45;&gt;Node2 -->
<g id="edge1_Node000001_Node000002" class="edge">
<title>Node1&#45;&gt;Node2</title>
<g id="a_edge1_Node000001_Node000002"><a xlink:title=" ">
<path fill="none" stroke="#63b8ff" d="M230,-428.77C230,-420.85 230,-411.63 230,-403.3"/>
<polygon fill="#63b8ff" stroke="#63b8ff" points="233.5,-403.04 230,-393.04 226.5,-403.04 233.5,-403.04"/>
</a>
</g>
</g>
<!-- Node19 -->
<g id="Node000019" class="node">
<title>Node19</title>
<g id="a_Node000019"><a xlink:title=" ">
<polygon fill="#e0e0e0" stroke="#999999" points="122,-19 30,-19 30,0 122,0 122,-19"/>
<text text-anchor="middle" x="76" y="-7" font-family="Helvetica,sans-Serif" font-size="10.00">AMReX_REAL.H</text>
</a>
</g>
</g>
<!-- Node1&#45;&gt;Node19 -->
<g id="edge44_Node000001_Node000019" class="edge">
<title>Node1&#45;&gt;Node19</title>
<g id="a_edge44_Node000001_Node000019"><a xlink:title=" ">
<path fill="none" stroke="#63b8ff" d="M135.45,-431.43C72.02,-413.91 0,-379.39 0,-313 0,-313 0,-313 0,-129.5 0,-86.71 35.34,-46.94 57.82,-25.97"/>
<polygon fill="#63b8ff" stroke="#63b8ff" points="60.34,-28.42 65.43,-19.13 55.66,-23.21 60.34,-28.42"/>
</a>
</g>
</g>
<!-- Node24 -->
<g id="Node000024" class="node">
<title>Node24</title>
<g id="a_Node000024"><a xlink:href="_airfoil_table_8_h.html" target="_top" xlink:title=" ">
<polygon fill="white" stroke="#666666" points="590,-393 450,-393 450,-363 590,-363 590,-393"/>
<text text-anchor="start" x="458" y="-381" font-family="Helvetica,sans-Serif" font-size="10.00">src/wind_energy/actuator</text>
<text text-anchor="middle" x="520" y="-370" font-family="Helvetica,sans-Serif" font-size="10.00">/aero/AirfoilTable.H</text>
</a>
</g>
</g>
<!-- Node1&#45;&gt;Node24 -->
<g id="edge36_Node000001_Node000024" class="edge">
<title>Node1&#45;&gt;Node24</title>
<g id="a_edge36_Node000001_Node000024"><a xlink:title=" ">
<path fill="none" stroke="#63b8ff" d="M311.55,-428.96C355.76,-418.36 409.76,-405.42 451.72,-395.36"/>
<polygon fill="#63b8ff" stroke="#63b8ff" points="452.66,-398.74 461.57,-393 451.03,-391.93 452.66,-398.74"/>
</a>
</g>
</g>
<!-- Node3 -->
<g id="Node000003" class="node">
<title>Node3</title>
<g id="a_Node000003"><a xlink:href="actuator__types_8_h.html" target="_top" xlink:title=" ">
<polygon fill="white" stroke="#666666" points="440,-327 300,-327 300,-297 440,-297 440,-327"/>
<text text-anchor="start" x="308" y="-315" font-family="Helvetica,sans-Serif" font-size="10.00">src/wind_energy/actuator</text>
<text text-anchor="middle" x="370" y="-304" font-family="Helvetica,sans-Serif" font-size="10.00">/actuator_types.H</text>
</a>
</g>
</g>
<!-- Node2&#45;&gt;Node3 -->
<g id="edge2_Node000002_Node000003" class="edge">
<title>Node2&#45;&gt;Node3</title>
<g id="a_edge2_Node000002_Node000003"><a xlink:title=" ">
<path fill="none" stroke="#63b8ff" d="M260.72,-362.95C281.15,-353.62 308.17,-341.27 330.23,-331.18"/>
<polygon fill="#63b8ff" stroke="#63b8ff" points="331.71,-334.35 339.35,-327.01 328.8,-327.99 331.71,-334.35"/>
</a>
</g>
</g>
<!-- Node8 -->
<g id="Node000008" class="node">
<title>Node8</title>
<g id="a_Node000008"><a xlink:href="vector__space_8_h.html" target="_top" xlink:title=" ">
<polygon fill="white" stroke="#666666" points="305.5,-261 202.5,-261 202.5,-231 305.5,-231 305.5,-261"/>
<text text-anchor="start" x="210.5" y="-249" font-family="Helvetica,sans-Serif" font-size="10.00">src/core/vs/vector</text>
<text text-anchor="middle" x="254" y="-238" font-family="Helvetica,sans-Serif" font-size="10.00">_space.H</text>
</a>
</g>
</g>
<!-- Node2&#45;&gt;Node8 -->
<g id="edge33_Node000002_Node000008" class="edge">
<title>Node2&#45;&gt;Node8</title>
<g id="a_edge33_Node000002_Node000008"><a xlink:title=" ">
<path fill="none" stroke="#63b8ff" d="M232.61,-362.84C236.67,-340.86 244.54,-298.27 249.51,-271.3"/>
<polygon fill="#63b8ff" stroke="#63b8ff" points="253.02,-271.61 251.39,-261.14 246.13,-270.34 253.02,-271.61"/>
</a>
</g>
</g>
<!-- Node2&#45;&gt;Node19 -->
<g id="edge35_Node000002_Node000019" class="edge">
<title>Node2&#45;&gt;Node19</title>
<g id="a_edge35_Node000002_Node000019"><a xlink:title=" ">
<path fill="none" stroke="#63b8ff" d="M168.99,-362.96C112.77,-345.98 38,-311.31 38,-247 38,-247 38,-247 38,-129.5 38,-92.07 55.27,-51.03 66.52,-28.25"/>
<polygon fill="#63b8ff" stroke="#63b8ff" points="69.74,-29.65 71.19,-19.15 63.51,-26.46 69.74,-29.65"/>
</a>
</g>
</g>
<!-- Node23 -->
<g id="Node000023" class="node">
<title>Node23</title>
<g id="a_Node000023"><a xlink:title=" ">
<polygon fill="#e0e0e0" stroke="#999999" points="756,-255.5 712,-255.5 712,-236.5 756,-236.5 756,-255.5"/>
<text text-anchor="middle" x="734" y="-243.5" font-family="Helvetica,sans-Serif" font-size="10.00">string</text>
</a>
</g>
</g>
<!-- Node2&#45;&gt;Node23 -->
<g id="edge34_Node000002_Node000023" class="edge">
<title>Node2&#45;&gt;Node23</title>
<g id="a_edge34_Node000002_Node000023"><a xlink:title=" ">
<path fill="none" stroke="#63b8ff" d="M300.19,-369.05C344.5,-362.11 402.04,-349.48 449,-327 468.41,-317.71 467.34,-305.75 487,-297 573.92,-258.33 606.31,-286.37 698,-261 700.15,-260.4 702.36,-259.73 704.56,-259"/>
<polygon fill="#63b8ff" stroke="#63b8ff" points="705.84,-262.26 714.06,-255.58 703.47,-255.67 705.84,-262.26"/>
</a>
</g>
</g>
<!-- Node4 -->
<g id="Node000004" class="node">
<title>Node4</title>
<g id="a_Node000004"><a xlink:href="_slice_8_h.html" target="_top" xlink:title=" ">
<polygon fill="white" stroke="#666666" points="416,-255.5 324,-255.5 324,-236.5 416,-236.5 416,-255.5"/>
<text text-anchor="middle" x="370" y="-243.5" font-family="Helvetica,sans-Serif" font-size="10.00">src/core/Slice.H</text>
</a>
</g>
</g>
<!-- Node3&#45;&gt;Node4 -->
<g id="edge3_Node000003_Node000004" class="edge">
<title>Node3&#45;&gt;Node4</title>
<g id="a_edge3_Node000003_Node000004"><a xlink:title=" ">
<path fill="none" stroke="#63b8ff" d="M370,-296.8C370,-287.7 370,-275.79 370,-265.9"/>
<polygon fill="#63b8ff" stroke="#63b8ff" points="373.5,-265.84 370,-255.84 366.5,-265.84 373.5,-265.84"/>
</a>
</g>
</g>
<!-- Node7 -->
<g id="Node000007" class="node">
<title>Node7</title>
<g id="a_Node000007"><a xlink:title=" ">
<polygon fill="#e0e0e0" stroke="#999999" points="651.5,-19 564.5,-19 564.5,0 651.5,0 651.5,-19"/>
<text text-anchor="middle" x="608" y="-7" font-family="Helvetica,sans-Serif" font-size="10.00">AMReX_Gpu.H</text>
</a>
</g>
</g>
<!-- Node3&#45;&gt;Node7 -->
<g id="edge28_Node000003_Node000007" class="edge">
<title>Node3&#45;&gt;Node7</title>
<g id="a_edge28_Node000003_Node000007"><a xlink:title=" ">
<path fill="none" stroke="#63b8ff" d="M440.25,-297.84C441.85,-297.55 443.43,-297.27 445,-297 493.8,-288.45 628.47,-294.46 665,-261 690.2,-237.92 684,-220.67 684,-186.5 684,-186.5 684,-186.5 684,-129.5 684,-86.71 648.66,-46.94 626.18,-25.97"/>
<polygon fill="#63b8ff" stroke="#63b8ff" points="628.34,-23.21 618.57,-19.13 623.66,-28.42 628.34,-23.21"/>
</a>
</g>
</g>
<!-- Node3&#45;&gt;Node8 -->
<g id="edge7_Node000003_Node000008" class="edge">
<title>Node3&#45;&gt;Node8</title>
<g id="a_edge7_Node000003_Node000008"><a xlink:title=" ">
<path fill="none" stroke="#63b8ff" d="M344.54,-296.95C328.07,-287.87 306.43,-275.93 288.43,-266"/>
<polygon fill="#63b8ff" stroke="#63b8ff" points="289.84,-262.78 279.4,-261.01 286.46,-268.91 289.84,-262.78"/>
</a>
</g>
</g>
<!-- Node3&#45;&gt;Node19 -->
<g id="edge32_Node000003_Node000019" class="edge">
<title>Node3&#45;&gt;Node19</title>
<g id="a_edge32_Node000003_Node000019"><a xlink:title=" ">
<path fill="none" stroke="#63b8ff" d="M299.71,-306.37C223.92,-297.12 114,-269.4 114,-186.5 114,-186.5 114,-186.5 114,-129.5 114,-92.07 96.73,-51.03 85.48,-28.25"/>
<polygon fill="#63b8ff" stroke="#63b8ff" points="88.49,-26.46 80.81,-19.15 82.26,-29.65 88.49,-26.46"/>
</a>
</g>
</g>
<!-- Node20 -->
<g id="Node000020" class="node">
<title>Node20</title>
<g id="a_Node000020"><a xlink:title=" ">
<polygon fill="#e0e0e0" stroke="#999999" points="656,-255.5 548,-255.5 548,-236.5 656,-236.5 656,-255.5"/>
<text text-anchor="middle" x="602" y="-243.5" font-family="Helvetica,sans-Serif" font-size="10.00">AMReX_RealBox.H</text>
</a>
</g>
</g>
<!-- Node3&#45;&gt;Node20 -->
<g id="edge29_Node000003_Node000020" class="edge">
<title>Node3&#45;&gt;Node20</title>
<g id="a_edge29_Node000003_Node000020"><a xlink:title=" ">
<path fill="none" stroke="#63b8ff" d="M420.91,-296.95C463.03,-285.34 522.08,-269.05 561.15,-258.27"/>
<polygon fill="#63b8ff" stroke="#63b8ff" points="562.42,-261.55 571.12,-255.52 560.55,-254.8 562.42,-261.55"/>
</a>
</g>
</g>
<!-- Node21 -->
<g id="Node000021" class="node">
<title>Node21</title>
<g id="a_Node000021"><a xlink:title=" ">
<polygon fill="#e0e0e0" stroke="#999999" points="466,-255.5 434,-255.5 434,-236.5 466,-236.5 466,-255.5"/>
<text text-anchor="middle" x="450" y="-243.5" font-family="Helvetica,sans-Serif" font-size="10.00">set</text>
</a>
</g>
</g>
<!-- Node3&#45;&gt;Node21 -->
<g id="edge30_Node000003_Node000021" class="edge">
<title>Node3&#45;&gt;Node21</title>
<g id="a_edge30_Node000003_Node000021"><a xlink:title=" ">
<path fill="none" stroke="#63b8ff" d="M387.75,-296.8C400.59,-286.53 417.92,-272.67 431.03,-262.18"/>
<polygon fill="#63b8ff" stroke="#63b8ff" points="433.32,-264.82 438.94,-255.84 428.95,-259.36 433.32,-264.82"/>
</a>
</g>
</g>
<!-- Node22 -->
<g id="Node000022" class="node">
<title>Node22</title>
<g id="a_Node000022"><a xlink:title=" ">
<polygon fill="#e0e0e0" stroke="#999999" points="529.5,-255.5 484.5,-255.5 484.5,-236.5 529.5,-236.5 529.5,-255.5"/>
<text text-anchor="middle" x="507" y="-243.5" font-family="Helvetica,sans-Serif" font-size="10.00">utility</text>
</a>
</g>
</g>
<!-- Node3&#45;&gt;Node22 -->
<g id="edge31_Node000003_Node000022" class="edge">
<title>Node3&#45;&gt;Node22</title>
<g id="a_edge31_Node000003_Node000022"><a xlink:title=" ">
<path fill="none" stroke="#63b8ff" d="M400.07,-296.95C423.77,-285.88 456.56,-270.56 479.56,-259.82"/>
<polygon fill="#63b8ff" stroke="#63b8ff" points="481.19,-262.92 488.77,-255.52 478.23,-256.58 481.19,-262.92"/>
</a>
</g>
</g>
<!-- Node5 -->
<g id="Node000005" class="node">
<title>Node5</title>
<g id="a_Node000005"><a xlink:title=" ">
<polygon fill="#e0e0e0" stroke="#999999" points="539.5,-195 486.5,-195 486.5,-176 539.5,-176 539.5,-195"/>
<text text-anchor="middle" x="513" y="-183" font-family="Helvetica,sans-Serif" font-size="10.00">iterator</text>
</a>
</g>
</g>
<!-- Node4&#45;&gt;Node5 -->
<g id="edge4_Node000004_Node000005" class="edge">
<title>Node4&#45;&gt;Node5</title>
<g id="a_edge4_Node000004_Node000005"><a xlink:title=" ">
<path fill="none" stroke="#63b8ff" d="M390.79,-236.49C414.94,-226.62 454.98,-210.23 482.62,-198.93"/>
<polygon fill="#63b8ff" stroke="#63b8ff" points="484.25,-202.04 492.18,-195.02 481.6,-195.56 484.25,-202.04"/>
</a>
</g>
</g>
<!-- Node6 -->
<g id="Node000006" class="node">
<title>Node6</title>
<g id="a_Node000006"><a xlink:title=" ">
<polygon fill="#e0e0e0" stroke="#999999" points="468,-195 370,-195 370,-176 468,-176 468,-195"/>
<text text-anchor="middle" x="419" y="-183" font-family="Helvetica,sans-Serif" font-size="10.00">AMReX_Vector.H</text>
</a>
</g>
</g>
<!-- Node4&#45;&gt;Node6 -->
<g id="edge5_Node000004_Node000006" class="edge">
<title>Node4&#45;&gt;Node6</title>
<g id="a_edge5_Node000004_Node000006"><a xlink:title=" ">
<path fill="none" stroke="#63b8ff" d="M377.23,-236.37C384.54,-227.64 396.02,-213.93 405.1,-203.09"/>
<polygon fill="#63b8ff" stroke="#63b8ff" points="408,-205.08 411.74,-195.17 402.64,-200.59 408,-205.08"/>
</a>
</g>
</g>
<!-- Node4&#45;&gt;Node7 -->
<g id="edge6_Node000004_Node000007" class="edge">
<title>Node4&#45;&gt;Node7</title>
<g id="a_edge6_Node000004_Node000007"><a xlink:title=" ">
<path fill="none" stroke="#63b8ff" d="M403.58,-236.39C453.84,-223.4 543.36,-199.79 549,-195 599.16,-152.36 607.11,-67.06 608.07,-29.26"/>
<polygon fill="#63b8ff" stroke="#63b8ff" points="611.57,-29.2 608.18,-19.16 604.57,-29.12 611.57,-29.2"/>
</a>
</g>
</g>
<!-- Node9 -->
<g id="Node000009" class="node">
<title>Node9</title>
<g id="a_Node000009"><a xlink:href="vector_8_h.html" target="_top" xlink:title=" ">
<polygon fill="white" stroke="#666666" points="515.5,-140 402.5,-140 402.5,-121 515.5,-121 515.5,-140"/>
<text text-anchor="middle" x="459" y="-128" font-family="Helvetica,sans-Serif" font-size="10.00">src/core/vs/vector.H</text>
</a>
</g>
</g>
<!-- Node8&#45;&gt;Node9 -->
<g id="edge8_Node000008_Node000009" class="edge">
<title>Node8&#45;&gt;Node9</title>
<g id="a_edge8_Node000008_Node000009"><a xlink:title=" ">
<path fill="none" stroke="#63b8ff" d="M273.97,-230.86C295.07,-216.23 329.57,-193.15 361,-176 383.03,-163.98 408.92,-152.32 428.55,-143.96"/>
<polygon fill="#63b8ff" stroke="#63b8ff" points="430.06,-147.12 437.92,-140.01 427.35,-140.67 430.06,-147.12"/>
</a>
</g>
</g>
<!-- Node15 -->
<g id="Node000015" class="node">
<title>Node15</title>
<g id="a_Node000015"><a xlink:href="tensor_8_h.html" target="_top" xlink:title=" ">
<polygon fill="white" stroke="#666666" points="313.5,-195 200.5,-195 200.5,-176 313.5,-176 313.5,-195"/>
<text text-anchor="middle" x="257" y="-183" font-family="Helvetica,sans-Serif" font-size="10.00">src/core/vs/tensor.H</text>
</a>
</g>
</g>
<!-- Node8&#45;&gt;Node15 -->
<g id="edge16_Node000008_Node000015" class="edge">
<title>Node8&#45;&gt;Node15</title>
<g id="a_edge16_Node000008_Node000015"><a xlink:title=" ">
<path fill="none" stroke="#63b8ff" d="M254.73,-230.84C255.12,-223.21 255.6,-213.7 256.03,-205.45"/>
<polygon fill="#63b8ff" stroke="#63b8ff" points="259.53,-205.43 256.55,-195.27 252.54,-205.07 259.53,-205.43"/>
</a>
</g>
</g>
<!-- Node9&#45;&gt;Node7 -->
<g id="edge9_Node000009_Node000007" class="edge">
<title>Node9&#45;&gt;Node7</title>
<g id="a_edge9_Node000009_Node000007"><a xlink:title=" ">
<path fill="none" stroke="#63b8ff" d="M484.24,-120.98C503.82,-113.54 530.92,-101.37 551,-85 570.83,-68.83 587.8,-44.43 597.94,-28.01"/>
<polygon fill="#63b8ff" stroke="#63b8ff" points="600.97,-29.76 603.09,-19.38 594.96,-26.17 600.97,-29.76"/>
</a>
</g>
</g>
<!-- Node10 -->
<g id="Node000010" class="node">
<title>Node10</title>
<g id="a_Node000010"><a xlink:href="vstraits_8_h.html" target="_top" xlink:title=" ">
<polygon fill="white" stroke="#666666" points="407.5,-79.5 288.5,-79.5 288.5,-60.5 407.5,-60.5 407.5,-79.5"/>
<text text-anchor="middle" x="348" y="-67.5" font-family="Helvetica,sans-Serif" font-size="10.00">src/core/vs/vstraits.H</text>
</a>
</g>
</g>
<!-- Node9&#45;&gt;Node10 -->
<g id="edge10_Node000009_Node000010" class="edge">
<title>Node9&#45;&gt;Node10</title>
<g id="a_edge10_Node000009_Node000010"><a xlink:title=" ">
<path fill="none" stroke="#63b8ff" d="M442.62,-120.87C424.42,-111.28 394.8,-95.67 373.55,-84.47"/>
<polygon fill="#63b8ff" stroke="#63b8ff" points="374.92,-81.23 364.45,-79.67 371.66,-87.43 374.92,-81.23"/>
</a>
</g>
</g>
<!-- Node12 -->
<g id="Node000012" class="node">
<title>Node12</title>
<g id="a_Node000012"><a xlink:href="vector_i_8_h.html" target="_top" xlink:title=" ">
<polygon fill="white" stroke="#666666" points="542,-79.5 426,-79.5 426,-60.5 542,-60.5 542,-79.5"/>
<text text-anchor="middle" x="484" y="-67.5" font-family="Helvetica,sans-Serif" font-size="10.00">src/core/vs/vectorI.H</text>
</a>
</g>
</g>
<!-- Node9&#45;&gt;Node12 -->
<g id="edge12_Node000009_Node000012" class="edge">
<title>Node9&#45;&gt;Node12</title>
<g id="a_edge12_Node000009_Node000012"><a xlink:title=" ">
<path fill="none" stroke="#63b8ff" d="M457.73,-120.87C459.52,-112.4 464.72,-99.24 470.25,-88.57"/>
<polygon fill="#63b8ff" stroke="#63b8ff" points="473.41,-90.09 475.33,-79.67 467.33,-86.61 473.41,-90.09"/>
</a>
</g>
</g>
<!-- Node11 -->
<g id="Node000011" class="node">
<title>Node11</title>
<g id="a_Node000011"><a xlink:title=" ">
<polygon fill="#e0e0e0" stroke="#999999" points="370,-19 326,-19 326,0 370,0 370,-19"/>
<text text-anchor="middle" x="348" y="-7" font-family="Helvetica,sans-Serif" font-size="10.00">limits</text>
</a>
</g>
</g>
<!-- Node10&#45;&gt;Node11 -->
<g id="edge11_Node000010_Node000011" class="edge">
<title>Node10&#45;&gt;Node11</title>
<g id="a_edge11_Node000010_Node000011"><a xlink:title=" ">
<path fill="none" stroke="#63b8ff" d="M348,-60.37C348,-52.25 348,-39.81 348,-29.39"/>
<polygon fill="#63b8ff" stroke="#63b8ff" points="351.5,-29.17 348,-19.17 344.5,-29.17 351.5,-29.17"/>
</a>
</g>
</g>
<!-- Node12&#45;&gt;Node9 -->
<g id="edge15_Node000012_Node000009" class="edge">
<title>Node12&#45;&gt;Node9</title>
<g id="a_edge15_Node000012_Node000009"><a xlink:title=" ">
<path fill="none" stroke="#63b8ff" d="M485.26,-79.67C483.46,-88.15 478.26,-101.31 472.73,-111.98"/>
<polygon fill="#63b8ff" stroke="#63b8ff" points="469.57,-110.45 467.64,-120.87 475.65,-113.93 469.57,-110.45"/>
</a>
</g>
</g>
<!-- Node13 -->
<g id="Node000013" class="node">
<title>Node13</title>
<g id="a_Node000013"><a xlink:title=" ">
<polygon fill="#e0e0e0" stroke="#999999" points="512.5,-19 455.5,-19 455.5,0 512.5,0 512.5,-19"/>
<text text-anchor="middle" x="484" y="-7" font-family="Helvetica,sans-Serif" font-size="10.00">ostream</text>
</a>
</g>
</g>
<!-- Node12&#45;&gt;Node13 -->
<g id="edge13_Node000012_Node000013" class="edge">
<title>Node12&#45;&gt;Node13</title>
<g id="a_edge13_Node000012_Node000013"><a xlink:title=" ">
<path fill="none" stroke="#63b8ff" d="M484,-60.37C484,-52.25 484,-39.81 484,-29.39"/>
<polygon fill="#63b8ff" stroke="#63b8ff" points="487.5,-29.17 484,-19.17 480.5,-29.17 487.5,-29.17"/>
</a>
</g>
</g>
<!-- Node14 -->
<g id="Node000014" class="node">
<title>Node14</title>
<g id="a_Node000014"><a xlink:title=" ">
<polygon fill="#e0e0e0" stroke="#999999" points="283.5,-19 236.5,-19 236.5,0 283.5,0 283.5,-19"/>
<text text-anchor="middle" x="260" y="-7" font-family="Helvetica,sans-Serif" font-size="10.00">cmath</text>
</a>
</g>
</g>
<!-- Node12&#45;&gt;Node14 -->
<g id="edge14_Node000012_Node000014" class="edge">
<title>Node12&#45;&gt;Node14</title>
<g id="a_edge14_Node000012_Node000014"><a xlink:title=" ">
<path fill="none" stroke="#63b8ff" d="M451.43,-60.49C409.28,-49.49 336.21,-30.4 293.58,-19.27"/>
<polygon fill="#63b8ff" stroke="#63b8ff" points="294.25,-15.83 283.69,-16.69 292.48,-22.6 294.25,-15.83"/>
</a>
</g>
</g>
<!-- Node15&#45;&gt;Node7 -->
<g id="edge17_Node000015_Node000007" class="edge">
<title>Node15&#45;&gt;Node7</title>
<g id="a_edge17_Node000015_Node000007"><a xlink:title=" ">
<path fill="none" stroke="#63b8ff" d="M313.59,-179.25C381.04,-172.29 489.12,-158.66 525,-140 555.39,-124.19 560.41,-113.77 579,-85 590.28,-67.55 598.28,-45.04 602.98,-29.35"/>
<polygon fill="#63b8ff" stroke="#63b8ff" points="606.47,-29.88 605.82,-19.3 599.74,-27.97 606.47,-29.88"/>
</a>
</g>
</g>
<!-- Node15&#45;&gt;Node9 -->
<g id="edge19_Node000015_Node000009" class="edge">
<title>Node15&#45;&gt;Node9</title>
<g id="a_edge19_Node000015_Node000009"><a xlink:title=" ">
<path fill="none" stroke="#63b8ff" d="M289.45,-175.98C323.96,-166.93 378.66,-152.58 416.56,-142.64"/>
<polygon fill="#63b8ff" stroke="#63b8ff" points="417.51,-146.01 426.29,-140.08 415.73,-139.23 417.51,-146.01"/>
</a>
</g>
</g>
<!-- Node15&#45;&gt;Node10 -->
<g id="edge18_Node000015_Node000010" class="edge">
<title>Node15&#45;&gt;Node10</title>
<g id="a_edge18_Node000015_Node000010"><a xlink:title=" ">
<path fill="none" stroke="#63b8ff" d="M276.25,-175.99C291.2,-168.49 311.42,-156.22 324,-140 335.4,-125.3 341.61,-104.81 344.84,-89.98"/>
<polygon fill="#63b8ff" stroke="#63b8ff" points="348.32,-90.41 346.77,-79.93 341.45,-89.09 348.32,-90.41"/>
</a>
</g>
</g>
<!-- Node16 -->
<g id="Node000016" class="node">
<title>Node16</title>
<g id="a_Node000016"><a xlink:href="tensor_i_8_h.html" target="_top" xlink:title=" ">
<polygon fill="white" stroke="#666666" points="315,-140 199,-140 199,-121 315,-121 315,-140"/>
<text text-anchor="middle" x="257" y="-128" font-family="Helvetica,sans-Serif" font-size="10.00">src/core/vs/tensorI.H</text>
</a>
</g>
</g>
<!-- Node15&#45;&gt;Node16 -->
<g id="edge20_Node000015_Node000016" class="edge">
<title>Node15&#45;&gt;Node16</title>
<g id="a_edge20_Node000015_Node000016"><a xlink:title=" ">
<path fill="none" stroke="#63b8ff" d="M251.83,-175.75C250.34,-168.8 249.9,-158.85 250.52,-150.13"/>
<polygon fill="#63b8ff" stroke="#63b8ff" points="254.01,-150.47 251.87,-140.09 247.07,-149.53 254.01,-150.47"/>
</a>
</g>
</g>
<!-- Node16&#45;&gt;Node14 -->
<g id="edge21_Node000016_Node000014" class="edge">
<title>Node16&#45;&gt;Node14</title>
<g id="a_edge21_Node000016_Node000014"><a xlink:title=" ">
<path fill="none" stroke="#63b8ff" d="M257.22,-120.94C257.7,-101.91 258.86,-55.69 259.52,-29.47"/>
<polygon fill="#63b8ff" stroke="#63b8ff" points="263.02,-29.39 259.78,-19.3 256.03,-29.21 263.02,-29.39"/>
</a>
</g>
</g>
<!-- Node16&#45;&gt;Node15 -->
<g id="edge22_Node000016_Node000015" class="edge">
<title>Node16&#45;&gt;Node15</title>
<g id="a_edge22_Node000016_Node000015"><a xlink:title=" ">
<path fill="none" stroke="#63b8ff" d="M262.13,-140.09C263.64,-146.99 264.09,-156.93 263.49,-165.66"/>
<polygon fill="#63b8ff" stroke="#63b8ff" points="260,-165.38 262.17,-175.75 266.94,-166.29 260,-165.38"/>
</a>
</g>
</g>
<!-- Node17 -->
<g id="Node000017" class="node">
<title>Node17</title>
<g id="a_Node000017"><a xlink:href="trig__ops_8_h.html" target="_top" xlink:title=" ">
<polygon fill="white" stroke="#666666" points="232,-85 142,-85 142,-55 232,-55 232,-85"/>
<text text-anchor="start" x="150" y="-73" font-family="Helvetica,sans-Serif" font-size="10.00">src/utilities/trig</text>
<text text-anchor="middle" x="187" y="-62" font-family="Helvetica,sans-Serif" font-size="10.00">_ops.H</text>
</a>
</g>
</g>
<!-- Node16&#45;&gt;Node17 -->
<g id="edge23_Node000016_Node000017" class="edge">
<title>Node16&#45;&gt;Node17</title>
<g id="a_edge23_Node000016_Node000017"><a xlink:title=" ">
<path fill="none" stroke="#63b8ff" d="M246.67,-120.87C237.52,-113.22 223.81,-101.76 211.83,-91.75"/>
<polygon fill="#63b8ff" stroke="#63b8ff" points="213.81,-88.84 203.89,-85.11 209.32,-94.21 213.81,-88.84"/>
</a>
</g>
</g>
<!-- Node17&#45;&gt;Node7 -->
<g id="edge27_Node000017_Node000007" class="edge">
<title>Node17&#45;&gt;Node7</title>
<g id="a_edge27_Node000017_Node000007"><a xlink:title=" ">
<path fill="none" stroke="#63b8ff" d="M232.37,-61.94C247.22,-59.67 263.81,-57.18 279,-55 375.94,-41.07 489.13,-26.03 554.29,-17.49"/>
<polygon fill="#63b8ff" stroke="#63b8ff" points="554.87,-20.94 564.33,-16.17 553.96,-14 554.87,-20.94"/>
</a>
</g>
</g>
<!-- Node17&#45;&gt;Node14 -->
<g id="edge24_Node000017_Node000014" class="edge">
<title>Node17&#45;&gt;Node14</title>
<g id="a_edge24_Node000017_Node000014"><a xlink:title=" ">
<path fill="none" stroke="#63b8ff" d="M204.67,-54.84C215.7,-46 229.89,-34.63 241.13,-25.62"/>
<polygon fill="#63b8ff" stroke="#63b8ff" points="243.45,-28.25 249.06,-19.27 239.07,-22.79 243.45,-28.25"/>
</a>
</g>
</g>
<!-- Node18 -->
<g id="Node000018" class="node">
<title>Node18</title>
<g id="a_Node000018"><a xlink:title=" ">
<polygon fill="#e0e0e0" stroke="#999999" points="216.5,-19 157.5,-19 157.5,0 216.5,0 216.5,-19"/>
<text text-anchor="middle" x="187" y="-7" font-family="Helvetica,sans-Serif" font-size="10.00">numbers</text>
</a>
</g>
</g>
<!-- Node17&#45;&gt;Node18 -->
<g id="edge25_Node000017_Node000018" class="edge">
<title>Node17&#45;&gt;Node18</title>
<g id="a_edge25_Node000017_Node000018"><a xlink:title=" ">
<path fill="none" stroke="#63b8ff" d="M187,-54.84C187,-47.21 187,-37.7 187,-29.45"/>
<polygon fill="#63b8ff" stroke="#63b8ff" points="190.5,-29.27 187,-19.27 183.5,-29.27 190.5,-29.27"/>
</a>
</g>
</g>
<!-- Node17&#45;&gt;Node19 -->
<g id="edge26_Node000017_Node000019" class="edge">
<title>Node17&#45;&gt;Node19</title>
<g id="a_edge26_Node000017_Node000019"><a xlink:title=" ">
<path fill="none" stroke="#63b8ff" d="M160.41,-54.99C142.55,-45.58 119.16,-33.24 101.52,-23.95"/>
<polygon fill="#63b8ff" stroke="#63b8ff" points="102.87,-20.71 92.39,-19.14 99.61,-26.9 102.87,-20.71"/>
</a>
</g>
</g>
<!-- Node24&#45;&gt;Node3 -->
<g id="edge37_Node000024_Node000003" class="edge">
<title>Node24&#45;&gt;Node3</title>
<g id="a_edge37_Node000024_Node000003"><a xlink:title=" ">
<path fill="none" stroke="#63b8ff" d="M487.08,-362.95C465.1,-353.58 435.99,-341.16 412.29,-331.05"/>
<polygon fill="#63b8ff" stroke="#63b8ff" points="413.41,-327.72 402.84,-327.01 410.67,-334.16 413.41,-327.72"/>
</a>
</g>
</g>
<!-- Node24&#45;&gt;Node19 -->
<g id="edge40_Node000024_Node000019" class="edge">
<title>Node24&#45;&gt;Node19</title>
<g id="a_edge40_Node000024_Node000019"><a xlink:title=" ">
<path fill="none" stroke="#63b8ff" d="M449.71,-372.87C363.99,-364.45 218.82,-338.85 124,-261 93.56,-236.01 76,-225.89 76,-186.5 76,-186.5 76,-186.5 76,-129.5 76,-94.15 76,-52.9 76,-29.42"/>
<polygon fill="#63b8ff" stroke="#63b8ff" points="79.5,-29.16 76,-19.16 72.5,-29.16 79.5,-29.16"/>
</a>
</g>
</g>
<!-- Node25 -->
<g id="Node000025" class="node">
<title>Node25</title>
<g id="a_Node000025"><a xlink:title=" ">
<polygon fill="#e0e0e0" stroke="#999999" points="544,-321.5 496,-321.5 496,-302.5 544,-302.5 544,-321.5"/>
<text text-anchor="middle" x="520" y="-309.5" font-family="Helvetica,sans-Serif" font-size="10.00">iosfwd</text>
</a>
</g>
</g>
<!-- Node24&#45;&gt;Node25 -->
<g id="edge38_Node000024_Node000025" class="edge">
<title>Node24&#45;&gt;Node25</title>
<g id="a_edge38_Node000024_Node000025"><a xlink:title=" ">
<path fill="none" stroke="#63b8ff" d="M520,-362.8C520,-353.7 520,-341.79 520,-331.9"/>
<polygon fill="#63b8ff" stroke="#63b8ff" points="523.5,-331.84 520,-321.84 516.5,-331.84 523.5,-331.84"/>
</a>
</g>
</g>
<!-- Node26 -->
<g id="Node000026" class="node">
<title>Node26</title>
<g id="a_Node000026"><a xlink:title=" ">
<polygon fill="#e0e0e0" stroke="#999999" points="620,-321.5 562,-321.5 562,-302.5 620,-302.5 620,-321.5"/>
<text text-anchor="middle" x="591" y="-309.5" font-family="Helvetica,sans-Serif" font-size="10.00">memory</text>
</a>
</g>
</g>
<!-- Node24&#45;&gt;Node26 -->
<g id="edge39_Node000024_Node000026" class="edge">
<title>Node24&#45;&gt;Node26</title>
<g id="a_edge39_Node000024_Node000026"><a xlink:title=" ">
<path fill="none" stroke="#63b8ff" d="M535.76,-362.8C546.93,-352.72 561.94,-339.19 573.49,-328.78"/>
<polygon fill="#63b8ff" stroke="#63b8ff" points="576.1,-331.14 581.19,-321.84 571.42,-325.94 576.1,-331.14"/>
</a>
</g>
</g>
<!-- Node27 -->
<g id="Node000027" class="node">
<title>Node27</title>
<g id="a_Node000027"><a xlink:href="_airfoil_table_i_8_h.html" target="_top" xlink:title=" ">
<polygon fill="white" stroke="#666666" points="778,-327 638,-327 638,-297 778,-297 778,-327"/>
<text text-anchor="start" x="646" y="-315" font-family="Helvetica,sans-Serif" font-size="10.00">src/wind_energy/actuator</text>
<text text-anchor="middle" x="708" y="-304" font-family="Helvetica,sans-Serif" font-size="10.00">/aero/AirfoilTableI.H</text>
</a>
</g>
</g>
<!-- Node24&#45;&gt;Node27 -->
<g id="edge41_Node000024_Node000027" class="edge">
<title>Node24&#45;&gt;Node27</title>
<g id="a_edge41_Node000024_Node000027"><a xlink:title=" ">
<path fill="none" stroke="#63b8ff" d="M555.56,-362.95C582.58,-353.33 620.16,-340.49 651.29,-330.24"/>
<polygon fill="#63b8ff" stroke="#63b8ff" points="652.73,-333.45 661.14,-327.01 650.55,-326.8 652.73,-333.45"/>
</a>
</g>
</g>
<!-- Node27&#45;&gt;Node23 -->
<g id="edge43_Node000027_Node000023" class="edge">
<title>Node27&#45;&gt;Node23</title>
<g id="a_edge43_Node000027_Node000023"><a xlink:title=" ">
<path fill="none" stroke="#63b8ff" d="M713.77,-296.8C717.55,-287.5 722.51,-275.27 726.58,-265.26"/>
<polygon fill="#63b8ff" stroke="#63b8ff" points="729.89,-266.43 730.41,-255.84 723.4,-263.79 729.89,-266.43"/>
</a>
</g>
</g>
<!-- Node27&#45;&gt;Node24 -->
<g id="edge42_Node000027_Node000024" class="edge">
<title>Node27&#45;&gt;Node24</title>
<g id="a_edge42_Node000027_Node000024"><a xlink:title=" ">
<path fill="none" stroke="#63b8ff" d="M672.53,-327.01C645.54,-336.63 607.96,-349.47 576.82,-359.72"/>
<polygon fill="#63b8ff" stroke="#63b8ff" points="575.37,-356.52 566.96,-362.95 577.55,-363.17 575.37,-356.52"/>
</a>
</g>
</g>
</g>
</svg>

<g id="navigator" transform="translate(0 0)" fill="#404254">
  <rect fill="#f2f5e9" fill-opacity="0.5" stroke="#606060" stroke-width=".5" x="0" y="0" width="60" height="60"/>
  <use id="zoomplus" xlink:href="#zoomPlus" x="17" y="9" onmousedown="handleZoom(evt,'in')"/>
  <use id="zoomminus" xlink:href="#zoomMin" x="42" y="9" onmousedown="handleZoom(evt,'out')"/>
  <use id="reset" xlink:href="#resetDef" x="30" y="36" onmousedown="handleReset()"/>
   <use id="arrowup" xlink:href="#arrowUp" x="0" y="0" onmousedown="handlePan(0,-1)"/>
  <use id="arrowright" xlink:href="#arrowRight" x="0" y="0" onmousedown="handlePan(1,0)"/>
  <use id="arrowdown" xlink:href="#arrowDown" x="0" y="0" onmousedown="handlePan(0,1)"/>
  <use id="arrowleft" xlink:href="#arrowLeft" x="0" y="0" onmousedown="handlePan(-1,0)"/>
</g>
<svg viewBox="0 0 15 15" width="100%" height="30px" preserveAspectRatio="xMaxYMin meet">
 <g id="arrow_out" transform="scale(0.3 0.3)">
  <a xlink:href="_fixed_wing_8_h__incl_org.svg" target="_base">
   <rect id="button" ry="5" rx="5" y="6" x="6" height="38" width="38"
        fill="#f2f5e9" fill-opacity="0.5" stroke="#606060" stroke-width="1.0"/>
   <path id="arrow"
     d="M 11.500037,31.436501 C 11.940474,20.09759 22.043105,11.32322 32.158766,21.979434 L 37.068811,17.246167 C 37.068811,17.246167 37.088388,32 37.088388,32 L 22.160133,31.978069 C 22.160133,31.978069 26.997745,27.140456 26.997745,27.140456 C 18.528582,18.264221 13.291696,25.230495 11.500037,31.436501 z"
     style="fill:#404040;"/>
  </a>
 </g>
</svg>

<style type='text/css'>
<![CDATA[
[data-mouse-over-selected='false'] { opacity: 0.7; }
[data-mouse-over-selected='true']  { opacity: 1.0; }
]]>
</style>
<script type="application/ecmascript"><![CDATA[
document.addEventListener('DOMContentLoaded', (event) => {
  highlightEdges();
  highlightAdjacentNodes();
});
]]></script>
</svg>
