<?xml version="1.0" encoding="UTF-8" standalone="no"?>
<!DOCTYPE svg PUBLIC "-//W3C//DTD SVG 1.1//EN"
 "http://www.w3.org/Graphics/SVG/1.1/DTD/svg11.dtd">
<!-- Generated by graphviz version 2.43.0 (0)
 -->
<!-- Title: /home/runner/work/amr&#45;wind/amr&#45;wind/src/immersed_boundary/IBTypes.H Pages: 1 -->
<svg width="1107pt" height="379pt"
 viewBox="0.00 0.00 1107.00 379.00" xmlns="http://www.w3.org/2000/svg" xmlns:xlink="http://www.w3.org/1999/xlink">
<g id="graph0" class="graph" transform="scale(1 1) rotate(0) translate(4 375)">
<title>/home/runner/work/amr&#45;wind/amr&#45;wind/src/immersed_boundary/IBTypes.H</title>
<!-- Node1 -->
<g id="Node000001" class="node">
<title>Node1</title>
<g id="a_Node000001"><a xlink:title=" ">
<polygon fill="#999999" stroke="#666666" points="626,-371 463,-371 463,-330 626,-330 626,-371"/>
<text text-anchor="start" x="471" y="-359" font-family="Helvetica,sans-Serif" font-size="10.00">/home/runner/work/amr</text>
<text text-anchor="start" x="471" y="-348" font-family="Helvetica,sans-Serif" font-size="10.00">&#45;wind/amr&#45;wind/src/immersed</text>
<text text-anchor="middle" x="544.5" y="-337" font-family="Helvetica,sans-Serif" font-size="10.00">_boundary/IBTypes.H</text>
</a>
</g>
</g>
<!-- Node2 -->
<g id="Node000002" class="node">
<title>Node2</title>
<g id="a_Node000002"><a xlink:href="_i_b_model_8_h.html" target="_top" xlink:title=" ">
<polygon fill="white" stroke="#666666" points="163,-123.5 0,-123.5 0,-82.5 163,-82.5 163,-123.5"/>
<text text-anchor="start" x="8" y="-111.5" font-family="Helvetica,sans-Serif" font-size="10.00">/home/runner/work/amr</text>
<text text-anchor="start" x="8" y="-100.5" font-family="Helvetica,sans-Serif" font-size="10.00">&#45;wind/amr&#45;wind/src/immersed</text>
<text text-anchor="middle" x="81.5" y="-89.5" font-family="Helvetica,sans-Serif" font-size="10.00">_boundary/IBModel.H</text>
</a>
</g>
</g>
<!-- Node1&#45;&gt;Node2 -->
<g id="edge1_Node000001_Node000002" class="edge">
<title>Node1&#45;&gt;Node2</title>
<g id="a_edge1_Node000001_Node000002"><a xlink:title=" ">
<path fill="none" stroke="#63b8ff" d="M452.52,-332.82C371.53,-314.68 253.43,-279.54 167.5,-217 132.82,-191.76 105.55,-148.63 91.64,-123.58"/>
<polygon fill="#63b8ff" stroke="#63b8ff" points="452.18,-336.32 462.7,-335.05 453.68,-329.49 452.18,-336.32"/>
</a>
</g>
</g>
<!-- Node7 -->
<g id="Node000007" class="node">
<title>Node7</title>
<g id="a_Node000007"><a xlink:href="_i_b_ops_8_h.html" target="_top" xlink:title=" ">
<polygon fill="white" stroke="#666666" points="571,-294 408,-294 408,-253 571,-253 571,-294"/>
<text text-anchor="start" x="416" y="-282" font-family="Helvetica,sans-Serif" font-size="10.00">/home/runner/work/amr</text>
<text text-anchor="start" x="416" y="-271" font-family="Helvetica,sans-Serif" font-size="10.00">&#45;wind/amr&#45;wind/src/immersed</text>
<text text-anchor="middle" x="489.5" y="-260" font-family="Helvetica,sans-Serif" font-size="10.00">_boundary/IBOps.H</text>
</a>
</g>
</g>
<!-- Node1&#45;&gt;Node7 -->
<g id="edge6_Node000001_Node000007" class="edge">
<title>Node1&#45;&gt;Node7</title>
<g id="a_edge6_Node000001_Node000007"><a xlink:title=" ">
<path fill="none" stroke="#63b8ff" d="M524.09,-321.67C517.37,-312.5 510.03,-302.5 503.85,-294.07"/>
<polygon fill="#63b8ff" stroke="#63b8ff" points="521.31,-323.8 530.05,-329.79 526.96,-319.66 521.31,-323.8"/>
</a>
</g>
</g>
<!-- Node8 -->
<g id="Node000008" class="node">
<title>Node8</title>
<g id="a_Node000008"><a xlink:href="bluff__body__ops_8_h.html" target="_top" xlink:title=" ">
<polygon fill="white" stroke="#666666" points="681,-217 518,-217 518,-165 681,-165 681,-217"/>
<text text-anchor="start" x="526" y="-205" font-family="Helvetica,sans-Serif" font-size="10.00">/home/runner/work/amr</text>
<text text-anchor="start" x="526" y="-194" font-family="Helvetica,sans-Serif" font-size="10.00">&#45;wind/amr&#45;wind/src/immersed</text>
<text text-anchor="start" x="526" y="-183" font-family="Helvetica,sans-Serif" font-size="10.00">_boundary/bluff_body/bluff</text>
<text text-anchor="middle" x="599.5" y="-172" font-family="Helvetica,sans-Serif" font-size="10.00">_body_ops.H</text>
</a>
</g>
</g>
<!-- Node1&#45;&gt;Node8 -->
<g id="edge30_Node000001_Node000008" class="edge">
<title>Node1&#45;&gt;Node8</title>
<g id="a_edge30_Node000001_Node000008"><a xlink:title=" ">
<path fill="none" stroke="#63b8ff" d="M564.96,-321.51C570.38,-313.01 575.75,-303.43 579.5,-294 589.49,-268.84 594.64,-238.15 597.19,-217.04"/>
<polygon fill="#63b8ff" stroke="#63b8ff" points="562,-319.64 559.37,-329.91 567.82,-323.52 562,-319.64"/>
</a>
</g>
</g>
<!-- Node13 -->
<g id="Node000013" class="node">
<title>Node13</title>
<g id="a_Node000013"><a xlink:href="_bluff_body_8_h.html" target="_top" xlink:title=" ">
<polygon fill="white" stroke="#666666" points="809,-294 628,-294 628,-253 809,-253 809,-294"/>
<text text-anchor="start" x="636" y="-282" font-family="Helvetica,sans-Serif" font-size="10.00">/home/runner/work/amr</text>
<text text-anchor="start" x="636" y="-271" font-family="Helvetica,sans-Serif" font-size="10.00">&#45;wind/amr&#45;wind/src/immersed</text>
<text text-anchor="middle" x="718.5" y="-260" font-family="Helvetica,sans-Serif" font-size="10.00">_boundary/bluff_body/BluffBody.H</text>
</a>
</g>
</g>
<!-- Node1&#45;&gt;Node13 -->
<g id="edge19_Node000001_Node000013" class="edge">
<title>Node1&#45;&gt;Node13</title>
<g id="a_edge19_Node000001_Node000013"><a xlink:title=" ">
<path fill="none" stroke="#63b8ff" d="M599.03,-326C622.86,-315.72 650.48,-303.82 673.16,-294.04"/>
<polygon fill="#63b8ff" stroke="#63b8ff" points="597.56,-322.82 589.76,-329.99 600.33,-329.25 597.56,-322.82"/>
</a>
</g>
</g>
<!-- Node3 -->
<g id="Node000003" class="node">
<title>Node3</title>
<g id="a_Node000003"><a xlink:href="_i_b_8cpp.html" target="_top" xlink:title=" ">
<polygon fill="white" stroke="#666666" points="163,-41 0,-41 0,0 163,0 163,-41"/>
<text text-anchor="start" x="8" y="-29" font-family="Helvetica,sans-Serif" font-size="10.00">/home/runner/work/amr</text>
<text text-anchor="start" x="8" y="-18" font-family="Helvetica,sans-Serif" font-size="10.00">&#45;wind/amr&#45;wind/src/immersed</text>
<text text-anchor="middle" x="81.5" y="-7" font-family="Helvetica,sans-Serif" font-size="10.00">_boundary/IB.cpp</text>
</a>
</g>
</g>
<!-- Node2&#45;&gt;Node3 -->
<g id="edge2_Node000002_Node000003" class="edge">
<title>Node2&#45;&gt;Node3</title>
<g id="a_edge2_Node000002_Node000003"><a xlink:title=" ">
<path fill="none" stroke="#63b8ff" d="M81.5,-71.87C81.5,-61.6 81.5,-50.4 81.5,-41.17"/>
<polygon fill="#63b8ff" stroke="#63b8ff" points="78,-72.1 81.5,-82.1 85,-72.1 78,-72.1"/>
</a>
</g>
</g>
<!-- Node4 -->
<g id="Node000004" class="node">
<title>Node4</title>
<g id="a_Node000004"><a xlink:href="_box_8cpp.html" target="_top" xlink:title=" ">
<polygon fill="white" stroke="#666666" points="351.5,-41 187.5,-41 187.5,0 351.5,0 351.5,-41"/>
<text text-anchor="start" x="195.5" y="-29" font-family="Helvetica,sans-Serif" font-size="10.00">/home/runner/work/amr</text>
<text text-anchor="start" x="195.5" y="-18" font-family="Helvetica,sans-Serif" font-size="10.00">&#45;wind/amr&#45;wind/src/immersed</text>
<text text-anchor="middle" x="269.5" y="-7" font-family="Helvetica,sans-Serif" font-size="10.00">_boundary/bluff_body/Box.cpp</text>
</a>
</g>
</g>
<!-- Node2&#45;&gt;Node4 -->
<g id="edge3_Node000002_Node000004" class="edge">
<title>Node2&#45;&gt;Node4</title>
<g id="a_edge3_Node000002_Node000004"><a xlink:title=" ">
<path fill="none" stroke="#63b8ff" d="M137.01,-78.23C164.59,-66.42 197.53,-52.32 223.66,-41.13"/>
<polygon fill="#63b8ff" stroke="#63b8ff" points="135.3,-75.15 127.49,-82.31 138.06,-81.59 135.3,-75.15"/>
</a>
</g>
</g>
<!-- Node5 -->
<g id="Node000005" class="node">
<title>Node5</title>
<g id="a_Node000005"><a xlink:href="_cylinder_8cpp.html" target="_top" xlink:title=" ">
<polygon fill="white" stroke="#666666" points="786,-41 601,-41 601,0 786,0 786,-41"/>
<text text-anchor="start" x="609" y="-29" font-family="Helvetica,sans-Serif" font-size="10.00">/home/runner/work/amr</text>
<text text-anchor="start" x="609" y="-18" font-family="Helvetica,sans-Serif" font-size="10.00">&#45;wind/amr&#45;wind/src/immersed</text>
<text text-anchor="middle" x="693.5" y="-7" font-family="Helvetica,sans-Serif" font-size="10.00">_boundary/bluff_body/Cylinder.cpp</text>
</a>
</g>
</g>
<!-- Node2&#45;&gt;Node5 -->
<g id="edge4_Node000002_Node000005" class="edge">
<title>Node2&#45;&gt;Node5</title>
<g id="a_edge4_Node000002_Node000005"><a xlink:title=" ">
<path fill="none" stroke="#63b8ff" d="M157.91,-80.05C162.83,-78.94 167.72,-77.9 172.5,-77 320.86,-48.91 495.88,-33.91 600.61,-26.84"/>
<polygon fill="#63b8ff" stroke="#63b8ff" points="156.73,-76.73 147.81,-82.45 158.34,-83.55 156.73,-76.73"/>
</a>
</g>
</g>
<!-- Node6 -->
<g id="Node000006" class="node">
<title>Node6</title>
<g id="a_Node000006"><a xlink:href="_sphere_8cpp.html" target="_top" xlink:title=" ">
<polygon fill="white" stroke="#666666" points="1034,-41 855,-41 855,0 1034,0 1034,-41"/>
<text text-anchor="start" x="863" y="-29" font-family="Helvetica,sans-Serif" font-size="10.00">/home/runner/work/amr</text>
<text text-anchor="start" x="863" y="-18" font-family="Helvetica,sans-Serif" font-size="10.00">&#45;wind/amr&#45;wind/src/immersed</text>
<text text-anchor="middle" x="944.5" y="-7" font-family="Helvetica,sans-Serif" font-size="10.00">_boundary/bluff_body/Sphere.cpp</text>
</a>
</g>
</g>
<!-- Node2&#45;&gt;Node6 -->
<g id="edge5_Node000002_Node000006" class="edge">
<title>Node2&#45;&gt;Node6</title>
<g id="a_edge5_Node000002_Node000006"><a xlink:title=" ">
<path fill="none" stroke="#63b8ff" d="M156.15,-80.15C161.65,-78.95 167.14,-77.88 172.5,-77 445.74,-32.07 518.8,-66.87 794.5,-41 814.11,-39.16 835.1,-36.72 854.99,-34.2"/>
<polygon fill="#63b8ff" stroke="#63b8ff" points="155.21,-76.77 146.25,-82.43 156.78,-83.6 155.21,-76.77"/>
</a>
</g>
</g>
<!-- Node7&#45;&gt;Node2 -->
<g id="edge7_Node000007_Node000002" class="edge">
<title>Node7&#45;&gt;Node2</title>
<g id="a_edge7_Node000007_Node000002"><a xlink:title=" ">
<path fill="none" stroke="#63b8ff" d="M398.02,-256.68C356.32,-247.78 306.91,-234.81 264.5,-217 204.59,-191.85 141.58,-148.68 107.36,-123.61"/>
<polygon fill="#63b8ff" stroke="#63b8ff" points="397.38,-260.13 407.89,-258.75 398.82,-253.27 397.38,-260.13"/>
</a>
</g>
</g>
<!-- Node7&#45;&gt;Node8 -->
<g id="edge8_Node000007_Node000008" class="edge">
<title>Node7&#45;&gt;Node8</title>
<g id="a_edge8_Node000007_Node000008"><a xlink:title=" ">
<path fill="none" stroke="#63b8ff" d="M524.61,-246.81C537.51,-237.36 552.11,-226.68 564.96,-217.28"/>
<polygon fill="#63b8ff" stroke="#63b8ff" points="522.41,-244.08 516.41,-252.81 526.55,-249.73 522.41,-244.08"/>
</a>
</g>
</g>
<!-- Node10 -->
<g id="Node000010" class="node">
<title>Node10</title>
<g id="a_Node000010"><a xlink:href="box__ops_8_h.html" target="_top" xlink:title=" ">
<polygon fill="white" stroke="#666666" points="357.5,-123.5 181.5,-123.5 181.5,-82.5 357.5,-82.5 357.5,-123.5"/>
<text text-anchor="start" x="189.5" y="-111.5" font-family="Helvetica,sans-Serif" font-size="10.00">/home/runner/work/amr</text>
<text text-anchor="start" x="189.5" y="-100.5" font-family="Helvetica,sans-Serif" font-size="10.00">&#45;wind/amr&#45;wind/src/immersed</text>
<text text-anchor="middle" x="269.5" y="-89.5" font-family="Helvetica,sans-Serif" font-size="10.00">_boundary/bluff_body/box_ops.H</text>
</a>
</g>
</g>
<!-- Node7&#45;&gt;Node10 -->
<g id="edge16_Node000007_Node000010" class="edge">
<title>Node7&#45;&gt;Node10</title>
<g id="a_edge16_Node000007_Node000010"><a xlink:title=" ">
<path fill="none" stroke="#63b8ff" d="M397.96,-257.1C352.35,-247.54 303.72,-233.87 288.5,-217 265.45,-191.45 264.87,-148.82 266.93,-123.87"/>
<polygon fill="#63b8ff" stroke="#63b8ff" points="397.44,-260.56 407.94,-259.13 398.84,-253.7 397.44,-260.56"/>
</a>
</g>
</g>
<!-- Node11 -->
<g id="Node000011" class="node">
<title>Node11</title>
<g id="a_Node000011"><a xlink:href="cylinder__ops_8_h.html" target="_top" xlink:title=" ">
<polygon fill="white" stroke="#666666" points="792,-123.5 595,-123.5 595,-82.5 792,-82.5 792,-123.5"/>
<text text-anchor="start" x="603" y="-111.5" font-family="Helvetica,sans-Serif" font-size="10.00">/home/runner/work/amr</text>
<text text-anchor="start" x="603" y="-100.5" font-family="Helvetica,sans-Serif" font-size="10.00">&#45;wind/amr&#45;wind/src/immersed</text>
<text text-anchor="middle" x="693.5" y="-89.5" font-family="Helvetica,sans-Serif" font-size="10.00">_boundary/bluff_body/cylinder_ops.H</text>
</a>
</g>
</g>
<!-- Node7&#45;&gt;Node11 -->
<g id="edge17_Node000007_Node000011" class="edge">
<title>Node7&#45;&gt;Node11</title>
<g id="a_edge17_Node000007_Node000011"><a xlink:title=" ">
<path fill="none" stroke="#63b8ff" d="M486.99,-242.71C486.64,-218.95 490.1,-186.25 508.5,-165 522.11,-149.28 565.35,-134.58 606.61,-123.55"/>
<polygon fill="#63b8ff" stroke="#63b8ff" points="483.5,-243.06 487.38,-252.92 490.5,-242.79 483.5,-243.06"/>
</a>
</g>
</g>
<!-- Node12 -->
<g id="Node000012" class="node">
<title>Node12</title>
<g id="a_Node000012"><a xlink:href="sphere__ops_8_h.html" target="_top" xlink:title=" ">
<polygon fill="white" stroke="#666666" points="1040,-123.5 849,-123.5 849,-82.5 1040,-82.5 1040,-123.5"/>
<text text-anchor="start" x="857" y="-111.5" font-family="Helvetica,sans-Serif" font-size="10.00">/home/runner/work/amr</text>
<text text-anchor="start" x="857" y="-100.5" font-family="Helvetica,sans-Serif" font-size="10.00">&#45;wind/amr&#45;wind/src/immersed</text>
<text text-anchor="middle" x="944.5" y="-89.5" font-family="Helvetica,sans-Serif" font-size="10.00">_boundary/bluff_body/sphere_ops.H</text>
</a>
</g>
</g>
<!-- Node7&#45;&gt;Node12 -->
<g id="edge18_Node000007_Node000012" class="edge">
<title>Node7&#45;&gt;Node12</title>
<g id="a_edge18_Node000007_Node000012"><a xlink:title=" ">
<path fill="none" stroke="#63b8ff" d="M581.05,-258.49C593.63,-256.61 606.38,-254.74 618.5,-253 677.33,-244.56 834.63,-250.82 883.5,-217 900.18,-205.45 923.98,-153.21 936.34,-123.97"/>
<polygon fill="#63b8ff" stroke="#63b8ff" points="580.39,-255.05 571.02,-259.99 581.43,-261.97 580.39,-255.05"/>
</a>
</g>
</g>
<!-- Node9 -->
<g id="Node000009" class="node">
<title>Node9</title>
<g id="a_Node000009"><a xlink:href="bluff__body__ops_8cpp.html" target="_top" xlink:title=" ">
<polygon fill="white" stroke="#666666" points="577,-129 414,-129 414,-77 577,-77 577,-129"/>
<text text-anchor="start" x="422" y="-117" font-family="Helvetica,sans-Serif" font-size="10.00">/home/runner/work/amr</text>
<text text-anchor="start" x="422" y="-106" font-family="Helvetica,sans-Serif" font-size="10.00">&#45;wind/amr&#45;wind/src/immersed</text>
<text text-anchor="start" x="422" y="-95" font-family="Helvetica,sans-Serif" font-size="10.00">_boundary/bluff_body/bluff</text>
<text text-anchor="middle" x="495.5" y="-84" font-family="Helvetica,sans-Serif" font-size="10.00">_body_ops.cpp</text>
</a>
</g>
</g>
<!-- Node8&#45;&gt;Node9 -->
<g id="edge9_Node000008_Node000009" class="edge">
<title>Node8&#45;&gt;Node9</title>
<g id="a_edge9_Node000008_Node000009"><a xlink:title=" ">
<path fill="none" stroke="#63b8ff" d="M561.3,-158.41C549.7,-148.82 537.11,-138.41 526.08,-129.29"/>
<polygon fill="#63b8ff" stroke="#63b8ff" points="559.2,-161.22 569.14,-164.89 563.66,-155.82 559.2,-161.22"/>
</a>
</g>
</g>
<!-- Node8&#45;&gt;Node10 -->
<g id="edge10_Node000008_Node000010" class="edge">
<title>Node8&#45;&gt;Node10</title>
<g id="a_edge10_Node000008_Node000010"><a xlink:title=" ">
<path fill="none" stroke="#63b8ff" d="M508.12,-166.19C456.61,-152.76 393.06,-136.2 344.49,-123.54"/>
<polygon fill="#63b8ff" stroke="#63b8ff" points="507.37,-169.61 517.93,-168.74 509.13,-162.83 507.37,-169.61"/>
</a>
</g>
</g>
<!-- Node8&#45;&gt;Node11 -->
<g id="edge12_Node000008_Node000011" class="edge">
<title>Node8&#45;&gt;Node11</title>
<g id="a_edge12_Node000008_Node000011"><a xlink:title=" ">
<path fill="none" stroke="#63b8ff" d="M634.6,-157.88C647.22,-146.34 661.06,-133.68 672.15,-123.53"/>
<polygon fill="#63b8ff" stroke="#63b8ff" points="631.96,-155.56 626.94,-164.89 636.68,-160.73 631.96,-155.56"/>
</a>
</g>
</g>
<!-- Node8&#45;&gt;Node12 -->
<g id="edge14_Node000008_Node000012" class="edge">
<title>Node8&#45;&gt;Node12</title>
<g id="a_edge14_Node000008_Node000012"><a xlink:title=" ">
<path fill="none" stroke="#63b8ff" d="M691.3,-164.82C753.38,-148.93 813.23,-134.57 860.24,-123.51"/>
<polygon fill="#63b8ff" stroke="#63b8ff" points="690.13,-161.51 681.32,-167.39 691.88,-168.29 690.13,-161.51"/>
</a>
</g>
</g>
<!-- Node10&#45;&gt;Node4 -->
<g id="edge11_Node000010_Node000004" class="edge">
<title>Node10&#45;&gt;Node4</title>
<g id="a_edge11_Node000010_Node000004"><a xlink:title=" ">
<path fill="none" stroke="#63b8ff" d="M269.5,-71.87C269.5,-61.6 269.5,-50.4 269.5,-41.17"/>
<polygon fill="#63b8ff" stroke="#63b8ff" points="266,-72.1 269.5,-82.1 273,-72.1 266,-72.1"/>
</a>
</g>
</g>
<!-- Node11&#45;&gt;Node5 -->
<g id="edge13_Node000011_Node000005" class="edge">
<title>Node11&#45;&gt;Node5</title>
<g id="a_edge13_Node000011_Node000005"><a xlink:title=" ">
<path fill="none" stroke="#63b8ff" d="M693.5,-71.87C693.5,-61.6 693.5,-50.4 693.5,-41.17"/>
<polygon fill="#63b8ff" stroke="#63b8ff" points="690,-72.1 693.5,-82.1 697,-72.1 690,-72.1"/>
</a>
</g>
</g>
<!-- Node12&#45;&gt;Node6 -->
<g id="edge15_Node000012_Node000006" class="edge">
<title>Node12&#45;&gt;Node6</title>
<g id="a_edge15_Node000012_Node000006"><a xlink:title=" ">
<path fill="none" stroke="#63b8ff" d="M944.5,-71.87C944.5,-61.6 944.5,-50.4 944.5,-41.17"/>
<polygon fill="#63b8ff" stroke="#63b8ff" points="941,-72.1 944.5,-82.1 948,-72.1 941,-72.1"/>
</a>
</g>
</g>
<!-- Node13&#45;&gt;Node8 -->
<g id="edge29_Node000013_Node000008" class="edge">
<title>Node13&#45;&gt;Node8</title>
<g id="a_edge29_Node000013_Node000008"><a xlink:title=" ">
<path fill="none" stroke="#63b8ff" d="M680.92,-247.08C666.86,-237.57 650.9,-226.77 636.87,-217.28"/>
<polygon fill="#63b8ff" stroke="#63b8ff" points="679.15,-250.1 689.39,-252.81 683.07,-244.31 679.15,-250.1"/>
</a>
</g>
</g>
<!-- Node14 -->
<g id="Node000014" class="node">
<title>Node14</title>
<g id="a_Node000014"><a xlink:href="_box_8_h.html" target="_top" xlink:title=" ">
<polygon fill="white" stroke="#666666" points="461,-211.5 298,-211.5 298,-170.5 461,-170.5 461,-211.5"/>
<text text-anchor="start" x="306" y="-199.5" font-family="Helvetica,sans-Serif" font-size="10.00">/home/runner/work/amr</text>
<text text-anchor="start" x="306" y="-188.5" font-family="Helvetica,sans-Serif" font-size="10.00">&#45;wind/amr&#45;wind/src/immersed</text>
<text text-anchor="middle" x="379.5" y="-177.5" font-family="Helvetica,sans-Serif" font-size="10.00">_boundary/bluff_body/Box.H</text>
</a>
</g>
</g>
<!-- Node13&#45;&gt;Node14 -->
<g id="edge20_Node000013_Node000014" class="edge">
<title>Node13&#45;&gt;Node14</title>
<g id="a_edge20_Node000013_Node000014"><a xlink:title=" ">
<path fill="none" stroke="#63b8ff" d="M626.19,-250.58C574.63,-238.34 510.94,-223.21 461.19,-211.4"/>
<polygon fill="#63b8ff" stroke="#63b8ff" points="625.47,-254.01 636,-252.91 627.08,-247.19 625.47,-254.01"/>
</a>
</g>
</g>
<!-- Node15 -->
<g id="Node000015" class="node">
<title>Node15</title>
<g id="a_Node000015"><a xlink:href="_cylinder_8_h.html" target="_top" xlink:title=" ">
<polygon fill="white" stroke="#666666" points="874,-211.5 699,-211.5 699,-170.5 874,-170.5 874,-211.5"/>
<text text-anchor="start" x="707" y="-199.5" font-family="Helvetica,sans-Serif" font-size="10.00">/home/runner/work/amr</text>
<text text-anchor="start" x="707" y="-188.5" font-family="Helvetica,sans-Serif" font-size="10.00">&#45;wind/amr&#45;wind/src/immersed</text>
<text text-anchor="middle" x="786.5" y="-177.5" font-family="Helvetica,sans-Serif" font-size="10.00">_boundary/bluff_body/Cylinder.H</text>
</a>
</g>
</g>
<!-- Node13&#45;&gt;Node15 -->
<g id="edge23_Node000013_Node000015" class="edge">
<title>Node13&#45;&gt;Node15</title>
<g id="a_edge23_Node000013_Node000015"><a xlink:title=" ">
<path fill="none" stroke="#63b8ff" d="M741.78,-244.94C751.02,-234 761.43,-221.68 769.88,-211.67"/>
<polygon fill="#63b8ff" stroke="#63b8ff" points="739.09,-242.7 735.31,-252.6 744.44,-247.22 739.09,-242.7"/>
</a>
</g>
</g>
<!-- Node16 -->
<g id="Node000016" class="node">
<title>Node16</title>
<g id="a_Node000016"><a xlink:href="_sphere_8_h.html" target="_top" xlink:title=" ">
<polygon fill="white" stroke="#666666" points="1099,-211.5 930,-211.5 930,-170.5 1099,-170.5 1099,-211.5"/>
<text text-anchor="start" x="938" y="-199.5" font-family="Helvetica,sans-Serif" font-size="10.00">/home/runner/work/amr</text>
<text text-anchor="start" x="938" y="-188.5" font-family="Helvetica,sans-Serif" font-size="10.00">&#45;wind/amr&#45;wind/src/immersed</text>
<text text-anchor="middle" x="1014.5" y="-177.5" font-family="Helvetica,sans-Serif" font-size="10.00">_boundary/bluff_body/Sphere.H</text>
</a>
</g>
</g>
<!-- Node13&#45;&gt;Node16 -->
<g id="edge26_Node000013_Node000016" class="edge">
<title>Node13&#45;&gt;Node16</title>
<g id="a_edge26_Node000013_Node000016"><a xlink:title=" ">
<path fill="none" stroke="#63b8ff" d="M800.19,-250.28C844.84,-238.14 899.65,-223.23 942.66,-211.54"/>
<polygon fill="#63b8ff" stroke="#63b8ff" points="799.26,-246.91 790.53,-252.91 801.1,-253.66 799.26,-246.91"/>
</a>
</g>
</g>
<!-- Node14&#45;&gt;Node4 -->
<g id="edge21_Node000014_Node000004" class="edge">
<title>Node14&#45;&gt;Node4</title>
<g id="a_edge21_Node000014_Node000004"><a xlink:title=" ">
<path fill="none" stroke="#63b8ff" d="M383.07,-160.13C384.44,-135.8 382.69,-101.56 366.5,-77 356.2,-61.37 339.88,-49.63 323.54,-41.08"/>
<polygon fill="#63b8ff" stroke="#63b8ff" points="379.57,-159.99 382.3,-170.22 386.55,-160.52 379.57,-159.99"/>
</a>
</g>
</g>
<!-- Node14&#45;&gt;Node10 -->
<g id="edge22_Node000014_Node000010" class="edge">
<title>Node14&#45;&gt;Node10</title>
<g id="a_edge22_Node000014_Node000010"><a xlink:title=" ">
<path fill="none" stroke="#63b8ff" d="M346.22,-163.98C329.68,-151.05 310.02,-135.68 294.74,-123.74"/>
<polygon fill="#63b8ff" stroke="#63b8ff" points="344.51,-167.08 354.54,-170.49 348.82,-161.57 344.51,-167.08"/>
</a>
</g>
</g>
<!-- Node15&#45;&gt;Node5 -->
<g id="edge24_Node000015_Node000005" class="edge">
<title>Node15&#45;&gt;Node5</title>
<g id="a_edge24_Node000015_Node000005"><a xlink:title=" ">
<path fill="none" stroke="#63b8ff" d="M799.99,-161.1C809.13,-136.91 817,-102.39 801.5,-77 791.72,-60.99 775.69,-49.4 758.94,-41.1"/>
<polygon fill="#63b8ff" stroke="#63b8ff" points="796.71,-159.87 796.19,-170.45 803.19,-162.5 796.71,-159.87"/>
</a>
</g>
</g>
<!-- Node15&#45;&gt;Node11 -->
<g id="edge25_Node000015_Node000011" class="edge">
<title>Node15&#45;&gt;Node11</title>
<g id="a_edge25_Node000015_Node000011"><a xlink:title=" ">
<path fill="none" stroke="#63b8ff" d="M757.97,-163.62C744.07,-150.77 727.64,-135.57 714.84,-123.74"/>
<polygon fill="#63b8ff" stroke="#63b8ff" points="755.68,-166.27 765.4,-170.49 760.43,-161.13 755.68,-166.27"/>
</a>
</g>
</g>
<!-- Node16&#45;&gt;Node6 -->
<g id="edge27_Node000016_Node000006" class="edge">
<title>Node16&#45;&gt;Node6</title>
<g id="a_edge27_Node000016_Node000006"><a xlink:title=" ">
<path fill="none" stroke="#63b8ff" d="M1035.49,-161.85C1050.5,-137.99 1065.48,-103.52 1049.5,-77 1039.87,-61.02 1023.93,-49.4 1007.34,-41.06"/>
<polygon fill="#63b8ff" stroke="#63b8ff" points="1032.4,-160.17 1029.8,-170.44 1038.24,-164.03 1032.4,-160.17"/>
</a>
</g>
</g>
<!-- Node16&#45;&gt;Node12 -->
<g id="edge28_Node000016_Node000012" class="edge">
<title>Node16&#45;&gt;Node12</title>
<g id="a_edge28_Node000016_Node000012"><a xlink:title=" ">
<path fill="none" stroke="#63b8ff" d="M992.15,-162.54C981.88,-149.92 969.93,-135.24 960.56,-123.74"/>
<polygon fill="#63b8ff" stroke="#63b8ff" points="989.59,-164.94 998.62,-170.49 995.02,-160.52 989.59,-164.94"/>
</a>
</g>
</g>
</g>
</svg>
