<?xml version="1.0" encoding="UTF-8" standalone="no"?>
<!DOCTYPE svg PUBLIC "-//W3C//DTD SVG 1.1//EN"
 "http://www.w3.org/Graphics/SVG/1.1/DTD/svg11.dtd">
<!-- Generated by graphviz version 2.43.0 (0)
 -->
<!-- Title: /home/runner/work/amr&#45;wind/amr&#45;wind/src/wind_energy/actuator/disk/Joukowsky.H Pages: 1 -->
<!--zoomable 544 -->

<svg id="main" version="1.1" xmlns="http://www.w3.org/2000/svg" xmlns:xlink="http://www.w3.org/1999/xlink" xml:space="preserve" onload="init(evt)">

<style type="text/css"><![CDATA[
.node, .edge {opacity: 0.7;}
.node.selected, .edge.selected {opacity: 1;}
.edge:hover path { stroke: red; }
.edge:hover polygon { stroke: red; fill: red; }
]]></style>

<defs>
  <circle id="rim" cx="0" cy="0" r="7"/>
  <circle id="rim2" cx="0" cy="0" r="3.5"/>
  <g id="zoomPlus">
    <use xlink:href="#rim" fill="#404040"><set attributeName="fill" to="#808080" begin="zoomplus.mouseover" end="zoomplus.mouseout"/></use>
    <path d="M-4,0h8M0,-4v8" fill="none" stroke="white" stroke-width="1.5" pointer-events="none"/>
  </g>
  <g id="zoomMin">
    <use xlink:href="#rim" fill="#404040"><set attributeName="fill" to="#808080" begin="zoomminus.mouseover" end="zoomminus.mouseout"/></use>
    <path d="M-4,0h8" fill="none" stroke="white" stroke-width="1.5" pointer-events="none"/>
  </g>
  <g id="arrowUp" transform="translate(30 24)">
    <use xlink:href="#rim"/>
    <path pointer-events="none" fill="none" stroke="white" stroke-width="1.5" d="M0,-3.0v7 M-2.5,-0.5L0,-3.0L2.5,-0.5"/>
  </g>
  <g id="arrowRight" transform="rotate(90) translate(36 -43)">
    <use xlink:href="#rim"/>
    <path pointer-events="none" fill="none" stroke="white" stroke-width="1.5" d="M0,-3.0v7 M-2.5,-0.5L0,-3.0L2.5,-0.5"/>
  </g>
  <g id="arrowDown" transform="rotate(180) translate(-30 -48)">
    <use xlink:href="#rim"/>
    <path pointer-events="none" fill="none" stroke="white" stroke-width="1.5" d="M0,-3.0v7 M-2.5,-0.5L0,-3.0L2.5,-0.5"/>
  </g>
  <g id="arrowLeft" transform="rotate(270) translate(-36 17)">
    <use xlink:href="#rim"/>
    <path pointer-events="none" fill="none" stroke="white" stroke-width="1.5" d="M0,-3.0v7 M-2.5,-0.5L0,-3.0L2.5,-0.5"/>
  </g>
  <g id="resetDef">
    <use xlink:href="#rim2" fill="#404040"><set attributeName="fill" to="#808080" begin="reset.mouseover" end="reset.mouseout"/></use>
  </g>
</defs>
<script type="application/ecmascript">
var viewWidth = 938;
var viewHeight = 544;
var sectionId = 'dynsection-0';
</script>
<script type="application/ecmascript" xlink:href="svg.min.js"/>
<svg id="graph" class="graph">
<g id="viewport">
<title>/home/runner/work/amr&#45;wind/amr&#45;wind/src/wind_energy/actuator/disk/Joukowsky.H</title>
<!-- Node1 -->
<g id="Node000001" class="node">
<title>Node1</title>
<g id="a_Node000001"><a xlink:title=" ">
<polygon fill="#999999" stroke="#666666" points="621.5,-536 436.5,-536 436.5,-495 621.5,-495 621.5,-536"/>
<text text-anchor="start" x="444.5" y="-524" font-family="Helvetica,sans-Serif" font-size="10.00">/home/runner/work/amr</text>
<text text-anchor="start" x="444.5" y="-513" font-family="Helvetica,sans-Serif" font-size="10.00">&#45;wind/amr&#45;wind/src/wind</text>
<text text-anchor="middle" x="529" y="-502" font-family="Helvetica,sans-Serif" font-size="10.00">_energy/actuator/disk/Joukowsky.H</text>
</a>
</g>
</g>
<!-- Node2 -->
<g id="Node000002" class="node">
<title>Node2</title>
<g id="a_Node000002"><a xlink:href="disk__types_8_h.html" target="_top" xlink:title=" ">
<polygon fill="white" stroke="#666666" points="648,-393 508,-393 508,-363 648,-363 648,-393"/>
<text text-anchor="start" x="516" y="-381" font-family="Helvetica,sans-Serif" font-size="10.00">src/wind_energy/actuator</text>
<text text-anchor="middle" x="578" y="-370" font-family="Helvetica,sans-Serif" font-size="10.00">/disk/disk_types.H</text>
</a>
</g>
</g>
<!-- Node1&#45;&gt;Node2 -->
<g id="edge1_Node000001_Node000002" class="edge">
<title>Node1&#45;&gt;Node2</title>
<g id="a_edge1_Node000001_Node000002"><a xlink:title=" ">
<path fill="none" stroke="#63b8ff" d="M541.29,-494.81C547.32,-484.46 554.28,-471.38 559,-459 565.9,-440.9 570.83,-419.51 573.93,-403.41"/>
<polygon fill="#63b8ff" stroke="#63b8ff" points="577.44,-403.67 575.79,-393.21 570.55,-402.42 577.44,-403.67"/>
</a>
</g>
</g>
<!-- Node8 -->
<g id="Node000008" class="node">
<title>Node8</title>
<g id="a_Node000008"><a xlink:href="vector__space_8_h.html" target="_top" xlink:title=" ">
<polygon fill="white" stroke="#666666" points="433.5,-261 330.5,-261 330.5,-231 433.5,-231 433.5,-261"/>
<text text-anchor="start" x="338.5" y="-249" font-family="Helvetica,sans-Serif" font-size="10.00">src/core/vs/vector</text>
<text text-anchor="middle" x="382" y="-238" font-family="Helvetica,sans-Serif" font-size="10.00">_space.H</text>
</a>
</g>
</g>
<!-- Node1&#45;&gt;Node8 -->
<g id="edge37_Node000001_Node000008" class="edge">
<title>Node1&#45;&gt;Node8</title>
<g id="a_edge37_Node000001_Node000008"><a xlink:title=" ">
<path fill="none" stroke="#63b8ff" d="M448.43,-494.9C430.15,-486.72 412.7,-475.2 401,-459 360,-402.23 369.29,-313.34 376.88,-270.99"/>
<polygon fill="#63b8ff" stroke="#63b8ff" points="380.34,-271.52 378.79,-261.04 373.47,-270.2 380.34,-271.52"/>
</a>
</g>
</g>
<!-- Node19 -->
<g id="Node000019" class="node">
<title>Node19</title>
<g id="a_Node000019"><a xlink:title=" ">
<polygon fill="#e0e0e0" stroke="#999999" points="788,-19 696,-19 696,0 788,0 788,-19"/>
<text text-anchor="middle" x="742" y="-7" font-family="Helvetica,sans-Serif" font-size="10.00">AMReX_REAL.H</text>
</a>
</g>
</g>
<!-- Node1&#45;&gt;Node19 -->
<g id="edge38_Node000001_Node000019" class="edge">
<title>Node1&#45;&gt;Node19</title>
<g id="a_edge38_Node000001_Node000019"><a xlink:title=" ">
<path fill="none" stroke="#63b8ff" d="M621.5,-502.1C739.93,-483.57 930,-443.76 930,-379 930,-379 930,-379 930,-129.5 930,-66.46 853.59,-35.43 798.2,-21.22"/>
<polygon fill="#63b8ff" stroke="#63b8ff" points="799.02,-17.82 788.47,-18.84 797.35,-24.62 799.02,-17.82"/>
</a>
</g>
</g>
<!-- Node23 -->
<g id="Node000023" class="node">
<title>Node23</title>
<g id="a_Node000023"><a xlink:href="_actuator_disk_8_h.html" target="_top" xlink:title=" ">
<polygon fill="white" stroke="#666666" points="550,-459 410,-459 410,-429 550,-429 550,-459"/>
<text text-anchor="start" x="418" y="-447" font-family="Helvetica,sans-Serif" font-size="10.00">src/wind_energy/actuator</text>
<text text-anchor="middle" x="480" y="-436" font-family="Helvetica,sans-Serif" font-size="10.00">/disk/ActuatorDisk.H</text>
</a>
</g>
</g>
<!-- Node1&#45;&gt;Node23 -->
<g id="edge33_Node000001_Node000023" class="edge">
<title>Node1&#45;&gt;Node23</title>
<g id="a_edge33_Node000001_Node000023"><a xlink:title=" ">
<path fill="none" stroke="#63b8ff" d="M515.09,-494.77C509.06,-486.22 501.98,-476.17 495.76,-467.35"/>
<polygon fill="#63b8ff" stroke="#63b8ff" points="498.52,-465.19 489.9,-459.04 492.8,-469.23 498.52,-465.19"/>
</a>
</g>
</g>
<!-- Node3 -->
<g id="Node000003" class="node">
<title>Node3</title>
<g id="a_Node000003"><a xlink:href="actuator__types_8_h.html" target="_top" xlink:title=" ">
<polygon fill="white" stroke="#666666" points="662,-327 522,-327 522,-297 662,-297 662,-327"/>
<text text-anchor="start" x="530" y="-315" font-family="Helvetica,sans-Serif" font-size="10.00">src/wind_energy/actuator</text>
<text text-anchor="middle" x="592" y="-304" font-family="Helvetica,sans-Serif" font-size="10.00">/actuator_types.H</text>
</a>
</g>
</g>
<!-- Node2&#45;&gt;Node3 -->
<g id="edge2_Node000002_Node000003" class="edge">
<title>Node2&#45;&gt;Node3</title>
<g id="a_edge2_Node000002_Node000003"><a xlink:title=" ">
<path fill="none" stroke="#63b8ff" d="M581.11,-362.8C582.76,-355.26 584.83,-345.78 586.72,-337.13"/>
<polygon fill="#63b8ff" stroke="#63b8ff" points="590.18,-337.68 588.9,-327.16 583.35,-336.19 590.18,-337.68"/>
</a>
</g>
</g>
<!-- Node4 -->
<g id="Node000004" class="node">
<title>Node4</title>
<g id="a_Node000004"><a xlink:href="_slice_8_h.html" target="_top" xlink:title=" ">
<polygon fill="white" stroke="#666666" points="738,-255.5 646,-255.5 646,-236.5 738,-236.5 738,-255.5"/>
<text text-anchor="middle" x="692" y="-243.5" font-family="Helvetica,sans-Serif" font-size="10.00">src/core/Slice.H</text>
</a>
</g>
</g>
<!-- Node3&#45;&gt;Node4 -->
<g id="edge3_Node000003_Node000004" class="edge">
<title>Node3&#45;&gt;Node4</title>
<g id="a_edge3_Node000003_Node000004"><a xlink:title=" ">
<path fill="none" stroke="#63b8ff" d="M614.19,-296.8C630.8,-286.17 653.4,-271.7 669.97,-261.1"/>
<polygon fill="#63b8ff" stroke="#63b8ff" points="671.94,-264 678.47,-255.66 668.16,-258.1 671.94,-264"/>
</a>
</g>
</g>
<!-- Node7 -->
<g id="Node000007" class="node">
<title>Node7</title>
<g id="a_Node000007"><a xlink:title=" ">
<polygon fill="#e0e0e0" stroke="#999999" points="518.5,-19 431.5,-19 431.5,0 518.5,0 518.5,-19"/>
<text text-anchor="middle" x="475" y="-7" font-family="Helvetica,sans-Serif" font-size="10.00">AMReX_Gpu.H</text>
</a>
</g>
</g>
<!-- Node3&#45;&gt;Node7 -->
<g id="edge28_Node000003_Node000007" class="edge">
<title>Node3&#45;&gt;Node7</title>
<g id="a_edge28_Node000003_Node000007"><a xlink:title=" ">
<path fill="none" stroke="#63b8ff" d="M564.11,-296.93C549.82,-288.38 533.31,-276.17 523,-261 503.8,-232.73 504,-220.67 504,-186.5 504,-186.5 504,-186.5 504,-129.5 504,-92.97 490.94,-51.88 482.35,-28.8"/>
<polygon fill="#63b8ff" stroke="#63b8ff" points="485.54,-27.35 478.67,-19.28 479.01,-29.87 485.54,-27.35"/>
</a>
</g>
</g>
<!-- Node3&#45;&gt;Node8 -->
<g id="edge7_Node000003_Node000008" class="edge">
<title>Node3&#45;&gt;Node8</title>
<g id="a_edge7_Node000003_Node000008"><a xlink:title=" ">
<path fill="none" stroke="#63b8ff" d="M545.91,-296.95C514.05,-287.24 471.47,-274.27 437.7,-263.98"/>
<polygon fill="#63b8ff" stroke="#63b8ff" points="438.56,-260.58 427.98,-261.01 436.52,-267.28 438.56,-260.58"/>
</a>
</g>
</g>
<!-- Node3&#45;&gt;Node19 -->
<g id="edge32_Node000003_Node000019" class="edge">
<title>Node3&#45;&gt;Node19</title>
<g id="a_edge32_Node000003_Node000019"><a xlink:title=" ">
<path fill="none" stroke="#63b8ff" d="M662.26,-307.06C735.3,-301.51 843.09,-288.78 873,-261 898.04,-237.74 892,-220.67 892,-186.5 892,-186.5 892,-186.5 892,-129.5 892,-72.79 825.39,-38.82 780.94,-22.46"/>
<polygon fill="#63b8ff" stroke="#63b8ff" points="781.87,-19.08 771.28,-19.05 779.54,-25.68 781.87,-19.08"/>
</a>
</g>
</g>
<!-- Node20 -->
<g id="Node000020" class="node">
<title>Node20</title>
<g id="a_Node000020"><a xlink:title=" ">
<polygon fill="#e0e0e0" stroke="#999999" points="864,-255.5 756,-255.5 756,-236.5 864,-236.5 864,-255.5"/>
<text text-anchor="middle" x="810" y="-243.5" font-family="Helvetica,sans-Serif" font-size="10.00">AMReX_RealBox.H</text>
</a>
</g>
</g>
<!-- Node3&#45;&gt;Node20 -->
<g id="edge29_Node000003_Node000020" class="edge">
<title>Node3&#45;&gt;Node20</title>
<g id="a_edge29_Node000003_Node000020"><a xlink:title=" ">
<path fill="none" stroke="#63b8ff" d="M639.84,-296.95C679.25,-285.38 734.43,-269.18 771.15,-258.41"/>
<polygon fill="#63b8ff" stroke="#63b8ff" points="772.38,-261.69 780.99,-255.52 770.41,-254.98 772.38,-261.69"/>
</a>
</g>
</g>
<!-- Node21 -->
<g id="Node000021" class="node">
<title>Node21</title>
<g id="a_Node000021"><a xlink:title=" ">
<polygon fill="#e0e0e0" stroke="#999999" points="564,-255.5 532,-255.5 532,-236.5 564,-236.5 564,-255.5"/>
<text text-anchor="middle" x="548" y="-243.5" font-family="Helvetica,sans-Serif" font-size="10.00">set</text>
</a>
</g>
</g>
<!-- Node3&#45;&gt;Node21 -->
<g id="edge30_Node000003_Node000021" class="edge">
<title>Node3&#45;&gt;Node21</title>
<g id="a_edge30_Node000003_Node000021"><a xlink:title=" ">
<path fill="none" stroke="#63b8ff" d="M582.23,-296.8C575.64,-287.21 566.91,-274.5 559.91,-264.32"/>
<polygon fill="#63b8ff" stroke="#63b8ff" points="562.63,-262.1 554.08,-255.84 556.86,-266.07 562.63,-262.1"/>
</a>
</g>
</g>
<!-- Node22 -->
<g id="Node000022" class="node">
<title>Node22</title>
<g id="a_Node000022"><a xlink:title=" ">
<polygon fill="#e0e0e0" stroke="#999999" points="627.5,-255.5 582.5,-255.5 582.5,-236.5 627.5,-236.5 627.5,-255.5"/>
<text text-anchor="middle" x="605" y="-243.5" font-family="Helvetica,sans-Serif" font-size="10.00">utility</text>
</a>
</g>
</g>
<!-- Node3&#45;&gt;Node22 -->
<g id="edge31_Node000003_Node000022" class="edge">
<title>Node3&#45;&gt;Node22</title>
<g id="a_edge31_Node000003_Node000022"><a xlink:title=" ">
<path fill="none" stroke="#63b8ff" d="M594.89,-296.8C596.73,-287.7 599.15,-275.79 601.16,-265.9"/>
<polygon fill="#63b8ff" stroke="#63b8ff" points="604.64,-266.34 603.2,-255.84 597.78,-264.95 604.64,-266.34"/>
</a>
</g>
</g>
<!-- Node5 -->
<g id="Node000005" class="node">
<title>Node5</title>
<g id="a_Node000005"><a xlink:title=" ">
<polygon fill="#e0e0e0" stroke="#999999" points="803.5,-195 750.5,-195 750.5,-176 803.5,-176 803.5,-195"/>
<text text-anchor="middle" x="777" y="-183" font-family="Helvetica,sans-Serif" font-size="10.00">iterator</text>
</a>
</g>
</g>
<!-- Node4&#45;&gt;Node5 -->
<g id="edge4_Node000004_Node000005" class="edge">
<title>Node4&#45;&gt;Node5</title>
<g id="a_edge4_Node000004_Node000005"><a xlink:title=" ">
<path fill="none" stroke="#63b8ff" d="M704.54,-236.37C718.1,-227.04 739.94,-212.01 756.1,-200.88"/>
<polygon fill="#63b8ff" stroke="#63b8ff" points="758.15,-203.72 764.41,-195.17 754.18,-197.95 758.15,-203.72"/>
</a>
</g>
</g>
<!-- Node6 -->
<g id="Node000006" class="node">
<title>Node6</title>
<g id="a_Node000006"><a xlink:title=" ">
<polygon fill="#e0e0e0" stroke="#999999" points="732,-195 634,-195 634,-176 732,-176 732,-195"/>
<text text-anchor="middle" x="683" y="-183" font-family="Helvetica,sans-Serif" font-size="10.00">AMReX_Vector.H</text>
</a>
</g>
</g>
<!-- Node4&#45;&gt;Node6 -->
<g id="edge5_Node000004_Node000006" class="edge">
<title>Node4&#45;&gt;Node6</title>
<g id="a_edge5_Node000004_Node000006"><a xlink:title=" ">
<path fill="none" stroke="#63b8ff" d="M690.67,-236.37C689.41,-228.16 687.47,-215.54 685.85,-205.05"/>
<polygon fill="#63b8ff" stroke="#63b8ff" points="689.31,-204.52 684.33,-195.17 682.39,-205.58 689.31,-204.52"/>
</a>
</g>
</g>
<!-- Node4&#45;&gt;Node7 -->
<g id="edge6_Node000004_Node000007" class="edge">
<title>Node4&#45;&gt;Node7</title>
<g id="a_edge6_Node000004_Node000007"><a xlink:title=" ">
<path fill="none" stroke="#63b8ff" d="M678.3,-236.41C664.11,-227.16 641.72,-211.53 625,-195 569.31,-139.94 569.07,-114.37 518,-55 509.5,-45.13 499.41,-34.62 491.14,-26.3"/>
<polygon fill="#63b8ff" stroke="#63b8ff" points="493.44,-23.65 483.88,-19.08 488.5,-28.61 493.44,-23.65"/>
</a>
</g>
</g>
<!-- Node9 -->
<g id="Node000009" class="node">
<title>Node9</title>
<g id="a_Node000009"><a xlink:href="vector_8_h.html" target="_top" xlink:title=" ">
<polygon fill="white" stroke="#666666" points="252.5,-140 139.5,-140 139.5,-121 252.5,-121 252.5,-140"/>
<text text-anchor="middle" x="196" y="-128" font-family="Helvetica,sans-Serif" font-size="10.00">src/core/vs/vector.H</text>
</a>
</g>
</g>
<!-- Node8&#45;&gt;Node9 -->
<g id="edge8_Node000008_Node000009" class="edge">
<title>Node8&#45;&gt;Node9</title>
<g id="a_edge8_Node000008_Node000009"><a xlink:title=" ">
<path fill="none" stroke="#63b8ff" d="M358.82,-230.85C323.06,-209.03 254.85,-167.41 219.13,-145.61"/>
<polygon fill="#63b8ff" stroke="#63b8ff" points="220.73,-142.49 210.37,-140.27 217.09,-148.47 220.73,-142.49"/>
</a>
</g>
</g>
<!-- Node15 -->
<g id="Node000015" class="node">
<title>Node15</title>
<g id="a_Node000015"><a xlink:href="tensor_8_h.html" target="_top" xlink:title=" ">
<polygon fill="white" stroke="#666666" points="434.5,-195 321.5,-195 321.5,-176 434.5,-176 434.5,-195"/>
<text text-anchor="middle" x="378" y="-183" font-family="Helvetica,sans-Serif" font-size="10.00">src/core/vs/tensor.H</text>
</a>
</g>
</g>
<!-- Node8&#45;&gt;Node15 -->
<g id="edge16_Node000008_Node000015" class="edge">
<title>Node8&#45;&gt;Node15</title>
<g id="a_edge16_Node000008_Node000015"><a xlink:title=" ">
<path fill="none" stroke="#63b8ff" d="M381.03,-230.84C380.51,-223.21 379.86,-213.7 379.3,-205.45"/>
<polygon fill="#63b8ff" stroke="#63b8ff" points="382.77,-205 378.6,-195.27 375.79,-205.48 382.77,-205"/>
</a>
</g>
</g>
<!-- Node9&#45;&gt;Node7 -->
<g id="edge9_Node000009_Node000007" class="edge">
<title>Node9&#45;&gt;Node7</title>
<g id="a_edge9_Node000009_Node000007"><a xlink:title=" ">
<path fill="none" stroke="#63b8ff" d="M210.64,-120.84C236.11,-106.02 290.49,-75.41 339,-55 370.3,-41.83 406.96,-30.03 434.32,-21.9"/>
<polygon fill="#63b8ff" stroke="#63b8ff" points="435.35,-25.25 443.96,-19.08 433.38,-18.53 435.35,-25.25"/>
</a>
</g>
</g>
<!-- Node10 -->
<g id="Node000010" class="node">
<title>Node10</title>
<g id="a_Node000010"><a xlink:href="vstraits_8_h.html" target="_top" xlink:title=" ">
<polygon fill="white" stroke="#666666" points="253.5,-79.5 134.5,-79.5 134.5,-60.5 253.5,-60.5 253.5,-79.5"/>
<text text-anchor="middle" x="194" y="-67.5" font-family="Helvetica,sans-Serif" font-size="10.00">src/core/vs/vstraits.H</text>
</a>
</g>
</g>
<!-- Node9&#45;&gt;Node10 -->
<g id="edge10_Node000009_Node000010" class="edge">
<title>Node9&#45;&gt;Node10</title>
<g id="a_edge10_Node000009_Node000010"><a xlink:title=" ">
<path fill="none" stroke="#63b8ff" d="M195.7,-120.87C195.43,-112.75 195,-100.31 194.65,-89.89"/>
<polygon fill="#63b8ff" stroke="#63b8ff" points="198.14,-89.54 194.3,-79.67 191.14,-89.78 198.14,-89.54"/>
</a>
</g>
</g>
<!-- Node12 -->
<g id="Node000012" class="node">
<title>Node12</title>
<g id="a_Node000012"><a xlink:href="vector_i_8_h.html" target="_top" xlink:title=" ">
<polygon fill="white" stroke="#666666" points="116,-79.5 0,-79.5 0,-60.5 116,-60.5 116,-79.5"/>
<text text-anchor="middle" x="58" y="-67.5" font-family="Helvetica,sans-Serif" font-size="10.00">src/core/vs/vectorI.H</text>
</a>
</g>
</g>
<!-- Node9&#45;&gt;Node12 -->
<g id="edge12_Node000009_Node000012" class="edge">
<title>Node9&#45;&gt;Node12</title>
<g id="a_edge12_Node000009_Node000012"><a xlink:title=" ">
<path fill="none" stroke="#63b8ff" d="M171.01,-120.99C145.76,-111.2 107.34,-95.02 82.34,-83.73"/>
<polygon fill="#63b8ff" stroke="#63b8ff" points="83.71,-80.5 73.16,-79.52 80.79,-86.87 83.71,-80.5"/>
</a>
</g>
</g>
<!-- Node11 -->
<g id="Node000011" class="node">
<title>Node11</title>
<g id="a_Node000011"><a xlink:title=" ">
<polygon fill="#e0e0e0" stroke="#999999" points="216,-19 172,-19 172,0 216,0 216,-19"/>
<text text-anchor="middle" x="194" y="-7" font-family="Helvetica,sans-Serif" font-size="10.00">limits</text>
</a>
</g>
</g>
<!-- Node10&#45;&gt;Node11 -->
<g id="edge11_Node000010_Node000011" class="edge">
<title>Node10&#45;&gt;Node11</title>
<g id="a_edge11_Node000010_Node000011"><a xlink:title=" ">
<path fill="none" stroke="#63b8ff" d="M194,-60.37C194,-52.25 194,-39.81 194,-29.39"/>
<polygon fill="#63b8ff" stroke="#63b8ff" points="197.5,-29.17 194,-19.17 190.5,-29.17 197.5,-29.17"/>
</a>
</g>
</g>
<!-- Node12&#45;&gt;Node9 -->
<g id="edge15_Node000012_Node000009" class="edge">
<title>Node12&#45;&gt;Node9</title>
<g id="a_edge15_Node000012_Node000009"><a xlink:title=" ">
<path fill="none" stroke="#63b8ff" d="M83.02,-79.52C108.27,-89.31 146.69,-105.49 171.68,-116.78"/>
<polygon fill="#63b8ff" stroke="#63b8ff" points="170.31,-120.01 180.86,-120.99 173.23,-113.64 170.31,-120.01"/>
</a>
</g>
</g>
<!-- Node13 -->
<g id="Node000013" class="node">
<title>Node13</title>
<g id="a_Node000013"><a xlink:title=" ">
<polygon fill="#e0e0e0" stroke="#999999" points="86.5,-19 29.5,-19 29.5,0 86.5,0 86.5,-19"/>
<text text-anchor="middle" x="58" y="-7" font-family="Helvetica,sans-Serif" font-size="10.00">ostream</text>
</a>
</g>
</g>
<!-- Node12&#45;&gt;Node13 -->
<g id="edge13_Node000012_Node000013" class="edge">
<title>Node12&#45;&gt;Node13</title>
<g id="a_edge13_Node000012_Node000013"><a xlink:title=" ">
<path fill="none" stroke="#63b8ff" d="M58,-60.37C58,-52.25 58,-39.81 58,-29.39"/>
<polygon fill="#63b8ff" stroke="#63b8ff" points="61.5,-29.17 58,-19.17 54.5,-29.17 61.5,-29.17"/>
</a>
</g>
</g>
<!-- Node14 -->
<g id="Node000014" class="node">
<title>Node14</title>
<g id="a_Node000014"><a xlink:title=" ">
<polygon fill="#e0e0e0" stroke="#999999" points="305.5,-19 258.5,-19 258.5,0 305.5,0 305.5,-19"/>
<text text-anchor="middle" x="282" y="-7" font-family="Helvetica,sans-Serif" font-size="10.00">cmath</text>
</a>
</g>
</g>
<!-- Node12&#45;&gt;Node14 -->
<g id="edge14_Node000012_Node000014" class="edge">
<title>Node12&#45;&gt;Node14</title>
<g id="a_edge14_Node000012_Node000014"><a xlink:title=" ">
<path fill="none" stroke="#63b8ff" d="M90.57,-60.49C132.72,-49.49 205.79,-30.4 248.42,-19.27"/>
<polygon fill="#63b8ff" stroke="#63b8ff" points="249.52,-22.6 258.31,-16.69 247.75,-15.83 249.52,-22.6"/>
</a>
</g>
</g>
<!-- Node15&#45;&gt;Node7 -->
<g id="edge17_Node000015_Node000007" class="edge">
<title>Node15&#45;&gt;Node7</title>
<g id="a_edge17_Node000015_Node000007"><a xlink:title=" ">
<path fill="none" stroke="#63b8ff" d="M398.67,-175.89C413.78,-168.54 433.55,-156.53 445,-140 468.48,-106.13 473.8,-56.5 474.87,-29.58"/>
<polygon fill="#63b8ff" stroke="#63b8ff" points="478.38,-29.32 475.11,-19.24 471.38,-29.16 478.38,-29.32"/>
</a>
</g>
</g>
<!-- Node15&#45;&gt;Node9 -->
<g id="edge19_Node000015_Node000009" class="edge">
<title>Node15&#45;&gt;Node9</title>
<g id="a_edge19_Node000015_Node000009"><a xlink:title=" ">
<path fill="none" stroke="#63b8ff" d="M348.76,-175.98C317.94,-167.01 269.22,-152.82 235.11,-142.89"/>
<polygon fill="#63b8ff" stroke="#63b8ff" points="236.05,-139.52 225.47,-140.08 234.09,-146.24 236.05,-139.52"/>
</a>
</g>
</g>
<!-- Node15&#45;&gt;Node10 -->
<g id="edge18_Node000015_Node000010" class="edge">
<title>Node15&#45;&gt;Node10</title>
<g id="a_edge18_Node000015_Node000010"><a xlink:title=" ">
<path fill="none" stroke="#63b8ff" d="M364.17,-175.97C332.73,-156.58 255.65,-109.03 216.95,-85.16"/>
<polygon fill="#63b8ff" stroke="#63b8ff" points="218.34,-81.9 207.99,-79.63 214.66,-87.86 218.34,-81.9"/>
</a>
</g>
</g>
<!-- Node16 -->
<g id="Node000016" class="node">
<title>Node16</title>
<g id="a_Node000016"><a xlink:href="tensor_i_8_h.html" target="_top" xlink:title=" ">
<polygon fill="white" stroke="#666666" points="436,-140 320,-140 320,-121 436,-121 436,-140"/>
<text text-anchor="middle" x="378" y="-128" font-family="Helvetica,sans-Serif" font-size="10.00">src/core/vs/tensorI.H</text>
</a>
</g>
</g>
<!-- Node15&#45;&gt;Node16 -->
<g id="edge20_Node000015_Node000016" class="edge">
<title>Node15&#45;&gt;Node16</title>
<g id="a_edge20_Node000015_Node000016"><a xlink:title=" ">
<path fill="none" stroke="#63b8ff" d="M372.83,-175.75C371.34,-168.8 370.9,-158.85 371.52,-150.13"/>
<polygon fill="#63b8ff" stroke="#63b8ff" points="375.01,-150.47 372.87,-140.09 368.07,-149.53 375.01,-150.47"/>
</a>
</g>
</g>
<!-- Node16&#45;&gt;Node14 -->
<g id="edge21_Node000016_Node000014" class="edge">
<title>Node16&#45;&gt;Node14</title>
<g id="a_edge21_Node000016_Node000014"><a xlink:title=" ">
<path fill="none" stroke="#63b8ff" d="M370.05,-120.78C362.05,-111.92 349.42,-97.71 339,-85 323.27,-65.8 306.07,-43.07 294.73,-27.8"/>
<polygon fill="#63b8ff" stroke="#63b8ff" points="297.25,-25.32 288.48,-19.36 291.62,-29.48 297.25,-25.32"/>
</a>
</g>
</g>
<!-- Node16&#45;&gt;Node15 -->
<g id="edge22_Node000016_Node000015" class="edge">
<title>Node16&#45;&gt;Node15</title>
<g id="a_edge22_Node000016_Node000015"><a xlink:title=" ">
<path fill="none" stroke="#63b8ff" d="M383.13,-140.09C384.64,-146.99 385.09,-156.93 384.49,-165.66"/>
<polygon fill="#63b8ff" stroke="#63b8ff" points="381,-165.38 383.17,-175.75 387.94,-166.29 381,-165.38"/>
</a>
</g>
</g>
<!-- Node17 -->
<g id="Node000017" class="node">
<title>Node17</title>
<g id="a_Node000017"><a xlink:href="trig__ops_8_h.html" target="_top" xlink:title=" ">
<polygon fill="white" stroke="#666666" points="438,-85 348,-85 348,-55 438,-55 438,-85"/>
<text text-anchor="start" x="356" y="-73" font-family="Helvetica,sans-Serif" font-size="10.00">src/utilities/trig</text>
<text text-anchor="middle" x="393" y="-62" font-family="Helvetica,sans-Serif" font-size="10.00">_ops.H</text>
</a>
</g>
</g>
<!-- Node16&#45;&gt;Node17 -->
<g id="edge23_Node000016_Node000017" class="edge">
<title>Node16&#45;&gt;Node17</title>
<g id="a_edge23_Node000016_Node000017"><a xlink:title=" ">
<path fill="none" stroke="#63b8ff" d="M380.21,-120.87C381.97,-114.03 384.5,-104.14 386.85,-94.97"/>
<polygon fill="#63b8ff" stroke="#63b8ff" points="390.29,-95.67 389.38,-85.11 383.51,-93.93 390.29,-95.67"/>
</a>
</g>
</g>
<!-- Node17&#45;&gt;Node7 -->
<g id="edge27_Node000017_Node000007" class="edge">
<title>Node17&#45;&gt;Node7</title>
<g id="a_edge27_Node000017_Node000007"><a xlink:title=" ">
<path fill="none" stroke="#63b8ff" d="M412.85,-54.84C425.48,-45.83 441.8,-34.18 454.55,-25.09"/>
<polygon fill="#63b8ff" stroke="#63b8ff" points="456.6,-27.92 462.71,-19.27 452.54,-22.22 456.6,-27.92"/>
</a>
</g>
</g>
<!-- Node17&#45;&gt;Node14 -->
<g id="edge24_Node000017_Node000014" class="edge">
<title>Node17&#45;&gt;Node14</title>
<g id="a_edge24_Node000017_Node000014"><a xlink:title=" ">
<path fill="none" stroke="#63b8ff" d="M366.41,-54.99C348.55,-45.58 325.16,-33.24 307.52,-23.95"/>
<polygon fill="#63b8ff" stroke="#63b8ff" points="308.87,-20.71 298.39,-19.14 305.61,-26.9 308.87,-20.71"/>
</a>
</g>
</g>
<!-- Node18 -->
<g id="Node000018" class="node">
<title>Node18</title>
<g id="a_Node000018"><a xlink:title=" ">
<polygon fill="#e0e0e0" stroke="#999999" points="413.5,-19 354.5,-19 354.5,0 413.5,0 413.5,-19"/>
<text text-anchor="middle" x="384" y="-7" font-family="Helvetica,sans-Serif" font-size="10.00">numbers</text>
</a>
</g>
</g>
<!-- Node17&#45;&gt;Node18 -->
<g id="edge25_Node000017_Node000018" class="edge">
<title>Node17&#45;&gt;Node18</title>
<g id="a_edge25_Node000017_Node000018"><a xlink:title=" ">
<path fill="none" stroke="#63b8ff" d="M390.82,-54.84C389.63,-47.13 388.15,-37.49 386.87,-29.17"/>
<polygon fill="#63b8ff" stroke="#63b8ff" points="390.33,-28.62 385.35,-19.27 383.41,-29.68 390.33,-28.62"/>
</a>
</g>
</g>
<!-- Node17&#45;&gt;Node19 -->
<g id="edge26_Node000017_Node000019" class="edge">
<title>Node17&#45;&gt;Node19</title>
<g id="a_edge26_Node000017_Node000019"><a xlink:title=" ">
<path fill="none" stroke="#63b8ff" d="M438.27,-61.41C501.69,-50.78 616.91,-31.47 685.76,-19.93"/>
<polygon fill="#63b8ff" stroke="#63b8ff" points="686.7,-23.32 695.98,-18.21 685.54,-16.42 686.7,-23.32"/>
</a>
</g>
</g>
<!-- Node23&#45;&gt;Node2 -->
<g id="edge34_Node000023_Node000002" class="edge">
<title>Node23&#45;&gt;Node2</title>
<g id="a_edge34_Node000023_Node000002"><a xlink:title=" ">
<path fill="none" stroke="#63b8ff" d="M501.75,-428.8C515.33,-419.93 532.99,-408.39 547.9,-398.66"/>
<polygon fill="#63b8ff" stroke="#63b8ff" points="549.85,-401.56 556.31,-393.16 546.02,-395.7 549.85,-401.56"/>
</a>
</g>
</g>
<!-- Node23&#45;&gt;Node8 -->
<g id="edge35_Node000023_Node000008" class="edge">
<title>Node23&#45;&gt;Node8</title>
<g id="a_edge35_Node000023_Node000008"><a xlink:title=" ">
<path fill="none" stroke="#63b8ff" d="M471.67,-428.69C465.97,-418.76 458.33,-405.19 452,-393 429.87,-350.37 406.1,-299.61 392.74,-270.56"/>
<polygon fill="#63b8ff" stroke="#63b8ff" points="395.81,-268.87 388.46,-261.24 389.45,-271.79 395.81,-268.87"/>
</a>
</g>
</g>
<!-- Node23&#45;&gt;Node19 -->
<g id="edge36_Node000023_Node000019" class="edge">
<title>Node23&#45;&gt;Node19</title>
<g id="a_edge36_Node000023_Node000019"><a xlink:title=" ">
<path fill="none" stroke="#63b8ff" d="M480.12,-428.94C480.99,-393.53 486.78,-298.73 523,-231 573.34,-136.86 676.7,-56.52 721.04,-24.88"/>
<polygon fill="#63b8ff" stroke="#63b8ff" points="723.16,-27.67 729.33,-19.05 719.13,-21.94 723.16,-27.67"/>
</a>
</g>
</g>
</g>
</svg>

<g id="navigator" transform="translate(0 0)" fill="#404254">
  <rect fill="#f2f5e9" fill-opacity="0.5" stroke="#606060" stroke-width=".5" x="0" y="0" width="60" height="60"/>
  <use id="zoomplus" xlink:href="#zoomPlus" x="17" y="9" onmousedown="handleZoom(evt,'in')"/>
  <use id="zoomminus" xlink:href="#zoomMin" x="42" y="9" onmousedown="handleZoom(evt,'out')"/>
  <use id="reset" xlink:href="#resetDef" x="30" y="36" onmousedown="handleReset()"/>
   <use id="arrowup" xlink:href="#arrowUp" x="0" y="0" onmousedown="handlePan(0,-1)"/>
  <use id="arrowright" xlink:href="#arrowRight" x="0" y="0" onmousedown="handlePan(1,0)"/>
  <use id="arrowdown" xlink:href="#arrowDown" x="0" y="0" onmousedown="handlePan(0,1)"/>
  <use id="arrowleft" xlink:href="#arrowLeft" x="0" y="0" onmousedown="handlePan(-1,0)"/>
</g>
<svg viewBox="0 0 15 15" width="100%" height="30px" preserveAspectRatio="xMaxYMin meet">
 <g id="arrow_out" transform="scale(0.3 0.3)">
  <a xlink:href="_joukowsky_8_h__incl_org.svg" target="_base">
   <rect id="button" ry="5" rx="5" y="6" x="6" height="38" width="38"
        fill="#f2f5e9" fill-opacity="0.5" stroke="#606060" stroke-width="1.0"/>
   <path id="arrow"
     d="M 11.500037,31.436501 C 11.940474,20.09759 22.043105,11.32322 32.158766,21.979434 L 37.068811,17.246167 C 37.068811,17.246167 37.088388,32 37.088388,32 L 22.160133,31.978069 C 22.160133,31.978069 26.997745,27.140456 26.997745,27.140456 C 18.528582,18.264221 13.291696,25.230495 11.500037,31.436501 z"
     style="fill:#404040;"/>
  </a>
 </g>
</svg>

<style type='text/css'>
<![CDATA[
[data-mouse-over-selected='false'] { opacity: 0.7; }
[data-mouse-over-selected='true']  { opacity: 1.0; }
]]>
</style>
<script type="application/ecmascript"><![CDATA[
document.addEventListener('DOMContentLoaded', (event) => {
  highlightEdges();
  highlightAdjacentNodes();
});
]]></script>
</svg>
