<?xml version="1.0" encoding="UTF-8" standalone="no"?>
<!DOCTYPE svg PUBLIC "-//W3C//DTD SVG 1.1//EN"
 "http://www.w3.org/Graphics/SVG/1.1/DTD/svg11.dtd">
<!-- Generated by graphviz version 2.43.0 (0)
 -->
<!-- Title: /home/runner/work/amr&#45;wind/amr&#45;wind/src/turbulence/RANS/KOmegaSST.H Pages: 1 -->
<svg width="412pt" height="203pt"
 viewBox="0.00 0.00 412.00 203.00" xmlns="http://www.w3.org/2000/svg" xmlns:xlink="http://www.w3.org/1999/xlink">

<svg id="main" version="1.1" xmlns="http://www.w3.org/2000/svg" xmlns:xlink="http://www.w3.org/1999/xlink" xml:space="preserve">

<style type="text/css"><![CDATA[
.node, .edge {opacity: 0.7;}
.node.selected, .edge.selected {opacity: 1;}
.edge:hover path { stroke: red; }
.edge:hover polygon { stroke: red; fill: red; }
]]></style>
<script type="application/ecmascript" xlink:href="svg.min.js"/>
<svg id="graph" class="graph">
<g id="graph0" class="graph" transform="scale(1 1) rotate(0) translate(4 199)">
<title>/home/runner/work/amr&#45;wind/amr&#45;wind/src/turbulence/RANS/KOmegaSST.H</title>
<!-- Node1 -->
<g id="Node000001" class="node">
<title>Node1</title>
<g id="a_Node000001"><a xlink:title=" ">
<polygon fill="#999999" stroke="#666666" points="221,-195 56,-195 56,-154 221,-154 221,-195"/>
<text text-anchor="start" x="64" y="-183" font-family="Helvetica,sans-Serif" font-size="10.00">/home/runner/work/amr</text>
<text text-anchor="start" x="64" y="-172" font-family="Helvetica,sans-Serif" font-size="10.00">&#45;wind/amr&#45;wind/src/turbulence</text>
<text text-anchor="middle" x="138.5" y="-161" font-family="Helvetica,sans-Serif" font-size="10.00">/RANS/KOmegaSST.H</text>
</a>
</g>
</g>
<!-- Node2 -->
<g id="Node000002" class="node">
<title>Node2</title>
<g id="a_Node000002"><a xlink:href="_k_omega_s_s_t_8cpp.html" target="_top" xlink:title=" ">
<polygon fill="white" stroke="#666666" points="165,-41 0,-41 0,0 165,0 165,-41"/>
<text text-anchor="start" x="8" y="-29" font-family="Helvetica,sans-Serif" font-size="10.00">/home/runner/work/amr</text>
<text text-anchor="start" x="8" y="-18" font-family="Helvetica,sans-Serif" font-size="10.00">&#45;wind/amr&#45;wind/src/turbulence</text>
<text text-anchor="middle" x="82.5" y="-7" font-family="Helvetica,sans-Serif" font-size="10.00">/RANS/KOmegaSST.cpp</text>
</a>
</g>
</g>
<!-- Node1&#45;&gt;Node2 -->
<g id="edge1_Node000001_Node000002" class="edge">
<title>Node1&#45;&gt;Node2</title>
<g id="a_edge1_Node000001_Node000002"><a xlink:title=" ">
<path fill="none" stroke="#63b8ff" d="M77.29,-148.69C64.99,-140.77 53.65,-130.67 46.5,-118 32.35,-92.93 50.23,-61.23 65.46,-41.15"/>
<polygon fill="#63b8ff" stroke="#63b8ff" points="75.54,-151.73 85.93,-153.83 79.13,-145.71 75.54,-151.73"/>
</a>
</g>
</g>
<!-- Node3 -->
<g id="Node000003" class="node">
<title>Node3</title>
<g id="a_Node000003"><a xlink:href="_k_omega_s_s_t_i_8_h.html" target="_top" xlink:title=" ">
<polygon fill="white" stroke="#666666" points="221,-118 56,-118 56,-77 221,-77 221,-118"/>
<text text-anchor="start" x="64" y="-106" font-family="Helvetica,sans-Serif" font-size="10.00">/home/runner/work/amr</text>
<text text-anchor="start" x="64" y="-95" font-family="Helvetica,sans-Serif" font-size="10.00">&#45;wind/amr&#45;wind/src/turbulence</text>
<text text-anchor="middle" x="138.5" y="-84" font-family="Helvetica,sans-Serif" font-size="10.00">/RANS/KOmegaSSTI.H</text>
</a>
</g>
</g>
<!-- Node1&#45;&gt;Node3 -->
<g id="edge2_Node000001_Node000003" class="edge">
<title>Node1&#45;&gt;Node3</title>
<g id="a_edge2_Node000001_Node000003"><a xlink:title=" ">
<path fill="none" stroke="#63b8ff" d="M138.5,-143.69C138.5,-135.08 138.5,-125.9 138.5,-118.07"/>
<polygon fill="#63b8ff" stroke="#63b8ff" points="135,-143.79 138.5,-153.79 142,-143.79 135,-143.79"/>
</a>
</g>
</g>
<!-- Node5 -->
<g id="Node000005" class="node">
<title>Node5</title>
<g id="a_Node000005"><a xlink:href="_k_omega_s_s_t_i_d_d_e_s_8_h.html" target="_top" xlink:title=" ">
<polygon fill="white" stroke="#666666" points="404,-118 239,-118 239,-77 404,-77 404,-118"/>
<text text-anchor="start" x="247" y="-106" font-family="Helvetica,sans-Serif" font-size="10.00">/home/runner/work/amr</text>
<text text-anchor="start" x="247" y="-95" font-family="Helvetica,sans-Serif" font-size="10.00">&#45;wind/amr&#45;wind/src/turbulence</text>
<text text-anchor="middle" x="321.5" y="-84" font-family="Helvetica,sans-Serif" font-size="10.00">/RANS/KOmegaSSTIDDES.H</text>
</a>
</g>
</g>
<!-- Node1&#45;&gt;Node5 -->
<g id="edge5_Node000001_Node000005" class="edge">
<title>Node1&#45;&gt;Node5</title>
<g id="a_edge5_Node000001_Node000005"><a xlink:title=" ">
<path fill="none" stroke="#63b8ff" d="M195.52,-150.13C220.66,-139.83 249.86,-127.86 273.82,-118.04"/>
<polygon fill="#63b8ff" stroke="#63b8ff" points="194.03,-146.96 186.1,-153.99 196.68,-153.44 194.03,-146.96"/>
</a>
</g>
</g>
<!-- Node3&#45;&gt;Node2 -->
<g id="edge3_Node000003_Node000002" class="edge">
<title>Node3&#45;&gt;Node2</title>
<g id="a_edge3_Node000003_Node000002"><a xlink:title=" ">
<path fill="none" stroke="#63b8ff" d="M117.72,-68.67C110.87,-59.5 103.4,-49.5 97.12,-41.07"/>
<polygon fill="#63b8ff" stroke="#63b8ff" points="115,-70.88 123.79,-76.79 120.61,-66.69 115,-70.88"/>
</a>
</g>
</g>
<!-- Node4 -->
<g id="Node000004" class="node">
<title>Node4</title>
<g id="a_Node000004"><a xlink:href="_k_omega_s_s_t_i_d_d_e_s_8cpp.html" target="_top" xlink:title=" ">
<polygon fill="white" stroke="#666666" points="376,-41 211,-41 211,0 376,0 376,-41"/>
<text text-anchor="start" x="219" y="-29" font-family="Helvetica,sans-Serif" font-size="10.00">/home/runner/work/amr</text>
<text text-anchor="start" x="219" y="-18" font-family="Helvetica,sans-Serif" font-size="10.00">&#45;wind/amr&#45;wind/src/turbulence</text>
<text text-anchor="middle" x="293.5" y="-7" font-family="Helvetica,sans-Serif" font-size="10.00">/RANS/KOmegaSSTIDDES.cpp</text>
</a>
</g>
</g>
<!-- Node3&#45;&gt;Node4 -->
<g id="edge4_Node000003_Node000004" class="edge">
<title>Node3&#45;&gt;Node4</title>
<g id="a_edge4_Node000003_Node000004"><a xlink:title=" ">
<path fill="none" stroke="#63b8ff" d="M187.92,-72.59C208.96,-62.41 233.18,-50.69 253.11,-41.04"/>
<polygon fill="#63b8ff" stroke="#63b8ff" points="186.3,-69.48 178.82,-76.99 189.35,-75.79 186.3,-69.48"/>
</a>
</g>
</g>
<!-- Node5&#45;&gt;Node4 -->
<g id="edge6_Node000005_Node000004" class="edge">
<title>Node5&#45;&gt;Node4</title>
<g id="a_edge6_Node000005_Node000004"><a xlink:title=" ">
<path fill="none" stroke="#63b8ff" d="M310.58,-67.26C307.31,-58.48 303.79,-49.07 300.81,-41.07"/>
<polygon fill="#63b8ff" stroke="#63b8ff" points="307.37,-68.65 314.14,-76.79 313.92,-66.2 307.37,-68.65"/>
</a>
</g>
</g>
</g>
</svg>
</svg>

<style type='text/css'>
<![CDATA[
[data-mouse-over-selected='false'] { opacity: 0.7; }
[data-mouse-over-selected='true']  { opacity: 1.0; }
]]>
</style>
<script type="application/ecmascript"><![CDATA[
document.addEventListener('DOMContentLoaded', (event) => {
  highlightEdges();
  highlightAdjacentNodes();
});
]]></script>
</svg>
