<?xml version="1.0" encoding="UTF-8" standalone="no"?>
<!DOCTYPE svg PUBLIC "-//W3C//DTD SVG 1.1//EN"
 "http://www.w3.org/Graphics/SVG/1.1/DTD/svg11.dtd">
<!-- Generated by graphviz version 2.43.0 (0)
 -->
<!-- Title: /home/runner/work/amr&#45;wind/amr&#45;wind/src/utilities/sampling/LineSampler.H Pages: 1 -->
<svg width="615pt" height="280pt"
 viewBox="0.00 0.00 614.50 280.00" xmlns="http://www.w3.org/2000/svg" xmlns:xlink="http://www.w3.org/1999/xlink">
<g id="graph0" class="graph" transform="scale(1 1) rotate(0) translate(4 276)">
<title>/home/runner/work/amr&#45;wind/amr&#45;wind/src/utilities/sampling/LineSampler.H</title>
<!-- Node1 -->
<g id="Node000001" class="node">
<title>Node1</title>
<g id="a_Node000001"><a xlink:title=" ">
<polygon fill="#999999" stroke="#666666" points="435.5,-272 285.5,-272 285.5,-231 435.5,-231 435.5,-272"/>
<text text-anchor="start" x="293.5" y="-260" font-family="Helvetica,sans-Serif" font-size="10.00">/home/runner/work/amr</text>
<text text-anchor="start" x="293.5" y="-249" font-family="Helvetica,sans-Serif" font-size="10.00">&#45;wind/amr&#45;wind/src/utilities</text>
<text text-anchor="middle" x="360.5" y="-238" font-family="Helvetica,sans-Serif" font-size="10.00">/sampling/LineSampler.H</text>
</a>
</g>
</g>
<!-- Node2 -->
<g id="Node000002" class="node">
<title>Node2</title>
<g id="a_Node000002"><a xlink:href="_lidar_sampler_8_h.html" target="_top" xlink:title=" ">
<polygon fill="white" stroke="#666666" points="267.5,-195 117.5,-195 117.5,-154 267.5,-154 267.5,-195"/>
<text text-anchor="start" x="125.5" y="-183" font-family="Helvetica,sans-Serif" font-size="10.00">/home/runner/work/amr</text>
<text text-anchor="start" x="125.5" y="-172" font-family="Helvetica,sans-Serif" font-size="10.00">&#45;wind/amr&#45;wind/src/utilities</text>
<text text-anchor="middle" x="192.5" y="-161" font-family="Helvetica,sans-Serif" font-size="10.00">/sampling/LidarSampler.H</text>
</a>
</g>
</g>
<!-- Node1&#45;&gt;Node2 -->
<g id="edge1_Node000001_Node000002" class="edge">
<title>Node1&#45;&gt;Node2</title>
<g id="a_edge1_Node000001_Node000002"><a xlink:title=" ">
<path fill="none" stroke="#63b8ff" d="M307.54,-226.86C284.61,-216.62 258.07,-204.77 236.27,-195.04"/>
<polygon fill="#63b8ff" stroke="#63b8ff" points="306.24,-230.11 316.8,-230.99 309.09,-223.72 306.24,-230.11"/>
</a>
</g>
</g>
<!-- Node6 -->
<g id="Node000006" class="node">
<title>Node6</title>
<g id="a_Node000006"><a xlink:href="_line_sampler_8cpp.html" target="_top" xlink:title=" ">
<polygon fill="white" stroke="#666666" points="435.5,-195 285.5,-195 285.5,-154 435.5,-154 435.5,-195"/>
<text text-anchor="start" x="293.5" y="-183" font-family="Helvetica,sans-Serif" font-size="10.00">/home/runner/work/amr</text>
<text text-anchor="start" x="293.5" y="-172" font-family="Helvetica,sans-Serif" font-size="10.00">&#45;wind/amr&#45;wind/src/utilities</text>
<text text-anchor="middle" x="360.5" y="-161" font-family="Helvetica,sans-Serif" font-size="10.00">/sampling/LineSampler.cpp</text>
</a>
</g>
</g>
<!-- Node1&#45;&gt;Node6 -->
<g id="edge5_Node000001_Node000006" class="edge">
<title>Node1&#45;&gt;Node6</title>
<g id="a_edge5_Node000001_Node000006"><a xlink:title=" ">
<path fill="none" stroke="#63b8ff" d="M360.5,-220.69C360.5,-212.08 360.5,-202.9 360.5,-195.07"/>
<polygon fill="#63b8ff" stroke="#63b8ff" points="357,-220.79 360.5,-230.79 364,-220.79 357,-220.79"/>
</a>
</g>
</g>
<!-- Node7 -->
<g id="Node000007" class="node">
<title>Node7</title>
<g id="a_Node000007"><a xlink:href="_radar_sampler_8_h.html" target="_top" xlink:title=" ">
<polygon fill="white" stroke="#666666" points="603.5,-195 453.5,-195 453.5,-154 603.5,-154 603.5,-195"/>
<text text-anchor="start" x="461.5" y="-183" font-family="Helvetica,sans-Serif" font-size="10.00">/home/runner/work/amr</text>
<text text-anchor="start" x="461.5" y="-172" font-family="Helvetica,sans-Serif" font-size="10.00">&#45;wind/amr&#45;wind/src/utilities</text>
<text text-anchor="middle" x="528.5" y="-161" font-family="Helvetica,sans-Serif" font-size="10.00">/sampling/RadarSampler.H</text>
</a>
</g>
</g>
<!-- Node1&#45;&gt;Node7 -->
<g id="edge6_Node000001_Node000007" class="edge">
<title>Node1&#45;&gt;Node7</title>
<g id="a_edge6_Node000001_Node000007"><a xlink:title=" ">
<path fill="none" stroke="#63b8ff" d="M413.46,-226.86C436.39,-216.62 462.93,-204.77 484.73,-195.04"/>
<polygon fill="#63b8ff" stroke="#63b8ff" points="411.91,-223.72 404.2,-230.99 414.76,-230.11 411.91,-223.72"/>
</a>
</g>
</g>
<!-- Node3 -->
<g id="Node000003" class="node">
<title>Node3</title>
<g id="a_Node000003"><a xlink:href="_d_t_u_spinner_sampler_8_h.html" target="_top" xlink:title=" ">
<polygon fill="white" stroke="#666666" points="180.5,-118 4.5,-118 4.5,-77 180.5,-77 180.5,-118"/>
<text text-anchor="start" x="12.5" y="-106" font-family="Helvetica,sans-Serif" font-size="10.00">/home/runner/work/amr</text>
<text text-anchor="start" x="12.5" y="-95" font-family="Helvetica,sans-Serif" font-size="10.00">&#45;wind/amr&#45;wind/src/utilities</text>
<text text-anchor="middle" x="92.5" y="-84" font-family="Helvetica,sans-Serif" font-size="10.00">/sampling/DTUSpinnerSampler.H</text>
</a>
</g>
</g>
<!-- Node2&#45;&gt;Node3 -->
<g id="edge2_Node000002_Node000003" class="edge">
<title>Node2&#45;&gt;Node3</title>
<g id="a_edge2_Node000002_Node000003"><a xlink:title=" ">
<path fill="none" stroke="#63b8ff" d="M158.25,-147.82C145.32,-138.11 130.82,-127.24 118.73,-118.17"/>
<polygon fill="#63b8ff" stroke="#63b8ff" points="156.39,-150.79 166.49,-153.99 160.59,-145.19 156.39,-150.79"/>
</a>
</g>
</g>
<!-- Node5 -->
<g id="Node000005" class="node">
<title>Node5</title>
<g id="a_Node000005"><a xlink:href="_lidar_sampler_8cpp.html" target="_top" xlink:title=" ">
<polygon fill="white" stroke="#666666" points="350.5,-118 198.5,-118 198.5,-77 350.5,-77 350.5,-118"/>
<text text-anchor="start" x="206.5" y="-106" font-family="Helvetica,sans-Serif" font-size="10.00">/home/runner/work/amr</text>
<text text-anchor="start" x="206.5" y="-95" font-family="Helvetica,sans-Serif" font-size="10.00">&#45;wind/amr&#45;wind/src/utilities</text>
<text text-anchor="middle" x="274.5" y="-84" font-family="Helvetica,sans-Serif" font-size="10.00">/sampling/LidarSampler.cpp</text>
</a>
</g>
</g>
<!-- Node2&#45;&gt;Node5 -->
<g id="edge4_Node000002_Node000005" class="edge">
<title>Node2&#45;&gt;Node5</title>
<g id="a_edge4_Node000002_Node000005"><a xlink:title=" ">
<path fill="none" stroke="#63b8ff" d="M221.7,-146.79C232.06,-137.32 243.51,-126.84 253.1,-118.07"/>
<polygon fill="#63b8ff" stroke="#63b8ff" points="219.06,-144.46 214.04,-153.79 223.79,-149.63 219.06,-144.46"/>
</a>
</g>
</g>
<!-- Node4 -->
<g id="Node000004" class="node">
<title>Node4</title>
<g id="a_Node000004"><a xlink:href="_d_t_u_spinner_sampler_8cpp.html" target="_top" xlink:title=" ">
<polygon fill="white" stroke="#666666" points="185,-41 0,-41 0,0 185,0 185,-41"/>
<text text-anchor="start" x="8" y="-29" font-family="Helvetica,sans-Serif" font-size="10.00">/home/runner/work/amr</text>
<text text-anchor="start" x="8" y="-18" font-family="Helvetica,sans-Serif" font-size="10.00">&#45;wind/amr&#45;wind/src/utilities</text>
<text text-anchor="middle" x="92.5" y="-7" font-family="Helvetica,sans-Serif" font-size="10.00">/sampling/DTUSpinnerSampler.cpp</text>
</a>
</g>
</g>
<!-- Node3&#45;&gt;Node4 -->
<g id="edge3_Node000003_Node000004" class="edge">
<title>Node3&#45;&gt;Node4</title>
<g id="a_edge3_Node000003_Node000004"><a xlink:title=" ">
<path fill="none" stroke="#63b8ff" d="M92.5,-66.69C92.5,-58.08 92.5,-48.9 92.5,-41.07"/>
<polygon fill="#63b8ff" stroke="#63b8ff" points="89,-66.79 92.5,-76.79 96,-66.79 89,-66.79"/>
</a>
</g>
</g>
<!-- Node8 -->
<g id="Node000008" class="node">
<title>Node8</title>
<g id="a_Node000008"><a xlink:href="_radar_sampler_8cpp.html" target="_top" xlink:title=" ">
<polygon fill="white" stroke="#666666" points="606.5,-118 450.5,-118 450.5,-77 606.5,-77 606.5,-118"/>
<text text-anchor="start" x="458.5" y="-106" font-family="Helvetica,sans-Serif" font-size="10.00">/home/runner/work/amr</text>
<text text-anchor="start" x="458.5" y="-95" font-family="Helvetica,sans-Serif" font-size="10.00">&#45;wind/amr&#45;wind/src/utilities</text>
<text text-anchor="middle" x="528.5" y="-84" font-family="Helvetica,sans-Serif" font-size="10.00">/sampling/RadarSampler.cpp</text>
</a>
</g>
</g>
<!-- Node7&#45;&gt;Node8 -->
<g id="edge7_Node000007_Node000008" class="edge">
<title>Node7&#45;&gt;Node8</title>
<g id="a_edge7_Node000007_Node000008"><a xlink:title=" ">
<path fill="none" stroke="#63b8ff" d="M528.5,-143.69C528.5,-135.08 528.5,-125.9 528.5,-118.07"/>
<polygon fill="#63b8ff" stroke="#63b8ff" points="525,-143.79 528.5,-153.79 532,-143.79 525,-143.79"/>
</a>
</g>
</g>
</g>
</svg>
