<?xml version="1.0" encoding="UTF-8" standalone="no"?>
<!DOCTYPE svg PUBLIC "-//W3C//DTD SVG 1.1//EN"
 "http://www.w3.org/Graphics/SVG/1.1/DTD/svg11.dtd">
<!-- Generated by graphviz version 2.43.0 (0)
 -->
<!-- Title: /home/runner/work/amr&#45;wind/amr&#45;wind/src/ocean_waves/OceanWavesTypes.H Pages: 1 -->
<svg width="586pt" height="346pt"
 viewBox="0.00 0.00 585.50 346.00" xmlns="http://www.w3.org/2000/svg" xmlns:xlink="http://www.w3.org/1999/xlink">
<g id="graph0" class="graph" transform="scale(1 1) rotate(0) translate(4 342)">
<title>/home/runner/work/amr&#45;wind/amr&#45;wind/src/ocean_waves/OceanWavesTypes.H</title>
<!-- Node1 -->
<g id="Node000001" class="node">
<title>Node1</title>
<g id="a_Node000001"><a xlink:title=" ">
<polygon fill="#999999" stroke="#666666" points="206.5,-338 48.5,-338 48.5,-297 206.5,-297 206.5,-338"/>
<text text-anchor="start" x="56.5" y="-326" font-family="Helvetica,sans-Serif" font-size="10.00">/home/runner/work/amr</text>
<text text-anchor="start" x="56.5" y="-315" font-family="Helvetica,sans-Serif" font-size="10.00">&#45;wind/amr&#45;wind/src/ocean</text>
<text text-anchor="middle" x="127.5" y="-304" font-family="Helvetica,sans-Serif" font-size="10.00">_waves/OceanWavesTypes.H</text>
</a>
</g>
</g>
<!-- Node2 -->
<g id="Node000002" class="node">
<title>Node2</title>
<g id="a_Node000002"><a xlink:title=" ">
<polygon fill="#e0e0e0" stroke="#999999" points="45,-255.5 0,-255.5 0,-236.5 45,-236.5 45,-255.5"/>
<text text-anchor="middle" x="22.5" y="-243.5" font-family="Helvetica,sans-Serif" font-size="10.00">utility</text>
</a>
</g>
</g>
<!-- Node1&#45;&gt;Node2 -->
<g id="edge1_Node000001_Node000002" class="edge">
<title>Node1&#45;&gt;Node2</title>
<g id="a_edge1_Node000001_Node000002"><a xlink:title=" ">
<path fill="none" stroke="#63b8ff" d="M97.97,-296.96C80.73,-285.54 59.38,-271.41 43.79,-261.09"/>
<polygon fill="#63b8ff" stroke="#63b8ff" points="45.62,-258.1 35.35,-255.5 41.75,-263.94 45.62,-258.1"/>
</a>
</g>
</g>
<!-- Node3 -->
<g id="Node000003" class="node">
<title>Node3</title>
<g id="a_Node000003"><a xlink:href="vector__space_8_h.html" target="_top" xlink:title=" ">
<polygon fill="white" stroke="#666666" points="234,-261 131,-261 131,-231 234,-231 234,-261"/>
<text text-anchor="start" x="139" y="-249" font-family="Helvetica,sans-Serif" font-size="10.00">src/core/vs/vector</text>
<text text-anchor="middle" x="182.5" y="-238" font-family="Helvetica,sans-Serif" font-size="10.00">_space.H</text>
</a>
</g>
</g>
<!-- Node1&#45;&gt;Node3 -->
<g id="edge2_Node000001_Node000003" class="edge">
<title>Node1&#45;&gt;Node3</title>
<g id="a_edge2_Node000001_Node000003"><a xlink:title=" ">
<path fill="none" stroke="#63b8ff" d="M143.11,-296.77C149.95,-288.13 158,-277.96 165.03,-269.08"/>
<polygon fill="#63b8ff" stroke="#63b8ff" points="167.93,-271.05 171.39,-261.04 162.44,-266.71 167.93,-271.05"/>
</a>
</g>
</g>
<!-- Node5 -->
<g id="Node000005" class="node">
<title>Node5</title>
<g id="a_Node000005"><a xlink:title=" ">
<polygon fill="#e0e0e0" stroke="#999999" points="136,-19 49,-19 49,0 136,0 136,-19"/>
<text text-anchor="middle" x="92.5" y="-7" font-family="Helvetica,sans-Serif" font-size="10.00">AMReX_Gpu.H</text>
</a>
</g>
</g>
<!-- Node1&#45;&gt;Node5 -->
<g id="edge23_Node000001_Node000005" class="edge">
<title>Node1&#45;&gt;Node5</title>
<g id="a_edge23_Node000001_Node000005"><a xlink:title=" ">
<path fill="none" stroke="#63b8ff" d="M113.59,-296.84C97.59,-272.26 73.5,-228.29 73.5,-186.5 73.5,-186.5 73.5,-186.5 73.5,-129.5 73.5,-93.54 82.06,-52.23 87.69,-28.96"/>
<polygon fill="#63b8ff" stroke="#63b8ff" points="91.13,-29.64 90.17,-19.09 84.34,-27.93 91.13,-29.64"/>
</a>
</g>
</g>
<!-- Node16 -->
<g id="Node000016" class="node">
<title>Node16</title>
<g id="a_Node000016"><a xlink:title=" ">
<polygon fill="#e0e0e0" stroke="#999999" points="360.5,-255.5 252.5,-255.5 252.5,-236.5 360.5,-236.5 360.5,-255.5"/>
<text text-anchor="middle" x="306.5" y="-243.5" font-family="Helvetica,sans-Serif" font-size="10.00">AMReX_RealBox.H</text>
</a>
</g>
</g>
<!-- Node1&#45;&gt;Node16 -->
<g id="edge24_Node000001_Node000016" class="edge">
<title>Node1&#45;&gt;Node16</title>
<g id="a_edge24_Node000001_Node000016"><a xlink:title=" ">
<path fill="none" stroke="#63b8ff" d="M177.84,-296.96C209.01,-284.85 248.08,-269.68 274.94,-259.25"/>
<polygon fill="#63b8ff" stroke="#63b8ff" points="276.54,-262.39 284.6,-255.5 274.01,-255.86 276.54,-262.39"/>
</a>
</g>
</g>
<!-- Node4 -->
<g id="Node000004" class="node">
<title>Node4</title>
<g id="a_Node000004"><a xlink:href="vector_8_h.html" target="_top" xlink:title=" ">
<polygon fill="white" stroke="#666666" points="445,-140 332,-140 332,-121 445,-121 445,-140"/>
<text text-anchor="middle" x="388.5" y="-128" font-family="Helvetica,sans-Serif" font-size="10.00">src/core/vs/vector.H</text>
</a>
</g>
</g>
<!-- Node3&#45;&gt;Node4 -->
<g id="edge3_Node000003_Node000004" class="edge">
<title>Node3&#45;&gt;Node4</title>
<g id="a_edge3_Node000003_Node000004"><a xlink:title=" ">
<path fill="none" stroke="#63b8ff" d="M212.45,-230.99C232.73,-221.31 260,-207.89 283.5,-195 312.79,-178.93 345.59,-158.73 366.61,-145.48"/>
<polygon fill="#63b8ff" stroke="#63b8ff" points="368.54,-148.4 375.12,-140.09 364.8,-142.48 368.54,-148.4"/>
</a>
</g>
</g>
<!-- Node11 -->
<g id="Node000011" class="node">
<title>Node11</title>
<g id="a_Node000011"><a xlink:href="tensor_8_h.html" target="_top" xlink:title=" ">
<polygon fill="white" stroke="#666666" points="274,-195 161,-195 161,-176 274,-176 274,-195"/>
<text text-anchor="middle" x="217.5" y="-183" font-family="Helvetica,sans-Serif" font-size="10.00">src/core/vs/tensor.H</text>
</a>
</g>
</g>
<!-- Node3&#45;&gt;Node11 -->
<g id="edge11_Node000003_Node000011" class="edge">
<title>Node3&#45;&gt;Node11</title>
<g id="a_edge11_Node000003_Node000011"><a xlink:title=" ">
<path fill="none" stroke="#63b8ff" d="M190.97,-230.84C195.79,-222.78 201.87,-212.62 207,-204.06"/>
<polygon fill="#63b8ff" stroke="#63b8ff" points="210.12,-205.64 212.26,-195.27 204.12,-202.05 210.12,-205.64"/>
</a>
</g>
</g>
<!-- Node4&#45;&gt;Node5 -->
<g id="edge4_Node000004_Node000005" class="edge">
<title>Node4&#45;&gt;Node5</title>
<g id="a_edge4_Node000004_Node000005"><a xlink:title=" ">
<path fill="none" stroke="#63b8ff" d="M331.75,-126.89C285.47,-122.74 219.63,-112.11 168.5,-85 141.81,-70.85 118.21,-44.39 104.64,-27.11"/>
<polygon fill="#63b8ff" stroke="#63b8ff" points="107.34,-24.87 98.5,-19.02 101.76,-29.1 107.34,-24.87"/>
</a>
</g>
</g>
<!-- Node6 -->
<g id="Node000006" class="node">
<title>Node6</title>
<g id="a_Node000006"><a xlink:href="vstraits_8_h.html" target="_top" xlink:title=" ">
<polygon fill="white" stroke="#666666" points="443,-79.5 324,-79.5 324,-60.5 443,-60.5 443,-79.5"/>
<text text-anchor="middle" x="383.5" y="-67.5" font-family="Helvetica,sans-Serif" font-size="10.00">src/core/vs/vstraits.H</text>
</a>
</g>
</g>
<!-- Node4&#45;&gt;Node6 -->
<g id="edge5_Node000004_Node000006" class="edge">
<title>Node4&#45;&gt;Node6</title>
<g id="a_edge5_Node000004_Node000006"><a xlink:title=" ">
<path fill="none" stroke="#63b8ff" d="M387.76,-120.87C387.07,-112.75 386,-100.31 385.11,-89.89"/>
<polygon fill="#63b8ff" stroke="#63b8ff" points="388.58,-89.33 384.24,-79.67 381.61,-89.93 388.58,-89.33"/>
</a>
</g>
</g>
<!-- Node8 -->
<g id="Node000008" class="node">
<title>Node8</title>
<g id="a_Node000008"><a xlink:href="vector_i_8_h.html" target="_top" xlink:title=" ">
<polygon fill="white" stroke="#666666" points="577.5,-79.5 461.5,-79.5 461.5,-60.5 577.5,-60.5 577.5,-79.5"/>
<text text-anchor="middle" x="519.5" y="-67.5" font-family="Helvetica,sans-Serif" font-size="10.00">src/core/vs/vectorI.H</text>
</a>
</g>
</g>
<!-- Node4&#45;&gt;Node8 -->
<g id="edge7_Node000004_Node000008" class="edge">
<title>Node4&#45;&gt;Node8</title>
<g id="a_edge7_Node000004_Node000008"><a xlink:title=" ">
<path fill="none" stroke="#63b8ff" d="M402.62,-120.99C422.58,-111.12 459.02,-94.73 486.03,-83.43"/>
<polygon fill="#63b8ff" stroke="#63b8ff" points="487.59,-86.57 495.5,-79.52 484.92,-80.1 487.59,-86.57"/>
</a>
</g>
</g>
<!-- Node7 -->
<g id="Node000007" class="node">
<title>Node7</title>
<g id="a_Node000007"><a xlink:title=" ">
<polygon fill="#e0e0e0" stroke="#999999" points="451.5,-19 407.5,-19 407.5,0 451.5,0 451.5,-19"/>
<text text-anchor="middle" x="429.5" y="-7" font-family="Helvetica,sans-Serif" font-size="10.00">limits</text>
</a>
</g>
</g>
<!-- Node6&#45;&gt;Node7 -->
<g id="edge6_Node000006_Node000007" class="edge">
<title>Node6&#45;&gt;Node7</title>
<g id="a_edge6_Node000006_Node000007"><a xlink:title=" ">
<path fill="none" stroke="#63b8ff" d="M390.29,-60.37C397.15,-51.64 407.93,-37.93 416.45,-27.09"/>
<polygon fill="#63b8ff" stroke="#63b8ff" points="419.25,-29.19 422.68,-19.17 413.75,-24.86 419.25,-29.19"/>
</a>
</g>
</g>
<!-- Node8&#45;&gt;Node4 -->
<g id="edge10_Node000008_Node000004" class="edge">
<title>Node8&#45;&gt;Node4</title>
<g id="a_edge10_Node000008_Node000004"><a xlink:title=" ">
<path fill="none" stroke="#63b8ff" d="M505.36,-79.52C485.39,-89.4 448.94,-105.78 421.95,-117.08"/>
<polygon fill="#63b8ff" stroke="#63b8ff" points="420.38,-113.94 412.48,-120.99 423.06,-120.41 420.38,-113.94"/>
</a>
</g>
</g>
<!-- Node9 -->
<g id="Node000009" class="node">
<title>Node9</title>
<g id="a_Node000009"><a xlink:title=" ">
<polygon fill="#e0e0e0" stroke="#999999" points="548,-19 491,-19 491,0 548,0 548,-19"/>
<text text-anchor="middle" x="519.5" y="-7" font-family="Helvetica,sans-Serif" font-size="10.00">ostream</text>
</a>
</g>
</g>
<!-- Node8&#45;&gt;Node9 -->
<g id="edge8_Node000008_Node000009" class="edge">
<title>Node8&#45;&gt;Node9</title>
<g id="a_edge8_Node000008_Node000009"><a xlink:title=" ">
<path fill="none" stroke="#63b8ff" d="M519.5,-60.37C519.5,-52.25 519.5,-39.81 519.5,-29.39"/>
<polygon fill="#63b8ff" stroke="#63b8ff" points="523,-29.17 519.5,-19.17 516,-29.17 523,-29.17"/>
</a>
</g>
</g>
<!-- Node10 -->
<g id="Node000010" class="node">
<title>Node10</title>
<g id="a_Node000010"><a xlink:title=" ">
<polygon fill="#e0e0e0" stroke="#999999" points="389,-19 342,-19 342,0 389,0 389,-19"/>
<text text-anchor="middle" x="365.5" y="-7" font-family="Helvetica,sans-Serif" font-size="10.00">cmath</text>
</a>
</g>
</g>
<!-- Node8&#45;&gt;Node10 -->
<g id="edge9_Node000008_Node000010" class="edge">
<title>Node8&#45;&gt;Node10</title>
<g id="a_edge9_Node000008_Node000010"><a xlink:title=" ">
<path fill="none" stroke="#63b8ff" d="M497.11,-60.49C470.88,-50.53 427.22,-33.95 397.44,-22.63"/>
<polygon fill="#63b8ff" stroke="#63b8ff" points="398.51,-19.3 387.92,-19.02 396.03,-25.84 398.51,-19.3"/>
</a>
</g>
</g>
<!-- Node11&#45;&gt;Node4 -->
<g id="edge14_Node000011_Node000004" class="edge">
<title>Node11&#45;&gt;Node4</title>
<g id="a_edge14_Node000011_Node000004"><a xlink:title=" ">
<path fill="none" stroke="#63b8ff" d="M244.97,-175.98C273.68,-167.09 318.92,-153.07 350.92,-143.15"/>
<polygon fill="#63b8ff" stroke="#63b8ff" points="352.3,-146.39 360.81,-140.08 350.22,-139.7 352.3,-146.39"/>
</a>
</g>
</g>
<!-- Node11&#45;&gt;Node5 -->
<g id="edge12_Node000011_Node000005" class="edge">
<title>Node11&#45;&gt;Node5</title>
<g id="a_edge12_Node000011_Node000005"><a xlink:title=" ">
<path fill="none" stroke="#63b8ff" d="M199.22,-176C184.44,-168.35 163.95,-155.88 150.5,-140 121.94,-106.28 104.93,-56.24 97.3,-29.3"/>
<polygon fill="#63b8ff" stroke="#63b8ff" points="100.58,-28.03 94.6,-19.28 93.83,-29.85 100.58,-28.03"/>
</a>
</g>
</g>
<!-- Node11&#45;&gt;Node6 -->
<g id="edge13_Node000011_Node000006" class="edge">
<title>Node11&#45;&gt;Node6</title>
<g id="a_edge13_Node000011_Node000006"><a xlink:title=" ">
<path fill="none" stroke="#63b8ff" d="M230.91,-175.72C244.47,-166.81 266.03,-152.57 284.5,-140 311.84,-121.4 343.1,-99.51 363.05,-85.45"/>
<polygon fill="#63b8ff" stroke="#63b8ff" points="365.21,-88.21 371.37,-79.59 361.18,-82.49 365.21,-88.21"/>
</a>
</g>
</g>
<!-- Node12 -->
<g id="Node000012" class="node">
<title>Node12</title>
<g id="a_Node000012"><a xlink:href="tensor_i_8_h.html" target="_top" xlink:title=" ">
<polygon fill="white" stroke="#666666" points="275.5,-140 159.5,-140 159.5,-121 275.5,-121 275.5,-140"/>
<text text-anchor="middle" x="217.5" y="-128" font-family="Helvetica,sans-Serif" font-size="10.00">src/core/vs/tensorI.H</text>
</a>
</g>
</g>
<!-- Node11&#45;&gt;Node12 -->
<g id="edge15_Node000011_Node000012" class="edge">
<title>Node11&#45;&gt;Node12</title>
<g id="a_edge15_Node000011_Node000012"><a xlink:title=" ">
<path fill="none" stroke="#63b8ff" d="M212.33,-175.75C210.84,-168.8 210.4,-158.85 211.02,-150.13"/>
<polygon fill="#63b8ff" stroke="#63b8ff" points="214.51,-150.47 212.37,-140.09 207.57,-149.53 214.51,-150.47"/>
</a>
</g>
</g>
<!-- Node12&#45;&gt;Node10 -->
<g id="edge16_Node000012_Node000010" class="edge">
<title>Node12&#45;&gt;Node10</title>
<g id="a_edge16_Node000012_Node000010"><a xlink:title=" ">
<path fill="none" stroke="#63b8ff" d="M229.39,-120.81C241.4,-111.96 260.43,-97.77 276.5,-85 301.58,-65.07 329.83,-41.16 347.65,-25.9"/>
<polygon fill="#63b8ff" stroke="#63b8ff" points="350.19,-28.33 355.49,-19.16 345.63,-23.02 350.19,-28.33"/>
</a>
</g>
</g>
<!-- Node12&#45;&gt;Node11 -->
<g id="edge17_Node000012_Node000011" class="edge">
<title>Node12&#45;&gt;Node11</title>
<g id="a_edge17_Node000012_Node000011"><a xlink:title=" ">
<path fill="none" stroke="#63b8ff" d="M222.63,-140.09C224.14,-146.99 224.59,-156.93 223.99,-165.66"/>
<polygon fill="#63b8ff" stroke="#63b8ff" points="220.5,-165.38 222.67,-175.75 227.44,-166.29 220.5,-165.38"/>
</a>
</g>
</g>
<!-- Node13 -->
<g id="Node000013" class="node">
<title>Node13</title>
<g id="a_Node000013"><a xlink:href="trig__ops_8_h.html" target="_top" xlink:title=" ">
<polygon fill="white" stroke="#666666" points="267.5,-85 177.5,-85 177.5,-55 267.5,-55 267.5,-85"/>
<text text-anchor="start" x="185.5" y="-73" font-family="Helvetica,sans-Serif" font-size="10.00">src/utilities/trig</text>
<text text-anchor="middle" x="222.5" y="-62" font-family="Helvetica,sans-Serif" font-size="10.00">_ops.H</text>
</a>
</g>
</g>
<!-- Node12&#45;&gt;Node13 -->
<g id="edge18_Node000012_Node000013" class="edge">
<title>Node12&#45;&gt;Node13</title>
<g id="a_edge18_Node000012_Node000013"><a xlink:title=" ">
<path fill="none" stroke="#63b8ff" d="M218.24,-120.87C218.82,-114.11 219.65,-104.35 220.43,-95.26"/>
<polygon fill="#63b8ff" stroke="#63b8ff" points="223.93,-95.38 221.29,-85.11 216.95,-94.78 223.93,-95.38"/>
</a>
</g>
</g>
<!-- Node13&#45;&gt;Node5 -->
<g id="edge22_Node000013_Node000005" class="edge">
<title>Node13&#45;&gt;Node5</title>
<g id="a_edge22_Node000013_Node000005"><a xlink:title=" ">
<path fill="none" stroke="#63b8ff" d="M191.36,-54.99C169.96,-45.36 141.77,-32.67 120.97,-23.31"/>
<polygon fill="#63b8ff" stroke="#63b8ff" points="122.25,-20.05 111.7,-19.14 119.38,-26.43 122.25,-20.05"/>
</a>
</g>
</g>
<!-- Node13&#45;&gt;Node10 -->
<g id="edge19_Node000013_Node000010" class="edge">
<title>Node13&#45;&gt;Node10</title>
<g id="a_edge19_Node000013_Node000010"><a xlink:title=" ">
<path fill="none" stroke="#63b8ff" d="M256.75,-54.99C280.61,-45.23 312.15,-32.33 335.11,-22.93"/>
<polygon fill="#63b8ff" stroke="#63b8ff" points="336.45,-26.17 344.38,-19.14 333.8,-19.69 336.45,-26.17"/>
</a>
</g>
</g>
<!-- Node14 -->
<g id="Node000014" class="node">
<title>Node14</title>
<g id="a_Node000014"><a xlink:title=" ">
<polygon fill="#e0e0e0" stroke="#999999" points="213,-19 154,-19 154,0 213,0 213,-19"/>
<text text-anchor="middle" x="183.5" y="-7" font-family="Helvetica,sans-Serif" font-size="10.00">numbers</text>
</a>
</g>
</g>
<!-- Node13&#45;&gt;Node14 -->
<g id="edge20_Node000013_Node000014" class="edge">
<title>Node13&#45;&gt;Node14</title>
<g id="a_edge20_Node000013_Node000014"><a xlink:title=" ">
<path fill="none" stroke="#63b8ff" d="M213.06,-54.84C207.63,-46.69 200.77,-36.4 195.02,-27.78"/>
<polygon fill="#63b8ff" stroke="#63b8ff" points="197.8,-25.65 189.34,-19.27 191.98,-29.53 197.8,-25.65"/>
</a>
</g>
</g>
<!-- Node15 -->
<g id="Node000015" class="node">
<title>Node15</title>
<g id="a_Node000015"><a xlink:title=" ">
<polygon fill="#e0e0e0" stroke="#999999" points="323.5,-19 231.5,-19 231.5,0 323.5,0 323.5,-19"/>
<text text-anchor="middle" x="277.5" y="-7" font-family="Helvetica,sans-Serif" font-size="10.00">AMReX_REAL.H</text>
</a>
</g>
</g>
<!-- Node13&#45;&gt;Node15 -->
<g id="edge21_Node000013_Node000015" class="edge">
<title>Node13&#45;&gt;Node15</title>
<g id="a_edge21_Node000013_Node000015"><a xlink:title=" ">
<path fill="none" stroke="#63b8ff" d="M235.81,-54.84C243.8,-46.35 253.98,-35.52 262.28,-26.69"/>
<polygon fill="#63b8ff" stroke="#63b8ff" points="264.96,-28.95 269.26,-19.27 259.86,-24.15 264.96,-28.95"/>
</a>
</g>
</g>
</g>
</svg>
