<?xml version="1.0" encoding="UTF-8" standalone="no"?>
<!DOCTYPE svg PUBLIC "-//W3C//DTD SVG 1.1//EN"
 "http://www.w3.org/Graphics/SVG/1.1/DTD/svg11.dtd">
<!-- Generated by graphviz version 2.43.0 (0)
 -->
<!-- Title: /home/runner/work/amr&#45;wind/amr&#45;wind/src/boundary_conditions/field_boundary_fill/OceanWavesBoundary.H Pages: 1 -->
<svg width="1372pt" height="324pt"
 viewBox="0.00 0.00 1372.00 324.00" xmlns="http://www.w3.org/2000/svg" xmlns:xlink="http://www.w3.org/1999/xlink">
<g id="graph0" class="graph" transform="scale(1 1) rotate(0) translate(4 320)">
<title>/home/runner/work/amr&#45;wind/amr&#45;wind/src/boundary_conditions/field_boundary_fill/OceanWavesBoundary.H</title>
<!-- Node1 -->
<g id="Node000001" class="node">
<title>Node1</title>
<g id="a_Node000001"><a xlink:title=" ">
<polygon fill="#999999" stroke="#666666" points="414,-316 255,-316 255,-264 414,-264 414,-316"/>
<text text-anchor="start" x="263" y="-304" font-family="Helvetica,sans-Serif" font-size="10.00">/home/runner/work/amr</text>
<text text-anchor="start" x="263" y="-293" font-family="Helvetica,sans-Serif" font-size="10.00">&#45;wind/amr&#45;wind/src/boundary</text>
<text text-anchor="start" x="263" y="-282" font-family="Helvetica,sans-Serif" font-size="10.00">_conditions/field_boundary</text>
<text text-anchor="middle" x="334.5" y="-271" font-family="Helvetica,sans-Serif" font-size="10.00">_fill/OceanWavesBoundary.H</text>
</a>
</g>
</g>
<!-- Node2 -->
<g id="Node000002" class="node">
<title>Node2</title>
<g id="a_Node000002"><a xlink:href="_ocean_waves_boundary_8cpp.html" target="_top" xlink:title=" ">
<polygon fill="white" stroke="#666666" points="165,-140 0,-140 0,-88 165,-88 165,-140"/>
<text text-anchor="start" x="8" y="-128" font-family="Helvetica,sans-Serif" font-size="10.00">/home/runner/work/amr</text>
<text text-anchor="start" x="8" y="-117" font-family="Helvetica,sans-Serif" font-size="10.00">&#45;wind/amr&#45;wind/src/boundary</text>
<text text-anchor="start" x="8" y="-106" font-family="Helvetica,sans-Serif" font-size="10.00">_conditions/field_boundary</text>
<text text-anchor="middle" x="82.5" y="-95" font-family="Helvetica,sans-Serif" font-size="10.00">_fill/OceanWavesBoundary.cpp</text>
</a>
</g>
</g>
<!-- Node1&#45;&gt;Node2 -->
<g id="edge1_Node000001_Node000002" class="edge">
<title>Node1&#45;&gt;Node2</title>
<g id="a_edge1_Node000001_Node000002"><a xlink:title=" ">
<path fill="none" stroke="#63b8ff" d="M244.9,-272.54C212.98,-263.39 178.33,-249.36 151.5,-228 122.36,-204.81 102.47,-165.72 91.79,-140.14"/>
<polygon fill="#63b8ff" stroke="#63b8ff" points="244.14,-275.96 254.71,-275.22 245.99,-269.2 244.14,-275.96"/>
</a>
</g>
</g>
<!-- Node3 -->
<g id="Node000003" class="node">
<title>Node3</title>
<g id="a_Node000003"><a xlink:href="_ocean_waves_fill_inflow_8_h.html" target="_top" xlink:title=" ">
<polygon fill="white" stroke="#666666" points="320,-228 161,-228 161,-176 320,-176 320,-228"/>
<text text-anchor="start" x="169" y="-216" font-family="Helvetica,sans-Serif" font-size="10.00">/home/runner/work/amr</text>
<text text-anchor="start" x="169" y="-205" font-family="Helvetica,sans-Serif" font-size="10.00">&#45;wind/amr&#45;wind/src/boundary</text>
<text text-anchor="start" x="169" y="-194" font-family="Helvetica,sans-Serif" font-size="10.00">_conditions/field_boundary</text>
<text text-anchor="middle" x="240.5" y="-183" font-family="Helvetica,sans-Serif" font-size="10.00">_fill/OceanWavesFillInflow.H</text>
</a>
</g>
</g>
<!-- Node1&#45;&gt;Node3 -->
<g id="edge2_Node000001_Node000003" class="edge">
<title>Node1&#45;&gt;Node3</title>
<g id="a_edge2_Node000001_Node000003"><a xlink:title=" ">
<path fill="none" stroke="#63b8ff" d="M299.67,-257.13C289.27,-247.62 278.01,-237.32 268.14,-228.29"/>
<polygon fill="#63b8ff" stroke="#63b8ff" points="297.32,-259.73 307.06,-263.89 302.04,-254.56 297.32,-259.73"/>
</a>
</g>
</g>
<!-- Node5 -->
<g id="Node000005" class="node">
<title>Node5</title>
<g id="a_Node000005"><a xlink:href="icns__advection_8cpp.html" target="_top" xlink:title=" ">
<polygon fill="white" stroke="#666666" points="520.5,-222.5 338.5,-222.5 338.5,-181.5 520.5,-181.5 520.5,-222.5"/>
<text text-anchor="start" x="346.5" y="-210.5" font-family="Helvetica,sans-Serif" font-size="10.00">/home/runner/work/amr</text>
<text text-anchor="start" x="346.5" y="-199.5" font-family="Helvetica,sans-Serif" font-size="10.00">&#45;wind/amr&#45;wind/src/equation</text>
<text text-anchor="middle" x="429.5" y="-188.5" font-family="Helvetica,sans-Serif" font-size="10.00">_systems/icns/icns_advection.cpp</text>
</a>
</g>
</g>
<!-- Node1&#45;&gt;Node5 -->
<g id="edge5_Node000001_Node000005" class="edge">
<title>Node1&#45;&gt;Node5</title>
<g id="a_edge5_Node000001_Node000005"><a xlink:title=" ">
<path fill="none" stroke="#63b8ff" d="M369.98,-256.88C382.73,-245.34 396.72,-232.68 407.93,-222.53"/>
<polygon fill="#63b8ff" stroke="#63b8ff" points="367.3,-254.59 362.23,-263.89 372,-259.78 367.3,-254.59"/>
</a>
</g>
</g>
<!-- Node6 -->
<g id="Node000006" class="node">
<title>Node6</title>
<g id="a_Node000006"><a xlink:href="_ocean_waves_8_h.html" target="_top" xlink:title=" ">
<polygon fill="white" stroke="#666666" points="691,-222.5 548,-222.5 548,-181.5 691,-181.5 691,-222.5"/>
<text text-anchor="start" x="556" y="-210.5" font-family="Helvetica,sans-Serif" font-size="10.00">/home/runner/work/amr</text>
<text text-anchor="start" x="556" y="-199.5" font-family="Helvetica,sans-Serif" font-size="10.00">&#45;wind/amr&#45;wind/src/ocean</text>
<text text-anchor="middle" x="619.5" y="-188.5" font-family="Helvetica,sans-Serif" font-size="10.00">_waves/OceanWaves.H</text>
</a>
</g>
</g>
<!-- Node1&#45;&gt;Node6 -->
<g id="edge6_Node000001_Node000006" class="edge">
<title>Node1&#45;&gt;Node6</title>
<g id="a_edge6_Node000001_Node000006"><a xlink:title=" ">
<path fill="none" stroke="#63b8ff" d="M424.02,-261.99C466.36,-249.21 515.98,-234.24 554.63,-222.58"/>
<polygon fill="#63b8ff" stroke="#63b8ff" points="422.83,-258.69 414.27,-264.93 424.85,-265.39 422.83,-258.69"/>
</a>
</g>
</g>
<!-- Node3&#45;&gt;Node2 -->
<g id="edge3_Node000003_Node000002" class="edge">
<title>Node3&#45;&gt;Node2</title>
<g id="a_edge3_Node000003_Node000002"><a xlink:title=" ">
<path fill="none" stroke="#63b8ff" d="M185.46,-171.04C166.93,-160.95 146.46,-149.81 128.68,-140.14"/>
<polygon fill="#63b8ff" stroke="#63b8ff" points="183.92,-174.19 194.38,-175.89 187.27,-168.04 183.92,-174.19"/>
</a>
</g>
</g>
<!-- Node4 -->
<g id="Node000004" class="node">
<title>Node4</title>
<g id="a_Node000004"><a xlink:href="_ocean_waves_fill_inflow_8cpp.html" target="_top" xlink:title=" ">
<polygon fill="white" stroke="#666666" points="346,-140 183,-140 183,-88 346,-88 346,-140"/>
<text text-anchor="start" x="191" y="-128" font-family="Helvetica,sans-Serif" font-size="10.00">/home/runner/work/amr</text>
<text text-anchor="start" x="191" y="-117" font-family="Helvetica,sans-Serif" font-size="10.00">&#45;wind/amr&#45;wind/src/boundary</text>
<text text-anchor="start" x="191" y="-106" font-family="Helvetica,sans-Serif" font-size="10.00">_conditions/field_boundary</text>
<text text-anchor="middle" x="264.5" y="-95" font-family="Helvetica,sans-Serif" font-size="10.00">_fill/OceanWavesFillInflow.cpp</text>
</a>
</g>
</g>
<!-- Node3&#45;&gt;Node4 -->
<g id="edge4_Node000003_Node000004" class="edge">
<title>Node3&#45;&gt;Node4</title>
<g id="a_edge4_Node000003_Node000004"><a xlink:title=" ">
<path fill="none" stroke="#63b8ff" d="M250.31,-165.84C252.71,-157.23 255.24,-148.19 257.48,-140.16"/>
<polygon fill="#63b8ff" stroke="#63b8ff" points="246.89,-165.09 247.57,-175.66 253.63,-166.97 246.89,-165.09"/>
</a>
</g>
</g>
<!-- Node7 -->
<g id="Node000007" class="node">
<title>Node7</title>
<g id="a_Node000007"><a xlink:href="_ocean_waves_8cpp.html" target="_top" xlink:title=" ">
<polygon fill="white" stroke="#666666" points="507,-134.5 364,-134.5 364,-93.5 507,-93.5 507,-134.5"/>
<text text-anchor="start" x="372" y="-122.5" font-family="Helvetica,sans-Serif" font-size="10.00">/home/runner/work/amr</text>
<text text-anchor="start" x="372" y="-111.5" font-family="Helvetica,sans-Serif" font-size="10.00">&#45;wind/amr&#45;wind/src/ocean</text>
<text text-anchor="middle" x="435.5" y="-100.5" font-family="Helvetica,sans-Serif" font-size="10.00">_waves/OceanWaves.cpp</text>
</a>
</g>
</g>
<!-- Node6&#45;&gt;Node7 -->
<g id="edge7_Node000006_Node000007" class="edge">
<title>Node6&#45;&gt;Node7</title>
<g id="a_edge7_Node000006_Node000007"><a xlink:title=" ">
<path fill="none" stroke="#63b8ff" d="M568.68,-177.25C539.97,-163.83 504.51,-147.26 477.41,-134.59"/>
<polygon fill="#63b8ff" stroke="#63b8ff" points="567.21,-180.42 577.75,-181.49 570.17,-174.08 567.21,-180.42"/>
</a>
</g>
</g>
<!-- Node8 -->
<g id="Node000008" class="node">
<title>Node8</title>
<g id="a_Node000008"><a xlink:href="linear__waves__ops_8_h.html" target="_top" xlink:title=" ">
<polygon fill="white" stroke="#666666" points="668,-140 525,-140 525,-88 668,-88 668,-140"/>
<text text-anchor="start" x="533" y="-128" font-family="Helvetica,sans-Serif" font-size="10.00">/home/runner/work/amr</text>
<text text-anchor="start" x="533" y="-117" font-family="Helvetica,sans-Serif" font-size="10.00">&#45;wind/amr&#45;wind/src/ocean</text>
<text text-anchor="start" x="533" y="-106" font-family="Helvetica,sans-Serif" font-size="10.00">_waves/relaxation_zones</text>
<text text-anchor="middle" x="596.5" y="-95" font-family="Helvetica,sans-Serif" font-size="10.00">/linear_waves_ops.H</text>
</a>
</g>
</g>
<!-- Node6&#45;&gt;Node8 -->
<g id="edge8_Node000006_Node000008" class="edge">
<title>Node6&#45;&gt;Node8</title>
<g id="a_edge8_Node000006_Node000008"><a xlink:title=" ">
<path fill="none" stroke="#63b8ff" d="M611.68,-171.76C608.95,-161.55 605.91,-150.18 603.27,-140.32"/>
<polygon fill="#63b8ff" stroke="#63b8ff" points="608.32,-172.73 614.28,-181.49 615.08,-170.92 608.32,-172.73"/>
</a>
</g>
</g>
<!-- Node10 -->
<g id="Node000010" class="node">
<title>Node10</title>
<g id="a_Node000010"><a xlink:href="stokes__waves__ops_8_h.html" target="_top" xlink:title=" ">
<polygon fill="white" stroke="#666666" points="829,-140 686,-140 686,-88 829,-88 829,-140"/>
<text text-anchor="start" x="694" y="-128" font-family="Helvetica,sans-Serif" font-size="10.00">/home/runner/work/amr</text>
<text text-anchor="start" x="694" y="-117" font-family="Helvetica,sans-Serif" font-size="10.00">&#45;wind/amr&#45;wind/src/ocean</text>
<text text-anchor="start" x="694" y="-106" font-family="Helvetica,sans-Serif" font-size="10.00">_waves/relaxation_zones</text>
<text text-anchor="middle" x="757.5" y="-95" font-family="Helvetica,sans-Serif" font-size="10.00">/stokes_waves_ops.H</text>
</a>
</g>
</g>
<!-- Node6&#45;&gt;Node10 -->
<g id="edge10_Node000006_Node000010" class="edge">
<title>Node6&#45;&gt;Node10</title>
<g id="a_edge10_Node000006_Node000010"><a xlink:title=" ">
<path fill="none" stroke="#63b8ff" d="M659.42,-176.12C677.55,-164.83 698.95,-151.49 717.13,-140.16"/>
<polygon fill="#63b8ff" stroke="#63b8ff" points="657.45,-173.23 650.81,-181.49 661.15,-179.17 657.45,-173.23"/>
</a>
</g>
</g>
<!-- Node12 -->
<g id="Node000012" class="node">
<title>Node12</title>
<g id="a_Node000012"><a xlink:href="waves2amr__ops_8_h.html" target="_top" xlink:title=" ">
<polygon fill="white" stroke="#666666" points="990,-140 847,-140 847,-88 990,-88 990,-140"/>
<text text-anchor="start" x="855" y="-128" font-family="Helvetica,sans-Serif" font-size="10.00">/home/runner/work/amr</text>
<text text-anchor="start" x="855" y="-117" font-family="Helvetica,sans-Serif" font-size="10.00">&#45;wind/amr&#45;wind/src/ocean</text>
<text text-anchor="start" x="855" y="-106" font-family="Helvetica,sans-Serif" font-size="10.00">_waves/relaxation_zones</text>
<text text-anchor="middle" x="918.5" y="-95" font-family="Helvetica,sans-Serif" font-size="10.00">/waves2amr_ops.H</text>
</a>
</g>
</g>
<!-- Node6&#45;&gt;Node12 -->
<g id="edge12_Node000006_Node000012" class="edge">
<title>Node6&#45;&gt;Node12</title>
<g id="a_edge12_Node000006_Node000012"><a xlink:title=" ">
<path fill="none" stroke="#63b8ff" d="M700.99,-178.75C742.01,-167.41 792.47,-153.25 837.5,-140 840.61,-139.09 843.78,-138.14 846.98,-137.19"/>
<polygon fill="#63b8ff" stroke="#63b8ff" points="700.02,-175.39 691.31,-181.42 701.88,-182.13 700.02,-175.39"/>
</a>
</g>
</g>
<!-- Node14 -->
<g id="Node000014" class="node">
<title>Node14</title>
<g id="a_Node000014"><a xlink:href="nodal__projection__ops_8_h.html" target="_top" xlink:title=" ">
<polygon fill="white" stroke="#666666" points="1170.5,-134.5 1008.5,-134.5 1008.5,-93.5 1170.5,-93.5 1170.5,-134.5"/>
<text text-anchor="start" x="1016.5" y="-122.5" font-family="Helvetica,sans-Serif" font-size="10.00">/home/runner/work/amr</text>
<text text-anchor="start" x="1016.5" y="-111.5" font-family="Helvetica,sans-Serif" font-size="10.00">&#45;wind/amr&#45;wind/src/projection</text>
<text text-anchor="middle" x="1089.5" y="-100.5" font-family="Helvetica,sans-Serif" font-size="10.00">/nodal_projection_ops.H</text>
</a>
</g>
</g>
<!-- Node6&#45;&gt;Node14 -->
<g id="edge14_Node000006_Node000014" class="edge">
<title>Node6&#45;&gt;Node14</title>
<g id="a_edge14_Node000006_Node000014"><a xlink:title=" ">
<path fill="none" stroke="#63b8ff" d="M701.19,-190.58C778.48,-180.08 897.51,-162.28 999.5,-140 1006.95,-138.37 1014.69,-136.5 1022.38,-134.53"/>
<polygon fill="#63b8ff" stroke="#63b8ff" points="700.48,-187.14 691.03,-191.95 701.41,-194.08 700.48,-187.14"/>
</a>
</g>
</g>
<!-- Node9 -->
<g id="Node000009" class="node">
<title>Node9</title>
<g id="a_Node000009"><a xlink:href="_linear_waves_8cpp.html" target="_top" xlink:title=" ">
<polygon fill="white" stroke="#666666" points="668,-52 525,-52 525,0 668,0 668,-52"/>
<text text-anchor="start" x="533" y="-40" font-family="Helvetica,sans-Serif" font-size="10.00">/home/runner/work/amr</text>
<text text-anchor="start" x="533" y="-29" font-family="Helvetica,sans-Serif" font-size="10.00">&#45;wind/amr&#45;wind/src/ocean</text>
<text text-anchor="start" x="533" y="-18" font-family="Helvetica,sans-Serif" font-size="10.00">_waves/relaxation_zones</text>
<text text-anchor="middle" x="596.5" y="-7" font-family="Helvetica,sans-Serif" font-size="10.00">/LinearWaves.cpp</text>
</a>
</g>
</g>
<!-- Node8&#45;&gt;Node9 -->
<g id="edge9_Node000008_Node000009" class="edge">
<title>Node8&#45;&gt;Node9</title>
<g id="a_edge9_Node000008_Node000009"><a xlink:title=" ">
<path fill="none" stroke="#63b8ff" d="M596.5,-77.56C596.5,-69.04 596.5,-60.1 596.5,-52.16"/>
<polygon fill="#63b8ff" stroke="#63b8ff" points="593,-77.66 596.5,-87.66 600,-77.66 593,-77.66"/>
</a>
</g>
</g>
<!-- Node11 -->
<g id="Node000011" class="node">
<title>Node11</title>
<g id="a_Node000011"><a xlink:href="_stokes_waves_8cpp.html" target="_top" xlink:title=" ">
<polygon fill="white" stroke="#666666" points="829,-52 686,-52 686,0 829,0 829,-52"/>
<text text-anchor="start" x="694" y="-40" font-family="Helvetica,sans-Serif" font-size="10.00">/home/runner/work/amr</text>
<text text-anchor="start" x="694" y="-29" font-family="Helvetica,sans-Serif" font-size="10.00">&#45;wind/amr&#45;wind/src/ocean</text>
<text text-anchor="start" x="694" y="-18" font-family="Helvetica,sans-Serif" font-size="10.00">_waves/relaxation_zones</text>
<text text-anchor="middle" x="757.5" y="-7" font-family="Helvetica,sans-Serif" font-size="10.00">/StokesWaves.cpp</text>
</a>
</g>
</g>
<!-- Node10&#45;&gt;Node11 -->
<g id="edge11_Node000010_Node000011" class="edge">
<title>Node10&#45;&gt;Node11</title>
<g id="a_edge11_Node000010_Node000011"><a xlink:title=" ">
<path fill="none" stroke="#63b8ff" d="M757.5,-77.56C757.5,-69.04 757.5,-60.1 757.5,-52.16"/>
<polygon fill="#63b8ff" stroke="#63b8ff" points="754,-77.66 757.5,-87.66 761,-77.66 754,-77.66"/>
</a>
</g>
</g>
<!-- Node13 -->
<g id="Node000013" class="node">
<title>Node13</title>
<g id="a_Node000013"><a xlink:href="_w2_a_waves_8cpp.html" target="_top" xlink:title=" ">
<polygon fill="white" stroke="#666666" points="990,-52 847,-52 847,0 990,0 990,-52"/>
<text text-anchor="start" x="855" y="-40" font-family="Helvetica,sans-Serif" font-size="10.00">/home/runner/work/amr</text>
<text text-anchor="start" x="855" y="-29" font-family="Helvetica,sans-Serif" font-size="10.00">&#45;wind/amr&#45;wind/src/ocean</text>
<text text-anchor="start" x="855" y="-18" font-family="Helvetica,sans-Serif" font-size="10.00">_waves/relaxation_zones</text>
<text text-anchor="middle" x="918.5" y="-7" font-family="Helvetica,sans-Serif" font-size="10.00">/W2AWaves.cpp</text>
</a>
</g>
</g>
<!-- Node12&#45;&gt;Node13 -->
<g id="edge13_Node000012_Node000013" class="edge">
<title>Node12&#45;&gt;Node13</title>
<g id="a_edge13_Node000012_Node000013"><a xlink:title=" ">
<path fill="none" stroke="#63b8ff" d="M918.5,-77.56C918.5,-69.04 918.5,-60.1 918.5,-52.16"/>
<polygon fill="#63b8ff" stroke="#63b8ff" points="915,-77.66 918.5,-87.66 922,-77.66 915,-77.66"/>
</a>
</g>
</g>
<!-- Node15 -->
<g id="Node000015" class="node">
<title>Node15</title>
<g id="a_Node000015"><a xlink:href="_overset_ops_8cpp.html" target="_top" xlink:title=" ">
<polygon fill="white" stroke="#666666" points="1161.5,-46.5 1011.5,-46.5 1011.5,-5.5 1161.5,-5.5 1161.5,-46.5"/>
<text text-anchor="start" x="1019.5" y="-34.5" font-family="Helvetica,sans-Serif" font-size="10.00">/home/runner/work/amr</text>
<text text-anchor="start" x="1019.5" y="-23.5" font-family="Helvetica,sans-Serif" font-size="10.00">&#45;wind/amr&#45;wind/src/overset</text>
<text text-anchor="middle" x="1086.5" y="-12.5" font-family="Helvetica,sans-Serif" font-size="10.00">/OversetOps.cpp</text>
</a>
</g>
</g>
<!-- Node14&#45;&gt;Node15 -->
<g id="edge15_Node000014_Node000015" class="edge">
<title>Node14&#45;&gt;Node15</title>
<g id="a_edge15_Node000014_Node000015"><a xlink:title=" ">
<path fill="none" stroke="#63b8ff" d="M1088.47,-83.36C1088.04,-71.26 1087.57,-57.58 1087.19,-46.74"/>
<polygon fill="#63b8ff" stroke="#63b8ff" points="1084.97,-83.61 1088.82,-93.49 1091.97,-83.37 1084.97,-83.61"/>
</a>
</g>
</g>
<!-- Node16 -->
<g id="Node000016" class="node">
<title>Node16</title>
<g id="a_Node000016"><a xlink:href="incflo__apply__nodal__projection_8cpp.html" target="_top" xlink:title=" ">
<polygon fill="white" stroke="#666666" points="1364,-46.5 1179,-46.5 1179,-5.5 1364,-5.5 1364,-46.5"/>
<text text-anchor="start" x="1187" y="-34.5" font-family="Helvetica,sans-Serif" font-size="10.00">/home/runner/work/amr</text>
<text text-anchor="start" x="1187" y="-23.5" font-family="Helvetica,sans-Serif" font-size="10.00">&#45;wind/amr&#45;wind/src/projection</text>
<text text-anchor="middle" x="1271.5" y="-12.5" font-family="Helvetica,sans-Serif" font-size="10.00">/incflo_apply_nodal_projection.cpp</text>
</a>
</g>
</g>
<!-- Node14&#45;&gt;Node16 -->
<g id="edge16_Node000014_Node000016" class="edge">
<title>Node14&#45;&gt;Node16</title>
<g id="a_edge16_Node000014_Node000016"><a xlink:title=" ">
<path fill="none" stroke="#63b8ff" d="M1140.14,-89.07C1168.47,-75.68 1203.35,-59.2 1230.05,-46.59"/>
<polygon fill="#63b8ff" stroke="#63b8ff" points="1138.34,-86.05 1130.8,-93.49 1141.34,-92.38 1138.34,-86.05"/>
</a>
</g>
</g>
</g>
</svg>
