<?xml version="1.0" encoding="UTF-8" standalone="no"?>
<!DOCTYPE svg PUBLIC "-//W3C//DTD SVG 1.1//EN"
 "http://www.w3.org/Graphics/SVG/1.1/DTD/svg11.dtd">
<!-- Generated by graphviz version 2.43.0 (0)
 -->
<!-- Title: /home/runner/work/amr&#45;wind/amr&#45;wind/src/utilities/PostProcessing.H Pages: 1 -->
<svg width="2203pt" height="280pt"
 viewBox="0.00 0.00 2203.00 280.00" xmlns="http://www.w3.org/2000/svg" xmlns:xlink="http://www.w3.org/1999/xlink">
<g id="graph0" class="graph" transform="scale(1 1) rotate(0) translate(4 276)">
<title>/home/runner/work/amr&#45;wind/amr&#45;wind/src/utilities/PostProcessing.H</title>
<!-- Node1 -->
<g id="Node000001" class="node">
<title>Node1</title>
<g id="a_Node000001"><a xlink:title=" ">
<polygon fill="#999999" stroke="#666666" points="1068.5,-272 918.5,-272 918.5,-231 1068.5,-231 1068.5,-272"/>
<text text-anchor="start" x="926.5" y="-260" font-family="Helvetica,sans-Serif" font-size="10.00">/home/runner/work/amr</text>
<text text-anchor="start" x="926.5" y="-249" font-family="Helvetica,sans-Serif" font-size="10.00">&#45;wind/amr&#45;wind/src/utilities</text>
<text text-anchor="middle" x="993.5" y="-238" font-family="Helvetica,sans-Serif" font-size="10.00">/PostProcessing.H</text>
</a>
</g>
</g>
<!-- Node2 -->
<g id="Node000002" class="node">
<title>Node2</title>
<g id="a_Node000002"><a xlink:href="_c_f_d_sim_8cpp.html" target="_top" xlink:title=" ">
<polygon fill="white" stroke="#666666" points="173,-189.5 0,-189.5 0,-159.5 173,-159.5 173,-189.5"/>
<text text-anchor="start" x="8" y="-177.5" font-family="Helvetica,sans-Serif" font-size="10.00">/home/runner/work/amr</text>
<text text-anchor="middle" x="86.5" y="-166.5" font-family="Helvetica,sans-Serif" font-size="10.00">&#45;wind/amr&#45;wind/src/CFDSim.cpp</text>
</a>
</g>
</g>
<!-- Node1&#45;&gt;Node2 -->
<g id="edge1_Node000001_Node000002" class="edge">
<title>Node1&#45;&gt;Node2</title>
<g id="a_edge1_Node000001_Node000002"><a xlink:title=" ">
<path fill="none" stroke="#63b8ff" d="M907.86,-248.35C759.52,-243.81 445.41,-230.54 182.5,-195 171.8,-193.55 160.5,-191.62 149.56,-189.54"/>
<polygon fill="#63b8ff" stroke="#63b8ff" points="908.15,-251.87 918.25,-248.67 908.36,-244.87 908.15,-251.87"/>
</a>
</g>
</g>
<!-- Node3 -->
<g id="Node000003" class="node">
<title>Node3</title>
<g id="a_Node000003"><a xlink:href="incflo_8cpp.html" target="_top" xlink:title=" ">
<polygon fill="white" stroke="#666666" points="351.5,-189.5 191.5,-189.5 191.5,-159.5 351.5,-159.5 351.5,-189.5"/>
<text text-anchor="start" x="199.5" y="-177.5" font-family="Helvetica,sans-Serif" font-size="10.00">/home/runner/work/amr</text>
<text text-anchor="middle" x="271.5" y="-166.5" font-family="Helvetica,sans-Serif" font-size="10.00">&#45;wind/amr&#45;wind/src/incflo.cpp</text>
</a>
</g>
</g>
<!-- Node1&#45;&gt;Node3 -->
<g id="edge2_Node000001_Node000003" class="edge">
<title>Node1&#45;&gt;Node3</title>
<g id="a_edge2_Node000001_Node000003"><a xlink:title=" ">
<path fill="none" stroke="#63b8ff" d="M908.07,-246.49C786.07,-239.98 555.14,-224.73 360.5,-195 350.81,-193.52 340.59,-191.61 330.67,-189.57"/>
<polygon fill="#63b8ff" stroke="#63b8ff" points="907.93,-249.99 918.1,-247.02 908.3,-243 907.93,-249.99"/>
</a>
</g>
</g>
<!-- Node4 -->
<g id="Node000004" class="node">
<title>Node4</title>
<g id="a_Node000004"><a xlink:href="incflo__advance_8cpp.html" target="_top" xlink:title=" ">
<polygon fill="white" stroke="#666666" points="509.5,-195 369.5,-195 369.5,-154 509.5,-154 509.5,-195"/>
<text text-anchor="start" x="377.5" y="-183" font-family="Helvetica,sans-Serif" font-size="10.00">/home/runner/work/amr</text>
<text text-anchor="start" x="377.5" y="-172" font-family="Helvetica,sans-Serif" font-size="10.00">&#45;wind/amr&#45;wind/src/incflo</text>
<text text-anchor="middle" x="439.5" y="-161" font-family="Helvetica,sans-Serif" font-size="10.00">_advance.cpp</text>
</a>
</g>
</g>
<!-- Node1&#45;&gt;Node4 -->
<g id="edge3_Node000001_Node000004" class="edge">
<title>Node1&#45;&gt;Node4</title>
<g id="a_edge3_Node000001_Node000004"><a xlink:title=" ">
<path fill="none" stroke="#63b8ff" d="M908.03,-243.77C812.56,-235.5 653.69,-219.48 518.5,-195 515.58,-194.47 512.61,-193.9 509.61,-193.29"/>
<polygon fill="#63b8ff" stroke="#63b8ff" points="907.94,-247.28 918.2,-244.64 908.54,-240.3 907.94,-247.28"/>
</a>
</g>
</g>
<!-- Node5 -->
<g id="Node000005" class="node">
<title>Node5</title>
<g id="a_Node000005"><a xlink:href="_post_processing_8cpp.html" target="_top" xlink:title=" ">
<polygon fill="white" stroke="#666666" points="505.5,-118 355.5,-118 355.5,-77 505.5,-77 505.5,-118"/>
<text text-anchor="start" x="363.5" y="-106" font-family="Helvetica,sans-Serif" font-size="10.00">/home/runner/work/amr</text>
<text text-anchor="start" x="363.5" y="-95" font-family="Helvetica,sans-Serif" font-size="10.00">&#45;wind/amr&#45;wind/src/utilities</text>
<text text-anchor="middle" x="430.5" y="-84" font-family="Helvetica,sans-Serif" font-size="10.00">/PostProcessing.cpp</text>
</a>
</g>
</g>
<!-- Node1&#45;&gt;Node5 -->
<g id="edge4_Node000001_Node000005" class="edge">
<title>Node1&#45;&gt;Node5</title>
<g id="a_edge4_Node000001_Node000005"><a xlink:title=" ">
<path fill="none" stroke="#63b8ff" d="M908.29,-246.29C852.91,-240.44 780.81,-226.75 724.5,-195 702.86,-182.8 708.12,-166.23 686.5,-154 618.52,-115.54 590.77,-134.83 514.5,-118 511.58,-117.35 508.6,-116.69 505.59,-116.02"/>
<polygon fill="#63b8ff" stroke="#63b8ff" points="908.14,-249.79 918.43,-247.29 908.83,-242.82 908.14,-249.79"/>
</a>
</g>
</g>
<!-- Node6 -->
<g id="Node000006" class="node">
<title>Node6</title>
<g id="a_Node000006"><a xlink:href="ascent_8_h.html" target="_top" xlink:title=" ">
<polygon fill="white" stroke="#666666" points="677.5,-195 527.5,-195 527.5,-154 677.5,-154 677.5,-195"/>
<text text-anchor="start" x="535.5" y="-183" font-family="Helvetica,sans-Serif" font-size="10.00">/home/runner/work/amr</text>
<text text-anchor="start" x="535.5" y="-172" font-family="Helvetica,sans-Serif" font-size="10.00">&#45;wind/amr&#45;wind/src/utilities</text>
<text text-anchor="middle" x="602.5" y="-161" font-family="Helvetica,sans-Serif" font-size="10.00">/ascent/ascent.H</text>
</a>
</g>
</g>
<!-- Node1&#45;&gt;Node6 -->
<g id="edge5_Node000001_Node000006" class="edge">
<title>Node1&#45;&gt;Node6</title>
<g id="a_edge5_Node000001_Node000006"><a xlink:title=" ">
<path fill="none" stroke="#63b8ff" d="M908.38,-235.65C847.79,-224.89 764.52,-209.7 691.5,-195 687,-194.09 682.38,-193.14 677.73,-192.17"/>
<polygon fill="#63b8ff" stroke="#63b8ff" points="907.82,-239.11 918.28,-237.41 909.04,-232.22 907.82,-239.11"/>
</a>
</g>
</g>
<!-- Node8 -->
<g id="Node000008" class="node">
<title>Node8</title>
<g id="a_Node000008"><a xlink:href="_time_averaging_8_h.html" target="_top" xlink:title=" ">
<polygon fill="white" stroke="#666666" points="889,-195 734,-195 734,-154 889,-154 889,-195"/>
<text text-anchor="start" x="742" y="-183" font-family="Helvetica,sans-Serif" font-size="10.00">/home/runner/work/amr</text>
<text text-anchor="start" x="742" y="-172" font-family="Helvetica,sans-Serif" font-size="10.00">&#45;wind/amr&#45;wind/src/utilities</text>
<text text-anchor="middle" x="811.5" y="-161" font-family="Helvetica,sans-Serif" font-size="10.00">/averaging/TimeAveraging.H</text>
</a>
</g>
</g>
<!-- Node1&#45;&gt;Node8 -->
<g id="edge7_Node000001_Node000008" class="edge">
<title>Node1&#45;&gt;Node8</title>
<g id="a_edge7_Node000001_Node000008"><a xlink:title=" ">
<path fill="none" stroke="#63b8ff" d="M936.79,-227.13C911.79,-216.83 882.75,-204.86 858.92,-195.04"/>
<polygon fill="#63b8ff" stroke="#63b8ff" points="935.58,-230.42 946.16,-230.99 938.24,-223.94 935.58,-230.42"/>
</a>
</g>
</g>
<!-- Node14 -->
<g id="Node000014" class="node">
<title>Node14</title>
<g id="a_Node000014"><a xlink:href="_enstrophy_8_h.html" target="_top" xlink:title=" ">
<polygon fill="white" stroke="#666666" points="1076.5,-195 910.5,-195 910.5,-154 1076.5,-154 1076.5,-195"/>
<text text-anchor="start" x="918.5" y="-183" font-family="Helvetica,sans-Serif" font-size="10.00">/home/runner/work/amr</text>
<text text-anchor="start" x="918.5" y="-172" font-family="Helvetica,sans-Serif" font-size="10.00">&#45;wind/amr&#45;wind/src/utilities</text>
<text text-anchor="middle" x="993.5" y="-161" font-family="Helvetica,sans-Serif" font-size="10.00">/output_quantities/Enstrophy.H</text>
</a>
</g>
</g>
<!-- Node1&#45;&gt;Node14 -->
<g id="edge15_Node000001_Node000014" class="edge">
<title>Node1&#45;&gt;Node14</title>
<g id="a_edge15_Node000001_Node000014"><a xlink:title=" ">
<path fill="none" stroke="#63b8ff" d="M993.5,-220.69C993.5,-212.08 993.5,-202.9 993.5,-195.07"/>
<polygon fill="#63b8ff" stroke="#63b8ff" points="990,-220.79 993.5,-230.79 997,-220.79 990,-220.79"/>
</a>
</g>
</g>
<!-- Node16 -->
<g id="Node000016" class="node">
<title>Node16</title>
<g id="a_Node000016"><a xlink:href="_field_norms_8_h.html" target="_top" xlink:title=" ">
<polygon fill="white" stroke="#666666" points="1273.5,-195 1099.5,-195 1099.5,-154 1273.5,-154 1273.5,-195"/>
<text text-anchor="start" x="1107.5" y="-183" font-family="Helvetica,sans-Serif" font-size="10.00">/home/runner/work/amr</text>
<text text-anchor="start" x="1107.5" y="-172" font-family="Helvetica,sans-Serif" font-size="10.00">&#45;wind/amr&#45;wind/src/utilities</text>
<text text-anchor="middle" x="1186.5" y="-161" font-family="Helvetica,sans-Serif" font-size="10.00">/output_quantities/FieldNorms.H</text>
</a>
</g>
</g>
<!-- Node1&#45;&gt;Node16 -->
<g id="edge17_Node000001_Node000016" class="edge">
<title>Node1&#45;&gt;Node16</title>
<g id="a_edge17_Node000001_Node000016"><a xlink:title=" ">
<path fill="none" stroke="#63b8ff" d="M1053.28,-227.27C1079.87,-216.94 1110.83,-204.9 1136.21,-195.04"/>
<polygon fill="#63b8ff" stroke="#63b8ff" points="1051.76,-224.11 1043.7,-230.99 1054.29,-230.63 1051.76,-224.11"/>
</a>
</g>
</g>
<!-- Node18 -->
<g id="Node000018" class="node">
<title>Node18</title>
<g id="a_Node000018"><a xlink:href="_kinetic_energy_8_h.html" target="_top" xlink:title=" ">
<polygon fill="white" stroke="#666666" points="1484,-195 1299,-195 1299,-154 1484,-154 1484,-195"/>
<text text-anchor="start" x="1307" y="-183" font-family="Helvetica,sans-Serif" font-size="10.00">/home/runner/work/amr</text>
<text text-anchor="start" x="1307" y="-172" font-family="Helvetica,sans-Serif" font-size="10.00">&#45;wind/amr&#45;wind/src/utilities</text>
<text text-anchor="middle" x="1391.5" y="-161" font-family="Helvetica,sans-Serif" font-size="10.00">/output_quantities/KineticEnergy.H</text>
</a>
</g>
</g>
<!-- Node1&#45;&gt;Node18 -->
<g id="edge19_Node000001_Node000018" class="edge">
<title>Node1&#45;&gt;Node18</title>
<g id="a_edge19_Node000001_Node000018"><a xlink:title=" ">
<path fill="none" stroke="#63b8ff" d="M1079.01,-234.39C1143.75,-222.19 1232.57,-205.45 1298.98,-192.94"/>
<polygon fill="#63b8ff" stroke="#63b8ff" points="1078.01,-231.01 1068.83,-236.3 1079.3,-237.89 1078.01,-231.01"/>
</a>
</g>
</g>
<!-- Node20 -->
<g id="Node000020" class="node">
<title>Node20</title>
<g id="a_Node000020"><a xlink:href="_wave_energy_8_h.html" target="_top" xlink:title=" ">
<polygon fill="white" stroke="#666666" points="1688.5,-195 1510.5,-195 1510.5,-154 1688.5,-154 1688.5,-195"/>
<text text-anchor="start" x="1518.5" y="-183" font-family="Helvetica,sans-Serif" font-size="10.00">/home/runner/work/amr</text>
<text text-anchor="start" x="1518.5" y="-172" font-family="Helvetica,sans-Serif" font-size="10.00">&#45;wind/amr&#45;wind/src/utilities</text>
<text text-anchor="middle" x="1599.5" y="-161" font-family="Helvetica,sans-Serif" font-size="10.00">/output_quantities/WaveEnergy.H</text>
</a>
</g>
</g>
<!-- Node1&#45;&gt;Node20 -->
<g id="edge21_Node000001_Node000020" class="edge">
<title>Node1&#45;&gt;Node20</title>
<g id="a_edge21_Node000001_Node000020"><a xlink:title=" ">
<path fill="none" stroke="#63b8ff" d="M1078.52,-242.86C1178.02,-233.5 1347.62,-216.23 1492.5,-195 1498.29,-194.15 1504.25,-193.22 1510.25,-192.24"/>
<polygon fill="#63b8ff" stroke="#63b8ff" points="1078.16,-239.38 1068.53,-243.79 1078.81,-246.35 1078.16,-239.38"/>
</a>
</g>
</g>
<!-- Node22 -->
<g id="Node000022" class="node">
<title>Node22</title>
<g id="a_Node000022"><a xlink:href="_sampling_8_h.html" target="_top" xlink:title=" ">
<polygon fill="white" stroke="#666666" points="1863.5,-195 1713.5,-195 1713.5,-154 1863.5,-154 1863.5,-195"/>
<text text-anchor="start" x="1721.5" y="-183" font-family="Helvetica,sans-Serif" font-size="10.00">/home/runner/work/amr</text>
<text text-anchor="start" x="1721.5" y="-172" font-family="Helvetica,sans-Serif" font-size="10.00">&#45;wind/amr&#45;wind/src/utilities</text>
<text text-anchor="middle" x="1788.5" y="-161" font-family="Helvetica,sans-Serif" font-size="10.00">/sampling/Sampling.H</text>
</a>
</g>
</g>
<!-- Node1&#45;&gt;Node22 -->
<g id="edge23_Node000001_Node000022" class="edge">
<title>Node1&#45;&gt;Node22</title>
<g id="a_edge23_Node000001_Node000022"><a xlink:title=" ">
<path fill="none" stroke="#63b8ff" d="M1078.73,-247.42C1211.54,-241.81 1475.66,-227.37 1697.5,-195 1702.62,-194.25 1707.88,-193.39 1713.16,-192.45"/>
<polygon fill="#63b8ff" stroke="#63b8ff" points="1078.47,-243.93 1068.62,-247.84 1078.76,-250.93 1078.47,-243.93"/>
</a>
</g>
</g>
<!-- Node24 -->
<g id="Node000024" class="node">
<title>Node24</title>
<g id="a_Node000024"><a xlink:href="_subvolume_8_h.html" target="_top" xlink:title=" ">
<polygon fill="white" stroke="#666666" points="2035.5,-195 1885.5,-195 1885.5,-154 2035.5,-154 2035.5,-195"/>
<text text-anchor="start" x="1893.5" y="-183" font-family="Helvetica,sans-Serif" font-size="10.00">/home/runner/work/amr</text>
<text text-anchor="start" x="1893.5" y="-172" font-family="Helvetica,sans-Serif" font-size="10.00">&#45;wind/amr&#45;wind/src/utilities</text>
<text text-anchor="middle" x="1960.5" y="-161" font-family="Helvetica,sans-Serif" font-size="10.00">/subvolume/Subvolume.H</text>
</a>
</g>
</g>
<!-- Node1&#45;&gt;Node24 -->
<g id="edge25_Node000001_Node000024" class="edge">
<title>Node1&#45;&gt;Node24</title>
<g id="a_edge25_Node000001_Node000024"><a xlink:title=" ">
<path fill="none" stroke="#63b8ff" d="M1078.66,-249.5C1236.15,-246.68 1583.24,-235.93 1872.5,-195 1876.68,-194.41 1880.96,-193.72 1885.27,-192.97"/>
<polygon fill="#63b8ff" stroke="#63b8ff" points="1078.5,-246 1068.57,-249.67 1078.62,-253 1078.5,-246"/>
</a>
</g>
</g>
<!-- Node26 -->
<g id="Node000026" class="node">
<title>Node26</title>
<g id="a_Node000026"><a xlink:href="_a_b_l_stats_8_h.html" target="_top" xlink:title=" ">
<polygon fill="white" stroke="#666666" points="2195,-195 2058,-195 2058,-154 2195,-154 2195,-195"/>
<text text-anchor="start" x="2066" y="-183" font-family="Helvetica,sans-Serif" font-size="10.00">/home/runner/work/amr</text>
<text text-anchor="start" x="2066" y="-172" font-family="Helvetica,sans-Serif" font-size="10.00">&#45;wind/amr&#45;wind/src/wind</text>
<text text-anchor="middle" x="2126.5" y="-161" font-family="Helvetica,sans-Serif" font-size="10.00">_energy/ABLStats.H</text>
</a>
</g>
</g>
<!-- Node1&#45;&gt;Node26 -->
<g id="edge27_Node000001_Node000026" class="edge">
<title>Node1&#45;&gt;Node26</title>
<g id="a_edge27_Node000001_Node000026"><a xlink:title=" ">
<path fill="none" stroke="#63b8ff" d="M1079.01,-251.2C1258.75,-251.52 1688.58,-246.29 2044.5,-195 2048.85,-194.37 2053.3,-193.63 2057.77,-192.8"/>
<polygon fill="#63b8ff" stroke="#63b8ff" points="1078.83,-247.7 1068.82,-251.17 1078.81,-254.7 1078.83,-247.7"/>
</a>
</g>
</g>
<!-- Node7 -->
<g id="Node000007" class="node">
<title>Node7</title>
<g id="a_Node000007"><a xlink:href="ascent_8cpp.html" target="_top" xlink:title=" ">
<polygon fill="white" stroke="#666666" points="337.5,-118 187.5,-118 187.5,-77 337.5,-77 337.5,-118"/>
<text text-anchor="start" x="195.5" y="-106" font-family="Helvetica,sans-Serif" font-size="10.00">/home/runner/work/amr</text>
<text text-anchor="start" x="195.5" y="-95" font-family="Helvetica,sans-Serif" font-size="10.00">&#45;wind/amr&#45;wind/src/utilities</text>
<text text-anchor="middle" x="262.5" y="-84" font-family="Helvetica,sans-Serif" font-size="10.00">/ascent/ascent.cpp</text>
</a>
</g>
</g>
<!-- Node6&#45;&gt;Node7 -->
<g id="edge6_Node000006_Node000007" class="edge">
<title>Node6&#45;&gt;Node7</title>
<g id="a_edge6_Node000006_Node000007"><a xlink:title=" ">
<path fill="none" stroke="#63b8ff" d="M517.25,-153.75C440.54,-136.95 419.64,-134.14 346.5,-118 343.58,-117.35 340.6,-116.69 337.59,-116.02"/>
<polygon fill="#63b8ff" stroke="#63b8ff" points="516.89,-157.25 527.41,-155.98 518.4,-150.42 516.89,-157.25"/>
</a>
</g>
</g>
<!-- Node8&#45;&gt;Node5 -->
<g id="edge8_Node000008_Node000005" class="edge">
<title>Node8&#45;&gt;Node5</title>
<g id="a_edge8_Node000008_Node000005"><a xlink:title=" ">
<path fill="none" stroke="#63b8ff" d="M723.89,-154.86C722.42,-154.57 720.95,-154.28 719.5,-154 628.68,-136.41 605.14,-136.47 514.5,-118 511.57,-117.4 508.58,-116.78 505.56,-116.14"/>
<polygon fill="#63b8ff" stroke="#63b8ff" points="723.25,-158.3 733.74,-156.82 724.62,-151.43 723.25,-158.3"/>
</a>
</g>
</g>
<!-- Node9 -->
<g id="Node000009" class="node">
<title>Node9</title>
<g id="a_Node000009"><a xlink:href="_re_averaging_8_h.html" target="_top" xlink:title=" ">
<polygon fill="white" stroke="#666666" points="673.5,-118 523.5,-118 523.5,-77 673.5,-77 673.5,-118"/>
<text text-anchor="start" x="531.5" y="-106" font-family="Helvetica,sans-Serif" font-size="10.00">/home/runner/work/amr</text>
<text text-anchor="start" x="531.5" y="-95" font-family="Helvetica,sans-Serif" font-size="10.00">&#45;wind/amr&#45;wind/src/utilities</text>
<text text-anchor="middle" x="598.5" y="-84" font-family="Helvetica,sans-Serif" font-size="10.00">/averaging/ReAveraging.H</text>
</a>
</g>
</g>
<!-- Node8&#45;&gt;Node9 -->
<g id="edge9_Node000008_Node000009" class="edge">
<title>Node8&#45;&gt;Node9</title>
<g id="a_edge9_Node000008_Node000009"><a xlink:title=" ">
<path fill="none" stroke="#63b8ff" d="M746.29,-150.54C716.78,-140.15 682.25,-127.99 654,-118.04"/>
<polygon fill="#63b8ff" stroke="#63b8ff" points="745.5,-153.97 756.09,-153.99 747.82,-147.37 745.5,-153.97"/>
</a>
</g>
</g>
<!-- Node11 -->
<g id="Node000011" class="node">
<title>Node11</title>
<g id="a_Node000011"><a xlink:href="_time_averaging_8cpp.html" target="_top" xlink:title=" ">
<polygon fill="white" stroke="#666666" points="745,-41 580,-41 580,0 745,0 745,-41"/>
<text text-anchor="start" x="588" y="-29" font-family="Helvetica,sans-Serif" font-size="10.00">/home/runner/work/amr</text>
<text text-anchor="start" x="588" y="-18" font-family="Helvetica,sans-Serif" font-size="10.00">&#45;wind/amr&#45;wind/src/utilities</text>
<text text-anchor="middle" x="662.5" y="-7" font-family="Helvetica,sans-Serif" font-size="10.00">/averaging/TimeAveraging.cpp</text>
</a>
</g>
</g>
<!-- Node8&#45;&gt;Node11 -->
<g id="edge14_Node000008_Node000011" class="edge">
<title>Node8&#45;&gt;Node11</title>
<g id="a_edge14_Node000008_Node000011"><a xlink:title=" ">
<path fill="none" stroke="#63b8ff" d="M761.27,-148.73C747.06,-140.24 732.27,-129.85 720.5,-118 697.91,-95.26 680.46,-62.05 670.83,-41.12"/>
<polygon fill="#63b8ff" stroke="#63b8ff" points="759.59,-151.81 770.01,-153.77 763.09,-145.75 759.59,-151.81"/>
</a>
</g>
</g>
<!-- Node12 -->
<g id="Node000012" class="node">
<title>Node12</title>
<g id="a_Node000012"><a xlink:href="_reynolds_stress_8_h.html" target="_top" xlink:title=" ">
<polygon fill="white" stroke="#666666" points="887,-118 730,-118 730,-77 887,-77 887,-118"/>
<text text-anchor="start" x="738" y="-106" font-family="Helvetica,sans-Serif" font-size="10.00">/home/runner/work/amr</text>
<text text-anchor="start" x="738" y="-95" font-family="Helvetica,sans-Serif" font-size="10.00">&#45;wind/amr&#45;wind/src/utilities</text>
<text text-anchor="middle" x="808.5" y="-84" font-family="Helvetica,sans-Serif" font-size="10.00">/averaging/ReynoldsStress.H</text>
</a>
</g>
</g>
<!-- Node8&#45;&gt;Node12 -->
<g id="edge12_Node000008_Node000012" class="edge">
<title>Node8&#45;&gt;Node12</title>
<g id="a_edge12_Node000008_Node000012"><a xlink:title=" ">
<path fill="none" stroke="#63b8ff" d="M810.31,-143.69C809.96,-135.08 809.6,-125.9 809.28,-118.07"/>
<polygon fill="#63b8ff" stroke="#63b8ff" points="806.81,-143.94 810.71,-153.79 813.81,-143.66 806.81,-143.94"/>
</a>
</g>
</g>
<!-- Node10 -->
<g id="Node000010" class="node">
<title>Node10</title>
<g id="a_Node000010"><a xlink:href="_re_averaging_8cpp.html" target="_top" xlink:title=" ">
<polygon fill="white" stroke="#666666" points="562,-41 409,-41 409,0 562,0 562,-41"/>
<text text-anchor="start" x="417" y="-29" font-family="Helvetica,sans-Serif" font-size="10.00">/home/runner/work/amr</text>
<text text-anchor="start" x="417" y="-18" font-family="Helvetica,sans-Serif" font-size="10.00">&#45;wind/amr&#45;wind/src/utilities</text>
<text text-anchor="middle" x="485.5" y="-7" font-family="Helvetica,sans-Serif" font-size="10.00">/averaging/ReAveraging.cpp</text>
</a>
</g>
</g>
<!-- Node9&#45;&gt;Node10 -->
<g id="edge10_Node000009_Node000010" class="edge">
<title>Node9&#45;&gt;Node10</title>
<g id="a_edge10_Node000009_Node000010"><a xlink:title=" ">
<path fill="none" stroke="#63b8ff" d="M560.64,-71.37C545.81,-61.53 529.06,-50.41 515.14,-41.17"/>
<polygon fill="#63b8ff" stroke="#63b8ff" points="558.84,-74.38 569.11,-76.99 562.71,-68.54 558.84,-74.38"/>
</a>
</g>
</g>
<!-- Node9&#45;&gt;Node11 -->
<g id="edge11_Node000009_Node000011" class="edge">
<title>Node9&#45;&gt;Node11</title>
<g id="a_edge11_Node000009_Node000011"><a xlink:title=" ">
<path fill="none" stroke="#63b8ff" d="M622.01,-68.95C629.9,-59.7 638.54,-49.58 645.8,-41.07"/>
<polygon fill="#63b8ff" stroke="#63b8ff" points="619.14,-66.92 615.32,-76.79 624.47,-71.46 619.14,-66.92"/>
</a>
</g>
</g>
<!-- Node13 -->
<g id="Node000013" class="node">
<title>Node13</title>
<g id="a_Node000013"><a xlink:href="_reynolds_stress_8cpp.html" target="_top" xlink:title=" ">
<polygon fill="white" stroke="#666666" points="930,-41 763,-41 763,0 930,0 930,-41"/>
<text text-anchor="start" x="771" y="-29" font-family="Helvetica,sans-Serif" font-size="10.00">/home/runner/work/amr</text>
<text text-anchor="start" x="771" y="-18" font-family="Helvetica,sans-Serif" font-size="10.00">&#45;wind/amr&#45;wind/src/utilities</text>
<text text-anchor="middle" x="846.5" y="-7" font-family="Helvetica,sans-Serif" font-size="10.00">/averaging/ReynoldsStress.cpp</text>
</a>
</g>
</g>
<!-- Node12&#45;&gt;Node13 -->
<g id="edge13_Node000012_Node000013" class="edge">
<title>Node12&#45;&gt;Node13</title>
<g id="a_edge13_Node000012_Node000013"><a xlink:title=" ">
<path fill="none" stroke="#63b8ff" d="M823.03,-67.83C827.56,-58.89 832.45,-49.24 836.58,-41.07"/>
<polygon fill="#63b8ff" stroke="#63b8ff" points="819.88,-66.29 818.48,-76.79 826.13,-69.46 819.88,-66.29"/>
</a>
</g>
</g>
<!-- Node15 -->
<g id="Node000015" class="node">
<title>Node15</title>
<g id="a_Node000015"><a xlink:href="_enstrophy_8cpp.html" target="_top" xlink:title=" ">
<polygon fill="white" stroke="#666666" points="1081.5,-118 905.5,-118 905.5,-77 1081.5,-77 1081.5,-118"/>
<text text-anchor="start" x="913.5" y="-106" font-family="Helvetica,sans-Serif" font-size="10.00">/home/runner/work/amr</text>
<text text-anchor="start" x="913.5" y="-95" font-family="Helvetica,sans-Serif" font-size="10.00">&#45;wind/amr&#45;wind/src/utilities</text>
<text text-anchor="middle" x="993.5" y="-84" font-family="Helvetica,sans-Serif" font-size="10.00">/output_quantities/Enstrophy.cpp</text>
</a>
</g>
</g>
<!-- Node14&#45;&gt;Node15 -->
<g id="edge16_Node000014_Node000015" class="edge">
<title>Node14&#45;&gt;Node15</title>
<g id="a_edge16_Node000014_Node000015"><a xlink:title=" ">
<path fill="none" stroke="#63b8ff" d="M993.5,-143.69C993.5,-135.08 993.5,-125.9 993.5,-118.07"/>
<polygon fill="#63b8ff" stroke="#63b8ff" points="990,-143.79 993.5,-153.79 997,-143.79 990,-143.79"/>
</a>
</g>
</g>
<!-- Node17 -->
<g id="Node000017" class="node">
<title>Node17</title>
<g id="a_Node000017"><a xlink:href="_field_norms_8cpp.html" target="_top" xlink:title=" ">
<polygon fill="white" stroke="#666666" points="1283.5,-118 1099.5,-118 1099.5,-77 1283.5,-77 1283.5,-118"/>
<text text-anchor="start" x="1107.5" y="-106" font-family="Helvetica,sans-Serif" font-size="10.00">/home/runner/work/amr</text>
<text text-anchor="start" x="1107.5" y="-95" font-family="Helvetica,sans-Serif" font-size="10.00">&#45;wind/amr&#45;wind/src/utilities</text>
<text text-anchor="middle" x="1191.5" y="-84" font-family="Helvetica,sans-Serif" font-size="10.00">/output_quantities/FieldNorms.cpp</text>
</a>
</g>
</g>
<!-- Node16&#45;&gt;Node17 -->
<g id="edge18_Node000016_Node000017" class="edge">
<title>Node16&#45;&gt;Node17</title>
<g id="a_edge18_Node000016_Node000017"><a xlink:title=" ">
<path fill="none" stroke="#63b8ff" d="M1188.49,-143.69C1189.06,-135.08 1189.67,-125.9 1190.2,-118.07"/>
<polygon fill="#63b8ff" stroke="#63b8ff" points="1184.99,-143.58 1187.81,-153.79 1191.97,-144.05 1184.99,-143.58"/>
</a>
</g>
</g>
<!-- Node19 -->
<g id="Node000019" class="node">
<title>Node19</title>
<g id="a_Node000019"><a xlink:href="_kinetic_energy_8cpp.html" target="_top" xlink:title=" ">
<polygon fill="white" stroke="#666666" points="1495.5,-118 1301.5,-118 1301.5,-77 1495.5,-77 1495.5,-118"/>
<text text-anchor="start" x="1309.5" y="-106" font-family="Helvetica,sans-Serif" font-size="10.00">/home/runner/work/amr</text>
<text text-anchor="start" x="1309.5" y="-95" font-family="Helvetica,sans-Serif" font-size="10.00">&#45;wind/amr&#45;wind/src/utilities</text>
<text text-anchor="middle" x="1398.5" y="-84" font-family="Helvetica,sans-Serif" font-size="10.00">/output_quantities/KineticEnergy.cpp</text>
</a>
</g>
</g>
<!-- Node18&#45;&gt;Node19 -->
<g id="edge20_Node000018_Node000019" class="edge">
<title>Node18&#45;&gt;Node19</title>
<g id="a_edge20_Node000018_Node000019"><a xlink:title=" ">
<path fill="none" stroke="#63b8ff" d="M1394.28,-143.69C1395.09,-135.08 1395.94,-125.9 1396.67,-118.07"/>
<polygon fill="#63b8ff" stroke="#63b8ff" points="1390.78,-143.51 1393.34,-153.79 1397.75,-144.16 1390.78,-143.51"/>
</a>
</g>
</g>
<!-- Node21 -->
<g id="Node000021" class="node">
<title>Node21</title>
<g id="a_Node000021"><a xlink:href="_wave_energy_8cpp.html" target="_top" xlink:title=" ">
<polygon fill="white" stroke="#666666" points="1701.5,-118 1513.5,-118 1513.5,-77 1701.5,-77 1701.5,-118"/>
<text text-anchor="start" x="1521.5" y="-106" font-family="Helvetica,sans-Serif" font-size="10.00">/home/runner/work/amr</text>
<text text-anchor="start" x="1521.5" y="-95" font-family="Helvetica,sans-Serif" font-size="10.00">&#45;wind/amr&#45;wind/src/utilities</text>
<text text-anchor="middle" x="1607.5" y="-84" font-family="Helvetica,sans-Serif" font-size="10.00">/output_quantities/WaveEnergy.cpp</text>
</a>
</g>
</g>
<!-- Node20&#45;&gt;Node21 -->
<g id="edge22_Node000020_Node000021" class="edge">
<title>Node20&#45;&gt;Node21</title>
<g id="a_edge22_Node000020_Node000021"><a xlink:title=" ">
<path fill="none" stroke="#63b8ff" d="M1602.68,-143.69C1603.6,-135.08 1604.58,-125.9 1605.41,-118.07"/>
<polygon fill="#63b8ff" stroke="#63b8ff" points="1599.18,-143.48 1601.6,-153.79 1606.14,-144.22 1599.18,-143.48"/>
</a>
</g>
</g>
<!-- Node23 -->
<g id="Node000023" class="node">
<title>Node23</title>
<g id="a_Node000023"><a xlink:href="_sampling_8cpp.html" target="_top" xlink:title=" ">
<polygon fill="white" stroke="#666666" points="1869.5,-118 1719.5,-118 1719.5,-77 1869.5,-77 1869.5,-118"/>
<text text-anchor="start" x="1727.5" y="-106" font-family="Helvetica,sans-Serif" font-size="10.00">/home/runner/work/amr</text>
<text text-anchor="start" x="1727.5" y="-95" font-family="Helvetica,sans-Serif" font-size="10.00">&#45;wind/amr&#45;wind/src/utilities</text>
<text text-anchor="middle" x="1794.5" y="-84" font-family="Helvetica,sans-Serif" font-size="10.00">/sampling/Sampling.cpp</text>
</a>
</g>
</g>
<!-- Node22&#45;&gt;Node23 -->
<g id="edge24_Node000022_Node000023" class="edge">
<title>Node22&#45;&gt;Node23</title>
<g id="a_edge24_Node000022_Node000023"><a xlink:title=" ">
<path fill="none" stroke="#63b8ff" d="M1790.88,-143.69C1791.57,-135.08 1792.31,-125.9 1792.93,-118.07"/>
<polygon fill="#63b8ff" stroke="#63b8ff" points="1787.39,-143.55 1790.08,-153.79 1794.36,-144.11 1787.39,-143.55"/>
</a>
</g>
</g>
<!-- Node25 -->
<g id="Node000025" class="node">
<title>Node25</title>
<g id="a_Node000025"><a xlink:href="_subvolume_8cpp.html" target="_top" xlink:title=" ">
<polygon fill="white" stroke="#666666" points="2039.5,-118 1887.5,-118 1887.5,-77 2039.5,-77 2039.5,-118"/>
<text text-anchor="start" x="1895.5" y="-106" font-family="Helvetica,sans-Serif" font-size="10.00">/home/runner/work/amr</text>
<text text-anchor="start" x="1895.5" y="-95" font-family="Helvetica,sans-Serif" font-size="10.00">&#45;wind/amr&#45;wind/src/utilities</text>
<text text-anchor="middle" x="1963.5" y="-84" font-family="Helvetica,sans-Serif" font-size="10.00">/subvolume/Subvolume.cpp</text>
</a>
</g>
</g>
<!-- Node24&#45;&gt;Node25 -->
<g id="edge26_Node000024_Node000025" class="edge">
<title>Node24&#45;&gt;Node25</title>
<g id="a_edge26_Node000024_Node000025"><a xlink:title=" ">
<path fill="none" stroke="#63b8ff" d="M1961.69,-143.69C1962.04,-135.08 1962.4,-125.9 1962.72,-118.07"/>
<polygon fill="#63b8ff" stroke="#63b8ff" points="1958.19,-143.66 1961.29,-153.79 1965.19,-143.94 1958.19,-143.66"/>
</a>
</g>
</g>
<!-- Node27 -->
<g id="Node000027" class="node">
<title>Node27</title>
<g id="a_Node000027"><a xlink:href="_a_b_l_stats_8cpp.html" target="_top" xlink:title=" ">
<polygon fill="white" stroke="#666666" points="2195,-118 2058,-118 2058,-77 2195,-77 2195,-118"/>
<text text-anchor="start" x="2066" y="-106" font-family="Helvetica,sans-Serif" font-size="10.00">/home/runner/work/amr</text>
<text text-anchor="start" x="2066" y="-95" font-family="Helvetica,sans-Serif" font-size="10.00">&#45;wind/amr&#45;wind/src/wind</text>
<text text-anchor="middle" x="2126.5" y="-84" font-family="Helvetica,sans-Serif" font-size="10.00">_energy/ABLStats.cpp</text>
</a>
</g>
</g>
<!-- Node26&#45;&gt;Node27 -->
<g id="edge28_Node000026_Node000027" class="edge">
<title>Node26&#45;&gt;Node27</title>
<g id="a_edge28_Node000026_Node000027"><a xlink:title=" ">
<path fill="none" stroke="#63b8ff" d="M2126.5,-143.69C2126.5,-135.08 2126.5,-125.9 2126.5,-118.07"/>
<polygon fill="#63b8ff" stroke="#63b8ff" points="2123,-143.79 2126.5,-153.79 2130,-143.79 2123,-143.79"/>
</a>
</g>
</g>
</g>
</svg>
