<?xml version="1.0" encoding="UTF-8" standalone="no"?>
<!DOCTYPE svg PUBLIC "-//W3C//DTD SVG 1.1//EN"
 "http://www.w3.org/Graphics/SVG/1.1/DTD/svg11.dtd">
<!-- Generated by graphviz version 2.43.0 (0)
 -->
<!-- Title: /home/runner/work/amr&#45;wind/amr&#45;wind/src/physics/RayleighTaylorFieldInit.H Pages: 1 -->
<svg width="366pt" height="203pt"
 viewBox="0.00 0.00 365.50 203.00" xmlns="http://www.w3.org/2000/svg" xmlns:xlink="http://www.w3.org/1999/xlink">
<g id="graph0" class="graph" transform="scale(1 1) rotate(0) translate(4 199)">
<title>/home/runner/work/amr&#45;wind/amr&#45;wind/src/physics/RayleighTaylorFieldInit.H</title>
<!-- Node1 -->
<g id="Node000001" class="node">
<title>Node1</title>
<g id="a_Node000001"><a xlink:title=" ">
<polygon fill="#999999" stroke="#666666" points="253,-195 103,-195 103,-154 253,-154 253,-195"/>
<text text-anchor="start" x="111" y="-183" font-family="Helvetica,sans-Serif" font-size="10.00">/home/runner/work/amr</text>
<text text-anchor="start" x="111" y="-172" font-family="Helvetica,sans-Serif" font-size="10.00">&#45;wind/amr&#45;wind/src/physics</text>
<text text-anchor="middle" x="178" y="-161" font-family="Helvetica,sans-Serif" font-size="10.00">/RayleighTaylorFieldInit.H</text>
</a>
</g>
</g>
<!-- Node2 -->
<g id="Node000002" class="node">
<title>Node2</title>
<g id="a_Node000002"><a xlink:href="_rayleigh_taylor_8_h.html" target="_top" xlink:title=" ">
<polygon fill="white" stroke="#666666" points="150,-118 0,-118 0,-77 150,-77 150,-118"/>
<text text-anchor="start" x="8" y="-106" font-family="Helvetica,sans-Serif" font-size="10.00">/home/runner/work/amr</text>
<text text-anchor="start" x="8" y="-95" font-family="Helvetica,sans-Serif" font-size="10.00">&#45;wind/amr&#45;wind/src/physics</text>
<text text-anchor="middle" x="75" y="-84" font-family="Helvetica,sans-Serif" font-size="10.00">/RayleighTaylor.H</text>
</a>
</g>
</g>
<!-- Node1&#45;&gt;Node2 -->
<g id="edge1_Node000001_Node000002" class="edge">
<title>Node1&#45;&gt;Node2</title>
<g id="a_edge1_Node000001_Node000002"><a xlink:title=" ">
<path fill="none" stroke="#63b8ff" d="M143.11,-148.09C129.69,-138.32 114.58,-127.32 102.02,-118.17"/>
<polygon fill="#63b8ff" stroke="#63b8ff" points="141.06,-150.93 151.21,-153.99 145.18,-145.27 141.06,-150.93"/>
</a>
</g>
</g>
<!-- Node3 -->
<g id="Node000003" class="node">
<title>Node3</title>
<g id="a_Node000003"><a xlink:href="_rayleigh_taylor_8cpp.html" target="_top" xlink:title=" ">
<polygon fill="white" stroke="#666666" points="201,-41 51,-41 51,0 201,0 201,-41"/>
<text text-anchor="start" x="59" y="-29" font-family="Helvetica,sans-Serif" font-size="10.00">/home/runner/work/amr</text>
<text text-anchor="start" x="59" y="-18" font-family="Helvetica,sans-Serif" font-size="10.00">&#45;wind/amr&#45;wind/src/physics</text>
<text text-anchor="middle" x="126" y="-7" font-family="Helvetica,sans-Serif" font-size="10.00">/RayleighTaylor.cpp</text>
</a>
</g>
</g>
<!-- Node1&#45;&gt;Node3 -->
<g id="edge3_Node000001_Node000003" class="edge">
<title>Node1&#45;&gt;Node3</title>
<g id="a_edge3_Node000001_Node000003"><a xlink:title=" ">
<path fill="none" stroke="#63b8ff" d="M174.8,-143.63C172.07,-124.19 167.24,-98.53 159,-77 154.19,-64.44 146.64,-51.46 139.97,-41.21"/>
<polygon fill="#63b8ff" stroke="#63b8ff" points="171.35,-144.26 176.11,-153.73 178.29,-143.36 171.35,-144.26"/>
</a>
</g>
</g>
<!-- Node4 -->
<g id="Node000004" class="node">
<title>Node4</title>
<g id="a_Node000004"><a xlink:href="_rayleigh_taylor_field_init_8cpp.html" target="_top" xlink:title=" ">
<polygon fill="white" stroke="#666666" points="357.5,-118 206.5,-118 206.5,-77 357.5,-77 357.5,-118"/>
<text text-anchor="start" x="214.5" y="-106" font-family="Helvetica,sans-Serif" font-size="10.00">/home/runner/work/amr</text>
<text text-anchor="start" x="214.5" y="-95" font-family="Helvetica,sans-Serif" font-size="10.00">&#45;wind/amr&#45;wind/src/physics</text>
<text text-anchor="middle" x="282" y="-84" font-family="Helvetica,sans-Serif" font-size="10.00">/RayleighTaylorFieldInit.cpp</text>
</a>
</g>
</g>
<!-- Node1&#45;&gt;Node4 -->
<g id="edge4_Node000001_Node000004" class="edge">
<title>Node1&#45;&gt;Node4</title>
<g id="a_edge4_Node000001_Node000004"><a xlink:title=" ">
<path fill="none" stroke="#63b8ff" d="M213.23,-148.09C226.78,-138.32 242.03,-127.32 254.72,-118.17"/>
<polygon fill="#63b8ff" stroke="#63b8ff" points="211.12,-145.3 205.05,-153.99 215.21,-150.98 211.12,-145.3"/>
</a>
</g>
</g>
<!-- Node2&#45;&gt;Node3 -->
<g id="edge2_Node000002_Node000003" class="edge">
<title>Node2&#45;&gt;Node3</title>
<g id="a_edge2_Node000002_Node000003"><a xlink:title=" ">
<path fill="none" stroke="#63b8ff" d="M94.11,-68.39C100.3,-59.3 107.02,-49.41 112.69,-41.07"/>
<polygon fill="#63b8ff" stroke="#63b8ff" points="91.13,-66.56 88.4,-76.79 96.92,-70.49 91.13,-66.56"/>
</a>
</g>
</g>
</g>
</svg>
