<?xml version="1.0" encoding="UTF-8" standalone="no"?>
<!DOCTYPE svg PUBLIC "-//W3C//DTD SVG 1.1//EN"
 "http://www.w3.org/Graphics/SVG/1.1/DTD/svg11.dtd">
<!-- Generated by graphviz version 2.43.0 (0)
 -->
<!-- Title: /home/runner/work/amr&#45;wind/amr&#45;wind/src/ocean_waves/relaxation_zones/RelaxationZones.H Pages: 1 -->
<svg width="686pt" height="423pt"
 viewBox="0.00 0.00 685.50 423.00" xmlns="http://www.w3.org/2000/svg" xmlns:xlink="http://www.w3.org/1999/xlink">
<g id="graph0" class="graph" transform="scale(1 1) rotate(0) translate(4 419)">
<title>/home/runner/work/amr&#45;wind/amr&#45;wind/src/ocean_waves/relaxation_zones/RelaxationZones.H</title>
<!-- Node1 -->
<g id="Node000001" class="node">
<title>Node1</title>
<g id="a_Node000001"><a xlink:title=" ">
<polygon fill="#999999" stroke="#666666" points="596,-415 453,-415 453,-363 596,-363 596,-415"/>
<text text-anchor="start" x="461" y="-403" font-family="Helvetica,sans-Serif" font-size="10.00">/home/runner/work/amr</text>
<text text-anchor="start" x="461" y="-392" font-family="Helvetica,sans-Serif" font-size="10.00">&#45;wind/amr&#45;wind/src/ocean</text>
<text text-anchor="start" x="461" y="-381" font-family="Helvetica,sans-Serif" font-size="10.00">_waves/relaxation_zones</text>
<text text-anchor="middle" x="524.5" y="-370" font-family="Helvetica,sans-Serif" font-size="10.00">/RelaxationZones.H</text>
</a>
</g>
</g>
<!-- Node2 -->
<g id="Node000002" class="node">
<title>Node2</title>
<g id="a_Node000002"><a xlink:href="_ocean_waves_types_8_h.html" target="_top" xlink:title=" ">
<polygon fill="white" stroke="#666666" points="252.5,-327 86.5,-327 86.5,-297 252.5,-297 252.5,-327"/>
<text text-anchor="start" x="94.5" y="-315" font-family="Helvetica,sans-Serif" font-size="10.00">src/ocean_waves/OceanWaves</text>
<text text-anchor="middle" x="169.5" y="-304" font-family="Helvetica,sans-Serif" font-size="10.00">Types.H</text>
</a>
</g>
</g>
<!-- Node1&#45;&gt;Node2 -->
<g id="edge1_Node000001_Node000002" class="edge">
<title>Node1&#45;&gt;Node2</title>
<g id="a_edge1_Node000001_Node000002"><a xlink:title=" ">
<path fill="none" stroke="#63b8ff" d="M452.66,-372.82C392.59,-360.13 307.14,-342.08 245.84,-329.13"/>
<polygon fill="#63b8ff" stroke="#63b8ff" points="246.34,-325.66 235.84,-327.01 244.9,-332.51 246.34,-325.66"/>
</a>
</g>
</g>
<!-- Node4 -->
<g id="Node000004" class="node">
<title>Node4</title>
<g id="a_Node000004"><a xlink:href="vector__space_8_h.html" target="_top" xlink:title=" ">
<polygon fill="white" stroke="#666666" points="372,-261 269,-261 269,-231 372,-231 372,-261"/>
<text text-anchor="start" x="277" y="-249" font-family="Helvetica,sans-Serif" font-size="10.00">src/core/vs/vector</text>
<text text-anchor="middle" x="320.5" y="-238" font-family="Helvetica,sans-Serif" font-size="10.00">_space.H</text>
</a>
</g>
</g>
<!-- Node1&#45;&gt;Node4 -->
<g id="edge26_Node000001_Node000004" class="edge">
<title>Node1&#45;&gt;Node4</title>
<g id="a_edge26_Node000001_Node000004"><a xlink:title=" ">
<path fill="none" stroke="#63b8ff" d="M488.03,-362.79C448.41,-335.41 385.92,-292.21 349.5,-267.04"/>
<polygon fill="#63b8ff" stroke="#63b8ff" points="351.05,-263.86 340.83,-261.05 347.07,-269.62 351.05,-263.86"/>
</a>
</g>
</g>
<!-- Node16 -->
<g id="Node000016" class="node">
<title>Node16</title>
<g id="a_Node000016"><a xlink:title=" ">
<polygon fill="#e0e0e0" stroke="#999999" points="660.5,-19 568.5,-19 568.5,0 660.5,0 660.5,-19"/>
<text text-anchor="middle" x="614.5" y="-7" font-family="Helvetica,sans-Serif" font-size="10.00">AMReX_REAL.H</text>
</a>
</g>
</g>
<!-- Node1&#45;&gt;Node16 -->
<g id="edge28_Node000001_Node000016" class="edge">
<title>Node1&#45;&gt;Node16</title>
<g id="a_edge28_Node000001_Node000016"><a xlink:title=" ">
<path fill="none" stroke="#63b8ff" d="M549.68,-362.94C573.46,-336.5 605.5,-292.45 605.5,-247 605.5,-247 605.5,-247 605.5,-129.5 605.5,-94.05 609.52,-52.83 612.19,-29.39"/>
<polygon fill="#63b8ff" stroke="#63b8ff" points="615.7,-29.48 613.4,-19.14 608.75,-28.66 615.7,-29.48"/>
</a>
</g>
</g>
<!-- Node18 -->
<g id="Node000018" class="node">
<title>Node18</title>
<g id="a_Node000018"><a xlink:title=" ">
<polygon fill="#e0e0e0" stroke="#999999" points="677.5,-321.5 633.5,-321.5 633.5,-302.5 677.5,-302.5 677.5,-321.5"/>
<text text-anchor="middle" x="655.5" y="-309.5" font-family="Helvetica,sans-Serif" font-size="10.00">string</text>
</a>
</g>
</g>
<!-- Node1&#45;&gt;Node18 -->
<g id="edge27_Node000001_Node000018" class="edge">
<title>Node1&#45;&gt;Node18</title>
<g id="a_edge27_Node000001_Node000018"><a xlink:title=" ">
<path fill="none" stroke="#63b8ff" d="M568.49,-362.82C589.56,-350.75 613.97,-336.78 631.57,-326.7"/>
<polygon fill="#63b8ff" stroke="#63b8ff" points="633.64,-329.55 640.58,-321.54 630.16,-323.48 633.64,-329.55"/>
</a>
</g>
</g>
<!-- Node3 -->
<g id="Node000003" class="node">
<title>Node3</title>
<g id="a_Node000003"><a xlink:title=" ">
<polygon fill="#e0e0e0" stroke="#999999" points="45,-255.5 0,-255.5 0,-236.5 45,-236.5 45,-255.5"/>
<text text-anchor="middle" x="22.5" y="-243.5" font-family="Helvetica,sans-Serif" font-size="10.00">utility</text>
</a>
</g>
</g>
<!-- Node2&#45;&gt;Node3 -->
<g id="edge2_Node000002_Node000003" class="edge">
<title>Node2&#45;&gt;Node3</title>
<g id="a_edge2_Node000002_Node000003"><a xlink:title=" ">
<path fill="none" stroke="#63b8ff" d="M137.24,-296.95C111.57,-285.78 75.99,-270.29 51.28,-259.53"/>
<polygon fill="#63b8ff" stroke="#63b8ff" points="52.63,-256.3 42.06,-255.52 49.83,-262.72 52.63,-256.3"/>
</a>
</g>
</g>
<!-- Node2&#45;&gt;Node4 -->
<g id="edge3_Node000002_Node000004" class="edge">
<title>Node2&#45;&gt;Node4</title>
<g id="a_edge3_Node000002_Node000004"><a xlink:title=" ">
<path fill="none" stroke="#63b8ff" d="M202.64,-296.95C224.77,-287.58 254.07,-275.16 277.92,-265.05"/>
<polygon fill="#63b8ff" stroke="#63b8ff" points="279.6,-268.14 287.44,-261.01 276.87,-261.69 279.6,-268.14"/>
</a>
</g>
</g>
<!-- Node6 -->
<g id="Node000006" class="node">
<title>Node6</title>
<g id="a_Node000006"><a xlink:title=" ">
<polygon fill="#e0e0e0" stroke="#999999" points="172,-19 85,-19 85,0 172,0 172,-19"/>
<text text-anchor="middle" x="128.5" y="-7" font-family="Helvetica,sans-Serif" font-size="10.00">AMReX_Gpu.H</text>
</a>
</g>
</g>
<!-- Node2&#45;&gt;Node6 -->
<g id="edge24_Node000002_Node000006" class="edge">
<title>Node2&#45;&gt;Node6</title>
<g id="a_edge24_Node000002_Node000006"><a xlink:title=" ">
<path fill="none" stroke="#63b8ff" d="M146.51,-296.81C133.43,-287.83 117.52,-275.25 106.5,-261 84.34,-232.36 73.5,-222.71 73.5,-186.5 73.5,-186.5 73.5,-186.5 73.5,-129.5 73.5,-89.89 98.92,-49.14 115.19,-27.11"/>
<polygon fill="#63b8ff" stroke="#63b8ff" points="118.01,-29.19 121.31,-19.12 112.45,-24.93 118.01,-29.19"/>
</a>
</g>
</g>
<!-- Node17 -->
<g id="Node000017" class="node">
<title>Node17</title>
<g id="a_Node000017"><a xlink:title=" ">
<polygon fill="#e0e0e0" stroke="#999999" points="223.5,-255.5 115.5,-255.5 115.5,-236.5 223.5,-236.5 223.5,-255.5"/>
<text text-anchor="middle" x="169.5" y="-243.5" font-family="Helvetica,sans-Serif" font-size="10.00">AMReX_RealBox.H</text>
</a>
</g>
</g>
<!-- Node2&#45;&gt;Node17 -->
<g id="edge25_Node000002_Node000017" class="edge">
<title>Node2&#45;&gt;Node17</title>
<g id="a_edge25_Node000002_Node000017"><a xlink:title=" ">
<path fill="none" stroke="#63b8ff" d="M169.5,-296.8C169.5,-287.7 169.5,-275.79 169.5,-265.9"/>
<polygon fill="#63b8ff" stroke="#63b8ff" points="173,-265.84 169.5,-255.84 166,-265.84 173,-265.84"/>
</a>
</g>
</g>
<!-- Node5 -->
<g id="Node000005" class="node">
<title>Node5</title>
<g id="a_Node000005"><a xlink:href="vector_8_h.html" target="_top" xlink:title=" ">
<polygon fill="white" stroke="#666666" points="295,-140 182,-140 182,-121 295,-121 295,-140"/>
<text text-anchor="middle" x="238.5" y="-128" font-family="Helvetica,sans-Serif" font-size="10.00">src/core/vs/vector.H</text>
</a>
</g>
</g>
<!-- Node4&#45;&gt;Node5 -->
<g id="edge4_Node000004_Node000005" class="edge">
<title>Node4&#45;&gt;Node5</title>
<g id="a_edge4_Node000004_Node000005"><a xlink:title=" ">
<path fill="none" stroke="#63b8ff" d="M302.34,-230.94C291.22,-221.64 277.3,-208.68 267.5,-195 257.48,-181 249.65,-162.99 244.67,-149.73"/>
<polygon fill="#63b8ff" stroke="#63b8ff" points="247.95,-148.52 241.29,-140.28 241.36,-150.87 247.95,-148.52"/>
</a>
</g>
</g>
<!-- Node12 -->
<g id="Node000012" class="node">
<title>Node12</title>
<g id="a_Node000012"><a xlink:href="tensor_8_h.html" target="_top" xlink:title=" ">
<polygon fill="white" stroke="#666666" points="390,-195 277,-195 277,-176 390,-176 390,-195"/>
<text text-anchor="middle" x="333.5" y="-183" font-family="Helvetica,sans-Serif" font-size="10.00">src/core/vs/tensor.H</text>
</a>
</g>
</g>
<!-- Node4&#45;&gt;Node12 -->
<g id="edge12_Node000004_Node000012" class="edge">
<title>Node4&#45;&gt;Node12</title>
<g id="a_edge12_Node000004_Node000012"><a xlink:title=" ">
<path fill="none" stroke="#63b8ff" d="M323.65,-230.84C325.36,-223.13 327.5,-213.49 329.35,-205.17"/>
<polygon fill="#63b8ff" stroke="#63b8ff" points="332.8,-205.79 331.55,-195.27 325.97,-204.27 332.8,-205.79"/>
</a>
</g>
</g>
<!-- Node5&#45;&gt;Node6 -->
<g id="edge5_Node000005_Node000006" class="edge">
<title>Node5&#45;&gt;Node6</title>
<g id="a_edge5_Node000005_Node000006"><a xlink:title=" ">
<path fill="none" stroke="#63b8ff" d="M219.69,-120.92C204.42,-113.22 183.1,-100.72 168.5,-85 153.09,-68.41 141.73,-44.77 135.13,-28.6"/>
<polygon fill="#63b8ff" stroke="#63b8ff" points="138.37,-27.26 131.49,-19.2 131.84,-29.79 138.37,-27.26"/>
</a>
</g>
</g>
<!-- Node7 -->
<g id="Node000007" class="node">
<title>Node7</title>
<g id="a_Node000007"><a xlink:href="vstraits_8_h.html" target="_top" xlink:title=" ">
<polygon fill="white" stroke="#666666" points="431,-79.5 312,-79.5 312,-60.5 431,-60.5 431,-79.5"/>
<text text-anchor="middle" x="371.5" y="-67.5" font-family="Helvetica,sans-Serif" font-size="10.00">src/core/vs/vstraits.H</text>
</a>
</g>
</g>
<!-- Node5&#45;&gt;Node7 -->
<g id="edge6_Node000005_Node000007" class="edge">
<title>Node5&#45;&gt;Node7</title>
<g id="a_edge6_Node000005_Node000007"><a xlink:title=" ">
<path fill="none" stroke="#63b8ff" d="M257.84,-120.99C280.2,-111.16 317.21,-94.88 342.9,-83.58"/>
<polygon fill="#63b8ff" stroke="#63b8ff" points="344.39,-86.75 352.14,-79.52 341.57,-80.34 344.39,-86.75"/>
</a>
</g>
</g>
<!-- Node9 -->
<g id="Node000009" class="node">
<title>Node9</title>
<g id="a_Node000009"><a xlink:href="vector_i_8_h.html" target="_top" xlink:title=" ">
<polygon fill="white" stroke="#666666" points="293.5,-79.5 177.5,-79.5 177.5,-60.5 293.5,-60.5 293.5,-79.5"/>
<text text-anchor="middle" x="235.5" y="-67.5" font-family="Helvetica,sans-Serif" font-size="10.00">src/core/vs/vectorI.H</text>
</a>
</g>
</g>
<!-- Node5&#45;&gt;Node9 -->
<g id="edge8_Node000005_Node000009" class="edge">
<title>Node5&#45;&gt;Node9</title>
<g id="a_edge8_Node000005_Node000009"><a xlink:title=" ">
<path fill="none" stroke="#63b8ff" d="M233.1,-120.87C230.93,-112.75 229.82,-100.31 230.11,-89.89"/>
<polygon fill="#63b8ff" stroke="#63b8ff" points="233.62,-89.93 230.98,-79.67 226.64,-89.33 233.62,-89.93"/>
</a>
</g>
</g>
<!-- Node8 -->
<g id="Node000008" class="node">
<title>Node8</title>
<g id="a_Node000008"><a xlink:title=" ">
<polygon fill="#e0e0e0" stroke="#999999" points="393.5,-19 349.5,-19 349.5,0 393.5,0 393.5,-19"/>
<text text-anchor="middle" x="371.5" y="-7" font-family="Helvetica,sans-Serif" font-size="10.00">limits</text>
</a>
</g>
</g>
<!-- Node7&#45;&gt;Node8 -->
<g id="edge7_Node000007_Node000008" class="edge">
<title>Node7&#45;&gt;Node8</title>
<g id="a_edge7_Node000007_Node000008"><a xlink:title=" ">
<path fill="none" stroke="#63b8ff" d="M371.5,-60.37C371.5,-52.25 371.5,-39.81 371.5,-29.39"/>
<polygon fill="#63b8ff" stroke="#63b8ff" points="375,-29.17 371.5,-19.17 368,-29.17 375,-29.17"/>
</a>
</g>
</g>
<!-- Node9&#45;&gt;Node5 -->
<g id="edge11_Node000009_Node000005" class="edge">
<title>Node9&#45;&gt;Node5</title>
<g id="a_edge11_Node000009_Node000005"><a xlink:title=" ">
<path fill="none" stroke="#63b8ff" d="M240.91,-79.67C243.08,-87.8 244.18,-100.24 243.89,-110.66"/>
<polygon fill="#63b8ff" stroke="#63b8ff" points="240.38,-110.61 243.01,-120.87 247.35,-111.2 240.38,-110.61"/>
</a>
</g>
</g>
<!-- Node10 -->
<g id="Node000010" class="node">
<title>Node10</title>
<g id="a_Node000010"><a xlink:title=" ">
<polygon fill="#e0e0e0" stroke="#999999" points="264,-19 207,-19 207,0 264,0 264,-19"/>
<text text-anchor="middle" x="235.5" y="-7" font-family="Helvetica,sans-Serif" font-size="10.00">ostream</text>
</a>
</g>
</g>
<!-- Node9&#45;&gt;Node10 -->
<g id="edge9_Node000009_Node000010" class="edge">
<title>Node9&#45;&gt;Node10</title>
<g id="a_edge9_Node000009_Node000010"><a xlink:title=" ">
<path fill="none" stroke="#63b8ff" d="M235.5,-60.37C235.5,-52.25 235.5,-39.81 235.5,-29.39"/>
<polygon fill="#63b8ff" stroke="#63b8ff" points="239,-29.17 235.5,-19.17 232,-29.17 239,-29.17"/>
</a>
</g>
</g>
<!-- Node11 -->
<g id="Node000011" class="node">
<title>Node11</title>
<g id="a_Node000011"><a xlink:title=" ">
<polygon fill="#e0e0e0" stroke="#999999" points="473,-19 426,-19 426,0 473,0 473,-19"/>
<text text-anchor="middle" x="449.5" y="-7" font-family="Helvetica,sans-Serif" font-size="10.00">cmath</text>
</a>
</g>
</g>
<!-- Node9&#45;&gt;Node11 -->
<g id="edge10_Node000009_Node000011" class="edge">
<title>Node9&#45;&gt;Node11</title>
<g id="a_edge10_Node000009_Node000011"><a xlink:title=" ">
<path fill="none" stroke="#63b8ff" d="M266.62,-60.49C306.48,-49.6 375.29,-30.79 416.18,-19.61"/>
<polygon fill="#63b8ff" stroke="#63b8ff" points="417.22,-22.95 425.94,-16.94 415.37,-16.2 417.22,-22.95"/>
</a>
</g>
</g>
<!-- Node12&#45;&gt;Node5 -->
<g id="edge15_Node000012_Node000005" class="edge">
<title>Node12&#45;&gt;Node5</title>
<g id="a_edge15_Node000012_Node000005"><a xlink:title=" ">
<path fill="none" stroke="#63b8ff" d="M318.24,-175.98C303.37,-167.69 280.52,-154.94 263.08,-145.22"/>
<polygon fill="#63b8ff" stroke="#63b8ff" points="264.48,-141.99 254.04,-140.17 261.07,-148.1 264.48,-141.99"/>
</a>
</g>
</g>
<!-- Node12&#45;&gt;Node6 -->
<g id="edge13_Node000012_Node000006" class="edge">
<title>Node12&#45;&gt;Node6</title>
<g id="a_edge13_Node000012_Node000006"><a xlink:title=" ">
<path fill="none" stroke="#63b8ff" d="M276.75,-180.37C243.22,-175.33 201.75,-164.24 172.5,-140 139.08,-112.3 130.95,-58.12 129.04,-29.41"/>
<polygon fill="#63b8ff" stroke="#63b8ff" points="132.52,-28.95 128.55,-19.13 125.53,-29.28 132.52,-28.95"/>
</a>
</g>
</g>
<!-- Node12&#45;&gt;Node7 -->
<g id="edge14_Node000012_Node000007" class="edge">
<title>Node12&#45;&gt;Node7</title>
<g id="a_edge14_Node000012_Node000007"><a xlink:title=" ">
<path fill="none" stroke="#63b8ff" d="M336.36,-175.97C342.49,-157.65 357.04,-114.18 365.37,-89.31"/>
<polygon fill="#63b8ff" stroke="#63b8ff" points="368.75,-90.22 368.61,-79.63 362.12,-88 368.75,-90.22"/>
</a>
</g>
</g>
<!-- Node13 -->
<g id="Node000013" class="node">
<title>Node13</title>
<g id="a_Node000013"><a xlink:href="tensor_i_8_h.html" target="_top" xlink:title=" ">
<polygon fill="white" stroke="#666666" points="510.5,-140 394.5,-140 394.5,-121 510.5,-121 510.5,-140"/>
<text text-anchor="middle" x="452.5" y="-128" font-family="Helvetica,sans-Serif" font-size="10.00">src/core/vs/tensorI.H</text>
</a>
</g>
</g>
<!-- Node12&#45;&gt;Node13 -->
<g id="edge16_Node000012_Node000013" class="edge">
<title>Node12&#45;&gt;Node13</title>
<g id="a_edge16_Node000012_Node000013"><a xlink:title=" ">
<path fill="none" stroke="#63b8ff" d="M347.5,-175.98C365,-167.34 395.01,-153.87 418.56,-144.02"/>
<polygon fill="#63b8ff" stroke="#63b8ff" points="419.98,-147.22 427.88,-140.17 417.3,-140.75 419.98,-147.22"/>
</a>
</g>
</g>
<!-- Node13&#45;&gt;Node11 -->
<g id="edge17_Node000013_Node000011" class="edge">
<title>Node13&#45;&gt;Node11</title>
<g id="a_edge17_Node000013_Node000011"><a xlink:title=" ">
<path fill="none" stroke="#63b8ff" d="M452.28,-120.94C451.8,-101.91 450.64,-55.69 449.98,-29.47"/>
<polygon fill="#63b8ff" stroke="#63b8ff" points="453.47,-29.21 449.72,-19.3 446.48,-29.39 453.47,-29.21"/>
</a>
</g>
</g>
<!-- Node13&#45;&gt;Node12 -->
<g id="edge18_Node000013_Node000012" class="edge">
<title>Node13&#45;&gt;Node12</title>
<g id="a_edge18_Node000013_Node000012"><a xlink:title=" ">
<path fill="none" stroke="#63b8ff" d="M438.18,-140.17C420.54,-148.87 390.49,-162.35 367.01,-172.16"/>
<polygon fill="#63b8ff" stroke="#63b8ff" points="365.65,-168.94 357.73,-175.98 368.31,-175.41 365.65,-168.94"/>
</a>
</g>
</g>
<!-- Node14 -->
<g id="Node000014" class="node">
<title>Node14</title>
<g id="a_Node000014"><a xlink:href="trig__ops_8_h.html" target="_top" xlink:title=" ">
<polygon fill="white" stroke="#666666" points="577.5,-85 487.5,-85 487.5,-55 577.5,-55 577.5,-85"/>
<text text-anchor="start" x="495.5" y="-73" font-family="Helvetica,sans-Serif" font-size="10.00">src/utilities/trig</text>
<text text-anchor="middle" x="532.5" y="-62" font-family="Helvetica,sans-Serif" font-size="10.00">_ops.H</text>
</a>
</g>
</g>
<!-- Node13&#45;&gt;Node14 -->
<g id="edge19_Node000013_Node000014" class="edge">
<title>Node13&#45;&gt;Node14</title>
<g id="a_edge19_Node000013_Node000014"><a xlink:title=" ">
<path fill="none" stroke="#63b8ff" d="M464.3,-120.87C474.96,-113.08 491.04,-101.32 504.91,-91.17"/>
<polygon fill="#63b8ff" stroke="#63b8ff" points="507.19,-93.84 513.2,-85.11 503.06,-88.19 507.19,-93.84"/>
</a>
</g>
</g>
<!-- Node14&#45;&gt;Node6 -->
<g id="edge23_Node000014_Node000006" class="edge">
<title>Node14&#45;&gt;Node6</title>
<g id="a_edge23_Node000014_Node000006"><a xlink:title=" ">
<path fill="none" stroke="#63b8ff" d="M487.12,-62.01C472.27,-59.74 455.68,-57.24 440.5,-55 349.87,-41.64 244.33,-26.72 182.15,-18"/>
<polygon fill="#63b8ff" stroke="#63b8ff" points="182.57,-14.52 172.18,-16.6 181.6,-21.45 182.57,-14.52"/>
</a>
</g>
</g>
<!-- Node14&#45;&gt;Node11 -->
<g id="edge20_Node000014_Node000011" class="edge">
<title>Node14&#45;&gt;Node11</title>
<g id="a_edge20_Node000014_Node000011"><a xlink:title=" ">
<path fill="none" stroke="#63b8ff" d="M512.41,-54.84C499.62,-45.83 483.1,-34.18 470.2,-25.09"/>
<polygon fill="#63b8ff" stroke="#63b8ff" points="472.13,-22.17 461.94,-19.27 468.09,-27.89 472.13,-22.17"/>
</a>
</g>
</g>
<!-- Node15 -->
<g id="Node000015" class="node">
<title>Node15</title>
<g id="a_Node000015"><a xlink:title=" ">
<polygon fill="#e0e0e0" stroke="#999999" points="550,-19 491,-19 491,0 550,0 550,-19"/>
<text text-anchor="middle" x="520.5" y="-7" font-family="Helvetica,sans-Serif" font-size="10.00">numbers</text>
</a>
</g>
</g>
<!-- Node14&#45;&gt;Node15 -->
<g id="edge21_Node000014_Node000015" class="edge">
<title>Node14&#45;&gt;Node15</title>
<g id="a_edge21_Node000014_Node000015"><a xlink:title=" ">
<path fill="none" stroke="#63b8ff" d="M529.6,-54.84C528.01,-47.13 526.04,-37.49 524.33,-29.17"/>
<polygon fill="#63b8ff" stroke="#63b8ff" points="527.74,-28.36 522.3,-19.27 520.88,-29.77 527.74,-28.36"/>
</a>
</g>
</g>
<!-- Node14&#45;&gt;Node16 -->
<g id="edge22_Node000014_Node000016" class="edge">
<title>Node14&#45;&gt;Node16</title>
<g id="a_edge22_Node000014_Node000016"><a xlink:title=" ">
<path fill="none" stroke="#63b8ff" d="M552.35,-54.84C564.98,-45.83 581.3,-34.18 594.05,-25.09"/>
<polygon fill="#63b8ff" stroke="#63b8ff" points="596.1,-27.92 602.21,-19.27 592.04,-22.22 596.1,-27.92"/>
</a>
</g>
</g>
</g>
</svg>
