<?xml version="1.0" encoding="UTF-8" standalone="no"?>
<!DOCTYPE svg PUBLIC "-//W3C//DTD SVG 1.1//EN"
 "http://www.w3.org/Graphics/SVG/1.1/DTD/svg11.dtd">
<!-- Generated by graphviz version 2.43.0 (0)
 -->
<!-- Title: /home/runner/work/amr&#45;wind/amr&#45;wind/src/ocean_waves/relaxation_zones/RelaxationZones.H Pages: 1 -->
<svg width="767pt" height="324pt"
 viewBox="0.00 0.00 767.00 324.00" xmlns="http://www.w3.org/2000/svg" xmlns:xlink="http://www.w3.org/1999/xlink">
<g id="graph0" class="graph" transform="scale(1 1) rotate(0) translate(4 320)">
<title>/home/runner/work/amr&#45;wind/amr&#45;wind/src/ocean_waves/relaxation_zones/RelaxationZones.H</title>
<!-- Node1 -->
<g id="Node000001" class="node">
<title>Node1</title>
<g id="a_Node000001"><a xlink:title=" ">
<polygon fill="#999999" stroke="#666666" points="444,-316 301,-316 301,-264 444,-264 444,-316"/>
<text text-anchor="start" x="309" y="-304" font-family="Helvetica,sans-Serif" font-size="10.00">/home/runner/work/amr</text>
<text text-anchor="start" x="309" y="-293" font-family="Helvetica,sans-Serif" font-size="10.00">&#45;wind/amr&#45;wind/src/ocean</text>
<text text-anchor="start" x="309" y="-282" font-family="Helvetica,sans-Serif" font-size="10.00">_waves/relaxation_zones</text>
<text text-anchor="middle" x="372.5" y="-271" font-family="Helvetica,sans-Serif" font-size="10.00">/RelaxationZones.H</text>
</a>
</g>
</g>
<!-- Node2 -->
<g id="Node000002" class="node">
<title>Node2</title>
<g id="a_Node000002"><a xlink:href="_linear_waves_8_h.html" target="_top" xlink:title=" ">
<polygon fill="white" stroke="#666666" points="183,-228 40,-228 40,-176 183,-176 183,-228"/>
<text text-anchor="start" x="48" y="-216" font-family="Helvetica,sans-Serif" font-size="10.00">/home/runner/work/amr</text>
<text text-anchor="start" x="48" y="-205" font-family="Helvetica,sans-Serif" font-size="10.00">&#45;wind/amr&#45;wind/src/ocean</text>
<text text-anchor="start" x="48" y="-194" font-family="Helvetica,sans-Serif" font-size="10.00">_waves/relaxation_zones</text>
<text text-anchor="middle" x="111.5" y="-183" font-family="Helvetica,sans-Serif" font-size="10.00">/LinearWaves.H</text>
</a>
</g>
</g>
<!-- Node1&#45;&gt;Node2 -->
<g id="edge1_Node000001_Node000002" class="edge">
<title>Node1&#45;&gt;Node2</title>
<g id="a_edge1_Node000001_Node000002"><a xlink:title=" ">
<path fill="none" stroke="#63b8ff" d="M291.22,-262.22C256.57,-250.8 216.5,-237.6 183,-226.56"/>
<polygon fill="#63b8ff" stroke="#63b8ff" points="290.24,-265.58 300.84,-265.39 292.43,-258.93 290.24,-265.58"/>
</a>
</g>
</g>
<!-- Node5 -->
<g id="Node000005" class="node">
<title>Node5</title>
<g id="a_Node000005"><a xlink:href="_stokes_waves_8_h.html" target="_top" xlink:title=" ">
<polygon fill="white" stroke="#666666" points="364,-228 221,-228 221,-176 364,-176 364,-228"/>
<text text-anchor="start" x="229" y="-216" font-family="Helvetica,sans-Serif" font-size="10.00">/home/runner/work/amr</text>
<text text-anchor="start" x="229" y="-205" font-family="Helvetica,sans-Serif" font-size="10.00">&#45;wind/amr&#45;wind/src/ocean</text>
<text text-anchor="start" x="229" y="-194" font-family="Helvetica,sans-Serif" font-size="10.00">_waves/relaxation_zones</text>
<text text-anchor="middle" x="292.5" y="-183" font-family="Helvetica,sans-Serif" font-size="10.00">/StokesWaves.H</text>
</a>
</g>
</g>
<!-- Node1&#45;&gt;Node5 -->
<g id="edge5_Node000001_Node000005" class="edge">
<title>Node1&#45;&gt;Node5</title>
<g id="a_edge5_Node000001_Node000005"><a xlink:title=" ">
<path fill="none" stroke="#63b8ff" d="M341.87,-256.08C333.26,-246.81 324.02,-236.89 315.9,-228.16"/>
<polygon fill="#63b8ff" stroke="#63b8ff" points="339.56,-258.72 348.93,-263.66 344.68,-253.96 339.56,-258.72"/>
</a>
</g>
</g>
<!-- Node8 -->
<g id="Node000008" class="node">
<title>Node8</title>
<g id="a_Node000008"><a xlink:href="_w2_a_waves_8_h.html" target="_top" xlink:title=" ">
<polygon fill="white" stroke="#666666" points="709,-228 566,-228 566,-176 709,-176 709,-228"/>
<text text-anchor="start" x="574" y="-216" font-family="Helvetica,sans-Serif" font-size="10.00">/home/runner/work/amr</text>
<text text-anchor="start" x="574" y="-205" font-family="Helvetica,sans-Serif" font-size="10.00">&#45;wind/amr&#45;wind/src/ocean</text>
<text text-anchor="start" x="574" y="-194" font-family="Helvetica,sans-Serif" font-size="10.00">_waves/relaxation_zones</text>
<text text-anchor="middle" x="637.5" y="-183" font-family="Helvetica,sans-Serif" font-size="10.00">/W2AWaves.H</text>
</a>
</g>
</g>
<!-- Node1&#45;&gt;Node8 -->
<g id="edge9_Node000001_Node000008" class="edge">
<title>Node1&#45;&gt;Node8</title>
<g id="a_edge9_Node000001_Node000008"><a xlink:title=" ">
<path fill="none" stroke="#63b8ff" d="M454.11,-262.52C489.78,-250.94 531.25,-237.48 565.73,-226.29"/>
<polygon fill="#63b8ff" stroke="#63b8ff" points="452.64,-259.31 444.21,-265.73 454.8,-265.97 452.64,-259.31"/>
</a>
</g>
</g>
<!-- Node11 -->
<g id="Node000011" class="node">
<title>Node11</title>
<g id="a_Node000011"><a xlink:href="relaxation__zones__ops_8_h.html" target="_top" xlink:title=" ">
<polygon fill="white" stroke="#666666" points="525,-228 382,-228 382,-176 525,-176 525,-228"/>
<text text-anchor="start" x="390" y="-216" font-family="Helvetica,sans-Serif" font-size="10.00">/home/runner/work/amr</text>
<text text-anchor="start" x="390" y="-205" font-family="Helvetica,sans-Serif" font-size="10.00">&#45;wind/amr&#45;wind/src/ocean</text>
<text text-anchor="start" x="390" y="-194" font-family="Helvetica,sans-Serif" font-size="10.00">_waves/relaxation_zones</text>
<text text-anchor="middle" x="453.5" y="-183" font-family="Helvetica,sans-Serif" font-size="10.00">/relaxation_zones_ops.H</text>
</a>
</g>
</g>
<!-- Node1&#45;&gt;Node11 -->
<g id="edge13_Node000001_Node000011" class="edge">
<title>Node1&#45;&gt;Node11</title>
<g id="a_edge13_Node000001_Node000011"><a xlink:title=" ">
<path fill="none" stroke="#63b8ff" d="M403.25,-256.35C412.05,-247.01 421.5,-236.98 429.81,-228.16"/>
<polygon fill="#63b8ff" stroke="#63b8ff" points="400.67,-253.98 396.36,-263.66 405.77,-258.78 400.67,-253.98"/>
</a>
</g>
</g>
<!-- Node3 -->
<g id="Node000003" class="node">
<title>Node3</title>
<g id="a_Node000003"><a xlink:href="_linear_waves_8cpp.html" target="_top" xlink:title=" ">
<polygon fill="white" stroke="#666666" points="143,-52 0,-52 0,0 143,0 143,-52"/>
<text text-anchor="start" x="8" y="-40" font-family="Helvetica,sans-Serif" font-size="10.00">/home/runner/work/amr</text>
<text text-anchor="start" x="8" y="-29" font-family="Helvetica,sans-Serif" font-size="10.00">&#45;wind/amr&#45;wind/src/ocean</text>
<text text-anchor="start" x="8" y="-18" font-family="Helvetica,sans-Serif" font-size="10.00">_waves/relaxation_zones</text>
<text text-anchor="middle" x="71.5" y="-7" font-family="Helvetica,sans-Serif" font-size="10.00">/LinearWaves.cpp</text>
</a>
</g>
</g>
<!-- Node2&#45;&gt;Node3 -->
<g id="edge2_Node000002_Node000003" class="edge">
<title>Node2&#45;&gt;Node3</title>
<g id="a_edge2_Node000002_Node000003"><a xlink:title=" ">
<path fill="none" stroke="#63b8ff" d="M55.13,-169.54C45.19,-161.29 36.2,-151.44 30.5,-140 20.18,-119.32 23.76,-110.11 30.5,-88 34.41,-75.18 42.01,-62.62 49.61,-52.26"/>
<polygon fill="#63b8ff" stroke="#63b8ff" points="53.21,-172.48 63.26,-175.82 57.48,-166.94 53.21,-172.48"/>
</a>
</g>
</g>
<!-- Node4 -->
<g id="Node000004" class="node">
<title>Node4</title>
<g id="a_Node000004"><a xlink:href="linear__waves__ops_8_h.html" target="_top" xlink:title=" ">
<polygon fill="white" stroke="#666666" points="183,-140 40,-140 40,-88 183,-88 183,-140"/>
<text text-anchor="start" x="48" y="-128" font-family="Helvetica,sans-Serif" font-size="10.00">/home/runner/work/amr</text>
<text text-anchor="start" x="48" y="-117" font-family="Helvetica,sans-Serif" font-size="10.00">&#45;wind/amr&#45;wind/src/ocean</text>
<text text-anchor="start" x="48" y="-106" font-family="Helvetica,sans-Serif" font-size="10.00">_waves/relaxation_zones</text>
<text text-anchor="middle" x="111.5" y="-95" font-family="Helvetica,sans-Serif" font-size="10.00">/linear_waves_ops.H</text>
</a>
</g>
</g>
<!-- Node2&#45;&gt;Node4 -->
<g id="edge3_Node000002_Node000004" class="edge">
<title>Node2&#45;&gt;Node4</title>
<g id="a_edge3_Node000002_Node000004"><a xlink:title=" ">
<path fill="none" stroke="#63b8ff" d="M111.5,-165.56C111.5,-157.04 111.5,-148.1 111.5,-140.16"/>
<polygon fill="#63b8ff" stroke="#63b8ff" points="108,-165.66 111.5,-175.66 115,-165.66 108,-165.66"/>
</a>
</g>
</g>
<!-- Node4&#45;&gt;Node3 -->
<g id="edge4_Node000004_Node000003" class="edge">
<title>Node4&#45;&gt;Node3</title>
<g id="a_edge4_Node000004_Node000003"><a xlink:title=" ">
<path fill="none" stroke="#63b8ff" d="M95.41,-78.4C91.33,-69.63 87.02,-60.36 83.2,-52.16"/>
<polygon fill="#63b8ff" stroke="#63b8ff" points="92.32,-80.07 99.72,-87.66 98.67,-77.12 92.32,-80.07"/>
</a>
</g>
</g>
<!-- Node6 -->
<g id="Node000006" class="node">
<title>Node6</title>
<g id="a_Node000006"><a xlink:href="_stokes_waves_8cpp.html" target="_top" xlink:title=" ">
<polygon fill="white" stroke="#666666" points="323,-52 180,-52 180,0 323,0 323,-52"/>
<text text-anchor="start" x="188" y="-40" font-family="Helvetica,sans-Serif" font-size="10.00">/home/runner/work/amr</text>
<text text-anchor="start" x="188" y="-29" font-family="Helvetica,sans-Serif" font-size="10.00">&#45;wind/amr&#45;wind/src/ocean</text>
<text text-anchor="start" x="188" y="-18" font-family="Helvetica,sans-Serif" font-size="10.00">_waves/relaxation_zones</text>
<text text-anchor="middle" x="251.5" y="-7" font-family="Helvetica,sans-Serif" font-size="10.00">/StokesWaves.cpp</text>
</a>
</g>
</g>
<!-- Node5&#45;&gt;Node6 -->
<g id="edge6_Node000005_Node000006" class="edge">
<title>Node5&#45;&gt;Node6</title>
<g id="a_edge6_Node000005_Node000006"><a xlink:title=" ">
<path fill="none" stroke="#63b8ff" d="M250.41,-168.82C242.31,-160.41 234.97,-150.66 230.5,-140 218.47,-111.29 228.9,-75.61 238.88,-52.11"/>
<polygon fill="#63b8ff" stroke="#63b8ff" points="248.05,-171.41 257.66,-175.87 252.93,-166.39 248.05,-171.41"/>
</a>
</g>
</g>
<!-- Node7 -->
<g id="Node000007" class="node">
<title>Node7</title>
<g id="a_Node000007"><a xlink:href="stokes__waves__ops_8_h.html" target="_top" xlink:title=" ">
<polygon fill="white" stroke="#666666" points="383,-140 240,-140 240,-88 383,-88 383,-140"/>
<text text-anchor="start" x="248" y="-128" font-family="Helvetica,sans-Serif" font-size="10.00">/home/runner/work/amr</text>
<text text-anchor="start" x="248" y="-117" font-family="Helvetica,sans-Serif" font-size="10.00">&#45;wind/amr&#45;wind/src/ocean</text>
<text text-anchor="start" x="248" y="-106" font-family="Helvetica,sans-Serif" font-size="10.00">_waves/relaxation_zones</text>
<text text-anchor="middle" x="311.5" y="-95" font-family="Helvetica,sans-Serif" font-size="10.00">/stokes_waves_ops.H</text>
</a>
</g>
</g>
<!-- Node5&#45;&gt;Node7 -->
<g id="edge7_Node000005_Node000007" class="edge">
<title>Node5&#45;&gt;Node7</title>
<g id="a_edge7_Node000005_Node000007"><a xlink:title=" ">
<path fill="none" stroke="#63b8ff" d="M300.27,-165.84C302.17,-157.23 304.17,-148.19 305.94,-140.16"/>
<polygon fill="#63b8ff" stroke="#63b8ff" points="296.84,-165.14 298.1,-175.66 303.67,-166.65 296.84,-165.14"/>
</a>
</g>
</g>
<!-- Node7&#45;&gt;Node6 -->
<g id="edge8_Node000007_Node000006" class="edge">
<title>Node7&#45;&gt;Node6</title>
<g id="a_edge8_Node000007_Node000006"><a xlink:title=" ">
<path fill="none" stroke="#63b8ff" d="M287.95,-79.24C281.65,-70.22 274.96,-60.63 269.05,-52.16"/>
<polygon fill="#63b8ff" stroke="#63b8ff" points="285.23,-81.46 293.82,-87.66 290.97,-77.46 285.23,-81.46"/>
</a>
</g>
</g>
<!-- Node9 -->
<g id="Node000009" class="node">
<title>Node9</title>
<g id="a_Node000009"><a xlink:href="_w2_a_waves_8cpp.html" target="_top" xlink:title=" ">
<polygon fill="white" stroke="#666666" points="759,-52 616,-52 616,0 759,0 759,-52"/>
<text text-anchor="start" x="624" y="-40" font-family="Helvetica,sans-Serif" font-size="10.00">/home/runner/work/amr</text>
<text text-anchor="start" x="624" y="-29" font-family="Helvetica,sans-Serif" font-size="10.00">&#45;wind/amr&#45;wind/src/ocean</text>
<text text-anchor="start" x="624" y="-18" font-family="Helvetica,sans-Serif" font-size="10.00">_waves/relaxation_zones</text>
<text text-anchor="middle" x="687.5" y="-7" font-family="Helvetica,sans-Serif" font-size="10.00">/W2AWaves.cpp</text>
</a>
</g>
</g>
<!-- Node8&#45;&gt;Node9 -->
<g id="edge10_Node000008_Node000009" class="edge">
<title>Node8&#45;&gt;Node9</title>
<g id="a_edge10_Node000008_Node000009"><a xlink:title=" ">
<path fill="none" stroke="#63b8ff" d="M693.87,-169.54C703.81,-161.29 712.8,-151.44 718.5,-140 732.66,-111.6 718.05,-75.85 704.48,-52.26"/>
<polygon fill="#63b8ff" stroke="#63b8ff" points="691.52,-166.94 685.74,-175.82 695.79,-172.48 691.52,-166.94"/>
</a>
</g>
</g>
<!-- Node10 -->
<g id="Node000010" class="node">
<title>Node10</title>
<g id="a_Node000010"><a xlink:href="waves2amr__ops_8_h.html" target="_top" xlink:title=" ">
<polygon fill="white" stroke="#666666" points="709,-140 566,-140 566,-88 709,-88 709,-140"/>
<text text-anchor="start" x="574" y="-128" font-family="Helvetica,sans-Serif" font-size="10.00">/home/runner/work/amr</text>
<text text-anchor="start" x="574" y="-117" font-family="Helvetica,sans-Serif" font-size="10.00">&#45;wind/amr&#45;wind/src/ocean</text>
<text text-anchor="start" x="574" y="-106" font-family="Helvetica,sans-Serif" font-size="10.00">_waves/relaxation_zones</text>
<text text-anchor="middle" x="637.5" y="-95" font-family="Helvetica,sans-Serif" font-size="10.00">/waves2amr_ops.H</text>
</a>
</g>
</g>
<!-- Node8&#45;&gt;Node10 -->
<g id="edge11_Node000008_Node000010" class="edge">
<title>Node8&#45;&gt;Node10</title>
<g id="a_edge11_Node000008_Node000010"><a xlink:title=" ">
<path fill="none" stroke="#63b8ff" d="M637.5,-165.56C637.5,-157.04 637.5,-148.1 637.5,-140.16"/>
<polygon fill="#63b8ff" stroke="#63b8ff" points="634,-165.66 637.5,-175.66 641,-165.66 634,-165.66"/>
</a>
</g>
</g>
<!-- Node10&#45;&gt;Node9 -->
<g id="edge12_Node000010_Node000009" class="edge">
<title>Node10&#45;&gt;Node9</title>
<g id="a_edge12_Node000010_Node000009"><a xlink:title=" ">
<path fill="none" stroke="#63b8ff" d="M657.29,-78.96C662.49,-70.02 668,-60.54 672.87,-52.16"/>
<polygon fill="#63b8ff" stroke="#63b8ff" points="654.23,-77.26 652.23,-87.66 660.28,-80.78 654.23,-77.26"/>
</a>
</g>
</g>
<!-- Node11&#45;&gt;Node4 -->
<g id="edge14_Node000011_Node000004" class="edge">
<title>Node11&#45;&gt;Node4</title>
<g id="a_edge14_Node000011_Node000004"><a xlink:title=" ">
<path fill="none" stroke="#63b8ff" d="M371.78,-175.87C302.3,-157.25 233.29,-141.39 183.01,-130.3"/>
<polygon fill="#63b8ff" stroke="#63b8ff" points="371.02,-179.29 381.59,-178.52 372.84,-172.54 371.02,-179.29"/>
</a>
</g>
</g>
<!-- Node11&#45;&gt;Node7 -->
<g id="edge16_Node000011_Node000007" class="edge">
<title>Node11&#45;&gt;Node7</title>
<g id="a_edge16_Node000011_Node000007"><a xlink:title=" ">
<path fill="none" stroke="#63b8ff" d="M403.16,-170.51C386.82,-160.62 368.89,-149.76 353.25,-140.29"/>
<polygon fill="#63b8ff" stroke="#63b8ff" points="401.68,-173.71 412.05,-175.89 405.31,-167.72 401.68,-173.71"/>
</a>
</g>
</g>
<!-- Node11&#45;&gt;Node10 -->
<g id="edge17_Node000011_Node000010" class="edge">
<title>Node11&#45;&gt;Node10</title>
<g id="a_edge17_Node000011_Node000010"><a xlink:title=" ">
<path fill="none" stroke="#63b8ff" d="M516.43,-171.59C538.31,-161.36 562.64,-149.99 583.72,-140.14"/>
<polygon fill="#63b8ff" stroke="#63b8ff" points="514.79,-168.49 507.22,-175.89 517.76,-174.83 514.79,-168.49"/>
</a>
</g>
</g>
<!-- Node12 -->
<g id="Node000012" class="node">
<title>Node12</title>
<g id="a_Node000012"><a xlink:href="relaxation__zones__ops_8cpp.html" target="_top" xlink:title=" ">
<polygon fill="white" stroke="#666666" points="547.5,-140 401.5,-140 401.5,-88 547.5,-88 547.5,-140"/>
<text text-anchor="start" x="409.5" y="-128" font-family="Helvetica,sans-Serif" font-size="10.00">/home/runner/work/amr</text>
<text text-anchor="start" x="409.5" y="-117" font-family="Helvetica,sans-Serif" font-size="10.00">&#45;wind/amr&#45;wind/src/ocean</text>
<text text-anchor="start" x="409.5" y="-106" font-family="Helvetica,sans-Serif" font-size="10.00">_waves/relaxation_zones</text>
<text text-anchor="middle" x="474.5" y="-95" font-family="Helvetica,sans-Serif" font-size="10.00">/relaxation_zones_ops.cpp</text>
</a>
</g>
</g>
<!-- Node11&#45;&gt;Node12 -->
<g id="edge15_Node000011_Node000012" class="edge">
<title>Node11&#45;&gt;Node12</title>
<g id="a_edge15_Node000011_Node000012"><a xlink:title=" ">
<path fill="none" stroke="#63b8ff" d="M462.09,-165.84C464.19,-157.23 466.4,-148.19 468.36,-140.16"/>
<polygon fill="#63b8ff" stroke="#63b8ff" points="458.66,-165.12 459.69,-175.66 465.46,-166.78 458.66,-165.12"/>
</a>
</g>
</g>
</g>
</svg>
