<?xml version="1.0" encoding="UTF-8" standalone="no"?>
<!DOCTYPE svg PUBLIC "-//W3C//DTD SVG 1.1//EN"
 "http://www.w3.org/Graphics/SVG/1.1/DTD/svg11.dtd">
<!-- Generated by graphviz version 2.43.0 (0)
 -->
<!-- Title: /home/runner/work/amr&#45;wind/amr&#45;wind/src/utilities/sampling/SamplingUtils.H Pages: 1 -->
<svg width="760pt" height="346pt"
 viewBox="0.00 0.00 759.50 346.00" xmlns="http://www.w3.org/2000/svg" xmlns:xlink="http://www.w3.org/1999/xlink">
<g id="graph0" class="graph" transform="scale(1 1) rotate(0) translate(4 342)">
<title>/home/runner/work/amr&#45;wind/amr&#45;wind/src/utilities/sampling/SamplingUtils.H</title>
<!-- Node1 -->
<g id="Node000001" class="node">
<title>Node1</title>
<g id="a_Node000001"><a xlink:title=" ">
<polygon fill="#999999" stroke="#666666" points="580.5,-338 430.5,-338 430.5,-297 580.5,-297 580.5,-338"/>
<text text-anchor="start" x="438.5" y="-326" font-family="Helvetica,sans-Serif" font-size="10.00">/home/runner/work/amr</text>
<text text-anchor="start" x="438.5" y="-315" font-family="Helvetica,sans-Serif" font-size="10.00">&#45;wind/amr&#45;wind/src/utilities</text>
<text text-anchor="middle" x="505.5" y="-304" font-family="Helvetica,sans-Serif" font-size="10.00">/sampling/SamplingUtils.H</text>
</a>
</g>
</g>
<!-- Node2 -->
<g id="Node000002" class="node">
<title>Node2</title>
<g id="a_Node000002"><a xlink:title=" ">
<polygon fill="#e0e0e0" stroke="#999999" points="327.5,-255.5 283.5,-255.5 283.5,-236.5 327.5,-236.5 327.5,-255.5"/>
<text text-anchor="middle" x="305.5" y="-243.5" font-family="Helvetica,sans-Serif" font-size="10.00">string</text>
</a>
</g>
</g>
<!-- Node1&#45;&gt;Node2 -->
<g id="edge1_Node000001_Node000002" class="edge">
<title>Node1&#45;&gt;Node2</title>
<g id="a_edge1_Node000001_Node000002"><a xlink:title=" ">
<path fill="none" stroke="#63b8ff" d="M440.32,-296.89C408.7,-286.92 370.32,-274.15 336.5,-261 335.32,-260.54 334.13,-260.06 332.92,-259.57"/>
<polygon fill="#63b8ff" stroke="#63b8ff" points="334.29,-256.35 323.72,-255.62 331.53,-262.78 334.29,-256.35"/>
</a>
</g>
</g>
<!-- Node3 -->
<g id="Node000003" class="node">
<title>Node3</title>
<g id="a_Node000003"><a xlink:title=" ">
<polygon fill="#e0e0e0" stroke="#999999" points="395.5,-255.5 345.5,-255.5 345.5,-236.5 395.5,-236.5 395.5,-255.5"/>
<text text-anchor="middle" x="370.5" y="-243.5" font-family="Helvetica,sans-Serif" font-size="10.00">cstdint</text>
</a>
</g>
</g>
<!-- Node1&#45;&gt;Node3 -->
<g id="edge2_Node000001_Node000003" class="edge">
<title>Node1&#45;&gt;Node3</title>
<g id="a_edge2_Node000001_Node000003"><a xlink:title=" ">
<path fill="none" stroke="#63b8ff" d="M467.54,-296.96C444.65,-285.17 416.11,-270.48 395.92,-260.09"/>
<polygon fill="#63b8ff" stroke="#63b8ff" points="397.51,-256.97 387.02,-255.5 394.31,-263.19 397.51,-256.97"/>
</a>
</g>
</g>
<!-- Node4 -->
<g id="Node000004" class="node">
<title>Node4</title>
<g id="a_Node000004"><a xlink:href="vector__space_8_h.html" target="_top" xlink:title=" ">
<polygon fill="white" stroke="#666666" points="517,-261 414,-261 414,-231 517,-231 517,-261"/>
<text text-anchor="start" x="422" y="-249" font-family="Helvetica,sans-Serif" font-size="10.00">src/core/vs/vector</text>
<text text-anchor="middle" x="465.5" y="-238" font-family="Helvetica,sans-Serif" font-size="10.00">_space.H</text>
</a>
</g>
</g>
<!-- Node1&#45;&gt;Node4 -->
<g id="edge3_Node000001_Node000004" class="edge">
<title>Node1&#45;&gt;Node4</title>
<g id="a_edge3_Node000001_Node000004"><a xlink:title=" ">
<path fill="none" stroke="#63b8ff" d="M494.14,-296.77C489.33,-288.4 483.68,-278.59 478.68,-269.9"/>
<polygon fill="#63b8ff" stroke="#63b8ff" points="481.6,-267.96 473.58,-261.04 475.53,-271.45 481.6,-267.96"/>
</a>
</g>
</g>
<!-- Node16 -->
<g id="Node000016" class="node">
<title>Node16</title>
<g id="a_Node000016"><a xlink:title=" ">
<polygon fill="#e0e0e0" stroke="#999999" points="598.5,-19 506.5,-19 506.5,0 598.5,0 598.5,-19"/>
<text text-anchor="middle" x="552.5" y="-7" font-family="Helvetica,sans-Serif" font-size="10.00">AMReX_REAL.H</text>
</a>
</g>
</g>
<!-- Node1&#45;&gt;Node16 -->
<g id="edge28_Node000001_Node000016" class="edge">
<title>Node1&#45;&gt;Node16</title>
<g id="a_edge28_Node000001_Node000016"><a xlink:title=" ">
<path fill="none" stroke="#63b8ff" d="M542.16,-296.92C577.45,-275.1 625.5,-236.26 625.5,-186.5 625.5,-186.5 625.5,-186.5 625.5,-129.5 625.5,-95.33 624.81,-83.85 606.5,-55 598.87,-42.98 586.91,-32.64 576.18,-24.96"/>
<polygon fill="#63b8ff" stroke="#63b8ff" points="577.83,-21.85 567.58,-19.16 573.91,-27.65 577.83,-21.85"/>
</a>
</g>
</g>
<!-- Node17 -->
<g id="Node000017" class="node">
<title>Node17</title>
<g id="a_Node000017"><a xlink:href="tensor__ops_8_h.html" target="_top" xlink:title=" ">
<polygon fill="white" stroke="#666666" points="597.5,-85 493.5,-85 493.5,-55 597.5,-55 597.5,-85"/>
<text text-anchor="start" x="501.5" y="-73" font-family="Helvetica,sans-Serif" font-size="10.00">src/utilities/tensor</text>
<text text-anchor="middle" x="545.5" y="-62" font-family="Helvetica,sans-Serif" font-size="10.00">_ops.H</text>
</a>
</g>
</g>
<!-- Node1&#45;&gt;Node17 -->
<g id="edge24_Node000001_Node000017" class="edge">
<title>Node1&#45;&gt;Node17</title>
<g id="a_edge24_Node000001_Node000017"><a xlink:title=" ">
<path fill="none" stroke="#63b8ff" d="M513.91,-296.81C518.03,-286.35 522.71,-273.18 525.5,-261 538.93,-202.4 543.37,-131.54 544.82,-95.15"/>
<polygon fill="#63b8ff" stroke="#63b8ff" points="548.32,-95.13 545.18,-85.02 541.32,-94.89 548.32,-95.13"/>
</a>
</g>
</g>
<!-- Node18 -->
<g id="Node000018" class="node">
<title>Node18</title>
<g id="a_Node000018"><a xlink:title=" ">
<polygon fill="#e0e0e0" stroke="#999999" points="751.5,-255.5 653.5,-255.5 653.5,-236.5 751.5,-236.5 751.5,-255.5"/>
<text text-anchor="middle" x="702.5" y="-243.5" font-family="Helvetica,sans-Serif" font-size="10.00">AMReX_Vector.H</text>
</a>
</g>
</g>
<!-- Node1&#45;&gt;Node18 -->
<g id="edge27_Node000001_Node000018" class="edge">
<title>Node1&#45;&gt;Node18</title>
<g id="a_edge27_Node000001_Node000018"><a xlink:title=" ">
<path fill="none" stroke="#63b8ff" d="M560.9,-296.96C595.66,-284.69 639.35,-269.28 668.94,-258.84"/>
<polygon fill="#63b8ff" stroke="#63b8ff" points="670.13,-262.13 678.4,-255.5 667.8,-255.53 670.13,-262.13"/>
</a>
</g>
</g>
<!-- Node5 -->
<g id="Node000005" class="node">
<title>Node5</title>
<g id="a_Node000005"><a xlink:href="vector_8_h.html" target="_top" xlink:title=" ">
<polygon fill="white" stroke="#666666" points="258,-140 145,-140 145,-121 258,-121 258,-140"/>
<text text-anchor="middle" x="201.5" y="-128" font-family="Helvetica,sans-Serif" font-size="10.00">src/core/vs/vector.H</text>
</a>
</g>
</g>
<!-- Node4&#45;&gt;Node5 -->
<g id="edge4_Node000004_Node000005" class="edge">
<title>Node4&#45;&gt;Node5</title>
<g id="a_edge4_Node000004_Node000005"><a xlink:title=" ">
<path fill="none" stroke="#63b8ff" d="M413.84,-232.67C361.92,-220.08 287.85,-201.48 275.5,-195 252.44,-182.9 230.38,-162.42 216.44,-147.99"/>
<polygon fill="#63b8ff" stroke="#63b8ff" points="218.62,-145.2 209.22,-140.31 213.52,-149.99 218.62,-145.2"/>
</a>
</g>
</g>
<!-- Node12 -->
<g id="Node000012" class="node">
<title>Node12</title>
<g id="a_Node000012"><a xlink:href="tensor_8_h.html" target="_top" xlink:title=" ">
<polygon fill="white" stroke="#666666" points="398,-195 285,-195 285,-176 398,-176 398,-195"/>
<text text-anchor="middle" x="341.5" y="-183" font-family="Helvetica,sans-Serif" font-size="10.00">src/core/vs/tensor.H</text>
</a>
</g>
</g>
<!-- Node4&#45;&gt;Node12 -->
<g id="edge12_Node000004_Node000012" class="edge">
<title>Node4&#45;&gt;Node12</title>
<g id="a_edge12_Node000004_Node000012"><a xlink:title=" ">
<path fill="none" stroke="#63b8ff" d="M435.8,-230.99C415.48,-221.4 388.74,-208.79 368.92,-199.44"/>
<polygon fill="#63b8ff" stroke="#63b8ff" points="370.35,-196.24 359.81,-195.14 367.36,-202.57 370.35,-196.24"/>
</a>
</g>
</g>
<!-- Node6 -->
<g id="Node000006" class="node">
<title>Node6</title>
<g id="a_Node000006"><a xlink:title=" ">
<polygon fill="#e0e0e0" stroke="#999999" points="488,-19 401,-19 401,0 488,0 488,-19"/>
<text text-anchor="middle" x="444.5" y="-7" font-family="Helvetica,sans-Serif" font-size="10.00">AMReX_Gpu.H</text>
</a>
</g>
</g>
<!-- Node5&#45;&gt;Node6 -->
<g id="edge5_Node000005_Node000006" class="edge">
<title>Node5&#45;&gt;Node6</title>
<g id="a_edge5_Node000005_Node000006"><a xlink:title=" ">
<path fill="none" stroke="#63b8ff" d="M258.24,-122.95C311.24,-115.85 385.53,-103.06 408.5,-85 426.19,-71.09 435.71,-46.3 440.44,-29.16"/>
<polygon fill="#63b8ff" stroke="#63b8ff" points="443.9,-29.74 442.89,-19.19 437.1,-28.07 443.9,-29.74"/>
</a>
</g>
</g>
<!-- Node7 -->
<g id="Node000007" class="node">
<title>Node7</title>
<g id="a_Node000007"><a xlink:href="vstraits_8_h.html" target="_top" xlink:title=" ">
<polygon fill="white" stroke="#666666" points="119,-79.5 0,-79.5 0,-60.5 119,-60.5 119,-79.5"/>
<text text-anchor="middle" x="59.5" y="-67.5" font-family="Helvetica,sans-Serif" font-size="10.00">src/core/vs/vstraits.H</text>
</a>
</g>
</g>
<!-- Node5&#45;&gt;Node7 -->
<g id="edge6_Node000005_Node000007" class="edge">
<title>Node5&#45;&gt;Node7</title>
<g id="a_edge6_Node000005_Node000007"><a xlink:title=" ">
<path fill="none" stroke="#63b8ff" d="M180.85,-120.99C156.87,-111.12 117.11,-94.73 89.67,-83.43"/>
<polygon fill="#63b8ff" stroke="#63b8ff" points="90.75,-80.09 80.17,-79.52 88.09,-86.56 90.75,-80.09"/>
</a>
</g>
</g>
<!-- Node9 -->
<g id="Node000009" class="node">
<title>Node9</title>
<g id="a_Node000009"><a xlink:href="vector_i_8_h.html" target="_top" xlink:title=" ">
<polygon fill="white" stroke="#666666" points="253.5,-79.5 137.5,-79.5 137.5,-60.5 253.5,-60.5 253.5,-79.5"/>
<text text-anchor="middle" x="195.5" y="-67.5" font-family="Helvetica,sans-Serif" font-size="10.00">src/core/vs/vectorI.H</text>
</a>
</g>
</g>
<!-- Node5&#45;&gt;Node9 -->
<g id="edge8_Node000005_Node000009" class="edge">
<title>Node5&#45;&gt;Node9</title>
<g id="a_edge8_Node000005_Node000009"><a xlink:title=" ">
<path fill="none" stroke="#63b8ff" d="M195.66,-120.87C193.07,-112.75 191.33,-100.31 191.08,-89.89"/>
<polygon fill="#63b8ff" stroke="#63b8ff" points="194.58,-89.78 191.43,-79.67 187.59,-89.54 194.58,-89.78"/>
</a>
</g>
</g>
<!-- Node8 -->
<g id="Node000008" class="node">
<title>Node8</title>
<g id="a_Node000008"><a xlink:title=" ">
<polygon fill="#e0e0e0" stroke="#999999" points="81.5,-19 37.5,-19 37.5,0 81.5,0 81.5,-19"/>
<text text-anchor="middle" x="59.5" y="-7" font-family="Helvetica,sans-Serif" font-size="10.00">limits</text>
</a>
</g>
</g>
<!-- Node7&#45;&gt;Node8 -->
<g id="edge7_Node000007_Node000008" class="edge">
<title>Node7&#45;&gt;Node8</title>
<g id="a_edge7_Node000007_Node000008"><a xlink:title=" ">
<path fill="none" stroke="#63b8ff" d="M59.5,-60.37C59.5,-52.25 59.5,-39.81 59.5,-29.39"/>
<polygon fill="#63b8ff" stroke="#63b8ff" points="63,-29.17 59.5,-19.17 56,-29.17 63,-29.17"/>
</a>
</g>
</g>
<!-- Node9&#45;&gt;Node5 -->
<g id="edge11_Node000009_Node000005" class="edge">
<title>Node9&#45;&gt;Node5</title>
<g id="a_edge11_Node000009_Node000005"><a xlink:title=" ">
<path fill="none" stroke="#63b8ff" d="M201.35,-79.67C203.94,-87.8 205.68,-100.24 205.92,-110.66"/>
<polygon fill="#63b8ff" stroke="#63b8ff" points="202.42,-110.75 205.57,-120.87 209.41,-110.99 202.42,-110.75"/>
</a>
</g>
</g>
<!-- Node10 -->
<g id="Node000010" class="node">
<title>Node10</title>
<g id="a_Node000010"><a xlink:title=" ">
<polygon fill="#e0e0e0" stroke="#999999" points="224,-19 167,-19 167,0 224,0 224,-19"/>
<text text-anchor="middle" x="195.5" y="-7" font-family="Helvetica,sans-Serif" font-size="10.00">ostream</text>
</a>
</g>
</g>
<!-- Node9&#45;&gt;Node10 -->
<g id="edge9_Node000009_Node000010" class="edge">
<title>Node9&#45;&gt;Node10</title>
<g id="a_edge9_Node000009_Node000010"><a xlink:title=" ">
<path fill="none" stroke="#63b8ff" d="M195.5,-60.37C195.5,-52.25 195.5,-39.81 195.5,-29.39"/>
<polygon fill="#63b8ff" stroke="#63b8ff" points="199,-29.17 195.5,-19.17 192,-29.17 199,-29.17"/>
</a>
</g>
</g>
<!-- Node11 -->
<g id="Node000011" class="node">
<title>Node11</title>
<g id="a_Node000011"><a xlink:title=" ">
<polygon fill="#e0e0e0" stroke="#999999" points="305,-19 258,-19 258,0 305,0 305,-19"/>
<text text-anchor="middle" x="281.5" y="-7" font-family="Helvetica,sans-Serif" font-size="10.00">cmath</text>
</a>
</g>
</g>
<!-- Node9&#45;&gt;Node11 -->
<g id="edge10_Node000009_Node000011" class="edge">
<title>Node9&#45;&gt;Node11</title>
<g id="a_edge10_Node000009_Node000011"><a xlink:title=" ">
<path fill="none" stroke="#63b8ff" d="M208.19,-60.37C221.91,-51.04 244,-36.01 260.35,-24.88"/>
<polygon fill="#63b8ff" stroke="#63b8ff" points="262.46,-27.69 268.76,-19.17 258.52,-21.9 262.46,-27.69"/>
</a>
</g>
</g>
<!-- Node12&#45;&gt;Node5 -->
<g id="edge15_Node000012_Node000005" class="edge">
<title>Node12&#45;&gt;Node5</title>
<g id="a_edge15_Node000012_Node000005"><a xlink:title=" ">
<path fill="none" stroke="#63b8ff" d="M319.01,-175.98C295.98,-167.27 259.96,-153.63 233.87,-143.75"/>
<polygon fill="#63b8ff" stroke="#63b8ff" points="234.99,-140.44 224.4,-140.17 232.52,-146.98 234.99,-140.44"/>
</a>
</g>
</g>
<!-- Node12&#45;&gt;Node6 -->
<g id="edge13_Node000012_Node000006" class="edge">
<title>Node12&#45;&gt;Node6</title>
<g id="a_edge13_Node000012_Node000006"><a xlink:title=" ">
<path fill="none" stroke="#63b8ff" d="M359.76,-175.98C374.52,-168.31 395.01,-155.84 408.5,-140 435.78,-107.98 442.49,-56.85 444.07,-29.4"/>
<polygon fill="#63b8ff" stroke="#63b8ff" points="447.58,-29.34 444.48,-19.2 440.58,-29.05 447.58,-29.34"/>
</a>
</g>
</g>
<!-- Node12&#45;&gt;Node7 -->
<g id="edge14_Node000012_Node000007" class="edge">
<title>Node12&#45;&gt;Node7</title>
<g id="a_edge14_Node000012_Node000007"><a xlink:title=" ">
<path fill="none" stroke="#63b8ff" d="M284.62,-180.24C241.68,-175.16 182.36,-164.09 135.5,-140 110.36,-127.07 87.2,-103.67 73.21,-87.74"/>
<polygon fill="#63b8ff" stroke="#63b8ff" points="75.58,-85.12 66.43,-79.78 70.25,-89.66 75.58,-85.12"/>
</a>
</g>
</g>
<!-- Node13 -->
<g id="Node000013" class="node">
<title>Node13</title>
<g id="a_Node000013"><a xlink:href="tensor_i_8_h.html" target="_top" xlink:title=" ">
<polygon fill="white" stroke="#666666" points="399.5,-140 283.5,-140 283.5,-121 399.5,-121 399.5,-140"/>
<text text-anchor="middle" x="341.5" y="-128" font-family="Helvetica,sans-Serif" font-size="10.00">src/core/vs/tensorI.H</text>
</a>
</g>
</g>
<!-- Node12&#45;&gt;Node13 -->
<g id="edge16_Node000012_Node000013" class="edge">
<title>Node12&#45;&gt;Node13</title>
<g id="a_edge16_Node000012_Node000013"><a xlink:title=" ">
<path fill="none" stroke="#63b8ff" d="M336.33,-175.75C334.84,-168.8 334.4,-158.85 335.02,-150.13"/>
<polygon fill="#63b8ff" stroke="#63b8ff" points="338.51,-150.47 336.37,-140.09 331.57,-149.53 338.51,-150.47"/>
</a>
</g>
</g>
<!-- Node13&#45;&gt;Node11 -->
<g id="edge17_Node000013_Node000011" class="edge">
<title>Node13&#45;&gt;Node11</title>
<g id="a_edge17_Node000013_Node000011"><a xlink:title=" ">
<path fill="none" stroke="#63b8ff" d="M330.83,-120.71C321.48,-112.43 308.21,-99.22 300.5,-85 290.97,-67.44 286.09,-44.95 283.68,-29.29"/>
<polygon fill="#63b8ff" stroke="#63b8ff" points="287.13,-28.71 282.33,-19.27 280.2,-29.65 287.13,-28.71"/>
</a>
</g>
</g>
<!-- Node13&#45;&gt;Node12 -->
<g id="edge18_Node000013_Node000012" class="edge">
<title>Node13&#45;&gt;Node12</title>
<g id="a_edge18_Node000013_Node000012"><a xlink:title=" ">
<path fill="none" stroke="#63b8ff" d="M346.63,-140.09C348.14,-146.99 348.59,-156.93 347.99,-165.66"/>
<polygon fill="#63b8ff" stroke="#63b8ff" points="344.5,-165.38 346.67,-175.75 351.44,-166.29 344.5,-165.38"/>
</a>
</g>
</g>
<!-- Node14 -->
<g id="Node000014" class="node">
<title>Node14</title>
<g id="a_Node000014"><a xlink:href="trig__ops_8_h.html" target="_top" xlink:title=" ">
<polygon fill="white" stroke="#666666" points="399.5,-85 309.5,-85 309.5,-55 399.5,-55 399.5,-85"/>
<text text-anchor="start" x="317.5" y="-73" font-family="Helvetica,sans-Serif" font-size="10.00">src/utilities/trig</text>
<text text-anchor="middle" x="354.5" y="-62" font-family="Helvetica,sans-Serif" font-size="10.00">_ops.H</text>
</a>
</g>
</g>
<!-- Node13&#45;&gt;Node14 -->
<g id="edge19_Node000013_Node000014" class="edge">
<title>Node13&#45;&gt;Node14</title>
<g id="a_edge19_Node000013_Node000014"><a xlink:title=" ">
<path fill="none" stroke="#63b8ff" d="M343.42,-120.87C344.94,-114.03 347.14,-104.14 349.17,-94.97"/>
<polygon fill="#63b8ff" stroke="#63b8ff" points="352.61,-95.64 351.36,-85.11 345.78,-94.12 352.61,-95.64"/>
</a>
</g>
</g>
<!-- Node14&#45;&gt;Node6 -->
<g id="edge23_Node000014_Node000006" class="edge">
<title>Node14&#45;&gt;Node6</title>
<g id="a_edge23_Node000014_Node000006"><a xlink:title=" ">
<path fill="none" stroke="#63b8ff" d="M376.29,-54.84C390.37,-45.68 408.63,-33.82 422.71,-24.66"/>
<polygon fill="#63b8ff" stroke="#63b8ff" points="424.8,-27.48 431.28,-19.09 420.99,-21.61 424.8,-27.48"/>
</a>
</g>
</g>
<!-- Node14&#45;&gt;Node11 -->
<g id="edge20_Node000014_Node000011" class="edge">
<title>Node14&#45;&gt;Node11</title>
<g id="a_edge20_Node000014_Node000011"><a xlink:title=" ">
<path fill="none" stroke="#63b8ff" d="M336.83,-54.84C325.8,-46 311.61,-34.63 300.37,-25.62"/>
<polygon fill="#63b8ff" stroke="#63b8ff" points="302.43,-22.79 292.44,-19.27 298.05,-28.25 302.43,-22.79"/>
</a>
</g>
</g>
<!-- Node15 -->
<g id="Node000015" class="node">
<title>Node15</title>
<g id="a_Node000015"><a xlink:title=" ">
<polygon fill="#e0e0e0" stroke="#999999" points="383,-19 324,-19 324,0 383,0 383,-19"/>
<text text-anchor="middle" x="353.5" y="-7" font-family="Helvetica,sans-Serif" font-size="10.00">numbers</text>
</a>
</g>
</g>
<!-- Node14&#45;&gt;Node15 -->
<g id="edge21_Node000014_Node000015" class="edge">
<title>Node14&#45;&gt;Node15</title>
<g id="a_edge21_Node000014_Node000015"><a xlink:title=" ">
<path fill="none" stroke="#63b8ff" d="M354.26,-54.84C354.13,-47.21 353.97,-37.7 353.82,-29.45"/>
<polygon fill="#63b8ff" stroke="#63b8ff" points="357.32,-29.2 353.65,-19.27 350.32,-29.32 357.32,-29.2"/>
</a>
</g>
</g>
<!-- Node14&#45;&gt;Node16 -->
<g id="edge22_Node000014_Node000016" class="edge">
<title>Node14&#45;&gt;Node16</title>
<g id="a_edge22_Node000014_Node000016"><a xlink:title=" ">
<path fill="none" stroke="#63b8ff" d="M399.93,-55.58C434.38,-45.4 481.22,-31.56 513.88,-21.91"/>
<polygon fill="#63b8ff" stroke="#63b8ff" points="514.94,-25.25 523.53,-19.06 512.95,-18.53 514.94,-25.25"/>
</a>
</g>
</g>
<!-- Node17&#45;&gt;Node6 -->
<g id="edge25_Node000017_Node000006" class="edge">
<title>Node17&#45;&gt;Node6</title>
<g id="a_edge25_Node000017_Node000006"><a xlink:title=" ">
<path fill="none" stroke="#63b8ff" d="M521.31,-54.99C505.21,-45.66 484.16,-33.47 468.17,-24.21"/>
<polygon fill="#63b8ff" stroke="#63b8ff" points="469.82,-21.12 459.42,-19.14 466.31,-27.18 469.82,-21.12"/>
</a>
</g>
</g>
<!-- Node17&#45;&gt;Node16 -->
<g id="edge26_Node000017_Node000016" class="edge">
<title>Node17&#45;&gt;Node16</title>
<g id="a_edge26_Node000017_Node000016"><a xlink:title=" ">
<path fill="none" stroke="#63b8ff" d="M547.19,-54.84C548.11,-47.21 549.24,-37.7 550.23,-29.45"/>
<polygon fill="#63b8ff" stroke="#63b8ff" points="553.74,-29.61 551.45,-19.27 546.79,-28.78 553.74,-29.61"/>
</a>
</g>
</g>
</g>
</svg>
