<?xml version="1.0" encoding="UTF-8" standalone="no"?>
<!DOCTYPE svg PUBLIC "-//W3C//DTD SVG 1.1//EN"
 "http://www.w3.org/Graphics/SVG/1.1/DTD/svg11.dtd">
<!-- Generated by graphviz version 2.43.0 (0)
 -->
<!-- Title: /home/runner/work/amr&#45;wind/amr&#45;wind/src/utilities/sampling/SamplingUtils.cpp Pages: 1 -->
<svg width="820pt" height="401pt"
 viewBox="0.00 0.00 819.50 401.00" xmlns="http://www.w3.org/2000/svg" xmlns:xlink="http://www.w3.org/1999/xlink">
<g id="graph0" class="graph" transform="scale(1 1) rotate(0) translate(4 397)">
<title>/home/runner/work/amr&#45;wind/amr&#45;wind/src/utilities/sampling/SamplingUtils.cpp</title>
<!-- Node1 -->
<g id="Node000001" class="node">
<title>Node1</title>
<g id="a_Node000001"><a xlink:title=" ">
<polygon fill="#999999" stroke="#666666" points="703,-393 547,-393 547,-352 703,-352 703,-393"/>
<text text-anchor="start" x="555" y="-381" font-family="Helvetica,sans-Serif" font-size="10.00">/home/runner/work/amr</text>
<text text-anchor="start" x="555" y="-370" font-family="Helvetica,sans-Serif" font-size="10.00">&#45;wind/amr&#45;wind/src/utilities</text>
<text text-anchor="middle" x="625" y="-359" font-family="Helvetica,sans-Serif" font-size="10.00">/sampling/SamplingUtils.cpp</text>
</a>
</g>
</g>
<!-- Node2 -->
<g id="Node000002" class="node">
<title>Node2</title>
<g id="a_Node000002"><a xlink:title=" ">
<polygon fill="#e0e0e0" stroke="#999999" points="495,-316 431,-316 431,-297 495,-297 495,-316"/>
<text text-anchor="middle" x="463" y="-304" font-family="Helvetica,sans-Serif" font-size="10.00">algorithm</text>
</a>
</g>
</g>
<!-- Node1&#45;&gt;Node2 -->
<g id="edge1_Node000001_Node000002" class="edge">
<title>Node1&#45;&gt;Node2</title>
<g id="a_edge1_Node000001_Node000002"><a xlink:title=" ">
<path fill="none" stroke="#63b8ff" d="M575.51,-351.95C549.09,-341.51 517.37,-328.98 494.35,-319.88"/>
<polygon fill="#63b8ff" stroke="#63b8ff" points="495.33,-316.51 484.75,-316.09 492.76,-323.02 495.33,-316.51"/>
</a>
</g>
</g>
<!-- Node3 -->
<g id="Node000003" class="node">
<title>Node3</title>
<g id="a_Node000003"><a xlink:href="_sampling_utils_8_h.html" target="_top" xlink:title=" ">
<polygon fill="white" stroke="#666666" points="608.5,-316 513.5,-316 513.5,-297 608.5,-297 608.5,-316"/>
<text text-anchor="middle" x="561" y="-304" font-family="Helvetica,sans-Serif" font-size="10.00">SamplingUtils.H</text>
</a>
</g>
</g>
<!-- Node1&#45;&gt;Node3 -->
<g id="edge2_Node000001_Node000003" class="edge">
<title>Node1&#45;&gt;Node3</title>
<g id="a_edge2_Node000001_Node000003"><a xlink:title=" ">
<path fill="none" stroke="#63b8ff" d="M605.45,-351.95C596.33,-342.83 585.61,-332.11 576.99,-323.49"/>
<polygon fill="#63b8ff" stroke="#63b8ff" points="579.31,-320.86 569.76,-316.26 574.36,-325.81 579.31,-320.86"/>
</a>
</g>
</g>
<!-- Node18 -->
<g id="Node000018" class="node">
<title>Node18</title>
<g id="a_Node000018"><a xlink:title=" ">
<polygon fill="#e0e0e0" stroke="#999999" points="631,-19 539,-19 539,0 631,0 631,-19"/>
<text text-anchor="middle" x="585" y="-7" font-family="Helvetica,sans-Serif" font-size="10.00">AMReX_REAL.H</text>
</a>
</g>
</g>
<!-- Node1&#45;&gt;Node18 -->
<g id="edge32_Node000001_Node000018" class="edge">
<title>Node1&#45;&gt;Node18</title>
<g id="a_edge32_Node000001_Node000018"><a xlink:title=" ">
<path fill="none" stroke="#63b8ff" d="M635.25,-351.83C646.8,-327.77 664,-285.51 664,-247 664,-247 664,-247 664,-129.5 664,-86.02 626.94,-46.28 603.59,-25.55"/>
<polygon fill="#63b8ff" stroke="#63b8ff" points="605.86,-22.88 595.98,-19.04 601.3,-28.2 605.86,-22.88"/>
</a>
</g>
</g>
<!-- Node21 -->
<g id="Node000021" class="node">
<title>Node21</title>
<g id="a_Node000021"><a xlink:title=" ">
<polygon fill="#e0e0e0" stroke="#999999" points="811.5,-316 692.5,-316 692.5,-297 811.5,-297 811.5,-316"/>
<text text-anchor="middle" x="752" y="-304" font-family="Helvetica,sans-Serif" font-size="10.00">AMReX_ParmParse.H</text>
</a>
</g>
</g>
<!-- Node1&#45;&gt;Node21 -->
<g id="edge31_Node000001_Node000021" class="edge">
<title>Node1&#45;&gt;Node21</title>
<g id="a_edge31_Node000001_Node000021"><a xlink:title=" ">
<path fill="none" stroke="#63b8ff" d="M663.79,-351.95C683.86,-341.84 707.82,-329.76 725.7,-320.75"/>
<polygon fill="#63b8ff" stroke="#63b8ff" points="727.6,-323.72 734.95,-316.09 724.45,-317.47 727.6,-323.72"/>
</a>
</g>
</g>
<!-- Node4 -->
<g id="Node000004" class="node">
<title>Node4</title>
<g id="a_Node000004"><a xlink:title=" ">
<polygon fill="#e0e0e0" stroke="#999999" points="376,-255.5 332,-255.5 332,-236.5 376,-236.5 376,-255.5"/>
<text text-anchor="middle" x="354" y="-243.5" font-family="Helvetica,sans-Serif" font-size="10.00">string</text>
</a>
</g>
</g>
<!-- Node3&#45;&gt;Node4 -->
<g id="edge3_Node000003_Node000004" class="edge">
<title>Node3&#45;&gt;Node4</title>
<g id="a_edge3_Node000003_Node000004"><a xlink:title=" ">
<path fill="none" stroke="#63b8ff" d="M518.42,-296.95C482.39,-289.18 429.63,-276.58 385,-261 383.61,-260.51 382.19,-259.99 380.77,-259.44"/>
<polygon fill="#63b8ff" stroke="#63b8ff" points="382.06,-256.18 371.49,-255.54 379.35,-262.64 382.06,-256.18"/>
</a>
</g>
</g>
<!-- Node5 -->
<g id="Node000005" class="node">
<title>Node5</title>
<g id="a_Node000005"><a xlink:title=" ">
<polygon fill="#e0e0e0" stroke="#999999" points="560,-255.5 510,-255.5 510,-236.5 560,-236.5 560,-255.5"/>
<text text-anchor="middle" x="535" y="-243.5" font-family="Helvetica,sans-Serif" font-size="10.00">cstdint</text>
</a>
</g>
</g>
<!-- Node3&#45;&gt;Node5 -->
<g id="edge4_Node000003_Node000005" class="edge">
<title>Node3&#45;&gt;Node5</title>
<g id="a_edge4_Node000003_Node000005"><a xlink:title=" ">
<path fill="none" stroke="#63b8ff" d="M557.16,-296.87C553.44,-288.49 547.67,-275.51 542.95,-264.89"/>
<polygon fill="#63b8ff" stroke="#63b8ff" points="546.11,-263.38 538.85,-255.67 539.72,-266.23 546.11,-263.38"/>
</a>
</g>
</g>
<!-- Node6 -->
<g id="Node000006" class="node">
<title>Node6</title>
<g id="a_Node000006"><a xlink:href="vector__space_8_h.html" target="_top" xlink:title=" ">
<polygon fill="white" stroke="#666666" points="313.5,-261 210.5,-261 210.5,-231 313.5,-231 313.5,-261"/>
<text text-anchor="start" x="218.5" y="-249" font-family="Helvetica,sans-Serif" font-size="10.00">src/core/vs/vector</text>
<text text-anchor="middle" x="262" y="-238" font-family="Helvetica,sans-Serif" font-size="10.00">_space.H</text>
</a>
</g>
</g>
<!-- Node3&#45;&gt;Node6 -->
<g id="edge5_Node000003_Node000006" class="edge">
<title>Node3&#45;&gt;Node6</title>
<g id="a_edge5_Node000003_Node000006"><a xlink:title=" ">
<path fill="none" stroke="#63b8ff" d="M513.47,-297.2C467.51,-289.05 395.66,-275.95 323.7,-261.09"/>
<polygon fill="#63b8ff" stroke="#63b8ff" points="324.05,-257.59 313.55,-258.99 322.63,-264.45 324.05,-257.59"/>
</a>
</g>
</g>
<!-- Node3&#45;&gt;Node18 -->
<g id="edge30_Node000003_Node000018" class="edge">
<title>Node3&#45;&gt;Node18</title>
<g id="a_edge30_Node000003_Node000018"><a xlink:title=" ">
<path fill="none" stroke="#63b8ff" d="M569.77,-296.84C587.51,-278.35 626,-232.88 626,-186.5 626,-186.5 626,-186.5 626,-129.5 626,-91.62 607.2,-50.48 595.06,-27.86"/>
<polygon fill="#63b8ff" stroke="#63b8ff" points="598.11,-26.14 590.19,-19.1 591.99,-29.54 598.11,-26.14"/>
</a>
</g>
</g>
<!-- Node19 -->
<g id="Node000019" class="node">
<title>Node19</title>
<g id="a_Node000019"><a xlink:href="tensor__ops_8_h.html" target="_top" xlink:title=" ">
<polygon fill="white" stroke="#666666" points="598,-85 494,-85 494,-55 598,-55 598,-85"/>
<text text-anchor="start" x="502" y="-73" font-family="Helvetica,sans-Serif" font-size="10.00">src/utilities/tensor</text>
<text text-anchor="middle" x="546" y="-62" font-family="Helvetica,sans-Serif" font-size="10.00">_ops.H</text>
</a>
</g>
</g>
<!-- Node3&#45;&gt;Node19 -->
<g id="edge26_Node000003_Node000019" class="edge">
<title>Node3&#45;&gt;Node19</title>
<g id="a_edge26_Node000003_Node000019"><a xlink:title=" ">
<path fill="none" stroke="#63b8ff" d="M563.06,-296.7C565.04,-287.77 567.88,-273.51 569,-261 574.32,-201.31 560.73,-131.43 552.23,-95.34"/>
<polygon fill="#63b8ff" stroke="#63b8ff" points="555.55,-94.16 549.79,-85.27 548.75,-95.81 555.55,-94.16"/>
</a>
</g>
</g>
<!-- Node20 -->
<g id="Node000020" class="node">
<title>Node20</title>
<g id="a_Node000020"><a xlink:title=" ">
<polygon fill="#e0e0e0" stroke="#999999" points="492,-255.5 394,-255.5 394,-236.5 492,-236.5 492,-255.5"/>
<text text-anchor="middle" x="443" y="-243.5" font-family="Helvetica,sans-Serif" font-size="10.00">AMReX_Vector.H</text>
</a>
</g>
</g>
<!-- Node3&#45;&gt;Node20 -->
<g id="edge29_Node000003_Node000020" class="edge">
<title>Node3&#45;&gt;Node20</title>
<g id="a_edge29_Node000003_Node000020"><a xlink:title=" ">
<path fill="none" stroke="#63b8ff" d="M543.84,-296.99C524.27,-287.29 492.03,-271.31 469.28,-260.03"/>
<polygon fill="#63b8ff" stroke="#63b8ff" points="470.69,-256.82 460.18,-255.52 467.58,-263.09 470.69,-256.82"/>
</a>
</g>
</g>
<!-- Node7 -->
<g id="Node000007" class="node">
<title>Node7</title>
<g id="a_Node000007"><a xlink:href="vector_8_h.html" target="_top" xlink:title=" ">
<polygon fill="white" stroke="#666666" points="251.5,-140 138.5,-140 138.5,-121 251.5,-121 251.5,-140"/>
<text text-anchor="middle" x="195" y="-128" font-family="Helvetica,sans-Serif" font-size="10.00">src/core/vs/vector.H</text>
</a>
</g>
</g>
<!-- Node6&#45;&gt;Node7 -->
<g id="edge6_Node000006_Node000007" class="edge">
<title>Node6&#45;&gt;Node7</title>
<g id="a_edge6_Node000006_Node000007"><a xlink:title=" ">
<path fill="none" stroke="#63b8ff" d="M253.51,-230.63C241.25,-209.84 218.58,-171.44 205.34,-149.02"/>
<polygon fill="#63b8ff" stroke="#63b8ff" points="208.25,-147.06 200.15,-140.23 202.22,-150.62 208.25,-147.06"/>
</a>
</g>
</g>
<!-- Node14 -->
<g id="Node000014" class="node">
<title>Node14</title>
<g id="a_Node000014"><a xlink:href="tensor_8_h.html" target="_top" xlink:title=" ">
<polygon fill="white" stroke="#666666" points="356.5,-195 243.5,-195 243.5,-176 356.5,-176 356.5,-195"/>
<text text-anchor="middle" x="300" y="-183" font-family="Helvetica,sans-Serif" font-size="10.00">src/core/vs/tensor.H</text>
</a>
</g>
</g>
<!-- Node6&#45;&gt;Node14 -->
<g id="edge14_Node000006_Node000014" class="edge">
<title>Node6&#45;&gt;Node14</title>
<g id="a_edge14_Node000006_Node000014"><a xlink:title=" ">
<path fill="none" stroke="#63b8ff" d="M271.2,-230.84C276.49,-222.69 283.18,-212.4 288.78,-203.78"/>
<polygon fill="#63b8ff" stroke="#63b8ff" points="291.79,-205.56 294.31,-195.27 285.92,-201.75 291.79,-205.56"/>
</a>
</g>
</g>
<!-- Node8 -->
<g id="Node000008" class="node">
<title>Node8</title>
<g id="a_Node000008"><a xlink:title=" ">
<polygon fill="#e0e0e0" stroke="#999999" points="434.5,-19 347.5,-19 347.5,0 434.5,0 434.5,-19"/>
<text text-anchor="middle" x="391" y="-7" font-family="Helvetica,sans-Serif" font-size="10.00">AMReX_Gpu.H</text>
</a>
</g>
</g>
<!-- Node7&#45;&gt;Node8 -->
<g id="edge7_Node000007_Node000008" class="edge">
<title>Node7&#45;&gt;Node8</title>
<g id="a_edge7_Node000007_Node000008"><a xlink:title=" ">
<path fill="none" stroke="#63b8ff" d="M208.38,-120.68C221.93,-111.74 243.46,-97.47 262,-85 281.64,-71.79 285.7,-67.18 306,-55 324.87,-43.68 346.89,-32.2 363.79,-23.73"/>
<polygon fill="#63b8ff" stroke="#63b8ff" points="365.69,-26.7 373.09,-19.12 362.58,-20.43 365.69,-26.7"/>
</a>
</g>
</g>
<!-- Node9 -->
<g id="Node000009" class="node">
<title>Node9</title>
<g id="a_Node000009"><a xlink:href="vstraits_8_h.html" target="_top" xlink:title=" ">
<polygon fill="white" stroke="#666666" points="253.5,-79.5 134.5,-79.5 134.5,-60.5 253.5,-60.5 253.5,-79.5"/>
<text text-anchor="middle" x="194" y="-67.5" font-family="Helvetica,sans-Serif" font-size="10.00">src/core/vs/vstraits.H</text>
</a>
</g>
</g>
<!-- Node7&#45;&gt;Node9 -->
<g id="edge8_Node000007_Node000009" class="edge">
<title>Node7&#45;&gt;Node9</title>
<g id="a_edge8_Node000007_Node000009"><a xlink:title=" ">
<path fill="none" stroke="#63b8ff" d="M194.85,-120.87C194.71,-112.75 194.5,-100.31 194.32,-89.89"/>
<polygon fill="#63b8ff" stroke="#63b8ff" points="197.82,-89.61 194.15,-79.67 190.82,-89.73 197.82,-89.61"/>
</a>
</g>
</g>
<!-- Node11 -->
<g id="Node000011" class="node">
<title>Node11</title>
<g id="a_Node000011"><a xlink:href="vector_i_8_h.html" target="_top" xlink:title=" ">
<polygon fill="white" stroke="#666666" points="116,-79.5 0,-79.5 0,-60.5 116,-60.5 116,-79.5"/>
<text text-anchor="middle" x="58" y="-67.5" font-family="Helvetica,sans-Serif" font-size="10.00">src/core/vs/vectorI.H</text>
</a>
</g>
</g>
<!-- Node7&#45;&gt;Node11 -->
<g id="edge10_Node000007_Node000011" class="edge">
<title>Node7&#45;&gt;Node11</title>
<g id="a_edge10_Node000007_Node000011"><a xlink:title=" ">
<path fill="none" stroke="#63b8ff" d="M170.15,-120.99C145.08,-111.2 106.93,-95.02 82.13,-83.73"/>
<polygon fill="#63b8ff" stroke="#63b8ff" points="83.56,-80.54 73.01,-79.52 80.62,-86.89 83.56,-80.54"/>
</a>
</g>
</g>
<!-- Node10 -->
<g id="Node000010" class="node">
<title>Node10</title>
<g id="a_Node000010"><a xlink:title=" ">
<polygon fill="#e0e0e0" stroke="#999999" points="216,-19 172,-19 172,0 216,0 216,-19"/>
<text text-anchor="middle" x="194" y="-7" font-family="Helvetica,sans-Serif" font-size="10.00">limits</text>
</a>
</g>
</g>
<!-- Node9&#45;&gt;Node10 -->
<g id="edge9_Node000009_Node000010" class="edge">
<title>Node9&#45;&gt;Node10</title>
<g id="a_edge9_Node000009_Node000010"><a xlink:title=" ">
<path fill="none" stroke="#63b8ff" d="M194,-60.37C194,-52.25 194,-39.81 194,-29.39"/>
<polygon fill="#63b8ff" stroke="#63b8ff" points="197.5,-29.17 194,-19.17 190.5,-29.17 197.5,-29.17"/>
</a>
</g>
</g>
<!-- Node11&#45;&gt;Node7 -->
<g id="edge13_Node000011_Node000007" class="edge">
<title>Node11&#45;&gt;Node7</title>
<g id="a_edge13_Node000011_Node000007"><a xlink:title=" ">
<path fill="none" stroke="#63b8ff" d="M82.88,-79.52C107.96,-89.31 146.1,-105.49 170.9,-116.78"/>
<polygon fill="#63b8ff" stroke="#63b8ff" points="169.46,-119.97 180.01,-120.99 172.4,-113.62 169.46,-119.97"/>
</a>
</g>
</g>
<!-- Node12 -->
<g id="Node000012" class="node">
<title>Node12</title>
<g id="a_Node000012"><a xlink:title=" ">
<polygon fill="#e0e0e0" stroke="#999999" points="86.5,-19 29.5,-19 29.5,0 86.5,0 86.5,-19"/>
<text text-anchor="middle" x="58" y="-7" font-family="Helvetica,sans-Serif" font-size="10.00">ostream</text>
</a>
</g>
</g>
<!-- Node11&#45;&gt;Node12 -->
<g id="edge11_Node000011_Node000012" class="edge">
<title>Node11&#45;&gt;Node12</title>
<g id="a_edge11_Node000011_Node000012"><a xlink:title=" ">
<path fill="none" stroke="#63b8ff" d="M58,-60.37C58,-52.25 58,-39.81 58,-29.39"/>
<polygon fill="#63b8ff" stroke="#63b8ff" points="61.5,-29.17 58,-19.17 54.5,-29.17 61.5,-29.17"/>
</a>
</g>
</g>
<!-- Node13 -->
<g id="Node000013" class="node">
<title>Node13</title>
<g id="a_Node000013"><a xlink:title=" ">
<polygon fill="#e0e0e0" stroke="#999999" points="329.5,-19 282.5,-19 282.5,0 329.5,0 329.5,-19"/>
<text text-anchor="middle" x="306" y="-7" font-family="Helvetica,sans-Serif" font-size="10.00">cmath</text>
</a>
</g>
</g>
<!-- Node11&#45;&gt;Node13 -->
<g id="edge12_Node000011_Node000013" class="edge">
<title>Node11&#45;&gt;Node13</title>
<g id="a_edge12_Node000011_Node000013"><a xlink:title=" ">
<path fill="none" stroke="#63b8ff" d="M94.06,-60.49C141.9,-49.21 225.7,-29.44 272.31,-18.45"/>
<polygon fill="#63b8ff" stroke="#63b8ff" points="273.29,-21.81 282.22,-16.11 271.68,-15 273.29,-21.81"/>
</a>
</g>
</g>
<!-- Node14&#45;&gt;Node7 -->
<g id="edge17_Node000014_Node000007" class="edge">
<title>Node14&#45;&gt;Node7</title>
<g id="a_edge17_Node000014_Node000007"><a xlink:title=" ">
<path fill="none" stroke="#63b8ff" d="M283.13,-175.98C266.39,-167.54 240.5,-154.47 221.11,-144.68"/>
<polygon fill="#63b8ff" stroke="#63b8ff" points="222.68,-141.55 212.18,-140.17 219.53,-147.8 222.68,-141.55"/>
</a>
</g>
</g>
<!-- Node14&#45;&gt;Node8 -->
<g id="edge15_Node000014_Node000008" class="edge">
<title>Node14&#45;&gt;Node8</title>
<g id="a_edge15_Node000014_Node000008"><a xlink:title=" ">
<path fill="none" stroke="#63b8ff" d="M304.64,-175.63C318.94,-148.29 362.55,-64.9 381.75,-28.18"/>
<polygon fill="#63b8ff" stroke="#63b8ff" points="384.95,-29.63 386.48,-19.14 378.74,-26.38 384.95,-29.63"/>
</a>
</g>
</g>
<!-- Node14&#45;&gt;Node9 -->
<g id="edge16_Node000014_Node000009" class="edge">
<title>Node14&#45;&gt;Node9</title>
<g id="a_edge16_Node000014_Node000009"><a xlink:title=" ">
<path fill="none" stroke="#63b8ff" d="M295.71,-175.6C289.19,-162.65 275.85,-138.28 260,-121 247.29,-107.14 230.33,-94.39 216.79,-85.23"/>
<polygon fill="#63b8ff" stroke="#63b8ff" points="218.34,-82.06 208.06,-79.5 214.5,-87.91 218.34,-82.06"/>
</a>
</g>
</g>
<!-- Node15 -->
<g id="Node000015" class="node">
<title>Node15</title>
<g id="a_Node000015"><a xlink:href="tensor_i_8_h.html" target="_top" xlink:title=" ">
<polygon fill="white" stroke="#666666" points="464,-140 348,-140 348,-121 464,-121 464,-140"/>
<text text-anchor="middle" x="406" y="-128" font-family="Helvetica,sans-Serif" font-size="10.00">src/core/vs/tensorI.H</text>
</a>
</g>
</g>
<!-- Node14&#45;&gt;Node15 -->
<g id="edge18_Node000014_Node000015" class="edge">
<title>Node14&#45;&gt;Node15</title>
<g id="a_edge18_Node000014_Node000015"><a xlink:title=" ">
<path fill="none" stroke="#63b8ff" d="M311.92,-175.98C327.09,-167.46 353.29,-154.23 374.29,-144.41"/>
<polygon fill="#63b8ff" stroke="#63b8ff" points="375.89,-147.53 383.51,-140.17 372.96,-141.17 375.89,-147.53"/>
</a>
</g>
</g>
<!-- Node15&#45;&gt;Node13 -->
<g id="edge19_Node000015_Node000013" class="edge">
<title>Node15&#45;&gt;Node13</title>
<g id="a_edge19_Node000015_Node000013"><a xlink:title=" ">
<path fill="none" stroke="#63b8ff" d="M398.81,-120.94C382.31,-101.31 341.51,-52.76 319.92,-27.07"/>
<polygon fill="#63b8ff" stroke="#63b8ff" points="322.51,-24.71 313.4,-19.3 317.15,-29.21 322.51,-24.71"/>
</a>
</g>
</g>
<!-- Node15&#45;&gt;Node14 -->
<g id="edge20_Node000015_Node000014" class="edge">
<title>Node15&#45;&gt;Node14</title>
<g id="a_edge20_Node000015_Node000014"><a xlink:title=" ">
<path fill="none" stroke="#63b8ff" d="M393.81,-140.17C378.5,-148.75 352.27,-161.99 331.33,-171.77"/>
<polygon fill="#63b8ff" stroke="#63b8ff" points="329.77,-168.63 322.15,-175.98 332.69,-174.99 329.77,-168.63"/>
</a>
</g>
</g>
<!-- Node16 -->
<g id="Node000016" class="node">
<title>Node16</title>
<g id="a_Node000016"><a xlink:href="trig__ops_8_h.html" target="_top" xlink:title=" ">
<polygon fill="white" stroke="#666666" points="476,-85 386,-85 386,-55 476,-55 476,-85"/>
<text text-anchor="start" x="394" y="-73" font-family="Helvetica,sans-Serif" font-size="10.00">src/utilities/trig</text>
<text text-anchor="middle" x="431" y="-62" font-family="Helvetica,sans-Serif" font-size="10.00">_ops.H</text>
</a>
</g>
</g>
<!-- Node15&#45;&gt;Node16 -->
<g id="edge21_Node000015_Node000016" class="edge">
<title>Node15&#45;&gt;Node16</title>
<g id="a_edge21_Node000015_Node000016"><a xlink:title=" ">
<path fill="none" stroke="#63b8ff" d="M409.69,-120.87C412.67,-113.89 417.02,-103.71 421.01,-94.38"/>
<polygon fill="#63b8ff" stroke="#63b8ff" points="424.26,-95.69 424.97,-85.11 417.82,-92.93 424.26,-95.69"/>
</a>
</g>
</g>
<!-- Node16&#45;&gt;Node8 -->
<g id="edge25_Node000016_Node000008" class="edge">
<title>Node16&#45;&gt;Node8</title>
<g id="a_edge25_Node000016_Node000008"><a xlink:title=" ">
<path fill="none" stroke="#63b8ff" d="M421.32,-54.84C415.75,-46.69 408.71,-36.4 402.82,-27.78"/>
<polygon fill="#63b8ff" stroke="#63b8ff" points="405.53,-25.55 396.99,-19.27 399.75,-29.5 405.53,-25.55"/>
</a>
</g>
</g>
<!-- Node16&#45;&gt;Node13 -->
<g id="edge22_Node000016_Node000013" class="edge">
<title>Node16&#45;&gt;Node13</title>
<g id="a_edge22_Node000016_Node000013"><a xlink:title=" ">
<path fill="none" stroke="#63b8ff" d="M401.06,-54.99C380.58,-45.4 353.62,-32.79 333.65,-23.44"/>
<polygon fill="#63b8ff" stroke="#63b8ff" points="335,-20.21 324.46,-19.14 332.03,-26.55 335,-20.21"/>
</a>
</g>
</g>
<!-- Node17 -->
<g id="Node000017" class="node">
<title>Node17</title>
<g id="a_Node000017"><a xlink:title=" ">
<polygon fill="#e0e0e0" stroke="#999999" points="511.5,-19 452.5,-19 452.5,0 511.5,0 511.5,-19"/>
<text text-anchor="middle" x="482" y="-7" font-family="Helvetica,sans-Serif" font-size="10.00">numbers</text>
</a>
</g>
</g>
<!-- Node16&#45;&gt;Node17 -->
<g id="edge23_Node000016_Node000017" class="edge">
<title>Node16&#45;&gt;Node17</title>
<g id="a_edge23_Node000016_Node000017"><a xlink:title=" ">
<path fill="none" stroke="#63b8ff" d="M443.35,-54.84C450.67,-46.43 460,-35.74 467.65,-26.96"/>
<polygon fill="#63b8ff" stroke="#63b8ff" points="470.42,-29.1 474.36,-19.27 465.15,-24.5 470.42,-29.1"/>
</a>
</g>
</g>
<!-- Node16&#45;&gt;Node18 -->
<g id="edge24_Node000016_Node000018" class="edge">
<title>Node16&#45;&gt;Node18</title>
<g id="a_edge24_Node000016_Node000018"><a xlink:title=" ">
<path fill="none" stroke="#63b8ff" d="M467.89,-54.99C493.7,-45.18 527.85,-32.21 552.6,-22.81"/>
<polygon fill="#63b8ff" stroke="#63b8ff" points="554.15,-25.96 562.26,-19.14 551.67,-19.42 554.15,-25.96"/>
</a>
</g>
</g>
<!-- Node19&#45;&gt;Node8 -->
<g id="edge27_Node000019_Node000008" class="edge">
<title>Node19&#45;&gt;Node8</title>
<g id="a_edge27_Node000019_Node000008"><a xlink:title=" ">
<path fill="none" stroke="#63b8ff" d="M508.87,-54.99C482.78,-45.14 448.22,-32.1 423.27,-22.68"/>
<polygon fill="#63b8ff" stroke="#63b8ff" points="424.48,-19.4 413.89,-19.14 422.01,-25.94 424.48,-19.4"/>
</a>
</g>
</g>
<!-- Node19&#45;&gt;Node18 -->
<g id="edge28_Node000019_Node000018" class="edge">
<title>Node19&#45;&gt;Node18</title>
<g id="a_edge28_Node000019_Node000018"><a xlink:title=" ">
<path fill="none" stroke="#63b8ff" d="M555.44,-54.84C560.87,-46.69 567.73,-36.4 573.48,-27.78"/>
<polygon fill="#63b8ff" stroke="#63b8ff" points="576.52,-29.53 579.16,-19.27 570.7,-25.65 576.52,-29.53"/>
</a>
</g>
</g>
</g>
</svg>
