<?xml version="1.0" encoding="UTF-8" standalone="no"?>
<!DOCTYPE svg PUBLIC "-//W3C//DTD SVG 1.1//EN"
 "http://www.w3.org/Graphics/SVG/1.1/DTD/svg11.dtd">
<!-- Generated by graphviz version 2.43.0 (0)
 -->
<!-- Title: /home/runner/work/amr&#45;wind/amr&#45;wind/src/immersed_boundary/bluff_body/Sphere.H Pages: 1 -->
<!--zoomable 478 -->

<svg id="main" version="1.1" xmlns="http://www.w3.org/2000/svg" xmlns:xlink="http://www.w3.org/1999/xlink" xml:space="preserve" onload="init(evt)">

<style type="text/css"><![CDATA[
.node, .edge {opacity: 0.7;}
.node.selected, .edge.selected {opacity: 1;}
.edge:hover path { stroke: red; }
.edge:hover polygon { stroke: red; fill: red; }
]]></style>

<defs>
  <circle id="rim" cx="0" cy="0" r="7"/>
  <circle id="rim2" cx="0" cy="0" r="3.5"/>
  <g id="zoomPlus">
    <use xlink:href="#rim" fill="#404040"><set attributeName="fill" to="#808080" begin="zoomplus.mouseover" end="zoomplus.mouseout"/></use>
    <path d="M-4,0h8M0,-4v8" fill="none" stroke="white" stroke-width="1.5" pointer-events="none"/>
  </g>
  <g id="zoomMin">
    <use xlink:href="#rim" fill="#404040"><set attributeName="fill" to="#808080" begin="zoomminus.mouseover" end="zoomminus.mouseout"/></use>
    <path d="M-4,0h8" fill="none" stroke="white" stroke-width="1.5" pointer-events="none"/>
  </g>
  <g id="arrowUp" transform="translate(30 24)">
    <use xlink:href="#rim"/>
    <path pointer-events="none" fill="none" stroke="white" stroke-width="1.5" d="M0,-3.0v7 M-2.5,-0.5L0,-3.0L2.5,-0.5"/>
  </g>
  <g id="arrowRight" transform="rotate(90) translate(36 -43)">
    <use xlink:href="#rim"/>
    <path pointer-events="none" fill="none" stroke="white" stroke-width="1.5" d="M0,-3.0v7 M-2.5,-0.5L0,-3.0L2.5,-0.5"/>
  </g>
  <g id="arrowDown" transform="rotate(180) translate(-30 -48)">
    <use xlink:href="#rim"/>
    <path pointer-events="none" fill="none" stroke="white" stroke-width="1.5" d="M0,-3.0v7 M-2.5,-0.5L0,-3.0L2.5,-0.5"/>
  </g>
  <g id="arrowLeft" transform="rotate(270) translate(-36 17)">
    <use xlink:href="#rim"/>
    <path pointer-events="none" fill="none" stroke="white" stroke-width="1.5" d="M0,-3.0v7 M-2.5,-0.5L0,-3.0L2.5,-0.5"/>
  </g>
  <g id="resetDef">
    <use xlink:href="#rim2" fill="#404040"><set attributeName="fill" to="#808080" begin="reset.mouseover" end="reset.mouseout"/></use>
  </g>
</defs>
<script type="application/ecmascript">
var viewWidth = 884;
var viewHeight = 478;
var sectionId = 'dynsection-0';
</script>
<script type="application/ecmascript" xlink:href="svg.min.js"/>
<svg id="graph" class="graph">
<g id="viewport">
<title>/home/runner/work/amr&#45;wind/amr&#45;wind/src/immersed_boundary/bluff_body/Sphere.H</title>
<!-- Node1 -->
<g id="Node000001" class="node">
<title>Node1</title>
<g id="a_Node000001"><a xlink:title=" ">
<polygon fill="#999999" stroke="#666666" points="728.5,-470 559.5,-470 559.5,-429 728.5,-429 728.5,-470"/>
<text text-anchor="start" x="567.5" y="-458" font-family="Helvetica,sans-Serif" font-size="10.00">/home/runner/work/amr</text>
<text text-anchor="start" x="567.5" y="-447" font-family="Helvetica,sans-Serif" font-size="10.00">&#45;wind/amr&#45;wind/src/immersed</text>
<text text-anchor="middle" x="644" y="-436" font-family="Helvetica,sans-Serif" font-size="10.00">_boundary/bluff_body/Sphere.H</text>
</a>
</g>
</g>
<!-- Node2 -->
<g id="Node000002" class="node">
<title>Node2</title>
<g id="a_Node000002"><a xlink:href="_bluff_body_8_h.html" target="_top" xlink:title=" ">
<polygon fill="white" stroke="#666666" points="507,-393 373,-393 373,-363 507,-363 507,-393"/>
<text text-anchor="start" x="381" y="-381" font-family="Helvetica,sans-Serif" font-size="10.00">src/immersed_boundary</text>
<text text-anchor="middle" x="440" y="-370" font-family="Helvetica,sans-Serif" font-size="10.00">/bluff_body/BluffBody.H</text>
</a>
</g>
</g>
<!-- Node1&#45;&gt;Node2 -->
<g id="edge1_Node000001_Node000002" class="edge">
<title>Node1&#45;&gt;Node2</title>
<g id="a_edge1_Node000001_Node000002"><a xlink:title=" ">
<path fill="none" stroke="#63b8ff" d="M586.63,-428.96C556.46,-418.68 519.79,-406.18 490.67,-396.26"/>
<polygon fill="#63b8ff" stroke="#63b8ff" points="491.7,-392.92 481.11,-393 489.44,-399.54 491.7,-392.92"/>
</a>
</g>
</g>
<!-- Node20 -->
<g id="Node000020" class="node">
<title>Node20</title>
<g id="a_Node000020"><a xlink:title=" ">
<polygon fill="#e0e0e0" stroke="#999999" points="876,-19 784,-19 784,0 876,0 876,-19"/>
<text text-anchor="middle" x="830" y="-7" font-family="Helvetica,sans-Serif" font-size="10.00">AMReX_REAL.H</text>
</a>
</g>
</g>
<!-- Node1&#45;&gt;Node20 -->
<g id="edge34_Node000001_Node000020" class="edge">
<title>Node1&#45;&gt;Node20</title>
<g id="a_edge34_Node000001_Node000020"><a xlink:title=" ">
<path fill="none" stroke="#63b8ff" d="M725.8,-428.94C782.55,-409.93 848,-374.65 848,-313 848,-313 848,-313 848,-129.5 848,-93.59 839.89,-52.26 834.55,-28.97"/>
<polygon fill="#63b8ff" stroke="#63b8ff" points="837.92,-28.01 832.21,-19.09 831.11,-29.63 837.92,-28.01"/>
</a>
</g>
</g>
<!-- Node3 -->
<g id="Node000003" class="node">
<title>Node3</title>
<g id="a_Node000003"><a xlink:href="_i_b_types_8_h.html" target="_top" xlink:title=" ">
<polygon fill="white" stroke="#666666" points="408,-327 274,-327 274,-297 408,-297 408,-327"/>
<text text-anchor="start" x="282" y="-315" font-family="Helvetica,sans-Serif" font-size="10.00">src/immersed_boundary</text>
<text text-anchor="middle" x="341" y="-304" font-family="Helvetica,sans-Serif" font-size="10.00">/IBTypes.H</text>
</a>
</g>
</g>
<!-- Node2&#45;&gt;Node3 -->
<g id="edge2_Node000002_Node000003" class="edge">
<title>Node2&#45;&gt;Node3</title>
<g id="a_edge2_Node000002_Node000003"><a xlink:title=" ">
<path fill="none" stroke="#63b8ff" d="M418.03,-362.8C404.31,-353.93 386.47,-342.39 371.4,-332.66"/>
<polygon fill="#63b8ff" stroke="#63b8ff" points="373.21,-329.65 362.91,-327.16 369.41,-335.53 373.21,-329.65"/>
</a>
</g>
</g>
<!-- Node9 -->
<g id="Node000009" class="node">
<title>Node9</title>
<g id="a_Node000009"><a xlink:href="vector__space_8_h.html" target="_top" xlink:title=" ">
<polygon fill="white" stroke="#666666" points="491.5,-261 388.5,-261 388.5,-231 491.5,-231 491.5,-261"/>
<text text-anchor="start" x="396.5" y="-249" font-family="Helvetica,sans-Serif" font-size="10.00">src/core/vs/vector</text>
<text text-anchor="middle" x="440" y="-238" font-family="Helvetica,sans-Serif" font-size="10.00">_space.H</text>
</a>
</g>
</g>
<!-- Node2&#45;&gt;Node9 -->
<g id="edge31_Node000002_Node000009" class="edge">
<title>Node2&#45;&gt;Node9</title>
<g id="a_edge31_Node000002_Node000009"><a xlink:title=" ">
<path fill="none" stroke="#63b8ff" d="M440,-362.84C440,-340.86 440,-298.27 440,-271.3"/>
<polygon fill="#63b8ff" stroke="#63b8ff" points="443.5,-271.14 440,-261.14 436.5,-271.14 443.5,-271.14"/>
</a>
</g>
</g>
<!-- Node2&#45;&gt;Node20 -->
<g id="edge33_Node000002_Node000020" class="edge">
<title>Node2&#45;&gt;Node20</title>
<g id="a_edge33_Node000002_Node000020"><a xlink:title=" ">
<path fill="none" stroke="#63b8ff" d="M507,-367.5C613.63,-350.47 810,-310.49 810,-247 810,-247 810,-247 810,-129.5 810,-93.49 819.02,-52.19 824.94,-28.94"/>
<polygon fill="#63b8ff" stroke="#63b8ff" points="828.38,-29.64 827.55,-19.08 821.61,-27.85 828.38,-29.64"/>
</a>
</g>
</g>
<!-- Node22 -->
<g id="Node000022" class="node">
<title>Node22</title>
<g id="a_Node000022"><a xlink:title=" ">
<polygon fill="#e0e0e0" stroke="#999999" points="256,-321.5 212,-321.5 212,-302.5 256,-302.5 256,-321.5"/>
<text text-anchor="middle" x="234" y="-309.5" font-family="Helvetica,sans-Serif" font-size="10.00">string</text>
</a>
</g>
</g>
<!-- Node2&#45;&gt;Node22 -->
<g id="edge32_Node000002_Node000022" class="edge">
<title>Node2&#45;&gt;Node22</title>
<g id="a_edge32_Node000002_Node000022"><a xlink:title=" ">
<path fill="none" stroke="#63b8ff" d="M382.98,-362.96C348.44,-353.9 303.72,-341.19 265,-327 263.78,-326.55 262.55,-326.08 261.31,-325.59"/>
<polygon fill="#63b8ff" stroke="#63b8ff" points="262.42,-322.26 251.85,-321.59 259.7,-328.71 262.42,-322.26"/>
</a>
</g>
</g>
<!-- Node4 -->
<g id="Node000004" class="node">
<title>Node4</title>
<g id="a_Node000004"><a xlink:title=" ">
<polygon fill="#e0e0e0" stroke="#999999" points="363.5,-255.5 318.5,-255.5 318.5,-236.5 363.5,-236.5 363.5,-255.5"/>
<text text-anchor="middle" x="341" y="-243.5" font-family="Helvetica,sans-Serif" font-size="10.00">utility</text>
</a>
</g>
</g>
<!-- Node3&#45;&gt;Node4 -->
<g id="edge3_Node000003_Node000004" class="edge">
<title>Node3&#45;&gt;Node4</title>
<g id="a_edge3_Node000003_Node000004"><a xlink:title=" ">
<path fill="none" stroke="#63b8ff" d="M341,-296.8C341,-287.7 341,-275.79 341,-265.9"/>
<polygon fill="#63b8ff" stroke="#63b8ff" points="344.5,-265.84 341,-255.84 337.5,-265.84 344.5,-265.84"/>
</a>
</g>
</g>
<!-- Node5 -->
<g id="Node000005" class="node">
<title>Node5</title>
<g id="a_Node000005"><a xlink:href="_slice_8_h.html" target="_top" xlink:title=" ">
<polygon fill="white" stroke="#666666" points="134,-255.5 42,-255.5 42,-236.5 134,-236.5 134,-255.5"/>
<text text-anchor="middle" x="88" y="-243.5" font-family="Helvetica,sans-Serif" font-size="10.00">src/core/Slice.H</text>
</a>
</g>
</g>
<!-- Node3&#45;&gt;Node5 -->
<g id="edge4_Node000003_Node000005" class="edge">
<title>Node3&#45;&gt;Node5</title>
<g id="a_edge4_Node000003_Node000005"><a xlink:title=" ">
<path fill="none" stroke="#63b8ff" d="M285.09,-296.91C245.43,-286.91 190.94,-273.15 143,-261 139.19,-260.03 135.23,-259.03 131.26,-258.02"/>
<polygon fill="#63b8ff" stroke="#63b8ff" points="132,-254.6 121.45,-255.52 130.27,-261.38 132,-254.6"/>
</a>
</g>
</g>
<!-- Node8 -->
<g id="Node000008" class="node">
<title>Node8</title>
<g id="a_Node000008"><a xlink:title=" ">
<polygon fill="#e0e0e0" stroke="#999999" points="359.5,-19 272.5,-19 272.5,0 359.5,0 359.5,-19"/>
<text text-anchor="middle" x="316" y="-7" font-family="Helvetica,sans-Serif" font-size="10.00">AMReX_Gpu.H</text>
</a>
</g>
</g>
<!-- Node3&#45;&gt;Node8 -->
<g id="edge29_Node000003_Node000008" class="edge">
<title>Node3&#45;&gt;Node8</title>
<g id="a_edge29_Node000003_Node000008"><a xlink:title=" ">
<path fill="none" stroke="#63b8ff" d="M328.77,-296.79C321.46,-287.33 312.88,-274.25 309,-261 284.6,-177.62 302.53,-71.9 311.59,-29.42"/>
<polygon fill="#63b8ff" stroke="#63b8ff" points="315.07,-29.92 313.82,-19.4 308.23,-28.4 315.07,-29.92"/>
</a>
</g>
</g>
<!-- Node3&#45;&gt;Node9 -->
<g id="edge8_Node000003_Node000009" class="edge">
<title>Node3&#45;&gt;Node9</title>
<g id="a_edge8_Node000003_Node000009"><a xlink:title=" ">
<path fill="none" stroke="#63b8ff" d="M362.97,-296.8C376.69,-287.93 394.53,-276.39 409.6,-266.66"/>
<polygon fill="#63b8ff" stroke="#63b8ff" points="411.59,-269.53 418.09,-261.16 407.79,-263.65 411.59,-269.53"/>
</a>
</g>
</g>
<!-- Node21 -->
<g id="Node000021" class="node">
<title>Node21</title>
<g id="a_Node000021"><a xlink:title=" ">
<polygon fill="#e0e0e0" stroke="#999999" points="260,-255.5 152,-255.5 152,-236.5 260,-236.5 260,-255.5"/>
<text text-anchor="middle" x="206" y="-243.5" font-family="Helvetica,sans-Serif" font-size="10.00">AMReX_RealBox.H</text>
</a>
</g>
</g>
<!-- Node3&#45;&gt;Node21 -->
<g id="edge30_Node000003_Node000021" class="edge">
<title>Node3&#45;&gt;Node21</title>
<g id="a_edge30_Node000003_Node000021"><a xlink:title=" ">
<path fill="none" stroke="#63b8ff" d="M311.37,-296.95C288.01,-285.88 255.7,-270.56 233.03,-259.82"/>
<polygon fill="#63b8ff" stroke="#63b8ff" points="234.5,-256.64 223.97,-255.52 231.5,-262.96 234.5,-256.64"/>
</a>
</g>
</g>
<!-- Node6 -->
<g id="Node000006" class="node">
<title>Node6</title>
<g id="a_Node000006"><a xlink:title=" ">
<polygon fill="#e0e0e0" stroke="#999999" points="207.5,-195 154.5,-195 154.5,-176 207.5,-176 207.5,-195"/>
<text text-anchor="middle" x="181" y="-183" font-family="Helvetica,sans-Serif" font-size="10.00">iterator</text>
</a>
</g>
</g>
<!-- Node5&#45;&gt;Node6 -->
<g id="edge5_Node000005_Node000006" class="edge">
<title>Node5&#45;&gt;Node6</title>
<g id="a_edge5_Node000005_Node000006"><a xlink:title=" ">
<path fill="none" stroke="#63b8ff" d="M101.72,-236.37C116.7,-226.95 140.89,-211.73 158.62,-200.58"/>
<polygon fill="#63b8ff" stroke="#63b8ff" points="160.62,-203.45 167.22,-195.17 156.89,-197.53 160.62,-203.45"/>
</a>
</g>
</g>
<!-- Node7 -->
<g id="Node000007" class="node">
<title>Node7</title>
<g id="a_Node000007"><a xlink:title=" ">
<polygon fill="#e0e0e0" stroke="#999999" points="98,-195 0,-195 0,-176 98,-176 98,-195"/>
<text text-anchor="middle" x="49" y="-183" font-family="Helvetica,sans-Serif" font-size="10.00">AMReX_Vector.H</text>
</a>
</g>
</g>
<!-- Node5&#45;&gt;Node7 -->
<g id="edge6_Node000005_Node000007" class="edge">
<title>Node5&#45;&gt;Node7</title>
<g id="a_edge6_Node000005_Node000007"><a xlink:title=" ">
<path fill="none" stroke="#63b8ff" d="M82.25,-236.37C76.54,-227.81 67.65,-214.47 60.49,-203.74"/>
<polygon fill="#63b8ff" stroke="#63b8ff" points="63.24,-201.55 54.78,-195.17 57.41,-205.43 63.24,-201.55"/>
</a>
</g>
</g>
<!-- Node5&#45;&gt;Node8 -->
<g id="edge7_Node000005_Node000008" class="edge">
<title>Node5&#45;&gt;Node8</title>
<g id="a_edge7_Node000005_Node000008"><a xlink:title=" ">
<path fill="none" stroke="#63b8ff" d="M94.79,-236.3C105.24,-223.02 126.06,-197 145,-176 195.51,-119.98 208.85,-106.46 264,-55 274.86,-44.87 287.51,-34.02 297.62,-25.57"/>
<polygon fill="#63b8ff" stroke="#63b8ff" points="299.95,-28.19 305.41,-19.11 295.48,-22.8 299.95,-28.19"/>
</a>
</g>
</g>
<!-- Node10 -->
<g id="Node000010" class="node">
<title>Node10</title>
<g id="a_Node000010"><a xlink:href="vector_8_h.html" target="_top" xlink:title=" ">
<polygon fill="white" stroke="#666666" points="496.5,-140 383.5,-140 383.5,-121 496.5,-121 496.5,-140"/>
<text text-anchor="middle" x="440" y="-128" font-family="Helvetica,sans-Serif" font-size="10.00">src/core/vs/vector.H</text>
</a>
</g>
</g>
<!-- Node9&#45;&gt;Node10 -->
<g id="edge9_Node000009_Node000010" class="edge">
<title>Node9&#45;&gt;Node10</title>
<g id="a_edge9_Node000009_Node000010"><a xlink:title=" ">
<path fill="none" stroke="#63b8ff" d="M440,-230.63C440,-210.21 440,-172.81 440,-150.24"/>
<polygon fill="#63b8ff" stroke="#63b8ff" points="443.5,-150.23 440,-140.23 436.5,-150.23 443.5,-150.23"/>
</a>
</g>
</g>
<!-- Node16 -->
<g id="Node000016" class="node">
<title>Node16</title>
<g id="a_Node000016"><a xlink:href="tensor_8_h.html" target="_top" xlink:title=" ">
<polygon fill="white" stroke="#666666" points="593.5,-195 480.5,-195 480.5,-176 593.5,-176 593.5,-195"/>
<text text-anchor="middle" x="537" y="-183" font-family="Helvetica,sans-Serif" font-size="10.00">src/core/vs/tensor.H</text>
</a>
</g>
</g>
<!-- Node9&#45;&gt;Node16 -->
<g id="edge17_Node000009_Node000016" class="edge">
<title>Node9&#45;&gt;Node16</title>
<g id="a_edge17_Node000009_Node000016"><a xlink:title=" ">
<path fill="none" stroke="#63b8ff" d="M463.48,-230.84C478.8,-221.6 498.71,-209.59 513.95,-200.4"/>
<polygon fill="#63b8ff" stroke="#63b8ff" points="515.99,-203.26 522.75,-195.09 512.38,-197.26 515.99,-203.26"/>
</a>
</g>
</g>
<!-- Node10&#45;&gt;Node8 -->
<g id="edge10_Node000010_Node000008" class="edge">
<title>Node10&#45;&gt;Node8</title>
<g id="a_edge10_Node000010_Node000008"><a xlink:title=" ">
<path fill="none" stroke="#63b8ff" d="M424.05,-120.93C409.76,-112.81 388.71,-99.69 373,-85 354.48,-67.68 337.41,-43.87 326.87,-27.87"/>
<polygon fill="#63b8ff" stroke="#63b8ff" points="329.55,-25.57 321.2,-19.05 323.66,-29.35 329.55,-25.57"/>
</a>
</g>
</g>
<!-- Node11 -->
<g id="Node000011" class="node">
<title>Node11</title>
<g id="a_Node000011"><a xlink:href="vstraits_8_h.html" target="_top" xlink:title=" ">
<polygon fill="white" stroke="#666666" points="635.5,-79.5 516.5,-79.5 516.5,-60.5 635.5,-60.5 635.5,-79.5"/>
<text text-anchor="middle" x="576" y="-67.5" font-family="Helvetica,sans-Serif" font-size="10.00">src/core/vs/vstraits.H</text>
</a>
</g>
</g>
<!-- Node10&#45;&gt;Node11 -->
<g id="edge11_Node000010_Node000011" class="edge">
<title>Node10&#45;&gt;Node11</title>
<g id="a_edge11_Node000010_Node000011"><a xlink:title=" ">
<path fill="none" stroke="#63b8ff" d="M459.78,-120.99C482.64,-111.16 520.49,-94.88 546.76,-83.58"/>
<polygon fill="#63b8ff" stroke="#63b8ff" points="548.4,-86.68 556.2,-79.52 545.63,-80.25 548.4,-86.68"/>
</a>
</g>
</g>
<!-- Node13 -->
<g id="Node000013" class="node">
<title>Node13</title>
<g id="a_Node000013"><a xlink:href="vector_i_8_h.html" target="_top" xlink:title=" ">
<polygon fill="white" stroke="#666666" points="498,-79.5 382,-79.5 382,-60.5 498,-60.5 498,-79.5"/>
<text text-anchor="middle" x="440" y="-67.5" font-family="Helvetica,sans-Serif" font-size="10.00">src/core/vs/vectorI.H</text>
</a>
</g>
</g>
<!-- Node10&#45;&gt;Node13 -->
<g id="edge13_Node000010_Node000013" class="edge">
<title>Node10&#45;&gt;Node13</title>
<g id="a_edge13_Node000010_Node000013"><a xlink:title=" ">
<path fill="none" stroke="#63b8ff" d="M435.04,-120.87C433.29,-112.75 432.82,-100.31 433.64,-89.89"/>
<polygon fill="#63b8ff" stroke="#63b8ff" points="437.15,-90.05 435.04,-79.67 430.22,-89.1 437.15,-90.05"/>
</a>
</g>
</g>
<!-- Node12 -->
<g id="Node000012" class="node">
<title>Node12</title>
<g id="a_Node000012"><a xlink:title=" ">
<polygon fill="#e0e0e0" stroke="#999999" points="598,-19 554,-19 554,0 598,0 598,-19"/>
<text text-anchor="middle" x="576" y="-7" font-family="Helvetica,sans-Serif" font-size="10.00">limits</text>
</a>
</g>
</g>
<!-- Node11&#45;&gt;Node12 -->
<g id="edge12_Node000011_Node000012" class="edge">
<title>Node11&#45;&gt;Node12</title>
<g id="a_edge12_Node000011_Node000012"><a xlink:title=" ">
<path fill="none" stroke="#63b8ff" d="M576,-60.37C576,-52.25 576,-39.81 576,-29.39"/>
<polygon fill="#63b8ff" stroke="#63b8ff" points="579.5,-29.17 576,-19.17 572.5,-29.17 579.5,-29.17"/>
</a>
</g>
</g>
<!-- Node13&#45;&gt;Node10 -->
<g id="edge16_Node000013_Node000010" class="edge">
<title>Node13&#45;&gt;Node10</title>
<g id="a_edge16_Node000013_Node000010"><a xlink:title=" ">
<path fill="none" stroke="#63b8ff" d="M444.96,-79.67C446.71,-87.8 447.18,-100.24 446.35,-110.66"/>
<polygon fill="#63b8ff" stroke="#63b8ff" points="442.85,-110.49 444.96,-120.87 449.78,-111.44 442.85,-110.49"/>
</a>
</g>
</g>
<!-- Node14 -->
<g id="Node000014" class="node">
<title>Node14</title>
<g id="a_Node000014"><a xlink:title=" ">
<polygon fill="#e0e0e0" stroke="#999999" points="468.5,-19 411.5,-19 411.5,0 468.5,0 468.5,-19"/>
<text text-anchor="middle" x="440" y="-7" font-family="Helvetica,sans-Serif" font-size="10.00">ostream</text>
</a>
</g>
</g>
<!-- Node13&#45;&gt;Node14 -->
<g id="edge14_Node000013_Node000014" class="edge">
<title>Node13&#45;&gt;Node14</title>
<g id="a_edge14_Node000013_Node000014"><a xlink:title=" ">
<path fill="none" stroke="#63b8ff" d="M440,-60.37C440,-52.25 440,-39.81 440,-29.39"/>
<polygon fill="#63b8ff" stroke="#63b8ff" points="443.5,-29.17 440,-19.17 436.5,-29.17 443.5,-29.17"/>
</a>
</g>
</g>
<!-- Node15 -->
<g id="Node000015" class="node">
<title>Node15</title>
<g id="a_Node000015"><a xlink:title=" ">
<polygon fill="#e0e0e0" stroke="#999999" points="687.5,-19 640.5,-19 640.5,0 687.5,0 687.5,-19"/>
<text text-anchor="middle" x="664" y="-7" font-family="Helvetica,sans-Serif" font-size="10.00">cmath</text>
</a>
</g>
</g>
<!-- Node13&#45;&gt;Node15 -->
<g id="edge15_Node000013_Node000015" class="edge">
<title>Node13&#45;&gt;Node15</title>
<g id="a_edge15_Node000013_Node000015"><a xlink:title=" ">
<path fill="none" stroke="#63b8ff" d="M472.57,-60.49C514.72,-49.49 587.79,-30.4 630.42,-19.27"/>
<polygon fill="#63b8ff" stroke="#63b8ff" points="631.52,-22.6 640.31,-16.69 629.75,-15.83 631.52,-22.6"/>
</a>
</g>
</g>
<!-- Node16&#45;&gt;Node8 -->
<g id="edge18_Node000016_Node000008" class="edge">
<title>Node16&#45;&gt;Node8</title>
<g id="a_edge18_Node000016_Node000008"><a xlink:title=" ">
<path fill="none" stroke="#63b8ff" d="M480.31,-180.14C446.44,-175.01 404.26,-163.92 374,-140 338.52,-111.95 324.09,-57.51 318.78,-28.97"/>
<polygon fill="#63b8ff" stroke="#63b8ff" points="322.23,-28.38 317.11,-19.1 315.32,-29.54 322.23,-28.38"/>
</a>
</g>
</g>
<!-- Node16&#45;&gt;Node10 -->
<g id="edge20_Node000016_Node000010" class="edge">
<title>Node16&#45;&gt;Node10</title>
<g id="a_edge20_Node000016_Node000010"><a xlink:title=" ">
<path fill="none" stroke="#63b8ff" d="M521.42,-175.98C506.23,-167.69 482.9,-154.94 465.1,-145.22"/>
<polygon fill="#63b8ff" stroke="#63b8ff" points="466.32,-141.89 455.87,-140.17 462.97,-148.04 466.32,-141.89"/>
</a>
</g>
</g>
<!-- Node16&#45;&gt;Node11 -->
<g id="edge19_Node000016_Node000011" class="edge">
<title>Node16&#45;&gt;Node11</title>
<g id="a_edge19_Node000016_Node000011"><a xlink:title=" ">
<path fill="none" stroke="#63b8ff" d="M539.93,-175.97C546.23,-157.65 561.16,-114.18 569.71,-89.31"/>
<polygon fill="#63b8ff" stroke="#63b8ff" points="573.09,-90.22 573.03,-79.63 566.47,-87.95 573.09,-90.22"/>
</a>
</g>
</g>
<!-- Node17 -->
<g id="Node000017" class="node">
<title>Node17</title>
<g id="a_Node000017"><a xlink:href="tensor_i_8_h.html" target="_top" xlink:title=" ">
<polygon fill="white" stroke="#666666" points="708,-140 592,-140 592,-121 708,-121 708,-140"/>
<text text-anchor="middle" x="650" y="-128" font-family="Helvetica,sans-Serif" font-size="10.00">src/core/vs/tensorI.H</text>
</a>
</g>
</g>
<!-- Node16&#45;&gt;Node17 -->
<g id="edge21_Node000016_Node000017" class="edge">
<title>Node16&#45;&gt;Node17</title>
<g id="a_edge21_Node000016_Node000017"><a xlink:title=" ">
<path fill="none" stroke="#63b8ff" d="M550.04,-175.98C566.48,-167.38 594.79,-153.99 617.18,-144.15"/>
<polygon fill="#63b8ff" stroke="#63b8ff" points="618.58,-147.36 626.37,-140.17 615.8,-140.93 618.58,-147.36"/>
</a>
</g>
</g>
<!-- Node17&#45;&gt;Node15 -->
<g id="edge22_Node000017_Node000015" class="edge">
<title>Node17&#45;&gt;Node15</title>
<g id="a_edge22_Node000017_Node000015"><a xlink:title=" ">
<path fill="none" stroke="#63b8ff" d="M651.01,-120.94C653.25,-101.91 658.68,-55.69 661.77,-29.47"/>
<polygon fill="#63b8ff" stroke="#63b8ff" points="665.27,-29.64 662.96,-19.3 658.32,-28.82 665.27,-29.64"/>
</a>
</g>
</g>
<!-- Node17&#45;&gt;Node16 -->
<g id="edge23_Node000017_Node000016" class="edge">
<title>Node17&#45;&gt;Node16</title>
<g id="a_edge23_Node000017_Node000016"><a xlink:title=" ">
<path fill="none" stroke="#63b8ff" d="M636.66,-140.17C620.15,-148.79 591.99,-162.11 569.72,-171.9"/>
<polygon fill="#63b8ff" stroke="#63b8ff" points="568.06,-168.8 560.27,-175.98 570.84,-175.23 568.06,-168.8"/>
</a>
</g>
</g>
<!-- Node18 -->
<g id="Node000018" class="node">
<title>Node18</title>
<g id="a_Node000018"><a xlink:href="trig__ops_8_h.html" target="_top" xlink:title=" ">
<polygon fill="white" stroke="#666666" points="782,-85 692,-85 692,-55 782,-55 782,-85"/>
<text text-anchor="start" x="700" y="-73" font-family="Helvetica,sans-Serif" font-size="10.00">src/utilities/trig</text>
<text text-anchor="middle" x="737" y="-62" font-family="Helvetica,sans-Serif" font-size="10.00">_ops.H</text>
</a>
</g>
</g>
<!-- Node17&#45;&gt;Node18 -->
<g id="edge24_Node000017_Node000018" class="edge">
<title>Node17&#45;&gt;Node18</title>
<g id="a_edge24_Node000017_Node000018"><a xlink:title=" ">
<path fill="none" stroke="#63b8ff" d="M662.84,-120.87C674.53,-113 692.25,-101.09 707.43,-90.89"/>
<polygon fill="#63b8ff" stroke="#63b8ff" points="709.66,-93.6 716.01,-85.11 705.76,-87.79 709.66,-93.6"/>
</a>
</g>
</g>
<!-- Node18&#45;&gt;Node8 -->
<g id="edge28_Node000018_Node000008" class="edge">
<title>Node18&#45;&gt;Node8</title>
<g id="a_edge28_Node000018_Node000008"><a xlink:title=" ">
<path fill="none" stroke="#63b8ff" d="M691.63,-61.94C676.78,-59.67 660.19,-57.18 645,-55 548.06,-41.07 434.87,-26.03 369.71,-17.49"/>
<polygon fill="#63b8ff" stroke="#63b8ff" points="370.04,-14 359.67,-16.17 369.13,-20.94 370.04,-14"/>
</a>
</g>
</g>
<!-- Node18&#45;&gt;Node15 -->
<g id="edge25_Node000018_Node000015" class="edge">
<title>Node18&#45;&gt;Node15</title>
<g id="a_edge25_Node000018_Node000015"><a xlink:title=" ">
<path fill="none" stroke="#63b8ff" d="M719.33,-54.84C708.3,-46 694.11,-34.63 682.87,-25.62"/>
<polygon fill="#63b8ff" stroke="#63b8ff" points="684.93,-22.79 674.94,-19.27 680.55,-28.25 684.93,-22.79"/>
</a>
</g>
</g>
<!-- Node19 -->
<g id="Node000019" class="node">
<title>Node19</title>
<g id="a_Node000019"><a xlink:title=" ">
<polygon fill="#e0e0e0" stroke="#999999" points="765.5,-19 706.5,-19 706.5,0 765.5,0 765.5,-19"/>
<text text-anchor="middle" x="736" y="-7" font-family="Helvetica,sans-Serif" font-size="10.00">numbers</text>
</a>
</g>
</g>
<!-- Node18&#45;&gt;Node19 -->
<g id="edge26_Node000018_Node000019" class="edge">
<title>Node18&#45;&gt;Node19</title>
<g id="a_edge26_Node000018_Node000019"><a xlink:title=" ">
<path fill="none" stroke="#63b8ff" d="M736.76,-54.84C736.63,-47.21 736.47,-37.7 736.32,-29.45"/>
<polygon fill="#63b8ff" stroke="#63b8ff" points="739.82,-29.2 736.15,-19.27 732.82,-29.32 739.82,-29.2"/>
</a>
</g>
</g>
<!-- Node18&#45;&gt;Node20 -->
<g id="edge27_Node000018_Node000020" class="edge">
<title>Node18&#45;&gt;Node20</title>
<g id="a_edge27_Node000018_Node000020"><a xlink:title=" ">
<path fill="none" stroke="#63b8ff" d="M759.51,-54.84C774.06,-45.68 792.93,-33.82 807.49,-24.66"/>
<polygon fill="#63b8ff" stroke="#63b8ff" points="809.74,-27.38 816.34,-19.09 806.01,-21.46 809.74,-27.38"/>
</a>
</g>
</g>
</g>
</svg>

<g id="navigator" transform="translate(0 0)" fill="#404254">
  <rect fill="#f2f5e9" fill-opacity="0.5" stroke="#606060" stroke-width=".5" x="0" y="0" width="60" height="60"/>
  <use id="zoomplus" xlink:href="#zoomPlus" x="17" y="9" onmousedown="handleZoom(evt,'in')"/>
  <use id="zoomminus" xlink:href="#zoomMin" x="42" y="9" onmousedown="handleZoom(evt,'out')"/>
  <use id="reset" xlink:href="#resetDef" x="30" y="36" onmousedown="handleReset()"/>
   <use id="arrowup" xlink:href="#arrowUp" x="0" y="0" onmousedown="handlePan(0,-1)"/>
  <use id="arrowright" xlink:href="#arrowRight" x="0" y="0" onmousedown="handlePan(1,0)"/>
  <use id="arrowdown" xlink:href="#arrowDown" x="0" y="0" onmousedown="handlePan(0,1)"/>
  <use id="arrowleft" xlink:href="#arrowLeft" x="0" y="0" onmousedown="handlePan(-1,0)"/>
</g>
<svg viewBox="0 0 15 15" width="100%" height="30px" preserveAspectRatio="xMaxYMin meet">
 <g id="arrow_out" transform="scale(0.3 0.3)">
  <a xlink:href="_sphere_8_h__incl_org.svg" target="_base">
   <rect id="button" ry="5" rx="5" y="6" x="6" height="38" width="38"
        fill="#f2f5e9" fill-opacity="0.5" stroke="#606060" stroke-width="1.0"/>
   <path id="arrow"
     d="M 11.500037,31.436501 C 11.940474,20.09759 22.043105,11.32322 32.158766,21.979434 L 37.068811,17.246167 C 37.068811,17.246167 37.088388,32 37.088388,32 L 22.160133,31.978069 C 22.160133,31.978069 26.997745,27.140456 26.997745,27.140456 C 18.528582,18.264221 13.291696,25.230495 11.500037,31.436501 z"
     style="fill:#404040;"/>
  </a>
 </g>
</svg>

<style type='text/css'>
<![CDATA[
[data-mouse-over-selected='false'] { opacity: 0.7; }
[data-mouse-over-selected='true']  { opacity: 1.0; }
]]>
</style>
<script type="application/ecmascript"><![CDATA[
document.addEventListener('DOMContentLoaded', (event) => {
  highlightEdges();
  highlightAdjacentNodes();
});
]]></script>
</svg>
