<?xml version="1.0" encoding="UTF-8" standalone="no"?>
<!DOCTYPE svg PUBLIC "-//W3C//DTD SVG 1.1//EN"
 "http://www.w3.org/Graphics/SVG/1.1/DTD/svg11.dtd">
<!-- Generated by graphviz version 2.43.0 (0)
 -->
<!-- Title: /home/runner/work/amr&#45;wind/amr&#45;wind/src/ocean_waves/relaxation_zones/StokesWaves.H Pages: 1 -->
<!--zoomable 489 -->

<svg id="main" version="1.1" xmlns="http://www.w3.org/2000/svg" xmlns:xlink="http://www.w3.org/1999/xlink" xml:space="preserve" onload="init(evt)">

<style type="text/css"><![CDATA[
.node, .edge {opacity: 0.7;}
.node.selected, .edge.selected {opacity: 1;}
.edge:hover path { stroke: red; }
.edge:hover polygon { stroke: red; fill: red; }
]]></style>

<defs>
  <circle id="rim" cx="0" cy="0" r="7"/>
  <circle id="rim2" cx="0" cy="0" r="3.5"/>
  <g id="zoomPlus">
    <use xlink:href="#rim" fill="#404040"><set attributeName="fill" to="#808080" begin="zoomplus.mouseover" end="zoomplus.mouseout"/></use>
    <path d="M-4,0h8M0,-4v8" fill="none" stroke="white" stroke-width="1.5" pointer-events="none"/>
  </g>
  <g id="zoomMin">
    <use xlink:href="#rim" fill="#404040"><set attributeName="fill" to="#808080" begin="zoomminus.mouseover" end="zoomminus.mouseout"/></use>
    <path d="M-4,0h8" fill="none" stroke="white" stroke-width="1.5" pointer-events="none"/>
  </g>
  <g id="arrowUp" transform="translate(30 24)">
    <use xlink:href="#rim"/>
    <path pointer-events="none" fill="none" stroke="white" stroke-width="1.5" d="M0,-3.0v7 M-2.5,-0.5L0,-3.0L2.5,-0.5"/>
  </g>
  <g id="arrowRight" transform="rotate(90) translate(36 -43)">
    <use xlink:href="#rim"/>
    <path pointer-events="none" fill="none" stroke="white" stroke-width="1.5" d="M0,-3.0v7 M-2.5,-0.5L0,-3.0L2.5,-0.5"/>
  </g>
  <g id="arrowDown" transform="rotate(180) translate(-30 -48)">
    <use xlink:href="#rim"/>
    <path pointer-events="none" fill="none" stroke="white" stroke-width="1.5" d="M0,-3.0v7 M-2.5,-0.5L0,-3.0L2.5,-0.5"/>
  </g>
  <g id="arrowLeft" transform="rotate(270) translate(-36 17)">
    <use xlink:href="#rim"/>
    <path pointer-events="none" fill="none" stroke="white" stroke-width="1.5" d="M0,-3.0v7 M-2.5,-0.5L0,-3.0L2.5,-0.5"/>
  </g>
  <g id="resetDef">
    <use xlink:href="#rim2" fill="#404040"><set attributeName="fill" to="#808080" begin="reset.mouseover" end="reset.mouseout"/></use>
  </g>
</defs>
<script type="application/ecmascript">
var viewWidth = 806;
var viewHeight = 489;
var sectionId = 'dynsection-0';
</script>
<script type="application/ecmascript" xlink:href="svg.min.js"/>
<svg id="graph" class="graph">
<g id="viewport">
<title>/home/runner/work/amr&#45;wind/amr&#45;wind/src/ocean_waves/relaxation_zones/StokesWaves.H</title>
<!-- Node1 -->
<g id="Node000001" class="node">
<title>Node1</title>
<g id="a_Node000001"><a xlink:title=" ">
<polygon fill="#999999" stroke="#666666" points="717.5,-481 574.5,-481 574.5,-429 717.5,-429 717.5,-481"/>
<text text-anchor="start" x="582.5" y="-469" font-family="Helvetica,sans-Serif" font-size="10.00">/home/runner/work/amr</text>
<text text-anchor="start" x="582.5" y="-458" font-family="Helvetica,sans-Serif" font-size="10.00">&#45;wind/amr&#45;wind/src/ocean</text>
<text text-anchor="start" x="582.5" y="-447" font-family="Helvetica,sans-Serif" font-size="10.00">_waves/relaxation_zones</text>
<text text-anchor="middle" x="646" y="-436" font-family="Helvetica,sans-Serif" font-size="10.00">/StokesWaves.H</text>
</a>
</g>
</g>
<!-- Node2 -->
<g id="Node000002" class="node">
<title>Node2</title>
<g id="a_Node000002"><a xlink:href="_relaxation_zones_8_h.html" target="_top" xlink:title=" ">
<polygon fill="white" stroke="#666666" points="670,-393 518,-393 518,-363 670,-363 670,-393"/>
<text text-anchor="start" x="526" y="-381" font-family="Helvetica,sans-Serif" font-size="10.00">src/ocean_waves/relaxation</text>
<text text-anchor="middle" x="594" y="-370" font-family="Helvetica,sans-Serif" font-size="10.00">_zones/RelaxationZones.H</text>
</a>
</g>
</g>
<!-- Node1&#45;&gt;Node2 -->
<g id="edge1_Node000001_Node000002" class="edge">
<title>Node1&#45;&gt;Node2</title>
<g id="a_edge1_Node000001_Node000002"><a xlink:title=" ">
<path fill="none" stroke="#63b8ff" d="M628.4,-428.61C622.36,-419.9 615.65,-410.22 609.77,-401.74"/>
<polygon fill="#63b8ff" stroke="#63b8ff" points="612.58,-399.65 604,-393.43 606.82,-403.64 612.58,-399.65"/>
</a>
</g>
</g>
<!-- Node17 -->
<g id="Node000017" class="node">
<title>Node17</title>
<g id="a_Node000017"><a xlink:title=" ">
<polygon fill="#e0e0e0" stroke="#999999" points="798,-19 706,-19 706,0 798,0 798,-19"/>
<text text-anchor="middle" x="752" y="-7" font-family="Helvetica,sans-Serif" font-size="10.00">AMReX_REAL.H</text>
</a>
</g>
</g>
<!-- Node1&#45;&gt;Node17 -->
<g id="edge30_Node000001_Node000017" class="edge">
<title>Node1&#45;&gt;Node17</title>
<g id="a_edge30_Node000001_Node000017"><a xlink:title=" ">
<path fill="none" stroke="#63b8ff" d="M689.02,-428.83C724.84,-404.29 770,-363.36 770,-313 770,-313 770,-313 770,-129.5 770,-93.59 761.89,-52.26 756.55,-28.97"/>
<polygon fill="#63b8ff" stroke="#63b8ff" points="759.92,-28.01 754.21,-19.09 753.11,-29.63 759.92,-28.01"/>
</a>
</g>
</g>
<!-- Node3 -->
<g id="Node000003" class="node">
<title>Node3</title>
<g id="a_Node000003"><a xlink:href="_ocean_waves_types_8_h.html" target="_top" xlink:title=" ">
<polygon fill="white" stroke="#666666" points="283,-327 117,-327 117,-297 283,-297 283,-327"/>
<text text-anchor="start" x="125" y="-315" font-family="Helvetica,sans-Serif" font-size="10.00">src/ocean_waves/OceanWaves</text>
<text text-anchor="middle" x="200" y="-304" font-family="Helvetica,sans-Serif" font-size="10.00">Types.H</text>
</a>
</g>
</g>
<!-- Node2&#45;&gt;Node3 -->
<g id="edge2_Node000002_Node000003" class="edge">
<title>Node2&#45;&gt;Node3</title>
<g id="a_edge2_Node000002_Node000003"><a xlink:title=" ">
<path fill="none" stroke="#63b8ff" d="M517.57,-364.58C453.36,-354.16 361.4,-339.22 292.95,-328.1"/>
<polygon fill="#63b8ff" stroke="#63b8ff" points="293.46,-324.64 283.03,-326.49 292.34,-331.54 293.46,-324.64"/>
</a>
</g>
</g>
<!-- Node5 -->
<g id="Node000005" class="node">
<title>Node5</title>
<g id="a_Node000005"><a xlink:href="vector__space_8_h.html" target="_top" xlink:title=" ">
<polygon fill="white" stroke="#666666" points="477.5,-261 374.5,-261 374.5,-231 477.5,-231 477.5,-261"/>
<text text-anchor="start" x="382.5" y="-249" font-family="Helvetica,sans-Serif" font-size="10.00">src/core/vs/vector</text>
<text text-anchor="middle" x="426" y="-238" font-family="Helvetica,sans-Serif" font-size="10.00">_space.H</text>
</a>
</g>
</g>
<!-- Node2&#45;&gt;Node5 -->
<g id="edge27_Node000002_Node000005" class="edge">
<title>Node2&#45;&gt;Node5</title>
<g id="a_edge27_Node000002_Node000005"><a xlink:title=" ">
<path fill="none" stroke="#63b8ff" d="M575.7,-362.84C545.91,-339.79 486.8,-294.05 452.45,-267.46"/>
<polygon fill="#63b8ff" stroke="#63b8ff" points="454.33,-264.49 444.28,-261.14 450.04,-270.03 454.33,-264.49"/>
</a>
</g>
</g>
<!-- Node2&#45;&gt;Node17 -->
<g id="edge29_Node000002_Node000017" class="edge">
<title>Node2&#45;&gt;Node17</title>
<g id="a_edge29_Node000002_Node000017"><a xlink:title=" ">
<path fill="none" stroke="#63b8ff" d="M627.76,-362.99C668.61,-343.52 732,-304.11 732,-247 732,-247 732,-247 732,-129.5 732,-93.49 741.02,-52.19 746.94,-28.94"/>
<polygon fill="#63b8ff" stroke="#63b8ff" points="750.38,-29.64 749.55,-19.08 743.61,-27.85 750.38,-29.64"/>
</a>
</g>
</g>
<!-- Node19 -->
<g id="Node000019" class="node">
<title>Node19</title>
<g id="a_Node000019"><a xlink:title=" ">
<polygon fill="#e0e0e0" stroke="#999999" points="616,-321.5 572,-321.5 572,-302.5 616,-302.5 616,-321.5"/>
<text text-anchor="middle" x="594" y="-309.5" font-family="Helvetica,sans-Serif" font-size="10.00">string</text>
</a>
</g>
</g>
<!-- Node2&#45;&gt;Node19 -->
<g id="edge28_Node000002_Node000019" class="edge">
<title>Node2&#45;&gt;Node19</title>
<g id="a_edge28_Node000002_Node000019"><a xlink:title=" ">
<path fill="none" stroke="#63b8ff" d="M594,-362.8C594,-353.7 594,-341.79 594,-331.9"/>
<polygon fill="#63b8ff" stroke="#63b8ff" points="597.5,-331.84 594,-321.84 590.5,-331.84 597.5,-331.84"/>
</a>
</g>
</g>
<!-- Node4 -->
<g id="Node000004" class="node">
<title>Node4</title>
<g id="a_Node000004"><a xlink:title=" ">
<polygon fill="#e0e0e0" stroke="#999999" points="171.5,-255.5 126.5,-255.5 126.5,-236.5 171.5,-236.5 171.5,-255.5"/>
<text text-anchor="middle" x="149" y="-243.5" font-family="Helvetica,sans-Serif" font-size="10.00">utility</text>
</a>
</g>
</g>
<!-- Node3&#45;&gt;Node4 -->
<g id="edge3_Node000003_Node000004" class="edge">
<title>Node3&#45;&gt;Node4</title>
<g id="a_edge3_Node000003_Node000004"><a xlink:title=" ">
<path fill="none" stroke="#63b8ff" d="M188.68,-296.8C180.89,-287.01 170.5,-273.98 162.31,-263.7"/>
<polygon fill="#63b8ff" stroke="#63b8ff" points="165.02,-261.48 156.05,-255.84 159.54,-265.85 165.02,-261.48"/>
</a>
</g>
</g>
<!-- Node3&#45;&gt;Node5 -->
<g id="edge4_Node000003_Node000005" class="edge">
<title>Node3&#45;&gt;Node5</title>
<g id="a_edge4_Node000003_Node000005"><a xlink:title=" ">
<path fill="none" stroke="#63b8ff" d="M249.6,-296.95C284.04,-287.2 330.1,-274.16 366.52,-263.84"/>
<polygon fill="#63b8ff" stroke="#63b8ff" points="367.85,-267.1 376.52,-261.01 365.94,-260.37 367.85,-267.1"/>
</a>
</g>
</g>
<!-- Node7 -->
<g id="Node000007" class="node">
<title>Node7</title>
<g id="a_Node000007"><a xlink:title=" ">
<polygon fill="#e0e0e0" stroke="#999999" points="298.5,-19 211.5,-19 211.5,0 298.5,0 298.5,-19"/>
<text text-anchor="middle" x="255" y="-7" font-family="Helvetica,sans-Serif" font-size="10.00">AMReX_Gpu.H</text>
</a>
</g>
</g>
<!-- Node3&#45;&gt;Node7 -->
<g id="edge25_Node000003_Node000007" class="edge">
<title>Node3&#45;&gt;Node7</title>
<g id="a_edge25_Node000003_Node000007"><a xlink:title=" ">
<path fill="none" stroke="#63b8ff" d="M200,-296.81C200,-273.7 200,-226.49 200,-186.5 200,-186.5 200,-186.5 200,-129.5 200,-89.89 225.42,-49.14 241.69,-27.11"/>
<polygon fill="#63b8ff" stroke="#63b8ff" points="244.51,-29.19 247.81,-19.12 238.95,-24.93 244.51,-29.19"/>
</a>
</g>
</g>
<!-- Node18 -->
<g id="Node000018" class="node">
<title>Node18</title>
<g id="a_Node000018"><a xlink:title=" ">
<polygon fill="#e0e0e0" stroke="#999999" points="108,-255.5 0,-255.5 0,-236.5 108,-236.5 108,-255.5"/>
<text text-anchor="middle" x="54" y="-243.5" font-family="Helvetica,sans-Serif" font-size="10.00">AMReX_RealBox.H</text>
</a>
</g>
</g>
<!-- Node3&#45;&gt;Node18 -->
<g id="edge26_Node000003_Node000018" class="edge">
<title>Node3&#45;&gt;Node18</title>
<g id="a_edge26_Node000003_Node000018"><a xlink:title=" ">
<path fill="none" stroke="#63b8ff" d="M167.96,-296.95C142.58,-285.83 107.44,-270.42 82.91,-259.67"/>
<polygon fill="#63b8ff" stroke="#63b8ff" points="83.99,-256.33 73.43,-255.52 81.18,-262.74 83.99,-256.33"/>
</a>
</g>
</g>
<!-- Node6 -->
<g id="Node000006" class="node">
<title>Node6</title>
<g id="a_Node000006"><a xlink:href="vector_8_h.html" target="_top" xlink:title=" ">
<polygon fill="white" stroke="#666666" points="421.5,-140 308.5,-140 308.5,-121 421.5,-121 421.5,-140"/>
<text text-anchor="middle" x="365" y="-128" font-family="Helvetica,sans-Serif" font-size="10.00">src/core/vs/vector.H</text>
</a>
</g>
</g>
<!-- Node5&#45;&gt;Node6 -->
<g id="edge5_Node000005_Node000006" class="edge">
<title>Node5&#45;&gt;Node6</title>
<g id="a_edge5_Node000005_Node000006"><a xlink:title=" ">
<path fill="none" stroke="#63b8ff" d="M418.27,-230.63C407.15,-209.93 386.65,-171.78 374.58,-149.32"/>
<polygon fill="#63b8ff" stroke="#63b8ff" points="377.51,-147.38 369.69,-140.23 371.34,-150.69 377.51,-147.38"/>
</a>
</g>
</g>
<!-- Node13 -->
<g id="Node000013" class="node">
<title>Node13</title>
<g id="a_Node000013"><a xlink:href="tensor_8_h.html" target="_top" xlink:title=" ">
<polygon fill="white" stroke="#666666" points="537.5,-195 424.5,-195 424.5,-176 537.5,-176 537.5,-195"/>
<text text-anchor="middle" x="481" y="-183" font-family="Helvetica,sans-Serif" font-size="10.00">src/core/vs/tensor.H</text>
</a>
</g>
</g>
<!-- Node5&#45;&gt;Node13 -->
<g id="edge13_Node000005_Node000013" class="edge">
<title>Node5&#45;&gt;Node13</title>
<g id="a_edge13_Node000005_Node000013"><a xlink:title=" ">
<path fill="none" stroke="#63b8ff" d="M439.31,-230.84C447.3,-222.35 457.48,-211.52 465.78,-202.69"/>
<polygon fill="#63b8ff" stroke="#63b8ff" points="468.46,-204.95 472.76,-195.27 463.36,-200.15 468.46,-204.95"/>
</a>
</g>
</g>
<!-- Node6&#45;&gt;Node7 -->
<g id="edge6_Node000006_Node000007" class="edge">
<title>Node6&#45;&gt;Node7</title>
<g id="a_edge6_Node000006_Node000007"><a xlink:title=" ">
<path fill="none" stroke="#63b8ff" d="M346.19,-120.92C330.92,-113.22 309.6,-100.72 295,-85 279.59,-68.41 268.23,-44.77 261.63,-28.6"/>
<polygon fill="#63b8ff" stroke="#63b8ff" points="264.87,-27.26 257.99,-19.2 258.34,-29.79 264.87,-27.26"/>
</a>
</g>
</g>
<!-- Node8 -->
<g id="Node000008" class="node">
<title>Node8</title>
<g id="a_Node000008"><a xlink:href="vstraits_8_h.html" target="_top" xlink:title=" ">
<polygon fill="white" stroke="#666666" points="557.5,-79.5 438.5,-79.5 438.5,-60.5 557.5,-60.5 557.5,-79.5"/>
<text text-anchor="middle" x="498" y="-67.5" font-family="Helvetica,sans-Serif" font-size="10.00">src/core/vs/vstraits.H</text>
</a>
</g>
</g>
<!-- Node6&#45;&gt;Node8 -->
<g id="edge7_Node000006_Node000008" class="edge">
<title>Node6&#45;&gt;Node8</title>
<g id="a_edge7_Node000006_Node000008"><a xlink:title=" ">
<path fill="none" stroke="#63b8ff" d="M384.34,-120.99C406.7,-111.16 443.71,-94.88 469.4,-83.58"/>
<polygon fill="#63b8ff" stroke="#63b8ff" points="470.89,-86.75 478.64,-79.52 468.07,-80.34 470.89,-86.75"/>
</a>
</g>
</g>
<!-- Node10 -->
<g id="Node000010" class="node">
<title>Node10</title>
<g id="a_Node000010"><a xlink:href="vector_i_8_h.html" target="_top" xlink:title=" ">
<polygon fill="white" stroke="#666666" points="420,-79.5 304,-79.5 304,-60.5 420,-60.5 420,-79.5"/>
<text text-anchor="middle" x="362" y="-67.5" font-family="Helvetica,sans-Serif" font-size="10.00">src/core/vs/vectorI.H</text>
</a>
</g>
</g>
<!-- Node6&#45;&gt;Node10 -->
<g id="edge9_Node000006_Node000010" class="edge">
<title>Node6&#45;&gt;Node10</title>
<g id="a_edge9_Node000006_Node000010"><a xlink:title=" ">
<path fill="none" stroke="#63b8ff" d="M359.6,-120.87C357.43,-112.75 356.32,-100.31 356.61,-89.89"/>
<polygon fill="#63b8ff" stroke="#63b8ff" points="360.12,-89.93 357.48,-79.67 353.14,-89.33 360.12,-89.93"/>
</a>
</g>
</g>
<!-- Node9 -->
<g id="Node000009" class="node">
<title>Node9</title>
<g id="a_Node000009"><a xlink:title=" ">
<polygon fill="#e0e0e0" stroke="#999999" points="520,-19 476,-19 476,0 520,0 520,-19"/>
<text text-anchor="middle" x="498" y="-7" font-family="Helvetica,sans-Serif" font-size="10.00">limits</text>
</a>
</g>
</g>
<!-- Node8&#45;&gt;Node9 -->
<g id="edge8_Node000008_Node000009" class="edge">
<title>Node8&#45;&gt;Node9</title>
<g id="a_edge8_Node000008_Node000009"><a xlink:title=" ">
<path fill="none" stroke="#63b8ff" d="M498,-60.37C498,-52.25 498,-39.81 498,-29.39"/>
<polygon fill="#63b8ff" stroke="#63b8ff" points="501.5,-29.17 498,-19.17 494.5,-29.17 501.5,-29.17"/>
</a>
</g>
</g>
<!-- Node10&#45;&gt;Node6 -->
<g id="edge12_Node000010_Node000006" class="edge">
<title>Node10&#45;&gt;Node6</title>
<g id="a_edge12_Node000010_Node000006"><a xlink:title=" ">
<path fill="none" stroke="#63b8ff" d="M367.41,-79.67C369.58,-87.8 370.68,-100.24 370.39,-110.66"/>
<polygon fill="#63b8ff" stroke="#63b8ff" points="366.88,-110.61 369.51,-120.87 373.85,-111.2 366.88,-110.61"/>
</a>
</g>
</g>
<!-- Node11 -->
<g id="Node000011" class="node">
<title>Node11</title>
<g id="a_Node000011"><a xlink:title=" ">
<polygon fill="#e0e0e0" stroke="#999999" points="390.5,-19 333.5,-19 333.5,0 390.5,0 390.5,-19"/>
<text text-anchor="middle" x="362" y="-7" font-family="Helvetica,sans-Serif" font-size="10.00">ostream</text>
</a>
</g>
</g>
<!-- Node10&#45;&gt;Node11 -->
<g id="edge10_Node000010_Node000011" class="edge">
<title>Node10&#45;&gt;Node11</title>
<g id="a_edge10_Node000010_Node000011"><a xlink:title=" ">
<path fill="none" stroke="#63b8ff" d="M362,-60.37C362,-52.25 362,-39.81 362,-29.39"/>
<polygon fill="#63b8ff" stroke="#63b8ff" points="365.5,-29.17 362,-19.17 358.5,-29.17 365.5,-29.17"/>
</a>
</g>
</g>
<!-- Node12 -->
<g id="Node000012" class="node">
<title>Node12</title>
<g id="a_Node000012"><a xlink:title=" ">
<polygon fill="#e0e0e0" stroke="#999999" points="609.5,-19 562.5,-19 562.5,0 609.5,0 609.5,-19"/>
<text text-anchor="middle" x="586" y="-7" font-family="Helvetica,sans-Serif" font-size="10.00">cmath</text>
</a>
</g>
</g>
<!-- Node10&#45;&gt;Node12 -->
<g id="edge11_Node000010_Node000012" class="edge">
<title>Node10&#45;&gt;Node12</title>
<g id="a_edge11_Node000010_Node000012"><a xlink:title=" ">
<path fill="none" stroke="#63b8ff" d="M394.57,-60.49C436.72,-49.49 509.79,-30.4 552.42,-19.27"/>
<polygon fill="#63b8ff" stroke="#63b8ff" points="553.52,-22.6 562.31,-16.69 551.75,-15.83 553.52,-22.6"/>
</a>
</g>
</g>
<!-- Node13&#45;&gt;Node6 -->
<g id="edge16_Node000013_Node000006" class="edge">
<title>Node13&#45;&gt;Node6</title>
<g id="a_edge16_Node000013_Node000006"><a xlink:title=" ">
<path fill="none" stroke="#63b8ff" d="M462.36,-175.98C443.7,-167.46 414.75,-154.23 393.26,-144.41"/>
<polygon fill="#63b8ff" stroke="#63b8ff" points="394.53,-141.14 383.98,-140.17 391.62,-147.51 394.53,-141.14"/>
</a>
</g>
</g>
<!-- Node13&#45;&gt;Node7 -->
<g id="edge14_Node000013_Node000007" class="edge">
<title>Node13&#45;&gt;Node7</title>
<g id="a_edge14_Node000013_Node000007"><a xlink:title=" ">
<path fill="none" stroke="#63b8ff" d="M424.2,-182.9C385.23,-179.09 334.37,-168.43 299,-140 265.17,-112.8 257.22,-58.41 255.44,-29.53"/>
<polygon fill="#63b8ff" stroke="#63b8ff" points="258.92,-29.03 255,-19.19 251.93,-29.33 258.92,-29.03"/>
</a>
</g>
</g>
<!-- Node13&#45;&gt;Node8 -->
<g id="edge15_Node000013_Node000008" class="edge">
<title>Node13&#45;&gt;Node8</title>
<g id="a_edge15_Node000013_Node000008"><a xlink:title=" ">
<path fill="none" stroke="#63b8ff" d="M482.28,-175.97C485.01,-157.73 491.47,-114.57 495.21,-89.64"/>
<polygon fill="#63b8ff" stroke="#63b8ff" points="498.69,-90.04 496.71,-79.63 491.76,-89 498.69,-90.04"/>
</a>
</g>
</g>
<!-- Node14 -->
<g id="Node000014" class="node">
<title>Node14</title>
<g id="a_Node000014"><a xlink:href="tensor_i_8_h.html" target="_top" xlink:title=" ">
<polygon fill="white" stroke="#666666" points="637,-140 521,-140 521,-121 637,-121 637,-140"/>
<text text-anchor="middle" x="579" y="-128" font-family="Helvetica,sans-Serif" font-size="10.00">src/core/vs/tensorI.H</text>
</a>
</g>
</g>
<!-- Node13&#45;&gt;Node14 -->
<g id="edge17_Node000013_Node000014" class="edge">
<title>Node13&#45;&gt;Node14</title>
<g id="a_edge17_Node000013_Node000014"><a xlink:title=" ">
<path fill="none" stroke="#63b8ff" d="M491.63,-175.98C505.39,-167.54 529.28,-154.47 548.71,-144.68"/>
<polygon fill="#63b8ff" stroke="#63b8ff" points="550.41,-147.74 557.82,-140.17 547.3,-141.47 550.41,-147.74"/>
</a>
</g>
</g>
<!-- Node14&#45;&gt;Node12 -->
<g id="edge18_Node000014_Node000012" class="edge">
<title>Node14&#45;&gt;Node12</title>
<g id="a_edge18_Node000014_Node000012"><a xlink:title=" ">
<path fill="none" stroke="#63b8ff" d="M579.5,-120.94C580.62,-101.91 583.34,-55.69 584.88,-29.47"/>
<polygon fill="#63b8ff" stroke="#63b8ff" points="588.39,-29.49 585.48,-19.3 581.4,-29.08 588.39,-29.49"/>
</a>
</g>
</g>
<!-- Node14&#45;&gt;Node13 -->
<g id="edge19_Node000014_Node000013" class="edge">
<title>Node14&#45;&gt;Node13</title>
<g id="a_edge19_Node000014_Node000013"><a xlink:title=" ">
<path fill="none" stroke="#63b8ff" d="M568.12,-140.17C554.23,-148.68 530.31,-161.75 510.94,-171.5"/>
<polygon fill="#63b8ff" stroke="#63b8ff" points="509.28,-168.42 501.86,-175.98 512.38,-174.69 509.28,-168.42"/>
</a>
</g>
</g>
<!-- Node15 -->
<g id="Node000015" class="node">
<title>Node15</title>
<g id="a_Node000015"><a xlink:href="trig__ops_8_h.html" target="_top" xlink:title=" ">
<polygon fill="white" stroke="#666666" points="704,-85 614,-85 614,-55 704,-55 704,-85"/>
<text text-anchor="start" x="622" y="-73" font-family="Helvetica,sans-Serif" font-size="10.00">src/utilities/trig</text>
<text text-anchor="middle" x="659" y="-62" font-family="Helvetica,sans-Serif" font-size="10.00">_ops.H</text>
</a>
</g>
</g>
<!-- Node14&#45;&gt;Node15 -->
<g id="edge20_Node000014_Node000015" class="edge">
<title>Node14&#45;&gt;Node15</title>
<g id="a_edge20_Node000014_Node000015"><a xlink:title=" ">
<path fill="none" stroke="#63b8ff" d="M590.8,-120.87C601.46,-113.08 617.54,-101.32 631.41,-91.17"/>
<polygon fill="#63b8ff" stroke="#63b8ff" points="633.69,-93.84 639.7,-85.11 629.56,-88.19 633.69,-93.84"/>
</a>
</g>
</g>
<!-- Node15&#45;&gt;Node7 -->
<g id="edge24_Node000015_Node000007" class="edge">
<title>Node15&#45;&gt;Node7</title>
<g id="a_edge24_Node000015_Node000007"><a xlink:title=" ">
<path fill="none" stroke="#63b8ff" d="M613.62,-62.01C598.77,-59.74 582.18,-57.24 567,-55 476.37,-41.64 370.83,-26.72 308.65,-18"/>
<polygon fill="#63b8ff" stroke="#63b8ff" points="309.07,-14.52 298.68,-16.6 308.1,-21.45 309.07,-14.52"/>
</a>
</g>
</g>
<!-- Node15&#45;&gt;Node12 -->
<g id="edge21_Node000015_Node000012" class="edge">
<title>Node15&#45;&gt;Node12</title>
<g id="a_edge21_Node000015_Node000012"><a xlink:title=" ">
<path fill="none" stroke="#63b8ff" d="M641.33,-54.84C630.3,-46 616.11,-34.63 604.87,-25.62"/>
<polygon fill="#63b8ff" stroke="#63b8ff" points="606.93,-22.79 596.94,-19.27 602.55,-28.25 606.93,-22.79"/>
</a>
</g>
</g>
<!-- Node16 -->
<g id="Node000016" class="node">
<title>Node16</title>
<g id="a_Node000016"><a xlink:title=" ">
<polygon fill="#e0e0e0" stroke="#999999" points="687.5,-19 628.5,-19 628.5,0 687.5,0 687.5,-19"/>
<text text-anchor="middle" x="658" y="-7" font-family="Helvetica,sans-Serif" font-size="10.00">numbers</text>
</a>
</g>
</g>
<!-- Node15&#45;&gt;Node16 -->
<g id="edge22_Node000015_Node000016" class="edge">
<title>Node15&#45;&gt;Node16</title>
<g id="a_edge22_Node000015_Node000016"><a xlink:title=" ">
<path fill="none" stroke="#63b8ff" d="M658.76,-54.84C658.63,-47.21 658.47,-37.7 658.32,-29.45"/>
<polygon fill="#63b8ff" stroke="#63b8ff" points="661.82,-29.2 658.15,-19.27 654.82,-29.32 661.82,-29.2"/>
</a>
</g>
</g>
<!-- Node15&#45;&gt;Node17 -->
<g id="edge23_Node000015_Node000017" class="edge">
<title>Node15&#45;&gt;Node17</title>
<g id="a_edge23_Node000015_Node000017"><a xlink:title=" ">
<path fill="none" stroke="#63b8ff" d="M681.51,-54.84C696.06,-45.68 714.93,-33.82 729.49,-24.66"/>
<polygon fill="#63b8ff" stroke="#63b8ff" points="731.74,-27.38 738.34,-19.09 728.01,-21.46 731.74,-27.38"/>
</a>
</g>
</g>
</g>
</svg>

<g id="navigator" transform="translate(0 0)" fill="#404254">
  <rect fill="#f2f5e9" fill-opacity="0.5" stroke="#606060" stroke-width=".5" x="0" y="0" width="60" height="60"/>
  <use id="zoomplus" xlink:href="#zoomPlus" x="17" y="9" onmousedown="handleZoom(evt,'in')"/>
  <use id="zoomminus" xlink:href="#zoomMin" x="42" y="9" onmousedown="handleZoom(evt,'out')"/>
  <use id="reset" xlink:href="#resetDef" x="30" y="36" onmousedown="handleReset()"/>
   <use id="arrowup" xlink:href="#arrowUp" x="0" y="0" onmousedown="handlePan(0,-1)"/>
  <use id="arrowright" xlink:href="#arrowRight" x="0" y="0" onmousedown="handlePan(1,0)"/>
  <use id="arrowdown" xlink:href="#arrowDown" x="0" y="0" onmousedown="handlePan(0,1)"/>
  <use id="arrowleft" xlink:href="#arrowLeft" x="0" y="0" onmousedown="handlePan(-1,0)"/>
</g>
<svg viewBox="0 0 15 15" width="100%" height="30px" preserveAspectRatio="xMaxYMin meet">
 <g id="arrow_out" transform="scale(0.3 0.3)">
  <a xlink:href="_stokes_waves_8_h__incl_org.svg" target="_base">
   <rect id="button" ry="5" rx="5" y="6" x="6" height="38" width="38"
        fill="#f2f5e9" fill-opacity="0.5" stroke="#606060" stroke-width="1.0"/>
   <path id="arrow"
     d="M 11.500037,31.436501 C 11.940474,20.09759 22.043105,11.32322 32.158766,21.979434 L 37.068811,17.246167 C 37.068811,17.246167 37.088388,32 37.088388,32 L 22.160133,31.978069 C 22.160133,31.978069 26.997745,27.140456 26.997745,27.140456 C 18.528582,18.264221 13.291696,25.230495 11.500037,31.436501 z"
     style="fill:#404040;"/>
  </a>
 </g>
</svg>

<style type='text/css'>
<![CDATA[
[data-mouse-over-selected='false'] { opacity: 0.7; }
[data-mouse-over-selected='true']  { opacity: 1.0; }
]]>
</style>
<script type="application/ecmascript"><![CDATA[
document.addEventListener('DOMContentLoaded', (event) => {
  highlightEdges();
  highlightAdjacentNodes();
});
]]></script>
</svg>
