<?xml version="1.0" encoding="UTF-8" standalone="no"?>
<!DOCTYPE svg PUBLIC "-//W3C//DTD SVG 1.1//EN"
 "http://www.w3.org/Graphics/SVG/1.1/DTD/svg11.dtd">
<!-- Generated by graphviz version 2.43.0 (0)
 -->
<!-- Title: /home/runner/work/amr&#45;wind/amr&#45;wind/src/utilities/averaging/TimeAveraging.H Pages: 1 -->
<svg width="602pt" height="203pt"
 viewBox="0.00 0.00 601.50 203.00" xmlns="http://www.w3.org/2000/svg" xmlns:xlink="http://www.w3.org/1999/xlink">
<g id="graph0" class="graph" transform="scale(1 1) rotate(0) translate(4 199)">
<title>/home/runner/work/amr&#45;wind/amr&#45;wind/src/utilities/averaging/TimeAveraging.H</title>
<!-- Node1 -->
<g id="Node000001" class="node">
<title>Node1</title>
<g id="a_Node000001"><a xlink:title=" ">
<polygon fill="#999999" stroke="#666666" points="371.5,-195 216.5,-195 216.5,-154 371.5,-154 371.5,-195"/>
<text text-anchor="start" x="224.5" y="-183" font-family="Helvetica,sans-Serif" font-size="10.00">/home/runner/work/amr</text>
<text text-anchor="start" x="224.5" y="-172" font-family="Helvetica,sans-Serif" font-size="10.00">&#45;wind/amr&#45;wind/src/utilities</text>
<text text-anchor="middle" x="294" y="-161" font-family="Helvetica,sans-Serif" font-size="10.00">/averaging/TimeAveraging.H</text>
</a>
</g>
</g>
<!-- Node2 -->
<g id="Node000002" class="node">
<title>Node2</title>
<g id="a_Node000002"><a xlink:href="_post_processing_8cpp.html" target="_top" xlink:title=" ">
<polygon fill="white" stroke="#666666" points="150,-118 0,-118 0,-77 150,-77 150,-118"/>
<text text-anchor="start" x="8" y="-106" font-family="Helvetica,sans-Serif" font-size="10.00">/home/runner/work/amr</text>
<text text-anchor="start" x="8" y="-95" font-family="Helvetica,sans-Serif" font-size="10.00">&#45;wind/amr&#45;wind/src/utilities</text>
<text text-anchor="middle" x="75" y="-84" font-family="Helvetica,sans-Serif" font-size="10.00">/PostProcessing.cpp</text>
</a>
</g>
</g>
<!-- Node1&#45;&gt;Node2 -->
<g id="edge1_Node000001_Node000002" class="edge">
<title>Node1&#45;&gt;Node2</title>
<g id="a_edge1_Node000001_Node000002"><a xlink:title=" ">
<path fill="none" stroke="#63b8ff" d="M227.35,-150.67C196.92,-140.25 161.24,-128.03 132.06,-118.04"/>
<polygon fill="#63b8ff" stroke="#63b8ff" points="226.44,-154.06 237.03,-153.99 228.71,-147.44 226.44,-154.06"/>
</a>
</g>
</g>
<!-- Node3 -->
<g id="Node000003" class="node">
<title>Node3</title>
<g id="a_Node000003"><a xlink:href="_re_averaging_8_h.html" target="_top" xlink:title=" ">
<polygon fill="white" stroke="#666666" points="318,-118 168,-118 168,-77 318,-77 318,-118"/>
<text text-anchor="start" x="176" y="-106" font-family="Helvetica,sans-Serif" font-size="10.00">/home/runner/work/amr</text>
<text text-anchor="start" x="176" y="-95" font-family="Helvetica,sans-Serif" font-size="10.00">&#45;wind/amr&#45;wind/src/utilities</text>
<text text-anchor="middle" x="243" y="-84" font-family="Helvetica,sans-Serif" font-size="10.00">/averaging/ReAveraging.H</text>
</a>
</g>
</g>
<!-- Node1&#45;&gt;Node3 -->
<g id="edge2_Node000001_Node000003" class="edge">
<title>Node1&#45;&gt;Node3</title>
<g id="a_edge2_Node000001_Node000003"><a xlink:title=" ">
<path fill="none" stroke="#63b8ff" d="M274.89,-145.39C268.7,-136.3 261.98,-126.41 256.31,-118.07"/>
<polygon fill="#63b8ff" stroke="#63b8ff" points="272.08,-147.49 280.6,-153.79 277.87,-143.56 272.08,-147.49"/>
</a>
</g>
</g>
<!-- Node5 -->
<g id="Node000005" class="node">
<title>Node5</title>
<g id="a_Node000005"><a xlink:href="_time_averaging_8cpp.html" target="_top" xlink:title=" ">
<polygon fill="white" stroke="#666666" points="408.5,-41 243.5,-41 243.5,0 408.5,0 408.5,-41"/>
<text text-anchor="start" x="251.5" y="-29" font-family="Helvetica,sans-Serif" font-size="10.00">/home/runner/work/amr</text>
<text text-anchor="start" x="251.5" y="-18" font-family="Helvetica,sans-Serif" font-size="10.00">&#45;wind/amr&#45;wind/src/utilities</text>
<text text-anchor="middle" x="326" y="-7" font-family="Helvetica,sans-Serif" font-size="10.00">/averaging/TimeAveraging.cpp</text>
</a>
</g>
</g>
<!-- Node1&#45;&gt;Node5 -->
<g id="edge7_Node000001_Node000005" class="edge">
<title>Node1&#45;&gt;Node5</title>
<g id="a_edge7_Node000001_Node000005"><a xlink:title=" ">
<path fill="none" stroke="#63b8ff" d="M314.71,-145.28C319.73,-136.91 324.4,-127.45 327,-118 334.1,-92.15 331.94,-60.92 329.31,-41.13"/>
<polygon fill="#63b8ff" stroke="#63b8ff" points="311.65,-143.57 309.2,-153.88 317.54,-147.35 311.65,-143.57"/>
</a>
</g>
</g>
<!-- Node6 -->
<g id="Node000006" class="node">
<title>Node6</title>
<g id="a_Node000006"><a xlink:href="_reynolds_stress_8_h.html" target="_top" xlink:title=" ">
<polygon fill="white" stroke="#666666" points="569.5,-118 412.5,-118 412.5,-77 569.5,-77 569.5,-118"/>
<text text-anchor="start" x="420.5" y="-106" font-family="Helvetica,sans-Serif" font-size="10.00">/home/runner/work/amr</text>
<text text-anchor="start" x="420.5" y="-95" font-family="Helvetica,sans-Serif" font-size="10.00">&#45;wind/amr&#45;wind/src/utilities</text>
<text text-anchor="middle" x="491" y="-84" font-family="Helvetica,sans-Serif" font-size="10.00">/averaging/ReynoldsStress.H</text>
</a>
</g>
</g>
<!-- Node1&#45;&gt;Node6 -->
<g id="edge5_Node000001_Node000006" class="edge">
<title>Node1&#45;&gt;Node6</title>
<g id="a_edge5_Node000001_Node000006"><a xlink:title=" ">
<path fill="none" stroke="#63b8ff" d="M354.67,-150.4C381.89,-140.04 413.65,-127.95 439.67,-118.04"/>
<polygon fill="#63b8ff" stroke="#63b8ff" points="353.35,-147.16 345.25,-153.99 355.84,-153.7 353.35,-147.16"/>
</a>
</g>
</g>
<!-- Node4 -->
<g id="Node000004" class="node">
<title>Node4</title>
<g id="a_Node000004"><a xlink:href="_re_averaging_8cpp.html" target="_top" xlink:title=" ">
<polygon fill="white" stroke="#666666" points="225.5,-41 72.5,-41 72.5,0 225.5,0 225.5,-41"/>
<text text-anchor="start" x="80.5" y="-29" font-family="Helvetica,sans-Serif" font-size="10.00">/home/runner/work/amr</text>
<text text-anchor="start" x="80.5" y="-18" font-family="Helvetica,sans-Serif" font-size="10.00">&#45;wind/amr&#45;wind/src/utilities</text>
<text text-anchor="middle" x="149" y="-7" font-family="Helvetica,sans-Serif" font-size="10.00">/averaging/ReAveraging.cpp</text>
</a>
</g>
</g>
<!-- Node3&#45;&gt;Node4 -->
<g id="edge3_Node000003_Node000004" class="edge">
<title>Node3&#45;&gt;Node4</title>
<g id="a_edge3_Node000003_Node000004"><a xlink:title=" ">
<path fill="none" stroke="#63b8ff" d="M210.22,-70.35C198.17,-60.73 184.74,-50.01 173.53,-41.07"/>
<polygon fill="#63b8ff" stroke="#63b8ff" points="208.3,-73.29 218.3,-76.79 212.67,-67.82 208.3,-73.29"/>
</a>
</g>
</g>
<!-- Node3&#45;&gt;Node5 -->
<g id="edge4_Node000003_Node000005" class="edge">
<title>Node3&#45;&gt;Node5</title>
<g id="a_edge4_Node000003_Node000005"><a xlink:title=" ">
<path fill="none" stroke="#63b8ff" d="M272.25,-70.07C282.81,-60.52 294.54,-49.93 304.34,-41.07"/>
<polygon fill="#63b8ff" stroke="#63b8ff" points="269.88,-67.49 264.81,-76.79 274.57,-72.69 269.88,-67.49"/>
</a>
</g>
</g>
<!-- Node7 -->
<g id="Node000007" class="node">
<title>Node7</title>
<g id="a_Node000007"><a xlink:href="_reynolds_stress_8cpp.html" target="_top" xlink:title=" ">
<polygon fill="white" stroke="#666666" points="593.5,-41 426.5,-41 426.5,0 593.5,0 593.5,-41"/>
<text text-anchor="start" x="434.5" y="-29" font-family="Helvetica,sans-Serif" font-size="10.00">/home/runner/work/amr</text>
<text text-anchor="start" x="434.5" y="-18" font-family="Helvetica,sans-Serif" font-size="10.00">&#45;wind/amr&#45;wind/src/utilities</text>
<text text-anchor="middle" x="510" y="-7" font-family="Helvetica,sans-Serif" font-size="10.00">/averaging/ReynoldsStress.cpp</text>
</a>
</g>
</g>
<!-- Node6&#45;&gt;Node7 -->
<g id="edge6_Node000006_Node000007" class="edge">
<title>Node6&#45;&gt;Node7</title>
<g id="a_edge6_Node000006_Node000007"><a xlink:title=" ">
<path fill="none" stroke="#63b8ff" d="M498.48,-66.98C500.68,-58.28 503.04,-48.98 505.04,-41.07"/>
<polygon fill="#63b8ff" stroke="#63b8ff" points="495.06,-66.24 495.99,-76.79 501.84,-67.96 495.06,-66.24"/>
</a>
</g>
</g>
</g>
</svg>
