<?xml version="1.0" encoding="UTF-8" standalone="no"?>
<!DOCTYPE svg PUBLIC "-//W3C//DTD SVG 1.1//EN"
 "http://www.w3.org/Graphics/SVG/1.1/DTD/svg11.dtd">
<!-- Generated by graphviz version 2.43.0 (0)
 -->
<!-- Title: /home/runner/work/amr&#45;wind/amr&#45;wind/src/wind_energy/actuator/turbine/fast/TurbineFast.H Pages: 1 -->
<!--zoomable 566 -->

<svg id="main" version="1.1" xmlns="http://www.w3.org/2000/svg" xmlns:xlink="http://www.w3.org/1999/xlink" xml:space="preserve" onload="init(evt)">

<style type="text/css"><![CDATA[
.node, .edge {opacity: 0.7;}
.node.selected, .edge.selected {opacity: 1;}
.edge:hover path { stroke: red; }
.edge:hover polygon { stroke: red; fill: red; }
]]></style>

<defs>
  <circle id="rim" cx="0" cy="0" r="7"/>
  <circle id="rim2" cx="0" cy="0" r="3.5"/>
  <g id="zoomPlus">
    <use xlink:href="#rim" fill="#404040"><set attributeName="fill" to="#808080" begin="zoomplus.mouseover" end="zoomplus.mouseout"/></use>
    <path d="M-4,0h8M0,-4v8" fill="none" stroke="white" stroke-width="1.5" pointer-events="none"/>
  </g>
  <g id="zoomMin">
    <use xlink:href="#rim" fill="#404040"><set attributeName="fill" to="#808080" begin="zoomminus.mouseover" end="zoomminus.mouseout"/></use>
    <path d="M-4,0h8" fill="none" stroke="white" stroke-width="1.5" pointer-events="none"/>
  </g>
  <g id="arrowUp" transform="translate(30 24)">
    <use xlink:href="#rim"/>
    <path pointer-events="none" fill="none" stroke="white" stroke-width="1.5" d="M0,-3.0v7 M-2.5,-0.5L0,-3.0L2.5,-0.5"/>
  </g>
  <g id="arrowRight" transform="rotate(90) translate(36 -43)">
    <use xlink:href="#rim"/>
    <path pointer-events="none" fill="none" stroke="white" stroke-width="1.5" d="M0,-3.0v7 M-2.5,-0.5L0,-3.0L2.5,-0.5"/>
  </g>
  <g id="arrowDown" transform="rotate(180) translate(-30 -48)">
    <use xlink:href="#rim"/>
    <path pointer-events="none" fill="none" stroke="white" stroke-width="1.5" d="M0,-3.0v7 M-2.5,-0.5L0,-3.0L2.5,-0.5"/>
  </g>
  <g id="arrowLeft" transform="rotate(270) translate(-36 17)">
    <use xlink:href="#rim"/>
    <path pointer-events="none" fill="none" stroke="white" stroke-width="1.5" d="M0,-3.0v7 M-2.5,-0.5L0,-3.0L2.5,-0.5"/>
  </g>
  <g id="resetDef">
    <use xlink:href="#rim2" fill="#404040"><set attributeName="fill" to="#808080" begin="reset.mouseover" end="reset.mouseout"/></use>
  </g>
</defs>
<script type="application/ecmascript">
var viewWidth = 1730;
var viewHeight = 566;
var sectionId = 'dynsection-0';
</script>
<script type="application/ecmascript" xlink:href="svg.min.js"/>
<svg id="graph" class="graph">
<g id="viewport">
<title>/home/runner/work/amr&#45;wind/amr&#45;wind/src/wind_energy/actuator/turbine/fast/TurbineFast.H</title>
<!-- Node1 -->
<g id="Node000001" class="node">
<title>Node1</title>
<g id="a_Node000001"><a xlink:title=" ">
<polygon fill="#999999" stroke="#666666" points="1111.5,-558 974.5,-558 974.5,-506 1111.5,-506 1111.5,-558"/>
<text text-anchor="start" x="982.5" y="-546" font-family="Helvetica,sans-Serif" font-size="10.00">/home/runner/work/amr</text>
<text text-anchor="start" x="982.5" y="-535" font-family="Helvetica,sans-Serif" font-size="10.00">&#45;wind/amr&#45;wind/src/wind</text>
<text text-anchor="start" x="982.5" y="-524" font-family="Helvetica,sans-Serif" font-size="10.00">_energy/actuator/turbine</text>
<text text-anchor="middle" x="1043" y="-513" font-family="Helvetica,sans-Serif" font-size="10.00">/fast/TurbineFast.H</text>
</a>
</g>
</g>
<!-- Node2 -->
<g id="Node000002" class="node">
<title>Node2</title>
<g id="a_Node000002"><a xlink:href="_turbine_external_8_h.html" target="_top" xlink:title=" ">
<polygon fill="white" stroke="#666666" points="1060.5,-470 873.5,-470 873.5,-440 1060.5,-440 1060.5,-470"/>
<text text-anchor="start" x="881.5" y="-458" font-family="Helvetica,sans-Serif" font-size="10.00">src/wind_energy/actuator</text>
<text text-anchor="middle" x="967" y="-447" font-family="Helvetica,sans-Serif" font-size="10.00">/turbine/external/TurbineExternal.H</text>
</a>
</g>
</g>
<!-- Node1&#45;&gt;Node2 -->
<g id="edge1_Node000001_Node000002" class="edge">
<title>Node1&#45;&gt;Node2</title>
<g id="a_edge1_Node000001_Node000002"><a xlink:title=" ">
<path fill="none" stroke="#63b8ff" d="M1017.27,-505.61C1008.08,-496.54 997.81,-486.41 988.97,-477.68"/>
<polygon fill="#63b8ff" stroke="#63b8ff" points="991.2,-474.96 981.62,-470.43 986.28,-479.94 991.2,-474.96"/>
</a>
</g>
</g>
<!-- Node38 -->
<g id="Node000038" class="node">
<title>Node38</title>
<g id="a_Node000038"><a xlink:href="fast__types_8_h.html" target="_top" xlink:title=" ">
<polygon fill="white" stroke="#666666" points="1342,-338 1202,-338 1202,-308 1342,-308 1342,-338"/>
<text text-anchor="start" x="1210" y="-326" font-family="Helvetica,sans-Serif" font-size="10.00">src/wind_energy/actuator</text>
<text text-anchor="middle" x="1272" y="-315" font-family="Helvetica,sans-Serif" font-size="10.00">/turbine/fast/fast_types.H</text>
</a>
</g>
</g>
<!-- Node1&#45;&gt;Node38 -->
<g id="edge57_Node000001_Node000038" class="edge">
<title>Node1&#45;&gt;Node38</title>
<g id="a_edge57_Node000001_Node000038"><a xlink:title=" ">
<path fill="none" stroke="#63b8ff" d="M1071.08,-505.62C1116.75,-464.34 1206.26,-383.43 1248.66,-345.1"/>
<polygon fill="#63b8ff" stroke="#63b8ff" points="1251.18,-347.54 1256.25,-338.24 1246.48,-342.35 1251.18,-347.54"/>
</a>
</g>
</g>
<!-- Node3 -->
<g id="Node000003" class="node">
<title>Node3</title>
<g id="a_Node000003"><a xlink:href="turbine__types_8_h.html" target="_top" xlink:title=" ">
<polygon fill="white" stroke="#666666" points="816,-404 676,-404 676,-374 816,-374 816,-404"/>
<text text-anchor="start" x="684" y="-392" font-family="Helvetica,sans-Serif" font-size="10.00">src/wind_energy/actuator</text>
<text text-anchor="middle" x="746" y="-381" font-family="Helvetica,sans-Serif" font-size="10.00">/turbine/turbine_types.H</text>
</a>
</g>
</g>
<!-- Node2&#45;&gt;Node3 -->
<g id="edge2_Node000002_Node000003" class="edge">
<title>Node2&#45;&gt;Node3</title>
<g id="a_edge2_Node000002_Node000003"><a xlink:title=" ">
<path fill="none" stroke="#63b8ff" d="M918.5,-439.95C884.82,-430.2 839.78,-417.16 804.16,-406.84"/>
<polygon fill="#63b8ff" stroke="#63b8ff" points="804.97,-403.43 794.39,-404.01 803.02,-410.16 804.97,-403.43"/>
</a>
</g>
</g>
<!-- Node20 -->
<g id="Node000020" class="node">
<title>Node20</title>
<g id="a_Node000020"><a xlink:title=" ">
<polygon fill="#e0e0e0" stroke="#999999" points="890,-19 798,-19 798,0 890,0 890,-19"/>
<text text-anchor="middle" x="844" y="-7" font-family="Helvetica,sans-Serif" font-size="10.00">AMReX_REAL.H</text>
</a>
</g>
</g>
<!-- Node2&#45;&gt;Node20 -->
<g id="edge56_Node000002_Node000020" class="edge">
<title>Node2&#45;&gt;Node20</title>
<g id="a_edge56_Node000002_Node000020"><a xlink:title=" ">
<path fill="none" stroke="#63b8ff" d="M925.55,-439.81C907.32,-431.77 886.93,-420.05 873,-404 848.21,-375.44 844,-361.82 844,-324 844,-324 844,-324 844,-129.5 844,-94.15 844,-52.9 844,-29.42"/>
<polygon fill="#63b8ff" stroke="#63b8ff" points="847.5,-29.16 844,-19.16 840.5,-29.16 847.5,-29.16"/>
</a>
</g>
</g>
<!-- Node24 -->
<g id="Node000024" class="node">
<title>Node24</title>
<g id="a_Node000024"><a xlink:href="_ext_turb_iface_8_h.html" target="_top" xlink:title=" ">
<polygon fill="white" stroke="#666666" points="1052.5,-404 881.5,-404 881.5,-374 1052.5,-374 1052.5,-404"/>
<text text-anchor="start" x="889.5" y="-392" font-family="Helvetica,sans-Serif" font-size="10.00">src/wind_energy/actuator</text>
<text text-anchor="middle" x="967" y="-381" font-family="Helvetica,sans-Serif" font-size="10.00">/turbine/external/ExtTurbIface.H</text>
</a>
</g>
</g>
<!-- Node2&#45;&gt;Node24 -->
<g id="edge35_Node000002_Node000024" class="edge">
<title>Node2&#45;&gt;Node24</title>
<g id="a_edge35_Node000002_Node000024"><a xlink:title=" ">
<path fill="none" stroke="#63b8ff" d="M967,-439.8C967,-432.34 967,-422.99 967,-414.41"/>
<polygon fill="#63b8ff" stroke="#63b8ff" points="970.5,-414.16 967,-404.16 963.5,-414.16 970.5,-414.16"/>
</a>
</g>
</g>
<!-- Node27 -->
<g id="Node000027" class="node">
<title>Node27</title>
<g id="a_Node000027"><a xlink:href="_ext_solver_8_h.html" target="_top" xlink:title=" ">
<polygon fill="white" stroke="#666666" points="1184,-332.5 1070,-332.5 1070,-313.5 1184,-313.5 1184,-332.5"/>
<text text-anchor="middle" x="1127" y="-320.5" font-family="Helvetica,sans-Serif" font-size="10.00">src/core/ExtSolver.H</text>
</a>
</g>
</g>
<!-- Node2&#45;&gt;Node27 -->
<g id="edge55_Node000002_Node000027" class="edge">
<title>Node2&#45;&gt;Node27</title>
<g id="a_edge55_Node000002_Node000027"><a xlink:title=" ">
<path fill="none" stroke="#63b8ff" d="M1001.56,-439.93C1020.54,-431.23 1043.84,-418.88 1062,-404 1084.31,-385.72 1104.29,-358.75 1116.03,-341.28"/>
<polygon fill="#63b8ff" stroke="#63b8ff" points="1119.12,-342.95 1121.67,-332.66 1113.26,-339.11 1119.12,-342.95"/>
</a>
</g>
</g>
<!-- Node4 -->
<g id="Node000004" class="node">
<title>Node4</title>
<g id="a_Node000004"><a xlink:href="actuator__types_8_h.html" target="_top" xlink:title=" ">
<polygon fill="white" stroke="#666666" points="681,-338 541,-338 541,-308 681,-308 681,-338"/>
<text text-anchor="start" x="549" y="-326" font-family="Helvetica,sans-Serif" font-size="10.00">src/wind_energy/actuator</text>
<text text-anchor="middle" x="611" y="-315" font-family="Helvetica,sans-Serif" font-size="10.00">/actuator_types.H</text>
</a>
</g>
</g>
<!-- Node3&#45;&gt;Node4 -->
<g id="edge3_Node000003_Node000004" class="edge">
<title>Node3&#45;&gt;Node4</title>
<g id="a_edge3_Node000003_Node000004"><a xlink:title=" ">
<path fill="none" stroke="#63b8ff" d="M716.37,-373.95C696.77,-364.66 670.86,-352.38 649.63,-342.32"/>
<polygon fill="#63b8ff" stroke="#63b8ff" points="651.09,-339.13 640.56,-338.01 648.09,-345.46 651.09,-339.13"/>
</a>
</g>
</g>
<!-- Node3&#45;&gt;Node20 -->
<g id="edge34_Node000003_Node000020" class="edge">
<title>Node3&#45;&gt;Node20</title>
<g id="a_edge34_Node000003_Node000020"><a xlink:title=" ">
<path fill="none" stroke="#63b8ff" d="M757,-373.88C774.33,-350.2 806,-300.35 806,-252.5 806,-252.5 806,-252.5 806,-129.5 806,-92.07 823.27,-51.03 834.52,-28.25"/>
<polygon fill="#63b8ff" stroke="#63b8ff" points="837.74,-29.65 839.19,-19.15 831.51,-26.46 837.74,-29.65"/>
</a>
</g>
</g>
<!-- Node5 -->
<g id="Node000005" class="node">
<title>Node5</title>
<g id="a_Node000005"><a xlink:href="_slice_8_h.html" target="_top" xlink:title=" ">
<polygon fill="white" stroke="#666666" points="700,-261 608,-261 608,-242 700,-242 700,-261"/>
<text text-anchor="middle" x="654" y="-249" font-family="Helvetica,sans-Serif" font-size="10.00">src/core/Slice.H</text>
</a>
</g>
</g>
<!-- Node4&#45;&gt;Node5 -->
<g id="edge4_Node000004_Node000005" class="edge">
<title>Node4&#45;&gt;Node5</title>
<g id="a_edge4_Node000004_Node000005"><a xlink:title=" ">
<path fill="none" stroke="#63b8ff" d="M619.7,-307.94C626.52,-296.92 636.03,-281.54 643.31,-269.78"/>
<polygon fill="#63b8ff" stroke="#63b8ff" points="646.29,-271.61 648.58,-261.27 640.34,-267.93 646.29,-271.61"/>
</a>
</g>
</g>
<!-- Node8 -->
<g id="Node000008" class="node">
<title>Node8</title>
<g id="a_Node000008"><a xlink:title=" ">
<polygon fill="#e0e0e0" stroke="#999999" points="518.5,-19 431.5,-19 431.5,0 518.5,0 518.5,-19"/>
<text text-anchor="middle" x="475" y="-7" font-family="Helvetica,sans-Serif" font-size="10.00">AMReX_Gpu.H</text>
</a>
</g>
</g>
<!-- Node4&#45;&gt;Node8 -->
<g id="edge29_Node000004_Node000008" class="edge">
<title>Node4&#45;&gt;Node8</title>
<g id="a_edge29_Node000004_Node000008"><a xlink:title=" ">
<path fill="none" stroke="#63b8ff" d="M657.29,-307.94C675.84,-300.12 695.89,-288.54 709,-272 733.3,-241.33 730,-225.63 730,-186.5 730,-186.5 730,-186.5 730,-129.5 730,-41.43 603.55,-18.39 528.74,-12.46"/>
<polygon fill="#63b8ff" stroke="#63b8ff" points="528.77,-8.95 518.55,-11.73 528.27,-15.93 528.77,-8.95"/>
</a>
</g>
</g>
<!-- Node9 -->
<g id="Node000009" class="node">
<title>Node9</title>
<g id="a_Node000009"><a xlink:href="vector__space_8_h.html" target="_top" xlink:title=" ">
<polygon fill="white" stroke="#666666" points="349.5,-266.5 246.5,-266.5 246.5,-236.5 349.5,-236.5 349.5,-266.5"/>
<text text-anchor="start" x="254.5" y="-254.5" font-family="Helvetica,sans-Serif" font-size="10.00">src/core/vs/vector</text>
<text text-anchor="middle" x="298" y="-243.5" font-family="Helvetica,sans-Serif" font-size="10.00">_space.H</text>
</a>
</g>
</g>
<!-- Node4&#45;&gt;Node9 -->
<g id="edge8_Node000004_Node000009" class="edge">
<title>Node4&#45;&gt;Node9</title>
<g id="a_edge8_Node000004_Node000009"><a xlink:title=" ">
<path fill="none" stroke="#63b8ff" d="M540.99,-310.31C490.16,-301.29 419.89,-287.72 359,-272 355.88,-271.19 352.68,-270.32 349.46,-269.4"/>
<polygon fill="#63b8ff" stroke="#63b8ff" points="350.4,-266.03 339.82,-266.56 348.42,-272.75 350.4,-266.03"/>
</a>
</g>
</g>
<!-- Node4&#45;&gt;Node20 -->
<g id="edge33_Node000004_Node000020" class="edge">
<title>Node4&#45;&gt;Node20</title>
<g id="a_edge33_Node000004_Node000020"><a xlink:title=" ">
<path fill="none" stroke="#63b8ff" d="M670.84,-307.97C692.66,-300.36 716.09,-288.92 733,-272 762.03,-242.96 768,-227.56 768,-186.5 768,-186.5 768,-186.5 768,-129.5 768,-94.71 772.72,-83.96 792,-55 799.82,-43.25 811.57,-32.83 821.93,-25.03"/>
<polygon fill="#63b8ff" stroke="#63b8ff" points="824.09,-27.79 830.18,-19.12 820.01,-22.1 824.09,-27.79"/>
</a>
</g>
</g>
<!-- Node21 -->
<g id="Node000021" class="node">
<title>Node21</title>
<g id="a_Node000021"><a xlink:title=" ">
<polygon fill="#e0e0e0" stroke="#999999" points="476,-261 368,-261 368,-242 476,-242 476,-261"/>
<text text-anchor="middle" x="422" y="-249" font-family="Helvetica,sans-Serif" font-size="10.00">AMReX_RealBox.H</text>
</a>
</g>
</g>
<!-- Node4&#45;&gt;Node21 -->
<g id="edge30_Node000004_Node000021" class="edge">
<title>Node4&#45;&gt;Node21</title>
<g id="a_edge30_Node000004_Node000021"><a xlink:title=" ">
<path fill="none" stroke="#63b8ff" d="M572.75,-307.94C538.15,-295.21 487.72,-276.67 454.89,-264.59"/>
<polygon fill="#63b8ff" stroke="#63b8ff" points="455.89,-261.23 445.3,-261.07 453.48,-267.8 455.89,-261.23"/>
</a>
</g>
</g>
<!-- Node22 -->
<g id="Node000022" class="node">
<title>Node22</title>
<g id="a_Node000022"><a xlink:title=" ">
<polygon fill="#e0e0e0" stroke="#999999" points="526,-261 494,-261 494,-242 526,-242 526,-261"/>
<text text-anchor="middle" x="510" y="-249" font-family="Helvetica,sans-Serif" font-size="10.00">set</text>
</a>
</g>
</g>
<!-- Node4&#45;&gt;Node22 -->
<g id="edge31_Node000004_Node000022" class="edge">
<title>Node4&#45;&gt;Node22</title>
<g id="a_edge31_Node000004_Node000022"><a xlink:title=" ">
<path fill="none" stroke="#63b8ff" d="M588.4,-307.81C573.11,-298.04 552.58,-284.61 535,-272 532.89,-270.48 530.7,-268.86 528.54,-267.23"/>
<polygon fill="#63b8ff" stroke="#63b8ff" points="530.61,-264.4 520.56,-261.04 526.32,-269.94 530.61,-264.4"/>
</a>
</g>
</g>
<!-- Node23 -->
<g id="Node000023" class="node">
<title>Node23</title>
<g id="a_Node000023"><a xlink:title=" ">
<polygon fill="#e0e0e0" stroke="#999999" points="589.5,-261 544.5,-261 544.5,-242 589.5,-242 589.5,-261"/>
<text text-anchor="middle" x="567" y="-249" font-family="Helvetica,sans-Serif" font-size="10.00">utility</text>
</a>
</g>
</g>
<!-- Node4&#45;&gt;Node23 -->
<g id="edge32_Node000004_Node000023" class="edge">
<title>Node4&#45;&gt;Node23</title>
<g id="a_edge32_Node000004_Node000023"><a xlink:title=" ">
<path fill="none" stroke="#63b8ff" d="M602.1,-307.94C595.12,-296.92 585.39,-281.54 577.94,-269.78"/>
<polygon fill="#63b8ff" stroke="#63b8ff" points="580.86,-267.84 572.55,-261.27 574.94,-271.59 580.86,-267.84"/>
</a>
</g>
</g>
<!-- Node6 -->
<g id="Node000006" class="node">
<title>Node6</title>
<g id="a_Node000006"><a xlink:title=" ">
<polygon fill="#e0e0e0" stroke="#999999" points="585.5,-195 532.5,-195 532.5,-176 585.5,-176 585.5,-195"/>
<text text-anchor="middle" x="559" y="-183" font-family="Helvetica,sans-Serif" font-size="10.00">iterator</text>
</a>
</g>
</g>
<!-- Node5&#45;&gt;Node6 -->
<g id="edge5_Node000005_Node000006" class="edge">
<title>Node5&#45;&gt;Node6</title>
<g id="a_edge5_Node000005_Node000006"><a xlink:title=" ">
<path fill="none" stroke="#63b8ff" d="M641.19,-241.87C625.61,-231.37 599.07,-213.5 580.38,-200.9"/>
<polygon fill="#63b8ff" stroke="#63b8ff" points="582.16,-197.88 571.91,-195.2 578.25,-203.69 582.16,-197.88"/>
</a>
</g>
</g>
<!-- Node7 -->
<g id="Node000007" class="node">
<title>Node7</title>
<g id="a_Node000007"><a xlink:title=" ">
<polygon fill="#e0e0e0" stroke="#999999" points="702,-195 604,-195 604,-176 702,-176 702,-195"/>
<text text-anchor="middle" x="653" y="-183" font-family="Helvetica,sans-Serif" font-size="10.00">AMReX_Vector.H</text>
</a>
</g>
</g>
<!-- Node5&#45;&gt;Node7 -->
<g id="edge6_Node000005_Node000007" class="edge">
<title>Node5&#45;&gt;Node7</title>
<g id="a_edge6_Node000005_Node000007"><a xlink:title=" ">
<path fill="none" stroke="#63b8ff" d="M653.87,-241.87C653.72,-232.66 653.49,-217.79 653.3,-205.77"/>
<polygon fill="#63b8ff" stroke="#63b8ff" points="656.8,-205.35 653.14,-195.41 649.8,-205.46 656.8,-205.35"/>
</a>
</g>
</g>
<!-- Node5&#45;&gt;Node8 -->
<g id="edge7_Node000005_Node000008" class="edge">
<title>Node5&#45;&gt;Node8</title>
<g id="a_edge7_Node000005_Node000008"><a xlink:title=" ">
<path fill="none" stroke="#63b8ff" d="M630.79,-241.95C595.2,-228.64 530.45,-203.62 523,-195 481.03,-146.4 475.11,-65.5 474.7,-29.17"/>
<polygon fill="#63b8ff" stroke="#63b8ff" points="478.2,-29.04 474.72,-19.04 471.2,-29.03 478.2,-29.04"/>
</a>
</g>
</g>
<!-- Node10 -->
<g id="Node000010" class="node">
<title>Node10</title>
<g id="a_Node000010"><a xlink:href="vector_8_h.html" target="_top" xlink:title=" ">
<polygon fill="white" stroke="#666666" points="234.5,-140 121.5,-140 121.5,-121 234.5,-121 234.5,-140"/>
<text text-anchor="middle" x="178" y="-128" font-family="Helvetica,sans-Serif" font-size="10.00">src/core/vs/vector.H</text>
</a>
</g>
</g>
<!-- Node9&#45;&gt;Node10 -->
<g id="edge9_Node000009_Node000010" class="edge">
<title>Node9&#45;&gt;Node10</title>
<g id="a_edge9_Node000009_Node000010"><a xlink:title=" ">
<path fill="none" stroke="#63b8ff" d="M283.76,-236.38C261.23,-214.04 217.49,-170.66 193.94,-147.31"/>
<polygon fill="#63b8ff" stroke="#63b8ff" points="196.35,-144.77 186.78,-140.21 191.42,-149.74 196.35,-144.77"/>
</a>
</g>
</g>
<!-- Node16 -->
<g id="Node000016" class="node">
<title>Node16</title>
<g id="a_Node000016"><a xlink:href="tensor_8_h.html" target="_top" xlink:title=" ">
<polygon fill="white" stroke="#666666" points="371.5,-195 258.5,-195 258.5,-176 371.5,-176 371.5,-195"/>
<text text-anchor="middle" x="315" y="-183" font-family="Helvetica,sans-Serif" font-size="10.00">src/core/vs/tensor.H</text>
</a>
</g>
</g>
<!-- Node9&#45;&gt;Node16 -->
<g id="edge17_Node000009_Node000016" class="edge">
<title>Node9&#45;&gt;Node16</title>
<g id="a_edge17_Node000009_Node000016"><a xlink:title=" ">
<path fill="none" stroke="#63b8ff" d="M301.77,-236.3C304.22,-227.1 307.42,-215.03 310.07,-205.08"/>
<polygon fill="#63b8ff" stroke="#63b8ff" points="313.47,-205.91 312.65,-195.34 306.7,-204.11 313.47,-205.91"/>
</a>
</g>
</g>
<!-- Node10&#45;&gt;Node8 -->
<g id="edge10_Node000010_Node000008" class="edge">
<title>Node10&#45;&gt;Node8</title>
<g id="a_edge10_Node000010_Node000008"><a xlink:title=" ">
<path fill="none" stroke="#63b8ff" d="M195.1,-120.78C224.2,-106.12 285.4,-76.08 339,-55 371.12,-42.36 408.43,-30.34 435.84,-21.98"/>
<polygon fill="#63b8ff" stroke="#63b8ff" points="436.91,-25.31 445.47,-19.07 434.88,-18.61 436.91,-25.31"/>
</a>
</g>
</g>
<!-- Node11 -->
<g id="Node000011" class="node">
<title>Node11</title>
<g id="a_Node000011"><a xlink:href="vstraits_8_h.html" target="_top" xlink:title=" ">
<polygon fill="white" stroke="#666666" points="253.5,-79.5 134.5,-79.5 134.5,-60.5 253.5,-60.5 253.5,-79.5"/>
<text text-anchor="middle" x="194" y="-67.5" font-family="Helvetica,sans-Serif" font-size="10.00">src/core/vs/vstraits.H</text>
</a>
</g>
</g>
<!-- Node10&#45;&gt;Node11 -->
<g id="edge11_Node000010_Node000011" class="edge">
<title>Node10&#45;&gt;Node11</title>
<g id="a_edge11_Node000010_Node000011"><a xlink:title=" ">
<path fill="none" stroke="#63b8ff" d="M180.36,-120.87C182.61,-112.66 186.06,-100.04 188.93,-89.55"/>
<polygon fill="#63b8ff" stroke="#63b8ff" points="192.37,-90.24 191.63,-79.67 185.62,-88.39 192.37,-90.24"/>
</a>
</g>
</g>
<!-- Node13 -->
<g id="Node000013" class="node">
<title>Node13</title>
<g id="a_Node000013"><a xlink:href="vector_i_8_h.html" target="_top" xlink:title=" ">
<polygon fill="white" stroke="#666666" points="116,-79.5 0,-79.5 0,-60.5 116,-60.5 116,-79.5"/>
<text text-anchor="middle" x="58" y="-67.5" font-family="Helvetica,sans-Serif" font-size="10.00">src/core/vs/vectorI.H</text>
</a>
</g>
</g>
<!-- Node10&#45;&gt;Node13 -->
<g id="edge13_Node000010_Node000013" class="edge">
<title>Node10&#45;&gt;Node13</title>
<g id="a_edge13_Node000010_Node000013"><a xlink:title=" ">
<path fill="none" stroke="#63b8ff" d="M155.62,-120.99C133.79,-111.38 101.13,-95.59 79.58,-84.33"/>
<polygon fill="#63b8ff" stroke="#63b8ff" points="81.01,-81.13 70.54,-79.52 77.72,-87.31 81.01,-81.13"/>
</a>
</g>
</g>
<!-- Node12 -->
<g id="Node000012" class="node">
<title>Node12</title>
<g id="a_Node000012"><a xlink:title=" ">
<polygon fill="#e0e0e0" stroke="#999999" points="216,-19 172,-19 172,0 216,0 216,-19"/>
<text text-anchor="middle" x="194" y="-7" font-family="Helvetica,sans-Serif" font-size="10.00">limits</text>
</a>
</g>
</g>
<!-- Node11&#45;&gt;Node12 -->
<g id="edge12_Node000011_Node000012" class="edge">
<title>Node11&#45;&gt;Node12</title>
<g id="a_edge12_Node000011_Node000012"><a xlink:title=" ">
<path fill="none" stroke="#63b8ff" d="M194,-60.37C194,-52.25 194,-39.81 194,-29.39"/>
<polygon fill="#63b8ff" stroke="#63b8ff" points="197.5,-29.17 194,-19.17 190.5,-29.17 197.5,-29.17"/>
</a>
</g>
</g>
<!-- Node13&#45;&gt;Node10 -->
<g id="edge16_Node000013_Node000010" class="edge">
<title>Node13&#45;&gt;Node10</title>
<g id="a_edge16_Node000013_Node000010"><a xlink:title=" ">
<path fill="none" stroke="#63b8ff" d="M80.74,-79.67C102.52,-89.27 134.81,-104.88 156.24,-116.08"/>
<polygon fill="#63b8ff" stroke="#63b8ff" points="154.78,-119.26 165.25,-120.87 158.07,-113.08 154.78,-119.26"/>
</a>
</g>
</g>
<!-- Node14 -->
<g id="Node000014" class="node">
<title>Node14</title>
<g id="a_Node000014"><a xlink:title=" ">
<polygon fill="#e0e0e0" stroke="#999999" points="86.5,-19 29.5,-19 29.5,0 86.5,0 86.5,-19"/>
<text text-anchor="middle" x="58" y="-7" font-family="Helvetica,sans-Serif" font-size="10.00">ostream</text>
</a>
</g>
</g>
<!-- Node13&#45;&gt;Node14 -->
<g id="edge14_Node000013_Node000014" class="edge">
<title>Node13&#45;&gt;Node14</title>
<g id="a_edge14_Node000013_Node000014"><a xlink:title=" ">
<path fill="none" stroke="#63b8ff" d="M58,-60.37C58,-52.25 58,-39.81 58,-29.39"/>
<polygon fill="#63b8ff" stroke="#63b8ff" points="61.5,-29.17 58,-19.17 54.5,-29.17 61.5,-29.17"/>
</a>
</g>
</g>
<!-- Node15 -->
<g id="Node000015" class="node">
<title>Node15</title>
<g id="a_Node000015"><a xlink:title=" ">
<polygon fill="#e0e0e0" stroke="#999999" points="305.5,-19 258.5,-19 258.5,0 305.5,0 305.5,-19"/>
<text text-anchor="middle" x="282" y="-7" font-family="Helvetica,sans-Serif" font-size="10.00">cmath</text>
</a>
</g>
</g>
<!-- Node13&#45;&gt;Node15 -->
<g id="edge15_Node000013_Node000015" class="edge">
<title>Node13&#45;&gt;Node15</title>
<g id="a_edge15_Node000013_Node000015"><a xlink:title=" ">
<path fill="none" stroke="#63b8ff" d="M90.57,-60.49C132.72,-49.49 205.79,-30.4 248.42,-19.27"/>
<polygon fill="#63b8ff" stroke="#63b8ff" points="249.52,-22.6 258.31,-16.69 247.75,-15.83 249.52,-22.6"/>
</a>
</g>
</g>
<!-- Node16&#45;&gt;Node8 -->
<g id="edge18_Node000016_Node000008" class="edge">
<title>Node16&#45;&gt;Node8</title>
<g id="a_edge18_Node000016_Node000008"><a xlink:title=" ">
<path fill="none" stroke="#63b8ff" d="M348.04,-175.87C369.39,-168.96 396.69,-157.5 416,-140 449.31,-109.82 465.07,-57.13 471.41,-29.17"/>
<polygon fill="#63b8ff" stroke="#63b8ff" points="474.88,-29.65 473.51,-19.14 468.03,-28.21 474.88,-29.65"/>
</a>
</g>
</g>
<!-- Node16&#45;&gt;Node10 -->
<g id="edge20_Node000016_Node000010" class="edge">
<title>Node16&#45;&gt;Node10</title>
<g id="a_edge20_Node000016_Node000010"><a xlink:title=" ">
<path fill="none" stroke="#63b8ff" d="M292.99,-175.98C270.55,-167.3 235.52,-153.75 210.01,-143.88"/>
<polygon fill="#63b8ff" stroke="#63b8ff" points="211,-140.51 200.41,-140.17 208.48,-147.04 211,-140.51"/>
</a>
</g>
</g>
<!-- Node16&#45;&gt;Node11 -->
<g id="edge19_Node000016_Node000011" class="edge">
<title>Node16&#45;&gt;Node11</title>
<g id="a_edge19_Node000016_Node000011"><a xlink:title=" ">
<path fill="none" stroke="#63b8ff" d="M305.91,-175.97C285.67,-156.99 236.68,-111.03 210.74,-86.71"/>
<polygon fill="#63b8ff" stroke="#63b8ff" points="212.89,-83.92 203.2,-79.63 208.1,-89.02 212.89,-83.92"/>
</a>
</g>
</g>
<!-- Node17 -->
<g id="Node000017" class="node">
<title>Node17</title>
<g id="a_Node000017"><a xlink:href="tensor_i_8_h.html" target="_top" xlink:title=" ">
<polygon fill="white" stroke="#666666" points="407,-140 291,-140 291,-121 407,-121 407,-140"/>
<text text-anchor="middle" x="349" y="-128" font-family="Helvetica,sans-Serif" font-size="10.00">src/core/vs/tensorI.H</text>
</a>
</g>
</g>
<!-- Node16&#45;&gt;Node17 -->
<g id="edge21_Node000016_Node000017" class="edge">
<title>Node16&#45;&gt;Node17</title>
<g id="a_edge21_Node000016_Node000017"><a xlink:title=" ">
<path fill="none" stroke="#63b8ff" d="M315.45,-175.75C318.64,-168.26 325.3,-157.28 332.02,-148.13"/>
<polygon fill="#63b8ff" stroke="#63b8ff" points="334.91,-150.11 338.36,-140.09 329.42,-145.77 334.91,-150.11"/>
</a>
</g>
</g>
<!-- Node17&#45;&gt;Node15 -->
<g id="edge22_Node000017_Node000015" class="edge">
<title>Node17&#45;&gt;Node15</title>
<g id="a_edge22_Node000017_Node000015"><a xlink:title=" ">
<path fill="none" stroke="#63b8ff" d="M344.18,-120.94C333.27,-101.57 306.5,-54.02 291.9,-28.08"/>
<polygon fill="#63b8ff" stroke="#63b8ff" points="294.91,-26.3 286.96,-19.3 288.81,-29.73 294.91,-26.3"/>
</a>
</g>
</g>
<!-- Node17&#45;&gt;Node16 -->
<g id="edge23_Node000017_Node000016" class="edge">
<title>Node17&#45;&gt;Node16</title>
<g id="a_edge23_Node000017_Node000016"><a xlink:title=" ">
<path fill="none" stroke="#63b8ff" d="M348.62,-140.09C345.48,-147.52 338.84,-158.5 332.13,-167.67"/>
<polygon fill="#63b8ff" stroke="#63b8ff" points="329.21,-165.72 325.78,-175.75 334.71,-170.05 329.21,-165.72"/>
</a>
</g>
</g>
<!-- Node18 -->
<g id="Node000018" class="node">
<title>Node18</title>
<g id="a_Node000018"><a xlink:href="trig__ops_8_h.html" target="_top" xlink:title=" ">
<polygon fill="white" stroke="#666666" points="438,-85 348,-85 348,-55 438,-55 438,-85"/>
<text text-anchor="start" x="356" y="-73" font-family="Helvetica,sans-Serif" font-size="10.00">src/utilities/trig</text>
<text text-anchor="middle" x="393" y="-62" font-family="Helvetica,sans-Serif" font-size="10.00">_ops.H</text>
</a>
</g>
</g>
<!-- Node17&#45;&gt;Node18 -->
<g id="edge24_Node000017_Node000018" class="edge">
<title>Node17&#45;&gt;Node18</title>
<g id="a_edge24_Node000017_Node000018"><a xlink:title=" ">
<path fill="none" stroke="#63b8ff" d="M355.49,-120.87C360.97,-113.59 369.04,-102.85 376.3,-93.2"/>
<polygon fill="#63b8ff" stroke="#63b8ff" points="379.17,-95.21 382.38,-85.11 373.58,-91 379.17,-95.21"/>
</a>
</g>
</g>
<!-- Node18&#45;&gt;Node8 -->
<g id="edge28_Node000018_Node000008" class="edge">
<title>Node18&#45;&gt;Node8</title>
<g id="a_edge28_Node000018_Node000008"><a xlink:title=" ">
<path fill="none" stroke="#63b8ff" d="M412.85,-54.84C425.48,-45.83 441.8,-34.18 454.55,-25.09"/>
<polygon fill="#63b8ff" stroke="#63b8ff" points="456.6,-27.92 462.71,-19.27 452.54,-22.22 456.6,-27.92"/>
</a>
</g>
</g>
<!-- Node18&#45;&gt;Node15 -->
<g id="edge25_Node000018_Node000015" class="edge">
<title>Node18&#45;&gt;Node15</title>
<g id="a_edge25_Node000018_Node000015"><a xlink:title=" ">
<path fill="none" stroke="#63b8ff" d="M366.41,-54.99C348.55,-45.58 325.16,-33.24 307.52,-23.95"/>
<polygon fill="#63b8ff" stroke="#63b8ff" points="308.87,-20.71 298.39,-19.14 305.61,-26.9 308.87,-20.71"/>
</a>
</g>
</g>
<!-- Node19 -->
<g id="Node000019" class="node">
<title>Node19</title>
<g id="a_Node000019"><a xlink:title=" ">
<polygon fill="#e0e0e0" stroke="#999999" points="413.5,-19 354.5,-19 354.5,0 413.5,0 413.5,-19"/>
<text text-anchor="middle" x="384" y="-7" font-family="Helvetica,sans-Serif" font-size="10.00">numbers</text>
</a>
</g>
</g>
<!-- Node18&#45;&gt;Node19 -->
<g id="edge26_Node000018_Node000019" class="edge">
<title>Node18&#45;&gt;Node19</title>
<g id="a_edge26_Node000018_Node000019"><a xlink:title=" ">
<path fill="none" stroke="#63b8ff" d="M390.82,-54.84C389.63,-47.13 388.15,-37.49 386.87,-29.17"/>
<polygon fill="#63b8ff" stroke="#63b8ff" points="390.33,-28.62 385.35,-19.27 383.41,-29.68 390.33,-28.62"/>
</a>
</g>
</g>
<!-- Node18&#45;&gt;Node20 -->
<g id="edge27_Node000018_Node000020" class="edge">
<title>Node18&#45;&gt;Node20</title>
<g id="a_edge27_Node000018_Node000020"><a xlink:title=" ">
<path fill="none" stroke="#63b8ff" d="M438.31,-63.12C521.22,-52.37 697.15,-29.55 787.64,-17.81"/>
<polygon fill="#63b8ff" stroke="#63b8ff" points="788.25,-21.26 797.71,-16.5 787.34,-14.32 788.25,-21.26"/>
</a>
</g>
</g>
<!-- Node24&#45;&gt;Node20 -->
<g id="edge54_Node000024_Node000020" class="edge">
<title>Node24&#45;&gt;Node20</title>
<g id="a_edge54_Node000024_Node000020"><a xlink:title=" ">
<path fill="none" stroke="#63b8ff" d="M950.61,-374C925.91,-351.24 882,-303.6 882,-252.5 882,-252.5 882,-252.5 882,-129.5 882,-92.07 864.73,-51.03 853.48,-28.25"/>
<polygon fill="#63b8ff" stroke="#63b8ff" points="856.49,-26.46 848.81,-19.15 850.26,-29.65 856.49,-26.46"/>
</a>
</g>
</g>
<!-- Node25 -->
<g id="Node000025" class="node">
<title>Node25</title>
<g id="a_Node000025"><a xlink:title=" ">
<polygon fill="#e0e0e0" stroke="#999999" points="986,-332.5 948,-332.5 948,-313.5 986,-313.5 986,-332.5"/>
<text text-anchor="middle" x="967" y="-320.5" font-family="Helvetica,sans-Serif" font-size="10.00">map</text>
</a>
</g>
</g>
<!-- Node24&#45;&gt;Node25 -->
<g id="edge36_Node000024_Node000025" class="edge">
<title>Node24&#45;&gt;Node25</title>
<g id="a_edge36_Node000024_Node000025"><a xlink:title=" ">
<path fill="none" stroke="#63b8ff" d="M967,-373.8C967,-364.7 967,-352.79 967,-342.9"/>
<polygon fill="#63b8ff" stroke="#63b8ff" points="970.5,-342.84 967,-332.84 963.5,-342.84 970.5,-342.84"/>
</a>
</g>
</g>
<!-- Node26 -->
<g id="Node000026" class="node">
<title>Node26</title>
<g id="a_Node000026"><a xlink:title=" ">
<polygon fill="#e0e0e0" stroke="#999999" points="1051.5,-332.5 1004.5,-332.5 1004.5,-313.5 1051.5,-313.5 1051.5,-332.5"/>
<text text-anchor="middle" x="1028" y="-320.5" font-family="Helvetica,sans-Serif" font-size="10.00">vector</text>
</a>
</g>
</g>
<!-- Node24&#45;&gt;Node26 -->
<g id="edge37_Node000024_Node000026" class="edge">
<title>Node24&#45;&gt;Node26</title>
<g id="a_edge37_Node000024_Node000026"><a xlink:title=" ">
<path fill="none" stroke="#63b8ff" d="M980.54,-373.8C990.05,-363.82 1002.78,-350.46 1012.67,-340.09"/>
<polygon fill="#63b8ff" stroke="#63b8ff" points="1015.2,-342.5 1019.57,-332.84 1010.14,-337.67 1015.2,-342.5"/>
</a>
</g>
</g>
<!-- Node24&#45;&gt;Node27 -->
<g id="edge38_Node000024_Node000027" class="edge">
<title>Node24&#45;&gt;Node27</title>
<g id="a_edge38_Node000024_Node000027"><a xlink:title=" ">
<path fill="none" stroke="#63b8ff" d="M1002.11,-373.95C1030.3,-362.68 1069.47,-347.01 1096.39,-336.25"/>
<polygon fill="#63b8ff" stroke="#63b8ff" points="1097.72,-339.48 1105.71,-332.52 1095.12,-332.98 1097.72,-339.48"/>
</a>
</g>
</g>
<!-- Node36 -->
<g id="Node000036" class="node">
<title>Node36</title>
<g id="a_Node000036"><a xlink:href="external__base__types_8_h.html" target="_top" xlink:title=" ">
<polygon fill="white" stroke="#666666" points="1051.5,-272 910.5,-272 910.5,-231 1051.5,-231 1051.5,-272"/>
<text text-anchor="start" x="918.5" y="-260" font-family="Helvetica,sans-Serif" font-size="10.00">src/wind_energy/actuator</text>
<text text-anchor="start" x="918.5" y="-249" font-family="Helvetica,sans-Serif" font-size="10.00">/turbine/external/external</text>
<text text-anchor="middle" x="981" y="-238" font-family="Helvetica,sans-Serif" font-size="10.00">_base_types.H</text>
</a>
</g>
</g>
<!-- Node24&#45;&gt;Node36 -->
<g id="edge50_Node000024_Node000036" class="edge">
<title>Node24&#45;&gt;Node36</title>
<g id="a_edge50_Node000024_Node000036"><a xlink:title=" ">
<path fill="none" stroke="#63b8ff" d="M956.17,-373.88C945.31,-357.92 931.23,-331.16 939,-308 942.35,-298.03 948.27,-288.43 954.63,-280.1"/>
<polygon fill="#63b8ff" stroke="#63b8ff" points="957.45,-282.18 961.06,-272.22 952.02,-277.75 957.45,-282.18"/>
</a>
</g>
</g>
<!-- Node28 -->
<g id="Node000028" class="node">
<title>Node28</title>
<g id="a_Node000028"><a xlink:href="_factory_8_h.html" target="_top" xlink:title=" ">
<polygon fill="white" stroke="#666666" points="1356,-261 1254,-261 1254,-242 1356,-242 1356,-261"/>
<text text-anchor="middle" x="1305" y="-249" font-family="Helvetica,sans-Serif" font-size="10.00">src/core/Factory.H</text>
</a>
</g>
</g>
<!-- Node27&#45;&gt;Node28 -->
<g id="edge39_Node000027_Node000028" class="edge">
<title>Node27&#45;&gt;Node28</title>
<g id="a_edge39_Node000027_Node000028"><a xlink:title=" ">
<path fill="none" stroke="#63b8ff" d="M1148.83,-313.48C1180.05,-301.29 1237.66,-278.79 1273.5,-264.8"/>
<polygon fill="#63b8ff" stroke="#63b8ff" points="1274.95,-267.99 1283,-261.09 1272.41,-261.47 1274.95,-267.99"/>
</a>
</g>
</g>
<!-- Node34 -->
<g id="Node000034" class="node">
<title>Node34</title>
<g id="a_Node000034"><a xlink:href="_coll_mgr_8_h.html" target="_top" xlink:title=" ">
<polygon fill="white" stroke="#666666" points="1177.5,-261 1072.5,-261 1072.5,-242 1177.5,-242 1177.5,-261"/>
<text text-anchor="middle" x="1125" y="-249" font-family="Helvetica,sans-Serif" font-size="10.00">src/core/CollMgr.H</text>
</a>
</g>
</g>
<!-- Node27&#45;&gt;Node34 -->
<g id="edge45_Node000027_Node000034" class="edge">
<title>Node27&#45;&gt;Node34</title>
<g id="a_edge45_Node000027_Node000034"><a xlink:title=" ">
<path fill="none" stroke="#63b8ff" d="M1126.75,-313.48C1126.45,-303.06 1125.94,-285.11 1125.54,-271.38"/>
<polygon fill="#63b8ff" stroke="#63b8ff" points="1129.03,-270.99 1125.25,-261.09 1122.04,-271.19 1129.03,-270.99"/>
</a>
</g>
</g>
<!-- Node29 -->
<g id="Node000029" class="node">
<title>Node29</title>
<g id="a_Node000029"><a xlink:title=" ">
<polygon fill="#e0e0e0" stroke="#999999" points="1248,-195 1190,-195 1190,-176 1248,-176 1248,-195"/>
<text text-anchor="middle" x="1219" y="-183" font-family="Helvetica,sans-Serif" font-size="10.00">memory</text>
</a>
</g>
</g>
<!-- Node28&#45;&gt;Node29 -->
<g id="edge40_Node000028_Node000029" class="edge">
<title>Node28&#45;&gt;Node29</title>
<g id="a_edge40_Node000028_Node000029"><a xlink:title=" ">
<path fill="none" stroke="#63b8ff" d="M1293.4,-241.87C1279.42,-231.47 1255.71,-213.82 1238.82,-201.25"/>
<polygon fill="#63b8ff" stroke="#63b8ff" points="1240.8,-198.36 1230.69,-195.2 1236.62,-203.98 1240.8,-198.36"/>
</a>
</g>
</g>
<!-- Node30 -->
<g id="Node000030" class="node">
<title>Node30</title>
<g id="a_Node000030"><a xlink:title=" ">
<polygon fill="#e0e0e0" stroke="#999999" points="1171.5,-195 1078.5,-195 1078.5,-176 1171.5,-176 1171.5,-195"/>
<text text-anchor="middle" x="1125" y="-183" font-family="Helvetica,sans-Serif" font-size="10.00">unordered_map</text>
</a>
</g>
</g>
<!-- Node28&#45;&gt;Node30 -->
<g id="edge41_Node000028_Node000030" class="edge">
<title>Node28&#45;&gt;Node30</title>
<g id="a_edge41_Node000028_Node000030"><a xlink:title=" ">
<path fill="none" stroke="#63b8ff" d="M1280.72,-241.87C1249.23,-230.67 1194.14,-211.08 1158.64,-198.46"/>
<polygon fill="#63b8ff" stroke="#63b8ff" points="1159.77,-195.15 1149.18,-195.1 1157.43,-201.74 1159.77,-195.15"/>
</a>
</g>
</g>
<!-- Node31 -->
<g id="Node000031" class="node">
<title>Node31</title>
<g id="a_Node000031"><a xlink:title=" ">
<polygon fill="#e0e0e0" stroke="#999999" points="1514,-195 1454,-195 1454,-176 1514,-176 1514,-195"/>
<text text-anchor="middle" x="1484" y="-183" font-family="Helvetica,sans-Serif" font-size="10.00">iostream</text>
</a>
</g>
</g>
<!-- Node28&#45;&gt;Node31 -->
<g id="edge42_Node000028_Node000031" class="edge">
<title>Node28&#45;&gt;Node31</title>
<g id="a_edge42_Node000028_Node000031"><a xlink:title=" ">
<path fill="none" stroke="#63b8ff" d="M1329.14,-241.87C1360.32,-230.72 1414.77,-211.25 1450.1,-198.62"/>
<polygon fill="#63b8ff" stroke="#63b8ff" points="1451.72,-201.76 1459.96,-195.1 1449.36,-195.17 1451.72,-201.76"/>
</a>
</g>
</g>
<!-- Node32 -->
<g id="Node000032" class="node">
<title>Node32</title>
<g id="a_Node000032"><a xlink:title=" ">
<polygon fill="#e0e0e0" stroke="#999999" points="1356,-195 1266,-195 1266,-176 1356,-176 1356,-195"/>
<text text-anchor="middle" x="1311" y="-183" font-family="Helvetica,sans-Serif" font-size="10.00">AMReX_Print.H</text>
</a>
</g>
</g>
<!-- Node28&#45;&gt;Node32 -->
<g id="edge43_Node000028_Node000032" class="edge">
<title>Node28&#45;&gt;Node32</title>
<g id="a_edge43_Node000028_Node000032"><a xlink:title=" ">
<path fill="none" stroke="#63b8ff" d="M1305.81,-241.87C1306.68,-232.57 1308.1,-217.48 1309.23,-205.4"/>
<polygon fill="#63b8ff" stroke="#63b8ff" points="1312.72,-205.69 1310.17,-195.41 1305.75,-205.03 1312.72,-205.69"/>
</a>
</g>
</g>
<!-- Node33 -->
<g id="Node000033" class="node">
<title>Node33</title>
<g id="a_Node000033"><a xlink:title=" ">
<polygon fill="#e0e0e0" stroke="#999999" points="1436,-195 1374,-195 1374,-176 1436,-176 1436,-195"/>
<text text-anchor="middle" x="1405" y="-183" font-family="Helvetica,sans-Serif" font-size="10.00">AMReX.H</text>
</a>
</g>
</g>
<!-- Node28&#45;&gt;Node33 -->
<g id="edge44_Node000028_Node000033" class="edge">
<title>Node28&#45;&gt;Node33</title>
<g id="a_edge44_Node000028_Node000033"><a xlink:title=" ">
<path fill="none" stroke="#63b8ff" d="M1318.49,-241.87C1334.96,-231.32 1363.07,-213.34 1382.76,-200.73"/>
<polygon fill="#63b8ff" stroke="#63b8ff" points="1384.87,-203.54 1391.41,-195.2 1381.1,-197.64 1384.87,-203.54"/>
</a>
</g>
</g>
<!-- Node34&#45;&gt;Node7 -->
<g id="edge49_Node000034_Node000007" class="edge">
<title>Node34&#45;&gt;Node7</title>
<g id="a_edge49_Node000034_Node000007"><a xlink:title=" ">
<path fill="none" stroke="#63b8ff" d="M1100.66,-241.91C1088.83,-238.04 1074.31,-233.73 1061,-231 938.58,-205.91 792.41,-194.31 712.49,-189.49"/>
<polygon fill="#63b8ff" stroke="#63b8ff" points="712.32,-185.98 702.13,-188.89 711.91,-192.97 712.32,-185.98"/>
</a>
</g>
</g>
<!-- Node34&#45;&gt;Node29 -->
<g id="edge47_Node000034_Node000029" class="edge">
<title>Node34&#45;&gt;Node29</title>
<g id="a_edge47_Node000034_Node000029"><a xlink:title=" ">
<path fill="none" stroke="#63b8ff" d="M1137.68,-241.87C1153.09,-231.37 1179.35,-213.5 1197.85,-200.9"/>
<polygon fill="#63b8ff" stroke="#63b8ff" points="1199.93,-203.72 1206.22,-195.2 1195.99,-197.93 1199.93,-203.72"/>
</a>
</g>
</g>
<!-- Node34&#45;&gt;Node30 -->
<g id="edge48_Node000034_Node000030" class="edge">
<title>Node34&#45;&gt;Node30</title>
<g id="a_edge48_Node000034_Node000030"><a xlink:title=" ">
<path fill="none" stroke="#63b8ff" d="M1125,-241.87C1125,-232.66 1125,-217.79 1125,-205.77"/>
<polygon fill="#63b8ff" stroke="#63b8ff" points="1128.5,-205.41 1125,-195.41 1121.5,-205.41 1128.5,-205.41"/>
</a>
</g>
</g>
<!-- Node35 -->
<g id="Node000035" class="node">
<title>Node35</title>
<g id="a_Node000035"><a xlink:title=" ">
<polygon fill="#e0e0e0" stroke="#999999" points="1060,-195 1016,-195 1016,-176 1060,-176 1060,-195"/>
<text text-anchor="middle" x="1038" y="-183" font-family="Helvetica,sans-Serif" font-size="10.00">string</text>
</a>
</g>
</g>
<!-- Node34&#45;&gt;Node35 -->
<g id="edge46_Node000034_Node000035" class="edge">
<title>Node34&#45;&gt;Node35</title>
<g id="a_edge46_Node000034_Node000035"><a xlink:title=" ">
<path fill="none" stroke="#63b8ff" d="M1113.27,-241.87C1099.13,-231.47 1075.14,-213.82 1058.05,-201.25"/>
<polygon fill="#63b8ff" stroke="#63b8ff" points="1059.95,-198.31 1049.83,-195.2 1055.81,-203.94 1059.95,-198.31"/>
</a>
</g>
</g>
<!-- Node36&#45;&gt;Node20 -->
<g id="edge53_Node000036_Node000020" class="edge">
<title>Node36&#45;&gt;Node20</title>
<g id="a_edge53_Node000036_Node000020"><a xlink:title=" ">
<path fill="none" stroke="#63b8ff" d="M963.42,-230.83C955.09,-220.69 945.55,-207.8 939,-195 909.35,-137.05 931.7,-109.43 896,-55 888.26,-43.2 876.51,-32.77 866.14,-24.98"/>
<polygon fill="#63b8ff" stroke="#63b8ff" points="868.04,-22.04 857.87,-19.09 863.98,-27.74 868.04,-22.04"/>
</a>
</g>
</g>
<!-- Node36&#45;&gt;Node35 -->
<g id="edge51_Node000036_Node000035" class="edge">
<title>Node36&#45;&gt;Node35</title>
<g id="a_edge51_Node000036_Node000035"><a xlink:title=" ">
<path fill="none" stroke="#63b8ff" d="M998.41,-230.95C1006.45,-221.92 1015.88,-211.33 1023.52,-202.75"/>
<polygon fill="#63b8ff" stroke="#63b8ff" points="1026.16,-205.06 1030.2,-195.26 1020.93,-200.4 1026.16,-205.06"/>
</a>
</g>
</g>
<!-- Node37 -->
<g id="Node000037" class="node">
<title>Node37</title>
<g id="a_Node000037"><a xlink:title=" ">
<polygon fill="#e0e0e0" stroke="#999999" points="998,-195 948,-195 948,-176 998,-176 998,-195"/>
<text text-anchor="middle" x="973" y="-183" font-family="Helvetica,sans-Serif" font-size="10.00">cstdint</text>
</a>
</g>
</g>
<!-- Node36&#45;&gt;Node37 -->
<g id="edge52_Node000036_Node000037" class="edge">
<title>Node36&#45;&gt;Node37</title>
<g id="a_edge52_Node000036_Node000037"><a xlink:title=" ">
<path fill="none" stroke="#63b8ff" d="M978.56,-230.95C977.53,-222.76 976.35,-213.28 975.34,-205.19"/>
<polygon fill="#63b8ff" stroke="#63b8ff" points="978.81,-204.75 974.1,-195.26 971.86,-205.62 978.81,-204.75"/>
</a>
</g>
</g>
<!-- Node38&#45;&gt;Node20 -->
<g id="edge61_Node000038_Node000020" class="edge">
<title>Node38&#45;&gt;Node20</title>
<g id="a_edge61_Node000038_Node000020"><a xlink:title=" ">
<path fill="none" stroke="#63b8ff" d="M1342.23,-316.68C1422.23,-306.34 1542,-275.92 1542,-186.5 1542,-186.5 1542,-186.5 1542,-129.5 1542,-64.52 1065.81,-25.7 900.06,-14.15"/>
<polygon fill="#63b8ff" stroke="#63b8ff" points="900.28,-10.66 890.07,-13.46 899.8,-17.64 900.28,-10.66"/>
</a>
</g>
</g>
<!-- Node38&#45;&gt;Node35 -->
<g id="edge60_Node000038_Node000035" class="edge">
<title>Node38&#45;&gt;Node35</title>
<g id="a_edge60_Node000038_Node000035"><a xlink:title=" ">
<path fill="none" stroke="#63b8ff" d="M1262.48,-307.79C1248.34,-287.75 1219.89,-251.39 1187,-231 1176.93,-224.76 1110.55,-206.14 1069.87,-195.06"/>
<polygon fill="#63b8ff" stroke="#63b8ff" points="1070.69,-191.66 1060.12,-192.42 1068.86,-198.41 1070.69,-191.66"/>
</a>
</g>
</g>
<!-- Node38&#45;&gt;Node36 -->
<g id="edge59_Node000038_Node000036" class="edge">
<title>Node38&#45;&gt;Node36</title>
<g id="a_edge59_Node000038_Node000036"><a xlink:title=" ">
<path fill="none" stroke="#63b8ff" d="M1213.11,-307.94C1169.45,-297.51 1109.43,-283.17 1061.37,-271.69"/>
<polygon fill="#63b8ff" stroke="#63b8ff" points="1062.15,-268.28 1051.61,-269.36 1060.52,-275.09 1062.15,-268.28"/>
</a>
</g>
</g>
<!-- Node39 -->
<g id="Node000039" class="node">
<title>Node39</title>
<g id="a_Node000039"><a xlink:href="fast__wrapper_8_h.html" target="_top" xlink:title=" ">
<polygon fill="white" stroke="#666666" points="1722,-266.5 1570,-266.5 1570,-236.5 1722,-236.5 1722,-266.5"/>
<text text-anchor="start" x="1578" y="-254.5" font-family="Helvetica,sans-Serif" font-size="10.00">src/wind_energy/actuator</text>
<text text-anchor="middle" x="1646" y="-243.5" font-family="Helvetica,sans-Serif" font-size="10.00">/turbine/fast/fast_wrapper.H</text>
</a>
</g>
</g>
<!-- Node38&#45;&gt;Node39 -->
<g id="edge58_Node000038_Node000039" class="edge">
<title>Node38&#45;&gt;Node39</title>
<g id="a_edge58_Node000038_Node000039"><a xlink:title=" ">
<path fill="none" stroke="#63b8ff" d="M1342.17,-310.43C1399.73,-300.75 1483.29,-286.27 1556,-272 1561.39,-270.94 1566.96,-269.82 1572.56,-268.66"/>
<polygon fill="#63b8ff" stroke="#63b8ff" points="1573.56,-272.03 1582.64,-266.55 1572.13,-265.17 1573.56,-272.03"/>
</a>
</g>
</g>
</g>
</svg>

<g id="navigator" transform="translate(0 0)" fill="#404254">
  <rect fill="#f2f5e9" fill-opacity="0.5" stroke="#606060" stroke-width=".5" x="0" y="0" width="60" height="60"/>
  <use id="zoomplus" xlink:href="#zoomPlus" x="17" y="9" onmousedown="handleZoom(evt,'in')"/>
  <use id="zoomminus" xlink:href="#zoomMin" x="42" y="9" onmousedown="handleZoom(evt,'out')"/>
  <use id="reset" xlink:href="#resetDef" x="30" y="36" onmousedown="handleReset()"/>
   <use id="arrowup" xlink:href="#arrowUp" x="0" y="0" onmousedown="handlePan(0,-1)"/>
  <use id="arrowright" xlink:href="#arrowRight" x="0" y="0" onmousedown="handlePan(1,0)"/>
  <use id="arrowdown" xlink:href="#arrowDown" x="0" y="0" onmousedown="handlePan(0,1)"/>
  <use id="arrowleft" xlink:href="#arrowLeft" x="0" y="0" onmousedown="handlePan(-1,0)"/>
</g>
<svg viewBox="0 0 15 15" width="100%" height="30px" preserveAspectRatio="xMaxYMin meet">
 <g id="arrow_out" transform="scale(0.3 0.3)">
  <a xlink:href="_turbine_fast_8_h__incl_org.svg" target="_base">
   <rect id="button" ry="5" rx="5" y="6" x="6" height="38" width="38"
        fill="#f2f5e9" fill-opacity="0.5" stroke="#606060" stroke-width="1.0"/>
   <path id="arrow"
     d="M 11.500037,31.436501 C 11.940474,20.09759 22.043105,11.32322 32.158766,21.979434 L 37.068811,17.246167 C 37.068811,17.246167 37.088388,32 37.088388,32 L 22.160133,31.978069 C 22.160133,31.978069 26.997745,27.140456 26.997745,27.140456 C 18.528582,18.264221 13.291696,25.230495 11.500037,31.436501 z"
     style="fill:#404040;"/>
  </a>
 </g>
</svg>

<style type='text/css'>
<![CDATA[
[data-mouse-over-selected='false'] { opacity: 0.7; }
[data-mouse-over-selected='true']  { opacity: 1.0; }
]]>
</style>
<script type="application/ecmascript"><![CDATA[
document.addEventListener('DOMContentLoaded', (event) => {
  highlightEdges();
  highlightAdjacentNodes();
});
]]></script>
</svg>
