<?xml version="1.0" encoding="UTF-8" standalone="no"?>
<!DOCTYPE svg PUBLIC "-//W3C//DTD SVG 1.1//EN"
 "http://www.w3.org/Graphics/SVG/1.1/DTD/svg11.dtd">
<!-- Generated by graphviz version 2.43.0 (0)
 -->
<!-- Title: /home/runner/work/amr&#45;wind/amr&#45;wind/src/wind_energy/actuator/actuator_utils.cpp Pages: 1 -->
<svg width="1354pt" height="423pt"
 viewBox="0.00 0.00 1354.00 423.00" xmlns="http://www.w3.org/2000/svg" xmlns:xlink="http://www.w3.org/1999/xlink">
<g id="graph0" class="graph" transform="scale(1 1) rotate(0) translate(4 419)">
<title>/home/runner/work/amr&#45;wind/amr&#45;wind/src/wind_energy/actuator/actuator_utils.cpp</title>
<!-- Node1 -->
<g id="Node000001" class="node">
<title>Node1</title>
<g id="a_Node000001"><a xlink:title=" ">
<polygon fill="#999999" stroke="#666666" points="624.5,-415 481.5,-415 481.5,-363 624.5,-363 624.5,-415"/>
<text text-anchor="start" x="489.5" y="-403" font-family="Helvetica,sans-Serif" font-size="10.00">/home/runner/work/amr</text>
<text text-anchor="start" x="489.5" y="-392" font-family="Helvetica,sans-Serif" font-size="10.00">&#45;wind/amr&#45;wind/src/wind</text>
<text text-anchor="start" x="489.5" y="-381" font-family="Helvetica,sans-Serif" font-size="10.00">_energy/actuator/actuator</text>
<text text-anchor="middle" x="553" y="-370" font-family="Helvetica,sans-Serif" font-size="10.00">_utils.cpp</text>
</a>
</g>
</g>
<!-- Node2 -->
<g id="Node000002" class="node">
<title>Node2</title>
<g id="a_Node000002"><a xlink:title=" ">
<polygon fill="#e0e0e0" stroke="#999999" points="64,-195 0,-195 0,-176 64,-176 64,-195"/>
<text text-anchor="middle" x="32" y="-183" font-family="Helvetica,sans-Serif" font-size="10.00">algorithm</text>
</a>
</g>
</g>
<!-- Node1&#45;&gt;Node2 -->
<g id="edge1_Node000001_Node000002" class="edge">
<title>Node1&#45;&gt;Node2</title>
<g id="a_edge1_Node000001_Node000002"><a xlink:title=" ">
<path fill="none" stroke="#63b8ff" d="M481.12,-385.04C381.43,-377.58 199.75,-351.55 78,-261 58.71,-246.65 45.69,-221.59 38.57,-204.54"/>
<polygon fill="#63b8ff" stroke="#63b8ff" points="41.79,-203.16 34.88,-195.12 35.27,-205.71 41.79,-203.16"/>
</a>
</g>
</g>
<!-- Node3 -->
<g id="Node000003" class="node">
<title>Node3</title>
<g id="a_Node000003"><a xlink:href="actuator__utils_8_h.html" target="_top" xlink:title=" ">
<polygon fill="white" stroke="#666666" points="623,-327 483,-327 483,-297 623,-297 623,-327"/>
<text text-anchor="start" x="491" y="-315" font-family="Helvetica,sans-Serif" font-size="10.00">src/wind_energy/actuator</text>
<text text-anchor="middle" x="553" y="-304" font-family="Helvetica,sans-Serif" font-size="10.00">/actuator_utils.H</text>
</a>
</g>
</g>
<!-- Node1&#45;&gt;Node3 -->
<g id="edge2_Node000001_Node000003" class="edge">
<title>Node1&#45;&gt;Node3</title>
<g id="a_edge2_Node000001_Node000003"><a xlink:title=" ">
<path fill="none" stroke="#63b8ff" d="M553,-362.61C553,-354.54 553,-345.64 553,-337.63"/>
<polygon fill="#63b8ff" stroke="#63b8ff" points="556.5,-337.43 553,-327.43 549.5,-337.43 556.5,-337.43"/>
</a>
</g>
</g>
<!-- Node25 -->
<g id="Node000025" class="node">
<title>Node25</title>
<g id="a_Node000025"><a xlink:href="actuator__types_8_h.html" target="_top" xlink:title=" ">
<polygon fill="white" stroke="#666666" points="924,-327 784,-327 784,-297 924,-297 924,-327"/>
<text text-anchor="start" x="792" y="-315" font-family="Helvetica,sans-Serif" font-size="10.00">src/wind_energy/actuator</text>
<text text-anchor="middle" x="854" y="-304" font-family="Helvetica,sans-Serif" font-size="10.00">/actuator_types.H</text>
</a>
</g>
</g>
<!-- Node1&#45;&gt;Node25 -->
<g id="edge36_Node000001_Node000025" class="edge">
<title>Node1&#45;&gt;Node25</title>
<g id="a_edge36_Node000001_Node000025"><a xlink:title=" ">
<path fill="none" stroke="#63b8ff" d="M624.71,-370.13C674.17,-357.81 739.43,-341.55 787.68,-329.53"/>
<polygon fill="#63b8ff" stroke="#63b8ff" points="788.54,-332.92 797.4,-327.1 786.85,-326.13 788.54,-332.92"/>
</a>
</g>
</g>
<!-- Node4 -->
<g id="Node000004" class="node">
<title>Node4</title>
<g id="a_Node000004"><a xlink:title=" ">
<polygon fill="#e0e0e0" stroke="#999999" points="748,-255.5 716,-255.5 716,-236.5 748,-236.5 748,-255.5"/>
<text text-anchor="middle" x="732" y="-243.5" font-family="Helvetica,sans-Serif" font-size="10.00">set</text>
</a>
</g>
</g>
<!-- Node3&#45;&gt;Node4 -->
<g id="edge3_Node000003_Node000004" class="edge">
<title>Node3&#45;&gt;Node4</title>
<g id="a_edge3_Node000003_Node000004"><a xlink:title=" ">
<path fill="none" stroke="#63b8ff" d="M599.47,-296.9C629.11,-287.53 668.17,-274.52 702,-261 703.58,-260.37 705.19,-259.7 706.81,-259"/>
<polygon fill="#63b8ff" stroke="#63b8ff" points="708.27,-262.19 715.95,-254.89 705.4,-255.8 708.27,-262.19"/>
</a>
</g>
</g>
<!-- Node5 -->
<g id="Node000005" class="node">
<title>Node5</title>
<g id="a_Node000005"><a xlink:title=" ">
<polygon fill="#e0e0e0" stroke="#999999" points="838.5,-19 791.5,-19 791.5,0 838.5,0 838.5,-19"/>
<text text-anchor="middle" x="815" y="-7" font-family="Helvetica,sans-Serif" font-size="10.00">cmath</text>
</a>
</g>
</g>
<!-- Node3&#45;&gt;Node5 -->
<g id="edge4_Node000003_Node000005" class="edge">
<title>Node3&#45;&gt;Node5</title>
<g id="a_edge4_Node000003_Node000005"><a xlink:title=" ">
<path fill="none" stroke="#63b8ff" d="M580.51,-296.8C633.26,-269.37 744.56,-210.41 757,-195 797.73,-144.55 810.01,-65.23 813.59,-29.3"/>
<polygon fill="#63b8ff" stroke="#63b8ff" points="817.09,-29.52 814.47,-19.25 810.11,-28.91 817.09,-29.52"/>
</a>
</g>
</g>
<!-- Node6 -->
<g id="Node000006" class="node">
<title>Node6</title>
<g id="a_Node000006"><a xlink:href="vector__space_8_h.html" target="_top" xlink:title=" ">
<polygon fill="white" stroke="#666666" points="945.5,-261 842.5,-261 842.5,-231 945.5,-231 945.5,-261"/>
<text text-anchor="start" x="850.5" y="-249" font-family="Helvetica,sans-Serif" font-size="10.00">src/core/vs/vector</text>
<text text-anchor="middle" x="894" y="-238" font-family="Helvetica,sans-Serif" font-size="10.00">_space.H</text>
</a>
</g>
</g>
<!-- Node3&#45;&gt;Node6 -->
<g id="edge5_Node000003_Node000006" class="edge">
<title>Node3&#45;&gt;Node6</title>
<g id="a_edge5_Node000003_Node000006"><a xlink:title=" ">
<path fill="none" stroke="#63b8ff" d="M623.24,-297.82C684.89,-286.25 773.67,-269.58 832.55,-258.53"/>
<polygon fill="#63b8ff" stroke="#63b8ff" points="833.27,-261.96 842.45,-256.67 831.98,-255.08 833.27,-261.96"/>
</a>
</g>
</g>
<!-- Node17 -->
<g id="Node000017" class="node">
<title>Node17</title>
<g id="a_Node000017"><a xlink:title=" ">
<polygon fill="#e0e0e0" stroke="#999999" points="474,-19 382,-19 382,0 474,0 474,-19"/>
<text text-anchor="middle" x="428" y="-7" font-family="Helvetica,sans-Serif" font-size="10.00">AMReX_REAL.H</text>
</a>
</g>
</g>
<!-- Node3&#45;&gt;Node17 -->
<g id="edge35_Node000003_Node000017" class="edge">
<title>Node3&#45;&gt;Node17</title>
<g id="a_edge35_Node000003_Node000017"><a xlink:title=" ">
<path fill="none" stroke="#63b8ff" d="M482.98,-306.63C354.02,-296.64 92,-266.5 92,-186.5 92,-186.5 92,-186.5 92,-129.5 92,-72.28 144.38,-77.48 197,-55 253.51,-30.86 323.39,-19.72 371.4,-14.65"/>
<polygon fill="#63b8ff" stroke="#63b8ff" points="372,-18.1 381.6,-13.62 371.3,-11.14 372,-18.1"/>
</a>
</g>
</g>
<!-- Node18 -->
<g id="Node000018" class="node">
<title>Node18</title>
<g id="a_Node000018"><a xlink:href="index__operations_8_h.html" target="_top" xlink:title=" ">
<polygon fill="white" stroke="#666666" points="501.5,-261 400.5,-261 400.5,-231 501.5,-231 501.5,-261"/>
<text text-anchor="start" x="408.5" y="-249" font-family="Helvetica,sans-Serif" font-size="10.00">src/utilities/index</text>
<text text-anchor="middle" x="451" y="-238" font-family="Helvetica,sans-Serif" font-size="10.00">_operations.H</text>
</a>
</g>
</g>
<!-- Node3&#45;&gt;Node18 -->
<g id="edge26_Node000003_Node000018" class="edge">
<title>Node3&#45;&gt;Node18</title>
<g id="a_edge26_Node000003_Node000018"><a xlink:title=" ">
<path fill="none" stroke="#63b8ff" d="M530.62,-296.95C516.4,-288.03 497.8,-276.36 482.15,-266.54"/>
<polygon fill="#63b8ff" stroke="#63b8ff" points="483.66,-263.36 473.33,-261.01 479.94,-269.29 483.66,-263.36"/>
</a>
</g>
</g>
<!-- Node24 -->
<g id="Node000024" class="node">
<title>Node24</title>
<g id="a_Node000024"><a xlink:title=" ">
<polygon fill="#e0e0e0" stroke="#999999" points="382,-255.5 272,-255.5 272,-236.5 382,-236.5 382,-255.5"/>
<text text-anchor="middle" x="327" y="-243.5" font-family="Helvetica,sans-Serif" font-size="10.00">AMReX_AmrCore.H</text>
</a>
</g>
</g>
<!-- Node3&#45;&gt;Node24 -->
<g id="edge34_Node000003_Node000024" class="edge">
<title>Node3&#45;&gt;Node24</title>
<g id="a_edge34_Node000003_Node000024"><a xlink:title=" ">
<path fill="none" stroke="#63b8ff" d="M503.4,-296.95C462.37,-285.34 404.85,-269.05 366.79,-258.27"/>
<polygon fill="#63b8ff" stroke="#63b8ff" points="367.65,-254.87 357.08,-255.52 365.74,-261.61 367.65,-254.87"/>
</a>
</g>
</g>
<!-- Node7 -->
<g id="Node000007" class="node">
<title>Node7</title>
<g id="a_Node000007"><a xlink:href="vector_8_h.html" target="_top" xlink:title=" ">
<polygon fill="white" stroke="#666666" points="1167.5,-140 1054.5,-140 1054.5,-121 1167.5,-121 1167.5,-140"/>
<text text-anchor="middle" x="1111" y="-128" font-family="Helvetica,sans-Serif" font-size="10.00">src/core/vs/vector.H</text>
</a>
</g>
</g>
<!-- Node6&#45;&gt;Node7 -->
<g id="edge6_Node000006_Node000007" class="edge">
<title>Node6&#45;&gt;Node7</title>
<g id="a_edge6_Node000006_Node000007"><a xlink:title=" ">
<path fill="none" stroke="#63b8ff" d="M921.04,-230.85C963.31,-208.75 1044.44,-166.31 1085.65,-144.76"/>
<polygon fill="#63b8ff" stroke="#63b8ff" points="1087.27,-147.86 1094.51,-140.12 1084.03,-141.66 1087.27,-147.86"/>
</a>
</g>
</g>
<!-- Node13 -->
<g id="Node000013" class="node">
<title>Node13</title>
<g id="a_Node000013"><a xlink:href="tensor_8_h.html" target="_top" xlink:title=" ">
<polygon fill="white" stroke="#666666" points="964.5,-195 851.5,-195 851.5,-176 964.5,-176 964.5,-195"/>
<text text-anchor="middle" x="908" y="-183" font-family="Helvetica,sans-Serif" font-size="10.00">src/core/vs/tensor.H</text>
</a>
</g>
</g>
<!-- Node6&#45;&gt;Node13 -->
<g id="edge14_Node000006_Node000013" class="edge">
<title>Node6&#45;&gt;Node13</title>
<g id="a_edge14_Node000006_Node000013"><a xlink:title=" ">
<path fill="none" stroke="#63b8ff" d="M897.39,-230.84C899.23,-223.13 901.54,-213.49 903.53,-205.17"/>
<polygon fill="#63b8ff" stroke="#63b8ff" points="906.98,-205.81 905.9,-195.27 900.17,-204.18 906.98,-205.81"/>
</a>
</g>
</g>
<!-- Node8 -->
<g id="Node000008" class="node">
<title>Node8</title>
<g id="a_Node000008"><a xlink:title=" ">
<polygon fill="#e0e0e0" stroke="#999999" points="1313.5,-19 1226.5,-19 1226.5,0 1313.5,0 1313.5,-19"/>
<text text-anchor="middle" x="1270" y="-7" font-family="Helvetica,sans-Serif" font-size="10.00">AMReX_Gpu.H</text>
</a>
</g>
</g>
<!-- Node7&#45;&gt;Node8 -->
<g id="edge7_Node000007_Node000008" class="edge">
<title>Node7&#45;&gt;Node8</title>
<g id="a_edge7_Node000007_Node000008"><a xlink:title=" ">
<path fill="none" stroke="#63b8ff" d="M1140.82,-120.95C1162.38,-113.76 1191.4,-101.92 1213,-85 1233.15,-69.22 1250.04,-44.74 1260.08,-28.18"/>
<polygon fill="#63b8ff" stroke="#63b8ff" points="1263.14,-29.88 1265.17,-19.48 1257.1,-26.34 1263.14,-29.88"/>
</a>
</g>
</g>
<!-- Node9 -->
<g id="Node000009" class="node">
<title>Node9</title>
<g id="a_Node000009"><a xlink:href="vstraits_8_h.html" target="_top" xlink:title=" ">
<polygon fill="white" stroke="#666666" points="1069.5,-79.5 950.5,-79.5 950.5,-60.5 1069.5,-60.5 1069.5,-79.5"/>
<text text-anchor="middle" x="1010" y="-67.5" font-family="Helvetica,sans-Serif" font-size="10.00">src/core/vs/vstraits.H</text>
</a>
</g>
</g>
<!-- Node7&#45;&gt;Node9 -->
<g id="edge8_Node000007_Node000009" class="edge">
<title>Node7&#45;&gt;Node9</title>
<g id="a_edge8_Node000007_Node000009"><a xlink:title=" ">
<path fill="none" stroke="#63b8ff" d="M1096.1,-120.87C1079.69,-111.36 1053.07,-95.95 1033.77,-84.77"/>
<polygon fill="#63b8ff" stroke="#63b8ff" points="1035.37,-81.65 1024.96,-79.67 1031.86,-87.71 1035.37,-81.65"/>
</a>
</g>
</g>
<!-- Node11 -->
<g id="Node000011" class="node">
<title>Node11</title>
<g id="a_Node000011"><a xlink:href="vector_i_8_h.html" target="_top" xlink:title=" ">
<polygon fill="white" stroke="#666666" points="1204,-79.5 1088,-79.5 1088,-60.5 1204,-60.5 1204,-79.5"/>
<text text-anchor="middle" x="1146" y="-67.5" font-family="Helvetica,sans-Serif" font-size="10.00">src/core/vs/vectorI.H</text>
</a>
</g>
</g>
<!-- Node7&#45;&gt;Node11 -->
<g id="edge10_Node000007_Node000011" class="edge">
<title>Node7&#45;&gt;Node11</title>
<g id="a_edge10_Node000007_Node000011"><a xlink:title=" ">
<path fill="none" stroke="#63b8ff" d="M1111.21,-120.87C1114.51,-112.23 1122.19,-98.7 1129.69,-87.92"/>
<polygon fill="#63b8ff" stroke="#63b8ff" points="1132.67,-89.77 1135.85,-79.67 1127.06,-85.59 1132.67,-89.77"/>
</a>
</g>
</g>
<!-- Node10 -->
<g id="Node000010" class="node">
<title>Node10</title>
<g id="a_Node000010"><a xlink:title=" ">
<polygon fill="#e0e0e0" stroke="#999999" points="1032,-19 988,-19 988,0 1032,0 1032,-19"/>
<text text-anchor="middle" x="1010" y="-7" font-family="Helvetica,sans-Serif" font-size="10.00">limits</text>
</a>
</g>
</g>
<!-- Node9&#45;&gt;Node10 -->
<g id="edge9_Node000009_Node000010" class="edge">
<title>Node9&#45;&gt;Node10</title>
<g id="a_edge9_Node000009_Node000010"><a xlink:title=" ">
<path fill="none" stroke="#63b8ff" d="M1010,-60.37C1010,-52.25 1010,-39.81 1010,-29.39"/>
<polygon fill="#63b8ff" stroke="#63b8ff" points="1013.5,-29.17 1010,-19.17 1006.5,-29.17 1013.5,-29.17"/>
</a>
</g>
</g>
<!-- Node11&#45;&gt;Node5 -->
<g id="edge12_Node000011_Node000005" class="edge">
<title>Node11&#45;&gt;Node5</title>
<g id="a_edge12_Node000011_Node000005"><a xlink:title=" ">
<path fill="none" stroke="#63b8ff" d="M1106.74,-60.45C1097.65,-58.57 1088,-56.64 1079,-55 977.22,-36.41 950.4,-39.57 849,-19 848.9,-18.98 848.79,-18.96 848.69,-18.94"/>
<polygon fill="#63b8ff" stroke="#63b8ff" points="849.24,-15.47 838.72,-16.72 847.72,-22.31 849.24,-15.47"/>
</a>
</g>
</g>
<!-- Node11&#45;&gt;Node7 -->
<g id="edge13_Node000011_Node000007" class="edge">
<title>Node11&#45;&gt;Node7</title>
<g id="a_edge13_Node000011_Node000007"><a xlink:title=" ">
<path fill="none" stroke="#63b8ff" d="M1145.78,-79.67C1142.46,-88.32 1134.78,-101.85 1127.28,-112.63"/>
<polygon fill="#63b8ff" stroke="#63b8ff" points="1124.3,-110.76 1121.12,-120.87 1129.91,-114.95 1124.3,-110.76"/>
</a>
</g>
</g>
<!-- Node12 -->
<g id="Node000012" class="node">
<title>Node12</title>
<g id="a_Node000012"><a xlink:title=" ">
<polygon fill="#e0e0e0" stroke="#999999" points="1174.5,-19 1117.5,-19 1117.5,0 1174.5,0 1174.5,-19"/>
<text text-anchor="middle" x="1146" y="-7" font-family="Helvetica,sans-Serif" font-size="10.00">ostream</text>
</a>
</g>
</g>
<!-- Node11&#45;&gt;Node12 -->
<g id="edge11_Node000011_Node000012" class="edge">
<title>Node11&#45;&gt;Node12</title>
<g id="a_edge11_Node000011_Node000012"><a xlink:title=" ">
<path fill="none" stroke="#63b8ff" d="M1146,-60.37C1146,-52.25 1146,-39.81 1146,-29.39"/>
<polygon fill="#63b8ff" stroke="#63b8ff" points="1149.5,-29.17 1146,-19.17 1142.5,-29.17 1149.5,-29.17"/>
</a>
</g>
</g>
<!-- Node13&#45;&gt;Node7 -->
<g id="edge17_Node000013_Node000007" class="edge">
<title>Node13&#45;&gt;Node7</title>
<g id="a_edge17_Node000013_Node000007"><a xlink:title=" ">
<path fill="none" stroke="#63b8ff" d="M940.62,-175.98C975.29,-166.93 1030.26,-152.58 1068.35,-142.64"/>
<polygon fill="#63b8ff" stroke="#63b8ff" points="1069.34,-145.99 1078.13,-140.08 1067.57,-139.22 1069.34,-145.99"/>
</a>
</g>
</g>
<!-- Node13&#45;&gt;Node8 -->
<g id="edge15_Node000013_Node000008" class="edge">
<title>Node13&#45;&gt;Node8</title>
<g id="a_edge15_Node000013_Node000008"><a xlink:title=" ">
<path fill="none" stroke="#63b8ff" d="M964.56,-178.77C1032,-171.31 1140.22,-157.18 1177,-140 1210.98,-124.13 1219.33,-115.61 1241,-85 1253.12,-67.88 1261.04,-45.01 1265.49,-29.15"/>
<polygon fill="#63b8ff" stroke="#63b8ff" points="1268.88,-30 1268.03,-19.44 1262.11,-28.23 1268.88,-30"/>
</a>
</g>
</g>
<!-- Node13&#45;&gt;Node9 -->
<g id="edge16_Node000013_Node000009" class="edge">
<title>Node13&#45;&gt;Node9</title>
<g id="a_edge16_Node000013_Node000009"><a xlink:title=" ">
<path fill="none" stroke="#63b8ff" d="M920.68,-175.89C932.44,-167.54 950.02,-154.09 963,-140 977.68,-124.06 991.24,-103.21 999.99,-88.61"/>
<polygon fill="#63b8ff" stroke="#63b8ff" points="1003.2,-90.05 1005.23,-79.65 997.16,-86.52 1003.2,-90.05"/>
</a>
</g>
</g>
<!-- Node14 -->
<g id="Node000014" class="node">
<title>Node14</title>
<g id="a_Node000014"><a xlink:href="tensor_i_8_h.html" target="_top" xlink:title=" ">
<polygon fill="white" stroke="#666666" points="954,-140 838,-140 838,-121 954,-121 954,-140"/>
<text text-anchor="middle" x="896" y="-128" font-family="Helvetica,sans-Serif" font-size="10.00">src/core/vs/tensorI.H</text>
</a>
</g>
</g>
<!-- Node13&#45;&gt;Node14 -->
<g id="edge18_Node000013_Node000014" class="edge">
<title>Node13&#45;&gt;Node14</title>
<g id="a_edge18_Node000013_Node000014"><a xlink:title=" ">
<path fill="none" stroke="#63b8ff" d="M900.85,-175.75C897.79,-168.8 895.09,-158.85 893.74,-150.13"/>
<polygon fill="#63b8ff" stroke="#63b8ff" points="897.22,-149.73 892.81,-140.09 890.25,-150.37 897.22,-149.73"/>
</a>
</g>
</g>
<!-- Node14&#45;&gt;Node5 -->
<g id="edge19_Node000014_Node000005" class="edge">
<title>Node14&#45;&gt;Node5</title>
<g id="a_edge19_Node000014_Node000005"><a xlink:title=" ">
<path fill="none" stroke="#63b8ff" d="M877.18,-120.87C862.93,-113.37 843.98,-101.18 833,-85 821.69,-68.35 817.46,-45.36 815.9,-29.34"/>
<polygon fill="#63b8ff" stroke="#63b8ff" points="819.37,-28.82 815.16,-19.1 812.39,-29.32 819.37,-28.82"/>
</a>
</g>
</g>
<!-- Node14&#45;&gt;Node13 -->
<g id="edge20_Node000014_Node000013" class="edge">
<title>Node14&#45;&gt;Node13</title>
<g id="a_edge20_Node000014_Node000013"><a xlink:title=" ">
<path fill="none" stroke="#63b8ff" d="M903.08,-140.09C906.15,-146.99 908.85,-156.93 910.23,-165.66"/>
<polygon fill="#63b8ff" stroke="#63b8ff" points="906.76,-166.12 911.18,-175.75 913.72,-165.46 906.76,-166.12"/>
</a>
</g>
</g>
<!-- Node15 -->
<g id="Node000015" class="node">
<title>Node15</title>
<g id="a_Node000015"><a xlink:href="trig__ops_8_h.html" target="_top" xlink:title=" ">
<polygon fill="white" stroke="#666666" points="932,-85 842,-85 842,-55 932,-55 932,-85"/>
<text text-anchor="start" x="850" y="-73" font-family="Helvetica,sans-Serif" font-size="10.00">src/utilities/trig</text>
<text text-anchor="middle" x="887" y="-62" font-family="Helvetica,sans-Serif" font-size="10.00">_ops.H</text>
</a>
</g>
</g>
<!-- Node14&#45;&gt;Node15 -->
<g id="edge21_Node000014_Node000015" class="edge">
<title>Node14&#45;&gt;Node15</title>
<g id="a_edge21_Node000014_Node000015"><a xlink:title=" ">
<path fill="none" stroke="#63b8ff" d="M894.67,-120.87C893.63,-114.11 892.13,-104.35 890.73,-95.26"/>
<polygon fill="#63b8ff" stroke="#63b8ff" points="894.15,-94.47 889.17,-85.11 887.23,-95.53 894.15,-94.47"/>
</a>
</g>
</g>
<!-- Node15&#45;&gt;Node5 -->
<g id="edge22_Node000015_Node000005" class="edge">
<title>Node15&#45;&gt;Node5</title>
<g id="a_edge22_Node000015_Node000005"><a xlink:title=" ">
<path fill="none" stroke="#63b8ff" d="M869.57,-54.84C858.69,-46 844.7,-34.63 833.61,-25.62"/>
<polygon fill="#63b8ff" stroke="#63b8ff" points="835.76,-22.86 825.79,-19.27 831.34,-28.29 835.76,-22.86"/>
</a>
</g>
</g>
<!-- Node15&#45;&gt;Node8 -->
<g id="edge25_Node000015_Node000008" class="edge">
<title>Node15&#45;&gt;Node8</title>
<g id="a_edge25_Node000015_Node000008"><a xlink:title=" ">
<path fill="none" stroke="#63b8ff" d="M932.23,-57.05C935.53,-56.31 938.81,-55.62 942,-55 1037.98,-36.34 1151.27,-22.82 1216.46,-15.86"/>
<polygon fill="#63b8ff" stroke="#63b8ff" points="1216.92,-19.33 1226.5,-14.8 1216.19,-12.37 1216.92,-19.33"/>
</a>
</g>
</g>
<!-- Node16 -->
<g id="Node000016" class="node">
<title>Node16</title>
<g id="a_Node000016"><a xlink:title=" ">
<polygon fill="#e0e0e0" stroke="#999999" points="916.5,-19 857.5,-19 857.5,0 916.5,0 916.5,-19"/>
<text text-anchor="middle" x="887" y="-7" font-family="Helvetica,sans-Serif" font-size="10.00">numbers</text>
</a>
</g>
</g>
<!-- Node15&#45;&gt;Node16 -->
<g id="edge23_Node000015_Node000016" class="edge">
<title>Node15&#45;&gt;Node16</title>
<g id="a_edge23_Node000015_Node000016"><a xlink:title=" ">
<path fill="none" stroke="#63b8ff" d="M887,-54.84C887,-47.21 887,-37.7 887,-29.45"/>
<polygon fill="#63b8ff" stroke="#63b8ff" points="890.5,-29.27 887,-19.27 883.5,-29.27 890.5,-29.27"/>
</a>
</g>
</g>
<!-- Node15&#45;&gt;Node17 -->
<g id="edge24_Node000015_Node000017" class="edge">
<title>Node15&#45;&gt;Node17</title>
<g id="a_edge24_Node000015_Node000017"><a xlink:title=" ">
<path fill="none" stroke="#63b8ff" d="M841.73,-63.23C757.37,-52.48 576.33,-29.4 484.26,-17.67"/>
<polygon fill="#63b8ff" stroke="#63b8ff" points="484.65,-14.19 474.29,-16.4 483.77,-21.14 484.65,-14.19"/>
</a>
</g>
</g>
<!-- Node18&#45;&gt;Node2 -->
<g id="edge27_Node000018_Node000002" class="edge">
<title>Node18&#45;&gt;Node2</title>
<g id="a_edge27_Node000018_Node000002"><a xlink:title=" ">
<path fill="none" stroke="#63b8ff" d="M400.34,-232.78C397.19,-232.14 394.05,-231.54 391,-231 331.01,-220.31 155.71,-200.26 74.37,-191.18"/>
<polygon fill="#63b8ff" stroke="#63b8ff" points="74.33,-187.65 64,-190.03 73.55,-194.61 74.33,-187.65"/>
</a>
</g>
</g>
<!-- Node18&#45;&gt;Node17 -->
<g id="edge28_Node000018_Node000017" class="edge">
<title>Node18&#45;&gt;Node17</title>
<g id="a_edge28_Node000018_Node000017"><a xlink:title=" ">
<path fill="none" stroke="#63b8ff" d="M400.32,-232.87C397.17,-232.21 394.05,-231.58 391,-231 337.59,-220.81 184.5,-236.18 149,-195 74.12,-108.15 280.76,-45.51 379.17,-21.4"/>
<polygon fill="#63b8ff" stroke="#63b8ff" points="380.01,-24.8 388.91,-19.06 378.37,-18 380.01,-24.8"/>
</a>
</g>
</g>
<!-- Node19 -->
<g id="Node000019" class="node">
<title>Node19</title>
<g id="a_Node000019"><a xlink:title=" ">
<polygon fill="#e0e0e0" stroke="#999999" points="748,-195 650,-195 650,-176 748,-176 748,-195"/>
<text text-anchor="middle" x="699" y="-183" font-family="Helvetica,sans-Serif" font-size="10.00">AMReX_Vector.H</text>
</a>
</g>
</g>
<!-- Node18&#45;&gt;Node19 -->
<g id="edge29_Node000018_Node000019" class="edge">
<title>Node18&#45;&gt;Node19</title>
<g id="a_edge29_Node000018_Node000019"><a xlink:title=" ">
<path fill="none" stroke="#63b8ff" d="M501.78,-233.02C546.13,-222.56 609.93,-207.51 652.85,-197.39"/>
<polygon fill="#63b8ff" stroke="#63b8ff" points="653.82,-200.75 662.75,-195.05 652.21,-193.94 653.82,-200.75"/>
</a>
</g>
</g>
<!-- Node20 -->
<g id="Node000020" class="node">
<title>Node20</title>
<g id="a_Node000020"><a xlink:title=" ">
<polygon fill="#e0e0e0" stroke="#999999" points="378,-195 292,-195 292,-176 378,-176 378,-195"/>
<text text-anchor="middle" x="335" y="-183" font-family="Helvetica,sans-Serif" font-size="10.00">AMReX_Box.H</text>
</a>
</g>
</g>
<!-- Node18&#45;&gt;Node20 -->
<g id="edge30_Node000018_Node000020" class="edge">
<title>Node18&#45;&gt;Node20</title>
<g id="a_edge30_Node000018_Node000020"><a xlink:title=" ">
<path fill="none" stroke="#63b8ff" d="M423.22,-230.99C404.38,-221.49 379.65,-209.02 361.16,-199.69"/>
<polygon fill="#63b8ff" stroke="#63b8ff" points="362.64,-196.52 352.13,-195.14 359.48,-202.77 362.64,-196.52"/>
</a>
</g>
</g>
<!-- Node21 -->
<g id="Node000021" class="node">
<title>Node21</title>
<g id="a_Node000021"><a xlink:title=" ">
<polygon fill="#e0e0e0" stroke="#999999" points="632,-195 524,-195 524,-176 632,-176 632,-195"/>
<text text-anchor="middle" x="578" y="-183" font-family="Helvetica,sans-Serif" font-size="10.00">AMReX_RealBox.H</text>
</a>
</g>
</g>
<!-- Node18&#45;&gt;Node21 -->
<g id="edge31_Node000018_Node000021" class="edge">
<title>Node18&#45;&gt;Node21</title>
<g id="a_edge31_Node000018_Node000021"><a xlink:title=" ">
<path fill="none" stroke="#63b8ff" d="M481.42,-230.99C502.23,-221.4 529.62,-208.79 549.91,-199.44"/>
<polygon fill="#63b8ff" stroke="#63b8ff" points="551.63,-202.5 559.24,-195.14 548.7,-196.14 551.63,-202.5"/>
</a>
</g>
</g>
<!-- Node22 -->
<g id="Node000022" class="node">
<title>Node22</title>
<g id="a_Node000022"><a xlink:title=" ">
<polygon fill="#e0e0e0" stroke="#999999" points="506,-195 396,-195 396,-176 506,-176 506,-195"/>
<text text-anchor="middle" x="451" y="-183" font-family="Helvetica,sans-Serif" font-size="10.00">AMReX_RealVect.H</text>
</a>
</g>
</g>
<!-- Node18&#45;&gt;Node22 -->
<g id="edge32_Node000018_Node000022" class="edge">
<title>Node18&#45;&gt;Node22</title>
<g id="a_edge32_Node000018_Node000022"><a xlink:title=" ">
<path fill="none" stroke="#63b8ff" d="M451,-230.84C451,-223.21 451,-213.7 451,-205.45"/>
<polygon fill="#63b8ff" stroke="#63b8ff" points="454.5,-205.27 451,-195.27 447.5,-205.27 454.5,-205.27"/>
</a>
</g>
</g>
<!-- Node23 -->
<g id="Node000023" class="node">
<title>Node23</title>
<g id="a_Node000023"><a xlink:title=" ">
<polygon fill="#e0e0e0" stroke="#999999" points="273.5,-195 158.5,-195 158.5,-176 273.5,-176 273.5,-195"/>
<text text-anchor="middle" x="216" y="-183" font-family="Helvetica,sans-Serif" font-size="10.00">AMReX_Geometry.H</text>
</a>
</g>
</g>
<!-- Node18&#45;&gt;Node23 -->
<g id="edge33_Node000018_Node000023" class="edge">
<title>Node18&#45;&gt;Node23</title>
<g id="a_edge33_Node000018_Node000023"><a xlink:title=" ">
<path fill="none" stroke="#63b8ff" d="M400.3,-232.38C358.59,-222 300.07,-207.43 260.24,-197.51"/>
<polygon fill="#63b8ff" stroke="#63b8ff" points="260.84,-194.06 250.29,-195.04 259.15,-200.85 260.84,-194.06"/>
</a>
</g>
</g>
<!-- Node25&#45;&gt;Node4 -->
<g id="edge44_Node000025_Node000004" class="edge">
<title>Node25&#45;&gt;Node4</title>
<g id="a_edge44_Node000025_Node000004"><a xlink:title=" ">
<path fill="none" stroke="#63b8ff" d="M827.23,-296.95C806.4,-286.03 777.69,-270.97 757.26,-260.25"/>
<polygon fill="#63b8ff" stroke="#63b8ff" points="758.72,-257.06 748.24,-255.52 755.47,-263.26 758.72,-257.06"/>
</a>
</g>
</g>
<!-- Node25&#45;&gt;Node6 -->
<g id="edge41_Node000025_Node000006" class="edge">
<title>Node25&#45;&gt;Node6</title>
<g id="a_edge41_Node000025_Node000006"><a xlink:title=" ">
<path fill="none" stroke="#63b8ff" d="M862.88,-296.8C867.85,-288.84 874.16,-278.74 879.81,-269.71"/>
<polygon fill="#63b8ff" stroke="#63b8ff" points="882.82,-271.5 885.15,-261.16 876.88,-267.79 882.82,-271.5"/>
</a>
</g>
</g>
<!-- Node25&#45;&gt;Node8 -->
<g id="edge42_Node000025_Node000008" class="edge">
<title>Node25&#45;&gt;Node8</title>
<g id="a_edge42_Node000025_Node000008"><a xlink:title=" ">
<path fill="none" stroke="#63b8ff" d="M924.23,-307.81C1060.17,-299.71 1346,-272.46 1346,-186.5 1346,-186.5 1346,-186.5 1346,-129.5 1346,-86.71 1310.66,-46.94 1288.18,-25.97"/>
<polygon fill="#63b8ff" stroke="#63b8ff" points="1290.34,-23.21 1280.57,-19.13 1285.66,-28.42 1290.34,-23.21"/>
</a>
</g>
</g>
<!-- Node25&#45;&gt;Node17 -->
<g id="edge46_Node000025_Node000017" class="edge">
<title>Node25&#45;&gt;Node17</title>
<g id="a_edge46_Node000025_Node000017"><a xlink:title=" ">
<path fill="none" stroke="#63b8ff" d="M846.74,-296.65C832.63,-269.93 799.13,-211.99 757,-176 664.94,-97.36 529.05,-44.5 464.55,-22.32"/>
<polygon fill="#63b8ff" stroke="#63b8ff" points="465.42,-18.92 454.83,-19.02 463.18,-25.55 465.42,-18.92"/>
</a>
</g>
</g>
<!-- Node25&#45;&gt;Node21 -->
<g id="edge43_Node000025_Node000021" class="edge">
<title>Node25&#45;&gt;Node21</title>
<g id="a_edge43_Node000025_Node000021"><a xlink:title=" ">
<path fill="none" stroke="#63b8ff" d="M838.44,-296.71C815.83,-276.2 774.64,-239.89 757,-231 721.21,-212.97 677.64,-201.93 642.44,-195.36"/>
<polygon fill="#63b8ff" stroke="#63b8ff" points="642.74,-191.86 632.28,-193.54 641.5,-198.75 642.74,-191.86"/>
</a>
</g>
</g>
<!-- Node26 -->
<g id="Node000026" class="node">
<title>Node26</title>
<g id="a_Node000026"><a xlink:href="_slice_8_h.html" target="_top" xlink:title=" ">
<polygon fill="white" stroke="#666666" points="1119,-255.5 1027,-255.5 1027,-236.5 1119,-236.5 1119,-255.5"/>
<text text-anchor="middle" x="1073" y="-243.5" font-family="Helvetica,sans-Serif" font-size="10.00">src/core/Slice.H</text>
</a>
</g>
</g>
<!-- Node25&#45;&gt;Node26 -->
<g id="edge37_Node000025_Node000026" class="edge">
<title>Node25&#45;&gt;Node26</title>
<g id="a_edge37_Node000025_Node000026"><a xlink:title=" ">
<path fill="none" stroke="#63b8ff" d="M902.06,-296.95C941.65,-285.38 997.09,-269.18 1033.97,-258.41"/>
<polygon fill="#63b8ff" stroke="#63b8ff" points="1035.24,-261.68 1043.85,-255.52 1033.27,-254.96 1035.24,-261.68"/>
</a>
</g>
</g>
<!-- Node28 -->
<g id="Node000028" class="node">
<title>Node28</title>
<g id="a_Node000028"><a xlink:title=" ">
<polygon fill="#e0e0e0" stroke="#999999" points="1008.5,-255.5 963.5,-255.5 963.5,-236.5 1008.5,-236.5 1008.5,-255.5"/>
<text text-anchor="middle" x="986" y="-243.5" font-family="Helvetica,sans-Serif" font-size="10.00">utility</text>
</a>
</g>
</g>
<!-- Node25&#45;&gt;Node28 -->
<g id="edge45_Node000025_Node000028" class="edge">
<title>Node25&#45;&gt;Node28</title>
<g id="a_edge45_Node000025_Node000028"><a xlink:title=" ">
<path fill="none" stroke="#63b8ff" d="M882.97,-296.95C905.71,-285.93 937.12,-270.7 959.27,-259.96"/>
<polygon fill="#63b8ff" stroke="#63b8ff" points="960.96,-263.03 968.43,-255.52 957.91,-256.73 960.96,-263.03"/>
</a>
</g>
</g>
<!-- Node26&#45;&gt;Node8 -->
<g id="edge40_Node000026_Node000008" class="edge">
<title>Node26&#45;&gt;Node8</title>
<g id="a_edge40_Node000026_Node000008"><a xlink:title=" ">
<path fill="none" stroke="#63b8ff" d="M1091.15,-236.37C1130.88,-216.32 1224.99,-162.37 1262,-85 1270.4,-67.44 1271.71,-44.94 1271.35,-29.29"/>
<polygon fill="#63b8ff" stroke="#63b8ff" points="1274.85,-29.09 1270.87,-19.27 1267.86,-29.42 1274.85,-29.09"/>
</a>
</g>
</g>
<!-- Node26&#45;&gt;Node19 -->
<g id="edge39_Node000026_Node000019" class="edge">
<title>Node26&#45;&gt;Node19</title>
<g id="a_edge39_Node000026_Node000019"><a xlink:title=" ">
<path fill="none" stroke="#63b8ff" d="M1042.01,-236.47C1034.21,-234.5 1025.83,-232.54 1018,-231 928.03,-213.33 822.43,-200.04 758.15,-192.77"/>
<polygon fill="#63b8ff" stroke="#63b8ff" points="758.52,-189.29 748.19,-191.65 757.74,-196.24 758.52,-189.29"/>
</a>
</g>
</g>
<!-- Node27 -->
<g id="Node000027" class="node">
<title>Node27</title>
<g id="a_Node000027"><a xlink:title=" ">
<polygon fill="#e0e0e0" stroke="#999999" points="1099.5,-195 1046.5,-195 1046.5,-176 1099.5,-176 1099.5,-195"/>
<text text-anchor="middle" x="1073" y="-183" font-family="Helvetica,sans-Serif" font-size="10.00">iterator</text>
</a>
</g>
</g>
<!-- Node26&#45;&gt;Node27 -->
<g id="edge38_Node000026_Node000027" class="edge">
<title>Node26&#45;&gt;Node27</title>
<g id="a_edge38_Node000026_Node000027"><a xlink:title=" ">
<path fill="none" stroke="#63b8ff" d="M1073,-236.37C1073,-228.25 1073,-215.81 1073,-205.39"/>
<polygon fill="#63b8ff" stroke="#63b8ff" points="1076.5,-205.17 1073,-195.17 1069.5,-205.17 1076.5,-205.17"/>
</a>
</g>
</g>
</g>
</svg>
