<?xml version="1.0" encoding="UTF-8" standalone="no"?>
<!DOCTYPE svg PUBLIC "-//W3C//DTD SVG 1.1//EN"
 "http://www.w3.org/Graphics/SVG/1.1/DTD/svg11.dtd">
<!-- Generated by graphviz version 2.43.0 (0)
 -->
<!-- Title: /home/runner/work/amr&#45;wind/amr&#45;wind/src/wind_energy/actuator/actuator_utils.H Pages: 1 -->
<!--zoomable 357 -->

<svg id="main" version="1.1" xmlns="http://www.w3.org/2000/svg" xmlns:xlink="http://www.w3.org/1999/xlink" xml:space="preserve" onload="init(evt)">

<style type="text/css"><![CDATA[
.node, .edge {opacity: 0.7;}
.node.selected, .edge.selected {opacity: 1;}
.edge:hover path { stroke: red; }
.edge:hover polygon { stroke: red; fill: red; }
]]></style>

<defs>
  <circle id="rim" cx="0" cy="0" r="7"/>
  <circle id="rim2" cx="0" cy="0" r="3.5"/>
  <g id="zoomPlus">
    <use xlink:href="#rim" fill="#404040"><set attributeName="fill" to="#808080" begin="zoomplus.mouseover" end="zoomplus.mouseout"/></use>
    <path d="M-4,0h8M0,-4v8" fill="none" stroke="white" stroke-width="1.5" pointer-events="none"/>
  </g>
  <g id="zoomMin">
    <use xlink:href="#rim" fill="#404040"><set attributeName="fill" to="#808080" begin="zoomminus.mouseover" end="zoomminus.mouseout"/></use>
    <path d="M-4,0h8" fill="none" stroke="white" stroke-width="1.5" pointer-events="none"/>
  </g>
  <g id="arrowUp" transform="translate(30 24)">
    <use xlink:href="#rim"/>
    <path pointer-events="none" fill="none" stroke="white" stroke-width="1.5" d="M0,-3.0v7 M-2.5,-0.5L0,-3.0L2.5,-0.5"/>
  </g>
  <g id="arrowRight" transform="rotate(90) translate(36 -43)">
    <use xlink:href="#rim"/>
    <path pointer-events="none" fill="none" stroke="white" stroke-width="1.5" d="M0,-3.0v7 M-2.5,-0.5L0,-3.0L2.5,-0.5"/>
  </g>
  <g id="arrowDown" transform="rotate(180) translate(-30 -48)">
    <use xlink:href="#rim"/>
    <path pointer-events="none" fill="none" stroke="white" stroke-width="1.5" d="M0,-3.0v7 M-2.5,-0.5L0,-3.0L2.5,-0.5"/>
  </g>
  <g id="arrowLeft" transform="rotate(270) translate(-36 17)">
    <use xlink:href="#rim"/>
    <path pointer-events="none" fill="none" stroke="white" stroke-width="1.5" d="M0,-3.0v7 M-2.5,-0.5L0,-3.0L2.5,-0.5"/>
  </g>
  <g id="resetDef">
    <use xlink:href="#rim2" fill="#404040"><set attributeName="fill" to="#808080" begin="reset.mouseover" end="reset.mouseout"/></use>
  </g>
</defs>
<script type="application/ecmascript">
var viewWidth = 1262;
var viewHeight = 357;
var sectionId = 'dynsection-0';
</script>
<script type="application/ecmascript" xlink:href="svg.min.js"/>
<svg id="graph" class="graph">
<g id="viewport">
<title>/home/runner/work/amr&#45;wind/amr&#45;wind/src/wind_energy/actuator/actuator_utils.H</title>
<!-- Node1 -->
<g id="Node000001" class="node">
<title>Node1</title>
<g id="a_Node000001"><a xlink:title=" ">
<polygon fill="#999999" stroke="#666666" points="592,-349 449,-349 449,-297 592,-297 592,-349"/>
<text text-anchor="start" x="457" y="-337" font-family="Helvetica,sans-Serif" font-size="10.00">/home/runner/work/amr</text>
<text text-anchor="start" x="457" y="-326" font-family="Helvetica,sans-Serif" font-size="10.00">&#45;wind/amr&#45;wind/src/wind</text>
<text text-anchor="start" x="457" y="-315" font-family="Helvetica,sans-Serif" font-size="10.00">_energy/actuator/actuator</text>
<text text-anchor="middle" x="520.5" y="-304" font-family="Helvetica,sans-Serif" font-size="10.00">_utils.H</text>
</a>
</g>
</g>
<!-- Node2 -->
<g id="Node000002" class="node">
<title>Node2</title>
<g id="a_Node000002"><a xlink:title=" ">
<polygon fill="#e0e0e0" stroke="#999999" points="274.5,-255.5 242.5,-255.5 242.5,-236.5 274.5,-236.5 274.5,-255.5"/>
<text text-anchor="middle" x="258.5" y="-243.5" font-family="Helvetica,sans-Serif" font-size="10.00">set</text>
</a>
</g>
</g>
<!-- Node1&#45;&gt;Node2 -->
<g id="edge1_Node000001_Node000002" class="edge">
<title>Node1&#45;&gt;Node2</title>
<g id="a_edge1_Node000001_Node000002"><a xlink:title=" ">
<path fill="none" stroke="#63b8ff" d="M448.87,-308.2C401.34,-297.9 338.09,-282 284.5,-261 283.78,-260.72 283.06,-260.42 282.34,-260.12"/>
<polygon fill="#63b8ff" stroke="#63b8ff" points="283.58,-256.83 273.05,-255.63 280.54,-263.13 283.58,-256.83"/>
</a>
</g>
</g>
<!-- Node3 -->
<g id="Node000003" class="node">
<title>Node3</title>
<g id="a_Node000003"><a xlink:title=" ">
<polygon fill="#e0e0e0" stroke="#999999" points="380,-19 333,-19 333,0 380,0 380,-19"/>
<text text-anchor="middle" x="356.5" y="-7" font-family="Helvetica,sans-Serif" font-size="10.00">cmath</text>
</a>
</g>
</g>
<!-- Node1&#45;&gt;Node3 -->
<g id="edge2_Node000001_Node000003" class="edge">
<title>Node1&#45;&gt;Node3</title>
<g id="a_edge2_Node000001_Node000003"><a xlink:title=" ">
<path fill="none" stroke="#63b8ff" d="M514.85,-296.92C509.25,-269.84 501.5,-225.34 501.5,-186.5 501.5,-186.5 501.5,-186.5 501.5,-129.5 501.5,-95.33 505.55,-80.22 482.5,-55 476.02,-47.91 425.17,-31.36 390.08,-20.57"/>
<polygon fill="#63b8ff" stroke="#63b8ff" points="390.8,-17.13 380.21,-17.55 388.75,-23.82 390.8,-17.13"/>
</a>
</g>
</g>
<!-- Node4 -->
<g id="Node000004" class="node">
<title>Node4</title>
<g id="a_Node000004"><a xlink:href="vector__space_8_h.html" target="_top" xlink:title=" ">
<polygon fill="white" stroke="#666666" points="396,-261 293,-261 293,-231 396,-231 396,-261"/>
<text text-anchor="start" x="301" y="-249" font-family="Helvetica,sans-Serif" font-size="10.00">src/core/vs/vector</text>
<text text-anchor="middle" x="344.5" y="-238" font-family="Helvetica,sans-Serif" font-size="10.00">_space.H</text>
</a>
</g>
</g>
<!-- Node1&#45;&gt;Node4 -->
<g id="edge3_Node000001_Node000004" class="edge">
<title>Node1&#45;&gt;Node4</title>
<g id="a_edge3_Node000001_Node000004"><a xlink:title=" ">
<path fill="none" stroke="#63b8ff" d="M461.4,-296.82C436.94,-286.39 409.12,-274.54 386.76,-265.01"/>
<polygon fill="#63b8ff" stroke="#63b8ff" points="388.1,-261.78 377.53,-261.08 385.36,-268.22 388.1,-261.78"/>
</a>
</g>
</g>
<!-- Node15 -->
<g id="Node000015" class="node">
<title>Node15</title>
<g id="a_Node000015"><a xlink:title=" ">
<polygon fill="#e0e0e0" stroke="#999999" points="585.5,-19 493.5,-19 493.5,0 585.5,0 585.5,-19"/>
<text text-anchor="middle" x="539.5" y="-7" font-family="Helvetica,sans-Serif" font-size="10.00">AMReX_REAL.H</text>
</a>
</g>
</g>
<!-- Node1&#45;&gt;Node15 -->
<g id="edge33_Node000001_Node000015" class="edge">
<title>Node1&#45;&gt;Node15</title>
<g id="a_edge33_Node000001_Node000015"><a xlink:title=" ">
<path fill="none" stroke="#63b8ff" d="M526.15,-296.92C531.75,-269.84 539.5,-225.34 539.5,-186.5 539.5,-186.5 539.5,-186.5 539.5,-129.5 539.5,-94.15 539.5,-52.9 539.5,-29.42"/>
<polygon fill="#63b8ff" stroke="#63b8ff" points="543,-29.16 539.5,-19.16 536,-29.16 543,-29.16"/>
</a>
</g>
</g>
<!-- Node16 -->
<g id="Node000016" class="node">
<title>Node16</title>
<g id="a_Node000016"><a xlink:href="index__operations_8_h.html" target="_top" xlink:title=" ">
<polygon fill="white" stroke="#666666" points="859,-261 758,-261 758,-231 859,-231 859,-261"/>
<text text-anchor="start" x="766" y="-249" font-family="Helvetica,sans-Serif" font-size="10.00">src/utilities/index</text>
<text text-anchor="middle" x="808.5" y="-238" font-family="Helvetica,sans-Serif" font-size="10.00">_operations.H</text>
</a>
</g>
</g>
<!-- Node1&#45;&gt;Node16 -->
<g id="edge24_Node000001_Node000016" class="edge">
<title>Node1&#45;&gt;Node16</title>
<g id="a_edge24_Node000001_Node000016"><a xlink:title=" ">
<path fill="none" stroke="#63b8ff" d="M592.06,-303.36C640.02,-290.88 702.47,-274.61 747.96,-262.77"/>
<polygon fill="#63b8ff" stroke="#63b8ff" points="748.89,-266.14 757.68,-260.23 747.12,-259.37 748.89,-266.14"/>
</a>
</g>
</g>
<!-- Node23 -->
<g id="Node000023" class="node">
<title>Node23</title>
<g id="a_Node000023"><a xlink:title=" ">
<polygon fill="#e0e0e0" stroke="#999999" points="987.5,-255.5 877.5,-255.5 877.5,-236.5 987.5,-236.5 987.5,-255.5"/>
<text text-anchor="middle" x="932.5" y="-243.5" font-family="Helvetica,sans-Serif" font-size="10.00">AMReX_AmrCore.H</text>
</a>
</g>
</g>
<!-- Node1&#45;&gt;Node23 -->
<g id="edge32_Node000001_Node000023" class="edge">
<title>Node1&#45;&gt;Node23</title>
<g id="a_edge32_Node000001_Node000023"><a xlink:title=" ">
<path fill="none" stroke="#63b8ff" d="M592.31,-310.31C662.79,-298.63 773.26,-279.76 868.5,-261 873.8,-259.96 879.34,-258.82 884.84,-257.66"/>
<polygon fill="#63b8ff" stroke="#63b8ff" points="885.61,-261.07 894.65,-255.55 884.14,-254.23 885.61,-261.07"/>
</a>
</g>
</g>
<!-- Node5 -->
<g id="Node000005" class="node">
<title>Node5</title>
<g id="a_Node000005"><a xlink:href="vector_8_h.html" target="_top" xlink:title=" ">
<polygon fill="white" stroke="#666666" points="214,-140 101,-140 101,-121 214,-121 214,-140"/>
<text text-anchor="middle" x="157.5" y="-128" font-family="Helvetica,sans-Serif" font-size="10.00">src/core/vs/vector.H</text>
</a>
</g>
</g>
<!-- Node4&#45;&gt;Node5 -->
<g id="edge4_Node000004_Node000005" class="edge">
<title>Node4&#45;&gt;Node5</title>
<g id="a_edge4_Node000004_Node000005"><a xlink:title=" ">
<path fill="none" stroke="#63b8ff" d="M309.96,-230.79C288.99,-221.63 262.03,-208.86 239.5,-195 215.95,-180.51 191.15,-160.55 175.07,-146.9"/>
<polygon fill="#63b8ff" stroke="#63b8ff" points="176.96,-143.91 167.1,-140.04 172.4,-149.22 176.96,-143.91"/>
</a>
</g>
</g>
<!-- Node11 -->
<g id="Node000011" class="node">
<title>Node11</title>
<g id="a_Node000011"><a xlink:href="tensor_8_h.html" target="_top" xlink:title=" ">
<polygon fill="white" stroke="#666666" points="362,-195 249,-195 249,-176 362,-176 362,-195"/>
<text text-anchor="middle" x="305.5" y="-183" font-family="Helvetica,sans-Serif" font-size="10.00">src/core/vs/tensor.H</text>
</a>
</g>
</g>
<!-- Node4&#45;&gt;Node11 -->
<g id="edge12_Node000004_Node000011" class="edge">
<title>Node4&#45;&gt;Node11</title>
<g id="a_edge12_Node000004_Node000011"><a xlink:title=" ">
<path fill="none" stroke="#63b8ff" d="M335.06,-230.84C329.63,-222.69 322.77,-212.4 317.02,-203.78"/>
<polygon fill="#63b8ff" stroke="#63b8ff" points="319.8,-201.65 311.34,-195.27 313.98,-205.53 319.8,-201.65"/>
</a>
</g>
</g>
<!-- Node6 -->
<g id="Node000006" class="node">
<title>Node6</title>
<g id="a_Node000006"><a xlink:title=" ">
<polygon fill="#e0e0e0" stroke="#999999" points="87,-19 0,-19 0,0 87,0 87,-19"/>
<text text-anchor="middle" x="43.5" y="-7" font-family="Helvetica,sans-Serif" font-size="10.00">AMReX_Gpu.H</text>
</a>
</g>
</g>
<!-- Node5&#45;&gt;Node6 -->
<g id="edge5_Node000005_Node000006" class="edge">
<title>Node5&#45;&gt;Node6</title>
<g id="a_edge5_Node000005_Node000006"><a xlink:title=" ">
<path fill="none" stroke="#63b8ff" d="M123.43,-120.86C103.6,-114.17 79.6,-102.94 64.5,-85 51.28,-69.3 46.36,-45.81 44.54,-29.42"/>
<polygon fill="#63b8ff" stroke="#63b8ff" points="48.03,-29.06 43.71,-19.39 41.05,-29.64 48.03,-29.06"/>
</a>
</g>
</g>
<!-- Node7 -->
<g id="Node000007" class="node">
<title>Node7</title>
<g id="a_Node000007"><a xlink:href="vstraits_8_h.html" target="_top" xlink:title=" ">
<polygon fill="white" stroke="#666666" points="327,-79.5 208,-79.5 208,-60.5 327,-60.5 327,-79.5"/>
<text text-anchor="middle" x="267.5" y="-67.5" font-family="Helvetica,sans-Serif" font-size="10.00">src/core/vs/vstraits.H</text>
</a>
</g>
</g>
<!-- Node5&#45;&gt;Node7 -->
<g id="edge6_Node000005_Node000007" class="edge">
<title>Node5&#45;&gt;Node7</title>
<g id="a_edge6_Node000005_Node000007"><a xlink:title=" ">
<path fill="none" stroke="#63b8ff" d="M173.73,-120.87C191.77,-111.28 221.12,-95.67 242.18,-84.47"/>
<polygon fill="#63b8ff" stroke="#63b8ff" points="244.02,-87.45 251.2,-79.67 240.73,-81.27 244.02,-87.45"/>
</a>
</g>
</g>
<!-- Node9 -->
<g id="Node000009" class="node">
<title>Node9</title>
<g id="a_Node000009"><a xlink:href="vector_i_8_h.html" target="_top" xlink:title=" ">
<polygon fill="white" stroke="#666666" points="189.5,-79.5 73.5,-79.5 73.5,-60.5 189.5,-60.5 189.5,-79.5"/>
<text text-anchor="middle" x="131.5" y="-67.5" font-family="Helvetica,sans-Serif" font-size="10.00">src/core/vs/vectorI.H</text>
</a>
</g>
</g>
<!-- Node5&#45;&gt;Node9 -->
<g id="edge8_Node000005_Node000009" class="edge">
<title>Node5&#45;&gt;Node9</title>
<g id="a_edge8_Node000005_Node000009"><a xlink:title=" ">
<path fill="none" stroke="#63b8ff" d="M148.71,-120.87C143.29,-112.66 137.22,-100.04 133.41,-89.55"/>
<polygon fill="#63b8ff" stroke="#63b8ff" points="136.66,-88.21 130.39,-79.67 129.97,-90.25 136.66,-88.21"/>
</a>
</g>
</g>
<!-- Node8 -->
<g id="Node000008" class="node">
<title>Node8</title>
<g id="a_Node000008"><a xlink:title=" ">
<polygon fill="#e0e0e0" stroke="#999999" points="289.5,-19 245.5,-19 245.5,0 289.5,0 289.5,-19"/>
<text text-anchor="middle" x="267.5" y="-7" font-family="Helvetica,sans-Serif" font-size="10.00">limits</text>
</a>
</g>
</g>
<!-- Node7&#45;&gt;Node8 -->
<g id="edge7_Node000007_Node000008" class="edge">
<title>Node7&#45;&gt;Node8</title>
<g id="a_edge7_Node000007_Node000008"><a xlink:title=" ">
<path fill="none" stroke="#63b8ff" d="M267.5,-60.37C267.5,-52.25 267.5,-39.81 267.5,-29.39"/>
<polygon fill="#63b8ff" stroke="#63b8ff" points="271,-29.17 267.5,-19.17 264,-29.17 271,-29.17"/>
</a>
</g>
</g>
<!-- Node9&#45;&gt;Node3 -->
<g id="edge10_Node000009_Node000003" class="edge">
<title>Node9&#45;&gt;Node3</title>
<g id="a_edge10_Node000009_Node000003"><a xlink:title=" ">
<path fill="none" stroke="#63b8ff" d="M164.22,-60.49C206.55,-49.49 279.95,-30.4 322.77,-19.27"/>
<polygon fill="#63b8ff" stroke="#63b8ff" points="323.91,-22.59 332.71,-16.69 322.15,-15.82 323.91,-22.59"/>
</a>
</g>
</g>
<!-- Node9&#45;&gt;Node5 -->
<g id="edge11_Node000009_Node000005" class="edge">
<title>Node9&#45;&gt;Node5</title>
<g id="a_edge11_Node000009_Node000005"><a xlink:title=" ">
<path fill="none" stroke="#63b8ff" d="M140.32,-79.67C145.74,-87.89 151.8,-100.51 155.6,-110.99"/>
<polygon fill="#63b8ff" stroke="#63b8ff" points="152.35,-112.33 158.62,-120.87 159.04,-110.28 152.35,-112.33"/>
</a>
</g>
</g>
<!-- Node10 -->
<g id="Node000010" class="node">
<title>Node10</title>
<g id="a_Node000010"><a xlink:title=" ">
<polygon fill="#e0e0e0" stroke="#999999" points="162,-19 105,-19 105,0 162,0 162,-19"/>
<text text-anchor="middle" x="133.5" y="-7" font-family="Helvetica,sans-Serif" font-size="10.00">ostream</text>
</a>
</g>
</g>
<!-- Node9&#45;&gt;Node10 -->
<g id="edge9_Node000009_Node000010" class="edge">
<title>Node9&#45;&gt;Node10</title>
<g id="a_edge9_Node000009_Node000010"><a xlink:title=" ">
<path fill="none" stroke="#63b8ff" d="M131.8,-60.37C132.07,-52.25 132.5,-39.81 132.85,-29.39"/>
<polygon fill="#63b8ff" stroke="#63b8ff" points="136.36,-29.28 133.2,-19.17 129.36,-29.04 136.36,-29.28"/>
</a>
</g>
</g>
<!-- Node11&#45;&gt;Node5 -->
<g id="edge15_Node000011_Node000005" class="edge">
<title>Node11&#45;&gt;Node5</title>
<g id="a_edge15_Node000011_Node000005"><a xlink:title=" ">
<path fill="none" stroke="#63b8ff" d="M281.72,-175.98C257.27,-167.23 218.97,-153.51 191.35,-143.62"/>
<polygon fill="#63b8ff" stroke="#63b8ff" points="192.31,-140.25 181.71,-140.17 189.95,-146.84 192.31,-140.25"/>
</a>
</g>
</g>
<!-- Node11&#45;&gt;Node6 -->
<g id="edge13_Node000011_Node000006" class="edge">
<title>Node11&#45;&gt;Node6</title>
<g id="a_edge13_Node000011_Node000006"><a xlink:title=" ">
<path fill="none" stroke="#63b8ff" d="M248.55,-182.93C203.11,-179.37 139.36,-169.02 91.5,-140 64.49,-123.63 57.71,-114.53 46.5,-85 39.69,-67.06 39.76,-44.92 41.02,-29.46"/>
<polygon fill="#63b8ff" stroke="#63b8ff" points="44.55,-29.43 42.13,-19.12 37.59,-28.69 44.55,-29.43"/>
</a>
</g>
</g>
<!-- Node11&#45;&gt;Node7 -->
<g id="edge14_Node000011_Node000007" class="edge">
<title>Node11&#45;&gt;Node7</title>
<g id="a_edge14_Node000011_Node000007"><a xlink:title=" ">
<path fill="none" stroke="#63b8ff" d="M301.64,-175.74C297.8,-166.83 291.86,-152.6 287.5,-140 281.64,-123.07 276.06,-103.42 272.29,-89.43"/>
<polygon fill="#63b8ff" stroke="#63b8ff" points="275.63,-88.36 269.69,-79.59 268.86,-90.15 275.63,-88.36"/>
</a>
</g>
</g>
<!-- Node12 -->
<g id="Node000012" class="node">
<title>Node12</title>
<g id="a_Node000012"><a xlink:href="tensor_i_8_h.html" target="_top" xlink:title=" ">
<polygon fill="white" stroke="#666666" points="412.5,-140 296.5,-140 296.5,-121 412.5,-121 412.5,-140"/>
<text text-anchor="middle" x="354.5" y="-128" font-family="Helvetica,sans-Serif" font-size="10.00">src/core/vs/tensorI.H</text>
</a>
</g>
</g>
<!-- Node11&#45;&gt;Node12 -->
<g id="edge16_Node000011_Node000012" class="edge">
<title>Node11&#45;&gt;Node12</title>
<g id="a_edge16_Node000011_Node000012"><a xlink:title=" ">
<path fill="none" stroke="#63b8ff" d="M308.43,-175.75C313.96,-167.95 324.32,-156.37 333.96,-147"/>
<polygon fill="#63b8ff" stroke="#63b8ff" points="336.47,-149.45 341.43,-140.09 331.71,-144.32 336.47,-149.45"/>
</a>
</g>
</g>
<!-- Node12&#45;&gt;Node3 -->
<g id="edge17_Node000012_Node000003" class="edge">
<title>Node12&#45;&gt;Node3</title>
<g id="a_edge17_Node000012_Node000003"><a xlink:title=" ">
<path fill="none" stroke="#63b8ff" d="M354.64,-120.94C354.96,-101.91 355.74,-55.69 356.18,-29.47"/>
<polygon fill="#63b8ff" stroke="#63b8ff" points="359.68,-29.36 356.35,-19.3 352.68,-29.24 359.68,-29.36"/>
</a>
</g>
</g>
<!-- Node12&#45;&gt;Node11 -->
<g id="edge18_Node000012_Node000011" class="edge">
<title>Node12&#45;&gt;Node11</title>
<g id="a_edge18_Node000012_Node000011"><a xlink:title=" ">
<path fill="none" stroke="#63b8ff" d="M351.63,-140.17C346.11,-147.98 335.67,-159.64 325.99,-169.04"/>
<polygon fill="#63b8ff" stroke="#63b8ff" points="323.45,-166.62 318.49,-175.98 328.2,-171.76 323.45,-166.62"/>
</a>
</g>
</g>
<!-- Node13 -->
<g id="Node000013" class="node">
<title>Node13</title>
<g id="a_Node000013"><a xlink:href="trig__ops_8_h.html" target="_top" xlink:title=" ">
<polygon fill="white" stroke="#666666" points="473.5,-85 383.5,-85 383.5,-55 473.5,-55 473.5,-85"/>
<text text-anchor="start" x="391.5" y="-73" font-family="Helvetica,sans-Serif" font-size="10.00">src/utilities/trig</text>
<text text-anchor="middle" x="428.5" y="-62" font-family="Helvetica,sans-Serif" font-size="10.00">_ops.H</text>
</a>
</g>
</g>
<!-- Node12&#45;&gt;Node13 -->
<g id="edge19_Node000012_Node000013" class="edge">
<title>Node12&#45;&gt;Node13</title>
<g id="a_edge19_Node000012_Node000013"><a xlink:title=" ">
<path fill="none" stroke="#63b8ff" d="M365.42,-120.87C375.18,-113.15 389.87,-101.54 402.62,-91.46"/>
<polygon fill="#63b8ff" stroke="#63b8ff" points="404.97,-94.06 410.65,-85.11 400.63,-88.57 404.97,-94.06"/>
</a>
</g>
</g>
<!-- Node13&#45;&gt;Node3 -->
<g id="edge20_Node000013_Node000003" class="edge">
<title>Node13&#45;&gt;Node3</title>
<g id="a_edge20_Node000013_Node000003"><a xlink:title=" ">
<path fill="none" stroke="#63b8ff" d="M411.07,-54.84C400.19,-46 386.2,-34.63 375.11,-25.62"/>
<polygon fill="#63b8ff" stroke="#63b8ff" points="377.26,-22.86 367.29,-19.27 372.84,-28.29 377.26,-22.86"/>
</a>
</g>
</g>
<!-- Node13&#45;&gt;Node6 -->
<g id="edge23_Node000013_Node000006" class="edge">
<title>Node13&#45;&gt;Node6</title>
<g id="a_edge23_Node000013_Node000006"><a xlink:title=" ">
<path fill="none" stroke="#63b8ff" d="M383.11,-62.07C368.26,-59.81 351.68,-57.29 336.5,-55 232.55,-39.33 204.14,-35.93 97.1,-19.23"/>
<polygon fill="#63b8ff" stroke="#63b8ff" points="97.61,-15.77 87.19,-17.69 96.53,-22.69 97.61,-15.77"/>
</a>
</g>
</g>
<!-- Node14 -->
<g id="Node000014" class="node">
<title>Node14</title>
<g id="a_Node000014"><a xlink:title=" ">
<polygon fill="#e0e0e0" stroke="#999999" points="458,-19 399,-19 399,0 458,0 458,-19"/>
<text text-anchor="middle" x="428.5" y="-7" font-family="Helvetica,sans-Serif" font-size="10.00">numbers</text>
</a>
</g>
</g>
<!-- Node13&#45;&gt;Node14 -->
<g id="edge21_Node000013_Node000014" class="edge">
<title>Node13&#45;&gt;Node14</title>
<g id="a_edge21_Node000013_Node000014"><a xlink:title=" ">
<path fill="none" stroke="#63b8ff" d="M428.5,-54.84C428.5,-47.21 428.5,-37.7 428.5,-29.45"/>
<polygon fill="#63b8ff" stroke="#63b8ff" points="432,-29.27 428.5,-19.27 425,-29.27 432,-29.27"/>
</a>
</g>
</g>
<!-- Node13&#45;&gt;Node15 -->
<g id="edge22_Node000013_Node000015" class="edge">
<title>Node13&#45;&gt;Node15</title>
<g id="a_edge22_Node000013_Node000015"><a xlink:title=" ">
<path fill="none" stroke="#63b8ff" d="M455.09,-54.99C472.95,-45.58 496.34,-33.24 513.98,-23.95"/>
<polygon fill="#63b8ff" stroke="#63b8ff" points="515.89,-26.9 523.11,-19.14 512.63,-20.71 515.89,-26.9"/>
</a>
</g>
</g>
<!-- Node16&#45;&gt;Node15 -->
<g id="edge26_Node000016_Node000015" class="edge">
<title>Node16&#45;&gt;Node15</title>
<g id="a_edge26_Node000016_Node000015"><a xlink:title=" ">
<path fill="none" stroke="#63b8ff" d="M859.14,-232.68C862.3,-232.07 865.44,-231.5 868.5,-231 952.71,-217.25 1301.53,-242.84 1248.5,-176 1166.71,-72.92 748.94,-28.03 595.84,-14.87"/>
<polygon fill="#63b8ff" stroke="#63b8ff" points="595.97,-11.37 585.71,-14.01 595.38,-18.35 595.97,-11.37"/>
</a>
</g>
</g>
<!-- Node17 -->
<g id="Node000017" class="node">
<title>Node17</title>
<g id="a_Node000017"><a xlink:title=" ">
<polygon fill="#e0e0e0" stroke="#999999" points="631.5,-195 567.5,-195 567.5,-176 631.5,-176 631.5,-195"/>
<text text-anchor="middle" x="599.5" y="-183" font-family="Helvetica,sans-Serif" font-size="10.00">algorithm</text>
</a>
</g>
</g>
<!-- Node16&#45;&gt;Node17 -->
<g id="edge25_Node000016_Node000017" class="edge">
<title>Node16&#45;&gt;Node17</title>
<g id="a_edge25_Node000016_Node000017"><a xlink:title=" ">
<path fill="none" stroke="#63b8ff" d="M758.44,-230.99C722.21,-220.85 673.88,-207.32 640.06,-197.85"/>
<polygon fill="#63b8ff" stroke="#63b8ff" points="640.63,-194.38 630.06,-195.05 638.75,-201.12 640.63,-194.38"/>
</a>
</g>
</g>
<!-- Node18 -->
<g id="Node000018" class="node">
<title>Node18</title>
<g id="a_Node000018"><a xlink:title=" ">
<polygon fill="#e0e0e0" stroke="#999999" points="747.5,-195 649.5,-195 649.5,-176 747.5,-176 747.5,-195"/>
<text text-anchor="middle" x="698.5" y="-183" font-family="Helvetica,sans-Serif" font-size="10.00">AMReX_Vector.H</text>
</a>
</g>
</g>
<!-- Node16&#45;&gt;Node18 -->
<g id="edge27_Node000016_Node000018" class="edge">
<title>Node16&#45;&gt;Node18</title>
<g id="a_edge27_Node000016_Node000018"><a xlink:title=" ">
<path fill="none" stroke="#63b8ff" d="M782.15,-230.99C764.45,-221.58 741.27,-209.24 723.79,-199.95"/>
<polygon fill="#63b8ff" stroke="#63b8ff" points="725.22,-196.74 714.74,-195.14 721.93,-202.92 725.22,-196.74"/>
</a>
</g>
</g>
<!-- Node19 -->
<g id="Node000019" class="node">
<title>Node19</title>
<g id="a_Node000019"><a xlink:title=" ">
<polygon fill="#e0e0e0" stroke="#999999" points="851.5,-195 765.5,-195 765.5,-176 851.5,-176 851.5,-195"/>
<text text-anchor="middle" x="808.5" y="-183" font-family="Helvetica,sans-Serif" font-size="10.00">AMReX_Box.H</text>
</a>
</g>
</g>
<!-- Node16&#45;&gt;Node19 -->
<g id="edge28_Node000016_Node000019" class="edge">
<title>Node16&#45;&gt;Node19</title>
<g id="a_edge28_Node000016_Node000019"><a xlink:title=" ">
<path fill="none" stroke="#63b8ff" d="M808.5,-230.84C808.5,-223.21 808.5,-213.7 808.5,-205.45"/>
<polygon fill="#63b8ff" stroke="#63b8ff" points="812,-205.27 808.5,-195.27 805,-205.27 812,-205.27"/>
</a>
</g>
</g>
<!-- Node20 -->
<g id="Node000020" class="node">
<title>Node20</title>
<g id="a_Node000020"><a xlink:title=" ">
<polygon fill="#e0e0e0" stroke="#999999" points="977.5,-195 869.5,-195 869.5,-176 977.5,-176 977.5,-195"/>
<text text-anchor="middle" x="923.5" y="-183" font-family="Helvetica,sans-Serif" font-size="10.00">AMReX_RealBox.H</text>
</a>
</g>
</g>
<!-- Node16&#45;&gt;Node20 -->
<g id="edge29_Node000016_Node000020" class="edge">
<title>Node16&#45;&gt;Node20</title>
<g id="a_edge29_Node000016_Node000020"><a xlink:title=" ">
<path fill="none" stroke="#63b8ff" d="M836.05,-230.99C854.72,-221.49 879.24,-209.02 897.56,-199.69"/>
<polygon fill="#63b8ff" stroke="#63b8ff" points="899.19,-202.79 906.52,-195.14 896.02,-196.55 899.19,-202.79"/>
</a>
</g>
</g>
<!-- Node21 -->
<g id="Node000021" class="node">
<title>Node21</title>
<g id="a_Node000021"><a xlink:title=" ">
<polygon fill="#e0e0e0" stroke="#999999" points="1105.5,-195 995.5,-195 995.5,-176 1105.5,-176 1105.5,-195"/>
<text text-anchor="middle" x="1050.5" y="-183" font-family="Helvetica,sans-Serif" font-size="10.00">AMReX_RealVect.H</text>
</a>
</g>
</g>
<!-- Node16&#45;&gt;Node21 -->
<g id="edge30_Node000016_Node000021" class="edge">
<title>Node16&#45;&gt;Node21</title>
<g id="a_edge30_Node000016_Node000021"><a xlink:title=" ">
<path fill="none" stroke="#63b8ff" d="M859.23,-232.74C902.38,-222.31 963.78,-207.46 1005.27,-197.43"/>
<polygon fill="#63b8ff" stroke="#63b8ff" points="1006.21,-200.81 1015.11,-195.06 1004.57,-194 1006.21,-200.81"/>
</a>
</g>
</g>
<!-- Node22 -->
<g id="Node000022" class="node">
<title>Node22</title>
<g id="a_Node000022"><a xlink:title=" ">
<polygon fill="#e0e0e0" stroke="#999999" points="1239,-195 1124,-195 1124,-176 1239,-176 1239,-195"/>
<text text-anchor="middle" x="1181.5" y="-183" font-family="Helvetica,sans-Serif" font-size="10.00">AMReX_Geometry.H</text>
</a>
</g>
</g>
<!-- Node16&#45;&gt;Node22 -->
<g id="edge31_Node000016_Node000022" class="edge">
<title>Node16&#45;&gt;Node22</title>
<g id="a_edge31_Node000016_Node000022"><a xlink:title=" ">
<path fill="none" stroke="#63b8ff" d="M859.17,-232.85C862.32,-232.19 865.45,-231.57 868.5,-231 914.13,-222.45 1036.12,-205.77 1113.63,-195.44"/>
<polygon fill="#63b8ff" stroke="#63b8ff" points="1114.34,-198.87 1123.79,-194.09 1113.42,-191.93 1114.34,-198.87"/>
</a>
</g>
</g>
</g>
</svg>

<g id="navigator" transform="translate(0 0)" fill="#404254">
  <rect fill="#f2f5e9" fill-opacity="0.5" stroke="#606060" stroke-width=".5" x="0" y="0" width="60" height="60"/>
  <use id="zoomplus" xlink:href="#zoomPlus" x="17" y="9" onmousedown="handleZoom(evt,'in')"/>
  <use id="zoomminus" xlink:href="#zoomMin" x="42" y="9" onmousedown="handleZoom(evt,'out')"/>
  <use id="reset" xlink:href="#resetDef" x="30" y="36" onmousedown="handleReset()"/>
   <use id="arrowup" xlink:href="#arrowUp" x="0" y="0" onmousedown="handlePan(0,-1)"/>
  <use id="arrowright" xlink:href="#arrowRight" x="0" y="0" onmousedown="handlePan(1,0)"/>
  <use id="arrowdown" xlink:href="#arrowDown" x="0" y="0" onmousedown="handlePan(0,1)"/>
  <use id="arrowleft" xlink:href="#arrowLeft" x="0" y="0" onmousedown="handlePan(-1,0)"/>
</g>
<svg viewBox="0 0 15 15" width="100%" height="30px" preserveAspectRatio="xMaxYMin meet">
 <g id="arrow_out" transform="scale(0.3 0.3)">
  <a xlink:href="actuator__utils_8_h__incl_org.svg" target="_base">
   <rect id="button" ry="5" rx="5" y="6" x="6" height="38" width="38"
        fill="#f2f5e9" fill-opacity="0.5" stroke="#606060" stroke-width="1.0"/>
   <path id="arrow"
     d="M 11.500037,31.436501 C 11.940474,20.09759 22.043105,11.32322 32.158766,21.979434 L 37.068811,17.246167 C 37.068811,17.246167 37.088388,32 37.088388,32 L 22.160133,31.978069 C 22.160133,31.978069 26.997745,27.140456 26.997745,27.140456 C 18.528582,18.264221 13.291696,25.230495 11.500037,31.436501 z"
     style="fill:#404040;"/>
  </a>
 </g>
</svg>

<style type='text/css'>
<![CDATA[
[data-mouse-over-selected='false'] { opacity: 0.7; }
[data-mouse-over-selected='true']  { opacity: 1.0; }
]]>
</style>
<script type="application/ecmascript"><![CDATA[
document.addEventListener('DOMContentLoaded', (event) => {
  highlightEdges();
  highlightAdjacentNodes();
});
]]></script>
</svg>
