<?xml version="1.0" encoding="UTF-8" standalone="no"?>
<!DOCTYPE svg PUBLIC "-//W3C//DTD SVG 1.1//EN"
 "http://www.w3.org/Graphics/SVG/1.1/DTD/svg11.dtd">
<!-- Generated by graphviz version 2.43.0 (0)
 -->
<!-- Title: kynema_sgf::ScratchField Pages: 1 -->
<svg width="276pt" height="363pt"
 viewBox="0.00 0.00 276.00 363.00" xmlns="http://www.w3.org/2000/svg" xmlns:xlink="http://www.w3.org/1999/xlink">
<g id="graph0" class="graph" transform="scale(1 1) rotate(0) translate(4 359)">
<title>kynema_sgf::ScratchField</title>
<!-- Node1 -->
<g id="Node000001" class="node">
<title>Node1</title>
<g id="a_Node000001"><a xlink:title=" ">
<polygon fill="#999999" stroke="#666666" points="140,-19 0,-19 0,0 140,0 140,-19"/>
<text text-anchor="middle" x="70" y="-7" font-family="Helvetica,sans-Serif" font-size="10.00">kynema_sgf::ScratchField</text>
</a>
</g>
</g>
<!-- Node2 -->
<g id="Node000002" class="node">
<title>Node2</title>
<g id="a_Node000002"><a xlink:href="classkynema__sgf_1_1_field_repo.html" target="_top" xlink:title=" ">
<polygon fill="white" stroke="#666666" points="211.5,-91 82.5,-91 82.5,-72 211.5,-72 211.5,-91"/>
<text text-anchor="middle" x="147" y="-79" font-family="Helvetica,sans-Serif" font-size="10.00">kynema_sgf::FieldRepo</text>
</a>
</g>
</g>
<!-- Node2&#45;&gt;Node1 -->
<g id="edge1_Node000001_Node000002" class="edge">
<title>Node2&#45;&gt;Node1</title>
<g id="a_edge1_Node000001_Node000002"><a xlink:title=" ">
<path fill="none" stroke="#9a32cd" stroke-dasharray="5,2" d="M129.73,-64.8C114.23,-50.71 92.03,-30.53 79.52,-19.15"/>
<polygon fill="#9a32cd" stroke="#9a32cd" points="127.8,-67.78 137.56,-71.92 132.51,-62.6 127.8,-67.78"/>
</a>
</g>
<text text-anchor="start" x="121.5" y="-42.5" font-family="Helvetica,sans-Serif" font-size="10.00" fill="grey">m_repo</text>
</g>
<!-- Node3 -->
<g id="Node000003" class="node">
<title>Node3</title>
<g id="a_Node000003"><a xlink:title=" ">
<polygon fill="white" stroke="#666666" points="208,-189 86,-189 86,-159 208,-159 208,-189"/>
<text text-anchor="start" x="94" y="-177" font-family="Helvetica,sans-Serif" font-size="10.00">std::unordered_map</text>
<text text-anchor="middle" x="147" y="-166" font-family="Helvetica,sans-Serif" font-size="10.00">&lt; std::string, size_t &gt;</text>
</a>
</g>
</g>
<!-- Node3&#45;&gt;Node2 -->
<g id="edge2_Node000002_Node000003" class="edge">
<title>Node3&#45;&gt;Node2</title>
<g id="a_edge2_Node000002_Node000003"><a xlink:title=" ">
<path fill="none" stroke="#9a32cd" stroke-dasharray="5,2" d="M147,-148.78C147,-129.7 147,-104.21 147,-91.1"/>
<polygon fill="#9a32cd" stroke="#9a32cd" points="143.5,-148.86 147,-158.86 150.5,-148.86 143.5,-148.86"/>
</a>
</g>
<text text-anchor="start" x="150.5" y="-130" font-family="Helvetica,sans-Serif" font-size="10.00" fill="grey">m_fid_map</text>
<text text-anchor="start" x="150.5" y="-115" font-family="Helvetica,sans-Serif" font-size="10.00" fill="grey">m_int_fid_map</text>
</g>
<!-- Node4 -->
<g id="Node000004" class="node">
<title>Node4</title>
<g id="a_Node000004"><a xlink:title=" ">
<polygon fill="white" stroke="#666666" points="86.5,-266.5 21.5,-266.5 21.5,-247.5 86.5,-247.5 86.5,-266.5"/>
<text text-anchor="middle" x="54" y="-254.5" font-family="Helvetica,sans-Serif" font-size="10.00">std::string</text>
</a>
</g>
</g>
<!-- Node4&#45;&gt;Node1 -->
<g id="edge8_Node000001_Node000004" class="edge">
<title>Node4&#45;&gt;Node1</title>
<g id="a_edge8_Node000001_Node000004"><a xlink:title=" ">
<path fill="none" stroke="#9a32cd" stroke-dasharray="5,2" d="M55.24,-236.97C58.49,-187.15 67.15,-54.29 69.44,-19.13"/>
<polygon fill="#9a32cd" stroke="#9a32cd" points="51.73,-237.06 54.57,-247.26 58.71,-237.51 51.73,-237.06"/>
</a>
</g>
<text text-anchor="start" x="67.5" y="-122" font-family="Helvetica,sans-Serif" font-size="10.00" fill="grey">m_name</text>
</g>
<!-- Node4&#45;&gt;Node3 -->
<g id="edge3_Node000003_Node000004" class="edge">
<title>Node4&#45;&gt;Node3</title>
<g id="a_edge3_Node000003_Node000004"><a xlink:title=" ">
<path fill="none" stroke="#9a32cd" stroke-dasharray="5,2" d="M71.56,-240.7C88.64,-225.83 114.36,-203.43 130.91,-189.01"/>
<polygon fill="#9a32cd" stroke="#9a32cd" points="69.19,-238.12 63.95,-247.33 73.79,-243.4 69.19,-238.12"/>
</a>
</g>
<text text-anchor="start" x="112.5" y="-212.5" font-family="Helvetica,sans-Serif" font-size="10.00" fill="grey">keys</text>
</g>
<!-- Node5 -->
<g id="Node000005" class="node">
<title>Node5</title>
<g id="a_Node000005"><a xlink:title=" ">
<polygon fill="white" stroke="#666666" points="106,-355 2,-355 2,-325 106,-325 106,-355"/>
<text text-anchor="start" x="10" y="-343" font-family="Helvetica,sans-Serif" font-size="10.00">std::basic_string&lt;</text>
<text text-anchor="middle" x="54" y="-332" font-family="Helvetica,sans-Serif" font-size="10.00"> Char &gt;</text>
</a>
</g>
</g>
<!-- Node5&#45;&gt;Node4 -->
<g id="edge4_Node000004_Node000005" class="edge">
<title>Node5&#45;&gt;Node4</title>
<g id="a_edge4_Node000004_Node000005"><a xlink:title=" ">
<path fill="none" stroke="#63b8ff" d="M54,-314.55C54,-298.45 54,-278.32 54,-266.94"/>
<polygon fill="#63b8ff" stroke="#63b8ff" points="50.5,-314.89 54,-324.89 57.5,-314.89 50.5,-314.89"/>
</a>
</g>
</g>
<!-- Node6 -->
<g id="Node000006" class="node">
<title>Node6</title>
<g id="a_Node000006"><a xlink:title=" ">
<polygon fill="white" stroke="#666666" points="219,-272 105,-272 105,-242 219,-242 219,-272"/>
<text text-anchor="start" x="113" y="-260" font-family="Helvetica,sans-Serif" font-size="10.00">std::unordered_map</text>
<text text-anchor="middle" x="162" y="-249" font-family="Helvetica,sans-Serif" font-size="10.00">&lt; K, T &gt;</text>
</a>
</g>
</g>
<!-- Node6&#45;&gt;Node3 -->
<g id="edge5_Node000003_Node000006" class="edge">
<title>Node6&#45;&gt;Node3</title>
<g id="a_edge5_Node000003_Node000006"><a xlink:title=" ">
<path fill="none" stroke="orange" stroke-dasharray="5,2" d="M157.56,-232C154.98,-218.08 151.82,-201.03 149.63,-189.22"/>
<polygon fill="orange" stroke="orange" points="154.12,-232.7 159.39,-241.89 161.01,-231.42 154.12,-232.7"/>
</a>
</g>
<text text-anchor="start" x="159" y="-212.5" font-family="Helvetica,sans-Serif" font-size="10.00" fill="grey">&lt; std::string, size_t &gt;</text>
</g>
<!-- Node7 -->
<g id="Node000007" class="node">
<title>Node7</title>
<g id="a_Node000007"><a xlink:title=" ">
<polygon fill="white" stroke="#666666" points="164.5,-349.5 135.5,-349.5 135.5,-330.5 164.5,-330.5 164.5,-349.5"/>
<text text-anchor="middle" x="150" y="-337.5" font-family="Helvetica,sans-Serif" font-size="10.00">K</text>
</a>
</g>
</g>
<!-- Node7&#45;&gt;Node6 -->
<g id="edge6_Node000006_Node000007" class="edge">
<title>Node7&#45;&gt;Node6</title>
<g id="a_edge6_Node000006_Node000007"><a xlink:title=" ">
<path fill="none" stroke="#9a32cd" stroke-dasharray="5,2" d="M149.02,-319.95C148.9,-310.83 149.26,-299.78 151,-290 152.07,-283.98 154.08,-277.58 156.1,-272.09"/>
<polygon fill="#9a32cd" stroke="#9a32cd" points="145.54,-320.37 149.37,-330.25 152.53,-320.13 145.54,-320.37"/>
</a>
</g>
<text text-anchor="start" x="154.5" y="-295.5" font-family="Helvetica,sans-Serif" font-size="10.00" fill="grey">keys</text>
</g>
<!-- Node8 -->
<g id="Node000008" class="node">
<title>Node8</title>
<g id="a_Node000008"><a xlink:title=" ">
<polygon fill="white" stroke="#666666" points="216.5,-349.5 187.5,-349.5 187.5,-330.5 216.5,-330.5 216.5,-349.5"/>
<text text-anchor="middle" x="202" y="-337.5" font-family="Helvetica,sans-Serif" font-size="10.00">T</text>
</a>
</g>
</g>
<!-- Node8&#45;&gt;Node6 -->
<g id="edge7_Node000006_Node000008" class="edge">
<title>Node8&#45;&gt;Node6</title>
<g id="a_edge7_Node000006_Node000008"><a xlink:title=" ">
<path fill="none" stroke="#9a32cd" stroke-dasharray="5,2" d="M194.3,-320.81C190.24,-311.5 185.07,-300.04 180,-290 177.01,-284.08 173.48,-277.69 170.34,-272.19"/>
<polygon fill="#9a32cd" stroke="#9a32cd" points="191.18,-322.41 198.34,-330.21 197.61,-319.64 191.18,-322.41"/>
</a>
</g>
<text text-anchor="start" x="191" y="-295.5" font-family="Helvetica,sans-Serif" font-size="10.00" fill="grey">elements</text>
</g>
</g>
</svg>
