<?xml version="1.0" encoding="UTF-8" standalone="no"?>
<!DOCTYPE svg PUBLIC "-//W3C//DTD SVG 1.1//EN"
 "http://www.w3.org/Graphics/SVG/1.1/DTD/svg11.dtd">
<!-- Generated by graphviz version 2.43.0 (0)
 -->
<!-- Title: kynema_sgf::FieldBCIface Pages: 1 -->
<svg width="373pt" height="175pt"
 viewBox="0.00 0.00 373.00 175.00" xmlns="http://www.w3.org/2000/svg" xmlns:xlink="http://www.w3.org/1999/xlink">

<svg id="main" version="1.1" xmlns="http://www.w3.org/2000/svg" xmlns:xlink="http://www.w3.org/1999/xlink" xml:space="preserve">

<style type="text/css"><![CDATA[
.node, .edge {opacity: 0.7;}
.node.selected, .edge.selected {opacity: 1;}
.edge:hover path { stroke: red; }
.edge:hover polygon { stroke: red; fill: red; }
]]></style>
<script type="application/ecmascript" xlink:href="svg.min.js"/>
<svg id="graph" class="graph">
<g id="graph0" class="graph" transform="scale(1 1) rotate(0) translate(4 171)">
<title>kynema_sgf::FieldBCIface</title>
<!-- Node1 -->
<g id="Node000001" class="node">
<title>Node1</title>
<g id="a_Node000001"><a xlink:title=" ">
<polygon fill="#999999" stroke="#666666" points="142,-93 0,-93 0,-74 142,-74 142,-93"/>
<text text-anchor="middle" x="71" y="-81" font-family="Helvetica,sans-Serif" font-size="10.00">kynema_sgf::FieldBCIface</text>
</a>
</g>
</g>
<!-- Node2 -->
<g id="Node000002" class="node">
<title>Node2</title>
<g id="a_Node000002"><a xlink:href="classkynema__sgf_1_1_a_b_l_temp_wall_func.html" target="_top" xlink:title=" ">
<polygon fill="white" stroke="#666666" points="356,-167 187,-167 187,-148 356,-148 356,-167"/>
<text text-anchor="middle" x="271.5" y="-155" font-family="Helvetica,sans-Serif" font-size="10.00">kynema_sgf::ABLTempWallFunc</text>
</a>
</g>
</g>
<!-- Node1&#45;&gt;Node2 -->
<g id="edge1_Node000001_Node000002" class="edge">
<title>Node1&#45;&gt;Node2</title>
<g id="a_edge1_Node000001_Node000002"><a xlink:title=" ">
<path fill="none" stroke="#63b8ff" d="M95.32,-98.4C116.21,-111.1 148.08,-128.95 178,-139.5 187.57,-142.87 197.92,-145.67 208.13,-147.97"/>
<polygon fill="#63b8ff" stroke="#63b8ff" points="97.15,-95.42 86.8,-93.13 93.47,-101.37 97.15,-95.42"/>
</a>
</g>
</g>
<!-- Node3 -->
<g id="Node000003" class="node">
<title>Node3</title>
<g id="a_Node000003"><a xlink:href="classkynema__sgf_1_1_a_b_l_vel_wall_func.html" target="_top" xlink:title=" ">
<polygon fill="white" stroke="#666666" points="350.5,-130 192.5,-130 192.5,-111 350.5,-111 350.5,-130"/>
<text text-anchor="middle" x="271.5" y="-118" font-family="Helvetica,sans-Serif" font-size="10.00">kynema_sgf::ABLVelWallFunc</text>
</a>
</g>
</g>
<!-- Node1&#45;&gt;Node3 -->
<g id="edge2_Node000001_Node000003" class="edge">
<title>Node1&#45;&gt;Node3</title>
<g id="a_edge2_Node000001_Node000003"><a xlink:title=" ">
<path fill="none" stroke="#63b8ff" d="M133.06,-94.88C160.65,-100.02 192.89,-106.03 219.21,-110.94"/>
<polygon fill="#63b8ff" stroke="#63b8ff" points="133.59,-91.42 123.12,-93.03 132.31,-98.3 133.59,-91.42"/>
</a>
</g>
</g>
<!-- Node4 -->
<g id="Node000004" class="node">
<title>Node4</title>
<g id="a_Node000004"><a xlink:href="classkynema__sgf_1_1_fixed_gradient_b_c.html" target="_top" xlink:title=" ">
<polygon fill="white" stroke="#666666" points="352.5,-93 190.5,-93 190.5,-74 352.5,-74 352.5,-93"/>
<text text-anchor="middle" x="271.5" y="-81" font-family="Helvetica,sans-Serif" font-size="10.00">kynema_sgf::FixedGradientBC</text>
</a>
</g>
</g>
<!-- Node1&#45;&gt;Node4 -->
<g id="edge3_Node000001_Node000004" class="edge">
<title>Node1&#45;&gt;Node4</title>
<g id="a_edge3_Node000001_Node000004"><a xlink:title=" ">
<path fill="none" stroke="#63b8ff" d="M152.57,-83.5C164.97,-83.5 177.77,-83.5 190.17,-83.5"/>
<polygon fill="#63b8ff" stroke="#63b8ff" points="152.26,-80 142.26,-83.5 152.26,-87 152.26,-80"/>
</a>
</g>
</g>
<!-- Node5 -->
<g id="Node000005" class="node">
<title>Node5</title>
<g id="a_Node000005"><a xlink:href="classkynema__sgf_1_1_mass_inflow_outflow_b_c.html" target="_top" xlink:title=" ">
<polygon fill="white" stroke="#666666" points="365,-56 178,-56 178,-37 365,-37 365,-56"/>
<text text-anchor="middle" x="271.5" y="-44" font-family="Helvetica,sans-Serif" font-size="10.00">kynema_sgf::MassInflowOutflowBC</text>
</a>
</g>
</g>
<!-- Node1&#45;&gt;Node5 -->
<g id="edge4_Node000001_Node000005" class="edge">
<title>Node1&#45;&gt;Node5</title>
<g id="a_edge4_Node000001_Node000005"><a xlink:title=" ">
<path fill="none" stroke="#63b8ff" d="M133.06,-72.12C160.65,-66.98 192.89,-60.97 219.21,-56.06"/>
<polygon fill="#63b8ff" stroke="#63b8ff" points="132.31,-68.7 123.12,-73.97 133.59,-75.58 132.31,-68.7"/>
</a>
</g>
</g>
<!-- Node6 -->
<g id="Node000006" class="node">
<title>Node6</title>
<g id="a_Node000006"><a xlink:href="classkynema__sgf_1_1_vel_wall_func.html" target="_top" xlink:title=" ">
<polygon fill="white" stroke="#666666" points="341.5,-19 201.5,-19 201.5,0 341.5,0 341.5,-19"/>
<text text-anchor="middle" x="271.5" y="-7" font-family="Helvetica,sans-Serif" font-size="10.00">kynema_sgf::VelWallFunc</text>
</a>
</g>
</g>
<!-- Node1&#45;&gt;Node6 -->
<g id="edge5_Node000001_Node000006" class="edge">
<title>Node1&#45;&gt;Node6</title>
<g id="a_edge5_Node000001_Node000006"><a xlink:title=" ">
<path fill="none" stroke="#63b8ff" d="M96.02,-68.58C116.96,-56.19 148.51,-38.95 178,-28.5 188.66,-24.72 200.3,-21.6 211.6,-19.05"/>
<polygon fill="#63b8ff" stroke="#63b8ff" points="93.96,-65.74 87.19,-73.9 97.57,-71.74 93.96,-65.74"/>
</a>
</g>
</g>
</g>
</svg>
</svg>

<style type='text/css'>
<![CDATA[
[data-mouse-over-selected='false'] { opacity: 0.7; }
[data-mouse-over-selected='true']  { opacity: 1.0; }
]]>
</style>
<script type="application/ecmascript"><![CDATA[
document.addEventListener('DOMContentLoaded', (event) => {
  highlightEdges();
  highlightAdjacentNodes();
});
]]></script>
</svg>
