<?xml version="1.0" encoding="UTF-8" standalone="no"?>
<!DOCTYPE svg PUBLIC "-//W3C//DTD SVG 1.1//EN"
 "http://www.w3.org/Graphics/SVG/1.1/DTD/svg11.dtd">
<!-- Generated by graphviz version 2.43.0 (0)
 -->
<!-- Title: kynema_sgf::OceanWavesFillInflow Pages: 1 -->
<svg width="245pt" height="255pt"
 viewBox="0.00 0.00 244.50 255.00" xmlns="http://www.w3.org/2000/svg" xmlns:xlink="http://www.w3.org/1999/xlink">
<g id="graph0" class="graph" transform="scale(1 1) rotate(0) translate(4 251)">
<title>kynema_sgf::OceanWavesFillInflow</title>
<!-- Node1 -->
<g id="Node000001" class="node">
<title>Node1</title>
<g id="a_Node000001"><a xlink:title=" ">
<polygon fill="#999999" stroke="#666666" points="158,-30 0,-30 0,0 158,0 158,-30"/>
<text text-anchor="start" x="8" y="-18" font-family="Helvetica,sans-Serif" font-size="10.00">kynema_sgf::OceanWavesFill</text>
<text text-anchor="middle" x="79" y="-7" font-family="Helvetica,sans-Serif" font-size="10.00">Inflow</text>
</a>
</g>
</g>
<!-- Node2 -->
<g id="Node000002" class="node">
<title>Node2</title>
<g id="a_Node000002"><a xlink:href="classkynema__sgf_1_1_field_fill_patch_ops.html" target="_top" xlink:title=" ">
<polygon fill="white" stroke="#666666" points="151.5,-97 6.5,-97 6.5,-67 151.5,-67 151.5,-97"/>
<text text-anchor="start" x="14.5" y="-85" font-family="Helvetica,sans-Serif" font-size="10.00">kynema_sgf::FieldFillPatch</text>
<text text-anchor="middle" x="79" y="-74" font-family="Helvetica,sans-Serif" font-size="10.00">Ops&lt; FieldBCDirichlet &gt;</text>
</a>
</g>
</g>
<!-- Node2&#45;&gt;Node1 -->
<g id="edge1_Node000001_Node000002" class="edge">
<title>Node2&#45;&gt;Node1</title>
<g id="a_edge1_Node000001_Node000002"><a xlink:title=" ">
<path fill="none" stroke="#63b8ff" d="M79,-56.61C79,-47.65 79,-37.82 79,-30.08"/>
<polygon fill="#63b8ff" stroke="#63b8ff" points="75.5,-56.9 79,-66.9 82.5,-56.9 75.5,-56.9"/>
</a>
</g>
</g>
<!-- Node3 -->
<g id="Node000003" class="node">
<title>Node3</title>
<g id="a_Node000003"><a xlink:href="classkynema__sgf_1_1_field_fill_patch_ops_base.html" target="_top" xlink:title=" ">
<polygon fill="white" stroke="#666666" points="147.5,-247 2.5,-247 2.5,-217 147.5,-217 147.5,-247"/>
<text text-anchor="start" x="10.5" y="-235" font-family="Helvetica,sans-Serif" font-size="10.00">kynema_sgf::FieldFillPatch</text>
<text text-anchor="middle" x="75" y="-224" font-family="Helvetica,sans-Serif" font-size="10.00">OpsBase</text>
</a>
</g>
</g>
<!-- Node3&#45;&gt;Node2 -->
<g id="edge2_Node000002_Node000003" class="edge">
<title>Node3&#45;&gt;Node2</title>
<g id="a_edge2_Node000002_Node000003"><a xlink:title=" ">
<path fill="none" stroke="#63b8ff" d="M75.65,-206.81C76.49,-175.72 77.93,-122.73 78.61,-97.37"/>
<polygon fill="#63b8ff" stroke="#63b8ff" points="72.16,-206.72 75.38,-216.81 79.15,-206.91 72.16,-206.72"/>
</a>
</g>
</g>
<!-- Node4 -->
<g id="Node000004" class="node">
<title>Node4</title>
<g id="a_Node000004"><a xlink:href="classkynema__sgf_1_1_field_fill_patch_ops.html" target="_top" xlink:title=" ">
<polygon fill="white" stroke="#666666" points="236.5,-180 91.5,-180 91.5,-150 236.5,-150 236.5,-180"/>
<text text-anchor="start" x="99.5" y="-168" font-family="Helvetica,sans-Serif" font-size="10.00">kynema_sgf::FieldFillPatch</text>
<text text-anchor="middle" x="164" y="-157" font-family="Helvetica,sans-Serif" font-size="10.00">Ops&lt; BCOpCreator &gt;</text>
</a>
</g>
</g>
<!-- Node3&#45;&gt;Node4 -->
<g id="edge4_Node000004_Node000003" class="edge">
<title>Node3&#45;&gt;Node4</title>
<g id="a_edge4_Node000004_Node000003"><a xlink:title=" ">
<path fill="none" stroke="#63b8ff" d="M102.45,-210.95C116.14,-200.95 132.37,-189.1 144.73,-180.08"/>
<polygon fill="#63b8ff" stroke="#63b8ff" points="100.32,-208.17 94.31,-216.9 104.45,-213.82 100.32,-208.17"/>
</a>
</g>
</g>
<!-- Node4&#45;&gt;Node2 -->
<g id="edge3_Node000002_Node000004" class="edge">
<title>Node4&#45;&gt;Node2</title>
<g id="a_edge3_Node000002_Node000004"><a xlink:title=" ">
<path fill="none" stroke="orange" stroke-dasharray="5,2" d="M141.77,-142.82C126.69,-128.45 107.16,-109.84 93.92,-97.22"/>
<polygon fill="orange" stroke="orange" points="139.54,-145.53 149.19,-149.89 144.37,-140.46 139.54,-145.53"/>
</a>
</g>
<text text-anchor="start" x="132.5" y="-120.5" font-family="Helvetica,sans-Serif" font-size="10.00" fill="grey">&lt; FieldBCDirichlet &gt;</text>
</g>
</g>
</svg>
