<?xml version="1.0" encoding="UTF-8" standalone="no"?>
<!DOCTYPE svg PUBLIC "-//W3C//DTD SVG 1.1//EN"
 "http://www.w3.org/Graphics/SVG/1.1/DTD/svg11.dtd">
<!-- Generated by graphviz version 2.43.0 (0)
 -->
<!-- Title: kynema_sgf::DerivedQtyMgr Pages: 1 -->
<svg width="356pt" height="363pt"
 viewBox="0.00 0.00 356.00 363.00" xmlns="http://www.w3.org/2000/svg" xmlns:xlink="http://www.w3.org/1999/xlink">

<svg id="main" version="1.1" xmlns="http://www.w3.org/2000/svg" xmlns:xlink="http://www.w3.org/1999/xlink" xml:space="preserve">

<style type="text/css"><![CDATA[
.node, .edge {opacity: 0.7;}
.node.selected, .edge.selected {opacity: 1;}
.edge:hover path { stroke: red; }
.edge:hover polygon { stroke: red; fill: red; }
]]></style>
<script type="application/ecmascript" xlink:href="svg.min.js"/>
<svg id="graph" class="graph">
<g id="graph0" class="graph" transform="scale(1 1) rotate(0) translate(4 359)">
<title>kynema_sgf::DerivedQtyMgr</title>
<!-- Node1 -->
<g id="Node000001" class="node">
<title>Node1</title>
<g id="a_Node000001"><a xlink:title=" ">
<polygon fill="#999999" stroke="#666666" points="241.5,-19 86.5,-19 86.5,0 241.5,0 241.5,-19"/>
<text text-anchor="middle" x="164" y="-7" font-family="Helvetica,sans-Serif" font-size="10.00">kynema_sgf::DerivedQtyMgr</text>
</a>
</g>
</g>
<!-- Node2 -->
<g id="Node000002" class="node">
<title>Node2</title>
<g id="a_Node000002"><a xlink:href="classkynema__sgf_1_1_field_repo.html" target="_top" xlink:title=" ">
<polygon fill="white" stroke="#666666" points="173.5,-91 44.5,-91 44.5,-72 173.5,-72 173.5,-91"/>
<text text-anchor="middle" x="109" y="-79" font-family="Helvetica,sans-Serif" font-size="10.00">kynema_sgf::FieldRepo</text>
</a>
</g>
</g>
<!-- Node2&#45;&gt;Node1 -->
<g id="edge1_Node000001_Node000002" class="edge">
<title>Node2&#45;&gt;Node1</title>
<g id="a_edge1_Node000001_Node000002"><a xlink:title=" ">
<path fill="none" stroke="#9a32cd" stroke-dasharray="5,2" d="M121.95,-64.01C132.99,-49.96 148.43,-30.32 157.2,-19.15"/>
<polygon fill="#9a32cd" stroke="#9a32cd" points="119.17,-61.89 115.74,-71.92 124.67,-66.22 119.17,-61.89"/>
</a>
</g>
<text text-anchor="start" x="146.5" y="-42.5" font-family="Helvetica,sans-Serif" font-size="10.00" fill="grey">m_repo</text>
</g>
<!-- Node3 -->
<g id="Node000003" class="node">
<title>Node3</title>
<g id="a_Node000003"><a xlink:title=" ">
<polygon fill="white" stroke="#666666" points="144,-189 22,-189 22,-159 144,-159 144,-189"/>
<text text-anchor="start" x="30" y="-177" font-family="Helvetica,sans-Serif" font-size="10.00">std::unordered_map</text>
<text text-anchor="middle" x="83" y="-166" font-family="Helvetica,sans-Serif" font-size="10.00">&lt; std::string, size_t &gt;</text>
</a>
</g>
</g>
<!-- Node3&#45;&gt;Node2 -->
<g id="edge2_Node000002_Node000003" class="edge">
<title>Node3&#45;&gt;Node2</title>
<g id="a_edge2_Node000002_Node000003"><a xlink:title=" ">
<path fill="none" stroke="#9a32cd" stroke-dasharray="5,2" d="M89.88,-149.04C95.37,-129.94 102.75,-104.27 106.53,-91.1"/>
<polygon fill="#9a32cd" stroke="#9a32cd" points="86.46,-148.28 87.06,-158.86 93.19,-150.21 86.46,-148.28"/>
</a>
</g>
<text text-anchor="start" x="104.5" y="-130" font-family="Helvetica,sans-Serif" font-size="10.00" fill="grey">m_fid_map</text>
<text text-anchor="start" x="104.5" y="-115" font-family="Helvetica,sans-Serif" font-size="10.00" fill="grey">m_int_fid_map</text>
</g>
<!-- Node4 -->
<g id="Node000004" class="node">
<title>Node4</title>
<g id="a_Node000004"><a xlink:title=" ">
<polygon fill="white" stroke="#666666" points="84.5,-266.5 19.5,-266.5 19.5,-247.5 84.5,-247.5 84.5,-266.5"/>
<text text-anchor="middle" x="52" y="-254.5" font-family="Helvetica,sans-Serif" font-size="10.00">std::string</text>
</a>
</g>
</g>
<!-- Node4&#45;&gt;Node3 -->
<g id="edge3_Node000003_Node000004" class="edge">
<title>Node4&#45;&gt;Node3</title>
<g id="a_edge3_Node000003_Node000004"><a xlink:title=" ">
<path fill="none" stroke="#9a32cd" stroke-dasharray="5,2" d="M38.2,-239.03C32.09,-229.36 27.42,-217.19 33,-207 37.01,-199.68 43.48,-193.78 50.47,-189.15"/>
<polygon fill="#9a32cd" stroke="#9a32cd" points="35.52,-241.3 44.2,-247.38 41.2,-237.21 35.52,-241.3"/>
</a>
</g>
<text text-anchor="start" x="36.5" y="-212.5" font-family="Helvetica,sans-Serif" font-size="10.00" fill="grey">keys</text>
</g>
<!-- Node9 -->
<g id="Node000009" class="node">
<title>Node9</title>
<g id="a_Node000009"><a xlink:title=" ">
<polygon fill="white" stroke="#666666" points="276,-189 162,-189 162,-159 276,-159 276,-189"/>
<text text-anchor="start" x="170" y="-177" font-family="Helvetica,sans-Serif" font-size="10.00">std::unordered_map</text>
<text text-anchor="middle" x="219" y="-166" font-family="Helvetica,sans-Serif" font-size="10.00">&lt; std::string, int &gt;</text>
</a>
</g>
</g>
<!-- Node4&#45;&gt;Node9 -->
<g id="edge9_Node000009_Node000004" class="edge">
<title>Node4&#45;&gt;Node9</title>
<g id="a_edge9_Node000009_Node000004"><a xlink:title=" ">
<path fill="none" stroke="#9a32cd" stroke-dasharray="5,2" d="M58.8,-238.04C63.7,-227.47 71.34,-214.7 82,-207 85.45,-204.51 125.82,-195.23 161.85,-187.3"/>
<polygon fill="#9a32cd" stroke="#9a32cd" points="55.57,-236.69 54.93,-247.27 62.03,-239.4 55.57,-236.69"/>
</a>
</g>
<text text-anchor="start" x="85.5" y="-212.5" font-family="Helvetica,sans-Serif" font-size="10.00" fill="grey">keys</text>
</g>
<!-- Node5 -->
<g id="Node000005" class="node">
<title>Node5</title>
<g id="a_Node000005"><a xlink:title=" ">
<polygon fill="white" stroke="#666666" points="104,-355 0,-355 0,-325 104,-325 104,-355"/>
<text text-anchor="start" x="8" y="-343" font-family="Helvetica,sans-Serif" font-size="10.00">std::basic_string&lt;</text>
<text text-anchor="middle" x="52" y="-332" font-family="Helvetica,sans-Serif" font-size="10.00"> Char &gt;</text>
</a>
</g>
</g>
<!-- Node5&#45;&gt;Node4 -->
<g id="edge4_Node000004_Node000005" class="edge">
<title>Node5&#45;&gt;Node4</title>
<g id="a_edge4_Node000004_Node000005"><a xlink:title=" ">
<path fill="none" stroke="#63b8ff" d="M52,-314.55C52,-298.45 52,-278.32 52,-266.94"/>
<polygon fill="#63b8ff" stroke="#63b8ff" points="48.5,-314.89 52,-324.89 55.5,-314.89 48.5,-314.89"/>
</a>
</g>
</g>
<!-- Node6 -->
<g id="Node000006" class="node">
<title>Node6</title>
<g id="a_Node000006"><a xlink:title=" ">
<polygon fill="white" stroke="#666666" points="271,-272 157,-272 157,-242 271,-242 271,-272"/>
<text text-anchor="start" x="165" y="-260" font-family="Helvetica,sans-Serif" font-size="10.00">std::unordered_map</text>
<text text-anchor="middle" x="214" y="-249" font-family="Helvetica,sans-Serif" font-size="10.00">&lt; K, T &gt;</text>
</a>
</g>
</g>
<!-- Node6&#45;&gt;Node3 -->
<g id="edge5_Node000003_Node000006" class="edge">
<title>Node6&#45;&gt;Node3</title>
<g id="a_edge5_Node000003_Node000006"><a xlink:title=" ">
<path fill="none" stroke="orange" stroke-dasharray="5,2" d="M159.89,-238.12C150.59,-234.08 141.28,-229.37 133,-224 128.92,-221.35 110.41,-202.87 97.1,-189.39"/>
<polygon fill="orange" stroke="orange" points="158.55,-241.36 169.13,-241.94 161.22,-234.89 158.55,-241.36"/>
</a>
</g>
<text text-anchor="start" x="136" y="-212.5" font-family="Helvetica,sans-Serif" font-size="10.00" fill="grey">&lt; std::string, size_t &gt;</text>
</g>
<!-- Node6&#45;&gt;Node9 -->
<g id="edge10_Node000009_Node000006" class="edge">
<title>Node6&#45;&gt;Node9</title>
<g id="a_edge10_Node000009_Node000006"><a xlink:title=" ">
<path fill="none" stroke="orange" stroke-dasharray="5,2" d="M242.01,-234.84C244.83,-231.53 247.28,-227.9 249,-224 252.05,-217.09 251.78,-214.03 249,-207 246.37,-200.34 241.62,-194.26 236.67,-189.23"/>
<polygon fill="orange" stroke="orange" points="239.49,-232.4 234.93,-241.96 244.46,-237.34 239.49,-232.4"/>
</a>
</g>
<text text-anchor="start" x="254.5" y="-212.5" font-family="Helvetica,sans-Serif" font-size="10.00" fill="grey">&lt; std::string, int &gt;</text>
</g>
<!-- Node7 -->
<g id="Node000007" class="node">
<title>Node7</title>
<g id="a_Node000007"><a xlink:title=" ">
<polygon fill="white" stroke="#666666" points="265.5,-349.5 236.5,-349.5 236.5,-330.5 265.5,-330.5 265.5,-349.5"/>
<text text-anchor="middle" x="251" y="-337.5" font-family="Helvetica,sans-Serif" font-size="10.00">K</text>
</a>
</g>
</g>
<!-- Node7&#45;&gt;Node6 -->
<g id="edge6_Node000006_Node000007" class="edge">
<title>Node7&#45;&gt;Node6</title>
<g id="a_edge6_Node000006_Node000007"><a xlink:title=" ">
<path fill="none" stroke="#9a32cd" stroke-dasharray="5,2" d="M242.98,-320.96C238.84,-311.69 233.69,-300.22 229,-290 226.34,-284.2 223.36,-277.83 220.77,-272.31"/>
<polygon fill="#9a32cd" stroke="#9a32cd" points="239.88,-322.6 247.15,-330.31 246.28,-319.75 239.88,-322.6"/>
</a>
</g>
<text text-anchor="start" x="239.5" y="-295.5" font-family="Helvetica,sans-Serif" font-size="10.00" fill="grey">keys</text>
</g>
<!-- Node8 -->
<g id="Node000008" class="node">
<title>Node8</title>
<g id="a_Node000008"><a xlink:title=" ">
<polygon fill="white" stroke="#666666" points="190.5,-349.5 161.5,-349.5 161.5,-330.5 190.5,-330.5 190.5,-349.5"/>
<text text-anchor="middle" x="176" y="-337.5" font-family="Helvetica,sans-Serif" font-size="10.00">T</text>
</a>
</g>
</g>
<!-- Node8&#45;&gt;Node6 -->
<g id="edge7_Node000006_Node000008" class="edge">
<title>Node8&#45;&gt;Node6</title>
<g id="a_edge7_Node000006_Node000008"><a xlink:title=" ">
<path fill="none" stroke="#9a32cd" stroke-dasharray="5,2" d="M170.59,-320.17C168.9,-310.67 168.49,-299.25 173,-290 176.49,-282.86 182.42,-276.85 188.71,-272.03"/>
<polygon fill="#9a32cd" stroke="#9a32cd" points="167.25,-321.24 172.95,-330.17 174.06,-319.64 167.25,-321.24"/>
</a>
</g>
<text text-anchor="start" x="176" y="-295.5" font-family="Helvetica,sans-Serif" font-size="10.00" fill="grey">elements</text>
</g>
<!-- Node9&#45;&gt;Node1 -->
<g id="edge8_Node000001_Node000009" class="edge">
<title>Node9&#45;&gt;Node1</title>
<g id="a_edge8_Node000001_Node000009"><a xlink:title=" ">
<path fill="none" stroke="#9a32cd" stroke-dasharray="5,2" d="M217.87,-148.37C215.66,-119.98 209.16,-72.67 190,-37 186.34,-30.19 180.4,-23.94 175.12,-19.22"/>
<polygon fill="#9a32cd" stroke="#9a32cd" points="214.39,-148.85 218.54,-158.6 221.38,-148.39 214.39,-148.85"/>
</a>
</g>
<text text-anchor="start" x="212" y="-78.5" font-family="Helvetica,sans-Serif" font-size="10.00" fill="grey">m_obj_map</text>
</g>
</g>
</svg>
</svg>

<style type='text/css'>
<![CDATA[
[data-mouse-over-selected='false'] { opacity: 0.7; }
[data-mouse-over-selected='true']  { opacity: 1.0; }
]]>
</style>
<script type="application/ecmascript"><![CDATA[
document.addEventListener('DOMContentLoaded', (event) => {
  highlightEdges();
  highlightAdjacentNodes();
});
]]></script>
</svg>
