<?xml version="1.0" encoding="UTF-8" standalone="no"?>
<!DOCTYPE svg PUBLIC "-//W3C//DTD SVG 1.1//EN"
 "http://www.w3.org/Graphics/SVG/1.1/DTD/svg11.dtd">
<!-- Generated by graphviz version 2.43.0 (0)
 -->
<!-- Title: kynema_sgf::pde::icns::ABLForcing Pages: 1 -->
<!--zoomable 405 -->

<svg id="main" version="1.1" xmlns="http://www.w3.org/2000/svg" xmlns:xlink="http://www.w3.org/1999/xlink" xml:space="preserve" onload="init(evt)">

<style type="text/css"><![CDATA[
.node, .edge {opacity: 0.7;}
.node.selected, .edge.selected {opacity: 1;}
.edge:hover path { stroke: red; }
.edge:hover polygon { stroke: red; fill: red; }
]]></style>

<defs>
  <circle id="rim" cx="0" cy="0" r="7"/>
  <circle id="rim2" cx="0" cy="0" r="3.5"/>
  <g id="zoomPlus">
    <use xlink:href="#rim" fill="#404040"><set attributeName="fill" to="#808080" begin="zoomplus.mouseover" end="zoomplus.mouseout"/></use>
    <path d="M-4,0h8M0,-4v8" fill="none" stroke="white" stroke-width="1.5" pointer-events="none"/>
  </g>
  <g id="zoomMin">
    <use xlink:href="#rim" fill="#404040"><set attributeName="fill" to="#808080" begin="zoomminus.mouseover" end="zoomminus.mouseout"/></use>
    <path d="M-4,0h8" fill="none" stroke="white" stroke-width="1.5" pointer-events="none"/>
  </g>
  <g id="arrowUp" transform="translate(30 24)">
    <use xlink:href="#rim"/>
    <path pointer-events="none" fill="none" stroke="white" stroke-width="1.5" d="M0,-3.0v7 M-2.5,-0.5L0,-3.0L2.5,-0.5"/>
  </g>
  <g id="arrowRight" transform="rotate(90) translate(36 -43)">
    <use xlink:href="#rim"/>
    <path pointer-events="none" fill="none" stroke="white" stroke-width="1.5" d="M0,-3.0v7 M-2.5,-0.5L0,-3.0L2.5,-0.5"/>
  </g>
  <g id="arrowDown" transform="rotate(180) translate(-30 -48)">
    <use xlink:href="#rim"/>
    <path pointer-events="none" fill="none" stroke="white" stroke-width="1.5" d="M0,-3.0v7 M-2.5,-0.5L0,-3.0L2.5,-0.5"/>
  </g>
  <g id="arrowLeft" transform="rotate(270) translate(-36 17)">
    <use xlink:href="#rim"/>
    <path pointer-events="none" fill="none" stroke="white" stroke-width="1.5" d="M0,-3.0v7 M-2.5,-0.5L0,-3.0L2.5,-0.5"/>
  </g>
  <g id="resetDef">
    <use xlink:href="#rim2" fill="#404040"><set attributeName="fill" to="#808080" begin="reset.mouseover" end="reset.mouseout"/></use>
  </g>
</defs>
<script type="application/ecmascript">
var viewWidth = 1636;
var viewHeight = 405;
var sectionId = 'dynsection-1';
</script>
<script type="application/ecmascript" xlink:href="svg.min.js"/>
<svg id="graph" class="graph">
<g id="viewport">
<title>kynema_sgf::pde::icns::ABLForcing</title>
<!-- Node1 -->
<g id="Node000001" class="node">
<title>Node1</title>
<g id="a_Node000001"><a xlink:title=" ">
<polygon fill="#999999" stroke="#666666" points="1628,-312.5 1503,-312.5 1503,-282.5 1628,-282.5 1628,-312.5"/>
<text text-anchor="start" x="1511" y="-300.5" font-family="Helvetica,sans-Serif" font-size="10.00">kynema_sgf::pde::icns</text>
<text text-anchor="middle" x="1565.5" y="-289.5" font-family="Helvetica,sans-Serif" font-size="10.00">::ABLForcing</text>
</a>
</g>
</g>
<!-- Node2 -->
<g id="Node000002" class="node">
<title>Node2</title>
<g id="a_Node000002"><a xlink:title=" ">
<polygon fill="white" stroke="#666666" points="1430,-397 1281,-397 1281,-356 1430,-356 1430,-397"/>
<text text-anchor="start" x="1289" y="-385" font-family="Helvetica,sans-Serif" font-size="10.00">kynema_sgf::Factory</text>
<text text-anchor="start" x="1289" y="-374" font-family="Helvetica,sans-Serif" font-size="10.00">&lt; MomentumSource, const</text>
<text text-anchor="middle" x="1355.5" y="-363" font-family="Helvetica,sans-Serif" font-size="10.00"> CFDSim &amp; &gt;::Register</text>
</a>
</g>
</g>
<!-- Node2&#45;&gt;Node1 -->
<g id="edge1_Node000001_Node000002" class="edge">
<title>Node2&#45;&gt;Node1</title>
<g id="a_edge1_Node000001_Node000002"><a xlink:title=" ">
<path fill="none" stroke="#63b8ff" d="M1440.11,-356.86C1455.26,-352.42 1470.77,-347.28 1485,-341.5 1504.59,-333.55 1525.45,-321.86 1540.89,-312.54"/>
<polygon fill="#63b8ff" stroke="#63b8ff" points="1438.88,-353.57 1430.22,-359.67 1440.8,-360.3 1438.88,-353.57"/>
</a>
</g>
</g>
<!-- Node3 -->
<g id="Node000003" class="node">
<title>Node3</title>
<g id="a_Node000003"><a xlink:href="classkynema__sgf_1_1_sim_time.html" target="_top" xlink:title=" ">
<polygon fill="white" stroke="#666666" points="1043,-331 918,-331 918,-312 1043,-312 1043,-331"/>
<text text-anchor="middle" x="980.5" y="-319" font-family="Helvetica,sans-Serif" font-size="10.00">kynema_sgf::SimTime</text>
</a>
</g>
</g>
<!-- Node3&#45;&gt;Node1 -->
<g id="edge2_Node000001_Node000003" class="edge">
<title>Node3&#45;&gt;Node1</title>
<g id="a_edge2_Node000001_Node000003"><a xlink:title=" ">
<path fill="none" stroke="#9a32cd" stroke-dasharray="5,2" d="M1053.22,-318.55C1168.73,-313.79 1394,-304.52 1502.79,-300.04"/>
<polygon fill="#9a32cd" stroke="#9a32cd" points="1052.91,-315.06 1043.06,-318.97 1053.2,-322.05 1052.91,-315.06"/>
</a>
</g>
<text text-anchor="start" x="1222" y="-316" font-family="Helvetica,sans-Serif" font-size="10.00" fill="grey">m_time</text>
</g>
<!-- Node4 -->
<g id="Node000004" class="node">
<title>Node4</title>
<g id="a_Node000004"><a xlink:title=" ">
<polygon fill="white" stroke="#666666" points="580,-321 468,-321 468,-302 580,-302 580,-321"/>
<text text-anchor="middle" x="524" y="-309" font-family="Helvetica,sans-Serif" font-size="10.00">std::vector&lt; bool &gt;</text>
</a>
</g>
</g>
<!-- Node4&#45;&gt;Node3 -->
<g id="edge3_Node000003_Node000004" class="edge">
<title>Node4&#45;&gt;Node3</title>
<g id="a_edge3_Node000003_Node000004"><a xlink:title=" ">
<path fill="none" stroke="#9a32cd" stroke-dasharray="5,2" d="M590.35,-312.94C677.88,-314.86 832.06,-318.26 917.72,-320.14"/>
<polygon fill="#9a32cd" stroke="#9a32cd" points="590.35,-309.44 580.28,-312.72 590.2,-316.44 590.35,-309.44"/>
</a>
</g>
<text text-anchor="start" x="625.5" y="-322" font-family="Helvetica,sans-Serif" font-size="10.00" fill="grey">m_postprocess_enforce_dt</text>
</g>
<!-- Node5 -->
<g id="Node000005" class="node">
<title>Node5</title>
<g id="a_Node000005"><a xlink:title=" ">
<polygon fill="white" stroke="#666666" points="238,-306 141,-306 141,-287 238,-287 238,-306"/>
<text text-anchor="middle" x="189.5" y="-294" font-family="Helvetica,sans-Serif" font-size="10.00">std::vector&lt; T &gt;</text>
</a>
</g>
</g>
<!-- Node5&#45;&gt;Node4 -->
<g id="edge4_Node000004_Node000005" class="edge">
<title>Node5&#45;&gt;Node4</title>
<g id="a_edge4_Node000004_Node000005"><a xlink:title=" ">
<path fill="none" stroke="orange" stroke-dasharray="5,2" d="M248.49,-299.12C310.28,-301.9 407.35,-306.28 467.98,-309.02"/>
<polygon fill="orange" stroke="orange" points="248.29,-295.6 238.14,-298.65 247.97,-302.6 248.29,-295.6"/>
</a>
</g>
<text text-anchor="start" x="331" y="-312" font-family="Helvetica,sans-Serif" font-size="10.00" fill="grey">&lt; bool &gt;</text>
</g>
<!-- Node6 -->
<g id="Node000006" class="node">
<title>Node6</title>
<g id="a_Node000006"><a xlink:title=" ">
<polygon fill="white" stroke="#666666" points="29,-127 0,-127 0,-108 29,-108 29,-127"/>
<text text-anchor="middle" x="14.5" y="-115" font-family="Helvetica,sans-Serif" font-size="10.00">T</text>
</a>
</g>
</g>
<!-- Node6&#45;&gt;Node5 -->
<g id="edge5_Node000005_Node000006" class="edge">
<title>Node6&#45;&gt;Node5</title>
<g id="a_edge5_Node000005_Node000006"><a xlink:title=" ">
<path fill="none" stroke="#9a32cd" stroke-dasharray="5,2" d="M20.3,-137.04C25.14,-154.09 33.79,-178.95 47,-197.5 78.12,-241.22 134.9,-272.2 166.24,-286.88"/>
<polygon fill="#9a32cd" stroke="#9a32cd" points="23.61,-135.87 17.67,-127.1 16.85,-137.66 23.61,-135.87"/>
</a>
</g>
<text text-anchor="start" x="50" y="-251" font-family="Helvetica,sans-Serif" font-size="10.00" fill="grey">elements</text>
</g>
<!-- Node12 -->
<g id="Node000012" class="node">
<title>Node12</title>
<g id="a_Node000012"><a xlink:title=" ">
<polygon fill="white" stroke="#666666" points="581,-152.5 467,-152.5 467,-122.5 581,-122.5 581,-152.5"/>
<text text-anchor="start" x="475" y="-140.5" font-family="Helvetica,sans-Serif" font-size="10.00">std::unordered_map</text>
<text text-anchor="middle" x="524" y="-129.5" font-family="Helvetica,sans-Serif" font-size="10.00">&lt; K, T &gt;</text>
</a>
</g>
</g>
<!-- Node6&#45;&gt;Node12 -->
<g id="edge14_Node000012_Node000006" class="edge">
<title>Node6&#45;&gt;Node12</title>
<g id="a_edge14_Node000012_Node000006"><a xlink:title=" ">
<path fill="none" stroke="#9a32cd" stroke-dasharray="5,2" d="M38.42,-129.01C58.55,-138.46 88.93,-151.11 117,-156.5 251.88,-182.38 289.44,-173.11 426,-158.5 439.36,-157.07 453.59,-154.56 466.91,-151.77"/>
<polygon fill="#9a32cd" stroke="#9a32cd" points="39.69,-125.74 29.16,-124.55 36.65,-132.04 39.69,-125.74"/>
</a>
</g>
<text text-anchor="start" x="166.5" y="-178" font-family="Helvetica,sans-Serif" font-size="10.00" fill="grey">elements</text>
</g>
<!-- Node18 -->
<g id="Node000018" class="node">
<title>Node18</title>
<g id="a_Node000018"><a xlink:title=" ">
<polygon fill="white" stroke="#666666" points="248.5,-59 130.5,-59 130.5,-40 248.5,-40 248.5,-59"/>
<text text-anchor="middle" x="189.5" y="-47" font-family="Helvetica,sans-Serif" font-size="10.00">std::unique_ptr&lt; T &gt;</text>
</a>
</g>
</g>
<!-- Node6&#45;&gt;Node18 -->
<g id="edge22_Node000018_Node000006" class="edge">
<title>Node6&#45;&gt;Node18</title>
<g id="a_edge22_Node000018_Node000006"><a xlink:title=" ">
<path fill="none" stroke="#9a32cd" stroke-dasharray="5,2" d="M38.08,-105.87C58.38,-95.7 89.2,-80.96 117,-70.5 128.26,-66.27 140.78,-62.34 152.15,-59.05"/>
<polygon fill="#9a32cd" stroke="#9a32cd" points="36.36,-102.82 29.02,-110.46 39.52,-109.06 36.36,-102.82"/>
</a>
</g>
<text text-anchor="start" x="66" y="-107" font-family="Helvetica,sans-Serif" font-size="10.00" fill="grey">ptr</text>
</g>
<!-- Node19 -->
<g id="Node000019" class="node">
<title>Node19</title>
<g id="a_Node000019"><a xlink:title=" ">
<polygon fill="white" stroke="#666666" points="412,-19 294,-19 294,0 412,0 412,-19"/>
<text text-anchor="middle" x="353" y="-7" font-family="Helvetica,sans-Serif" font-size="10.00">std::shared_ptr&lt; T &gt;</text>
</a>
</g>
</g>
<!-- Node6&#45;&gt;Node19 -->
<g id="edge24_Node000019_Node000006" class="edge">
<title>Node6&#45;&gt;Node19</title>
<g id="a_edge24_Node000019_Node000006"><a xlink:title=" ">
<path fill="none" stroke="#9a32cd" stroke-dasharray="5,2" d="M21.59,-98.14C26.57,-85.1 34.8,-68.37 47,-57.5 71.9,-35.32 84.52,-38.06 117,-30.5 176.24,-16.71 245.83,-11.86 293.83,-10.21"/>
<polygon fill="#9a32cd" stroke="#9a32cd" points="18.27,-97.02 18.28,-107.62 24.88,-99.33 18.27,-97.02"/>
</a>
</g>
<text text-anchor="start" x="66" y="-63" font-family="Helvetica,sans-Serif" font-size="10.00" fill="grey">ptr</text>
</g>
<!-- Node7 -->
<g id="Node000007" class="node">
<title>Node7</title>
<g id="a_Node000007"><a xlink:title=" ">
<polygon fill="white" stroke="#666666" points="556.5,-235 491.5,-235 491.5,-216 556.5,-216 556.5,-235"/>
<text text-anchor="middle" x="524" y="-223" font-family="Helvetica,sans-Serif" font-size="10.00">std::string</text>
</a>
</g>
</g>
<!-- Node7&#45;&gt;Node1 -->
<g id="edge6_Node000001_Node000007" class="edge">
<title>Node7&#45;&gt;Node1</title>
<g id="a_edge6_Node000001_Node000007"><a xlink:title=" ">
<path fill="none" stroke="#9a32cd" stroke-dasharray="5,2" d="M566.55,-234.68C626.2,-247.04 739.7,-267.5 837.5,-267.5 837.5,-267.5 837.5,-267.5 1356.5,-267.5 1406.12,-267.5 1461.72,-275.97 1502.95,-283.9"/>
<polygon fill="#9a32cd" stroke="#9a32cd" points="567.26,-231.26 556.75,-232.62 565.82,-238.11 567.26,-231.26"/>
</a>
</g>
<text text-anchor="start" x="1085" y="-288.5" font-family="Helvetica,sans-Serif" font-size="10.00" fill="grey">m_force_timetable</text>
<text text-anchor="start" x="1085" y="-273.5" font-family="Helvetica,sans-Serif" font-size="10.00" fill="grey">m_vel_timetable</text>
</g>
<!-- Node9 -->
<g id="Node000009" class="node">
<title>Node9</title>
<g id="a_Node000009"><a xlink:href="classkynema__sgf_1_1_field.html" target="_top" xlink:title=" ">
<polygon fill="white" stroke="#666666" points="1407.5,-212 1303.5,-212 1303.5,-193 1407.5,-193 1407.5,-212"/>
<text text-anchor="middle" x="1355.5" y="-200" font-family="Helvetica,sans-Serif" font-size="10.00">kynema_sgf::Field</text>
</a>
</g>
</g>
<!-- Node7&#45;&gt;Node9 -->
<g id="edge15_Node000009_Node000007" class="edge">
<title>Node7&#45;&gt;Node9</title>
<g id="a_edge15_Node000009_Node000007"><a xlink:title=" ">
<path fill="none" stroke="#9a32cd" stroke-dasharray="5,2" d="M566.91,-224.92C679.53,-223.27 998.13,-217.96 1263,-207.5 1276.04,-206.98 1290.11,-206.29 1303.22,-205.58"/>
<polygon fill="#9a32cd" stroke="#9a32cd" points="566.61,-221.42 556.66,-225.07 566.71,-228.42 566.61,-221.42"/>
</a>
</g>
<text text-anchor="start" x="959.5" y="-223" font-family="Helvetica,sans-Serif" font-size="10.00" fill="grey">m_name</text>
</g>
<!-- Node11 -->
<g id="Node000011" class="node">
<title>Node11</title>
<g id="a_Node000011"><a xlink:title=" ">
<polygon fill="white" stroke="#666666" points="899.5,-185.5 777.5,-185.5 777.5,-155.5 899.5,-155.5 899.5,-185.5"/>
<text text-anchor="start" x="785.5" y="-173.5" font-family="Helvetica,sans-Serif" font-size="10.00">std::unordered_map</text>
<text text-anchor="middle" x="838.5" y="-162.5" font-family="Helvetica,sans-Serif" font-size="10.00">&lt; std::string, size_t &gt;</text>
</a>
</g>
</g>
<!-- Node7&#45;&gt;Node11 -->
<g id="edge11_Node000011_Node000007" class="edge">
<title>Node7&#45;&gt;Node11</title>
<g id="a_edge11_Node000011_Node000007"><a xlink:title=" ">
<path fill="none" stroke="#9a32cd" stroke-dasharray="5,2" d="M559.79,-212.53C578.08,-206.19 600.99,-198.98 622,-194.5 673.73,-183.47 733.59,-177.32 777.07,-174.01"/>
<polygon fill="#9a32cd" stroke="#9a32cd" points="558.42,-209.31 550.16,-215.94 560.75,-215.9 558.42,-209.31"/>
</a>
</g>
<text text-anchor="start" x="679.5" y="-200" font-family="Helvetica,sans-Serif" font-size="10.00" fill="grey">keys</text>
</g>
<!-- Node15 -->
<g id="Node000015" class="node">
<title>Node15</title>
<g id="a_Node000015"><a xlink:href="structkynema__sgf_1_1_field_info.html" target="_top" xlink:title=" ">
<polygon fill="white" stroke="#666666" points="900,-99 777,-99 777,-80 900,-80 900,-99"/>
<text text-anchor="middle" x="838.5" y="-87" font-family="Helvetica,sans-Serif" font-size="10.00">kynema_sgf::FieldInfo</text>
</a>
</g>
</g>
<!-- Node7&#45;&gt;Node15 -->
<g id="edge18_Node000015_Node000007" class="edge">
<title>Node7&#45;&gt;Node15</title>
<g id="a_edge18_Node000015_Node000007"><a xlink:title=" ">
<path fill="none" stroke="#9a32cd" stroke-dasharray="5,2" d="M542.27,-208.91C560.54,-192.36 590.98,-167.58 622,-154.5 678.89,-130.51 700.57,-151.44 759,-131.5 782.7,-123.41 807.84,-108.74 823.11,-99.06"/>
<polygon fill="#9a32cd" stroke="#9a32cd" points="539.72,-206.5 534.77,-215.86 544.48,-211.63 539.72,-206.5"/>
</a>
</g>
<text text-anchor="start" x="657.5" y="-160" font-family="Helvetica,sans-Serif" font-size="10.00" fill="grey">m_basename</text>
</g>
<!-- Node8 -->
<g id="Node000008" class="node">
<title>Node8</title>
<g id="a_Node000008"><a xlink:title=" ">
<polygon fill="white" stroke="#666666" points="241.5,-248.5 137.5,-248.5 137.5,-218.5 241.5,-218.5 241.5,-248.5"/>
<text text-anchor="start" x="145.5" y="-236.5" font-family="Helvetica,sans-Serif" font-size="10.00">std::basic_string&lt;</text>
<text text-anchor="middle" x="189.5" y="-225.5" font-family="Helvetica,sans-Serif" font-size="10.00"> Char &gt;</text>
</a>
</g>
</g>
<!-- Node8&#45;&gt;Node7 -->
<g id="edge7_Node000007_Node000008" class="edge">
<title>Node8&#45;&gt;Node7</title>
<g id="a_edge7_Node000007_Node000008"><a xlink:title=" ">
<path fill="none" stroke="#63b8ff" d="M251.85,-232.02C322.64,-230.32 436.34,-227.59 491.27,-226.26"/>
<polygon fill="#63b8ff" stroke="#63b8ff" points="251.64,-228.53 241.72,-232.27 251.81,-235.53 251.64,-228.53"/>
</a>
</g>
</g>
<!-- Node9&#45;&gt;Node1 -->
<g id="edge8_Node000001_Node000009" class="edge">
<title>Node9&#45;&gt;Node1</title>
<g id="a_edge8_Node000001_Node000009"><a xlink:title=" ">
<path fill="none" stroke="#9a32cd" stroke-dasharray="5,2" d="M1417.47,-213.43C1439.44,-218.7 1463.98,-226.18 1485,-236.5 1509.36,-248.46 1533.55,-268.5 1548.74,-282.33"/>
<polygon fill="#9a32cd" stroke="#9a32cd" points="1418.11,-209.98 1407.58,-211.16 1416.54,-216.8 1418.11,-209.98"/>
</a>
</g>
<text text-anchor="start" x="1451.5" y="-242" font-family="Helvetica,sans-Serif" font-size="10.00" fill="grey">m_vof</text>
</g>
<!-- Node10 -->
<g id="Node000010" class="node">
<title>Node10</title>
<g id="a_Node000010"><a xlink:href="classkynema__sgf_1_1_field_repo.html" target="_top" xlink:title=" ">
<polygon fill="white" stroke="#666666" points="1195.5,-189 1066.5,-189 1066.5,-170 1195.5,-170 1195.5,-189"/>
<text text-anchor="middle" x="1131" y="-177" font-family="Helvetica,sans-Serif" font-size="10.00">kynema_sgf::FieldRepo</text>
</a>
</g>
</g>
<!-- Node10&#45;&gt;Node9 -->
<g id="edge9_Node000009_Node000010" class="edge">
<title>Node10&#45;&gt;Node9</title>
<g id="a_edge9_Node000009_Node000010"><a xlink:title=" ">
<path fill="none" stroke="#9a32cd" stroke-dasharray="5,2" d="M1205.9,-185.1C1224.55,-186.68 1244.52,-188.51 1263,-190.5 1276.06,-191.9 1290.14,-193.64 1303.25,-195.35"/>
<polygon fill="#9a32cd" stroke="#9a32cd" points="1205.95,-181.59 1195.69,-184.25 1205.36,-188.57 1205.95,-181.59"/>
</a>
</g>
<text text-anchor="start" x="1223" y="-196" font-family="Helvetica,sans-Serif" font-size="10.00" fill="grey">m_repo</text>
</g>
<!-- Node11&#45;&gt;Node10 -->
<g id="edge10_Node000010_Node000011" class="edge">
<title>Node11&#45;&gt;Node10</title>
<g id="a_edge10_Node000010_Node000011"><a xlink:title=" ">
<path fill="none" stroke="#9a32cd" stroke-dasharray="5,2" d="M909.89,-169.34C949.1,-169.08 998.78,-169.36 1043,-171.5 1050.58,-171.87 1058.51,-172.39 1066.38,-173.01"/>
<polygon fill="#9a32cd" stroke="#9a32cd" points="909.61,-165.85 899.64,-169.43 909.67,-172.85 909.61,-165.85"/>
</a>
</g>
<text text-anchor="start" x="944.5" y="-192.5" font-family="Helvetica,sans-Serif" font-size="10.00" fill="grey">m_fid_map</text>
<text text-anchor="start" x="944.5" y="-177.5" font-family="Helvetica,sans-Serif" font-size="10.00" fill="grey">m_int_fid_map</text>
</g>
<!-- Node12&#45;&gt;Node11 -->
<g id="edge12_Node000011_Node000012" class="edge">
<title>Node12&#45;&gt;Node11</title>
<g id="a_edge12_Node000011_Node000012"><a xlink:title=" ">
<path fill="none" stroke="orange" stroke-dasharray="5,2" d="M580.5,-119.76C628.77,-107.19 700.02,-95.62 759,-114.5 784.03,-122.51 807.89,-141.76 822.59,-155.45"/>
<polygon fill="orange" stroke="orange" points="579.3,-116.46 570.56,-122.44 581.13,-123.21 579.3,-116.46"/>
</a>
</g>
<text text-anchor="start" x="637.5" y="-120" font-family="Helvetica,sans-Serif" font-size="10.00" fill="grey">&lt; std::string, size_t &gt;</text>
</g>
<!-- Node13 -->
<g id="Node000013" class="node">
<title>Node13</title>
<g id="a_Node000013"><a xlink:title=" ">
<polygon fill="white" stroke="#666666" points="204,-147 175,-147 175,-128 204,-128 204,-147"/>
<text text-anchor="middle" x="189.5" y="-135" font-family="Helvetica,sans-Serif" font-size="10.00">K</text>
</a>
</g>
</g>
<!-- Node13&#45;&gt;Node12 -->
<g id="edge13_Node000012_Node000013" class="edge">
<title>Node13&#45;&gt;Node12</title>
<g id="a_edge13_Node000012_Node000013"><a xlink:title=" ">
<path fill="none" stroke="#9a32cd" stroke-dasharray="5,2" d="M214.38,-137.5C266.77,-137.5 393.02,-137.5 466.8,-137.5"/>
<polygon fill="#9a32cd" stroke="#9a32cd" points="214.36,-134 204.36,-137.5 214.36,-141 214.36,-134"/>
</a>
</g>
<text text-anchor="start" x="342" y="-143" font-family="Helvetica,sans-Serif" font-size="10.00" fill="grey">keys</text>
</g>
<!-- Node14 -->
<g id="Node000014" class="node">
<title>Node14</title>
<g id="a_Node000014"><a xlink:title=" ">
<polygon fill="white" stroke="#666666" points="1201,-104.5 1061,-104.5 1061,-74.5 1201,-74.5 1201,-104.5"/>
<text text-anchor="start" x="1069" y="-92.5" font-family="Helvetica,sans-Serif" font-size="10.00">std::shared_ptr&lt; kynema</text>
<text text-anchor="middle" x="1131" y="-81.5" font-family="Helvetica,sans-Serif" font-size="10.00">_sgf::FieldInfo &gt;</text>
</a>
</g>
</g>
<!-- Node14&#45;&gt;Node9 -->
<g id="edge16_Node000009_Node000014" class="edge">
<title>Node14&#45;&gt;Node9</title>
<g id="a_edge16_Node000009_Node000014"><a xlink:title=" ">
<path fill="none" stroke="#9a32cd" stroke-dasharray="5,2" d="M1170.73,-109.17C1218.91,-133.64 1299.25,-174.44 1335.6,-192.9"/>
<polygon fill="#9a32cd" stroke="#9a32cd" points="1172.05,-105.91 1161.55,-104.51 1168.88,-112.15 1172.05,-105.91"/>
</a>
</g>
<text text-anchor="start" x="1224" y="-158" font-family="Helvetica,sans-Serif" font-size="10.00" fill="grey">m_info</text>
</g>
<!-- Node15&#45;&gt;Node14 -->
<g id="edge17_Node000014_Node000015" class="edge">
<title>Node15&#45;&gt;Node14</title>
<g id="a_edge17_Node000014_Node000015"><a xlink:title=" ">
<path fill="none" stroke="#9a32cd" stroke-dasharray="5,2" d="M910.19,-89.5C956,-89.5 1015.37,-89.5 1060.87,-89.5"/>
<polygon fill="#9a32cd" stroke="#9a32cd" points="910.04,-86 900.04,-89.5 910.04,-93 910.04,-86"/>
</a>
</g>
<text text-anchor="start" x="973.5" y="-95" font-family="Helvetica,sans-Serif" font-size="10.00" fill="grey">ptr</text>
</g>
<!-- Node16 -->
<g id="Node000016" class="node">
<title>Node16</title>
<g id="a_Node000016"><a xlink:title=" ">
<polygon fill="white" stroke="#666666" points="604,-88.5 444,-88.5 444,-58.5 604,-58.5 604,-88.5"/>
<text text-anchor="start" x="452" y="-76.5" font-family="Helvetica,sans-Serif" font-size="10.00">std::unique_ptr&lt; kynema</text>
<text text-anchor="middle" x="524" y="-65.5" font-family="Helvetica,sans-Serif" font-size="10.00">_sgf::FieldFillPatchOpsBase &gt;</text>
</a>
</g>
</g>
<!-- Node16&#45;&gt;Node15 -->
<g id="edge19_Node000015_Node000016" class="edge">
<title>Node16&#45;&gt;Node15</title>
<g id="a_edge19_Node000015_Node000016"><a xlink:title=" ">
<path fill="none" stroke="#9a32cd" stroke-dasharray="5,2" d="M614.28,-70.03C658,-69.31 711.36,-69.89 759,-74.5 770.88,-75.65 783.63,-77.72 795.34,-79.96"/>
<polygon fill="#9a32cd" stroke="#9a32cd" points="614.18,-66.53 604.25,-70.22 614.32,-73.53 614.18,-66.53"/>
</a>
</g>
<text text-anchor="start" x="654.5" y="-80" font-family="Helvetica,sans-Serif" font-size="10.00" fill="grey">m_fillpatch_op</text>
</g>
<!-- Node17 -->
<g id="Node000017" class="node">
<title>Node17</title>
<g id="a_Node000017"><a xlink:href="classkynema__sgf_1_1_field_fill_patch_ops_base.html" target="_top" xlink:title=" ">
<polygon fill="white" stroke="#666666" points="262,-109.5 117,-109.5 117,-79.5 262,-79.5 262,-109.5"/>
<text text-anchor="start" x="125" y="-97.5" font-family="Helvetica,sans-Serif" font-size="10.00">kynema_sgf::FieldFillPatch</text>
<text text-anchor="middle" x="189.5" y="-86.5" font-family="Helvetica,sans-Serif" font-size="10.00">OpsBase</text>
</a>
</g>
</g>
<!-- Node17&#45;&gt;Node16 -->
<g id="edge20_Node000016_Node000017" class="edge">
<title>Node17&#45;&gt;Node16</title>
<g id="a_edge20_Node000016_Node000017"><a xlink:title=" ">
<path fill="none" stroke="#9a32cd" stroke-dasharray="5,2" d="M272.48,-89.32C324.75,-86.02 392.12,-81.77 443.83,-78.5"/>
<polygon fill="#9a32cd" stroke="#9a32cd" points="272,-85.85 262.24,-89.97 272.44,-92.83 272,-85.85"/>
</a>
</g>
<text text-anchor="start" x="346" y="-94" font-family="Helvetica,sans-Serif" font-size="10.00" fill="grey">ptr</text>
</g>
<!-- Node18&#45;&gt;Node16 -->
<g id="edge21_Node000016_Node000018" class="edge">
<title>Node18&#45;&gt;Node16</title>
<g id="a_edge21_Node000016_Node000018"><a xlink:title=" ">
<path fill="none" stroke="orange" stroke-dasharray="5,2" d="M259.01,-42.08C306.2,-38.42 370.21,-36.34 426,-44.5 444.78,-47.25 464.98,-52.84 482.06,-58.38"/>
<polygon fill="orange" stroke="orange" points="258.58,-38.6 248.9,-42.9 259.15,-45.58 258.58,-38.6"/>
</a>
</g>
<text text-anchor="start" x="283" y="-65.5" font-family="Helvetica,sans-Serif" font-size="10.00" fill="grey">&lt; kynema_sgf::FieldFillPatch</text>
<text text-anchor="start" x="283" y="-50.5" font-family="Helvetica,sans-Serif" font-size="10.00" fill="grey">  OpsBase &gt;</text>
</g>
<!-- Node19&#45;&gt;Node14 -->
<g id="edge23_Node000014_Node000019" class="edge">
<title>Node19&#45;&gt;Node14</title>
<g id="a_edge23_Node000014_Node000019"><a xlink:title=" ">
<path fill="none" stroke="orange" stroke-dasharray="5,2" d="M422.04,-16.03C502.52,-23.8 640.55,-37.27 759,-49.5 864.36,-60.38 986.47,-73.68 1060.96,-81.87"/>
<polygon fill="orange" stroke="orange" points="422.32,-12.54 412.03,-15.07 421.65,-19.51 422.32,-12.54"/>
</a>
</g>
<text text-anchor="start" x="625.5" y="-55" font-family="Helvetica,sans-Serif" font-size="10.00" fill="grey">&lt; kynema_sgf::FieldInfo &gt;</text>
</g>
</g>
</svg>

<g id="navigator" transform="translate(0 0)" fill="#404254">
  <rect fill="#f2f5e9" fill-opacity="0.5" stroke="#606060" stroke-width=".5" x="0" y="0" width="60" height="60"/>
  <use id="zoomplus" xlink:href="#zoomPlus" x="17" y="9" onmousedown="handleZoom(evt,'in')"/>
  <use id="zoomminus" xlink:href="#zoomMin" x="42" y="9" onmousedown="handleZoom(evt,'out')"/>
  <use id="reset" xlink:href="#resetDef" x="30" y="36" onmousedown="handleReset()"/>
   <use id="arrowup" xlink:href="#arrowUp" x="0" y="0" onmousedown="handlePan(0,-1)"/>
  <use id="arrowright" xlink:href="#arrowRight" x="0" y="0" onmousedown="handlePan(1,0)"/>
  <use id="arrowdown" xlink:href="#arrowDown" x="0" y="0" onmousedown="handlePan(0,1)"/>
  <use id="arrowleft" xlink:href="#arrowLeft" x="0" y="0" onmousedown="handlePan(-1,0)"/>
</g>
<svg viewBox="0 0 15 15" width="100%" height="30px" preserveAspectRatio="xMaxYMin meet">
 <g id="arrow_out" transform="scale(0.3 0.3)">
  <a xlink:href="classkynema__sgf_1_1pde_1_1icns_1_1_a_b_l_forcing__coll__graph_org.svg" target="_base">
   <rect id="button" ry="5" rx="5" y="6" x="6" height="38" width="38"
        fill="#f2f5e9" fill-opacity="0.5" stroke="#606060" stroke-width="1.0"/>
   <path id="arrow"
     d="M 11.500037,31.436501 C 11.940474,20.09759 22.043105,11.32322 32.158766,21.979434 L 37.068811,17.246167 C 37.068811,17.246167 37.088388,32 37.088388,32 L 22.160133,31.978069 C 22.160133,31.978069 26.997745,27.140456 26.997745,27.140456 C 18.528582,18.264221 13.291696,25.230495 11.500037,31.436501 z"
     style="fill:#404040;"/>
  </a>
 </g>
</svg>

<style type='text/css'>
<![CDATA[
[data-mouse-over-selected='false'] { opacity: 0.7; }
[data-mouse-over-selected='true']  { opacity: 1.0; }
]]>
</style>
<script type="application/ecmascript"><![CDATA[
document.addEventListener('DOMContentLoaded', (event) => {
  highlightEdges();
  highlightAdjacentNodes();
});
]]></script>
</svg>
