<?xml version="1.0" encoding="UTF-8" standalone="no"?>
<!DOCTYPE svg PUBLIC "-//W3C//DTD SVG 1.1//EN"
 "http://www.w3.org/Graphics/SVG/1.1/DTD/svg11.dtd">
<!-- Generated by graphviz version 2.43.0 (0)
 -->
<!-- Title: kynema_sgf::pde::ICNSDiffTensorOp Pages: 1 -->
<svg width="213pt" height="188pt"
 viewBox="0.00 0.00 212.50 188.00" xmlns="http://www.w3.org/2000/svg" xmlns:xlink="http://www.w3.org/1999/xlink">
<g id="graph0" class="graph" transform="scale(1 1) rotate(0) translate(4 184)">
<title>kynema_sgf::pde::ICNSDiffTensorOp</title>
<!-- Node1 -->
<g id="Node000001" class="node">
<title>Node1</title>
<g id="a_Node000001"><a xlink:title=" ">
<polygon fill="#999999" stroke="#666666" points="152.5,-30 6.5,-30 6.5,0 152.5,0 152.5,-30"/>
<text text-anchor="start" x="14.5" y="-18" font-family="Helvetica,sans-Serif" font-size="10.00">kynema_sgf::pde::ICNSDiff</text>
<text text-anchor="middle" x="79.5" y="-7" font-family="Helvetica,sans-Serif" font-size="10.00">TensorOp</text>
</a>
</g>
</g>
<!-- Node2 -->
<g id="Node000002" class="node">
<title>Node2</title>
<g id="a_Node000002"><a xlink:href="classkynema__sgf_1_1pde_1_1_diff_solver_iface.html" target="_top" xlink:title=" ">
<polygon fill="white" stroke="#666666" points="159,-97 0,-97 0,-67 159,-67 159,-97"/>
<text text-anchor="start" x="8" y="-85" font-family="Helvetica,sans-Serif" font-size="10.00">kynema_sgf::pde::DiffSolver</text>
<text text-anchor="middle" x="79.5" y="-74" font-family="Helvetica,sans-Serif" font-size="10.00">Iface&lt; amrex::MLTensorOp &gt;</text>
</a>
</g>
</g>
<!-- Node2&#45;&gt;Node1 -->
<g id="edge1_Node000001_Node000002" class="edge">
<title>Node2&#45;&gt;Node1</title>
<g id="a_edge1_Node000001_Node000002"><a xlink:title=" ">
<path fill="none" stroke="#63b8ff" d="M79.5,-56.61C79.5,-47.65 79.5,-37.82 79.5,-30.08"/>
<polygon fill="#63b8ff" stroke="#63b8ff" points="76,-56.9 79.5,-66.9 83,-56.9 76,-56.9"/>
</a>
</g>
</g>
<!-- Node3 -->
<g id="Node000003" class="node">
<title>Node3</title>
<g id="a_Node000003"><a xlink:href="classkynema__sgf_1_1pde_1_1_diff_solver_iface.html" target="_top" xlink:title=" ">
<polygon fill="white" stroke="#666666" points="156,-180 3,-180 3,-150 156,-150 156,-180"/>
<text text-anchor="start" x="11" y="-168" font-family="Helvetica,sans-Serif" font-size="10.00">kynema_sgf::pde::DiffSolver</text>
<text text-anchor="middle" x="79.5" y="-157" font-family="Helvetica,sans-Serif" font-size="10.00">Iface&lt; LinOp &gt;</text>
</a>
</g>
</g>
<!-- Node3&#45;&gt;Node2 -->
<g id="edge2_Node000002_Node000003" class="edge">
<title>Node3&#45;&gt;Node2</title>
<g id="a_edge2_Node000002_Node000003"><a xlink:title=" ">
<path fill="none" stroke="orange" stroke-dasharray="5,2" d="M79.5,-139.59C79.5,-125.75 79.5,-108.91 79.5,-97.22"/>
<polygon fill="orange" stroke="orange" points="76,-139.89 79.5,-149.89 83,-139.89 76,-139.89"/>
</a>
</g>
<text text-anchor="start" x="83" y="-120.5" font-family="Helvetica,sans-Serif" font-size="10.00" fill="grey">&lt; amrex::MLTensorOp &gt;</text>
</g>
</g>
</svg>
