<?xml version="1.0" encoding="UTF-8" standalone="no"?>
<!DOCTYPE svg PUBLIC "-//W3C//DTD SVG 1.1//EN"
 "http://www.w3.org/Graphics/SVG/1.1/DTD/svg11.dtd">
<!-- Generated by graphviz version 2.43.0 (0)
 -->
<!-- Title: kynema_sgf::CollMgr&lt; Collection, Type, allow_duplicates &gt; Pages: 1 -->
<svg width="674pt" height="195pt"
 viewBox="0.00 0.00 674.00 195.00" xmlns="http://www.w3.org/2000/svg" xmlns:xlink="http://www.w3.org/1999/xlink">
<g id="graph0" class="graph" transform="scale(1 1) rotate(0) translate(4 191)">
<title>kynema_sgf::CollMgr&lt; Collection, Type, allow_duplicates &gt;</title>
<!-- Node1 -->
<g id="Node000001" class="node">
<title>Node1</title>
<g id="a_Node000001"><a xlink:title=" ">
<polygon fill="#999999" stroke="#666666" points="119,-105.5 0,-105.5 0,-64.5 119,-64.5 119,-105.5"/>
<text text-anchor="start" x="8" y="-93.5" font-family="Helvetica,sans-Serif" font-size="10.00">kynema_sgf::CollMgr</text>
<text text-anchor="start" x="8" y="-82.5" font-family="Helvetica,sans-Serif" font-size="10.00">&lt; Collection, Type,</text>
<text text-anchor="middle" x="59.5" y="-71.5" font-family="Helvetica,sans-Serif" font-size="10.00"> allow_duplicates &gt;</text>
</a>
</g>
</g>
<!-- Node2 -->
<g id="Node000002" class="node">
<title>Node2</title>
<g id="a_Node000002"><a xlink:href="classkynema__sgf_1_1_coll_mgr.html" target="_top" xlink:title=" ">
<polygon fill="white" stroke="#666666" points="459,-186 302,-186 302,-156 459,-156 459,-186"/>
<text text-anchor="start" x="310" y="-174" font-family="Helvetica,sans-Serif" font-size="10.00">kynema_sgf::CollMgr</text>
<text text-anchor="middle" x="380.5" y="-163" font-family="Helvetica,sans-Serif" font-size="10.00">&lt; ExtSolverMgr, ExtSolver &gt;</text>
</a>
</g>
</g>
<!-- Node1&#45;&gt;Node2 -->
<g id="edge1_Node000001_Node000002" class="edge">
<title>Node1&#45;&gt;Node2</title>
<g id="a_edge1_Node000001_Node000002"><a xlink:title=" ">
<path fill="none" stroke="orange" stroke-dasharray="5,2" d="M89.6,-112.35C103.04,-123.4 119.8,-135.14 137,-142 189.48,-162.94 253.02,-169.94 301.9,-171.83"/>
<polygon fill="orange" stroke="orange" points="91.58,-109.43 81.7,-105.61 87.04,-114.76 91.58,-109.43"/>
</a>
</g>
<text text-anchor="start" x="140.5" y="-175.5" font-family="Helvetica,sans-Serif" font-size="10.00" fill="grey">&lt; ExtSolverMgr, ExtSolver &gt;</text>
</g>
<!-- Node4 -->
<g id="Node000004" class="node">
<title>Node4</title>
<g id="a_Node000004"><a xlink:href="classkynema__sgf_1_1_coll_mgr.html" target="_top" xlink:title=" ">
<polygon fill="white" stroke="#666666" points="440,-137.5 321,-137.5 321,-96.5 440,-96.5 440,-137.5"/>
<text text-anchor="start" x="329" y="-125.5" font-family="Helvetica,sans-Serif" font-size="10.00">kynema_sgf::CollMgr</text>
<text text-anchor="start" x="329" y="-114.5" font-family="Helvetica,sans-Serif" font-size="10.00">&lt; FieldBoundaryMgr,</text>
<text text-anchor="middle" x="380.5" y="-103.5" font-family="Helvetica,sans-Serif" font-size="10.00"> FieldBoundary &gt;</text>
</a>
</g>
</g>
<!-- Node1&#45;&gt;Node4 -->
<g id="edge3_Node000001_Node000004" class="edge">
<title>Node1&#45;&gt;Node4</title>
<g id="a_edge3_Node000001_Node000004"><a xlink:title=" ">
<path fill="none" stroke="orange" stroke-dasharray="5,2" d="M129.03,-91.87C186.15,-97.6 266.64,-105.68 320.82,-111.11"/>
<polygon fill="orange" stroke="orange" points="129.31,-88.38 119.01,-90.87 128.61,-95.35 129.31,-88.38"/>
</a>
</g>
<text text-anchor="start" x="159.5" y="-127" font-family="Helvetica,sans-Serif" font-size="10.00" fill="grey">&lt; FieldBoundaryMgr,</text>
<text text-anchor="start" x="159.5" y="-112" font-family="Helvetica,sans-Serif" font-size="10.00" fill="grey">   FieldBoundary &gt;</text>
</g>
<!-- Node6 -->
<g id="Node000006" class="node">
<title>Node6</title>
<g id="a_Node000006"><a xlink:href="classkynema__sgf_1_1_coll_mgr.html" target="_top" xlink:title=" ">
<polygon fill="white" stroke="#666666" points="449,-78 312,-78 312,-48 449,-48 449,-78"/>
<text text-anchor="start" x="320" y="-66" font-family="Helvetica,sans-Serif" font-size="10.00">kynema_sgf::CollMgr</text>
<text text-anchor="middle" x="380.5" y="-55" font-family="Helvetica,sans-Serif" font-size="10.00">&lt; PhysicsMgr, Physics &gt;</text>
</a>
</g>
</g>
<!-- Node1&#45;&gt;Node6 -->
<g id="edge5_Node000001_Node000006" class="edge">
<title>Node1&#45;&gt;Node6</title>
<g id="a_edge5_Node000001_Node000006"><a xlink:title=" ">
<path fill="none" stroke="orange" stroke-dasharray="5,2" d="M129.33,-72.87C131.92,-72.55 134.48,-72.26 137,-72 195.88,-65.93 263.17,-63.81 311.91,-63.14"/>
<polygon fill="orange" stroke="orange" points="128.73,-69.42 119.28,-74.21 129.66,-76.36 128.73,-69.42"/>
</a>
</g>
<text text-anchor="start" x="150.5" y="-77.5" font-family="Helvetica,sans-Serif" font-size="10.00" fill="grey">&lt; PhysicsMgr, Physics &gt;</text>
</g>
<!-- Node8 -->
<g id="Node000008" class="node">
<title>Node8</title>
<g id="a_Node000008"><a xlink:href="classkynema__sgf_1_1_coll_mgr.html" target="_top" xlink:title=" ">
<polygon fill="white" stroke="#666666" points="444,-30 317,-30 317,0 444,0 444,-30"/>
<text text-anchor="start" x="325" y="-18" font-family="Helvetica,sans-Serif" font-size="10.00">kynema_sgf::CollMgr</text>
<text text-anchor="middle" x="380.5" y="-7" font-family="Helvetica,sans-Serif" font-size="10.00">&lt; PDEMgr, PDEBase &gt;</text>
</a>
</g>
</g>
<!-- Node1&#45;&gt;Node8 -->
<g id="edge7_Node000001_Node000008" class="edge">
<title>Node1&#45;&gt;Node8</title>
<g id="a_edge7_Node000001_Node000008"><a xlink:title=" ">
<path fill="none" stroke="orange" stroke-dasharray="5,2" d="M99.11,-59.34C110.84,-52.66 124.06,-46.17 137,-42 196.07,-22.98 266.95,-16.89 316.78,-15.15"/>
<polygon fill="orange" stroke="orange" points="97.29,-56.35 90.47,-64.45 100.86,-62.38 97.29,-56.35"/>
</a>
</g>
<text text-anchor="start" x="155.5" y="-47.5" font-family="Helvetica,sans-Serif" font-size="10.00" fill="grey">&lt; PDEMgr, PDEBase &gt;</text>
</g>
<!-- Node3 -->
<g id="Node000003" class="node">
<title>Node3</title>
<g id="a_Node000003"><a xlink:href="classkynema__sgf_1_1_ext_solver_mgr.html" target="_top" xlink:title=" ">
<polygon fill="white" stroke="#666666" points="654,-180.5 508,-180.5 508,-161.5 654,-161.5 654,-180.5"/>
<text text-anchor="middle" x="581" y="-168.5" font-family="Helvetica,sans-Serif" font-size="10.00">kynema_sgf::ExtSolverMgr</text>
</a>
</g>
</g>
<!-- Node2&#45;&gt;Node3 -->
<g id="edge2_Node000002_Node000003" class="edge">
<title>Node2&#45;&gt;Node3</title>
<g id="a_edge2_Node000002_Node000003"><a xlink:title=" ">
<path fill="none" stroke="#63b8ff" d="M469.37,-171C482.27,-171 495.43,-171 507.97,-171"/>
<polygon fill="#63b8ff" stroke="#63b8ff" points="469.1,-167.5 459.1,-171 469.1,-174.5 469.1,-167.5"/>
</a>
</g>
</g>
<!-- Node5 -->
<g id="Node000005" class="node">
<title>Node5</title>
<g id="a_Node000005"><a xlink:href="classkynema__sgf_1_1_field_boundary_mgr.html" target="_top" xlink:title=" ">
<polygon fill="white" stroke="#666666" points="666,-126.5 496,-126.5 496,-107.5 666,-107.5 666,-126.5"/>
<text text-anchor="middle" x="581" y="-114.5" font-family="Helvetica,sans-Serif" font-size="10.00">kynema_sgf::FieldBoundaryMgr</text>
</a>
</g>
</g>
<!-- Node4&#45;&gt;Node5 -->
<g id="edge4_Node000004_Node000005" class="edge">
<title>Node4&#45;&gt;Node5</title>
<g id="a_edge4_Node000004_Node000005"><a xlink:title=" ">
<path fill="none" stroke="#63b8ff" d="M450.64,-117C465.17,-117 480.65,-117 495.66,-117"/>
<polygon fill="#63b8ff" stroke="#63b8ff" points="450.25,-113.5 440.25,-117 450.25,-120.5 450.25,-113.5"/>
</a>
</g>
</g>
<!-- Node7 -->
<g id="Node000007" class="node">
<title>Node7</title>
<g id="a_Node000007"><a xlink:href="classkynema__sgf_1_1_physics_mgr.html" target="_top" xlink:title=" ">
<polygon fill="white" stroke="#666666" points="649.5,-72.5 512.5,-72.5 512.5,-53.5 649.5,-53.5 649.5,-72.5"/>
<text text-anchor="middle" x="581" y="-60.5" font-family="Helvetica,sans-Serif" font-size="10.00">kynema_sgf::PhysicsMgr</text>
</a>
</g>
</g>
<!-- Node6&#45;&gt;Node7 -->
<g id="edge6_Node000006_Node000007" class="edge">
<title>Node6&#45;&gt;Node7</title>
<g id="a_edge6_Node000006_Node000007"><a xlink:title=" ">
<path fill="none" stroke="#63b8ff" d="M459.4,-63C476.85,-63 495.22,-63 512.21,-63"/>
<polygon fill="#63b8ff" stroke="#63b8ff" points="459.26,-59.5 449.26,-63 459.26,-66.5 459.26,-59.5"/>
</a>
</g>
</g>
<!-- Node9 -->
<g id="Node000009" class="node">
<title>Node9</title>
<g id="a_Node000009"><a xlink:href="classkynema__sgf_1_1pde_1_1_p_d_e_mgr.html" target="_top" xlink:title=" ">
<polygon fill="white" stroke="#666666" points="652.5,-24.5 509.5,-24.5 509.5,-5.5 652.5,-5.5 652.5,-24.5"/>
<text text-anchor="middle" x="581" y="-12.5" font-family="Helvetica,sans-Serif" font-size="10.00">kynema_sgf::pde::PDEMgr</text>
</a>
</g>
</g>
<!-- Node8&#45;&gt;Node9 -->
<g id="edge8_Node000008_Node000009" class="edge">
<title>Node8&#45;&gt;Node9</title>
<g id="a_edge8_Node000008_Node000009"><a xlink:title=" ">
<path fill="none" stroke="#63b8ff" d="M454.2,-15C472.24,-15 491.55,-15 509.49,-15"/>
<polygon fill="#63b8ff" stroke="#63b8ff" points="454.03,-11.5 444.03,-15 454.03,-18.5 454.03,-11.5"/>
</a>
</g>
</g>
</g>
</svg>
