<?xml version="1.0" encoding="UTF-8" standalone="no"?>
<!DOCTYPE svg PUBLIC "-//W3C//DTD SVG 1.1//EN"
 "http://www.w3.org/Graphics/SVG/1.1/DTD/svg11.dtd">
<!-- Generated by graphviz version 2.43.0 (0)
 -->
<!-- Title: kynema_sgf::pde::icns::ABLMesoForcingMom Pages: 1 -->
<svg width="1178pt" height="127pt"
 viewBox="0.00 0.00 1178.00 126.50" xmlns="http://www.w3.org/2000/svg" xmlns:xlink="http://www.w3.org/1999/xlink">
<g id="graph0" class="graph" transform="scale(1 1) rotate(0) translate(4 122.5)">
<title>kynema_sgf::pde::icns::ABLMesoForcingMom</title>
<!-- Node1 -->
<g id="Node000001" class="node">
<title>Node1</title>
<g id="a_Node000001"><a xlink:title=" ">
<polygon fill="#999999" stroke="#666666" points="1170,-47.5 1042,-47.5 1042,-17.5 1170,-17.5 1170,-47.5"/>
<text text-anchor="start" x="1050" y="-35.5" font-family="Helvetica,sans-Serif" font-size="10.00">kynema_sgf::pde::icns</text>
<text text-anchor="middle" x="1106" y="-24.5" font-family="Helvetica,sans-Serif" font-size="10.00">::ABLMesoForcingMom</text>
</a>
</g>
</g>
<!-- Node2 -->
<g id="Node000002" class="node">
<title>Node2</title>
<g id="a_Node000002"><a xlink:href="classkynema__sgf_1_1_a_b_l_mesoscale_forcing.html" target="_top" xlink:title=" ">
<polygon fill="white" stroke="#666666" points="1005,-89.5 853,-89.5 853,-59.5 1005,-59.5 1005,-89.5"/>
<text text-anchor="start" x="861" y="-77.5" font-family="Helvetica,sans-Serif" font-size="10.00">kynema_sgf::ABLMesoscale</text>
<text text-anchor="middle" x="929" y="-66.5" font-family="Helvetica,sans-Serif" font-size="10.00">Forcing</text>
</a>
</g>
</g>
<!-- Node2&#45;&gt;Node1 -->
<g id="edge1_Node000001_Node000002" class="edge">
<title>Node2&#45;&gt;Node1</title>
<g id="a_edge1_Node000001_Node000002"><a xlink:title=" ">
<path fill="none" stroke="#63b8ff" d="M1002.68,-57.06C1015.89,-53.89 1029.57,-50.6 1042.46,-47.51"/>
<polygon fill="#63b8ff" stroke="#63b8ff" points="1001.59,-53.72 992.68,-59.46 1003.23,-60.53 1001.59,-53.72"/>
</a>
</g>
</g>
<!-- Node3 -->
<g id="Node000003" class="node">
<title>Node3</title>
<g id="a_Node000003"><a xlink:href="classkynema__sgf_1_1_sim_time.html" target="_top" xlink:title=" ">
<polygon fill="white" stroke="#666666" points="710,-111 585,-111 585,-92 710,-92 710,-111"/>
<text text-anchor="middle" x="647.5" y="-99" font-family="Helvetica,sans-Serif" font-size="10.00">kynema_sgf::SimTime</text>
</a>
</g>
</g>
<!-- Node3&#45;&gt;Node2 -->
<g id="edge2_Node000002_Node000003" class="edge">
<title>Node3&#45;&gt;Node2</title>
<g id="a_edge2_Node000002_Node000003"><a xlink:title=" ">
<path fill="none" stroke="#9a32cd" stroke-dasharray="5,2" d="M720.28,-94.57C760.89,-90.64 811.63,-85.74 852.79,-81.77"/>
<polygon fill="#9a32cd" stroke="#9a32cd" points="719.8,-91.1 710.18,-95.54 720.47,-98.06 719.8,-91.1"/>
</a>
</g>
<text text-anchor="start" x="762.5" y="-99" font-family="Helvetica,sans-Serif" font-size="10.00" fill="grey">m_time</text>
</g>
<!-- Node4 -->
<g id="Node000004" class="node">
<title>Node4</title>
<g id="a_Node000004"><a xlink:title=" ">
<polygon fill="white" stroke="#666666" points="412,-111 300,-111 300,-92 412,-92 412,-111"/>
<text text-anchor="middle" x="356" y="-99" font-family="Helvetica,sans-Serif" font-size="10.00">std::vector&lt; bool &gt;</text>
</a>
</g>
</g>
<!-- Node4&#45;&gt;Node3 -->
<g id="edge3_Node000003_Node000004" class="edge">
<title>Node4&#45;&gt;Node3</title>
<g id="a_edge3_Node000003_Node000004"><a xlink:title=" ">
<path fill="none" stroke="#9a32cd" stroke-dasharray="5,2" d="M422.24,-101.5C470.92,-101.5 536.99,-101.5 584.8,-101.5"/>
<polygon fill="#9a32cd" stroke="#9a32cd" points="422.13,-98 412.13,-101.5 422.13,-105 422.13,-98"/>
</a>
</g>
<text text-anchor="start" x="433.5" y="-107" font-family="Helvetica,sans-Serif" font-size="10.00" fill="grey">m_postprocess_enforce_dt</text>
</g>
<!-- Node5 -->
<g id="Node000005" class="node">
<title>Node5</title>
<g id="a_Node000005"><a xlink:title=" ">
<polygon fill="white" stroke="#666666" points="214,-111 117,-111 117,-92 214,-92 214,-111"/>
<text text-anchor="middle" x="165.5" y="-99" font-family="Helvetica,sans-Serif" font-size="10.00">std::vector&lt; T &gt;</text>
</a>
</g>
</g>
<!-- Node5&#45;&gt;Node4 -->
<g id="edge4_Node000004_Node000005" class="edge">
<title>Node5&#45;&gt;Node4</title>
<g id="a_edge4_Node000004_Node000005"><a xlink:title=" ">
<path fill="none" stroke="orange" stroke-dasharray="5,2" d="M224.12,-101.5C248.16,-101.5 275.97,-101.5 299.76,-101.5"/>
<polygon fill="orange" stroke="orange" points="224.07,-98 214.07,-101.5 224.07,-105 224.07,-98"/>
</a>
</g>
<text text-anchor="start" x="235" y="-107" font-family="Helvetica,sans-Serif" font-size="10.00" fill="grey">&lt; bool &gt;</text>
</g>
<!-- Node6 -->
<g id="Node000006" class="node">
<title>Node6</title>
<g id="a_Node000006"><a xlink:title=" ">
<polygon fill="white" stroke="#666666" points="29,-111 0,-111 0,-92 29,-92 29,-111"/>
<text text-anchor="middle" x="14.5" y="-99" font-family="Helvetica,sans-Serif" font-size="10.00">T</text>
</a>
</g>
</g>
<!-- Node6&#45;&gt;Node5 -->
<g id="edge5_Node000005_Node000006" class="edge">
<title>Node6&#45;&gt;Node5</title>
<g id="a_edge5_Node000005_Node000006"><a xlink:title=" ">
<path fill="none" stroke="#9a32cd" stroke-dasharray="5,2" d="M39.41,-101.5C60.21,-101.5 90.98,-101.5 116.79,-101.5"/>
<polygon fill="#9a32cd" stroke="#9a32cd" points="39.25,-98 29.25,-101.5 39.25,-105 39.25,-98"/>
</a>
</g>
<text text-anchor="start" x="50" y="-107" font-family="Helvetica,sans-Serif" font-size="10.00" fill="grey">elements</text>
</g>
<!-- Node7 -->
<g id="Node000007" class="node">
<title>Node7</title>
<g id="a_Node000007"><a xlink:title=" ">
<polygon fill="white" stroke="#666666" points="680,-56 615,-56 615,-37 680,-37 680,-56"/>
<text text-anchor="middle" x="647.5" y="-44" font-family="Helvetica,sans-Serif" font-size="10.00">std::string</text>
</a>
</g>
</g>
<!-- Node7&#45;&gt;Node2 -->
<g id="edge6_Node000002_Node000007" class="edge">
<title>Node7&#45;&gt;Node2</title>
<g id="a_edge6_Node000002_Node000007"><a xlink:title=" ">
<path fill="none" stroke="#9a32cd" stroke-dasharray="5,2" d="M690.21,-43.44C728.17,-41.44 785.65,-40.35 835,-47.5 851.8,-49.94 869.83,-54.65 885.49,-59.47"/>
<polygon fill="#9a32cd" stroke="#9a32cd" points="689.83,-39.96 680.05,-44.03 690.23,-46.95 689.83,-39.96"/>
</a>
</g>
<text text-anchor="start" x="731.5" y="-68.5" font-family="Helvetica,sans-Serif" font-size="10.00" fill="grey">m_forcing_scheme</text>
<text text-anchor="start" x="731.5" y="-53.5" font-family="Helvetica,sans-Serif" font-size="10.00" fill="grey">m_forcing_transition</text>
</g>
<!-- Node8 -->
<g id="Node000008" class="node">
<title>Node8</title>
<g id="a_Node000008"><a xlink:title=" ">
<polygon fill="white" stroke="#666666" points="408,-61.5 304,-61.5 304,-31.5 408,-31.5 408,-61.5"/>
<text text-anchor="start" x="312" y="-49.5" font-family="Helvetica,sans-Serif" font-size="10.00">std::basic_string&lt;</text>
<text text-anchor="middle" x="356" y="-38.5" font-family="Helvetica,sans-Serif" font-size="10.00"> Char &gt;</text>
</a>
</g>
</g>
<!-- Node8&#45;&gt;Node7 -->
<g id="edge7_Node000007_Node000008" class="edge">
<title>Node8&#45;&gt;Node7</title>
<g id="a_edge7_Node000007_Node000008"><a xlink:title=" ">
<path fill="none" stroke="#63b8ff" d="M418.21,-46.5C478.3,-46.5 567.58,-46.5 614.71,-46.5"/>
<polygon fill="#63b8ff" stroke="#63b8ff" points="418.09,-43 408.09,-46.5 418.09,-50 418.09,-43"/>
</a>
</g>
</g>
<!-- Node9 -->
<g id="Node000009" class="node">
<title>Node9</title>
<g id="a_Node000009"><a xlink:title=" ">
<polygon fill="white" stroke="#666666" points="1003.5,-41 854.5,-41 854.5,0 1003.5,0 1003.5,-41"/>
<text text-anchor="start" x="862.5" y="-29" font-family="Helvetica,sans-Serif" font-size="10.00">kynema_sgf::Factory</text>
<text text-anchor="start" x="862.5" y="-18" font-family="Helvetica,sans-Serif" font-size="10.00">&lt; MomentumSource, const</text>
<text text-anchor="middle" x="929" y="-7" font-family="Helvetica,sans-Serif" font-size="10.00"> CFDSim &amp; &gt;::Register</text>
</a>
</g>
</g>
<!-- Node9&#45;&gt;Node1 -->
<g id="edge8_Node000001_Node000009" class="edge">
<title>Node9&#45;&gt;Node1</title>
<g id="a_edge8_Node000001_Node000009"><a xlink:title=" ">
<path fill="none" stroke="#63b8ff" d="M1013.9,-26.25C1023.32,-26.9 1032.81,-27.55 1041.91,-28.17"/>
<polygon fill="#63b8ff" stroke="#63b8ff" points="1013.92,-22.75 1003.71,-25.55 1013.45,-29.73 1013.92,-22.75"/>
</a>
</g>
</g>
</g>
</svg>
