<?xml version="1.0" encoding="UTF-8" standalone="no"?>
<!DOCTYPE svg PUBLIC "-//W3C//DTD SVG 1.1//EN"
 "http://www.w3.org/Graphics/SVG/1.1/DTD/svg11.dtd">
<!-- Generated by graphviz version 2.43.0 (0)
 -->
<!-- Title: kynema_sgf::pde::icns::BoussinesqBuoyancy Pages: 1 -->
<!--zoomable 400 -->

<svg id="main" version="1.1" xmlns="http://www.w3.org/2000/svg" xmlns:xlink="http://www.w3.org/1999/xlink" xml:space="preserve" onload="init(evt)">

<style type="text/css"><![CDATA[
.node, .edge {opacity: 0.7;}
.node.selected, .edge.selected {opacity: 1;}
.edge:hover path { stroke: red; }
.edge:hover polygon { stroke: red; fill: red; }
]]></style>

<defs>
  <circle id="rim" cx="0" cy="0" r="7"/>
  <circle id="rim2" cx="0" cy="0" r="3.5"/>
  <g id="zoomPlus">
    <use xlink:href="#rim" fill="#404040"><set attributeName="fill" to="#808080" begin="zoomplus.mouseover" end="zoomplus.mouseout"/></use>
    <path d="M-4,0h8M0,-4v8" fill="none" stroke="white" stroke-width="1.5" pointer-events="none"/>
  </g>
  <g id="zoomMin">
    <use xlink:href="#rim" fill="#404040"><set attributeName="fill" to="#808080" begin="zoomminus.mouseover" end="zoomminus.mouseout"/></use>
    <path d="M-4,0h8" fill="none" stroke="white" stroke-width="1.5" pointer-events="none"/>
  </g>
  <g id="arrowUp" transform="translate(30 24)">
    <use xlink:href="#rim"/>
    <path pointer-events="none" fill="none" stroke="white" stroke-width="1.5" d="M0,-3.0v7 M-2.5,-0.5L0,-3.0L2.5,-0.5"/>
  </g>
  <g id="arrowRight" transform="rotate(90) translate(36 -43)">
    <use xlink:href="#rim"/>
    <path pointer-events="none" fill="none" stroke="white" stroke-width="1.5" d="M0,-3.0v7 M-2.5,-0.5L0,-3.0L2.5,-0.5"/>
  </g>
  <g id="arrowDown" transform="rotate(180) translate(-30 -48)">
    <use xlink:href="#rim"/>
    <path pointer-events="none" fill="none" stroke="white" stroke-width="1.5" d="M0,-3.0v7 M-2.5,-0.5L0,-3.0L2.5,-0.5"/>
  </g>
  <g id="arrowLeft" transform="rotate(270) translate(-36 17)">
    <use xlink:href="#rim"/>
    <path pointer-events="none" fill="none" stroke="white" stroke-width="1.5" d="M0,-3.0v7 M-2.5,-0.5L0,-3.0L2.5,-0.5"/>
  </g>
  <g id="resetDef">
    <use xlink:href="#rim2" fill="#404040"><set attributeName="fill" to="#808080" begin="reset.mouseover" end="reset.mouseout"/></use>
  </g>
</defs>
<script type="application/ecmascript">
var viewWidth = 1809;
var viewHeight = 400;
var sectionId = 'dynsection-1';
</script>
<script type="application/ecmascript" xlink:href="svg.min.js"/>
<svg id="graph" class="graph">
<g id="viewport">
<title>kynema_sgf::pde::icns::BoussinesqBuoyancy</title>
<!-- Node1 -->
<g id="Node000001" class="node">
<title>Node1</title>
<g id="a_Node000001"><a xlink:title=" ">
<polygon fill="#999999" stroke="#666666" points="1801,-270 1675,-270 1675,-240 1801,-240 1801,-270"/>
<text text-anchor="start" x="1683" y="-258" font-family="Helvetica,sans-Serif" font-size="10.00">kynema_sgf::pde::icns</text>
<text text-anchor="middle" x="1738" y="-247" font-family="Helvetica,sans-Serif" font-size="10.00">::BoussinesqBuoyancy</text>
</a>
</g>
</g>
<!-- Node2 -->
<g id="Node000002" class="node">
<title>Node2</title>
<g id="a_Node000002"><a xlink:title=" ">
<polygon fill="white" stroke="#666666" points="1533,-391.5 1384,-391.5 1384,-350.5 1533,-350.5 1533,-391.5"/>
<text text-anchor="start" x="1392" y="-379.5" font-family="Helvetica,sans-Serif" font-size="10.00">kynema_sgf::Factory</text>
<text text-anchor="start" x="1392" y="-368.5" font-family="Helvetica,sans-Serif" font-size="10.00">&lt; MomentumSource, const</text>
<text text-anchor="middle" x="1458.5" y="-357.5" font-family="Helvetica,sans-Serif" font-size="10.00"> CFDSim &amp; &gt;::Register</text>
</a>
</g>
</g>
<!-- Node2&#45;&gt;Node1 -->
<g id="edge1_Node000001_Node000002" class="edge">
<title>Node2&#45;&gt;Node1</title>
<g id="a_edge1_Node000001_Node000002"><a xlink:title=" ">
<path fill="none" stroke="#63b8ff" d="M1543.47,-367.5C1580.03,-363.17 1622.34,-354.2 1657,-336 1687.27,-320.1 1713.17,-288.7 1726.77,-270.01"/>
<polygon fill="#63b8ff" stroke="#63b8ff" points="1542.89,-364.04 1533.33,-368.6 1543.65,-371 1542.89,-364.04"/>
</a>
</g>
</g>
<!-- Node3 -->
<g id="Node000003" class="node">
<title>Node3</title>
<g id="a_Node000003"><a xlink:href="classkynema__sgf_1_1_field.html" target="_top" xlink:title=" ">
<polygon fill="white" stroke="#666666" points="1510.5,-183.5 1406.5,-183.5 1406.5,-164.5 1510.5,-164.5 1510.5,-183.5"/>
<text text-anchor="middle" x="1458.5" y="-171.5" font-family="Helvetica,sans-Serif" font-size="10.00">kynema_sgf::Field</text>
</a>
</g>
</g>
<!-- Node3&#45;&gt;Node1 -->
<g id="edge2_Node000001_Node000003" class="edge">
<title>Node3&#45;&gt;Node1</title>
<g id="a_edge2_Node000001_Node000003"><a xlink:title=" ">
<path fill="none" stroke="#9a32cd" stroke-dasharray="5,2" d="M1501.86,-186.36C1551.13,-200.75 1632.46,-224.49 1685.38,-239.93"/>
<polygon fill="#9a32cd" stroke="#9a32cd" points="1502.73,-182.97 1492.15,-183.53 1500.77,-189.69 1502.73,-182.97"/>
</a>
</g>
<text text-anchor="start" x="1566" y="-236.5" font-family="Helvetica,sans-Serif" font-size="10.00" fill="grey">m_temperature</text>
</g>
<!-- Node4 -->
<g id="Node000004" class="node">
<title>Node4</title>
<g id="a_Node000004"><a xlink:href="classkynema__sgf_1_1_field_repo.html" target="_top" xlink:title=" ">
<polygon fill="white" stroke="#666666" points="992,-300.5 863,-300.5 863,-281.5 992,-281.5 992,-300.5"/>
<text text-anchor="middle" x="927.5" y="-288.5" font-family="Helvetica,sans-Serif" font-size="10.00">kynema_sgf::FieldRepo</text>
</a>
</g>
</g>
<!-- Node4&#45;&gt;Node1 -->
<g id="edge20_Node000001_Node000004" class="edge">
<title>Node4&#45;&gt;Node1</title>
<g id="a_edge20_Node000001_Node000004"><a xlink:title=" ">
<path fill="none" stroke="#9a32cd" stroke-dasharray="5,2" d="M988.76,-302.11C999.78,-303.73 1011.21,-305.14 1022,-306 1077.38,-310.41 1091.45,-306.53 1147,-306 1373.75,-303.85 1436.13,-342.36 1657,-291 1675.69,-286.65 1695.36,-277.86 1710.52,-270.06"/>
<polygon fill="#9a32cd" stroke="#9a32cd" points="989.21,-298.64 978.79,-300.57 988.14,-305.55 989.21,-298.64"/>
</a>
</g>
<text text-anchor="start" x="1326.5" y="-319.5" font-family="Helvetica,sans-Serif" font-size="10.00" fill="grey">m_repo</text>
</g>
<!-- Node4&#45;&gt;Node3 -->
<g id="edge3_Node000003_Node000004" class="edge">
<title>Node4&#45;&gt;Node3</title>
<g id="a_edge3_Node000003_Node000004"><a xlink:title=" ">
<path fill="none" stroke="#9a32cd" stroke-dasharray="5,2" d="M981.84,-279.2C1086.8,-255.99 1318.25,-204.8 1414.35,-183.54"/>
<polygon fill="#9a32cd" stroke="#9a32cd" points="980.8,-275.85 971.79,-281.43 982.31,-282.68 980.8,-275.85"/>
</a>
</g>
<text text-anchor="start" x="1217" y="-243.5" font-family="Helvetica,sans-Serif" font-size="10.00" fill="grey">m_repo</text>
</g>
<!-- Node21 -->
<g id="Node000021" class="node">
<title>Node21</title>
<g id="a_Node000021"><a xlink:href="classkynema__sgf_1_1_scratch_field.html" target="_top" xlink:title=" ">
<polygon fill="white" stroke="#666666" points="1305,-293.5 1165,-293.5 1165,-274.5 1305,-274.5 1305,-293.5"/>
<text text-anchor="middle" x="1235" y="-281.5" font-family="Helvetica,sans-Serif" font-size="10.00">kynema_sgf::ScratchField</text>
</a>
</g>
</g>
<!-- Node4&#45;&gt;Node21 -->
<g id="edge26_Node000021_Node000004" class="edge">
<title>Node4&#45;&gt;Node21</title>
<g id="a_edge26_Node000021_Node000004"><a xlink:title=" ">
<path fill="none" stroke="#9a32cd" stroke-dasharray="5,2" d="M1002.47,-289.31C1051.89,-288.17 1116.44,-286.69 1164.83,-285.58"/>
<polygon fill="#9a32cd" stroke="#9a32cd" points="1002.09,-285.81 992.17,-289.54 1002.25,-292.81 1002.09,-285.81"/>
</a>
</g>
<text text-anchor="start" x="1066.5" y="-293.5" font-family="Helvetica,sans-Serif" font-size="10.00" fill="grey">m_repo</text>
</g>
<!-- Node5 -->
<g id="Node000005" class="node">
<title>Node5</title>
<g id="a_Node000005"><a xlink:title=" ">
<polygon fill="white" stroke="#666666" points="660,-305 538,-305 538,-275 660,-275 660,-305"/>
<text text-anchor="start" x="546" y="-293" font-family="Helvetica,sans-Serif" font-size="10.00">std::unordered_map</text>
<text text-anchor="middle" x="599" y="-282" font-family="Helvetica,sans-Serif" font-size="10.00">&lt; std::string, size_t &gt;</text>
</a>
</g>
</g>
<!-- Node5&#45;&gt;Node4 -->
<g id="edge4_Node000004_Node000005" class="edge">
<title>Node5&#45;&gt;Node4</title>
<g id="a_edge4_Node000004_Node000005"><a xlink:title=" ">
<path fill="none" stroke="#9a32cd" stroke-dasharray="5,2" d="M670.32,-290.22C727.55,-290.39 807.64,-290.64 862.96,-290.81"/>
<polygon fill="#9a32cd" stroke="#9a32cd" points="670.28,-286.72 660.27,-290.18 670.25,-293.72 670.28,-286.72"/>
</a>
</g>
<text text-anchor="start" x="729" y="-311" font-family="Helvetica,sans-Serif" font-size="10.00" fill="grey">m_fid_map</text>
<text text-anchor="start" x="729" y="-296" font-family="Helvetica,sans-Serif" font-size="10.00" fill="grey">m_int_fid_map</text>
</g>
<!-- Node6 -->
<g id="Node000006" class="node">
<title>Node6</title>
<g id="a_Node000006"><a xlink:title=" ">
<polygon fill="white" stroke="#666666" points="297,-274.5 232,-274.5 232,-255.5 297,-255.5 297,-274.5"/>
<text text-anchor="middle" x="264.5" y="-262.5" font-family="Helvetica,sans-Serif" font-size="10.00">std::string</text>
</a>
</g>
</g>
<!-- Node6&#45;&gt;Node3 -->
<g id="edge10_Node000003_Node000006" class="edge">
<title>Node6&#45;&gt;Node3</title>
<g id="a_edge10_Node000003_Node000006"><a xlink:title=" ">
<path fill="none" stroke="#9a32cd" stroke-dasharray="5,2" d="M307.47,-262.7C420.25,-256.38 739.25,-237.66 1004,-214 1146.06,-201.31 1180.75,-189.43 1323,-179 1350.5,-176.98 1381.22,-175.76 1406.36,-175.03"/>
<polygon fill="#9a32cd" stroke="#9a32cd" points="307,-259.22 297.21,-263.27 307.39,-266.21 307,-259.22"/>
</a>
</g>
<text text-anchor="start" x="906.5" y="-231.5" font-family="Helvetica,sans-Serif" font-size="10.00" fill="grey">m_name</text>
</g>
<!-- Node6&#45;&gt;Node5 -->
<g id="edge5_Node000005_Node000006" class="edge">
<title>Node6&#45;&gt;Node5</title>
<g id="a_edge5_Node000005_Node000006"><a xlink:title=" ">
<path fill="none" stroke="#9a32cd" stroke-dasharray="5,2" d="M307.38,-268.15C365.59,-272.53 471.29,-280.47 537.91,-285.48"/>
<polygon fill="#9a32cd" stroke="#9a32cd" points="307.31,-264.63 297.08,-267.37 306.79,-271.61 307.31,-264.63"/>
</a>
</g>
<text text-anchor="start" x="417" y="-287.5" font-family="Helvetica,sans-Serif" font-size="10.00" fill="grey">keys</text>
</g>
<!-- Node12 -->
<g id="Node000012" class="node">
<title>Node12</title>
<g id="a_Node000012"><a xlink:href="structkynema__sgf_1_1_field_info.html" target="_top" xlink:title=" ">
<polygon fill="white" stroke="#666666" points="989,-117.5 866,-117.5 866,-98.5 989,-98.5 989,-117.5"/>
<text text-anchor="middle" x="927.5" y="-105.5" font-family="Helvetica,sans-Serif" font-size="10.00">kynema_sgf::FieldInfo</text>
</a>
</g>
</g>
<!-- Node6&#45;&gt;Node12 -->
<g id="edge13_Node000012_Node000006" class="edge">
<title>Node6&#45;&gt;Node12</title>
<g id="a_edge13_Node000012_Node000006"><a xlink:title=" ">
<path fill="none" stroke="#9a32cd" stroke-dasharray="5,2" d="M298.13,-251.72C314.93,-245.2 335.86,-237.58 355,-232 367.89,-228.25 749.56,-146.06 881.87,-117.6"/>
<polygon fill="#9a32cd" stroke="#9a32cd" points="296.78,-248.49 288.76,-255.41 299.34,-255 296.78,-248.49"/>
</a>
</g>
<text text-anchor="start" x="566" y="-199.5" font-family="Helvetica,sans-Serif" font-size="10.00" fill="grey">m_basename</text>
</g>
<!-- Node6&#45;&gt;Node21 -->
<g id="edge27_Node000021_Node000006" class="edge">
<title>Node6&#45;&gt;Node21</title>
<g id="a_edge27_Node000021_Node000006"><a xlink:title=" ">
<path fill="none" stroke="#9a32cd" stroke-dasharray="5,2" d="M292.05,-279.06C309.45,-287.56 332.97,-297.74 355,-303 426.06,-319.96 446.07,-309.71 519,-314 797.64,-330.39 871.54,-354.07 1147,-309 1167.47,-305.65 1189.96,-299.11 1206.95,-293.56"/>
<polygon fill="#9a32cd" stroke="#9a32cd" points="293.57,-275.9 283.07,-274.55 290.44,-282.16 293.57,-275.9"/>
</a>
</g>
<text text-anchor="start" x="744" y="-339.5" font-family="Helvetica,sans-Serif" font-size="10.00" fill="grey">m_name</text>
</g>
<!-- Node7 -->
<g id="Node000007" class="node">
<title>Node7</title>
<g id="a_Node000007"><a xlink:title=" ">
<polygon fill="white" stroke="#666666" points="104,-280 0,-280 0,-250 104,-250 104,-280"/>
<text text-anchor="start" x="8" y="-268" font-family="Helvetica,sans-Serif" font-size="10.00">std::basic_string&lt;</text>
<text text-anchor="middle" x="52" y="-257" font-family="Helvetica,sans-Serif" font-size="10.00"> Char &gt;</text>
</a>
</g>
</g>
<!-- Node7&#45;&gt;Node6 -->
<g id="edge6_Node000006_Node000007" class="edge">
<title>Node7&#45;&gt;Node6</title>
<g id="a_edge6_Node000006_Node000007"><a xlink:title=" ">
<path fill="none" stroke="#63b8ff" d="M114.28,-265C152.73,-265 200.72,-265 231.73,-265"/>
<polygon fill="#63b8ff" stroke="#63b8ff" points="114.22,-261.5 104.22,-265 114.22,-268.5 114.22,-261.5"/>
</a>
</g>
</g>
<!-- Node8 -->
<g id="Node000008" class="node">
<title>Node8</title>
<g id="a_Node000008"><a xlink:title=" ">
<polygon fill="white" stroke="#666666" points="321.5,-367 207.5,-367 207.5,-337 321.5,-337 321.5,-367"/>
<text text-anchor="start" x="215.5" y="-355" font-family="Helvetica,sans-Serif" font-size="10.00">std::unordered_map</text>
<text text-anchor="middle" x="264.5" y="-344" font-family="Helvetica,sans-Serif" font-size="10.00">&lt; K, T &gt;</text>
</a>
</g>
</g>
<!-- Node8&#45;&gt;Node5 -->
<g id="edge7_Node000005_Node000008" class="edge">
<title>Node8&#45;&gt;Node5</title>
<g id="a_edge7_Node000005_Node000008"><a xlink:title=" ">
<path fill="none" stroke="orange" stroke-dasharray="5,2" d="M331.67,-339.66C391.76,-328.46 479.64,-312.07 537.8,-301.22"/>
<polygon fill="orange" stroke="orange" points="330.72,-336.28 321.53,-341.55 332,-343.16 330.72,-336.28"/>
</a>
</g>
<text text-anchor="start" x="375" y="-338.5" font-family="Helvetica,sans-Serif" font-size="10.00" fill="grey">&lt; std::string, size_t &gt;</text>
</g>
<!-- Node9 -->
<g id="Node000009" class="node">
<title>Node9</title>
<g id="a_Node000009"><a xlink:title=" ">
<polygon fill="white" stroke="#666666" points="66.5,-361.5 37.5,-361.5 37.5,-342.5 66.5,-342.5 66.5,-361.5"/>
<text text-anchor="middle" x="52" y="-349.5" font-family="Helvetica,sans-Serif" font-size="10.00">K</text>
</a>
</g>
</g>
<!-- Node9&#45;&gt;Node8 -->
<g id="edge8_Node000008_Node000009" class="edge">
<title>Node9&#45;&gt;Node8</title>
<g id="a_edge8_Node000008_Node000009"><a xlink:title=" ">
<path fill="none" stroke="#9a32cd" stroke-dasharray="5,2" d="M76.83,-352C108.28,-352 164.61,-352 207.19,-352"/>
<polygon fill="#9a32cd" stroke="#9a32cd" points="76.81,-348.5 66.81,-352 76.81,-355.5 76.81,-348.5"/>
</a>
</g>
<text text-anchor="start" x="137" y="-357.5" font-family="Helvetica,sans-Serif" font-size="10.00" fill="grey">keys</text>
</g>
<!-- Node10 -->
<g id="Node000010" class="node">
<title>Node10</title>
<g id="a_Node000010"><a xlink:title=" ">
<polygon fill="white" stroke="#666666" points="66.5,-166.5 37.5,-166.5 37.5,-147.5 66.5,-147.5 66.5,-166.5"/>
<text text-anchor="middle" x="52" y="-154.5" font-family="Helvetica,sans-Serif" font-size="10.00">T</text>
</a>
</g>
</g>
<!-- Node10&#45;&gt;Node8 -->
<g id="edge9_Node000008_Node000010" class="edge">
<title>Node10&#45;&gt;Node8</title>
<g id="a_edge9_Node000008_Node000010"><a xlink:title=" ">
<path fill="none" stroke="#9a32cd" stroke-dasharray="5,2" d="M70.92,-173.6C111.21,-210.93 208.47,-301.03 247.2,-336.9"/>
<polygon fill="#9a32cd" stroke="#9a32cd" points="73.15,-170.9 63.44,-166.67 68.4,-176.03 73.15,-170.9"/>
</a>
</g>
<text text-anchor="start" x="125" y="-271.5" font-family="Helvetica,sans-Serif" font-size="10.00" fill="grey">elements</text>
</g>
<!-- Node15 -->
<g id="Node000015" class="node">
<title>Node15</title>
<g id="a_Node000015"><a xlink:title=" ">
<polygon fill="white" stroke="#666666" points="323.5,-166.5 205.5,-166.5 205.5,-147.5 323.5,-147.5 323.5,-166.5"/>
<text text-anchor="middle" x="264.5" y="-154.5" font-family="Helvetica,sans-Serif" font-size="10.00">std::unique_ptr&lt; T &gt;</text>
</a>
</g>
</g>
<!-- Node10&#45;&gt;Node15 -->
<g id="edge17_Node000015_Node000010" class="edge">
<title>Node10&#45;&gt;Node15</title>
<g id="a_edge17_Node000015_Node000010"><a xlink:title=" ">
<path fill="none" stroke="#9a32cd" stroke-dasharray="5,2" d="M77.09,-157C108.13,-157 163.09,-157 205.32,-157"/>
<polygon fill="#9a32cd" stroke="#9a32cd" points="76.81,-153.5 66.81,-157 76.81,-160.5 76.81,-153.5"/>
</a>
</g>
<text text-anchor="start" x="141" y="-162.5" font-family="Helvetica,sans-Serif" font-size="10.00" fill="grey">ptr</text>
</g>
<!-- Node16 -->
<g id="Node000016" class="node">
<title>Node16</title>
<g id="a_Node000016"><a xlink:title=" ">
<polygon fill="white" stroke="#666666" points="487,-53.5 369,-53.5 369,-34.5 487,-34.5 487,-53.5"/>
<text text-anchor="middle" x="428" y="-41.5" font-family="Helvetica,sans-Serif" font-size="10.00">std::shared_ptr&lt; T &gt;</text>
</a>
</g>
</g>
<!-- Node10&#45;&gt;Node16 -->
<g id="edge19_Node000016_Node000010" class="edge">
<title>Node10&#45;&gt;Node16</title>
<g id="a_edge19_Node000016_Node000010"><a xlink:title=" ">
<path fill="none" stroke="#9a32cd" stroke-dasharray="5,2" d="M69.67,-140.23C94.07,-116.92 142.05,-75.62 192,-58 249.62,-37.67 320.09,-36.31 368.74,-38.7"/>
<polygon fill="#9a32cd" stroke="#9a32cd" points="67.05,-137.89 62.34,-147.38 71.94,-142.9 67.05,-137.89"/>
</a>
</g>
<text text-anchor="start" x="141" y="-101.5" font-family="Helvetica,sans-Serif" font-size="10.00" fill="grey">ptr</text>
</g>
<!-- Node11 -->
<g id="Node000011" class="node">
<title>Node11</title>
<g id="a_Node000011"><a xlink:title=" ">
<polygon fill="white" stroke="#666666" points="1305,-123 1165,-123 1165,-93 1305,-93 1305,-123"/>
<text text-anchor="start" x="1173" y="-111" font-family="Helvetica,sans-Serif" font-size="10.00">std::shared_ptr&lt; kynema</text>
<text text-anchor="middle" x="1235" y="-100" font-family="Helvetica,sans-Serif" font-size="10.00">_sgf::FieldInfo &gt;</text>
</a>
</g>
</g>
<!-- Node11&#45;&gt;Node3 -->
<g id="edge11_Node000003_Node000011" class="edge">
<title>Node11&#45;&gt;Node3</title>
<g id="a_edge11_Node000003_Node000011"><a xlink:title=" ">
<path fill="none" stroke="#9a32cd" stroke-dasharray="5,2" d="M1315.13,-112.91C1332.17,-115.3 1349.9,-118.82 1366,-124 1395.64,-133.54 1426.76,-152.83 1443.98,-164.46"/>
<polygon fill="#9a32cd" stroke="#9a32cd" points="1315.56,-109.43 1305.19,-111.63 1314.66,-116.38 1315.56,-109.43"/>
</a>
</g>
<text text-anchor="start" x="1327.5" y="-129.5" font-family="Helvetica,sans-Serif" font-size="10.00" fill="grey">m_info</text>
</g>
<!-- Node12&#45;&gt;Node11 -->
<g id="edge12_Node000011_Node000012" class="edge">
<title>Node12&#45;&gt;Node11</title>
<g id="a_edge12_Node000011_Node000012"><a xlink:title=" ">
<path fill="none" stroke="#9a32cd" stroke-dasharray="5,2" d="M999.27,-108C1049.08,-108 1115.41,-108 1164.86,-108"/>
<polygon fill="#9a32cd" stroke="#9a32cd" points="999.22,-104.5 989.22,-108 999.22,-111.5 999.22,-104.5"/>
</a>
</g>
<text text-anchor="start" x="1077.5" y="-113.5" font-family="Helvetica,sans-Serif" font-size="10.00" fill="grey">ptr</text>
</g>
<!-- Node13 -->
<g id="Node000013" class="node">
<title>Node13</title>
<g id="a_Node000013"><a xlink:title=" ">
<polygon fill="white" stroke="#666666" points="679,-120 519,-120 519,-90 679,-90 679,-120"/>
<text text-anchor="start" x="527" y="-108" font-family="Helvetica,sans-Serif" font-size="10.00">std::unique_ptr&lt; kynema</text>
<text text-anchor="middle" x="599" y="-97" font-family="Helvetica,sans-Serif" font-size="10.00">_sgf::FieldFillPatchOpsBase &gt;</text>
</a>
</g>
</g>
<!-- Node13&#45;&gt;Node12 -->
<g id="edge14_Node000012_Node000013" class="edge">
<title>Node13&#45;&gt;Node12</title>
<g id="a_edge14_Node000012_Node000013"><a xlink:title=" ">
<path fill="none" stroke="#9a32cd" stroke-dasharray="5,2" d="M689.33,-105.82C745.4,-106.34 816.23,-106.99 865.83,-107.44"/>
<polygon fill="#9a32cd" stroke="#9a32cd" points="689.07,-102.32 679.04,-105.73 689,-109.32 689.07,-102.32"/>
</a>
</g>
<text text-anchor="start" x="729" y="-112.5" font-family="Helvetica,sans-Serif" font-size="10.00" fill="grey">m_fillpatch_op</text>
</g>
<!-- Node14 -->
<g id="Node000014" class="node">
<title>Node14</title>
<g id="a_Node000014"><a xlink:href="classkynema__sgf_1_1_field_fill_patch_ops_base.html" target="_top" xlink:title=" ">
<polygon fill="white" stroke="#666666" points="337,-97 192,-97 192,-67 337,-67 337,-97"/>
<text text-anchor="start" x="200" y="-85" font-family="Helvetica,sans-Serif" font-size="10.00">kynema_sgf::FieldFillPatch</text>
<text text-anchor="middle" x="264.5" y="-74" font-family="Helvetica,sans-Serif" font-size="10.00">OpsBase</text>
</a>
</g>
</g>
<!-- Node14&#45;&gt;Node13 -->
<g id="edge15_Node000013_Node000014" class="edge">
<title>Node14&#45;&gt;Node13</title>
<g id="a_edge15_Node000013_Node000014"><a xlink:title=" ">
<path fill="none" stroke="#9a32cd" stroke-dasharray="5,2" d="M347.26,-75.93C392.71,-73.9 450.19,-73.56 501,-80 517.04,-82.03 534.23,-85.89 549.62,-89.98"/>
<polygon fill="#9a32cd" stroke="#9a32cd" points="346.98,-72.44 337.16,-76.42 347.32,-79.43 346.98,-72.44"/>
</a>
</g>
<text text-anchor="start" x="421" y="-85.5" font-family="Helvetica,sans-Serif" font-size="10.00" fill="grey">ptr</text>
</g>
<!-- Node15&#45;&gt;Node13 -->
<g id="edge16_Node000013_Node000015" class="edge">
<title>Node15&#45;&gt;Node13</title>
<g id="a_edge16_Node000013_Node000015"><a xlink:title=" ">
<path fill="none" stroke="orange" stroke-dasharray="5,2" d="M293.23,-142.74C310.52,-134.56 333.5,-124.96 355,-120 408.75,-107.6 470.84,-103.94 518.81,-103.34"/>
<polygon fill="orange" stroke="orange" points="291.22,-139.82 283.76,-147.34 294.29,-146.12 291.22,-139.82"/>
</a>
</g>
<text text-anchor="start" x="358" y="-141" font-family="Helvetica,sans-Serif" font-size="10.00" fill="grey">&lt; kynema_sgf::FieldFillPatch</text>
<text text-anchor="start" x="358" y="-126" font-family="Helvetica,sans-Serif" font-size="10.00" fill="grey">  OpsBase &gt;</text>
</g>
<!-- Node20 -->
<g id="Node000020" class="node">
<title>Node20</title>
<g id="a_Node000020"><a xlink:title=" ">
<polygon fill="white" stroke="#666666" points="1528.5,-270 1388.5,-270 1388.5,-240 1528.5,-240 1528.5,-270"/>
<text text-anchor="start" x="1396.5" y="-258" font-family="Helvetica,sans-Serif" font-size="10.00">std::unique_ptr&lt; kynema</text>
<text text-anchor="middle" x="1458.5" y="-247" font-family="Helvetica,sans-Serif" font-size="10.00">_sgf::ScratchField &gt;</text>
</a>
</g>
</g>
<!-- Node15&#45;&gt;Node20 -->
<g id="edge28_Node000020_Node000015" class="edge">
<title>Node15&#45;&gt;Node20</title>
<g id="a_edge28_Node000020_Node000015"><a xlink:title=" ">
<path fill="none" stroke="orange" stroke-dasharray="5,2" d="M333.64,-167.04C384.57,-174.06 455.98,-182.89 519,-187 867.71,-209.73 960.93,-145.92 1305,-207 1344.9,-214.08 1388.89,-228.7 1419.33,-239.95"/>
<polygon fill="orange" stroke="orange" points="334.12,-163.57 323.74,-165.66 333.16,-170.51 334.12,-163.57"/>
</a>
</g>
<text text-anchor="start" x="854.5" y="-191.5" font-family="Helvetica,sans-Serif" font-size="10.00" fill="grey">&lt; kynema_sgf::ScratchField &gt;</text>
</g>
<!-- Node16&#45;&gt;Node11 -->
<g id="edge18_Node000011_Node000016" class="edge">
<title>Node16&#45;&gt;Node11</title>
<g id="a_edge18_Node000011_Node000016"><a xlink:title=" ">
<path fill="none" stroke="orange" stroke-dasharray="5,2" d="M497.33,-49.43C649.04,-61.49 1012.53,-90.39 1164.92,-102.51"/>
<polygon fill="orange" stroke="orange" points="497.46,-45.93 487.22,-48.63 496.91,-52.91 497.46,-45.93"/>
</a>
</g>
<text text-anchor="start" x="700" y="-81.5" font-family="Helvetica,sans-Serif" font-size="10.00" fill="grey">&lt; kynema_sgf::FieldInfo &gt;</text>
</g>
<!-- Node17 -->
<g id="Node000017" class="node">
<title>Node17</title>
<g id="a_Node000017"><a xlink:href="classkynema__sgf_1_1transport_1_1_transport_model.html" target="_top" xlink:title=" ">
<polygon fill="white" stroke="#666666" points="1521,-86 1396,-86 1396,-56 1521,-56 1521,-86"/>
<text text-anchor="start" x="1404" y="-74" font-family="Helvetica,sans-Serif" font-size="10.00">kynema_sgf::transport</text>
<text text-anchor="middle" x="1458.5" y="-63" font-family="Helvetica,sans-Serif" font-size="10.00">::TransportModel</text>
</a>
</g>
</g>
<!-- Node17&#45;&gt;Node1 -->
<g id="edge21_Node000001_Node000017" class="edge">
<title>Node17&#45;&gt;Node1</title>
<g id="a_edge21_Node000001_Node000017"><a xlink:title=" ">
<path fill="none" stroke="#9a32cd" stroke-dasharray="5,2" d="M1501.23,-90.59C1542.44,-110.76 1606.44,-144.35 1657,-181 1681.97,-199.1 1707.57,-224.15 1722.88,-239.96"/>
<polygon fill="#9a32cd" stroke="#9a32cd" points="1502.56,-87.35 1492.04,-86.13 1499.5,-93.64 1502.56,-87.35"/>
</a>
</g>
<text text-anchor="start" x="1574" y="-186.5" font-family="Helvetica,sans-Serif" font-size="10.00" fill="grey">m_transport</text>
</g>
<!-- Node18 -->
<g id="Node000018" class="node">
<title>Node18</title>
<g id="a_Node000018"><a xlink:href="structkynema__sgf_1_1_factory.html" target="_top" xlink:title=" ">
<polygon fill="white" stroke="#666666" points="1302.5,-53.5 1167.5,-53.5 1167.5,-12.5 1302.5,-12.5 1302.5,-53.5"/>
<text text-anchor="start" x="1175.5" y="-41.5" font-family="Helvetica,sans-Serif" font-size="10.00">kynema_sgf::Factory</text>
<text text-anchor="start" x="1175.5" y="-30.5" font-family="Helvetica,sans-Serif" font-size="10.00">&lt; TransportModel, const</text>
<text text-anchor="middle" x="1235" y="-19.5" font-family="Helvetica,sans-Serif" font-size="10.00"> CFDSim &amp; &gt;</text>
</a>
</g>
</g>
<!-- Node18&#45;&gt;Node17 -->
<g id="edge22_Node000017_Node000018" class="edge">
<title>Node18&#45;&gt;Node17</title>
<g id="a_edge22_Node000017_Node000018"><a xlink:title=" ">
<path fill="none" stroke="#63b8ff" d="M1312.62,-46.14C1339.8,-50.81 1370.02,-55.99 1395.8,-60.41"/>
<polygon fill="#63b8ff" stroke="#63b8ff" points="1313.21,-42.69 1302.76,-44.45 1312.02,-49.59 1313.21,-42.69"/>
</a>
</g>
</g>
<!-- Node19 -->
<g id="Node000019" class="node">
<title>Node19</title>
<g id="a_Node000019"><a xlink:href="structkynema__sgf_1_1_factory.html" target="_top" xlink:title=" ">
<polygon fill="white" stroke="#666666" points="985.5,-30 869.5,-30 869.5,0 985.5,0 985.5,-30"/>
<text text-anchor="start" x="877.5" y="-18" font-family="Helvetica,sans-Serif" font-size="10.00">kynema_sgf::Factory</text>
<text text-anchor="middle" x="927.5" y="-7" font-family="Helvetica,sans-Serif" font-size="10.00">&lt; Base, Args &gt;</text>
</a>
</g>
</g>
<!-- Node19&#45;&gt;Node18 -->
<g id="edge23_Node000018_Node000019" class="edge">
<title>Node19&#45;&gt;Node18</title>
<g id="a_edge23_Node000018_Node000019"><a xlink:title=" ">
<path fill="none" stroke="orange" stroke-dasharray="5,2" d="M995.83,-12.04C1039.11,-10.95 1096.5,-11 1147,-16 1153.59,-16.65 1160.41,-17.57 1167.22,-18.63"/>
<polygon fill="orange" stroke="orange" points="995.6,-8.55 985.7,-12.33 995.79,-15.55 995.6,-8.55"/>
</a>
</g>
<text text-anchor="start" x="1025.5" y="-37" font-family="Helvetica,sans-Serif" font-size="10.00" fill="grey">&lt; TransportModel, const</text>
<text text-anchor="start" x="1025.5" y="-22" font-family="Helvetica,sans-Serif" font-size="10.00" fill="grey">   CFDSim &amp; &gt;</text>
</g>
<!-- Node20&#45;&gt;Node1 -->
<g id="edge24_Node000001_Node000020" class="edge">
<title>Node20&#45;&gt;Node1</title>
<g id="a_edge24_Node000001_Node000020"><a xlink:title=" ">
<path fill="none" stroke="#9a32cd" stroke-dasharray="5,2" d="M1538.99,-255C1582.1,-255 1634.61,-255 1674.72,-255"/>
<polygon fill="#9a32cd" stroke="#9a32cd" points="1538.81,-251.5 1528.81,-255 1538.81,-258.5 1538.81,-251.5"/>
</a>
</g>
<text text-anchor="start" x="1554" y="-276" font-family="Helvetica,sans-Serif" font-size="10.00" fill="grey">m_beta_scratch</text>
<text text-anchor="start" x="1554" y="-261" font-family="Helvetica,sans-Serif" font-size="10.00" fill="grey">m_ref_theta_scratch</text>
</g>
<!-- Node21&#45;&gt;Node20 -->
<g id="edge25_Node000020_Node000021" class="edge">
<title>Node21&#45;&gt;Node20</title>
<g id="a_edge25_Node000020_Node000021"><a xlink:title=" ">
<path fill="none" stroke="#9a32cd" stroke-dasharray="5,2" d="M1315.28,-273.62C1339.21,-270.49 1365.27,-267.08 1388.47,-264.04"/>
<polygon fill="#9a32cd" stroke="#9a32cd" points="1314.63,-270.17 1305.17,-274.94 1315.54,-277.12 1314.63,-270.17"/>
</a>
</g>
<text text-anchor="start" x="1337.5" y="-277.5" font-family="Helvetica,sans-Serif" font-size="10.00" fill="grey">ptr</text>
</g>
</g>
</svg>

<g id="navigator" transform="translate(0 0)" fill="#404254">
  <rect fill="#f2f5e9" fill-opacity="0.5" stroke="#606060" stroke-width=".5" x="0" y="0" width="60" height="60"/>
  <use id="zoomplus" xlink:href="#zoomPlus" x="17" y="9" onmousedown="handleZoom(evt,'in')"/>
  <use id="zoomminus" xlink:href="#zoomMin" x="42" y="9" onmousedown="handleZoom(evt,'out')"/>
  <use id="reset" xlink:href="#resetDef" x="30" y="36" onmousedown="handleReset()"/>
   <use id="arrowup" xlink:href="#arrowUp" x="0" y="0" onmousedown="handlePan(0,-1)"/>
  <use id="arrowright" xlink:href="#arrowRight" x="0" y="0" onmousedown="handlePan(1,0)"/>
  <use id="arrowdown" xlink:href="#arrowDown" x="0" y="0" onmousedown="handlePan(0,1)"/>
  <use id="arrowleft" xlink:href="#arrowLeft" x="0" y="0" onmousedown="handlePan(-1,0)"/>
</g>
<svg viewBox="0 0 15 15" width="100%" height="30px" preserveAspectRatio="xMaxYMin meet">
 <g id="arrow_out" transform="scale(0.3 0.3)">
  <a xlink:href="classkynema__sgf_1_1pde_1_1icns_1_1_boussinesq_buoyancy__coll__graph_org.svg" target="_base">
   <rect id="button" ry="5" rx="5" y="6" x="6" height="38" width="38"
        fill="#f2f5e9" fill-opacity="0.5" stroke="#606060" stroke-width="1.0"/>
   <path id="arrow"
     d="M 11.500037,31.436501 C 11.940474,20.09759 22.043105,11.32322 32.158766,21.979434 L 37.068811,17.246167 C 37.068811,17.246167 37.088388,32 37.088388,32 L 22.160133,31.978069 C 22.160133,31.978069 26.997745,27.140456 26.997745,27.140456 C 18.528582,18.264221 13.291696,25.230495 11.500037,31.436501 z"
     style="fill:#404040;"/>
  </a>
 </g>
</svg>

<style type='text/css'>
<![CDATA[
[data-mouse-over-selected='false'] { opacity: 0.7; }
[data-mouse-over-selected='true']  { opacity: 1.0; }
]]>
</style>
<script type="application/ecmascript"><![CDATA[
document.addEventListener('DOMContentLoaded', (event) => {
  highlightEdges();
  highlightAdjacentNodes();
});
]]></script>
</svg>
