<?xml version="1.0" encoding="UTF-8" standalone="no"?>
<!DOCTYPE svg PUBLIC "-//W3C//DTD SVG 1.1//EN"
 "http://www.w3.org/Graphics/SVG/1.1/DTD/svg11.dtd">
<!-- Generated by graphviz version 2.43.0 (0)
 -->
<!-- Title: kynema_sgf::pde::temperature::ABLMesoForcingTemp Pages: 1 -->
<svg width="1220pt" height="127pt"
 viewBox="0.00 0.00 1220.00 126.50" xmlns="http://www.w3.org/2000/svg" xmlns:xlink="http://www.w3.org/1999/xlink">
<g id="graph0" class="graph" transform="scale(1 1) rotate(0) translate(4 122.5)">
<title>kynema_sgf::pde::temperature::ABLMesoForcingTemp</title>
<!-- Node1 -->
<g id="Node000001" class="node">
<title>Node1</title>
<g id="a_Node000001"><a xlink:title=" ">
<polygon fill="#999999" stroke="#666666" points="1212,-47.5 1046,-47.5 1046,-17.5 1212,-17.5 1212,-47.5"/>
<text text-anchor="start" x="1054" y="-35.5" font-family="Helvetica,sans-Serif" font-size="10.00">kynema_sgf::pde::temperature</text>
<text text-anchor="middle" x="1129" y="-24.5" font-family="Helvetica,sans-Serif" font-size="10.00">::ABLMesoForcingTemp</text>
</a>
</g>
</g>
<!-- Node2 -->
<g id="Node000002" class="node">
<title>Node2</title>
<g id="a_Node000002"><a xlink:href="classkynema__sgf_1_1_a_b_l_mesoscale_forcing.html" target="_top" xlink:title=" ">
<polygon fill="white" stroke="#666666" points="1007,-89.5 855,-89.5 855,-59.5 1007,-59.5 1007,-89.5"/>
<text text-anchor="start" x="863" y="-77.5" font-family="Helvetica,sans-Serif" font-size="10.00">kynema_sgf::ABLMesoscale</text>
<text text-anchor="middle" x="931" y="-66.5" font-family="Helvetica,sans-Serif" font-size="10.00">Forcing</text>
</a>
</g>
</g>
<!-- Node2&#45;&gt;Node1 -->
<g id="edge1_Node000001_Node000002" class="edge">
<title>Node2&#45;&gt;Node1</title>
<g id="a_edge1_Node000001_Node000002"><a xlink:title=" ">
<path fill="none" stroke="#63b8ff" d="M1012.09,-57.34C1027.3,-54.08 1043.09,-50.69 1057.95,-47.51"/>
<polygon fill="#63b8ff" stroke="#63b8ff" points="1011.25,-53.94 1002.21,-59.46 1012.72,-60.78 1011.25,-53.94"/>
</a>
</g>
</g>
<!-- Node3 -->
<g id="Node000003" class="node">
<title>Node3</title>
<g id="a_Node000003"><a xlink:href="classkynema__sgf_1_1_sim_time.html" target="_top" xlink:title=" ">
<polygon fill="white" stroke="#666666" points="710,-111 585,-111 585,-92 710,-92 710,-111"/>
<text text-anchor="middle" x="647.5" y="-99" font-family="Helvetica,sans-Serif" font-size="10.00">kynema_sgf::SimTime</text>
</a>
</g>
</g>
<!-- Node3&#45;&gt;Node2 -->
<g id="edge2_Node000002_Node000003" class="edge">
<title>Node3&#45;&gt;Node2</title>
<g id="a_edge2_Node000002_Node000003"><a xlink:title=" ">
<path fill="none" stroke="#9a32cd" stroke-dasharray="5,2" d="M720.24,-94.62C761.43,-90.67 813.1,-85.71 854.84,-81.71"/>
<polygon fill="#9a32cd" stroke="#9a32cd" points="719.9,-91.14 710.28,-95.57 720.56,-98.1 719.9,-91.14"/>
</a>
</g>
<text text-anchor="start" x="762.5" y="-99" font-family="Helvetica,sans-Serif" font-size="10.00" fill="grey">m_time</text>
</g>
<!-- Node4 -->
<g id="Node000004" class="node">
<title>Node4</title>
<g id="a_Node000004"><a xlink:title=" ">
<polygon fill="white" stroke="#666666" points="412,-111 300,-111 300,-92 412,-92 412,-111"/>
<text text-anchor="middle" x="356" y="-99" font-family="Helvetica,sans-Serif" font-size="10.00">std::vector&lt; bool &gt;</text>
</a>
</g>
</g>
<!-- Node4&#45;&gt;Node3 -->
<g id="edge3_Node000003_Node000004" class="edge">
<title>Node4&#45;&gt;Node3</title>
<g id="a_edge3_Node000003_Node000004"><a xlink:title=" ">
<path fill="none" stroke="#9a32cd" stroke-dasharray="5,2" d="M422.24,-101.5C470.92,-101.5 536.99,-101.5 584.8,-101.5"/>
<polygon fill="#9a32cd" stroke="#9a32cd" points="422.13,-98 412.13,-101.5 422.13,-105 422.13,-98"/>
</a>
</g>
<text text-anchor="start" x="433.5" y="-107" font-family="Helvetica,sans-Serif" font-size="10.00" fill="grey">m_postprocess_enforce_dt</text>
</g>
<!-- Node5 -->
<g id="Node000005" class="node">
<title>Node5</title>
<g id="a_Node000005"><a xlink:title=" ">
<polygon fill="white" stroke="#666666" points="214,-111 117,-111 117,-92 214,-92 214,-111"/>
<text text-anchor="middle" x="165.5" y="-99" font-family="Helvetica,sans-Serif" font-size="10.00">std::vector&lt; T &gt;</text>
</a>
</g>
</g>
<!-- Node5&#45;&gt;Node4 -->
<g id="edge4_Node000004_Node000005" class="edge">
<title>Node5&#45;&gt;Node4</title>
<g id="a_edge4_Node000004_Node000005"><a xlink:title=" ">
<path fill="none" stroke="orange" stroke-dasharray="5,2" d="M224.12,-101.5C248.16,-101.5 275.97,-101.5 299.76,-101.5"/>
<polygon fill="orange" stroke="orange" points="224.07,-98 214.07,-101.5 224.07,-105 224.07,-98"/>
</a>
</g>
<text text-anchor="start" x="235" y="-107" font-family="Helvetica,sans-Serif" font-size="10.00" fill="grey">&lt; bool &gt;</text>
</g>
<!-- Node6 -->
<g id="Node000006" class="node">
<title>Node6</title>
<g id="a_Node000006"><a xlink:title=" ">
<polygon fill="white" stroke="#666666" points="29,-111 0,-111 0,-92 29,-92 29,-111"/>
<text text-anchor="middle" x="14.5" y="-99" font-family="Helvetica,sans-Serif" font-size="10.00">T</text>
</a>
</g>
</g>
<!-- Node6&#45;&gt;Node5 -->
<g id="edge5_Node000005_Node000006" class="edge">
<title>Node6&#45;&gt;Node5</title>
<g id="a_edge5_Node000005_Node000006"><a xlink:title=" ">
<path fill="none" stroke="#9a32cd" stroke-dasharray="5,2" d="M39.41,-101.5C60.21,-101.5 90.98,-101.5 116.79,-101.5"/>
<polygon fill="#9a32cd" stroke="#9a32cd" points="39.25,-98 29.25,-101.5 39.25,-105 39.25,-98"/>
</a>
</g>
<text text-anchor="start" x="50" y="-107" font-family="Helvetica,sans-Serif" font-size="10.00" fill="grey">elements</text>
</g>
<!-- Node7 -->
<g id="Node000007" class="node">
<title>Node7</title>
<g id="a_Node000007"><a xlink:title=" ">
<polygon fill="white" stroke="#666666" points="680,-56 615,-56 615,-37 680,-37 680,-56"/>
<text text-anchor="middle" x="647.5" y="-44" font-family="Helvetica,sans-Serif" font-size="10.00">std::string</text>
</a>
</g>
</g>
<!-- Node7&#45;&gt;Node2 -->
<g id="edge6_Node000002_Node000007" class="edge">
<title>Node7&#45;&gt;Node2</title>
<g id="a_edge6_Node000002_Node000007"><a xlink:title=" ">
<path fill="none" stroke="#9a32cd" stroke-dasharray="5,2" d="M690.2,-43.51C728.16,-41.55 785.63,-40.48 835,-47.5 852.15,-49.94 870.55,-54.65 886.55,-59.47"/>
<polygon fill="#9a32cd" stroke="#9a32cd" points="689.83,-40.03 680.04,-44.08 690.22,-47.01 689.83,-40.03"/>
</a>
</g>
<text text-anchor="start" x="731.5" y="-68.5" font-family="Helvetica,sans-Serif" font-size="10.00" fill="grey">m_forcing_scheme</text>
<text text-anchor="start" x="731.5" y="-53.5" font-family="Helvetica,sans-Serif" font-size="10.00" fill="grey">m_forcing_transition</text>
</g>
<!-- Node8 -->
<g id="Node000008" class="node">
<title>Node8</title>
<g id="a_Node000008"><a xlink:title=" ">
<polygon fill="white" stroke="#666666" points="408,-61.5 304,-61.5 304,-31.5 408,-31.5 408,-61.5"/>
<text text-anchor="start" x="312" y="-49.5" font-family="Helvetica,sans-Serif" font-size="10.00">std::basic_string&lt;</text>
<text text-anchor="middle" x="356" y="-38.5" font-family="Helvetica,sans-Serif" font-size="10.00"> Char &gt;</text>
</a>
</g>
</g>
<!-- Node8&#45;&gt;Node7 -->
<g id="edge7_Node000007_Node000008" class="edge">
<title>Node8&#45;&gt;Node7</title>
<g id="a_edge7_Node000007_Node000008"><a xlink:title=" ">
<path fill="none" stroke="#63b8ff" d="M418.21,-46.5C478.3,-46.5 567.58,-46.5 614.71,-46.5"/>
<polygon fill="#63b8ff" stroke="#63b8ff" points="418.09,-43 408.09,-46.5 418.09,-50 418.09,-43"/>
</a>
</g>
</g>
<!-- Node9 -->
<g id="Node000009" class="node">
<title>Node9</title>
<g id="a_Node000009"><a xlink:title=" ">
<polygon fill="white" stroke="#666666" points="1009,-41 853,-41 853,0 1009,0 1009,-41"/>
<text text-anchor="start" x="861" y="-29" font-family="Helvetica,sans-Serif" font-size="10.00">kynema_sgf::Factory</text>
<text text-anchor="start" x="861" y="-18" font-family="Helvetica,sans-Serif" font-size="10.00">&lt; TemperatureSource,</text>
<text text-anchor="middle" x="931" y="-7" font-family="Helvetica,sans-Serif" font-size="10.00"> const CFDSim &amp; &gt;::Register</text>
</a>
</g>
</g>
<!-- Node9&#45;&gt;Node1 -->
<g id="edge8_Node000001_Node000009" class="edge">
<title>Node9&#45;&gt;Node1</title>
<g id="a_edge8_Node000001_Node000009"><a xlink:title=" ">
<path fill="none" stroke="#63b8ff" d="M1019.39,-25.85C1028.15,-26.39 1037.02,-26.93 1045.72,-27.46"/>
<polygon fill="#63b8ff" stroke="#63b8ff" points="1019.38,-22.34 1009.18,-25.23 1018.95,-29.33 1019.38,-22.34"/>
</a>
</g>
</g>
</g>
</svg>
