<?xml version="1.0" encoding="UTF-8" standalone="no"?>
<!DOCTYPE svg PUBLIC "-//W3C//DTD SVG 1.1//EN"
 "http://www.w3.org/Graphics/SVG/1.1/DTD/svg11.dtd">
<!-- Generated by graphviz version 2.43.0 (0)
 -->
<!-- Title: kynema_sgf::ABLMesoscaleForcing Pages: 1 -->
<svg width="293pt" height="352pt"
 viewBox="0.00 0.00 293.00 352.00" xmlns="http://www.w3.org/2000/svg" xmlns:xlink="http://www.w3.org/1999/xlink">
<g id="graph0" class="graph" transform="scale(1 1) rotate(0) translate(4 348)">
<title>kynema_sgf::ABLMesoscaleForcing</title>
<!-- Node1 -->
<g id="Node000001" class="node">
<title>Node1</title>
<g id="a_Node000001"><a xlink:title=" ">
<polygon fill="#999999" stroke="#666666" points="207,-30 55,-30 55,0 207,0 207,-30"/>
<text text-anchor="start" x="63" y="-18" font-family="Helvetica,sans-Serif" font-size="10.00">kynema_sgf::ABLMesoscale</text>
<text text-anchor="middle" x="131" y="-7" font-family="Helvetica,sans-Serif" font-size="10.00">Forcing</text>
</a>
</g>
</g>
<!-- Node2 -->
<g id="Node000002" class="node">
<title>Node2</title>
<g id="a_Node000002"><a xlink:href="classkynema__sgf_1_1_sim_time.html" target="_top" xlink:title=" ">
<polygon fill="white" stroke="#666666" points="137.5,-117 12.5,-117 12.5,-98 137.5,-98 137.5,-117"/>
<text text-anchor="middle" x="75" y="-105" font-family="Helvetica,sans-Serif" font-size="10.00">kynema_sgf::SimTime</text>
</a>
</g>
</g>
<!-- Node2&#45;&gt;Node1 -->
<g id="edge1_Node000001_Node000002" class="edge">
<title>Node2&#45;&gt;Node1</title>
<g id="a_edge1_Node000001_Node000002"><a xlink:title=" ">
<path fill="none" stroke="#9a32cd" stroke-dasharray="5,2" d="M85.24,-88.96C92.12,-77.28 101.45,-61.63 110,-48 113.67,-42.14 117.82,-35.77 121.46,-30.25"/>
<polygon fill="#9a32cd" stroke="#9a32cd" points="82.15,-87.31 80.11,-97.71 88.18,-90.85 82.15,-87.31"/>
</a>
</g>
<text text-anchor="start" x="113" y="-61" font-family="Helvetica,sans-Serif" font-size="10.00" fill="grey">m_time</text>
</g>
<!-- Node3 -->
<g id="Node000003" class="node">
<title>Node3</title>
<g id="a_Node000003"><a xlink:title=" ">
<polygon fill="white" stroke="#666666" points="112,-194.5 0,-194.5 0,-175.5 112,-175.5 112,-194.5"/>
<text text-anchor="middle" x="56" y="-182.5" font-family="Helvetica,sans-Serif" font-size="10.00">std::vector&lt; bool &gt;</text>
</a>
</g>
</g>
<!-- Node3&#45;&gt;Node2 -->
<g id="edge2_Node000002_Node000003" class="edge">
<title>Node3&#45;&gt;Node2</title>
<g id="a_edge2_Node000002_Node000003"><a xlink:title=" ">
<path fill="none" stroke="#9a32cd" stroke-dasharray="5,2" d="M55.64,-165.36C55.93,-156.06 57,-144.74 60,-135 61.93,-128.73 65.51,-122.32 68.69,-117.37"/>
<polygon fill="#9a32cd" stroke="#9a32cd" points="52.14,-165.45 55.6,-175.47 59.14,-165.48 52.14,-165.45"/>
</a>
</g>
<text text-anchor="start" x="63.5" y="-140.5" font-family="Helvetica,sans-Serif" font-size="10.00" fill="grey">m_postprocess_enforce_dt</text>
</g>
<!-- Node4 -->
<g id="Node000004" class="node">
<title>Node4</title>
<g id="a_Node000004"><a xlink:title=" ">
<polygon fill="white" stroke="#666666" points="104.5,-272 7.5,-272 7.5,-253 104.5,-253 104.5,-272"/>
<text text-anchor="middle" x="56" y="-260" font-family="Helvetica,sans-Serif" font-size="10.00">std::vector&lt; T &gt;</text>
</a>
</g>
</g>
<!-- Node4&#45;&gt;Node3 -->
<g id="edge3_Node000003_Node000004" class="edge">
<title>Node4&#45;&gt;Node3</title>
<g id="a_edge3_Node000003_Node000004"><a xlink:title=" ">
<path fill="none" stroke="orange" stroke-dasharray="5,2" d="M56,-242.4C56,-227.01 56,-206.11 56,-194.56"/>
<polygon fill="orange" stroke="orange" points="52.5,-242.84 56,-252.84 59.5,-242.84 52.5,-242.84"/>
</a>
</g>
<text text-anchor="start" x="59" y="-223.5" font-family="Helvetica,sans-Serif" font-size="10.00" fill="grey">&lt; bool &gt;</text>
</g>
<!-- Node5 -->
<g id="Node000005" class="node">
<title>Node5</title>
<g id="a_Node000005"><a xlink:title=" ">
<polygon fill="white" stroke="#666666" points="70.5,-344 41.5,-344 41.5,-325 70.5,-325 70.5,-344"/>
<text text-anchor="middle" x="56" y="-332" font-family="Helvetica,sans-Serif" font-size="10.00">T</text>
</a>
</g>
</g>
<!-- Node5&#45;&gt;Node4 -->
<g id="edge4_Node000004_Node000005" class="edge">
<title>Node5&#45;&gt;Node4</title>
<g id="a_edge4_Node000004_Node000005"><a xlink:title=" ">
<path fill="none" stroke="#9a32cd" stroke-dasharray="5,2" d="M56,-314.58C56,-300.76 56,-282.68 56,-272.15"/>
<polygon fill="#9a32cd" stroke="#9a32cd" points="52.5,-314.92 56,-324.92 59.5,-314.92 52.5,-314.92"/>
</a>
</g>
<text text-anchor="start" x="59" y="-295.5" font-family="Helvetica,sans-Serif" font-size="10.00" fill="grey">elements</text>
</g>
<!-- Node6 -->
<g id="Node000006" class="node">
<title>Node6</title>
<g id="a_Node000006"><a xlink:title=" ">
<polygon fill="white" stroke="#666666" points="230.5,-117 165.5,-117 165.5,-98 230.5,-98 230.5,-117"/>
<text text-anchor="middle" x="198" y="-105" font-family="Helvetica,sans-Serif" font-size="10.00">std::string</text>
</a>
</g>
</g>
<!-- Node6&#45;&gt;Node1 -->
<g id="edge5_Node000001_Node000006" class="edge">
<title>Node6&#45;&gt;Node1</title>
<g id="a_edge5_Node000001_Node000006"><a xlink:title=" ">
<path fill="none" stroke="#9a32cd" stroke-dasharray="5,2" d="M185.28,-89.32C172.58,-72.16 153.27,-46.08 141.43,-30.09"/>
<polygon fill="#9a32cd" stroke="#9a32cd" points="182.81,-91.87 191.58,-97.82 188.44,-87.7 182.81,-91.87"/>
</a>
</g>
<text text-anchor="start" x="181.5" y="-69" font-family="Helvetica,sans-Serif" font-size="10.00" fill="grey">m_forcing_scheme</text>
<text text-anchor="start" x="181.5" y="-54" font-family="Helvetica,sans-Serif" font-size="10.00" fill="grey">m_forcing_transition</text>
</g>
<!-- Node7 -->
<g id="Node000007" class="node">
<title>Node7</title>
<g id="a_Node000007"><a xlink:title=" ">
<polygon fill="white" stroke="#666666" points="260,-200 156,-200 156,-170 260,-170 260,-200"/>
<text text-anchor="start" x="164" y="-188" font-family="Helvetica,sans-Serif" font-size="10.00">std::basic_string&lt;</text>
<text text-anchor="middle" x="208" y="-177" font-family="Helvetica,sans-Serif" font-size="10.00"> Char &gt;</text>
</a>
</g>
</g>
<!-- Node7&#45;&gt;Node6 -->
<g id="edge6_Node000006_Node000007" class="edge">
<title>Node7&#45;&gt;Node6</title>
<g id="a_edge6_Node000006_Node000007"><a xlink:title=" ">
<path fill="none" stroke="#63b8ff" d="M204.8,-159.83C202.85,-145.15 200.49,-127.32 199.13,-117.01"/>
<polygon fill="#63b8ff" stroke="#63b8ff" points="201.34,-160.35 206.12,-169.8 208.28,-159.43 201.34,-160.35"/>
</a>
</g>
</g>
</g>
</svg>
