<?xml version="1.0" encoding="UTF-8" standalone="no"?>
<!DOCTYPE svg PUBLIC "-//W3C//DTD SVG 1.1//EN"
 "http://www.w3.org/Graphics/SVG/1.1/DTD/svg11.dtd">
<!-- Generated by graphviz version 2.43.0 (0)
 -->
<!-- Title: kynema_sgf::BoussinesqBubble Pages: 1 -->
<svg width="1664pt" height="345pt"
 viewBox="0.00 0.00 1664.00 344.50" xmlns="http://www.w3.org/2000/svg" xmlns:xlink="http://www.w3.org/1999/xlink">
<g id="graph0" class="graph" transform="scale(1 1) rotate(0) translate(4 340.5)">
<title>kynema_sgf::BoussinesqBubble</title>
<!-- Node1 -->
<g id="Node000001" class="node">
<title>Node1</title>
<g id="a_Node000001"><a xlink:title=" ">
<polygon fill="#999999" stroke="#666666" points="1656,-165.5 1486,-165.5 1486,-146.5 1656,-146.5 1656,-165.5"/>
<text text-anchor="middle" x="1571" y="-153.5" font-family="Helvetica,sans-Serif" font-size="10.00">kynema_sgf::BoussinesqBubble</text>
</a>
</g>
</g>
<!-- Node2 -->
<g id="Node000002" class="node">
<title>Node2</title>
<g id="a_Node000002"><a xlink:title=" ">
<polygon fill="white" stroke="#666666" points="1368,-233 1248,-233 1248,-203 1368,-203 1368,-233"/>
<text text-anchor="start" x="1256" y="-221" font-family="Helvetica,sans-Serif" font-size="10.00">Physics::Register&lt;</text>
<text text-anchor="middle" x="1308" y="-210" font-family="Helvetica,sans-Serif" font-size="10.00"> BoussinesqBubble &gt;</text>
</a>
</g>
</g>
<!-- Node2&#45;&gt;Node1 -->
<g id="edge1_Node000001_Node000002" class="edge">
<title>Node2&#45;&gt;Node1</title>
<g id="a_edge1_Node000001_Node000002"><a xlink:title=" ">
<path fill="none" stroke="#63b8ff" d="M1378.2,-217.19C1406.44,-215.5 1439.17,-211.79 1468,-204 1500.12,-195.32 1534.56,-177 1554.08,-165.67"/>
<polygon fill="#63b8ff" stroke="#63b8ff" points="1377.81,-213.7 1368.01,-217.72 1378.18,-220.69 1377.81,-213.7"/>
</a>
</g>
</g>
<!-- Node3 -->
<g id="Node000003" class="node">
<title>Node3</title>
<g id="a_Node000003"><a xlink:href="classkynema__sgf_1_1_field.html" target="_top" xlink:title=" ">
<polygon fill="white" stroke="#666666" points="1360,-175.5 1256,-175.5 1256,-156.5 1360,-156.5 1360,-175.5"/>
<text text-anchor="middle" x="1308" y="-163.5" font-family="Helvetica,sans-Serif" font-size="10.00">kynema_sgf::Field</text>
</a>
</g>
</g>
<!-- Node3&#45;&gt;Node1 -->
<g id="edge2_Node000001_Node000003" class="edge">
<title>Node3&#45;&gt;Node1</title>
<g id="a_edge2_Node000001_Node000003"><a xlink:title=" ">
<path fill="none" stroke="#9a32cd" stroke-dasharray="5,2" d="M1370.4,-158.2C1375.67,-157.72 1380.92,-157.31 1386,-157 1418.52,-155.02 1454.34,-154.46 1485.66,-154.5"/>
<polygon fill="#9a32cd" stroke="#9a32cd" points="1369.9,-154.74 1360.29,-159.2 1370.58,-161.7 1369.9,-154.74"/>
</a>
</g>
<text text-anchor="start" x="1389" y="-192.5" font-family="Helvetica,sans-Serif" font-size="10.00" fill="grey">m_density</text>
<text text-anchor="start" x="1389" y="-177.5" font-family="Helvetica,sans-Serif" font-size="10.00" fill="grey">m_temperature</text>
<text text-anchor="start" x="1389" y="-162.5" font-family="Helvetica,sans-Serif" font-size="10.00" fill="grey">m_velocity</text>
</g>
<!-- Node4 -->
<g id="Node000004" class="node">
<title>Node4</title>
<g id="a_Node000004"><a xlink:href="classkynema__sgf_1_1_field_repo.html" target="_top" xlink:title=" ">
<polygon fill="white" stroke="#666666" points="1163.5,-196.5 1034.5,-196.5 1034.5,-177.5 1163.5,-177.5 1163.5,-196.5"/>
<text text-anchor="middle" x="1099" y="-184.5" font-family="Helvetica,sans-Serif" font-size="10.00">kynema_sgf::FieldRepo</text>
</a>
</g>
</g>
<!-- Node4&#45;&gt;Node3 -->
<g id="edge3_Node000003_Node000004" class="edge">
<title>Node4&#45;&gt;Node3</title>
<g id="a_edge3_Node000003_Node000004"><a xlink:title=" ">
<path fill="none" stroke="#9a32cd" stroke-dasharray="5,2" d="M1173.75,-179.52C1200.89,-176.76 1231.01,-173.71 1255.74,-171.2"/>
<polygon fill="#9a32cd" stroke="#9a32cd" points="1173.11,-176.07 1163.51,-180.56 1173.82,-183.03 1173.11,-176.07"/>
</a>
</g>
<text text-anchor="start" x="1190.5" y="-183.5" font-family="Helvetica,sans-Serif" font-size="10.00" fill="grey">m_repo</text>
</g>
<!-- Node5 -->
<g id="Node000005" class="node">
<title>Node5</title>
<g id="a_Node000005"><a xlink:title=" ">
<polygon fill="white" stroke="#666666" points="913.5,-223 791.5,-223 791.5,-193 913.5,-193 913.5,-223"/>
<text text-anchor="start" x="799.5" y="-211" font-family="Helvetica,sans-Serif" font-size="10.00">std::unordered_map</text>
<text text-anchor="middle" x="852.5" y="-200" font-family="Helvetica,sans-Serif" font-size="10.00">&lt; std::string, size_t &gt;</text>
</a>
</g>
</g>
<!-- Node5&#45;&gt;Node4 -->
<g id="edge4_Node000004_Node000005" class="edge">
<title>Node5&#45;&gt;Node4</title>
<g id="a_edge4_Node000004_Node000005"><a xlink:title=" ">
<path fill="none" stroke="#9a32cd" stroke-dasharray="5,2" d="M923.87,-197.86C926.62,-197.56 929.33,-197.27 932,-197 965.76,-193.62 1003.5,-191.24 1034.45,-189.65"/>
<polygon fill="#9a32cd" stroke="#9a32cd" points="923.39,-194.4 913.87,-199.05 924.21,-201.35 923.39,-194.4"/>
</a>
</g>
<text text-anchor="start" x="935.5" y="-218" font-family="Helvetica,sans-Serif" font-size="10.00" fill="grey">m_fid_map</text>
<text text-anchor="start" x="935.5" y="-203" font-family="Helvetica,sans-Serif" font-size="10.00" fill="grey">m_int_fid_map</text>
</g>
<!-- Node6 -->
<g id="Node000006" class="node">
<title>Node6</title>
<g id="a_Node000006"><a xlink:title=" ">
<polygon fill="white" stroke="#666666" points="560.5,-235.5 495.5,-235.5 495.5,-216.5 560.5,-216.5 560.5,-235.5"/>
<text text-anchor="middle" x="528" y="-223.5" font-family="Helvetica,sans-Serif" font-size="10.00">std::string</text>
</a>
</g>
</g>
<!-- Node6&#45;&gt;Node3 -->
<g id="edge10_Node000003_Node000006" class="edge">
<title>Node6&#45;&gt;Node3</title>
<g id="a_edge10_Node000003_Node000006"><a xlink:title=" ">
<path fill="none" stroke="#9a32cd" stroke-dasharray="5,2" d="M570.64,-231.24C590.67,-233.5 615.04,-235.88 637,-237 697.37,-240.07 712.56,-238.02 773,-237 976.78,-233.58 1033.6,-253.46 1230,-199 1250.74,-193.25 1273.24,-183.12 1288.53,-175.59"/>
<polygon fill="#9a32cd" stroke="#9a32cd" points="570.93,-227.75 560.6,-230.07 570.13,-234.7 570.93,-227.75"/>
</a>
</g>
<text text-anchor="start" x="950.5" y="-242.5" font-family="Helvetica,sans-Serif" font-size="10.00" fill="grey">m_name</text>
</g>
<!-- Node6&#45;&gt;Node5 -->
<g id="edge5_Node000005_Node000006" class="edge">
<title>Node6&#45;&gt;Node5</title>
<g id="a_edge5_Node000005_Node000006"><a xlink:title=" ">
<path fill="none" stroke="#9a32cd" stroke-dasharray="5,2" d="M570.8,-223.67C626.99,-220.53 727.23,-214.94 791.47,-211.35"/>
<polygon fill="#9a32cd" stroke="#9a32cd" points="570.3,-220.19 560.51,-224.24 570.69,-227.18 570.3,-220.19"/>
</a>
</g>
<text text-anchor="start" x="694" y="-224.5" font-family="Helvetica,sans-Serif" font-size="10.00" fill="grey">keys</text>
</g>
<!-- Node12 -->
<g id="Node000012" class="node">
<title>Node12</title>
<g id="a_Node000012"><a xlink:href="structkynema__sgf_1_1_field_info.html" target="_top" xlink:title=" ">
<polygon fill="white" stroke="#666666" points="914,-149.5 791,-149.5 791,-130.5 914,-130.5 914,-149.5"/>
<text text-anchor="middle" x="852.5" y="-137.5" font-family="Helvetica,sans-Serif" font-size="10.00">kynema_sgf::FieldInfo</text>
</a>
</g>
</g>
<!-- Node6&#45;&gt;Node12 -->
<g id="edge13_Node000012_Node000006" class="edge">
<title>Node6&#45;&gt;Node12</title>
<g id="a_edge13_Node000012_Node000006"><a xlink:title=" ">
<path fill="none" stroke="#9a32cd" stroke-dasharray="5,2" d="M566.03,-213.19C586.78,-206.22 613.19,-197.68 637,-191 695.23,-174.67 763.29,-159.07 806.87,-149.52"/>
<polygon fill="#9a32cd" stroke="#9a32cd" points="564.69,-209.95 556.34,-216.47 566.93,-216.58 564.69,-209.95"/>
</a>
</g>
<text text-anchor="start" x="672" y="-196.5" font-family="Helvetica,sans-Serif" font-size="10.00" fill="grey">m_basename</text>
</g>
<!-- Node7 -->
<g id="Node000007" class="node">
<title>Node7</title>
<g id="a_Node000007"><a xlink:title=" ">
<polygon fill="white" stroke="#666666" points="222,-246 118,-246 118,-216 222,-216 222,-246"/>
<text text-anchor="start" x="126" y="-234" font-family="Helvetica,sans-Serif" font-size="10.00">std::basic_string&lt;</text>
<text text-anchor="middle" x="170" y="-223" font-family="Helvetica,sans-Serif" font-size="10.00"> Char &gt;</text>
</a>
</g>
</g>
<!-- Node7&#45;&gt;Node6 -->
<g id="edge6_Node000006_Node000007" class="edge">
<title>Node7&#45;&gt;Node6</title>
<g id="a_edge6_Node000006_Node000007"><a xlink:title=" ">
<path fill="none" stroke="#63b8ff" d="M232.42,-230.14C308.73,-229.07 436.07,-227.28 495.12,-226.45"/>
<polygon fill="#63b8ff" stroke="#63b8ff" points="231.96,-226.64 222.01,-230.28 232.05,-233.64 231.96,-226.64"/>
</a>
</g>
</g>
<!-- Node8 -->
<g id="Node000008" class="node">
<title>Node8</title>
<g id="a_Node000008"><a xlink:title=" ">
<polygon fill="white" stroke="#666666" points="585,-299 471,-299 471,-269 585,-269 585,-299"/>
<text text-anchor="start" x="479" y="-287" font-family="Helvetica,sans-Serif" font-size="10.00">std::unordered_map</text>
<text text-anchor="middle" x="528" y="-276" font-family="Helvetica,sans-Serif" font-size="10.00">&lt; K, T &gt;</text>
</a>
</g>
</g>
<!-- Node8&#45;&gt;Node5 -->
<g id="edge7_Node000005_Node000008" class="edge">
<title>Node8&#45;&gt;Node5</title>
<g id="a_edge7_Node000005_Node000008"><a xlink:title=" ">
<path fill="none" stroke="orange" stroke-dasharray="5,2" d="M595.44,-275.84C645,-268.84 714.03,-257.13 773,-240 788.4,-235.52 804.92,-229.06 818.81,-223.11"/>
<polygon fill="orange" stroke="orange" points="594.91,-272.38 585.49,-277.22 595.88,-279.31 594.91,-272.38"/>
</a>
</g>
<text text-anchor="start" x="652" y="-273.5" font-family="Helvetica,sans-Serif" font-size="10.00" fill="grey">&lt; std::string, size_t &gt;</text>
</g>
<!-- Node9 -->
<g id="Node000009" class="node">
<title>Node9</title>
<g id="a_Node000009"><a xlink:title=" ">
<polygon fill="white" stroke="#666666" points="184.5,-336.5 155.5,-336.5 155.5,-317.5 184.5,-317.5 184.5,-336.5"/>
<text text-anchor="middle" x="170" y="-324.5" font-family="Helvetica,sans-Serif" font-size="10.00">K</text>
</a>
</g>
</g>
<!-- Node9&#45;&gt;Node8 -->
<g id="edge8_Node000008_Node000009" class="edge">
<title>Node9&#45;&gt;Node8</title>
<g id="a_edge8_Node000008_Node000009"><a xlink:title=" ">
<path fill="none" stroke="#9a32cd" stroke-dasharray="5,2" d="M194.47,-324.17C250.11,-317.44 391.33,-300.39 470.68,-290.8"/>
<polygon fill="#9a32cd" stroke="#9a32cd" points="194.03,-320.69 184.52,-325.37 194.87,-327.64 194.03,-320.69"/>
</a>
</g>
<text text-anchor="start" x="335" y="-319.5" font-family="Helvetica,sans-Serif" font-size="10.00" fill="grey">keys</text>
</g>
<!-- Node10 -->
<g id="Node000010" class="node">
<title>Node10</title>
<g id="a_Node000010"><a xlink:title=" ">
<polygon fill="white" stroke="#666666" points="29,-126.5 0,-126.5 0,-107.5 29,-107.5 29,-126.5"/>
<text text-anchor="middle" x="14.5" y="-114.5" font-family="Helvetica,sans-Serif" font-size="10.00">T</text>
</a>
</g>
</g>
<!-- Node10&#45;&gt;Node8 -->
<g id="edge9_Node000008_Node000010" class="edge">
<title>Node10&#45;&gt;Node8</title>
<g id="a_edge9_Node000008_Node000010"><a xlink:title=" ">
<path fill="none" stroke="#9a32cd" stroke-dasharray="5,2" d="M19.09,-136.96C25.88,-168.15 43.77,-227.7 85,-255 146.79,-295.92 366.11,-291.66 470.7,-287.06"/>
<polygon fill="#9a32cd" stroke="#9a32cd" points="22.47,-135.98 17.08,-126.86 15.6,-137.35 22.47,-135.98"/>
</a>
</g>
<text text-anchor="start" x="147" y="-292.5" font-family="Helvetica,sans-Serif" font-size="10.00" fill="grey">elements</text>
</g>
<!-- Node15 -->
<g id="Node000015" class="node">
<title>Node15</title>
<g id="a_Node000015"><a xlink:title=" ">
<polygon fill="white" stroke="#666666" points="229,-126.5 111,-126.5 111,-107.5 229,-107.5 229,-126.5"/>
<text text-anchor="middle" x="170" y="-114.5" font-family="Helvetica,sans-Serif" font-size="10.00">std::unique_ptr&lt; T &gt;</text>
</a>
</g>
</g>
<!-- Node10&#45;&gt;Node15 -->
<g id="edge17_Node000015_Node000010" class="edge">
<title>Node10&#45;&gt;Node15</title>
<g id="a_edge17_Node000015_Node000010"><a xlink:title=" ">
<path fill="none" stroke="#9a32cd" stroke-dasharray="5,2" d="M39.27,-117C58.31,-117 85.84,-117 110.66,-117"/>
<polygon fill="#9a32cd" stroke="#9a32cd" points="39.12,-113.5 29.12,-117 39.12,-120.5 39.12,-113.5"/>
</a>
</g>
<text text-anchor="start" x="50" y="-122.5" font-family="Helvetica,sans-Serif" font-size="10.00" fill="grey">ptr</text>
</g>
<!-- Node16 -->
<g id="Node000016" class="node">
<title>Node16</title>
<g id="a_Node000016"><a xlink:title=" ">
<polygon fill="white" stroke="#666666" points="405,-56.5 287,-56.5 287,-37.5 405,-37.5 405,-56.5"/>
<text text-anchor="middle" x="346" y="-44.5" font-family="Helvetica,sans-Serif" font-size="10.00">std::shared_ptr&lt; T &gt;</text>
</a>
</g>
</g>
<!-- Node10&#45;&gt;Node16 -->
<g id="edge19_Node000016_Node000010" class="edge">
<title>Node10&#45;&gt;Node16</title>
<g id="a_edge19_Node000016_Node000010"><a xlink:title=" ">
<path fill="none" stroke="#9a32cd" stroke-dasharray="5,2" d="M35.76,-101.71C39.36,-99.52 43.19,-97.5 47,-96 126.39,-64.71 225.28,-53.4 286.79,-49.31"/>
<polygon fill="#9a32cd" stroke="#9a32cd" points="33.75,-98.85 27.39,-107.32 37.64,-104.66 33.75,-98.85"/>
</a>
</g>
<text text-anchor="start" x="50" y="-101.5" font-family="Helvetica,sans-Serif" font-size="10.00" fill="grey">ptr</text>
</g>
<!-- Node11 -->
<g id="Node000011" class="node">
<title>Node11</title>
<g id="a_Node000011"><a xlink:title=" ">
<polygon fill="white" stroke="#666666" points="1169,-155 1029,-155 1029,-125 1169,-125 1169,-155"/>
<text text-anchor="start" x="1037" y="-143" font-family="Helvetica,sans-Serif" font-size="10.00">std::shared_ptr&lt; kynema</text>
<text text-anchor="middle" x="1099" y="-132" font-family="Helvetica,sans-Serif" font-size="10.00">_sgf::FieldInfo &gt;</text>
</a>
</g>
</g>
<!-- Node11&#45;&gt;Node3 -->
<g id="edge11_Node000003_Node000011" class="edge">
<title>Node11&#45;&gt;Node3</title>
<g id="a_edge11_Node000003_Node000011"><a xlink:title=" ">
<path fill="none" stroke="#9a32cd" stroke-dasharray="5,2" d="M1179.5,-147.96C1196.2,-149.8 1213.69,-151.85 1230,-154 1238.32,-155.1 1247.12,-156.36 1255.69,-157.66"/>
<polygon fill="#9a32cd" stroke="#9a32cd" points="1179.55,-144.44 1169.23,-146.84 1178.79,-151.4 1179.55,-144.44"/>
</a>
</g>
<text text-anchor="start" x="1191.5" y="-159.5" font-family="Helvetica,sans-Serif" font-size="10.00" fill="grey">m_info</text>
</g>
<!-- Node12&#45;&gt;Node11 -->
<g id="edge12_Node000011_Node000012" class="edge">
<title>Node12&#45;&gt;Node11</title>
<g id="a_edge12_Node000011_Node000012"><a xlink:title=" ">
<path fill="none" stroke="#9a32cd" stroke-dasharray="5,2" d="M924.26,-140C957.18,-140 996.21,-140 1028.92,-140"/>
<polygon fill="#9a32cd" stroke="#9a32cd" points="924.25,-136.5 914.25,-140 924.25,-143.5 924.25,-136.5"/>
</a>
</g>
<text text-anchor="start" x="964.5" y="-145.5" font-family="Helvetica,sans-Serif" font-size="10.00" fill="grey">ptr</text>
</g>
<!-- Node13 -->
<g id="Node000013" class="node">
<title>Node13</title>
<g id="a_Node000013"><a xlink:title=" ">
<polygon fill="white" stroke="#666666" points="608,-156 448,-156 448,-126 608,-126 608,-156"/>
<text text-anchor="start" x="456" y="-144" font-family="Helvetica,sans-Serif" font-size="10.00">std::unique_ptr&lt; kynema</text>
<text text-anchor="middle" x="528" y="-133" font-family="Helvetica,sans-Serif" font-size="10.00">_sgf::FieldFillPatchOpsBase &gt;</text>
</a>
</g>
</g>
<!-- Node13&#45;&gt;Node12 -->
<g id="edge14_Node000012_Node000013" class="edge">
<title>Node13&#45;&gt;Node12</title>
<g id="a_edge14_Node000012_Node000013"><a xlink:title=" ">
<path fill="none" stroke="#9a32cd" stroke-dasharray="5,2" d="M618.1,-140.11C624.5,-140.07 630.85,-140.03 637,-140 688.95,-139.76 747.97,-139.78 790.94,-139.85"/>
<polygon fill="#9a32cd" stroke="#9a32cd" points="618.01,-136.61 608.04,-140.18 618.06,-143.61 618.01,-136.61"/>
</a>
</g>
<text text-anchor="start" x="669" y="-145.5" font-family="Helvetica,sans-Serif" font-size="10.00" fill="grey">m_fillpatch_op</text>
</g>
<!-- Node14 -->
<g id="Node000014" class="node">
<title>Node14</title>
<g id="a_Node000014"><a xlink:href="classkynema__sgf_1_1_field_fill_patch_ops_base.html" target="_top" xlink:title=" ">
<polygon fill="white" stroke="#666666" points="242.5,-198 97.5,-198 97.5,-168 242.5,-168 242.5,-198"/>
<text text-anchor="start" x="105.5" y="-186" font-family="Helvetica,sans-Serif" font-size="10.00">kynema_sgf::FieldFillPatch</text>
<text text-anchor="middle" x="170" y="-175" font-family="Helvetica,sans-Serif" font-size="10.00">OpsBase</text>
</a>
</g>
</g>
<!-- Node14&#45;&gt;Node13 -->
<g id="edge15_Node000013_Node000014" class="edge">
<title>Node14&#45;&gt;Node13</title>
<g id="a_edge15_Node000013_Node000014"><a xlink:title=" ">
<path fill="none" stroke="#9a32cd" stroke-dasharray="5,2" d="M252.86,-181.84C301.39,-180.21 363.97,-176.47 419,-168 437.53,-165.15 457.52,-160.58 475.21,-156.01"/>
<polygon fill="#9a32cd" stroke="#9a32cd" points="252.61,-178.35 242.73,-182.16 252.83,-185.34 252.61,-178.35"/>
</a>
</g>
<text text-anchor="start" x="339" y="-186.5" font-family="Helvetica,sans-Serif" font-size="10.00" fill="grey">ptr</text>
</g>
<!-- Node15&#45;&gt;Node13 -->
<g id="edge16_Node000013_Node000015" class="edge">
<title>Node15&#45;&gt;Node13</title>
<g id="a_edge16_Node000013_Node000015"><a xlink:title=" ">
<path fill="none" stroke="orange" stroke-dasharray="5,2" d="M239.45,-121.61C299.03,-125.63 385.42,-131.46 447.94,-135.67"/>
<polygon fill="orange" stroke="orange" points="239.6,-118.12 229.39,-120.94 239.13,-125.1 239.6,-118.12"/>
</a>
</g>
<text text-anchor="start" x="276" y="-155" font-family="Helvetica,sans-Serif" font-size="10.00" fill="grey">&lt; kynema_sgf::FieldFillPatch</text>
<text text-anchor="start" x="276" y="-140" font-family="Helvetica,sans-Serif" font-size="10.00" fill="grey">  OpsBase &gt;</text>
</g>
<!-- Node17 -->
<g id="Node000017" class="node">
<title>Node17</title>
<g id="a_Node000017"><a xlink:title=" ">
<polygon fill="white" stroke="#666666" points="619,-70 437,-70 437,-40 619,-40 619,-70"/>
<text text-anchor="start" x="445" y="-58" font-family="Helvetica,sans-Serif" font-size="10.00">std::unique_ptr&lt; kynema</text>
<text text-anchor="middle" x="528" y="-47" font-family="Helvetica,sans-Serif" font-size="10.00">_sgf::BoussinesqBubbleFieldInit &gt;</text>
</a>
</g>
</g>
<!-- Node15&#45;&gt;Node17 -->
<g id="edge22_Node000017_Node000015" class="edge">
<title>Node15&#45;&gt;Node17</title>
<g id="a_edge22_Node000017_Node000015"><a xlink:title=" ">
<path fill="none" stroke="orange" stroke-dasharray="5,2" d="M211.19,-104.62C229.84,-99.22 252.41,-93.18 273,-89 326.95,-78.04 388.1,-69.73 436.87,-64.07"/>
<polygon fill="orange" stroke="orange" points="210.15,-101.28 201.54,-107.46 212.12,-108 210.15,-101.28"/>
</a>
</g>
<text text-anchor="start" x="280" y="-110" font-family="Helvetica,sans-Serif" font-size="10.00" fill="grey">&lt; kynema_sgf::Boussinesq</text>
<text text-anchor="start" x="280" y="-95" font-family="Helvetica,sans-Serif" font-size="10.00" fill="grey">  BubbleFieldInit &gt;</text>
</g>
<!-- Node16&#45;&gt;Node11 -->
<g id="edge18_Node000011_Node000016" class="edge">
<title>Node16&#45;&gt;Node11</title>
<g id="a_edge18_Node000011_Node000016"><a xlink:title=" ">
<path fill="none" stroke="orange" stroke-dasharray="5,2" d="M412.85,-60.13C414.95,-61.03 417.01,-61.98 419,-63 428.53,-67.87 427.17,-74.76 437,-79 534.71,-121.15 808.07,-110.87 914,-121 952.04,-124.64 994.48,-129 1029,-132.63"/>
<polygon fill="orange" stroke="orange" points="414,-56.83 403.41,-56.59 411.54,-63.38 414,-56.83"/>
</a>
</g>
<text text-anchor="start" x="640" y="-121.5" font-family="Helvetica,sans-Serif" font-size="10.00" fill="grey">&lt; kynema_sgf::FieldInfo &gt;</text>
</g>
<!-- Node17&#45;&gt;Node1 -->
<g id="edge20_Node000001_Node000017" class="edge">
<title>Node17&#45;&gt;Node1</title>
<g id="a_edge20_Node000001_Node000017"><a xlink:title=" ">
<path fill="none" stroke="#9a32cd" stroke-dasharray="5,2" d="M629.05,-56.41C692.73,-57.19 776.96,-58 851.5,-58 851.5,-58 851.5,-58 1309,-58 1408.95,-58 1517.48,-121.77 1555.71,-146.42"/>
<polygon fill="#9a32cd" stroke="#9a32cd" points="629.05,-52.91 619.01,-56.29 628.97,-59.91 629.05,-52.91"/>
</a>
</g>
<text text-anchor="start" x="1070" y="-63.5" font-family="Helvetica,sans-Serif" font-size="10.00" fill="grey">m_field_init</text>
</g>
<!-- Node18 -->
<g id="Node000018" class="node">
<title>Node18</title>
<g id="a_Node000018"><a xlink:href="classkynema__sgf_1_1_boussinesq_bubble_field_init.html" target="_top" xlink:title=" ">
<polygon fill="white" stroke="#666666" points="255,-30 85,-30 85,0 255,0 255,-30"/>
<text text-anchor="start" x="93" y="-18" font-family="Helvetica,sans-Serif" font-size="10.00">kynema_sgf::BoussinesqBubble</text>
<text text-anchor="middle" x="170" y="-7" font-family="Helvetica,sans-Serif" font-size="10.00">FieldInit</text>
</a>
</g>
</g>
<!-- Node18&#45;&gt;Node17 -->
<g id="edge21_Node000017_Node000018" class="edge">
<title>Node18&#45;&gt;Node17</title>
<g id="a_edge21_Node000017_Node000018"><a xlink:title=" ">
<path fill="none" stroke="#9a32cd" stroke-dasharray="5,2" d="M265.11,-4.31C311.8,-1.32 368.8,-1.17 419,-11 447.21,-16.53 477.36,-29.46 498.61,-39.88"/>
<polygon fill="#9a32cd" stroke="#9a32cd" points="264.73,-0.83 255,-5.01 265.22,-7.81 264.73,-0.83"/>
</a>
</g>
<text text-anchor="start" x="339" y="-16.5" font-family="Helvetica,sans-Serif" font-size="10.00" fill="grey">ptr</text>
</g>
</g>
</svg>
