<?xml version="1.0" encoding="UTF-8" standalone="no"?>
<!DOCTYPE svg PUBLIC "-//W3C//DTD SVG 1.1//EN"
 "http://www.w3.org/Graphics/SVG/1.1/DTD/svg11.dtd">
<!-- Generated by graphviz version 2.43.0 (0)
 -->
<!-- Title: incflo::InitData Pages: 1 -->
<svg width="241pt" height="124pt"
 viewBox="0.00 0.00 241.00 124.00" xmlns="http://www.w3.org/2000/svg" xmlns:xlink="http://www.w3.org/1999/xlink">
<g id="graph0" class="graph" transform="scale(1 1) rotate(0) translate(4 120)">
<title>incflo::InitData</title>
<!-- Node1 -->
<g id="Node000001" class="node">
<title>Node1</title>
<g id="a_Node000001"><a xlink:title=" ">
<polygon fill="#999999" stroke="#666666" points="88,-67.5 0,-67.5 0,-48.5 88,-48.5 88,-67.5"/>
<text text-anchor="middle" x="44" y="-55.5" font-family="Helvetica,sans-Serif" font-size="10.00">incflo::InitData</text>
</a>
</g>
</g>
<!-- Node2 -->
<g id="Node000002" class="node">
<title>Node2</title>
<g id="a_Node000002"><a xlink:href="classincflo.html#a12fc3d72d0154d5db501721906c41d3a" target="_top" xlink:title=" ">
<polygon fill="white" stroke="#666666" points="233,-116 124,-116 124,-86 233,-86 233,-116"/>
<text text-anchor="start" x="132" y="-104" font-family="Helvetica,sans-Serif" font-size="10.00">incflo::init_kynema</text>
<text text-anchor="middle" x="178.5" y="-93" font-family="Helvetica,sans-Serif" font-size="10.00">_sgf_modules</text>
</a>
</g>
</g>
<!-- Node1&#45;&gt;Node2 -->
<g id="edge1_Node000001_Node000002" class="edge">
<title>Node1&#45;&gt;Node2</title>
<g id="a_edge1_Node000001_Node000002"><a xlink:title=" ">
<path fill="none" stroke="#63b8ff" d="M74.41,-67.54C88.23,-72.03 105.2,-77.54 121.35,-82.78"/>
<polygon fill="#63b8ff" stroke="#63b8ff" points="120.67,-86.24 131.26,-85.99 122.83,-79.58 120.67,-86.24"/>
</a>
</g>
</g>
<!-- Node3 -->
<g id="Node000003" class="node">
<title>Node3</title>
<g id="a_Node000003"><a xlink:href="classincflo.html#aee7bc4ffefd8e4723c7f058dae3ccbc1" target="_top" xlink:title=" ">
<polygon fill="white" stroke="#666666" points="227,-67.5 130,-67.5 130,-48.5 227,-48.5 227,-67.5"/>
<text text-anchor="middle" x="178.5" y="-55.5" font-family="Helvetica,sans-Serif" font-size="10.00">incflo::init_mesh</text>
</a>
</g>
</g>
<!-- Node1&#45;&gt;Node3 -->
<g id="edge2_Node000001_Node000003" class="edge">
<title>Node1&#45;&gt;Node3</title>
<g id="a_edge2_Node000001_Node000003"><a xlink:title=" ">
<path fill="none" stroke="#63b8ff" d="M88.02,-58C98.1,-58 109,-58 119.61,-58"/>
<polygon fill="#63b8ff" stroke="#63b8ff" points="119.65,-61.5 129.65,-58 119.65,-54.5 119.65,-61.5"/>
</a>
</g>
</g>
<!-- Node4 -->
<g id="Node000004" class="node">
<title>Node4</title>
<g id="a_Node000004"><a xlink:href="classincflo.html#a2d6fbc59afee957d84c86736bf4f02ab" target="_top" xlink:title=" ">
<polygon fill="white" stroke="#666666" points="231,-30 126,-30 126,0 231,0 231,-30"/>
<text text-anchor="start" x="134" y="-18" font-family="Helvetica,sans-Serif" font-size="10.00">incflo::prepare_for</text>
<text text-anchor="middle" x="178.5" y="-7" font-family="Helvetica,sans-Serif" font-size="10.00">_time_integration</text>
</a>
</g>
</g>
<!-- Node1&#45;&gt;Node4 -->
<g id="edge3_Node000001_Node000004" class="edge">
<title>Node1&#45;&gt;Node4</title>
<g id="a_edge3_Node000001_Node000004"><a xlink:title=" ">
<path fill="none" stroke="#63b8ff" d="M74.41,-48.46C88.23,-43.97 105.2,-38.46 121.35,-33.22"/>
<polygon fill="#63b8ff" stroke="#63b8ff" points="122.83,-36.42 131.26,-30.01 120.67,-29.76 122.83,-36.42"/>
</a>
</g>
</g>
</g>
</svg>
