<?xml version="1.0" encoding="UTF-8" standalone="no"?>
<!DOCTYPE svg PUBLIC "-//W3C//DTD SVG 1.1//EN"
 "http://www.w3.org/Graphics/SVG/1.1/DTD/svg11.dtd">
<!-- Generated by graphviz version 2.43.0 (0)
 -->
<!-- Title: kynema_sgf::actuator::ops::ActSrcOp&lt; ActTrait, ActSrcDisk, std::enable_if_t&lt; std::is_base_of_v&lt; DiskType, ActTrait &gt; &gt; &gt; Pages: 1 -->
<svg width="1782pt" height="322pt"
 viewBox="0.00 0.00 1782.00 321.50" xmlns="http://www.w3.org/2000/svg" xmlns:xlink="http://www.w3.org/1999/xlink">
<g id="graph0" class="graph" transform="scale(1 1) rotate(0) translate(4 317.5)">
<title>kynema_sgf::actuator::ops::ActSrcOp&lt; ActTrait, ActSrcDisk, std::enable_if_t&lt; std::is_base_of_v&lt; DiskType, ActTrait &gt; &gt; &gt;</title>
<!-- Node1 -->
<g id="Node000001" class="node">
<title>Node1</title>
<g id="a_Node000001"><a xlink:title=" ">
<polygon fill="#999999" stroke="#666666" points="1774,-268 1625,-268 1625,-205 1774,-205 1774,-268"/>
<text text-anchor="start" x="1633" y="-256" font-family="Helvetica,sans-Serif" font-size="10.00">kynema_sgf::actuator</text>
<text text-anchor="start" x="1633" y="-245" font-family="Helvetica,sans-Serif" font-size="10.00">::ops::ActSrcOp&lt; ActTrait,</text>
<text text-anchor="start" x="1633" y="-234" font-family="Helvetica,sans-Serif" font-size="10.00"> ActSrcDisk, std::enable</text>
<text text-anchor="start" x="1633" y="-223" font-family="Helvetica,sans-Serif" font-size="10.00">_if_t&lt; std::is_base_of_v</text>
<text text-anchor="middle" x="1699.5" y="-212" font-family="Helvetica,sans-Serif" font-size="10.00">&lt; DiskType, ActTrait &gt; &gt; &gt;</text>
</a>
</g>
</g>
<!-- Node2 -->
<g id="Node000002" class="node">
<title>Node2</title>
<g id="a_Node000002"><a xlink:href="classkynema__sgf_1_1actuator_1_1ops_1_1_spreading_function.html" target="_top" xlink:title=" ">
<polygon fill="white" stroke="#666666" points="1446.5,-313 1310.5,-313 1310.5,-272 1446.5,-272 1446.5,-313"/>
<text text-anchor="start" x="1318.5" y="-301" font-family="Helvetica,sans-Serif" font-size="10.00">kynema_sgf::actuator</text>
<text text-anchor="start" x="1318.5" y="-290" font-family="Helvetica,sans-Serif" font-size="10.00">::ops::SpreadingFunction</text>
<text text-anchor="middle" x="1378.5" y="-279" font-family="Helvetica,sans-Serif" font-size="10.00">&lt; MyType&lt; ActTrait &gt; &gt;</text>
</a>
</g>
</g>
<!-- Node2&#45;&gt;Node1 -->
<g id="edge1_Node000001_Node000002" class="edge">
<title>Node2&#45;&gt;Node1</title>
<g id="a_edge1_Node000001_Node000002"><a xlink:title=" ">
<path fill="none" stroke="#9a32cd" stroke-dasharray="5,2" d="M1456.94,-281.39C1501.04,-274.78 1557.23,-265.87 1607,-256.5 1612.75,-255.42 1618.7,-254.24 1624.67,-253.03"/>
<polygon fill="#9a32cd" stroke="#9a32cd" points="1456.25,-277.95 1446.87,-282.89 1457.28,-284.88 1456.25,-277.95"/>
</a>
</g>
<text text-anchor="start" x="1505" y="-285" font-family="Helvetica,sans-Serif" font-size="10.00" fill="grey">m_spreading</text>
</g>
<!-- Node3 -->
<g id="Node000003" class="node">
<title>Node3</title>
<g id="a_Node000003"><a xlink:href="classkynema__sgf_1_1actuator_1_1ops_1_1_spreading_function.html" target="_top" xlink:title="A collection of spreading functions This class allows for polymorphic spreading functions....">
<polygon fill="white" stroke="#666666" points="1146,-312.5 982,-312.5 982,-282.5 1146,-282.5 1146,-312.5"/>
<text text-anchor="start" x="990" y="-300.5" font-family="Helvetica,sans-Serif" font-size="10.00">kynema_sgf::actuator</text>
<text text-anchor="middle" x="1064" y="-289.5" font-family="Helvetica,sans-Serif" font-size="10.00">::ops::SpreadingFunction&lt; T &gt;</text>
</a>
</g>
</g>
<!-- Node3&#45;&gt;Node2 -->
<g id="edge2_Node000002_Node000003" class="edge">
<title>Node3&#45;&gt;Node2</title>
<g id="a_edge2_Node000002_Node000003"><a xlink:title=" ">
<path fill="none" stroke="orange" stroke-dasharray="5,2" d="M1156.32,-296.04C1205.59,-295.25 1265.35,-294.29 1310.32,-293.57"/>
<polygon fill="orange" stroke="orange" points="1156.23,-292.54 1146.29,-296.2 1156.34,-299.54 1156.23,-292.54"/>
</a>
</g>
<text text-anchor="start" x="1167" y="-302" font-family="Helvetica,sans-Serif" font-size="10.00" fill="grey">&lt; MyType&lt; ActTrait &gt; &gt;</text>
</g>
<!-- Node4 -->
<g id="Node000004" class="node">
<title>Node4</title>
<g id="a_Node000004"><a xlink:href="classkynema__sgf_1_1_field.html" target="_top" xlink:title=" ">
<polygon fill="white" stroke="#666666" points="1430.5,-240 1326.5,-240 1326.5,-221 1430.5,-221 1430.5,-240"/>
<text text-anchor="middle" x="1378.5" y="-228" font-family="Helvetica,sans-Serif" font-size="10.00">kynema_sgf::Field</text>
</a>
</g>
</g>
<!-- Node4&#45;&gt;Node1 -->
<g id="edge3_Node000001_Node000004" class="edge">
<title>Node4&#45;&gt;Node1</title>
<g id="a_edge3_Node000001_Node000004"><a xlink:title=" ">
<path fill="none" stroke="#9a32cd" stroke-dasharray="5,2" d="M1440.93,-231.66C1493.41,-232.64 1569.04,-234.07 1624.78,-235.11"/>
<polygon fill="#9a32cd" stroke="#9a32cd" points="1440.82,-228.15 1430.75,-231.46 1440.69,-235.15 1440.82,-228.15"/>
</a>
</g>
<text text-anchor="start" x="1512" y="-241" font-family="Helvetica,sans-Serif" font-size="10.00" fill="grey">m_act_src</text>
</g>
<!-- Node5 -->
<g id="Node000005" class="node">
<title>Node5</title>
<g id="a_Node000005"><a xlink:href="classkynema__sgf_1_1_field_repo.html" target="_top" xlink:title=" ">
<polygon fill="white" stroke="#666666" points="1128.5,-213 999.5,-213 999.5,-194 1128.5,-194 1128.5,-213"/>
<text text-anchor="middle" x="1064" y="-201" font-family="Helvetica,sans-Serif" font-size="10.00">kynema_sgf::FieldRepo</text>
</a>
</g>
</g>
<!-- Node5&#45;&gt;Node4 -->
<g id="edge4_Node000004_Node000005" class="edge">
<title>Node5&#45;&gt;Node4</title>
<g id="a_edge4_Node000004_Node000005"><a xlink:title=" ">
<path fill="none" stroke="#9a32cd" stroke-dasharray="5,2" d="M1138.78,-209.87C1196.54,-214.86 1275.37,-221.68 1326.36,-226.08"/>
<polygon fill="#9a32cd" stroke="#9a32cd" points="1138.88,-206.37 1128.62,-209 1138.28,-213.34 1138.88,-206.37"/>
</a>
</g>
<text text-anchor="start" x="1209" y="-229" font-family="Helvetica,sans-Serif" font-size="10.00" fill="grey">m_repo</text>
</g>
<!-- Node6 -->
<g id="Node000006" class="node">
<title>Node6</title>
<g id="a_Node000006"><a xlink:title=" ">
<polygon fill="white" stroke="#666666" points="866.5,-214.5 744.5,-214.5 744.5,-184.5 866.5,-184.5 866.5,-214.5"/>
<text text-anchor="start" x="752.5" y="-202.5" font-family="Helvetica,sans-Serif" font-size="10.00">std::unordered_map</text>
<text text-anchor="middle" x="805.5" y="-191.5" font-family="Helvetica,sans-Serif" font-size="10.00">&lt; std::string, size_t &gt;</text>
</a>
</g>
</g>
<!-- Node6&#45;&gt;Node5 -->
<g id="edge5_Node000005_Node000006" class="edge">
<title>Node6&#45;&gt;Node5</title>
<g id="a_edge5_Node000005_Node000006"><a xlink:title=" ">
<path fill="none" stroke="#9a32cd" stroke-dasharray="5,2" d="M876.92,-199.59C904.13,-199.72 935.51,-199.98 964,-200.5 975.43,-200.71 987.61,-201.01 999.36,-201.35"/>
<polygon fill="#9a32cd" stroke="#9a32cd" points="876.72,-196.09 866.71,-199.54 876.7,-203.09 876.72,-196.09"/>
</a>
</g>
<text text-anchor="start" x="888.5" y="-221.5" font-family="Helvetica,sans-Serif" font-size="10.00" fill="grey">m_fid_map</text>
<text text-anchor="start" x="888.5" y="-206.5" font-family="Helvetica,sans-Serif" font-size="10.00" fill="grey">m_int_fid_map</text>
</g>
<!-- Node7 -->
<g id="Node000007" class="node">
<title>Node7</title>
<g id="a_Node000007"><a xlink:title=" ">
<polygon fill="white" stroke="#666666" points="524.5,-238 459.5,-238 459.5,-219 524.5,-219 524.5,-238"/>
<text text-anchor="middle" x="492" y="-226" font-family="Helvetica,sans-Serif" font-size="10.00">std::string</text>
</a>
</g>
</g>
<!-- Node7&#45;&gt;Node4 -->
<g id="edge11_Node000004_Node000007" class="edge">
<title>Node7&#45;&gt;Node4</title>
<g id="a_edge11_Node000004_Node000007"><a xlink:title=" ">
<path fill="none" stroke="#9a32cd" stroke-dasharray="5,2" d="M534.99,-234.84C552.02,-237.11 571.91,-239.39 590,-240.5 900.52,-259.63 979.39,-258.19 1290,-240.5 1301.75,-239.83 1314.35,-238.66 1326.23,-237.35"/>
<polygon fill="#9a32cd" stroke="#9a32cd" points="535.18,-231.33 524.8,-233.44 534.23,-238.27 535.18,-231.33"/>
</a>
</g>
<text text-anchor="start" x="903.5" y="-260" font-family="Helvetica,sans-Serif" font-size="10.00" fill="grey">m_name</text>
</g>
<!-- Node7&#45;&gt;Node6 -->
<g id="edge6_Node000006_Node000007" class="edge">
<title>Node7&#45;&gt;Node6</title>
<g id="a_edge6_Node000006_Node000007"><a xlink:title=" ">
<path fill="none" stroke="#9a32cd" stroke-dasharray="5,2" d="M534.8,-224.61C588.7,-219.59 682.8,-210.83 744.37,-205.1"/>
<polygon fill="#9a32cd" stroke="#9a32cd" points="534.21,-221.15 524.58,-225.56 534.86,-228.12 534.21,-221.15"/>
</a>
</g>
<text text-anchor="start" x="647" y="-225" font-family="Helvetica,sans-Serif" font-size="10.00" fill="grey">keys</text>
</g>
<!-- Node13 -->
<g id="Node000013" class="node">
<title>Node13</title>
<g id="a_Node000013"><a xlink:href="structkynema__sgf_1_1_field_info.html" target="_top" xlink:title=" ">
<polygon fill="white" stroke="#666666" points="867,-131 744,-131 744,-112 867,-112 867,-131"/>
<text text-anchor="middle" x="805.5" y="-119" font-family="Helvetica,sans-Serif" font-size="10.00">kynema_sgf::FieldInfo</text>
</a>
</g>
</g>
<!-- Node7&#45;&gt;Node13 -->
<g id="edge14_Node000013_Node000007" class="edge">
<title>Node7&#45;&gt;Node13</title>
<g id="a_edge14_Node000013_Node000007"><a xlink:title=" ">
<path fill="none" stroke="#9a32cd" stroke-dasharray="5,2" d="M520.87,-214.48C539.93,-205.39 565.99,-193.89 590,-186.5 648.81,-168.39 667.68,-180.15 726,-160.5 748.64,-152.87 773.04,-139.93 788.52,-131.06"/>
<polygon fill="#9a32cd" stroke="#9a32cd" points="519.32,-211.34 511.85,-218.86 522.38,-217.64 519.32,-211.34"/>
</a>
</g>
<text text-anchor="start" x="625" y="-192" font-family="Helvetica,sans-Serif" font-size="10.00" fill="grey">m_basename</text>
</g>
<!-- Node8 -->
<g id="Node000008" class="node">
<title>Node8</title>
<g id="a_Node000008"><a xlink:title=" ">
<polygon fill="white" stroke="#666666" points="209.5,-246.5 105.5,-246.5 105.5,-216.5 209.5,-216.5 209.5,-246.5"/>
<text text-anchor="start" x="113.5" y="-234.5" font-family="Helvetica,sans-Serif" font-size="10.00">std::basic_string&lt;</text>
<text text-anchor="middle" x="157.5" y="-223.5" font-family="Helvetica,sans-Serif" font-size="10.00"> Char &gt;</text>
</a>
</g>
</g>
<!-- Node8&#45;&gt;Node7 -->
<g id="edge7_Node000007_Node000008" class="edge">
<title>Node8&#45;&gt;Node7</title>
<g id="a_edge7_Node000007_Node000008"><a xlink:title=" ">
<path fill="none" stroke="#63b8ff" d="M219.85,-230.95C290.64,-230.31 404.34,-229.28 459.27,-228.79"/>
<polygon fill="#63b8ff" stroke="#63b8ff" points="219.69,-227.45 209.72,-231.04 219.76,-234.45 219.69,-227.45"/>
</a>
</g>
</g>
<!-- Node9 -->
<g id="Node000009" class="node">
<title>Node9</title>
<g id="a_Node000009"><a xlink:title=" ">
<polygon fill="white" stroke="#666666" points="549,-159.5 435,-159.5 435,-129.5 549,-129.5 549,-159.5"/>
<text text-anchor="start" x="443" y="-147.5" font-family="Helvetica,sans-Serif" font-size="10.00">std::unordered_map</text>
<text text-anchor="middle" x="492" y="-136.5" font-family="Helvetica,sans-Serif" font-size="10.00">&lt; K, T &gt;</text>
</a>
</g>
</g>
<!-- Node9&#45;&gt;Node6 -->
<g id="edge8_Node000006_Node000009" class="edge">
<title>Node9&#45;&gt;Node6</title>
<g id="a_edge8_Node000006_Node000009"><a xlink:title=" ">
<path fill="none" stroke="orange" stroke-dasharray="5,2" d="M559.25,-133.51C606.81,-128.17 671.8,-126.15 726,-143.5 751.03,-151.51 774.89,-170.76 789.59,-184.45"/>
<polygon fill="orange" stroke="orange" points="558.59,-130.07 549.08,-134.73 559.42,-137.02 558.59,-130.07"/>
</a>
</g>
<text text-anchor="start" x="605" y="-149" font-family="Helvetica,sans-Serif" font-size="10.00" fill="grey">&lt; std::string, size_t &gt;</text>
</g>
<!-- Node10 -->
<g id="Node000010" class="node">
<title>Node10</title>
<g id="a_Node000010"><a xlink:title=" ">
<polygon fill="white" stroke="#666666" points="172,-198 143,-198 143,-179 172,-179 172,-198"/>
<text text-anchor="middle" x="157.5" y="-186" font-family="Helvetica,sans-Serif" font-size="10.00">K</text>
</a>
</g>
</g>
<!-- Node10&#45;&gt;Node9 -->
<g id="edge9_Node000009_Node000010" class="edge">
<title>Node10&#45;&gt;Node9</title>
<g id="a_edge9_Node000009_Node000010"><a xlink:title=" ">
<path fill="none" stroke="#9a32cd" stroke-dasharray="5,2" d="M182.19,-185.4C224.65,-179.84 316.51,-167.79 394,-157.5 407.22,-155.74 421.46,-153.84 434.84,-152.05"/>
<polygon fill="#9a32cd" stroke="#9a32cd" points="181.5,-181.96 172.04,-186.73 182.41,-188.9 181.5,-181.96"/>
</a>
</g>
<text text-anchor="start" x="310" y="-183" font-family="Helvetica,sans-Serif" font-size="10.00" fill="grey">keys</text>
</g>
<!-- Node11 -->
<g id="Node000011" class="node">
<title>Node11</title>
<g id="a_Node000011"><a xlink:title=" ">
<polygon fill="white" stroke="#666666" points="29,-59 0,-59 0,-40 29,-40 29,-59"/>
<text text-anchor="middle" x="14.5" y="-47" font-family="Helvetica,sans-Serif" font-size="10.00">T</text>
</a>
</g>
</g>
<!-- Node11&#45;&gt;Node9 -->
<g id="edge10_Node000009_Node000011" class="edge">
<title>Node11&#45;&gt;Node9</title>
<g id="a_edge10_Node000009_Node000011"><a xlink:title=" ">
<path fill="none" stroke="#9a32cd" stroke-dasharray="5,2" d="M28.27,-67.56C40.72,-83.55 61.22,-105.94 85,-116.5 146.02,-143.6 338.23,-145.95 434.67,-145.32"/>
<polygon fill="#9a32cd" stroke="#9a32cd" points="31,-65.36 22.21,-59.45 25.39,-69.55 31,-65.36"/>
</a>
</g>
<text text-anchor="start" x="134.5" y="-146" font-family="Helvetica,sans-Serif" font-size="10.00" fill="grey">elements</text>
</g>
<!-- Node16 -->
<g id="Node000016" class="node">
<title>Node16</title>
<g id="a_Node000016"><a xlink:title=" ">
<polygon fill="white" stroke="#666666" points="216.5,-58 98.5,-58 98.5,-39 216.5,-39 216.5,-58"/>
<text text-anchor="middle" x="157.5" y="-46" font-family="Helvetica,sans-Serif" font-size="10.00">std::unique_ptr&lt; T &gt;</text>
</a>
</g>
</g>
<!-- Node11&#45;&gt;Node16 -->
<g id="edge18_Node000016_Node000011" class="edge">
<title>Node11&#45;&gt;Node16</title>
<g id="a_edge18_Node000016_Node000011"><a xlink:title=" ">
<path fill="none" stroke="#9a32cd" stroke-dasharray="5,2" d="M39.2,-49.33C55.44,-49.22 77.72,-49.06 98.5,-48.91"/>
<polygon fill="#9a32cd" stroke="#9a32cd" points="38.99,-45.83 29.02,-49.4 39.04,-52.83 38.99,-45.83"/>
</a>
</g>
<text text-anchor="start" x="50" y="-55" font-family="Helvetica,sans-Serif" font-size="10.00" fill="grey">ptr</text>
</g>
<!-- Node17 -->
<g id="Node000017" class="node">
<title>Node17</title>
<g id="a_Node000017"><a xlink:title=" ">
<polygon fill="white" stroke="#666666" points="380,-19 262,-19 262,0 380,0 380,-19"/>
<text text-anchor="middle" x="321" y="-7" font-family="Helvetica,sans-Serif" font-size="10.00">std::shared_ptr&lt; T &gt;</text>
</a>
</g>
</g>
<!-- Node11&#45;&gt;Node17 -->
<g id="edge20_Node000017_Node000011" class="edge">
<title>Node11&#45;&gt;Node17</title>
<g id="a_edge20_Node000017_Node000011"><a xlink:title=" ">
<path fill="none" stroke="#9a32cd" stroke-dasharray="5,2" d="M35.27,-34.13C38.99,-31.88 42.99,-29.87 47,-28.5 118.05,-4.26 205.39,-2.71 261.84,-5.07"/>
<polygon fill="#9a32cd" stroke="#9a32cd" points="33,-31.44 26.69,-39.95 36.93,-37.23 33,-31.44"/>
</a>
</g>
<text text-anchor="start" x="50" y="-34" font-family="Helvetica,sans-Serif" font-size="10.00" fill="grey">ptr</text>
</g>
<!-- Node12 -->
<g id="Node000012" class="node">
<title>Node12</title>
<g id="a_Node000012"><a xlink:title=" ">
<polygon fill="white" stroke="#666666" points="1134,-136.5 994,-136.5 994,-106.5 1134,-106.5 1134,-136.5"/>
<text text-anchor="start" x="1002" y="-124.5" font-family="Helvetica,sans-Serif" font-size="10.00">std::shared_ptr&lt; kynema</text>
<text text-anchor="middle" x="1064" y="-113.5" font-family="Helvetica,sans-Serif" font-size="10.00">_sgf::FieldInfo &gt;</text>
</a>
</g>
</g>
<!-- Node12&#45;&gt;Node4 -->
<g id="edge12_Node000004_Node000012" class="edge">
<title>Node12&#45;&gt;Node4</title>
<g id="a_edge12_Node000004_Node000012"><a xlink:title=" ">
<path fill="none" stroke="#9a32cd" stroke-dasharray="5,2" d="M1129.42,-139.35C1174.78,-152.45 1236.68,-171.4 1290,-191.5 1313.81,-200.47 1340.41,-212.65 1357.97,-221"/>
<polygon fill="#9a32cd" stroke="#9a32cd" points="1130.29,-135.96 1119.71,-136.56 1128.35,-142.69 1130.29,-135.96"/>
</a>
</g>
<text text-anchor="start" x="1210" y="-197" font-family="Helvetica,sans-Serif" font-size="10.00" fill="grey">m_info</text>
</g>
<!-- Node13&#45;&gt;Node12 -->
<g id="edge13_Node000012_Node000013" class="edge">
<title>Node13&#45;&gt;Node12</title>
<g id="a_edge13_Node000012_Node000013"><a xlink:title=" ">
<path fill="none" stroke="#9a32cd" stroke-dasharray="5,2" d="M877.3,-121.5C913.55,-121.5 957.53,-121.5 993.59,-121.5"/>
<polygon fill="#9a32cd" stroke="#9a32cd" points="877.29,-118 867.29,-121.5 877.29,-125 877.29,-118"/>
</a>
</g>
<text text-anchor="start" x="917.5" y="-127" font-family="Helvetica,sans-Serif" font-size="10.00" fill="grey">ptr</text>
</g>
<!-- Node14 -->
<g id="Node000014" class="node">
<title>Node14</title>
<g id="a_Node000014"><a xlink:title=" ">
<polygon fill="white" stroke="#666666" points="572,-111.5 412,-111.5 412,-81.5 572,-81.5 572,-111.5"/>
<text text-anchor="start" x="420" y="-99.5" font-family="Helvetica,sans-Serif" font-size="10.00">std::unique_ptr&lt; kynema</text>
<text text-anchor="middle" x="492" y="-88.5" font-family="Helvetica,sans-Serif" font-size="10.00">_sgf::FieldFillPatchOpsBase &gt;</text>
</a>
</g>
</g>
<!-- Node14&#45;&gt;Node13 -->
<g id="edge15_Node000013_Node000014" class="edge">
<title>Node14&#45;&gt;Node13</title>
<g id="a_edge15_Node000013_Node000014"><a xlink:title=" ">
<path fill="none" stroke="#9a32cd" stroke-dasharray="5,2" d="M582.31,-95.11C625.81,-95.47 678.81,-97.44 726,-103.5 740.42,-105.35 756.08,-108.67 769.59,-111.96"/>
<polygon fill="#9a32cd" stroke="#9a32cd" points="582.05,-91.61 572.03,-95.05 582.01,-98.61 582.05,-91.61"/>
</a>
</g>
<text text-anchor="start" x="622" y="-109" font-family="Helvetica,sans-Serif" font-size="10.00" fill="grey">m_fillpatch_op</text>
</g>
<!-- Node15 -->
<g id="Node000015" class="node">
<title>Node15</title>
<g id="a_Node000015"><a xlink:href="classkynema__sgf_1_1_field_fill_patch_ops_base.html" target="_top" xlink:title=" ">
<polygon fill="white" stroke="#666666" points="230,-107.5 85,-107.5 85,-77.5 230,-77.5 230,-107.5"/>
<text text-anchor="start" x="93" y="-95.5" font-family="Helvetica,sans-Serif" font-size="10.00">kynema_sgf::FieldFillPatch</text>
<text text-anchor="middle" x="157.5" y="-84.5" font-family="Helvetica,sans-Serif" font-size="10.00">OpsBase</text>
</a>
</g>
</g>
<!-- Node15&#45;&gt;Node14 -->
<g id="edge16_Node000014_Node000015" class="edge">
<title>Node15&#45;&gt;Node14</title>
<g id="a_edge16_Node000014_Node000015"><a xlink:title=" ">
<path fill="none" stroke="#9a32cd" stroke-dasharray="5,2" d="M240.48,-93.49C292.75,-94.11 360.12,-94.93 411.83,-95.55"/>
<polygon fill="#9a32cd" stroke="#9a32cd" points="240.28,-89.98 230.24,-93.36 240.2,-96.98 240.28,-89.98"/>
</a>
</g>
<text text-anchor="start" x="314" y="-101" font-family="Helvetica,sans-Serif" font-size="10.00" fill="grey">ptr</text>
</g>
<!-- Node16&#45;&gt;Node14 -->
<g id="edge17_Node000014_Node000016" class="edge">
<title>Node16&#45;&gt;Node14</title>
<g id="a_edge17_Node000014_Node000016"><a xlink:title=" ">
<path fill="none" stroke="orange" stroke-dasharray="5,2" d="M226.9,-45.49C274.3,-44.84 338.6,-46.81 394,-58.5 417.01,-63.35 441.66,-73.08 460.36,-81.47"/>
<polygon fill="orange" stroke="orange" points="226.68,-41.99 216.75,-45.67 226.81,-48.99 226.68,-41.99"/>
</a>
</g>
<text text-anchor="start" x="251" y="-79.5" font-family="Helvetica,sans-Serif" font-size="10.00" fill="grey">&lt; kynema_sgf::FieldFillPatch</text>
<text text-anchor="start" x="251" y="-64.5" font-family="Helvetica,sans-Serif" font-size="10.00" fill="grey">  OpsBase &gt;</text>
</g>
<!-- Node17&#45;&gt;Node12 -->
<g id="edge19_Node000012_Node000017" class="edge">
<title>Node17&#45;&gt;Node12</title>
<g id="a_edge19_Node000012_Node000017"><a xlink:title=" ">
<path fill="none" stroke="orange" stroke-dasharray="5,2" d="M390.38,-19.84C531.27,-41.13 852.55,-89.69 993.99,-111.07"/>
<polygon fill="orange" stroke="orange" points="390.56,-16.32 380.15,-18.29 389.51,-23.24 390.56,-16.32"/>
</a>
</g>
<text text-anchor="start" x="593" y="-76" font-family="Helvetica,sans-Serif" font-size="10.00" fill="grey">&lt; kynema_sgf::FieldInfo &gt;</text>
</g>
<!-- Node18 -->
<g id="Node000018" class="node">
<title>Node18</title>
<g id="a_Node000018"><a xlink:href="classkynema__sgf_1_1actuator_1_1ops_1_1_act_src_op.html" target="_top" xlink:title=" ">
<polygon fill="white" stroke="#666666" points="1449,-172 1308,-172 1308,-131 1449,-131 1449,-172"/>
<text text-anchor="start" x="1316" y="-160" font-family="Helvetica,sans-Serif" font-size="10.00">kynema_sgf::actuator</text>
<text text-anchor="start" x="1316" y="-149" font-family="Helvetica,sans-Serif" font-size="10.00">::ops::ActSrcOp&lt; ActTrait,</text>
<text text-anchor="middle" x="1378.5" y="-138" font-family="Helvetica,sans-Serif" font-size="10.00"> SrcTrait, typename &gt;</text>
</a>
</g>
</g>
<!-- Node18&#45;&gt;Node1 -->
<g id="edge21_Node000001_Node000018" class="edge">
<title>Node18&#45;&gt;Node1</title>
<g id="a_edge21_Node000001_Node000018"><a xlink:title=" ">
<path fill="none" stroke="orange" stroke-dasharray="5,2" d="M1459.37,-145.61C1504.11,-145.02 1560.16,-148.9 1607,-166.5 1629.09,-174.8 1650.26,-190.32 1666.66,-204.64"/>
<polygon fill="orange" stroke="orange" points="1459.05,-142.12 1449.13,-145.82 1459.2,-149.11 1459.05,-142.12"/>
</a>
</g>
<text text-anchor="start" x="1470" y="-217.5" font-family="Helvetica,sans-Serif" font-size="10.00" fill="grey">&lt; ActTrait, ActSrcDisk,</text>
<text text-anchor="start" x="1470" y="-202.5" font-family="Helvetica,sans-Serif" font-size="10.00" fill="grey">   std::enable_if_t&lt; std</text>
<text text-anchor="start" x="1470" y="-187.5" font-family="Helvetica,sans-Serif" font-size="10.00" fill="grey">  ::is_base_of_v&lt; DiskType,</text>
<text text-anchor="start" x="1470" y="-172.5" font-family="Helvetica,sans-Serif" font-size="10.00" fill="grey">   ActTrait &gt; &gt; &gt;</text>
</g>
</g>
</svg>
