<?xml version="1.0" encoding="UTF-8" standalone="no"?>
<!DOCTYPE svg PUBLIC "-//W3C//DTD SVG 1.1//EN"
 "http://www.w3.org/Graphics/SVG/1.1/DTD/svg11.dtd">
<!-- Generated by graphviz version 2.43.0 (0)
 -->
<!-- Title: kynema_sgf::ocean_waves::OceanWavesModel Pages: 1 -->
<svg width="207pt" height="240pt"
 viewBox="0.00 0.00 207.00 240.00" xmlns="http://www.w3.org/2000/svg" xmlns:xlink="http://www.w3.org/1999/xlink">
<g id="graph0" class="graph" transform="scale(1 1) rotate(0) translate(4 236)">
<title>kynema_sgf::ocean_waves::OceanWavesModel</title>
<!-- Node1 -->
<g id="Node000001" class="node">
<title>Node1</title>
<g id="a_Node000001"><a xlink:title=" ">
<polygon fill="#999999" stroke="#666666" points="156.5,-30 9.5,-30 9.5,0 156.5,0 156.5,-30"/>
<text text-anchor="start" x="17.5" y="-18" font-family="Helvetica,sans-Serif" font-size="10.00">kynema_sgf::ocean_waves</text>
<text text-anchor="middle" x="83" y="-7" font-family="Helvetica,sans-Serif" font-size="10.00">::OceanWavesModel</text>
</a>
</g>
</g>
<!-- Node2 -->
<g id="Node000002" class="node">
<title>Node2</title>
<g id="a_Node000002"><a xlink:href="structkynema__sgf_1_1_factory.html" target="_top" xlink:title=" ">
<polygon fill="white" stroke="#666666" points="166,-119 0,-119 0,-67 166,-67 166,-119"/>
<text text-anchor="start" x="8" y="-107" font-family="Helvetica,sans-Serif" font-size="10.00">kynema_sgf::Factory</text>
<text text-anchor="start" x="8" y="-96" font-family="Helvetica,sans-Serif" font-size="10.00">&lt; OceanWavesModel, CFDSim</text>
<text text-anchor="start" x="8" y="-85" font-family="Helvetica,sans-Serif" font-size="10.00"> &amp;, const std::string &amp;,</text>
<text text-anchor="middle" x="83" y="-74" font-family="Helvetica,sans-Serif" font-size="10.00"> const int &gt;</text>
</a>
</g>
</g>
<!-- Node2&#45;&gt;Node1 -->
<g id="edge1_Node000001_Node000002" class="edge">
<title>Node2&#45;&gt;Node1</title>
<g id="a_edge1_Node000001_Node000002"><a xlink:title=" ">
<path fill="none" stroke="#63b8ff" d="M83,-56.46C83,-47.22 83,-37.78 83,-30.35"/>
<polygon fill="#63b8ff" stroke="#63b8ff" points="79.5,-56.69 83,-66.69 86.5,-56.69 79.5,-56.69"/>
</a>
</g>
</g>
<!-- Node3 -->
<g id="Node000003" class="node">
<title>Node3</title>
<g id="a_Node000003"><a xlink:href="structkynema__sgf_1_1_factory.html" target="_top" xlink:title=" ">
<polygon fill="white" stroke="#666666" points="141,-232 25,-232 25,-202 141,-202 141,-232"/>
<text text-anchor="start" x="33" y="-220" font-family="Helvetica,sans-Serif" font-size="10.00">kynema_sgf::Factory</text>
<text text-anchor="middle" x="83" y="-209" font-family="Helvetica,sans-Serif" font-size="10.00">&lt; Base, Args &gt;</text>
</a>
</g>
</g>
<!-- Node3&#45;&gt;Node2 -->
<g id="edge2_Node000002_Node000003" class="edge">
<title>Node3&#45;&gt;Node2</title>
<g id="a_edge2_Node000002_Node000003"><a xlink:title=" ">
<path fill="none" stroke="orange" stroke-dasharray="5,2" d="M83,-191.45C83,-170.41 83,-140.22 83,-119.04"/>
<polygon fill="orange" stroke="orange" points="79.5,-191.53 83,-201.53 86.5,-191.53 79.5,-191.53"/>
</a>
</g>
<text text-anchor="start" x="86" y="-172.5" font-family="Helvetica,sans-Serif" font-size="10.00" fill="grey">&lt; OceanWavesModel,</text>
<text text-anchor="start" x="86" y="-157.5" font-family="Helvetica,sans-Serif" font-size="10.00" fill="grey">   CFDSim &amp;, const std</text>
<text text-anchor="start" x="86" y="-142.5" font-family="Helvetica,sans-Serif" font-size="10.00" fill="grey">  ::string &amp;, const int &gt;</text>
</g>
</g>
</svg>
