<?xml version="1.0" encoding="UTF-8" standalone="no"?>
<!DOCTYPE svg PUBLIC "-//W3C//DTD SVG 1.1//EN"
 "http://www.w3.org/Graphics/SVG/1.1/DTD/svg11.dtd">
<!-- Generated by graphviz version 2.43.0 (0)
 -->
<!-- Title: kynema_sgf::FieldBoundary Pages: 1 -->
<svg width="244pt" height="177pt"
 viewBox="0.00 0.00 244.00 177.00" xmlns="http://www.w3.org/2000/svg" xmlns:xlink="http://www.w3.org/1999/xlink">
<g id="graph0" class="graph" transform="scale(1 1) rotate(0) translate(4 173)">
<title>kynema_sgf::FieldBoundary</title>
<!-- Node1 -->
<g id="Node000001" class="node">
<title>Node1</title>
<g id="a_Node000001"><a xlink:title=" ">
<polygon fill="#999999" stroke="#666666" points="157.5,-19 6.5,-19 6.5,0 157.5,0 157.5,-19"/>
<text text-anchor="middle" x="82" y="-7" font-family="Helvetica,sans-Serif" font-size="10.00">kynema_sgf::FieldBoundary</text>
</a>
</g>
</g>
<!-- Node2 -->
<g id="Node000002" class="node">
<title>Node2</title>
<g id="a_Node000002"><a xlink:href="structkynema__sgf_1_1_factory.html" target="_top" xlink:title=" ">
<polygon fill="white" stroke="#666666" points="164,-86 0,-86 0,-56 164,-56 164,-86"/>
<text text-anchor="start" x="8" y="-74" font-family="Helvetica,sans-Serif" font-size="10.00">kynema_sgf::Factory</text>
<text text-anchor="middle" x="82" y="-63" font-family="Helvetica,sans-Serif" font-size="10.00">&lt; FieldBoundary, CFDSim &amp; &gt;</text>
</a>
</g>
</g>
<!-- Node2&#45;&gt;Node1 -->
<g id="edge1_Node000001_Node000002" class="edge">
<title>Node2&#45;&gt;Node1</title>
<g id="a_edge1_Node000001_Node000002"><a xlink:title=" ">
<path fill="none" stroke="#63b8ff" d="M82,-45.79C82,-36.36 82,-26.15 82,-19.16"/>
<polygon fill="#63b8ff" stroke="#63b8ff" points="78.5,-45.9 82,-55.9 85.5,-45.9 78.5,-45.9"/>
</a>
</g>
</g>
<!-- Node3 -->
<g id="Node000003" class="node">
<title>Node3</title>
<g id="a_Node000003"><a xlink:href="structkynema__sgf_1_1_factory.html" target="_top" xlink:title=" ">
<polygon fill="white" stroke="#666666" points="140,-169 24,-169 24,-139 140,-139 140,-169"/>
<text text-anchor="start" x="32" y="-157" font-family="Helvetica,sans-Serif" font-size="10.00">kynema_sgf::Factory</text>
<text text-anchor="middle" x="82" y="-146" font-family="Helvetica,sans-Serif" font-size="10.00">&lt; Base, Args &gt;</text>
</a>
</g>
</g>
<!-- Node3&#45;&gt;Node2 -->
<g id="edge2_Node000002_Node000003" class="edge">
<title>Node3&#45;&gt;Node2</title>
<g id="a_edge2_Node000002_Node000003"><a xlink:title=" ">
<path fill="none" stroke="orange" stroke-dasharray="5,2" d="M82,-128.59C82,-114.75 82,-97.91 82,-86.22"/>
<polygon fill="orange" stroke="orange" points="78.5,-128.89 82,-138.89 85.5,-128.89 78.5,-128.89"/>
</a>
</g>
<text text-anchor="start" x="85" y="-109.5" font-family="Helvetica,sans-Serif" font-size="10.00" fill="grey">&lt; FieldBoundary, CFDSim &amp; &gt;</text>
</g>
</g>
</svg>
