<?xml version="1.0" encoding="UTF-8" standalone="no"?>
<!DOCTYPE svg PUBLIC "-//W3C//DTD SVG 1.1//EN"
 "http://www.w3.org/Graphics/SVG/1.1/DTD/svg11.dtd">
<!-- Generated by graphviz version 2.43.0 (0)
 -->
<!-- Title: kynema_sgf::pde::DiffSolverIface&lt; LinOp &gt; Pages: 1 -->
<svg width="740pt" height="204pt"
 viewBox="0.00 0.00 740.00 204.00" xmlns="http://www.w3.org/2000/svg" xmlns:xlink="http://www.w3.org/1999/xlink">
<g id="graph0" class="graph" transform="scale(1 1) rotate(0) translate(4 200)">
<title>kynema_sgf::pde::DiffSolverIface&lt; LinOp &gt;</title>
<!-- Node1 -->
<g id="Node000001" class="node">
<title>Node1</title>
<g id="a_Node000001"><a xlink:title=" ">
<polygon fill="#999999" stroke="#666666" points="153,-102 0,-102 0,-72 153,-72 153,-102"/>
<text text-anchor="start" x="8" y="-90" font-family="Helvetica,sans-Serif" font-size="10.00">kynema_sgf::pde::DiffSolver</text>
<text text-anchor="middle" x="76.5" y="-79" font-family="Helvetica,sans-Serif" font-size="10.00">Iface&lt; LinOp &gt;</text>
</a>
</g>
</g>
<!-- Node2 -->
<g id="Node000002" class="node">
<title>Node2</title>
<g id="a_Node000002"><a xlink:href="classkynema__sgf_1_1pde_1_1_diff_solver_iface.html" target="_top" xlink:title=" ">
<polygon fill="white" stroke="#666666" points="470,-180 317,-180 317,-150 470,-150 470,-180"/>
<text text-anchor="start" x="325" y="-168" font-family="Helvetica,sans-Serif" font-size="10.00">kynema_sgf::pde::DiffSolver</text>
<text text-anchor="middle" x="393.5" y="-157" font-family="Helvetica,sans-Serif" font-size="10.00">Iface&lt; PDE::MLDiffOp &gt;</text>
</a>
</g>
</g>
<!-- Node1&#45;&gt;Node2 -->
<g id="edge1_Node000001_Node000002" class="edge">
<title>Node1&#45;&gt;Node2</title>
<g id="a_edge1_Node000001_Node000002"><a xlink:title=" ">
<path fill="none" stroke="orange" stroke-dasharray="5,2" d="M120.56,-106.06C136.21,-112.45 154.19,-119.17 171,-124 218.73,-137.72 273.62,-147.92 316.81,-154.71"/>
<polygon fill="orange" stroke="orange" points="121.72,-102.75 111.14,-102.15 119.03,-109.22 121.72,-102.75"/>
</a>
</g>
<text text-anchor="start" x="186.5" y="-155.5" font-family="Helvetica,sans-Serif" font-size="10.00" fill="grey">&lt; PDE::MLDiffOp &gt;</text>
</g>
<!-- Node4 -->
<g id="Node000004" class="node">
<title>Node4</title>
<g id="a_Node000004"><a xlink:href="classkynema__sgf_1_1pde_1_1_diff_solver_iface.html" target="_top" xlink:title=" ">
<polygon fill="white" stroke="#666666" points="470,-126 317,-126 317,-96 470,-96 470,-126"/>
<text text-anchor="start" x="325" y="-114" font-family="Helvetica,sans-Serif" font-size="10.00">kynema_sgf::pde::DiffSolver</text>
<text text-anchor="middle" x="393.5" y="-103" font-family="Helvetica,sans-Serif" font-size="10.00">Iface&lt; SDR::MLDiffOp &gt;</text>
</a>
</g>
</g>
<!-- Node1&#45;&gt;Node4 -->
<g id="edge3_Node000001_Node000004" class="edge">
<title>Node1&#45;&gt;Node4</title>
<g id="a_edge3_Node000001_Node000004"><a xlink:title=" ">
<path fill="none" stroke="orange" stroke-dasharray="5,2" d="M163.4,-93.55C211.36,-97.2 270.55,-101.71 316.76,-105.23"/>
<polygon fill="orange" stroke="orange" points="163.59,-90.05 153.35,-92.78 163.06,-97.03 163.59,-90.05"/>
</a>
</g>
<text text-anchor="start" x="186.5" y="-108.5" font-family="Helvetica,sans-Serif" font-size="10.00" fill="grey">&lt; SDR::MLDiffOp &gt;</text>
</g>
<!-- Node6 -->
<g id="Node000006" class="node">
<title>Node6</title>
<g id="a_Node000006"><a xlink:href="classkynema__sgf_1_1pde_1_1_diff_solver_iface.html" target="_top" xlink:title=" ">
<polygon fill="white" stroke="#666666" points="470,-78 317,-78 317,-48 470,-48 470,-78"/>
<text text-anchor="start" x="325" y="-66" font-family="Helvetica,sans-Serif" font-size="10.00">kynema_sgf::pde::DiffSolver</text>
<text text-anchor="middle" x="393.5" y="-55" font-family="Helvetica,sans-Serif" font-size="10.00">Iface&lt; TKE::MLDiffOp &gt;</text>
</a>
</g>
</g>
<!-- Node1&#45;&gt;Node6 -->
<g id="edge5_Node000001_Node000006" class="edge">
<title>Node1&#45;&gt;Node6</title>
<g id="a_edge5_Node000001_Node000006"><a xlink:title=" ">
<path fill="none" stroke="orange" stroke-dasharray="5,2" d="M163.29,-73.8C165.89,-73.51 168.46,-73.25 171,-73 219.37,-68.3 273.9,-65.8 316.76,-64.48"/>
<polygon fill="orange" stroke="orange" points="162.72,-70.34 153.2,-74.99 163.54,-77.3 162.72,-70.34"/>
</a>
</g>
<text text-anchor="start" x="187.5" y="-78.5" font-family="Helvetica,sans-Serif" font-size="10.00" fill="grey">&lt; TKE::MLDiffOp &gt;</text>
</g>
<!-- Node8 -->
<g id="Node000008" class="node">
<title>Node8</title>
<g id="a_Node000008"><a xlink:href="classkynema__sgf_1_1pde_1_1_diff_solver_iface.html" target="_top" xlink:title=" ">
<polygon fill="white" stroke="#666666" points="473,-30 314,-30 314,0 473,0 473,-30"/>
<text text-anchor="start" x="322" y="-18" font-family="Helvetica,sans-Serif" font-size="10.00">kynema_sgf::pde::DiffSolver</text>
<text text-anchor="middle" x="393.5" y="-7" font-family="Helvetica,sans-Serif" font-size="10.00">Iface&lt; amrex::MLTensorOp &gt;</text>
</a>
</g>
</g>
<!-- Node1&#45;&gt;Node8 -->
<g id="edge7_Node000001_Node000008" class="edge">
<title>Node1&#45;&gt;Node8</title>
<g id="a_edge7_Node000001_Node000008"><a xlink:title=" ">
<path fill="none" stroke="orange" stroke-dasharray="5,2" d="M113.49,-67.36C130.47,-58.91 151.3,-49.68 171,-44 217.4,-30.63 271.05,-23.4 313.93,-19.51"/>
<polygon fill="orange" stroke="orange" points="111.8,-64.29 104.48,-71.95 114.98,-70.53 111.8,-64.29"/>
</a>
</g>
<text text-anchor="start" x="174.5" y="-49.5" font-family="Helvetica,sans-Serif" font-size="10.00" fill="grey">&lt; amrex::MLTensorOp &gt;</text>
</g>
<!-- Node3 -->
<g id="Node000003" class="node">
<title>Node3</title>
<g id="a_Node000003"><a xlink:href="structkynema__sgf_1_1pde_1_1_diffusion_op_3_01_p_d_e_00_01_scheme_00_01std_1_1enable__if__t_3_01c6159c8226191ebbc810ca31588d36ec.html" target="_top" xlink:title=" ">
<polygon fill="white" stroke="#666666" points="732,-196 510,-196 510,-144 732,-144 732,-196"/>
<text text-anchor="start" x="518" y="-184" font-family="Helvetica,sans-Serif" font-size="10.00">kynema_sgf::pde::Diffusion</text>
<text text-anchor="start" x="518" y="-173" font-family="Helvetica,sans-Serif" font-size="10.00">Op&lt; PDE, Scheme, std::enable</text>
<text text-anchor="start" x="518" y="-162" font-family="Helvetica,sans-Serif" font-size="10.00">_if_t&lt; std::is_base_of_v&lt; ScalarTransport,</text>
<text text-anchor="middle" x="621" y="-151" font-family="Helvetica,sans-Serif" font-size="10.00"> PDE &gt; &gt; &gt;</text>
</a>
</g>
</g>
<!-- Node2&#45;&gt;Node3 -->
<g id="edge2_Node000002_Node000003" class="edge">
<title>Node2&#45;&gt;Node3</title>
<g id="a_edge2_Node000002_Node000003"><a xlink:title=" ">
<path fill="none" stroke="#63b8ff" d="M480.24,-166.9C489.97,-167.12 499.99,-167.34 509.98,-167.56"/>
<polygon fill="#63b8ff" stroke="#63b8ff" points="480.29,-163.4 470.22,-166.68 480.14,-170.4 480.29,-163.4"/>
</a>
</g>
</g>
<!-- Node5 -->
<g id="Node000005" class="node">
<title>Node5</title>
<g id="a_Node000005"><a xlink:href="structkynema__sgf_1_1pde_1_1_diffusion_op_3_01_s_d_r_00_01_scheme_01_4.html" target="_top" xlink:title=" ">
<polygon fill="white" stroke="#666666" points="695.5,-126 546.5,-126 546.5,-96 695.5,-96 695.5,-126"/>
<text text-anchor="start" x="554.5" y="-114" font-family="Helvetica,sans-Serif" font-size="10.00">kynema_sgf::pde::Diffusion</text>
<text text-anchor="middle" x="621" y="-103" font-family="Helvetica,sans-Serif" font-size="10.00">Op&lt; SDR, Scheme &gt;</text>
</a>
</g>
</g>
<!-- Node4&#45;&gt;Node5 -->
<g id="edge4_Node000004_Node000005" class="edge">
<title>Node4&#45;&gt;Node5</title>
<g id="a_edge4_Node000004_Node000005"><a xlink:title=" ">
<path fill="none" stroke="#63b8ff" d="M480.43,-111C502.17,-111 525.32,-111 546.4,-111"/>
<polygon fill="#63b8ff" stroke="#63b8ff" points="480.22,-107.5 470.22,-111 480.22,-114.5 480.22,-107.5"/>
</a>
</g>
</g>
<!-- Node7 -->
<g id="Node000007" class="node">
<title>Node7</title>
<g id="a_Node000007"><a xlink:href="structkynema__sgf_1_1pde_1_1_diffusion_op_3_01_t_k_e_00_01_scheme_01_4.html" target="_top" xlink:title=" ">
<polygon fill="white" stroke="#666666" points="695.5,-78 546.5,-78 546.5,-48 695.5,-48 695.5,-78"/>
<text text-anchor="start" x="554.5" y="-66" font-family="Helvetica,sans-Serif" font-size="10.00">kynema_sgf::pde::Diffusion</text>
<text text-anchor="middle" x="621" y="-55" font-family="Helvetica,sans-Serif" font-size="10.00">Op&lt; TKE, Scheme &gt;</text>
</a>
</g>
</g>
<!-- Node6&#45;&gt;Node7 -->
<g id="edge6_Node000006_Node000007" class="edge">
<title>Node6&#45;&gt;Node7</title>
<g id="a_edge6_Node000006_Node000007"><a xlink:title=" ">
<path fill="none" stroke="#63b8ff" d="M480.43,-63C502.17,-63 525.32,-63 546.4,-63"/>
<polygon fill="#63b8ff" stroke="#63b8ff" points="480.22,-59.5 470.22,-63 480.22,-66.5 480.22,-59.5"/>
</a>
</g>
</g>
<!-- Node9 -->
<g id="Node000009" class="node">
<title>Node9</title>
<g id="a_Node000009"><a xlink:href="classkynema__sgf_1_1pde_1_1_i_c_n_s_diff_tensor_op.html" target="_top" xlink:title=" ">
<polygon fill="white" stroke="#666666" points="694,-30 548,-30 548,0 694,0 694,-30"/>
<text text-anchor="start" x="556" y="-18" font-family="Helvetica,sans-Serif" font-size="10.00">kynema_sgf::pde::ICNSDiff</text>
<text text-anchor="middle" x="621" y="-7" font-family="Helvetica,sans-Serif" font-size="10.00">TensorOp</text>
</a>
</g>
</g>
<!-- Node8&#45;&gt;Node9 -->
<g id="edge8_Node000008_Node000009" class="edge">
<title>Node8&#45;&gt;Node9</title>
<g id="a_edge8_Node000008_Node000009"><a xlink:title=" ">
<path fill="none" stroke="#63b8ff" d="M483.13,-15C504.56,-15 527.2,-15 547.77,-15"/>
<polygon fill="#63b8ff" stroke="#63b8ff" points="483.05,-11.5 473.05,-15 483.05,-18.5 483.05,-11.5"/>
</a>
</g>
</g>
</g>
</svg>
