<?xml version="1.0" encoding="UTF-8" standalone="no"?>
<!DOCTYPE svg PUBLIC "-//W3C//DTD SVG 1.1//EN"
 "http://www.w3.org/Graphics/SVG/1.1/DTD/svg11.dtd">
<!-- Generated by graphviz version 2.43.0 (0)
 -->
<!-- Title: kynema_sgf::udf::ConstValue Pages: 1 -->
<!--zoomable 259 -->

<svg id="main" version="1.1" xmlns="http://www.w3.org/2000/svg" xmlns:xlink="http://www.w3.org/1999/xlink" xml:space="preserve" onload="init(evt)">

<style type="text/css"><![CDATA[
.node, .edge {opacity: 0.7;}
.node.selected, .edge.selected {opacity: 1;}
.edge:hover path { stroke: red; }
.edge:hover polygon { stroke: red; fill: red; }
]]></style>

<defs>
  <circle id="rim" cx="0" cy="0" r="7"/>
  <circle id="rim2" cx="0" cy="0" r="3.5"/>
  <g id="zoomPlus">
    <use xlink:href="#rim" fill="#404040"><set attributeName="fill" to="#808080" begin="zoomplus.mouseover" end="zoomplus.mouseout"/></use>
    <path d="M-4,0h8M0,-4v8" fill="none" stroke="white" stroke-width="1.5" pointer-events="none"/>
  </g>
  <g id="zoomMin">
    <use xlink:href="#rim" fill="#404040"><set attributeName="fill" to="#808080" begin="zoomminus.mouseover" end="zoomminus.mouseout"/></use>
    <path d="M-4,0h8" fill="none" stroke="white" stroke-width="1.5" pointer-events="none"/>
  </g>
  <g id="arrowUp" transform="translate(30 24)">
    <use xlink:href="#rim"/>
    <path pointer-events="none" fill="none" stroke="white" stroke-width="1.5" d="M0,-3.0v7 M-2.5,-0.5L0,-3.0L2.5,-0.5"/>
  </g>
  <g id="arrowRight" transform="rotate(90) translate(36 -43)">
    <use xlink:href="#rim"/>
    <path pointer-events="none" fill="none" stroke="white" stroke-width="1.5" d="M0,-3.0v7 M-2.5,-0.5L0,-3.0L2.5,-0.5"/>
  </g>
  <g id="arrowDown" transform="rotate(180) translate(-30 -48)">
    <use xlink:href="#rim"/>
    <path pointer-events="none" fill="none" stroke="white" stroke-width="1.5" d="M0,-3.0v7 M-2.5,-0.5L0,-3.0L2.5,-0.5"/>
  </g>
  <g id="arrowLeft" transform="rotate(270) translate(-36 17)">
    <use xlink:href="#rim"/>
    <path pointer-events="none" fill="none" stroke="white" stroke-width="1.5" d="M0,-3.0v7 M-2.5,-0.5L0,-3.0L2.5,-0.5"/>
  </g>
  <g id="resetDef">
    <use xlink:href="#rim2" fill="#404040"><set attributeName="fill" to="#808080" begin="reset.mouseover" end="reset.mouseout"/></use>
  </g>
</defs>
<script type="application/ecmascript">
var viewWidth = 1606;
var viewHeight = 259;
var sectionId = 'dynsection-1';
</script>
<script type="application/ecmascript" xlink:href="svg.min.js"/>
<svg id="graph" class="graph">
<g id="viewport">
<title>kynema_sgf::udf::ConstValue</title>
<!-- Node1 -->
<g id="Node000001" class="node">
<title>Node1</title>
<g id="a_Node000001"><a xlink:title=" ">
<polygon fill="#999999" stroke="#666666" points="1598,-214 1441,-214 1441,-195 1598,-195 1598,-214"/>
<text text-anchor="middle" x="1519.5" y="-202" font-family="Helvetica,sans-Serif" font-size="10.00">kynema_sgf::udf::ConstValue</text>
</a>
</g>
</g>
<!-- Node2 -->
<g id="Node000002" class="node">
<title>Node2</title>
<g id="a_Node000002"><a xlink:title=" ">
<polygon fill="white" stroke="#666666" points="1362,-232 1201,-232 1201,-213 1362,-213 1362,-232"/>
<text text-anchor="middle" x="1281.5" y="-220" font-family="Helvetica,sans-Serif" font-size="10.00">UDF::Register&lt; ConstValue &gt;</text>
</a>
</g>
</g>
<!-- Node2&#45;&gt;Node1 -->
<g id="edge1_Node000001_Node000002" class="edge">
<title>Node2&#45;&gt;Node1</title>
<g id="a_edge1_Node000001_Node000002"><a xlink:title=" ">
<path fill="none" stroke="#63b8ff" d="M1372.33,-215.65C1394.91,-213.93 1418.95,-212.09 1440.88,-210.42"/>
<polygon fill="#63b8ff" stroke="#63b8ff" points="1371.77,-212.18 1362.07,-216.43 1372.31,-219.16 1371.77,-212.18"/>
</a>
</g>
</g>
<!-- Node3 -->
<g id="Node000003" class="node">
<title>Node3</title>
<g id="a_Node000003"><a xlink:href="classkynema__sgf_1_1_field.html" target="_top" xlink:title=" ">
<polygon fill="white" stroke="#666666" points="1333.5,-195 1229.5,-195 1229.5,-176 1333.5,-176 1333.5,-195"/>
<text text-anchor="middle" x="1281.5" y="-183" font-family="Helvetica,sans-Serif" font-size="10.00">kynema_sgf::Field</text>
</a>
</g>
</g>
<!-- Node3&#45;&gt;Node1 -->
<g id="edge2_Node000001_Node000003" class="edge">
<title>Node3&#45;&gt;Node1</title>
<g id="a_edge2_Node000001_Node000003"><a xlink:title=" ">
<path fill="none" stroke="#9a32cd" stroke-dasharray="5,2" d="M1343.93,-186.22C1368.55,-186.89 1397.16,-188.15 1423,-190.5 1435.27,-191.61 1448.36,-193.24 1460.8,-195"/>
<polygon fill="#9a32cd" stroke="#9a32cd" points="1343.72,-182.72 1333.64,-185.97 1343.55,-189.71 1343.72,-182.72"/>
</a>
</g>
<text text-anchor="start" x="1383.5" y="-196" font-family="Helvetica,sans-Serif" font-size="10.00" fill="grey">m_field</text>
</g>
<!-- Node4 -->
<g id="Node000004" class="node">
<title>Node4</title>
<g id="a_Node000004"><a xlink:href="classkynema__sgf_1_1_field_repo.html" target="_top" xlink:title=" ">
<polygon fill="white" stroke="#666666" points="1116.5,-195 987.5,-195 987.5,-176 1116.5,-176 1116.5,-195"/>
<text text-anchor="middle" x="1052" y="-183" font-family="Helvetica,sans-Serif" font-size="10.00">kynema_sgf::FieldRepo</text>
</a>
</g>
</g>
<!-- Node4&#45;&gt;Node3 -->
<g id="edge3_Node000003_Node000004" class="edge">
<title>Node4&#45;&gt;Node3</title>
<g id="a_edge3_Node000003_Node000004"><a xlink:title=" ">
<path fill="none" stroke="#9a32cd" stroke-dasharray="5,2" d="M1126.89,-185.5C1160.42,-185.5 1199.23,-185.5 1229.46,-185.5"/>
<polygon fill="#9a32cd" stroke="#9a32cd" points="1126.67,-182 1116.67,-185.5 1126.67,-189 1126.67,-182"/>
</a>
</g>
<text text-anchor="start" x="1143.5" y="-191" font-family="Helvetica,sans-Serif" font-size="10.00" fill="grey">m_repo</text>
</g>
<!-- Node5 -->
<g id="Node000005" class="node">
<title>Node5</title>
<g id="a_Node000005"><a xlink:title=" ">
<polygon fill="white" stroke="#666666" points="866.5,-200.5 744.5,-200.5 744.5,-170.5 866.5,-170.5 866.5,-200.5"/>
<text text-anchor="start" x="752.5" y="-188.5" font-family="Helvetica,sans-Serif" font-size="10.00">std::unordered_map</text>
<text text-anchor="middle" x="805.5" y="-177.5" font-family="Helvetica,sans-Serif" font-size="10.00">&lt; std::string, size_t &gt;</text>
</a>
</g>
</g>
<!-- Node5&#45;&gt;Node4 -->
<g id="edge4_Node000004_Node000005" class="edge">
<title>Node5&#45;&gt;Node4</title>
<g id="a_edge4_Node000004_Node000005"><a xlink:title=" ">
<path fill="none" stroke="#9a32cd" stroke-dasharray="5,2" d="M876.73,-185.5C911.57,-185.5 953.34,-185.5 987.26,-185.5"/>
<polygon fill="#9a32cd" stroke="#9a32cd" points="876.62,-182 866.62,-185.5 876.62,-189 876.62,-182"/>
</a>
</g>
<text text-anchor="start" x="888.5" y="-206.5" font-family="Helvetica,sans-Serif" font-size="10.00" fill="grey">m_fid_map</text>
<text text-anchor="start" x="888.5" y="-191.5" font-family="Helvetica,sans-Serif" font-size="10.00" fill="grey">m_int_fid_map</text>
</g>
<!-- Node6 -->
<g id="Node000006" class="node">
<title>Node6</title>
<g id="a_Node000006"><a xlink:title=" ">
<polygon fill="white" stroke="#666666" points="524.5,-238 459.5,-238 459.5,-219 524.5,-219 524.5,-238"/>
<text text-anchor="middle" x="492" y="-226" font-family="Helvetica,sans-Serif" font-size="10.00">std::string</text>
</a>
</g>
</g>
<!-- Node6&#45;&gt;Node3 -->
<g id="edge10_Node000003_Node000006" class="edge">
<title>Node6&#45;&gt;Node3</title>
<g id="a_edge10_Node000003_Node000006"><a xlink:title=" ">
<path fill="none" stroke="#9a32cd" stroke-dasharray="5,2" d="M535.03,-233.78C552.06,-235.68 571.94,-237.57 590,-238.5 650.36,-241.6 665.59,-240.61 726,-238.5 929.48,-231.38 981.41,-235.12 1183,-206.5 1202.71,-203.7 1224.39,-199.18 1242.29,-195.05"/>
<polygon fill="#9a32cd" stroke="#9a32cd" points="535.16,-230.28 524.83,-232.61 534.36,-237.23 535.16,-230.28"/>
</a>
</g>
<text text-anchor="start" x="903.5" y="-239" font-family="Helvetica,sans-Serif" font-size="10.00" fill="grey">m_name</text>
</g>
<!-- Node6&#45;&gt;Node5 -->
<g id="edge5_Node000005_Node000006" class="edge">
<title>Node6&#45;&gt;Node5</title>
<g id="a_edge5_Node000005_Node000006"><a xlink:title=" ">
<path fill="none" stroke="#9a32cd" stroke-dasharray="5,2" d="M534.8,-224.36C581.53,-219.52 659.38,-210.86 726,-200.5 731.9,-199.58 738.03,-198.55 744.14,-197.47"/>
<polygon fill="#9a32cd" stroke="#9a32cd" points="534.34,-220.89 524.75,-225.39 535.06,-227.85 534.34,-220.89"/>
</a>
</g>
<text text-anchor="start" x="647" y="-223" font-family="Helvetica,sans-Serif" font-size="10.00" fill="grey">keys</text>
</g>
<!-- Node12 -->
<g id="Node000012" class="node">
<title>Node12</title>
<g id="a_Node000012"><a xlink:href="structkynema__sgf_1_1_field_info.html" target="_top" xlink:title=" ">
<polygon fill="white" stroke="#666666" points="867,-117 744,-117 744,-98 867,-98 867,-117"/>
<text text-anchor="middle" x="805.5" y="-105" font-family="Helvetica,sans-Serif" font-size="10.00">kynema_sgf::FieldInfo</text>
</a>
</g>
</g>
<!-- Node6&#45;&gt;Node12 -->
<g id="edge13_Node000012_Node000006" class="edge">
<title>Node6&#45;&gt;Node12</title>
<g id="a_edge13_Node000012_Node000006"><a xlink:title=" ">
<path fill="none" stroke="#9a32cd" stroke-dasharray="5,2" d="M516.74,-213.71C535.82,-202.53 563.69,-187.73 590,-179.5 648.25,-161.27 669.02,-182.36 726,-160.5 752.71,-150.25 779.38,-129.45 793.72,-117.18"/>
<polygon fill="#9a32cd" stroke="#9a32cd" points="514.91,-210.73 508.12,-218.87 518.5,-216.74 514.91,-210.73"/>
</a>
</g>
<text text-anchor="start" x="625" y="-185" font-family="Helvetica,sans-Serif" font-size="10.00" fill="grey">m_basename</text>
</g>
<!-- Node7 -->
<g id="Node000007" class="node">
<title>Node7</title>
<g id="a_Node000007"><a xlink:title=" ">
<polygon fill="white" stroke="#666666" points="209.5,-246.5 105.5,-246.5 105.5,-216.5 209.5,-216.5 209.5,-246.5"/>
<text text-anchor="start" x="113.5" y="-234.5" font-family="Helvetica,sans-Serif" font-size="10.00">std::basic_string&lt;</text>
<text text-anchor="middle" x="157.5" y="-223.5" font-family="Helvetica,sans-Serif" font-size="10.00"> Char &gt;</text>
</a>
</g>
</g>
<!-- Node7&#45;&gt;Node6 -->
<g id="edge6_Node000006_Node000007" class="edge">
<title>Node7&#45;&gt;Node6</title>
<g id="a_edge6_Node000006_Node000007"><a xlink:title=" ">
<path fill="none" stroke="#63b8ff" d="M219.85,-230.95C290.64,-230.31 404.34,-229.28 459.27,-228.79"/>
<polygon fill="#63b8ff" stroke="#63b8ff" points="219.69,-227.45 209.72,-231.04 219.76,-234.45 219.69,-227.45"/>
</a>
</g>
</g>
<!-- Node8 -->
<g id="Node000008" class="node">
<title>Node8</title>
<g id="a_Node000008"><a xlink:title=" ">
<polygon fill="white" stroke="#666666" points="549,-159.5 435,-159.5 435,-129.5 549,-129.5 549,-159.5"/>
<text text-anchor="start" x="443" y="-147.5" font-family="Helvetica,sans-Serif" font-size="10.00">std::unordered_map</text>
<text text-anchor="middle" x="492" y="-136.5" font-family="Helvetica,sans-Serif" font-size="10.00">&lt; K, T &gt;</text>
</a>
</g>
</g>
<!-- Node8&#45;&gt;Node5 -->
<g id="edge7_Node000005_Node000008" class="edge">
<title>Node8&#45;&gt;Node5</title>
<g id="a_edge7_Node000005_Node000008"><a xlink:title=" ">
<path fill="none" stroke="orange" stroke-dasharray="5,2" d="M559.11,-135.61C606.34,-131.32 670.98,-129.71 726,-143.5 746.84,-148.72 768.19,-160.66 783.36,-170.47"/>
<polygon fill="orange" stroke="orange" points="558.63,-132.14 549.01,-136.59 559.3,-139.1 558.63,-132.14"/>
</a>
</g>
<text text-anchor="start" x="605" y="-149" font-family="Helvetica,sans-Serif" font-size="10.00" fill="grey">&lt; std::string, size_t &gt;</text>
</g>
<!-- Node9 -->
<g id="Node000009" class="node">
<title>Node9</title>
<g id="a_Node000009"><a xlink:title=" ">
<polygon fill="white" stroke="#666666" points="172,-198 143,-198 143,-179 172,-179 172,-198"/>
<text text-anchor="middle" x="157.5" y="-186" font-family="Helvetica,sans-Serif" font-size="10.00">K</text>
</a>
</g>
</g>
<!-- Node9&#45;&gt;Node8 -->
<g id="edge8_Node000008_Node000009" class="edge">
<title>Node9&#45;&gt;Node8</title>
<g id="a_edge8_Node000008_Node000009"><a xlink:title=" ">
<path fill="none" stroke="#9a32cd" stroke-dasharray="5,2" d="M182.19,-185.4C224.65,-179.84 316.51,-167.79 394,-157.5 407.22,-155.74 421.46,-153.84 434.84,-152.05"/>
<polygon fill="#9a32cd" stroke="#9a32cd" points="181.5,-181.96 172.04,-186.73 182.41,-188.9 181.5,-181.96"/>
</a>
</g>
<text text-anchor="start" x="310" y="-183" font-family="Helvetica,sans-Serif" font-size="10.00" fill="grey">keys</text>
</g>
<!-- Node10 -->
<g id="Node000010" class="node">
<title>Node10</title>
<g id="a_Node000010"><a xlink:title=" ">
<polygon fill="white" stroke="#666666" points="29,-59 0,-59 0,-40 29,-40 29,-59"/>
<text text-anchor="middle" x="14.5" y="-47" font-family="Helvetica,sans-Serif" font-size="10.00">T</text>
</a>
</g>
</g>
<!-- Node10&#45;&gt;Node8 -->
<g id="edge9_Node000008_Node000010" class="edge">
<title>Node10&#45;&gt;Node8</title>
<g id="a_edge9_Node000008_Node000010"><a xlink:title=" ">
<path fill="none" stroke="#9a32cd" stroke-dasharray="5,2" d="M28.27,-67.56C40.72,-83.55 61.22,-105.94 85,-116.5 146.02,-143.6 338.23,-145.95 434.67,-145.32"/>
<polygon fill="#9a32cd" stroke="#9a32cd" points="31,-65.36 22.21,-59.45 25.39,-69.55 31,-65.36"/>
</a>
</g>
<text text-anchor="start" x="134.5" y="-146" font-family="Helvetica,sans-Serif" font-size="10.00" fill="grey">elements</text>
</g>
<!-- Node15 -->
<g id="Node000015" class="node">
<title>Node15</title>
<g id="a_Node000015"><a xlink:title=" ">
<polygon fill="white" stroke="#666666" points="216.5,-58 98.5,-58 98.5,-39 216.5,-39 216.5,-58"/>
<text text-anchor="middle" x="157.5" y="-46" font-family="Helvetica,sans-Serif" font-size="10.00">std::unique_ptr&lt; T &gt;</text>
</a>
</g>
</g>
<!-- Node10&#45;&gt;Node15 -->
<g id="edge17_Node000015_Node000010" class="edge">
<title>Node10&#45;&gt;Node15</title>
<g id="a_edge17_Node000015_Node000010"><a xlink:title=" ">
<path fill="none" stroke="#9a32cd" stroke-dasharray="5,2" d="M39.2,-49.33C55.44,-49.22 77.72,-49.06 98.5,-48.91"/>
<polygon fill="#9a32cd" stroke="#9a32cd" points="38.99,-45.83 29.02,-49.4 39.04,-52.83 38.99,-45.83"/>
</a>
</g>
<text text-anchor="start" x="50" y="-55" font-family="Helvetica,sans-Serif" font-size="10.00" fill="grey">ptr</text>
</g>
<!-- Node16 -->
<g id="Node000016" class="node">
<title>Node16</title>
<g id="a_Node000016"><a xlink:title=" ">
<polygon fill="white" stroke="#666666" points="380,-19 262,-19 262,0 380,0 380,-19"/>
<text text-anchor="middle" x="321" y="-7" font-family="Helvetica,sans-Serif" font-size="10.00">std::shared_ptr&lt; T &gt;</text>
</a>
</g>
</g>
<!-- Node10&#45;&gt;Node16 -->
<g id="edge19_Node000016_Node000010" class="edge">
<title>Node10&#45;&gt;Node16</title>
<g id="a_edge19_Node000016_Node000010"><a xlink:title=" ">
<path fill="none" stroke="#9a32cd" stroke-dasharray="5,2" d="M35.27,-34.13C38.99,-31.88 42.99,-29.87 47,-28.5 118.05,-4.26 205.39,-2.71 261.84,-5.07"/>
<polygon fill="#9a32cd" stroke="#9a32cd" points="33,-31.44 26.69,-39.95 36.93,-37.23 33,-31.44"/>
</a>
</g>
<text text-anchor="start" x="50" y="-34" font-family="Helvetica,sans-Serif" font-size="10.00" fill="grey">ptr</text>
</g>
<!-- Node11 -->
<g id="Node000011" class="node">
<title>Node11</title>
<g id="a_Node000011"><a xlink:title=" ">
<polygon fill="white" stroke="#666666" points="1122,-122.5 982,-122.5 982,-92.5 1122,-92.5 1122,-122.5"/>
<text text-anchor="start" x="990" y="-110.5" font-family="Helvetica,sans-Serif" font-size="10.00">std::shared_ptr&lt; kynema</text>
<text text-anchor="middle" x="1052" y="-99.5" font-family="Helvetica,sans-Serif" font-size="10.00">_sgf::FieldInfo &gt;</text>
</a>
</g>
</g>
<!-- Node11&#45;&gt;Node3 -->
<g id="edge11_Node000003_Node000011" class="edge">
<title>Node11&#45;&gt;Node3</title>
<g id="a_edge11_Node000003_Node000011"><a xlink:title=" ">
<path fill="none" stroke="#9a32cd" stroke-dasharray="5,2" d="M1106.33,-125.79C1152.1,-141.48 1216.24,-163.47 1252.55,-175.92"/>
<polygon fill="#9a32cd" stroke="#9a32cd" points="1107.46,-122.47 1096.86,-122.54 1105.19,-129.09 1107.46,-122.47"/>
</a>
</g>
<text text-anchor="start" x="1144.5" y="-157" font-family="Helvetica,sans-Serif" font-size="10.00" fill="grey">m_info</text>
</g>
<!-- Node12&#45;&gt;Node11 -->
<g id="edge12_Node000011_Node000012" class="edge">
<title>Node12&#45;&gt;Node11</title>
<g id="a_edge12_Node000011_Node000012"><a xlink:title=" ">
<path fill="none" stroke="#9a32cd" stroke-dasharray="5,2" d="M877.26,-107.5C910.18,-107.5 949.21,-107.5 981.92,-107.5"/>
<polygon fill="#9a32cd" stroke="#9a32cd" points="877.25,-104 867.25,-107.5 877.25,-111 877.25,-104"/>
</a>
</g>
<text text-anchor="start" x="917.5" y="-113" font-family="Helvetica,sans-Serif" font-size="10.00" fill="grey">ptr</text>
</g>
<!-- Node13 -->
<g id="Node000013" class="node">
<title>Node13</title>
<g id="a_Node000013"><a xlink:title=" ">
<polygon fill="white" stroke="#666666" points="572,-111.5 412,-111.5 412,-81.5 572,-81.5 572,-111.5"/>
<text text-anchor="start" x="420" y="-99.5" font-family="Helvetica,sans-Serif" font-size="10.00">std::unique_ptr&lt; kynema</text>
<text text-anchor="middle" x="492" y="-88.5" font-family="Helvetica,sans-Serif" font-size="10.00">_sgf::FieldFillPatchOpsBase &gt;</text>
</a>
</g>
</g>
<!-- Node13&#45;&gt;Node12 -->
<g id="edge14_Node000012_Node000013" class="edge">
<title>Node13&#45;&gt;Node12</title>
<g id="a_edge14_Node000012_Node000013"><a xlink:title=" ">
<path fill="none" stroke="#9a32cd" stroke-dasharray="5,2" d="M582.26,-98.75C625.65,-99.95 678.55,-101.58 726,-103.5 731.73,-103.73 737.69,-104 743.65,-104.27"/>
<polygon fill="#9a32cd" stroke="#9a32cd" points="582.1,-95.24 572.01,-98.46 581.91,-102.24 582.1,-95.24"/>
</a>
</g>
<text text-anchor="start" x="622" y="-109" font-family="Helvetica,sans-Serif" font-size="10.00" fill="grey">m_fillpatch_op</text>
</g>
<!-- Node14 -->
<g id="Node000014" class="node">
<title>Node14</title>
<g id="a_Node000014"><a xlink:href="classkynema__sgf_1_1_field_fill_patch_ops_base.html" target="_top" xlink:title=" ">
<polygon fill="white" stroke="#666666" points="230,-107.5 85,-107.5 85,-77.5 230,-77.5 230,-107.5"/>
<text text-anchor="start" x="93" y="-95.5" font-family="Helvetica,sans-Serif" font-size="10.00">kynema_sgf::FieldFillPatch</text>
<text text-anchor="middle" x="157.5" y="-84.5" font-family="Helvetica,sans-Serif" font-size="10.00">OpsBase</text>
</a>
</g>
</g>
<!-- Node14&#45;&gt;Node13 -->
<g id="edge15_Node000013_Node000014" class="edge">
<title>Node14&#45;&gt;Node13</title>
<g id="a_edge15_Node000013_Node000014"><a xlink:title=" ">
<path fill="none" stroke="#9a32cd" stroke-dasharray="5,2" d="M240.48,-93.49C292.75,-94.11 360.12,-94.93 411.83,-95.55"/>
<polygon fill="#9a32cd" stroke="#9a32cd" points="240.28,-89.98 230.24,-93.36 240.2,-96.98 240.28,-89.98"/>
</a>
</g>
<text text-anchor="start" x="314" y="-101" font-family="Helvetica,sans-Serif" font-size="10.00" fill="grey">ptr</text>
</g>
<!-- Node15&#45;&gt;Node13 -->
<g id="edge16_Node000013_Node000015" class="edge">
<title>Node15&#45;&gt;Node13</title>
<g id="a_edge16_Node000013_Node000015"><a xlink:title=" ">
<path fill="none" stroke="orange" stroke-dasharray="5,2" d="M226.9,-45.49C274.3,-44.84 338.6,-46.81 394,-58.5 417.01,-63.35 441.66,-73.08 460.36,-81.47"/>
<polygon fill="orange" stroke="orange" points="226.68,-41.99 216.75,-45.67 226.81,-48.99 226.68,-41.99"/>
</a>
</g>
<text text-anchor="start" x="251" y="-79.5" font-family="Helvetica,sans-Serif" font-size="10.00" fill="grey">&lt; kynema_sgf::FieldFillPatch</text>
<text text-anchor="start" x="251" y="-64.5" font-family="Helvetica,sans-Serif" font-size="10.00" fill="grey">  OpsBase &gt;</text>
</g>
<!-- Node16&#45;&gt;Node11 -->
<g id="edge18_Node000011_Node000016" class="edge">
<title>Node16&#45;&gt;Node11</title>
<g id="a_edge18_Node000011_Node000016"><a xlink:title=" ">
<path fill="none" stroke="orange" stroke-dasharray="5,2" d="M390.2,-18.67C528.91,-37.32 842.56,-79.48 981.97,-98.22"/>
<polygon fill="orange" stroke="orange" points="390.5,-15.18 380.12,-17.31 389.56,-22.11 390.5,-15.18"/>
</a>
</g>
<text text-anchor="start" x="593" y="-69" font-family="Helvetica,sans-Serif" font-size="10.00" fill="grey">&lt; kynema_sgf::FieldInfo &gt;</text>
</g>
</g>
</svg>

<g id="navigator" transform="translate(0 0)" fill="#404254">
  <rect fill="#f2f5e9" fill-opacity="0.5" stroke="#606060" stroke-width=".5" x="0" y="0" width="60" height="60"/>
  <use id="zoomplus" xlink:href="#zoomPlus" x="17" y="9" onmousedown="handleZoom(evt,'in')"/>
  <use id="zoomminus" xlink:href="#zoomMin" x="42" y="9" onmousedown="handleZoom(evt,'out')"/>
  <use id="reset" xlink:href="#resetDef" x="30" y="36" onmousedown="handleReset()"/>
   <use id="arrowup" xlink:href="#arrowUp" x="0" y="0" onmousedown="handlePan(0,-1)"/>
  <use id="arrowright" xlink:href="#arrowRight" x="0" y="0" onmousedown="handlePan(1,0)"/>
  <use id="arrowdown" xlink:href="#arrowDown" x="0" y="0" onmousedown="handlePan(0,1)"/>
  <use id="arrowleft" xlink:href="#arrowLeft" x="0" y="0" onmousedown="handlePan(-1,0)"/>
</g>
<svg viewBox="0 0 15 15" width="100%" height="30px" preserveAspectRatio="xMaxYMin meet">
 <g id="arrow_out" transform="scale(0.3 0.3)">
  <a xlink:href="classkynema__sgf_1_1udf_1_1_const_value__coll__graph_org.svg" target="_base">
   <rect id="button" ry="5" rx="5" y="6" x="6" height="38" width="38"
        fill="#f2f5e9" fill-opacity="0.5" stroke="#606060" stroke-width="1.0"/>
   <path id="arrow"
     d="M 11.500037,31.436501 C 11.940474,20.09759 22.043105,11.32322 32.158766,21.979434 L 37.068811,17.246167 C 37.068811,17.246167 37.088388,32 37.088388,32 L 22.160133,31.978069 C 22.160133,31.978069 26.997745,27.140456 26.997745,27.140456 C 18.528582,18.264221 13.291696,25.230495 11.500037,31.436501 z"
     style="fill:#404040;"/>
  </a>
 </g>
</svg>

<style type='text/css'>
<![CDATA[
[data-mouse-over-selected='false'] { opacity: 0.7; }
[data-mouse-over-selected='true']  { opacity: 1.0; }
]]>
</style>
<script type="application/ecmascript"><![CDATA[
document.addEventListener('DOMContentLoaded', (event) => {
  highlightEdges();
  highlightAdjacentNodes();
});
]]></script>
</svg>
