<?xml version="1.0" encoding="UTF-8" standalone="no"?>
<!DOCTYPE svg PUBLIC "-//W3C//DTD SVG 1.1//EN"
 "http://www.w3.org/Graphics/SVG/1.1/DTD/svg11.dtd">
<!-- Generated by graphviz version 2.43.0 (0)
 -->
<!-- Title: kynema_sgf::SyntheticTurbulence Pages: 1 -->
<!--zoomable 433 -->

<svg id="main" version="1.1" xmlns="http://www.w3.org/2000/svg" xmlns:xlink="http://www.w3.org/1999/xlink" xml:space="preserve" onload="init(evt)">

<style type="text/css"><![CDATA[
.node, .edge {opacity: 0.7;}
.node.selected, .edge.selected {opacity: 1;}
.edge:hover path { stroke: red; }
.edge:hover polygon { stroke: red; fill: red; }
]]></style>

<defs>
  <circle id="rim" cx="0" cy="0" r="7"/>
  <circle id="rim2" cx="0" cy="0" r="3.5"/>
  <g id="zoomPlus">
    <use xlink:href="#rim" fill="#404040"><set attributeName="fill" to="#808080" begin="zoomplus.mouseover" end="zoomplus.mouseout"/></use>
    <path d="M-4,0h8M0,-4v8" fill="none" stroke="white" stroke-width="1.5" pointer-events="none"/>
  </g>
  <g id="zoomMin">
    <use xlink:href="#rim" fill="#404040"><set attributeName="fill" to="#808080" begin="zoomminus.mouseover" end="zoomminus.mouseout"/></use>
    <path d="M-4,0h8" fill="none" stroke="white" stroke-width="1.5" pointer-events="none"/>
  </g>
  <g id="arrowUp" transform="translate(30 24)">
    <use xlink:href="#rim"/>
    <path pointer-events="none" fill="none" stroke="white" stroke-width="1.5" d="M0,-3.0v7 M-2.5,-0.5L0,-3.0L2.5,-0.5"/>
  </g>
  <g id="arrowRight" transform="rotate(90) translate(36 -43)">
    <use xlink:href="#rim"/>
    <path pointer-events="none" fill="none" stroke="white" stroke-width="1.5" d="M0,-3.0v7 M-2.5,-0.5L0,-3.0L2.5,-0.5"/>
  </g>
  <g id="arrowDown" transform="rotate(180) translate(-30 -48)">
    <use xlink:href="#rim"/>
    <path pointer-events="none" fill="none" stroke="white" stroke-width="1.5" d="M0,-3.0v7 M-2.5,-0.5L0,-3.0L2.5,-0.5"/>
  </g>
  <g id="arrowLeft" transform="rotate(270) translate(-36 17)">
    <use xlink:href="#rim"/>
    <path pointer-events="none" fill="none" stroke="white" stroke-width="1.5" d="M0,-3.0v7 M-2.5,-0.5L0,-3.0L2.5,-0.5"/>
  </g>
  <g id="resetDef">
    <use xlink:href="#rim2" fill="#404040"><set attributeName="fill" to="#808080" begin="reset.mouseover" end="reset.mouseout"/></use>
  </g>
</defs>
<script type="application/ecmascript">
var viewWidth = 1891;
var viewHeight = 433;
var sectionId = 'dynsection-1';
</script>
<script type="application/ecmascript" xlink:href="svg.min.js"/>
<svg id="graph" class="graph">
<g id="viewport">
<title>kynema_sgf::SyntheticTurbulence</title>
<!-- Node1 -->
<g id="Node000001" class="node">
<title>Node1</title>
<g id="a_Node000001"><a xlink:title=" ">
<polygon fill="#999999" stroke="#666666" points="1883,-273.5 1704,-273.5 1704,-254.5 1883,-254.5 1883,-273.5"/>
<text text-anchor="middle" x="1793.5" y="-261.5" font-family="Helvetica,sans-Serif" font-size="10.00">kynema_sgf::SyntheticTurbulence</text>
</a>
</g>
</g>
<!-- Node2 -->
<g id="Node000002" class="node">
<title>Node2</title>
<g id="a_Node000002"><a xlink:title=" ">
<polygon fill="white" stroke="#666666" points="1581,-424.5 1461,-424.5 1461,-383.5 1581,-383.5 1581,-424.5"/>
<text text-anchor="start" x="1469" y="-412.5" font-family="Helvetica,sans-Serif" font-size="10.00">kynema_sgf::Factory</text>
<text text-anchor="start" x="1469" y="-401.5" font-family="Helvetica,sans-Serif" font-size="10.00">&lt; Physics, CFDSim &amp;</text>
<text text-anchor="middle" x="1521" y="-390.5" font-family="Helvetica,sans-Serif" font-size="10.00"> &gt;::Register</text>
</a>
</g>
</g>
<!-- Node2&#45;&gt;Node1 -->
<g id="edge1_Node000001_Node000002" class="edge">
<title>Node2&#45;&gt;Node1</title>
<g id="a_edge1_Node000001_Node000002"><a xlink:title=" ">
<path fill="none" stroke="#63b8ff" d="M1591.44,-398.02C1621.85,-393.22 1657.1,-384.57 1686,-369 1731.49,-344.49 1770.61,-294.64 1785.78,-273.65"/>
<polygon fill="#63b8ff" stroke="#63b8ff" points="1590.71,-394.58 1581.33,-399.5 1591.73,-401.51 1590.71,-394.58"/>
</a>
</g>
</g>
<!-- Node3 -->
<g id="Node000003" class="node">
<title>Node3</title>
<g id="a_Node000003"><a xlink:href="classkynema__sgf_1_1_sim_time.html" target="_top" xlink:title=" ">
<polygon fill="white" stroke="#666666" points="1197,-373.5 1072,-373.5 1072,-354.5 1197,-354.5 1197,-373.5"/>
<text text-anchor="middle" x="1134.5" y="-361.5" font-family="Helvetica,sans-Serif" font-size="10.00">kynema_sgf::SimTime</text>
</a>
</g>
</g>
<!-- Node3&#45;&gt;Node1 -->
<g id="edge2_Node000001_Node000003" class="edge">
<title>Node3&#45;&gt;Node1</title>
<g id="a_edge2_Node000001_Node000003"><a xlink:title=" ">
<path fill="none" stroke="#9a32cd" stroke-dasharray="5,2" d="M1207.49,-361.85C1298.82,-358.11 1460.82,-348.13 1597,-322 1658.89,-310.12 1729.23,-286.72 1766.35,-273.56"/>
<polygon fill="#9a32cd" stroke="#9a32cd" points="1207.11,-358.36 1197.25,-362.25 1207.38,-365.35 1207.11,-358.36"/>
</a>
</g>
<text text-anchor="start" x="1381" y="-356.5" font-family="Helvetica,sans-Serif" font-size="10.00" fill="grey">m_time</text>
</g>
<!-- Node4 -->
<g id="Node000004" class="node">
<title>Node4</title>
<g id="a_Node000004"><a xlink:title=" ">
<polygon fill="white" stroke="#666666" points="688.5,-376.5 576.5,-376.5 576.5,-357.5 688.5,-357.5 688.5,-376.5"/>
<text text-anchor="middle" x="632.5" y="-364.5" font-family="Helvetica,sans-Serif" font-size="10.00">std::vector&lt; bool &gt;</text>
</a>
</g>
</g>
<!-- Node4&#45;&gt;Node3 -->
<g id="edge3_Node000003_Node000004" class="edge">
<title>Node4&#45;&gt;Node3</title>
<g id="a_edge3_Node000003_Node000004"><a xlink:title=" ">
<path fill="none" stroke="#9a32cd" stroke-dasharray="5,2" d="M699.2,-366.61C796.41,-366.02 977.24,-364.94 1071.98,-364.37"/>
<polygon fill="#9a32cd" stroke="#9a32cd" points="698.9,-363.11 688.92,-366.67 698.94,-370.11 698.9,-363.11"/>
</a>
</g>
<text text-anchor="start" x="738.5" y="-371.5" font-family="Helvetica,sans-Serif" font-size="10.00" fill="grey">m_postprocess_enforce_dt</text>
</g>
<!-- Node5 -->
<g id="Node000005" class="node">
<title>Node5</title>
<g id="a_Node000005"><a xlink:title=" ">
<polygon fill="white" stroke="#666666" points="342,-376.5 245,-376.5 245,-357.5 342,-357.5 342,-376.5"/>
<text text-anchor="middle" x="293.5" y="-364.5" font-family="Helvetica,sans-Serif" font-size="10.00">std::vector&lt; T &gt;</text>
</a>
</g>
</g>
<!-- Node5&#45;&gt;Node4 -->
<g id="edge4_Node000004_Node000005" class="edge">
<title>Node5&#45;&gt;Node4</title>
<g id="a_edge4_Node000004_Node000005"><a xlink:title=" ">
<path fill="none" stroke="orange" stroke-dasharray="5,2" d="M352.2,-367C414.97,-367 514.59,-367 576.34,-367"/>
<polygon fill="orange" stroke="orange" points="352.07,-363.5 342.07,-367 352.07,-370.5 352.07,-363.5"/>
</a>
</g>
<text text-anchor="start" x="435" y="-372.5" font-family="Helvetica,sans-Serif" font-size="10.00" fill="grey">&lt; bool &gt;</text>
</g>
<!-- Node6 -->
<g id="Node000006" class="node">
<title>Node6</title>
<g id="a_Node000006"><a xlink:title=" ">
<polygon fill="white" stroke="#666666" points="81,-241.5 52,-241.5 52,-222.5 81,-222.5 81,-241.5"/>
<text text-anchor="middle" x="66.5" y="-229.5" font-family="Helvetica,sans-Serif" font-size="10.00">T</text>
</a>
</g>
</g>
<!-- Node6&#45;&gt;Node5 -->
<g id="edge5_Node000005_Node000006" class="edge">
<title>Node6&#45;&gt;Node5</title>
<g id="a_edge5_Node000005_Node000006"><a xlink:title=" ">
<path fill="none" stroke="#9a32cd" stroke-dasharray="5,2" d="M84.79,-248.73C111.73,-273.89 166.3,-321.35 221,-348 228.85,-351.83 237.58,-354.96 246.16,-357.5"/>
<polygon fill="#9a32cd" stroke="#9a32cd" points="87.02,-246.02 77.35,-241.69 82.21,-251.11 87.02,-246.02"/>
</a>
</g>
<text text-anchor="start" x="154" y="-343.5" font-family="Helvetica,sans-Serif" font-size="10.00" fill="grey">elements</text>
</g>
<!-- Node11 -->
<g id="Node000011" class="node">
<title>Node11</title>
<g id="a_Node000011"><a xlink:title=" ">
<polygon fill="white" stroke="#666666" points="689.5,-267 575.5,-267 575.5,-237 689.5,-237 689.5,-267"/>
<text text-anchor="start" x="583.5" y="-255" font-family="Helvetica,sans-Serif" font-size="10.00">std::unordered_map</text>
<text text-anchor="middle" x="632.5" y="-244" font-family="Helvetica,sans-Serif" font-size="10.00">&lt; K, T &gt;</text>
</a>
</g>
</g>
<!-- Node6&#45;&gt;Node11 -->
<g id="edge12_Node000011_Node000006" class="edge">
<title>Node6&#45;&gt;Node11</title>
<g id="a_edge12_Node000011_Node000006"><a xlink:title=" ">
<path fill="none" stroke="#9a32cd" stroke-dasharray="5,2" d="M91.01,-234.43C121.12,-237.51 174.92,-242.91 221,-247 357.92,-259.15 392.65,-265.4 530,-260 544.75,-259.42 560.67,-258.37 575.44,-257.21"/>
<polygon fill="#9a32cd" stroke="#9a32cd" points="91.35,-230.95 81.04,-233.41 90.63,-237.91 91.35,-230.95"/>
</a>
</g>
<text text-anchor="start" x="270.5" y="-264.5" font-family="Helvetica,sans-Serif" font-size="10.00" fill="grey">elements</text>
</g>
<!-- Node18 -->
<g id="Node000018" class="node">
<title>Node18</title>
<g id="a_Node000018"><a xlink:title=" ">
<polygon fill="white" stroke="#666666" points="352.5,-149.5 234.5,-149.5 234.5,-130.5 352.5,-130.5 352.5,-149.5"/>
<text text-anchor="middle" x="293.5" y="-137.5" font-family="Helvetica,sans-Serif" font-size="10.00">std::unique_ptr&lt; T &gt;</text>
</a>
</g>
</g>
<!-- Node6&#45;&gt;Node18 -->
<g id="edge22_Node000018_Node000006" class="edge">
<title>Node6&#45;&gt;Node18</title>
<g id="a_edge22_Node000018_Node000006"><a xlink:title=" ">
<path fill="none" stroke="#9a32cd" stroke-dasharray="5,2" d="M90.24,-220.19C119.82,-205.13 173.34,-178.91 221,-161 232.26,-156.77 244.78,-152.84 256.15,-149.55"/>
<polygon fill="#9a32cd" stroke="#9a32cd" points="88.48,-217.16 81.18,-224.84 91.67,-223.39 88.48,-217.16"/>
</a>
</g>
<text text-anchor="start" x="170" y="-194.5" font-family="Helvetica,sans-Serif" font-size="10.00" fill="grey">ptr</text>
</g>
<!-- Node19 -->
<g id="Node000019" class="node">
<title>Node19</title>
<g id="a_Node000019"><a xlink:title=" ">
<polygon fill="white" stroke="#666666" points="516,-111.5 398,-111.5 398,-92.5 516,-92.5 516,-111.5"/>
<text text-anchor="middle" x="457" y="-99.5" font-family="Helvetica,sans-Serif" font-size="10.00">std::shared_ptr&lt; T &gt;</text>
</a>
</g>
</g>
<!-- Node6&#45;&gt;Node19 -->
<g id="edge24_Node000019_Node000006" class="edge">
<title>Node6&#45;&gt;Node19</title>
<g id="a_edge24_Node000019_Node000006"><a xlink:title=" ">
<path fill="none" stroke="#9a32cd" stroke-dasharray="5,2" d="M81.11,-214.33C96.34,-195.6 122.64,-166.26 151,-148 225.97,-99.74 332.44,-94.79 397.72,-97.24"/>
<polygon fill="#9a32cd" stroke="#9a32cd" points="78.22,-212.34 74.74,-222.35 83.7,-216.7 78.22,-212.34"/>
</a>
</g>
<text text-anchor="start" x="170" y="-153.5" font-family="Helvetica,sans-Serif" font-size="10.00" fill="grey">ptr</text>
</g>
<!-- Node7 -->
<g id="Node000007" class="node">
<title>Node7</title>
<g id="a_Node000007"><a xlink:href="classkynema__sgf_1_1_field_repo.html" target="_top" xlink:title=" ">
<polygon fill="white" stroke="#666666" points="1349.5,-323.5 1220.5,-323.5 1220.5,-304.5 1349.5,-304.5 1349.5,-323.5"/>
<text text-anchor="middle" x="1285" y="-311.5" font-family="Helvetica,sans-Serif" font-size="10.00">kynema_sgf::FieldRepo</text>
</a>
</g>
</g>
<!-- Node7&#45;&gt;Node1 -->
<g id="edge6_Node000001_Node000007" class="edge">
<title>Node7&#45;&gt;Node1</title>
<g id="a_edge6_Node000001_Node000007"><a xlink:title=" ">
<path fill="none" stroke="#9a32cd" stroke-dasharray="5,2" d="M1359.83,-308.27C1440.17,-301.81 1572.35,-290.58 1686,-278 1698.05,-276.67 1710.84,-275.11 1723.23,-273.52"/>
<polygon fill="#9a32cd" stroke="#9a32cd" points="1359.5,-304.78 1349.82,-309.07 1360.06,-311.76 1359.5,-304.78"/>
</a>
</g>
<text text-anchor="start" x="1503" y="-306.5" font-family="Helvetica,sans-Serif" font-size="10.00" fill="grey">m_repo</text>
</g>
<!-- Node13 -->
<g id="Node000013" class="node">
<title>Node13</title>
<g id="a_Node000013"><a xlink:href="classkynema__sgf_1_1_field.html" target="_top" xlink:title=" ">
<polygon fill="white" stroke="#666666" points="1573,-209.5 1469,-209.5 1469,-190.5 1573,-190.5 1573,-209.5"/>
<text text-anchor="middle" x="1521" y="-197.5" font-family="Helvetica,sans-Serif" font-size="10.00">kynema_sgf::Field</text>
</a>
</g>
</g>
<!-- Node7&#45;&gt;Node13 -->
<g id="edge14_Node000013_Node000007" class="edge">
<title>Node7&#45;&gt;Node13</title>
<g id="a_edge14_Node000013_Node000007"><a xlink:title=" ">
<path fill="none" stroke="#9a32cd" stroke-dasharray="5,2" d="M1327.84,-301.06C1336.94,-297.8 1346.41,-294.06 1355,-290 1363.48,-285.99 1364.87,-283.67 1373,-279 1418.49,-252.91 1473.14,-224.22 1501.25,-209.65"/>
<polygon fill="#9a32cd" stroke="#9a32cd" points="1326.48,-297.82 1318.17,-304.4 1328.76,-304.44 1326.48,-297.82"/>
</a>
</g>
<text text-anchor="start" x="1382" y="-284.5" font-family="Helvetica,sans-Serif" font-size="10.00" fill="grey">m_repo</text>
</g>
<!-- Node8 -->
<g id="Node000008" class="node">
<title>Node8</title>
<g id="a_Node000008"><a xlink:title=" ">
<polygon fill="white" stroke="#666666" points="1033,-329 911,-329 911,-299 1033,-299 1033,-329"/>
<text text-anchor="start" x="919" y="-317" font-family="Helvetica,sans-Serif" font-size="10.00">std::unordered_map</text>
<text text-anchor="middle" x="972" y="-306" font-family="Helvetica,sans-Serif" font-size="10.00">&lt; std::string, size_t &gt;</text>
</a>
</g>
</g>
<!-- Node8&#45;&gt;Node7 -->
<g id="edge7_Node000007_Node000008" class="edge">
<title>Node8&#45;&gt;Node7</title>
<g id="a_edge7_Node000007_Node000008"><a xlink:title=" ">
<path fill="none" stroke="#9a32cd" stroke-dasharray="5,2" d="M1043.36,-314C1096.54,-314 1168.91,-314 1220.36,-314"/>
<polygon fill="#9a32cd" stroke="#9a32cd" points="1043.33,-310.5 1033.33,-314 1043.33,-317.5 1043.33,-310.5"/>
</a>
</g>
<text text-anchor="start" x="1098.5" y="-335" font-family="Helvetica,sans-Serif" font-size="10.00" fill="grey">m_fid_map</text>
<text text-anchor="start" x="1098.5" y="-320" font-family="Helvetica,sans-Serif" font-size="10.00" fill="grey">m_int_fid_map</text>
</g>
<!-- Node9 -->
<g id="Node000009" class="node">
<title>Node9</title>
<g id="a_Node000009"><a xlink:title=" ">
<polygon fill="white" stroke="#666666" points="665,-304.5 600,-304.5 600,-285.5 665,-285.5 665,-304.5"/>
<text text-anchor="middle" x="632.5" y="-292.5" font-family="Helvetica,sans-Serif" font-size="10.00">std::string</text>
</a>
</g>
</g>
<!-- Node9&#45;&gt;Node1 -->
<g id="edge25_Node000001_Node000009" class="edge">
<title>Node9&#45;&gt;Node1</title>
<g id="a_edge25_Node000001_Node000009"><a xlink:title=" ">
<path fill="none" stroke="#9a32cd" stroke-dasharray="5,2" d="M675.21,-287.18C688.7,-284.21 703.62,-280.45 717,-276 725.31,-273.24 726.44,-269.85 735,-268 828.19,-247.82 1466.57,-257.76 1703.89,-262.22"/>
<polygon fill="#9a32cd" stroke="#9a32cd" points="674.28,-283.8 665.22,-289.3 675.73,-290.65 674.28,-283.8"/>
</a>
</g>
<text text-anchor="start" x="1236" y="-278" font-family="Helvetica,sans-Serif" font-size="10.00" fill="grey">m_mean_wind_type</text>
<text text-anchor="start" x="1236" y="-263" font-family="Helvetica,sans-Serif" font-size="10.00" fill="grey">m_turb_filename</text>
</g>
<!-- Node9&#45;&gt;Node8 -->
<g id="edge8_Node000008_Node000009" class="edge">
<title>Node9&#45;&gt;Node8</title>
<g id="a_edge8_Node000008_Node000009"><a xlink:title=" ">
<path fill="none" stroke="#9a32cd" stroke-dasharray="5,2" d="M675.08,-299.67C693.43,-301.58 715.27,-303.65 735,-305 794.72,-309.08 863.09,-311.43 910.81,-312.7"/>
<polygon fill="#9a32cd" stroke="#9a32cd" points="675.32,-296.17 665.01,-298.6 674.58,-303.13 675.32,-296.17"/>
</a>
</g>
<text text-anchor="start" x="792.5" y="-316.5" font-family="Helvetica,sans-Serif" font-size="10.00" fill="grey">keys</text>
</g>
<!-- Node9&#45;&gt;Node13 -->
<g id="edge15_Node000013_Node000009" class="edge">
<title>Node9&#45;&gt;Node13</title>
<g id="a_edge15_Node000013_Node000009"><a xlink:title=" ">
<path fill="none" stroke="#9a32cd" stroke-dasharray="5,2" d="M675.45,-292.7C689.83,-290.14 705.24,-285.23 717,-276 731.07,-264.96 720.03,-249.79 735,-240 796.14,-200.03 1304.19,-198.94 1468.77,-199.65"/>
<polygon fill="#9a32cd" stroke="#9a32cd" points="674.63,-289.29 665.23,-294.18 675.63,-296.21 674.63,-289.29"/>
</a>
</g>
<text text-anchor="start" x="1113.5" y="-209.5" font-family="Helvetica,sans-Serif" font-size="10.00" fill="grey">m_name</text>
</g>
<!-- Node15 -->
<g id="Node000015" class="node">
<title>Node15</title>
<g id="a_Node000015"><a xlink:href="structkynema__sgf_1_1_field_info.html" target="_top" xlink:title=" ">
<polygon fill="white" stroke="#666666" points="1033.5,-163.5 910.5,-163.5 910.5,-144.5 1033.5,-144.5 1033.5,-163.5"/>
<text text-anchor="middle" x="972" y="-151.5" font-family="Helvetica,sans-Serif" font-size="10.00">kynema_sgf::FieldInfo</text>
</a>
</g>
</g>
<!-- Node9&#45;&gt;Node15 -->
<g id="edge18_Node000015_Node000009" class="edge">
<title>Node9&#45;&gt;Node15</title>
<g id="a_edge18_Node000015_Node000009"><a xlink:title=" ">
<path fill="none" stroke="#9a32cd" stroke-dasharray="5,2" d="M675.38,-294.51C690.33,-292.22 706.15,-287.02 717,-276 744.1,-248.49 706.98,-217.57 735,-191 738.2,-187.96 841.52,-172.6 910.38,-162.65"/>
<polygon fill="#9a32cd" stroke="#9a32cd" points="674.77,-291.06 665.23,-295.67 675.57,-298.01 674.77,-291.06"/>
</a>
</g>
<text text-anchor="start" x="770.5" y="-196.5" font-family="Helvetica,sans-Serif" font-size="10.00" fill="grey">m_basename</text>
</g>
<!-- Node10 -->
<g id="Node000010" class="node">
<title>Node10</title>
<g id="a_Node000010"><a xlink:title=" ">
<polygon fill="white" stroke="#666666" points="345.5,-339 241.5,-339 241.5,-309 345.5,-309 345.5,-339"/>
<text text-anchor="start" x="249.5" y="-327" font-family="Helvetica,sans-Serif" font-size="10.00">std::basic_string&lt;</text>
<text text-anchor="middle" x="293.5" y="-316" font-family="Helvetica,sans-Serif" font-size="10.00"> Char &gt;</text>
</a>
</g>
</g>
<!-- Node10&#45;&gt;Node9 -->
<g id="edge9_Node000009_Node000010" class="edge">
<title>Node10&#45;&gt;Node9</title>
<g id="a_edge9_Node000009_Node000010"><a xlink:title=" ">
<path fill="none" stroke="#63b8ff" d="M355.95,-318.71C427.77,-312.53 543.9,-302.54 599.64,-297.74"/>
<polygon fill="#63b8ff" stroke="#63b8ff" points="355.35,-315.25 345.68,-319.6 355.95,-322.23 355.35,-315.25"/>
</a>
</g>
</g>
<!-- Node11&#45;&gt;Node8 -->
<g id="edge10_Node000008_Node000011" class="edge">
<title>Node11&#45;&gt;Node8</title>
<g id="a_edge10_Node000008_Node000011"><a xlink:title=" ">
<path fill="none" stroke="orange" stroke-dasharray="5,2" d="M699.82,-258.01C747.96,-263.07 814.45,-271.5 872,-284 890.08,-287.92 909.63,-293.55 926.55,-298.87"/>
<polygon fill="orange" stroke="orange" points="700.15,-254.52 689.84,-256.98 699.43,-261.49 700.15,-254.52"/>
</a>
</g>
<text text-anchor="start" x="750.5" y="-289.5" font-family="Helvetica,sans-Serif" font-size="10.00" fill="grey">&lt; std::string, size_t &gt;</text>
</g>
<!-- Node12 -->
<g id="Node000012" class="node">
<title>Node12</title>
<g id="a_Node000012"><a xlink:title=" ">
<polygon fill="white" stroke="#666666" points="308,-237.5 279,-237.5 279,-218.5 308,-218.5 308,-237.5"/>
<text text-anchor="middle" x="293.5" y="-225.5" font-family="Helvetica,sans-Serif" font-size="10.00">K</text>
</a>
</g>
</g>
<!-- Node12&#45;&gt;Node11 -->
<g id="edge11_Node000011_Node000012" class="edge">
<title>Node12&#45;&gt;Node11</title>
<g id="a_edge11_Node000011_Node000012"><a xlink:title=" ">
<path fill="none" stroke="#9a32cd" stroke-dasharray="5,2" d="M318.21,-229.31C360.68,-231.71 452.56,-237.1 530,-243 544.73,-244.12 560.65,-245.47 575.41,-246.78"/>
<polygon fill="#9a32cd" stroke="#9a32cd" points="318.23,-225.81 308.05,-228.74 317.84,-232.8 318.23,-225.81"/>
</a>
</g>
<text text-anchor="start" x="446" y="-248.5" font-family="Helvetica,sans-Serif" font-size="10.00" fill="grey">keys</text>
</g>
<!-- Node13&#45;&gt;Node1 -->
<g id="edge13_Node000001_Node000013" class="edge">
<title>Node13&#45;&gt;Node1</title>
<g id="a_edge13_Node000001_Node000013"><a xlink:title=" ">
<path fill="none" stroke="#9a32cd" stroke-dasharray="5,2" d="M1583.48,-193.96C1614.72,-192.68 1652.95,-193.88 1686,-203 1723.59,-213.37 1761.86,-240.09 1780.63,-254.48"/>
<polygon fill="#9a32cd" stroke="#9a32cd" points="1582.99,-190.48 1573.18,-194.48 1583.34,-197.47 1582.99,-190.48"/>
</a>
</g>
<text text-anchor="start" x="1618.5" y="-238.5" font-family="Helvetica,sans-Serif" font-size="10.00" fill="grey">m_density</text>
<text text-anchor="start" x="1618.5" y="-223.5" font-family="Helvetica,sans-Serif" font-size="10.00" fill="grey">m_turb_force</text>
<text text-anchor="start" x="1618.5" y="-208.5" font-family="Helvetica,sans-Serif" font-size="10.00" fill="grey">m_velocity</text>
</g>
<!-- Node14 -->
<g id="Node000014" class="node">
<title>Node14</title>
<g id="a_Node000014"><a xlink:title=" ">
<polygon fill="white" stroke="#666666" points="1355,-169 1215,-169 1215,-139 1355,-139 1355,-169"/>
<text text-anchor="start" x="1223" y="-157" font-family="Helvetica,sans-Serif" font-size="10.00">std::shared_ptr&lt; kynema</text>
<text text-anchor="middle" x="1285" y="-146" font-family="Helvetica,sans-Serif" font-size="10.00">_sgf::FieldInfo &gt;</text>
</a>
</g>
</g>
<!-- Node14&#45;&gt;Node13 -->
<g id="edge16_Node000013_Node000014" class="edge">
<title>Node14&#45;&gt;Node13</title>
<g id="a_edge16_Node000013_Node000014"><a xlink:title=" ">
<path fill="none" stroke="#9a32cd" stroke-dasharray="5,2" d="M1365.46,-158.63C1385.68,-160.7 1407.26,-163.69 1427,-168 1451.52,-173.36 1478.55,-183.12 1497.11,-190.45"/>
<polygon fill="#9a32cd" stroke="#9a32cd" points="1365.64,-155.13 1355.35,-157.66 1364.97,-162.1 1365.64,-155.13"/>
</a>
</g>
<text text-anchor="start" x="1383" y="-173.5" font-family="Helvetica,sans-Serif" font-size="10.00" fill="grey">m_info</text>
</g>
<!-- Node15&#45;&gt;Node14 -->
<g id="edge17_Node000014_Node000015" class="edge">
<title>Node15&#45;&gt;Node14</title>
<g id="a_edge17_Node000014_Node000015"><a xlink:title=" ">
<path fill="none" stroke="#9a32cd" stroke-dasharray="5,2" d="M1043.7,-154C1094.94,-154 1163.88,-154 1214.78,-154"/>
<polygon fill="#9a32cd" stroke="#9a32cd" points="1043.7,-150.5 1033.7,-154 1043.7,-157.5 1043.7,-150.5"/>
</a>
</g>
<text text-anchor="start" x="1127.5" y="-159.5" font-family="Helvetica,sans-Serif" font-size="10.00" fill="grey">ptr</text>
</g>
<!-- Node16 -->
<g id="Node000016" class="node">
<title>Node16</title>
<g id="a_Node000016"><a xlink:title=" ">
<polygon fill="white" stroke="#666666" points="712.5,-168 552.5,-168 552.5,-138 712.5,-138 712.5,-168"/>
<text text-anchor="start" x="560.5" y="-156" font-family="Helvetica,sans-Serif" font-size="10.00">std::unique_ptr&lt; kynema</text>
<text text-anchor="middle" x="632.5" y="-145" font-family="Helvetica,sans-Serif" font-size="10.00">_sgf::FieldFillPatchOpsBase &gt;</text>
</a>
</g>
</g>
<!-- Node16&#45;&gt;Node15 -->
<g id="edge19_Node000015_Node000016" class="edge">
<title>Node16&#45;&gt;Node15</title>
<g id="a_edge19_Node000015_Node000016"><a xlink:title=" ">
<path fill="none" stroke="#9a32cd" stroke-dasharray="5,2" d="M722.93,-151.14C727.01,-151.09 731.05,-151.04 735,-151 795.89,-150.4 811.12,-150.08 872,-151 884.38,-151.19 897.63,-151.51 910.27,-151.87"/>
<polygon fill="#9a32cd" stroke="#9a32cd" points="722.68,-147.64 712.73,-151.29 722.78,-154.64 722.68,-147.64"/>
</a>
</g>
<text text-anchor="start" x="767.5" y="-156.5" font-family="Helvetica,sans-Serif" font-size="10.00" fill="grey">m_fillpatch_op</text>
</g>
<!-- Node17 -->
<g id="Node000017" class="node">
<title>Node17</title>
<g id="a_Node000017"><a xlink:href="classkynema__sgf_1_1_field_fill_patch_ops_base.html" target="_top" xlink:title=" ">
<polygon fill="white" stroke="#666666" points="366,-200 221,-200 221,-170 366,-170 366,-200"/>
<text text-anchor="start" x="229" y="-188" font-family="Helvetica,sans-Serif" font-size="10.00">kynema_sgf::FieldFillPatch</text>
<text text-anchor="middle" x="293.5" y="-177" font-family="Helvetica,sans-Serif" font-size="10.00">OpsBase</text>
</a>
</g>
</g>
<!-- Node17&#45;&gt;Node16 -->
<g id="edge20_Node000016_Node000017" class="edge">
<title>Node17&#45;&gt;Node16</title>
<g id="a_edge20_Node000016_Node000017"><a xlink:title=" ">
<path fill="none" stroke="#9a32cd" stroke-dasharray="5,2" d="M376.33,-180.6C421.69,-177.78 479.05,-173.6 530,-168 537.26,-167.2 544.8,-166.28 552.34,-165.28"/>
<polygon fill="#9a32cd" stroke="#9a32cd" points="376.02,-177.11 366.25,-181.21 376.45,-184.1 376.02,-177.11"/>
</a>
</g>
<text text-anchor="start" x="450" y="-185.5" font-family="Helvetica,sans-Serif" font-size="10.00" fill="grey">ptr</text>
</g>
<!-- Node18&#45;&gt;Node16 -->
<g id="edge21_Node000016_Node000018" class="edge">
<title>Node18&#45;&gt;Node16</title>
<g id="a_edge21_Node000016_Node000018"><a xlink:title=" ">
<path fill="none" stroke="orange" stroke-dasharray="5,2" d="M363.06,-136.62C370.13,-136.37 377.21,-136.15 384,-136 448.87,-134.55 465.33,-130.62 530,-136 537.3,-136.61 544.87,-137.46 552.42,-138.45"/>
<polygon fill="orange" stroke="orange" points="362.6,-133.14 352.74,-137.02 362.87,-140.13 362.6,-133.14"/>
</a>
</g>
<text text-anchor="start" x="387" y="-157" font-family="Helvetica,sans-Serif" font-size="10.00" fill="grey">&lt; kynema_sgf::FieldFillPatch</text>
<text text-anchor="start" x="387" y="-142" font-family="Helvetica,sans-Serif" font-size="10.00" fill="grey">  OpsBase &gt;</text>
</g>
<!-- Node23 -->
<g id="Node000023" class="node">
<title>Node23</title>
<g id="a_Node000023"><a xlink:title=" ">
<polygon fill="white" stroke="#666666" points="717,-49 548,-49 548,-19 717,-19 717,-49"/>
<text text-anchor="start" x="556" y="-37" font-family="Helvetica,sans-Serif" font-size="10.00">std::unique_ptr&lt; kynema</text>
<text text-anchor="middle" x="632.5" y="-26" font-family="Helvetica,sans-Serif" font-size="10.00">_sgf::synth_turb::MeanProfile &gt;</text>
</a>
</g>
</g>
<!-- Node18&#45;&gt;Node23 -->
<g id="edge32_Node000023_Node000018" class="edge">
<title>Node18&#45;&gt;Node23</title>
<g id="a_edge32_Node000023_Node000018"><a xlink:title=" ">
<path fill="none" stroke="orange" stroke-dasharray="5,2" d="M306.62,-122C321.9,-101.01 350.27,-67.25 384,-52 412.41,-39.15 487.82,-35.08 548,-33.96"/>
<polygon fill="orange" stroke="orange" points="303.62,-120.18 300.73,-130.37 309.35,-124.21 303.62,-120.18"/>
</a>
</g>
<text text-anchor="start" x="404" y="-73" font-family="Helvetica,sans-Serif" font-size="10.00" fill="grey">&lt; kynema_sgf::synth</text>
<text text-anchor="start" x="404" y="-58" font-family="Helvetica,sans-Serif" font-size="10.00" fill="grey">  _turb::MeanProfile &gt;</text>
</g>
<!-- Node19&#45;&gt;Node14 -->
<g id="edge23_Node000014_Node000019" class="edge">
<title>Node19&#45;&gt;Node14</title>
<g id="a_edge23_Node000014_Node000019"><a xlink:title=" ">
<path fill="none" stroke="orange" stroke-dasharray="5,2" d="M526.44,-105.43C637.29,-111.1 862.98,-123.08 1054,-136 1108.05,-139.66 1169.18,-144.47 1214.83,-148.2"/>
<polygon fill="orange" stroke="orange" points="526.56,-101.94 516.4,-104.92 526.21,-108.93 526.56,-101.94"/>
</a>
</g>
<text text-anchor="start" x="738.5" y="-129.5" font-family="Helvetica,sans-Serif" font-size="10.00" fill="grey">&lt; kynema_sgf::FieldInfo &gt;</text>
</g>
<!-- Node20 -->
<g id="Node000020" class="node">
<title>Node20</title>
<g id="a_Node000020"><a xlink:href="structkynema__sgf_1_1_synth_turb_data.html" target="_top" xlink:title=" ">
<polygon fill="white" stroke="#666666" points="1597,-132.5 1445,-132.5 1445,-113.5 1597,-113.5 1597,-132.5"/>
<text text-anchor="middle" x="1521" y="-120.5" font-family="Helvetica,sans-Serif" font-size="10.00">kynema_sgf::SynthTurbData</text>
</a>
</g>
</g>
<!-- Node20&#45;&gt;Node1 -->
<g id="edge26_Node000001_Node000020" class="edge">
<title>Node20&#45;&gt;Node1</title>
<g id="a_edge26_Node000001_Node000020"><a xlink:title=" ">
<path fill="none" stroke="#9a32cd" stroke-dasharray="5,2" d="M1583.77,-134.93C1615.59,-142.67 1654.26,-154.6 1686,-172 1727.57,-194.78 1767.29,-235.87 1784.1,-254.43"/>
<polygon fill="#9a32cd" stroke="#9a32cd" points="1584.24,-131.45 1573.7,-132.57 1582.64,-138.26 1584.24,-131.45"/>
</a>
</g>
<text text-anchor="start" x="1621.5" y="-177.5" font-family="Helvetica,sans-Serif" font-size="10.00" fill="grey">m_turb_grid</text>
</g>
<!-- Node21 -->
<g id="Node000021" class="node">
<title>Node21</title>
<g id="a_Node000021"><a xlink:href="structkynema__sgf_1_1vs_1_1_vector_t.html" target="_top" xlink:title=" ">
<polygon fill="white" stroke="#666666" points="1352.5,-112 1217.5,-112 1217.5,-82 1352.5,-82 1352.5,-112"/>
<text text-anchor="start" x="1225.5" y="-100" font-family="Helvetica,sans-Serif" font-size="10.00">kynema_sgf::vs::VectorT</text>
<text text-anchor="middle" x="1285" y="-89" font-family="Helvetica,sans-Serif" font-size="10.00">&lt; int &gt;</text>
</a>
</g>
</g>
<!-- Node21&#45;&gt;Node20 -->
<g id="edge27_Node000020_Node000021" class="edge">
<title>Node21&#45;&gt;Node20</title>
<g id="a_edge27_Node000020_Node000021"><a xlink:title=" ">
<path fill="none" stroke="#9a32cd" stroke-dasharray="5,2" d="M1362.7,-105.52C1389.12,-108.46 1418.65,-111.74 1444.94,-114.66"/>
<polygon fill="#9a32cd" stroke="#9a32cd" points="1363.07,-102.04 1352.74,-104.42 1362.29,-109 1363.07,-102.04"/>
</a>
</g>
<text text-anchor="start" x="1376" y="-117.5" font-family="Helvetica,sans-Serif" font-size="10.00" fill="grey">box_dims</text>
</g>
<!-- Node22 -->
<g id="Node000022" class="node">
<title>Node22</title>
<g id="a_Node000022"><a xlink:href="structkynema__sgf_1_1vs_1_1_vector_t.html" target="_top" xlink:title=" ">
<polygon fill="white" stroke="#666666" points="1054,-81.5 890,-81.5 890,-62.5 1054,-62.5 1054,-81.5"/>
<text text-anchor="middle" x="972" y="-69.5" font-family="Helvetica,sans-Serif" font-size="10.00">kynema_sgf::vs::VectorT&lt; T &gt;</text>
</a>
</g>
</g>
<!-- Node22&#45;&gt;Node21 -->
<g id="edge28_Node000021_Node000022" class="edge">
<title>Node22&#45;&gt;Node21</title>
<g id="a_edge28_Node000021_Node000022"><a xlink:title=" ">
<path fill="none" stroke="orange" stroke-dasharray="5,2" d="M1064.3,-71.29C1105.04,-71.89 1153.54,-73.86 1197,-79 1203.59,-79.78 1210.41,-80.8 1217.22,-81.97"/>
<polygon fill="orange" stroke="orange" points="1064.16,-67.79 1054.12,-71.17 1064.08,-74.79 1064.16,-67.79"/>
</a>
</g>
<text text-anchor="start" x="1116.5" y="-84.5" font-family="Helvetica,sans-Serif" font-size="10.00" fill="grey">&lt; int &gt;</text>
</g>
<!-- Node23&#45;&gt;Node1 -->
<g id="edge29_Node000001_Node000023" class="edge">
<title>Node23&#45;&gt;Node1</title>
<g id="a_edge29_Node000001_Node000023"><a xlink:title=" ">
<path fill="none" stroke="#9a32cd" stroke-dasharray="5,2" d="M727.29,-34C795.01,-34 888.65,-34 971,-34 971,-34 971,-34 1522,-34 1660.39,-34 1764.08,-210.88 1787.51,-254.41"/>
<polygon fill="#9a32cd" stroke="#9a32cd" points="727.07,-30.5 717.07,-34 727.07,-37.5 727.07,-30.5"/>
</a>
</g>
<text text-anchor="start" x="1248" y="-39.5" font-family="Helvetica,sans-Serif" font-size="10.00" fill="grey">m_wind_profile</text>
</g>
<!-- Node24 -->
<g id="Node000024" class="node">
<title>Node24</title>
<g id="a_Node000024"><a xlink:href="classkynema__sgf_1_1synth__turb_1_1_mean_profile.html" target="_top" xlink:title=" ">
<polygon fill="white" stroke="#666666" points="360,-30 227,-30 227,0 360,0 360,-30"/>
<text text-anchor="start" x="235" y="-18" font-family="Helvetica,sans-Serif" font-size="10.00">kynema_sgf::synth_turb</text>
<text text-anchor="middle" x="293.5" y="-7" font-family="Helvetica,sans-Serif" font-size="10.00">::MeanProfile</text>
</a>
</g>
</g>
<!-- Node24&#45;&gt;Node23 -->
<g id="edge30_Node000023_Node000024" class="edge">
<title>Node24&#45;&gt;Node23</title>
<g id="a_edge30_Node000023_Node000024"><a xlink:title=" ">
<path fill="none" stroke="#9a32cd" stroke-dasharray="5,2" d="M370.36,-12.04C416.59,-11.04 476.81,-11.21 530,-16 538.11,-16.73 546.54,-17.77 554.93,-18.99"/>
<polygon fill="#9a32cd" stroke="#9a32cd" points="370.03,-8.54 360.12,-12.28 370.2,-15.54 370.03,-8.54"/>
</a>
</g>
<text text-anchor="start" x="450" y="-21.5" font-family="Helvetica,sans-Serif" font-size="10.00" fill="grey">ptr</text>
</g>
<!-- Node25 -->
<g id="Node000025" class="node">
<title>Node25</title>
<g id="a_Node000025"><a xlink:href="structkynema__sgf_1_1synth__turb_1_1_mean_vel_op.html" target="_top" xlink:title=" ">
<polygon fill="white" stroke="#666666" points="133,-30 0,-30 0,0 133,0 133,-30"/>
<text text-anchor="start" x="8" y="-18" font-family="Helvetica,sans-Serif" font-size="10.00">kynema_sgf::synth_turb</text>
<text text-anchor="middle" x="66.5" y="-7" font-family="Helvetica,sans-Serif" font-size="10.00">::MeanVelOp</text>
</a>
</g>
</g>
<!-- Node25&#45;&gt;Node24 -->
<g id="edge31_Node000024_Node000025" class="edge">
<title>Node25&#45;&gt;Node24</title>
<g id="a_edge31_Node000024_Node000025"><a xlink:title=" ">
<path fill="none" stroke="#9a32cd" stroke-dasharray="5,2" d="M143.38,-15C170.41,-15 200.62,-15 226.73,-15"/>
<polygon fill="#9a32cd" stroke="#9a32cd" points="143.18,-11.5 133.18,-15 143.18,-18.5 143.18,-11.5"/>
</a>
</g>
<text text-anchor="start" x="163" y="-20.5" font-family="Helvetica,sans-Serif" font-size="10.00" fill="grey">m_op</text>
</g>
</g>
</svg>

<g id="navigator" transform="translate(0 0)" fill="#404254">
  <rect fill="#f2f5e9" fill-opacity="0.5" stroke="#606060" stroke-width=".5" x="0" y="0" width="60" height="60"/>
  <use id="zoomplus" xlink:href="#zoomPlus" x="17" y="9" onmousedown="handleZoom(evt,'in')"/>
  <use id="zoomminus" xlink:href="#zoomMin" x="42" y="9" onmousedown="handleZoom(evt,'out')"/>
  <use id="reset" xlink:href="#resetDef" x="30" y="36" onmousedown="handleReset()"/>
   <use id="arrowup" xlink:href="#arrowUp" x="0" y="0" onmousedown="handlePan(0,-1)"/>
  <use id="arrowright" xlink:href="#arrowRight" x="0" y="0" onmousedown="handlePan(1,0)"/>
  <use id="arrowdown" xlink:href="#arrowDown" x="0" y="0" onmousedown="handlePan(0,1)"/>
  <use id="arrowleft" xlink:href="#arrowLeft" x="0" y="0" onmousedown="handlePan(-1,0)"/>
</g>
<svg viewBox="0 0 15 15" width="100%" height="30px" preserveAspectRatio="xMaxYMin meet">
 <g id="arrow_out" transform="scale(0.3 0.3)">
  <a xlink:href="classkynema__sgf_1_1_synthetic_turbulence__coll__graph_org.svg" target="_base">
   <rect id="button" ry="5" rx="5" y="6" x="6" height="38" width="38"
        fill="#f2f5e9" fill-opacity="0.5" stroke="#606060" stroke-width="1.0"/>
   <path id="arrow"
     d="M 11.500037,31.436501 C 11.940474,20.09759 22.043105,11.32322 32.158766,21.979434 L 37.068811,17.246167 C 37.068811,17.246167 37.088388,32 37.088388,32 L 22.160133,31.978069 C 22.160133,31.978069 26.997745,27.140456 26.997745,27.140456 C 18.528582,18.264221 13.291696,25.230495 11.500037,31.436501 z"
     style="fill:#404040;"/>
  </a>
 </g>
</svg>

<style type='text/css'>
<![CDATA[
[data-mouse-over-selected='false'] { opacity: 0.7; }
[data-mouse-over-selected='true']  { opacity: 1.0; }
]]>
</style>
<script type="application/ecmascript"><![CDATA[
document.addEventListener('DOMContentLoaded', (event) => {
  highlightEdges();
  highlightAdjacentNodes();
});
]]></script>
</svg>
