<?xml version="1.0" encoding="UTF-8" standalone="no"?>
<!DOCTYPE svg PUBLIC "-//W3C//DTD SVG 1.1//EN"
 "http://www.w3.org/Graphics/SVG/1.1/DTD/svg11.dtd">
<!-- Generated by graphviz version 2.43.0 (0)
 -->
<!-- Title: kynema_sgf::FieldFillPatchOpsBase Pages: 1 -->
<svg width="819pt" height="122pt"
 viewBox="0.00 0.00 819.00 121.50" xmlns="http://www.w3.org/2000/svg" xmlns:xlink="http://www.w3.org/1999/xlink">
<g id="graph0" class="graph" transform="scale(1 1) rotate(0) translate(4 117.5)">
<title>kynema_sgf::FieldFillPatchOpsBase</title>
<!-- Node1 -->
<g id="Node000001" class="node">
<title>Node1</title>
<g id="a_Node000001"><a xlink:title=" ">
<polygon fill="#999999" stroke="#666666" points="145,-78 0,-78 0,-48 145,-48 145,-78"/>
<text text-anchor="start" x="8" y="-66" font-family="Helvetica,sans-Serif" font-size="10.00">kynema_sgf::FieldFillPatch</text>
<text text-anchor="middle" x="72.5" y="-55" font-family="Helvetica,sans-Serif" font-size="10.00">OpsBase</text>
</a>
</g>
</g>
<!-- Node2 -->
<g id="Node000002" class="node">
<title>Node2</title>
<g id="a_Node000002"><a xlink:href="classkynema__sgf_1_1_field_fill_patch_ops.html" target="_top" xlink:title=" ">
<polygon fill="white" stroke="#666666" points="616,-76 471,-76 471,-46 616,-46 616,-76"/>
<text text-anchor="start" x="479" y="-64" font-family="Helvetica,sans-Serif" font-size="10.00">kynema_sgf::FieldFillPatch</text>
<text text-anchor="middle" x="543.5" y="-53" font-family="Helvetica,sans-Serif" font-size="10.00">Ops&lt; FieldBCDirichlet &gt;</text>
</a>
</g>
</g>
<!-- Node1&#45;&gt;Node2 -->
<g id="edge1_Node000001_Node000002" class="edge">
<title>Node1&#45;&gt;Node2</title>
<g id="a_edge1_Node000001_Node000002"><a xlink:title=" ">
<path fill="none" stroke="#63b8ff" d="M140.37,-80.18C154.05,-83.02 168.42,-85.52 182,-87 281.96,-97.92 398.04,-84.98 470.88,-73.78"/>
<polygon fill="#63b8ff" stroke="#63b8ff" points="141.06,-76.75 130.55,-78.06 139.58,-83.59 141.06,-76.75"/>
</a>
</g>
</g>
<!-- Node6 -->
<g id="Node000006" class="node">
<title>Node6</title>
<g id="a_Node000006"><a xlink:href="classkynema__sgf_1_1_field_fill_const_scalar.html" target="_top" xlink:title=" ">
<polygon fill="white" stroke="#666666" points="328,-78 182,-78 182,-48 328,-48 328,-78"/>
<text text-anchor="start" x="190" y="-66" font-family="Helvetica,sans-Serif" font-size="10.00">kynema_sgf::FieldFillConst</text>
<text text-anchor="middle" x="255" y="-55" font-family="Helvetica,sans-Serif" font-size="10.00">Scalar</text>
</a>
</g>
</g>
<!-- Node1&#45;&gt;Node6 -->
<g id="edge5_Node000001_Node000006" class="edge">
<title>Node1&#45;&gt;Node6</title>
<g id="a_edge5_Node000001_Node000006"><a xlink:title=" ">
<path fill="none" stroke="#63b8ff" d="M155.11,-63C164.05,-63 173.09,-63 181.9,-63"/>
<polygon fill="#63b8ff" stroke="#63b8ff" points="155.1,-59.5 145.1,-63 155.1,-66.5 155.1,-59.5"/>
</a>
</g>
</g>
<!-- Node7 -->
<g id="Node000007" class="node">
<title>Node7</title>
<g id="a_Node000007"><a xlink:href="classkynema__sgf_1_1_field_fill_patch_ops.html" target="_top" xlink:title=" ">
<polygon fill="white" stroke="#666666" points="327.5,-30 182.5,-30 182.5,0 327.5,0 327.5,-30"/>
<text text-anchor="start" x="190.5" y="-18" font-family="Helvetica,sans-Serif" font-size="10.00">kynema_sgf::FieldFillPatch</text>
<text text-anchor="middle" x="255" y="-7" font-family="Helvetica,sans-Serif" font-size="10.00">Ops&lt; BCOpCreator &gt;</text>
</a>
</g>
</g>
<!-- Node1&#45;&gt;Node7 -->
<g id="edge6_Node000001_Node000007" class="edge">
<title>Node1&#45;&gt;Node7</title>
<g id="a_edge6_Node000001_Node000007"><a xlink:title=" ">
<path fill="none" stroke="#63b8ff" d="M139.87,-45.35C158.82,-40.31 179.29,-34.87 197.58,-30"/>
<polygon fill="#63b8ff" stroke="#63b8ff" points="138.88,-41.99 130.12,-47.94 140.68,-48.76 138.88,-41.99"/>
</a>
</g>
</g>
<!-- Node3 -->
<g id="Node000003" class="node">
<title>Node3</title>
<g id="a_Node000003"><a xlink:href="classkynema__sgf_1_1_fill_m_p_l.html" target="_top" xlink:title=" ">
<polygon fill="white" stroke="#666666" points="790,-113.5 674,-113.5 674,-94.5 790,-94.5 790,-113.5"/>
<text text-anchor="middle" x="732" y="-101.5" font-family="Helvetica,sans-Serif" font-size="10.00">kynema_sgf::FillMPL</text>
</a>
</g>
</g>
<!-- Node2&#45;&gt;Node3 -->
<g id="edge2_Node000002_Node000003" class="edge">
<title>Node2&#45;&gt;Node3</title>
<g id="a_edge2_Node000002_Node000003"><a xlink:title=" ">
<path fill="none" stroke="#63b8ff" d="M619.51,-78.3C643.46,-83.82 669.07,-89.72 689.7,-94.48"/>
<polygon fill="#63b8ff" stroke="#63b8ff" points="620.26,-74.88 609.73,-76.04 618.69,-81.7 620.26,-74.88"/>
</a>
</g>
</g>
<!-- Node4 -->
<g id="Node000004" class="node">
<title>Node4</title>
<g id="a_Node000004"><a xlink:href="classkynema__sgf_1_1_ocean_waves_fill_inflow.html" target="_top" xlink:title=" ">
<polygon fill="white" stroke="#666666" points="811,-76 653,-76 653,-46 811,-46 811,-76"/>
<text text-anchor="start" x="661" y="-64" font-family="Helvetica,sans-Serif" font-size="10.00">kynema_sgf::OceanWavesFill</text>
<text text-anchor="middle" x="732" y="-53" font-family="Helvetica,sans-Serif" font-size="10.00">Inflow</text>
</a>
</g>
</g>
<!-- Node2&#45;&gt;Node4 -->
<g id="edge3_Node000002_Node000004" class="edge">
<title>Node2&#45;&gt;Node4</title>
<g id="a_edge3_Node000002_Node000004"><a xlink:title=" ">
<path fill="none" stroke="#63b8ff" d="M626.31,-61C635.11,-61 644.04,-61 652.79,-61"/>
<polygon fill="#63b8ff" stroke="#63b8ff" points="626.07,-57.5 616.07,-61 626.07,-64.5 626.07,-57.5"/>
</a>
</g>
</g>
<!-- Node5 -->
<g id="Node000005" class="node">
<title>Node5</title>
<g id="a_Node000005"><a xlink:href="classkynema__sgf_1_1_plane_fill_inflow.html" target="_top" xlink:title=" ">
<polygon fill="white" stroke="#666666" points="808,-27.5 656,-27.5 656,-8.5 808,-8.5 808,-27.5"/>
<text text-anchor="middle" x="732" y="-15.5" font-family="Helvetica,sans-Serif" font-size="10.00">kynema_sgf::PlaneFillInflow</text>
</a>
</g>
</g>
<!-- Node2&#45;&gt;Node5 -->
<g id="edge4_Node000002_Node000005" class="edge">
<title>Node2&#45;&gt;Node5</title>
<g id="a_edge4_Node000002_Node000005"><a xlink:title=" ">
<path fill="none" stroke="#63b8ff" d="M619.51,-43.7C643.46,-38.18 669.07,-32.28 689.7,-27.52"/>
<polygon fill="#63b8ff" stroke="#63b8ff" points="618.69,-40.3 609.73,-45.96 620.26,-47.12 618.69,-40.3"/>
</a>
</g>
</g>
<!-- Node7&#45;&gt;Node2 -->
<g id="edge7_Node000007_Node000002" class="edge">
<title>Node7&#45;&gt;Node2</title>
<g id="a_edge7_Node000007_Node000002"><a xlink:title=" ">
<path fill="none" stroke="orange" stroke-dasharray="5,2" d="M337.49,-28.08C379.53,-34.83 430.34,-42.99 470.86,-49.5"/>
<polygon fill="orange" stroke="orange" points="337.99,-24.62 327.56,-26.49 336.88,-31.53 337.99,-24.62"/>
</a>
</g>
<text text-anchor="start" x="349.5" y="-51.5" font-family="Helvetica,sans-Serif" font-size="10.00" fill="grey">&lt; FieldBCDirichlet &gt;</text>
</g>
</g>
</svg>
