<?xml version="1.0" encoding="UTF-8" standalone="no"?>
<!DOCTYPE svg PUBLIC "-//W3C//DTD SVG 1.1//EN"
 "http://www.w3.org/Graphics/SVG/1.1/DTD/svg11.dtd">
<!-- Generated by graphviz version 2.43.0 (0)
 -->
<!-- Title: kynema_sgf::actuator::ops::ActSrcOp&lt; ActTrait, SrcTrait, typename &gt; Pages: 1 -->
<!--zoomable 325 -->

<svg id="main" version="1.1" xmlns="http://www.w3.org/2000/svg" xmlns:xlink="http://www.w3.org/1999/xlink" xml:space="preserve" onload="init(evt)">

<style type="text/css"><![CDATA[
.node, .edge {opacity: 0.7;}
.node.selected, .edge.selected {opacity: 1;}
.edge:hover path { stroke: red; }
.edge:hover polygon { stroke: red; fill: red; }
]]></style>

<defs>
  <circle id="rim" cx="0" cy="0" r="7"/>
  <circle id="rim2" cx="0" cy="0" r="3.5"/>
  <g id="zoomPlus">
    <use xlink:href="#rim" fill="#404040"><set attributeName="fill" to="#808080" begin="zoomplus.mouseover" end="zoomplus.mouseout"/></use>
    <path d="M-4,0h8M0,-4v8" fill="none" stroke="white" stroke-width="1.5" pointer-events="none"/>
  </g>
  <g id="zoomMin">
    <use xlink:href="#rim" fill="#404040"><set attributeName="fill" to="#808080" begin="zoomminus.mouseover" end="zoomminus.mouseout"/></use>
    <path d="M-4,0h8" fill="none" stroke="white" stroke-width="1.5" pointer-events="none"/>
  </g>
  <g id="arrowUp" transform="translate(30 24)">
    <use xlink:href="#rim"/>
    <path pointer-events="none" fill="none" stroke="white" stroke-width="1.5" d="M0,-3.0v7 M-2.5,-0.5L0,-3.0L2.5,-0.5"/>
  </g>
  <g id="arrowRight" transform="rotate(90) translate(36 -43)">
    <use xlink:href="#rim"/>
    <path pointer-events="none" fill="none" stroke="white" stroke-width="1.5" d="M0,-3.0v7 M-2.5,-0.5L0,-3.0L2.5,-0.5"/>
  </g>
  <g id="arrowDown" transform="rotate(180) translate(-30 -48)">
    <use xlink:href="#rim"/>
    <path pointer-events="none" fill="none" stroke="white" stroke-width="1.5" d="M0,-3.0v7 M-2.5,-0.5L0,-3.0L2.5,-0.5"/>
  </g>
  <g id="arrowLeft" transform="rotate(270) translate(-36 17)">
    <use xlink:href="#rim"/>
    <path pointer-events="none" fill="none" stroke="white" stroke-width="1.5" d="M0,-3.0v7 M-2.5,-0.5L0,-3.0L2.5,-0.5"/>
  </g>
  <g id="resetDef">
    <use xlink:href="#rim2" fill="#404040"><set attributeName="fill" to="#808080" begin="reset.mouseover" end="reset.mouseout"/></use>
  </g>
</defs>
<script type="application/ecmascript">
var viewWidth = 527;
var viewHeight = 325;
var sectionId = 'dynsection-0';
</script>
<script type="application/ecmascript" xlink:href="svg.min.js"/>
<svg id="graph" class="graph">
<g id="viewport">
<title>kynema_sgf::actuator::ops::ActSrcOp&lt; ActTrait, SrcTrait, typename &gt;</title>
<!-- Node1 -->
<g id="Node000001" class="node">
<title>Node1</title>
<g id="a_Node000001"><a xlink:title=" ">
<polygon fill="#999999" stroke="#666666" points="141,-153 0,-153 0,-112 141,-112 141,-153"/>
<text text-anchor="start" x="8" y="-141" font-family="Helvetica,sans-Serif" font-size="10.00">kynema_sgf::actuator</text>
<text text-anchor="start" x="8" y="-130" font-family="Helvetica,sans-Serif" font-size="10.00">::ops::ActSrcOp&lt; ActTrait,</text>
<text text-anchor="middle" x="70.5" y="-119" font-family="Helvetica,sans-Serif" font-size="10.00"> SrcTrait, typename &gt;</text>
</a>
</g>
</g>
<!-- Node2 -->
<g id="Node000002" class="node">
<title>Node2</title>
<g id="a_Node000002"><a xlink:href="classkynema__sgf_1_1actuator_1_1ops_1_1_act_src_op.html" target="_top" xlink:title=" ">
<polygon fill="white" stroke="#666666" points="519,-286.5 346,-286.5 346,-234.5 519,-234.5 519,-286.5"/>
<text text-anchor="start" x="354" y="-274.5" font-family="Helvetica,sans-Serif" font-size="10.00">kynema_sgf::actuator</text>
<text text-anchor="start" x="354" y="-263.5" font-family="Helvetica,sans-Serif" font-size="10.00">::ops::ActSrcOp&lt; T, ActSrcDisk,</text>
<text text-anchor="start" x="354" y="-252.5" font-family="Helvetica,sans-Serif" font-size="10.00"> std::enable_if_t&lt; std::is</text>
<text text-anchor="middle" x="432.5" y="-241.5" font-family="Helvetica,sans-Serif" font-size="10.00">_base_of_v&lt; DiskType, T &gt; &gt; &gt;</text>
</a>
</g>
</g>
<!-- Node1&#45;&gt;Node2 -->
<g id="edge1_Node000001_Node000002" class="edge">
<title>Node1&#45;&gt;Node2</title>
<g id="a_edge1_Node000001_Node000002"><a xlink:title=" ">
<path fill="none" stroke="orange" stroke-dasharray="5,2" d="M87.44,-162.03C102.42,-186.55 127.26,-219.99 159,-236.5 216.3,-266.3 289.63,-271.21 345.78,-269.27"/>
<polygon fill="orange" stroke="orange" points="90.29,-159.96 82.19,-153.12 84.26,-163.52 90.29,-159.96"/>
</a>
</g>
<text text-anchor="start" x="162.5" y="-305" font-family="Helvetica,sans-Serif" font-size="10.00" fill="grey">&lt; T, ActSrcDisk, std</text>
<text text-anchor="start" x="162.5" y="-290" font-family="Helvetica,sans-Serif" font-size="10.00" fill="grey">  ::enable_if_t&lt; std::is</text>
<text text-anchor="start" x="162.5" y="-275" font-family="Helvetica,sans-Serif" font-size="10.00" fill="grey">  _base_of_v&lt; DiskType, T &gt; &gt; &gt;</text>
</g>
<!-- Node3 -->
<g id="Node000003" class="node">
<title>Node3</title>
<g id="a_Node000003"><a xlink:href="classkynema__sgf_1_1actuator_1_1ops_1_1_act_src_op_3_01_act_trait_00_01_act_src_disk_00_01std_1_ebca356fcd5bf2d26a89d157a4d97d95.html" target="_top" xlink:title=" ">
<polygon fill="white" stroke="#666666" points="507,-207 358,-207 358,-144 507,-144 507,-207"/>
<text text-anchor="start" x="366" y="-195" font-family="Helvetica,sans-Serif" font-size="10.00">kynema_sgf::actuator</text>
<text text-anchor="start" x="366" y="-184" font-family="Helvetica,sans-Serif" font-size="10.00">::ops::ActSrcOp&lt; ActTrait,</text>
<text text-anchor="start" x="366" y="-173" font-family="Helvetica,sans-Serif" font-size="10.00"> ActSrcDisk, std::enable</text>
<text text-anchor="start" x="366" y="-162" font-family="Helvetica,sans-Serif" font-size="10.00">_if_t&lt; std::is_base_of_v</text>
<text text-anchor="middle" x="432.5" y="-151" font-family="Helvetica,sans-Serif" font-size="10.00">&lt; DiskType, ActTrait &gt; &gt; &gt;</text>
</a>
</g>
</g>
<!-- Node1&#45;&gt;Node3 -->
<g id="edge2_Node000001_Node000003" class="edge">
<title>Node1&#45;&gt;Node3</title>
<g id="a_edge2_Node000001_Node000003"><a xlink:title=" ">
<path fill="none" stroke="orange" stroke-dasharray="5,2" d="M150.93,-152.12C153.65,-152.62 156.34,-153.08 159,-153.5 225.91,-164.16 302.93,-169.78 357.98,-172.65"/>
<polygon fill="orange" stroke="orange" points="151.52,-148.67 141.03,-150.22 150.19,-155.54 151.52,-148.67"/>
</a>
</g>
<text text-anchor="start" x="176.5" y="-221.5" font-family="Helvetica,sans-Serif" font-size="10.00" fill="grey">&lt; ActTrait, ActSrcDisk,</text>
<text text-anchor="start" x="176.5" y="-206.5" font-family="Helvetica,sans-Serif" font-size="10.00" fill="grey">   std::enable_if_t&lt; std</text>
<text text-anchor="start" x="176.5" y="-191.5" font-family="Helvetica,sans-Serif" font-size="10.00" fill="grey">  ::is_base_of_v&lt; DiskType,</text>
<text text-anchor="start" x="176.5" y="-176.5" font-family="Helvetica,sans-Serif" font-size="10.00" fill="grey">   ActTrait &gt; &gt; &gt;</text>
</g>
<!-- Node4 -->
<g id="Node000004" class="node">
<title>Node4</title>
<g id="a_Node000004"><a xlink:href="classkynema__sgf_1_1actuator_1_1ops_1_1_act_src_op_3_01_act_trait_00_01_act_src_disk_00_01std_1_447bd02f6c910383ef6e444e74c1f851.html" target="_top" xlink:title=" ">
<polygon fill="white" stroke="#666666" points="513.5,-122 351.5,-122 351.5,-59 513.5,-59 513.5,-122"/>
<text text-anchor="start" x="359.5" y="-110" font-family="Helvetica,sans-Serif" font-size="10.00">kynema_sgf::actuator</text>
<text text-anchor="start" x="359.5" y="-99" font-family="Helvetica,sans-Serif" font-size="10.00">::ops::ActSrcOp&lt; ActTrait,</text>
<text text-anchor="start" x="359.5" y="-88" font-family="Helvetica,sans-Serif" font-size="10.00"> ActSrcDisk, std::enable</text>
<text text-anchor="start" x="359.5" y="-77" font-family="Helvetica,sans-Serif" font-size="10.00">_if_t&lt; std::is_base_of_v</text>
<text text-anchor="middle" x="432.5" y="-66" font-family="Helvetica,sans-Serif" font-size="10.00">&lt; TurbineType, ActTrait &gt; &gt; &gt;</text>
</a>
</g>
</g>
<!-- Node1&#45;&gt;Node4 -->
<g id="edge3_Node000001_Node000004" class="edge">
<title>Node1&#45;&gt;Node4</title>
<g id="a_edge3_Node000001_Node000004"><a xlink:title=" ">
<path fill="none" stroke="orange" stroke-dasharray="5,2" d="M115.49,-107.35C129.02,-100.88 144.24,-94.82 159,-91.5 222.58,-77.22 296.64,-78.02 351.49,-81.8"/>
<polygon fill="orange" stroke="orange" points="113.82,-104.28 106.43,-111.87 116.94,-110.54 113.82,-104.28"/>
</a>
</g>
<text text-anchor="start" x="169.5" y="-142.5" font-family="Helvetica,sans-Serif" font-size="10.00" fill="grey">&lt; ActTrait, ActSrcDisk,</text>
<text text-anchor="start" x="169.5" y="-127.5" font-family="Helvetica,sans-Serif" font-size="10.00" fill="grey">   std::enable_if_t&lt; std</text>
<text text-anchor="start" x="169.5" y="-112.5" font-family="Helvetica,sans-Serif" font-size="10.00" fill="grey">  ::is_base_of_v&lt; TurbineType,</text>
<text text-anchor="start" x="169.5" y="-97.5" font-family="Helvetica,sans-Serif" font-size="10.00" fill="grey">   ActTrait &gt; &gt; &gt;</text>
</g>
<!-- Node5 -->
<g id="Node000005" class="node">
<title>Node5</title>
<g id="a_Node000005"><a xlink:href="classkynema__sgf_1_1actuator_1_1ops_1_1_act_src_op_3_01_act_trait_00_01_act_src_line_01_4.html" target="_top" xlink:title=" ">
<polygon fill="white" stroke="#666666" points="503,-41 362,-41 362,0 503,0 503,-41"/>
<text text-anchor="start" x="370" y="-29" font-family="Helvetica,sans-Serif" font-size="10.00">kynema_sgf::actuator</text>
<text text-anchor="start" x="370" y="-18" font-family="Helvetica,sans-Serif" font-size="10.00">::ops::ActSrcOp&lt; ActTrait,</text>
<text text-anchor="middle" x="432.5" y="-7" font-family="Helvetica,sans-Serif" font-size="10.00"> ActSrcLine &gt;</text>
</a>
</g>
</g>
<!-- Node1&#45;&gt;Node5 -->
<g id="edge4_Node000001_Node000005" class="edge">
<title>Node1&#45;&gt;Node5</title>
<g id="a_edge4_Node000001_Node000005"><a xlink:title=" ">
<path fill="none" stroke="orange" stroke-dasharray="5,2" d="M95.99,-104.62C112.16,-88.12 134.78,-68.37 159,-57.5 223.68,-28.47 305.02,-20.67 361.92,-19.24"/>
<polygon fill="orange" stroke="orange" points="93.39,-102.28 89.03,-111.93 98.46,-107.1 93.39,-102.28"/>
</a>
</g>
<text text-anchor="start" x="185.5" y="-63" font-family="Helvetica,sans-Serif" font-size="10.00" fill="grey">&lt; ActTrait, ActSrcLine &gt;</text>
</g>
</g>
</svg>

<g id="navigator" transform="translate(0 0)" fill="#404254">
  <rect fill="#f2f5e9" fill-opacity="0.5" stroke="#606060" stroke-width=".5" x="0" y="0" width="60" height="60"/>
  <use id="zoomplus" xlink:href="#zoomPlus" x="17" y="9" onmousedown="handleZoom(evt,'in')"/>
  <use id="zoomminus" xlink:href="#zoomMin" x="42" y="9" onmousedown="handleZoom(evt,'out')"/>
  <use id="reset" xlink:href="#resetDef" x="30" y="36" onmousedown="handleReset()"/>
   <use id="arrowup" xlink:href="#arrowUp" x="0" y="0" onmousedown="handlePan(0,-1)"/>
  <use id="arrowright" xlink:href="#arrowRight" x="0" y="0" onmousedown="handlePan(1,0)"/>
  <use id="arrowdown" xlink:href="#arrowDown" x="0" y="0" onmousedown="handlePan(0,1)"/>
  <use id="arrowleft" xlink:href="#arrowLeft" x="0" y="0" onmousedown="handlePan(-1,0)"/>
</g>
<svg viewBox="0 0 15 15" width="100%" height="30px" preserveAspectRatio="xMaxYMin meet">
 <g id="arrow_out" transform="scale(0.3 0.3)">
  <a xlink:href="classkynema__sgf_1_1actuator_1_1ops_1_1_act_src_op__inherit__graph_org.svg" target="_base">
   <rect id="button" ry="5" rx="5" y="6" x="6" height="38" width="38"
        fill="#f2f5e9" fill-opacity="0.5" stroke="#606060" stroke-width="1.0"/>
   <path id="arrow"
     d="M 11.500037,31.436501 C 11.940474,20.09759 22.043105,11.32322 32.158766,21.979434 L 37.068811,17.246167 C 37.068811,17.246167 37.088388,32 37.088388,32 L 22.160133,31.978069 C 22.160133,31.978069 26.997745,27.140456 26.997745,27.140456 C 18.528582,18.264221 13.291696,25.230495 11.500037,31.436501 z"
     style="fill:#404040;"/>
  </a>
 </g>
</svg>

<style type='text/css'>
<![CDATA[
[data-mouse-over-selected='false'] { opacity: 0.7; }
[data-mouse-over-selected='true']  { opacity: 1.0; }
]]>
</style>
<script type="application/ecmascript"><![CDATA[
document.addEventListener('DOMContentLoaded', (event) => {
  highlightEdges();
  highlightAdjacentNodes();
});
]]></script>
</svg>
