<?xml version="1.0" encoding="UTF-8" standalone="no"?>
<!DOCTYPE svg PUBLIC "-//W3C//DTD SVG 1.1//EN"
 "http://www.w3.org/Graphics/SVG/1.1/DTD/svg11.dtd">
<!-- Generated by graphviz version 2.43.0 (0)
 -->
<!-- Title: kynema_sgf::pde::DiffSolverIface&lt; LinOp &gt; Pages: 1 -->
<!--zoomable 364 -->

<svg id="main" version="1.1" xmlns="http://www.w3.org/2000/svg" xmlns:xlink="http://www.w3.org/1999/xlink" xml:space="preserve" onload="init(evt)">

<style type="text/css"><![CDATA[
.node, .edge {opacity: 0.7;}
.node.selected, .edge.selected {opacity: 1;}
.edge:hover path { stroke: red; }
.edge:hover polygon { stroke: red; fill: red; }
]]></style>

<defs>
  <circle id="rim" cx="0" cy="0" r="7"/>
  <circle id="rim2" cx="0" cy="0" r="3.5"/>
  <g id="zoomPlus">
    <use xlink:href="#rim" fill="#404040"><set attributeName="fill" to="#808080" begin="zoomplus.mouseover" end="zoomplus.mouseout"/></use>
    <path d="M-4,0h8M0,-4v8" fill="none" stroke="white" stroke-width="1.5" pointer-events="none"/>
  </g>
  <g id="zoomMin">
    <use xlink:href="#rim" fill="#404040"><set attributeName="fill" to="#808080" begin="zoomminus.mouseover" end="zoomminus.mouseout"/></use>
    <path d="M-4,0h8" fill="none" stroke="white" stroke-width="1.5" pointer-events="none"/>
  </g>
  <g id="arrowUp" transform="translate(30 24)">
    <use xlink:href="#rim"/>
    <path pointer-events="none" fill="none" stroke="white" stroke-width="1.5" d="M0,-3.0v7 M-2.5,-0.5L0,-3.0L2.5,-0.5"/>
  </g>
  <g id="arrowRight" transform="rotate(90) translate(36 -43)">
    <use xlink:href="#rim"/>
    <path pointer-events="none" fill="none" stroke="white" stroke-width="1.5" d="M0,-3.0v7 M-2.5,-0.5L0,-3.0L2.5,-0.5"/>
  </g>
  <g id="arrowDown" transform="rotate(180) translate(-30 -48)">
    <use xlink:href="#rim"/>
    <path pointer-events="none" fill="none" stroke="white" stroke-width="1.5" d="M0,-3.0v7 M-2.5,-0.5L0,-3.0L2.5,-0.5"/>
  </g>
  <g id="arrowLeft" transform="rotate(270) translate(-36 17)">
    <use xlink:href="#rim"/>
    <path pointer-events="none" fill="none" stroke="white" stroke-width="1.5" d="M0,-3.0v7 M-2.5,-0.5L0,-3.0L2.5,-0.5"/>
  </g>
  <g id="resetDef">
    <use xlink:href="#rim2" fill="#404040"><set attributeName="fill" to="#808080" begin="reset.mouseover" end="reset.mouseout"/></use>
  </g>
</defs>
<script type="application/ecmascript">
var viewWidth = 1901;
var viewHeight = 364;
var sectionId = 'dynsection-1';
</script>
<script type="application/ecmascript" xlink:href="svg.min.js"/>
<svg id="graph" class="graph">
<g id="viewport">
<title>kynema_sgf::pde::DiffSolverIface&lt; LinOp &gt;</title>
<!-- Node1 -->
<g id="Node000001" class="node">
<title>Node1</title>
<g id="a_Node000001"><a xlink:title=" ">
<polygon fill="#999999" stroke="#666666" points="1893,-224.77 1740,-224.77 1740,-194.77 1893,-194.77 1893,-224.77"/>
<text text-anchor="start" x="1748" y="-212.77" font-family="Helvetica,sans-Serif" font-size="10.00">kynema_sgf::pde::DiffSolver</text>
<text text-anchor="middle" x="1816.5" y="-201.77" font-family="Helvetica,sans-Serif" font-size="10.00">Iface&lt; LinOp &gt;</text>
</a>
</g>
</g>
<!-- Node2 -->
<g id="Node000002" class="node">
<title>Node2</title>
<g id="a_Node000002"><a xlink:href="structkynema__sgf_1_1pde_1_1_p_d_e_fields.html" target="_top" xlink:title=" ">
<polygon fill="white" stroke="#666666" points="1638,-150.27 1485,-150.27 1485,-131.27 1638,-131.27 1638,-150.27"/>
<text text-anchor="middle" x="1561.5" y="-138.27" font-family="Helvetica,sans-Serif" font-size="10.00">kynema_sgf::pde::PDEFields</text>
</a>
</g>
</g>
<!-- Node2&#45;&gt;Node1 -->
<g id="edge1_Node000001_Node000002" class="edge">
<title>Node2&#45;&gt;Node1</title>
<g id="a_edge1_Node000001_Node000002"><a xlink:title=" ">
<path fill="none" stroke="#9a32cd" stroke-dasharray="5,2" d="M1607.23,-152.97C1649.87,-164.6 1714.2,-182.14 1760.07,-194.65"/>
<polygon fill="#9a32cd" stroke="#9a32cd" points="1607.98,-149.55 1597.41,-150.29 1606.14,-156.3 1607.98,-149.55"/>
</a>
</g>
<text text-anchor="start" x="1659" y="-188.27" font-family="Helvetica,sans-Serif" font-size="10.00" fill="grey">m_pdefields</text>
</g>
<!-- Node3 -->
<g id="Node000003" class="node">
<title>Node3</title>
<g id="a_Node000003"><a xlink:href="classkynema__sgf_1_1_field_repo.html" target="_top" xlink:title=" ">
<polygon fill="white" stroke="#666666" points="1190.5,-122.27 1061.5,-122.27 1061.5,-103.27 1190.5,-103.27 1190.5,-122.27"/>
<text text-anchor="middle" x="1126" y="-110.27" font-family="Helvetica,sans-Serif" font-size="10.00">kynema_sgf::FieldRepo</text>
</a>
</g>
</g>
<!-- Node3&#45;&gt;Node2 -->
<g id="edge2_Node000002_Node000003" class="edge">
<title>Node3&#45;&gt;Node2</title>
<g id="a_edge2_Node000002_Node000003"><a xlink:title=" ">
<path fill="none" stroke="#9a32cd" stroke-dasharray="5,2" d="M1200.99,-115.54C1269.91,-118.4 1375.51,-123.46 1467,-130.77 1472.78,-131.23 1478.75,-131.76 1484.75,-132.32"/>
<polygon fill="#9a32cd" stroke="#9a32cd" points="1200.81,-112.03 1190.67,-115.12 1200.52,-119.03 1200.81,-112.03"/>
</a>
</g>
<text text-anchor="start" x="1328" y="-131.27" font-family="Helvetica,sans-Serif" font-size="10.00" fill="grey">repo</text>
</g>
<!-- Node10 -->
<g id="Node000010" class="node">
<title>Node10</title>
<g id="a_Node000010"><a xlink:href="classkynema__sgf_1_1_field.html" target="_top" xlink:title=" ">
<polygon fill="white" stroke="#666666" points="1391,-182.27 1287,-182.27 1287,-163.27 1391,-163.27 1391,-182.27"/>
<text text-anchor="middle" x="1339" y="-170.27" font-family="Helvetica,sans-Serif" font-size="10.00">kynema_sgf::Field</text>
</a>
</g>
</g>
<!-- Node3&#45;&gt;Node10 -->
<g id="edge10_Node000010_Node000003" class="edge">
<title>Node3&#45;&gt;Node10</title>
<g id="a_edge10_Node000010_Node000003"><a xlink:title=" ">
<path fill="none" stroke="#9a32cd" stroke-dasharray="5,2" d="M1198.52,-124.18C1221.32,-128.67 1246.47,-134.51 1269,-141.77 1286.75,-147.49 1306.04,-156.4 1319.7,-163.21"/>
<polygon fill="#9a32cd" stroke="#9a32cd" points="1199.05,-120.72 1188.57,-122.28 1197.74,-127.6 1199.05,-120.72"/>
</a>
</g>
<text text-anchor="start" x="1223.5" y="-147.27" font-family="Helvetica,sans-Serif" font-size="10.00" fill="grey">m_repo</text>
</g>
<!-- Node4 -->
<g id="Node000004" class="node">
<title>Node4</title>
<g id="a_Node000004"><a xlink:title=" ">
<polygon fill="white" stroke="#666666" points="870.5,-127.77 748.5,-127.77 748.5,-97.77 870.5,-97.77 870.5,-127.77"/>
<text text-anchor="start" x="756.5" y="-115.77" font-family="Helvetica,sans-Serif" font-size="10.00">std::unordered_map</text>
<text text-anchor="middle" x="809.5" y="-104.77" font-family="Helvetica,sans-Serif" font-size="10.00">&lt; std::string, size_t &gt;</text>
</a>
</g>
</g>
<!-- Node4&#45;&gt;Node3 -->
<g id="edge3_Node000003_Node000004" class="edge">
<title>Node4&#45;&gt;Node3</title>
<g id="a_edge3_Node000003_Node000004"><a xlink:title=" ">
<path fill="none" stroke="#9a32cd" stroke-dasharray="5,2" d="M880.97,-112.77C935.07,-112.77 1009.13,-112.77 1061.43,-112.77"/>
<polygon fill="#9a32cd" stroke="#9a32cd" points="880.77,-109.27 870.77,-112.77 880.77,-116.27 880.77,-109.27"/>
</a>
</g>
<text text-anchor="start" x="927.5" y="-133.77" font-family="Helvetica,sans-Serif" font-size="10.00" fill="grey">m_fid_map</text>
<text text-anchor="start" x="927.5" y="-118.77" font-family="Helvetica,sans-Serif" font-size="10.00" fill="grey">m_int_fid_map</text>
</g>
<!-- Node5 -->
<g id="Node000005" class="node">
<title>Node5</title>
<g id="a_Node000005"><a xlink:title=" ">
<polygon fill="white" stroke="#666666" points="524.5,-165.27 459.5,-165.27 459.5,-146.27 524.5,-146.27 524.5,-165.27"/>
<text text-anchor="middle" x="492" y="-153.27" font-family="Helvetica,sans-Serif" font-size="10.00">std::string</text>
</a>
</g>
</g>
<!-- Node5&#45;&gt;Node4 -->
<g id="edge4_Node000004_Node000005" class="edge">
<title>Node5&#45;&gt;Node4</title>
<g id="a_edge4_Node000004_Node000005"><a xlink:title=" ">
<path fill="none" stroke="#9a32cd" stroke-dasharray="5,2" d="M535.08,-149.59C552.13,-147.12 572,-144.26 590,-141.77 643.45,-134.37 704.3,-126.32 748.19,-120.59"/>
<polygon fill="#9a32cd" stroke="#9a32cd" points="534.27,-146.17 524.88,-151.08 535.28,-153.1 534.27,-146.17"/>
</a>
</g>
<text text-anchor="start" x="649" y="-147.27" font-family="Helvetica,sans-Serif" font-size="10.00" fill="grey">keys</text>
</g>
<!-- Node5&#45;&gt;Node10 -->
<g id="edge11_Node000010_Node000005" class="edge">
<title>Node5&#45;&gt;Node10</title>
<g id="a_edge11_Node000010_Node000005"><a xlink:title=" ">
<path fill="none" stroke="#9a32cd" stroke-dasharray="5,2" d="M535.1,-157.18C552.14,-157.73 572.01,-158.32 590,-158.77 851.96,-165.27 1165.59,-170.22 1286.76,-172.03"/>
<polygon fill="#9a32cd" stroke="#9a32cd" points="535,-153.68 524.89,-156.85 534.77,-160.68 535,-153.68"/>
</a>
</g>
<text text-anchor="start" x="942.5" y="-173.27" font-family="Helvetica,sans-Serif" font-size="10.00" fill="grey">m_name</text>
</g>
<!-- Node12 -->
<g id="Node000012" class="node">
<title>Node12</title>
<g id="a_Node000012"><a xlink:href="structkynema__sgf_1_1_field_info.html" target="_top" xlink:title=" ">
<polygon fill="white" stroke="#666666" points="871,-240.27 748,-240.27 748,-221.27 871,-221.27 871,-240.27"/>
<text text-anchor="middle" x="809.5" y="-228.27" font-family="Helvetica,sans-Serif" font-size="10.00">kynema_sgf::FieldInfo</text>
</a>
</g>
</g>
<!-- Node5&#45;&gt;Node12 -->
<g id="edge14_Node000012_Node000005" class="edge">
<title>Node5&#45;&gt;Node12</title>
<g id="a_edge14_Node000012_Node000005"><a xlink:title=" ">
<path fill="none" stroke="#9a32cd" stroke-dasharray="5,2" d="M533.63,-168.25C550.93,-173.37 571.37,-179.16 590,-183.77 651.68,-199.04 667.92,-199.22 730,-212.77 742.29,-215.45 755.65,-218.47 767.79,-221.26"/>
<polygon fill="#9a32cd" stroke="#9a32cd" points="534.44,-164.84 523.85,-165.33 532.43,-171.55 534.44,-164.84"/>
</a>
</g>
<text text-anchor="start" x="627" y="-218.27" font-family="Helvetica,sans-Serif" font-size="10.00" fill="grey">m_basename</text>
</g>
<!-- Node17 -->
<g id="Node000017" class="node">
<title>Node17</title>
<g id="a_Node000017"><a xlink:href="structkynema__sgf_1_1_m_l_m_g_options.html" target="_top" xlink:title=" ">
<polygon fill="white" stroke="#666666" points="1038,-52.27 889,-52.27 889,-33.27 1038,-33.27 1038,-52.27"/>
<text text-anchor="middle" x="963.5" y="-40.27" font-family="Helvetica,sans-Serif" font-size="10.00">kynema_sgf::MLMGOptions</text>
</a>
</g>
</g>
<!-- Node5&#45;&gt;Node17 -->
<g id="edge23_Node000017_Node000005" class="edge">
<title>Node5&#45;&gt;Node17</title>
<g id="a_edge23_Node000017_Node000005"><a xlink:title=" ">
<path fill="none" stroke="#9a32cd" stroke-dasharray="5,2" d="M534.6,-147.65C548.26,-143.05 562.38,-135.89 572,-124.77 595,-98.19 562.61,-69.8 590,-47.77 693.07,35.12 869.17,-11.23 935.85,-33.23"/>
<polygon fill="#9a32cd" stroke="#9a32cd" points="533.4,-144.35 524.82,-150.56 535.4,-151.06 533.4,-144.35"/>
</a>
</g>
<text text-anchor="start" x="604" y="-83.27" font-family="Helvetica,sans-Serif" font-size="10.00" fill="grey">m_bottom_solver_type</text>
<text text-anchor="start" x="604" y="-68.27" font-family="Helvetica,sans-Serif" font-size="10.00" fill="grey">m_hypre_interface</text>
<text text-anchor="start" x="604" y="-53.27" font-family="Helvetica,sans-Serif" font-size="10.00" fill="grey">m_hypre_namespace</text>
</g>
<!-- Node6 -->
<g id="Node000006" class="node">
<title>Node6</title>
<g id="a_Node000006"><a xlink:title=" ">
<polygon fill="white" stroke="#666666" points="209.5,-170.77 105.5,-170.77 105.5,-140.77 209.5,-140.77 209.5,-170.77"/>
<text text-anchor="start" x="113.5" y="-158.77" font-family="Helvetica,sans-Serif" font-size="10.00">std::basic_string&lt;</text>
<text text-anchor="middle" x="157.5" y="-147.77" font-family="Helvetica,sans-Serif" font-size="10.00"> Char &gt;</text>
</a>
</g>
</g>
<!-- Node6&#45;&gt;Node5 -->
<g id="edge5_Node000005_Node000006" class="edge">
<title>Node6&#45;&gt;Node5</title>
<g id="a_edge5_Node000005_Node000006"><a xlink:title=" ">
<path fill="none" stroke="#63b8ff" d="M219.85,-155.77C290.64,-155.77 404.34,-155.77 459.27,-155.77"/>
<polygon fill="#63b8ff" stroke="#63b8ff" points="219.72,-152.27 209.72,-155.77 219.72,-159.27 219.72,-152.27"/>
</a>
</g>
</g>
<!-- Node7 -->
<g id="Node000007" class="node">
<title>Node7</title>
<g id="a_Node000007"><a xlink:title=" ">
<polygon fill="white" stroke="#666666" points="549,-115.77 435,-115.77 435,-85.77 549,-85.77 549,-115.77"/>
<text text-anchor="start" x="443" y="-103.77" font-family="Helvetica,sans-Serif" font-size="10.00">std::unordered_map</text>
<text text-anchor="middle" x="492" y="-92.77" font-family="Helvetica,sans-Serif" font-size="10.00">&lt; K, T &gt;</text>
</a>
</g>
</g>
<!-- Node7&#45;&gt;Node4 -->
<g id="edge6_Node000004_Node000007" class="edge">
<title>Node7&#45;&gt;Node4</title>
<g id="a_edge6_Node000004_Node000007"><a xlink:title=" ">
<path fill="none" stroke="orange" stroke-dasharray="5,2" d="M559.28,-98.66C606.85,-97.73 672.46,-97.64 730,-101.77 735.9,-102.19 742.04,-102.79 748.16,-103.48"/>
<polygon fill="orange" stroke="orange" points="559.03,-95.17 549.11,-98.88 559.18,-102.16 559.03,-95.17"/>
</a>
</g>
<text text-anchor="start" x="607" y="-107.27" font-family="Helvetica,sans-Serif" font-size="10.00" fill="grey">&lt; std::string, size_t &gt;</text>
</g>
<!-- Node8 -->
<g id="Node000008" class="node">
<title>Node8</title>
<g id="a_Node000008"><a xlink:title=" ">
<polygon fill="white" stroke="#666666" points="172,-122.27 143,-122.27 143,-103.27 172,-103.27 172,-122.27"/>
<text text-anchor="middle" x="157.5" y="-110.27" font-family="Helvetica,sans-Serif" font-size="10.00">K</text>
</a>
</g>
</g>
<!-- Node8&#45;&gt;Node7 -->
<g id="edge7_Node000007_Node000008" class="edge">
<title>Node8&#45;&gt;Node7</title>
<g id="a_edge7_Node000007_Node000008"><a xlink:title=" ">
<path fill="none" stroke="#9a32cd" stroke-dasharray="5,2" d="M182.38,-111.91C234.77,-110.02 361.02,-105.46 434.8,-102.8"/>
<polygon fill="#9a32cd" stroke="#9a32cd" points="182.23,-108.41 172.36,-112.27 182.48,-115.41 182.23,-108.41"/>
</a>
</g>
<text text-anchor="start" x="310" y="-115.27" font-family="Helvetica,sans-Serif" font-size="10.00" fill="grey">keys</text>
</g>
<!-- Node9 -->
<g id="Node000009" class="node">
<title>Node9</title>
<g id="a_Node000009"><a xlink:title=" ">
<polygon fill="white" stroke="#666666" points="29,-274.27 0,-274.27 0,-255.27 29,-255.27 29,-274.27"/>
<text text-anchor="middle" x="14.5" y="-262.27" font-family="Helvetica,sans-Serif" font-size="10.00">T</text>
</a>
</g>
</g>
<!-- Node9&#45;&gt;Node7 -->
<g id="edge8_Node000007_Node000009" class="edge">
<title>Node9&#45;&gt;Node7</title>
<g id="a_edge8_Node000007_Node000009"><a xlink:title=" ">
<path fill="none" stroke="#9a32cd" stroke-dasharray="5,2" d="M15.94,-245.12C18.01,-205.34 29,-115.77 85,-76.77 200.16,3.43 381.22,-55.36 456.45,-85.67"/>
<polygon fill="#9a32cd" stroke="#9a32cd" points="12.44,-245.01 15.55,-255.14 19.43,-245.28 12.44,-245.01"/>
</a>
</g>
<text text-anchor="start" x="134.5" y="-82.27" font-family="Helvetica,sans-Serif" font-size="10.00" fill="grey">elements</text>
</g>
<!-- Node15 -->
<g id="Node000015" class="node">
<title>Node15</title>
<g id="a_Node000015"><a xlink:title=" ">
<polygon fill="white" stroke="#666666" points="216.5,-314.27 98.5,-314.27 98.5,-295.27 216.5,-295.27 216.5,-314.27"/>
<text text-anchor="middle" x="157.5" y="-302.27" font-family="Helvetica,sans-Serif" font-size="10.00">std::unique_ptr&lt; T &gt;</text>
</a>
</g>
</g>
<!-- Node9&#45;&gt;Node15 -->
<g id="edge18_Node000015_Node000009" class="edge">
<title>Node9&#45;&gt;Node15</title>
<g id="a_edge18_Node000015_Node000009"><a xlink:title=" ">
<path fill="none" stroke="#9a32cd" stroke-dasharray="5,2" d="M38.07,-278.8C41.01,-280.28 44.03,-281.66 47,-282.77 63.25,-288.86 81.52,-293.38 98.41,-296.69"/>
<polygon fill="#9a32cd" stroke="#9a32cd" points="39.58,-275.63 29.14,-273.84 36.18,-281.75 39.58,-275.63"/>
</a>
</g>
<text text-anchor="start" x="50" y="-293.27" font-family="Helvetica,sans-Serif" font-size="10.00" fill="grey">ptr</text>
</g>
<!-- Node16 -->
<g id="Node000016" class="node">
<title>Node16</title>
<g id="a_Node000016"><a xlink:title=" ">
<polygon fill="white" stroke="#666666" points="380,-300.27 262,-300.27 262,-281.27 380,-281.27 380,-300.27"/>
<text text-anchor="middle" x="321" y="-288.27" font-family="Helvetica,sans-Serif" font-size="10.00">std::shared_ptr&lt; T &gt;</text>
</a>
</g>
</g>
<!-- Node9&#45;&gt;Node16 -->
<g id="edge20_Node000016_Node000009" class="edge">
<title>Node9&#45;&gt;Node16</title>
<g id="a_edge20_Node000016_Node000009"><a xlink:title=" ">
<path fill="none" stroke="#9a32cd" stroke-dasharray="5,2" d="M39.44,-262.25C41.99,-262.05 44.55,-261.89 47,-261.77 55.88,-261.35 58.13,-261.26 67,-261.77 134.09,-265.6 210.7,-275.11 261.88,-282.2"/>
<polygon fill="#9a32cd" stroke="#9a32cd" points="38.92,-258.78 29.28,-263.17 39.55,-265.76 38.92,-258.78"/>
</a>
</g>
<text text-anchor="start" x="50" y="-267.27" font-family="Helvetica,sans-Serif" font-size="10.00" fill="grey">ptr</text>
</g>
<!-- Node10&#45;&gt;Node1 -->
<g id="edge21_Node000001_Node000010" class="edge">
<title>Node10&#45;&gt;Node1</title>
<g id="a_edge21_Node000001_Node000010"><a xlink:title=" ">
<path fill="none" stroke="#9a32cd" stroke-dasharray="5,2" d="M1357.93,-189.07C1371.03,-199.82 1389.78,-212.95 1409,-218.77 1521.49,-252.83 1659.61,-238.78 1742.43,-224.79"/>
<polygon fill="#9a32cd" stroke="#9a32cd" points="1360.07,-186.3 1350.2,-182.46 1355.52,-191.62 1360.07,-186.3"/>
</a>
</g>
<text text-anchor="start" x="1535.5" y="-245.27" font-family="Helvetica,sans-Serif" font-size="10.00" fill="grey">m_density</text>
</g>
<!-- Node10&#45;&gt;Node2 -->
<g id="edge9_Node000002_Node000010" class="edge">
<title>Node10&#45;&gt;Node2</title>
<g id="a_edge9_Node000002_Node000010"><a xlink:title=" ">
<path fill="none" stroke="#9a32cd" stroke-dasharray="5,2" d="M1365.1,-158.45C1377.82,-152 1393.76,-145.09 1409,-141.77 1433.29,-136.48 1460.29,-134.96 1484.69,-135.15"/>
<polygon fill="#9a32cd" stroke="#9a32cd" points="1363.27,-155.46 1356.07,-163.23 1366.54,-161.65 1363.27,-155.46"/>
</a>
</g>
<text text-anchor="start" x="1412" y="-207.27" font-family="Helvetica,sans-Serif" font-size="10.00" fill="grey">conv_term</text>
<text text-anchor="start" x="1412" y="-192.27" font-family="Helvetica,sans-Serif" font-size="10.00" fill="grey">diff_term</text>
<text text-anchor="start" x="1412" y="-177.27" font-family="Helvetica,sans-Serif" font-size="10.00" fill="grey">field</text>
<text text-anchor="start" x="1412" y="-162.27" font-family="Helvetica,sans-Serif" font-size="10.00" fill="grey">mueff</text>
<text text-anchor="start" x="1412" y="-147.27" font-family="Helvetica,sans-Serif" font-size="10.00" fill="grey">src_term</text>
</g>
<!-- Node11 -->
<g id="Node000011" class="node">
<title>Node11</title>
<g id="a_Node000011"><a xlink:title=" ">
<polygon fill="white" stroke="#666666" points="1196,-245.77 1056,-245.77 1056,-215.77 1196,-215.77 1196,-245.77"/>
<text text-anchor="start" x="1064" y="-233.77" font-family="Helvetica,sans-Serif" font-size="10.00">std::shared_ptr&lt; kynema</text>
<text text-anchor="middle" x="1126" y="-222.77" font-family="Helvetica,sans-Serif" font-size="10.00">_sgf::FieldInfo &gt;</text>
</a>
</g>
</g>
<!-- Node11&#45;&gt;Node10 -->
<g id="edge12_Node000010_Node000011" class="edge">
<title>Node11&#45;&gt;Node10</title>
<g id="a_edge12_Node000010_Node000011"><a xlink:title=" ">
<path fill="none" stroke="#9a32cd" stroke-dasharray="5,2" d="M1191.27,-213.1C1228.06,-202.99 1272.8,-190.69 1303.13,-182.36"/>
<polygon fill="#9a32cd" stroke="#9a32cd" points="1190.33,-209.73 1181.61,-215.76 1192.18,-216.48 1190.33,-209.73"/>
</a>
</g>
<text text-anchor="start" x="1224.5" y="-210.27" font-family="Helvetica,sans-Serif" font-size="10.00" fill="grey">m_info</text>
</g>
<!-- Node12&#45;&gt;Node11 -->
<g id="edge13_Node000011_Node000012" class="edge">
<title>Node12&#45;&gt;Node11</title>
<g id="a_edge13_Node000011_Node000012"><a xlink:title=" ">
<path fill="none" stroke="#9a32cd" stroke-dasharray="5,2" d="M881.31,-230.77C933.46,-230.77 1004.02,-230.77 1055.79,-230.77"/>
<polygon fill="#9a32cd" stroke="#9a32cd" points="881.14,-227.27 871.14,-230.77 881.14,-234.27 881.14,-227.27"/>
</a>
</g>
<text text-anchor="start" x="956.5" y="-236.27" font-family="Helvetica,sans-Serif" font-size="10.00" fill="grey">ptr</text>
</g>
<!-- Node13 -->
<g id="Node000013" class="node">
<title>Node13</title>
<g id="a_Node000013"><a xlink:title=" ">
<polygon fill="white" stroke="#666666" points="572,-257.77 412,-257.77 412,-227.77 572,-227.77 572,-257.77"/>
<text text-anchor="start" x="420" y="-245.77" font-family="Helvetica,sans-Serif" font-size="10.00">std::unique_ptr&lt; kynema</text>
<text text-anchor="middle" x="492" y="-234.77" font-family="Helvetica,sans-Serif" font-size="10.00">_sgf::FieldFillPatchOpsBase &gt;</text>
</a>
</g>
</g>
<!-- Node13&#45;&gt;Node12 -->
<g id="edge15_Node000012_Node000013" class="edge">
<title>Node13&#45;&gt;Node12</title>
<g id="a_edge15_Node000012_Node000013"><a xlink:title=" ">
<path fill="none" stroke="#9a32cd" stroke-dasharray="5,2" d="M582.28,-239.37C635.25,-237.36 700.99,-234.86 747.93,-233.07"/>
<polygon fill="#9a32cd" stroke="#9a32cd" points="582.07,-235.88 572.21,-239.76 582.33,-242.88 582.07,-235.88"/>
</a>
</g>
<text text-anchor="start" x="624" y="-244.27" font-family="Helvetica,sans-Serif" font-size="10.00" fill="grey">m_fillpatch_op</text>
</g>
<!-- Node14 -->
<g id="Node000014" class="node">
<title>Node14</title>
<g id="a_Node000014"><a xlink:href="classkynema__sgf_1_1_field_fill_patch_ops_base.html" target="_top" xlink:title=" ">
<polygon fill="white" stroke="#666666" points="230,-218.77 85,-218.77 85,-188.77 230,-188.77 230,-218.77"/>
<text text-anchor="start" x="93" y="-206.77" font-family="Helvetica,sans-Serif" font-size="10.00">kynema_sgf::FieldFillPatch</text>
<text text-anchor="middle" x="157.5" y="-195.77" font-family="Helvetica,sans-Serif" font-size="10.00">OpsBase</text>
</a>
</g>
</g>
<!-- Node14&#45;&gt;Node13 -->
<g id="edge16_Node000013_Node000014" class="edge">
<title>Node14&#45;&gt;Node13</title>
<g id="a_edge16_Node000013_Node000014"><a xlink:title=" ">
<path fill="none" stroke="#9a32cd" stroke-dasharray="5,2" d="M240.15,-196.79C285.8,-194.71 343.5,-195.12 394,-204.77 417.27,-209.22 442.13,-219.06 460.85,-227.62"/>
<polygon fill="#9a32cd" stroke="#9a32cd" points="239.82,-193.3 230,-197.3 240.17,-200.29 239.82,-193.3"/>
</a>
</g>
<text text-anchor="start" x="314" y="-210.27" font-family="Helvetica,sans-Serif" font-size="10.00" fill="grey">ptr</text>
</g>
<!-- Node15&#45;&gt;Node13 -->
<g id="edge17_Node000013_Node000015" class="edge">
<title>Node15&#45;&gt;Node13</title>
<g id="a_edge17_Node000013_Node000015"><a xlink:title=" ">
<path fill="none" stroke="orange" stroke-dasharray="5,2" d="M175.13,-287.9C191.86,-272.24 219.24,-250 248,-240.77 300.83,-223.83 363.5,-224.82 411.97,-229.79"/>
<polygon fill="orange" stroke="orange" points="172.57,-285.51 167.81,-294.98 177.44,-290.54 172.57,-285.51"/>
</a>
</g>
<text text-anchor="start" x="251" y="-261.77" font-family="Helvetica,sans-Serif" font-size="10.00" fill="grey">&lt; kynema_sgf::FieldFillPatch</text>
<text text-anchor="start" x="251" y="-246.77" font-family="Helvetica,sans-Serif" font-size="10.00" fill="grey">  OpsBase &gt;</text>
</g>
<!-- Node18 -->
<g id="Node000018" class="node">
<title>Node18</title>
<g id="a_Node000018"><a xlink:title=" ">
<polygon fill="white" stroke="#666666" points="730,-333.27 590,-333.27 590,-314.27 730,-314.27 730,-333.27"/>
<text text-anchor="middle" x="660" y="-321.27" font-family="Helvetica,sans-Serif" font-size="10.00">std::unique_ptr&lt; LinOp &gt;</text>
</a>
</g>
</g>
<!-- Node15&#45;&gt;Node18 -->
<g id="edge25_Node000018_Node000015" class="edge">
<title>Node15&#45;&gt;Node18</title>
<g id="a_edge25_Node000018_Node000015"><a xlink:title=" ">
<path fill="none" stroke="orange" stroke-dasharray="5,2" d="M227,-307.37C322.34,-310.99 494.07,-317.51 589.79,-321.14"/>
<polygon fill="orange" stroke="orange" points="227.02,-303.87 216.89,-306.99 226.75,-310.86 227.02,-303.87"/>
</a>
</g>
<text text-anchor="start" x="296" y="-318.27" font-family="Helvetica,sans-Serif" font-size="10.00" fill="grey">&lt; LinOp &gt;</text>
</g>
<!-- Node16&#45;&gt;Node11 -->
<g id="edge19_Node000011_Node000016" class="edge">
<title>Node16&#45;&gt;Node11</title>
<g id="a_edge19_Node000011_Node000016"><a xlink:title=" ">
<path fill="none" stroke="orange" stroke-dasharray="5,2" d="M390.41,-291.18C518.3,-291.03 802.05,-286.38 1038,-251.77 1048.15,-250.28 1058.84,-248.17 1069.13,-245.84"/>
<polygon fill="orange" stroke="orange" points="390.36,-287.68 380.36,-291.18 390.36,-294.68 390.36,-287.68"/>
</a>
</g>
<text text-anchor="start" x="595" y="-292.27" font-family="Helvetica,sans-Serif" font-size="10.00" fill="grey">&lt; kynema_sgf::FieldInfo &gt;</text>
</g>
<!-- Node17&#45;&gt;Node1 -->
<g id="edge22_Node000001_Node000017" class="edge">
<title>Node17&#45;&gt;Node1</title>
<g id="a_edge22_Node000001_Node000017"><a xlink:title=" ">
<path fill="none" stroke="#9a32cd" stroke-dasharray="5,2" d="M1048,-45.53C1102.74,-47.11 1175.87,-48.77 1240.5,-48.77 1240.5,-48.77 1240.5,-48.77 1562.5,-48.77 1670.53,-48.77 1769.65,-154.55 1803.33,-194.62"/>
<polygon fill="#9a32cd" stroke="#9a32cd" points="1048.1,-42.03 1038,-45.24 1047.89,-49.03 1048.1,-42.03"/>
</a>
</g>
<text text-anchor="start" x="1313" y="-54.27" font-family="Helvetica,sans-Serif" font-size="10.00" fill="grey">m_options</text>
</g>
<!-- Node18&#45;&gt;Node1 -->
<g id="edge24_Node000001_Node000018" class="edge">
<title>Node18&#45;&gt;Node1</title>
<g id="a_edge24_Node000001_Node000018"><a xlink:title=" ">
<path fill="none" stroke="#9a32cd" stroke-dasharray="5,2" d="M740.45,-323.77C801.24,-323.77 887.16,-323.77 962.5,-323.77 962.5,-323.77 962.5,-323.77 1562.5,-323.77 1657.65,-323.77 1756.57,-255.92 1796.81,-224.91"/>
<polygon fill="#9a32cd" stroke="#9a32cd" points="740.15,-320.27 730.15,-323.77 740.15,-327.27 740.15,-320.27"/>
</a>
</g>
<text text-anchor="start" x="1217.5" y="-344.77" font-family="Helvetica,sans-Serif" font-size="10.00" fill="grey">m_applier</text>
<text text-anchor="start" x="1217.5" y="-329.77" font-family="Helvetica,sans-Serif" font-size="10.00" fill="grey">m_solver</text>
</g>
</g>
</svg>

<g id="navigator" transform="translate(0 0)" fill="#404254">
  <rect fill="#f2f5e9" fill-opacity="0.5" stroke="#606060" stroke-width=".5" x="0" y="0" width="60" height="60"/>
  <use id="zoomplus" xlink:href="#zoomPlus" x="17" y="9" onmousedown="handleZoom(evt,'in')"/>
  <use id="zoomminus" xlink:href="#zoomMin" x="42" y="9" onmousedown="handleZoom(evt,'out')"/>
  <use id="reset" xlink:href="#resetDef" x="30" y="36" onmousedown="handleReset()"/>
   <use id="arrowup" xlink:href="#arrowUp" x="0" y="0" onmousedown="handlePan(0,-1)"/>
  <use id="arrowright" xlink:href="#arrowRight" x="0" y="0" onmousedown="handlePan(1,0)"/>
  <use id="arrowdown" xlink:href="#arrowDown" x="0" y="0" onmousedown="handlePan(0,1)"/>
  <use id="arrowleft" xlink:href="#arrowLeft" x="0" y="0" onmousedown="handlePan(-1,0)"/>
</g>
<svg viewBox="0 0 15 15" width="100%" height="30px" preserveAspectRatio="xMaxYMin meet">
 <g id="arrow_out" transform="scale(0.3 0.3)">
  <a xlink:href="classkynema__sgf_1_1pde_1_1_diff_solver_iface__coll__graph_org.svg" target="_base">
   <rect id="button" ry="5" rx="5" y="6" x="6" height="38" width="38"
        fill="#f2f5e9" fill-opacity="0.5" stroke="#606060" stroke-width="1.0"/>
   <path id="arrow"
     d="M 11.500037,31.436501 C 11.940474,20.09759 22.043105,11.32322 32.158766,21.979434 L 37.068811,17.246167 C 37.068811,17.246167 37.088388,32 37.088388,32 L 22.160133,31.978069 C 22.160133,31.978069 26.997745,27.140456 26.997745,27.140456 C 18.528582,18.264221 13.291696,25.230495 11.500037,31.436501 z"
     style="fill:#404040;"/>
  </a>
 </g>
</svg>

<style type='text/css'>
<![CDATA[
[data-mouse-over-selected='false'] { opacity: 0.7; }
[data-mouse-over-selected='true']  { opacity: 1.0; }
]]>
</style>
<script type="application/ecmascript"><![CDATA[
document.addEventListener('DOMContentLoaded', (event) => {
  highlightEdges();
  highlightAdjacentNodes();
});
]]></script>
</svg>
