<?xml version="1.0" encoding="UTF-8" standalone="no"?>
<!DOCTYPE svg PUBLIC "-//W3C//DTD SVG 1.1//EN"
 "http://www.w3.org/Graphics/SVG/1.1/DTD/svg11.dtd">
<!-- Generated by graphviz version 2.43.0 (0)
 -->
<!-- Title: kynema_sgf::pde::icns::GeostrophicForcing Pages: 1 -->
<svg width="1636pt" height="391pt"
 viewBox="0.00 0.00 1636.00 391.00" xmlns="http://www.w3.org/2000/svg" xmlns:xlink="http://www.w3.org/1999/xlink">
<g id="graph0" class="graph" transform="scale(1 1) rotate(0) translate(4 387)">
<title>kynema_sgf::pde::icns::GeostrophicForcing</title>
<!-- Node1 -->
<g id="Node000001" class="node">
<title>Node1</title>
<g id="a_Node000001"><a xlink:title=" ">
<polygon fill="#999999" stroke="#666666" points="1628,-305.5 1503,-305.5 1503,-275.5 1628,-275.5 1628,-305.5"/>
<text text-anchor="start" x="1511" y="-293.5" font-family="Helvetica,sans-Serif" font-size="10.00">kynema_sgf::pde::icns</text>
<text text-anchor="middle" x="1565.5" y="-282.5" font-family="Helvetica,sans-Serif" font-size="10.00">::GeostrophicForcing</text>
</a>
</g>
</g>
<!-- Node2 -->
<g id="Node000002" class="node">
<title>Node2</title>
<g id="a_Node000002"><a xlink:title=" ">
<polygon fill="white" stroke="#666666" points="1430,-383 1281,-383 1281,-342 1430,-342 1430,-383"/>
<text text-anchor="start" x="1289" y="-371" font-family="Helvetica,sans-Serif" font-size="10.00">kynema_sgf::Factory</text>
<text text-anchor="start" x="1289" y="-360" font-family="Helvetica,sans-Serif" font-size="10.00">&lt; MomentumSource, const</text>
<text text-anchor="middle" x="1355.5" y="-349" font-family="Helvetica,sans-Serif" font-size="10.00"> CFDSim &amp; &gt;::Register</text>
</a>
</g>
</g>
<!-- Node2&#45;&gt;Node1 -->
<g id="edge1_Node000001_Node000002" class="edge">
<title>Node2&#45;&gt;Node1</title>
<g id="a_edge1_Node000001_Node000002"><a xlink:title=" ">
<path fill="none" stroke="#63b8ff" d="M1440.07,-341.95C1455.17,-337.62 1470.66,-332.75 1485,-327.5 1502.01,-321.28 1520.39,-312.84 1535.18,-305.6"/>
<polygon fill="#63b8ff" stroke="#63b8ff" points="1438.91,-338.64 1430.23,-344.72 1440.8,-345.38 1438.91,-338.64"/>
</a>
</g>
</g>
<!-- Node3 -->
<g id="Node000003" class="node">
<title>Node3</title>
<g id="a_Node000003"><a xlink:href="classkynema__sgf_1_1_sim_time.html" target="_top" xlink:title=" ">
<polygon fill="white" stroke="#666666" points="1043,-321 918,-321 918,-302 1043,-302 1043,-321"/>
<text text-anchor="middle" x="980.5" y="-309" font-family="Helvetica,sans-Serif" font-size="10.00">kynema_sgf::SimTime</text>
</a>
</g>
</g>
<!-- Node3&#45;&gt;Node1 -->
<g id="edge2_Node000001_Node000003" class="edge">
<title>Node3&#45;&gt;Node1</title>
<g id="a_edge2_Node000001_Node000003"><a xlink:title=" ">
<path fill="none" stroke="#9a32cd" stroke-dasharray="5,2" d="M1053.22,-308.92C1168.73,-304.76 1394,-296.64 1502.79,-292.72"/>
<polygon fill="#9a32cd" stroke="#9a32cd" points="1052.93,-305.42 1043.06,-309.28 1053.18,-312.42 1052.93,-305.42"/>
</a>
</g>
<text text-anchor="start" x="1222" y="-308" font-family="Helvetica,sans-Serif" font-size="10.00" fill="grey">m_time</text>
</g>
<!-- Node4 -->
<g id="Node000004" class="node">
<title>Node4</title>
<g id="a_Node000004"><a xlink:title=" ">
<polygon fill="white" stroke="#666666" points="580,-314 468,-314 468,-295 580,-295 580,-314"/>
<text text-anchor="middle" x="524" y="-302" font-family="Helvetica,sans-Serif" font-size="10.00">std::vector&lt; bool &gt;</text>
</a>
</g>
</g>
<!-- Node4&#45;&gt;Node3 -->
<g id="edge3_Node000003_Node000004" class="edge">
<title>Node4&#45;&gt;Node3</title>
<g id="a_edge3_Node000003_Node000004"><a xlink:title=" ">
<path fill="none" stroke="#9a32cd" stroke-dasharray="5,2" d="M590.35,-305.51C677.88,-306.85 832.06,-309.23 917.72,-310.55"/>
<polygon fill="#9a32cd" stroke="#9a32cd" points="590.33,-302.01 580.28,-305.35 590.22,-309.01 590.33,-302.01"/>
</a>
</g>
<text text-anchor="start" x="625.5" y="-313" font-family="Helvetica,sans-Serif" font-size="10.00" fill="grey">m_postprocess_enforce_dt</text>
</g>
<!-- Node5 -->
<g id="Node000005" class="node">
<title>Node5</title>
<g id="a_Node000005"><a xlink:title=" ">
<polygon fill="white" stroke="#666666" points="238,-302 141,-302 141,-283 238,-283 238,-302"/>
<text text-anchor="middle" x="189.5" y="-290" font-family="Helvetica,sans-Serif" font-size="10.00">std::vector&lt; T &gt;</text>
</a>
</g>
</g>
<!-- Node5&#45;&gt;Node4 -->
<g id="edge4_Node000004_Node000005" class="edge">
<title>Node5&#45;&gt;Node4</title>
<g id="a_edge4_Node000004_Node000005"><a xlink:title=" ">
<path fill="none" stroke="orange" stroke-dasharray="5,2" d="M248.49,-294.59C310.28,-296.82 407.35,-300.33 467.98,-302.51"/>
<polygon fill="orange" stroke="orange" points="248.26,-291.08 238.14,-294.22 248.01,-298.08 248.26,-291.08"/>
</a>
</g>
<text text-anchor="start" x="331" y="-306" font-family="Helvetica,sans-Serif" font-size="10.00" fill="grey">&lt; bool &gt;</text>
</g>
<!-- Node6 -->
<g id="Node000006" class="node">
<title>Node6</title>
<g id="a_Node000006"><a xlink:title=" ">
<polygon fill="white" stroke="#666666" points="29,-127 0,-127 0,-108 29,-108 29,-127"/>
<text text-anchor="middle" x="14.5" y="-115" font-family="Helvetica,sans-Serif" font-size="10.00">T</text>
</a>
</g>
</g>
<!-- Node6&#45;&gt;Node5 -->
<g id="edge5_Node000005_Node000006" class="edge">
<title>Node6&#45;&gt;Node5</title>
<g id="a_edge5_Node000005_Node000006"><a xlink:title=" ">
<path fill="none" stroke="#9a32cd" stroke-dasharray="5,2" d="M20.3,-137.04C25.14,-154.09 33.79,-178.95 47,-197.5 77.2,-239.93 132.76,-268.92 164.53,-282.9"/>
<polygon fill="#9a32cd" stroke="#9a32cd" points="23.61,-135.87 17.67,-127.1 16.85,-137.66 23.61,-135.87"/>
</a>
</g>
<text text-anchor="start" x="50" y="-250" font-family="Helvetica,sans-Serif" font-size="10.00" fill="grey">elements</text>
</g>
<!-- Node12 -->
<g id="Node000012" class="node">
<title>Node12</title>
<g id="a_Node000012"><a xlink:title=" ">
<polygon fill="white" stroke="#666666" points="581,-152.5 467,-152.5 467,-122.5 581,-122.5 581,-152.5"/>
<text text-anchor="start" x="475" y="-140.5" font-family="Helvetica,sans-Serif" font-size="10.00">std::unordered_map</text>
<text text-anchor="middle" x="524" y="-129.5" font-family="Helvetica,sans-Serif" font-size="10.00">&lt; K, T &gt;</text>
</a>
</g>
</g>
<!-- Node6&#45;&gt;Node12 -->
<g id="edge14_Node000012_Node000006" class="edge">
<title>Node6&#45;&gt;Node12</title>
<g id="a_edge14_Node000012_Node000006"><a xlink:title=" ">
<path fill="none" stroke="#9a32cd" stroke-dasharray="5,2" d="M38.42,-129.01C58.55,-138.46 88.93,-151.11 117,-156.5 251.88,-182.38 289.44,-173.11 426,-158.5 439.36,-157.07 453.59,-154.56 466.91,-151.77"/>
<polygon fill="#9a32cd" stroke="#9a32cd" points="39.69,-125.74 29.16,-124.55 36.65,-132.04 39.69,-125.74"/>
</a>
</g>
<text text-anchor="start" x="166.5" y="-178" font-family="Helvetica,sans-Serif" font-size="10.00" fill="grey">elements</text>
</g>
<!-- Node18 -->
<g id="Node000018" class="node">
<title>Node18</title>
<g id="a_Node000018"><a xlink:title=" ">
<polygon fill="white" stroke="#666666" points="248.5,-59 130.5,-59 130.5,-40 248.5,-40 248.5,-59"/>
<text text-anchor="middle" x="189.5" y="-47" font-family="Helvetica,sans-Serif" font-size="10.00">std::unique_ptr&lt; T &gt;</text>
</a>
</g>
</g>
<!-- Node6&#45;&gt;Node18 -->
<g id="edge22_Node000018_Node000006" class="edge">
<title>Node6&#45;&gt;Node18</title>
<g id="a_edge22_Node000018_Node000006"><a xlink:title=" ">
<path fill="none" stroke="#9a32cd" stroke-dasharray="5,2" d="M38.08,-105.87C58.38,-95.7 89.2,-80.96 117,-70.5 128.26,-66.27 140.78,-62.34 152.15,-59.05"/>
<polygon fill="#9a32cd" stroke="#9a32cd" points="36.36,-102.82 29.02,-110.46 39.52,-109.06 36.36,-102.82"/>
</a>
</g>
<text text-anchor="start" x="66" y="-107" font-family="Helvetica,sans-Serif" font-size="10.00" fill="grey">ptr</text>
</g>
<!-- Node19 -->
<g id="Node000019" class="node">
<title>Node19</title>
<g id="a_Node000019"><a xlink:title=" ">
<polygon fill="white" stroke="#666666" points="412,-19 294,-19 294,0 412,0 412,-19"/>
<text text-anchor="middle" x="353" y="-7" font-family="Helvetica,sans-Serif" font-size="10.00">std::shared_ptr&lt; T &gt;</text>
</a>
</g>
</g>
<!-- Node6&#45;&gt;Node19 -->
<g id="edge24_Node000019_Node000006" class="edge">
<title>Node6&#45;&gt;Node19</title>
<g id="a_edge24_Node000019_Node000006"><a xlink:title=" ">
<path fill="none" stroke="#9a32cd" stroke-dasharray="5,2" d="M21.59,-98.14C26.57,-85.1 34.8,-68.37 47,-57.5 71.9,-35.32 84.52,-38.06 117,-30.5 176.24,-16.71 245.83,-11.86 293.83,-10.21"/>
<polygon fill="#9a32cd" stroke="#9a32cd" points="18.27,-97.02 18.28,-107.62 24.88,-99.33 18.27,-97.02"/>
</a>
</g>
<text text-anchor="start" x="66" y="-63" font-family="Helvetica,sans-Serif" font-size="10.00" fill="grey">ptr</text>
</g>
<!-- Node7 -->
<g id="Node000007" class="node">
<title>Node7</title>
<g id="a_Node000007"><a xlink:title=" ">
<polygon fill="white" stroke="#666666" points="556.5,-236 491.5,-236 491.5,-217 556.5,-217 556.5,-236"/>
<text text-anchor="middle" x="524" y="-224" font-family="Helvetica,sans-Serif" font-size="10.00">std::string</text>
</a>
</g>
</g>
<!-- Node7&#45;&gt;Node1 -->
<g id="edge6_Node000001_Node000007" class="edge">
<title>Node7&#45;&gt;Node1</title>
<g id="a_edge6_Node000001_Node000007"><a xlink:title=" ">
<path fill="none" stroke="#9a32cd" stroke-dasharray="5,2" d="M566.55,-235.68C626.2,-248.04 739.7,-268.5 837.5,-268.5 837.5,-268.5 837.5,-268.5 1356.5,-268.5 1405.89,-268.5 1461.5,-274.71 1502.79,-280.53"/>
<polygon fill="#9a32cd" stroke="#9a32cd" points="567.26,-232.26 556.75,-233.62 565.82,-239.11 567.26,-232.26"/>
</a>
</g>
<text text-anchor="start" x="1090" y="-274" font-family="Helvetica,sans-Serif" font-size="10.00" fill="grey">m_vel_timetable</text>
</g>
<!-- Node9 -->
<g id="Node000009" class="node">
<title>Node9</title>
<g id="a_Node000009"><a xlink:href="classkynema__sgf_1_1_field.html" target="_top" xlink:title=" ">
<polygon fill="white" stroke="#666666" points="1407.5,-215 1303.5,-215 1303.5,-196 1407.5,-196 1407.5,-215"/>
<text text-anchor="middle" x="1355.5" y="-203" font-family="Helvetica,sans-Serif" font-size="10.00">kynema_sgf::Field</text>
</a>
</g>
</g>
<!-- Node7&#45;&gt;Node9 -->
<g id="edge15_Node000009_Node000007" class="edge">
<title>Node7&#45;&gt;Node9</title>
<g id="a_edge15_Node000009_Node000007"><a xlink:title=" ">
<path fill="none" stroke="#9a32cd" stroke-dasharray="5,2" d="M566.9,-225.6C679.49,-223.16 998.03,-216.07 1263,-208.5 1276.03,-208.13 1290.1,-207.69 1303.21,-207.26"/>
<polygon fill="#9a32cd" stroke="#9a32cd" points="566.57,-222.11 556.65,-225.82 566.72,-229.11 566.57,-222.11"/>
</a>
</g>
<text text-anchor="start" x="959.5" y="-222" font-family="Helvetica,sans-Serif" font-size="10.00" fill="grey">m_name</text>
</g>
<!-- Node11 -->
<g id="Node000011" class="node">
<title>Node11</title>
<g id="a_Node000011"><a xlink:title=" ">
<polygon fill="white" stroke="#666666" points="899.5,-186.5 777.5,-186.5 777.5,-156.5 899.5,-156.5 899.5,-186.5"/>
<text text-anchor="start" x="785.5" y="-174.5" font-family="Helvetica,sans-Serif" font-size="10.00">std::unordered_map</text>
<text text-anchor="middle" x="838.5" y="-163.5" font-family="Helvetica,sans-Serif" font-size="10.00">&lt; std::string, size_t &gt;</text>
</a>
</g>
</g>
<!-- Node7&#45;&gt;Node11 -->
<g id="edge11_Node000011_Node000007" class="edge">
<title>Node7&#45;&gt;Node11</title>
<g id="a_edge11_Node000011_Node000007"><a xlink:title=" ">
<path fill="none" stroke="#9a32cd" stroke-dasharray="5,2" d="M559.79,-213.53C578.08,-207.19 600.99,-199.98 622,-195.5 673.73,-184.47 733.59,-178.32 777.07,-175.01"/>
<polygon fill="#9a32cd" stroke="#9a32cd" points="558.42,-210.31 550.16,-216.94 560.75,-216.9 558.42,-210.31"/>
</a>
</g>
<text text-anchor="start" x="679.5" y="-201" font-family="Helvetica,sans-Serif" font-size="10.00" fill="grey">keys</text>
</g>
<!-- Node15 -->
<g id="Node000015" class="node">
<title>Node15</title>
<g id="a_Node000015"><a xlink:href="structkynema__sgf_1_1_field_info.html" target="_top" xlink:title=" ">
<polygon fill="white" stroke="#666666" points="900,-102 777,-102 777,-83 900,-83 900,-102"/>
<text text-anchor="middle" x="838.5" y="-90" font-family="Helvetica,sans-Serif" font-size="10.00">kynema_sgf::FieldInfo</text>
</a>
</g>
</g>
<!-- Node7&#45;&gt;Node15 -->
<g id="edge18_Node000015_Node000007" class="edge">
<title>Node7&#45;&gt;Node15</title>
<g id="a_edge18_Node000015_Node000007"><a xlink:title=" ">
<path fill="none" stroke="#9a32cd" stroke-dasharray="5,2" d="M542.27,-209.91C560.54,-193.36 590.98,-168.58 622,-155.5 678.89,-131.51 700.37,-151.85 759,-132.5 782.09,-124.88 806.78,-111.29 822.18,-102.09"/>
<polygon fill="#9a32cd" stroke="#9a32cd" points="539.72,-207.5 534.77,-216.86 544.48,-212.63 539.72,-207.5"/>
</a>
</g>
<text text-anchor="start" x="657.5" y="-161" font-family="Helvetica,sans-Serif" font-size="10.00" fill="grey">m_basename</text>
</g>
<!-- Node8 -->
<g id="Node000008" class="node">
<title>Node8</title>
<g id="a_Node000008"><a xlink:title=" ">
<polygon fill="white" stroke="#666666" points="241.5,-248.5 137.5,-248.5 137.5,-218.5 241.5,-218.5 241.5,-248.5"/>
<text text-anchor="start" x="145.5" y="-236.5" font-family="Helvetica,sans-Serif" font-size="10.00">std::basic_string&lt;</text>
<text text-anchor="middle" x="189.5" y="-225.5" font-family="Helvetica,sans-Serif" font-size="10.00"> Char &gt;</text>
</a>
</g>
</g>
<!-- Node8&#45;&gt;Node7 -->
<g id="edge7_Node000007_Node000008" class="edge">
<title>Node8&#45;&gt;Node7</title>
<g id="a_edge7_Node000007_Node000008"><a xlink:title=" ">
<path fill="none" stroke="#63b8ff" d="M251.85,-232.21C322.64,-230.72 436.34,-228.32 491.27,-227.17"/>
<polygon fill="#63b8ff" stroke="#63b8ff" points="251.65,-228.71 241.72,-232.42 251.8,-235.71 251.65,-228.71"/>
</a>
</g>
</g>
<!-- Node9&#45;&gt;Node1 -->
<g id="edge8_Node000001_Node000009" class="edge">
<title>Node9&#45;&gt;Node1</title>
<g id="a_edge8_Node000001_Node000009"><a xlink:title=" ">
<path fill="none" stroke="#9a32cd" stroke-dasharray="5,2" d="M1417.4,-216.16C1439.27,-221.15 1463.75,-228.11 1485,-237.5 1507.46,-247.42 1530.52,-263.59 1545.98,-275.46"/>
<polygon fill="#9a32cd" stroke="#9a32cd" points="1418.08,-212.73 1407.56,-214.01 1416.58,-219.57 1418.08,-212.73"/>
</a>
</g>
<text text-anchor="start" x="1451.5" y="-243" font-family="Helvetica,sans-Serif" font-size="10.00" fill="grey">m_vof</text>
</g>
<!-- Node10 -->
<g id="Node000010" class="node">
<title>Node10</title>
<g id="a_Node000010"><a xlink:href="classkynema__sgf_1_1_field_repo.html" target="_top" xlink:title=" ">
<polygon fill="white" stroke="#666666" points="1195.5,-190 1066.5,-190 1066.5,-171 1195.5,-171 1195.5,-190"/>
<text text-anchor="middle" x="1131" y="-178" font-family="Helvetica,sans-Serif" font-size="10.00">kynema_sgf::FieldRepo</text>
</a>
</g>
</g>
<!-- Node10&#45;&gt;Node9 -->
<g id="edge9_Node000009_Node000010" class="edge">
<title>Node10&#45;&gt;Node9</title>
<g id="a_edge9_Node000009_Node000010"><a xlink:title=" ">
<path fill="none" stroke="#9a32cd" stroke-dasharray="5,2" d="M1205.93,-185.82C1224.58,-187.41 1244.55,-189.32 1263,-191.5 1276.09,-193.05 1290.18,-195.04 1303.29,-197.04"/>
<polygon fill="#9a32cd" stroke="#9a32cd" points="1205.98,-182.31 1195.72,-184.97 1205.4,-189.29 1205.98,-182.31"/>
</a>
</g>
<text text-anchor="start" x="1223" y="-197" font-family="Helvetica,sans-Serif" font-size="10.00" fill="grey">m_repo</text>
</g>
<!-- Node11&#45;&gt;Node10 -->
<g id="edge10_Node000010_Node000011" class="edge">
<title>Node11&#45;&gt;Node10</title>
<g id="a_edge10_Node000010_Node000011"><a xlink:title=" ">
<path fill="none" stroke="#9a32cd" stroke-dasharray="5,2" d="M909.89,-170.34C949.1,-170.08 998.78,-170.36 1043,-172.5 1050.58,-172.87 1058.51,-173.39 1066.38,-174.01"/>
<polygon fill="#9a32cd" stroke="#9a32cd" points="909.61,-166.85 899.64,-170.43 909.67,-173.85 909.61,-166.85"/>
</a>
</g>
<text text-anchor="start" x="944.5" y="-193.5" font-family="Helvetica,sans-Serif" font-size="10.00" fill="grey">m_fid_map</text>
<text text-anchor="start" x="944.5" y="-178.5" font-family="Helvetica,sans-Serif" font-size="10.00" fill="grey">m_int_fid_map</text>
</g>
<!-- Node12&#45;&gt;Node11 -->
<g id="edge12_Node000011_Node000012" class="edge">
<title>Node12&#45;&gt;Node11</title>
<g id="a_edge12_Node000011_Node000012"><a xlink:title=" ">
<path fill="none" stroke="orange" stroke-dasharray="5,2" d="M581.85,-119.78C630.1,-107.64 700.59,-96.8 759,-115.5 784.03,-123.51 807.89,-142.76 822.59,-156.45"/>
<polygon fill="orange" stroke="orange" points="580.7,-116.47 571.91,-122.38 582.47,-123.24 580.7,-116.47"/>
</a>
</g>
<text text-anchor="start" x="637.5" y="-121" font-family="Helvetica,sans-Serif" font-size="10.00" fill="grey">&lt; std::string, size_t &gt;</text>
</g>
<!-- Node13 -->
<g id="Node000013" class="node">
<title>Node13</title>
<g id="a_Node000013"><a xlink:title=" ">
<polygon fill="white" stroke="#666666" points="204,-147 175,-147 175,-128 204,-128 204,-147"/>
<text text-anchor="middle" x="189.5" y="-135" font-family="Helvetica,sans-Serif" font-size="10.00">K</text>
</a>
</g>
</g>
<!-- Node13&#45;&gt;Node12 -->
<g id="edge13_Node000012_Node000013" class="edge">
<title>Node13&#45;&gt;Node12</title>
<g id="a_edge13_Node000012_Node000013"><a xlink:title=" ">
<path fill="none" stroke="#9a32cd" stroke-dasharray="5,2" d="M214.38,-137.5C266.77,-137.5 393.02,-137.5 466.8,-137.5"/>
<polygon fill="#9a32cd" stroke="#9a32cd" points="214.36,-134 204.36,-137.5 214.36,-141 214.36,-134"/>
</a>
</g>
<text text-anchor="start" x="342" y="-143" font-family="Helvetica,sans-Serif" font-size="10.00" fill="grey">keys</text>
</g>
<!-- Node14 -->
<g id="Node000014" class="node">
<title>Node14</title>
<g id="a_Node000014"><a xlink:title=" ">
<polygon fill="white" stroke="#666666" points="1201,-107.5 1061,-107.5 1061,-77.5 1201,-77.5 1201,-107.5"/>
<text text-anchor="start" x="1069" y="-95.5" font-family="Helvetica,sans-Serif" font-size="10.00">std::shared_ptr&lt; kynema</text>
<text text-anchor="middle" x="1131" y="-84.5" font-family="Helvetica,sans-Serif" font-size="10.00">_sgf::FieldInfo &gt;</text>
</a>
</g>
</g>
<!-- Node14&#45;&gt;Node9 -->
<g id="edge16_Node000009_Node000014" class="edge">
<title>Node14&#45;&gt;Node9</title>
<g id="a_edge16_Node000009_Node000014"><a xlink:title=" ">
<path fill="none" stroke="#9a32cd" stroke-dasharray="5,2" d="M1170.73,-112.17C1218.91,-136.64 1299.25,-177.44 1335.6,-195.9"/>
<polygon fill="#9a32cd" stroke="#9a32cd" points="1172.05,-108.91 1161.55,-107.51 1168.88,-115.15 1172.05,-108.91"/>
</a>
</g>
<text text-anchor="start" x="1224" y="-161" font-family="Helvetica,sans-Serif" font-size="10.00" fill="grey">m_info</text>
</g>
<!-- Node15&#45;&gt;Node14 -->
<g id="edge17_Node000014_Node000015" class="edge">
<title>Node15&#45;&gt;Node14</title>
<g id="a_edge17_Node000014_Node000015"><a xlink:title=" ">
<path fill="none" stroke="#9a32cd" stroke-dasharray="5,2" d="M910.19,-92.5C956,-92.5 1015.37,-92.5 1060.87,-92.5"/>
<polygon fill="#9a32cd" stroke="#9a32cd" points="910.04,-89 900.04,-92.5 910.04,-96 910.04,-89"/>
</a>
</g>
<text text-anchor="start" x="973.5" y="-98" font-family="Helvetica,sans-Serif" font-size="10.00" fill="grey">ptr</text>
</g>
<!-- Node16 -->
<g id="Node000016" class="node">
<title>Node16</title>
<g id="a_Node000016"><a xlink:title=" ">
<polygon fill="white" stroke="#666666" points="604,-89.5 444,-89.5 444,-59.5 604,-59.5 604,-89.5"/>
<text text-anchor="start" x="452" y="-77.5" font-family="Helvetica,sans-Serif" font-size="10.00">std::unique_ptr&lt; kynema</text>
<text text-anchor="middle" x="524" y="-66.5" font-family="Helvetica,sans-Serif" font-size="10.00">_sgf::FieldFillPatchOpsBase &gt;</text>
</a>
</g>
</g>
<!-- Node16&#45;&gt;Node15 -->
<g id="edge19_Node000015_Node000016" class="edge">
<title>Node16&#45;&gt;Node15</title>
<g id="a_edge19_Node000015_Node000016"><a xlink:title=" ">
<path fill="none" stroke="#9a32cd" stroke-dasharray="5,2" d="M614.08,-70.52C657.86,-69.68 711.32,-70.29 759,-75.5 772.86,-77.01 787.87,-79.94 801.02,-82.94"/>
<polygon fill="#9a32cd" stroke="#9a32cd" points="613.95,-67.02 604.03,-70.75 614.11,-74.02 613.95,-67.02"/>
</a>
</g>
<text text-anchor="start" x="654.5" y="-81" font-family="Helvetica,sans-Serif" font-size="10.00" fill="grey">m_fillpatch_op</text>
</g>
<!-- Node17 -->
<g id="Node000017" class="node">
<title>Node17</title>
<g id="a_Node000017"><a xlink:href="classkynema__sgf_1_1_field_fill_patch_ops_base.html" target="_top" xlink:title=" ">
<polygon fill="white" stroke="#666666" points="262,-109.5 117,-109.5 117,-79.5 262,-79.5 262,-109.5"/>
<text text-anchor="start" x="125" y="-97.5" font-family="Helvetica,sans-Serif" font-size="10.00">kynema_sgf::FieldFillPatch</text>
<text text-anchor="middle" x="189.5" y="-86.5" font-family="Helvetica,sans-Serif" font-size="10.00">OpsBase</text>
</a>
</g>
</g>
<!-- Node17&#45;&gt;Node16 -->
<g id="edge20_Node000016_Node000017" class="edge">
<title>Node17&#45;&gt;Node16</title>
<g id="a_edge20_Node000016_Node000017"><a xlink:title=" ">
<path fill="none" stroke="#9a32cd" stroke-dasharray="5,2" d="M272.48,-89.57C324.75,-86.43 392.12,-82.37 443.83,-79.26"/>
<polygon fill="#9a32cd" stroke="#9a32cd" points="272.01,-86.09 262.24,-90.18 272.43,-93.08 272.01,-86.09"/>
</a>
</g>
<text text-anchor="start" x="346" y="-95" font-family="Helvetica,sans-Serif" font-size="10.00" fill="grey">ptr</text>
</g>
<!-- Node18&#45;&gt;Node16 -->
<g id="edge21_Node000016_Node000018" class="edge">
<title>Node18&#45;&gt;Node16</title>
<g id="a_edge21_Node000016_Node000018"><a xlink:title=" ">
<path fill="none" stroke="orange" stroke-dasharray="5,2" d="M259.03,-41.91C306.23,-38.18 370.25,-36.08 426,-44.5 445.35,-47.42 466.15,-53.45 483.51,-59.34"/>
<polygon fill="orange" stroke="orange" points="258.6,-38.43 248.92,-42.75 259.18,-45.41 258.6,-38.43"/>
</a>
</g>
<text text-anchor="start" x="283" y="-65.5" font-family="Helvetica,sans-Serif" font-size="10.00" fill="grey">&lt; kynema_sgf::FieldFillPatch</text>
<text text-anchor="start" x="283" y="-50.5" font-family="Helvetica,sans-Serif" font-size="10.00" fill="grey">  OpsBase &gt;</text>
</g>
<!-- Node19&#45;&gt;Node14 -->
<g id="edge23_Node000014_Node000019" class="edge">
<title>Node19&#45;&gt;Node14</title>
<g id="a_edge23_Node000014_Node000019"><a xlink:title=" ">
<path fill="none" stroke="orange" stroke-dasharray="5,2" d="M422.05,-15.87C502.55,-23.48 640.6,-36.79 759,-49.5 864.41,-60.81 986.51,-75.22 1060.98,-84.15"/>
<polygon fill="orange" stroke="orange" points="422.33,-12.38 412.05,-14.92 421.67,-19.35 422.33,-12.38"/>
</a>
</g>
<text text-anchor="start" x="625.5" y="-55" font-family="Helvetica,sans-Serif" font-size="10.00" fill="grey">&lt; kynema_sgf::FieldInfo &gt;</text>
</g>
</g>
</svg>
