<?xml version="1.0" encoding="UTF-8" standalone="no"?>
<!DOCTYPE svg PUBLIC "-//W3C//DTD SVG 1.1//EN"
 "http://www.w3.org/Graphics/SVG/1.1/DTD/svg11.dtd">
<!-- Generated by graphviz version 2.43.0 (0)
 -->
<!-- Title: kynema_sgf::mms::MMS Pages: 1 -->
<!--zoomable 352 -->

<svg id="main" version="1.1" xmlns="http://www.w3.org/2000/svg" xmlns:xlink="http://www.w3.org/1999/xlink" xml:space="preserve" onload="init(evt)">

<style type="text/css"><![CDATA[
.node, .edge {opacity: 0.7;}
.node.selected, .edge.selected {opacity: 1;}
.edge:hover path { stroke: red; }
.edge:hover polygon { stroke: red; fill: red; }
]]></style>

<defs>
  <circle id="rim" cx="0" cy="0" r="7"/>
  <circle id="rim2" cx="0" cy="0" r="3.5"/>
  <g id="zoomPlus">
    <use xlink:href="#rim" fill="#404040"><set attributeName="fill" to="#808080" begin="zoomplus.mouseover" end="zoomplus.mouseout"/></use>
    <path d="M-4,0h8M0,-4v8" fill="none" stroke="white" stroke-width="1.5" pointer-events="none"/>
  </g>
  <g id="zoomMin">
    <use xlink:href="#rim" fill="#404040"><set attributeName="fill" to="#808080" begin="zoomminus.mouseover" end="zoomminus.mouseout"/></use>
    <path d="M-4,0h8" fill="none" stroke="white" stroke-width="1.5" pointer-events="none"/>
  </g>
  <g id="arrowUp" transform="translate(30 24)">
    <use xlink:href="#rim"/>
    <path pointer-events="none" fill="none" stroke="white" stroke-width="1.5" d="M0,-3.0v7 M-2.5,-0.5L0,-3.0L2.5,-0.5"/>
  </g>
  <g id="arrowRight" transform="rotate(90) translate(36 -43)">
    <use xlink:href="#rim"/>
    <path pointer-events="none" fill="none" stroke="white" stroke-width="1.5" d="M0,-3.0v7 M-2.5,-0.5L0,-3.0L2.5,-0.5"/>
  </g>
  <g id="arrowDown" transform="rotate(180) translate(-30 -48)">
    <use xlink:href="#rim"/>
    <path pointer-events="none" fill="none" stroke="white" stroke-width="1.5" d="M0,-3.0v7 M-2.5,-0.5L0,-3.0L2.5,-0.5"/>
  </g>
  <g id="arrowLeft" transform="rotate(270) translate(-36 17)">
    <use xlink:href="#rim"/>
    <path pointer-events="none" fill="none" stroke="white" stroke-width="1.5" d="M0,-3.0v7 M-2.5,-0.5L0,-3.0L2.5,-0.5"/>
  </g>
  <g id="resetDef">
    <use xlink:href="#rim2" fill="#404040"><set attributeName="fill" to="#808080" begin="reset.mouseover" end="reset.mouseout"/></use>
  </g>
</defs>
<script type="application/ecmascript">
var viewWidth = 1755;
var viewHeight = 352;
var sectionId = 'dynsection-1';
</script>
<script type="application/ecmascript" xlink:href="svg.min.js"/>
<svg id="graph" class="graph">
<g id="viewport">
<title>kynema_sgf::mms::MMS</title>
<!-- Node1 -->
<g id="Node000001" class="node">
<title>Node1</title>
<g id="a_Node000001"><a xlink:title=" ">
<polygon fill="#999999" stroke="#666666" points="1747,-210 1611,-210 1611,-191 1747,-191 1747,-210"/>
<text text-anchor="middle" x="1679" y="-198" font-family="Helvetica,sans-Serif" font-size="10.00">kynema_sgf::mms::MMS</text>
</a>
</g>
</g>
<!-- Node2 -->
<g id="Node000002" class="node">
<title>Node2</title>
<g id="a_Node000002"><a xlink:title=" ">
<polygon fill="white" stroke="#666666" points="1471,-344 1351,-344 1351,-303 1471,-303 1471,-344"/>
<text text-anchor="start" x="1359" y="-332" font-family="Helvetica,sans-Serif" font-size="10.00">kynema_sgf::Factory</text>
<text text-anchor="start" x="1359" y="-321" font-family="Helvetica,sans-Serif" font-size="10.00">&lt; Physics, CFDSim &amp;</text>
<text text-anchor="middle" x="1411" y="-310" font-family="Helvetica,sans-Serif" font-size="10.00"> &gt;::Register</text>
</a>
</g>
</g>
<!-- Node2&#45;&gt;Node1 -->
<g id="edge1_Node000001_Node000002" class="edge">
<title>Node2&#45;&gt;Node1</title>
<g id="a_edge1_Node000001_Node000002"><a xlink:title=" ">
<path fill="none" stroke="#63b8ff" d="M1481.47,-319.97C1516.62,-315.8 1558.94,-306.97 1593,-288.5 1629.22,-268.86 1659.36,-228.45 1671.83,-210.03"/>
<polygon fill="#63b8ff" stroke="#63b8ff" points="1480.85,-316.52 1471.28,-321.08 1481.6,-323.48 1480.85,-316.52"/>
</a>
</g>
</g>
<!-- Node3 -->
<g id="Node000003" class="node">
<title>Node3</title>
<g id="a_Node000003"><a xlink:href="classkynema__sgf_1_1_sim_time.html" target="_top" xlink:title=" ">
<polygon fill="white" stroke="#666666" points="1043,-316 918,-316 918,-297 1043,-297 1043,-316"/>
<text text-anchor="middle" x="980.5" y="-304" font-family="Helvetica,sans-Serif" font-size="10.00">kynema_sgf::SimTime</text>
</a>
</g>
</g>
<!-- Node3&#45;&gt;Node1 -->
<g id="edge2_Node000001_Node000003" class="edge">
<title>Node3&#45;&gt;Node1</title>
<g id="a_edge2_Node000001_Node000003"><a xlink:title=" ">
<path fill="none" stroke="#9a32cd" stroke-dasharray="5,2" d="M1053.41,-307.48C1169.39,-307.22 1403.88,-299.01 1593,-243.5 1619.18,-235.81 1646.93,-220.17 1663.34,-210.02"/>
<polygon fill="#9a32cd" stroke="#9a32cd" points="1053.24,-303.98 1043.24,-307.48 1053.24,-310.98 1053.24,-303.98"/>
</a>
</g>
<text text-anchor="start" x="1257" y="-307" font-family="Helvetica,sans-Serif" font-size="10.00" fill="grey">m_time</text>
</g>
<!-- Node4 -->
<g id="Node000004" class="node">
<title>Node4</title>
<g id="a_Node000004"><a xlink:title=" ">
<polygon fill="white" stroke="#666666" points="580,-324 468,-324 468,-305 580,-305 580,-324"/>
<text text-anchor="middle" x="524" y="-312" font-family="Helvetica,sans-Serif" font-size="10.00">std::vector&lt; bool &gt;</text>
</a>
</g>
</g>
<!-- Node4&#45;&gt;Node3 -->
<g id="edge3_Node000003_Node000004" class="edge">
<title>Node4&#45;&gt;Node3</title>
<g id="a_edge3_Node000003_Node000004"><a xlink:title=" ">
<path fill="none" stroke="#9a32cd" stroke-dasharray="5,2" d="M590.35,-313.35C677.88,-311.81 832.06,-309.1 917.72,-307.59"/>
<polygon fill="#9a32cd" stroke="#9a32cd" points="590.21,-309.85 580.28,-313.53 590.34,-316.85 590.21,-309.85"/>
</a>
</g>
<text text-anchor="start" x="625.5" y="-318" font-family="Helvetica,sans-Serif" font-size="10.00" fill="grey">m_postprocess_enforce_dt</text>
</g>
<!-- Node5 -->
<g id="Node000005" class="node">
<title>Node5</title>
<g id="a_Node000005"><a xlink:title=" ">
<polygon fill="white" stroke="#666666" points="238,-324 141,-324 141,-305 238,-305 238,-324"/>
<text text-anchor="middle" x="189.5" y="-312" font-family="Helvetica,sans-Serif" font-size="10.00">std::vector&lt; T &gt;</text>
</a>
</g>
</g>
<!-- Node5&#45;&gt;Node4 -->
<g id="edge4_Node000004_Node000005" class="edge">
<title>Node5&#45;&gt;Node4</title>
<g id="a_edge4_Node000004_Node000005"><a xlink:title=" ">
<path fill="none" stroke="orange" stroke-dasharray="5,2" d="M248.49,-314.5C310.28,-314.5 407.35,-314.5 467.98,-314.5"/>
<polygon fill="orange" stroke="orange" points="248.14,-311 238.14,-314.5 248.14,-318 248.14,-311"/>
</a>
</g>
<text text-anchor="start" x="331" y="-320" font-family="Helvetica,sans-Serif" font-size="10.00" fill="grey">&lt; bool &gt;</text>
</g>
<!-- Node6 -->
<g id="Node000006" class="node">
<title>Node6</title>
<g id="a_Node000006"><a xlink:title=" ">
<polygon fill="white" stroke="#666666" points="29,-262 0,-262 0,-243 29,-243 29,-262"/>
<text text-anchor="middle" x="14.5" y="-250" font-family="Helvetica,sans-Serif" font-size="10.00">T</text>
</a>
</g>
</g>
<!-- Node6&#45;&gt;Node5 -->
<g id="edge5_Node000005_Node000006" class="edge">
<title>Node6&#45;&gt;Node5</title>
<g id="a_edge5_Node000005_Node000006"><a xlink:title=" ">
<path fill="none" stroke="#9a32cd" stroke-dasharray="5,2" d="M25.65,-270.87C30.98,-278.78 38.22,-287.37 47,-292.5 75.22,-309 111.79,-314.35 140.68,-315.66"/>
<polygon fill="#9a32cd" stroke="#9a32cd" points="28.52,-268.85 20.32,-262.15 22.55,-272.5 28.52,-268.85"/>
</a>
</g>
<text text-anchor="start" x="50" y="-316" font-family="Helvetica,sans-Serif" font-size="10.00" fill="grey">elements</text>
</g>
<!-- Node11 -->
<g id="Node000011" class="node">
<title>Node11</title>
<g id="a_Node000011"><a xlink:title=" ">
<polygon fill="white" stroke="#666666" points="581,-71.5 467,-71.5 467,-41.5 581,-41.5 581,-71.5"/>
<text text-anchor="start" x="475" y="-59.5" font-family="Helvetica,sans-Serif" font-size="10.00">std::unordered_map</text>
<text text-anchor="middle" x="524" y="-48.5" font-family="Helvetica,sans-Serif" font-size="10.00">&lt; K, T &gt;</text>
</a>
</g>
</g>
<!-- Node6&#45;&gt;Node11 -->
<g id="edge12_Node000011_Node000006" class="edge">
<title>Node6&#45;&gt;Node11</title>
<g id="a_edge12_Node000011_Node000006"><a xlink:title=" ">
<path fill="none" stroke="#9a32cd" stroke-dasharray="5,2" d="M22.32,-233.17C35.12,-200.12 66.12,-133.42 117,-103.5 176.43,-68.55 357.74,-85.25 426,-75.5 439.25,-73.61 453.43,-71.1 466.75,-68.54"/>
<polygon fill="#9a32cd" stroke="#9a32cd" points="19.01,-232.04 18.81,-242.63 25.57,-234.48 19.01,-232.04"/>
</a>
</g>
<text text-anchor="start" x="166.5" y="-109" font-family="Helvetica,sans-Serif" font-size="10.00" fill="grey">elements</text>
</g>
<!-- Node18 -->
<g id="Node000018" class="node">
<title>Node18</title>
<g id="a_Node000018"><a xlink:title=" ">
<polygon fill="white" stroke="#666666" points="248.5,-198 130.5,-198 130.5,-179 248.5,-179 248.5,-198"/>
<text text-anchor="middle" x="189.5" y="-186" font-family="Helvetica,sans-Serif" font-size="10.00">std::unique_ptr&lt; T &gt;</text>
</a>
</g>
</g>
<!-- Node6&#45;&gt;Node18 -->
<g id="edge22_Node000018_Node000006" class="edge">
<title>Node6&#45;&gt;Node18</title>
<g id="a_edge22_Node000018_Node000006"><a xlink:title=" ">
<path fill="none" stroke="#9a32cd" stroke-dasharray="5,2" d="M38.17,-239.87C41.11,-238.35 44.11,-236.85 47,-235.5 77.35,-221.3 85.19,-218.04 117,-207.5 127.36,-204.06 138.73,-200.82 149.28,-198.01"/>
<polygon fill="#9a32cd" stroke="#9a32cd" points="36.29,-236.9 29.13,-244.71 39.59,-243.08 36.29,-236.9"/>
</a>
</g>
<text text-anchor="start" x="66" y="-241" font-family="Helvetica,sans-Serif" font-size="10.00" fill="grey">ptr</text>
</g>
<!-- Node19 -->
<g id="Node000019" class="node">
<title>Node19</title>
<g id="a_Node000019"><a xlink:title=" ">
<polygon fill="white" stroke="#666666" points="412,-284 294,-284 294,-265 412,-265 412,-284"/>
<text text-anchor="middle" x="353" y="-272" font-family="Helvetica,sans-Serif" font-size="10.00">std::shared_ptr&lt; T &gt;</text>
</a>
</g>
</g>
<!-- Node6&#45;&gt;Node19 -->
<g id="edge24_Node000019_Node000006" class="edge">
<title>Node6&#45;&gt;Node19</title>
<g id="a_edge24_Node000019_Node000006"><a xlink:title=" ">
<path fill="none" stroke="#9a32cd" stroke-dasharray="5,2" d="M39.11,-254.04C91.5,-257.47 218.79,-265.79 293.88,-270.7"/>
<polygon fill="#9a32cd" stroke="#9a32cd" points="39.32,-250.55 29.11,-253.39 38.86,-257.53 39.32,-250.55"/>
</a>
</g>
<text text-anchor="start" x="66" y="-263" font-family="Helvetica,sans-Serif" font-size="10.00" fill="grey">ptr</text>
</g>
<!-- Node7 -->
<g id="Node000007" class="node">
<title>Node7</title>
<g id="a_Node000007"><a xlink:href="classkynema__sgf_1_1_field_repo.html" target="_top" xlink:title=" ">
<polygon fill="white" stroke="#666666" points="1195.5,-90 1066.5,-90 1066.5,-71 1195.5,-71 1195.5,-90"/>
<text text-anchor="middle" x="1131" y="-78" font-family="Helvetica,sans-Serif" font-size="10.00">kynema_sgf::FieldRepo</text>
</a>
</g>
</g>
<!-- Node7&#45;&gt;Node1 -->
<g id="edge6_Node000001_Node000007" class="edge">
<title>Node7&#45;&gt;Node1</title>
<g id="a_edge6_Node000001_Node000007"><a xlink:title=" ">
<path fill="none" stroke="#9a32cd" stroke-dasharray="5,2" d="M1206.17,-78.57C1300.33,-78.87 1465.82,-88.72 1593,-146.5 1620.38,-158.94 1649.34,-179.04 1665.39,-190.89"/>
<polygon fill="#9a32cd" stroke="#9a32cd" points="1205.88,-75.07 1195.88,-78.58 1205.89,-82.07 1205.88,-75.07"/>
</a>
</g>
<text text-anchor="start" x="1393" y="-110" font-family="Helvetica,sans-Serif" font-size="10.00" fill="grey">m_repo</text>
</g>
<!-- Node13 -->
<g id="Node000013" class="node">
<title>Node13</title>
<g id="a_Node000013"><a xlink:href="classkynema__sgf_1_1_field.html" target="_top" xlink:title=" ">
<polygon fill="white" stroke="#666666" points="1463,-155 1359,-155 1359,-136 1463,-136 1463,-155"/>
<text text-anchor="middle" x="1411" y="-143" font-family="Helvetica,sans-Serif" font-size="10.00">kynema_sgf::Field</text>
</a>
</g>
</g>
<!-- Node7&#45;&gt;Node13 -->
<g id="edge14_Node000013_Node000007" class="edge">
<title>Node7&#45;&gt;Node13</title>
<g id="a_edge14_Node000013_Node000007"><a xlink:title=" ">
<path fill="none" stroke="#9a32cd" stroke-dasharray="5,2" d="M1205.7,-84.64C1244.27,-88.24 1291.88,-94.96 1333,-107.5 1355.39,-114.33 1379.28,-127.07 1394.4,-135.91"/>
<polygon fill="#9a32cd" stroke="#9a32cd" points="1205.86,-81.14 1195.59,-83.75 1205.25,-88.12 1205.86,-81.14"/>
</a>
</g>
<text text-anchor="start" x="1258" y="-113" font-family="Helvetica,sans-Serif" font-size="10.00" fill="grey">m_repo</text>
</g>
<!-- Node8 -->
<g id="Node000008" class="node">
<title>Node8</title>
<g id="a_Node000008"><a xlink:title=" ">
<polygon fill="white" stroke="#666666" points="899.5,-100.5 777.5,-100.5 777.5,-70.5 899.5,-70.5 899.5,-100.5"/>
<text text-anchor="start" x="785.5" y="-88.5" font-family="Helvetica,sans-Serif" font-size="10.00">std::unordered_map</text>
<text text-anchor="middle" x="838.5" y="-77.5" font-family="Helvetica,sans-Serif" font-size="10.00">&lt; std::string, size_t &gt;</text>
</a>
</g>
</g>
<!-- Node8&#45;&gt;Node7 -->
<g id="edge7_Node000007_Node000008" class="edge">
<title>Node8&#45;&gt;Node7</title>
<g id="a_edge7_Node000007_Node000008"><a xlink:title=" ">
<path fill="none" stroke="#9a32cd" stroke-dasharray="5,2" d="M910.18,-81.75C912.82,-81.65 915.43,-81.57 918,-81.5 967.85,-80.11 1024.32,-79.91 1066.44,-80.03"/>
<polygon fill="#9a32cd" stroke="#9a32cd" points="909.78,-78.26 899.92,-82.14 910.04,-85.25 909.78,-78.26"/>
</a>
</g>
<text text-anchor="start" x="944.5" y="-102.5" font-family="Helvetica,sans-Serif" font-size="10.00" fill="grey">m_fid_map</text>
<text text-anchor="start" x="944.5" y="-87.5" font-family="Helvetica,sans-Serif" font-size="10.00" fill="grey">m_int_fid_map</text>
</g>
<!-- Node9 -->
<g id="Node000009" class="node">
<title>Node9</title>
<g id="a_Node000009"><a xlink:title=" ">
<polygon fill="white" stroke="#666666" points="556.5,-154 491.5,-154 491.5,-135 556.5,-135 556.5,-154"/>
<text text-anchor="middle" x="524" y="-142" font-family="Helvetica,sans-Serif" font-size="10.00">std::string</text>
</a>
</g>
</g>
<!-- Node9&#45;&gt;Node1 -->
<g id="edge25_Node000001_Node000009" class="edge">
<title>Node9&#45;&gt;Node1</title>
<g id="a_edge25_Node000001_Node000009"><a xlink:title=" ">
<path fill="none" stroke="#9a32cd" stroke-dasharray="5,2" d="M550.46,-158.77C569.53,-168.71 596.6,-181.26 622,-187.5 689.04,-203.97 708.04,-194.4 777,-197.5 1093.23,-211.69 1172.48,-211.5 1489,-215.5 1535.22,-216.08 1546.95,-219.53 1593,-215.5 1605.84,-214.38 1619.64,-212.31 1632.32,-210.07"/>
<polygon fill="#9a32cd" stroke="#9a32cd" points="552,-155.63 541.53,-154 548.7,-161.8 552,-155.63"/>
</a>
</g>
<text text-anchor="start" x="1089" y="-217" font-family="Helvetica,sans-Serif" font-size="10.00" fill="grey">m_output_fname</text>
</g>
<!-- Node9&#45;&gt;Node8 -->
<g id="edge8_Node000008_Node000009" class="edge">
<title>Node9&#45;&gt;Node8</title>
<g id="a_edge8_Node000008_Node000009"><a xlink:title=" ">
<path fill="none" stroke="#9a32cd" stroke-dasharray="5,2" d="M552.64,-130.46C571.64,-121.48 597.74,-110.43 622,-104.5 673.45,-91.94 733.59,-87.45 777.25,-85.95"/>
<polygon fill="#9a32cd" stroke="#9a32cd" points="550.87,-127.43 543.39,-134.94 553.92,-133.73 550.87,-127.43"/>
</a>
</g>
<text text-anchor="start" x="679.5" y="-110" font-family="Helvetica,sans-Serif" font-size="10.00" fill="grey">keys</text>
</g>
<!-- Node9&#45;&gt;Node13 -->
<g id="edge15_Node000013_Node000009" class="edge">
<title>Node9&#45;&gt;Node13</title>
<g id="a_edge15_Node000013_Node000009"><a xlink:title=" ">
<path fill="none" stroke="#9a32cd" stroke-dasharray="5,2" d="M567.09,-144.55C713.34,-144.71 1199.19,-145.26 1358.74,-145.44"/>
<polygon fill="#9a32cd" stroke="#9a32cd" points="566.76,-141.05 556.76,-144.54 566.75,-148.05 566.76,-141.05"/>
</a>
</g>
<text text-anchor="start" x="959.5" y="-150" font-family="Helvetica,sans-Serif" font-size="10.00" fill="grey">m_name</text>
</g>
<!-- Node15 -->
<g id="Node000015" class="node">
<title>Node15</title>
<g id="a_Node000015"><a xlink:href="structkynema__sgf_1_1_field_info.html" target="_top" xlink:title=" ">
<polygon fill="white" stroke="#666666" points="900,-188 777,-188 777,-169 900,-169 900,-188"/>
<text text-anchor="middle" x="838.5" y="-176" font-family="Helvetica,sans-Serif" font-size="10.00">kynema_sgf::FieldInfo</text>
</a>
</g>
</g>
<!-- Node9&#45;&gt;Node15 -->
<g id="edge18_Node000015_Node000009" class="edge">
<title>Node9&#45;&gt;Node15</title>
<g id="a_edge18_Node000015_Node000009"><a xlink:title=" ">
<path fill="none" stroke="#9a32cd" stroke-dasharray="5,2" d="M566.92,-149.06C620.9,-154.93 715.1,-165.18 776.88,-171.9"/>
<polygon fill="#9a32cd" stroke="#9a32cd" points="567,-145.55 556.68,-147.95 566.25,-152.51 567,-145.55"/>
</a>
</g>
<text text-anchor="start" x="657.5" y="-174" font-family="Helvetica,sans-Serif" font-size="10.00" fill="grey">m_basename</text>
</g>
<!-- Node10 -->
<g id="Node000010" class="node">
<title>Node10</title>
<g id="a_Node000010"><a xlink:title=" ">
<polygon fill="white" stroke="#666666" points="241.5,-159.5 137.5,-159.5 137.5,-129.5 241.5,-129.5 241.5,-159.5"/>
<text text-anchor="start" x="145.5" y="-147.5" font-family="Helvetica,sans-Serif" font-size="10.00">std::basic_string&lt;</text>
<text text-anchor="middle" x="189.5" y="-136.5" font-family="Helvetica,sans-Serif" font-size="10.00"> Char &gt;</text>
</a>
</g>
</g>
<!-- Node10&#45;&gt;Node9 -->
<g id="edge9_Node000009_Node000010" class="edge">
<title>Node10&#45;&gt;Node9</title>
<g id="a_edge9_Node000009_Node000010"><a xlink:title=" ">
<path fill="none" stroke="#63b8ff" d="M251.85,-144.5C322.64,-144.5 436.34,-144.5 491.27,-144.5"/>
<polygon fill="#63b8ff" stroke="#63b8ff" points="251.72,-141 241.72,-144.5 251.72,-148 251.72,-141"/>
</a>
</g>
</g>
<!-- Node11&#45;&gt;Node8 -->
<g id="edge10_Node000008_Node000011" class="edge">
<title>Node11&#45;&gt;Node8</title>
<g id="a_edge10_Node000008_Node000011"><a xlink:title=" ">
<path fill="none" stroke="orange" stroke-dasharray="5,2" d="M591.23,-53.65C638.31,-52.73 702.89,-53.71 759,-62.5 770.36,-64.28 782.4,-67.24 793.54,-70.45"/>
<polygon fill="orange" stroke="orange" points="591.07,-50.16 581.16,-53.88 591.23,-57.15 591.07,-50.16"/>
</a>
</g>
<text text-anchor="start" x="637.5" y="-68" font-family="Helvetica,sans-Serif" font-size="10.00" fill="grey">&lt; std::string, size_t &gt;</text>
</g>
<!-- Node20 -->
<g id="Node000020" class="node">
<title>Node20</title>
<g id="a_Node000020"><a xlink:title=" ">
<polygon fill="white" stroke="#666666" points="1333,-41 1219,-41 1219,0 1333,0 1333,-41"/>
<text text-anchor="start" x="1227" y="-29" font-family="Helvetica,sans-Serif" font-size="10.00">std::unordered_map</text>
<text text-anchor="start" x="1227" y="-18" font-family="Helvetica,sans-Serif" font-size="10.00">&lt; std::string, amrex</text>
<text text-anchor="middle" x="1276" y="-7" font-family="Helvetica,sans-Serif" font-size="10.00">::Real &gt;</text>
</a>
</g>
</g>
<!-- Node11&#45;&gt;Node20 -->
<g id="edge27_Node000020_Node000011" class="edge">
<title>Node11&#45;&gt;Node20</title>
<g id="a_edge27_Node000020_Node000011"><a xlink:title=" ">
<path fill="none" stroke="orange" stroke-dasharray="5,2" d="M591.6,-47.74C642.33,-41.46 713.94,-33.44 777,-29.5 937.09,-19.5 1126.66,-19.26 1218.92,-19.9"/>
<polygon fill="orange" stroke="orange" points="590.92,-44.29 581.43,-49.01 591.78,-51.24 590.92,-44.29"/>
</a>
</g>
<text text-anchor="start" x="789.5" y="-50.5" font-family="Helvetica,sans-Serif" font-size="10.00" fill="grey">&lt; std::string, amrex</text>
<text text-anchor="start" x="789.5" y="-35.5" font-family="Helvetica,sans-Serif" font-size="10.00" fill="grey">  ::Real &gt;</text>
</g>
<!-- Node12 -->
<g id="Node000012" class="node">
<title>Node12</title>
<g id="a_Node000012"><a xlink:title=" ">
<polygon fill="white" stroke="#666666" points="204,-58 175,-58 175,-39 204,-39 204,-58"/>
<text text-anchor="middle" x="189.5" y="-46" font-family="Helvetica,sans-Serif" font-size="10.00">K</text>
</a>
</g>
</g>
<!-- Node12&#45;&gt;Node11 -->
<g id="edge11_Node000011_Node000012" class="edge">
<title>Node12&#45;&gt;Node11</title>
<g id="a_edge11_Node000011_Node000012"><a xlink:title=" ">
<path fill="none" stroke="#9a32cd" stroke-dasharray="5,2" d="M214.38,-49.07C266.77,-50.34 393.02,-53.37 466.8,-55.15"/>
<polygon fill="#9a32cd" stroke="#9a32cd" points="214.45,-45.58 204.36,-48.83 214.28,-52.57 214.45,-45.58"/>
</a>
</g>
<text text-anchor="start" x="342" y="-60" font-family="Helvetica,sans-Serif" font-size="10.00" fill="grey">keys</text>
</g>
<!-- Node13&#45;&gt;Node1 -->
<g id="edge13_Node000001_Node000013" class="edge">
<title>Node13&#45;&gt;Node1</title>
<g id="a_edge13_Node000001_Node000013"><a xlink:title=" ">
<path fill="none" stroke="#9a32cd" stroke-dasharray="5,2" d="M1473.47,-149.72C1508.81,-153.04 1553.83,-158.78 1593,-168.5 1615.34,-174.04 1639.85,-183.67 1656.78,-190.92"/>
<polygon fill="#9a32cd" stroke="#9a32cd" points="1473.57,-146.22 1463.3,-148.81 1472.95,-153.19 1473.57,-146.22"/>
</a>
</g>
<text text-anchor="start" x="1492" y="-204" font-family="Helvetica,sans-Serif" font-size="10.00" fill="grey">m_density</text>
<text text-anchor="start" x="1492" y="-189" font-family="Helvetica,sans-Serif" font-size="10.00" fill="grey">m_mms_vel_source</text>
<text text-anchor="start" x="1492" y="-174" font-family="Helvetica,sans-Serif" font-size="10.00" fill="grey">m_velocity</text>
</g>
<!-- Node14 -->
<g id="Node000014" class="node">
<title>Node14</title>
<g id="a_Node000014"><a xlink:title=" ">
<polygon fill="white" stroke="#666666" points="1201,-193.5 1061,-193.5 1061,-163.5 1201,-163.5 1201,-193.5"/>
<text text-anchor="start" x="1069" y="-181.5" font-family="Helvetica,sans-Serif" font-size="10.00">std::shared_ptr&lt; kynema</text>
<text text-anchor="middle" x="1131" y="-170.5" font-family="Helvetica,sans-Serif" font-size="10.00">_sgf::FieldInfo &gt;</text>
</a>
</g>
</g>
<!-- Node14&#45;&gt;Node13 -->
<g id="edge16_Node000013_Node000014" class="edge">
<title>Node14&#45;&gt;Node13</title>
<g id="a_edge16_Node000013_Node000014"><a xlink:title=" ">
<path fill="none" stroke="#9a32cd" stroke-dasharray="5,2" d="M1211.01,-169.12C1258.44,-163.49 1317.39,-156.49 1358.78,-151.58"/>
<polygon fill="#9a32cd" stroke="#9a32cd" points="1210.59,-165.65 1201.08,-170.3 1211.42,-172.6 1210.59,-165.65"/>
</a>
</g>
<text text-anchor="start" x="1259" y="-173" font-family="Helvetica,sans-Serif" font-size="10.00" fill="grey">m_info</text>
</g>
<!-- Node15&#45;&gt;Node14 -->
<g id="edge17_Node000014_Node000015" class="edge">
<title>Node15&#45;&gt;Node14</title>
<g id="a_edge17_Node000014_Node000015"><a xlink:title=" ">
<path fill="none" stroke="#9a32cd" stroke-dasharray="5,2" d="M910.19,-178.5C956,-178.5 1015.37,-178.5 1060.87,-178.5"/>
<polygon fill="#9a32cd" stroke="#9a32cd" points="910.04,-175 900.04,-178.5 910.04,-182 910.04,-175"/>
</a>
</g>
<text text-anchor="start" x="973.5" y="-184" font-family="Helvetica,sans-Serif" font-size="10.00" fill="grey">ptr</text>
</g>
<!-- Node16 -->
<g id="Node000016" class="node">
<title>Node16</title>
<g id="a_Node000016"><a xlink:title=" ">
<polygon fill="white" stroke="#666666" points="604,-246.5 444,-246.5 444,-216.5 604,-216.5 604,-246.5"/>
<text text-anchor="start" x="452" y="-234.5" font-family="Helvetica,sans-Serif" font-size="10.00">std::unique_ptr&lt; kynema</text>
<text text-anchor="middle" x="524" y="-223.5" font-family="Helvetica,sans-Serif" font-size="10.00">_sgf::FieldFillPatchOpsBase &gt;</text>
</a>
</g>
</g>
<!-- Node16&#45;&gt;Node15 -->
<g id="edge19_Node000015_Node000016" class="edge">
<title>Node16&#45;&gt;Node15</title>
<g id="a_edge19_Node000015_Node000016"><a xlink:title=" ">
<path fill="none" stroke="#9a32cd" stroke-dasharray="5,2" d="M614.16,-216.38C668.01,-207.25 734.99,-195.89 781.48,-188"/>
<polygon fill="#9a32cd" stroke="#9a32cd" points="613.53,-212.93 604.26,-218.06 614.71,-219.84 613.53,-212.93"/>
</a>
</g>
<text text-anchor="start" x="654.5" y="-219" font-family="Helvetica,sans-Serif" font-size="10.00" fill="grey">m_fillpatch_op</text>
</g>
<!-- Node17 -->
<g id="Node000017" class="node">
<title>Node17</title>
<g id="a_Node000017"><a xlink:href="classkynema__sgf_1_1_field_fill_patch_ops_base.html" target="_top" xlink:title=" ">
<polygon fill="white" stroke="#666666" points="262,-246.5 117,-246.5 117,-216.5 262,-216.5 262,-246.5"/>
<text text-anchor="start" x="125" y="-234.5" font-family="Helvetica,sans-Serif" font-size="10.00">kynema_sgf::FieldFillPatch</text>
<text text-anchor="middle" x="189.5" y="-223.5" font-family="Helvetica,sans-Serif" font-size="10.00">OpsBase</text>
</a>
</g>
</g>
<!-- Node17&#45;&gt;Node16 -->
<g id="edge20_Node000016_Node000017" class="edge">
<title>Node17&#45;&gt;Node16</title>
<g id="a_edge20_Node000016_Node000017"><a xlink:title=" ">
<path fill="none" stroke="#9a32cd" stroke-dasharray="5,2" d="M272.48,-231.5C324.75,-231.5 392.12,-231.5 443.83,-231.5"/>
<polygon fill="#9a32cd" stroke="#9a32cd" points="272.24,-228 262.24,-231.5 272.24,-235 272.24,-228"/>
</a>
</g>
<text text-anchor="start" x="346" y="-237" font-family="Helvetica,sans-Serif" font-size="10.00" fill="grey">ptr</text>
</g>
<!-- Node18&#45;&gt;Node16 -->
<g id="edge21_Node000016_Node000018" class="edge">
<title>Node18&#45;&gt;Node16</title>
<g id="a_edge21_Node000016_Node000018"><a xlink:title=" ">
<path fill="none" stroke="orange" stroke-dasharray="5,2" d="M258.81,-184.71C306.17,-183.5 370.46,-184.67 426,-195.5 448.21,-199.83 472.06,-208.62 490.55,-216.43"/>
<polygon fill="orange" stroke="orange" points="258.56,-181.22 248.67,-185.02 258.77,-188.22 258.56,-181.22"/>
</a>
</g>
<text text-anchor="start" x="283" y="-216.5" font-family="Helvetica,sans-Serif" font-size="10.00" fill="grey">&lt; kynema_sgf::FieldFillPatch</text>
<text text-anchor="start" x="283" y="-201.5" font-family="Helvetica,sans-Serif" font-size="10.00" fill="grey">  OpsBase &gt;</text>
</g>
<!-- Node19&#45;&gt;Node14 -->
<g id="edge23_Node000014_Node000019" class="edge">
<title>Node19&#45;&gt;Node14</title>
<g id="a_edge23_Node000014_Node000019"><a xlink:title=" ">
<path fill="none" stroke="orange" stroke-dasharray="5,2" d="M422.27,-270.25C472.58,-266.9 542.62,-261.74 604,-255.5 799.68,-235.6 849.55,-235.07 1043,-199.5 1052.32,-197.79 1062.14,-195.7 1071.69,-193.51"/>
<polygon fill="orange" stroke="orange" points="421.91,-266.77 412.17,-270.92 422.38,-273.76 421.91,-266.77"/>
</a>
</g>
<text text-anchor="start" x="625.5" y="-258" font-family="Helvetica,sans-Serif" font-size="10.00" fill="grey">&lt; kynema_sgf::FieldInfo &gt;</text>
</g>
<!-- Node20&#45;&gt;Node1 -->
<g id="edge26_Node000001_Node000020" class="edge">
<title>Node20&#45;&gt;Node1</title>
<g id="a_edge26_Node000001_Node000020"><a xlink:title=" ">
<path fill="none" stroke="#9a32cd" stroke-dasharray="5,2" d="M1343.42,-11.55C1412.21,-5.92 1519.68,-7.69 1593,-59.5 1641.32,-93.65 1667.07,-164.76 1675.16,-190.73"/>
<polygon fill="#9a32cd" stroke="#9a32cd" points="1342.79,-8.09 1333.15,-12.47 1343.42,-15.07 1342.79,-8.09"/>
</a>
</g>
<text text-anchor="start" x="1372" y="-20" font-family="Helvetica,sans-Serif" font-size="10.00" fill="grey">m_params_map</text>
</g>
</g>
</svg>

<g id="navigator" transform="translate(0 0)" fill="#404254">
  <rect fill="#f2f5e9" fill-opacity="0.5" stroke="#606060" stroke-width=".5" x="0" y="0" width="60" height="60"/>
  <use id="zoomplus" xlink:href="#zoomPlus" x="17" y="9" onmousedown="handleZoom(evt,'in')"/>
  <use id="zoomminus" xlink:href="#zoomMin" x="42" y="9" onmousedown="handleZoom(evt,'out')"/>
  <use id="reset" xlink:href="#resetDef" x="30" y="36" onmousedown="handleReset()"/>
   <use id="arrowup" xlink:href="#arrowUp" x="0" y="0" onmousedown="handlePan(0,-1)"/>
  <use id="arrowright" xlink:href="#arrowRight" x="0" y="0" onmousedown="handlePan(1,0)"/>
  <use id="arrowdown" xlink:href="#arrowDown" x="0" y="0" onmousedown="handlePan(0,1)"/>
  <use id="arrowleft" xlink:href="#arrowLeft" x="0" y="0" onmousedown="handlePan(-1,0)"/>
</g>
<svg viewBox="0 0 15 15" width="100%" height="30px" preserveAspectRatio="xMaxYMin meet">
 <g id="arrow_out" transform="scale(0.3 0.3)">
  <a xlink:href="classkynema__sgf_1_1mms_1_1_m_m_s__coll__graph_org.svg" target="_base">
   <rect id="button" ry="5" rx="5" y="6" x="6" height="38" width="38"
        fill="#f2f5e9" fill-opacity="0.5" stroke="#606060" stroke-width="1.0"/>
   <path id="arrow"
     d="M 11.500037,31.436501 C 11.940474,20.09759 22.043105,11.32322 32.158766,21.979434 L 37.068811,17.246167 C 37.068811,17.246167 37.088388,32 37.088388,32 L 22.160133,31.978069 C 22.160133,31.978069 26.997745,27.140456 26.997745,27.140456 C 18.528582,18.264221 13.291696,25.230495 11.500037,31.436501 z"
     style="fill:#404040;"/>
  </a>
 </g>
</svg>

<style type='text/css'>
<![CDATA[
[data-mouse-over-selected='false'] { opacity: 0.7; }
[data-mouse-over-selected='true']  { opacity: 1.0; }
]]>
</style>
<script type="application/ecmascript"><![CDATA[
document.addEventListener('DOMContentLoaded', (event) => {
  highlightEdges();
  highlightAdjacentNodes();
});
]]></script>
</svg>
