<?xml version="1.0" encoding="UTF-8" standalone="no"?>
<!DOCTYPE svg PUBLIC "-//W3C//DTD SVG 1.1//EN"
 "http://www.w3.org/Graphics/SVG/1.1/DTD/svg11.dtd">
<!-- Generated by graphviz version 2.43.0 (0)
 -->
<!-- Title: kynema_sgf::PlaneFillInflow Pages: 1 -->
<svg width="242pt" height="244pt"
 viewBox="0.00 0.00 242.00 244.00" xmlns="http://www.w3.org/2000/svg" xmlns:xlink="http://www.w3.org/1999/xlink">

<svg id="main" version="1.1" xmlns="http://www.w3.org/2000/svg" xmlns:xlink="http://www.w3.org/1999/xlink" xml:space="preserve">

<style type="text/css"><![CDATA[
.node, .edge {opacity: 0.7;}
.node.selected, .edge.selected {opacity: 1;}
.edge:hover path { stroke: red; }
.edge:hover polygon { stroke: red; fill: red; }
]]></style>
<script type="application/ecmascript" xlink:href="svg.min.js"/>
<svg id="graph" class="graph">
<g id="graph0" class="graph" transform="scale(1 1) rotate(0) translate(4 240)">
<title>kynema_sgf::PlaneFillInflow</title>
<!-- Node1 -->
<g id="Node000001" class="node">
<title>Node1</title>
<g id="a_Node000001"><a xlink:title=" ">
<polygon fill="#999999" stroke="#666666" points="152.5,-19 0.5,-19 0.5,0 152.5,0 152.5,-19"/>
<text text-anchor="middle" x="76.5" y="-7" font-family="Helvetica,sans-Serif" font-size="10.00">kynema_sgf::PlaneFillInflow</text>
</a>
</g>
</g>
<!-- Node2 -->
<g id="Node000002" class="node">
<title>Node2</title>
<g id="a_Node000002"><a xlink:href="classkynema__sgf_1_1_field_fill_patch_ops.html" target="_top" xlink:title=" ">
<polygon fill="white" stroke="#666666" points="149,-86 4,-86 4,-56 149,-56 149,-86"/>
<text text-anchor="start" x="12" y="-74" font-family="Helvetica,sans-Serif" font-size="10.00">kynema_sgf::FieldFillPatch</text>
<text text-anchor="middle" x="76.5" y="-63" font-family="Helvetica,sans-Serif" font-size="10.00">Ops&lt; FieldBCDirichlet &gt;</text>
</a>
</g>
</g>
<!-- Node2&#45;&gt;Node1 -->
<g id="edge1_Node000001_Node000002" class="edge">
<title>Node2&#45;&gt;Node1</title>
<g id="a_edge1_Node000001_Node000002"><a xlink:title=" ">
<path fill="none" stroke="#63b8ff" d="M76.5,-45.79C76.5,-36.36 76.5,-26.15 76.5,-19.16"/>
<polygon fill="#63b8ff" stroke="#63b8ff" points="73,-45.9 76.5,-55.9 80,-45.9 73,-45.9"/>
</a>
</g>
</g>
<!-- Node3 -->
<g id="Node000003" class="node">
<title>Node3</title>
<g id="a_Node000003"><a xlink:href="classkynema__sgf_1_1_field_fill_patch_ops_base.html" target="_top" xlink:title=" ">
<polygon fill="white" stroke="#666666" points="145,-236 0,-236 0,-206 145,-206 145,-236"/>
<text text-anchor="start" x="8" y="-224" font-family="Helvetica,sans-Serif" font-size="10.00">kynema_sgf::FieldFillPatch</text>
<text text-anchor="middle" x="72.5" y="-213" font-family="Helvetica,sans-Serif" font-size="10.00">OpsBase</text>
</a>
</g>
</g>
<!-- Node3&#45;&gt;Node2 -->
<g id="edge2_Node000002_Node000003" class="edge">
<title>Node3&#45;&gt;Node2</title>
<g id="a_edge2_Node000002_Node000003"><a xlink:title=" ">
<path fill="none" stroke="#63b8ff" d="M73.15,-195.81C73.99,-164.72 75.43,-111.73 76.11,-86.37"/>
<polygon fill="#63b8ff" stroke="#63b8ff" points="69.66,-195.72 72.88,-205.81 76.65,-195.91 69.66,-195.72"/>
</a>
</g>
</g>
<!-- Node4 -->
<g id="Node000004" class="node">
<title>Node4</title>
<g id="a_Node000004"><a xlink:href="classkynema__sgf_1_1_field_fill_patch_ops.html" target="_top" xlink:title=" ">
<polygon fill="white" stroke="#666666" points="234,-169 89,-169 89,-139 234,-139 234,-169"/>
<text text-anchor="start" x="97" y="-157" font-family="Helvetica,sans-Serif" font-size="10.00">kynema_sgf::FieldFillPatch</text>
<text text-anchor="middle" x="161.5" y="-146" font-family="Helvetica,sans-Serif" font-size="10.00">Ops&lt; BCOpCreator &gt;</text>
</a>
</g>
</g>
<!-- Node3&#45;&gt;Node4 -->
<g id="edge4_Node000004_Node000003" class="edge">
<title>Node3&#45;&gt;Node4</title>
<g id="a_edge4_Node000004_Node000003"><a xlink:title=" ">
<path fill="none" stroke="#63b8ff" d="M99.95,-199.95C113.64,-189.95 129.87,-178.1 142.23,-169.08"/>
<polygon fill="#63b8ff" stroke="#63b8ff" points="97.82,-197.17 91.81,-205.9 101.95,-202.82 97.82,-197.17"/>
</a>
</g>
</g>
<!-- Node4&#45;&gt;Node2 -->
<g id="edge3_Node000002_Node000004" class="edge">
<title>Node4&#45;&gt;Node2</title>
<g id="a_edge3_Node000002_Node000004"><a xlink:title=" ">
<path fill="none" stroke="orange" stroke-dasharray="5,2" d="M139.27,-131.82C124.19,-117.45 104.66,-98.84 91.42,-86.22"/>
<polygon fill="orange" stroke="orange" points="137.04,-134.53 146.69,-138.89 141.87,-129.46 137.04,-134.53"/>
</a>
</g>
<text text-anchor="start" x="130" y="-109.5" font-family="Helvetica,sans-Serif" font-size="10.00" fill="grey">&lt; FieldBCDirichlet &gt;</text>
</g>
</g>
</svg>
</svg>

<style type='text/css'>
<![CDATA[
[data-mouse-over-selected='false'] { opacity: 0.7; }
[data-mouse-over-selected='true']  { opacity: 1.0; }
]]>
</style>
<script type="application/ecmascript"><![CDATA[
document.addEventListener('DOMContentLoaded', (event) => {
  highlightEdges();
  highlightAdjacentNodes();
});
]]></script>
</svg>
