<?xml version="1.0" encoding="UTF-8" standalone="no"?>
<!DOCTYPE svg PUBLIC "-//W3C//DTD SVG 1.1//EN"
 "http://www.w3.org/Graphics/SVG/1.1/DTD/svg11.dtd">
<!-- Generated by graphviz version 2.43.0 (0)
 -->
<!-- Title: kynema_sgf::VelPlaneAveraging Pages: 1 -->
<svg width="231pt" height="454pt"
 viewBox="0.00 0.00 231.00 454.00" xmlns="http://www.w3.org/2000/svg" xmlns:xlink="http://www.w3.org/1999/xlink">
<g id="graph0" class="graph" transform="scale(1 1) rotate(0) translate(4 450)">
<title>kynema_sgf::VelPlaneAveraging</title>
<!-- Node1 -->
<g id="Node000001" class="node">
<title>Node1</title>
<g id="a_Node000001"><a xlink:title=" ">
<polygon fill="#999999" stroke="#666666" points="172,-19 0,-19 0,0 172,0 172,-19"/>
<text text-anchor="middle" x="86" y="-7" font-family="Helvetica,sans-Serif" font-size="10.00">kynema_sgf::VelPlaneAveraging</text>
</a>
</g>
</g>
<!-- Node2 -->
<g id="Node000002" class="node">
<title>Node2</title>
<g id="a_Node000002"><a xlink:href="classkynema__sgf_1_1_f_plane_averaging.html" target="_top" xlink:title=" ">
<polygon fill="white" stroke="#666666" points="144,-75 28,-75 28,-56 144,-56 144,-75"/>
<text text-anchor="middle" x="86" y="-63" font-family="Helvetica,sans-Serif" font-size="10.00">FieldPlaneAveraging</text>
</a>
</g>
</g>
<!-- Node2&#45;&gt;Node1 -->
<g id="edge1_Node000001_Node000002" class="edge">
<title>Node2&#45;&gt;Node1</title>
<g id="a_edge1_Node000001_Node000002"><a xlink:title=" ">
<path fill="none" stroke="#63b8ff" d="M86,-45.3C86,-36.41 86,-26.28 86,-19.25"/>
<polygon fill="#63b8ff" stroke="#63b8ff" points="82.5,-45.58 86,-55.58 89.5,-45.58 82.5,-45.58"/>
</a>
</g>
</g>
<!-- Node3 -->
<g id="Node000003" class="node">
<title>Node3</title>
<g id="a_Node000003"><a xlink:href="classkynema__sgf_1_1_f_plane_averaging.html" target="_top" xlink:title=" ">
<polygon fill="white" stroke="#666666" points="167.5,-158 4.5,-158 4.5,-128 167.5,-128 167.5,-158"/>
<text text-anchor="start" x="12.5" y="-146" font-family="Helvetica,sans-Serif" font-size="10.00">kynema_sgf::FPlaneAveraging</text>
<text text-anchor="middle" x="86" y="-135" font-family="Helvetica,sans-Serif" font-size="10.00">&lt; FType &gt;</text>
</a>
</g>
</g>
<!-- Node3&#45;&gt;Node2 -->
<g id="edge2_Node000002_Node000003" class="edge">
<title>Node3&#45;&gt;Node2</title>
<g id="a_edge2_Node000002_Node000003"><a xlink:title=" ">
<path fill="none" stroke="orange" stroke-dasharray="5,2" d="M86,-117.4C86,-102.81 86,-85.22 86,-75.01"/>
<polygon fill="orange" stroke="orange" points="82.5,-117.8 86,-127.8 89.5,-117.8 82.5,-117.8"/>
</a>
</g>
<text text-anchor="start" x="89" y="-98.5" font-family="Helvetica,sans-Serif" font-size="10.00" fill="grey">&lt; Field &gt;</text>
</g>
<!-- Node4 -->
<g id="Node000004" class="node">
<title>Node4</title>
<g id="a_Node000004"><a xlink:href="classkynema__sgf_1_1_sim_time.html" target="_top" xlink:title=" ">
<polygon fill="white" stroke="#666666" points="148.5,-230 23.5,-230 23.5,-211 148.5,-211 148.5,-230"/>
<text text-anchor="middle" x="86" y="-218" font-family="Helvetica,sans-Serif" font-size="10.00">kynema_sgf::SimTime</text>
</a>
</g>
</g>
<!-- Node4&#45;&gt;Node3 -->
<g id="edge3_Node000003_Node000004" class="edge">
<title>Node4&#45;&gt;Node3</title>
<g id="a_edge3_Node000003_Node000004"><a xlink:title=" ">
<path fill="none" stroke="#9a32cd" stroke-dasharray="5,2" d="M86,-200.57C86,-187.43 86,-170.18 86,-158.21"/>
<polygon fill="#9a32cd" stroke="#9a32cd" points="82.5,-200.84 86,-210.84 89.5,-200.84 82.5,-200.84"/>
</a>
</g>
<text text-anchor="start" x="89" y="-181.5" font-family="Helvetica,sans-Serif" font-size="10.00" fill="grey">m_time</text>
</g>
<!-- Node5 -->
<g id="Node000005" class="node">
<title>Node5</title>
<g id="a_Node000005"><a xlink:title=" ">
<polygon fill="white" stroke="#666666" points="142,-302 30,-302 30,-283 142,-283 142,-302"/>
<text text-anchor="middle" x="86" y="-290" font-family="Helvetica,sans-Serif" font-size="10.00">std::vector&lt; bool &gt;</text>
</a>
</g>
</g>
<!-- Node5&#45;&gt;Node4 -->
<g id="edge4_Node000004_Node000005" class="edge">
<title>Node5&#45;&gt;Node4</title>
<g id="a_edge4_Node000004_Node000005"><a xlink:title=" ">
<path fill="none" stroke="#9a32cd" stroke-dasharray="5,2" d="M86,-272.58C86,-258.76 86,-240.68 86,-230.15"/>
<polygon fill="#9a32cd" stroke="#9a32cd" points="82.5,-272.92 86,-282.92 89.5,-272.92 82.5,-272.92"/>
</a>
</g>
<text text-anchor="start" x="89.5" y="-253.5" font-family="Helvetica,sans-Serif" font-size="10.00" fill="grey">m_postprocess_enforce_dt</text>
</g>
<!-- Node6 -->
<g id="Node000006" class="node">
<title>Node6</title>
<g id="a_Node000006"><a xlink:title=" ">
<polygon fill="white" stroke="#666666" points="134.5,-374 37.5,-374 37.5,-355 134.5,-355 134.5,-374"/>
<text text-anchor="middle" x="86" y="-362" font-family="Helvetica,sans-Serif" font-size="10.00">std::vector&lt; T &gt;</text>
</a>
</g>
</g>
<!-- Node6&#45;&gt;Node5 -->
<g id="edge5_Node000005_Node000006" class="edge">
<title>Node6&#45;&gt;Node5</title>
<g id="a_edge5_Node000005_Node000006"><a xlink:title=" ">
<path fill="none" stroke="orange" stroke-dasharray="5,2" d="M86,-344.58C86,-330.76 86,-312.68 86,-302.15"/>
<polygon fill="orange" stroke="orange" points="82.5,-344.92 86,-354.92 89.5,-344.92 82.5,-344.92"/>
</a>
</g>
<text text-anchor="start" x="89" y="-325.5" font-family="Helvetica,sans-Serif" font-size="10.00" fill="grey">&lt; bool &gt;</text>
</g>
<!-- Node7 -->
<g id="Node000007" class="node">
<title>Node7</title>
<g id="a_Node000007"><a xlink:title=" ">
<polygon fill="white" stroke="#666666" points="100.5,-446 71.5,-446 71.5,-427 100.5,-427 100.5,-446"/>
<text text-anchor="middle" x="86" y="-434" font-family="Helvetica,sans-Serif" font-size="10.00">T</text>
</a>
</g>
</g>
<!-- Node7&#45;&gt;Node6 -->
<g id="edge6_Node000006_Node000007" class="edge">
<title>Node7&#45;&gt;Node6</title>
<g id="a_edge6_Node000006_Node000007"><a xlink:title=" ">
<path fill="none" stroke="#9a32cd" stroke-dasharray="5,2" d="M86,-416.58C86,-402.76 86,-384.68 86,-374.15"/>
<polygon fill="#9a32cd" stroke="#9a32cd" points="82.5,-416.92 86,-426.92 89.5,-416.92 82.5,-416.92"/>
</a>
</g>
<text text-anchor="start" x="89" y="-397.5" font-family="Helvetica,sans-Serif" font-size="10.00" fill="grey">elements</text>
</g>
</g>
</svg>
