<?xml version="1.0" encoding="UTF-8" standalone="no"?>
<!DOCTYPE svg PUBLIC "-//W3C//DTD SVG 1.1//EN"
 "http://www.w3.org/Graphics/SVG/1.1/DTD/svg11.dtd">
<!-- Generated by graphviz version 2.43.0 (0)
 -->
<!-- Title: kynema_sgf::burggraf::BurggrafFlow Pages: 1 -->
<!--zoomable 329 -->

<svg id="main" version="1.1" xmlns="http://www.w3.org/2000/svg" xmlns:xlink="http://www.w3.org/1999/xlink" xml:space="preserve" onload="init(evt)">

<style type="text/css"><![CDATA[
.node, .edge {opacity: 0.7;}
.node.selected, .edge.selected {opacity: 1;}
.edge:hover path { stroke: red; }
.edge:hover polygon { stroke: red; fill: red; }
]]></style>

<defs>
  <circle id="rim" cx="0" cy="0" r="7"/>
  <circle id="rim2" cx="0" cy="0" r="3.5"/>
  <g id="zoomPlus">
    <use xlink:href="#rim" fill="#404040"><set attributeName="fill" to="#808080" begin="zoomplus.mouseover" end="zoomplus.mouseout"/></use>
    <path d="M-4,0h8M0,-4v8" fill="none" stroke="white" stroke-width="1.5" pointer-events="none"/>
  </g>
  <g id="zoomMin">
    <use xlink:href="#rim" fill="#404040"><set attributeName="fill" to="#808080" begin="zoomminus.mouseover" end="zoomminus.mouseout"/></use>
    <path d="M-4,0h8" fill="none" stroke="white" stroke-width="1.5" pointer-events="none"/>
  </g>
  <g id="arrowUp" transform="translate(30 24)">
    <use xlink:href="#rim"/>
    <path pointer-events="none" fill="none" stroke="white" stroke-width="1.5" d="M0,-3.0v7 M-2.5,-0.5L0,-3.0L2.5,-0.5"/>
  </g>
  <g id="arrowRight" transform="rotate(90) translate(36 -43)">
    <use xlink:href="#rim"/>
    <path pointer-events="none" fill="none" stroke="white" stroke-width="1.5" d="M0,-3.0v7 M-2.5,-0.5L0,-3.0L2.5,-0.5"/>
  </g>
  <g id="arrowDown" transform="rotate(180) translate(-30 -48)">
    <use xlink:href="#rim"/>
    <path pointer-events="none" fill="none" stroke="white" stroke-width="1.5" d="M0,-3.0v7 M-2.5,-0.5L0,-3.0L2.5,-0.5"/>
  </g>
  <g id="arrowLeft" transform="rotate(270) translate(-36 17)">
    <use xlink:href="#rim"/>
    <path pointer-events="none" fill="none" stroke="white" stroke-width="1.5" d="M0,-3.0v7 M-2.5,-0.5L0,-3.0L2.5,-0.5"/>
  </g>
  <g id="resetDef">
    <use xlink:href="#rim2" fill="#404040"><set attributeName="fill" to="#808080" begin="reset.mouseover" end="reset.mouseout"/></use>
  </g>
</defs>
<script type="application/ecmascript">
var viewWidth = 1628;
var viewHeight = 329;
var sectionId = 'dynsection-1';
</script>
<script type="application/ecmascript" xlink:href="svg.min.js"/>
<svg id="graph" class="graph">
<g id="viewport">
<title>kynema_sgf::burggraf::BurggrafFlow</title>
<!-- Node1 -->
<g id="Node000001" class="node">
<title>Node1</title>
<g id="a_Node000001"><a xlink:title=" ">
<polygon fill="#999999" stroke="#666666" points="1620,-190.84 1498,-190.84 1498,-160.84 1620,-160.84 1620,-190.84"/>
<text text-anchor="start" x="1506" y="-178.84" font-family="Helvetica,sans-Serif" font-size="10.00">kynema_sgf::burggraf</text>
<text text-anchor="middle" x="1559" y="-167.84" font-family="Helvetica,sans-Serif" font-size="10.00">::BurggrafFlow</text>
</a>
</g>
</g>
<!-- Node2 -->
<g id="Node000002" class="node">
<title>Node2</title>
<g id="a_Node000002"><a xlink:title=" ">
<polygon fill="white" stroke="#666666" points="1401,-321.34 1281,-321.34 1281,-280.34 1401,-280.34 1401,-321.34"/>
<text text-anchor="start" x="1289" y="-309.34" font-family="Helvetica,sans-Serif" font-size="10.00">kynema_sgf::Factory</text>
<text text-anchor="start" x="1289" y="-298.34" font-family="Helvetica,sans-Serif" font-size="10.00">&lt; Physics, CFDSim &amp;</text>
<text text-anchor="middle" x="1341" y="-287.34" font-family="Helvetica,sans-Serif" font-size="10.00"> &gt;::Register</text>
</a>
</g>
</g>
<!-- Node2&#45;&gt;Node1 -->
<g id="edge1_Node000001_Node000002" class="edge">
<title>Node2&#45;&gt;Node1</title>
<g id="a_edge1_Node000001_Node000002"><a xlink:title=" ">
<path fill="none" stroke="#63b8ff" d="M1411.25,-291.83C1434.33,-286.66 1459.38,-278.56 1480,-265.84 1510.98,-246.74 1536.23,-211.37 1548.98,-191.12"/>
<polygon fill="#63b8ff" stroke="#63b8ff" points="1410.24,-288.47 1401.16,-293.94 1411.67,-295.32 1410.24,-288.47"/>
</a>
</g>
</g>
<!-- Node3 -->
<g id="Node000003" class="node">
<title>Node3</title>
<g id="a_Node000003"><a xlink:href="classkynema__sgf_1_1_sim_time.html" target="_top" xlink:title=" ">
<polygon fill="white" stroke="#666666" points="1043,-296.34 918,-296.34 918,-277.34 1043,-277.34 1043,-296.34"/>
<text text-anchor="middle" x="980.5" y="-284.34" font-family="Helvetica,sans-Serif" font-size="10.00">kynema_sgf::SimTime</text>
</a>
</g>
</g>
<!-- Node3&#45;&gt;Node1 -->
<g id="edge2_Node000001_Node000003" class="edge">
<title>Node3&#45;&gt;Node1</title>
<g id="a_edge2_Node000001_Node000003"><a xlink:title=" ">
<path fill="none" stroke="#9a32cd" stroke-dasharray="5,2" d="M1053.38,-282.24C1172.01,-273.96 1403.3,-254.79 1480,-226.84 1502.5,-218.64 1525.05,-202.88 1540.08,-191.04"/>
<polygon fill="#9a32cd" stroke="#9a32cd" points="1053.03,-278.75 1043.3,-282.93 1053.52,-285.73 1053.03,-278.75"/>
</a>
</g>
<text text-anchor="start" x="1222" y="-273.34" font-family="Helvetica,sans-Serif" font-size="10.00" fill="grey">m_time</text>
</g>
<!-- Node4 -->
<g id="Node000004" class="node">
<title>Node4</title>
<g id="a_Node000004"><a xlink:title=" ">
<polygon fill="white" stroke="#666666" points="580,-303.34 468,-303.34 468,-284.34 580,-284.34 580,-303.34"/>
<text text-anchor="middle" x="524" y="-291.34" font-family="Helvetica,sans-Serif" font-size="10.00">std::vector&lt; bool &gt;</text>
</a>
</g>
</g>
<!-- Node4&#45;&gt;Node3 -->
<g id="edge3_Node000003_Node000004" class="edge">
<title>Node4&#45;&gt;Node3</title>
<g id="a_edge3_Node000003_Node000004"><a xlink:title=" ">
<path fill="none" stroke="#9a32cd" stroke-dasharray="5,2" d="M590.35,-292.84C677.88,-291.49 832.06,-289.11 917.72,-287.79"/>
<polygon fill="#9a32cd" stroke="#9a32cd" points="590.22,-289.34 580.28,-292.99 590.33,-296.34 590.22,-289.34"/>
</a>
</g>
<text text-anchor="start" x="625.5" y="-297.34" font-family="Helvetica,sans-Serif" font-size="10.00" fill="grey">m_postprocess_enforce_dt</text>
</g>
<!-- Node5 -->
<g id="Node000005" class="node">
<title>Node5</title>
<g id="a_Node000005"><a xlink:title=" ">
<polygon fill="white" stroke="#666666" points="238,-303.34 141,-303.34 141,-284.34 238,-284.34 238,-303.34"/>
<text text-anchor="middle" x="189.5" y="-291.34" font-family="Helvetica,sans-Serif" font-size="10.00">std::vector&lt; T &gt;</text>
</a>
</g>
</g>
<!-- Node5&#45;&gt;Node4 -->
<g id="edge4_Node000004_Node000005" class="edge">
<title>Node5&#45;&gt;Node4</title>
<g id="a_edge4_Node000004_Node000005"><a xlink:title=" ">
<path fill="none" stroke="orange" stroke-dasharray="5,2" d="M248.49,-293.84C310.28,-293.84 407.35,-293.84 467.98,-293.84"/>
<polygon fill="orange" stroke="orange" points="248.14,-290.34 238.14,-293.84 248.14,-297.34 248.14,-290.34"/>
</a>
</g>
<text text-anchor="start" x="331" y="-299.34" font-family="Helvetica,sans-Serif" font-size="10.00" fill="grey">&lt; bool &gt;</text>
</g>
<!-- Node6 -->
<g id="Node000006" class="node">
<title>Node6</title>
<g id="a_Node000006"><a xlink:title=" ">
<polygon fill="white" stroke="#666666" points="29,-243.34 0,-243.34 0,-224.34 29,-224.34 29,-243.34"/>
<text text-anchor="middle" x="14.5" y="-231.34" font-family="Helvetica,sans-Serif" font-size="10.00">T</text>
</a>
</g>
</g>
<!-- Node6&#45;&gt;Node5 -->
<g id="edge5_Node000005_Node000006" class="edge">
<title>Node6&#45;&gt;Node5</title>
<g id="a_edge5_Node000005_Node000006"><a xlink:title=" ">
<path fill="none" stroke="#9a32cd" stroke-dasharray="5,2" d="M26.4,-252.07C31.7,-259.36 38.72,-267.14 47,-271.84 75.43,-287.99 111.99,-293.35 140.82,-294.75"/>
<polygon fill="#9a32cd" stroke="#9a32cd" points="29.07,-249.76 20.64,-243.35 23.23,-253.62 29.07,-249.76"/>
</a>
</g>
<text text-anchor="start" x="50" y="-294.34" font-family="Helvetica,sans-Serif" font-size="10.00" fill="grey">elements</text>
</g>
<!-- Node11 -->
<g id="Node000011" class="node">
<title>Node11</title>
<g id="a_Node000011"><a xlink:title=" ">
<polygon fill="white" stroke="#666666" points="581,-49.84 467,-49.84 467,-19.84 581,-19.84 581,-49.84"/>
<text text-anchor="start" x="475" y="-37.84" font-family="Helvetica,sans-Serif" font-size="10.00">std::unordered_map</text>
<text text-anchor="middle" x="524" y="-26.84" font-family="Helvetica,sans-Serif" font-size="10.00">&lt; K, T &gt;</text>
</a>
</g>
</g>
<!-- Node6&#45;&gt;Node11 -->
<g id="edge12_Node000011_Node000006" class="edge">
<title>Node6&#45;&gt;Node11</title>
<g id="a_edge12_Node000011_Node000006"><a xlink:title=" ">
<path fill="none" stroke="#9a32cd" stroke-dasharray="5,2" d="M19.29,-214.19C28.21,-174.04 54.65,-83.18 117,-44.84 225.86,22.09 384.09,-0.74 467.21,-19.78"/>
<polygon fill="#9a32cd" stroke="#9a32cd" points="15.85,-213.57 17.23,-224.08 22.7,-215.01 15.85,-213.57"/>
</a>
</g>
<text text-anchor="start" x="166.5" y="-50.34" font-family="Helvetica,sans-Serif" font-size="10.00" fill="grey">elements</text>
</g>
<!-- Node18 -->
<g id="Node000018" class="node">
<title>Node18</title>
<g id="a_Node000018"><a xlink:title=" ">
<polygon fill="white" stroke="#666666" points="248.5,-223.34 130.5,-223.34 130.5,-204.34 248.5,-204.34 248.5,-223.34"/>
<text text-anchor="middle" x="189.5" y="-211.34" font-family="Helvetica,sans-Serif" font-size="10.00">std::unique_ptr&lt; T &gt;</text>
</a>
</g>
</g>
<!-- Node6&#45;&gt;Node18 -->
<g id="edge22_Node000018_Node000006" class="edge">
<title>Node6&#45;&gt;Node18</title>
<g id="a_edge22_Node000018_Node000006"><a xlink:title=" ">
<path fill="none" stroke="#9a32cd" stroke-dasharray="5,2" d="M36.71,-219.01C40.03,-217.31 43.51,-215.83 47,-214.84 73.72,-207.31 104.42,-206.23 130.38,-207.38"/>
<polygon fill="#9a32cd" stroke="#9a32cd" points="34.77,-216.1 27.95,-224.21 38.34,-222.12 34.77,-216.1"/>
</a>
</g>
<text text-anchor="start" x="66" y="-220.34" font-family="Helvetica,sans-Serif" font-size="10.00" fill="grey">ptr</text>
</g>
<!-- Node19 -->
<g id="Node000019" class="node">
<title>Node19</title>
<g id="a_Node000019"><a xlink:title=" ">
<polygon fill="white" stroke="#666666" points="412,-267.34 294,-267.34 294,-248.34 412,-248.34 412,-267.34"/>
<text text-anchor="middle" x="353" y="-255.34" font-family="Helvetica,sans-Serif" font-size="10.00">std::shared_ptr&lt; T &gt;</text>
</a>
</g>
</g>
<!-- Node6&#45;&gt;Node19 -->
<g id="edge24_Node000019_Node000006" class="edge">
<title>Node6&#45;&gt;Node19</title>
<g id="a_edge24_Node000019_Node000006"><a xlink:title=" ">
<path fill="none" stroke="#9a32cd" stroke-dasharray="5,2" d="M39.11,-235.53C91.5,-239.26 218.79,-248.34 293.88,-253.7"/>
<polygon fill="#9a32cd" stroke="#9a32cd" points="39.33,-232.03 29.11,-234.81 38.83,-239.02 39.33,-232.03"/>
</a>
</g>
<text text-anchor="start" x="66" y="-244.34" font-family="Helvetica,sans-Serif" font-size="10.00" fill="grey">ptr</text>
</g>
<!-- Node7 -->
<g id="Node000007" class="node">
<title>Node7</title>
<g id="a_Node000007"><a xlink:href="classkynema__sgf_1_1_field_repo.html" target="_top" xlink:title=" ">
<polygon fill="white" stroke="#666666" points="1195.5,-121.34 1066.5,-121.34 1066.5,-102.34 1195.5,-102.34 1195.5,-121.34"/>
<text text-anchor="middle" x="1131" y="-109.34" font-family="Helvetica,sans-Serif" font-size="10.00">kynema_sgf::FieldRepo</text>
</a>
</g>
</g>
<!-- Node7&#45;&gt;Node1 -->
<g id="edge6_Node000001_Node000007" class="edge">
<title>Node7&#45;&gt;Node1</title>
<g id="a_edge6_Node000001_Node000007"><a xlink:title=" ">
<path fill="none" stroke="#9a32cd" stroke-dasharray="5,2" d="M1205.8,-117.56C1260.02,-122.3 1335.36,-130.02 1401,-140.84 1433.24,-146.16 1468.8,-153.92 1497.92,-160.79"/>
<polygon fill="#9a32cd" stroke="#9a32cd" points="1205.85,-114.05 1195.59,-116.68 1205.25,-121.02 1205.85,-114.05"/>
</a>
</g>
<text text-anchor="start" x="1323" y="-146.34" font-family="Helvetica,sans-Serif" font-size="10.00" fill="grey">m_repo</text>
</g>
<!-- Node13 -->
<g id="Node000013" class="node">
<title>Node13</title>
<g id="a_Node000013"><a xlink:href="classkynema__sgf_1_1_field.html" target="_top" xlink:title=" ">
<polygon fill="white" stroke="#666666" points="1393,-185.34 1289,-185.34 1289,-166.34 1393,-166.34 1393,-185.34"/>
<text text-anchor="middle" x="1341" y="-173.34" font-family="Helvetica,sans-Serif" font-size="10.00">kynema_sgf::Field</text>
</a>
</g>
</g>
<!-- Node7&#45;&gt;Node13 -->
<g id="edge14_Node000013_Node000007" class="edge">
<title>Node7&#45;&gt;Node13</title>
<g id="a_edge14_Node000013_Node000007"><a xlink:title=" ">
<path fill="none" stroke="#9a32cd" stroke-dasharray="5,2" d="M1186.01,-123.7C1209.83,-129.38 1238.02,-136.71 1263,-144.84 1282.05,-151.04 1303.11,-159.65 1318.39,-166.22"/>
<polygon fill="#9a32cd" stroke="#9a32cd" points="1186.63,-120.25 1176.09,-121.37 1185.03,-127.07 1186.63,-120.25"/>
</a>
</g>
<text text-anchor="start" x="1223" y="-150.34" font-family="Helvetica,sans-Serif" font-size="10.00" fill="grey">m_repo</text>
</g>
<!-- Node8 -->
<g id="Node000008" class="node">
<title>Node8</title>
<g id="a_Node000008"><a xlink:title=" ">
<polygon fill="white" stroke="#666666" points="899.5,-124.84 777.5,-124.84 777.5,-94.84 899.5,-94.84 899.5,-124.84"/>
<text text-anchor="start" x="785.5" y="-112.84" font-family="Helvetica,sans-Serif" font-size="10.00">std::unordered_map</text>
<text text-anchor="middle" x="838.5" y="-101.84" font-family="Helvetica,sans-Serif" font-size="10.00">&lt; std::string, size_t &gt;</text>
</a>
</g>
</g>
<!-- Node8&#45;&gt;Node7 -->
<g id="edge7_Node000007_Node000008" class="edge">
<title>Node8&#45;&gt;Node7</title>
<g id="a_edge7_Node000007_Node000008"><a xlink:title=" ">
<path fill="none" stroke="#9a32cd" stroke-dasharray="5,2" d="M909.94,-110.33C957.65,-110.66 1020.16,-111.09 1066.36,-111.4"/>
<polygon fill="#9a32cd" stroke="#9a32cd" points="909.72,-106.83 899.69,-110.26 909.67,-113.83 909.72,-106.83"/>
</a>
</g>
<text text-anchor="start" x="944.5" y="-131.84" font-family="Helvetica,sans-Serif" font-size="10.00" fill="grey">m_fid_map</text>
<text text-anchor="start" x="944.5" y="-116.84" font-family="Helvetica,sans-Serif" font-size="10.00" fill="grey">m_int_fid_map</text>
</g>
<!-- Node9 -->
<g id="Node000009" class="node">
<title>Node9</title>
<g id="a_Node000009"><a xlink:title=" ">
<polygon fill="white" stroke="#666666" points="556.5,-132.34 491.5,-132.34 491.5,-113.34 556.5,-113.34 556.5,-132.34"/>
<text text-anchor="middle" x="524" y="-120.34" font-family="Helvetica,sans-Serif" font-size="10.00">std::string</text>
</a>
</g>
</g>
<!-- Node9&#45;&gt;Node1 -->
<g id="edge25_Node000001_Node000009" class="edge">
<title>Node9&#45;&gt;Node1</title>
<g id="a_edge25_Node000001_Node000009"><a xlink:title=" ">
<path fill="none" stroke="#9a32cd" stroke-dasharray="5,2" d="M566.37,-110.6C625.79,-94.12 739.02,-66.84 837.5,-66.84 837.5,-66.84 837.5,-66.84 1342,-66.84 1424.33,-66.84 1507.21,-130.74 1541.53,-160.69"/>
<polygon fill="#9a32cd" stroke="#9a32cd" points="565.28,-107.27 556.6,-113.34 567.18,-114.01 565.28,-107.27"/>
</a>
</g>
<text text-anchor="start" x="1089" y="-72.34" font-family="Helvetica,sans-Serif" font-size="10.00" fill="grey">m_output_fname</text>
</g>
<!-- Node9&#45;&gt;Node8 -->
<g id="edge8_Node000008_Node000009" class="edge">
<title>Node9&#45;&gt;Node8</title>
<g id="a_edge8_Node000008_Node000009"><a xlink:title=" ">
<path fill="none" stroke="#9a32cd" stroke-dasharray="5,2" d="M567,-116.55C584.03,-114.28 603.91,-112 622,-110.84 674.27,-107.5 733.82,-107.51 777.06,-108.21"/>
<polygon fill="#9a32cd" stroke="#9a32cd" points="566.23,-113.12 556.8,-117.94 567.19,-120.05 566.23,-113.12"/>
</a>
</g>
<text text-anchor="start" x="679.5" y="-116.34" font-family="Helvetica,sans-Serif" font-size="10.00" fill="grey">keys</text>
</g>
<!-- Node9&#45;&gt;Node13 -->
<g id="edge15_Node000013_Node000009" class="edge">
<title>Node9&#45;&gt;Node13</title>
<g id="a_edge15_Node000013_Node000009"><a xlink:title=" ">
<path fill="none" stroke="#9a32cd" stroke-dasharray="5,2" d="M567.06,-125.58C704.36,-134.51 1139.14,-162.78 1288.8,-172.51"/>
<polygon fill="#9a32cd" stroke="#9a32cd" points="567.16,-122.08 556.95,-124.92 566.7,-129.06 567.16,-122.08"/>
</a>
</g>
<text text-anchor="start" x="959.5" y="-161.34" font-family="Helvetica,sans-Serif" font-size="10.00" fill="grey">m_name</text>
</g>
<!-- Node15 -->
<g id="Node000015" class="node">
<title>Node15</title>
<g id="a_Node000015"><a xlink:href="structkynema__sgf_1_1_field_info.html" target="_top" xlink:title=" ">
<polygon fill="white" stroke="#666666" points="900,-218.34 777,-218.34 777,-199.34 900,-199.34 900,-218.34"/>
<text text-anchor="middle" x="838.5" y="-206.34" font-family="Helvetica,sans-Serif" font-size="10.00">kynema_sgf::FieldInfo</text>
</a>
</g>
</g>
<!-- Node9&#45;&gt;Node15 -->
<g id="edge18_Node000015_Node000009" class="edge">
<title>Node9&#45;&gt;Node15</title>
<g id="a_edge18_Node000015_Node000009"><a xlink:title=" ">
<path fill="none" stroke="#9a32cd" stroke-dasharray="5,2" d="M564.5,-135.55C582.05,-141.07 603,-147.48 622,-152.84 682.48,-169.91 698.2,-171.94 759,-187.84 773.06,-191.52 788.51,-195.64 801.96,-199.24"/>
<polygon fill="#9a32cd" stroke="#9a32cd" points="565.19,-132.1 554.6,-132.42 563.08,-138.77 565.19,-132.1"/>
</a>
</g>
<text text-anchor="start" x="657.5" y="-193.34" font-family="Helvetica,sans-Serif" font-size="10.00" fill="grey">m_basename</text>
</g>
<!-- Node10 -->
<g id="Node000010" class="node">
<title>Node10</title>
<g id="a_Node000010"><a xlink:title=" ">
<polygon fill="white" stroke="#666666" points="241.5,-137.84 137.5,-137.84 137.5,-107.84 241.5,-107.84 241.5,-137.84"/>
<text text-anchor="start" x="145.5" y="-125.84" font-family="Helvetica,sans-Serif" font-size="10.00">std::basic_string&lt;</text>
<text text-anchor="middle" x="189.5" y="-114.84" font-family="Helvetica,sans-Serif" font-size="10.00"> Char &gt;</text>
</a>
</g>
</g>
<!-- Node10&#45;&gt;Node9 -->
<g id="edge9_Node000009_Node000010" class="edge">
<title>Node10&#45;&gt;Node9</title>
<g id="a_edge9_Node000009_Node000010"><a xlink:title=" ">
<path fill="none" stroke="#63b8ff" d="M251.85,-122.84C322.64,-122.84 436.34,-122.84 491.27,-122.84"/>
<polygon fill="#63b8ff" stroke="#63b8ff" points="251.72,-119.34 241.72,-122.84 251.72,-126.34 251.72,-119.34"/>
</a>
</g>
</g>
<!-- Node11&#45;&gt;Node8 -->
<g id="edge10_Node000008_Node000011" class="edge">
<title>Node11&#45;&gt;Node8</title>
<g id="a_edge10_Node000008_Node000011"><a xlink:title=" ">
<path fill="none" stroke="orange" stroke-dasharray="5,2" d="M591.16,-47.75C638.21,-57.3 702.78,-71.15 759,-85.84 769.2,-88.51 780.07,-91.64 790.36,-94.74"/>
<polygon fill="orange" stroke="orange" points="591.59,-44.27 581.1,-45.72 590.21,-51.13 591.59,-44.27"/>
</a>
</g>
<text text-anchor="start" x="637.5" y="-91.34" font-family="Helvetica,sans-Serif" font-size="10.00" fill="grey">&lt; std::string, size_t &gt;</text>
</g>
<!-- Node12 -->
<g id="Node000012" class="node">
<title>Node12</title>
<g id="a_Node000012"><a xlink:title=" ">
<polygon fill="white" stroke="#666666" points="204,-89.34 175,-89.34 175,-70.34 204,-70.34 204,-89.34"/>
<text text-anchor="middle" x="189.5" y="-77.34" font-family="Helvetica,sans-Serif" font-size="10.00">K</text>
</a>
</g>
</g>
<!-- Node12&#45;&gt;Node11 -->
<g id="edge11_Node000011_Node000012" class="edge">
<title>Node12&#45;&gt;Node11</title>
<g id="a_edge11_Node000011_Node000012"><a xlink:title=" ">
<path fill="none" stroke="#9a32cd" stroke-dasharray="5,2" d="M214.21,-76.82C256.68,-71.39 348.56,-59.53 426,-48.84 439.23,-47.02 453.47,-44.99 466.85,-43.07"/>
<polygon fill="#9a32cd" stroke="#9a32cd" points="213.52,-73.38 204.05,-78.12 214.41,-80.32 213.52,-73.38"/>
</a>
</g>
<text text-anchor="start" x="342" y="-73.34" font-family="Helvetica,sans-Serif" font-size="10.00" fill="grey">keys</text>
</g>
<!-- Node13&#45;&gt;Node1 -->
<g id="edge13_Node000001_Node000013" class="edge">
<title>Node13&#45;&gt;Node1</title>
<g id="a_edge13_Node000001_Node000013"><a xlink:title=" ">
<path fill="none" stroke="#9a32cd" stroke-dasharray="5,2" d="M1403.42,-175.84C1433.07,-175.84 1468.52,-175.84 1497.98,-175.84"/>
<polygon fill="#9a32cd" stroke="#9a32cd" points="1403.19,-172.34 1393.19,-175.84 1403.19,-179.34 1403.19,-172.34"/>
</a>
</g>
<text text-anchor="start" x="1422.5" y="-211.34" font-family="Helvetica,sans-Serif" font-size="10.00" fill="grey">m_density</text>
<text text-anchor="start" x="1422.5" y="-196.34" font-family="Helvetica,sans-Serif" font-size="10.00" fill="grey">m_source</text>
<text text-anchor="start" x="1422.5" y="-181.34" font-family="Helvetica,sans-Serif" font-size="10.00" fill="grey">m_velocity</text>
</g>
<!-- Node14 -->
<g id="Node000014" class="node">
<title>Node14</title>
<g id="a_Node000014"><a xlink:title=" ">
<polygon fill="white" stroke="#666666" points="1201,-223.84 1061,-223.84 1061,-193.84 1201,-193.84 1201,-223.84"/>
<text text-anchor="start" x="1069" y="-211.84" font-family="Helvetica,sans-Serif" font-size="10.00">std::shared_ptr&lt; kynema</text>
<text text-anchor="middle" x="1131" y="-200.84" font-family="Helvetica,sans-Serif" font-size="10.00">_sgf::FieldInfo &gt;</text>
</a>
</g>
</g>
<!-- Node14&#45;&gt;Node13 -->
<g id="edge16_Node000013_Node000014" class="edge">
<title>Node14&#45;&gt;Node13</title>
<g id="a_edge16_Node000013_Node000014"><a xlink:title=" ">
<path fill="none" stroke="#9a32cd" stroke-dasharray="5,2" d="M1211.46,-196.24C1237.41,-192.12 1265.51,-187.66 1288.81,-183.96"/>
<polygon fill="#9a32cd" stroke="#9a32cd" points="1210.59,-192.83 1201.26,-197.85 1211.69,-199.74 1210.59,-192.83"/>
</a>
</g>
<text text-anchor="start" x="1224" y="-199.34" font-family="Helvetica,sans-Serif" font-size="10.00" fill="grey">m_info</text>
</g>
<!-- Node15&#45;&gt;Node14 -->
<g id="edge17_Node000014_Node000015" class="edge">
<title>Node15&#45;&gt;Node14</title>
<g id="a_edge17_Node000014_Node000015"><a xlink:title=" ">
<path fill="none" stroke="#9a32cd" stroke-dasharray="5,2" d="M910.19,-208.84C956,-208.84 1015.37,-208.84 1060.87,-208.84"/>
<polygon fill="#9a32cd" stroke="#9a32cd" points="910.04,-205.34 900.04,-208.84 910.04,-212.34 910.04,-205.34"/>
</a>
</g>
<text text-anchor="start" x="973.5" y="-214.34" font-family="Helvetica,sans-Serif" font-size="10.00" fill="grey">ptr</text>
</g>
<!-- Node16 -->
<g id="Node000016" class="node">
<title>Node16</title>
<g id="a_Node000016"><a xlink:title=" ">
<polygon fill="white" stroke="#666666" points="604,-225.84 444,-225.84 444,-195.84 604,-195.84 604,-225.84"/>
<text text-anchor="start" x="452" y="-213.84" font-family="Helvetica,sans-Serif" font-size="10.00">std::unique_ptr&lt; kynema</text>
<text text-anchor="middle" x="524" y="-202.84" font-family="Helvetica,sans-Serif" font-size="10.00">_sgf::FieldFillPatchOpsBase &gt;</text>
</a>
</g>
</g>
<!-- Node16&#45;&gt;Node15 -->
<g id="edge19_Node000015_Node000016" class="edge">
<title>Node16&#45;&gt;Node15</title>
<g id="a_edge19_Node000015_Node000016"><a xlink:title=" ">
<path fill="none" stroke="#9a32cd" stroke-dasharray="5,2" d="M614.48,-210.27C666.4,-209.94 730.45,-209.53 776.57,-209.23"/>
<polygon fill="#9a32cd" stroke="#9a32cd" points="614.24,-206.77 604.26,-210.34 614.28,-213.77 614.24,-206.77"/>
</a>
</g>
<text text-anchor="start" x="654.5" y="-215.34" font-family="Helvetica,sans-Serif" font-size="10.00" fill="grey">m_fillpatch_op</text>
</g>
<!-- Node17 -->
<g id="Node000017" class="node">
<title>Node17</title>
<g id="a_Node000017"><a xlink:href="classkynema__sgf_1_1_field_fill_patch_ops_base.html" target="_top" xlink:title=" ">
<polygon fill="white" stroke="#666666" points="262,-185.84 117,-185.84 117,-155.84 262,-155.84 262,-185.84"/>
<text text-anchor="start" x="125" y="-173.84" font-family="Helvetica,sans-Serif" font-size="10.00">kynema_sgf::FieldFillPatch</text>
<text text-anchor="middle" x="189.5" y="-162.84" font-family="Helvetica,sans-Serif" font-size="10.00">OpsBase</text>
</a>
</g>
</g>
<!-- Node17&#45;&gt;Node16 -->
<g id="edge20_Node000016_Node000017" class="edge">
<title>Node17&#45;&gt;Node16</title>
<g id="a_edge20_Node000016_Node000017"><a xlink:title=" ">
<path fill="none" stroke="#9a32cd" stroke-dasharray="5,2" d="M272.13,-171.64C317.66,-173.1 375.26,-176.62 426,-184.84 442.01,-187.44 459.18,-191.58 474.57,-195.8"/>
<polygon fill="#9a32cd" stroke="#9a32cd" points="272.12,-168.14 262.02,-171.34 271.91,-175.13 272.12,-168.14"/>
</a>
</g>
<text text-anchor="start" x="346" y="-190.34" font-family="Helvetica,sans-Serif" font-size="10.00" fill="grey">ptr</text>
</g>
<!-- Node18&#45;&gt;Node16 -->
<g id="edge21_Node000016_Node000018" class="edge">
<title>Node18&#45;&gt;Node16</title>
<g id="a_edge21_Node000016_Node000018"><a xlink:title=" ">
<path fill="none" stroke="orange" stroke-dasharray="5,2" d="M259.05,-208.78C266.12,-208.39 273.2,-208.07 280,-207.84 334.71,-206.01 396.39,-206.81 443.91,-208.04"/>
<polygon fill="orange" stroke="orange" points="258.51,-205.3 248.73,-209.37 258.91,-212.29 258.51,-205.3"/>
</a>
</g>
<text text-anchor="start" x="283" y="-228.84" font-family="Helvetica,sans-Serif" font-size="10.00" fill="grey">&lt; kynema_sgf::FieldFillPatch</text>
<text text-anchor="start" x="283" y="-213.84" font-family="Helvetica,sans-Serif" font-size="10.00" fill="grey">  OpsBase &gt;</text>
</g>
<!-- Node19&#45;&gt;Node14 -->
<g id="edge23_Node000014_Node000019" class="edge">
<title>Node19&#45;&gt;Node14</title>
<g id="a_edge23_Node000014_Node000019"><a xlink:title=" ">
<path fill="none" stroke="orange" stroke-dasharray="5,2" d="M422.55,-259.49C546.87,-261.49 817.54,-261.32 1043,-229.84 1053.31,-228.4 1064.18,-226.28 1074.62,-223.93"/>
<polygon fill="orange" stroke="orange" points="422.48,-255.98 412.42,-259.31 422.36,-262.98 422.48,-255.98"/>
</a>
</g>
<text text-anchor="start" x="625.5" y="-264.34" font-family="Helvetica,sans-Serif" font-size="10.00" fill="grey">&lt; kynema_sgf::FieldInfo &gt;</text>
</g>
</g>
</svg>

<g id="navigator" transform="translate(0 0)" fill="#404254">
  <rect fill="#f2f5e9" fill-opacity="0.5" stroke="#606060" stroke-width=".5" x="0" y="0" width="60" height="60"/>
  <use id="zoomplus" xlink:href="#zoomPlus" x="17" y="9" onmousedown="handleZoom(evt,'in')"/>
  <use id="zoomminus" xlink:href="#zoomMin" x="42" y="9" onmousedown="handleZoom(evt,'out')"/>
  <use id="reset" xlink:href="#resetDef" x="30" y="36" onmousedown="handleReset()"/>
   <use id="arrowup" xlink:href="#arrowUp" x="0" y="0" onmousedown="handlePan(0,-1)"/>
  <use id="arrowright" xlink:href="#arrowRight" x="0" y="0" onmousedown="handlePan(1,0)"/>
  <use id="arrowdown" xlink:href="#arrowDown" x="0" y="0" onmousedown="handlePan(0,1)"/>
  <use id="arrowleft" xlink:href="#arrowLeft" x="0" y="0" onmousedown="handlePan(-1,0)"/>
</g>
<svg viewBox="0 0 15 15" width="100%" height="30px" preserveAspectRatio="xMaxYMin meet">
 <g id="arrow_out" transform="scale(0.3 0.3)">
  <a xlink:href="classkynema__sgf_1_1burggraf_1_1_burggraf_flow__coll__graph_org.svg" target="_base">
   <rect id="button" ry="5" rx="5" y="6" x="6" height="38" width="38"
        fill="#f2f5e9" fill-opacity="0.5" stroke="#606060" stroke-width="1.0"/>
   <path id="arrow"
     d="M 11.500037,31.436501 C 11.940474,20.09759 22.043105,11.32322 32.158766,21.979434 L 37.068811,17.246167 C 37.068811,17.246167 37.088388,32 37.088388,32 L 22.160133,31.978069 C 22.160133,31.978069 26.997745,27.140456 26.997745,27.140456 C 18.528582,18.264221 13.291696,25.230495 11.500037,31.436501 z"
     style="fill:#404040;"/>
  </a>
 </g>
</svg>

<style type='text/css'>
<![CDATA[
[data-mouse-over-selected='false'] { opacity: 0.7; }
[data-mouse-over-selected='true']  { opacity: 1.0; }
]]>
</style>
<script type="application/ecmascript"><![CDATA[
document.addEventListener('DOMContentLoaded', (event) => {
  highlightEdges();
  highlightAdjacentNodes();
});
]]></script>
</svg>
