<?xml version="1.0" encoding="UTF-8" standalone="no"?>
<!DOCTYPE svg PUBLIC "-//W3C//DTD SVG 1.1//EN"
 "http://www.w3.org/Graphics/SVG/1.1/DTD/svg11.dtd">
<!-- Generated by graphviz version 2.43.0 (0)
 -->
<!-- Title: kynema_sgf::FPlaneAveraging&lt; FType &gt; Pages: 1 -->
<svg width="357pt" height="177pt"
 viewBox="0.00 0.00 356.50 177.00" xmlns="http://www.w3.org/2000/svg" xmlns:xlink="http://www.w3.org/1999/xlink">
<g id="graph0" class="graph" transform="scale(1 1) rotate(0) translate(4 173)">
<title>kynema_sgf::FPlaneAveraging&lt; FType &gt;</title>
<!-- Node1 -->
<g id="Node000001" class="node">
<title>Node1</title>
<g id="a_Node000001"><a xlink:title=" ">
<polygon fill="#999999" stroke="#666666" points="302.5,-169 139.5,-169 139.5,-139 302.5,-139 302.5,-169"/>
<text text-anchor="start" x="147.5" y="-157" font-family="Helvetica,sans-Serif" font-size="10.00">kynema_sgf::FPlaneAveraging</text>
<text text-anchor="middle" x="221" y="-146" font-family="Helvetica,sans-Serif" font-size="10.00">&lt; FType &gt;</text>
</a>
</g>
</g>
<!-- Node2 -->
<g id="Node000002" class="node">
<title>Node2</title>
<g id="a_Node000002"><a xlink:href="classkynema__sgf_1_1_f_plane_averaging.html" target="_top" xlink:title=" ">
<polygon fill="white" stroke="#666666" points="167.5,-86 4.5,-86 4.5,-56 167.5,-56 167.5,-86"/>
<text text-anchor="start" x="12.5" y="-74" font-family="Helvetica,sans-Serif" font-size="10.00">kynema_sgf::FPlaneAveraging</text>
<text text-anchor="middle" x="86" y="-63" font-family="Helvetica,sans-Serif" font-size="10.00">&lt; Field &gt;</text>
</a>
</g>
</g>
<!-- Node1&#45;&gt;Node2 -->
<g id="edge1_Node000001_Node000002" class="edge">
<title>Node1&#45;&gt;Node2</title>
<g id="a_edge1_Node000001_Node000002"><a xlink:title=" ">
<path fill="none" stroke="orange" stroke-dasharray="5,2" d="M188.62,-133.57C164.32,-118.99 131.6,-99.36 109.7,-86.22"/>
<polygon fill="orange" stroke="orange" points="187.11,-136.75 197.48,-138.89 190.71,-130.74 187.11,-136.75"/>
</a>
</g>
<text text-anchor="start" x="169" y="-109.5" font-family="Helvetica,sans-Serif" font-size="10.00" fill="grey">&lt; Field &gt;</text>
</g>
<!-- Node4 -->
<g id="Node000004" class="node">
<title>Node4</title>
<g id="a_Node000004"><a xlink:href="classkynema__sgf_1_1_f_plane_averaging.html" target="_top" xlink:title=" ">
<polygon fill="white" stroke="#666666" points="348.5,-86 185.5,-86 185.5,-56 348.5,-56 348.5,-86"/>
<text text-anchor="start" x="193.5" y="-74" font-family="Helvetica,sans-Serif" font-size="10.00">kynema_sgf::FPlaneAveraging</text>
<text text-anchor="middle" x="267" y="-63" font-family="Helvetica,sans-Serif" font-size="10.00">&lt; ScratchField &gt;</text>
</a>
</g>
</g>
<!-- Node1&#45;&gt;Node4 -->
<g id="edge3_Node000001_Node000004" class="edge">
<title>Node1&#45;&gt;Node4</title>
<g id="a_edge3_Node000001_Node000004"><a xlink:title=" ">
<path fill="none" stroke="orange" stroke-dasharray="5,2" d="M234.17,-129.81C242.15,-115.75 252.09,-98.26 258.92,-86.22"/>
<polygon fill="orange" stroke="orange" points="230.91,-128.47 229.01,-138.89 236.99,-131.92 230.91,-128.47"/>
</a>
</g>
<text text-anchor="start" x="251" y="-109.5" font-family="Helvetica,sans-Serif" font-size="10.00" fill="grey">&lt; ScratchField &gt;</text>
</g>
<!-- Node3 -->
<g id="Node000003" class="node">
<title>Node3</title>
<g id="a_Node000003"><a xlink:href="classkynema__sgf_1_1_vel_plane_averaging.html" target="_top" xlink:title=" ">
<polygon fill="white" stroke="#666666" points="172,-19 0,-19 0,0 172,0 172,-19"/>
<text text-anchor="middle" x="86" y="-7" font-family="Helvetica,sans-Serif" font-size="10.00">kynema_sgf::VelPlaneAveraging</text>
</a>
</g>
</g>
<!-- Node2&#45;&gt;Node3 -->
<g id="edge2_Node000002_Node000003" class="edge">
<title>Node2&#45;&gt;Node3</title>
<g id="a_edge2_Node000002_Node000003"><a xlink:title=" ">
<path fill="none" stroke="#63b8ff" d="M86,-45.79C86,-36.36 86,-26.15 86,-19.16"/>
<polygon fill="#63b8ff" stroke="#63b8ff" points="82.5,-45.9 86,-55.9 89.5,-45.9 82.5,-45.9"/>
</a>
</g>
</g>
</g>
</svg>
