<?xml version="1.0" encoding="UTF-8" standalone="no"?>
<!DOCTYPE svg PUBLIC "-//W3C//DTD SVG 1.1//EN"
 "http://www.w3.org/Graphics/SVG/1.1/DTD/svg11.dtd">
<!-- Generated by graphviz version 2.43.0 (0)
 -->
<!-- Title: kynema_sgf::pde::icns::ABLMeanBoussinesq Pages: 1 -->
<svg width="1654pt" height="235pt"
 viewBox="0.00 0.00 1654.00 235.00" xmlns="http://www.w3.org/2000/svg" xmlns:xlink="http://www.w3.org/1999/xlink">
<g id="graph0" class="graph" transform="scale(1 1) rotate(0) translate(4 231)">
<title>kynema_sgf::pde::icns::ABLMeanBoussinesq</title>
<!-- Node1 -->
<g id="Node000001" class="node">
<title>Node1</title>
<g id="a_Node000001"><a xlink:title=" ">
<polygon fill="#999999" stroke="#666666" points="1646,-139.5 1521,-139.5 1521,-109.5 1646,-109.5 1646,-139.5"/>
<text text-anchor="start" x="1529" y="-127.5" font-family="Helvetica,sans-Serif" font-size="10.00">kynema_sgf::pde::icns</text>
<text text-anchor="middle" x="1583.5" y="-116.5" font-family="Helvetica,sans-Serif" font-size="10.00">::ABLMeanBoussinesq</text>
</a>
</g>
</g>
<!-- Node2 -->
<g id="Node000002" class="node">
<title>Node2</title>
<g id="a_Node000002"><a xlink:title=" ">
<polygon fill="white" stroke="#666666" points="1379,-227 1230,-227 1230,-186 1379,-186 1379,-227"/>
<text text-anchor="start" x="1238" y="-215" font-family="Helvetica,sans-Serif" font-size="10.00">kynema_sgf::Factory</text>
<text text-anchor="start" x="1238" y="-204" font-family="Helvetica,sans-Serif" font-size="10.00">&lt; MomentumSource, const</text>
<text text-anchor="middle" x="1304.5" y="-193" font-family="Helvetica,sans-Serif" font-size="10.00"> CFDSim &amp; &gt;::Register</text>
</a>
</g>
</g>
<!-- Node2&#45;&gt;Node1 -->
<g id="edge1_Node000001_Node000002" class="edge">
<title>Node2&#45;&gt;Node1</title>
<g id="a_edge1_Node000001_Node000002"><a xlink:title=" ">
<path fill="none" stroke="#63b8ff" d="M1389.3,-193.6C1424.93,-186.86 1466.57,-177.3 1503,-164.5 1521.66,-157.94 1541.53,-147.94 1556.74,-139.58"/>
<polygon fill="#63b8ff" stroke="#63b8ff" points="1388.62,-190.16 1379.42,-195.42 1389.89,-197.05 1388.62,-190.16"/>
</a>
</g>
</g>
<!-- Node3 -->
<g id="Node000003" class="node">
<title>Node3</title>
<g id="a_Node000003"><a xlink:href="classkynema__sgf_1_1_field_repo.html" target="_top" xlink:title=" ">
<polygon fill="white" stroke="#666666" points="838,-72 709,-72 709,-53 838,-53 838,-72"/>
<text text-anchor="middle" x="773.5" y="-60" font-family="Helvetica,sans-Serif" font-size="10.00">kynema_sgf::FieldRepo</text>
</a>
</g>
</g>
<!-- Node3&#45;&gt;Node1 -->
<g id="edge2_Node000001_Node000003" class="edge">
<title>Node3&#45;&gt;Node1</title>
<g id="a_edge2_Node000001_Node000003"><a xlink:title=" ">
<path fill="none" stroke="#9a32cd" stroke-dasharray="5,2" d="M848.13,-61.42C962.07,-60.29 1187.91,-60.24 1379,-73.5 1434.38,-77.34 1449.54,-73.54 1503,-88.5 1520.8,-93.48 1539.69,-101.89 1554.59,-109.33"/>
<polygon fill="#9a32cd" stroke="#9a32cd" points="848.09,-57.92 838.13,-61.52 848.16,-64.92 848.09,-57.92"/>
</a>
</g>
<text text-anchor="start" x="1172.5" y="-71" font-family="Helvetica,sans-Serif" font-size="10.00" fill="grey">m_repo</text>
</g>
<!-- Node14 -->
<g id="Node000014" class="node">
<title>Node14</title>
<g id="a_Node000014"><a xlink:href="classkynema__sgf_1_1_scratch_field.html" target="_top" xlink:title=" ">
<polygon fill="white" stroke="#666666" points="1151,-107 1011,-107 1011,-88 1151,-88 1151,-107"/>
<text text-anchor="middle" x="1081" y="-95" font-family="Helvetica,sans-Serif" font-size="10.00">kynema_sgf::ScratchField</text>
</a>
</g>
</g>
<!-- Node3&#45;&gt;Node14 -->
<g id="edge14_Node000014_Node000003" class="edge">
<title>Node3&#45;&gt;Node14</title>
<g id="a_edge14_Node000014_Node000003"><a xlink:title=" ">
<path fill="none" stroke="#9a32cd" stroke-dasharray="5,2" d="M848.16,-70.94C897.62,-76.6 962.34,-84.02 1010.83,-89.58"/>
<polygon fill="#9a32cd" stroke="#9a32cd" points="848.5,-67.46 838.17,-69.79 847.71,-74.41 848.5,-67.46"/>
</a>
</g>
<text text-anchor="start" x="912.5" y="-93" font-family="Helvetica,sans-Serif" font-size="10.00" fill="grey">m_repo</text>
</g>
<!-- Node4 -->
<g id="Node000004" class="node">
<title>Node4</title>
<g id="a_Node000004"><a xlink:title=" ">
<polygon fill="white" stroke="#666666" points="582,-77.5 460,-77.5 460,-47.5 582,-47.5 582,-77.5"/>
<text text-anchor="start" x="468" y="-65.5" font-family="Helvetica,sans-Serif" font-size="10.00">std::unordered_map</text>
<text text-anchor="middle" x="521" y="-54.5" font-family="Helvetica,sans-Serif" font-size="10.00">&lt; std::string, size_t &gt;</text>
</a>
</g>
</g>
<!-- Node4&#45;&gt;Node3 -->
<g id="edge3_Node000003_Node000004" class="edge">
<title>Node4&#45;&gt;Node3</title>
<g id="a_edge3_Node000003_Node000004"><a xlink:title=" ">
<path fill="none" stroke="#9a32cd" stroke-dasharray="5,2" d="M592.09,-62.5C628.64,-62.5 673.01,-62.5 708.61,-62.5"/>
<polygon fill="#9a32cd" stroke="#9a32cd" points="592,-59 582,-62.5 592,-66 592,-59"/>
</a>
</g>
<text text-anchor="start" x="603.5" y="-83.5" font-family="Helvetica,sans-Serif" font-size="10.00" fill="grey">m_fid_map</text>
<text text-anchor="start" x="603.5" y="-68.5" font-family="Helvetica,sans-Serif" font-size="10.00" fill="grey">m_int_fid_map</text>
</g>
<!-- Node5 -->
<g id="Node000005" class="node">
<title>Node5</title>
<g id="a_Node000005"><a xlink:title=" ">
<polygon fill="white" stroke="#666666" points="281.5,-129 216.5,-129 216.5,-110 281.5,-110 281.5,-129"/>
<text text-anchor="middle" x="249" y="-117" font-family="Helvetica,sans-Serif" font-size="10.00">std::string</text>
</a>
</g>
</g>
<!-- Node5&#45;&gt;Node4 -->
<g id="edge4_Node000004_Node000005" class="edge">
<title>Node5&#45;&gt;Node4</title>
<g id="a_edge4_Node000004_Node000005"><a xlink:title=" ">
<path fill="none" stroke="#9a32cd" stroke-dasharray="5,2" d="M278.24,-105.59C291.78,-99.47 308.42,-92.72 324,-88.5 368.57,-76.44 420.41,-69.88 459.57,-66.36"/>
<polygon fill="#9a32cd" stroke="#9a32cd" points="276.57,-102.51 268.98,-109.9 279.52,-108.86 276.57,-102.51"/>
</a>
</g>
<text text-anchor="start" x="372" y="-94" font-family="Helvetica,sans-Serif" font-size="10.00" fill="grey">keys</text>
</g>
<!-- Node5&#45;&gt;Node14 -->
<g id="edge15_Node000014_Node000005" class="edge">
<title>Node5&#45;&gt;Node14</title>
<g id="a_edge15_Node000014_Node000005"><a xlink:title=" ">
<path fill="none" stroke="#9a32cd" stroke-dasharray="5,2" d="M291.82,-119.78C404.91,-120.3 726.25,-120.26 993,-105.5 998.75,-105.18 1004.72,-104.78 1010.7,-104.33"/>
<polygon fill="#9a32cd" stroke="#9a32cd" points="291.55,-116.28 281.53,-119.73 291.52,-123.28 291.55,-116.28"/>
</a>
</g>
<text text-anchor="start" x="618.5" y="-124" font-family="Helvetica,sans-Serif" font-size="10.00" fill="grey">m_name</text>
</g>
<!-- Node6 -->
<g id="Node000006" class="node">
<title>Node6</title>
<g id="a_Node000006"><a xlink:title=" ">
<polygon fill="white" stroke="#666666" points="104,-138.5 0,-138.5 0,-108.5 104,-108.5 104,-138.5"/>
<text text-anchor="start" x="8" y="-126.5" font-family="Helvetica,sans-Serif" font-size="10.00">std::basic_string&lt;</text>
<text text-anchor="middle" x="52" y="-115.5" font-family="Helvetica,sans-Serif" font-size="10.00"> Char &gt;</text>
</a>
</g>
</g>
<!-- Node6&#45;&gt;Node5 -->
<g id="edge5_Node000005_Node000006" class="edge">
<title>Node6&#45;&gt;Node5</title>
<g id="a_edge5_Node000005_Node000006"><a xlink:title=" ">
<path fill="none" stroke="#63b8ff" d="M114.49,-122.24C148.31,-121.54 188.85,-120.71 216.31,-120.15"/>
<polygon fill="#63b8ff" stroke="#63b8ff" points="114.16,-118.74 104.23,-122.45 114.3,-125.74 114.16,-118.74"/>
</a>
</g>
</g>
<!-- Node7 -->
<g id="Node000007" class="node">
<title>Node7</title>
<g id="a_Node000007"><a xlink:title=" ">
<polygon fill="white" stroke="#666666" points="306,-62.5 192,-62.5 192,-32.5 306,-32.5 306,-62.5"/>
<text text-anchor="start" x="200" y="-50.5" font-family="Helvetica,sans-Serif" font-size="10.00">std::unordered_map</text>
<text text-anchor="middle" x="249" y="-39.5" font-family="Helvetica,sans-Serif" font-size="10.00">&lt; K, T &gt;</text>
</a>
</g>
</g>
<!-- Node7&#45;&gt;Node4 -->
<g id="edge6_Node000004_Node000007" class="edge">
<title>Node7&#45;&gt;Node4</title>
<g id="a_edge6_Node000004_Node000007"><a xlink:title=" ">
<path fill="none" stroke="orange" stroke-dasharray="5,2" d="M316.58,-45.03C353.59,-44.37 400.43,-44.69 442,-48.5 447.75,-49.03 453.72,-49.76 459.67,-50.61"/>
<polygon fill="orange" stroke="orange" points="316.34,-41.54 306.41,-45.25 316.48,-48.54 316.34,-41.54"/>
</a>
</g>
<text text-anchor="start" x="330" y="-54" font-family="Helvetica,sans-Serif" font-size="10.00" fill="grey">&lt; std::string, size_t &gt;</text>
</g>
<!-- Node8 -->
<g id="Node000008" class="node">
<title>Node8</title>
<g id="a_Node000008"><a xlink:title=" ">
<polygon fill="white" stroke="#666666" points="66.5,-90 37.5,-90 37.5,-71 66.5,-71 66.5,-90"/>
<text text-anchor="middle" x="52" y="-78" font-family="Helvetica,sans-Serif" font-size="10.00">K</text>
</a>
</g>
</g>
<!-- Node8&#45;&gt;Node7 -->
<g id="edge7_Node000007_Node000008" class="edge">
<title>Node8&#45;&gt;Node7</title>
<g id="a_edge7_Node000007_Node000008"><a xlink:title=" ">
<path fill="none" stroke="#9a32cd" stroke-dasharray="5,2" d="M76.9,-76.46C105.3,-71.65 153.63,-63.47 191.69,-57.03"/>
<polygon fill="#9a32cd" stroke="#9a32cd" points="75.99,-73.06 66.71,-78.18 77.16,-79.96 75.99,-73.06"/>
</a>
</g>
<text text-anchor="start" x="137" y="-74" font-family="Helvetica,sans-Serif" font-size="10.00" fill="grey">keys</text>
</g>
<!-- Node9 -->
<g id="Node000009" class="node">
<title>Node9</title>
<g id="a_Node000009"><a xlink:title=" ">
<polygon fill="white" stroke="#666666" points="66.5,-30 37.5,-30 37.5,-11 66.5,-11 66.5,-30"/>
<text text-anchor="middle" x="52" y="-18" font-family="Helvetica,sans-Serif" font-size="10.00">T</text>
</a>
</g>
</g>
<!-- Node9&#45;&gt;Node7 -->
<g id="edge8_Node000007_Node000009" class="edge">
<title>Node9&#45;&gt;Node7</title>
<g id="a_edge8_Node000007_Node000009"><a xlink:title=" ">
<path fill="none" stroke="#9a32cd" stroke-dasharray="5,2" d="M76.9,-23.81C105.3,-27.74 153.63,-34.43 191.69,-39.7"/>
<polygon fill="#9a32cd" stroke="#9a32cd" points="77.1,-20.3 66.71,-22.4 76.14,-27.24 77.1,-20.3"/>
</a>
</g>
<text text-anchor="start" x="125" y="-43" font-family="Helvetica,sans-Serif" font-size="10.00" fill="grey">elements</text>
</g>
<!-- Node15 -->
<g id="Node000015" class="node">
<title>Node15</title>
<g id="a_Node000015"><a xlink:title=" ">
<polygon fill="white" stroke="#666666" points="442,-19 324,-19 324,0 442,0 442,-19"/>
<text text-anchor="middle" x="383" y="-7" font-family="Helvetica,sans-Serif" font-size="10.00">std::unique_ptr&lt; T &gt;</text>
</a>
</g>
</g>
<!-- Node9&#45;&gt;Node15 -->
<g id="edge17_Node000015_Node000009" class="edge">
<title>Node9&#45;&gt;Node15</title>
<g id="a_edge17_Node000015_Node000009"><a xlink:title=" ">
<path fill="none" stroke="#9a32cd" stroke-dasharray="5,2" d="M76.86,-16.2C90.11,-14.03 106.91,-11.62 122,-10.5 191.21,-5.38 271.07,-6.05 323.82,-7.4"/>
<polygon fill="#9a32cd" stroke="#9a32cd" points="75.95,-12.81 66.68,-17.94 77.13,-19.71 75.95,-12.81"/>
</a>
</g>
<text text-anchor="start" x="141" y="-16" font-family="Helvetica,sans-Serif" font-size="10.00" fill="grey">ptr</text>
</g>
<!-- Node10 -->
<g id="Node000010" class="node">
<title>Node10</title>
<g id="a_Node000010"><a xlink:href="classkynema__sgf_1_1transport_1_1_transport_model.html" target="_top" xlink:title=" ">
<polygon fill="white" stroke="#666666" points="1367,-167.5 1242,-167.5 1242,-137.5 1367,-137.5 1367,-167.5"/>
<text text-anchor="start" x="1250" y="-155.5" font-family="Helvetica,sans-Serif" font-size="10.00">kynema_sgf::transport</text>
<text text-anchor="middle" x="1304.5" y="-144.5" font-family="Helvetica,sans-Serif" font-size="10.00">::TransportModel</text>
</a>
</g>
</g>
<!-- Node10&#45;&gt;Node1 -->
<g id="edge9_Node000001_Node000010" class="edge">
<title>Node10&#45;&gt;Node1</title>
<g id="a_edge9_Node000001_Node000010"><a xlink:title=" ">
<path fill="none" stroke="#9a32cd" stroke-dasharray="5,2" d="M1377.48,-145.22C1421.97,-140.73 1478.46,-135.02 1520.87,-130.73"/>
<polygon fill="#9a32cd" stroke="#9a32cd" points="1376.92,-141.76 1367.32,-146.25 1377.62,-148.73 1376.92,-141.76"/>
</a>
</g>
<text text-anchor="start" x="1420" y="-149" font-family="Helvetica,sans-Serif" font-size="10.00" fill="grey">m_transport</text>
</g>
<!-- Node11 -->
<g id="Node000011" class="node">
<title>Node11</title>
<g id="a_Node000011"><a xlink:href="structkynema__sgf_1_1_factory.html" target="_top" xlink:title=" ">
<polygon fill="white" stroke="#666666" points="1148.5,-181 1013.5,-181 1013.5,-140 1148.5,-140 1148.5,-181"/>
<text text-anchor="start" x="1021.5" y="-169" font-family="Helvetica,sans-Serif" font-size="10.00">kynema_sgf::Factory</text>
<text text-anchor="start" x="1021.5" y="-158" font-family="Helvetica,sans-Serif" font-size="10.00">&lt; TransportModel, const</text>
<text text-anchor="middle" x="1081" y="-147" font-family="Helvetica,sans-Serif" font-size="10.00"> CFDSim &amp; &gt;</text>
</a>
</g>
</g>
<!-- Node11&#45;&gt;Node10 -->
<g id="edge10_Node000010_Node000011" class="edge">
<title>Node11&#45;&gt;Node10</title>
<g id="a_edge10_Node000010_Node000011"><a xlink:title=" ">
<path fill="none" stroke="#63b8ff" d="M1158.98,-157.72C1186.06,-156.74 1216.13,-155.66 1241.8,-154.73"/>
<polygon fill="#63b8ff" stroke="#63b8ff" points="1158.62,-154.23 1148.76,-158.09 1158.88,-161.23 1158.62,-154.23"/>
</a>
</g>
</g>
<!-- Node12 -->
<g id="Node000012" class="node">
<title>Node12</title>
<g id="a_Node000012"><a xlink:href="structkynema__sgf_1_1_factory.html" target="_top" xlink:title=" ">
<polygon fill="white" stroke="#666666" points="831.5,-177.5 715.5,-177.5 715.5,-147.5 831.5,-147.5 831.5,-177.5"/>
<text text-anchor="start" x="723.5" y="-165.5" font-family="Helvetica,sans-Serif" font-size="10.00">kynema_sgf::Factory</text>
<text text-anchor="middle" x="773.5" y="-154.5" font-family="Helvetica,sans-Serif" font-size="10.00">&lt; Base, Args &gt;</text>
</a>
</g>
</g>
<!-- Node12&#45;&gt;Node11 -->
<g id="edge11_Node000011_Node000012" class="edge">
<title>Node12&#45;&gt;Node11</title>
<g id="a_edge11_Node000011_Node000012"><a xlink:title=" ">
<path fill="none" stroke="orange" stroke-dasharray="5,2" d="M841.86,-162.06C892.85,-161.73 962.53,-161.27 1013.34,-160.94"/>
<polygon fill="orange" stroke="orange" points="841.58,-158.56 831.6,-162.13 841.63,-165.56 841.58,-158.56"/>
</a>
</g>
<text text-anchor="start" x="871.5" y="-182.5" font-family="Helvetica,sans-Serif" font-size="10.00" fill="grey">&lt; TransportModel, const</text>
<text text-anchor="start" x="871.5" y="-167.5" font-family="Helvetica,sans-Serif" font-size="10.00" fill="grey">   CFDSim &amp; &gt;</text>
</g>
<!-- Node13 -->
<g id="Node000013" class="node">
<title>Node13</title>
<g id="a_Node000013"><a xlink:title=" ">
<polygon fill="white" stroke="#666666" points="1374.5,-112.5 1234.5,-112.5 1234.5,-82.5 1374.5,-82.5 1374.5,-112.5"/>
<text text-anchor="start" x="1242.5" y="-100.5" font-family="Helvetica,sans-Serif" font-size="10.00">std::unique_ptr&lt; kynema</text>
<text text-anchor="middle" x="1304.5" y="-89.5" font-family="Helvetica,sans-Serif" font-size="10.00">_sgf::ScratchField &gt;</text>
</a>
</g>
</g>
<!-- Node13&#45;&gt;Node1 -->
<g id="edge12_Node000001_Node000013" class="edge">
<title>Node13&#45;&gt;Node1</title>
<g id="a_edge12_Node000001_Node000013"><a xlink:title=" ">
<path fill="none" stroke="#9a32cd" stroke-dasharray="5,2" d="M1384.96,-92.31C1421.18,-91.37 1464.48,-92.26 1503,-98.5 1516.9,-100.75 1531.69,-105.03 1544.68,-109.48"/>
<polygon fill="#9a32cd" stroke="#9a32cd" points="1384.83,-88.81 1374.94,-92.62 1385.05,-95.81 1384.83,-88.81"/>
</a>
</g>
<text text-anchor="start" x="1400" y="-119.5" font-family="Helvetica,sans-Serif" font-size="10.00" fill="grey">m_beta_scratch</text>
<text text-anchor="start" x="1400" y="-104.5" font-family="Helvetica,sans-Serif" font-size="10.00" fill="grey">m_ref_theta_scratch</text>
</g>
<!-- Node14&#45;&gt;Node13 -->
<g id="edge13_Node000013_Node000014" class="edge">
<title>Node14&#45;&gt;Node13</title>
<g id="a_edge13_Node000013_Node000014"><a xlink:title=" ">
<path fill="none" stroke="#9a32cd" stroke-dasharray="5,2" d="M1161.28,-97.5C1185.21,-97.5 1211.27,-97.5 1234.47,-97.5"/>
<polygon fill="#9a32cd" stroke="#9a32cd" points="1161.17,-94 1151.17,-97.5 1161.17,-101 1161.17,-94"/>
</a>
</g>
<text text-anchor="start" x="1183.5" y="-103" font-family="Helvetica,sans-Serif" font-size="10.00" fill="grey">ptr</text>
</g>
<!-- Node15&#45;&gt;Node13 -->
<g id="edge16_Node000013_Node000015" class="edge">
<title>Node15&#45;&gt;Node13</title>
<g id="a_edge16_Node000013_Node000015"><a xlink:title=" ">
<path fill="none" stroke="orange" stroke-dasharray="5,2" d="M452.4,-11.99C503.63,-13.64 575.44,-15.5 638.5,-15.5 638.5,-15.5 638.5,-15.5 1082,-15.5 1158.27,-15.5 1240.64,-58.79 1279.98,-82.46"/>
<polygon fill="orange" stroke="orange" points="452.22,-8.48 442.11,-11.65 451.99,-15.48 452.22,-8.48"/>
</a>
</g>
<text text-anchor="start" x="700.5" y="-21" font-family="Helvetica,sans-Serif" font-size="10.00" fill="grey">&lt; kynema_sgf::ScratchField &gt;</text>
</g>
</g>
</svg>
