<?xml version="1.0" encoding="UTF-8" standalone="no"?>
<!DOCTYPE svg PUBLIC "-//W3C//DTD SVG 1.1//EN"
 "http://www.w3.org/Graphics/SVG/1.1/DTD/svg11.dtd">
<!-- Generated by graphviz version 2.43.0 (0)
 -->
<!-- Title: kynema_sgf::OceanWavesBoundary Pages: 1 -->
<svg width="1816pt" height="339pt"
 viewBox="0.00 0.00 1816.00 338.72" xmlns="http://www.w3.org/2000/svg" xmlns:xlink="http://www.w3.org/1999/xlink">
<g id="graph0" class="graph" transform="scale(1 1) rotate(0) translate(4 334.72)">
<title>kynema_sgf::OceanWavesBoundary</title>
<!-- Node1 -->
<g id="Node000001" class="node">
<title>Node1</title>
<g id="a_Node000001"><a xlink:title=" ">
<polygon fill="#999999" stroke="#666666" points="1808,-206.22 1617,-206.22 1617,-187.22 1808,-187.22 1808,-206.22"/>
<text text-anchor="middle" x="1712.5" y="-194.22" font-family="Helvetica,sans-Serif" font-size="10.00">kynema_sgf::OceanWavesBoundary</text>
</a>
</g>
</g>
<!-- Node2 -->
<g id="Node000002" class="node">
<title>Node2</title>
<g id="a_Node000002"><a xlink:title=" ">
<polygon fill="white" stroke="#666666" points="1476,-330.72 1281,-330.72 1281,-300.72 1476,-300.72 1476,-330.72"/>
<text text-anchor="start" x="1289" y="-318.72" font-family="Helvetica,sans-Serif" font-size="10.00">kynema_sgf::FieldBoundary</text>
<text text-anchor="middle" x="1378.5" y="-307.72" font-family="Helvetica,sans-Serif" font-size="10.00">::Register&lt; OceanWavesBoundary &gt;</text>
</a>
</g>
</g>
<!-- Node2&#45;&gt;Node1 -->
<g id="edge1_Node000001_Node000002" class="edge">
<title>Node2&#45;&gt;Node1</title>
<g id="a_edge1_Node000001_Node000002"><a xlink:title=" ">
<path fill="none" stroke="#63b8ff" d="M1486.47,-313.22C1523.28,-309.36 1564.01,-301.64 1599,-286.72 1643.87,-267.59 1685.66,-225.39 1703.02,-206.36"/>
<polygon fill="#63b8ff" stroke="#63b8ff" points="1485.82,-309.76 1476.2,-314.2 1486.49,-316.73 1485.82,-309.76"/>
</a>
</g>
</g>
<!-- Node3 -->
<g id="Node000003" class="node">
<title>Node3</title>
<g id="a_Node000003"><a xlink:href="classkynema__sgf_1_1_sim_time.html" target="_top" xlink:title=" ">
<polygon fill="white" stroke="#666666" points="1043,-311.22 918,-311.22 918,-292.22 1043,-292.22 1043,-311.22"/>
<text text-anchor="middle" x="980.5" y="-299.22" font-family="Helvetica,sans-Serif" font-size="10.00">kynema_sgf::SimTime</text>
</a>
</g>
</g>
<!-- Node3&#45;&gt;Node1 -->
<g id="edge2_Node000001_Node000003" class="edge">
<title>Node3&#45;&gt;Node1</title>
<g id="a_edge2_Node000001_Node000003"><a xlink:title=" ">
<path fill="none" stroke="#9a32cd" stroke-dasharray="5,2" d="M1053.22,-298.33C1169.09,-291.83 1404.18,-274.35 1599,-232.72 1629.68,-226.17 1663.87,-214.59 1686.42,-206.33"/>
<polygon fill="#9a32cd" stroke="#9a32cd" points="1052.85,-294.85 1043.06,-298.89 1053.24,-301.84 1052.85,-294.85"/>
</a>
</g>
<text text-anchor="start" x="1222" y="-291.22" font-family="Helvetica,sans-Serif" font-size="10.00" fill="grey">m_time</text>
</g>
<!-- Node4 -->
<g id="Node000004" class="node">
<title>Node4</title>
<g id="a_Node000004"><a xlink:title=" ">
<polygon fill="white" stroke="#666666" points="580,-318.22 468,-318.22 468,-299.22 580,-299.22 580,-318.22"/>
<text text-anchor="middle" x="524" y="-306.22" font-family="Helvetica,sans-Serif" font-size="10.00">std::vector&lt; bool &gt;</text>
</a>
</g>
</g>
<!-- Node4&#45;&gt;Node3 -->
<g id="edge3_Node000003_Node000004" class="edge">
<title>Node4&#45;&gt;Node3</title>
<g id="a_edge3_Node000003_Node000004"><a xlink:title=" ">
<path fill="none" stroke="#9a32cd" stroke-dasharray="5,2" d="M590.35,-307.72C677.88,-306.37 832.06,-304 917.72,-302.68"/>
<polygon fill="#9a32cd" stroke="#9a32cd" points="590.22,-304.22 580.28,-307.87 590.33,-311.22 590.22,-304.22"/>
</a>
</g>
<text text-anchor="start" x="625.5" y="-312.22" font-family="Helvetica,sans-Serif" font-size="10.00" fill="grey">m_postprocess_enforce_dt</text>
</g>
<!-- Node5 -->
<g id="Node000005" class="node">
<title>Node5</title>
<g id="a_Node000005"><a xlink:title=" ">
<polygon fill="white" stroke="#666666" points="238,-317.22 141,-317.22 141,-298.22 238,-298.22 238,-317.22"/>
<text text-anchor="middle" x="189.5" y="-305.22" font-family="Helvetica,sans-Serif" font-size="10.00">std::vector&lt; T &gt;</text>
</a>
</g>
</g>
<!-- Node5&#45;&gt;Node4 -->
<g id="edge4_Node000004_Node000005" class="edge">
<title>Node5&#45;&gt;Node4</title>
<g id="a_edge4_Node000004_Node000005"><a xlink:title=" ">
<path fill="none" stroke="orange" stroke-dasharray="5,2" d="M248.49,-307.9C310.28,-308.08 407.35,-308.38 467.98,-308.56"/>
<polygon fill="orange" stroke="orange" points="248.15,-304.4 238.14,-307.87 248.13,-311.4 248.15,-304.4"/>
</a>
</g>
<text text-anchor="start" x="331" y="-313.22" font-family="Helvetica,sans-Serif" font-size="10.00" fill="grey">&lt; bool &gt;</text>
</g>
<!-- Node6 -->
<g id="Node000006" class="node">
<title>Node6</title>
<g id="a_Node000006"><a xlink:title=" ">
<polygon fill="white" stroke="#666666" points="29,-257.22 0,-257.22 0,-238.22 29,-238.22 29,-257.22"/>
<text text-anchor="middle" x="14.5" y="-245.22" font-family="Helvetica,sans-Serif" font-size="10.00">T</text>
</a>
</g>
</g>
<!-- Node6&#45;&gt;Node5 -->
<g id="edge5_Node000005_Node000006" class="edge">
<title>Node6&#45;&gt;Node5</title>
<g id="a_edge5_Node000005_Node000006"><a xlink:title=" ">
<path fill="none" stroke="#9a32cd" stroke-dasharray="5,2" d="M26.4,-265.95C31.7,-273.25 38.72,-281.02 47,-285.72 75.43,-301.87 111.99,-307.23 140.82,-308.63"/>
<polygon fill="#9a32cd" stroke="#9a32cd" points="29.07,-263.64 20.64,-257.23 23.23,-267.5 29.07,-263.64"/>
</a>
</g>
<text text-anchor="start" x="50" y="-308.22" font-family="Helvetica,sans-Serif" font-size="10.00" fill="grey">elements</text>
</g>
<!-- Node11 -->
<g id="Node000011" class="node">
<title>Node11</title>
<g id="a_Node000011"><a xlink:title=" ">
<polygon fill="white" stroke="#666666" points="581,-50.72 467,-50.72 467,-20.72 581,-20.72 581,-50.72"/>
<text text-anchor="start" x="475" y="-38.72" font-family="Helvetica,sans-Serif" font-size="10.00">std::unordered_map</text>
<text text-anchor="middle" x="524" y="-27.72" font-family="Helvetica,sans-Serif" font-size="10.00">&lt; K, T &gt;</text>
</a>
</g>
</g>
<!-- Node6&#45;&gt;Node11 -->
<g id="edge12_Node000011_Node000006" class="edge">
<title>Node6&#45;&gt;Node11</title>
<g id="a_edge12_Node000011_Node000006"><a xlink:title=" ">
<path fill="none" stroke="#9a32cd" stroke-dasharray="5,2" d="M18.63,-227.9C26.47,-185.69 51.27,-87.38 117,-45.72 225.69,23.16 385.74,-1.09 468.69,-20.69"/>
<polygon fill="#9a32cd" stroke="#9a32cd" points="15.17,-227.34 16.92,-237.79 22.07,-228.54 15.17,-227.34"/>
</a>
</g>
<text text-anchor="start" x="166.5" y="-51.22" font-family="Helvetica,sans-Serif" font-size="10.00" fill="grey">elements</text>
</g>
<!-- Node18 -->
<g id="Node000018" class="node">
<title>Node18</title>
<g id="a_Node000018"><a xlink:title=" ">
<polygon fill="white" stroke="#666666" points="248.5,-236.22 130.5,-236.22 130.5,-217.22 248.5,-217.22 248.5,-236.22"/>
<text text-anchor="middle" x="189.5" y="-224.22" font-family="Helvetica,sans-Serif" font-size="10.00">std::unique_ptr&lt; T &gt;</text>
</a>
</g>
</g>
<!-- Node6&#45;&gt;Node18 -->
<g id="edge22_Node000018_Node000006" class="edge">
<title>Node6&#45;&gt;Node18</title>
<g id="a_edge22_Node000018_Node000006"><a xlink:title=" ">
<path fill="none" stroke="#9a32cd" stroke-dasharray="5,2" d="M36.71,-232.92C40.03,-231.21 43.52,-229.72 47,-228.72 73.69,-221.09 104.39,-219.81 130.36,-220.76"/>
<polygon fill="#9a32cd" stroke="#9a32cd" points="34.77,-230 27.96,-238.12 38.34,-236.02 34.77,-230"/>
</a>
</g>
<text text-anchor="start" x="66" y="-234.22" font-family="Helvetica,sans-Serif" font-size="10.00" fill="grey">ptr</text>
</g>
<!-- Node19 -->
<g id="Node000019" class="node">
<title>Node19</title>
<g id="a_Node000019"><a xlink:title=" ">
<polygon fill="white" stroke="#666666" points="412,-280.22 294,-280.22 294,-261.22 412,-261.22 412,-280.22"/>
<text text-anchor="middle" x="353" y="-268.22" font-family="Helvetica,sans-Serif" font-size="10.00">std::shared_ptr&lt; T &gt;</text>
</a>
</g>
</g>
<!-- Node6&#45;&gt;Node19 -->
<g id="edge24_Node000019_Node000006" class="edge">
<title>Node6&#45;&gt;Node19</title>
<g id="a_edge24_Node000019_Node000006"><a xlink:title=" ">
<path fill="none" stroke="#9a32cd" stroke-dasharray="5,2" d="M39.11,-249.34C91.5,-252.92 218.79,-261.62 293.88,-266.75"/>
<polygon fill="#9a32cd" stroke="#9a32cd" points="39.32,-245.84 29.11,-248.65 38.85,-252.83 39.32,-245.84"/>
</a>
</g>
<text text-anchor="start" x="66" y="-258.22" font-family="Helvetica,sans-Serif" font-size="10.00" fill="grey">ptr</text>
</g>
<!-- Node7 -->
<g id="Node000007" class="node">
<title>Node7</title>
<g id="a_Node000007"><a xlink:href="classkynema__sgf_1_1_field_repo.html" target="_top" xlink:title=" ">
<polygon fill="white" stroke="#666666" points="1195.5,-138.22 1066.5,-138.22 1066.5,-119.22 1195.5,-119.22 1195.5,-138.22"/>
<text text-anchor="middle" x="1131" y="-126.22" font-family="Helvetica,sans-Serif" font-size="10.00">kynema_sgf::FieldRepo</text>
</a>
</g>
</g>
<!-- Node7&#45;&gt;Node1 -->
<g id="edge6_Node000001_Node000007" class="edge">
<title>Node7&#45;&gt;Node1</title>
<g id="a_edge6_Node000001_Node000007"><a xlink:title=" ">
<path fill="none" stroke="#9a32cd" stroke-dasharray="5,2" d="M1205.52,-134.66C1275.25,-140.56 1382.91,-150.35 1476,-161.72 1536.52,-169.12 1605.48,-179.61 1653.06,-187.18"/>
<polygon fill="#9a32cd" stroke="#9a32cd" points="1205.77,-131.17 1195.51,-133.82 1205.18,-138.15 1205.77,-131.17"/>
</a>
</g>
<text text-anchor="start" x="1360.5" y="-167.22" font-family="Helvetica,sans-Serif" font-size="10.00" fill="grey">m_repo</text>
</g>
<!-- Node13 -->
<g id="Node000013" class="node">
<title>Node13</title>
<g id="a_Node000013"><a xlink:href="classkynema__sgf_1_1_field.html" target="_top" xlink:title=" ">
<polygon fill="white" stroke="#666666" points="1430.5,-206.22 1326.5,-206.22 1326.5,-187.22 1430.5,-187.22 1430.5,-206.22"/>
<text text-anchor="middle" x="1378.5" y="-194.22" font-family="Helvetica,sans-Serif" font-size="10.00">kynema_sgf::Field</text>
</a>
</g>
</g>
<!-- Node7&#45;&gt;Node13 -->
<g id="edge14_Node000013_Node000007" class="edge">
<title>Node7&#45;&gt;Node13</title>
<g id="a_edge14_Node000013_Node000007"><a xlink:title=" ">
<path fill="none" stroke="#9a32cd" stroke-dasharray="5,2" d="M1176.16,-140.96C1223.98,-154.2 1299.25,-175.05 1342.94,-187.15"/>
<polygon fill="#9a32cd" stroke="#9a32cd" points="1176.97,-137.55 1166.39,-138.25 1175.1,-144.29 1176.97,-137.55"/>
</a>
</g>
<text text-anchor="start" x="1223" y="-170.22" font-family="Helvetica,sans-Serif" font-size="10.00" fill="grey">m_repo</text>
</g>
<!-- Node20 -->
<g id="Node000020" class="node">
<title>Node20</title>
<g id="a_Node000020"><a xlink:href="classkynema__sgf_1_1_int_field.html" target="_top" xlink:title=" ">
<polygon fill="white" stroke="#666666" points="1437,-95.22 1320,-95.22 1320,-76.22 1437,-76.22 1437,-95.22"/>
<text text-anchor="middle" x="1378.5" y="-83.22" font-family="Helvetica,sans-Serif" font-size="10.00">kynema_sgf::IntField</text>
</a>
</g>
</g>
<!-- Node7&#45;&gt;Node20 -->
<g id="edge26_Node000020_Node000007" class="edge">
<title>Node7&#45;&gt;Node20</title>
<g id="a_edge26_Node000020_Node000007"><a xlink:title=" ">
<path fill="none" stroke="#9a32cd" stroke-dasharray="5,2" d="M1166.59,-115.69C1182.36,-110.24 1201.41,-104.34 1219,-100.72 1252.03,-93.93 1289.58,-90.21 1319.83,-88.17"/>
<polygon fill="#9a32cd" stroke="#9a32cd" points="1165,-112.53 1156.74,-119.17 1167.34,-119.13 1165,-112.53"/>
</a>
</g>
<text text-anchor="start" x="1223" y="-106.22" font-family="Helvetica,sans-Serif" font-size="10.00" fill="grey">m_repo</text>
</g>
<!-- Node8 -->
<g id="Node000008" class="node">
<title>Node8</title>
<g id="a_Node000008"><a xlink:title=" ">
<polygon fill="white" stroke="#666666" points="899.5,-139.72 777.5,-139.72 777.5,-109.72 899.5,-109.72 899.5,-139.72"/>
<text text-anchor="start" x="785.5" y="-127.72" font-family="Helvetica,sans-Serif" font-size="10.00">std::unordered_map</text>
<text text-anchor="middle" x="838.5" y="-116.72" font-family="Helvetica,sans-Serif" font-size="10.00">&lt; std::string, size_t &gt;</text>
</a>
</g>
</g>
<!-- Node8&#45;&gt;Node7 -->
<g id="edge7_Node000007_Node000008" class="edge">
<title>Node8&#45;&gt;Node7</title>
<g id="a_edge7_Node000007_Node000008"><a xlink:title=" ">
<path fill="none" stroke="#9a32cd" stroke-dasharray="5,2" d="M909.94,-125.69C957.65,-126.35 1020.16,-127.21 1066.36,-127.85"/>
<polygon fill="#9a32cd" stroke="#9a32cd" points="909.74,-122.19 899.69,-125.55 909.64,-129.19 909.74,-122.19"/>
</a>
</g>
<text text-anchor="start" x="944.5" y="-147.72" font-family="Helvetica,sans-Serif" font-size="10.00" fill="grey">m_fid_map</text>
<text text-anchor="start" x="944.5" y="-132.72" font-family="Helvetica,sans-Serif" font-size="10.00" fill="grey">m_int_fid_map</text>
</g>
<!-- Node9 -->
<g id="Node000009" class="node">
<title>Node9</title>
<g id="a_Node000009"><a xlink:title=" ">
<polygon fill="white" stroke="#666666" points="556.5,-139.22 491.5,-139.22 491.5,-120.22 556.5,-120.22 556.5,-139.22"/>
<text text-anchor="middle" x="524" y="-127.22" font-family="Helvetica,sans-Serif" font-size="10.00">std::string</text>
</a>
</g>
</g>
<!-- Node9&#45;&gt;Node8 -->
<g id="edge8_Node000008_Node000009" class="edge">
<title>Node9&#45;&gt;Node8</title>
<g id="a_edge8_Node000008_Node000009"><a xlink:title=" ">
<path fill="none" stroke="#9a32cd" stroke-dasharray="5,2" d="M567.09,-127.65C584.13,-126.9 604,-126.14 622,-125.72 674.37,-124.52 733.91,-124.34 777.11,-124.41"/>
<polygon fill="#9a32cd" stroke="#9a32cd" points="566.71,-124.17 556.88,-128.12 567.03,-131.16 566.71,-124.17"/>
</a>
</g>
<text text-anchor="start" x="679.5" y="-131.22" font-family="Helvetica,sans-Serif" font-size="10.00" fill="grey">keys</text>
</g>
<!-- Node9&#45;&gt;Node13 -->
<g id="edge15_Node000013_Node000009" class="edge">
<title>Node9&#45;&gt;Node13</title>
<g id="a_edge15_Node000013_Node000009"><a xlink:title=" ">
<path fill="none" stroke="#9a32cd" stroke-dasharray="5,2" d="M567.03,-135.93C584.07,-138.3 603.94,-140.87 622,-142.72 886.24,-169.85 1203.86,-187.79 1326.11,-194.15"/>
<polygon fill="#9a32cd" stroke="#9a32cd" points="567.22,-132.43 556.83,-134.5 566.25,-139.36 567.22,-132.43"/>
</a>
</g>
<text text-anchor="start" x="959.5" y="-182.22" font-family="Helvetica,sans-Serif" font-size="10.00" fill="grey">m_name</text>
</g>
<!-- Node15 -->
<g id="Node000015" class="node">
<title>Node15</title>
<g id="a_Node000015"><a xlink:href="structkynema__sgf_1_1_field_info.html" target="_top" xlink:title=" ">
<polygon fill="white" stroke="#666666" points="900,-239.22 777,-239.22 777,-220.22 900,-220.22 900,-239.22"/>
<text text-anchor="middle" x="838.5" y="-227.22" font-family="Helvetica,sans-Serif" font-size="10.00">kynema_sgf::FieldInfo</text>
</a>
</g>
</g>
<!-- Node9&#45;&gt;Node15 -->
<g id="edge18_Node000015_Node000009" class="edge">
<title>Node9&#45;&gt;Node15</title>
<g id="a_edge18_Node000015_Node000009"><a xlink:title=" ">
<path fill="none" stroke="#9a32cd" stroke-dasharray="5,2" d="M556.74,-143.24C575.52,-150.96 599.89,-160.52 622,-167.72 681.86,-187.24 698.64,-185.82 759,-203.72 776.07,-208.79 795.02,-215.05 810.02,-220.15"/>
<polygon fill="#9a32cd" stroke="#9a32cd" points="558.04,-139.99 547.46,-139.39 555.36,-146.45 558.04,-139.99"/>
</a>
</g>
<text text-anchor="start" x="657.5" y="-209.22" font-family="Helvetica,sans-Serif" font-size="10.00" fill="grey">m_basename</text>
</g>
<!-- Node9&#45;&gt;Node20 -->
<g id="edge27_Node000020_Node000009" class="edge">
<title>Node9&#45;&gt;Node20</title>
<g id="a_edge27_Node000020_Node000009"><a xlink:title=" ">
<path fill="none" stroke="#9a32cd" stroke-dasharray="5,2" d="M566.83,-123.78C616.74,-116.94 702.77,-105.99 777,-100.72 973.02,-86.81 1022.54,-93.25 1219,-88.72 1252.43,-87.95 1289.83,-87.24 1319.9,-86.7"/>
<polygon fill="#9a32cd" stroke="#9a32cd" points="566.17,-120.33 556.74,-125.17 567.13,-127.27 566.17,-120.33"/>
</a>
</g>
<text text-anchor="start" x="959.5" y="-98.22" font-family="Helvetica,sans-Serif" font-size="10.00" fill="grey">m_name</text>
</g>
<!-- Node10 -->
<g id="Node000010" class="node">
<title>Node10</title>
<g id="a_Node000010"><a xlink:title=" ">
<polygon fill="white" stroke="#666666" points="241.5,-144.72 137.5,-144.72 137.5,-114.72 241.5,-114.72 241.5,-144.72"/>
<text text-anchor="start" x="145.5" y="-132.72" font-family="Helvetica,sans-Serif" font-size="10.00">std::basic_string&lt;</text>
<text text-anchor="middle" x="189.5" y="-121.72" font-family="Helvetica,sans-Serif" font-size="10.00"> Char &gt;</text>
</a>
</g>
</g>
<!-- Node10&#45;&gt;Node9 -->
<g id="edge9_Node000009_Node000010" class="edge">
<title>Node10&#45;&gt;Node9</title>
<g id="a_edge9_Node000009_Node000010"><a xlink:title=" ">
<path fill="none" stroke="#63b8ff" d="M251.85,-129.72C322.64,-129.72 436.34,-129.72 491.27,-129.72"/>
<polygon fill="#63b8ff" stroke="#63b8ff" points="251.72,-126.22 241.72,-129.72 251.72,-133.22 251.72,-126.22"/>
</a>
</g>
</g>
<!-- Node11&#45;&gt;Node8 -->
<g id="edge10_Node000008_Node000011" class="edge">
<title>Node11&#45;&gt;Node8</title>
<g id="a_edge10_Node000008_Node000011"><a xlink:title=" ">
<path fill="none" stroke="orange" stroke-dasharray="5,2" d="M587.76,-53.6C645.56,-70.06 730.36,-94.21 784.75,-109.7"/>
<polygon fill="orange" stroke="orange" points="588.59,-50.19 578.01,-50.82 586.67,-56.93 588.59,-50.19"/>
</a>
</g>
<text text-anchor="start" x="637.5" y="-106.22" font-family="Helvetica,sans-Serif" font-size="10.00" fill="grey">&lt; std::string, size_t &gt;</text>
</g>
<!-- Node12 -->
<g id="Node000012" class="node">
<title>Node12</title>
<g id="a_Node000012"><a xlink:title=" ">
<polygon fill="white" stroke="#666666" points="204,-90.22 175,-90.22 175,-71.22 204,-71.22 204,-90.22"/>
<text text-anchor="middle" x="189.5" y="-78.22" font-family="Helvetica,sans-Serif" font-size="10.00">K</text>
</a>
</g>
</g>
<!-- Node12&#45;&gt;Node11 -->
<g id="edge11_Node000011_Node000012" class="edge">
<title>Node12&#45;&gt;Node11</title>
<g id="a_edge11_Node000011_Node000012"><a xlink:title=" ">
<path fill="none" stroke="#9a32cd" stroke-dasharray="5,2" d="M214.21,-77.7C256.68,-72.27 348.56,-60.41 426,-49.72 439.23,-47.9 453.47,-45.88 466.85,-43.95"/>
<polygon fill="#9a32cd" stroke="#9a32cd" points="213.52,-74.26 204.05,-79 214.41,-81.21 213.52,-74.26"/>
</a>
</g>
<text text-anchor="start" x="342" y="-74.22" font-family="Helvetica,sans-Serif" font-size="10.00" fill="grey">keys</text>
</g>
<!-- Node13&#45;&gt;Node1 -->
<g id="edge13_Node000001_Node000013" class="edge">
<title>Node13&#45;&gt;Node1</title>
<g id="a_edge13_Node000001_Node000013"><a xlink:title=" ">
<path fill="none" stroke="#9a32cd" stroke-dasharray="5,2" d="M1440.84,-196.72C1490.17,-196.72 1560.31,-196.72 1616.83,-196.72"/>
<polygon fill="#9a32cd" stroke="#9a32cd" points="1440.65,-193.22 1430.65,-196.72 1440.65,-200.22 1440.65,-193.22"/>
</a>
</g>
<text text-anchor="start" x="1509.5" y="-217.72" font-family="Helvetica,sans-Serif" font-size="10.00" fill="grey">m_ow_velocity</text>
<text text-anchor="start" x="1509.5" y="-202.72" font-family="Helvetica,sans-Serif" font-size="10.00" fill="grey">m_ow_vof</text>
</g>
<!-- Node14 -->
<g id="Node000014" class="node">
<title>Node14</title>
<g id="a_Node000014"><a xlink:title=" ">
<polygon fill="white" stroke="#666666" points="1201,-244.72 1061,-244.72 1061,-214.72 1201,-214.72 1201,-244.72"/>
<text text-anchor="start" x="1069" y="-232.72" font-family="Helvetica,sans-Serif" font-size="10.00">std::shared_ptr&lt; kynema</text>
<text text-anchor="middle" x="1131" y="-221.72" font-family="Helvetica,sans-Serif" font-size="10.00">_sgf::FieldInfo &gt;</text>
</a>
</g>
</g>
<!-- Node14&#45;&gt;Node13 -->
<g id="edge16_Node000013_Node000014" class="edge">
<title>Node14&#45;&gt;Node13</title>
<g id="a_edge16_Node000013_Node000014"><a xlink:title=" ">
<path fill="none" stroke="#9a32cd" stroke-dasharray="5,2" d="M1211.02,-219.1C1248.89,-214.01 1293.13,-208.07 1326.49,-203.58"/>
<polygon fill="#9a32cd" stroke="#9a32cd" points="1210.48,-215.64 1201.04,-220.44 1211.42,-222.58 1210.48,-215.64"/>
</a>
</g>
<text text-anchor="start" x="1224" y="-222.22" font-family="Helvetica,sans-Serif" font-size="10.00" fill="grey">m_info</text>
</g>
<!-- Node15&#45;&gt;Node14 -->
<g id="edge17_Node000014_Node000015" class="edge">
<title>Node15&#45;&gt;Node14</title>
<g id="a_edge17_Node000014_Node000015"><a xlink:title=" ">
<path fill="none" stroke="#9a32cd" stroke-dasharray="5,2" d="M910.19,-229.72C956,-229.72 1015.37,-229.72 1060.87,-229.72"/>
<polygon fill="#9a32cd" stroke="#9a32cd" points="910.04,-226.22 900.04,-229.72 910.04,-233.22 910.04,-226.22"/>
</a>
</g>
<text text-anchor="start" x="973.5" y="-235.22" font-family="Helvetica,sans-Serif" font-size="10.00" fill="grey">ptr</text>
</g>
<!-- Node16 -->
<g id="Node000016" class="node">
<title>Node16</title>
<g id="a_Node000016"><a xlink:title=" ">
<polygon fill="white" stroke="#666666" points="604,-238.72 444,-238.72 444,-208.72 604,-208.72 604,-238.72"/>
<text text-anchor="start" x="452" y="-226.72" font-family="Helvetica,sans-Serif" font-size="10.00">std::unique_ptr&lt; kynema</text>
<text text-anchor="middle" x="524" y="-215.72" font-family="Helvetica,sans-Serif" font-size="10.00">_sgf::FieldFillPatchOpsBase &gt;</text>
</a>
</g>
</g>
<!-- Node16&#45;&gt;Node15 -->
<g id="edge19_Node000015_Node000016" class="edge">
<title>Node16&#45;&gt;Node15</title>
<g id="a_edge19_Node000015_Node000016"><a xlink:title=" ">
<path fill="none" stroke="#9a32cd" stroke-dasharray="5,2" d="M614.48,-225.44C666.4,-226.44 730.45,-227.67 776.57,-228.55"/>
<polygon fill="#9a32cd" stroke="#9a32cd" points="614.33,-221.94 604.26,-225.25 614.19,-228.94 614.33,-221.94"/>
</a>
</g>
<text text-anchor="start" x="654.5" y="-233.22" font-family="Helvetica,sans-Serif" font-size="10.00" fill="grey">m_fillpatch_op</text>
</g>
<!-- Node17 -->
<g id="Node000017" class="node">
<title>Node17</title>
<g id="a_Node000017"><a xlink:href="classkynema__sgf_1_1_field_fill_patch_ops_base.html" target="_top" xlink:title=" ">
<polygon fill="white" stroke="#666666" points="262,-198.72 117,-198.72 117,-168.72 262,-168.72 262,-198.72"/>
<text text-anchor="start" x="125" y="-186.72" font-family="Helvetica,sans-Serif" font-size="10.00">kynema_sgf::FieldFillPatch</text>
<text text-anchor="middle" x="189.5" y="-175.72" font-family="Helvetica,sans-Serif" font-size="10.00">OpsBase</text>
</a>
</g>
</g>
<!-- Node17&#45;&gt;Node16 -->
<g id="edge20_Node000016_Node000017" class="edge">
<title>Node17&#45;&gt;Node16</title>
<g id="a_edge20_Node000016_Node000017"><a xlink:title=" ">
<path fill="none" stroke="#9a32cd" stroke-dasharray="5,2" d="M272.13,-184.52C317.66,-185.98 375.26,-189.5 426,-197.72 442.01,-200.32 459.18,-204.46 474.57,-208.68"/>
<polygon fill="#9a32cd" stroke="#9a32cd" points="272.12,-181.02 262.02,-184.22 271.91,-188.02 272.12,-181.02"/>
</a>
</g>
<text text-anchor="start" x="346" y="-203.22" font-family="Helvetica,sans-Serif" font-size="10.00" fill="grey">ptr</text>
</g>
<!-- Node18&#45;&gt;Node16 -->
<g id="edge21_Node000016_Node000018" class="edge">
<title>Node18&#45;&gt;Node16</title>
<g id="a_edge21_Node000016_Node000018"><a xlink:title=" ">
<path fill="none" stroke="orange" stroke-dasharray="5,2" d="M259.05,-221.66C266.12,-221.28 273.2,-220.95 280,-220.72 334.71,-218.89 396.39,-219.69 443.91,-220.92"/>
<polygon fill="orange" stroke="orange" points="258.51,-218.18 248.73,-222.25 258.91,-225.17 258.51,-218.18"/>
</a>
</g>
<text text-anchor="start" x="283" y="-241.72" font-family="Helvetica,sans-Serif" font-size="10.00" fill="grey">&lt; kynema_sgf::FieldFillPatch</text>
<text text-anchor="start" x="283" y="-226.72" font-family="Helvetica,sans-Serif" font-size="10.00" fill="grey">  OpsBase &gt;</text>
</g>
<!-- Node19&#45;&gt;Node14 -->
<g id="edge23_Node000014_Node000019" class="edge">
<title>Node19&#45;&gt;Node14</title>
<g id="a_edge23_Node000014_Node000019"><a xlink:title=" ">
<path fill="none" stroke="orange" stroke-dasharray="5,2" d="M422.53,-273.42C546.83,-277.27 817.45,-280.89 1043,-250.72 1053.47,-249.32 1064.52,-247.19 1075.1,-244.8"/>
<polygon fill="orange" stroke="orange" points="422.51,-269.92 412.4,-273.1 422.28,-276.92 422.51,-269.92"/>
</a>
</g>
<text text-anchor="start" x="625.5" y="-281.22" font-family="Helvetica,sans-Serif" font-size="10.00" fill="grey">&lt; kynema_sgf::FieldInfo &gt;</text>
</g>
<!-- Node20&#45;&gt;Node1 -->
<g id="edge25_Node000001_Node000020" class="edge">
<title>Node20&#45;&gt;Node1</title>
<g id="a_edge25_Node000001_Node000020"><a xlink:title=" ">
<path fill="none" stroke="#9a32cd" stroke-dasharray="5,2" d="M1447.35,-79.59C1492.03,-78.1 1550.93,-81.12 1599,-100.72 1646.07,-119.93 1687.63,-166.85 1704.04,-187.13"/>
<polygon fill="#9a32cd" stroke="#9a32cd" points="1447.03,-76.1 1437.18,-80.01 1447.32,-83.09 1447.03,-76.1"/>
</a>
</g>
<text text-anchor="start" x="1497.5" y="-106.22" font-family="Helvetica,sans-Serif" font-size="10.00" fill="grey">m_terrain_blank_ptr</text>
</g>
</g>
</svg>
