<?xml version="1.0" encoding="UTF-8" standalone="no"?>
<!DOCTYPE svg PUBLIC "-//W3C//DTD SVG 1.1//EN"
 "http://www.w3.org/Graphics/SVG/1.1/DTD/svg11.dtd">
<!-- Generated by graphviz version 2.43.0 (0)
 -->
<!-- Title: kynema_sgf::ib::ImmersedBoundaryModel Pages: 1 -->
<svg width="647pt" height="81pt"
 viewBox="0.00 0.00 647.00 81.00" xmlns="http://www.w3.org/2000/svg" xmlns:xlink="http://www.w3.org/1999/xlink">
<g id="graph0" class="graph" transform="scale(1 1) rotate(0) translate(4 77)">
<title>kynema_sgf::ib::ImmersedBoundaryModel</title>
<!-- Node1 -->
<g id="Node000001" class="node">
<title>Node1</title>
<g id="a_Node000001"><a xlink:title=" ">
<polygon fill="#999999" stroke="#666666" points="639,-41 493,-41 493,-11 639,-11 639,-41"/>
<text text-anchor="start" x="501" y="-29" font-family="Helvetica,sans-Serif" font-size="10.00">kynema_sgf::ib::Immersed</text>
<text text-anchor="middle" x="566" y="-18" font-family="Helvetica,sans-Serif" font-size="10.00">BoundaryModel</text>
</a>
</g>
</g>
<!-- Node2 -->
<g id="Node000002" class="node">
<title>Node2</title>
<g id="a_Node000002"><a xlink:href="structkynema__sgf_1_1_factory.html" target="_top" xlink:title=" ">
<polygon fill="white" stroke="#666666" points="456,-52 299,-52 299,0 456,0 456,-52"/>
<text text-anchor="start" x="307" y="-40" font-family="Helvetica,sans-Serif" font-size="10.00">kynema_sgf::Factory</text>
<text text-anchor="start" x="307" y="-29" font-family="Helvetica,sans-Serif" font-size="10.00">&lt; ImmersedBoundaryModel,</text>
<text text-anchor="start" x="307" y="-18" font-family="Helvetica,sans-Serif" font-size="10.00"> CFDSim &amp;, const std::string</text>
<text text-anchor="middle" x="377.5" y="-7" font-family="Helvetica,sans-Serif" font-size="10.00"> &amp;, const int &gt;</text>
</a>
</g>
</g>
<!-- Node2&#45;&gt;Node1 -->
<g id="edge1_Node000001_Node000002" class="edge">
<title>Node2&#45;&gt;Node1</title>
<g id="a_edge1_Node000001_Node000002"><a xlink:title=" ">
<path fill="none" stroke="#63b8ff" d="M466.51,-26C475.3,-26 484.15,-26 492.75,-26"/>
<polygon fill="#63b8ff" stroke="#63b8ff" points="466.24,-22.5 456.24,-26 466.24,-29.5 466.24,-22.5"/>
</a>
</g>
</g>
<!-- Node3 -->
<g id="Node000003" class="node">
<title>Node3</title>
<g id="a_Node000003"><a xlink:href="structkynema__sgf_1_1_factory.html" target="_top" xlink:title=" ">
<polygon fill="white" stroke="#666666" points="116,-41 0,-41 0,-11 116,-11 116,-41"/>
<text text-anchor="start" x="8" y="-29" font-family="Helvetica,sans-Serif" font-size="10.00">kynema_sgf::Factory</text>
<text text-anchor="middle" x="58" y="-18" font-family="Helvetica,sans-Serif" font-size="10.00">&lt; Base, Args &gt;</text>
</a>
</g>
</g>
<!-- Node3&#45;&gt;Node2 -->
<g id="edge2_Node000002_Node000003" class="edge">
<title>Node3&#45;&gt;Node2</title>
<g id="a_edge2_Node000002_Node000003"><a xlink:title=" ">
<path fill="none" stroke="orange" stroke-dasharray="5,2" d="M126.29,-26C176.81,-26 246.09,-26 298.94,-26"/>
<polygon fill="orange" stroke="orange" points="126.13,-22.5 116.13,-26 126.13,-29.5 126.13,-22.5"/>
</a>
</g>
<text text-anchor="start" x="137.5" y="-61.5" font-family="Helvetica,sans-Serif" font-size="10.00" fill="grey">&lt; ImmersedBoundaryModel,</text>
<text text-anchor="start" x="137.5" y="-46.5" font-family="Helvetica,sans-Serif" font-size="10.00" fill="grey">   CFDSim &amp;, const std::</text>
<text text-anchor="start" x="137.5" y="-31.5" font-family="Helvetica,sans-Serif" font-size="10.00" fill="grey">  string &amp;, const int &gt;</text>
</g>
</g>
</svg>
