<?xml version="1.0" encoding="UTF-8" standalone="no"?>
<!DOCTYPE svg PUBLIC "-//W3C//DTD SVG 1.1//EN"
 "http://www.w3.org/Graphics/SVG/1.1/DTD/svg11.dtd">
<!-- Generated by graphviz version 2.43.0 (0)
 -->
<!-- Title: kynema_sgf::FieldBoundaryMgr Pages: 1 -->
<svg width="202pt" height="214pt"
 viewBox="0.00 0.00 202.00 214.00" xmlns="http://www.w3.org/2000/svg" xmlns:xlink="http://www.w3.org/1999/xlink">
<g id="graph0" class="graph" transform="scale(1 1) rotate(0) translate(4 210)">
<title>kynema_sgf::FieldBoundaryMgr</title>
<!-- Node1 -->
<g id="Node000001" class="node">
<title>Node1</title>
<g id="a_Node000001"><a xlink:title=" ">
<polygon fill="#999999" stroke="#666666" points="170,-19 0,-19 0,0 170,0 170,-19"/>
<text text-anchor="middle" x="85" y="-7" font-family="Helvetica,sans-Serif" font-size="10.00">kynema_sgf::FieldBoundaryMgr</text>
</a>
</g>
</g>
<!-- Node2 -->
<g id="Node000002" class="node">
<title>Node2</title>
<g id="a_Node000002"><a xlink:href="classkynema__sgf_1_1_coll_mgr.html" target="_top" xlink:title=" ">
<polygon fill="white" stroke="#666666" points="144.5,-97 25.5,-97 25.5,-56 144.5,-56 144.5,-97"/>
<text text-anchor="start" x="33.5" y="-85" font-family="Helvetica,sans-Serif" font-size="10.00">kynema_sgf::CollMgr</text>
<text text-anchor="start" x="33.5" y="-74" font-family="Helvetica,sans-Serif" font-size="10.00">&lt; FieldBoundaryMgr,</text>
<text text-anchor="middle" x="85" y="-63" font-family="Helvetica,sans-Serif" font-size="10.00"> FieldBoundary &gt;</text>
</a>
</g>
</g>
<!-- Node2&#45;&gt;Node1 -->
<g id="edge1_Node000001_Node000002" class="edge">
<title>Node2&#45;&gt;Node1</title>
<g id="a_edge1_Node000001_Node000002"><a xlink:title=" ">
<path fill="none" stroke="#63b8ff" d="M85,-45.76C85,-36.06 85,-26.02 85,-19.15"/>
<polygon fill="#63b8ff" stroke="#63b8ff" points="81.5,-46 85,-56 88.5,-46 81.5,-46"/>
</a>
</g>
</g>
<!-- Node3 -->
<g id="Node000003" class="node">
<title>Node3</title>
<g id="a_Node000003"><a xlink:href="classkynema__sgf_1_1_coll_mgr.html" target="_top" xlink:title=" ">
<polygon fill="white" stroke="#666666" points="144.5,-206 25.5,-206 25.5,-165 144.5,-165 144.5,-206"/>
<text text-anchor="start" x="33.5" y="-194" font-family="Helvetica,sans-Serif" font-size="10.00">kynema_sgf::CollMgr</text>
<text text-anchor="start" x="33.5" y="-183" font-family="Helvetica,sans-Serif" font-size="10.00">&lt; Collection, Type,</text>
<text text-anchor="middle" x="85" y="-172" font-family="Helvetica,sans-Serif" font-size="10.00"> allow_duplicates &gt;</text>
</a>
</g>
</g>
<!-- Node3&#45;&gt;Node2 -->
<g id="edge2_Node000002_Node000003" class="edge">
<title>Node3&#45;&gt;Node2</title>
<g id="a_edge2_Node000002_Node000003"><a xlink:title=" ">
<path fill="none" stroke="orange" stroke-dasharray="5,2" d="M85,-154.65C85,-136.22 85,-113.1 85,-97"/>
<polygon fill="orange" stroke="orange" points="81.5,-154.87 85,-164.87 88.5,-154.87 81.5,-154.87"/>
</a>
</g>
<text text-anchor="start" x="88.5" y="-136" font-family="Helvetica,sans-Serif" font-size="10.00" fill="grey">&lt; FieldBoundaryMgr,</text>
<text text-anchor="start" x="88.5" y="-121" font-family="Helvetica,sans-Serif" font-size="10.00" fill="grey">   FieldBoundary &gt;</text>
</g>
</g>
</svg>
