<?xml version="1.0" encoding="UTF-8" standalone="no"?>
<!DOCTYPE svg PUBLIC "-//W3C//DTD SVG 1.1//EN"
 "http://www.w3.org/Graphics/SVG/1.1/DTD/svg11.dtd">
<!-- Generated by graphviz version 2.43.0 (0)
 -->
<!-- Title: kynema_sgf::ExtSolverMgr Pages: 1 -->
<!--zoomable 116 -->

<svg id="main" version="1.1" xmlns="http://www.w3.org/2000/svg" xmlns:xlink="http://www.w3.org/1999/xlink" xml:space="preserve" onload="init(evt)">

<style type="text/css"><![CDATA[
.node, .edge {opacity: 0.7;}
.node.selected, .edge.selected {opacity: 1;}
.edge:hover path { stroke: red; }
.edge:hover polygon { stroke: red; fill: red; }
]]></style>

<defs>
  <circle id="rim" cx="0" cy="0" r="7"/>
  <circle id="rim2" cx="0" cy="0" r="3.5"/>
  <g id="zoomPlus">
    <use xlink:href="#rim" fill="#404040"><set attributeName="fill" to="#808080" begin="zoomplus.mouseover" end="zoomplus.mouseout"/></use>
    <path d="M-4,0h8M0,-4v8" fill="none" stroke="white" stroke-width="1.5" pointer-events="none"/>
  </g>
  <g id="zoomMin">
    <use xlink:href="#rim" fill="#404040"><set attributeName="fill" to="#808080" begin="zoomminus.mouseover" end="zoomminus.mouseout"/></use>
    <path d="M-4,0h8" fill="none" stroke="white" stroke-width="1.5" pointer-events="none"/>
  </g>
  <g id="arrowUp" transform="translate(30 24)">
    <use xlink:href="#rim"/>
    <path pointer-events="none" fill="none" stroke="white" stroke-width="1.5" d="M0,-3.0v7 M-2.5,-0.5L0,-3.0L2.5,-0.5"/>
  </g>
  <g id="arrowRight" transform="rotate(90) translate(36 -43)">
    <use xlink:href="#rim"/>
    <path pointer-events="none" fill="none" stroke="white" stroke-width="1.5" d="M0,-3.0v7 M-2.5,-0.5L0,-3.0L2.5,-0.5"/>
  </g>
  <g id="arrowDown" transform="rotate(180) translate(-30 -48)">
    <use xlink:href="#rim"/>
    <path pointer-events="none" fill="none" stroke="white" stroke-width="1.5" d="M0,-3.0v7 M-2.5,-0.5L0,-3.0L2.5,-0.5"/>
  </g>
  <g id="arrowLeft" transform="rotate(270) translate(-36 17)">
    <use xlink:href="#rim"/>
    <path pointer-events="none" fill="none" stroke="white" stroke-width="1.5" d="M0,-3.0v7 M-2.5,-0.5L0,-3.0L2.5,-0.5"/>
  </g>
  <g id="resetDef">
    <use xlink:href="#rim2" fill="#404040"><set attributeName="fill" to="#808080" begin="reset.mouseover" end="reset.mouseout"/></use>
  </g>
</defs>
<script type="application/ecmascript">
var viewWidth = 1303;
var viewHeight = 116;
var sectionId = 'dynsection-1';
</script>
<script type="application/ecmascript" xlink:href="svg.min.js"/>
<svg id="graph" class="graph">
<g id="viewport">
<title>kynema_sgf::ExtSolverMgr</title>
<!-- Node1 -->
<g id="Node000001" class="node">
<title>Node1</title>
<g id="a_Node000001"><a xlink:title=" ">
<polygon fill="#999999" stroke="#666666" points="1295,-80 1149,-80 1149,-61 1295,-61 1295,-80"/>
<text text-anchor="middle" x="1222" y="-68" font-family="Helvetica,sans-Serif" font-size="10.00">kynema_sgf::ExtSolverMgr</text>
</a>
</g>
</g>
<!-- Node2 -->
<g id="Node000002" class="node">
<title>Node2</title>
<g id="a_Node000002"><a xlink:href="classkynema__sgf_1_1_coll_mgr.html" target="_top" xlink:title=" ">
<polygon fill="white" stroke="#666666" points="1112,-85.5 955,-85.5 955,-55.5 1112,-55.5 1112,-85.5"/>
<text text-anchor="start" x="963" y="-73.5" font-family="Helvetica,sans-Serif" font-size="10.00">kynema_sgf::CollMgr</text>
<text text-anchor="middle" x="1033.5" y="-62.5" font-family="Helvetica,sans-Serif" font-size="10.00">&lt; ExtSolverMgr, ExtSolver &gt;</text>
</a>
</g>
</g>
<!-- Node2&#45;&gt;Node1 -->
<g id="edge1_Node000001_Node000002" class="edge">
<title>Node2&#45;&gt;Node1</title>
<g id="a_edge1_Node000001_Node000002"><a xlink:title=" ">
<path fill="none" stroke="#63b8ff" d="M1122.51,-70.5C1131.3,-70.5 1140.15,-70.5 1148.75,-70.5"/>
<polygon fill="#63b8ff" stroke="#63b8ff" points="1122.24,-67 1112.24,-70.5 1122.24,-74 1122.24,-67"/>
</a>
</g>
</g>
<!-- Node3 -->
<g id="Node000003" class="node">
<title>Node3</title>
<g id="a_Node000003"><a xlink:title=" ">
<polygon fill="white" stroke="#666666" points="553,-85.5 439,-85.5 439,-55.5 553,-55.5 553,-85.5"/>
<text text-anchor="start" x="447" y="-73.5" font-family="Helvetica,sans-Serif" font-size="10.00">std::unordered_map</text>
<text text-anchor="middle" x="496" y="-62.5" font-family="Helvetica,sans-Serif" font-size="10.00">&lt; std::string, int &gt;</text>
</a>
</g>
</g>
<!-- Node3&#45;&gt;Node2 -->
<g id="edge2_Node000002_Node000003" class="edge">
<title>Node3&#45;&gt;Node2</title>
<g id="a_edge2_Node000002_Node000003"><a xlink:title=" ">
<path fill="none" stroke="#9a32cd" stroke-dasharray="5,2" d="M563.25,-79.88C565.86,-80.11 568.45,-80.32 571,-80.5 733.28,-91.79 774.6,-90.82 937,-81.5 942.83,-81.17 948.85,-80.72 954.91,-80.19"/>
<polygon fill="#9a32cd" stroke="#9a32cd" points="563.38,-76.38 553.08,-78.86 562.68,-83.34 563.38,-76.38"/>
</a>
</g>
<text text-anchor="start" x="683.5" y="-94" font-family="Helvetica,sans-Serif" font-size="10.00" fill="grey">m_obj_map</text>
</g>
<!-- Node9 -->
<g id="Node000009" class="node">
<title>Node9</title>
<g id="a_Node000009"><a xlink:href="classkynema__sgf_1_1_coll_mgr.html" target="_top" xlink:title=" ">
<polygon fill="white" stroke="#666666" points="772,-62 653,-62 653,-21 772,-21 772,-62"/>
<text text-anchor="start" x="661" y="-50" font-family="Helvetica,sans-Serif" font-size="10.00">kynema_sgf::CollMgr</text>
<text text-anchor="start" x="661" y="-39" font-family="Helvetica,sans-Serif" font-size="10.00">&lt; Collection, Type,</text>
<text text-anchor="middle" x="712.5" y="-28" font-family="Helvetica,sans-Serif" font-size="10.00"> allow_duplicates &gt;</text>
</a>
</g>
</g>
<!-- Node3&#45;&gt;Node9 -->
<g id="edge9_Node000009_Node000003" class="edge">
<title>Node3&#45;&gt;Node9</title>
<g id="a_edge9_Node000009_Node000003"><a xlink:title=" ">
<path fill="none" stroke="#9a32cd" stroke-dasharray="5,2" d="M563,-61.58C591.67,-57.7 624.96,-53.2 652.75,-49.44"/>
<polygon fill="#9a32cd" stroke="#9a32cd" points="562.52,-58.11 553.08,-62.92 563.46,-65.05 562.52,-58.11"/>
</a>
</g>
<text text-anchor="start" x="574" y="-65" font-family="Helvetica,sans-Serif" font-size="10.00" fill="grey">m_obj_map</text>
</g>
<!-- Node4 -->
<g id="Node000004" class="node">
<title>Node4</title>
<g id="a_Node000004"><a xlink:title=" ">
<polygon fill="white" stroke="#666666" points="281.5,-102 216.5,-102 216.5,-83 281.5,-83 281.5,-102"/>
<text text-anchor="middle" x="249" y="-90" font-family="Helvetica,sans-Serif" font-size="10.00">std::string</text>
</a>
</g>
</g>
<!-- Node4&#45;&gt;Node3 -->
<g id="edge3_Node000003_Node000004" class="edge">
<title>Node4&#45;&gt;Node3</title>
<g id="a_edge3_Node000003_Node000004"><a xlink:title=" ">
<path fill="none" stroke="#9a32cd" stroke-dasharray="5,2" d="M291.6,-88.76C332.1,-85.13 393.96,-79.57 438.82,-75.54"/>
<polygon fill="#9a32cd" stroke="#9a32cd" points="291.17,-85.29 281.53,-89.67 291.8,-92.26 291.17,-85.29"/>
</a>
</g>
<text text-anchor="start" x="361.5" y="-90" font-family="Helvetica,sans-Serif" font-size="10.00" fill="grey">keys</text>
</g>
<!-- Node5 -->
<g id="Node000005" class="node">
<title>Node5</title>
<g id="a_Node000005"><a xlink:title=" ">
<polygon fill="white" stroke="#666666" points="104,-107.5 0,-107.5 0,-77.5 104,-77.5 104,-107.5"/>
<text text-anchor="start" x="8" y="-95.5" font-family="Helvetica,sans-Serif" font-size="10.00">std::basic_string&lt;</text>
<text text-anchor="middle" x="52" y="-84.5" font-family="Helvetica,sans-Serif" font-size="10.00"> Char &gt;</text>
</a>
</g>
</g>
<!-- Node5&#45;&gt;Node4 -->
<g id="edge4_Node000004_Node000005" class="edge">
<title>Node5&#45;&gt;Node4</title>
<g id="a_edge4_Node000004_Node000005"><a xlink:title=" ">
<path fill="none" stroke="#63b8ff" d="M114.49,-92.5C148.31,-92.5 188.85,-92.5 216.31,-92.5"/>
<polygon fill="#63b8ff" stroke="#63b8ff" points="114.23,-89 104.23,-92.5 114.23,-96 114.23,-89"/>
</a>
</g>
</g>
<!-- Node6 -->
<g id="Node000006" class="node">
<title>Node6</title>
<g id="a_Node000006"><a xlink:title=" ">
<polygon fill="white" stroke="#666666" points="306,-64.5 192,-64.5 192,-34.5 306,-34.5 306,-64.5"/>
<text text-anchor="start" x="200" y="-52.5" font-family="Helvetica,sans-Serif" font-size="10.00">std::unordered_map</text>
<text text-anchor="middle" x="249" y="-41.5" font-family="Helvetica,sans-Serif" font-size="10.00">&lt; K, T &gt;</text>
</a>
</g>
</g>
<!-- Node6&#45;&gt;Node3 -->
<g id="edge5_Node000003_Node000006" class="edge">
<title>Node6&#45;&gt;Node3</title>
<g id="a_edge5_Node000003_Node000006"><a xlink:title=" ">
<path fill="none" stroke="orange" stroke-dasharray="5,2" d="M316.14,-47.27C347.96,-47.06 386.59,-48.07 421,-52.5 426.77,-53.24 432.74,-54.26 438.68,-55.44"/>
<polygon fill="orange" stroke="orange" points="316.02,-43.77 306.06,-47.38 316.1,-50.77 316.02,-43.77"/>
</a>
</g>
<text text-anchor="start" x="327.5" y="-58" font-family="Helvetica,sans-Serif" font-size="10.00" fill="grey">&lt; std::string, int &gt;</text>
</g>
<!-- Node7 -->
<g id="Node000007" class="node">
<title>Node7</title>
<g id="a_Node000007"><a xlink:title=" ">
<polygon fill="white" stroke="#666666" points="66.5,-59 37.5,-59 37.5,-40 66.5,-40 66.5,-59"/>
<text text-anchor="middle" x="52" y="-47" font-family="Helvetica,sans-Serif" font-size="10.00">K</text>
</a>
</g>
</g>
<!-- Node7&#45;&gt;Node6 -->
<g id="edge6_Node000006_Node000007" class="edge">
<title>Node7&#45;&gt;Node6</title>
<g id="a_edge6_Node000006_Node000007"><a xlink:title=" ">
<path fill="none" stroke="#9a32cd" stroke-dasharray="5,2" d="M76.9,-49.5C105.3,-49.5 153.63,-49.5 191.69,-49.5"/>
<polygon fill="#9a32cd" stroke="#9a32cd" points="76.71,-46 66.71,-49.5 76.71,-53 76.71,-46"/>
</a>
</g>
<text text-anchor="start" x="137" y="-55" font-family="Helvetica,sans-Serif" font-size="10.00" fill="grey">keys</text>
</g>
<!-- Node8 -->
<g id="Node000008" class="node">
<title>Node8</title>
<g id="a_Node000008"><a xlink:title=" ">
<polygon fill="white" stroke="#666666" points="66.5,-19 37.5,-19 37.5,0 66.5,0 66.5,-19"/>
<text text-anchor="middle" x="52" y="-7" font-family="Helvetica,sans-Serif" font-size="10.00">T</text>
</a>
</g>
</g>
<!-- Node8&#45;&gt;Node6 -->
<g id="edge7_Node000006_Node000008" class="edge">
<title>Node8&#45;&gt;Node6</title>
<g id="a_edge7_Node000006_Node000008"><a xlink:title=" ">
<path fill="none" stroke="#9a32cd" stroke-dasharray="5,2" d="M76.67,-12.36C101.18,-15.52 140.5,-21.14 174,-28.5 181.83,-30.22 190.05,-32.28 198.05,-34.44"/>
<polygon fill="#9a32cd" stroke="#9a32cd" points="76.89,-8.86 66.53,-11.08 76.01,-15.8 76.89,-8.86"/>
</a>
</g>
<text text-anchor="start" x="125" y="-34" font-family="Helvetica,sans-Serif" font-size="10.00" fill="grey">elements</text>
</g>
<!-- Node9&#45;&gt;Node2 -->
<g id="edge8_Node000002_Node000009" class="edge">
<title>Node9&#45;&gt;Node2</title>
<g id="a_edge8_Node000002_Node000009"><a xlink:title=" ">
<path fill="none" stroke="orange" stroke-dasharray="5,2" d="M782.22,-47.75C832.96,-52.36 902.07,-58.64 954.82,-63.44"/>
<polygon fill="orange" stroke="orange" points="782.29,-44.24 772.01,-46.82 781.65,-51.21 782.29,-44.24"/>
</a>
</g>
<text text-anchor="start" x="793.5" y="-66" font-family="Helvetica,sans-Serif" font-size="10.00" fill="grey">&lt; ExtSolverMgr, ExtSolver &gt;</text>
</g>
</g>
</svg>

<g id="navigator" transform="translate(0 0)" fill="#404254">
  <rect fill="#f2f5e9" fill-opacity="0.5" stroke="#606060" stroke-width=".5" x="0" y="0" width="60" height="60"/>
  <use id="zoomplus" xlink:href="#zoomPlus" x="17" y="9" onmousedown="handleZoom(evt,'in')"/>
  <use id="zoomminus" xlink:href="#zoomMin" x="42" y="9" onmousedown="handleZoom(evt,'out')"/>
  <use id="reset" xlink:href="#resetDef" x="30" y="36" onmousedown="handleReset()"/>
   <use id="arrowup" xlink:href="#arrowUp" x="0" y="0" onmousedown="handlePan(0,-1)"/>
  <use id="arrowright" xlink:href="#arrowRight" x="0" y="0" onmousedown="handlePan(1,0)"/>
  <use id="arrowdown" xlink:href="#arrowDown" x="0" y="0" onmousedown="handlePan(0,1)"/>
  <use id="arrowleft" xlink:href="#arrowLeft" x="0" y="0" onmousedown="handlePan(-1,0)"/>
</g>
<svg viewBox="0 0 15 15" width="100%" height="30px" preserveAspectRatio="xMaxYMin meet">
 <g id="arrow_out" transform="scale(0.3 0.3)">
  <a xlink:href="classkynema__sgf_1_1_ext_solver_mgr__coll__graph_org.svg" target="_base">
   <rect id="button" ry="5" rx="5" y="6" x="6" height="38" width="38"
        fill="#f2f5e9" fill-opacity="0.5" stroke="#606060" stroke-width="1.0"/>
   <path id="arrow"
     d="M 11.500037,31.436501 C 11.940474,20.09759 22.043105,11.32322 32.158766,21.979434 L 37.068811,17.246167 C 37.068811,17.246167 37.088388,32 37.088388,32 L 22.160133,31.978069 C 22.160133,31.978069 26.997745,27.140456 26.997745,27.140456 C 18.528582,18.264221 13.291696,25.230495 11.500037,31.436501 z"
     style="fill:#404040;"/>
  </a>
 </g>
</svg>

<style type='text/css'>
<![CDATA[
[data-mouse-over-selected='false'] { opacity: 0.7; }
[data-mouse-over-selected='true']  { opacity: 1.0; }
]]>
</style>
<script type="application/ecmascript"><![CDATA[
document.addEventListener('DOMContentLoaded', (event) => {
  highlightEdges();
  highlightAdjacentNodes();
});
]]></script>
</svg>
