<?xml version="1.0" encoding="UTF-8" standalone="no"?>
<!DOCTYPE svg PUBLIC "-//W3C//DTD SVG 1.1//EN"
 "http://www.w3.org/Graphics/SVG/1.1/DTD/svg11.dtd">
<!-- Generated by graphviz version 2.43.0 (0)
 -->
<!-- Title: kynema_sgf::OceanWavesFillInflow Pages: 1 -->
<!--zoomable 479 -->

<svg id="main" version="1.1" xmlns="http://www.w3.org/2000/svg" xmlns:xlink="http://www.w3.org/1999/xlink" xml:space="preserve" onload="init(evt)">

<style type="text/css"><![CDATA[
.node, .edge {opacity: 0.7;}
.node.selected, .edge.selected {opacity: 1;}
.edge:hover path { stroke: red; }
.edge:hover polygon { stroke: red; fill: red; }
]]></style>

<defs>
  <circle id="rim" cx="0" cy="0" r="7"/>
  <circle id="rim2" cx="0" cy="0" r="3.5"/>
  <g id="zoomPlus">
    <use xlink:href="#rim" fill="#404040"><set attributeName="fill" to="#808080" begin="zoomplus.mouseover" end="zoomplus.mouseout"/></use>
    <path d="M-4,0h8M0,-4v8" fill="none" stroke="white" stroke-width="1.5" pointer-events="none"/>
  </g>
  <g id="zoomMin">
    <use xlink:href="#rim" fill="#404040"><set attributeName="fill" to="#808080" begin="zoomminus.mouseover" end="zoomminus.mouseout"/></use>
    <path d="M-4,0h8" fill="none" stroke="white" stroke-width="1.5" pointer-events="none"/>
  </g>
  <g id="arrowUp" transform="translate(30 24)">
    <use xlink:href="#rim"/>
    <path pointer-events="none" fill="none" stroke="white" stroke-width="1.5" d="M0,-3.0v7 M-2.5,-0.5L0,-3.0L2.5,-0.5"/>
  </g>
  <g id="arrowRight" transform="rotate(90) translate(36 -43)">
    <use xlink:href="#rim"/>
    <path pointer-events="none" fill="none" stroke="white" stroke-width="1.5" d="M0,-3.0v7 M-2.5,-0.5L0,-3.0L2.5,-0.5"/>
  </g>
  <g id="arrowDown" transform="rotate(180) translate(-30 -48)">
    <use xlink:href="#rim"/>
    <path pointer-events="none" fill="none" stroke="white" stroke-width="1.5" d="M0,-3.0v7 M-2.5,-0.5L0,-3.0L2.5,-0.5"/>
  </g>
  <g id="arrowLeft" transform="rotate(270) translate(-36 17)">
    <use xlink:href="#rim"/>
    <path pointer-events="none" fill="none" stroke="white" stroke-width="1.5" d="M0,-3.0v7 M-2.5,-0.5L0,-3.0L2.5,-0.5"/>
  </g>
  <g id="resetDef">
    <use xlink:href="#rim2" fill="#404040"><set attributeName="fill" to="#808080" begin="reset.mouseover" end="reset.mouseout"/></use>
  </g>
</defs>
<script type="application/ecmascript">
var viewWidth = 2592;
var viewHeight = 479;
var sectionId = 'dynsection-1';
</script>
<script type="application/ecmascript" xlink:href="svg.min.js"/>
<svg id="graph" class="graph">
<g id="viewport">
<title>kynema_sgf::OceanWavesFillInflow</title>
<!-- Node1 -->
<g id="Node000001" class="node">
<title>Node1</title>
<g id="a_Node000001"><a xlink:title=" ">
<polygon fill="#999999" stroke="#666666" points="2584,-308 2426,-308 2426,-278 2584,-278 2584,-308"/>
<text text-anchor="start" x="2434" y="-296" font-family="Helvetica,sans-Serif" font-size="10.00">kynema_sgf::OceanWavesFill</text>
<text text-anchor="middle" x="2505" y="-285" font-family="Helvetica,sans-Serif" font-size="10.00">Inflow</text>
</a>
</g>
</g>
<!-- Node2 -->
<g id="Node000002" class="node">
<title>Node2</title>
<g id="a_Node000002"><a xlink:href="classkynema__sgf_1_1_field_fill_patch_ops.html" target="_top" xlink:title=" ">
<polygon fill="white" stroke="#666666" points="2389,-235 2244,-235 2244,-205 2389,-205 2389,-235"/>
<text text-anchor="start" x="2252" y="-223" font-family="Helvetica,sans-Serif" font-size="10.00">kynema_sgf::FieldFillPatch</text>
<text text-anchor="middle" x="2316.5" y="-212" font-family="Helvetica,sans-Serif" font-size="10.00">Ops&lt; FieldBCDirichlet &gt;</text>
</a>
</g>
</g>
<!-- Node2&#45;&gt;Node1 -->
<g id="edge1_Node000001_Node000002" class="edge">
<title>Node2&#45;&gt;Node1</title>
<g id="a_edge1_Node000001_Node000002"><a xlink:title=" ">
<path fill="none" stroke="#63b8ff" d="M2365.47,-238.78C2396.52,-250.93 2436.41,-266.54 2465.41,-277.89"/>
<polygon fill="#63b8ff" stroke="#63b8ff" points="2366.73,-235.51 2356.14,-235.13 2364.18,-242.03 2366.73,-235.51"/>
</a>
</g>
</g>
<!-- Node3 -->
<g id="Node000003" class="node">
<title>Node3</title>
<g id="a_Node000003"><a xlink:href="classkynema__sgf_1_1_field_fill_patch_ops_base.html" target="_top" xlink:title=" ">
<polygon fill="white" stroke="#666666" points="230,-53 85,-53 85,-23 230,-23 230,-53"/>
<text text-anchor="start" x="93" y="-41" font-family="Helvetica,sans-Serif" font-size="10.00">kynema_sgf::FieldFillPatch</text>
<text text-anchor="middle" x="157.5" y="-30" font-family="Helvetica,sans-Serif" font-size="10.00">OpsBase</text>
</a>
</g>
</g>
<!-- Node3&#45;&gt;Node2 -->
<g id="edge2_Node000002_Node000003" class="edge">
<title>Node3&#45;&gt;Node2</title>
<g id="a_edge2_Node000002_Node000003"><a xlink:title=" ">
<path fill="none" stroke="#63b8ff" d="M240.32,-23.4C307.44,-12.68 405.06,0 491,0 491,0 491,0 2029.5,0 2164.18,0 2274.37,-155.17 2306.21,-204.88"/>
<polygon fill="#63b8ff" stroke="#63b8ff" points="239.54,-19.98 230.23,-25.03 240.66,-26.89 239.54,-19.98"/>
</a>
</g>
</g>
<!-- Node17 -->
<g id="Node000017" class="node">
<title>Node17</title>
<g id="a_Node000017"><a xlink:title=" ">
<polygon fill="white" stroke="#666666" points="572,-242 412,-242 412,-212 572,-212 572,-242"/>
<text text-anchor="start" x="420" y="-230" font-family="Helvetica,sans-Serif" font-size="10.00">std::unique_ptr&lt; kynema</text>
<text text-anchor="middle" x="492" y="-219" font-family="Helvetica,sans-Serif" font-size="10.00">_sgf::FieldFillPatchOpsBase &gt;</text>
</a>
</g>
</g>
<!-- Node3&#45;&gt;Node17 -->
<g id="edge20_Node000017_Node000003" class="edge">
<title>Node3&#45;&gt;Node17</title>
<g id="a_edge20_Node000017_Node000003"><a xlink:title=" ">
<path fill="none" stroke="#9a32cd" stroke-dasharray="5,2" d="M205.45,-56.94C254.14,-77.4 331.71,-112.29 394,-151 423.8,-169.52 455.23,-195.5 473.97,-211.78"/>
<polygon fill="#9a32cd" stroke="#9a32cd" points="206.69,-53.67 196.11,-53.05 203.99,-60.13 206.69,-53.67"/>
</a>
</g>
<text text-anchor="start" x="314" y="-156.5" font-family="Helvetica,sans-Serif" font-size="10.00" fill="grey">ptr</text>
</g>
<!-- Node21 -->
<g id="Node000021" class="node">
<title>Node21</title>
<g id="a_Node000021"><a xlink:href="classkynema__sgf_1_1_field_fill_patch_ops.html" target="_top" xlink:title=" ">
<polygon fill="white" stroke="#666666" points="2101,-187 1956,-187 1956,-157 2101,-157 2101,-187"/>
<text text-anchor="start" x="1964" y="-175" font-family="Helvetica,sans-Serif" font-size="10.00">kynema_sgf::FieldFillPatch</text>
<text text-anchor="middle" x="2028.5" y="-164" font-family="Helvetica,sans-Serif" font-size="10.00">Ops&lt; BCOpCreator &gt;</text>
</a>
</g>
</g>
<!-- Node3&#45;&gt;Node21 -->
<g id="edge28_Node000021_Node000003" class="edge">
<title>Node3&#45;&gt;Node21</title>
<g id="a_edge28_Node000021_Node000003"><a xlink:title=" ">
<path fill="none" stroke="#63b8ff" d="M240.29,-38C307.59,-38 405.48,-38 491,-38 491,-38 491,-38 1500.5,-38 1599.8,-38 1843.94,-97.15 1938,-129 1959.72,-136.35 1983.03,-147.67 2000.41,-156.85"/>
<polygon fill="#63b8ff" stroke="#63b8ff" points="240.17,-34.5 230.17,-38 240.17,-41.5 240.17,-34.5"/>
</a>
</g>
</g>
<!-- Node4 -->
<g id="Node000004" class="node">
<title>Node4</title>
<g id="a_Node000004"><a xlink:href="classkynema__sgf_1_1_sim_time.html" target="_top" xlink:title=" ">
<polygon fill="white" stroke="#666666" points="1394,-131.5 1269,-131.5 1269,-112.5 1394,-112.5 1394,-131.5"/>
<text text-anchor="middle" x="1331.5" y="-119.5" font-family="Helvetica,sans-Serif" font-size="10.00">kynema_sgf::SimTime</text>
</a>
</g>
</g>
<!-- Node4&#45;&gt;Node2 -->
<g id="edge3_Node000002_Node000004" class="edge">
<title>Node4&#45;&gt;Node2</title>
<g id="a_edge3_Node000002_Node000004"><a xlink:title=" ">
<path fill="none" stroke="#9a32cd" stroke-dasharray="5,2" d="M1404.44,-118.54C1418.55,-117.96 1433.24,-117.4 1447,-117 1665.14,-110.6 1721.05,-88.33 1938,-112 2011.75,-120.05 2029.03,-129.99 2101,-148 2156.97,-162 2171.47,-164.17 2226,-183 2244.75,-189.48 2265.23,-197.84 2281.87,-204.98"/>
<polygon fill="#9a32cd" stroke="#9a32cd" points="1404.13,-115.05 1394.29,-118.98 1404.43,-122.05 1404.13,-115.05"/>
</a>
</g>
<text text-anchor="start" x="1839.5" y="-117.5" font-family="Helvetica,sans-Serif" font-size="10.00" fill="grey">m_time</text>
</g>
<!-- Node4&#45;&gt;Node21 -->
<g id="edge29_Node000021_Node000004" class="edge">
<title>Node4&#45;&gt;Node21</title>
<g id="a_edge29_Node000021_Node000004"><a xlink:title=" ">
<path fill="none" stroke="#9a32cd" stroke-dasharray="5,2" d="M1404.1,-120.63C1489.31,-119.67 1635.81,-120.1 1761,-131 1827.46,-136.78 1902.5,-148.83 1955.98,-158.38"/>
<polygon fill="#9a32cd" stroke="#9a32cd" points="1403.97,-117.13 1394.02,-120.76 1404.06,-124.13 1403.97,-117.13"/>
</a>
</g>
<text text-anchor="start" x="1646.5" y="-136.5" font-family="Helvetica,sans-Serif" font-size="10.00" fill="grey">m_time</text>
</g>
<!-- Node23 -->
<g id="Node000023" class="node">
<title>Node23</title>
<g id="a_Node000023"><a xlink:href="classkynema__sgf_1_1_ocean_waves_boundary.html" target="_top" xlink:title=" ">
<polygon fill="white" stroke="#666666" points="1761,-392.5 1570,-392.5 1570,-373.5 1761,-373.5 1761,-392.5"/>
<text text-anchor="middle" x="1665.5" y="-380.5" font-family="Helvetica,sans-Serif" font-size="10.00">kynema_sgf::OceanWavesBoundary</text>
</a>
</g>
</g>
<!-- Node4&#45;&gt;Node23 -->
<g id="edge35_Node000023_Node000004" class="edge">
<title>Node4&#45;&gt;Node23</title>
<g id="a_edge35_Node000023_Node000004"><a xlink:title=" ">
<path fill="none" stroke="#9a32cd" stroke-dasharray="5,2" d="M1355.74,-137.22C1411.98,-174.06 1550.88,-265.07 1552,-266 1594.93,-301.64 1638.75,-352.14 1656.4,-373.19"/>
<polygon fill="#9a32cd" stroke="#9a32cd" points="1357.44,-134.15 1347.15,-131.6 1353.6,-140.01 1357.44,-134.15"/>
</a>
</g>
<text text-anchor="start" x="1480.5" y="-271.5" font-family="Helvetica,sans-Serif" font-size="10.00" fill="grey">m_time</text>
</g>
<!-- Node5 -->
<g id="Node000005" class="node">
<title>Node5</title>
<g id="a_Node000005"><a xlink:title=" ">
<polygon fill="white" stroke="#666666" points="997,-131.5 885,-131.5 885,-112.5 997,-112.5 997,-131.5"/>
<text text-anchor="middle" x="941" y="-119.5" font-family="Helvetica,sans-Serif" font-size="10.00">std::vector&lt; bool &gt;</text>
</a>
</g>
</g>
<!-- Node5&#45;&gt;Node4 -->
<g id="edge4_Node000004_Node000005" class="edge">
<title>Node5&#45;&gt;Node4</title>
<g id="a_edge4_Node000004_Node000005"><a xlink:title=" ">
<path fill="none" stroke="#9a32cd" stroke-dasharray="5,2" d="M1007.68,-122C1080.6,-122 1197.39,-122 1268.7,-122"/>
<polygon fill="#9a32cd" stroke="#9a32cd" points="1007.25,-118.5 997.25,-122 1007.25,-125.5 1007.25,-118.5"/>
</a>
</g>
<text text-anchor="start" x="1020" y="-127.5" font-family="Helvetica,sans-Serif" font-size="10.00" fill="grey">m_postprocess_enforce_dt</text>
</g>
<!-- Node6 -->
<g id="Node000006" class="node">
<title>Node6</title>
<g id="a_Node000006"><a xlink:title=" ">
<polygon fill="white" stroke="#666666" points="706.5,-131.5 609.5,-131.5 609.5,-112.5 706.5,-112.5 706.5,-131.5"/>
<text text-anchor="middle" x="658" y="-119.5" font-family="Helvetica,sans-Serif" font-size="10.00">std::vector&lt; T &gt;</text>
</a>
</g>
</g>
<!-- Node6&#45;&gt;Node5 -->
<g id="edge5_Node000005_Node000006" class="edge">
<title>Node6&#45;&gt;Node5</title>
<g id="a_edge5_Node000005_Node000006"><a xlink:title=" ">
<path fill="none" stroke="orange" stroke-dasharray="5,2" d="M716.84,-122C766.1,-122 836.39,-122 884.86,-122"/>
<polygon fill="orange" stroke="orange" points="716.67,-118.5 706.67,-122 716.67,-125.5 716.67,-118.5"/>
</a>
</g>
<text text-anchor="start" x="783.5" y="-127.5" font-family="Helvetica,sans-Serif" font-size="10.00" fill="grey">&lt; bool &gt;</text>
</g>
<!-- Node7 -->
<g id="Node000007" class="node">
<title>Node7</title>
<g id="a_Node000007"><a xlink:title=" ">
<polygon fill="white" stroke="#666666" points="29,-216.5 0,-216.5 0,-197.5 29,-197.5 29,-216.5"/>
<text text-anchor="middle" x="14.5" y="-204.5" font-family="Helvetica,sans-Serif" font-size="10.00">T</text>
</a>
</g>
</g>
<!-- Node7&#45;&gt;Node6 -->
<g id="edge6_Node000006_Node000007" class="edge">
<title>Node7&#45;&gt;Node6</title>
<g id="a_edge6_Node000006_Node000007"><a xlink:title=" ">
<path fill="none" stroke="#9a32cd" stroke-dasharray="5,2" d="M32.11,-190.34C45.26,-178.28 64.73,-162.79 85,-155 268.15,-84.62 508.65,-103.1 609.39,-115.3"/>
<polygon fill="#9a32cd" stroke="#9a32cd" points="29.62,-187.88 24.79,-197.31 34.45,-192.95 29.62,-187.88"/>
</a>
</g>
<text text-anchor="start" x="134.5" y="-160.5" font-family="Helvetica,sans-Serif" font-size="10.00" fill="grey">elements</text>
</g>
<!-- Node13 -->
<g id="Node000013" class="node">
<title>Node13</title>
<g id="a_Node000013"><a xlink:title=" ">
<polygon fill="white" stroke="#666666" points="549,-385 435,-385 435,-355 549,-355 549,-385"/>
<text text-anchor="start" x="443" y="-373" font-family="Helvetica,sans-Serif" font-size="10.00">std::unordered_map</text>
<text text-anchor="middle" x="492" y="-362" font-family="Helvetica,sans-Serif" font-size="10.00">&lt; K, T &gt;</text>
</a>
</g>
</g>
<!-- Node7&#45;&gt;Node13 -->
<g id="edge14_Node000013_Node000007" class="edge">
<title>Node7&#45;&gt;Node13</title>
<g id="a_edge14_Node000013_Node000007"><a xlink:title=" ">
<path fill="none" stroke="#9a32cd" stroke-dasharray="5,2" d="M24.25,-225.79C35.26,-247.19 56.25,-281.43 85,-299 114.46,-317 330.26,-348.21 434.69,-362.49"/>
<polygon fill="#9a32cd" stroke="#9a32cd" points="27.34,-224.14 19.78,-216.71 21.06,-227.23 27.34,-224.14"/>
</a>
</g>
<text text-anchor="start" x="134.5" y="-336.5" font-family="Helvetica,sans-Serif" font-size="10.00" fill="grey">elements</text>
</g>
<!-- Node18 -->
<g id="Node000018" class="node">
<title>Node18</title>
<g id="a_Node000018"><a xlink:title=" ">
<polygon fill="white" stroke="#666666" points="216.5,-236.5 98.5,-236.5 98.5,-217.5 216.5,-217.5 216.5,-236.5"/>
<text text-anchor="middle" x="157.5" y="-224.5" font-family="Helvetica,sans-Serif" font-size="10.00">std::unique_ptr&lt; T &gt;</text>
</a>
</g>
</g>
<!-- Node7&#45;&gt;Node18 -->
<g id="edge22_Node000018_Node000007" class="edge">
<title>Node7&#45;&gt;Node18</title>
<g id="a_edge22_Node000018_Node000007"><a xlink:title=" ">
<path fill="none" stroke="#9a32cd" stroke-dasharray="5,2" d="M39.2,-210.36C55.44,-212.67 77.72,-215.83 98.5,-218.77"/>
<polygon fill="#9a32cd" stroke="#9a32cd" points="39.41,-206.86 29.02,-208.92 38.43,-213.79 39.41,-206.86"/>
</a>
</g>
<text text-anchor="start" x="50" y="-219.5" font-family="Helvetica,sans-Serif" font-size="10.00" fill="grey">ptr</text>
</g>
<!-- Node19 -->
<g id="Node000019" class="node">
<title>Node19</title>
<g id="a_Node000019"><a xlink:title=" ">
<polygon fill="white" stroke="#666666" points="380,-196.5 262,-196.5 262,-177.5 380,-177.5 380,-196.5"/>
<text text-anchor="middle" x="321" y="-184.5" font-family="Helvetica,sans-Serif" font-size="10.00">std::shared_ptr&lt; T &gt;</text>
</a>
</g>
</g>
<!-- Node7&#45;&gt;Node19 -->
<g id="edge24_Node000019_Node000007" class="edge">
<title>Node7&#45;&gt;Node19</title>
<g id="a_edge24_Node000019_Node000007"><a xlink:title=" ">
<path fill="none" stroke="#9a32cd" stroke-dasharray="5,2" d="M37.95,-193.23C40.91,-191.92 43.97,-190.78 47,-190 119.28,-171.32 205.95,-174.49 261.95,-179.69"/>
<polygon fill="#9a32cd" stroke="#9a32cd" points="36.29,-190.15 29.01,-197.85 39.5,-196.37 36.29,-190.15"/>
</a>
</g>
<text text-anchor="start" x="50" y="-195.5" font-family="Helvetica,sans-Serif" font-size="10.00" fill="grey">ptr</text>
</g>
<!-- Node8 -->
<g id="Node000008" class="node">
<title>Node8</title>
<g id="a_Node000008"><a xlink:href="classkynema__sgf_1_1_field.html" target="_top" xlink:title=" ">
<polygon fill="white" stroke="#666666" points="1383.5,-293.5 1279.5,-293.5 1279.5,-274.5 1383.5,-274.5 1383.5,-293.5"/>
<text text-anchor="middle" x="1331.5" y="-281.5" font-family="Helvetica,sans-Serif" font-size="10.00">kynema_sgf::Field</text>
</a>
</g>
</g>
<!-- Node8&#45;&gt;Node2 -->
<g id="edge7_Node000002_Node000008" class="edge">
<title>Node8&#45;&gt;Node2</title>
<g id="a_edge7_Node000002_Node000008"><a xlink:title=" ">
<path fill="none" stroke="#9a32cd" stroke-dasharray="5,2" d="M1393.83,-280.01C1566.89,-268.74 2058.53,-236.73 2243.74,-224.67"/>
<polygon fill="#9a32cd" stroke="#9a32cd" points="1393.37,-276.53 1383.62,-280.67 1393.83,-283.51 1393.37,-276.53"/>
</a>
</g>
<text text-anchor="start" x="1840.5" y="-259.5" font-family="Helvetica,sans-Serif" font-size="10.00" fill="grey">m_field</text>
</g>
<!-- Node20 -->
<g id="Node000020" class="node">
<title>Node20</title>
<g id="a_Node000020"><a xlink:href="structkynema__sgf_1_1_field_b_c_dirichlet.html" target="_top" xlink:title=" ">
<polygon fill="white" stroke="#666666" points="1938,-319.5 1779,-319.5 1779,-300.5 1938,-300.5 1938,-319.5"/>
<text text-anchor="middle" x="1858.5" y="-307.5" font-family="Helvetica,sans-Serif" font-size="10.00">kynema_sgf::FieldBCDirichlet</text>
</a>
</g>
</g>
<!-- Node8&#45;&gt;Node20 -->
<g id="edge26_Node000020_Node000008" class="edge">
<title>Node8&#45;&gt;Node20</title>
<g id="a_edge26_Node000020_Node000008"><a xlink:title=" ">
<path fill="none" stroke="#9a32cd" stroke-dasharray="5,2" d="M1393.88,-287.04C1489.44,-291.77 1673.7,-300.9 1778.87,-306.11"/>
<polygon fill="#9a32cd" stroke="#9a32cd" points="1393.96,-283.54 1383.8,-286.54 1393.61,-290.53 1393.96,-283.54"/>
</a>
</g>
<text text-anchor="start" x="1481.5" y="-299.5" font-family="Helvetica,sans-Serif" font-size="10.00" fill="grey">m_field</text>
</g>
<!-- Node8&#45;&gt;Node21 -->
<g id="edge30_Node000021_Node000008" class="edge">
<title>Node8&#45;&gt;Node21</title>
<g id="a_edge30_Node000021_Node000008"><a xlink:title=" ">
<path fill="none" stroke="#9a32cd" stroke-dasharray="5,2" d="M1353.66,-268.54C1375.73,-253.37 1411.93,-231.08 1447,-221 1552.03,-190.8 1829.84,-208.65 1938,-193 1948.43,-191.49 1959.42,-189.36 1970.01,-187.04"/>
<polygon fill="#9a32cd" stroke="#9a32cd" points="1351.56,-265.74 1345.39,-274.35 1355.58,-271.47 1351.56,-265.74"/>
</a>
</g>
<text text-anchor="start" x="1647.5" y="-209.5" font-family="Helvetica,sans-Serif" font-size="10.00" fill="grey">m_field</text>
</g>
<!-- Node22 -->
<g id="Node000022" class="node">
<title>Node22</title>
<g id="a_Node000022"><a xlink:href="structkynema__sgf_1_1_b_c_op_creator.html" target="_top" xlink:title=" ">
<polygon fill="white" stroke="#666666" points="1737.5,-187 1593.5,-187 1593.5,-157 1737.5,-157 1737.5,-187"/>
<text text-anchor="start" x="1601.5" y="-175" font-family="Helvetica,sans-Serif" font-size="10.00">kynema_sgf::BCOpCreator</text>
<text text-anchor="middle" x="1665.5" y="-164" font-family="Helvetica,sans-Serif" font-size="10.00">&lt; InflowOp, WallOp &gt;</text>
</a>
</g>
</g>
<!-- Node8&#45;&gt;Node22 -->
<g id="edge32_Node000022_Node000008" class="edge">
<title>Node8&#45;&gt;Node22</title>
<g id="a_edge32_Node000022_Node000008"><a xlink:title=" ">
<path fill="none" stroke="#9a32cd" stroke-dasharray="5,2" d="M1344.77,-265.97C1363.39,-240.38 1401.48,-194.57 1447,-176 1493.16,-157.17 1549.54,-156.7 1593.34,-160.65"/>
<polygon fill="#9a32cd" stroke="#9a32cd" points="1341.73,-264.21 1338.81,-274.39 1347.44,-268.25 1341.73,-264.21"/>
</a>
</g>
<text text-anchor="start" x="1481.5" y="-181.5" font-family="Helvetica,sans-Serif" font-size="10.00" fill="grey">m_field</text>
</g>
<!-- Node8&#45;&gt;Node23 -->
<g id="edge37_Node000023_Node000008" class="edge">
<title>Node8&#45;&gt;Node23</title>
<g id="a_edge37_Node000023_Node000008"><a xlink:title=" ">
<path fill="none" stroke="#9a32cd" stroke-dasharray="5,2" d="M1366.66,-297.13C1389.21,-305.43 1419.55,-315.88 1447,-323 1492.91,-334.9 1506.22,-329.61 1552,-342 1583.7,-350.58 1619.13,-364.19 1641.6,-373.35"/>
<polygon fill="#9a32cd" stroke="#9a32cd" points="1367.78,-293.82 1357.19,-293.61 1365.34,-300.38 1367.78,-293.82"/>
</a>
</g>
<text text-anchor="start" x="1462.5" y="-363" font-family="Helvetica,sans-Serif" font-size="10.00" fill="grey">m_ow_velocity</text>
<text text-anchor="start" x="1462.5" y="-348" font-family="Helvetica,sans-Serif" font-size="10.00" fill="grey">m_ow_vof</text>
</g>
<!-- Node9 -->
<g id="Node000009" class="node">
<title>Node9</title>
<g id="a_Node000009"><a xlink:href="classkynema__sgf_1_1_field_repo.html" target="_top" xlink:title=" ">
<polygon fill="white" stroke="#666666" points="1149.5,-381.5 1020.5,-381.5 1020.5,-362.5 1149.5,-362.5 1149.5,-381.5"/>
<text text-anchor="middle" x="1085" y="-369.5" font-family="Helvetica,sans-Serif" font-size="10.00">kynema_sgf::FieldRepo</text>
</a>
</g>
</g>
<!-- Node9&#45;&gt;Node8 -->
<g id="edge8_Node000008_Node000009" class="edge">
<title>Node9&#45;&gt;Node8</title>
<g id="a_edge8_Node000008_Node000009"><a xlink:title=" ">
<path fill="none" stroke="#9a32cd" stroke-dasharray="5,2" d="M1122.32,-358.93C1171.99,-341.05 1259.92,-309.4 1303.9,-293.57"/>
<polygon fill="#9a32cd" stroke="#9a32cd" points="1120.86,-355.74 1112.63,-362.41 1123.23,-362.32 1120.86,-355.74"/>
</a>
</g>
<text text-anchor="start" x="1176.5" y="-343.5" font-family="Helvetica,sans-Serif" font-size="10.00" fill="grey">m_repo</text>
</g>
<!-- Node9&#45;&gt;Node23 -->
<g id="edge36_Node000023_Node000009" class="edge">
<title>Node9&#45;&gt;Node23</title>
<g id="a_edge36_Node000023_Node000009"><a xlink:title=" ">
<path fill="none" stroke="#9a32cd" stroke-dasharray="5,2" d="M1110.54,-386.58C1139.06,-402.61 1188.1,-427.37 1234,-437 1372.4,-466.05 1414.21,-457.85 1552,-426 1585.41,-418.28 1622.18,-402.8 1644.3,-392.68"/>
<polygon fill="#9a32cd" stroke="#9a32cd" points="1112.1,-383.45 1101.69,-381.52 1108.63,-389.52 1112.1,-383.45"/>
</a>
</g>
<text text-anchor="start" x="1313.5" y="-459.5" font-family="Helvetica,sans-Serif" font-size="10.00" fill="grey">m_repo</text>
</g>
<!-- Node25 -->
<g id="Node000025" class="node">
<title>Node25</title>
<g id="a_Node000025"><a xlink:href="classkynema__sgf_1_1_int_field.html" target="_top" xlink:title=" ">
<polygon fill="white" stroke="#666666" points="1390,-427.5 1273,-427.5 1273,-408.5 1390,-408.5 1390,-427.5"/>
<text text-anchor="middle" x="1331.5" y="-415.5" font-family="Helvetica,sans-Serif" font-size="10.00">kynema_sgf::IntField</text>
</a>
</g>
</g>
<!-- Node9&#45;&gt;Node25 -->
<g id="edge39_Node000025_Node000009" class="edge">
<title>Node9&#45;&gt;Node25</title>
<g id="a_edge39_Node000025_Node000009"><a xlink:title=" ">
<path fill="none" stroke="#9a32cd" stroke-dasharray="5,2" d="M1159.56,-374.39C1178.37,-376.64 1198.28,-380.5 1216,-387 1225.03,-390.31 1225.11,-395.33 1234,-399 1246.15,-404.01 1259.73,-407.73 1272.77,-410.48"/>
<polygon fill="#9a32cd" stroke="#9a32cd" points="1159.86,-370.9 1149.54,-373.33 1159.12,-377.87 1159.86,-370.9"/>
</a>
</g>
<text text-anchor="start" x="1176.5" y="-392.5" font-family="Helvetica,sans-Serif" font-size="10.00" fill="grey">m_repo</text>
</g>
<!-- Node10 -->
<g id="Node000010" class="node">
<title>Node10</title>
<g id="a_Node000010"><a xlink:title=" ">
<polygon fill="white" stroke="#666666" points="866.5,-378 744.5,-378 744.5,-348 866.5,-348 866.5,-378"/>
<text text-anchor="start" x="752.5" y="-366" font-family="Helvetica,sans-Serif" font-size="10.00">std::unordered_map</text>
<text text-anchor="middle" x="805.5" y="-355" font-family="Helvetica,sans-Serif" font-size="10.00">&lt; std::string, size_t &gt;</text>
</a>
</g>
</g>
<!-- Node10&#45;&gt;Node9 -->
<g id="edge9_Node000009_Node000010" class="edge">
<title>Node10&#45;&gt;Node9</title>
<g id="a_edge9_Node000009_Node000010"><a xlink:title=" ">
<path fill="none" stroke="#9a32cd" stroke-dasharray="5,2" d="M876.98,-361.92C912.92,-361.74 957.31,-362.07 997,-364 1004.58,-364.37 1012.51,-364.9 1020.37,-365.51"/>
<polygon fill="#9a32cd" stroke="#9a32cd" points="876.57,-358.42 866.59,-361.99 876.62,-365.42 876.57,-358.42"/>
</a>
</g>
<text text-anchor="start" x="905" y="-385" font-family="Helvetica,sans-Serif" font-size="10.00" fill="grey">m_fid_map</text>
<text text-anchor="start" x="905" y="-370" font-family="Helvetica,sans-Serif" font-size="10.00" fill="grey">m_int_fid_map</text>
</g>
<!-- Node11 -->
<g id="Node000011" class="node">
<title>Node11</title>
<g id="a_Node000011"><a xlink:title=" ">
<polygon fill="white" stroke="#666666" points="524.5,-306.5 459.5,-306.5 459.5,-287.5 524.5,-287.5 524.5,-306.5"/>
<text text-anchor="middle" x="492" y="-294.5" font-family="Helvetica,sans-Serif" font-size="10.00">std::string</text>
</a>
</g>
</g>
<!-- Node11&#45;&gt;Node8 -->
<g id="edge15_Node000008_Node000011" class="edge">
<title>Node11&#45;&gt;Node8</title>
<g id="a_edge15_Node000008_Node000011"><a xlink:title=" ">
<path fill="none" stroke="#9a32cd" stroke-dasharray="5,2" d="M534.85,-296.35C674.81,-294.18 1126.33,-287.17 1279.29,-284.79"/>
<polygon fill="#9a32cd" stroke="#9a32cd" points="534.5,-292.86 524.55,-296.51 534.61,-299.85 534.5,-292.86"/>
</a>
</g>
<text text-anchor="start" x="920" y="-295.5" font-family="Helvetica,sans-Serif" font-size="10.00" fill="grey">m_name</text>
</g>
<!-- Node11&#45;&gt;Node10 -->
<g id="edge10_Node000010_Node000011" class="edge">
<title>Node11&#45;&gt;Node10</title>
<g id="a_edge10_Node000010_Node000011"><a xlink:title=" ">
<path fill="none" stroke="#9a32cd" stroke-dasharray="5,2" d="M534.83,-304.55C581.57,-313.15 659.44,-327.96 726,-343 732.72,-344.52 739.75,-346.19 746.71,-347.9"/>
<polygon fill="#9a32cd" stroke="#9a32cd" points="535.24,-301.06 524.77,-302.7 533.98,-307.95 535.24,-301.06"/>
</a>
</g>
<text text-anchor="start" x="647" y="-348.5" font-family="Helvetica,sans-Serif" font-size="10.00" fill="grey">keys</text>
</g>
<!-- Node16 -->
<g id="Node000016" class="node">
<title>Node16</title>
<g id="a_Node000016"><a xlink:href="structkynema__sgf_1_1_field_info.html" target="_top" xlink:title=" ">
<polygon fill="white" stroke="#666666" points="867,-248.5 744,-248.5 744,-229.5 867,-229.5 867,-248.5"/>
<text text-anchor="middle" x="805.5" y="-236.5" font-family="Helvetica,sans-Serif" font-size="10.00">kynema_sgf::FieldInfo</text>
</a>
</g>
</g>
<!-- Node11&#45;&gt;Node16 -->
<g id="edge18_Node000016_Node000011" class="edge">
<title>Node11&#45;&gt;Node16</title>
<g id="a_edge18_Node000016_Node000011"><a xlink:title=" ">
<path fill="none" stroke="#9a32cd" stroke-dasharray="5,2" d="M528.2,-284.02C546.43,-277.75 569.17,-270.6 590,-266 641.31,-254.67 700.65,-247.66 743.89,-243.63"/>
<polygon fill="#9a32cd" stroke="#9a32cd" points="526.86,-280.78 518.58,-287.4 529.18,-287.39 526.86,-280.78"/>
</a>
</g>
<text text-anchor="start" x="625" y="-271.5" font-family="Helvetica,sans-Serif" font-size="10.00" fill="grey">m_basename</text>
</g>
<!-- Node11&#45;&gt;Node25 -->
<g id="edge40_Node000025_Node000011" class="edge">
<title>Node11&#45;&gt;Node25</title>
<g id="a_edge40_Node000025_Node000011"><a xlink:title=" ">
<path fill="none" stroke="#9a32cd" stroke-dasharray="5,2" d="M525.03,-311.11C540.86,-319.4 559.24,-331.17 572,-346 585.24,-361.4 573.28,-376.48 590,-388 700,-463.77 1118.66,-436.37 1272.95,-423.31"/>
<polygon fill="#9a32cd" stroke="#9a32cd" points="526.58,-307.97 516.07,-306.64 523.46,-314.24 526.58,-307.97"/>
</a>
</g>
<text text-anchor="start" x="920" y="-444.5" font-family="Helvetica,sans-Serif" font-size="10.00" fill="grey">m_name</text>
</g>
<!-- Node12 -->
<g id="Node000012" class="node">
<title>Node12</title>
<g id="a_Node000012"><a xlink:title=" ">
<polygon fill="white" stroke="#666666" points="209.5,-290 105.5,-290 105.5,-260 209.5,-260 209.5,-290"/>
<text text-anchor="start" x="113.5" y="-278" font-family="Helvetica,sans-Serif" font-size="10.00">std::basic_string&lt;</text>
<text text-anchor="middle" x="157.5" y="-267" font-family="Helvetica,sans-Serif" font-size="10.00"> Char &gt;</text>
</a>
</g>
</g>
<!-- Node12&#45;&gt;Node11 -->
<g id="edge11_Node000011_Node000012" class="edge">
<title>Node12&#45;&gt;Node11</title>
<g id="a_edge11_Node000011_Node000012"><a xlink:title=" ">
<path fill="none" stroke="#63b8ff" d="M219.85,-279.06C290.64,-283.74 404.34,-291.27 459.27,-294.9"/>
<polygon fill="#63b8ff" stroke="#63b8ff" points="219.93,-275.56 209.72,-278.39 219.47,-282.54 219.93,-275.56"/>
</a>
</g>
</g>
<!-- Node13&#45;&gt;Node10 -->
<g id="edge12_Node000010_Node000013" class="edge">
<title>Node13&#45;&gt;Node10</title>
<g id="a_edge12_Node000010_Node000013"><a xlink:title=" ">
<path fill="none" stroke="orange" stroke-dasharray="5,2" d="M559.36,-368.51C614.19,-367.28 691.35,-365.54 744.38,-364.35"/>
<polygon fill="orange" stroke="orange" points="558.97,-365.02 549.05,-368.74 559.13,-372.01 558.97,-365.02"/>
</a>
</g>
<text text-anchor="start" x="605" y="-372.5" font-family="Helvetica,sans-Serif" font-size="10.00" fill="grey">&lt; std::string, size_t &gt;</text>
</g>
<!-- Node14 -->
<g id="Node000014" class="node">
<title>Node14</title>
<g id="a_Node000014"><a xlink:title=" ">
<polygon fill="white" stroke="#666666" points="172,-380.5 143,-380.5 143,-361.5 172,-361.5 172,-380.5"/>
<text text-anchor="middle" x="157.5" y="-368.5" font-family="Helvetica,sans-Serif" font-size="10.00">K</text>
</a>
</g>
</g>
<!-- Node14&#45;&gt;Node13 -->
<g id="edge13_Node000013_Node000014" class="edge">
<title>Node14&#45;&gt;Node13</title>
<g id="a_edge13_Node000013_Node000014"><a xlink:title=" ">
<path fill="none" stroke="#9a32cd" stroke-dasharray="5,2" d="M182.38,-370.93C234.77,-370.77 361.02,-370.39 434.8,-370.17"/>
<polygon fill="#9a32cd" stroke="#9a32cd" points="182.35,-367.43 172.36,-370.96 182.37,-374.43 182.35,-367.43"/>
</a>
</g>
<text text-anchor="start" x="310" y="-375.5" font-family="Helvetica,sans-Serif" font-size="10.00" fill="grey">keys</text>
</g>
<!-- Node15 -->
<g id="Node000015" class="node">
<title>Node15</title>
<g id="a_Node000015"><a xlink:title=" ">
<polygon fill="white" stroke="#666666" points="1155,-254 1015,-254 1015,-224 1155,-224 1155,-254"/>
<text text-anchor="start" x="1023" y="-242" font-family="Helvetica,sans-Serif" font-size="10.00">std::shared_ptr&lt; kynema</text>
<text text-anchor="middle" x="1085" y="-231" font-family="Helvetica,sans-Serif" font-size="10.00">_sgf::FieldInfo &gt;</text>
</a>
</g>
</g>
<!-- Node15&#45;&gt;Node8 -->
<g id="edge16_Node000008_Node000015" class="edge">
<title>Node15&#45;&gt;Node8</title>
<g id="a_edge16_Node000008_Node000015"><a xlink:title=" ">
<path fill="none" stroke="#9a32cd" stroke-dasharray="5,2" d="M1164.99,-253.54C1202.54,-260.45 1246.34,-268.51 1279.44,-274.6"/>
<polygon fill="#9a32cd" stroke="#9a32cd" points="1165.55,-250.08 1155.08,-251.71 1164.28,-256.97 1165.55,-250.08"/>
</a>
</g>
<text text-anchor="start" x="1177.5" y="-267.5" font-family="Helvetica,sans-Serif" font-size="10.00" fill="grey">m_info</text>
</g>
<!-- Node16&#45;&gt;Node15 -->
<g id="edge17_Node000015_Node000016" class="edge">
<title>Node16&#45;&gt;Node15</title>
<g id="a_edge17_Node000015_Node000016"><a xlink:title=" ">
<path fill="none" stroke="#9a32cd" stroke-dasharray="5,2" d="M877.26,-239C919.47,-239 972.84,-239 1014.78,-239"/>
<polygon fill="#9a32cd" stroke="#9a32cd" points="877.06,-235.5 867.06,-239 877.06,-242.5 877.06,-235.5"/>
</a>
</g>
<text text-anchor="start" x="934" y="-244.5" font-family="Helvetica,sans-Serif" font-size="10.00" fill="grey">ptr</text>
</g>
<!-- Node17&#45;&gt;Node16 -->
<g id="edge19_Node000016_Node000017" class="edge">
<title>Node17&#45;&gt;Node16</title>
<g id="a_edge19_Node000016_Node000017"><a xlink:title=" ">
<path fill="none" stroke="#9a32cd" stroke-dasharray="5,2" d="M582.38,-223.01C625.8,-222 678.69,-222.11 726,-226 735.22,-226.76 745,-228.01 754.4,-229.45"/>
<polygon fill="#9a32cd" stroke="#9a32cd" points="582.04,-219.52 572.13,-223.28 582.22,-226.52 582.04,-219.52"/>
</a>
</g>
<text text-anchor="start" x="622" y="-231.5" font-family="Helvetica,sans-Serif" font-size="10.00" fill="grey">m_fillpatch_op</text>
</g>
<!-- Node18&#45;&gt;Node17 -->
<g id="edge21_Node000017_Node000018" class="edge">
<title>Node18&#45;&gt;Node17</title>
<g id="a_edge21_Node000017_Node000018"><a xlink:title=" ">
<path fill="none" stroke="orange" stroke-dasharray="5,2" d="M226.91,-227C280.63,-227 355.51,-227 411.82,-227"/>
<polygon fill="orange" stroke="orange" points="226.8,-223.5 216.8,-227 226.8,-230.5 226.8,-223.5"/>
</a>
</g>
<text text-anchor="start" x="251" y="-248" font-family="Helvetica,sans-Serif" font-size="10.00" fill="grey">&lt; kynema_sgf::FieldFillPatch</text>
<text text-anchor="start" x="251" y="-233" font-family="Helvetica,sans-Serif" font-size="10.00" fill="grey">  OpsBase &gt;</text>
</g>
<!-- Node19&#45;&gt;Node15 -->
<g id="edge23_Node000015_Node000019" class="edge">
<title>Node19&#45;&gt;Node15</title>
<g id="a_edge23_Node000015_Node000019"><a xlink:title=" ">
<path fill="none" stroke="orange" stroke-dasharray="5,2" d="M390.76,-187.9C471.22,-189.29 608.42,-192.73 726,-201 826.69,-208.08 942.82,-221.35 1014.83,-230.18"/>
<polygon fill="orange" stroke="orange" points="390.33,-184.39 380.27,-187.72 390.21,-191.39 390.33,-184.39"/>
</a>
</g>
<text text-anchor="start" x="593" y="-206.5" font-family="Helvetica,sans-Serif" font-size="10.00" fill="grey">&lt; kynema_sgf::FieldInfo &gt;</text>
</g>
<!-- Node20&#45;&gt;Node2 -->
<g id="edge25_Node000002_Node000020" class="edge">
<title>Node20&#45;&gt;Node2</title>
<g id="a_edge25_Node000002_Node000020"><a xlink:title=" ">
<path fill="none" stroke="#9a32cd" stroke-dasharray="5,2" d="M1948.1,-316C2024.04,-318.18 2135.21,-314.22 2226,-282 2254.68,-271.82 2282.69,-249.92 2299.52,-235.07"/>
<polygon fill="#9a32cd" stroke="#9a32cd" points="1948.2,-312.5 1938.09,-315.67 1947.97,-319.5 1948.2,-312.5"/>
</a>
</g>
<text text-anchor="start" x="2014.5" y="-321.5" font-family="Helvetica,sans-Serif" font-size="10.00" fill="grey">m_op</text>
</g>
<!-- Node21&#45;&gt;Node2 -->
<g id="edge27_Node000002_Node000021" class="edge">
<title>Node21&#45;&gt;Node2</title>
<g id="a_edge27_Node000002_Node000021"><a xlink:title=" ">
<path fill="none" stroke="orange" stroke-dasharray="5,2" d="M2111.18,-185.71C2152.97,-192.72 2203.38,-201.18 2243.67,-207.94"/>
<polygon fill="orange" stroke="orange" points="2111.74,-182.25 2101.3,-184.05 2110.58,-189.16 2111.74,-182.25"/>
</a>
</g>
<text text-anchor="start" x="2122.5" y="-209.5" font-family="Helvetica,sans-Serif" font-size="10.00" fill="grey">&lt; FieldBCDirichlet &gt;</text>
</g>
<!-- Node22&#45;&gt;Node21 -->
<g id="edge31_Node000021_Node000022" class="edge">
<title>Node22&#45;&gt;Node21</title>
<g id="a_edge31_Node000021_Node000022"><a xlink:title=" ">
<path fill="none" stroke="#9a32cd" stroke-dasharray="5,2" d="M1748.03,-172C1810.48,-172 1895.82,-172 1955.71,-172"/>
<polygon fill="#9a32cd" stroke="#9a32cd" points="1747.82,-168.5 1737.82,-172 1747.82,-175.5 1747.82,-168.5"/>
</a>
</g>
<text text-anchor="start" x="1844.5" y="-177.5" font-family="Helvetica,sans-Serif" font-size="10.00" fill="grey">m_op</text>
</g>
<!-- Node23&#45;&gt;Node1 -->
<g id="edge33_Node000001_Node000023" class="edge">
<title>Node23&#45;&gt;Node1</title>
<g id="a_edge33_Node000001_Node000023"><a xlink:title=" ">
<path fill="none" stroke="#9a32cd" stroke-dasharray="5,2" d="M1767.2,-372.43C1855.27,-363.17 1986.62,-349.3 2101,-337 2214.01,-324.85 2344.82,-310.52 2426,-301.59"/>
<polygon fill="#9a32cd" stroke="#9a32cd" points="1766.8,-368.96 1757.22,-373.48 1767.53,-375.92 1766.8,-368.96"/>
</a>
</g>
<text text-anchor="start" x="2141.5" y="-339.5" font-family="Helvetica,sans-Serif" font-size="10.00" fill="grey">m_ow_bndry</text>
</g>
<!-- Node24 -->
<g id="Node000024" class="node">
<title>Node24</title>
<g id="a_Node000024"><a xlink:title=" ">
<polygon fill="white" stroke="#666666" points="1429,-390 1234,-390 1234,-360 1429,-360 1429,-390"/>
<text text-anchor="start" x="1242" y="-378" font-family="Helvetica,sans-Serif" font-size="10.00">kynema_sgf::FieldBoundary</text>
<text text-anchor="middle" x="1331.5" y="-367" font-family="Helvetica,sans-Serif" font-size="10.00">::Register&lt; OceanWavesBoundary &gt;</text>
</a>
</g>
</g>
<!-- Node24&#45;&gt;Node23 -->
<g id="edge34_Node000023_Node000024" class="edge">
<title>Node24&#45;&gt;Node23</title>
<g id="a_edge34_Node000023_Node000024"><a xlink:title=" ">
<path fill="none" stroke="#63b8ff" d="M1439.22,-377.81C1441.84,-377.87 1444.43,-377.94 1447,-378 1487.21,-378.99 1531.61,-380.02 1569.75,-380.89"/>
<polygon fill="#63b8ff" stroke="#63b8ff" points="1439.1,-374.3 1429.02,-377.55 1438.93,-381.3 1439.1,-374.3"/>
</a>
</g>
</g>
<!-- Node25&#45;&gt;Node23 -->
<g id="edge38_Node000023_Node000025" class="edge">
<title>Node25&#45;&gt;Node23</title>
<g id="a_edge38_Node000023_Node000025"><a xlink:title=" ">
<path fill="none" stroke="#9a32cd" stroke-dasharray="5,2" d="M1400.42,-410.84C1450.6,-405.55 1519.4,-398.3 1574.2,-392.52"/>
<polygon fill="#9a32cd" stroke="#9a32cd" points="1399.91,-407.37 1390.33,-411.9 1400.64,-414.34 1399.91,-407.37"/>
</a>
</g>
<text text-anchor="start" x="1450.5" y="-410.5" font-family="Helvetica,sans-Serif" font-size="10.00" fill="grey">m_terrain_blank_ptr</text>
</g>
</g>
</svg>

<g id="navigator" transform="translate(0 0)" fill="#404254">
  <rect fill="#f2f5e9" fill-opacity="0.5" stroke="#606060" stroke-width=".5" x="0" y="0" width="60" height="60"/>
  <use id="zoomplus" xlink:href="#zoomPlus" x="17" y="9" onmousedown="handleZoom(evt,'in')"/>
  <use id="zoomminus" xlink:href="#zoomMin" x="42" y="9" onmousedown="handleZoom(evt,'out')"/>
  <use id="reset" xlink:href="#resetDef" x="30" y="36" onmousedown="handleReset()"/>
   <use id="arrowup" xlink:href="#arrowUp" x="0" y="0" onmousedown="handlePan(0,-1)"/>
  <use id="arrowright" xlink:href="#arrowRight" x="0" y="0" onmousedown="handlePan(1,0)"/>
  <use id="arrowdown" xlink:href="#arrowDown" x="0" y="0" onmousedown="handlePan(0,1)"/>
  <use id="arrowleft" xlink:href="#arrowLeft" x="0" y="0" onmousedown="handlePan(-1,0)"/>
</g>
<svg viewBox="0 0 15 15" width="100%" height="30px" preserveAspectRatio="xMaxYMin meet">
 <g id="arrow_out" transform="scale(0.3 0.3)">
  <a xlink:href="classkynema__sgf_1_1_ocean_waves_fill_inflow__coll__graph_org.svg" target="_base">
   <rect id="button" ry="5" rx="5" y="6" x="6" height="38" width="38"
        fill="#f2f5e9" fill-opacity="0.5" stroke="#606060" stroke-width="1.0"/>
   <path id="arrow"
     d="M 11.500037,31.436501 C 11.940474,20.09759 22.043105,11.32322 32.158766,21.979434 L 37.068811,17.246167 C 37.068811,17.246167 37.088388,32 37.088388,32 L 22.160133,31.978069 C 22.160133,31.978069 26.997745,27.140456 26.997745,27.140456 C 18.528582,18.264221 13.291696,25.230495 11.500037,31.436501 z"
     style="fill:#404040;"/>
  </a>
 </g>
</svg>

<style type='text/css'>
<![CDATA[
[data-mouse-over-selected='false'] { opacity: 0.7; }
[data-mouse-over-selected='true']  { opacity: 1.0; }
]]>
</style>
<script type="application/ecmascript"><![CDATA[
document.addEventListener('DOMContentLoaded', (event) => {
  highlightEdges();
  highlightAdjacentNodes();
});
]]></script>
</svg>
