<?xml version="1.0" encoding="UTF-8" standalone="no"?>
<!DOCTYPE svg PUBLIC "-//W3C//DTD SVG 1.1//EN"
 "http://www.w3.org/Graphics/SVG/1.1/DTD/svg11.dtd">
<!-- Generated by graphviz version 2.43.0 (0)
 -->
<!-- Title: kynema_sgf::tagging::GeometryType Pages: 1 -->
<svg width="195pt" height="240pt"
 viewBox="0.00 0.00 194.50 240.00" xmlns="http://www.w3.org/2000/svg" xmlns:xlink="http://www.w3.org/1999/xlink">
<g id="graph0" class="graph" transform="scale(1 1) rotate(0) translate(4 236)">
<title>kynema_sgf::tagging::GeometryType</title>
<!-- Node1 -->
<g id="Node000001" class="node">
<title>Node1</title>
<g id="a_Node000001"><a xlink:title=" ">
<polygon fill="#999999" stroke="#666666" points="124.5,-30 6.5,-30 6.5,0 124.5,0 124.5,-30"/>
<text text-anchor="start" x="14.5" y="-18" font-family="Helvetica,sans-Serif" font-size="10.00">kynema_sgf::tagging</text>
<text text-anchor="middle" x="65.5" y="-7" font-family="Helvetica,sans-Serif" font-size="10.00">::GeometryType</text>
</a>
</g>
</g>
<!-- Node2 -->
<g id="Node000002" class="node">
<title>Node2</title>
<g id="a_Node000002"><a xlink:href="structkynema__sgf_1_1_factory.html" target="_top" xlink:title=" ">
<polygon fill="white" stroke="#666666" points="131,-119 0,-119 0,-67 131,-67 131,-119"/>
<text text-anchor="start" x="8" y="-107" font-family="Helvetica,sans-Serif" font-size="10.00">kynema_sgf::Factory</text>
<text text-anchor="start" x="8" y="-96" font-family="Helvetica,sans-Serif" font-size="10.00">&lt; GeometryType, const</text>
<text text-anchor="start" x="8" y="-85" font-family="Helvetica,sans-Serif" font-size="10.00"> CFDSim &amp;, const std::</text>
<text text-anchor="middle" x="65.5" y="-74" font-family="Helvetica,sans-Serif" font-size="10.00">string &amp; &gt;</text>
</a>
</g>
</g>
<!-- Node2&#45;&gt;Node1 -->
<g id="edge1_Node000001_Node000002" class="edge">
<title>Node2&#45;&gt;Node1</title>
<g id="a_edge1_Node000001_Node000002"><a xlink:title=" ">
<path fill="none" stroke="#63b8ff" d="M65.5,-56.46C65.5,-47.22 65.5,-37.78 65.5,-30.35"/>
<polygon fill="#63b8ff" stroke="#63b8ff" points="62,-56.69 65.5,-66.69 69,-56.69 62,-56.69"/>
</a>
</g>
</g>
<!-- Node3 -->
<g id="Node000003" class="node">
<title>Node3</title>
<g id="a_Node000003"><a xlink:href="structkynema__sgf_1_1_factory.html" target="_top" xlink:title=" ">
<polygon fill="white" stroke="#666666" points="123.5,-232 7.5,-232 7.5,-202 123.5,-202 123.5,-232"/>
<text text-anchor="start" x="15.5" y="-220" font-family="Helvetica,sans-Serif" font-size="10.00">kynema_sgf::Factory</text>
<text text-anchor="middle" x="65.5" y="-209" font-family="Helvetica,sans-Serif" font-size="10.00">&lt; Base, Args &gt;</text>
</a>
</g>
</g>
<!-- Node3&#45;&gt;Node2 -->
<g id="edge2_Node000002_Node000003" class="edge">
<title>Node3&#45;&gt;Node2</title>
<g id="a_edge2_Node000002_Node000003"><a xlink:title=" ">
<path fill="none" stroke="orange" stroke-dasharray="5,2" d="M65.5,-191.45C65.5,-170.41 65.5,-140.22 65.5,-119.04"/>
<polygon fill="orange" stroke="orange" points="62,-191.53 65.5,-201.53 69,-191.53 62,-191.53"/>
</a>
</g>
<text text-anchor="start" x="69" y="-172.5" font-family="Helvetica,sans-Serif" font-size="10.00" fill="grey">&lt; GeometryType, const</text>
<text text-anchor="start" x="69" y="-157.5" font-family="Helvetica,sans-Serif" font-size="10.00" fill="grey">   CFDSim &amp;, const std</text>
<text text-anchor="start" x="69" y="-142.5" font-family="Helvetica,sans-Serif" font-size="10.00" fill="grey">  ::string &amp; &gt;</text>
</g>
</g>
</svg>
