<?xml version="1.0" encoding="UTF-8" standalone="no"?>
<!DOCTYPE svg PUBLIC "-//W3C//DTD SVG 1.1//EN"
 "http://www.w3.org/Graphics/SVG/1.1/DTD/svg11.dtd">
<!-- Generated by graphviz version 2.43.0 (0)
 -->
<!-- Title: kynema_sgf::ExtSolverMgr Pages: 1 -->
<svg width="234pt" height="188pt"
 viewBox="0.00 0.00 233.50 188.00" xmlns="http://www.w3.org/2000/svg" xmlns:xlink="http://www.w3.org/1999/xlink">
<g id="graph0" class="graph" transform="scale(1 1) rotate(0) translate(4 184)">
<title>kynema_sgf::ExtSolverMgr</title>
<!-- Node1 -->
<g id="Node000001" class="node">
<title>Node1</title>
<g id="a_Node000001"><a xlink:title=" ">
<polygon fill="#999999" stroke="#666666" points="151.5,-19 5.5,-19 5.5,0 151.5,0 151.5,-19"/>
<text text-anchor="middle" x="78.5" y="-7" font-family="Helvetica,sans-Serif" font-size="10.00">kynema_sgf::ExtSolverMgr</text>
</a>
</g>
</g>
<!-- Node2 -->
<g id="Node000002" class="node">
<title>Node2</title>
<g id="a_Node000002"><a xlink:href="classkynema__sgf_1_1_coll_mgr.html" target="_top" xlink:title=" ">
<polygon fill="white" stroke="#666666" points="157,-86 0,-86 0,-56 157,-56 157,-86"/>
<text text-anchor="start" x="8" y="-74" font-family="Helvetica,sans-Serif" font-size="10.00">kynema_sgf::CollMgr</text>
<text text-anchor="middle" x="78.5" y="-63" font-family="Helvetica,sans-Serif" font-size="10.00">&lt; ExtSolverMgr, ExtSolver &gt;</text>
</a>
</g>
</g>
<!-- Node2&#45;&gt;Node1 -->
<g id="edge1_Node000001_Node000002" class="edge">
<title>Node2&#45;&gt;Node1</title>
<g id="a_edge1_Node000001_Node000002"><a xlink:title=" ">
<path fill="none" stroke="#63b8ff" d="M78.5,-45.79C78.5,-36.36 78.5,-26.15 78.5,-19.16"/>
<polygon fill="#63b8ff" stroke="#63b8ff" points="75,-45.9 78.5,-55.9 82,-45.9 75,-45.9"/>
</a>
</g>
</g>
<!-- Node3 -->
<g id="Node000003" class="node">
<title>Node3</title>
<g id="a_Node000003"><a xlink:href="classkynema__sgf_1_1_coll_mgr.html" target="_top" xlink:title=" ">
<polygon fill="white" stroke="#666666" points="138,-180 19,-180 19,-139 138,-139 138,-180"/>
<text text-anchor="start" x="27" y="-168" font-family="Helvetica,sans-Serif" font-size="10.00">kynema_sgf::CollMgr</text>
<text text-anchor="start" x="27" y="-157" font-family="Helvetica,sans-Serif" font-size="10.00">&lt; Collection, Type,</text>
<text text-anchor="middle" x="78.5" y="-146" font-family="Helvetica,sans-Serif" font-size="10.00"> allow_duplicates &gt;</text>
</a>
</g>
</g>
<!-- Node3&#45;&gt;Node2 -->
<g id="edge2_Node000002_Node000003" class="edge">
<title>Node3&#45;&gt;Node2</title>
<g id="a_edge2_Node000002_Node000003"><a xlink:title=" ">
<path fill="none" stroke="orange" stroke-dasharray="5,2" d="M78.5,-128.86C78.5,-114.41 78.5,-97.71 78.5,-86.16"/>
<polygon fill="orange" stroke="orange" points="75,-128.87 78.5,-138.87 82,-128.87 75,-128.87"/>
</a>
</g>
<text text-anchor="start" x="82" y="-109.5" font-family="Helvetica,sans-Serif" font-size="10.00" fill="grey">&lt; ExtSolverMgr, ExtSolver &gt;</text>
</g>
</g>
</svg>
