<?xml version="1.0" encoding="UTF-8" standalone="no"?>
<!DOCTYPE svg PUBLIC "-//W3C//DTD SVG 1.1//EN"
 "http://www.w3.org/Graphics/SVG/1.1/DTD/svg11.dtd">
<!-- Generated by graphviz version 2.43.0 (0)
 -->
<!-- Title: kynema_sgf::IntField Pages: 1 -->
<svg width="274pt" height="363pt"
 viewBox="0.00 0.00 274.00 363.00" xmlns="http://www.w3.org/2000/svg" xmlns:xlink="http://www.w3.org/1999/xlink">
<g id="graph0" class="graph" transform="scale(1 1) rotate(0) translate(4 359)">
<title>kynema_sgf::IntField</title>
<!-- Node1 -->
<g id="Node000001" class="node">
<title>Node1</title>
<g id="a_Node000001"><a xlink:title=" ">
<polygon fill="#999999" stroke="#666666" points="126.5,-19 9.5,-19 9.5,0 126.5,0 126.5,-19"/>
<text text-anchor="middle" x="68" y="-7" font-family="Helvetica,sans-Serif" font-size="10.00">kynema_sgf::IntField</text>
</a>
</g>
</g>
<!-- Node2 -->
<g id="Node000002" class="node">
<title>Node2</title>
<g id="a_Node000002"><a xlink:href="classkynema__sgf_1_1_field_repo.html" target="_top" xlink:title=" ">
<polygon fill="white" stroke="#666666" points="209.5,-91 80.5,-91 80.5,-72 209.5,-72 209.5,-91"/>
<text text-anchor="middle" x="145" y="-79" font-family="Helvetica,sans-Serif" font-size="10.00">kynema_sgf::FieldRepo</text>
</a>
</g>
</g>
<!-- Node2&#45;&gt;Node1 -->
<g id="edge1_Node000001_Node000002" class="edge">
<title>Node2&#45;&gt;Node1</title>
<g id="a_edge1_Node000001_Node000002"><a xlink:title=" ">
<path fill="none" stroke="#9a32cd" stroke-dasharray="5,2" d="M127.73,-64.8C112.23,-50.71 90.03,-30.53 77.52,-19.15"/>
<polygon fill="#9a32cd" stroke="#9a32cd" points="125.8,-67.78 135.56,-71.92 130.51,-62.6 125.8,-67.78"/>
</a>
</g>
<text text-anchor="start" x="119.5" y="-42.5" font-family="Helvetica,sans-Serif" font-size="10.00" fill="grey">m_repo</text>
</g>
<!-- Node3 -->
<g id="Node000003" class="node">
<title>Node3</title>
<g id="a_Node000003"><a xlink:title=" ">
<polygon fill="white" stroke="#666666" points="206,-189 84,-189 84,-159 206,-159 206,-189"/>
<text text-anchor="start" x="92" y="-177" font-family="Helvetica,sans-Serif" font-size="10.00">std::unordered_map</text>
<text text-anchor="middle" x="145" y="-166" font-family="Helvetica,sans-Serif" font-size="10.00">&lt; std::string, size_t &gt;</text>
</a>
</g>
</g>
<!-- Node3&#45;&gt;Node2 -->
<g id="edge2_Node000002_Node000003" class="edge">
<title>Node3&#45;&gt;Node2</title>
<g id="a_edge2_Node000002_Node000003"><a xlink:title=" ">
<path fill="none" stroke="#9a32cd" stroke-dasharray="5,2" d="M145,-148.78C145,-129.7 145,-104.21 145,-91.1"/>
<polygon fill="#9a32cd" stroke="#9a32cd" points="141.5,-148.86 145,-158.86 148.5,-148.86 141.5,-148.86"/>
</a>
</g>
<text text-anchor="start" x="148.5" y="-130" font-family="Helvetica,sans-Serif" font-size="10.00" fill="grey">m_fid_map</text>
<text text-anchor="start" x="148.5" y="-115" font-family="Helvetica,sans-Serif" font-size="10.00" fill="grey">m_int_fid_map</text>
</g>
<!-- Node4 -->
<g id="Node000004" class="node">
<title>Node4</title>
<g id="a_Node000004"><a xlink:title=" ">
<polygon fill="white" stroke="#666666" points="84.5,-266.5 19.5,-266.5 19.5,-247.5 84.5,-247.5 84.5,-266.5"/>
<text text-anchor="middle" x="52" y="-254.5" font-family="Helvetica,sans-Serif" font-size="10.00">std::string</text>
</a>
</g>
</g>
<!-- Node4&#45;&gt;Node1 -->
<g id="edge8_Node000001_Node000004" class="edge">
<title>Node4&#45;&gt;Node1</title>
<g id="a_edge8_Node000001_Node000004"><a xlink:title=" ">
<path fill="none" stroke="#9a32cd" stroke-dasharray="5,2" d="M53.24,-236.97C56.49,-187.15 65.15,-54.29 67.44,-19.13"/>
<polygon fill="#9a32cd" stroke="#9a32cd" points="49.73,-237.06 52.57,-247.26 56.71,-237.51 49.73,-237.06"/>
</a>
</g>
<text text-anchor="start" x="65.5" y="-122" font-family="Helvetica,sans-Serif" font-size="10.00" fill="grey">m_name</text>
</g>
<!-- Node4&#45;&gt;Node3 -->
<g id="edge3_Node000003_Node000004" class="edge">
<title>Node4&#45;&gt;Node3</title>
<g id="a_edge3_Node000003_Node000004"><a xlink:title=" ">
<path fill="none" stroke="#9a32cd" stroke-dasharray="5,2" d="M69.56,-240.7C86.64,-225.83 112.36,-203.43 128.91,-189.01"/>
<polygon fill="#9a32cd" stroke="#9a32cd" points="67.19,-238.12 61.95,-247.33 71.79,-243.4 67.19,-238.12"/>
</a>
</g>
<text text-anchor="start" x="110.5" y="-212.5" font-family="Helvetica,sans-Serif" font-size="10.00" fill="grey">keys</text>
</g>
<!-- Node5 -->
<g id="Node000005" class="node">
<title>Node5</title>
<g id="a_Node000005"><a xlink:title=" ">
<polygon fill="white" stroke="#666666" points="104,-355 0,-355 0,-325 104,-325 104,-355"/>
<text text-anchor="start" x="8" y="-343" font-family="Helvetica,sans-Serif" font-size="10.00">std::basic_string&lt;</text>
<text text-anchor="middle" x="52" y="-332" font-family="Helvetica,sans-Serif" font-size="10.00"> Char &gt;</text>
</a>
</g>
</g>
<!-- Node5&#45;&gt;Node4 -->
<g id="edge4_Node000004_Node000005" class="edge">
<title>Node5&#45;&gt;Node4</title>
<g id="a_edge4_Node000004_Node000005"><a xlink:title=" ">
<path fill="none" stroke="#63b8ff" d="M52,-314.55C52,-298.45 52,-278.32 52,-266.94"/>
<polygon fill="#63b8ff" stroke="#63b8ff" points="48.5,-314.89 52,-324.89 55.5,-314.89 48.5,-314.89"/>
</a>
</g>
</g>
<!-- Node6 -->
<g id="Node000006" class="node">
<title>Node6</title>
<g id="a_Node000006"><a xlink:title=" ">
<polygon fill="white" stroke="#666666" points="217,-272 103,-272 103,-242 217,-242 217,-272"/>
<text text-anchor="start" x="111" y="-260" font-family="Helvetica,sans-Serif" font-size="10.00">std::unordered_map</text>
<text text-anchor="middle" x="160" y="-249" font-family="Helvetica,sans-Serif" font-size="10.00">&lt; K, T &gt;</text>
</a>
</g>
</g>
<!-- Node6&#45;&gt;Node3 -->
<g id="edge5_Node000003_Node000006" class="edge">
<title>Node6&#45;&gt;Node3</title>
<g id="a_edge5_Node000003_Node000006"><a xlink:title=" ">
<path fill="none" stroke="orange" stroke-dasharray="5,2" d="M155.56,-232C152.98,-218.08 149.82,-201.03 147.63,-189.22"/>
<polygon fill="orange" stroke="orange" points="152.12,-232.7 157.39,-241.89 159.01,-231.42 152.12,-232.7"/>
</a>
</g>
<text text-anchor="start" x="157" y="-212.5" font-family="Helvetica,sans-Serif" font-size="10.00" fill="grey">&lt; std::string, size_t &gt;</text>
</g>
<!-- Node7 -->
<g id="Node000007" class="node">
<title>Node7</title>
<g id="a_Node000007"><a xlink:title=" ">
<polygon fill="white" stroke="#666666" points="162.5,-349.5 133.5,-349.5 133.5,-330.5 162.5,-330.5 162.5,-349.5"/>
<text text-anchor="middle" x="148" y="-337.5" font-family="Helvetica,sans-Serif" font-size="10.00">K</text>
</a>
</g>
</g>
<!-- Node7&#45;&gt;Node6 -->
<g id="edge6_Node000006_Node000007" class="edge">
<title>Node7&#45;&gt;Node6</title>
<g id="a_edge6_Node000006_Node000007"><a xlink:title=" ">
<path fill="none" stroke="#9a32cd" stroke-dasharray="5,2" d="M147.02,-319.95C146.9,-310.83 147.26,-299.78 149,-290 150.07,-283.98 152.08,-277.58 154.1,-272.09"/>
<polygon fill="#9a32cd" stroke="#9a32cd" points="143.54,-320.37 147.37,-330.25 150.53,-320.13 143.54,-320.37"/>
</a>
</g>
<text text-anchor="start" x="152.5" y="-295.5" font-family="Helvetica,sans-Serif" font-size="10.00" fill="grey">keys</text>
</g>
<!-- Node8 -->
<g id="Node000008" class="node">
<title>Node8</title>
<g id="a_Node000008"><a xlink:title=" ">
<polygon fill="white" stroke="#666666" points="214.5,-349.5 185.5,-349.5 185.5,-330.5 214.5,-330.5 214.5,-349.5"/>
<text text-anchor="middle" x="200" y="-337.5" font-family="Helvetica,sans-Serif" font-size="10.00">T</text>
</a>
</g>
</g>
<!-- Node8&#45;&gt;Node6 -->
<g id="edge7_Node000006_Node000008" class="edge">
<title>Node8&#45;&gt;Node6</title>
<g id="a_edge7_Node000006_Node000008"><a xlink:title=" ">
<path fill="none" stroke="#9a32cd" stroke-dasharray="5,2" d="M192.3,-320.81C188.24,-311.5 183.07,-300.04 178,-290 175.01,-284.08 171.48,-277.69 168.34,-272.19"/>
<polygon fill="#9a32cd" stroke="#9a32cd" points="189.18,-322.41 196.34,-330.21 195.61,-319.64 189.18,-322.41"/>
</a>
</g>
<text text-anchor="start" x="189" y="-295.5" font-family="Helvetica,sans-Serif" font-size="10.00" fill="grey">elements</text>
</g>
</g>
</svg>
