<?xml version="1.0" encoding="UTF-8" standalone="no"?>
<!DOCTYPE svg PUBLIC "-//W3C//DTD SVG 1.1//EN"
 "http://www.w3.org/Graphics/SVG/1.1/DTD/svg11.dtd">
<!-- Generated by graphviz version 2.43.0 (0)
 -->
<!-- Title: kynema_sgf::FieldFillPatchOps&lt; BCOpCreator &gt; Pages: 1 -->
<!--zoomable 335 -->

<svg id="main" version="1.1" xmlns="http://www.w3.org/2000/svg" xmlns:xlink="http://www.w3.org/1999/xlink" xml:space="preserve" onload="init(evt)">

<style type="text/css"><![CDATA[
.node, .edge {opacity: 0.7;}
.node.selected, .edge.selected {opacity: 1;}
.edge:hover path { stroke: red; }
.edge:hover polygon { stroke: red; fill: red; }
]]></style>

<defs>
  <circle id="rim" cx="0" cy="0" r="7"/>
  <circle id="rim2" cx="0" cy="0" r="3.5"/>
  <g id="zoomPlus">
    <use xlink:href="#rim" fill="#404040"><set attributeName="fill" to="#808080" begin="zoomplus.mouseover" end="zoomplus.mouseout"/></use>
    <path d="M-4,0h8M0,-4v8" fill="none" stroke="white" stroke-width="1.5" pointer-events="none"/>
  </g>
  <g id="zoomMin">
    <use xlink:href="#rim" fill="#404040"><set attributeName="fill" to="#808080" begin="zoomminus.mouseover" end="zoomminus.mouseout"/></use>
    <path d="M-4,0h8" fill="none" stroke="white" stroke-width="1.5" pointer-events="none"/>
  </g>
  <g id="arrowUp" transform="translate(30 24)">
    <use xlink:href="#rim"/>
    <path pointer-events="none" fill="none" stroke="white" stroke-width="1.5" d="M0,-3.0v7 M-2.5,-0.5L0,-3.0L2.5,-0.5"/>
  </g>
  <g id="arrowRight" transform="rotate(90) translate(36 -43)">
    <use xlink:href="#rim"/>
    <path pointer-events="none" fill="none" stroke="white" stroke-width="1.5" d="M0,-3.0v7 M-2.5,-0.5L0,-3.0L2.5,-0.5"/>
  </g>
  <g id="arrowDown" transform="rotate(180) translate(-30 -48)">
    <use xlink:href="#rim"/>
    <path pointer-events="none" fill="none" stroke="white" stroke-width="1.5" d="M0,-3.0v7 M-2.5,-0.5L0,-3.0L2.5,-0.5"/>
  </g>
  <g id="arrowLeft" transform="rotate(270) translate(-36 17)">
    <use xlink:href="#rim"/>
    <path pointer-events="none" fill="none" stroke="white" stroke-width="1.5" d="M0,-3.0v7 M-2.5,-0.5L0,-3.0L2.5,-0.5"/>
  </g>
  <g id="resetDef">
    <use xlink:href="#rim2" fill="#404040"><set attributeName="fill" to="#808080" begin="reset.mouseover" end="reset.mouseout"/></use>
  </g>
</defs>
<script type="application/ecmascript">
var viewWidth = 1830;
var viewHeight = 335;
var sectionId = 'dynsection-1';
</script>
<script type="application/ecmascript" xlink:href="svg.min.js"/>
<svg id="graph" class="graph">
<g id="viewport">
<title>kynema_sgf::FieldFillPatchOps&lt; BCOpCreator &gt;</title>
<!-- Node1 -->
<g id="Node000001" class="node">
<title>Node1</title>
<g id="a_Node000001"><a xlink:title=" ">
<polygon fill="#999999" stroke="#666666" points="1822,-261.63 1677,-261.63 1677,-231.63 1822,-231.63 1822,-261.63"/>
<text text-anchor="start" x="1685" y="-249.63" font-family="Helvetica,sans-Serif" font-size="10.00">kynema_sgf::FieldFillPatch</text>
<text text-anchor="middle" x="1749.5" y="-238.63" font-family="Helvetica,sans-Serif" font-size="10.00">Ops&lt; BCOpCreator &gt;</text>
</a>
</g>
</g>
<!-- Node2 -->
<g id="Node000002" class="node">
<title>Node2</title>
<g id="a_Node000002"><a xlink:href="classkynema__sgf_1_1_field_fill_patch_ops_base.html" target="_top" xlink:title=" ">
<polygon fill="white" stroke="#666666" points="262,-259.63 117,-259.63 117,-229.63 262,-229.63 262,-259.63"/>
<text text-anchor="start" x="125" y="-247.63" font-family="Helvetica,sans-Serif" font-size="10.00">kynema_sgf::FieldFillPatch</text>
<text text-anchor="middle" x="189.5" y="-236.63" font-family="Helvetica,sans-Serif" font-size="10.00">OpsBase</text>
</a>
</g>
</g>
<!-- Node2&#45;&gt;Node1 -->
<g id="edge1_Node000001_Node000002" class="edge">
<title>Node2&#45;&gt;Node1</title>
<g id="a_edge1_Node000001_Node000002"><a xlink:title=" ">
<path fill="none" stroke="#63b8ff" d="M272.21,-251.9C339.47,-257.27 437.34,-263.63 523,-263.63 523,-263.63 523,-263.63 1536,-263.63 1583,-263.63 1635.67,-259.45 1676.81,-255.23"/>
<polygon fill="#63b8ff" stroke="#63b8ff" points="272.35,-248.4 262.1,-251.09 271.79,-255.38 272.35,-248.4"/>
</a>
</g>
</g>
<!-- Node16 -->
<g id="Node000016" class="node">
<title>Node16</title>
<g id="a_Node000016"><a xlink:title=" ">
<polygon fill="white" stroke="#666666" points="604,-197.63 444,-197.63 444,-167.63 604,-167.63 604,-197.63"/>
<text text-anchor="start" x="452" y="-185.63" font-family="Helvetica,sans-Serif" font-size="10.00">std::unique_ptr&lt; kynema</text>
<text text-anchor="middle" x="524" y="-174.63" font-family="Helvetica,sans-Serif" font-size="10.00">_sgf::FieldFillPatchOpsBase &gt;</text>
</a>
</g>
</g>
<!-- Node2&#45;&gt;Node16 -->
<g id="edge19_Node000016_Node000002" class="edge">
<title>Node2&#45;&gt;Node16</title>
<g id="a_edge19_Node000016_Node000002"><a xlink:title=" ">
<path fill="none" stroke="#9a32cd" stroke-dasharray="5,2" d="M271.96,-233.62C328,-225.83 397.3,-215.73 426,-209.63 441.56,-206.32 458.31,-201.95 473.45,-197.7"/>
<polygon fill="#9a32cd" stroke="#9a32cd" points="271.45,-230.15 262.02,-234.99 272.41,-237.09 271.45,-230.15"/>
</a>
</g>
<text text-anchor="start" x="346" y="-237.13" font-family="Helvetica,sans-Serif" font-size="10.00" fill="grey">ptr</text>
</g>
<!-- Node3 -->
<g id="Node000003" class="node">
<title>Node3</title>
<g id="a_Node000003"><a xlink:href="classkynema__sgf_1_1_sim_time.html" target="_top" xlink:title=" ">
<polygon fill="white" stroke="#666666" points="1043,-317.13 918,-317.13 918,-298.13 1043,-298.13 1043,-317.13"/>
<text text-anchor="middle" x="980.5" y="-305.13" font-family="Helvetica,sans-Serif" font-size="10.00">kynema_sgf::SimTime</text>
</a>
</g>
</g>
<!-- Node3&#45;&gt;Node1 -->
<g id="edge2_Node000001_Node000003" class="edge">
<title>Node3&#45;&gt;Node1</title>
<g id="a_edge2_Node000001_Node000003"><a xlink:title=" ">
<path fill="none" stroke="#9a32cd" stroke-dasharray="5,2" d="M1053.09,-308.48C1104.87,-309.03 1176.51,-309.63 1239.5,-309.63 1239.5,-309.63 1239.5,-309.63 1536,-309.63 1603.15,-309.63 1677.49,-280.36 1718.02,-261.72"/>
<polygon fill="#9a32cd" stroke="#9a32cd" points="1053.05,-304.98 1043.01,-308.37 1052.97,-311.98 1053.05,-304.98"/>
</a>
</g>
<text text-anchor="start" x="1313" y="-315.13" font-family="Helvetica,sans-Serif" font-size="10.00" fill="grey">m_time</text>
</g>
<!-- Node4 -->
<g id="Node000004" class="node">
<title>Node4</title>
<g id="a_Node000004"><a xlink:title=" ">
<polygon fill="white" stroke="#666666" points="580,-313.13 468,-313.13 468,-294.13 580,-294.13 580,-313.13"/>
<text text-anchor="middle" x="524" y="-301.13" font-family="Helvetica,sans-Serif" font-size="10.00">std::vector&lt; bool &gt;</text>
</a>
</g>
</g>
<!-- Node4&#45;&gt;Node3 -->
<g id="edge3_Node000003_Node000004" class="edge">
<title>Node4&#45;&gt;Node3</title>
<g id="a_edge3_Node000003_Node000004"><a xlink:title=" ">
<path fill="none" stroke="#9a32cd" stroke-dasharray="5,2" d="M590.35,-304.2C677.88,-304.97 832.06,-306.33 917.72,-307.09"/>
<polygon fill="#9a32cd" stroke="#9a32cd" points="590.31,-300.7 580.28,-304.12 590.25,-307.7 590.31,-300.7"/>
</a>
</g>
<text text-anchor="start" x="625.5" y="-311.13" font-family="Helvetica,sans-Serif" font-size="10.00" fill="grey">m_postprocess_enforce_dt</text>
</g>
<!-- Node5 -->
<g id="Node000005" class="node">
<title>Node5</title>
<g id="a_Node000005"><a xlink:title=" ">
<polygon fill="white" stroke="#666666" points="238,-305.13 141,-305.13 141,-286.13 238,-286.13 238,-305.13"/>
<text text-anchor="middle" x="189.5" y="-293.13" font-family="Helvetica,sans-Serif" font-size="10.00">std::vector&lt; T &gt;</text>
</a>
</g>
</g>
<!-- Node5&#45;&gt;Node4 -->
<g id="edge4_Node000004_Node000005" class="edge">
<title>Node5&#45;&gt;Node4</title>
<g id="a_edge4_Node000004_Node000005"><a xlink:title=" ">
<path fill="none" stroke="orange" stroke-dasharray="5,2" d="M248.49,-297.02C310.28,-298.51 407.35,-300.85 467.98,-302.31"/>
<polygon fill="orange" stroke="orange" points="248.22,-293.52 238.14,-296.78 248.05,-300.51 248.22,-293.52"/>
</a>
</g>
<text text-anchor="start" x="331" y="-306.13" font-family="Helvetica,sans-Serif" font-size="10.00" fill="grey">&lt; bool &gt;</text>
</g>
<!-- Node6 -->
<g id="Node000006" class="node">
<title>Node6</title>
<g id="a_Node000006"><a xlink:title=" ">
<polygon fill="white" stroke="#666666" points="29,-187.13 0,-187.13 0,-168.13 29,-168.13 29,-187.13"/>
<text text-anchor="middle" x="14.5" y="-175.13" font-family="Helvetica,sans-Serif" font-size="10.00">T</text>
</a>
</g>
</g>
<!-- Node6&#45;&gt;Node5 -->
<g id="edge5_Node000005_Node000006" class="edge">
<title>Node6&#45;&gt;Node5</title>
<g id="a_edge5_Node000005_Node000006"><a xlink:title=" ">
<path fill="none" stroke="#9a32cd" stroke-dasharray="5,2" d="M27.21,-195.78C32.7,-203.58 39.66,-212.52 47,-219.63 74.29,-246.04 83.42,-250.89 117,-268.63 130.02,-275.51 145.2,-281.5 158.2,-286.08"/>
<polygon fill="#9a32cd" stroke="#9a32cd" points="29.99,-193.65 21.49,-187.32 24.19,-197.57 29.99,-193.65"/>
</a>
</g>
<text text-anchor="start" x="50" y="-263.13" font-family="Helvetica,sans-Serif" font-size="10.00" fill="grey">elements</text>
</g>
<!-- Node12 -->
<g id="Node000012" class="node">
<title>Node12</title>
<g id="a_Node000012"><a xlink:title=" ">
<polygon fill="white" stroke="#666666" points="581,-55.63 467,-55.63 467,-25.63 581,-25.63 581,-55.63"/>
<text text-anchor="start" x="475" y="-43.63" font-family="Helvetica,sans-Serif" font-size="10.00">std::unordered_map</text>
<text text-anchor="middle" x="524" y="-32.63" font-family="Helvetica,sans-Serif" font-size="10.00">&lt; K, T &gt;</text>
</a>
</g>
</g>
<!-- Node6&#45;&gt;Node12 -->
<g id="edge13_Node000012_Node000006" class="edge">
<title>Node6&#45;&gt;Node12</title>
<g id="a_edge13_Node000012_Node000006"><a xlink:title=" ">
<path fill="none" stroke="#9a32cd" stroke-dasharray="5,2" d="M22.5,-158.29C35.42,-125.9 66.4,-61.66 117,-35.63 232.34,23.7 391.62,-4.84 472.09,-25.59"/>
<polygon fill="#9a32cd" stroke="#9a32cd" points="19.11,-157.37 18.81,-167.96 25.65,-159.86 19.11,-157.37"/>
</a>
</g>
<text text-anchor="start" x="166.5" y="-41.13" font-family="Helvetica,sans-Serif" font-size="10.00" fill="grey">elements</text>
</g>
<!-- Node17 -->
<g id="Node000017" class="node">
<title>Node17</title>
<g id="a_Node000017"><a xlink:title=" ">
<polygon fill="white" stroke="#666666" points="248.5,-167.13 130.5,-167.13 130.5,-148.13 248.5,-148.13 248.5,-167.13"/>
<text text-anchor="middle" x="189.5" y="-155.13" font-family="Helvetica,sans-Serif" font-size="10.00">std::unique_ptr&lt; T &gt;</text>
</a>
</g>
</g>
<!-- Node6&#45;&gt;Node17 -->
<g id="edge21_Node000017_Node000006" class="edge">
<title>Node6&#45;&gt;Node17</title>
<g id="a_edge21_Node000017_Node000006"><a xlink:title=" ">
<path fill="none" stroke="#9a32cd" stroke-dasharray="5,2" d="M37.9,-163.06C40.86,-161.67 43.94,-160.47 47,-159.63 73.78,-152.31 104.49,-151.07 130.44,-151.96"/>
<polygon fill="#9a32cd" stroke="#9a32cd" points="36.04,-160.09 28.94,-167.95 39.4,-166.23 36.04,-160.09"/>
</a>
</g>
<text text-anchor="start" x="66" y="-165.13" font-family="Helvetica,sans-Serif" font-size="10.00" fill="grey">ptr</text>
</g>
<!-- Node18 -->
<g id="Node000018" class="node">
<title>Node18</title>
<g id="a_Node000018"><a xlink:title=" ">
<polygon fill="white" stroke="#666666" points="412,-208.13 294,-208.13 294,-189.13 412,-189.13 412,-208.13"/>
<text text-anchor="middle" x="353" y="-196.13" font-family="Helvetica,sans-Serif" font-size="10.00">std::shared_ptr&lt; T &gt;</text>
</a>
</g>
</g>
<!-- Node6&#45;&gt;Node18 -->
<g id="edge23_Node000018_Node000006" class="edge">
<title>Node6&#45;&gt;Node18</title>
<g id="a_edge23_Node000018_Node000006"><a xlink:title=" ">
<path fill="none" stroke="#9a32cd" stroke-dasharray="5,2" d="M39.11,-179.1C91.5,-182.37 218.79,-190.32 293.88,-195"/>
<polygon fill="#9a32cd" stroke="#9a32cd" points="39.31,-175.61 29.11,-178.48 38.87,-182.59 39.31,-175.61"/>
</a>
</g>
<text text-anchor="start" x="66" y="-187.13" font-family="Helvetica,sans-Serif" font-size="10.00" fill="grey">ptr</text>
</g>
<!-- Node7 -->
<g id="Node000007" class="node">
<title>Node7</title>
<g id="a_Node000007"><a xlink:href="classkynema__sgf_1_1_field.html" target="_top" xlink:title=" ">
<polygon fill="white" stroke="#666666" points="1384,-180.13 1280,-180.13 1280,-161.13 1384,-161.13 1384,-180.13"/>
<text text-anchor="middle" x="1332" y="-168.13" font-family="Helvetica,sans-Serif" font-size="10.00">kynema_sgf::Field</text>
</a>
</g>
</g>
<!-- Node7&#45;&gt;Node1 -->
<g id="edge6_Node000001_Node000007" class="edge">
<title>Node7&#45;&gt;Node1</title>
<g id="a_edge6_Node000001_Node000007"><a xlink:title=" ">
<path fill="none" stroke="#9a32cd" stroke-dasharray="5,2" d="M1394.22,-165.6C1450.39,-162.63 1535.47,-162.31 1607,-179.63 1650.85,-190.25 1697.33,-215.27 1724.59,-231.55"/>
<polygon fill="#9a32cd" stroke="#9a32cd" points="1393.86,-162.11 1384.08,-166.18 1394.26,-169.1 1393.86,-162.11"/>
</a>
</g>
<text text-anchor="start" x="1517" y="-185.13" font-family="Helvetica,sans-Serif" font-size="10.00" fill="grey">m_field</text>
</g>
<!-- Node19 -->
<g id="Node000019" class="node">
<title>Node19</title>
<g id="a_Node000019"><a xlink:href="structkynema__sgf_1_1_b_c_op_creator.html" target="_top" xlink:title=" ">
<polygon fill="white" stroke="#666666" points="1607,-235.63 1463,-235.63 1463,-205.63 1607,-205.63 1607,-235.63"/>
<text text-anchor="start" x="1471" y="-223.63" font-family="Helvetica,sans-Serif" font-size="10.00">kynema_sgf::BCOpCreator</text>
<text text-anchor="middle" x="1535" y="-212.63" font-family="Helvetica,sans-Serif" font-size="10.00">&lt; InflowOp, WallOp &gt;</text>
</a>
</g>
</g>
<!-- Node7&#45;&gt;Node19 -->
<g id="edge25_Node000019_Node000007" class="edge">
<title>Node7&#45;&gt;Node19</title>
<g id="a_edge25_Node000019_Node000007"><a xlink:title=" ">
<path fill="none" stroke="#9a32cd" stroke-dasharray="5,2" d="M1381.12,-182.6C1408.78,-189.48 1443.79,-198.19 1473.33,-205.54"/>
<polygon fill="#9a32cd" stroke="#9a32cd" points="1381.83,-179.17 1371.28,-180.15 1380.14,-185.96 1381.83,-179.17"/>
</a>
</g>
<text text-anchor="start" x="1405.5" y="-202.13" font-family="Helvetica,sans-Serif" font-size="10.00" fill="grey">m_field</text>
</g>
<!-- Node8 -->
<g id="Node000008" class="node">
<title>Node8</title>
<g id="a_Node000008"><a xlink:href="classkynema__sgf_1_1_field_repo.html" target="_top" xlink:title=" ">
<polygon fill="white" stroke="#666666" points="1195.5,-76.13 1066.5,-76.13 1066.5,-57.13 1195.5,-57.13 1195.5,-76.13"/>
<text text-anchor="middle" x="1131" y="-64.13" font-family="Helvetica,sans-Serif" font-size="10.00">kynema_sgf::FieldRepo</text>
</a>
</g>
</g>
<!-- Node8&#45;&gt;Node7 -->
<g id="edge7_Node000007_Node000008" class="edge">
<title>Node8&#45;&gt;Node7</title>
<g id="a_edge7_Node000007_Node000008"><a xlink:title=" ">
<path fill="none" stroke="#9a32cd" stroke-dasharray="5,2" d="M1205.61,-65.03C1224.92,-67.25 1245.06,-72.08 1262,-81.63 1295.22,-100.34 1317.86,-142.19 1326.77,-161.07"/>
<polygon fill="#9a32cd" stroke="#9a32cd" points="1205.89,-61.54 1195.61,-64.1 1205.24,-68.51 1205.89,-61.54"/>
</a>
</g>
<text text-anchor="start" x="1222.5" y="-87.13" font-family="Helvetica,sans-Serif" font-size="10.00" fill="grey">m_repo</text>
</g>
<!-- Node9 -->
<g id="Node000009" class="node">
<title>Node9</title>
<g id="a_Node000009"><a xlink:title=" ">
<polygon fill="white" stroke="#666666" points="899.5,-72.63 777.5,-72.63 777.5,-42.63 899.5,-42.63 899.5,-72.63"/>
<text text-anchor="start" x="785.5" y="-60.63" font-family="Helvetica,sans-Serif" font-size="10.00">std::unordered_map</text>
<text text-anchor="middle" x="838.5" y="-49.63" font-family="Helvetica,sans-Serif" font-size="10.00">&lt; std::string, size_t &gt;</text>
</a>
</g>
</g>
<!-- Node9&#45;&gt;Node8 -->
<g id="edge8_Node000008_Node000009" class="edge">
<title>Node9&#45;&gt;Node8</title>
<g id="a_edge8_Node000008_Node000009"><a xlink:title=" ">
<path fill="none" stroke="#9a32cd" stroke-dasharray="5,2" d="M909.89,-56.47C949.1,-56.21 998.78,-56.49 1043,-58.63 1050.58,-59 1058.51,-59.52 1066.38,-60.14"/>
<polygon fill="#9a32cd" stroke="#9a32cd" points="909.61,-52.98 899.64,-56.56 909.67,-59.98 909.61,-52.98"/>
</a>
</g>
<text text-anchor="start" x="944.5" y="-79.63" font-family="Helvetica,sans-Serif" font-size="10.00" fill="grey">m_fid_map</text>
<text text-anchor="start" x="944.5" y="-64.63" font-family="Helvetica,sans-Serif" font-size="10.00" fill="grey">m_int_fid_map</text>
</g>
<!-- Node10 -->
<g id="Node000010" class="node">
<title>Node10</title>
<g id="a_Node000010"><a xlink:title=" ">
<polygon fill="white" stroke="#666666" points="556.5,-122.13 491.5,-122.13 491.5,-103.13 556.5,-103.13 556.5,-122.13"/>
<text text-anchor="middle" x="524" y="-110.13" font-family="Helvetica,sans-Serif" font-size="10.00">std::string</text>
</a>
</g>
</g>
<!-- Node10&#45;&gt;Node7 -->
<g id="edge14_Node000007_Node000010" class="edge">
<title>Node10&#45;&gt;Node7</title>
<g id="a_edge14_Node000007_Node000010"><a xlink:title=" ">
<path fill="none" stroke="#9a32cd" stroke-dasharray="5,2" d="M567,-114.92C673.25,-120.82 961.33,-137.52 1201,-157.63 1226.99,-159.81 1255.87,-162.66 1279.79,-165.13"/>
<polygon fill="#9a32cd" stroke="#9a32cd" points="566.88,-111.41 556.71,-114.35 566.5,-118.4 566.88,-111.41"/>
</a>
</g>
<text text-anchor="start" x="959.5" y="-150.13" font-family="Helvetica,sans-Serif" font-size="10.00" fill="grey">m_name</text>
</g>
<!-- Node10&#45;&gt;Node9 -->
<g id="edge9_Node000009_Node000010" class="edge">
<title>Node10&#45;&gt;Node9</title>
<g id="a_edge9_Node000009_Node000010"><a xlink:title=" ">
<path fill="none" stroke="#9a32cd" stroke-dasharray="5,2" d="M559.79,-99.66C578.08,-93.32 600.99,-86.11 622,-81.63 673.73,-70.6 733.59,-64.45 777.07,-61.14"/>
<polygon fill="#9a32cd" stroke="#9a32cd" points="558.42,-96.43 550.16,-103.07 560.75,-103.03 558.42,-96.43"/>
</a>
</g>
<text text-anchor="start" x="679.5" y="-87.13" font-family="Helvetica,sans-Serif" font-size="10.00" fill="grey">keys</text>
</g>
<!-- Node15 -->
<g id="Node000015" class="node">
<title>Node15</title>
<g id="a_Node000015"><a xlink:href="structkynema__sgf_1_1_field_info.html" target="_top" xlink:title=" ">
<polygon fill="white" stroke="#666666" points="900,-191.13 777,-191.13 777,-172.13 900,-172.13 900,-191.13"/>
<text text-anchor="middle" x="838.5" y="-179.13" font-family="Helvetica,sans-Serif" font-size="10.00">kynema_sgf::FieldInfo</text>
</a>
</g>
</g>
<!-- Node10&#45;&gt;Node15 -->
<g id="edge17_Node000015_Node000010" class="edge">
<title>Node10&#45;&gt;Node15</title>
<g id="a_edge17_Node000015_Node000010"><a xlink:title=" ">
<path fill="none" stroke="#9a32cd" stroke-dasharray="5,2" d="M566.63,-120.4C613.55,-129.33 692.02,-144.82 759,-160.63 773.69,-164.1 789.82,-168.34 803.61,-172.09"/>
<polygon fill="#9a32cd" stroke="#9a32cd" points="567.02,-116.91 556.54,-118.49 565.72,-123.79 567.02,-116.91"/>
</a>
</g>
<text text-anchor="start" x="657.5" y="-166.13" font-family="Helvetica,sans-Serif" font-size="10.00" fill="grey">m_basename</text>
</g>
<!-- Node11 -->
<g id="Node000011" class="node">
<title>Node11</title>
<g id="a_Node000011"><a xlink:title=" ">
<polygon fill="white" stroke="#666666" points="241.5,-128.63 137.5,-128.63 137.5,-98.63 241.5,-98.63 241.5,-128.63"/>
<text text-anchor="start" x="145.5" y="-116.63" font-family="Helvetica,sans-Serif" font-size="10.00">std::basic_string&lt;</text>
<text text-anchor="middle" x="189.5" y="-105.63" font-family="Helvetica,sans-Serif" font-size="10.00"> Char &gt;</text>
</a>
</g>
</g>
<!-- Node11&#45;&gt;Node10 -->
<g id="edge10_Node000010_Node000011" class="edge">
<title>Node11&#45;&gt;Node10</title>
<g id="a_edge10_Node000010_Node000011"><a xlink:title=" ">
<path fill="none" stroke="#63b8ff" d="M251.85,-113.44C322.64,-113.23 436.34,-112.89 491.27,-112.72"/>
<polygon fill="#63b8ff" stroke="#63b8ff" points="251.71,-109.94 241.72,-113.48 251.73,-116.94 251.71,-109.94"/>
</a>
</g>
</g>
<!-- Node12&#45;&gt;Node9 -->
<g id="edge11_Node000009_Node000012" class="edge">
<title>Node12&#45;&gt;Node9</title>
<g id="a_edge11_Node000009_Node000012"><a xlink:title=" ">
<path fill="none" stroke="orange" stroke-dasharray="5,2" d="M591.47,-37.45C638.41,-36.04 702.71,-35.83 759,-41.63 764.95,-42.24 771.11,-43.1 777.26,-44.1"/>
<polygon fill="orange" stroke="orange" points="591.31,-33.95 581.43,-37.77 591.54,-40.95 591.31,-33.95"/>
</a>
</g>
<text text-anchor="start" x="637.5" y="-47.13" font-family="Helvetica,sans-Serif" font-size="10.00" fill="grey">&lt; std::string, size_t &gt;</text>
</g>
<!-- Node13 -->
<g id="Node000013" class="node">
<title>Node13</title>
<g id="a_Node000013"><a xlink:title=" ">
<polygon fill="white" stroke="#666666" points="204,-80.13 175,-80.13 175,-61.13 204,-61.13 204,-80.13"/>
<text text-anchor="middle" x="189.5" y="-68.13" font-family="Helvetica,sans-Serif" font-size="10.00">K</text>
</a>
</g>
</g>
<!-- Node13&#45;&gt;Node12 -->
<g id="edge12_Node000012_Node000013" class="edge">
<title>Node13&#45;&gt;Node12</title>
<g id="a_edge12_Node000012_Node000013"><a xlink:title=" ">
<path fill="none" stroke="#9a32cd" stroke-dasharray="5,2" d="M214.38,-68.47C266.77,-63.75 393.02,-52.36 466.8,-45.7"/>
<polygon fill="#9a32cd" stroke="#9a32cd" points="214.01,-64.99 204.36,-69.38 214.64,-71.97 214.01,-64.99"/>
</a>
</g>
<text text-anchor="start" x="342" y="-67.13" font-family="Helvetica,sans-Serif" font-size="10.00" fill="grey">keys</text>
</g>
<!-- Node14 -->
<g id="Node000014" class="node">
<title>Node14</title>
<g id="a_Node000014"><a xlink:title=" ">
<polygon fill="white" stroke="#666666" points="1201,-196.63 1061,-196.63 1061,-166.63 1201,-166.63 1201,-196.63"/>
<text text-anchor="start" x="1069" y="-184.63" font-family="Helvetica,sans-Serif" font-size="10.00">std::shared_ptr&lt; kynema</text>
<text text-anchor="middle" x="1131" y="-173.63" font-family="Helvetica,sans-Serif" font-size="10.00">_sgf::FieldInfo &gt;</text>
</a>
</g>
</g>
<!-- Node14&#45;&gt;Node7 -->
<g id="edge15_Node000007_Node000014" class="edge">
<title>Node14&#45;&gt;Node7</title>
<g id="a_edge15_Node000007_Node000014"><a xlink:title=" ">
<path fill="none" stroke="#9a32cd" stroke-dasharray="5,2" d="M1211.21,-177.25C1234.36,-175.97 1259.05,-174.61 1279.97,-173.45"/>
<polygon fill="#9a32cd" stroke="#9a32cd" points="1210.83,-173.77 1201.04,-177.81 1211.22,-180.76 1210.83,-173.77"/>
</a>
</g>
<text text-anchor="start" x="1223.5" y="-182.13" font-family="Helvetica,sans-Serif" font-size="10.00" fill="grey">m_info</text>
</g>
<!-- Node15&#45;&gt;Node14 -->
<g id="edge16_Node000014_Node000015" class="edge">
<title>Node15&#45;&gt;Node14</title>
<g id="a_edge16_Node000014_Node000015"><a xlink:title=" ">
<path fill="none" stroke="#9a32cd" stroke-dasharray="5,2" d="M910.19,-181.63C956,-181.63 1015.37,-181.63 1060.87,-181.63"/>
<polygon fill="#9a32cd" stroke="#9a32cd" points="910.04,-178.13 900.04,-181.63 910.04,-185.13 910.04,-178.13"/>
</a>
</g>
<text text-anchor="start" x="973.5" y="-187.13" font-family="Helvetica,sans-Serif" font-size="10.00" fill="grey">ptr</text>
</g>
<!-- Node16&#45;&gt;Node15 -->
<g id="edge18_Node000015_Node000016" class="edge">
<title>Node16&#45;&gt;Node15</title>
<g id="a_edge18_Node000015_Node000016"><a xlink:title=" ">
<path fill="none" stroke="#9a32cd" stroke-dasharray="5,2" d="M614.48,-182.34C666.4,-182.18 730.45,-181.97 776.57,-181.82"/>
<polygon fill="#9a32cd" stroke="#9a32cd" points="614.25,-178.84 604.26,-182.38 614.27,-185.84 614.25,-178.84"/>
</a>
</g>
<text text-anchor="start" x="654.5" y="-187.13" font-family="Helvetica,sans-Serif" font-size="10.00" fill="grey">m_fillpatch_op</text>
</g>
<!-- Node17&#45;&gt;Node16 -->
<g id="edge20_Node000016_Node000017" class="edge">
<title>Node17&#45;&gt;Node16</title>
<g id="a_edge20_Node000016_Node000017"><a xlink:title=" ">
<path fill="none" stroke="orange" stroke-dasharray="5,2" d="M258.64,-147.66C305.93,-142.53 370.2,-139.13 426,-148.63 447.64,-152.31 470.88,-160.3 489.18,-167.62"/>
<polygon fill="orange" stroke="orange" points="258.06,-144.2 248.52,-148.81 258.85,-151.16 258.06,-144.2"/>
</a>
</g>
<text text-anchor="start" x="283" y="-169.63" font-family="Helvetica,sans-Serif" font-size="10.00" fill="grey">&lt; kynema_sgf::FieldFillPatch</text>
<text text-anchor="start" x="283" y="-154.63" font-family="Helvetica,sans-Serif" font-size="10.00" fill="grey">  OpsBase &gt;</text>
</g>
<!-- Node18&#45;&gt;Node14 -->
<g id="edge22_Node000014_Node000018" class="edge">
<title>Node18&#45;&gt;Node14</title>
<g id="a_edge22_Node000014_Node000018"><a xlink:title=" ">
<path fill="none" stroke="orange" stroke-dasharray="5,2" d="M422.08,-205.32C429.47,-205.86 436.89,-206.31 444,-206.63 515.04,-209.78 532.89,-206.95 604,-206.63 799.12,-205.74 849.35,-226.56 1043,-202.63 1053.79,-201.29 1065.19,-199.12 1076.05,-196.66"/>
<polygon fill="orange" stroke="orange" points="422.29,-201.83 412.05,-204.55 421.75,-208.81 422.29,-201.83"/>
</a>
</g>
<text text-anchor="start" x="625.5" y="-215.13" font-family="Helvetica,sans-Serif" font-size="10.00" fill="grey">&lt; kynema_sgf::FieldInfo &gt;</text>
</g>
<!-- Node19&#45;&gt;Node1 -->
<g id="edge24_Node000001_Node000019" class="edge">
<title>Node19&#45;&gt;Node1</title>
<g id="a_edge24_Node000001_Node000019"><a xlink:title=" ">
<path fill="none" stroke="#9a32cd" stroke-dasharray="5,2" d="M1617.34,-227.89C1631.26,-229.33 1645.55,-230.92 1659,-232.63 1664.77,-233.36 1670.75,-234.17 1676.74,-235.03"/>
<polygon fill="#9a32cd" stroke="#9a32cd" points="1617.6,-224.4 1607.3,-226.88 1616.9,-231.37 1617.6,-224.4"/>
</a>
</g>
<text text-anchor="start" x="1628" y="-238.13" font-family="Helvetica,sans-Serif" font-size="10.00" fill="grey">m_op</text>
</g>
</g>
</svg>

<g id="navigator" transform="translate(0 0)" fill="#404254">
  <rect fill="#f2f5e9" fill-opacity="0.5" stroke="#606060" stroke-width=".5" x="0" y="0" width="60" height="60"/>
  <use id="zoomplus" xlink:href="#zoomPlus" x="17" y="9" onmousedown="handleZoom(evt,'in')"/>
  <use id="zoomminus" xlink:href="#zoomMin" x="42" y="9" onmousedown="handleZoom(evt,'out')"/>
  <use id="reset" xlink:href="#resetDef" x="30" y="36" onmousedown="handleReset()"/>
   <use id="arrowup" xlink:href="#arrowUp" x="0" y="0" onmousedown="handlePan(0,-1)"/>
  <use id="arrowright" xlink:href="#arrowRight" x="0" y="0" onmousedown="handlePan(1,0)"/>
  <use id="arrowdown" xlink:href="#arrowDown" x="0" y="0" onmousedown="handlePan(0,1)"/>
  <use id="arrowleft" xlink:href="#arrowLeft" x="0" y="0" onmousedown="handlePan(-1,0)"/>
</g>
<svg viewBox="0 0 15 15" width="100%" height="30px" preserveAspectRatio="xMaxYMin meet">
 <g id="arrow_out" transform="scale(0.3 0.3)">
  <a xlink:href="classkynema__sgf_1_1_field_fill_patch_ops__coll__graph_org.svg" target="_base">
   <rect id="button" ry="5" rx="5" y="6" x="6" height="38" width="38"
        fill="#f2f5e9" fill-opacity="0.5" stroke="#606060" stroke-width="1.0"/>
   <path id="arrow"
     d="M 11.500037,31.436501 C 11.940474,20.09759 22.043105,11.32322 32.158766,21.979434 L 37.068811,17.246167 C 37.068811,17.246167 37.088388,32 37.088388,32 L 22.160133,31.978069 C 22.160133,31.978069 26.997745,27.140456 26.997745,27.140456 C 18.528582,18.264221 13.291696,25.230495 11.500037,31.436501 z"
     style="fill:#404040;"/>
  </a>
 </g>
</svg>

<style type='text/css'>
<![CDATA[
[data-mouse-over-selected='false'] { opacity: 0.7; }
[data-mouse-over-selected='true']  { opacity: 1.0; }
]]>
</style>
<script type="application/ecmascript"><![CDATA[
document.addEventListener('DOMContentLoaded', (event) => {
  highlightEdges();
  highlightAdjacentNodes();
});
]]></script>
</svg>
