<?xml version="1.0" encoding="UTF-8" standalone="no"?>
<!DOCTYPE svg PUBLIC "-//W3C//DTD SVG 1.1//EN"
 "http://www.w3.org/Graphics/SVG/1.1/DTD/svg11.dtd">
<!-- Generated by graphviz version 2.43.0 (0)
 -->
<!-- Title: kynema_sgf::pde::ICNSDiffScalarSegregatedOp Pages: 1 -->
<!--zoomable 301 -->

<svg id="main" version="1.1" xmlns="http://www.w3.org/2000/svg" xmlns:xlink="http://www.w3.org/1999/xlink" xml:space="preserve" onload="init(evt)">

<style type="text/css"><![CDATA[
.node, .edge {opacity: 0.7;}
.node.selected, .edge.selected {opacity: 1;}
.edge:hover path { stroke: red; }
.edge:hover polygon { stroke: red; fill: red; }
]]></style>

<defs>
  <circle id="rim" cx="0" cy="0" r="7"/>
  <circle id="rim2" cx="0" cy="0" r="3.5"/>
  <g id="zoomPlus">
    <use xlink:href="#rim" fill="#404040"><set attributeName="fill" to="#808080" begin="zoomplus.mouseover" end="zoomplus.mouseout"/></use>
    <path d="M-4,0h8M0,-4v8" fill="none" stroke="white" stroke-width="1.5" pointer-events="none"/>
  </g>
  <g id="zoomMin">
    <use xlink:href="#rim" fill="#404040"><set attributeName="fill" to="#808080" begin="zoomminus.mouseover" end="zoomminus.mouseout"/></use>
    <path d="M-4,0h8" fill="none" stroke="white" stroke-width="1.5" pointer-events="none"/>
  </g>
  <g id="arrowUp" transform="translate(30 24)">
    <use xlink:href="#rim"/>
    <path pointer-events="none" fill="none" stroke="white" stroke-width="1.5" d="M0,-3.0v7 M-2.5,-0.5L0,-3.0L2.5,-0.5"/>
  </g>
  <g id="arrowRight" transform="rotate(90) translate(36 -43)">
    <use xlink:href="#rim"/>
    <path pointer-events="none" fill="none" stroke="white" stroke-width="1.5" d="M0,-3.0v7 M-2.5,-0.5L0,-3.0L2.5,-0.5"/>
  </g>
  <g id="arrowDown" transform="rotate(180) translate(-30 -48)">
    <use xlink:href="#rim"/>
    <path pointer-events="none" fill="none" stroke="white" stroke-width="1.5" d="M0,-3.0v7 M-2.5,-0.5L0,-3.0L2.5,-0.5"/>
  </g>
  <g id="arrowLeft" transform="rotate(270) translate(-36 17)">
    <use xlink:href="#rim"/>
    <path pointer-events="none" fill="none" stroke="white" stroke-width="1.5" d="M0,-3.0v7 M-2.5,-0.5L0,-3.0L2.5,-0.5"/>
  </g>
  <g id="resetDef">
    <use xlink:href="#rim2" fill="#404040"><set attributeName="fill" to="#808080" begin="reset.mouseover" end="reset.mouseout"/></use>
  </g>
</defs>
<script type="application/ecmascript">
var viewWidth = 1878;
var viewHeight = 301;
var sectionId = 'dynsection-0';
</script>
<script type="application/ecmascript" xlink:href="svg.min.js"/>
<svg id="graph" class="graph">
<g id="viewport">
<title>kynema_sgf::pde::ICNSDiffScalarSegregatedOp</title>
<!-- Node1 -->
<g id="Node000001" class="node">
<title>Node1</title>
<g id="a_Node000001"><a xlink:title=" ">
<polygon fill="#999999" stroke="#666666" points="1870,-160.7 1724,-160.7 1724,-130.7 1870,-130.7 1870,-160.7"/>
<text text-anchor="start" x="1732" y="-148.7" font-family="Helvetica,sans-Serif" font-size="10.00">kynema_sgf::pde::ICNSDiff</text>
<text text-anchor="middle" x="1797" y="-137.7" font-family="Helvetica,sans-Serif" font-size="10.00">ScalarSegregatedOp</text>
</a>
</g>
</g>
<!-- Node2 -->
<g id="Node000002" class="node">
<title>Node2</title>
<g id="a_Node000002"><a xlink:href="structkynema__sgf_1_1pde_1_1_p_d_e_fields.html" target="_top" xlink:title=" ">
<polygon fill="white" stroke="#666666" points="1622,-200.2 1469,-200.2 1469,-181.2 1622,-181.2 1622,-200.2"/>
<text text-anchor="middle" x="1545.5" y="-188.2" font-family="Helvetica,sans-Serif" font-size="10.00">kynema_sgf::pde::PDEFields</text>
</a>
</g>
</g>
<!-- Node2&#45;&gt;Node1 -->
<g id="edge1_Node000001_Node000002" class="edge">
<title>Node2&#45;&gt;Node1</title>
<g id="a_edge1_Node000001_Node000002"><a xlink:title=" ">
<path fill="none" stroke="#9a32cd" stroke-dasharray="5,2" d="M1609.45,-179.35C1644.23,-173.07 1687.6,-165.25 1723.76,-158.73"/>
<polygon fill="#9a32cd" stroke="#9a32cd" points="1608.63,-175.94 1599.41,-181.16 1609.88,-182.83 1608.63,-175.94"/>
</a>
</g>
<text text-anchor="start" x="1643" y="-178.2" font-family="Helvetica,sans-Serif" font-size="10.00" fill="grey">m_pdefields</text>
</g>
<!-- Node3 -->
<g id="Node000003" class="node">
<title>Node3</title>
<g id="a_Node000003"><a xlink:href="classkynema__sgf_1_1_field_repo.html" target="_top" xlink:title=" ">
<polygon fill="white" stroke="#666666" points="1186.5,-267.2 1057.5,-267.2 1057.5,-248.2 1186.5,-248.2 1186.5,-267.2"/>
<text text-anchor="middle" x="1122" y="-255.2" font-family="Helvetica,sans-Serif" font-size="10.00">kynema_sgf::FieldRepo</text>
</a>
</g>
</g>
<!-- Node3&#45;&gt;Node2 -->
<g id="edge2_Node000002_Node000003" class="edge">
<title>Node3&#45;&gt;Node2</title>
<g id="a_edge2_Node000002_Node000003"><a xlink:title=" ">
<path fill="none" stroke="#9a32cd" stroke-dasharray="5,2" d="M1186.83,-268.63C1254.24,-277.64 1362.76,-284.86 1451,-256.7 1486.21,-245.47 1519.61,-215.72 1535.25,-200.29"/>
<polygon fill="#9a32cd" stroke="#9a32cd" points="1187.17,-265.14 1176.79,-267.23 1186.21,-272.08 1187.17,-265.14"/>
</a>
</g>
<text text-anchor="start" x="1312" y="-281.2" font-family="Helvetica,sans-Serif" font-size="10.00" fill="grey">repo</text>
</g>
<!-- Node10 -->
<g id="Node000010" class="node">
<title>Node10</title>
<g id="a_Node000010"><a xlink:href="classkynema__sgf_1_1_field.html" target="_top" xlink:title=" ">
<polygon fill="white" stroke="#666666" points="1375,-188.2 1271,-188.2 1271,-169.2 1375,-169.2 1375,-188.2"/>
<text text-anchor="middle" x="1323" y="-176.2" font-family="Helvetica,sans-Serif" font-size="10.00">kynema_sgf::Field</text>
</a>
</g>
</g>
<!-- Node3&#45;&gt;Node10 -->
<g id="edge10_Node000010_Node000003" class="edge">
<title>Node3&#45;&gt;Node10</title>
<g id="a_edge10_Node000010_Node000003"><a xlink:title=" ">
<path fill="none" stroke="#9a32cd" stroke-dasharray="5,2" d="M1166.45,-245.25C1192.02,-237.45 1224.78,-226.64 1253,-214.7 1271.42,-206.91 1291.6,-196.1 1305.35,-188.36"/>
<polygon fill="#9a32cd" stroke="#9a32cd" points="1165.24,-241.96 1156.67,-248.2 1167.26,-248.67 1165.24,-241.96"/>
</a>
</g>
<text text-anchor="start" x="1213.5" y="-236.2" font-family="Helvetica,sans-Serif" font-size="10.00" fill="grey">m_repo</text>
</g>
<!-- Node4 -->
<g id="Node000004" class="node">
<title>Node4</title>
<g id="a_Node000004"><a xlink:title=" ">
<polygon fill="white" stroke="#666666" points="866.5,-272.7 744.5,-272.7 744.5,-242.7 866.5,-242.7 866.5,-272.7"/>
<text text-anchor="start" x="752.5" y="-260.7" font-family="Helvetica,sans-Serif" font-size="10.00">std::unordered_map</text>
<text text-anchor="middle" x="805.5" y="-249.7" font-family="Helvetica,sans-Serif" font-size="10.00">&lt; std::string, size_t &gt;</text>
</a>
</g>
</g>
<!-- Node4&#45;&gt;Node3 -->
<g id="edge3_Node000003_Node000004" class="edge">
<title>Node4&#45;&gt;Node3</title>
<g id="a_edge3_Node000003_Node000004"><a xlink:title=" ">
<path fill="none" stroke="#9a32cd" stroke-dasharray="5,2" d="M876.97,-257.7C931.07,-257.7 1005.13,-257.7 1057.43,-257.7"/>
<polygon fill="#9a32cd" stroke="#9a32cd" points="876.77,-254.2 866.77,-257.7 876.77,-261.2 876.77,-254.2"/>
</a>
</g>
<text text-anchor="start" x="923.5" y="-278.7" font-family="Helvetica,sans-Serif" font-size="10.00" fill="grey">m_fid_map</text>
<text text-anchor="start" x="923.5" y="-263.7" font-family="Helvetica,sans-Serif" font-size="10.00" fill="grey">m_int_fid_map</text>
</g>
<!-- Node5 -->
<g id="Node000005" class="node">
<title>Node5</title>
<g id="a_Node000005"><a xlink:title=" ">
<polygon fill="white" stroke="#666666" points="524.5,-180.2 459.5,-180.2 459.5,-161.2 524.5,-161.2 524.5,-180.2"/>
<text text-anchor="middle" x="492" y="-168.2" font-family="Helvetica,sans-Serif" font-size="10.00">std::string</text>
</a>
</g>
</g>
<!-- Node5&#45;&gt;Node4 -->
<g id="edge4_Node000004_Node000005" class="edge">
<title>Node5&#45;&gt;Node4</title>
<g id="a_edge4_Node000004_Node000005"><a xlink:title=" ">
<path fill="none" stroke="#9a32cd" stroke-dasharray="5,2" d="M520.9,-184.61C539.98,-193.66 566.05,-205.14 590,-212.7 648.85,-231.28 665.62,-227.95 726,-240.7 731.87,-241.94 737.98,-243.24 744.08,-244.55"/>
<polygon fill="#9a32cd" stroke="#9a32cd" points="522.41,-181.45 511.88,-180.26 519.37,-187.75 522.41,-181.45"/>
</a>
</g>
<text text-anchor="start" x="647" y="-246.2" font-family="Helvetica,sans-Serif" font-size="10.00" fill="grey">keys</text>
</g>
<!-- Node5&#45;&gt;Node10 -->
<g id="edge11_Node000010_Node000005" class="edge">
<title>Node5&#45;&gt;Node10</title>
<g id="a_edge11_Node000010_Node000005"><a xlink:title=" ">
<path fill="none" stroke="#9a32cd" stroke-dasharray="5,2" d="M534.96,-178.05C551.98,-180.7 571.87,-183.36 590,-184.7 864.8,-205.1 934.44,-187.03 1210,-187.7 1229.11,-187.75 1233.93,-188.94 1253,-187.7 1258.79,-187.33 1264.83,-186.77 1270.83,-186.13"/>
<polygon fill="#9a32cd" stroke="#9a32cd" points="535.2,-174.55 524.77,-176.42 534.09,-181.46 535.2,-174.55"/>
</a>
</g>
<text text-anchor="start" x="938.5" y="-199.2" font-family="Helvetica,sans-Serif" font-size="10.00" fill="grey">m_name</text>
</g>
<!-- Node12 -->
<g id="Node000012" class="node">
<title>Node12</title>
<g id="a_Node000012"><a xlink:href="structkynema__sgf_1_1_field_info.html" target="_top" xlink:title=" ">
<polygon fill="white" stroke="#666666" points="867,-160.2 744,-160.2 744,-141.2 867,-141.2 867,-160.2"/>
<text text-anchor="middle" x="805.5" y="-148.2" font-family="Helvetica,sans-Serif" font-size="10.00">kynema_sgf::FieldInfo</text>
</a>
</g>
</g>
<!-- Node5&#45;&gt;Node12 -->
<g id="edge14_Node000012_Node000005" class="edge">
<title>Node5&#45;&gt;Node12</title>
<g id="a_edge14_Node000012_Node000005"><a xlink:title=" ">
<path fill="none" stroke="#9a32cd" stroke-dasharray="5,2" d="M534.77,-168.02C588.49,-164.57 682.18,-158.55 743.78,-154.6"/>
<polygon fill="#9a32cd" stroke="#9a32cd" points="534.34,-164.54 524.58,-168.67 534.79,-171.53 534.34,-164.54"/>
</a>
</g>
<text text-anchor="start" x="625" y="-169.2" font-family="Helvetica,sans-Serif" font-size="10.00" fill="grey">m_basename</text>
</g>
<!-- Node17 -->
<g id="Node000017" class="node">
<title>Node17</title>
<g id="a_Node000017"><a xlink:href="structkynema__sgf_1_1_m_l_m_g_options.html" target="_top" xlink:title=" ">
<polygon fill="white" stroke="#666666" points="1034,-109.2 885,-109.2 885,-90.2 1034,-90.2 1034,-109.2"/>
<text text-anchor="middle" x="959.5" y="-97.2" font-family="Helvetica,sans-Serif" font-size="10.00">kynema_sgf::MLMGOptions</text>
</a>
</g>
</g>
<!-- Node5&#45;&gt;Node17 -->
<g id="edge23_Node000017_Node000005" class="edge">
<title>Node5&#45;&gt;Node17</title>
<g id="a_edge23_Node000017_Node000005"><a xlink:title=" ">
<path fill="none" stroke="#9a32cd" stroke-dasharray="5,2" d="M510.14,-154.34C528.31,-138.21 558.67,-114.58 590,-104.7 694.65,-71.7 824.46,-80.67 898.76,-90.19"/>
<polygon fill="#9a32cd" stroke="#9a32cd" points="507.71,-151.82 502.69,-161.15 512.43,-156.99 507.71,-151.82"/>
</a>
</g>
<text text-anchor="start" x="602" y="-140.2" font-family="Helvetica,sans-Serif" font-size="10.00" fill="grey">m_bottom_solver_type</text>
<text text-anchor="start" x="602" y="-125.2" font-family="Helvetica,sans-Serif" font-size="10.00" fill="grey">m_hypre_interface</text>
<text text-anchor="start" x="602" y="-110.2" font-family="Helvetica,sans-Serif" font-size="10.00" fill="grey">m_hypre_namespace</text>
</g>
<!-- Node6 -->
<g id="Node000006" class="node">
<title>Node6</title>
<g id="a_Node000006"><a xlink:title=" ">
<polygon fill="white" stroke="#666666" points="209.5,-185.7 105.5,-185.7 105.5,-155.7 209.5,-155.7 209.5,-185.7"/>
<text text-anchor="start" x="113.5" y="-173.7" font-family="Helvetica,sans-Serif" font-size="10.00">std::basic_string&lt;</text>
<text text-anchor="middle" x="157.5" y="-162.7" font-family="Helvetica,sans-Serif" font-size="10.00"> Char &gt;</text>
</a>
</g>
</g>
<!-- Node6&#45;&gt;Node5 -->
<g id="edge5_Node000005_Node000006" class="edge">
<title>Node6&#45;&gt;Node5</title>
<g id="a_edge5_Node000005_Node000006"><a xlink:title=" ">
<path fill="none" stroke="#63b8ff" d="M219.85,-170.7C290.64,-170.7 404.34,-170.7 459.27,-170.7"/>
<polygon fill="#63b8ff" stroke="#63b8ff" points="219.72,-167.2 209.72,-170.7 219.72,-174.2 219.72,-167.2"/>
</a>
</g>
</g>
<!-- Node7 -->
<g id="Node000007" class="node">
<title>Node7</title>
<g id="a_Node000007"><a xlink:title=" ">
<polygon fill="white" stroke="#666666" points="549,-287.7 435,-287.7 435,-257.7 549,-257.7 549,-287.7"/>
<text text-anchor="start" x="443" y="-275.7" font-family="Helvetica,sans-Serif" font-size="10.00">std::unordered_map</text>
<text text-anchor="middle" x="492" y="-264.7" font-family="Helvetica,sans-Serif" font-size="10.00">&lt; K, T &gt;</text>
</a>
</g>
</g>
<!-- Node7&#45;&gt;Node4 -->
<g id="edge6_Node000004_Node000007" class="edge">
<title>Node7&#45;&gt;Node4</title>
<g id="a_edge6_Node000004_Node000007"><a xlink:title=" ">
<path fill="none" stroke="orange" stroke-dasharray="5,2" d="M559.36,-269.51C614.19,-266.87 691.35,-263.15 744.38,-260.6"/>
<polygon fill="orange" stroke="orange" points="558.87,-266.03 549.05,-270 559.21,-273.02 558.87,-266.03"/>
</a>
</g>
<text text-anchor="start" x="605" y="-273.2" font-family="Helvetica,sans-Serif" font-size="10.00" fill="grey">&lt; std::string, size_t &gt;</text>
</g>
<!-- Node8 -->
<g id="Node000008" class="node">
<title>Node8</title>
<g id="a_Node000008"><a xlink:title=" ">
<polygon fill="white" stroke="#666666" points="172,-282.2 143,-282.2 143,-263.2 172,-263.2 172,-282.2"/>
<text text-anchor="middle" x="157.5" y="-270.2" font-family="Helvetica,sans-Serif" font-size="10.00">K</text>
</a>
</g>
</g>
<!-- Node8&#45;&gt;Node7 -->
<g id="edge7_Node000007_Node000008" class="edge">
<title>Node8&#45;&gt;Node7</title>
<g id="a_edge7_Node000007_Node000008"><a xlink:title=" ">
<path fill="none" stroke="#9a32cd" stroke-dasharray="5,2" d="M182.38,-272.7C234.77,-272.7 361.02,-272.7 434.8,-272.7"/>
<polygon fill="#9a32cd" stroke="#9a32cd" points="182.36,-269.2 172.36,-272.7 182.36,-276.2 182.36,-269.2"/>
</a>
</g>
<text text-anchor="start" x="310" y="-278.2" font-family="Helvetica,sans-Serif" font-size="10.00" fill="grey">keys</text>
</g>
<!-- Node9 -->
<g id="Node000009" class="node">
<title>Node9</title>
<g id="a_Node000009"><a xlink:title=" ">
<polygon fill="white" stroke="#666666" points="29,-115.2 0,-115.2 0,-96.2 29,-96.2 29,-115.2"/>
<text text-anchor="middle" x="14.5" y="-103.2" font-family="Helvetica,sans-Serif" font-size="10.00">T</text>
</a>
</g>
</g>
<!-- Node9&#45;&gt;Node7 -->
<g id="edge8_Node000007_Node000009" class="edge">
<title>Node9&#45;&gt;Node7</title>
<g id="a_edge8_Node000007_Node000009"><a xlink:title=" ">
<path fill="none" stroke="#9a32cd" stroke-dasharray="5,2" d="M24.79,-124.4C36.07,-145.06 57.12,-177.65 85,-194.7 143.02,-230.18 337.61,-255.87 434.79,-266.83"/>
<polygon fill="#9a32cd" stroke="#9a32cd" points="27.78,-122.58 20.05,-115.34 21.58,-125.83 27.78,-122.58"/>
</a>
</g>
<text text-anchor="start" x="134.5" y="-241.2" font-family="Helvetica,sans-Serif" font-size="10.00" fill="grey">elements</text>
</g>
<!-- Node15 -->
<g id="Node000015" class="node">
<title>Node15</title>
<g id="a_Node000015"><a xlink:title=" ">
<polygon fill="white" stroke="#666666" points="216.5,-115.2 98.5,-115.2 98.5,-96.2 216.5,-96.2 216.5,-115.2"/>
<text text-anchor="middle" x="157.5" y="-103.2" font-family="Helvetica,sans-Serif" font-size="10.00">std::unique_ptr&lt; T &gt;</text>
</a>
</g>
</g>
<!-- Node9&#45;&gt;Node15 -->
<g id="edge18_Node000015_Node000009" class="edge">
<title>Node9&#45;&gt;Node15</title>
<g id="a_edge18_Node000015_Node000009"><a xlink:title=" ">
<path fill="none" stroke="#9a32cd" stroke-dasharray="5,2" d="M39.2,-105.7C55.44,-105.7 77.72,-105.7 98.5,-105.7"/>
<polygon fill="#9a32cd" stroke="#9a32cd" points="39.02,-102.2 29.02,-105.7 39.02,-109.2 39.02,-102.2"/>
</a>
</g>
<text text-anchor="start" x="50" y="-111.2" font-family="Helvetica,sans-Serif" font-size="10.00" fill="grey">ptr</text>
</g>
<!-- Node16 -->
<g id="Node000016" class="node">
<title>Node16</title>
<g id="a_Node000016"><a xlink:title=" ">
<polygon fill="white" stroke="#666666" points="380,-29.2 262,-29.2 262,-10.2 380,-10.2 380,-29.2"/>
<text text-anchor="middle" x="321" y="-17.2" font-family="Helvetica,sans-Serif" font-size="10.00">std::shared_ptr&lt; T &gt;</text>
</a>
</g>
</g>
<!-- Node9&#45;&gt;Node16 -->
<g id="edge20_Node000016_Node000009" class="edge">
<title>Node9&#45;&gt;Node16</title>
<g id="a_edge20_Node000016_Node000009"><a xlink:title=" ">
<path fill="none" stroke="#9a32cd" stroke-dasharray="5,2" d="M28.3,-87.71C40.77,-71.77 61.28,-49.4 85,-38.7 141.15,-13.36 212.5,-11.25 261.77,-13.81"/>
<polygon fill="#9a32cd" stroke="#9a32cd" points="25.44,-85.7 22.23,-95.79 31.03,-89.9 25.44,-85.7"/>
</a>
</g>
<text text-anchor="start" x="50" y="-72.2" font-family="Helvetica,sans-Serif" font-size="10.00" fill="grey">ptr</text>
</g>
<!-- Node10&#45;&gt;Node1 -->
<g id="edge21_Node000001_Node000010" class="edge">
<title>Node10&#45;&gt;Node1</title>
<g id="a_edge21_Node000001_Node000010"><a xlink:title=" ">
<path fill="none" stroke="#9a32cd" stroke-dasharray="5,2" d="M1384.21,-167.4C1410.19,-162.98 1441,-158.34 1469,-155.7 1556.37,-147.47 1657.38,-145.53 1723.75,-145.29"/>
<polygon fill="#9a32cd" stroke="#9a32cd" points="1383.39,-163.99 1374.13,-169.14 1384.58,-170.89 1383.39,-163.99"/>
</a>
</g>
<text text-anchor="start" x="1519.5" y="-161.2" font-family="Helvetica,sans-Serif" font-size="10.00" fill="grey">m_density</text>
</g>
<!-- Node10&#45;&gt;Node2 -->
<g id="edge9_Node000002_Node000010" class="edge">
<title>Node10&#45;&gt;Node2</title>
<g id="a_edge9_Node000002_Node000010"><a xlink:title=" ">
<path fill="none" stroke="#9a32cd" stroke-dasharray="5,2" d="M1385.07,-177.83C1405.99,-177.89 1429.54,-178.36 1451,-179.7 1457.2,-180.09 1463.62,-180.6 1470.05,-181.2"/>
<polygon fill="#9a32cd" stroke="#9a32cd" points="1385.03,-174.33 1375.03,-177.83 1385.03,-181.33 1385.03,-174.33"/>
</a>
</g>
<text text-anchor="start" x="1396" y="-245.2" font-family="Helvetica,sans-Serif" font-size="10.00" fill="grey">conv_term</text>
<text text-anchor="start" x="1396" y="-230.2" font-family="Helvetica,sans-Serif" font-size="10.00" fill="grey">diff_term</text>
<text text-anchor="start" x="1396" y="-215.2" font-family="Helvetica,sans-Serif" font-size="10.00" fill="grey">field</text>
<text text-anchor="start" x="1396" y="-200.2" font-family="Helvetica,sans-Serif" font-size="10.00" fill="grey">mueff</text>
<text text-anchor="start" x="1396" y="-185.2" font-family="Helvetica,sans-Serif" font-size="10.00" fill="grey">src_term</text>
</g>
<!-- Node11 -->
<g id="Node000011" class="node">
<title>Node11</title>
<g id="a_Node000011"><a xlink:title=" ">
<polygon fill="white" stroke="#666666" points="1192,-165.7 1052,-165.7 1052,-135.7 1192,-135.7 1192,-165.7"/>
<text text-anchor="start" x="1060" y="-153.7" font-family="Helvetica,sans-Serif" font-size="10.00">std::shared_ptr&lt; kynema</text>
<text text-anchor="middle" x="1122" y="-142.7" font-family="Helvetica,sans-Serif" font-size="10.00">_sgf::FieldInfo &gt;</text>
</a>
</g>
</g>
<!-- Node11&#45;&gt;Node10 -->
<g id="edge12_Node000010_Node000011" class="edge">
<title>Node11&#45;&gt;Node10</title>
<g id="a_edge12_Node000010_Node000011"><a xlink:title=" ">
<path fill="none" stroke="#9a32cd" stroke-dasharray="5,2" d="M1202.21,-161.85C1225.36,-165.1 1250.05,-168.58 1270.97,-171.52"/>
<polygon fill="#9a32cd" stroke="#9a32cd" points="1202.43,-158.34 1192.04,-160.42 1201.46,-165.28 1202.43,-158.34"/>
</a>
</g>
<text text-anchor="start" x="1214.5" y="-174.2" font-family="Helvetica,sans-Serif" font-size="10.00" fill="grey">m_info</text>
</g>
<!-- Node12&#45;&gt;Node11 -->
<g id="edge13_Node000011_Node000012" class="edge">
<title>Node12&#45;&gt;Node11</title>
<g id="a_edge13_Node000011_Node000012"><a xlink:title=" ">
<path fill="none" stroke="#9a32cd" stroke-dasharray="5,2" d="M877.31,-150.7C929.46,-150.7 1000.02,-150.7 1051.79,-150.7"/>
<polygon fill="#9a32cd" stroke="#9a32cd" points="877.14,-147.2 867.14,-150.7 877.14,-154.2 877.14,-147.2"/>
</a>
</g>
<text text-anchor="start" x="952.5" y="-156.2" font-family="Helvetica,sans-Serif" font-size="10.00" fill="grey">ptr</text>
</g>
<!-- Node13 -->
<g id="Node000013" class="node">
<title>Node13</title>
<g id="a_Node000013"><a xlink:title=" ">
<polygon fill="white" stroke="#666666" points="572,-77.7 412,-77.7 412,-47.7 572,-47.7 572,-77.7"/>
<text text-anchor="start" x="420" y="-65.7" font-family="Helvetica,sans-Serif" font-size="10.00">std::unique_ptr&lt; kynema</text>
<text text-anchor="middle" x="492" y="-54.7" font-family="Helvetica,sans-Serif" font-size="10.00">_sgf::FieldFillPatchOpsBase &gt;</text>
</a>
</g>
</g>
<!-- Node13&#45;&gt;Node12 -->
<g id="edge15_Node000012_Node000013" class="edge">
<title>Node13&#45;&gt;Node12</title>
<g id="a_edge15_Node000012_Node000013"><a xlink:title=" ">
<path fill="none" stroke="#9a32cd" stroke-dasharray="5,2" d="M569.76,-46.2C616.91,-39.82 677.37,-38.59 726,-60.7 762.99,-77.52 789.36,-121.34 799.68,-140.96"/>
<polygon fill="#9a32cd" stroke="#9a32cd" points="569,-42.77 559.61,-47.68 570.01,-49.7 569,-42.77"/>
</a>
</g>
<text text-anchor="start" x="622" y="-66.2" font-family="Helvetica,sans-Serif" font-size="10.00" fill="grey">m_fillpatch_op</text>
</g>
<!-- Node14 -->
<g id="Node000014" class="node">
<title>Node14</title>
<g id="a_Node000014"><a xlink:href="classkynema__sgf_1_1_field_fill_patch_ops_base.html" target="_top" xlink:title=" ">
<polygon fill="white" stroke="#666666" points="230,-77.7 85,-77.7 85,-47.7 230,-47.7 230,-77.7"/>
<text text-anchor="start" x="93" y="-65.7" font-family="Helvetica,sans-Serif" font-size="10.00">kynema_sgf::FieldFillPatch</text>
<text text-anchor="middle" x="157.5" y="-54.7" font-family="Helvetica,sans-Serif" font-size="10.00">OpsBase</text>
</a>
</g>
</g>
<!-- Node14&#45;&gt;Node13 -->
<g id="edge16_Node000013_Node000014" class="edge">
<title>Node14&#45;&gt;Node13</title>
<g id="a_edge16_Node000013_Node000014"><a xlink:title=" ">
<path fill="none" stroke="#9a32cd" stroke-dasharray="5,2" d="M240.48,-62.7C292.75,-62.7 360.12,-62.7 411.83,-62.7"/>
<polygon fill="#9a32cd" stroke="#9a32cd" points="240.24,-59.2 230.24,-62.7 240.24,-66.2 240.24,-59.2"/>
</a>
</g>
<text text-anchor="start" x="314" y="-68.2" font-family="Helvetica,sans-Serif" font-size="10.00" fill="grey">ptr</text>
</g>
<!-- Node15&#45;&gt;Node13 -->
<g id="edge17_Node000013_Node000015" class="edge">
<title>Node15&#45;&gt;Node13</title>
<g id="a_edge17_Node000013_Node000015"><a xlink:title=" ">
<path fill="none" stroke="orange" stroke-dasharray="5,2" d="M226.84,-100.41C273.96,-96.35 337.95,-90.03 394,-81.7 401.81,-80.54 409.94,-79.18 418.03,-77.74"/>
<polygon fill="orange" stroke="orange" points="226.42,-96.93 216.75,-101.26 227.01,-103.9 226.42,-96.93"/>
</a>
</g>
<text text-anchor="start" x="251" y="-119.7" font-family="Helvetica,sans-Serif" font-size="10.00" fill="grey">&lt; kynema_sgf::FieldFillPatch</text>
<text text-anchor="start" x="251" y="-104.7" font-family="Helvetica,sans-Serif" font-size="10.00" fill="grey">  OpsBase &gt;</text>
</g>
<!-- Node16&#45;&gt;Node11 -->
<g id="edge19_Node000011_Node000016" class="edge">
<title>Node16&#45;&gt;Node11</title>
<g id="a_edge19_Node000011_Node000016"><a xlink:title=" ">
<path fill="none" stroke="orange" stroke-dasharray="5,2" d="M390.21,-10.74C521.7,3.43 816.45,19.97 1034,-80.7 1063.03,-94.13 1090.78,-119.33 1106.84,-135.55"/>
<polygon fill="orange" stroke="orange" points="389.83,-7.27 380.27,-11.84 390.6,-14.22 389.83,-7.27"/>
</a>
</g>
<text text-anchor="start" x="593" y="-11.2" font-family="Helvetica,sans-Serif" font-size="10.00" fill="grey">&lt; kynema_sgf::FieldInfo &gt;</text>
</g>
<!-- Node17&#45;&gt;Node1 -->
<g id="edge22_Node000001_Node000017" class="edge">
<title>Node17&#45;&gt;Node1</title>
<g id="a_edge22_Node000001_Node000017"><a xlink:title=" ">
<path fill="none" stroke="#9a32cd" stroke-dasharray="5,2" d="M1044.22,-99.7C1097.54,-99.7 1168.08,-99.7 1230.5,-99.7 1230.5,-99.7 1230.5,-99.7 1546.5,-99.7 1616.09,-99.7 1694.82,-117.22 1744.9,-130.64"/>
<polygon fill="#9a32cd" stroke="#9a32cd" points="1044.13,-96.2 1034.13,-99.7 1044.13,-103.2 1044.13,-96.2"/>
</a>
</g>
<text text-anchor="start" x="1297" y="-105.2" font-family="Helvetica,sans-Serif" font-size="10.00" fill="grey">m_options</text>
</g>
</g>
</svg>

<g id="navigator" transform="translate(0 0)" fill="#404254">
  <rect fill="#f2f5e9" fill-opacity="0.5" stroke="#606060" stroke-width=".5" x="0" y="0" width="60" height="60"/>
  <use id="zoomplus" xlink:href="#zoomPlus" x="17" y="9" onmousedown="handleZoom(evt,'in')"/>
  <use id="zoomminus" xlink:href="#zoomMin" x="42" y="9" onmousedown="handleZoom(evt,'out')"/>
  <use id="reset" xlink:href="#resetDef" x="30" y="36" onmousedown="handleReset()"/>
   <use id="arrowup" xlink:href="#arrowUp" x="0" y="0" onmousedown="handlePan(0,-1)"/>
  <use id="arrowright" xlink:href="#arrowRight" x="0" y="0" onmousedown="handlePan(1,0)"/>
  <use id="arrowdown" xlink:href="#arrowDown" x="0" y="0" onmousedown="handlePan(0,1)"/>
  <use id="arrowleft" xlink:href="#arrowLeft" x="0" y="0" onmousedown="handlePan(-1,0)"/>
</g>
<svg viewBox="0 0 15 15" width="100%" height="30px" preserveAspectRatio="xMaxYMin meet">
 <g id="arrow_out" transform="scale(0.3 0.3)">
  <a xlink:href="classkynema__sgf_1_1pde_1_1_i_c_n_s_diff_scalar_segregated_op__coll__graph_org.svg" target="_base">
   <rect id="button" ry="5" rx="5" y="6" x="6" height="38" width="38"
        fill="#f2f5e9" fill-opacity="0.5" stroke="#606060" stroke-width="1.0"/>
   <path id="arrow"
     d="M 11.500037,31.436501 C 11.940474,20.09759 22.043105,11.32322 32.158766,21.979434 L 37.068811,17.246167 C 37.068811,17.246167 37.088388,32 37.088388,32 L 22.160133,31.978069 C 22.160133,31.978069 26.997745,27.140456 26.997745,27.140456 C 18.528582,18.264221 13.291696,25.230495 11.500037,31.436501 z"
     style="fill:#404040;"/>
  </a>
 </g>
</svg>

<style type='text/css'>
<![CDATA[
[data-mouse-over-selected='false'] { opacity: 0.7; }
[data-mouse-over-selected='true']  { opacity: 1.0; }
]]>
</style>
<script type="application/ecmascript"><![CDATA[
document.addEventListener('DOMContentLoaded', (event) => {
  highlightEdges();
  highlightAdjacentNodes();
});
]]></script>
</svg>
