<?xml version="1.0" encoding="UTF-8" standalone="no"?>
<!DOCTYPE svg PUBLIC "-//W3C//DTD SVG 1.1//EN"
 "http://www.w3.org/Graphics/SVG/1.1/DTD/svg11.dtd">
<!-- Generated by graphviz version 2.43.0 (0)
 -->
<!-- Title: kynema_sgf::pde::TemperatureSource Pages: 1 -->
<svg width="207pt" height="214pt"
 viewBox="0.00 0.00 206.50 214.00" xmlns="http://www.w3.org/2000/svg" xmlns:xlink="http://www.w3.org/1999/xlink">
<g id="graph0" class="graph" transform="scale(1 1) rotate(0) translate(4 210)">
<title>kynema_sgf::pde::TemperatureSource</title>
<!-- Node1 -->
<g id="Node000001" class="node">
<title>Node1</title>
<g id="a_Node000001"><a xlink:title=" ">
<polygon fill="#999999" stroke="#666666" points="167,-30 0,-30 0,0 167,0 167,-30"/>
<text text-anchor="start" x="8" y="-18" font-family="Helvetica,sans-Serif" font-size="10.00">kynema_sgf::pde::Temperature</text>
<text text-anchor="middle" x="83.5" y="-7" font-family="Helvetica,sans-Serif" font-size="10.00">Source</text>
</a>
</g>
</g>
<!-- Node2 -->
<g id="Node000002" class="node">
<title>Node2</title>
<g id="a_Node000002"><a xlink:href="structkynema__sgf_1_1_factory.html" target="_top" xlink:title=" ">
<polygon fill="white" stroke="#666666" points="146,-108 21,-108 21,-67 146,-67 146,-108"/>
<text text-anchor="start" x="29" y="-96" font-family="Helvetica,sans-Serif" font-size="10.00">kynema_sgf::Factory</text>
<text text-anchor="start" x="29" y="-85" font-family="Helvetica,sans-Serif" font-size="10.00">&lt; TemperatureSource,</text>
<text text-anchor="middle" x="83.5" y="-74" font-family="Helvetica,sans-Serif" font-size="10.00"> const CFDSim &amp; &gt;</text>
</a>
</g>
</g>
<!-- Node2&#45;&gt;Node1 -->
<g id="edge1_Node000001_Node000002" class="edge">
<title>Node2&#45;&gt;Node1</title>
<g id="a_edge1_Node000001_Node000002"><a xlink:title=" ">
<path fill="none" stroke="#63b8ff" d="M83.5,-56.58C83.5,-47.51 83.5,-37.95 83.5,-30.39"/>
<polygon fill="#63b8ff" stroke="#63b8ff" points="80,-56.86 83.5,-66.86 87,-56.86 80,-56.86"/>
</a>
</g>
</g>
<!-- Node3 -->
<g id="Node000003" class="node">
<title>Node3</title>
<g id="a_Node000003"><a xlink:href="structkynema__sgf_1_1_factory.html" target="_top" xlink:title=" ">
<polygon fill="white" stroke="#666666" points="141.5,-206 25.5,-206 25.5,-176 141.5,-176 141.5,-206"/>
<text text-anchor="start" x="33.5" y="-194" font-family="Helvetica,sans-Serif" font-size="10.00">kynema_sgf::Factory</text>
<text text-anchor="middle" x="83.5" y="-183" font-family="Helvetica,sans-Serif" font-size="10.00">&lt; Base, Args &gt;</text>
</a>
</g>
</g>
<!-- Node3&#45;&gt;Node2 -->
<g id="edge2_Node000002_Node000003" class="edge">
<title>Node3&#45;&gt;Node2</title>
<g id="a_edge2_Node000002_Node000003"><a xlink:title=" ">
<path fill="none" stroke="orange" stroke-dasharray="5,2" d="M83.5,-165.78C83.5,-148.13 83.5,-124.52 83.5,-108.06"/>
<polygon fill="orange" stroke="orange" points="80,-165.89 83.5,-175.89 87,-165.89 80,-165.89"/>
</a>
</g>
<text text-anchor="start" x="87" y="-147" font-family="Helvetica,sans-Serif" font-size="10.00" fill="grey">&lt; TemperatureSource,</text>
<text text-anchor="start" x="87" y="-132" font-family="Helvetica,sans-Serif" font-size="10.00" fill="grey">   const CFDSim &amp; &gt;</text>
</g>
</g>
</svg>
