<?xml version="1.0" encoding="UTF-8" standalone="no"?>
<!DOCTYPE svg PUBLIC "-//W3C//DTD SVG 1.1//EN"
 "http://www.w3.org/Graphics/SVG/1.1/DTD/svg11.dtd">
<!-- Generated by graphviz version 2.43.0 (0)
 -->
<!-- Title: kynema_sgf::pde::temperature::BodyForce Pages: 1 -->
<svg width="1024pt" height="141pt"
 viewBox="0.00 0.00 1024.00 140.50" xmlns="http://www.w3.org/2000/svg" xmlns:xlink="http://www.w3.org/1999/xlink">
<g id="graph0" class="graph" transform="scale(1 1) rotate(0) translate(4 136.5)">
<title>kynema_sgf::pde::temperature::BodyForce</title>
<!-- Node1 -->
<g id="Node000001" class="node">
<title>Node1</title>
<g id="a_Node000001"><a xlink:title=" ">
<polygon fill="#999999" stroke="#666666" points="1016,-85 850,-85 850,-55 1016,-55 1016,-85"/>
<text text-anchor="start" x="858" y="-73" font-family="Helvetica,sans-Serif" font-size="10.00">kynema_sgf::pde::temperature</text>
<text text-anchor="middle" x="933" y="-62" font-family="Helvetica,sans-Serif" font-size="10.00">::BodyForce</text>
</a>
</g>
</g>
<!-- Node2 -->
<g id="Node000002" class="node">
<title>Node2</title>
<g id="a_Node000002"><a xlink:title=" ">
<polygon fill="white" stroke="#666666" points="741,-132.5 585,-132.5 585,-91.5 741,-91.5 741,-132.5"/>
<text text-anchor="start" x="593" y="-120.5" font-family="Helvetica,sans-Serif" font-size="10.00">kynema_sgf::Factory</text>
<text text-anchor="start" x="593" y="-109.5" font-family="Helvetica,sans-Serif" font-size="10.00">&lt; TemperatureSource,</text>
<text text-anchor="middle" x="663" y="-98.5" font-family="Helvetica,sans-Serif" font-size="10.00"> const CFDSim &amp; &gt;::Register</text>
</a>
</g>
</g>
<!-- Node2&#45;&gt;Node1 -->
<g id="edge1_Node000001_Node000002" class="edge">
<title>Node2&#45;&gt;Node1</title>
<g id="a_edge1_Node000001_Node000002"><a xlink:title=" ">
<path fill="none" stroke="#63b8ff" d="M751.25,-100.15C777.26,-96.45 805.81,-92.23 832,-88 837.83,-87.06 843.85,-86.06 849.91,-85.02"/>
<polygon fill="#63b8ff" stroke="#63b8ff" points="750.44,-96.73 741.03,-101.59 751.42,-103.66 750.44,-96.73"/>
</a>
</g>
</g>
<!-- Node3 -->
<g id="Node000003" class="node">
<title>Node3</title>
<g id="a_Node000003"><a xlink:href="classkynema__sgf_1_1_sim_time.html" target="_top" xlink:title=" ">
<polygon fill="white" stroke="#666666" points="725.5,-73.5 600.5,-73.5 600.5,-54.5 725.5,-54.5 725.5,-73.5"/>
<text text-anchor="middle" x="663" y="-61.5" font-family="Helvetica,sans-Serif" font-size="10.00">kynema_sgf::SimTime</text>
</a>
</g>
</g>
<!-- Node3&#45;&gt;Node1 -->
<g id="edge2_Node000001_Node000003" class="edge">
<title>Node3&#45;&gt;Node1</title>
<g id="a_edge2_Node000001_Node000003"><a xlink:title=" ">
<path fill="none" stroke="#9a32cd" stroke-dasharray="5,2" d="M736,-65.61C771.12,-66.4 813.54,-67.35 849.92,-68.16"/>
<polygon fill="#9a32cd" stroke="#9a32cd" points="735.9,-62.11 725.82,-65.38 735.74,-69.11 735.9,-62.11"/>
</a>
</g>
<text text-anchor="start" x="776.5" y="-72.5" font-family="Helvetica,sans-Serif" font-size="10.00" fill="grey">m_time</text>
</g>
<!-- Node4 -->
<g id="Node000004" class="node">
<title>Node4</title>
<g id="a_Node000004"><a xlink:title=" ">
<polygon fill="white" stroke="#666666" points="412,-73.5 300,-73.5 300,-54.5 412,-54.5 412,-73.5"/>
<text text-anchor="middle" x="356" y="-61.5" font-family="Helvetica,sans-Serif" font-size="10.00">std::vector&lt; bool &gt;</text>
</a>
</g>
</g>
<!-- Node4&#45;&gt;Node3 -->
<g id="edge3_Node000003_Node000004" class="edge">
<title>Node4&#45;&gt;Node3</title>
<g id="a_edge3_Node000003_Node000004"><a xlink:title=" ">
<path fill="none" stroke="#9a32cd" stroke-dasharray="5,2" d="M422.48,-64C475.18,-64 548.71,-64 600.36,-64"/>
<polygon fill="#9a32cd" stroke="#9a32cd" points="422.23,-60.5 412.23,-64 422.23,-67.5 422.23,-60.5"/>
</a>
</g>
<text text-anchor="start" x="433.5" y="-69.5" font-family="Helvetica,sans-Serif" font-size="10.00" fill="grey">m_postprocess_enforce_dt</text>
</g>
<!-- Node5 -->
<g id="Node000005" class="node">
<title>Node5</title>
<g id="a_Node000005"><a xlink:title=" ">
<polygon fill="white" stroke="#666666" points="214,-73.5 117,-73.5 117,-54.5 214,-54.5 214,-73.5"/>
<text text-anchor="middle" x="165.5" y="-61.5" font-family="Helvetica,sans-Serif" font-size="10.00">std::vector&lt; T &gt;</text>
</a>
</g>
</g>
<!-- Node5&#45;&gt;Node4 -->
<g id="edge4_Node000004_Node000005" class="edge">
<title>Node5&#45;&gt;Node4</title>
<g id="a_edge4_Node000004_Node000005"><a xlink:title=" ">
<path fill="none" stroke="orange" stroke-dasharray="5,2" d="M224.12,-64C248.16,-64 275.97,-64 299.76,-64"/>
<polygon fill="orange" stroke="orange" points="224.07,-60.5 214.07,-64 224.07,-67.5 224.07,-60.5"/>
</a>
</g>
<text text-anchor="start" x="235" y="-69.5" font-family="Helvetica,sans-Serif" font-size="10.00" fill="grey">&lt; bool &gt;</text>
</g>
<!-- Node6 -->
<g id="Node000006" class="node">
<title>Node6</title>
<g id="a_Node000006"><a xlink:title=" ">
<polygon fill="white" stroke="#666666" points="29,-73.5 0,-73.5 0,-54.5 29,-54.5 29,-73.5"/>
<text text-anchor="middle" x="14.5" y="-61.5" font-family="Helvetica,sans-Serif" font-size="10.00">T</text>
</a>
</g>
</g>
<!-- Node6&#45;&gt;Node5 -->
<g id="edge5_Node000005_Node000006" class="edge">
<title>Node6&#45;&gt;Node5</title>
<g id="a_edge5_Node000005_Node000006"><a xlink:title=" ">
<path fill="none" stroke="#9a32cd" stroke-dasharray="5,2" d="M39.41,-64C60.21,-64 90.98,-64 116.79,-64"/>
<polygon fill="#9a32cd" stroke="#9a32cd" points="39.25,-60.5 29.25,-64 39.25,-67.5 39.25,-60.5"/>
</a>
</g>
<text text-anchor="start" x="50" y="-69.5" font-family="Helvetica,sans-Serif" font-size="10.00" fill="grey">elements</text>
</g>
<!-- Node7 -->
<g id="Node000007" class="node">
<title>Node7</title>
<g id="a_Node000007"><a xlink:title=" ">
<polygon fill="white" stroke="#666666" points="695.5,-24.5 630.5,-24.5 630.5,-5.5 695.5,-5.5 695.5,-24.5"/>
<text text-anchor="middle" x="663" y="-12.5" font-family="Helvetica,sans-Serif" font-size="10.00">std::string</text>
</a>
</g>
</g>
<!-- Node7&#45;&gt;Node1 -->
<g id="edge6_Node000001_Node000007" class="edge">
<title>Node7&#45;&gt;Node1</title>
<g id="a_edge6_Node000001_Node000007"><a xlink:title=" ">
<path fill="none" stroke="#9a32cd" stroke-dasharray="5,2" d="M705.85,-15.37C740.17,-16.47 789.8,-19.91 832,-30 856,-35.74 881.84,-46.2 901.24,-54.98"/>
<polygon fill="#9a32cd" stroke="#9a32cd" points="705.8,-11.87 695.71,-15.1 705.62,-18.86 705.8,-11.87"/>
</a>
</g>
<text text-anchor="start" x="762.5" y="-51" font-family="Helvetica,sans-Serif" font-size="10.00" fill="grey">m_bforce_file</text>
<text text-anchor="start" x="762.5" y="-36" font-family="Helvetica,sans-Serif" font-size="10.00" fill="grey">m_type</text>
</g>
<!-- Node8 -->
<g id="Node000008" class="node">
<title>Node8</title>
<g id="a_Node000008"><a xlink:title=" ">
<polygon fill="white" stroke="#666666" points="408,-30 304,-30 304,0 408,0 408,-30"/>
<text text-anchor="start" x="312" y="-18" font-family="Helvetica,sans-Serif" font-size="10.00">std::basic_string&lt;</text>
<text text-anchor="middle" x="356" y="-7" font-family="Helvetica,sans-Serif" font-size="10.00"> Char &gt;</text>
</a>
</g>
</g>
<!-- Node8&#45;&gt;Node7 -->
<g id="edge7_Node000007_Node000008" class="edge">
<title>Node8&#45;&gt;Node7</title>
<g id="a_edge7_Node000007_Node000008"><a xlink:title=" ">
<path fill="none" stroke="#63b8ff" d="M418.43,-15C482.53,-15 580.52,-15 630.42,-15"/>
<polygon fill="#63b8ff" stroke="#63b8ff" points="418.05,-11.5 408.05,-15 418.05,-18.5 418.05,-11.5"/>
</a>
</g>
</g>
</g>
</svg>
