<?xml version="1.0" encoding="UTF-8" standalone="no"?>
<!DOCTYPE svg PUBLIC "-//W3C//DTD SVG 1.1//EN"
 "http://www.w3.org/Graphics/SVG/1.1/DTD/svg11.dtd">
<!-- Generated by graphviz version 2.43.0 (0)
 -->
<!-- Title: kynema_sgf::ThirdMomentAveraging Pages: 1 -->
<svg width="243pt" height="511pt"
 viewBox="0.00 0.00 242.50 511.00" xmlns="http://www.w3.org/2000/svg" xmlns:xlink="http://www.w3.org/1999/xlink">
<g id="graph0" class="graph" transform="scale(1 1) rotate(0) translate(4 507)">
<title>kynema_sgf::ThirdMomentAveraging</title>
<!-- Node1 -->
<g id="Node000001" class="node">
<title>Node1</title>
<g id="a_Node000001"><a xlink:title=" ">
<polygon fill="#999999" stroke="#666666" points="195,-19 0,-19 0,0 195,0 195,-19"/>
<text text-anchor="middle" x="97.5" y="-7" font-family="Helvetica,sans-Serif" font-size="10.00">kynema_sgf::ThirdMomentAveraging</text>
</a>
</g>
</g>
<!-- Node2 -->
<g id="Node000002" class="node">
<title>Node2</title>
<g id="a_Node000002"><a xlink:href="classkynema__sgf_1_1_f_plane_averaging.html" target="_top" xlink:title=" ">
<polygon fill="white" stroke="#666666" points="179,-132 16,-132 16,-102 179,-102 179,-132"/>
<text text-anchor="start" x="24" y="-120" font-family="Helvetica,sans-Serif" font-size="10.00">kynema_sgf::FPlaneAveraging</text>
<text text-anchor="middle" x="97.5" y="-109" font-family="Helvetica,sans-Serif" font-size="10.00">&lt; Field &gt;</text>
</a>
</g>
</g>
<!-- Node2&#45;&gt;Node1 -->
<g id="edge1_Node000001_Node000002" class="edge">
<title>Node2&#45;&gt;Node1</title>
<g id="a_edge1_Node000001_Node000002"><a xlink:title=" ">
<path fill="none" stroke="#9a32cd" stroke-dasharray="5,2" d="M97.5,-91.62C97.5,-68.36 97.5,-34.61 97.5,-19"/>
<polygon fill="#9a32cd" stroke="#9a32cd" points="94,-91.77 97.5,-101.77 101,-91.77 94,-91.77"/>
</a>
</g>
<text text-anchor="start" x="100.5" y="-72.5" font-family="Helvetica,sans-Serif" font-size="10.00" fill="grey">m_plane_average1</text>
<text text-anchor="start" x="100.5" y="-57.5" font-family="Helvetica,sans-Serif" font-size="10.00" fill="grey">m_plane_average2</text>
<text text-anchor="start" x="100.5" y="-42.5" font-family="Helvetica,sans-Serif" font-size="10.00" fill="grey">m_plane_average3</text>
</g>
<!-- Node3 -->
<g id="Node000003" class="node">
<title>Node3</title>
<g id="a_Node000003"><a xlink:href="classkynema__sgf_1_1_f_plane_averaging.html" target="_top" xlink:title=" ">
<polygon fill="white" stroke="#666666" points="179,-215 16,-215 16,-185 179,-185 179,-215"/>
<text text-anchor="start" x="24" y="-203" font-family="Helvetica,sans-Serif" font-size="10.00">kynema_sgf::FPlaneAveraging</text>
<text text-anchor="middle" x="97.5" y="-192" font-family="Helvetica,sans-Serif" font-size="10.00">&lt; FType &gt;</text>
</a>
</g>
</g>
<!-- Node3&#45;&gt;Node2 -->
<g id="edge2_Node000002_Node000003" class="edge">
<title>Node3&#45;&gt;Node2</title>
<g id="a_edge2_Node000002_Node000003"><a xlink:title=" ">
<path fill="none" stroke="orange" stroke-dasharray="5,2" d="M97.5,-174.59C97.5,-160.75 97.5,-143.91 97.5,-132.22"/>
<polygon fill="orange" stroke="orange" points="94,-174.89 97.5,-184.89 101,-174.89 94,-174.89"/>
</a>
</g>
<text text-anchor="start" x="100.5" y="-155.5" font-family="Helvetica,sans-Serif" font-size="10.00" fill="grey">&lt; Field &gt;</text>
</g>
<!-- Node4 -->
<g id="Node000004" class="node">
<title>Node4</title>
<g id="a_Node000004"><a xlink:href="classkynema__sgf_1_1_sim_time.html" target="_top" xlink:title=" ">
<polygon fill="white" stroke="#666666" points="160,-287 35,-287 35,-268 160,-268 160,-287"/>
<text text-anchor="middle" x="97.5" y="-275" font-family="Helvetica,sans-Serif" font-size="10.00">kynema_sgf::SimTime</text>
</a>
</g>
</g>
<!-- Node4&#45;&gt;Node3 -->
<g id="edge3_Node000003_Node000004" class="edge">
<title>Node4&#45;&gt;Node3</title>
<g id="a_edge3_Node000003_Node000004"><a xlink:title=" ">
<path fill="none" stroke="#9a32cd" stroke-dasharray="5,2" d="M97.5,-257.57C97.5,-244.43 97.5,-227.18 97.5,-215.21"/>
<polygon fill="#9a32cd" stroke="#9a32cd" points="94,-257.84 97.5,-267.84 101,-257.84 94,-257.84"/>
</a>
</g>
<text text-anchor="start" x="100.5" y="-238.5" font-family="Helvetica,sans-Serif" font-size="10.00" fill="grey">m_time</text>
</g>
<!-- Node5 -->
<g id="Node000005" class="node">
<title>Node5</title>
<g id="a_Node000005"><a xlink:title=" ">
<polygon fill="white" stroke="#666666" points="153.5,-359 41.5,-359 41.5,-340 153.5,-340 153.5,-359"/>
<text text-anchor="middle" x="97.5" y="-347" font-family="Helvetica,sans-Serif" font-size="10.00">std::vector&lt; bool &gt;</text>
</a>
</g>
</g>
<!-- Node5&#45;&gt;Node4 -->
<g id="edge4_Node000004_Node000005" class="edge">
<title>Node5&#45;&gt;Node4</title>
<g id="a_edge4_Node000004_Node000005"><a xlink:title=" ">
<path fill="none" stroke="#9a32cd" stroke-dasharray="5,2" d="M97.5,-329.58C97.5,-315.76 97.5,-297.68 97.5,-287.15"/>
<polygon fill="#9a32cd" stroke="#9a32cd" points="94,-329.92 97.5,-339.92 101,-329.92 94,-329.92"/>
</a>
</g>
<text text-anchor="start" x="101" y="-310.5" font-family="Helvetica,sans-Serif" font-size="10.00" fill="grey">m_postprocess_enforce_dt</text>
</g>
<!-- Node6 -->
<g id="Node000006" class="node">
<title>Node6</title>
<g id="a_Node000006"><a xlink:title=" ">
<polygon fill="white" stroke="#666666" points="146,-431 49,-431 49,-412 146,-412 146,-431"/>
<text text-anchor="middle" x="97.5" y="-419" font-family="Helvetica,sans-Serif" font-size="10.00">std::vector&lt; T &gt;</text>
</a>
</g>
</g>
<!-- Node6&#45;&gt;Node5 -->
<g id="edge5_Node000005_Node000006" class="edge">
<title>Node6&#45;&gt;Node5</title>
<g id="a_edge5_Node000005_Node000006"><a xlink:title=" ">
<path fill="none" stroke="orange" stroke-dasharray="5,2" d="M97.5,-401.58C97.5,-387.76 97.5,-369.68 97.5,-359.15"/>
<polygon fill="orange" stroke="orange" points="94,-401.92 97.5,-411.92 101,-401.92 94,-401.92"/>
</a>
</g>
<text text-anchor="start" x="100.5" y="-382.5" font-family="Helvetica,sans-Serif" font-size="10.00" fill="grey">&lt; bool &gt;</text>
</g>
<!-- Node7 -->
<g id="Node000007" class="node">
<title>Node7</title>
<g id="a_Node000007"><a xlink:title=" ">
<polygon fill="white" stroke="#666666" points="112,-503 83,-503 83,-484 112,-484 112,-503"/>
<text text-anchor="middle" x="97.5" y="-491" font-family="Helvetica,sans-Serif" font-size="10.00">T</text>
</a>
</g>
</g>
<!-- Node7&#45;&gt;Node6 -->
<g id="edge6_Node000006_Node000007" class="edge">
<title>Node7&#45;&gt;Node6</title>
<g id="a_edge6_Node000006_Node000007"><a xlink:title=" ">
<path fill="none" stroke="#9a32cd" stroke-dasharray="5,2" d="M97.5,-473.58C97.5,-459.76 97.5,-441.68 97.5,-431.15"/>
<polygon fill="#9a32cd" stroke="#9a32cd" points="94,-473.92 97.5,-483.92 101,-473.92 94,-473.92"/>
</a>
</g>
<text text-anchor="start" x="100.5" y="-454.5" font-family="Helvetica,sans-Serif" font-size="10.00" fill="grey">elements</text>
</g>
</g>
</svg>
