<?xml version="1.0" encoding="UTF-8" standalone="no"?>
<!DOCTYPE svg PUBLIC "-//W3C//DTD SVG 1.1//EN"
 "http://www.w3.org/Graphics/SVG/1.1/DTD/svg11.dtd">
<!-- Generated by graphviz version 2.43.0 (0)
 -->
<!-- Title: kynema_sgf::ib::IBDataHolder&lt; IBTrait &gt; Pages: 1 -->
<svg width="436pt" height="134pt"
 viewBox="0.00 0.00 436.00 134.00" xmlns="http://www.w3.org/2000/svg" xmlns:xlink="http://www.w3.org/1999/xlink">
<g id="graph0" class="graph" transform="scale(1 1) rotate(0) translate(4 130)">
<title>kynema_sgf::ib::IBDataHolder&lt; IBTrait &gt;</title>
<!-- Node1 -->
<g id="Node000001" class="node">
<title>Node1</title>
<g id="a_Node000001"><a xlink:title=" ">
<polygon fill="#999999" stroke="#666666" points="161,-78 0,-78 0,-48 161,-48 161,-78"/>
<text text-anchor="start" x="8" y="-66" font-family="Helvetica,sans-Serif" font-size="10.00">kynema_sgf::ib::IBDataHolder</text>
<text text-anchor="middle" x="80.5" y="-55" font-family="Helvetica,sans-Serif" font-size="10.00">&lt; IBTrait &gt;</text>
</a>
</g>
</g>
<!-- Node2 -->
<g id="Node000002" class="node">
<title>Node2</title>
<g id="a_Node000002"><a xlink:href="classkynema__sgf_1_1ib_1_1_i_b_data_holder.html" target="_top" xlink:title=" ">
<polygon fill="white" stroke="#666666" points="428,-126 267,-126 267,-96 428,-96 428,-126"/>
<text text-anchor="start" x="275" y="-114" font-family="Helvetica,sans-Serif" font-size="10.00">kynema_sgf::ib::IBDataHolder</text>
<text text-anchor="middle" x="347.5" y="-103" font-family="Helvetica,sans-Serif" font-size="10.00">&lt; Box &gt;</text>
</a>
</g>
</g>
<!-- Node1&#45;&gt;Node2 -->
<g id="edge1_Node000001_Node000002" class="edge">
<title>Node1&#45;&gt;Node2</title>
<g id="a_edge1_Node000001_Node000002"><a xlink:title=" ">
<path fill="none" stroke="orange" stroke-dasharray="5,2" d="M158.97,-80.07C165.73,-81.44 172.48,-82.77 179,-84 207.51,-89.36 238.88,-94.6 266.69,-99.01"/>
<polygon fill="orange" stroke="orange" points="159.57,-76.62 149.07,-78.03 158.16,-83.48 159.57,-76.62"/>
</a>
</g>
<text text-anchor="start" x="193" y="-100.5" font-family="Helvetica,sans-Serif" font-size="10.00" fill="grey">&lt; Box &gt;</text>
</g>
<!-- Node3 -->
<g id="Node000003" class="node">
<title>Node3</title>
<g id="a_Node000003"><a xlink:href="classkynema__sgf_1_1ib_1_1_i_b_data_holder.html" target="_top" xlink:title=" ">
<polygon fill="white" stroke="#666666" points="428,-78 267,-78 267,-48 428,-48 428,-78"/>
<text text-anchor="start" x="275" y="-66" font-family="Helvetica,sans-Serif" font-size="10.00">kynema_sgf::ib::IBDataHolder</text>
<text text-anchor="middle" x="347.5" y="-55" font-family="Helvetica,sans-Serif" font-size="10.00">&lt; Cylinder &gt;</text>
</a>
</g>
</g>
<!-- Node1&#45;&gt;Node3 -->
<g id="edge2_Node000001_Node000003" class="edge">
<title>Node1&#45;&gt;Node3</title>
<g id="a_edge2_Node000001_Node000003"><a xlink:title=" ">
<path fill="none" stroke="orange" stroke-dasharray="5,2" d="M171.34,-63C202.22,-63 236.55,-63 266.59,-63"/>
<polygon fill="orange" stroke="orange" points="171.01,-59.5 161.01,-63 171.01,-66.5 171.01,-59.5"/>
</a>
</g>
<text text-anchor="start" x="182" y="-68.5" font-family="Helvetica,sans-Serif" font-size="10.00" fill="grey">&lt; Cylinder &gt;</text>
</g>
<!-- Node4 -->
<g id="Node000004" class="node">
<title>Node4</title>
<g id="a_Node000004"><a xlink:href="classkynema__sgf_1_1ib_1_1_i_b_data_holder.html" target="_top" xlink:title=" ">
<polygon fill="white" stroke="#666666" points="428,-30 267,-30 267,0 428,0 428,-30"/>
<text text-anchor="start" x="275" y="-18" font-family="Helvetica,sans-Serif" font-size="10.00">kynema_sgf::ib::IBDataHolder</text>
<text text-anchor="middle" x="347.5" y="-7" font-family="Helvetica,sans-Serif" font-size="10.00">&lt; Sphere &gt;</text>
</a>
</g>
</g>
<!-- Node1&#45;&gt;Node4 -->
<g id="edge3_Node000001_Node000004" class="edge">
<title>Node1&#45;&gt;Node4</title>
<g id="a_edge3_Node000001_Node000004"><a xlink:title=" ">
<path fill="none" stroke="orange" stroke-dasharray="5,2" d="M158.97,-45.93C165.73,-44.56 172.48,-43.23 179,-42 207.51,-36.64 238.88,-31.4 266.69,-26.99"/>
<polygon fill="orange" stroke="orange" points="158.16,-42.52 149.07,-47.97 159.57,-49.38 158.16,-42.52"/>
</a>
</g>
<text text-anchor="start" x="186" y="-47.5" font-family="Helvetica,sans-Serif" font-size="10.00" fill="grey">&lt; Sphere &gt;</text>
</g>
</g>
</svg>
