<?xml version="1.0" encoding="UTF-8" standalone="no"?>
<!DOCTYPE svg PUBLIC "-//W3C//DTD SVG 1.1//EN"
 "http://www.w3.org/Graphics/SVG/1.1/DTD/svg11.dtd">
<!-- Generated by graphviz version 2.43.0 (0)
 -->
<!-- Title: kynema_sgf::turbulence::TurbModelBase&lt; Transport &gt; Pages: 1 -->
<!--zoomable 326 -->

<svg id="main" version="1.1" xmlns="http://www.w3.org/2000/svg" xmlns:xlink="http://www.w3.org/1999/xlink" xml:space="preserve" onload="init(evt)">

<style type="text/css"><![CDATA[
.node, .edge {opacity: 0.7;}
.node.selected, .edge.selected {opacity: 1;}
.edge:hover path { stroke: red; }
.edge:hover polygon { stroke: red; fill: red; }
]]></style>

<defs>
  <circle id="rim" cx="0" cy="0" r="7"/>
  <circle id="rim2" cx="0" cy="0" r="3.5"/>
  <g id="zoomPlus">
    <use xlink:href="#rim" fill="#404040"><set attributeName="fill" to="#808080" begin="zoomplus.mouseover" end="zoomplus.mouseout"/></use>
    <path d="M-4,0h8M0,-4v8" fill="none" stroke="white" stroke-width="1.5" pointer-events="none"/>
  </g>
  <g id="zoomMin">
    <use xlink:href="#rim" fill="#404040"><set attributeName="fill" to="#808080" begin="zoomminus.mouseover" end="zoomminus.mouseout"/></use>
    <path d="M-4,0h8" fill="none" stroke="white" stroke-width="1.5" pointer-events="none"/>
  </g>
  <g id="arrowUp" transform="translate(30 24)">
    <use xlink:href="#rim"/>
    <path pointer-events="none" fill="none" stroke="white" stroke-width="1.5" d="M0,-3.0v7 M-2.5,-0.5L0,-3.0L2.5,-0.5"/>
  </g>
  <g id="arrowRight" transform="rotate(90) translate(36 -43)">
    <use xlink:href="#rim"/>
    <path pointer-events="none" fill="none" stroke="white" stroke-width="1.5" d="M0,-3.0v7 M-2.5,-0.5L0,-3.0L2.5,-0.5"/>
  </g>
  <g id="arrowDown" transform="rotate(180) translate(-30 -48)">
    <use xlink:href="#rim"/>
    <path pointer-events="none" fill="none" stroke="white" stroke-width="1.5" d="M0,-3.0v7 M-2.5,-0.5L0,-3.0L2.5,-0.5"/>
  </g>
  <g id="arrowLeft" transform="rotate(270) translate(-36 17)">
    <use xlink:href="#rim"/>
    <path pointer-events="none" fill="none" stroke="white" stroke-width="1.5" d="M0,-3.0v7 M-2.5,-0.5L0,-3.0L2.5,-0.5"/>
  </g>
  <g id="resetDef">
    <use xlink:href="#rim2" fill="#404040"><set attributeName="fill" to="#808080" begin="reset.mouseover" end="reset.mouseout"/></use>
  </g>
</defs>
<script type="application/ecmascript">
var viewWidth = 1399;
var viewHeight = 326;
var sectionId = 'dynsection-0';
</script>
<script type="application/ecmascript" xlink:href="svg.min.js"/>
<svg id="graph" class="graph">
<g id="viewport">
<title>kynema_sgf::turbulence::TurbModelBase&lt; Transport &gt;</title>
<!-- Node1 -->
<g id="Node000001" class="node">
<title>Node1</title>
<g id="a_Node000001"><a xlink:title=" ">
<polygon fill="#999999" stroke="#666666" points="980,-174 816,-174 816,-144 980,-144 980,-174"/>
<text text-anchor="start" x="824" y="-162" font-family="Helvetica,sans-Serif" font-size="10.00">kynema_sgf::turbulence</text>
<text text-anchor="middle" x="898" y="-151" font-family="Helvetica,sans-Serif" font-size="10.00">::TurbModelBase&lt; Transport &gt;</text>
</a>
</g>
</g>
<!-- Node6 -->
<g id="Node000006" class="node">
<title>Node6</title>
<g id="a_Node000006"><a xlink:href="classkynema__sgf_1_1turbulence_1_1_a_m_d.html" target="_top" xlink:title=" ">
<polygon fill="white" stroke="#666666" points="1162.5,-318 1029.5,-318 1029.5,-288 1162.5,-288 1162.5,-318"/>
<text text-anchor="start" x="1037.5" y="-306" font-family="Helvetica,sans-Serif" font-size="10.00">kynema_sgf::turbulence</text>
<text text-anchor="middle" x="1096" y="-295" font-family="Helvetica,sans-Serif" font-size="10.00">::AMD&lt; Transport &gt;</text>
</a>
</g>
</g>
<!-- Node1&#45;&gt;Node6 -->
<g id="edge5_Node000001_Node000006" class="edge">
<title>Node1&#45;&gt;Node6</title>
<g id="a_edge5_Node000001_Node000006"><a xlink:title=" ">
<path fill="none" stroke="#63b8ff" d="M916.1,-182.4C937.01,-209.41 974.87,-253.39 1017,-279 1022.57,-282.39 1028.66,-285.33 1034.89,-287.88"/>
<polygon fill="#63b8ff" stroke="#63b8ff" points="918.76,-180.11 909.92,-174.27 913.19,-184.35 918.76,-180.11"/>
</a>
</g>
</g>
<!-- Node7 -->
<g id="Node000007" class="node">
<title>Node7</title>
<g id="a_Node000007"><a xlink:href="classkynema__sgf_1_1turbulence_1_1_a_m_d_no_therm.html" target="_top" xlink:title=" ">
<polygon fill="white" stroke="#666666" points="1175,-270 1017,-270 1017,-240 1175,-240 1175,-270"/>
<text text-anchor="start" x="1025" y="-258" font-family="Helvetica,sans-Serif" font-size="10.00">kynema_sgf::turbulence</text>
<text text-anchor="middle" x="1096" y="-247" font-family="Helvetica,sans-Serif" font-size="10.00">::AMDNoTherm&lt; Transport &gt;</text>
</a>
</g>
</g>
<!-- Node1&#45;&gt;Node7 -->
<g id="edge6_Node000001_Node000007" class="edge">
<title>Node1&#45;&gt;Node7</title>
<g id="a_edge6_Node000001_Node000007"><a xlink:title=" ">
<path fill="none" stroke="#63b8ff" d="M928.64,-179.96C951.85,-195.64 985.37,-216.76 1017,-231 1024.23,-234.26 1032.04,-237.24 1039.81,-239.91"/>
<polygon fill="#63b8ff" stroke="#63b8ff" points="930.51,-177 920.28,-174.24 926.56,-182.78 930.51,-177"/>
</a>
</g>
</g>
<!-- Node8 -->
<g id="Node000008" class="node">
<title>Node8</title>
<g id="a_Node000008"><a xlink:href="classkynema__sgf_1_1turbulence_1_1_k_l_axell.html" target="_top" xlink:title=" ">
<polygon fill="white" stroke="#666666" points="1162.5,-222 1029.5,-222 1029.5,-192 1162.5,-192 1162.5,-222"/>
<text text-anchor="start" x="1037.5" y="-210" font-family="Helvetica,sans-Serif" font-size="10.00">kynema_sgf::turbulence</text>
<text text-anchor="middle" x="1096" y="-199" font-family="Helvetica,sans-Serif" font-size="10.00">::KLAxell&lt; Transport &gt;</text>
</a>
</g>
</g>
<!-- Node1&#45;&gt;Node8 -->
<g id="edge7_Node000001_Node000008" class="edge">
<title>Node1&#45;&gt;Node8</title>
<g id="a_edge7_Node000001_Node000008"><a xlink:title=" ">
<path fill="none" stroke="#63b8ff" d="M970.22,-176.44C991.04,-181.54 1013.6,-187.07 1033.74,-192"/>
<polygon fill="#63b8ff" stroke="#63b8ff" points="971.02,-173.04 960.48,-174.06 969.36,-179.83 971.02,-173.04"/>
</a>
</g>
</g>
<!-- Node9 -->
<g id="Node000009" class="node">
<title>Node9</title>
<g id="a_Node000009"><a xlink:href="classkynema__sgf_1_1turbulence_1_1_k_omega_s_s_t.html" target="_top" xlink:title=" ">
<polygon fill="white" stroke="#666666" points="1170.5,-174 1021.5,-174 1021.5,-144 1170.5,-144 1170.5,-174"/>
<text text-anchor="start" x="1029.5" y="-162" font-family="Helvetica,sans-Serif" font-size="10.00">kynema_sgf::turbulence</text>
<text text-anchor="middle" x="1096" y="-151" font-family="Helvetica,sans-Serif" font-size="10.00">::KOmegaSST&lt; Transport &gt;</text>
</a>
</g>
</g>
<!-- Node1&#45;&gt;Node9 -->
<g id="edge8_Node000001_Node000009" class="edge">
<title>Node1&#45;&gt;Node9</title>
<g id="a_edge8_Node000001_Node000009"><a xlink:title=" ">
<path fill="none" stroke="#63b8ff" d="M990.15,-159C1000.64,-159 1011.24,-159 1021.45,-159"/>
<polygon fill="#63b8ff" stroke="#63b8ff" points="990.14,-155.5 980.14,-159 990.14,-162.5 990.14,-155.5"/>
</a>
</g>
</g>
<!-- Node11 -->
<g id="Node000011" class="node">
<title>Node11</title>
<g id="a_Node000011"><a xlink:href="classkynema__sgf_1_1turbulence_1_1_kosovic.html" target="_top" xlink:title=" ">
<polygon fill="white" stroke="#666666" points="1162.5,-126 1029.5,-126 1029.5,-96 1162.5,-96 1162.5,-126"/>
<text text-anchor="start" x="1037.5" y="-114" font-family="Helvetica,sans-Serif" font-size="10.00">kynema_sgf::turbulence</text>
<text text-anchor="middle" x="1096" y="-103" font-family="Helvetica,sans-Serif" font-size="10.00">::Kosovic&lt; Transport &gt;</text>
</a>
</g>
</g>
<!-- Node1&#45;&gt;Node11 -->
<g id="edge10_Node000001_Node000011" class="edge">
<title>Node1&#45;&gt;Node11</title>
<g id="a_edge10_Node000001_Node000011"><a xlink:title=" ">
<path fill="none" stroke="#63b8ff" d="M970.22,-141.56C991.04,-136.46 1013.6,-130.93 1033.74,-126"/>
<polygon fill="#63b8ff" stroke="#63b8ff" points="969.36,-138.17 960.48,-143.94 971.02,-144.96 969.36,-138.17"/>
</a>
</g>
</g>
<!-- Node12 -->
<g id="Node000012" class="node">
<title>Node12</title>
<g id="a_Node000012"><a xlink:href="classkynema__sgf_1_1turbulence_1_1_one_eq_ksgs.html" target="_top" xlink:title=" ">
<polygon fill="white" stroke="#666666" points="1168.5,-78 1023.5,-78 1023.5,-48 1168.5,-48 1168.5,-78"/>
<text text-anchor="start" x="1031.5" y="-66" font-family="Helvetica,sans-Serif" font-size="10.00">kynema_sgf::turbulence</text>
<text text-anchor="middle" x="1096" y="-55" font-family="Helvetica,sans-Serif" font-size="10.00">::OneEqKsgs&lt; Transport &gt;</text>
</a>
</g>
</g>
<!-- Node1&#45;&gt;Node12 -->
<g id="edge11_Node000001_Node000012" class="edge">
<title>Node1&#45;&gt;Node12</title>
<g id="a_edge11_Node000001_Node000012"><a xlink:title=" ">
<path fill="none" stroke="#63b8ff" d="M928.64,-138.04C951.85,-122.36 985.37,-101.24 1017,-87 1024.23,-83.74 1032.04,-80.76 1039.81,-78.09"/>
<polygon fill="#63b8ff" stroke="#63b8ff" points="926.56,-135.22 920.28,-143.76 930.51,-141 926.56,-135.22"/>
</a>
</g>
</g>
<!-- Node15 -->
<g id="Node000015" class="node">
<title>Node15</title>
<g id="a_Node000015"><a xlink:href="classkynema__sgf_1_1turbulence_1_1_smagorinsky.html" target="_top" xlink:title=" ">
<polygon fill="white" stroke="#666666" points="1172.5,-30 1019.5,-30 1019.5,0 1172.5,0 1172.5,-30"/>
<text text-anchor="start" x="1027.5" y="-18" font-family="Helvetica,sans-Serif" font-size="10.00">kynema_sgf::turbulence</text>
<text text-anchor="middle" x="1096" y="-7" font-family="Helvetica,sans-Serif" font-size="10.00">::Smagorinsky&lt; Transport &gt;</text>
</a>
</g>
</g>
<!-- Node1&#45;&gt;Node15 -->
<g id="edge14_Node000001_Node000015" class="edge">
<title>Node1&#45;&gt;Node15</title>
<g id="a_edge14_Node000001_Node000015"><a xlink:title=" ">
<path fill="none" stroke="#63b8ff" d="M916.1,-135.6C937.01,-108.59 974.87,-64.61 1017,-39 1022.57,-35.61 1028.66,-32.67 1034.89,-30.12"/>
<polygon fill="#63b8ff" stroke="#63b8ff" points="913.19,-133.65 909.92,-143.73 918.76,-137.89 913.19,-133.65"/>
</a>
</g>
</g>
<!-- Node2 -->
<g id="Node000002" class="node">
<title>Node2</title>
<g id="a_Node000002"><a xlink:href="classkynema__sgf_1_1turbulence_1_1_turb_model.html" target="_top" xlink:title=" ">
<polygon fill="white" stroke="#666666" points="779,-174 639,-174 639,-144 779,-144 779,-174"/>
<text text-anchor="start" x="647" y="-162" font-family="Helvetica,sans-Serif" font-size="10.00">kynema_sgf::turbulence</text>
<text text-anchor="middle" x="709" y="-151" font-family="Helvetica,sans-Serif" font-size="10.00">::TurbModel&lt; Transport &gt;</text>
</a>
</g>
</g>
<!-- Node2&#45;&gt;Node1 -->
<g id="edge1_Node000001_Node000002" class="edge">
<title>Node2&#45;&gt;Node1</title>
<g id="a_edge1_Node000001_Node000002"><a xlink:title=" ">
<path fill="none" stroke="#63b8ff" d="M789.31,-159C798.1,-159 807.05,-159 815.85,-159"/>
<polygon fill="#63b8ff" stroke="#63b8ff" points="789.1,-155.5 779.1,-159 789.1,-162.5 789.1,-155.5"/>
</a>
</g>
</g>
<!-- Node3 -->
<g id="Node000003" class="node">
<title>Node3</title>
<g id="a_Node000003"><a xlink:href="classkynema__sgf_1_1turbulence_1_1_turbulence_model.html" target="_top" xlink:title=" ">
<polygon fill="white" stroke="#666666" points="602,-174 469,-174 469,-144 602,-144 602,-174"/>
<text text-anchor="start" x="477" y="-162" font-family="Helvetica,sans-Serif" font-size="10.00">kynema_sgf::turbulence</text>
<text text-anchor="middle" x="535.5" y="-151" font-family="Helvetica,sans-Serif" font-size="10.00">::TurbulenceModel</text>
</a>
</g>
</g>
<!-- Node3&#45;&gt;Node2 -->
<g id="edge2_Node000002_Node000003" class="edge">
<title>Node3&#45;&gt;Node2</title>
<g id="a_edge2_Node000002_Node000003"><a xlink:title=" ">
<path fill="none" stroke="#63b8ff" d="M612.55,-159C621.33,-159 630.26,-159 638.95,-159"/>
<polygon fill="#63b8ff" stroke="#63b8ff" points="612.32,-155.5 602.32,-159 612.32,-162.5 612.32,-155.5"/>
</a>
</g>
</g>
<!-- Node4 -->
<g id="Node000004" class="node">
<title>Node4</title>
<g id="a_Node000004"><a xlink:href="structkynema__sgf_1_1_factory.html" target="_top" xlink:title=" ">
<polygon fill="white" stroke="#666666" points="432,-174 255,-174 255,-144 432,-144 432,-174"/>
<text text-anchor="start" x="263" y="-162" font-family="Helvetica,sans-Serif" font-size="10.00">kynema_sgf::Factory</text>
<text text-anchor="middle" x="343.5" y="-151" font-family="Helvetica,sans-Serif" font-size="10.00">&lt; TurbulenceModel, CFDSim &amp; &gt;</text>
</a>
</g>
</g>
<!-- Node4&#45;&gt;Node3 -->
<g id="edge3_Node000003_Node000004" class="edge">
<title>Node4&#45;&gt;Node3</title>
<g id="a_edge3_Node000003_Node000004"><a xlink:title=" ">
<path fill="none" stroke="#63b8ff" d="M442.42,-159C451.41,-159 460.37,-159 468.97,-159"/>
<polygon fill="#63b8ff" stroke="#63b8ff" points="442.27,-155.5 432.27,-159 442.27,-162.5 442.27,-155.5"/>
</a>
</g>
</g>
<!-- Node5 -->
<g id="Node000005" class="node">
<title>Node5</title>
<g id="a_Node000005"><a xlink:href="structkynema__sgf_1_1_factory.html" target="_top" xlink:title=" ">
<polygon fill="white" stroke="#666666" points="116,-174 0,-174 0,-144 116,-144 116,-174"/>
<text text-anchor="start" x="8" y="-162" font-family="Helvetica,sans-Serif" font-size="10.00">kynema_sgf::Factory</text>
<text text-anchor="middle" x="58" y="-151" font-family="Helvetica,sans-Serif" font-size="10.00">&lt; Base, Args &gt;</text>
</a>
</g>
</g>
<!-- Node5&#45;&gt;Node4 -->
<g id="edge4_Node000004_Node000005" class="edge">
<title>Node5&#45;&gt;Node4</title>
<g id="a_edge4_Node000004_Node000005"><a xlink:title=" ">
<path fill="none" stroke="orange" stroke-dasharray="5,2" d="M126.09,-159C164.58,-159 213.35,-159 254.84,-159"/>
<polygon fill="orange" stroke="orange" points="126.03,-155.5 116.03,-159 126.03,-162.5 126.03,-155.5"/>
</a>
</g>
<text text-anchor="start" x="137.5" y="-180" font-family="Helvetica,sans-Serif" font-size="10.00" fill="grey">&lt; TurbulenceModel,</text>
<text text-anchor="start" x="137.5" y="-165" font-family="Helvetica,sans-Serif" font-size="10.00" fill="grey">   CFDSim &amp; &gt;</text>
</g>
<!-- Node10 -->
<g id="Node000010" class="node">
<title>Node10</title>
<g id="a_Node000010"><a xlink:href="classkynema__sgf_1_1turbulence_1_1_k_omega_s_s_t_i_d_d_e_s.html" target="_top" xlink:title=" ">
<polygon fill="white" stroke="#666666" points="1391,-174 1212,-174 1212,-144 1391,-144 1391,-174"/>
<text text-anchor="start" x="1220" y="-162" font-family="Helvetica,sans-Serif" font-size="10.00">kynema_sgf::turbulence</text>
<text text-anchor="middle" x="1301.5" y="-151" font-family="Helvetica,sans-Serif" font-size="10.00">::KOmegaSSTIDDES&lt; Transport &gt;</text>
</a>
</g>
</g>
<!-- Node9&#45;&gt;Node10 -->
<g id="edge9_Node000009_Node000010" class="edge">
<title>Node9&#45;&gt;Node10</title>
<g id="a_edge9_Node000009_Node000010"><a xlink:title=" ">
<path fill="none" stroke="#63b8ff" d="M1180.85,-159C1191.04,-159 1201.49,-159 1211.75,-159"/>
<polygon fill="#63b8ff" stroke="#63b8ff" points="1180.76,-155.5 1170.76,-159 1180.76,-162.5 1180.76,-155.5"/>
</a>
</g>
</g>
<!-- Node13 -->
<g id="Node000013" class="node">
<title>Node13</title>
<g id="a_Node000013"><a xlink:href="classkynema__sgf_1_1turbulence_1_1_one_eq_ksgs_m84.html" target="_top" xlink:title=" ">
<polygon fill="white" stroke="#666666" points="1384.5,-102 1218.5,-102 1218.5,-72 1384.5,-72 1384.5,-102"/>
<text text-anchor="start" x="1226.5" y="-90" font-family="Helvetica,sans-Serif" font-size="10.00">kynema_sgf::turbulence</text>
<text text-anchor="middle" x="1301.5" y="-79" font-family="Helvetica,sans-Serif" font-size="10.00">::OneEqKsgsM84&lt; Transport &gt;</text>
</a>
</g>
</g>
<!-- Node12&#45;&gt;Node13 -->
<g id="edge12_Node000012_Node000013" class="edge">
<title>Node12&#45;&gt;Node13</title>
<g id="a_edge12_Node000012_Node000013"><a xlink:title=" ">
<path fill="none" stroke="#63b8ff" d="M1179.01,-72.67C1191.95,-74.2 1205.34,-75.78 1218.28,-77.3"/>
<polygon fill="#63b8ff" stroke="#63b8ff" points="1179.09,-69.16 1168.75,-71.46 1178.27,-76.11 1179.09,-69.16"/>
</a>
</g>
</g>
<!-- Node14 -->
<g id="Node000014" class="node">
<title>Node14</title>
<g id="a_Node000014"><a xlink:href="classkynema__sgf_1_1turbulence_1_1_one_eq_ksgs_s94.html" target="_top" xlink:title=" ">
<polygon fill="white" stroke="#666666" points="1383,-54 1220,-54 1220,-24 1383,-24 1383,-54"/>
<text text-anchor="start" x="1228" y="-42" font-family="Helvetica,sans-Serif" font-size="10.00">kynema_sgf::turbulence</text>
<text text-anchor="middle" x="1301.5" y="-31" font-family="Helvetica,sans-Serif" font-size="10.00">::OneEqKsgsS94&lt; Transport &gt;</text>
</a>
</g>
</g>
<!-- Node12&#45;&gt;Node14 -->
<g id="edge13_Node000012_Node000014" class="edge">
<title>Node12&#45;&gt;Node14</title>
<g id="a_edge13_Node000012_Node000014"><a xlink:title=" ">
<path fill="none" stroke="#63b8ff" d="M1178.91,-53.34C1192.35,-51.75 1206.27,-50.11 1219.69,-48.53"/>
<polygon fill="#63b8ff" stroke="#63b8ff" points="1178.27,-49.89 1168.75,-54.54 1179.09,-56.84 1178.27,-49.89"/>
</a>
</g>
</g>
</g>
</svg>

<g id="navigator" transform="translate(0 0)" fill="#404254">
  <rect fill="#f2f5e9" fill-opacity="0.5" stroke="#606060" stroke-width=".5" x="0" y="0" width="60" height="60"/>
  <use id="zoomplus" xlink:href="#zoomPlus" x="17" y="9" onmousedown="handleZoom(evt,'in')"/>
  <use id="zoomminus" xlink:href="#zoomMin" x="42" y="9" onmousedown="handleZoom(evt,'out')"/>
  <use id="reset" xlink:href="#resetDef" x="30" y="36" onmousedown="handleReset()"/>
   <use id="arrowup" xlink:href="#arrowUp" x="0" y="0" onmousedown="handlePan(0,-1)"/>
  <use id="arrowright" xlink:href="#arrowRight" x="0" y="0" onmousedown="handlePan(1,0)"/>
  <use id="arrowdown" xlink:href="#arrowDown" x="0" y="0" onmousedown="handlePan(0,1)"/>
  <use id="arrowleft" xlink:href="#arrowLeft" x="0" y="0" onmousedown="handlePan(-1,0)"/>
</g>
<svg viewBox="0 0 15 15" width="100%" height="30px" preserveAspectRatio="xMaxYMin meet">
 <g id="arrow_out" transform="scale(0.3 0.3)">
  <a xlink:href="classkynema__sgf_1_1turbulence_1_1_turb_model_base__inherit__graph_org.svg" target="_base">
   <rect id="button" ry="5" rx="5" y="6" x="6" height="38" width="38"
        fill="#f2f5e9" fill-opacity="0.5" stroke="#606060" stroke-width="1.0"/>
   <path id="arrow"
     d="M 11.500037,31.436501 C 11.940474,20.09759 22.043105,11.32322 32.158766,21.979434 L 37.068811,17.246167 C 37.068811,17.246167 37.088388,32 37.088388,32 L 22.160133,31.978069 C 22.160133,31.978069 26.997745,27.140456 26.997745,27.140456 C 18.528582,18.264221 13.291696,25.230495 11.500037,31.436501 z"
     style="fill:#404040;"/>
  </a>
 </g>
</svg>

<style type='text/css'>
<![CDATA[
[data-mouse-over-selected='false'] { opacity: 0.7; }
[data-mouse-over-selected='true']  { opacity: 1.0; }
]]>
</style>
<script type="application/ecmascript"><![CDATA[
document.addEventListener('DOMContentLoaded', (event) => {
  highlightEdges();
  highlightAdjacentNodes();
});
]]></script>
</svg>
