<?xml version="1.0" encoding="UTF-8" standalone="no"?>
<!DOCTYPE svg PUBLIC "-//W3C//DTD SVG 1.1//EN"
 "http://www.w3.org/Graphics/SVG/1.1/DTD/svg11.dtd">
<!-- Generated by graphviz version 2.43.0 (0)
 -->
<!-- Title: kynema_sgf::RayleighTaylor Pages: 1 -->
<svg width="1599pt" height="345pt"
 viewBox="0.00 0.00 1599.00 344.50" xmlns="http://www.w3.org/2000/svg" xmlns:xlink="http://www.w3.org/1999/xlink">
<g id="graph0" class="graph" transform="scale(1 1) rotate(0) translate(4 340.5)">
<title>kynema_sgf::RayleighTaylor</title>
<!-- Node1 -->
<g id="Node000001" class="node">
<title>Node1</title>
<g id="a_Node000001"><a xlink:title=" ">
<polygon fill="#999999" stroke="#666666" points="1591,-178.5 1438,-178.5 1438,-159.5 1591,-159.5 1591,-178.5"/>
<text text-anchor="middle" x="1514.5" y="-166.5" font-family="Helvetica,sans-Serif" font-size="10.00">kynema_sgf::RayleighTaylor</text>
</a>
</g>
</g>
<!-- Node2 -->
<g id="Node000002" class="node">
<title>Node2</title>
<g id="a_Node000002"><a xlink:title=" ">
<polygon fill="white" stroke="#666666" points="1341,-237.5 1221,-237.5 1221,-196.5 1341,-196.5 1341,-237.5"/>
<text text-anchor="start" x="1229" y="-225.5" font-family="Helvetica,sans-Serif" font-size="10.00">kynema_sgf::Factory</text>
<text text-anchor="start" x="1229" y="-214.5" font-family="Helvetica,sans-Serif" font-size="10.00">&lt; Physics, CFDSim &amp;</text>
<text text-anchor="middle" x="1281" y="-203.5" font-family="Helvetica,sans-Serif" font-size="10.00"> &gt;::Register</text>
</a>
</g>
</g>
<!-- Node2&#45;&gt;Node1 -->
<g id="edge1_Node000001_Node000002" class="edge">
<title>Node2&#45;&gt;Node1</title>
<g id="a_edge1_Node000001_Node000002"><a xlink:title=" ">
<path fill="none" stroke="#63b8ff" d="M1351.27,-213.35C1373.42,-211.28 1397.91,-208.05 1420,-203 1445.42,-197.18 1473.39,-186.4 1492.05,-178.53"/>
<polygon fill="#63b8ff" stroke="#63b8ff" points="1350.94,-209.86 1341.28,-214.22 1351.55,-216.84 1350.94,-209.86"/>
</a>
</g>
</g>
<!-- Node3 -->
<g id="Node000003" class="node">
<title>Node3</title>
<g id="a_Node000003"><a xlink:href="classkynema__sgf_1_1_field.html" target="_top" xlink:title=" ">
<polygon fill="white" stroke="#666666" points="1333,-178.5 1229,-178.5 1229,-159.5 1333,-159.5 1333,-178.5"/>
<text text-anchor="middle" x="1281" y="-166.5" font-family="Helvetica,sans-Serif" font-size="10.00">kynema_sgf::Field</text>
</a>
</g>
</g>
<!-- Node3&#45;&gt;Node1 -->
<g id="edge2_Node000001_Node000003" class="edge">
<title>Node3&#45;&gt;Node1</title>
<g id="a_edge2_Node000001_Node000003"><a xlink:title=" ">
<path fill="none" stroke="#9a32cd" stroke-dasharray="5,2" d="M1343.1,-169C1372.17,-169 1407.2,-169 1437.92,-169"/>
<polygon fill="#9a32cd" stroke="#9a32cd" points="1343.09,-165.5 1333.09,-169 1343.09,-172.5 1343.09,-165.5"/>
</a>
</g>
<text text-anchor="start" x="1362.5" y="-190" font-family="Helvetica,sans-Serif" font-size="10.00" fill="grey">m_density</text>
<text text-anchor="start" x="1362.5" y="-175" font-family="Helvetica,sans-Serif" font-size="10.00" fill="grey">m_velocity</text>
</g>
<!-- Node4 -->
<g id="Node000004" class="node">
<title>Node4</title>
<g id="a_Node000004"><a xlink:href="classkynema__sgf_1_1_field_repo.html" target="_top" xlink:title=" ">
<polygon fill="white" stroke="#666666" points="1136.5,-199.5 1007.5,-199.5 1007.5,-180.5 1136.5,-180.5 1136.5,-199.5"/>
<text text-anchor="middle" x="1072" y="-187.5" font-family="Helvetica,sans-Serif" font-size="10.00">kynema_sgf::FieldRepo</text>
</a>
</g>
</g>
<!-- Node4&#45;&gt;Node3 -->
<g id="edge3_Node000003_Node000004" class="edge">
<title>Node4&#45;&gt;Node3</title>
<g id="a_edge3_Node000003_Node000004"><a xlink:title=" ">
<path fill="none" stroke="#9a32cd" stroke-dasharray="5,2" d="M1146.75,-182.52C1173.89,-179.76 1204.01,-176.71 1228.74,-174.2"/>
<polygon fill="#9a32cd" stroke="#9a32cd" points="1146.11,-179.07 1136.51,-183.56 1146.82,-186.03 1146.11,-179.07"/>
</a>
</g>
<text text-anchor="start" x="1163.5" y="-186.5" font-family="Helvetica,sans-Serif" font-size="10.00" fill="grey">m_repo</text>
</g>
<!-- Node5 -->
<g id="Node000005" class="node">
<title>Node5</title>
<g id="a_Node000005"><a xlink:title=" ">
<polygon fill="white" stroke="#666666" points="886.5,-223 764.5,-223 764.5,-193 886.5,-193 886.5,-223"/>
<text text-anchor="start" x="772.5" y="-211" font-family="Helvetica,sans-Serif" font-size="10.00">std::unordered_map</text>
<text text-anchor="middle" x="825.5" y="-200" font-family="Helvetica,sans-Serif" font-size="10.00">&lt; std::string, size_t &gt;</text>
</a>
</g>
</g>
<!-- Node5&#45;&gt;Node4 -->
<g id="edge4_Node000004_Node000005" class="edge">
<title>Node5&#45;&gt;Node4</title>
<g id="a_edge4_Node000004_Node000005"><a xlink:title=" ">
<path fill="none" stroke="#9a32cd" stroke-dasharray="5,2" d="M896.87,-197.8C899.61,-197.51 902.33,-197.24 905,-197 938.75,-193.93 976.49,-192.2 1007.45,-191.23"/>
<polygon fill="#9a32cd" stroke="#9a32cd" points="896.4,-194.33 886.86,-198.94 897.19,-201.29 896.4,-194.33"/>
</a>
</g>
<text text-anchor="start" x="908.5" y="-218" font-family="Helvetica,sans-Serif" font-size="10.00" fill="grey">m_fid_map</text>
<text text-anchor="start" x="908.5" y="-203" font-family="Helvetica,sans-Serif" font-size="10.00" fill="grey">m_int_fid_map</text>
</g>
<!-- Node6 -->
<g id="Node000006" class="node">
<title>Node6</title>
<g id="a_Node000006"><a xlink:title=" ">
<polygon fill="white" stroke="#666666" points="542.5,-235.5 477.5,-235.5 477.5,-216.5 542.5,-216.5 542.5,-235.5"/>
<text text-anchor="middle" x="510" y="-223.5" font-family="Helvetica,sans-Serif" font-size="10.00">std::string</text>
</a>
</g>
</g>
<!-- Node6&#45;&gt;Node3 -->
<g id="edge10_Node000003_Node000006" class="edge">
<title>Node6&#45;&gt;Node3</title>
<g id="a_edge10_Node000003_Node000006"><a xlink:title=" ">
<path fill="none" stroke="#9a32cd" stroke-dasharray="5,2" d="M552.58,-231.65C570.24,-233.79 591.09,-235.95 610,-237 670.35,-240.34 685.56,-238.02 746,-237 949.68,-233.58 1014.73,-279.8 1203,-202 1212.37,-198.13 1212.04,-192.74 1221,-188 1228.04,-184.28 1235.94,-181.12 1243.61,-178.51"/>
<polygon fill="#9a32cd" stroke="#9a32cd" points="552.94,-228.17 542.58,-230.41 552.07,-235.12 552.94,-228.17"/>
</a>
</g>
<text text-anchor="start" x="923.5" y="-252.5" font-family="Helvetica,sans-Serif" font-size="10.00" fill="grey">m_name</text>
</g>
<!-- Node6&#45;&gt;Node5 -->
<g id="edge5_Node000005_Node000006" class="edge">
<title>Node6&#45;&gt;Node5</title>
<g id="a_edge5_Node000005_Node000006"><a xlink:title=" ">
<path fill="none" stroke="#9a32cd" stroke-dasharray="5,2" d="M552.66,-223.43C570.34,-222.35 591.18,-221.1 610,-220 662.13,-216.96 721.39,-213.66 764.4,-211.29"/>
<polygon fill="#9a32cd" stroke="#9a32cd" points="552.42,-219.94 542.65,-224.04 552.85,-226.93 552.42,-219.94"/>
</a>
</g>
<text text-anchor="start" x="667" y="-225.5" font-family="Helvetica,sans-Serif" font-size="10.00" fill="grey">keys</text>
</g>
<!-- Node12 -->
<g id="Node000012" class="node">
<title>Node12</title>
<g id="a_Node000012"><a xlink:href="structkynema__sgf_1_1_field_info.html" target="_top" xlink:title=" ">
<polygon fill="white" stroke="#666666" points="887,-149.5 764,-149.5 764,-130.5 887,-130.5 887,-149.5"/>
<text text-anchor="middle" x="825.5" y="-137.5" font-family="Helvetica,sans-Serif" font-size="10.00">kynema_sgf::FieldInfo</text>
</a>
</g>
</g>
<!-- Node6&#45;&gt;Node12 -->
<g id="edge13_Node000012_Node000006" class="edge">
<title>Node6&#45;&gt;Node12</title>
<g id="a_edge13_Node000012_Node000006"><a xlink:title=" ">
<path fill="none" stroke="#9a32cd" stroke-dasharray="5,2" d="M544.99,-212.98C563.96,-205.96 588.11,-197.45 610,-191 641.85,-181.61 729.05,-161.52 781.95,-149.55"/>
<polygon fill="#9a32cd" stroke="#9a32cd" points="543.72,-209.71 535.58,-216.49 546.17,-216.27 543.72,-209.71"/>
</a>
</g>
<text text-anchor="start" x="645" y="-196.5" font-family="Helvetica,sans-Serif" font-size="10.00" fill="grey">m_basename</text>
</g>
<!-- Node7 -->
<g id="Node000007" class="node">
<title>Node7</title>
<g id="a_Node000007"><a xlink:title=" ">
<polygon fill="white" stroke="#666666" points="213.5,-246 109.5,-246 109.5,-216 213.5,-216 213.5,-246"/>
<text text-anchor="start" x="117.5" y="-234" font-family="Helvetica,sans-Serif" font-size="10.00">std::basic_string&lt;</text>
<text text-anchor="middle" x="161.5" y="-223" font-family="Helvetica,sans-Serif" font-size="10.00"> Char &gt;</text>
</a>
</g>
</g>
<!-- Node7&#45;&gt;Node6 -->
<g id="edge6_Node000006_Node000007" class="edge">
<title>Node7&#45;&gt;Node6</title>
<g id="a_edge6_Node000006_Node000007"><a xlink:title=" ">
<path fill="none" stroke="#63b8ff" d="M223.76,-230.12C297.92,-229.05 419.97,-227.28 477.34,-226.46"/>
<polygon fill="#63b8ff" stroke="#63b8ff" points="223.58,-226.62 213.63,-230.26 223.68,-233.62 223.58,-226.62"/>
</a>
</g>
</g>
<!-- Node8 -->
<g id="Node000008" class="node">
<title>Node8</title>
<g id="a_Node000008"><a xlink:title=" ">
<polygon fill="white" stroke="#666666" points="567,-299 453,-299 453,-269 567,-269 567,-299"/>
<text text-anchor="start" x="461" y="-287" font-family="Helvetica,sans-Serif" font-size="10.00">std::unordered_map</text>
<text text-anchor="middle" x="510" y="-276" font-family="Helvetica,sans-Serif" font-size="10.00">&lt; K, T &gt;</text>
</a>
</g>
</g>
<!-- Node8&#45;&gt;Node5 -->
<g id="edge7_Node000005_Node000008" class="edge">
<title>Node8&#45;&gt;Node5</title>
<g id="a_edge7_Node000005_Node000008"><a xlink:title=" ">
<path fill="none" stroke="orange" stroke-dasharray="5,2" d="M577.53,-275.75C625.09,-268.91 690.27,-257.6 746,-241 761.87,-236.27 778.88,-229.37 792.99,-223.09"/>
<polygon fill="orange" stroke="orange" points="576.77,-272.33 567.36,-277.19 577.75,-279.26 576.77,-272.33"/>
</a>
</g>
<text text-anchor="start" x="625" y="-275.5" font-family="Helvetica,sans-Serif" font-size="10.00" fill="grey">&lt; std::string, size_t &gt;</text>
</g>
<!-- Node9 -->
<g id="Node000009" class="node">
<title>Node9</title>
<g id="a_Node000009"><a xlink:title=" ">
<polygon fill="white" stroke="#666666" points="176,-336.5 147,-336.5 147,-317.5 176,-317.5 176,-336.5"/>
<text text-anchor="middle" x="161.5" y="-324.5" font-family="Helvetica,sans-Serif" font-size="10.00">K</text>
</a>
</g>
</g>
<!-- Node9&#45;&gt;Node8 -->
<g id="edge8_Node000008_Node000009" class="edge">
<title>Node9&#45;&gt;Node8</title>
<g id="a_edge8_Node000008_Node000009"><a xlink:title=" ">
<path fill="none" stroke="#9a32cd" stroke-dasharray="5,2" d="M186.12,-324.07C240.46,-317.33 375.58,-300.56 452.71,-290.99"/>
<polygon fill="#9a32cd" stroke="#9a32cd" points="185.58,-320.61 176.08,-325.31 186.44,-327.56 185.58,-320.61"/>
</a>
</g>
<text text-anchor="start" x="322" y="-319.5" font-family="Helvetica,sans-Serif" font-size="10.00" fill="grey">keys</text>
</g>
<!-- Node10 -->
<g id="Node000010" class="node">
<title>Node10</title>
<g id="a_Node000010"><a xlink:title=" ">
<polygon fill="white" stroke="#666666" points="29,-126.5 0,-126.5 0,-107.5 29,-107.5 29,-126.5"/>
<text text-anchor="middle" x="14.5" y="-114.5" font-family="Helvetica,sans-Serif" font-size="10.00">T</text>
</a>
</g>
</g>
<!-- Node10&#45;&gt;Node8 -->
<g id="edge9_Node000008_Node000010" class="edge">
<title>Node10&#45;&gt;Node8</title>
<g id="a_edge9_Node000008_Node000010"><a xlink:title=" ">
<path fill="none" stroke="#9a32cd" stroke-dasharray="5,2" d="M19.1,-136.94C25.9,-168.12 43.8,-227.64 85,-255 143.77,-294.04 351.37,-290.93 452.63,-286.86"/>
<polygon fill="#9a32cd" stroke="#9a32cd" points="22.48,-135.97 17.08,-126.86 15.61,-137.35 22.48,-135.97"/>
</a>
</g>
<text text-anchor="start" x="138.5" y="-291.5" font-family="Helvetica,sans-Serif" font-size="10.00" fill="grey">elements</text>
</g>
<!-- Node15 -->
<g id="Node000015" class="node">
<title>Node15</title>
<g id="a_Node000015"><a xlink:title=" ">
<polygon fill="white" stroke="#666666" points="220.5,-126.5 102.5,-126.5 102.5,-107.5 220.5,-107.5 220.5,-126.5"/>
<text text-anchor="middle" x="161.5" y="-114.5" font-family="Helvetica,sans-Serif" font-size="10.00">std::unique_ptr&lt; T &gt;</text>
</a>
</g>
</g>
<!-- Node10&#45;&gt;Node15 -->
<g id="edge17_Node000015_Node000010" class="edge">
<title>Node10&#45;&gt;Node15</title>
<g id="a_edge17_Node000015_Node000010"><a xlink:title=" ">
<path fill="none" stroke="#9a32cd" stroke-dasharray="5,2" d="M39.33,-117C56.46,-117 80.31,-117 102.32,-117"/>
<polygon fill="#9a32cd" stroke="#9a32cd" points="39.14,-113.5 29.14,-117 39.14,-120.5 39.14,-113.5"/>
</a>
</g>
<text text-anchor="start" x="50" y="-122.5" font-family="Helvetica,sans-Serif" font-size="10.00" fill="grey">ptr</text>
</g>
<!-- Node16 -->
<g id="Node000016" class="node">
<title>Node16</title>
<g id="a_Node000016"><a xlink:title=" ">
<polygon fill="white" stroke="#666666" points="392,-56.5 274,-56.5 274,-37.5 392,-37.5 392,-56.5"/>
<text text-anchor="middle" x="333" y="-44.5" font-family="Helvetica,sans-Serif" font-size="10.00">std::shared_ptr&lt; T &gt;</text>
</a>
</g>
</g>
<!-- Node10&#45;&gt;Node16 -->
<g id="edge19_Node000016_Node000010" class="edge">
<title>Node10&#45;&gt;Node16</title>
<g id="a_edge19_Node000016_Node000010"><a xlink:title=" ">
<path fill="none" stroke="#9a32cd" stroke-dasharray="5,2" d="M35.77,-101.73C39.37,-99.54 43.19,-97.52 47,-96 121.86,-66.18 214.88,-54.49 273.86,-49.92"/>
<polygon fill="#9a32cd" stroke="#9a32cd" points="33.76,-98.87 27.4,-107.34 37.65,-104.68 33.76,-98.87"/>
</a>
</g>
<text text-anchor="start" x="50" y="-101.5" font-family="Helvetica,sans-Serif" font-size="10.00" fill="grey">ptr</text>
</g>
<!-- Node11 -->
<g id="Node000011" class="node">
<title>Node11</title>
<g id="a_Node000011"><a xlink:title=" ">
<polygon fill="white" stroke="#666666" points="1142,-155 1002,-155 1002,-125 1142,-125 1142,-155"/>
<text text-anchor="start" x="1010" y="-143" font-family="Helvetica,sans-Serif" font-size="10.00">std::shared_ptr&lt; kynema</text>
<text text-anchor="middle" x="1072" y="-132" font-family="Helvetica,sans-Serif" font-size="10.00">_sgf::FieldInfo &gt;</text>
</a>
</g>
</g>
<!-- Node11&#45;&gt;Node3 -->
<g id="edge11_Node000003_Node000011" class="edge">
<title>Node11&#45;&gt;Node3</title>
<g id="a_edge11_Node000003_Node000011"><a xlink:title=" ">
<path fill="none" stroke="#9a32cd" stroke-dasharray="5,2" d="M1152.47,-150.08C1169.17,-152.28 1186.67,-154.66 1203,-157 1211.3,-158.19 1220.1,-159.51 1228.67,-160.82"/>
<polygon fill="#9a32cd" stroke="#9a32cd" points="1152.57,-146.56 1142.2,-148.73 1151.66,-153.5 1152.57,-146.56"/>
</a>
</g>
<text text-anchor="start" x="1164.5" y="-162.5" font-family="Helvetica,sans-Serif" font-size="10.00" fill="grey">m_info</text>
</g>
<!-- Node12&#45;&gt;Node11 -->
<g id="edge12_Node000011_Node000012" class="edge">
<title>Node12&#45;&gt;Node11</title>
<g id="a_edge12_Node000011_Node000012"><a xlink:title=" ">
<path fill="none" stroke="#9a32cd" stroke-dasharray="5,2" d="M897.26,-140C930.18,-140 969.21,-140 1001.92,-140"/>
<polygon fill="#9a32cd" stroke="#9a32cd" points="897.25,-136.5 887.25,-140 897.25,-143.5 897.25,-136.5"/>
</a>
</g>
<text text-anchor="start" x="937.5" y="-145.5" font-family="Helvetica,sans-Serif" font-size="10.00" fill="grey">ptr</text>
</g>
<!-- Node13 -->
<g id="Node000013" class="node">
<title>Node13</title>
<g id="a_Node000013"><a xlink:title=" ">
<polygon fill="white" stroke="#666666" points="590,-156 430,-156 430,-126 590,-126 590,-156"/>
<text text-anchor="start" x="438" y="-144" font-family="Helvetica,sans-Serif" font-size="10.00">std::unique_ptr&lt; kynema</text>
<text text-anchor="middle" x="510" y="-133" font-family="Helvetica,sans-Serif" font-size="10.00">_sgf::FieldFillPatchOpsBase &gt;</text>
</a>
</g>
</g>
<!-- Node13&#45;&gt;Node12 -->
<g id="edge14_Node000012_Node000013" class="edge">
<title>Node13&#45;&gt;Node12</title>
<g id="a_edge14_Node000012_Node000013"><a xlink:title=" ">
<path fill="none" stroke="#9a32cd" stroke-dasharray="5,2" d="M600.18,-140.06C603.5,-140.04 606.78,-140.02 610,-140 661.95,-139.74 720.97,-139.76 763.94,-139.84"/>
<polygon fill="#9a32cd" stroke="#9a32cd" points="600.14,-136.56 590.16,-140.13 600.19,-143.56 600.14,-136.56"/>
</a>
</g>
<text text-anchor="start" x="642" y="-145.5" font-family="Helvetica,sans-Serif" font-size="10.00" fill="grey">m_fillpatch_op</text>
</g>
<!-- Node14 -->
<g id="Node000014" class="node">
<title>Node14</title>
<g id="a_Node000014"><a xlink:href="classkynema__sgf_1_1_field_fill_patch_ops_base.html" target="_top" xlink:title=" ">
<polygon fill="white" stroke="#666666" points="234,-198 89,-198 89,-168 234,-168 234,-198"/>
<text text-anchor="start" x="97" y="-186" font-family="Helvetica,sans-Serif" font-size="10.00">kynema_sgf::FieldFillPatch</text>
<text text-anchor="middle" x="161.5" y="-175" font-family="Helvetica,sans-Serif" font-size="10.00">OpsBase</text>
</a>
</g>
</g>
<!-- Node14&#45;&gt;Node13 -->
<g id="edge15_Node000013_Node000014" class="edge">
<title>Node14&#45;&gt;Node13</title>
<g id="a_edge15_Node000013_Node000014"><a xlink:title=" ">
<path fill="none" stroke="#9a32cd" stroke-dasharray="5,2" d="M244.27,-182.26C292.72,-180.78 355.18,-177.04 410,-168 427.05,-165.19 445.39,-160.63 461.6,-156.06"/>
<polygon fill="#9a32cd" stroke="#9a32cd" points="244.05,-178.76 234.15,-182.54 244.24,-185.76 244.05,-178.76"/>
</a>
</g>
<text text-anchor="start" x="326" y="-187.5" font-family="Helvetica,sans-Serif" font-size="10.00" fill="grey">ptr</text>
</g>
<!-- Node15&#45;&gt;Node13 -->
<g id="edge16_Node000013_Node000015" class="edge">
<title>Node15&#45;&gt;Node13</title>
<g id="a_edge16_Node000013_Node000015"><a xlink:title=" ">
<path fill="none" stroke="orange" stroke-dasharray="5,2" d="M230.92,-121.74C288.15,-125.7 369.84,-131.36 429.88,-135.52"/>
<polygon fill="orange" stroke="orange" points="231.11,-118.24 220.89,-121.04 230.62,-125.23 231.11,-118.24"/>
</a>
</g>
<text text-anchor="start" x="263" y="-155" font-family="Helvetica,sans-Serif" font-size="10.00" fill="grey">&lt; kynema_sgf::FieldFillPatch</text>
<text text-anchor="start" x="263" y="-140" font-family="Helvetica,sans-Serif" font-size="10.00" fill="grey">  OpsBase &gt;</text>
</g>
<!-- Node17 -->
<g id="Node000017" class="node">
<title>Node17</title>
<g id="a_Node000017"><a xlink:title=" ">
<polygon fill="white" stroke="#666666" points="592,-70 428,-70 428,-40 592,-40 592,-70"/>
<text text-anchor="start" x="436" y="-58" font-family="Helvetica,sans-Serif" font-size="10.00">std::unique_ptr&lt; kynema</text>
<text text-anchor="middle" x="510" y="-47" font-family="Helvetica,sans-Serif" font-size="10.00">_sgf::RayleighTaylorFieldInit &gt;</text>
</a>
</g>
</g>
<!-- Node15&#45;&gt;Node17 -->
<g id="edge22_Node000017_Node000015" class="edge">
<title>Node15&#45;&gt;Node17</title>
<g id="a_edge22_Node000017_Node000015"><a xlink:title=" ">
<path fill="none" stroke="orange" stroke-dasharray="5,2" d="M199.98,-104.31C216.92,-98.95 237.31,-93.03 256,-89 312.86,-76.74 377.92,-68.12 427.83,-62.62"/>
<polygon fill="orange" stroke="orange" points="198.88,-100.98 190.43,-107.38 201.02,-107.65 198.88,-100.98"/>
</a>
</g>
<text text-anchor="start" x="259" y="-110" font-family="Helvetica,sans-Serif" font-size="10.00" fill="grey">&lt; kynema_sgf::RayleighTaylor</text>
<text text-anchor="start" x="259" y="-95" font-family="Helvetica,sans-Serif" font-size="10.00" fill="grey">  FieldInit &gt;</text>
</g>
<!-- Node16&#45;&gt;Node11 -->
<g id="edge18_Node000011_Node000016" class="edge">
<title>Node16&#45;&gt;Node11</title>
<g id="a_edge18_Node000011_Node000016"><a xlink:title=" ">
<path fill="none" stroke="orange" stroke-dasharray="5,2" d="M401.53,-58.17C404.44,-59.33 407.28,-60.6 410,-62 419.78,-67.04 417.97,-74.47 428,-79 521.35,-121.14 785.06,-111.07 887,-121 925.04,-124.7 967.47,-129.07 1001.99,-132.68"/>
<polygon fill="orange" stroke="orange" points="402.62,-54.85 392.02,-54.88 400.32,-61.46 402.62,-54.85"/>
</a>
</g>
<text text-anchor="start" x="613" y="-121.5" font-family="Helvetica,sans-Serif" font-size="10.00" fill="grey">&lt; kynema_sgf::FieldInfo &gt;</text>
</g>
<!-- Node17&#45;&gt;Node1 -->
<g id="edge20_Node000001_Node000017" class="edge">
<title>Node17&#45;&gt;Node1</title>
<g id="a_edge20_Node000001_Node000017"><a xlink:title=" ">
<path fill="none" stroke="#9a32cd" stroke-dasharray="5,2" d="M602.42,-56.34C664.95,-57.14 749.74,-58 824.5,-58 824.5,-58 824.5,-58 1282,-58 1375.16,-58 1470.5,-131.98 1502.38,-159.15"/>
<polygon fill="#9a32cd" stroke="#9a32cd" points="602.24,-52.83 592.19,-56.2 602.15,-59.83 602.24,-52.83"/>
</a>
</g>
<text text-anchor="start" x="1043" y="-63.5" font-family="Helvetica,sans-Serif" font-size="10.00" fill="grey">m_field_init</text>
</g>
<!-- Node18 -->
<g id="Node000018" class="node">
<title>Node18</title>
<g id="a_Node000018"><a xlink:href="classkynema__sgf_1_1_rayleigh_taylor_field_init.html" target="_top" xlink:title=" ">
<polygon fill="white" stroke="#666666" points="238,-30 85,-30 85,0 238,0 238,-30"/>
<text text-anchor="start" x="93" y="-18" font-family="Helvetica,sans-Serif" font-size="10.00">kynema_sgf::RayleighTaylor</text>
<text text-anchor="middle" x="161.5" y="-7" font-family="Helvetica,sans-Serif" font-size="10.00">FieldInit</text>
</a>
</g>
</g>
<!-- Node18&#45;&gt;Node17 -->
<g id="edge21_Node000017_Node000018" class="edge">
<title>Node18&#45;&gt;Node17</title>
<g id="a_edge21_Node000017_Node000018"><a xlink:title=" ">
<path fill="none" stroke="#9a32cd" stroke-dasharray="5,2" d="M248.13,-4.26C296.21,-0.55 357.02,0.24 410,-11 436.13,-16.54 463.73,-29.48 483.13,-39.89"/>
<polygon fill="#9a32cd" stroke="#9a32cd" points="247.75,-0.78 238.07,-5.09 248.33,-7.76 247.75,-0.78"/>
</a>
</g>
<text text-anchor="start" x="326" y="-16.5" font-family="Helvetica,sans-Serif" font-size="10.00" fill="grey">ptr</text>
</g>
</g>
</svg>
