<?xml version="1.0" encoding="UTF-8" standalone="no"?>
<!DOCTYPE svg PUBLIC "-//W3C//DTD SVG 1.1//EN"
 "http://www.w3.org/Graphics/SVG/1.1/DTD/svg11.dtd">
<!-- Generated by graphviz version 2.43.0 (0)
 -->
<!-- Title: kynema_sgf::SecondMomentAveraging Pages: 1 -->
<svg width="227pt" height="507pt"
 viewBox="0.00 0.00 226.50 507.00" xmlns="http://www.w3.org/2000/svg" xmlns:xlink="http://www.w3.org/1999/xlink">
<g id="graph0" class="graph" transform="scale(1 1) rotate(0) translate(4 503)">
<title>kynema_sgf::SecondMomentAveraging</title>
<!-- Node1 -->
<g id="Node000001" class="node">
<title>Node1</title>
<g id="a_Node000001"><a xlink:title=" ">
<polygon fill="#999999" stroke="#666666" points="160,-30 3,-30 3,0 160,0 160,-30"/>
<text text-anchor="start" x="11" y="-18" font-family="Helvetica,sans-Serif" font-size="10.00">kynema_sgf::SecondMoment</text>
<text text-anchor="middle" x="81.5" y="-7" font-family="Helvetica,sans-Serif" font-size="10.00">Averaging</text>
</a>
</g>
</g>
<!-- Node2 -->
<g id="Node000002" class="node">
<title>Node2</title>
<g id="a_Node000002"><a xlink:href="classkynema__sgf_1_1_f_plane_averaging.html" target="_top" xlink:title=" ">
<polygon fill="white" stroke="#666666" points="163,-128 0,-128 0,-98 163,-98 163,-128"/>
<text text-anchor="start" x="8" y="-116" font-family="Helvetica,sans-Serif" font-size="10.00">kynema_sgf::FPlaneAveraging</text>
<text text-anchor="middle" x="81.5" y="-105" font-family="Helvetica,sans-Serif" font-size="10.00">&lt; Field &gt;</text>
</a>
</g>
</g>
<!-- Node2&#45;&gt;Node1 -->
<g id="edge1_Node000001_Node000002" class="edge">
<title>Node2&#45;&gt;Node1</title>
<g id="a_edge1_Node000001_Node000002"><a xlink:title=" ">
<path fill="none" stroke="#9a32cd" stroke-dasharray="5,2" d="M81.5,-87.7C81.5,-69.55 81.5,-45.35 81.5,-30.22"/>
<polygon fill="#9a32cd" stroke="#9a32cd" points="78,-87.83 81.5,-97.83 85,-87.83 78,-87.83"/>
</a>
</g>
<text text-anchor="start" x="84.5" y="-69" font-family="Helvetica,sans-Serif" font-size="10.00" fill="grey">m_plane_average1</text>
<text text-anchor="start" x="84.5" y="-54" font-family="Helvetica,sans-Serif" font-size="10.00" fill="grey">m_plane_average2</text>
</g>
<!-- Node3 -->
<g id="Node000003" class="node">
<title>Node3</title>
<g id="a_Node000003"><a xlink:href="classkynema__sgf_1_1_f_plane_averaging.html" target="_top" xlink:title=" ">
<polygon fill="white" stroke="#666666" points="163,-211 0,-211 0,-181 163,-181 163,-211"/>
<text text-anchor="start" x="8" y="-199" font-family="Helvetica,sans-Serif" font-size="10.00">kynema_sgf::FPlaneAveraging</text>
<text text-anchor="middle" x="81.5" y="-188" font-family="Helvetica,sans-Serif" font-size="10.00">&lt; FType &gt;</text>
</a>
</g>
</g>
<!-- Node3&#45;&gt;Node2 -->
<g id="edge2_Node000002_Node000003" class="edge">
<title>Node3&#45;&gt;Node2</title>
<g id="a_edge2_Node000002_Node000003"><a xlink:title=" ">
<path fill="none" stroke="orange" stroke-dasharray="5,2" d="M81.5,-170.59C81.5,-156.75 81.5,-139.91 81.5,-128.22"/>
<polygon fill="orange" stroke="orange" points="78,-170.89 81.5,-180.89 85,-170.89 78,-170.89"/>
</a>
</g>
<text text-anchor="start" x="84.5" y="-151.5" font-family="Helvetica,sans-Serif" font-size="10.00" fill="grey">&lt; Field &gt;</text>
</g>
<!-- Node4 -->
<g id="Node000004" class="node">
<title>Node4</title>
<g id="a_Node000004"><a xlink:href="classkynema__sgf_1_1_sim_time.html" target="_top" xlink:title=" ">
<polygon fill="white" stroke="#666666" points="144,-283 19,-283 19,-264 144,-264 144,-283"/>
<text text-anchor="middle" x="81.5" y="-271" font-family="Helvetica,sans-Serif" font-size="10.00">kynema_sgf::SimTime</text>
</a>
</g>
</g>
<!-- Node4&#45;&gt;Node3 -->
<g id="edge3_Node000003_Node000004" class="edge">
<title>Node4&#45;&gt;Node3</title>
<g id="a_edge3_Node000003_Node000004"><a xlink:title=" ">
<path fill="none" stroke="#9a32cd" stroke-dasharray="5,2" d="M81.5,-253.57C81.5,-240.43 81.5,-223.18 81.5,-211.21"/>
<polygon fill="#9a32cd" stroke="#9a32cd" points="78,-253.84 81.5,-263.84 85,-253.84 78,-253.84"/>
</a>
</g>
<text text-anchor="start" x="84.5" y="-234.5" font-family="Helvetica,sans-Serif" font-size="10.00" fill="grey">m_time</text>
</g>
<!-- Node5 -->
<g id="Node000005" class="node">
<title>Node5</title>
<g id="a_Node000005"><a xlink:title=" ">
<polygon fill="white" stroke="#666666" points="137.5,-355 25.5,-355 25.5,-336 137.5,-336 137.5,-355"/>
<text text-anchor="middle" x="81.5" y="-343" font-family="Helvetica,sans-Serif" font-size="10.00">std::vector&lt; bool &gt;</text>
</a>
</g>
</g>
<!-- Node5&#45;&gt;Node4 -->
<g id="edge4_Node000004_Node000005" class="edge">
<title>Node5&#45;&gt;Node4</title>
<g id="a_edge4_Node000004_Node000005"><a xlink:title=" ">
<path fill="none" stroke="#9a32cd" stroke-dasharray="5,2" d="M81.5,-325.58C81.5,-311.76 81.5,-293.68 81.5,-283.15"/>
<polygon fill="#9a32cd" stroke="#9a32cd" points="78,-325.92 81.5,-335.92 85,-325.92 78,-325.92"/>
</a>
</g>
<text text-anchor="start" x="85" y="-306.5" font-family="Helvetica,sans-Serif" font-size="10.00" fill="grey">m_postprocess_enforce_dt</text>
</g>
<!-- Node6 -->
<g id="Node000006" class="node">
<title>Node6</title>
<g id="a_Node000006"><a xlink:title=" ">
<polygon fill="white" stroke="#666666" points="130,-427 33,-427 33,-408 130,-408 130,-427"/>
<text text-anchor="middle" x="81.5" y="-415" font-family="Helvetica,sans-Serif" font-size="10.00">std::vector&lt; T &gt;</text>
</a>
</g>
</g>
<!-- Node6&#45;&gt;Node5 -->
<g id="edge5_Node000005_Node000006" class="edge">
<title>Node6&#45;&gt;Node5</title>
<g id="a_edge5_Node000005_Node000006"><a xlink:title=" ">
<path fill="none" stroke="orange" stroke-dasharray="5,2" d="M81.5,-397.58C81.5,-383.76 81.5,-365.68 81.5,-355.15"/>
<polygon fill="orange" stroke="orange" points="78,-397.92 81.5,-407.92 85,-397.92 78,-397.92"/>
</a>
</g>
<text text-anchor="start" x="84.5" y="-378.5" font-family="Helvetica,sans-Serif" font-size="10.00" fill="grey">&lt; bool &gt;</text>
</g>
<!-- Node7 -->
<g id="Node000007" class="node">
<title>Node7</title>
<g id="a_Node000007"><a xlink:title=" ">
<polygon fill="white" stroke="#666666" points="96,-499 67,-499 67,-480 96,-480 96,-499"/>
<text text-anchor="middle" x="81.5" y="-487" font-family="Helvetica,sans-Serif" font-size="10.00">T</text>
</a>
</g>
</g>
<!-- Node7&#45;&gt;Node6 -->
<g id="edge6_Node000006_Node000007" class="edge">
<title>Node7&#45;&gt;Node6</title>
<g id="a_edge6_Node000006_Node000007"><a xlink:title=" ">
<path fill="none" stroke="#9a32cd" stroke-dasharray="5,2" d="M81.5,-469.58C81.5,-455.76 81.5,-437.68 81.5,-427.15"/>
<polygon fill="#9a32cd" stroke="#9a32cd" points="78,-469.92 81.5,-479.92 85,-469.92 78,-469.92"/>
</a>
</g>
<text text-anchor="start" x="84.5" y="-450.5" font-family="Helvetica,sans-Serif" font-size="10.00" fill="grey">elements</text>
</g>
</g>
</svg>
