<?xml version="1.0" encoding="UTF-8" standalone="no"?>
<!DOCTYPE svg PUBLIC "-//W3C//DTD SVG 1.1//EN"
 "http://www.w3.org/Graphics/SVG/1.1/DTD/svg11.dtd">
<!-- Generated by graphviz version 2.43.0 (0)
 -->
<!-- Title: kynema_sgf::DerivedQty Pages: 1 -->
<svg width="602pt" height="81pt"
 viewBox="0.00 0.00 602.00 81.00" xmlns="http://www.w3.org/2000/svg" xmlns:xlink="http://www.w3.org/1999/xlink">
<g id="graph0" class="graph" transform="scale(1 1) rotate(0) translate(4 77)">
<title>kynema_sgf::DerivedQty</title>
<!-- Node1 -->
<g id="Node000001" class="node">
<title>Node1</title>
<g id="a_Node000001"><a xlink:title=" ">
<polygon fill="#999999" stroke="#666666" points="594,-35.5 457,-35.5 457,-16.5 594,-16.5 594,-35.5"/>
<text text-anchor="middle" x="525.5" y="-23.5" font-family="Helvetica,sans-Serif" font-size="10.00">kynema_sgf::DerivedQty</text>
</a>
</g>
</g>
<!-- Node2 -->
<g id="Node000002" class="node">
<title>Node2</title>
<g id="a_Node000002"><a xlink:href="structkynema__sgf_1_1_factory.html" target="_top" xlink:title=" ">
<polygon fill="white" stroke="#666666" points="420,-52 284,-52 284,0 420,0 420,-52"/>
<text text-anchor="start" x="292" y="-40" font-family="Helvetica,sans-Serif" font-size="10.00">kynema_sgf::Factory</text>
<text text-anchor="start" x="292" y="-29" font-family="Helvetica,sans-Serif" font-size="10.00">&lt; DerivedQty, const</text>
<text text-anchor="start" x="292" y="-18" font-family="Helvetica,sans-Serif" font-size="10.00"> FieldRepo &amp;, std::vector</text>
<text text-anchor="middle" x="352" y="-7" font-family="Helvetica,sans-Serif" font-size="10.00">&lt; std::string &gt; &amp; &gt;</text>
</a>
</g>
</g>
<!-- Node2&#45;&gt;Node1 -->
<g id="edge1_Node000001_Node000002" class="edge">
<title>Node2&#45;&gt;Node1</title>
<g id="a_edge1_Node000001_Node000002"><a xlink:title=" ">
<path fill="none" stroke="#63b8ff" d="M430.52,-26C439.3,-26 448.2,-26 456.84,-26"/>
<polygon fill="#63b8ff" stroke="#63b8ff" points="430.29,-22.5 420.29,-26 430.29,-29.5 430.29,-22.5"/>
</a>
</g>
</g>
<!-- Node3 -->
<g id="Node000003" class="node">
<title>Node3</title>
<g id="a_Node000003"><a xlink:href="structkynema__sgf_1_1_factory.html" target="_top" xlink:title=" ">
<polygon fill="white" stroke="#666666" points="116,-41 0,-41 0,-11 116,-11 116,-41"/>
<text text-anchor="start" x="8" y="-29" font-family="Helvetica,sans-Serif" font-size="10.00">kynema_sgf::Factory</text>
<text text-anchor="middle" x="58" y="-18" font-family="Helvetica,sans-Serif" font-size="10.00">&lt; Base, Args &gt;</text>
</a>
</g>
</g>
<!-- Node3&#45;&gt;Node2 -->
<g id="edge2_Node000002_Node000003" class="edge">
<title>Node3&#45;&gt;Node2</title>
<g id="a_edge2_Node000002_Node000003"><a xlink:title=" ">
<path fill="none" stroke="orange" stroke-dasharray="5,2" d="M126.48,-26C173.74,-26 236.62,-26 283.81,-26"/>
<polygon fill="orange" stroke="orange" points="126.34,-22.5 116.34,-26 126.34,-29.5 126.34,-22.5"/>
</a>
</g>
<text text-anchor="start" x="137" y="-61.5" font-family="Helvetica,sans-Serif" font-size="10.00" fill="grey">&lt; DerivedQty, const</text>
<text text-anchor="start" x="137" y="-46.5" font-family="Helvetica,sans-Serif" font-size="10.00" fill="grey">   FieldRepo &amp;, std::vector</text>
<text text-anchor="start" x="137" y="-31.5" font-family="Helvetica,sans-Serif" font-size="10.00" fill="grey">  &lt; std::string &gt; &amp; &gt;</text>
</g>
</g>
</svg>
