<?xml version="1.0" encoding="UTF-8" standalone="no"?>
<!DOCTYPE svg PUBLIC "-//W3C//DTD SVG 1.1//EN"
 "http://www.w3.org/Graphics/SVG/1.1/DTD/svg11.dtd">
<!-- Generated by graphviz version 2.43.0 (0)
 -->
<!-- Title: kynema_sgf::OversetManager Pages: 1 -->
<svg width="262pt" height="177pt"
 viewBox="0.00 0.00 262.00 177.00" xmlns="http://www.w3.org/2000/svg" xmlns:xlink="http://www.w3.org/1999/xlink">
<g id="graph0" class="graph" transform="scale(1 1) rotate(0) translate(4 173)">
<title>kynema_sgf::OversetManager</title>
<!-- Node1 -->
<g id="Node000001" class="node">
<title>Node1</title>
<g id="a_Node000001"><a xlink:title=" ">
<polygon fill="#999999" stroke="#666666" points="169,-19 7,-19 7,0 169,0 169,-19"/>
<text text-anchor="middle" x="88" y="-7" font-family="Helvetica,sans-Serif" font-size="10.00">kynema_sgf::OversetManager</text>
</a>
</g>
</g>
<!-- Node2 -->
<g id="Node000002" class="node">
<title>Node2</title>
<g id="a_Node000002"><a xlink:href="structkynema__sgf_1_1_factory.html" target="_top" xlink:title=" ">
<polygon fill="white" stroke="#666666" points="176,-86 0,-86 0,-56 176,-56 176,-86"/>
<text text-anchor="start" x="8" y="-74" font-family="Helvetica,sans-Serif" font-size="10.00">kynema_sgf::Factory</text>
<text text-anchor="middle" x="88" y="-63" font-family="Helvetica,sans-Serif" font-size="10.00">&lt; OversetManager, CFDSim &amp; &gt;</text>
</a>
</g>
</g>
<!-- Node2&#45;&gt;Node1 -->
<g id="edge1_Node000001_Node000002" class="edge">
<title>Node2&#45;&gt;Node1</title>
<g id="a_edge1_Node000001_Node000002"><a xlink:title=" ">
<path fill="none" stroke="#63b8ff" d="M88,-45.79C88,-36.36 88,-26.15 88,-19.16"/>
<polygon fill="#63b8ff" stroke="#63b8ff" points="84.5,-45.9 88,-55.9 91.5,-45.9 84.5,-45.9"/>
</a>
</g>
</g>
<!-- Node3 -->
<g id="Node000003" class="node">
<title>Node3</title>
<g id="a_Node000003"><a xlink:href="structkynema__sgf_1_1_factory.html" target="_top" xlink:title=" ">
<polygon fill="white" stroke="#666666" points="146,-169 30,-169 30,-139 146,-139 146,-169"/>
<text text-anchor="start" x="38" y="-157" font-family="Helvetica,sans-Serif" font-size="10.00">kynema_sgf::Factory</text>
<text text-anchor="middle" x="88" y="-146" font-family="Helvetica,sans-Serif" font-size="10.00">&lt; Base, Args &gt;</text>
</a>
</g>
</g>
<!-- Node3&#45;&gt;Node2 -->
<g id="edge2_Node000002_Node000003" class="edge">
<title>Node3&#45;&gt;Node2</title>
<g id="a_edge2_Node000002_Node000003"><a xlink:title=" ">
<path fill="none" stroke="orange" stroke-dasharray="5,2" d="M88,-128.59C88,-114.75 88,-97.91 88,-86.22"/>
<polygon fill="orange" stroke="orange" points="84.5,-128.89 88,-138.89 91.5,-128.89 84.5,-128.89"/>
</a>
</g>
<text text-anchor="start" x="91" y="-109.5" font-family="Helvetica,sans-Serif" font-size="10.00" fill="grey">&lt; OversetManager, CFDSim &amp; &gt;</text>
</g>
</g>
</svg>
