<?xml version="1.0" encoding="UTF-8" standalone="no"?>
<!DOCTYPE svg PUBLIC "-//W3C//DTD SVG 1.1//EN"
 "http://www.w3.org/Graphics/SVG/1.1/DTD/svg11.dtd">
<!-- Generated by graphviz version 2.43.0 (0)
 -->
<!-- Title: kynema_sgf::pde::ICNSDiffTensorOp Pages: 1 -->
<svg width="2379pt" height="360pt"
 viewBox="0.00 0.00 2379.00 360.00" xmlns="http://www.w3.org/2000/svg" xmlns:xlink="http://www.w3.org/1999/xlink">
<g id="graph0" class="graph" transform="scale(1 1) rotate(0) translate(4 356)">
<title>kynema_sgf::pde::ICNSDiffTensorOp</title>
<!-- Node1 -->
<g id="Node000001" class="node">
<title>Node1</title>
<g id="a_Node000001"><a xlink:title=" ">
<polygon fill="#999999" stroke="#666666" points="2371,-161 2225,-161 2225,-131 2371,-131 2371,-161"/>
<text text-anchor="start" x="2233" y="-149" font-family="Helvetica,sans-Serif" font-size="10.00">kynema_sgf::pde::ICNSDiff</text>
<text text-anchor="middle" x="2298" y="-138" font-family="Helvetica,sans-Serif" font-size="10.00">TensorOp</text>
</a>
</g>
</g>
<!-- Node2 -->
<g id="Node000002" class="node">
<title>Node2</title>
<g id="a_Node000002"><a xlink:href="classkynema__sgf_1_1pde_1_1_diff_solver_iface.html" target="_top" xlink:title=" ">
<polygon fill="white" stroke="#666666" points="2188,-161 2029,-161 2029,-131 2188,-131 2188,-161"/>
<text text-anchor="start" x="2037" y="-149" font-family="Helvetica,sans-Serif" font-size="10.00">kynema_sgf::pde::DiffSolver</text>
<text text-anchor="middle" x="2108.5" y="-138" font-family="Helvetica,sans-Serif" font-size="10.00">Iface&lt; amrex::MLTensorOp &gt;</text>
</a>
</g>
</g>
<!-- Node2&#45;&gt;Node1 -->
<g id="edge1_Node000001_Node000002" class="edge">
<title>Node2&#45;&gt;Node1</title>
<g id="a_edge1_Node000001_Node000002"><a xlink:title=" ">
<path fill="none" stroke="#63b8ff" d="M2198.21,-146C2207.11,-146 2216.07,-146 2224.78,-146"/>
<polygon fill="#63b8ff" stroke="#63b8ff" points="2198.2,-142.5 2188.2,-146 2198.2,-149.5 2198.2,-142.5"/>
</a>
</g>
</g>
<!-- Node3 -->
<g id="Node000003" class="node">
<title>Node3</title>
<g id="a_Node000003"><a xlink:href="structkynema__sgf_1_1pde_1_1_p_d_e_fields.html" target="_top" xlink:title=" ">
<polygon fill="white" stroke="#666666" points="1613,-240.5 1460,-240.5 1460,-221.5 1613,-221.5 1613,-240.5"/>
<text text-anchor="middle" x="1536.5" y="-228.5" font-family="Helvetica,sans-Serif" font-size="10.00">kynema_sgf::pde::PDEFields</text>
</a>
</g>
</g>
<!-- Node3&#45;&gt;Node2 -->
<g id="edge2_Node000002_Node000003" class="edge">
<title>Node3&#45;&gt;Node2</title>
<g id="a_edge2_Node000002_Node000003"><a xlink:title=" ">
<path fill="none" stroke="#9a32cd" stroke-dasharray="5,2" d="M1623.19,-224.6C1647.11,-222.5 1673.1,-219.95 1697,-217 1837.25,-199.7 1872.13,-193.15 2011,-167 2020.69,-165.18 2030.89,-163.11 2040.89,-161.01"/>
<polygon fill="#9a32cd" stroke="#9a32cd" points="1622.74,-221.12 1613.07,-225.46 1623.33,-228.1 1622.74,-221.12"/>
</a>
</g>
<text text-anchor="start" x="1761.5" y="-220.5" font-family="Helvetica,sans-Serif" font-size="10.00" fill="grey">m_pdefields</text>
</g>
<!-- Node20 -->
<g id="Node000020" class="node">
<title>Node20</title>
<g id="a_Node000020"><a xlink:href="classkynema__sgf_1_1pde_1_1_diff_solver_iface.html" target="_top" xlink:title=" ">
<polygon fill="white" stroke="#666666" points="1868,-161 1715,-161 1715,-131 1868,-131 1868,-161"/>
<text text-anchor="start" x="1723" y="-149" font-family="Helvetica,sans-Serif" font-size="10.00">kynema_sgf::pde::DiffSolver</text>
<text text-anchor="middle" x="1791.5" y="-138" font-family="Helvetica,sans-Serif" font-size="10.00">Iface&lt; LinOp &gt;</text>
</a>
</g>
</g>
<!-- Node3&#45;&gt;Node20 -->
<g id="edge28_Node000020_Node000003" class="edge">
<title>Node3&#45;&gt;Node20</title>
<g id="a_edge28_Node000020_Node000003"><a xlink:title=" ">
<path fill="none" stroke="#9a32cd" stroke-dasharray="5,2" d="M1575.53,-218.22C1621.02,-202.94 1697.09,-177.38 1745.48,-161.13"/>
<polygon fill="#9a32cd" stroke="#9a32cd" points="1574.4,-214.91 1566.03,-221.41 1576.62,-221.55 1574.4,-214.91"/>
</a>
</g>
<text text-anchor="start" x="1634" y="-204.5" font-family="Helvetica,sans-Serif" font-size="10.00" fill="grey">m_pdefields</text>
</g>
<!-- Node4 -->
<g id="Node000004" class="node">
<title>Node4</title>
<g id="a_Node000004"><a xlink:href="classkynema__sgf_1_1_field_repo.html" target="_top" xlink:title=" ">
<polygon fill="white" stroke="#666666" points="1177.5,-324.5 1048.5,-324.5 1048.5,-305.5 1177.5,-305.5 1177.5,-324.5"/>
<text text-anchor="middle" x="1113" y="-312.5" font-family="Helvetica,sans-Serif" font-size="10.00">kynema_sgf::FieldRepo</text>
</a>
</g>
</g>
<!-- Node4&#45;&gt;Node3 -->
<g id="edge3_Node000003_Node000004" class="edge">
<title>Node4&#45;&gt;Node3</title>
<g id="a_edge3_Node000003_Node000004"><a xlink:title=" ">
<path fill="none" stroke="#9a32cd" stroke-dasharray="5,2" d="M1177.22,-325.94C1245.02,-334.94 1354.69,-341.54 1442,-309 1480.03,-294.82 1513.61,-258.04 1528.02,-240.53"/>
<polygon fill="#9a32cd" stroke="#9a32cd" points="1177.51,-322.44 1167.12,-324.54 1176.54,-329.38 1177.51,-322.44"/>
</a>
</g>
<text text-anchor="start" x="1303" y="-338.5" font-family="Helvetica,sans-Serif" font-size="10.00" fill="grey">repo</text>
</g>
<!-- Node11 -->
<g id="Node000011" class="node">
<title>Node11</title>
<g id="a_Node000011"><a xlink:href="classkynema__sgf_1_1_field.html" target="_top" xlink:title=" ">
<polygon fill="white" stroke="#666666" points="1366,-254.5 1262,-254.5 1262,-235.5 1366,-235.5 1366,-254.5"/>
<text text-anchor="middle" x="1314" y="-242.5" font-family="Helvetica,sans-Serif" font-size="10.00">kynema_sgf::Field</text>
</a>
</g>
</g>
<!-- Node4&#45;&gt;Node11 -->
<g id="edge11_Node000011_Node000004" class="edge">
<title>Node4&#45;&gt;Node11</title>
<g id="a_edge11_Node000011_Node000004"><a xlink:title=" ">
<path fill="none" stroke="#9a32cd" stroke-dasharray="5,2" d="M1150.69,-302.09C1189.77,-288.35 1250.73,-266.9 1285.76,-254.58"/>
<polygon fill="#9a32cd" stroke="#9a32cd" points="1149.52,-298.79 1141.25,-305.41 1151.85,-305.4 1149.52,-298.79"/>
</a>
</g>
<text text-anchor="start" x="1204.5" y="-290.5" font-family="Helvetica,sans-Serif" font-size="10.00" fill="grey">m_repo</text>
</g>
<!-- Node5 -->
<g id="Node000005" class="node">
<title>Node5</title>
<g id="a_Node000005"><a xlink:title=" ">
<polygon fill="white" stroke="#666666" points="866.5,-330 744.5,-330 744.5,-300 866.5,-300 866.5,-330"/>
<text text-anchor="start" x="752.5" y="-318" font-family="Helvetica,sans-Serif" font-size="10.00">std::unordered_map</text>
<text text-anchor="middle" x="805.5" y="-307" font-family="Helvetica,sans-Serif" font-size="10.00">&lt; std::string, size_t &gt;</text>
</a>
</g>
</g>
<!-- Node5&#45;&gt;Node4 -->
<g id="edge4_Node000004_Node000005" class="edge">
<title>Node5&#45;&gt;Node4</title>
<g id="a_edge4_Node000004_Node000005"><a xlink:title=" ">
<path fill="none" stroke="#9a32cd" stroke-dasharray="5,2" d="M876.95,-315C928.66,-315 998.31,-315 1048.35,-315"/>
<polygon fill="#9a32cd" stroke="#9a32cd" points="876.86,-311.5 866.86,-315 876.86,-318.5 876.86,-311.5"/>
</a>
</g>
<text text-anchor="start" x="919" y="-336" font-family="Helvetica,sans-Serif" font-size="10.00" fill="grey">m_fid_map</text>
<text text-anchor="start" x="919" y="-321" font-family="Helvetica,sans-Serif" font-size="10.00" fill="grey">m_int_fid_map</text>
</g>
<!-- Node6 -->
<g id="Node000006" class="node">
<title>Node6</title>
<g id="a_Node000006"><a xlink:title=" ">
<polygon fill="white" stroke="#666666" points="524.5,-248.5 459.5,-248.5 459.5,-229.5 524.5,-229.5 524.5,-248.5"/>
<text text-anchor="middle" x="492" y="-236.5" font-family="Helvetica,sans-Serif" font-size="10.00">std::string</text>
</a>
</g>
</g>
<!-- Node6&#45;&gt;Node5 -->
<g id="edge5_Node000005_Node000006" class="edge">
<title>Node6&#45;&gt;Node5</title>
<g id="a_edge5_Node000005_Node000006"><a xlink:title=" ">
<path fill="none" stroke="#9a32cd" stroke-dasharray="5,2" d="M525.66,-252.3C544.27,-259.5 568.17,-268.1 590,-274 649.33,-290.04 665.67,-287.31 726,-299 731.87,-300.14 737.99,-301.34 744.09,-302.57"/>
<polygon fill="#9a32cd" stroke="#9a32cd" points="526.76,-248.98 516.18,-248.58 524.21,-255.49 526.76,-248.98"/>
</a>
</g>
<text text-anchor="start" x="647" y="-304.5" font-family="Helvetica,sans-Serif" font-size="10.00" fill="grey">keys</text>
</g>
<!-- Node6&#45;&gt;Node11 -->
<g id="edge12_Node000011_Node000006" class="edge">
<title>Node6&#45;&gt;Node11</title>
<g id="a_edge12_Node000011_Node000006"><a xlink:title=" ">
<path fill="none" stroke="#9a32cd" stroke-dasharray="5,2" d="M535.03,-244.28C552.06,-246.18 571.94,-248.07 590,-249 650.36,-252.1 665.56,-249.21 726,-249 924.22,-248.32 1160.08,-246.37 1261.96,-245.46"/>
<polygon fill="#9a32cd" stroke="#9a32cd" points="535.16,-240.78 524.83,-243.11 534.36,-247.73 535.16,-240.78"/>
</a>
</g>
<text text-anchor="start" x="934" y="-254.5" font-family="Helvetica,sans-Serif" font-size="10.00" fill="grey">m_name</text>
</g>
<!-- Node13 -->
<g id="Node000013" class="node">
<title>Node13</title>
<g id="a_Node000013"><a xlink:href="structkynema__sgf_1_1_field_info.html" target="_top" xlink:title=" ">
<polygon fill="white" stroke="#666666" points="867,-229.5 744,-229.5 744,-210.5 867,-210.5 867,-229.5"/>
<text text-anchor="middle" x="805.5" y="-217.5" font-family="Helvetica,sans-Serif" font-size="10.00">kynema_sgf::FieldInfo</text>
</a>
</g>
</g>
<!-- Node6&#45;&gt;Node13 -->
<g id="edge15_Node000013_Node000006" class="edge">
<title>Node6&#45;&gt;Node13</title>
<g id="a_edge15_Node000013_Node000006"><a xlink:title=" ">
<path fill="none" stroke="#9a32cd" stroke-dasharray="5,2" d="M535.09,-235.81C552.13,-234.56 572,-233.15 590,-232 641.92,-228.67 700.95,-225.41 743.92,-223.13"/>
<polygon fill="#9a32cd" stroke="#9a32cd" points="534.6,-232.34 524.88,-236.57 535.11,-239.32 534.6,-232.34"/>
</a>
</g>
<text text-anchor="start" x="625" y="-237.5" font-family="Helvetica,sans-Serif" font-size="10.00" fill="grey">m_basename</text>
</g>
<!-- Node18 -->
<g id="Node000018" class="node">
<title>Node18</title>
<g id="a_Node000018"><a xlink:href="structkynema__sgf_1_1_m_l_m_g_options.html" target="_top" xlink:title=" ">
<polygon fill="white" stroke="#666666" points="1611,-129.5 1462,-129.5 1462,-110.5 1611,-110.5 1611,-129.5"/>
<text text-anchor="middle" x="1536.5" y="-117.5" font-family="Helvetica,sans-Serif" font-size="10.00">kynema_sgf::MLMGOptions</text>
</a>
</g>
</g>
<!-- Node6&#45;&gt;Node18 -->
<g id="edge24_Node000018_Node000006" class="edge">
<title>Node6&#45;&gt;Node18</title>
<g id="a_edge24_Node000018_Node000006"><a xlink:title=" ">
<path fill="none" stroke="#9a32cd" stroke-dasharray="5,2" d="M534.74,-231.74C547.51,-228.14 561.05,-222.83 572,-215 583.14,-207.04 578.11,-196.79 590,-190 665.01,-147.2 1252.51,-127.53 1461.78,-121.83"/>
<polygon fill="#9a32cd" stroke="#9a32cd" points="533.58,-228.42 524.74,-234.26 535.29,-235.21 533.58,-228.42"/>
</a>
</g>
<text text-anchor="start" x="1057" y="-173.5" font-family="Helvetica,sans-Serif" font-size="10.00" fill="grey">m_bottom_solver_type</text>
<text text-anchor="start" x="1057" y="-158.5" font-family="Helvetica,sans-Serif" font-size="10.00" fill="grey">m_hypre_interface</text>
<text text-anchor="start" x="1057" y="-143.5" font-family="Helvetica,sans-Serif" font-size="10.00" fill="grey">m_hypre_namespace</text>
</g>
<!-- Node7 -->
<g id="Node000007" class="node">
<title>Node7</title>
<g id="a_Node000007"><a xlink:title=" ">
<polygon fill="white" stroke="#666666" points="209.5,-254 105.5,-254 105.5,-224 209.5,-224 209.5,-254"/>
<text text-anchor="start" x="113.5" y="-242" font-family="Helvetica,sans-Serif" font-size="10.00">std::basic_string&lt;</text>
<text text-anchor="middle" x="157.5" y="-231" font-family="Helvetica,sans-Serif" font-size="10.00"> Char &gt;</text>
</a>
</g>
</g>
<!-- Node7&#45;&gt;Node6 -->
<g id="edge6_Node000006_Node000007" class="edge">
<title>Node7&#45;&gt;Node6</title>
<g id="a_edge6_Node000006_Node000007"><a xlink:title=" ">
<path fill="none" stroke="#63b8ff" d="M219.85,-239C290.64,-239 404.34,-239 459.27,-239"/>
<polygon fill="#63b8ff" stroke="#63b8ff" points="219.72,-235.5 209.72,-239 219.72,-242.5 219.72,-235.5"/>
</a>
</g>
</g>
<!-- Node8 -->
<g id="Node000008" class="node">
<title>Node8</title>
<g id="a_Node000008"><a xlink:title=" ">
<polygon fill="white" stroke="#666666" points="549,-350 435,-350 435,-320 549,-320 549,-350"/>
<text text-anchor="start" x="443" y="-338" font-family="Helvetica,sans-Serif" font-size="10.00">std::unordered_map</text>
<text text-anchor="middle" x="492" y="-327" font-family="Helvetica,sans-Serif" font-size="10.00">&lt; K, T &gt;</text>
</a>
</g>
</g>
<!-- Node8&#45;&gt;Node5 -->
<g id="edge7_Node000005_Node000008" class="edge">
<title>Node8&#45;&gt;Node5</title>
<g id="a_edge7_Node000005_Node000008"><a xlink:title=" ">
<path fill="none" stroke="orange" stroke-dasharray="5,2" d="M559.36,-330.74C614.19,-327.22 691.35,-322.26 744.38,-318.86"/>
<polygon fill="orange" stroke="orange" points="558.8,-327.27 549.05,-331.4 559.25,-334.25 558.8,-327.27"/>
</a>
</g>
<text text-anchor="start" x="605" y="-333.5" font-family="Helvetica,sans-Serif" font-size="10.00" fill="grey">&lt; std::string, size_t &gt;</text>
</g>
<!-- Node9 -->
<g id="Node000009" class="node">
<title>Node9</title>
<g id="a_Node000009"><a xlink:title=" ">
<polygon fill="white" stroke="#666666" points="172,-344.5 143,-344.5 143,-325.5 172,-325.5 172,-344.5"/>
<text text-anchor="middle" x="157.5" y="-332.5" font-family="Helvetica,sans-Serif" font-size="10.00">K</text>
</a>
</g>
</g>
<!-- Node9&#45;&gt;Node8 -->
<g id="edge8_Node000008_Node000009" class="edge">
<title>Node9&#45;&gt;Node8</title>
<g id="a_edge8_Node000008_Node000009"><a xlink:title=" ">
<path fill="none" stroke="#9a32cd" stroke-dasharray="5,2" d="M182.38,-335C234.77,-335 361.02,-335 434.8,-335"/>
<polygon fill="#9a32cd" stroke="#9a32cd" points="182.36,-331.5 172.36,-335 182.36,-338.5 182.36,-331.5"/>
</a>
</g>
<text text-anchor="start" x="310" y="-340.5" font-family="Helvetica,sans-Serif" font-size="10.00" fill="grey">keys</text>
</g>
<!-- Node10 -->
<g id="Node000010" class="node">
<title>Node10</title>
<g id="a_Node000010"><a xlink:title=" ">
<polygon fill="white" stroke="#666666" points="29,-157.5 0,-157.5 0,-138.5 29,-138.5 29,-157.5"/>
<text text-anchor="middle" x="14.5" y="-145.5" font-family="Helvetica,sans-Serif" font-size="10.00">T</text>
</a>
</g>
</g>
<!-- Node10&#45;&gt;Node8 -->
<g id="edge9_Node000008_Node000010" class="edge">
<title>Node10&#45;&gt;Node8</title>
<g id="a_edge9_Node000008_Node000010"><a xlink:title=" ">
<path fill="none" stroke="#9a32cd" stroke-dasharray="5,2" d="M21.46,-167.18C30.64,-193.33 50.85,-239.57 85,-263 113.52,-282.57 330.34,-313.62 434.92,-327.67"/>
<polygon fill="#9a32cd" stroke="#9a32cd" points="24.76,-166.02 18.29,-157.63 18.12,-168.23 24.76,-166.02"/>
</a>
</g>
<text text-anchor="start" x="134.5" y="-301.5" font-family="Helvetica,sans-Serif" font-size="10.00" fill="grey">elements</text>
</g>
<!-- Node16 -->
<g id="Node000016" class="node">
<title>Node16</title>
<g id="a_Node000016"><a xlink:title=" ">
<polygon fill="white" stroke="#666666" points="216.5,-90.5 98.5,-90.5 98.5,-71.5 216.5,-71.5 216.5,-90.5"/>
<text text-anchor="middle" x="157.5" y="-78.5" font-family="Helvetica,sans-Serif" font-size="10.00">std::unique_ptr&lt; T &gt;</text>
</a>
</g>
</g>
<!-- Node10&#45;&gt;Node16 -->
<g id="edge19_Node000016_Node000010" class="edge">
<title>Node10&#45;&gt;Node16</title>
<g id="a_edge19_Node000016_Node000010"><a xlink:title=" ">
<path fill="none" stroke="#9a32cd" stroke-dasharray="5,2" d="M26.53,-129.68C31.86,-122.26 38.86,-114.22 47,-109 62.27,-99.19 80.8,-92.82 98.25,-88.67"/>
<polygon fill="#9a32cd" stroke="#9a32cd" points="23.3,-128.22 20.73,-138.5 29.15,-132.07 23.3,-128.22"/>
</a>
</g>
<text text-anchor="start" x="50" y="-114.5" font-family="Helvetica,sans-Serif" font-size="10.00" fill="grey">ptr</text>
</g>
<!-- Node17 -->
<g id="Node000017" class="node">
<title>Node17</title>
<g id="a_Node000017"><a xlink:title=" ">
<polygon fill="white" stroke="#666666" points="380,-162.5 262,-162.5 262,-143.5 380,-143.5 380,-162.5"/>
<text text-anchor="middle" x="321" y="-150.5" font-family="Helvetica,sans-Serif" font-size="10.00">std::shared_ptr&lt; T &gt;</text>
</a>
</g>
</g>
<!-- Node10&#45;&gt;Node17 -->
<g id="edge21_Node000017_Node000010" class="edge">
<title>Node10&#45;&gt;Node17</title>
<g id="a_edge21_Node000017_Node000010"><a xlink:title=" ">
<path fill="none" stroke="#9a32cd" stroke-dasharray="5,2" d="M39.63,-148.4C87.27,-149.18 194.62,-150.94 261.8,-152.04"/>
<polygon fill="#9a32cd" stroke="#9a32cd" points="39.43,-144.89 29.37,-148.23 39.32,-151.89 39.43,-144.89"/>
</a>
</g>
<text text-anchor="start" x="50" y="-154.5" font-family="Helvetica,sans-Serif" font-size="10.00" fill="grey">ptr</text>
</g>
<!-- Node11&#45;&gt;Node2 -->
<g id="edge22_Node000002_Node000011" class="edge">
<title>Node11&#45;&gt;Node2</title>
<g id="a_edge22_Node000002_Node000011"><a xlink:title=" ">
<path fill="none" stroke="#9a32cd" stroke-dasharray="5,2" d="M1326.83,-262.9C1338.95,-279.45 1359.45,-302.93 1384,-313 1407.85,-322.78 1416.33,-315.3 1442,-313 1699.42,-289.92 1770.29,-287.1 2011,-193 2034.6,-183.77 2060.36,-171.08 2079.33,-161.22"/>
<polygon fill="#9a32cd" stroke="#9a32cd" points="1329.59,-260.74 1320.99,-254.56 1323.86,-264.76 1329.59,-260.74"/>
</a>
</g>
<text text-anchor="start" x="1638" y="-299.5" font-family="Helvetica,sans-Serif" font-size="10.00" fill="grey">m_density</text>
</g>
<!-- Node11&#45;&gt;Node3 -->
<g id="edge10_Node000003_Node000011" class="edge">
<title>Node11&#45;&gt;Node3</title>
<g id="a_edge10_Node000003_Node000011"><a xlink:title=" ">
<path fill="none" stroke="#9a32cd" stroke-dasharray="5,2" d="M1369.19,-233.84C1374.18,-233.1 1379.17,-232.47 1384,-232 1408.61,-229.62 1435.57,-228.85 1459.84,-228.84"/>
<polygon fill="#9a32cd" stroke="#9a32cd" points="1368.32,-230.44 1359,-235.49 1369.43,-237.35 1368.32,-230.44"/>
</a>
</g>
<text text-anchor="start" x="1387" y="-297.5" font-family="Helvetica,sans-Serif" font-size="10.00" fill="grey">conv_term</text>
<text text-anchor="start" x="1387" y="-282.5" font-family="Helvetica,sans-Serif" font-size="10.00" fill="grey">diff_term</text>
<text text-anchor="start" x="1387" y="-267.5" font-family="Helvetica,sans-Serif" font-size="10.00" fill="grey">field</text>
<text text-anchor="start" x="1387" y="-252.5" font-family="Helvetica,sans-Serif" font-size="10.00" fill="grey">mueff</text>
<text text-anchor="start" x="1387" y="-237.5" font-family="Helvetica,sans-Serif" font-size="10.00" fill="grey">src_term</text>
</g>
<!-- Node11&#45;&gt;Node20 -->
<g id="edge29_Node000020_Node000011" class="edge">
<title>Node11&#45;&gt;Node20</title>
<g id="a_edge29_Node000020_Node000011"><a xlink:title=" ">
<path fill="none" stroke="#9a32cd" stroke-dasharray="5,2" d="M1348.1,-231.62C1377.15,-220.35 1420.78,-204.58 1460,-195 1546.21,-173.94 1647.43,-160.55 1714.92,-153.18"/>
<polygon fill="#9a32cd" stroke="#9a32cd" points="1346.49,-228.49 1338.46,-235.4 1349.05,-235.01 1346.49,-228.49"/>
</a>
</g>
<text text-anchor="start" x="1510.5" y="-200.5" font-family="Helvetica,sans-Serif" font-size="10.00" fill="grey">m_density</text>
</g>
<!-- Node12 -->
<g id="Node000012" class="node">
<title>Node12</title>
<g id="a_Node000012"><a xlink:title=" ">
<polygon fill="white" stroke="#666666" points="1183,-235 1043,-235 1043,-205 1183,-205 1183,-235"/>
<text text-anchor="start" x="1051" y="-223" font-family="Helvetica,sans-Serif" font-size="10.00">std::shared_ptr&lt; kynema</text>
<text text-anchor="middle" x="1113" y="-212" font-family="Helvetica,sans-Serif" font-size="10.00">_sgf::FieldInfo &gt;</text>
</a>
</g>
</g>
<!-- Node12&#45;&gt;Node11 -->
<g id="edge13_Node000011_Node000012" class="edge">
<title>Node12&#45;&gt;Node11</title>
<g id="a_edge13_Node000011_Node000012"><a xlink:title=" ">
<path fill="none" stroke="#9a32cd" stroke-dasharray="5,2" d="M1193.41,-221.73C1210.18,-222.81 1227.72,-224.47 1244,-227 1256.6,-228.96 1270.23,-232.26 1282.02,-235.5"/>
<polygon fill="#9a32cd" stroke="#9a32cd" points="1193.27,-218.22 1183.09,-221.13 1192.87,-225.2 1193.27,-218.22"/>
</a>
</g>
<text text-anchor="start" x="1205.5" y="-232.5" font-family="Helvetica,sans-Serif" font-size="10.00" fill="grey">m_info</text>
</g>
<!-- Node13&#45;&gt;Node12 -->
<g id="edge14_Node000012_Node000013" class="edge">
<title>Node13&#45;&gt;Node12</title>
<g id="a_edge14_Node000012_Node000013"><a xlink:title=" ">
<path fill="none" stroke="#9a32cd" stroke-dasharray="5,2" d="M877.27,-220C927.08,-220 993.41,-220 1042.86,-220"/>
<polygon fill="#9a32cd" stroke="#9a32cd" points="877.22,-216.5 867.22,-220 877.22,-223.5 877.22,-216.5"/>
</a>
</g>
<text text-anchor="start" x="948" y="-225.5" font-family="Helvetica,sans-Serif" font-size="10.00" fill="grey">ptr</text>
</g>
<!-- Node14 -->
<g id="Node000014" class="node">
<title>Node14</title>
<g id="a_Node000014"><a xlink:title=" ">
<polygon fill="white" stroke="#666666" points="572,-206 412,-206 412,-176 572,-176 572,-206"/>
<text text-anchor="start" x="420" y="-194" font-family="Helvetica,sans-Serif" font-size="10.00">std::unique_ptr&lt; kynema</text>
<text text-anchor="middle" x="492" y="-183" font-family="Helvetica,sans-Serif" font-size="10.00">_sgf::FieldFillPatchOpsBase &gt;</text>
</a>
</g>
</g>
<!-- Node14&#45;&gt;Node13 -->
<g id="edge16_Node000013_Node000014" class="edge">
<title>Node14&#45;&gt;Node13</title>
<g id="a_edge16_Node000013_Node000014"><a xlink:title=" ">
<path fill="none" stroke="#9a32cd" stroke-dasharray="5,2" d="M582.52,-192.95C625.97,-194.67 678.85,-197.91 726,-204 738.28,-205.59 751.51,-208 763.54,-210.48"/>
<polygon fill="#9a32cd" stroke="#9a32cd" points="582.38,-189.44 572.26,-192.57 582.12,-196.44 582.38,-189.44"/>
</a>
</g>
<text text-anchor="start" x="622" y="-209.5" font-family="Helvetica,sans-Serif" font-size="10.00" fill="grey">m_fillpatch_op</text>
</g>
<!-- Node15 -->
<g id="Node000015" class="node">
<title>Node15</title>
<g id="a_Node000015"><a xlink:href="classkynema__sgf_1_1_field_fill_patch_ops_base.html" target="_top" xlink:title=" ">
<polygon fill="white" stroke="#666666" points="230,-206 85,-206 85,-176 230,-176 230,-206"/>
<text text-anchor="start" x="93" y="-194" font-family="Helvetica,sans-Serif" font-size="10.00">kynema_sgf::FieldFillPatch</text>
<text text-anchor="middle" x="157.5" y="-183" font-family="Helvetica,sans-Serif" font-size="10.00">OpsBase</text>
</a>
</g>
</g>
<!-- Node15&#45;&gt;Node14 -->
<g id="edge17_Node000014_Node000015" class="edge">
<title>Node15&#45;&gt;Node14</title>
<g id="a_edge17_Node000014_Node000015"><a xlink:title=" ">
<path fill="none" stroke="#9a32cd" stroke-dasharray="5,2" d="M240.48,-191C292.75,-191 360.12,-191 411.83,-191"/>
<polygon fill="#9a32cd" stroke="#9a32cd" points="240.24,-187.5 230.24,-191 240.24,-194.5 240.24,-187.5"/>
</a>
</g>
<text text-anchor="start" x="314" y="-196.5" font-family="Helvetica,sans-Serif" font-size="10.00" fill="grey">ptr</text>
</g>
<!-- Node16&#45;&gt;Node14 -->
<g id="edge18_Node000014_Node000016" class="edge">
<title>Node16&#45;&gt;Node14</title>
<g id="a_edge18_Node000014_Node000016"><a xlink:title=" ">
<path fill="none" stroke="orange" stroke-dasharray="5,2" d="M226.74,-84.85C290.8,-88.83 378.98,-95.37 394,-102 431.22,-118.43 463.57,-155.04 479.84,-175.82"/>
<polygon fill="orange" stroke="orange" points="226.88,-81.35 216.69,-84.24 226.45,-88.34 226.88,-81.35"/>
</a>
</g>
<text text-anchor="start" x="251" y="-123" font-family="Helvetica,sans-Serif" font-size="10.00" fill="grey">&lt; kynema_sgf::FieldFillPatch</text>
<text text-anchor="start" x="251" y="-108" font-family="Helvetica,sans-Serif" font-size="10.00" fill="grey">  OpsBase &gt;</text>
</g>
<!-- Node19 -->
<g id="Node000019" class="node">
<title>Node19</title>
<g id="a_Node000019"><a xlink:title=" ">
<polygon fill="white" stroke="#666666" points="724,-30 592,-30 592,0 724,0 724,-30"/>
<text text-anchor="start" x="600" y="-18" font-family="Helvetica,sans-Serif" font-size="10.00">std::unique_ptr&lt; amrex</text>
<text text-anchor="middle" x="658" y="-7" font-family="Helvetica,sans-Serif" font-size="10.00">::MLTensorOp &gt;</text>
</a>
</g>
</g>
<!-- Node16&#45;&gt;Node19 -->
<g id="edge26_Node000019_Node000016" class="edge">
<title>Node16&#45;&gt;Node19</title>
<g id="a_edge26_Node000019_Node000016"><a xlink:title=" ">
<path fill="none" stroke="orange" stroke-dasharray="5,2" d="M184.68,-66.72C202.09,-57.95 225.77,-47.4 248,-42 366.76,-13.13 510.26,-10.85 591.85,-12.47"/>
<polygon fill="orange" stroke="orange" points="182.98,-63.66 175.7,-71.36 186.19,-69.88 182.98,-63.66"/>
</a>
</g>
<text text-anchor="start" x="262" y="-47.5" font-family="Helvetica,sans-Serif" font-size="10.00" fill="grey">&lt; amrex::MLTensorOp &gt;</text>
</g>
<!-- Node21 -->
<g id="Node000021" class="node">
<title>Node21</title>
<g id="a_Node000021"><a xlink:title=" ">
<polygon fill="white" stroke="#666666" points="1025,-86.5 885,-86.5 885,-67.5 1025,-67.5 1025,-86.5"/>
<text text-anchor="middle" x="955" y="-74.5" font-family="Helvetica,sans-Serif" font-size="10.00">std::unique_ptr&lt; LinOp &gt;</text>
</a>
</g>
</g>
<!-- Node16&#45;&gt;Node21 -->
<g id="edge32_Node000021_Node000016" class="edge">
<title>Node16&#45;&gt;Node21</title>
<g id="a_edge32_Node000021_Node000016"><a xlink:title=" ">
<path fill="none" stroke="orange" stroke-dasharray="5,2" d="M226.68,-80.66C376.64,-79.9 733.77,-78.11 884.74,-77.35"/>
<polygon fill="orange" stroke="orange" points="226.65,-77.16 216.67,-80.71 226.69,-84.16 226.65,-77.16"/>
</a>
</g>
<text text-anchor="start" x="467" y="-85.5" font-family="Helvetica,sans-Serif" font-size="10.00" fill="grey">&lt; LinOp &gt;</text>
</g>
<!-- Node17&#45;&gt;Node12 -->
<g id="edge20_Node000012_Node000017" class="edge">
<title>Node17&#45;&gt;Node12</title>
<g id="a_edge20_Node000012_Node000017"><a xlink:title=" ">
<path fill="none" stroke="orange" stroke-dasharray="5,2" d="M390.29,-154.89C470.7,-157.46 608.24,-162.93 726,-173 837.15,-182.51 965.64,-199.32 1042.77,-210.05"/>
<polygon fill="orange" stroke="orange" points="390.4,-151.39 380.29,-154.57 390.18,-158.39 390.4,-151.39"/>
</a>
</g>
<text text-anchor="start" x="593" y="-178.5" font-family="Helvetica,sans-Serif" font-size="10.00" fill="grey">&lt; kynema_sgf::FieldInfo &gt;</text>
</g>
<!-- Node18&#45;&gt;Node2 -->
<g id="edge23_Node000002_Node000018" class="edge">
<title>Node18&#45;&gt;Node2</title>
<g id="a_edge23_Node000002_Node000018"><a xlink:title=" ">
<path fill="none" stroke="#9a32cd" stroke-dasharray="5,2" d="M1621.52,-111.44C1651.04,-108.82 1684.46,-106.29 1715,-105 1782.94,-102.13 1800.24,-99.24 1868,-105 1925.9,-109.92 1990.83,-121.42 2038.47,-130.99"/>
<polygon fill="#9a32cd" stroke="#9a32cd" points="1620.89,-107.98 1611.25,-112.37 1621.52,-114.95 1620.89,-107.98"/>
</a>
</g>
<text text-anchor="start" x="1765.5" y="-110.5" font-family="Helvetica,sans-Serif" font-size="10.00" fill="grey">m_options</text>
</g>
<!-- Node18&#45;&gt;Node20 -->
<g id="edge30_Node000020_Node000018" class="edge">
<title>Node18&#45;&gt;Node20</title>
<g id="a_edge30_Node000020_Node000018"><a xlink:title=" ">
<path fill="none" stroke="#9a32cd" stroke-dasharray="5,2" d="M1621.66,-127.54C1645.98,-129.82 1672.56,-132.41 1697,-135 1702.85,-135.62 1708.91,-136.28 1714.99,-136.96"/>
<polygon fill="#9a32cd" stroke="#9a32cd" points="1621.67,-124.03 1611.39,-126.59 1621.02,-131 1621.67,-124.03"/>
</a>
</g>
<text text-anchor="start" x="1638" y="-140.5" font-family="Helvetica,sans-Serif" font-size="10.00" fill="grey">m_options</text>
</g>
<!-- Node19&#45;&gt;Node2 -->
<g id="edge25_Node000002_Node000019" class="edge">
<title>Node19&#45;&gt;Node2</title>
<g id="a_edge25_Node000002_Node000019"><a xlink:title=" ">
<path fill="none" stroke="#9a32cd" stroke-dasharray="5,2" d="M734.11,-13.82C793.73,-12.98 879.2,-12 954,-12 954,-12 954,-12 1792.5,-12 1912.85,-12 2039.9,-95.84 2087.75,-130.89"/>
<polygon fill="#9a32cd" stroke="#9a32cd" points="733.98,-10.32 724.03,-13.96 734.08,-17.32 733.98,-10.32"/>
</a>
</g>
<text text-anchor="start" x="1290" y="-33" font-family="Helvetica,sans-Serif" font-size="10.00" fill="grey">m_applier</text>
<text text-anchor="start" x="1290" y="-18" font-family="Helvetica,sans-Serif" font-size="10.00" fill="grey">m_solver</text>
</g>
<!-- Node20&#45;&gt;Node2 -->
<g id="edge27_Node000002_Node000020" class="edge">
<title>Node20&#45;&gt;Node2</title>
<g id="a_edge27_Node000002_Node000020"><a xlink:title=" ">
<path fill="none" stroke="orange" stroke-dasharray="5,2" d="M1878.49,-146C1925.39,-146 1983.02,-146 2028.74,-146"/>
<polygon fill="orange" stroke="orange" points="1878.35,-142.5 1868.35,-146 1878.35,-149.5 1878.35,-142.5"/>
</a>
</g>
<text text-anchor="start" x="1889.5" y="-151.5" font-family="Helvetica,sans-Serif" font-size="10.00" fill="grey">&lt; amrex::MLTensorOp &gt;</text>
</g>
<!-- Node21&#45;&gt;Node20 -->
<g id="edge31_Node000020_Node000021" class="edge">
<title>Node21&#45;&gt;Node20</title>
<g id="a_edge31_Node000020_Node000021"><a xlink:title=" ">
<path fill="none" stroke="#9a32cd" stroke-dasharray="5,2" d="M1035.16,-74.51C1159.08,-71.83 1406.12,-71.34 1613,-101 1625.08,-102.73 1686.49,-118.57 1733.73,-130.97"/>
<polygon fill="#9a32cd" stroke="#9a32cd" points="1034.92,-71.02 1025,-74.75 1035.08,-78.02 1034.92,-71.02"/>
</a>
</g>
<text text-anchor="start" x="1290" y="-100" font-family="Helvetica,sans-Serif" font-size="10.00" fill="grey">m_applier</text>
<text text-anchor="start" x="1290" y="-85" font-family="Helvetica,sans-Serif" font-size="10.00" fill="grey">m_solver</text>
</g>
</g>
</svg>
