<?xml version="1.0" encoding="UTF-8" standalone="no"?>
<!DOCTYPE svg PUBLIC "-//W3C//DTD SVG 1.1//EN"
 "http://www.w3.org/Graphics/SVG/1.1/DTD/svg11.dtd">
<!-- Generated by graphviz version 2.43.0 (0)
 -->
<!-- Title: kynema_sgf::pde::icns::BodyForce Pages: 1 -->
<svg width="976pt" height="154pt"
 viewBox="0.00 0.00 976.00 153.50" xmlns="http://www.w3.org/2000/svg" xmlns:xlink="http://www.w3.org/1999/xlink">
<g id="graph0" class="graph" transform="scale(1 1) rotate(0) translate(4 149.5)">
<title>kynema_sgf::pde::icns::BodyForce</title>
<!-- Node1 -->
<g id="Node000001" class="node">
<title>Node1</title>
<g id="a_Node000001"><a xlink:title=" ">
<polygon fill="#999999" stroke="#666666" points="968,-100 843,-100 843,-70 968,-70 968,-100"/>
<text text-anchor="start" x="851" y="-88" font-family="Helvetica,sans-Serif" font-size="10.00">kynema_sgf::pde::icns</text>
<text text-anchor="middle" x="905.5" y="-77" font-family="Helvetica,sans-Serif" font-size="10.00">::BodyForce</text>
</a>
</g>
</g>
<!-- Node2 -->
<g id="Node000002" class="node">
<title>Node2</title>
<g id="a_Node000002"><a xlink:title=" ">
<polygon fill="white" stroke="#666666" points="734,-145.5 585,-145.5 585,-104.5 734,-104.5 734,-145.5"/>
<text text-anchor="start" x="593" y="-133.5" font-family="Helvetica,sans-Serif" font-size="10.00">kynema_sgf::Factory</text>
<text text-anchor="start" x="593" y="-122.5" font-family="Helvetica,sans-Serif" font-size="10.00">&lt; MomentumSource, const</text>
<text text-anchor="middle" x="659.5" y="-111.5" font-family="Helvetica,sans-Serif" font-size="10.00"> CFDSim &amp; &gt;::Register</text>
</a>
</g>
</g>
<!-- Node2&#45;&gt;Node1 -->
<g id="edge1_Node000001_Node000002" class="edge">
<title>Node2&#45;&gt;Node1</title>
<g id="a_edge1_Node000001_Node000002"><a xlink:title=" ">
<path fill="none" stroke="#63b8ff" d="M744.2,-115.28C770.17,-111.87 798.84,-107.7 825,-103 830.85,-101.95 836.92,-100.76 842.98,-99.5"/>
<polygon fill="#63b8ff" stroke="#63b8ff" points="743.48,-111.85 734.01,-116.6 744.38,-118.79 743.48,-111.85"/>
</a>
</g>
</g>
<!-- Node3 -->
<g id="Node000003" class="node">
<title>Node3</title>
<g id="a_Node000003"><a xlink:href="classkynema__sgf_1_1_sim_time.html" target="_top" xlink:title=" ">
<polygon fill="white" stroke="#666666" points="722,-86.5 597,-86.5 597,-67.5 722,-67.5 722,-86.5"/>
<text text-anchor="middle" x="659.5" y="-74.5" font-family="Helvetica,sans-Serif" font-size="10.00">kynema_sgf::SimTime</text>
</a>
</g>
</g>
<!-- Node3&#45;&gt;Node1 -->
<g id="edge2_Node000001_Node000003" class="edge">
<title>Node3&#45;&gt;Node1</title>
<g id="a_edge2_Node000001_Node000003"><a xlink:title=" ">
<path fill="none" stroke="#9a32cd" stroke-dasharray="5,2" d="M732.27,-79.35C767.41,-80.51 809.29,-81.88 842.95,-82.98"/>
<polygon fill="#9a32cd" stroke="#9a32cd" points="732.18,-75.85 722.07,-79.02 731.95,-82.84 732.18,-75.85"/>
</a>
</g>
<text text-anchor="start" x="769.5" y="-87.5" font-family="Helvetica,sans-Serif" font-size="10.00" fill="grey">m_time</text>
</g>
<!-- Node4 -->
<g id="Node000004" class="node">
<title>Node4</title>
<g id="a_Node000004"><a xlink:title=" ">
<polygon fill="white" stroke="#666666" points="412,-86.5 300,-86.5 300,-67.5 412,-67.5 412,-86.5"/>
<text text-anchor="middle" x="356" y="-74.5" font-family="Helvetica,sans-Serif" font-size="10.00">std::vector&lt; bool &gt;</text>
</a>
</g>
</g>
<!-- Node4&#45;&gt;Node3 -->
<g id="edge3_Node000003_Node000004" class="edge">
<title>Node4&#45;&gt;Node3</title>
<g id="a_edge3_Node000003_Node000004"><a xlink:title=" ">
<path fill="none" stroke="#9a32cd" stroke-dasharray="5,2" d="M422.38,-77C474.16,-77 546,-77 596.8,-77"/>
<polygon fill="#9a32cd" stroke="#9a32cd" points="422.3,-73.5 412.3,-77 422.3,-80.5 422.3,-73.5"/>
</a>
</g>
<text text-anchor="start" x="433.5" y="-82.5" font-family="Helvetica,sans-Serif" font-size="10.00" fill="grey">m_postprocess_enforce_dt</text>
</g>
<!-- Node5 -->
<g id="Node000005" class="node">
<title>Node5</title>
<g id="a_Node000005"><a xlink:title=" ">
<polygon fill="white" stroke="#666666" points="214,-86.5 117,-86.5 117,-67.5 214,-67.5 214,-86.5"/>
<text text-anchor="middle" x="165.5" y="-74.5" font-family="Helvetica,sans-Serif" font-size="10.00">std::vector&lt; T &gt;</text>
</a>
</g>
</g>
<!-- Node5&#45;&gt;Node4 -->
<g id="edge4_Node000004_Node000005" class="edge">
<title>Node5&#45;&gt;Node4</title>
<g id="a_edge4_Node000004_Node000005"><a xlink:title=" ">
<path fill="none" stroke="orange" stroke-dasharray="5,2" d="M224.12,-77C248.16,-77 275.97,-77 299.76,-77"/>
<polygon fill="orange" stroke="orange" points="224.07,-73.5 214.07,-77 224.07,-80.5 224.07,-73.5"/>
</a>
</g>
<text text-anchor="start" x="235" y="-82.5" font-family="Helvetica,sans-Serif" font-size="10.00" fill="grey">&lt; bool &gt;</text>
</g>
<!-- Node6 -->
<g id="Node000006" class="node">
<title>Node6</title>
<g id="a_Node000006"><a xlink:title=" ">
<polygon fill="white" stroke="#666666" points="29,-86.5 0,-86.5 0,-67.5 29,-67.5 29,-86.5"/>
<text text-anchor="middle" x="14.5" y="-74.5" font-family="Helvetica,sans-Serif" font-size="10.00">T</text>
</a>
</g>
</g>
<!-- Node6&#45;&gt;Node5 -->
<g id="edge5_Node000005_Node000006" class="edge">
<title>Node6&#45;&gt;Node5</title>
<g id="a_edge5_Node000005_Node000006"><a xlink:title=" ">
<path fill="none" stroke="#9a32cd" stroke-dasharray="5,2" d="M39.41,-77C60.21,-77 90.98,-77 116.79,-77"/>
<polygon fill="#9a32cd" stroke="#9a32cd" points="39.25,-73.5 29.25,-77 39.25,-80.5 39.25,-73.5"/>
</a>
</g>
<text text-anchor="start" x="50" y="-82.5" font-family="Helvetica,sans-Serif" font-size="10.00" fill="grey">elements</text>
</g>
<!-- Node7 -->
<g id="Node000007" class="node">
<title>Node7</title>
<g id="a_Node000007"><a xlink:title=" ">
<polygon fill="white" stroke="#666666" points="692,-24.5 627,-24.5 627,-5.5 692,-5.5 692,-24.5"/>
<text text-anchor="middle" x="659.5" y="-12.5" font-family="Helvetica,sans-Serif" font-size="10.00">std::string</text>
</a>
</g>
</g>
<!-- Node7&#45;&gt;Node1 -->
<g id="edge6_Node000001_Node000007" class="edge">
<title>Node7&#45;&gt;Node1</title>
<g id="a_edge6_Node000001_Node000007"><a xlink:title=" ">
<path fill="none" stroke="#9a32cd" stroke-dasharray="5,2" d="M702.23,-12.62C736.28,-12.07 785.1,-14.47 825,-29 849.59,-37.96 873.55,-56.6 888.62,-69.91"/>
<polygon fill="#9a32cd" stroke="#9a32cd" points="702.07,-9.13 692.16,-12.88 702.25,-16.12 702.07,-9.13"/>
</a>
</g>
<text text-anchor="start" x="755.5" y="-64.5" font-family="Helvetica,sans-Serif" font-size="10.00" fill="grey">m_bforce_file</text>
<text text-anchor="start" x="755.5" y="-49.5" font-family="Helvetica,sans-Serif" font-size="10.00" fill="grey">m_type</text>
<text text-anchor="start" x="755.5" y="-34.5" font-family="Helvetica,sans-Serif" font-size="10.00" fill="grey">m_utt_file</text>
</g>
<!-- Node8 -->
<g id="Node000008" class="node">
<title>Node8</title>
<g id="a_Node000008"><a xlink:title=" ">
<polygon fill="white" stroke="#666666" points="408,-30 304,-30 304,0 408,0 408,-30"/>
<text text-anchor="start" x="312" y="-18" font-family="Helvetica,sans-Serif" font-size="10.00">std::basic_string&lt;</text>
<text text-anchor="middle" x="356" y="-7" font-family="Helvetica,sans-Serif" font-size="10.00"> Char &gt;</text>
</a>
</g>
</g>
<!-- Node8&#45;&gt;Node7 -->
<g id="edge7_Node000007_Node000008" class="edge">
<title>Node8&#45;&gt;Node7</title>
<g id="a_edge7_Node000007_Node000008"><a xlink:title=" ">
<path fill="none" stroke="#63b8ff" d="M418.36,-15C481.45,-15 577.23,-15 626.6,-15"/>
<polygon fill="#63b8ff" stroke="#63b8ff" points="418.15,-11.5 408.15,-15 418.15,-18.5 418.15,-11.5"/>
</a>
</g>
</g>
</g>
</svg>
