<?xml version="1.0" encoding="UTF-8" standalone="no"?>
<!DOCTYPE svg PUBLIC "-//W3C//DTD SVG 1.1//EN"
 "http://www.w3.org/Graphics/SVG/1.1/DTD/svg11.dtd">
<!-- Generated by graphviz version 2.43.0 (0)
 -->
<!-- Title: /home/runner/work/amr&#45;wind/amr&#45;wind/src/equation_systems/icns/source_terms Pages: 1 -->
<!--zoomable 117 -->

<svg id="main" version="1.1" xmlns="http://www.w3.org/2000/svg" xmlns:xlink="http://www.w3.org/1999/xlink" xml:space="preserve" onload="init(evt)">

<style type="text/css"><![CDATA[
.node, .edge {opacity: 0.7;}
.node.selected, .edge.selected {opacity: 1;}
.edge:hover path { stroke: red; }
.edge:hover polygon { stroke: red; fill: red; }
]]></style>

<defs>
  <circle id="rim" cx="0" cy="0" r="7"/>
  <circle id="rim2" cx="0" cy="0" r="3.5"/>
  <g id="zoomPlus">
    <use xlink:href="#rim" fill="#404040"><set attributeName="fill" to="#808080" begin="zoomplus.mouseover" end="zoomplus.mouseout"/></use>
    <path d="M-4,0h8M0,-4v8" fill="none" stroke="white" stroke-width="1.5" pointer-events="none"/>
  </g>
  <g id="zoomMin">
    <use xlink:href="#rim" fill="#404040"><set attributeName="fill" to="#808080" begin="zoomminus.mouseover" end="zoomminus.mouseout"/></use>
    <path d="M-4,0h8" fill="none" stroke="white" stroke-width="1.5" pointer-events="none"/>
  </g>
  <g id="arrowUp" transform="translate(30 24)">
    <use xlink:href="#rim"/>
    <path pointer-events="none" fill="none" stroke="white" stroke-width="1.5" d="M0,-3.0v7 M-2.5,-0.5L0,-3.0L2.5,-0.5"/>
  </g>
  <g id="arrowRight" transform="rotate(90) translate(36 -43)">
    <use xlink:href="#rim"/>
    <path pointer-events="none" fill="none" stroke="white" stroke-width="1.5" d="M0,-3.0v7 M-2.5,-0.5L0,-3.0L2.5,-0.5"/>
  </g>
  <g id="arrowDown" transform="rotate(180) translate(-30 -48)">
    <use xlink:href="#rim"/>
    <path pointer-events="none" fill="none" stroke="white" stroke-width="1.5" d="M0,-3.0v7 M-2.5,-0.5L0,-3.0L2.5,-0.5"/>
  </g>
  <g id="arrowLeft" transform="rotate(270) translate(-36 17)">
    <use xlink:href="#rim"/>
    <path pointer-events="none" fill="none" stroke="white" stroke-width="1.5" d="M0,-3.0v7 M-2.5,-0.5L0,-3.0L2.5,-0.5"/>
  </g>
  <g id="resetDef">
    <use xlink:href="#rim2" fill="#404040"><set attributeName="fill" to="#808080" begin="reset.mouseover" end="reset.mouseout"/></use>
  </g>
</defs>
<script type="application/ecmascript">
var viewWidth = 542;
var viewHeight = 117;
var sectionId = 'dynsection-0';
</script>
<script type="application/ecmascript" xlink:href="svg.min.js"/>
<svg id="graph" class="graph">
<g id="viewport">
<title>/home/runner/work/amr&#45;wind/amr&#45;wind/src/equation_systems/icns/source_terms</title>
<g id="clust1" class="cluster">
<title>clusterdir_79d31366389e92fe8ca380dd0ae174ae</title>
<g id="a_clust1"><a xlink:href="dir_79d31366389e92fe8ca380dd0ae174ae.html" target="_top" xlink:title="icns">
<polygon fill="#edf0f7" stroke="#7f7f7f" stroke-dasharray="5,2" points="202.5,-47 202.5,-101 302.5,-101 302.5,-47 202.5,-47"/>
<text text-anchor="middle" x="252.5" y="-89" font-family="Helvetica,sans-Serif" font-size="10.00">icns</text>
</a>
</g>
</g>
<!-- dir_5361315174a531a511387ef7409b0032 -->
<g id="node1" class="node">
<title>dir_5361315174a531a511387ef7409b0032</title>
<g id="a_node1"><a xlink:href="dir_5361315174a531a511387ef7409b0032.html" target="_top" xlink:title="source_terms">
<polygon fill="#edf0f7" stroke="#404040" stroke-width="2" points="294,-74 211,-74 211,-55 294,-55 294,-74"/>
<text text-anchor="middle" x="252.5" y="-62" font-family="Helvetica,sans-Serif" font-size="10.00">source_terms</text>
</a>
</g>
</g>
<!-- dir_133c6df21499008847e7f9c02efce123 -->
<g id="node2" class="node">
<title>dir_133c6df21499008847e7f9c02efce123</title>
<g id="a_node2"><a xlink:href="dir_133c6df21499008847e7f9c02efce123.html" target="_top" xlink:title="wind_energy">
<polygon fill="#edf0f7" stroke="red" stroke-dasharray="5,2" points="79,-19 0,-19 0,0 79,0 79,-19"/>
<text text-anchor="middle" x="39.5" y="-7" font-family="Helvetica,sans-Serif" font-size="10.00">wind_energy</text>
</a>
</g>
</g>
<!-- dir_5361315174a531a511387ef7409b0032&#45;&gt;dir_133c6df21499008847e7f9c02efce123 -->
<g id="edge1" class="edge">
<title>dir_5361315174a531a511387ef7409b0032&#45;&gt;dir_133c6df21499008847e7f9c02efce123</title>
<g id="a_edge1"><a xlink:href="dir_000040_000058.html" target="_top">
<path fill="none" stroke="#63b8ff" d="M218.28,-54.98C181.74,-45.89 123.72,-31.46 83.74,-21.51"/>
<polygon fill="#63b8ff" stroke="#63b8ff" points="84.54,-18.1 73.99,-19.08 82.85,-24.89 84.54,-18.1"/>
</a>
</g>
<g id="a_edge1&#45;headlabel"><a xlink:href="dir_000040_000058.html" target="_top" xlink:title="9">
<text text-anchor="middle" x="88.71" y="-13.71" font-family="Helvetica,sans-Serif" font-size="10.00" fill="#63b8ff">9</text>
</a>
</g>
</g>
<!-- dir_30fc7f625817960b7d404606b3d57b42 -->
<g id="node3" class="node">
<title>dir_30fc7f625817960b7d404606b3d57b42</title>
<g id="a_node3"><a xlink:href="dir_30fc7f625817960b7d404606b3d57b42.html" target="_top" xlink:title="vof">
<polygon fill="#edf0f7" stroke="#7f7f7f" points="129.5,-19 97.5,-19 97.5,0 129.5,0 129.5,-19"/>
<text text-anchor="middle" x="113.5" y="-7" font-family="Helvetica,sans-Serif" font-size="10.00">vof</text>
</a>
</g>
</g>
<!-- dir_5361315174a531a511387ef7409b0032&#45;&gt;dir_30fc7f625817960b7d404606b3d57b42 -->
<g id="edge2" class="edge">
<title>dir_5361315174a531a511387ef7409b0032&#45;&gt;dir_30fc7f625817960b7d404606b3d57b42</title>
<g id="a_edge2"><a xlink:href="dir_000040_000055.html" target="_top">
<path fill="none" stroke="#63b8ff" d="M230.17,-54.98C205.37,-45.53 165.41,-30.29 139.3,-20.34"/>
<polygon fill="#63b8ff" stroke="#63b8ff" points="140.29,-16.97 129.7,-16.68 137.79,-23.51 140.29,-16.97"/>
</a>
</g>
<g id="a_edge2&#45;headlabel"><a xlink:href="dir_000040_000055.html" target="_top" xlink:title="3">
<text text-anchor="middle" x="144.66" y="-13.1" font-family="Helvetica,sans-Serif" font-size="10.00" fill="#63b8ff">3</text>
</a>
</g>
</g>
<!-- dir_823dfa78fa9f51e69a964e62ab31541e -->
<g id="node4" class="node">
<title>dir_823dfa78fa9f51e69a964e62ab31541e</title>
<g id="a_node4"><a xlink:href="dir_823dfa78fa9f51e69a964e62ab31541e.html" target="_top" xlink:title="turbulence">
<polygon fill="#edf0f7" stroke="red" stroke-dasharray="5,2" points="215.5,-19 147.5,-19 147.5,0 215.5,0 215.5,-19"/>
<text text-anchor="middle" x="181.5" y="-7" font-family="Helvetica,sans-Serif" font-size="10.00">turbulence</text>
</a>
</g>
</g>
<!-- dir_5361315174a531a511387ef7409b0032&#45;&gt;dir_823dfa78fa9f51e69a964e62ab31541e -->
<g id="edge3" class="edge">
<title>dir_5361315174a531a511387ef7409b0032&#45;&gt;dir_823dfa78fa9f51e69a964e62ab31541e</title>
<g id="a_edge3"><a xlink:href="dir_000040_000051.html" target="_top">
<path fill="none" stroke="#63b8ff" d="M241.09,-54.98C230.39,-47 214.16,-34.88 201.34,-25.31"/>
<polygon fill="#63b8ff" stroke="#63b8ff" points="203.22,-22.35 193.11,-19.17 199.03,-27.96 203.22,-22.35"/>
</a>
</g>
<g id="a_edge3&#45;headlabel"><a xlink:href="dir_000040_000051.html" target="_top" xlink:title="1">
<text text-anchor="middle" x="207.8" y="-19.72" font-family="Helvetica,sans-Serif" font-size="10.00" fill="#63b8ff">1</text>
</a>
</g>
</g>
<!-- dir_8bc3620d22f348c3a20da4350a7fbe1e -->
<g id="node5" class="node">
<title>dir_8bc3620d22f348c3a20da4350a7fbe1e</title>
<g id="a_node5"><a xlink:href="dir_8bc3620d22f348c3a20da4350a7fbe1e.html" target="_top" xlink:title="core">
<polygon fill="#edf0f7" stroke="red" stroke-dasharray="5,2" points="271.5,-19 233.5,-19 233.5,0 271.5,0 271.5,-19"/>
<text text-anchor="middle" x="252.5" y="-7" font-family="Helvetica,sans-Serif" font-size="10.00">core</text>
</a>
</g>
</g>
<!-- dir_5361315174a531a511387ef7409b0032&#45;&gt;dir_8bc3620d22f348c3a20da4350a7fbe1e -->
<g id="edge4" class="edge">
<title>dir_5361315174a531a511387ef7409b0032&#45;&gt;dir_8bc3620d22f348c3a20da4350a7fbe1e</title>
<g id="a_edge4"><a xlink:href="dir_000040_000008.html" target="_top">
<path fill="none" stroke="#63b8ff" d="M252.5,-54.75C252.5,-47.8 252.5,-37.85 252.5,-29.13"/>
<polygon fill="#63b8ff" stroke="#63b8ff" points="256,-29.09 252.5,-19.09 249,-29.09 256,-29.09"/>
</a>
</g>
<g id="a_edge4&#45;headlabel"><a xlink:href="dir_000040_000008.html" target="_top" xlink:title="27">
<text text-anchor="middle" x="258.84" y="-30.18" font-family="Helvetica,sans-Serif" font-size="10.00" fill="#63b8ff">27</text>
</a>
</g>
</g>
<!-- dir_9a27602cfb5ae71f860867d4c18f3108 -->
<g id="node6" class="node">
<title>dir_9a27602cfb5ae71f860867d4c18f3108</title>
<g id="a_node6"><a xlink:href="dir_9a27602cfb5ae71f860867d4c18f3108.html" target="_top" xlink:title="transport_models">
<polygon fill="#edf0f7" stroke="#7f7f7f" points="391.5,-19 289.5,-19 289.5,0 391.5,0 391.5,-19"/>
<text text-anchor="middle" x="340.5" y="-7" font-family="Helvetica,sans-Serif" font-size="10.00">transport_models</text>
</a>
</g>
</g>
<!-- dir_5361315174a531a511387ef7409b0032&#45;&gt;dir_9a27602cfb5ae71f860867d4c18f3108 -->
<g id="edge5" class="edge">
<title>dir_5361315174a531a511387ef7409b0032&#45;&gt;dir_9a27602cfb5ae71f860867d4c18f3108</title>
<g id="a_edge5"><a xlink:href="dir_000040_000049.html" target="_top">
<path fill="none" stroke="#63b8ff" d="M266.64,-54.98C280.29,-46.77 301.19,-34.18 317.28,-24.49"/>
<polygon fill="#63b8ff" stroke="#63b8ff" points="319.34,-27.33 326.1,-19.17 315.73,-21.33 319.34,-27.33"/>
</a>
</g>
<g id="a_edge5&#45;headlabel"><a xlink:href="dir_000040_000049.html" target="_top" xlink:title="2">
<text text-anchor="middle" x="317.73" y="-29.11" font-family="Helvetica,sans-Serif" font-size="10.00" fill="#63b8ff">2</text>
</a>
</g>
</g>
<!-- dir_b521126e83e9734b3038055a2b69c792 -->
<g id="node7" class="node">
<title>dir_b521126e83e9734b3038055a2b69c792</title>
<g id="a_node7"><a xlink:href="dir_b521126e83e9734b3038055a2b69c792.html" target="_top" xlink:title="physics">
<polygon fill="#edf0f7" stroke="red" stroke-dasharray="5,2" points="463,-19 410,-19 410,0 463,0 463,-19"/>
<text text-anchor="middle" x="436.5" y="-7" font-family="Helvetica,sans-Serif" font-size="10.00">physics</text>
</a>
</g>
</g>
<!-- dir_5361315174a531a511387ef7409b0032&#45;&gt;dir_b521126e83e9734b3038055a2b69c792 -->
<g id="edge6" class="edge">
<title>dir_5361315174a531a511387ef7409b0032&#45;&gt;dir_b521126e83e9734b3038055a2b69c792</title>
<g id="a_edge6"><a xlink:href="dir_000040_000033.html" target="_top">
<path fill="none" stroke="#63b8ff" d="M282.06,-54.98C314.24,-45.72 365.71,-30.89 400.29,-20.93"/>
<polygon fill="#63b8ff" stroke="#63b8ff" points="401.36,-24.27 410,-18.13 399.42,-17.54 401.36,-24.27"/>
</a>
</g>
<g id="a_edge6&#45;headlabel"><a xlink:href="dir_000040_000033.html" target="_top" xlink:title="4">
<text text-anchor="middle" x="398.69" y="-25.49" font-family="Helvetica,sans-Serif" font-size="10.00" fill="#63b8ff">4</text>
</a>
</g>
</g>
<!-- dir_b6cb907ee7f28da0ed55bdc53992fe8b -->
<g id="node8" class="node">
<title>dir_b6cb907ee7f28da0ed55bdc53992fe8b</title>
<g id="a_node8"><a xlink:href="dir_b6cb907ee7f28da0ed55bdc53992fe8b.html" target="_top" xlink:title="utilities">
<polygon fill="#edf0f7" stroke="red" stroke-dasharray="5,2" points="534,-19 481,-19 481,0 534,0 534,-19"/>
<text text-anchor="middle" x="507.5" y="-7" font-family="Helvetica,sans-Serif" font-size="10.00">utilities</text>
</a>
</g>
</g>
<!-- dir_5361315174a531a511387ef7409b0032&#45;&gt;dir_b6cb907ee7f28da0ed55bdc53992fe8b -->
<g id="edge7" class="edge">
<title>dir_5361315174a531a511387ef7409b0032&#45;&gt;dir_b6cb907ee7f28da0ed55bdc53992fe8b</title>
<g id="a_edge7"><a xlink:href="dir_000040_000053.html" target="_top">
<path fill="none" stroke="#63b8ff" d="M294.37,-55.53C336.63,-47.38 404,-34.07 470.91,-19.29"/>
<polygon fill="#63b8ff" stroke="#63b8ff" points="471.77,-22.69 480.77,-17.1 470.25,-15.85 471.77,-22.69"/>
</a>
</g>
<g id="a_edge7&#45;headlabel"><a xlink:href="dir_000040_000053.html" target="_top" xlink:title="29">
<text text-anchor="middle" x="468.87" y="-23.74" font-family="Helvetica,sans-Serif" font-size="10.00" fill="#63b8ff">29</text>
</a>
</g>
</g>
</g>
</svg>

<g id="navigator" transform="translate(0 0)" fill="#404254">
  <rect fill="#f2f5e9" fill-opacity="0.5" stroke="#606060" stroke-width=".5" x="0" y="0" width="60" height="60"/>
  <use id="zoomplus" xlink:href="#zoomPlus" x="17" y="9" onmousedown="handleZoom(evt,'in')"/>
  <use id="zoomminus" xlink:href="#zoomMin" x="42" y="9" onmousedown="handleZoom(evt,'out')"/>
  <use id="reset" xlink:href="#resetDef" x="30" y="36" onmousedown="handleReset()"/>
   <use id="arrowup" xlink:href="#arrowUp" x="0" y="0" onmousedown="handlePan(0,-1)"/>
  <use id="arrowright" xlink:href="#arrowRight" x="0" y="0" onmousedown="handlePan(1,0)"/>
  <use id="arrowdown" xlink:href="#arrowDown" x="0" y="0" onmousedown="handlePan(0,1)"/>
  <use id="arrowleft" xlink:href="#arrowLeft" x="0" y="0" onmousedown="handlePan(-1,0)"/>
</g>
<svg viewBox="0 0 15 15" width="100%" height="30px" preserveAspectRatio="xMaxYMin meet">
 <g id="arrow_out" transform="scale(0.3 0.3)">
  <a xlink:href="dir_5361315174a531a511387ef7409b0032_dep_org.svg" target="_base">
   <rect id="button" ry="5" rx="5" y="6" x="6" height="38" width="38"
        fill="#f2f5e9" fill-opacity="0.5" stroke="#606060" stroke-width="1.0"/>
   <path id="arrow"
     d="M 11.500037,31.436501 C 11.940474,20.09759 22.043105,11.32322 32.158766,21.979434 L 37.068811,17.246167 C 37.068811,17.246167 37.088388,32 37.088388,32 L 22.160133,31.978069 C 22.160133,31.978069 26.997745,27.140456 26.997745,27.140456 C 18.528582,18.264221 13.291696,25.230495 11.500037,31.436501 z"
     style="fill:#404040;"/>
  </a>
 </g>
</svg>

<style type='text/css'>
<![CDATA[
[data-mouse-over-selected='false'] { opacity: 0.7; }
[data-mouse-over-selected='true']  { opacity: 1.0; }
]]>
</style>
<script type="application/ecmascript"><![CDATA[
document.addEventListener('DOMContentLoaded', (event) => {
  highlightEdges();
  highlightAdjacentNodes();
});
]]></script>
</svg>
