<?xml version="1.0" encoding="UTF-8" standalone="no"?>
<!DOCTYPE svg PUBLIC "-//W3C//DTD SVG 1.1//EN"
 "http://www.w3.org/Graphics/SVG/1.1/DTD/svg11.dtd">
<!-- Generated by graphviz version 2.43.0 (0)
 -->
<!-- Title: /home/runner/work/amr&#45;wind/amr&#45;wind/src/overset Pages: 1 -->
<!--zoomable 133 -->

<svg id="main" version="1.1" xmlns="http://www.w3.org/2000/svg" xmlns:xlink="http://www.w3.org/1999/xlink" xml:space="preserve" onload="init(evt)">

<style type="text/css"><![CDATA[
.node, .edge {opacity: 0.7;}
.node.selected, .edge.selected {opacity: 1;}
.edge:hover path { stroke: red; }
.edge:hover polygon { stroke: red; fill: red; }
]]></style>

<defs>
  <circle id="rim" cx="0" cy="0" r="7"/>
  <circle id="rim2" cx="0" cy="0" r="3.5"/>
  <g id="zoomPlus">
    <use xlink:href="#rim" fill="#404040"><set attributeName="fill" to="#808080" begin="zoomplus.mouseover" end="zoomplus.mouseout"/></use>
    <path d="M-4,0h8M0,-4v8" fill="none" stroke="white" stroke-width="1.5" pointer-events="none"/>
  </g>
  <g id="zoomMin">
    <use xlink:href="#rim" fill="#404040"><set attributeName="fill" to="#808080" begin="zoomminus.mouseover" end="zoomminus.mouseout"/></use>
    <path d="M-4,0h8" fill="none" stroke="white" stroke-width="1.5" pointer-events="none"/>
  </g>
  <g id="arrowUp" transform="translate(30 24)">
    <use xlink:href="#rim"/>
    <path pointer-events="none" fill="none" stroke="white" stroke-width="1.5" d="M0,-3.0v7 M-2.5,-0.5L0,-3.0L2.5,-0.5"/>
  </g>
  <g id="arrowRight" transform="rotate(90) translate(36 -43)">
    <use xlink:href="#rim"/>
    <path pointer-events="none" fill="none" stroke="white" stroke-width="1.5" d="M0,-3.0v7 M-2.5,-0.5L0,-3.0L2.5,-0.5"/>
  </g>
  <g id="arrowDown" transform="rotate(180) translate(-30 -48)">
    <use xlink:href="#rim"/>
    <path pointer-events="none" fill="none" stroke="white" stroke-width="1.5" d="M0,-3.0v7 M-2.5,-0.5L0,-3.0L2.5,-0.5"/>
  </g>
  <g id="arrowLeft" transform="rotate(270) translate(-36 17)">
    <use xlink:href="#rim"/>
    <path pointer-events="none" fill="none" stroke="white" stroke-width="1.5" d="M0,-3.0v7 M-2.5,-0.5L0,-3.0L2.5,-0.5"/>
  </g>
  <g id="resetDef">
    <use xlink:href="#rim2" fill="#404040"><set attributeName="fill" to="#808080" begin="reset.mouseover" end="reset.mouseout"/></use>
  </g>
</defs>
<script type="application/ecmascript">
var viewWidth = 565;
var viewHeight = 133;
var sectionId = 'dynsection-0';
</script>
<script type="application/ecmascript" xlink:href="svg.min.js"/>
<svg id="graph" class="graph">
<g id="viewport">
<title>/home/runner/work/amr&#45;wind/amr&#45;wind/src/overset</title>
<g id="clust1" class="cluster">
<title>clusterdir_7cd58fa63947f04333d3c0c0c3c8075c</title>
<g id="a_clust1"><a xlink:href="dir_7cd58fa63947f04333d3c0c0c3c8075c.html" target="_top" xlink:title="src">
<polygon fill="#edf0f7" stroke="#7f7f7f" stroke-dasharray="5,2" points="8,-8 8,-117 549,-117 549,-8 8,-8"/>
<text text-anchor="middle" x="278.5" y="-105" font-family="Helvetica,sans-Serif" font-size="10.00">src</text>
</a>
</g>
</g>
<!-- dir_050dbe99472bbfb94a8f3df6a82eaf7d -->
<g id="node1" class="node">
<title>dir_050dbe99472bbfb94a8f3df6a82eaf7d</title>
<g id="a_node1"><a xlink:href="dir_050dbe99472bbfb94a8f3df6a82eaf7d.html" target="_top" xlink:title="boundary_conditions">
<polygon fill="#a2b4d6" stroke="red" points="134,-35 16,-35 16,-16 134,-16 134,-35"/>
<text text-anchor="middle" x="75" y="-23" font-family="Helvetica,sans-Serif" font-size="10.00">boundary_conditions</text>
</a>
</g>
</g>
<!-- dir_5ee876e99c042272becfb69643ff70b7 -->
<g id="node2" class="node">
<title>dir_5ee876e99c042272becfb69643ff70b7</title>
<g id="a_node2"><a xlink:href="dir_5ee876e99c042272becfb69643ff70b7.html" target="_top" xlink:title="projection">
<polygon fill="#a2b4d6" stroke="#404040" points="217.5,-35 152.5,-35 152.5,-16 217.5,-16 217.5,-35"/>
<text text-anchor="middle" x="185" y="-23" font-family="Helvetica,sans-Serif" font-size="10.00">projection</text>
</a>
</g>
</g>
<!-- dir_8bc3620d22f348c3a20da4350a7fbe1e -->
<g id="node3" class="node">
<title>dir_8bc3620d22f348c3a20da4350a7fbe1e</title>
<g id="a_node3"><a xlink:href="dir_8bc3620d22f348c3a20da4350a7fbe1e.html" target="_top" xlink:title="core">
<polygon fill="#a2b4d6" stroke="red" points="274,-35 236,-35 236,-16 274,-16 274,-35"/>
<text text-anchor="middle" x="255" y="-23" font-family="Helvetica,sans-Serif" font-size="10.00">core</text>
</a>
</g>
</g>
<!-- dir_b521126e83e9734b3038055a2b69c792 -->
<g id="node4" class="node">
<title>dir_b521126e83e9734b3038055a2b69c792</title>
<g id="a_node4"><a xlink:href="dir_b521126e83e9734b3038055a2b69c792.html" target="_top" xlink:title="physics">
<polygon fill="#a2b4d6" stroke="red" points="345.5,-35 292.5,-35 292.5,-16 345.5,-16 345.5,-35"/>
<text text-anchor="middle" x="319" y="-23" font-family="Helvetica,sans-Serif" font-size="10.00">physics</text>
</a>
</g>
</g>
<!-- dir_b6cb907ee7f28da0ed55bdc53992fe8b -->
<g id="node5" class="node">
<title>dir_b6cb907ee7f28da0ed55bdc53992fe8b</title>
<g id="a_node5"><a xlink:href="dir_b6cb907ee7f28da0ed55bdc53992fe8b.html" target="_top" xlink:title="utilities">
<polygon fill="#a2b4d6" stroke="red" points="416.5,-35 363.5,-35 363.5,-16 416.5,-16 416.5,-35"/>
<text text-anchor="middle" x="390" y="-23" font-family="Helvetica,sans-Serif" font-size="10.00">utilities</text>
</a>
</g>
</g>
<!-- dir_c224d730a748b8f4130570ffc2b8c5b9 -->
<g id="node6" class="node">
<title>dir_c224d730a748b8f4130570ffc2b8c5b9</title>
<g id="a_node6"><a xlink:href="dir_c224d730a748b8f4130570ffc2b8c5b9.html" target="_top" xlink:title="equation_systems">
<polygon fill="#a2b4d6" stroke="red" points="541,-35 435,-35 435,-16 541,-16 541,-35"/>
<text text-anchor="middle" x="488" y="-23" font-family="Helvetica,sans-Serif" font-size="10.00">equation_systems</text>
</a>
</g>
</g>
<!-- dir_6aabc9e777a69c2d60b9c32b20c2f793 -->
<g id="node7" class="node">
<title>dir_6aabc9e777a69c2d60b9c32b20c2f793</title>
<g id="a_node7"><a xlink:href="dir_6aabc9e777a69c2d60b9c32b20c2f793.html" target="_top" xlink:title="overset">
<polygon fill="#edf0f7" stroke="#404040" stroke-width="2" points="313.5,-90 260.5,-90 260.5,-71 313.5,-71 313.5,-90"/>
<text text-anchor="middle" x="287" y="-78" font-family="Helvetica,sans-Serif" font-size="10.00">overset</text>
</a>
</g>
</g>
<!-- dir_6aabc9e777a69c2d60b9c32b20c2f793&#45;&gt;dir_050dbe99472bbfb94a8f3df6a82eaf7d -->
<g id="edge1" class="edge">
<title>dir_6aabc9e777a69c2d60b9c32b20c2f793&#45;&gt;dir_050dbe99472bbfb94a8f3df6a82eaf7d</title>
<g id="a_edge1"><a xlink:href="dir_000031_000006.html" target="_top">
<path fill="none" stroke="#63b8ff" d="M260.15,-72.79C224.67,-63.92 161.69,-48.17 119.15,-37.54"/>
<polygon fill="#63b8ff" stroke="#63b8ff" points="119.89,-34.12 109.34,-35.09 118.19,-40.91 119.89,-34.12"/>
</a>
</g>
<g id="a_edge1&#45;headlabel"><a xlink:href="dir_000031_000006.html" target="_top" xlink:title="2">
<text text-anchor="middle" x="124.07" y="-29.73" font-family="Helvetica,sans-Serif" font-size="10.00" fill="#63b8ff">2</text>
</a>
</g>
</g>
<!-- dir_6aabc9e777a69c2d60b9c32b20c2f793&#45;&gt;dir_5ee876e99c042272becfb69643ff70b7 -->
<g id="edge2" class="edge">
<title>dir_6aabc9e777a69c2d60b9c32b20c2f793&#45;&gt;dir_5ee876e99c042272becfb69643ff70b7</title>
<g id="a_edge2"><a xlink:href="dir_000031_000034.html" target="_top">
<path fill="none" stroke="#63b8ff" d="M270.61,-70.98C254.43,-62.57 229.43,-49.59 210.62,-39.81"/>
<polygon fill="#63b8ff" stroke="#63b8ff" points="212.17,-36.68 201.69,-35.17 208.95,-42.89 212.17,-36.68"/>
</a>
</g>
<g id="a_edge2&#45;headlabel"><a xlink:href="dir_000031_000034.html" target="_top" xlink:title="1">
<text text-anchor="middle" x="216.67" y="-33.31" font-family="Helvetica,sans-Serif" font-size="10.00" fill="#63b8ff">1</text>
</a>
</g>
</g>
<!-- dir_6aabc9e777a69c2d60b9c32b20c2f793&#45;&gt;dir_8bc3620d22f348c3a20da4350a7fbe1e -->
<g id="edge3" class="edge">
<title>dir_6aabc9e777a69c2d60b9c32b20c2f793&#45;&gt;dir_8bc3620d22f348c3a20da4350a7fbe1e</title>
<g id="a_edge3"><a xlink:href="dir_000031_000008.html" target="_top">
<path fill="none" stroke="#63b8ff" d="M281.72,-70.75C277.29,-63.42 270.84,-52.73 265.38,-43.7"/>
<polygon fill="#63b8ff" stroke="#63b8ff" points="268.35,-41.84 260.19,-35.09 262.36,-45.46 268.35,-41.84"/>
</a>
</g>
<g id="a_edge3&#45;headlabel"><a xlink:href="dir_000031_000008.html" target="_top" xlink:title="6">
<text text-anchor="middle" x="272.64" y="-40.95" font-family="Helvetica,sans-Serif" font-size="10.00" fill="#63b8ff">6</text>
</a>
</g>
</g>
<!-- dir_6aabc9e777a69c2d60b9c32b20c2f793&#45;&gt;dir_b521126e83e9734b3038055a2b69c792 -->
<g id="edge4" class="edge">
<title>dir_6aabc9e777a69c2d60b9c32b20c2f793&#45;&gt;dir_b521126e83e9734b3038055a2b69c792</title>
<g id="a_edge4"><a xlink:href="dir_000031_000033.html" target="_top">
<path fill="none" stroke="#63b8ff" d="M292.28,-70.75C296.71,-63.42 303.16,-52.73 308.62,-43.7"/>
<polygon fill="#63b8ff" stroke="#63b8ff" points="311.64,-45.46 313.81,-35.09 305.65,-41.84 311.64,-45.46"/>
</a>
</g>
<g id="a_edge4&#45;headlabel"><a xlink:href="dir_000031_000033.html" target="_top" xlink:title="1">
<text text-anchor="middle" x="312.21" y="-47.5" font-family="Helvetica,sans-Serif" font-size="10.00" fill="#63b8ff">1</text>
</a>
</g>
</g>
<!-- dir_6aabc9e777a69c2d60b9c32b20c2f793&#45;&gt;dir_b6cb907ee7f28da0ed55bdc53992fe8b -->
<g id="edge5" class="edge">
<title>dir_6aabc9e777a69c2d60b9c32b20c2f793&#45;&gt;dir_b6cb907ee7f28da0ed55bdc53992fe8b</title>
<g id="a_edge5"><a xlink:href="dir_000031_000053.html" target="_top">
<path fill="none" stroke="#63b8ff" d="M303.55,-70.98C319.89,-62.57 345.13,-49.59 364.13,-39.81"/>
<polygon fill="#63b8ff" stroke="#63b8ff" points="365.86,-42.86 373.15,-35.17 362.66,-36.63 365.86,-42.86"/>
</a>
</g>
<g id="a_edge5&#45;headlabel"><a xlink:href="dir_000031_000053.html" target="_top" xlink:title="1">
<text text-anchor="middle" x="363.96" y="-44.53" font-family="Helvetica,sans-Serif" font-size="10.00" fill="#63b8ff">1</text>
</a>
</g>
</g>
<!-- dir_6aabc9e777a69c2d60b9c32b20c2f793&#45;&gt;dir_c224d730a748b8f4130570ffc2b8c5b9 -->
<g id="edge6" class="edge">
<title>dir_6aabc9e777a69c2d60b9c32b20c2f793&#45;&gt;dir_c224d730a748b8f4130570ffc2b8c5b9</title>
<g id="a_edge6"><a xlink:href="dir_000031_000015.html" target="_top">
<path fill="none" stroke="#63b8ff" d="M313.69,-72.46C347.46,-63.56 406,-48.12 445.84,-37.62"/>
<polygon fill="#63b8ff" stroke="#63b8ff" points="446.76,-40.99 455.54,-35.06 444.97,-34.23 446.76,-40.99"/>
</a>
</g>
<g id="a_edge6&#45;headlabel"><a xlink:href="dir_000031_000015.html" target="_top" xlink:title="2">
<text text-anchor="middle" x="444.01" y="-42.16" font-family="Helvetica,sans-Serif" font-size="10.00" fill="#63b8ff">2</text>
</a>
</g>
</g>
</g>
</svg>

<g id="navigator" transform="translate(0 0)" fill="#404254">
  <rect fill="#f2f5e9" fill-opacity="0.5" stroke="#606060" stroke-width=".5" x="0" y="0" width="60" height="60"/>
  <use id="zoomplus" xlink:href="#zoomPlus" x="17" y="9" onmousedown="handleZoom(evt,'in')"/>
  <use id="zoomminus" xlink:href="#zoomMin" x="42" y="9" onmousedown="handleZoom(evt,'out')"/>
  <use id="reset" xlink:href="#resetDef" x="30" y="36" onmousedown="handleReset()"/>
   <use id="arrowup" xlink:href="#arrowUp" x="0" y="0" onmousedown="handlePan(0,-1)"/>
  <use id="arrowright" xlink:href="#arrowRight" x="0" y="0" onmousedown="handlePan(1,0)"/>
  <use id="arrowdown" xlink:href="#arrowDown" x="0" y="0" onmousedown="handlePan(0,1)"/>
  <use id="arrowleft" xlink:href="#arrowLeft" x="0" y="0" onmousedown="handlePan(-1,0)"/>
</g>
<svg viewBox="0 0 15 15" width="100%" height="30px" preserveAspectRatio="xMaxYMin meet">
 <g id="arrow_out" transform="scale(0.3 0.3)">
  <a xlink:href="dir_6aabc9e777a69c2d60b9c32b20c2f793_dep_org.svg" target="_base">
   <rect id="button" ry="5" rx="5" y="6" x="6" height="38" width="38"
        fill="#f2f5e9" fill-opacity="0.5" stroke="#606060" stroke-width="1.0"/>
   <path id="arrow"
     d="M 11.500037,31.436501 C 11.940474,20.09759 22.043105,11.32322 32.158766,21.979434 L 37.068811,17.246167 C 37.068811,17.246167 37.088388,32 37.088388,32 L 22.160133,31.978069 C 22.160133,31.978069 26.997745,27.140456 26.997745,27.140456 C 18.528582,18.264221 13.291696,25.230495 11.500037,31.436501 z"
     style="fill:#404040;"/>
  </a>
 </g>
</svg>

<style type='text/css'>
<![CDATA[
[data-mouse-over-selected='false'] { opacity: 0.7; }
[data-mouse-over-selected='true']  { opacity: 1.0; }
]]>
</style>
<script type="application/ecmascript"><![CDATA[
document.addEventListener('DOMContentLoaded', (event) => {
  highlightEdges();
  highlightAdjacentNodes();
});
]]></script>
</svg>
