<?xml version="1.0" encoding="UTF-8" standalone="no"?>
<!DOCTYPE svg PUBLIC "-//W3C//DTD SVG 1.1//EN"
 "http://www.w3.org/Graphics/SVG/1.1/DTD/svg11.dtd">
<!-- Generated by graphviz version 2.43.0 (0)
 -->
<!-- Title: /home/runner/work/amr&#45;wind/amr&#45;wind/src/wind_energy/actuator/disk/disk_types.H Pages: 1 -->
<svg width="1729pt" height="654pt"
 viewBox="0.00 0.00 1728.66 654.00" xmlns="http://www.w3.org/2000/svg" xmlns:xlink="http://www.w3.org/1999/xlink">
<g id="graph0" class="graph" transform="scale(1 1) rotate(0) translate(4 650)">
<title>/home/runner/work/amr&#45;wind/amr&#45;wind/src/wind_energy/actuator/disk/disk_types.H</title>
<!-- Node1 -->
<g id="Node000001" class="node">
<title>Node1</title>
<g id="a_Node000001"><a xlink:title=" ">
<polygon fill="#999999" stroke="#666666" points="1398,-646 1252,-646 1252,-594 1398,-594 1398,-646"/>
<text text-anchor="start" x="1260" y="-634" font-family="Helvetica,sans-Serif" font-size="10.00">/home/runner/work/amr</text>
<text text-anchor="start" x="1260" y="-623" font-family="Helvetica,sans-Serif" font-size="10.00">&#45;wind/amr&#45;wind/src/wind</text>
<text text-anchor="start" x="1260" y="-612" font-family="Helvetica,sans-Serif" font-size="10.00">_energy/actuator/disk/disk</text>
<text text-anchor="middle" x="1325" y="-601" font-family="Helvetica,sans-Serif" font-size="10.00">_types.H</text>
</a>
</g>
</g>
<!-- Node2 -->
<g id="Node000002" class="node">
<title>Node2</title>
<g id="a_Node000002"><a xlink:href="_act_src_disk_op_8_h.html" target="_top" xlink:title=" ">
<polygon fill="white" stroke="#666666" points="980,-299.5 778,-299.5 778,-258.5 980,-258.5 980,-299.5"/>
<text text-anchor="start" x="786" y="-287.5" font-family="Helvetica,sans-Serif" font-size="10.00">/home/runner/work/amr</text>
<text text-anchor="start" x="786" y="-276.5" font-family="Helvetica,sans-Serif" font-size="10.00">&#45;wind/amr&#45;wind/src/wind</text>
<text text-anchor="middle" x="879" y="-265.5" font-family="Helvetica,sans-Serif" font-size="10.00">_energy/actuator/disk/ActSrcDiskOp.H</text>
</a>
</g>
</g>
<!-- Node1&#45;&gt;Node2 -->
<g id="edge1_Node000001_Node000002" class="edge">
<title>Node1&#45;&gt;Node2</title>
<g id="a_edge1_Node000001_Node000002"><a xlink:title=" ">
<path fill="none" stroke="#63b8ff" d="M1242.15,-601.01C1141.71,-574.38 976.2,-514.01 898,-393 879.54,-364.43 877.26,-323.61 877.79,-299.65"/>
<polygon fill="#63b8ff" stroke="#63b8ff" points="1241.41,-604.43 1251.97,-603.55 1243.17,-597.65 1241.41,-604.43"/>
</a>
</g>
</g>
<!-- Node13 -->
<g id="Node000013" class="node">
<title>Node13</title>
<g id="a_Node000013"><a xlink:href="_actuator_disk_8_h.html" target="_top" xlink:title=" ">
<polygon fill="white" stroke="#666666" points="1408.5,-558 1241.5,-558 1241.5,-506 1408.5,-506 1408.5,-558"/>
<text text-anchor="start" x="1249.5" y="-546" font-family="Helvetica,sans-Serif" font-size="10.00">/home/runner/work/amr</text>
<text text-anchor="start" x="1249.5" y="-535" font-family="Helvetica,sans-Serif" font-size="10.00">&#45;wind/amr&#45;wind/src/wind</text>
<text text-anchor="start" x="1249.5" y="-524" font-family="Helvetica,sans-Serif" font-size="10.00">_energy/actuator/disk/Actuator</text>
<text text-anchor="middle" x="1325" y="-513" font-family="Helvetica,sans-Serif" font-size="10.00">Disk.H</text>
</a>
</g>
</g>
<!-- Node1&#45;&gt;Node13 -->
<g id="edge12_Node000001_Node000013" class="edge">
<title>Node1&#45;&gt;Node13</title>
<g id="a_edge12_Node000001_Node000013"><a xlink:title=" ">
<path fill="none" stroke="#63b8ff" d="M1325,-583.56C1325,-575.04 1325,-566.1 1325,-558.16"/>
<polygon fill="#63b8ff" stroke="#63b8ff" points="1321.5,-583.66 1325,-593.66 1328.5,-583.66 1321.5,-583.66"/>
</a>
</g>
</g>
<!-- Node14 -->
<g id="Node000014" class="node">
<title>Node14</title>
<g id="a_Node000014"><a xlink:href="_joukowsky_8_h.html" target="_top" xlink:title=" ">
<polygon fill="white" stroke="#666666" points="1665.5,-470 1480.5,-470 1480.5,-429 1665.5,-429 1665.5,-470"/>
<text text-anchor="start" x="1488.5" y="-458" font-family="Helvetica,sans-Serif" font-size="10.00">/home/runner/work/amr</text>
<text text-anchor="start" x="1488.5" y="-447" font-family="Helvetica,sans-Serif" font-size="10.00">&#45;wind/amr&#45;wind/src/wind</text>
<text text-anchor="middle" x="1573" y="-436" font-family="Helvetica,sans-Serif" font-size="10.00">_energy/actuator/disk/Joukowsky.H</text>
</a>
</g>
</g>
<!-- Node1&#45;&gt;Node14 -->
<g id="edge31_Node000001_Node000014" class="edge">
<title>Node1&#45;&gt;Node14</title>
<g id="a_edge31_Node000001_Node000014"><a xlink:title=" ">
<path fill="none" stroke="#63b8ff" d="M1371.54,-588.38C1386.13,-578.71 1402.27,-567.96 1417,-558 1461.96,-527.61 1513.77,-491.73 1544.92,-470.07"/>
<polygon fill="#63b8ff" stroke="#63b8ff" points="1369.56,-585.49 1363.15,-593.93 1373.42,-591.33 1369.56,-585.49"/>
</a>
</g>
</g>
<!-- Node3 -->
<g id="Node000003" class="node">
<title>Node3</title>
<g id="a_Node000003"><a xlink:href="_actuator_model_8_h.html" target="_top" xlink:title=" ">
<polygon fill="white" stroke="#666666" points="918,-217 734,-217 734,-176 918,-176 918,-217"/>
<text text-anchor="start" x="742" y="-205" font-family="Helvetica,sans-Serif" font-size="10.00">/home/runner/work/amr</text>
<text text-anchor="start" x="742" y="-194" font-family="Helvetica,sans-Serif" font-size="10.00">&#45;wind/amr&#45;wind/src/wind</text>
<text text-anchor="middle" x="826" y="-183" font-family="Helvetica,sans-Serif" font-size="10.00">_energy/actuator/ActuatorModel.H</text>
</a>
</g>
</g>
<!-- Node2&#45;&gt;Node3 -->
<g id="edge2_Node000002_Node000003" class="edge">
<title>Node2&#45;&gt;Node3</title>
<g id="a_edge2_Node000002_Node000003"><a xlink:title=" ">
<path fill="none" stroke="#63b8ff" d="M860.22,-249.48C853.18,-238.79 845.35,-226.88 838.95,-217.17"/>
<polygon fill="#63b8ff" stroke="#63b8ff" points="857.48,-251.67 865.9,-258.1 863.32,-247.82 857.48,-251.67"/>
</a>
</g>
</g>
<!-- Node4 -->
<g id="Node000004" class="node">
<title>Node4</title>
<g id="a_Node000004"><a xlink:href="_actuator_8_h.html" target="_top" xlink:title=" ">
<polygon fill="white" stroke="#666666" points="332.5,-134.5 179.5,-134.5 179.5,-93.5 332.5,-93.5 332.5,-134.5"/>
<text text-anchor="start" x="187.5" y="-122.5" font-family="Helvetica,sans-Serif" font-size="10.00">/home/runner/work/amr</text>
<text text-anchor="start" x="187.5" y="-111.5" font-family="Helvetica,sans-Serif" font-size="10.00">&#45;wind/amr&#45;wind/src/wind</text>
<text text-anchor="middle" x="256" y="-100.5" font-family="Helvetica,sans-Serif" font-size="10.00">_energy/actuator/Actuator.H</text>
</a>
</g>
</g>
<!-- Node3&#45;&gt;Node4 -->
<g id="edge3_Node000003_Node000004" class="edge">
<title>Node3&#45;&gt;Node4</title>
<g id="a_edge3_Node000003_Node000004"><a xlink:title=" ">
<path fill="none" stroke="#63b8ff" d="M723.66,-188.93C624.95,-181.38 471.69,-166.49 341,-140 333.46,-138.47 325.63,-136.59 317.9,-134.54"/>
<polygon fill="#63b8ff" stroke="#63b8ff" points="723.4,-192.42 733.64,-189.68 723.93,-185.44 723.4,-192.42"/>
</a>
</g>
</g>
<!-- Node8 -->
<g id="Node000008" class="node">
<title>Node8</title>
<g id="a_Node000008"><a xlink:href="_actuator_disk_8cpp.html" target="_top" xlink:title=" ">
<polygon fill="white" stroke="#666666" points="1321.5,-140 1154.5,-140 1154.5,-88 1321.5,-88 1321.5,-140"/>
<text text-anchor="start" x="1162.5" y="-128" font-family="Helvetica,sans-Serif" font-size="10.00">/home/runner/work/amr</text>
<text text-anchor="start" x="1162.5" y="-117" font-family="Helvetica,sans-Serif" font-size="10.00">&#45;wind/amr&#45;wind/src/wind</text>
<text text-anchor="start" x="1162.5" y="-106" font-family="Helvetica,sans-Serif" font-size="10.00">_energy/actuator/disk/Actuator</text>
<text text-anchor="middle" x="1238" y="-95" font-family="Helvetica,sans-Serif" font-size="10.00">Disk.cpp</text>
</a>
</g>
</g>
<!-- Node3&#45;&gt;Node8 -->
<g id="edge7_Node000003_Node000008" class="edge">
<title>Node3&#45;&gt;Node8</title>
<g id="a_edge7_Node000003_Node000008"><a xlink:title=" ">
<path fill="none" stroke="#63b8ff" d="M928.13,-180.14C990.96,-170.1 1072.97,-155.91 1145,-140 1148.1,-139.31 1151.26,-138.59 1154.44,-137.85"/>
<polygon fill="#63b8ff" stroke="#63b8ff" points="927.54,-176.69 918.22,-181.72 928.64,-183.6 927.54,-176.69"/>
</a>
</g>
</g>
<!-- Node9 -->
<g id="Node000009" class="node">
<title>Node9</title>
<g id="a_Node000009"><a xlink:href="_turbine_fast_8cpp.html" target="_top" xlink:title=" ">
<polygon fill="white" stroke="#666666" points="487.5,-140 350.5,-140 350.5,-88 487.5,-88 487.5,-140"/>
<text text-anchor="start" x="358.5" y="-128" font-family="Helvetica,sans-Serif" font-size="10.00">/home/runner/work/amr</text>
<text text-anchor="start" x="358.5" y="-117" font-family="Helvetica,sans-Serif" font-size="10.00">&#45;wind/amr&#45;wind/src/wind</text>
<text text-anchor="start" x="358.5" y="-106" font-family="Helvetica,sans-Serif" font-size="10.00">_energy/actuator/turbine</text>
<text text-anchor="middle" x="419" y="-95" font-family="Helvetica,sans-Serif" font-size="10.00">/fast/TurbineFast.cpp</text>
</a>
</g>
</g>
<!-- Node3&#45;&gt;Node9 -->
<g id="edge8_Node000003_Node000009" class="edge">
<title>Node3&#45;&gt;Node9</title>
<g id="a_edge8_Node000003_Node000009"><a xlink:title=" ">
<path fill="none" stroke="#63b8ff" d="M723.93,-182.3C658.32,-172.84 571.54,-158.51 496,-140 493.27,-139.33 490.5,-138.61 487.7,-137.86"/>
<polygon fill="#63b8ff" stroke="#63b8ff" points="723.47,-185.77 733.86,-183.71 724.46,-178.84 723.47,-185.77"/>
</a>
</g>
</g>
<!-- Node10 -->
<g id="Node000010" class="node">
<title>Node10</title>
<g id="a_Node000010"><a xlink:href="_turbine_kynema_f_m_b_8cpp.html" target="_top" xlink:title=" ">
<polygon fill="white" stroke="#666666" points="708.5,-140 505.5,-140 505.5,-88 708.5,-88 708.5,-140"/>
<text text-anchor="start" x="513.5" y="-128" font-family="Helvetica,sans-Serif" font-size="10.00">/home/runner/work/amr</text>
<text text-anchor="start" x="513.5" y="-117" font-family="Helvetica,sans-Serif" font-size="10.00">&#45;wind/amr&#45;wind/src/wind</text>
<text text-anchor="start" x="513.5" y="-106" font-family="Helvetica,sans-Serif" font-size="10.00">_energy/actuator/turbine</text>
<text text-anchor="middle" x="607" y="-95" font-family="Helvetica,sans-Serif" font-size="10.00">/kynema_fmb/TurbineKynemaFMB.cpp</text>
</a>
</g>
</g>
<!-- Node3&#45;&gt;Node10 -->
<g id="edge9_Node000003_Node000010" class="edge">
<title>Node3&#45;&gt;Node10</title>
<g id="a_edge9_Node000003_Node000010"><a xlink:title=" ">
<path fill="none" stroke="#63b8ff" d="M763.18,-172.41C735.63,-162.28 703.24,-150.38 675.12,-140.04"/>
<polygon fill="#63b8ff" stroke="#63b8ff" points="762.11,-175.75 772.71,-175.91 764.53,-169.18 762.11,-175.75"/>
</a>
</g>
</g>
<!-- Node11 -->
<g id="Node000011" class="node">
<title>Node11</title>
<g id="a_Node000011"><a xlink:href="_fixed_wing_8cpp.html" target="_top" xlink:title=" ">
<polygon fill="white" stroke="#666666" points="925.5,-134.5 726.5,-134.5 726.5,-93.5 925.5,-93.5 925.5,-134.5"/>
<text text-anchor="start" x="734.5" y="-122.5" font-family="Helvetica,sans-Serif" font-size="10.00">/home/runner/work/amr</text>
<text text-anchor="start" x="734.5" y="-111.5" font-family="Helvetica,sans-Serif" font-size="10.00">&#45;wind/amr&#45;wind/src/wind</text>
<text text-anchor="middle" x="826" y="-100.5" font-family="Helvetica,sans-Serif" font-size="10.00">_energy/actuator/wing/FixedWing.cpp</text>
</a>
</g>
</g>
<!-- Node3&#45;&gt;Node11 -->
<g id="edge10_Node000003_Node000011" class="edge">
<title>Node3&#45;&gt;Node11</title>
<g id="a_edge10_Node000003_Node000011"><a xlink:title=" ">
<path fill="none" stroke="#63b8ff" d="M826,-165.37C826,-155.1 826,-143.9 826,-134.67"/>
<polygon fill="#63b8ff" stroke="#63b8ff" points="822.5,-165.6 826,-175.6 829.5,-165.6 822.5,-165.6"/>
</a>
</g>
</g>
<!-- Node12 -->
<g id="Node000012" class="node">
<title>Node12</title>
<g id="a_Node000012"><a xlink:href="_flat_plate_8cpp.html" target="_top" xlink:title=" ">
<polygon fill="white" stroke="#666666" points="1136,-134.5 944,-134.5 944,-93.5 1136,-93.5 1136,-134.5"/>
<text text-anchor="start" x="952" y="-122.5" font-family="Helvetica,sans-Serif" font-size="10.00">/home/runner/work/amr</text>
<text text-anchor="start" x="952" y="-111.5" font-family="Helvetica,sans-Serif" font-size="10.00">&#45;wind/amr&#45;wind/src/wind</text>
<text text-anchor="middle" x="1040" y="-100.5" font-family="Helvetica,sans-Serif" font-size="10.00">_energy/actuator/wing/FlatPlate.cpp</text>
</a>
</g>
</g>
<!-- Node3&#45;&gt;Node12 -->
<g id="edge11_Node000003_Node000012" class="edge">
<title>Node3&#45;&gt;Node12</title>
<g id="a_edge11_Node000003_Node000012"><a xlink:title=" ">
<path fill="none" stroke="#63b8ff" d="M887.71,-172.29C919.5,-160.33 957.81,-145.92 988.06,-134.54"/>
<polygon fill="#63b8ff" stroke="#63b8ff" points="886.2,-169.11 878.08,-175.91 888.67,-175.67 886.2,-169.11"/>
</a>
</g>
</g>
<!-- Node5 -->
<g id="Node000005" class="node">
<title>Node5</title>
<g id="a_Node000005"><a xlink:href="_actuator_forcing_8cpp.html" target="_top" xlink:title=" ">
<polygon fill="white" stroke="#666666" points="156,-52 0,-52 0,0 156,0 156,-52"/>
<text text-anchor="start" x="8" y="-40" font-family="Helvetica,sans-Serif" font-size="10.00">/home/runner/work/amr</text>
<text text-anchor="start" x="8" y="-29" font-family="Helvetica,sans-Serif" font-size="10.00">&#45;wind/amr&#45;wind/src/equation</text>
<text text-anchor="start" x="8" y="-18" font-family="Helvetica,sans-Serif" font-size="10.00">_systems/icns/source_terms</text>
<text text-anchor="middle" x="78" y="-7" font-family="Helvetica,sans-Serif" font-size="10.00">/ActuatorForcing.cpp</text>
</a>
</g>
</g>
<!-- Node4&#45;&gt;Node5 -->
<g id="edge4_Node000004_Node000005" class="edge">
<title>Node4&#45;&gt;Node5</title>
<g id="a_edge4_Node000004_Node000005"><a xlink:title=" ">
<path fill="none" stroke="#63b8ff" d="M206.41,-89.04C182.64,-77.55 154.16,-63.8 130.07,-52.16"/>
<polygon fill="#63b8ff" stroke="#63b8ff" points="205.08,-92.29 215.61,-93.49 208.13,-85.98 205.08,-92.29"/>
</a>
</g>
</g>
<!-- Node6 -->
<g id="Node000006" class="node">
<title>Node6</title>
<g id="a_Node000006"><a xlink:href="_actuator_8cpp.html" target="_top" xlink:title=" ">
<polygon fill="white" stroke="#666666" points="337.5,-46.5 174.5,-46.5 174.5,-5.5 337.5,-5.5 337.5,-46.5"/>
<text text-anchor="start" x="182.5" y="-34.5" font-family="Helvetica,sans-Serif" font-size="10.00">/home/runner/work/amr</text>
<text text-anchor="start" x="182.5" y="-23.5" font-family="Helvetica,sans-Serif" font-size="10.00">&#45;wind/amr&#45;wind/src/wind</text>
<text text-anchor="middle" x="256" y="-12.5" font-family="Helvetica,sans-Serif" font-size="10.00">_energy/actuator/Actuator.cpp</text>
</a>
</g>
</g>
<!-- Node4&#45;&gt;Node6 -->
<g id="edge5_Node000004_Node000006" class="edge">
<title>Node4&#45;&gt;Node6</title>
<g id="a_edge5_Node000004_Node000006"><a xlink:title=" ">
<path fill="none" stroke="#63b8ff" d="M256,-83.36C256,-71.26 256,-57.58 256,-46.74"/>
<polygon fill="#63b8ff" stroke="#63b8ff" points="252.5,-83.49 256,-93.49 259.5,-83.49 252.5,-83.49"/>
</a>
</g>
</g>
<!-- Node7 -->
<g id="Node000007" class="node">
<title>Node7</title>
<g id="a_Node000007"><a xlink:href="_actuator_container_8cpp.html" target="_top" xlink:title=" ">
<polygon fill="white" stroke="#666666" points="566,-46.5 356,-46.5 356,-5.5 566,-5.5 566,-46.5"/>
<text text-anchor="start" x="364" y="-34.5" font-family="Helvetica,sans-Serif" font-size="10.00">/home/runner/work/amr</text>
<text text-anchor="start" x="364" y="-23.5" font-family="Helvetica,sans-Serif" font-size="10.00">&#45;wind/amr&#45;wind/src/wind</text>
<text text-anchor="middle" x="461" y="-12.5" font-family="Helvetica,sans-Serif" font-size="10.00">_energy/actuator/ActuatorContainer.cpp</text>
</a>
</g>
</g>
<!-- Node4&#45;&gt;Node7 -->
<g id="edge6_Node000004_Node000007" class="edge">
<title>Node4&#45;&gt;Node7</title>
<g id="a_edge6_Node000004_Node000007"><a xlink:title=" ">
<path fill="none" stroke="#63b8ff" d="M311.79,-89.6C343.92,-76.12 383.85,-59.37 414.31,-46.59"/>
<polygon fill="#63b8ff" stroke="#63b8ff" points="310.39,-86.39 302.52,-93.49 313.09,-92.84 310.39,-86.39"/>
</a>
</g>
</g>
<!-- Node13&#45;&gt;Node14 -->
<g id="edge13_Node000013_Node000014" class="edge">
<title>Node13&#45;&gt;Node14</title>
<g id="a_edge13_Node000013_Node000014"><a xlink:title=" ">
<path fill="none" stroke="#63b8ff" d="M1411.87,-502.8C1445.24,-491.97 1482.56,-479.86 1512.87,-470.02"/>
<polygon fill="#63b8ff" stroke="#63b8ff" points="1410.54,-499.55 1402.11,-505.97 1412.7,-506.21 1410.54,-499.55"/>
</a>
</g>
</g>
<!-- Node17 -->
<g id="Node000017" class="node">
<title>Node17</title>
<g id="a_Node000017"><a xlink:href="_uniform_ct_8_h.html" target="_top" xlink:title=" ">
<polygon fill="white" stroke="#666666" points="1208,-470 1022,-470 1022,-429 1208,-429 1208,-470"/>
<text text-anchor="start" x="1030" y="-458" font-family="Helvetica,sans-Serif" font-size="10.00">/home/runner/work/amr</text>
<text text-anchor="start" x="1030" y="-447" font-family="Helvetica,sans-Serif" font-size="10.00">&#45;wind/amr&#45;wind/src/wind</text>
<text text-anchor="middle" x="1115" y="-436" font-family="Helvetica,sans-Serif" font-size="10.00">_energy/actuator/disk/UniformCt.H</text>
</a>
</g>
</g>
<!-- Node13&#45;&gt;Node17 -->
<g id="edge18_Node000013_Node000017" class="edge">
<title>Node13&#45;&gt;Node17</title>
<g id="a_edge18_Node000013_Node000017"><a xlink:title=" ">
<path fill="none" stroke="#63b8ff" d="M1250.35,-502.38C1222.37,-491.66 1191.25,-479.73 1165.91,-470.02"/>
<polygon fill="#63b8ff" stroke="#63b8ff" points="1249.12,-505.66 1259.71,-505.97 1251.62,-499.12 1249.12,-505.66"/>
</a>
</g>
</g>
<!-- Node21 -->
<g id="Node000021" class="node">
<title>Node21</title>
<g id="a_Node000021"><a xlink:href="disk__ops_8_h.html" target="_top" xlink:title=" ">
<polygon fill="white" stroke="#666666" points="1414.5,-470 1235.5,-470 1235.5,-429 1414.5,-429 1414.5,-470"/>
<text text-anchor="start" x="1243.5" y="-458" font-family="Helvetica,sans-Serif" font-size="10.00">/home/runner/work/amr</text>
<text text-anchor="start" x="1243.5" y="-447" font-family="Helvetica,sans-Serif" font-size="10.00">&#45;wind/amr&#45;wind/src/wind</text>
<text text-anchor="middle" x="1325" y="-436" font-family="Helvetica,sans-Serif" font-size="10.00">_energy/actuator/disk/disk_ops.H</text>
</a>
</g>
</g>
<!-- Node13&#45;&gt;Node21 -->
<g id="edge26_Node000013_Node000021" class="edge">
<title>Node13&#45;&gt;Node21</title>
<g id="a_edge26_Node000013_Node000021"><a xlink:title=" ">
<path fill="none" stroke="#63b8ff" d="M1325,-495.87C1325,-487.05 1325,-477.9 1325,-470.15"/>
<polygon fill="#63b8ff" stroke="#63b8ff" points="1321.5,-495.97 1325,-505.97 1328.5,-495.97 1321.5,-495.97"/>
</a>
</g>
</g>
<!-- Node14&#45;&gt;Node8 -->
<g id="edge14_Node000014_Node000008" class="edge">
<title>Node14&#45;&gt;Node8</title>
<g id="a_edge14_Node000014_Node000008"><a xlink:title=" ">
<path fill="none" stroke="#63b8ff" d="M1674.99,-424.67C1689.59,-416.91 1702.77,-406.63 1712,-393 1724.96,-373.87 1721.56,-362.04 1712,-341 1665.87,-239.48 1622.7,-225.93 1523,-176 1459.66,-144.28 1380.36,-129.01 1321.5,-121.68"/>
<polygon fill="#63b8ff" stroke="#63b8ff" points="1673.19,-421.65 1665.74,-429.18 1676.26,-427.94 1673.19,-421.65"/>
</a>
</g>
</g>
<!-- Node15 -->
<g id="Node000015" class="node">
<title>Node15</title>
<g id="a_Node000015"><a xlink:href="_joukowsky__ops_8_h.html" target="_top" xlink:title=" ">
<polygon fill="white" stroke="#666666" points="1702.5,-387.5 1493.5,-387.5 1493.5,-346.5 1702.5,-346.5 1702.5,-387.5"/>
<text text-anchor="start" x="1501.5" y="-375.5" font-family="Helvetica,sans-Serif" font-size="10.00">/home/runner/work/amr</text>
<text text-anchor="start" x="1501.5" y="-364.5" font-family="Helvetica,sans-Serif" font-size="10.00">&#45;wind/amr&#45;wind/src/wind</text>
<text text-anchor="middle" x="1598" y="-353.5" font-family="Helvetica,sans-Serif" font-size="10.00">_energy/actuator/disk/Joukowsky_ops.H</text>
</a>
</g>
</g>
<!-- Node14&#45;&gt;Node15 -->
<g id="edge15_Node000014_Node000015" class="edge">
<title>Node14&#45;&gt;Node15</title>
<g id="a_edge15_Node000014_Node000015"><a xlink:title=" ">
<path fill="none" stroke="#63b8ff" d="M1582.16,-419.01C1585.4,-408.57 1588.96,-397.09 1591.89,-387.67"/>
<polygon fill="#63b8ff" stroke="#63b8ff" points="1578.8,-418.01 1579.18,-428.6 1585.49,-420.09 1578.8,-418.01"/>
</a>
</g>
</g>
<!-- Node15&#45;&gt;Node8 -->
<g id="edge16_Node000015_Node000008" class="edge">
<title>Node15&#45;&gt;Node8</title>
<g id="a_edge16_Node000015_Node000008"><a xlink:title=" ">
<path fill="none" stroke="#63b8ff" d="M1600.53,-335.81C1600.98,-310.99 1597.66,-276.24 1579,-253 1515.73,-174.19 1400.38,-140.08 1321.51,-125.52"/>
<polygon fill="#63b8ff" stroke="#63b8ff" points="1597.03,-335.97 1600.12,-346.1 1604.02,-336.25 1597.03,-335.97"/>
</a>
</g>
</g>
<!-- Node16 -->
<g id="Node000016" class="node">
<title>Node16</title>
<g id="a_Node000016"><a xlink:href="_joukowsky__ops_8cpp.html" target="_top" xlink:title=" ">
<polygon fill="white" stroke="#666666" points="1570,-305 1394,-305 1394,-253 1570,-253 1570,-305"/>
<text text-anchor="start" x="1402" y="-293" font-family="Helvetica,sans-Serif" font-size="10.00">/home/runner/work/amr</text>
<text text-anchor="start" x="1402" y="-282" font-family="Helvetica,sans-Serif" font-size="10.00">&#45;wind/amr&#45;wind/src/wind</text>
<text text-anchor="start" x="1402" y="-271" font-family="Helvetica,sans-Serif" font-size="10.00">_energy/actuator/disk/Joukowsky</text>
<text text-anchor="middle" x="1482" y="-260" font-family="Helvetica,sans-Serif" font-size="10.00">_ops.cpp</text>
</a>
</g>
</g>
<!-- Node15&#45;&gt;Node16 -->
<g id="edge17_Node000015_Node000016" class="edge">
<title>Node15&#45;&gt;Node16</title>
<g id="a_edge17_Node000015_Node000016"><a xlink:title=" ">
<path fill="none" stroke="#63b8ff" d="M1563.64,-340.53C1548.65,-329.41 1531.12,-316.41 1516.15,-305.32"/>
<polygon fill="#63b8ff" stroke="#63b8ff" points="1561.56,-343.34 1571.68,-346.49 1565.73,-337.72 1561.56,-343.34"/>
</a>
</g>
</g>
<!-- Node17&#45;&gt;Node8 -->
<g id="edge19_Node000017_Node000008" class="edge">
<title>Node17&#45;&gt;Node8</title>
<g id="a_edge19_Node000017_Node000008"><a xlink:title=" ">
<path fill="none" stroke="#63b8ff" d="M1104.48,-419.06C1098.2,-397.21 1092.73,-366.84 1100,-341 1122.71,-260.23 1183.17,-179.77 1216.02,-140.22"/>
<polygon fill="#63b8ff" stroke="#63b8ff" points="1101.17,-420.23 1107.47,-428.75 1107.86,-418.17 1101.17,-420.23"/>
</a>
</g>
</g>
<!-- Node18 -->
<g id="Node000018" class="node">
<title>Node18</title>
<g id="a_Node000018"><a xlink:href="disk__spreading_8_h.html" target="_top" xlink:title=" ">
<polygon fill="white" stroke="#666666" points="1053,-393 907,-393 907,-341 1053,-341 1053,-393"/>
<text text-anchor="start" x="915" y="-381" font-family="Helvetica,sans-Serif" font-size="10.00">/home/runner/work/amr</text>
<text text-anchor="start" x="915" y="-370" font-family="Helvetica,sans-Serif" font-size="10.00">&#45;wind/amr&#45;wind/src/wind</text>
<text text-anchor="start" x="915" y="-359" font-family="Helvetica,sans-Serif" font-size="10.00">_energy/actuator/disk/disk</text>
<text text-anchor="middle" x="980" y="-348" font-family="Helvetica,sans-Serif" font-size="10.00">_spreading.H</text>
</a>
</g>
</g>
<!-- Node17&#45;&gt;Node18 -->
<g id="edge20_Node000017_Node000018" class="edge">
<title>Node17&#45;&gt;Node18</title>
<g id="a_edge20_Node000017_Node000018"><a xlink:title=" ">
<path fill="none" stroke="#63b8ff" d="M1073.22,-423.59C1056.99,-413.91 1038.41,-402.83 1022.14,-393.13"/>
<polygon fill="#63b8ff" stroke="#63b8ff" points="1071.59,-426.69 1081.98,-428.81 1075.18,-420.68 1071.59,-426.69"/>
</a>
</g>
</g>
<!-- Node19 -->
<g id="Node000019" class="node">
<title>Node19</title>
<g id="a_Node000019"><a xlink:href="uniform__ct__ops_8_h.html" target="_top" xlink:title=" ">
<polygon fill="white" stroke="#666666" points="1273,-393 1109,-393 1109,-341 1273,-341 1273,-393"/>
<text text-anchor="start" x="1117" y="-381" font-family="Helvetica,sans-Serif" font-size="10.00">/home/runner/work/amr</text>
<text text-anchor="start" x="1117" y="-370" font-family="Helvetica,sans-Serif" font-size="10.00">&#45;wind/amr&#45;wind/src/wind</text>
<text text-anchor="start" x="1117" y="-359" font-family="Helvetica,sans-Serif" font-size="10.00">_energy/actuator/disk/uniform</text>
<text text-anchor="middle" x="1191" y="-348" font-family="Helvetica,sans-Serif" font-size="10.00">_ct_ops.H</text>
</a>
</g>
</g>
<!-- Node17&#45;&gt;Node19 -->
<g id="edge23_Node000017_Node000019" class="edge">
<title>Node17&#45;&gt;Node19</title>
<g id="a_edge23_Node000017_Node000019"><a xlink:title=" ">
<path fill="none" stroke="#63b8ff" d="M1140.73,-421.25C1149.31,-412.16 1158.83,-402.08 1167.25,-393.16"/>
<polygon fill="#63b8ff" stroke="#63b8ff" points="1138.11,-418.93 1133.79,-428.6 1143.2,-423.73 1138.11,-418.93"/>
</a>
</g>
</g>
<!-- Node18&#45;&gt;Node2 -->
<g id="edge21_Node000018_Node000002" class="edge">
<title>Node18&#45;&gt;Node2</title>
<g id="a_edge21_Node000018_Node000002"><a xlink:title=" ">
<path fill="none" stroke="#63b8ff" d="M942.67,-334.21C929.01,-322.58 913.97,-309.77 901.94,-299.53"/>
<polygon fill="#63b8ff" stroke="#63b8ff" points="940.63,-337.08 950.52,-340.89 945.17,-331.75 940.63,-337.08"/>
</a>
</g>
</g>
<!-- Node18&#45;&gt;Node8 -->
<g id="edge22_Node000018_Node000008" class="edge">
<title>Node18&#45;&gt;Node8</title>
<g id="a_edge22_Node000018_Node000008"><a xlink:title=" ">
<path fill="none" stroke="#63b8ff" d="M987.3,-330.87C997.84,-288.54 1021.3,-217.9 1067,-176 1080.71,-163.43 1118.11,-149.49 1154.45,-138.11"/>
<polygon fill="#63b8ff" stroke="#63b8ff" points="983.86,-330.19 984.95,-340.73 990.67,-331.81 983.86,-330.19"/>
</a>
</g>
</g>
<!-- Node19&#45;&gt;Node8 -->
<g id="edge24_Node000019_Node000008" class="edge">
<title>Node19&#45;&gt;Node8</title>
<g id="a_edge24_Node000019_Node000008"><a xlink:title=" ">
<path fill="none" stroke="#63b8ff" d="M1193.45,-330.67C1195.32,-308.3 1198.38,-278.82 1203,-253 1210.14,-213.1 1222.5,-167.69 1230.45,-140.2"/>
<polygon fill="#63b8ff" stroke="#63b8ff" points="1189.95,-330.47 1192.65,-340.72 1196.93,-331.03 1189.95,-330.47"/>
</a>
</g>
</g>
<!-- Node20 -->
<g id="Node000020" class="node">
<title>Node20</title>
<g id="a_Node000020"><a xlink:href="uniform__ct__ops_8cpp.html" target="_top" xlink:title=" ">
<polygon fill="white" stroke="#666666" points="1376,-305 1212,-305 1212,-253 1376,-253 1376,-305"/>
<text text-anchor="start" x="1220" y="-293" font-family="Helvetica,sans-Serif" font-size="10.00">/home/runner/work/amr</text>
<text text-anchor="start" x="1220" y="-282" font-family="Helvetica,sans-Serif" font-size="10.00">&#45;wind/amr&#45;wind/src/wind</text>
<text text-anchor="start" x="1220" y="-271" font-family="Helvetica,sans-Serif" font-size="10.00">_energy/actuator/disk/uniform</text>
<text text-anchor="middle" x="1294" y="-260" font-family="Helvetica,sans-Serif" font-size="10.00">_ct_ops.cpp</text>
</a>
</g>
</g>
<!-- Node19&#45;&gt;Node20 -->
<g id="edge25_Node000019_Node000020" class="edge">
<title>Node19&#45;&gt;Node20</title>
<g id="a_edge25_Node000019_Node000020"><a xlink:title=" ">
<path fill="none" stroke="#63b8ff" d="M1228.84,-334.41C1240.32,-324.82 1252.79,-314.41 1263.72,-305.29"/>
<polygon fill="#63b8ff" stroke="#63b8ff" points="1226.5,-331.8 1221.07,-340.89 1230.99,-337.17 1226.5,-331.8"/>
</a>
</g>
</g>
<!-- Node21&#45;&gt;Node15 -->
<g id="edge27_Node000021_Node000015" class="edge">
<title>Node21&#45;&gt;Node15</title>
<g id="a_edge27_Node000021_Node000015"><a xlink:title=" ">
<path fill="none" stroke="#63b8ff" d="M1401.12,-426.05C1442.16,-413.95 1492.32,-399.16 1531.74,-387.54"/>
<polygon fill="#63b8ff" stroke="#63b8ff" points="1400.04,-422.72 1391.43,-428.91 1402.02,-429.44 1400.04,-422.72"/>
</a>
</g>
</g>
<!-- Node21&#45;&gt;Node16 -->
<g id="edge28_Node000021_Node000016" class="edge">
<title>Node21&#45;&gt;Node16</title>
<g id="a_edge28_Node000021_Node000016"><a xlink:title=" ">
<path fill="none" stroke="#63b8ff" d="M1314.58,-419.01C1308.35,-395.77 1304.35,-363.62 1320,-341 1329.45,-327.35 1360.92,-314.11 1393.65,-303.48"/>
<polygon fill="#63b8ff" stroke="#63b8ff" points="1311.25,-420.09 1317.43,-428.69 1317.96,-418.11 1311.25,-420.09"/>
</a>
</g>
</g>
<!-- Node21&#45;&gt;Node19 -->
<g id="edge30_Node000021_Node000019" class="edge">
<title>Node21&#45;&gt;Node19</title>
<g id="a_edge30_Node000021_Node000019"><a xlink:title=" ">
<path fill="none" stroke="#63b8ff" d="M1283.57,-423.61C1267.53,-413.97 1249.18,-402.95 1233.08,-393.28"/>
<polygon fill="#63b8ff" stroke="#63b8ff" points="1281.85,-426.66 1292.22,-428.81 1285.45,-420.66 1281.85,-426.66"/>
</a>
</g>
</g>
<!-- Node22 -->
<g id="Node000022" class="node">
<title>Node22</title>
<g id="a_Node000022"><a xlink:href="disk__ops_8cpp.html" target="_top" xlink:title=" ">
<polygon fill="white" stroke="#666666" points="1475,-393 1329,-393 1329,-341 1475,-341 1475,-393"/>
<text text-anchor="start" x="1337" y="-381" font-family="Helvetica,sans-Serif" font-size="10.00">/home/runner/work/amr</text>
<text text-anchor="start" x="1337" y="-370" font-family="Helvetica,sans-Serif" font-size="10.00">&#45;wind/amr&#45;wind/src/wind</text>
<text text-anchor="start" x="1337" y="-359" font-family="Helvetica,sans-Serif" font-size="10.00">_energy/actuator/disk/disk</text>
<text text-anchor="middle" x="1402" y="-348" font-family="Helvetica,sans-Serif" font-size="10.00">_ops.cpp</text>
</a>
</g>
</g>
<!-- Node21&#45;&gt;Node22 -->
<g id="edge29_Node000021_Node000022" class="edge">
<title>Node21&#45;&gt;Node22</title>
<g id="a_edge29_Node000021_Node000022"><a xlink:title=" ">
<path fill="none" stroke="#63b8ff" d="M1351.07,-421.25C1359.76,-412.16 1369.4,-402.08 1377.94,-393.16"/>
<polygon fill="#63b8ff" stroke="#63b8ff" points="1348.42,-418.96 1344.03,-428.6 1353.48,-423.79 1348.42,-418.96"/>
</a>
</g>
</g>
</g>
</svg>
