<?xml version="1.0" encoding="UTF-8" standalone="no"?>
<!DOCTYPE svg PUBLIC "-//W3C//DTD SVG 1.1//EN"
 "http://www.w3.org/Graphics/SVG/1.1/DTD/svg11.dtd">
<!-- Generated by graphviz version 2.43.0 (0)
 -->
<!-- Title: Field management Pages: 1 -->
<svg width="408pt" height="113pt"
 viewBox="0.00 0.00 408.00 112.50" xmlns="http://www.w3.org/2000/svg" xmlns:xlink="http://www.w3.org/1999/xlink">
<g id="graph0" class="graph" transform="scale(1 1) rotate(0) translate(4 108.5)">
<title>Field management</title>
<!-- Node2 -->
<g id="Node000002" class="node">
<title>Node2</title>
<g id="a_Node000002"><a xlink:href="group__core.html" target="_top" xlink:title=" ">
<polygon fill="white" stroke="#666666" points="104,-56 0,-56 0,-37 104,-37 104,-56"/>
<text text-anchor="middle" x="52" y="-44" font-family="Helvetica,sans-Serif" font-size="10.00">Kynema&#45;SGF core</text>
</a>
</g>
</g>
<!-- Node1 -->
<g id="Node000001" class="node">
<title>Node1</title>
<g id="a_Node000001"><a xlink:title=" ">
<polygon fill="#999999" stroke="#666666" points="248,-56 140,-56 140,-37 248,-37 248,-56"/>
<text text-anchor="middle" x="194" y="-44" font-family="Helvetica,sans-Serif" font-size="10.00">Field management</text>
</a>
</g>
</g>
<!-- Node2&#45;&gt;Node1 -->
<g id="edge1" class="edge">
<title>Node2&#45;&gt;Node1</title>
<path fill="none" stroke="black" d="M114.5,-46.5C122.93,-46.5 131.53,-46.5 139.79,-46.5"/>
<polygon fill="black" stroke="black" points="114.34,-43 104.34,-46.5 114.34,-50 114.34,-43"/>
</g>
<!-- Node3 -->
<g id="Node000003" class="node">
<title>Node3</title>
<g id="a_Node000003"><a xlink:href="group__field__bc.html" target="_top" xlink:title=" ">
<polygon fill="white" stroke="#666666" points="400,-104.5 284,-104.5 284,-74.5 400,-74.5 400,-104.5"/>
<text text-anchor="start" x="292" y="-92.5" font-family="Helvetica,sans-Serif" font-size="10.00">Boundary conditions</text>
<text text-anchor="middle" x="342" y="-81.5" font-family="Helvetica,sans-Serif" font-size="10.00"> management</text>
</a>
</g>
</g>
<!-- Node5 -->
<g id="Node000005" class="node">
<title>Node5</title>
<g id="a_Node000005"><a xlink:href="group__field__fillpatch.html" target="_top" xlink:title=" ">
<polygon fill="white" stroke="#666666" points="395.5,-56 288.5,-56 288.5,-37 395.5,-37 395.5,-56"/>
<text text-anchor="middle" x="342" y="-44" font-family="Helvetica,sans-Serif" font-size="10.00">Fillpatch operators</text>
</a>
</g>
</g>
<!-- Node4 -->
<g id="Node000004" class="node">
<title>Node4</title>
<g id="a_Node000004"><a xlink:href="group__field__ops.html" target="_top" xlink:title=" ">
<polygon fill="white" stroke="#666666" points="389.5,-19 294.5,-19 294.5,0 389.5,0 389.5,-19"/>
<text text-anchor="middle" x="342" y="-7" font-family="Helvetica,sans-Serif" font-size="10.00">Field operations</text>
</a>
</g>
</g>
<!-- Node1&#45;&gt;Node3 -->
<g id="edge2" class="edge">
<title>Node1&#45;&gt;Node3</title>
<path fill="none" stroke="black" d="M237.3,-58.96C253.78,-63.81 272.82,-69.42 290.05,-74.49"/>
<polygon fill="black" stroke="black" points="237.98,-55.51 227.4,-56.04 236.01,-62.23 237.98,-55.51"/>
</g>
<!-- Node1&#45;&gt;Node5 -->
<g id="edge4" class="edge">
<title>Node1&#45;&gt;Node5</title>
<path fill="none" stroke="black" d="M258.36,-46.5C268.31,-46.5 278.49,-46.5 288.16,-46.5"/>
<polygon fill="black" stroke="black" points="258.12,-43 248.12,-46.5 258.12,-50 258.12,-43"/>
</g>
<!-- Node1&#45;&gt;Node4 -->
<g id="edge3" class="edge">
<title>Node1&#45;&gt;Node4</title>
<path fill="none" stroke="black" d="M242.33,-34.51C262.07,-29.5 284.68,-23.77 303.28,-19.06"/>
<polygon fill="black" stroke="black" points="241.43,-31.12 232.6,-36.97 243.15,-37.91 241.43,-31.12"/>
</g>
</g>
</svg>
