<?xml version="1.0" encoding="UTF-8" standalone="no"?>
<!DOCTYPE svg PUBLIC "-//W3C//DTD SVG 1.1//EN"
 "http://www.w3.org/Graphics/SVG/1.1/DTD/svg11.dtd">
<!-- Generated by graphviz version 2.43.0 (0)
 -->
<!-- Title: Wind energy modeling Pages: 1 -->
<svg width="585pt" height="101pt"
 viewBox="0.00 0.00 585.00 101.00" xmlns="http://www.w3.org/2000/svg" xmlns:xlink="http://www.w3.org/1999/xlink">
<g id="graph0" class="graph" transform="scale(1 1) rotate(0) translate(4 97)">
<title>Wind energy modeling</title>
<!-- Node4 -->
<g id="Node000004" class="node">
<title>Node4</title>
<g id="a_Node000004"><a xlink:href="group__actuator.html" target="_top" xlink:title=" ">
<polygon fill="white" stroke="#666666" points="577,-93 452,-93 452,-74 577,-74 577,-93"/>
<text text-anchor="middle" x="514.5" y="-81" font-family="Helvetica,sans-Serif" font-size="10.00">Actuator source terms</text>
</a>
</g>
</g>
<!-- Node5 -->
<g id="Node000005" class="node">
<title>Node5</title>
<g id="a_Node000005"><a xlink:href="group__amr__utils.html" target="_top" xlink:title=" ">
<polygon fill="white" stroke="#666666" points="564,-56 465,-56 465,-37 564,-37 564,-56"/>
<text text-anchor="middle" x="514.5" y="-44" font-family="Helvetica,sans-Serif" font-size="10.00">Mesh refinement</text>
</a>
</g>
</g>
<!-- Node2 -->
<g id="Node000002" class="node">
<title>Node2</title>
<g id="a_Node000002"><a xlink:href="group__physics.html" target="_top" xlink:title=" ">
<polygon fill="white" stroke="#666666" points="92,-56 0,-56 0,-37 92,-37 92,-56"/>
<text text-anchor="middle" x="46" y="-44" font-family="Helvetica,sans-Serif" font-size="10.00">Physics models</text>
</a>
</g>
</g>
<!-- Node1 -->
<g id="Node000001" class="node">
<title>Node1</title>
<g id="a_Node000001"><a xlink:title=" ">
<polygon fill="#999999" stroke="#666666" points="256,-56 129,-56 129,-37 256,-37 256,-56"/>
<text text-anchor="middle" x="192.5" y="-44" font-family="Helvetica,sans-Serif" font-size="10.00">Wind energy modeling</text>
</a>
</g>
</g>
<!-- Node2&#45;&gt;Node1 -->
<g id="edge1" class="edge">
<title>Node2&#45;&gt;Node1</title>
<path fill="none" stroke="black" d="M102.32,-46.5C111.01,-46.5 120.03,-46.5 128.87,-46.5"/>
<polygon fill="black" stroke="black" points="102.32,-43 92.32,-46.5 102.32,-50 102.32,-43"/>
</g>
<!-- Node3 -->
<g id="Node000003" class="node">
<title>Node3</title>
<g id="a_Node000003"><a xlink:href="group__we__abl.html" target="_top" xlink:title=" ">
<polygon fill="white" stroke="#666666" points="532,-19 497,-19 497,0 532,0 532,-19"/>
<text text-anchor="middle" x="514.5" y="-7" font-family="Helvetica,sans-Serif" font-size="10.00">ABL</text>
</a>
</g>
</g>
<!-- Node1&#45;&gt;Node4 -->
<g id="edge3" class="edge">
<title>Node1&#45;&gt;Node4</title>
<path fill="none" stroke="black" d="M250.5,-57.8C258.38,-59.16 266.38,-60.44 274,-61.5 334.18,-69.85 403.32,-75.82 451.79,-79.41"/>
<polygon fill="black" stroke="black" points="251.09,-54.35 240.63,-56.04 249.86,-61.24 251.09,-54.35"/>
</g>
<!-- Node1&#45;&gt;Node5 -->
<g id="edge4" class="edge">
<title>Node1&#45;&gt;Node5</title>
<path fill="none" stroke="orange" stroke-dasharray="5,2" d="M256.34,-46.5C317.5,-46.5 409.14,-46.5 464.91,-46.5"/>
<text text-anchor="middle" x="354" y="-49.5" font-family="Helvetica,sans-Serif" font-size="10.00">kynema_sgf::CartBoxRefinement</text>
</g>
<!-- Node1&#45;&gt;Node3 -->
<g id="edge2" class="edge">
<title>Node1&#45;&gt;Node3</title>
<path fill="none" stroke="black" d="M266.28,-38.09C341.79,-29.35 454.63,-16.31 496.81,-11.43"/>
<polygon fill="black" stroke="black" points="265.87,-34.61 256.34,-39.23 266.68,-41.56 265.87,-34.61"/>
</g>
</g>
</svg>
