<?xml version="1.0" encoding="UTF-8" standalone="no"?>
<!DOCTYPE svg PUBLIC "-//W3C//DTD SVG 1.1//EN"
 "http://www.w3.org/Graphics/SVG/1.1/DTD/svg11.dtd">
<!-- Generated by graphviz version 2.43.0 (0)
 -->
<!-- Title: Utilities Pages: 1 -->
<svg width="351pt" height="236pt"
 viewBox="0.00 0.00 351.00 235.50" xmlns="http://www.w3.org/2000/svg" xmlns:xlink="http://www.w3.org/1999/xlink">

<svg id="main" version="1.1" xmlns="http://www.w3.org/2000/svg" xmlns:xlink="http://www.w3.org/1999/xlink" xml:space="preserve">

<style type="text/css"><![CDATA[
.node, .edge {opacity: 0.7;}
.node.selected, .edge.selected {opacity: 1;}
.edge:hover path { stroke: red; }
.edge:hover polygon { stroke: red; fill: red; }
]]></style>
<script type="application/ecmascript" xlink:href="svg.min.js"/>
<svg id="graph" class="graph">
<g id="graph0" class="graph" transform="scale(1 1) rotate(0) translate(4 231.5)">
<title>Utilities</title>
<!-- Node6 -->
<g id="Node000006" class="node">
<title>Node6</title>
<g id="a_Node000006"><a xlink:href="group__amr__utils.html" target="_top" xlink:title=" ">
<polygon fill="white" stroke="#666666" points="328.5,-227.5 229.5,-227.5 229.5,-208.5 328.5,-208.5 328.5,-227.5"/>
<text text-anchor="middle" x="279" y="-215.5" font-family="Helvetica,sans-Serif" font-size="10.00">Mesh refinement</text>
</a>
</g>
</g>
<!-- Node7 -->
<g id="Node000007" class="node">
<title>Node7</title>
<g id="a_Node000007"><a xlink:href="group__field__bc.html" target="_top" xlink:title=" ">
<polygon fill="white" stroke="#666666" points="337,-190 221,-190 221,-160 337,-160 337,-190"/>
<text text-anchor="start" x="229" y="-178" font-family="Helvetica,sans-Serif" font-size="10.00">Boundary conditions</text>
<text text-anchor="middle" x="279" y="-167" font-family="Helvetica,sans-Serif" font-size="10.00"> management</text>
</a>
</g>
</g>
<!-- Node3 -->
<g id="Node000003" class="node">
<title>Node3</title>
<g id="a_Node000003"><a xlink:href="group__output__quantities.html" target="_top" xlink:title=" ">
<polygon fill="white" stroke="#666666" points="329.5,-141.5 228.5,-141.5 228.5,-122.5 329.5,-122.5 329.5,-141.5"/>
<text text-anchor="middle" x="279" y="-129.5" font-family="Helvetica,sans-Serif" font-size="10.00">Output quantities</text>
</a>
</g>
</g>
<!-- Node4 -->
<g id="Node000004" class="node">
<title>Node4</title>
<g id="a_Node000004"><a xlink:href="group__sampling.html" target="_top" xlink:title=" ">
<polygon fill="white" stroke="#666666" points="343,-104.5 215,-104.5 215,-85.5 343,-85.5 343,-104.5"/>
<text text-anchor="middle" x="279" y="-92.5" font-family="Helvetica,sans-Serif" font-size="10.00">Data&#45;sampling utilities</text>
</a>
</g>
</g>
<!-- Node2 -->
<g id="Node000002" class="node">
<title>Node2</title>
<g id="a_Node000002"><a xlink:href="group__statistics.html" target="_top" xlink:title=" ">
<polygon fill="white" stroke="#666666" points="322.5,-67.5 235.5,-67.5 235.5,-48.5 322.5,-48.5 322.5,-67.5"/>
<text text-anchor="middle" x="279" y="-55.5" font-family="Helvetica,sans-Serif" font-size="10.00">Field statistics</text>
</a>
</g>
</g>
<!-- Node5 -->
<g id="Node000005" class="node">
<title>Node5</title>
<g id="a_Node000005"><a xlink:href="group__subvolume.html" target="_top" xlink:title=" ">
<polygon fill="white" stroke="#666666" points="341.5,-30 216.5,-30 216.5,0 341.5,0 341.5,-30"/>
<text text-anchor="start" x="224.5" y="-18" font-family="Helvetica,sans-Serif" font-size="10.00">Mesh data subvolume</text>
<text text-anchor="middle" x="279" y="-7" font-family="Helvetica,sans-Serif" font-size="10.00"> utilities</text>
</a>
</g>
</g>
<!-- Node1 -->
<g id="Node000001" class="node">
<title>Node1</title>
<g id="a_Node000001"><a xlink:title=" ">
<polygon fill="#999999" stroke="#666666" points="55,-122.5 0,-122.5 0,-103.5 55,-103.5 55,-122.5"/>
<text text-anchor="middle" x="27.5" y="-110.5" font-family="Helvetica,sans-Serif" font-size="10.00">Utilities</text>
</a>
</g>
</g>
<!-- Node1&#45;&gt;Node6 -->
<g id="edge5" class="edge">
<title>Node1&#45;&gt;Node6</title>
<path fill="none" stroke="black" d="M36.48,-132.36C43.74,-147.48 55.94,-167.75 73,-179 119.89,-209.9 185.15,-217.68 229.34,-219.01"/>
<polygon fill="black" stroke="black" points="39.52,-130.59 32.24,-122.89 33.13,-133.44 39.52,-130.59"/>
</g>
<!-- Node1&#45;&gt;Node7 -->
<g id="edge6" class="edge">
<title>Node1&#45;&gt;Node7</title>
<path fill="none" stroke="orange" stroke-dasharray="5,2" d="M44.48,-122.69C52.74,-127.33 63.14,-132.59 73,-136 121.46,-152.73 178.98,-162.88 220.74,-168.62"/>
<text text-anchor="middle" x="135" y="-167" font-family="Helvetica,sans-Serif" font-size="10.00">kynema_sgf::VelWallFunc</text>
</g>
<!-- Node1&#45;&gt;Node3 -->
<g id="edge2" class="edge">
<title>Node1&#45;&gt;Node3</title>
<path fill="none" stroke="black" d="M65.31,-117.26C67.91,-117.52 70.49,-117.77 73,-118 125.94,-122.78 186.7,-126.74 228.24,-129.21"/>
<polygon fill="black" stroke="black" points="65.62,-113.78 55.31,-116.2 64.88,-120.74 65.62,-113.78"/>
</g>
<!-- Node1&#45;&gt;Node4 -->
<g id="edge3" class="edge">
<title>Node1&#45;&gt;Node4</title>
<path fill="none" stroke="black" d="M65.39,-110.34C104.72,-107.5 167.72,-102.96 214.95,-99.55"/>
<polygon fill="black" stroke="black" points="64.92,-106.86 55.2,-111.07 65.43,-113.84 64.92,-106.86"/>
</g>
<!-- Node1&#45;&gt;Node2 -->
<g id="edge1" class="edge">
<title>Node1&#45;&gt;Node2</title>
<path fill="none" stroke="black" d="M62.51,-100.16C66.03,-99.01 69.57,-97.94 73,-97 128.22,-81.92 193.37,-70.6 235.15,-64.14"/>
<polygon fill="black" stroke="black" points="61.09,-96.95 52.76,-103.5 63.36,-103.57 61.09,-96.95"/>
</g>
<!-- Node1&#45;&gt;Node5 -->
<g id="edge4" class="edge">
<title>Node1&#45;&gt;Node5</title>
<path fill="none" stroke="black" d="M41.36,-95.03C49.38,-85.07 60.54,-73.27 73,-66 117.03,-40.3 173.68,-27.48 216.27,-21.12"/>
<polygon fill="black" stroke="black" points="38.45,-93.07 35.16,-103.14 44.01,-97.32 38.45,-93.07"/>
</g>
</g>
</svg>
</svg>

<style type='text/css'>
<![CDATA[
[data-mouse-over-selected='false'] { opacity: 0.7; }
[data-mouse-over-selected='true']  { opacity: 1.0; }
]]>
</style>
<script type="application/ecmascript"><![CDATA[
document.addEventListener('DOMContentLoaded', (event) => {
  highlightEdges();
  highlightAdjacentNodes();
});
]]></script>
</svg>
