<?xml version="1.0" encoding="UTF-8" standalone="no"?>
<!DOCTYPE svg PUBLIC "-//W3C//DTD SVG 1.1//EN"
 "http://www.w3.org/Graphics/SVG/1.1/DTD/svg11.dtd">
<!-- Generated by graphviz version 2.43.0 (0)
 -->
<!-- Title: ABL Pages: 1 -->
<!--zoomable 554 -->

<svg id="main" version="1.1" xmlns="http://www.w3.org/2000/svg" xmlns:xlink="http://www.w3.org/1999/xlink" xml:space="preserve" onload="init(evt)">

<style type="text/css"><![CDATA[
.node, .edge {opacity: 0.7;}
.node.selected, .edge.selected {opacity: 1;}
.edge:hover path { stroke: red; }
.edge:hover polygon { stroke: red; fill: red; }
]]></style>

<defs>
  <circle id="rim" cx="0" cy="0" r="7"/>
  <circle id="rim2" cx="0" cy="0" r="3.5"/>
  <g id="zoomPlus">
    <use xlink:href="#rim" fill="#404040"><set attributeName="fill" to="#808080" begin="zoomplus.mouseover" end="zoomplus.mouseout"/></use>
    <path d="M-4,0h8M0,-4v8" fill="none" stroke="white" stroke-width="1.5" pointer-events="none"/>
  </g>
  <g id="zoomMin">
    <use xlink:href="#rim" fill="#404040"><set attributeName="fill" to="#808080" begin="zoomminus.mouseover" end="zoomminus.mouseout"/></use>
    <path d="M-4,0h8" fill="none" stroke="white" stroke-width="1.5" pointer-events="none"/>
  </g>
  <g id="arrowUp" transform="translate(30 24)">
    <use xlink:href="#rim"/>
    <path pointer-events="none" fill="none" stroke="white" stroke-width="1.5" d="M0,-3.0v7 M-2.5,-0.5L0,-3.0L2.5,-0.5"/>
  </g>
  <g id="arrowRight" transform="rotate(90) translate(36 -43)">
    <use xlink:href="#rim"/>
    <path pointer-events="none" fill="none" stroke="white" stroke-width="1.5" d="M0,-3.0v7 M-2.5,-0.5L0,-3.0L2.5,-0.5"/>
  </g>
  <g id="arrowDown" transform="rotate(180) translate(-30 -48)">
    <use xlink:href="#rim"/>
    <path pointer-events="none" fill="none" stroke="white" stroke-width="1.5" d="M0,-3.0v7 M-2.5,-0.5L0,-3.0L2.5,-0.5"/>
  </g>
  <g id="arrowLeft" transform="rotate(270) translate(-36 17)">
    <use xlink:href="#rim"/>
    <path pointer-events="none" fill="none" stroke="white" stroke-width="1.5" d="M0,-3.0v7 M-2.5,-0.5L0,-3.0L2.5,-0.5"/>
  </g>
  <g id="resetDef">
    <use xlink:href="#rim2" fill="#404040"><set attributeName="fill" to="#808080" begin="reset.mouseover" end="reset.mouseout"/></use>
  </g>
</defs>
<script type="application/ecmascript">
var viewWidth = 539;
var viewHeight = 554;
var sectionId = 'dynsection-0';
</script>
<script type="application/ecmascript" xlink:href="svg.min.js"/>
<svg id="graph" class="graph">
<g id="viewport">
<title>ABL</title>
<!-- Node3 -->
<g id="Node000003" class="node">
<title>Node3</title>
<g id="a_Node000003"><a xlink:href="group__abl__istats.html" target="_top" xlink:title=" ">
<polygon fill="white" stroke="#666666" points="502.5,-532.85 419.5,-532.85 419.5,-513.85 502.5,-513.85 502.5,-532.85"/>
<text text-anchor="middle" x="461" y="-520.85" font-family="Helvetica,sans-Serif" font-size="10.00">ABL Statistics</text>
</a>
</g>
</g>
<!-- Node9 -->
<g id="Node000009" class="node">
<title>Node9</title>
<g id="a_Node000009"><a xlink:href="group__field__bc.html" target="_top" xlink:title=" ">
<polygon fill="white" stroke="#666666" points="519,-495.35 403,-495.35 403,-465.35 519,-465.35 519,-495.35"/>
<text text-anchor="start" x="411" y="-483.35" font-family="Helvetica,sans-Serif" font-size="10.00">Boundary conditions</text>
<text text-anchor="middle" x="461" y="-472.35" font-family="Helvetica,sans-Serif" font-size="10.00"> management</text>
</a>
</g>
</g>
<!-- Node5 -->
<g id="Node000005" class="node">
<title>Node5</title>
<g id="a_Node000005"><a xlink:href="group__icns__src.html" target="_top" xlink:title=" ">
<polygon fill="white" stroke="#666666" points="514.5,-338.85 407.5,-338.85 407.5,-319.85 514.5,-319.85 514.5,-338.85"/>
<text text-anchor="middle" x="461" y="-326.85" font-family="Helvetica,sans-Serif" font-size="10.00">ICNS Source terms</text>
</a>
</g>
</g>
<!-- Node4 -->
<g id="Node000004" class="node">
<title>Node4</title>
<g id="a_Node000004"><a xlink:href="group__shear__stress.html" target="_top" xlink:title=" ">
<polygon fill="white" stroke="#666666" points="531,-301.85 391,-301.85 391,-282.85 531,-282.85 531,-301.85"/>
<text text-anchor="middle" x="461" y="-289.85" font-family="Helvetica,sans-Serif" font-size="10.00">Shear Stress Wall Models</text>
</a>
</g>
</g>
<!-- Node8 -->
<g id="Node000008" class="node">
<title>Node8</title>
<g id="a_Node000008"><a xlink:href="group__statistics.html" target="_top" xlink:title=" ">
<polygon fill="white" stroke="#666666" points="504.5,-264.85 417.5,-264.85 417.5,-245.85 504.5,-245.85 504.5,-264.85"/>
<text text-anchor="middle" x="461" y="-252.85" font-family="Helvetica,sans-Serif" font-size="10.00">Field statistics</text>
</a>
</g>
</g>
<!-- Node6 -->
<g id="Node000006" class="node">
<title>Node6</title>
<g id="a_Node000006"><a xlink:href="group__tke__src.html" target="_top" xlink:title=" ">
<polygon fill="white" stroke="#666666" points="512.5,-175.85 409.5,-175.85 409.5,-156.85 512.5,-156.85 512.5,-175.85"/>
<text text-anchor="middle" x="461" y="-163.85" font-family="Helvetica,sans-Serif" font-size="10.00">TKE Source terms</text>
</a>
</g>
</g>
<!-- Node7 -->
<g id="Node000007" class="node">
<title>Node7</title>
<g id="a_Node000007"><a xlink:href="group__turb__model.html" target="_top" xlink:title=" ">
<polygon fill="white" stroke="#666666" points="515,-42.85 407,-42.85 407,-23.85 515,-23.85 515,-42.85"/>
<text text-anchor="middle" x="461" y="-30.85" font-family="Helvetica,sans-Serif" font-size="10.00">Turbulence models</text>
</a>
</g>
</g>
<!-- Node1 -->
<g id="Node000001" class="node">
<title>Node1</title>
<g id="a_Node000001"><a xlink:title=" ">
<polygon fill="#999999" stroke="#666666" points="199,-301.85 164,-301.85 164,-282.85 199,-282.85 199,-301.85"/>
<text text-anchor="middle" x="181.5" y="-289.85" font-family="Helvetica,sans-Serif" font-size="10.00">ABL</text>
</a>
</g>
</g>
<!-- Node1&#45;&gt;Node3 -->
<g id="edge2" class="edge">
<title>Node1&#45;&gt;Node3</title>
<path fill="none" stroke="black" d="M182.62,-312.25C183.36,-360.79 188.13,-483.23 217,-509.35 274.82,-561.65 375.51,-545.84 427.25,-532.92"/>
<polygon fill="black" stroke="black" points="186.12,-312.04 182.51,-302.08 179.12,-312.12 186.12,-312.04"/>
</g>
<!-- Node1&#45;&gt;Node9 -->
<g id="edge8" class="edge">
<title>Node1&#45;&gt;Node9</title>
<path fill="none" stroke="orange" stroke-dasharray="5,2" d="M183.05,-302.14C185.1,-334.52 193.38,-437.29 217,-458.35 267.12,-503.03 348.33,-500.82 402.91,-492.65"/>
<text text-anchor="middle" x="295" y="-499.35" font-family="Helvetica,sans-Serif" font-size="10.00">kynema_sgf::ABLVelWallFunc</text>
</g>
<!-- Node1&#45;&gt;Node5 -->
<g id="edge4" class="edge">
<title>Node1&#45;&gt;Node5</title>
<path fill="none" stroke="orange" stroke-dasharray="5,2" d="M199.16,-298.41C204.77,-300.25 211.09,-302.11 217,-303.35 281.77,-316.99 357.83,-323.66 407.38,-326.79"/>
<text text-anchor="start" x="239" y="-448.35" font-family="Helvetica,sans-Serif" font-size="10.00">kynema_sgf::pde::icns</text>
<text text-anchor="middle" x="295" y="-437.35" font-family="Helvetica,sans-Serif" font-size="10.00">::ABLForcing</text>
<text text-anchor="start" x="239" y="-426.35" font-family="Helvetica,sans-Serif" font-size="10.00">kynema_sgf::pde::icns</text>
<text text-anchor="middle" x="295" y="-415.35" font-family="Helvetica,sans-Serif" font-size="10.00">::ABLMeanBoussinesq</text>
<text text-anchor="start" x="239" y="-404.35" font-family="Helvetica,sans-Serif" font-size="10.00">kynema_sgf::pde::icns</text>
<text text-anchor="middle" x="295" y="-393.35" font-family="Helvetica,sans-Serif" font-size="10.00">::ABLMesoForcingMom</text>
<text text-anchor="start" x="239" y="-382.35" font-family="Helvetica,sans-Serif" font-size="10.00">kynema_sgf::pde::icns</text>
<text text-anchor="middle" x="295" y="-371.35" font-family="Helvetica,sans-Serif" font-size="10.00">::BoussinesqBuoyancy</text>
<text text-anchor="start" x="239" y="-360.35" font-family="Helvetica,sans-Serif" font-size="10.00">kynema_sgf::pde::icns</text>
<text text-anchor="middle" x="295" y="-349.35" font-family="Helvetica,sans-Serif" font-size="10.00">::CoriolisForcing</text>
<text text-anchor="start" x="239" y="-338.35" font-family="Helvetica,sans-Serif" font-size="10.00">kynema_sgf::pde::icns</text>
<text text-anchor="middle" x="295" y="-327.35" font-family="Helvetica,sans-Serif" font-size="10.00">::GeostrophicForcing</text>
</g>
<!-- Node1&#45;&gt;Node4 -->
<g id="edge3" class="edge">
<title>Node1&#45;&gt;Node4</title>
<path fill="none" stroke="black" d="M209.15,-292.35C250.61,-292.35 331.92,-292.35 390.76,-292.35"/>
<polygon fill="black" stroke="black" points="209.03,-288.85 199.03,-292.35 209.03,-295.85 209.03,-288.85"/>
</g>
<!-- Node1&#45;&gt;Node8 -->
<g id="edge7" class="edge">
<title>Node1&#45;&gt;Node8</title>
<path fill="none" stroke="orange" stroke-dasharray="5,2" d="M191.81,-282.84C198.27,-276.93 207.4,-269.8 217,-266.35 283.75,-242.32 367.55,-245.09 417.26,-249.84"/>
<text text-anchor="middle" x="295" y="-280.35" font-family="Helvetica,sans-Serif" font-size="10.00">kynema_sgf::FPlaneAveraging</text>
<text text-anchor="middle" x="295" y="-269.35" font-family="Helvetica,sans-Serif" font-size="10.00">kynema_sgf::VelPlaneAveraging</text>
</g>
<!-- Node1&#45;&gt;Node6 -->
<g id="edge5" class="edge">
<title>Node1&#45;&gt;Node6</title>
<path fill="none" stroke="orange" stroke-dasharray="5,2" d="M182.03,-282.61C181.51,-259.87 183.8,-203.24 217,-177.35 277.78,-129.96 375.4,-144.55 426.44,-156.83"/>
<text text-anchor="start" x="243" y="-235.35" font-family="Helvetica,sans-Serif" font-size="10.00">kynema_sgf::pde::tke</text>
<text text-anchor="middle" x="295" y="-224.35" font-family="Helvetica,sans-Serif" font-size="10.00">::KransAxell</text>
<text text-anchor="start" x="243" y="-213.35" font-family="Helvetica,sans-Serif" font-size="10.00">kynema_sgf::pde::tke</text>
<text text-anchor="middle" x="295" y="-202.35" font-family="Helvetica,sans-Serif" font-size="10.00">::KsgsM84Src</text>
<text text-anchor="start" x="243" y="-191.35" font-family="Helvetica,sans-Serif" font-size="10.00">kynema_sgf::pde::tke</text>
<text text-anchor="middle" x="295" y="-180.35" font-family="Helvetica,sans-Serif" font-size="10.00">::KsgsS94Src</text>
</g>
<!-- Node1&#45;&gt;Node7 -->
<g id="edge6" class="edge">
<title>Node1&#45;&gt;Node7</title>
<path fill="none" stroke="orange" stroke-dasharray="5,2" d="M182.18,-282.72C180.96,-239.61 178.5,-65.09 217,-31.35 278.87,22.88 387.48,-6.67 435.72,-23.83"/>
<text text-anchor="start" x="236.5" y="-133.35" font-family="Helvetica,sans-Serif" font-size="10.00">kynema_sgf::pde::tke</text>
<text text-anchor="middle" x="295" y="-122.35" font-family="Helvetica,sans-Serif" font-size="10.00">::KransAxell</text>
<text text-anchor="start" x="236.5" y="-111.35" font-family="Helvetica,sans-Serif" font-size="10.00">kynema_sgf::pde::tke</text>
<text text-anchor="middle" x="295" y="-100.35" font-family="Helvetica,sans-Serif" font-size="10.00">::KsgsM84Src</text>
<text text-anchor="start" x="236.5" y="-89.35" font-family="Helvetica,sans-Serif" font-size="10.00">kynema_sgf::pde::tke</text>
<text text-anchor="middle" x="295" y="-78.35" font-family="Helvetica,sans-Serif" font-size="10.00">::KsgsS94Src</text>
<text text-anchor="start" x="236.5" y="-67.35" font-family="Helvetica,sans-Serif" font-size="10.00">kynema_sgf::turbulence</text>
<text text-anchor="middle" x="295" y="-56.35" font-family="Helvetica,sans-Serif" font-size="10.00">::OneEqKsgsM84</text>
<text text-anchor="start" x="236.5" y="-45.35" font-family="Helvetica,sans-Serif" font-size="10.00">kynema_sgf::turbulence</text>
<text text-anchor="middle" x="295" y="-34.35" font-family="Helvetica,sans-Serif" font-size="10.00">::OneEqKsgsS94</text>
</g>
<!-- Node2 -->
<g id="Node000002" class="node">
<title>Node2</title>
<g id="a_Node000002"><a xlink:href="group__wind.html" target="_top" xlink:title=" ">
<polygon fill="white" stroke="#666666" points="127,-301.85 0,-301.85 0,-282.85 127,-282.85 127,-301.85"/>
<text text-anchor="middle" x="63.5" y="-289.85" font-family="Helvetica,sans-Serif" font-size="10.00">Wind energy modeling</text>
</a>
</g>
</g>
<!-- Node2&#45;&gt;Node1 -->
<g id="edge1" class="edge">
<title>Node2&#45;&gt;Node1</title>
<path fill="none" stroke="black" d="M137.54,-292.35C147.25,-292.35 156.35,-292.35 163.66,-292.35"/>
<polygon fill="black" stroke="black" points="137.25,-288.85 127.25,-292.35 137.25,-295.85 137.25,-288.85"/>
</g>
</g>
</svg>

<g id="navigator" transform="translate(0 0)" fill="#404254">
  <rect fill="#f2f5e9" fill-opacity="0.5" stroke="#606060" stroke-width=".5" x="0" y="0" width="60" height="60"/>
  <use id="zoomplus" xlink:href="#zoomPlus" x="17" y="9" onmousedown="handleZoom(evt,'in')"/>
  <use id="zoomminus" xlink:href="#zoomMin" x="42" y="9" onmousedown="handleZoom(evt,'out')"/>
  <use id="reset" xlink:href="#resetDef" x="30" y="36" onmousedown="handleReset()"/>
   <use id="arrowup" xlink:href="#arrowUp" x="0" y="0" onmousedown="handlePan(0,-1)"/>
  <use id="arrowright" xlink:href="#arrowRight" x="0" y="0" onmousedown="handlePan(1,0)"/>
  <use id="arrowdown" xlink:href="#arrowDown" x="0" y="0" onmousedown="handlePan(0,1)"/>
  <use id="arrowleft" xlink:href="#arrowLeft" x="0" y="0" onmousedown="handlePan(-1,0)"/>
</g>
<svg viewBox="0 0 15 15" width="100%" height="30px" preserveAspectRatio="xMaxYMin meet">
 <g id="arrow_out" transform="scale(0.3 0.3)">
  <a xlink:href="group__we__abl_org.svg" target="_base">
   <rect id="button" ry="5" rx="5" y="6" x="6" height="38" width="38"
        fill="#f2f5e9" fill-opacity="0.5" stroke="#606060" stroke-width="1.0"/>
   <path id="arrow"
     d="M 11.500037,31.436501 C 11.940474,20.09759 22.043105,11.32322 32.158766,21.979434 L 37.068811,17.246167 C 37.068811,17.246167 37.088388,32 37.088388,32 L 22.160133,31.978069 C 22.160133,31.978069 26.997745,27.140456 26.997745,27.140456 C 18.528582,18.264221 13.291696,25.230495 11.500037,31.436501 z"
     style="fill:#404040;"/>
  </a>
 </g>
</svg>

<style type='text/css'>
<![CDATA[
[data-mouse-over-selected='false'] { opacity: 0.7; }
[data-mouse-over-selected='true']  { opacity: 1.0; }
]]>
</style>
<script type="application/ecmascript"><![CDATA[
document.addEventListener('DOMContentLoaded', (event) => {
  highlightEdges();
  highlightAdjacentNodes();
});
]]></script>
</svg>
