<?xml version="1.0" encoding="UTF-8" standalone="no"?>
<!DOCTYPE svg PUBLIC "-//W3C//DTD SVG 1.1//EN"
 "http://www.w3.org/Graphics/SVG/1.1/DTD/svg11.dtd">
<!-- Generated by graphviz version 2.43.0 (0)
 -->
<!-- Title: Graphical Class Hierarchy Pages: 1 -->
<svg width="400pt" height="1238pt"
 viewBox="0.00 0.00 400.00 1238.00" xmlns="http://www.w3.org/2000/svg" xmlns:xlink="http://www.w3.org/1999/xlink">
<g id="graph0" class="graph" transform="scale(1 1) rotate(0) translate(4 1234)">
<title>Graphical Class Hierarchy</title>
<!-- Node0 -->
<g id="Node000000" class="node">
<title>Node0</title>
<g id="a_Node000000"><a xlink:href="classkynema__sgf_1_1_a_b_l_mesoscale_forcing.html" target="_top" xlink:title=" ">
<polygon fill="white" stroke="#666666" points="154,-294 2,-294 2,-264 154,-264 154,-294"/>
<text text-anchor="start" x="10" y="-282" font-family="Helvetica,sans-Serif" font-size="10.00">kynema_sgf::ABLMesoscale</text>
<text text-anchor="middle" x="78" y="-271" font-family="Helvetica,sans-Serif" font-size="10.00">Forcing</text>
</a>
</g>
</g>
<!-- Node1 -->
<g id="Node000001" class="node">
<title>Node1</title>
<g id="a_Node000001"><a xlink:href="classkynema__sgf_1_1pde_1_1icns_1_1_a_b_l_meso_forcing_mom.html" target="_top" xlink:title=" ">
<polygon fill="white" stroke="#666666" points="356,-318 228,-318 228,-288 356,-288 356,-318"/>
<text text-anchor="start" x="236" y="-306" font-family="Helvetica,sans-Serif" font-size="10.00">kynema_sgf::pde::icns</text>
<text text-anchor="middle" x="292" y="-295" font-family="Helvetica,sans-Serif" font-size="10.00">::ABLMesoForcingMom</text>
</a>
</g>
</g>
<!-- Node0&#45;&gt;Node1 -->
<g id="edge12_Node000000_Node000001" class="edge">
<title>Node0&#45;&gt;Node1</title>
<g id="a_edge12_Node000000_Node000001"><a xlink:title=" ">
<path fill="none" stroke="#63b8ff" d="M164.08,-288.63C185.42,-291.05 207.93,-293.6 227.98,-295.87"/>
<polygon fill="#63b8ff" stroke="#63b8ff" points="164.37,-285.14 154.04,-287.5 163.58,-292.1 164.37,-285.14"/>
</a>
</g>
</g>
<!-- Node22 -->
<g id="Node000022" class="node">
<title>Node22</title>
<g id="a_Node000022"><a xlink:href="classkynema__sgf_1_1pde_1_1temperature_1_1_a_b_l_meso_forcing_temp.html" target="_top" xlink:title=" ">
<polygon fill="white" stroke="#666666" points="375,-270 209,-270 209,-240 375,-240 375,-270"/>
<text text-anchor="start" x="217" y="-258" font-family="Helvetica,sans-Serif" font-size="10.00">kynema_sgf::pde::temperature</text>
<text text-anchor="middle" x="292" y="-247" font-family="Helvetica,sans-Serif" font-size="10.00">::ABLMesoForcingTemp</text>
</a>
</g>
</g>
<!-- Node0&#45;&gt;Node22 -->
<g id="edge13_Node000000_Node000022" class="edge">
<title>Node0&#45;&gt;Node22</title>
<g id="a_edge13_Node000000_Node000022"><a xlink:title=" ">
<path fill="none" stroke="#63b8ff" d="M164.14,-269.36C178.89,-267.69 194.19,-265.96 208.85,-264.3"/>
<polygon fill="#63b8ff" stroke="#63b8ff" points="163.58,-265.9 154.04,-270.5 164.37,-272.86 163.58,-265.9"/>
</a>
</g>
</g>
<!-- Node2 -->
<g id="Node000002" class="node">
<title>Node2</title>
<g id="a_Node000002"><a xlink:title=" ">
<polygon fill="#e0e0e0" stroke="#999999" points="152.5,-779.5 3.5,-779.5 3.5,-738.5 152.5,-738.5 152.5,-779.5"/>
<text text-anchor="start" x="11.5" y="-767.5" font-family="Helvetica,sans-Serif" font-size="10.00">kynema_sgf::Factory</text>
<text text-anchor="start" x="11.5" y="-756.5" font-family="Helvetica,sans-Serif" font-size="10.00">&lt; MomentumSource, const</text>
<text text-anchor="middle" x="78" y="-745.5" font-family="Helvetica,sans-Serif" font-size="10.00"> CFDSim &amp; &gt;::Register</text>
</a>
</g>
</g>
<!-- Node2&#45;&gt;Node1 -->
<g id="edge16_Node000002_Node000001" class="edge">
<title>Node2&#45;&gt;Node1</title>
<g id="a_edge16_Node000002_Node000001"><a xlink:title=" ">
<path fill="none" stroke="#63b8ff" d="M82.93,-728.26C94.93,-639.27 133.8,-384.16 192,-327 201.78,-317.4 214.71,-311.41 227.99,-307.73"/>
<polygon fill="#63b8ff" stroke="#63b8ff" points="79.45,-727.89 81.6,-738.26 86.39,-728.81 79.45,-727.89"/>
</a>
</g>
</g>
<!-- Node3 -->
<g id="Node000003" class="node">
<title>Node3</title>
<g id="a_Node000003"><a xlink:href="classkynema__sgf_1_1pde_1_1icns_1_1_a_b_l_forcing.html" target="_top" xlink:title=" ">
<polygon fill="white" stroke="#666666" points="354.5,-1230 229.5,-1230 229.5,-1200 354.5,-1200 354.5,-1230"/>
<text text-anchor="start" x="237.5" y="-1218" font-family="Helvetica,sans-Serif" font-size="10.00">kynema_sgf::pde::icns</text>
<text text-anchor="middle" x="292" y="-1207" font-family="Helvetica,sans-Serif" font-size="10.00">::ABLForcing</text>
</a>
</g>
</g>
<!-- Node2&#45;&gt;Node3 -->
<g id="edge14_Node000002_Node000003" class="edge">
<title>Node2&#45;&gt;Node3</title>
<g id="a_edge14_Node000002_Node000003"><a xlink:title=" ">
<path fill="none" stroke="#63b8ff" d="M82.93,-789.74C94.93,-878.73 133.8,-1133.84 192,-1191 202.09,-1200.91 215.55,-1206.98 229.27,-1210.62"/>
<polygon fill="#63b8ff" stroke="#63b8ff" points="86.39,-789.19 81.6,-779.74 79.45,-790.11 86.39,-789.19"/>
</a>
</g>
</g>
<!-- Node4 -->
<g id="Node000004" class="node">
<title>Node4</title>
<g id="a_Node000004"><a xlink:href="classkynema__sgf_1_1pde_1_1icns_1_1_a_b_l_mean_boussinesq.html" target="_top" xlink:title=" ">
<polygon fill="white" stroke="#666666" points="354.5,-1182 229.5,-1182 229.5,-1152 354.5,-1152 354.5,-1182"/>
<text text-anchor="start" x="237.5" y="-1170" font-family="Helvetica,sans-Serif" font-size="10.00">kynema_sgf::pde::icns</text>
<text text-anchor="middle" x="292" y="-1159" font-family="Helvetica,sans-Serif" font-size="10.00">::ABLMeanBoussinesq</text>
</a>
</g>
</g>
<!-- Node2&#45;&gt;Node4 -->
<g id="edge15_Node000002_Node000004" class="edge">
<title>Node2&#45;&gt;Node4</title>
<g id="a_edge15_Node000002_Node000004"><a xlink:title=" ">
<path fill="none" stroke="#63b8ff" d="M78.4,-789.99C78.75,-862.84 90.31,-1046.11 192,-1143 202.24,-1152.76 215.75,-1158.76 229.49,-1162.41"/>
<polygon fill="#63b8ff" stroke="#63b8ff" points="81.9,-789.68 78.42,-779.67 74.9,-789.66 81.9,-789.68"/>
</a>
</g>
</g>
<!-- Node5 -->
<g id="Node000005" class="node">
<title>Node5</title>
<g id="a_Node000005"><a xlink:href="classkynema__sgf_1_1pde_1_1icns_1_1_actuator_forcing.html" target="_top" xlink:title=" ">
<polygon fill="white" stroke="#666666" points="354.5,-1134 229.5,-1134 229.5,-1104 354.5,-1104 354.5,-1134"/>
<text text-anchor="start" x="237.5" y="-1122" font-family="Helvetica,sans-Serif" font-size="10.00">kynema_sgf::pde::icns</text>
<text text-anchor="middle" x="292" y="-1111" font-family="Helvetica,sans-Serif" font-size="10.00">::ActuatorForcing</text>
</a>
</g>
</g>
<!-- Node2&#45;&gt;Node5 -->
<g id="edge17_Node000002_Node000005" class="edge">
<title>Node2&#45;&gt;Node5</title>
<g id="a_edge17_Node000002_Node000005"><a xlink:title=" ">
<path fill="none" stroke="#63b8ff" d="M79.92,-789.79C83.62,-855.97 101.98,-1012.46 192,-1095 202.36,-1104.5 215.84,-1110.42 229.49,-1114.06"/>
<polygon fill="#63b8ff" stroke="#63b8ff" points="83.4,-789.42 79.42,-779.61 76.41,-789.76 83.4,-789.42"/>
</a>
</g>
</g>
<!-- Node6 -->
<g id="Node000006" class="node">
<title>Node6</title>
<g id="a_Node000006"><a xlink:href="classkynema__sgf_1_1pde_1_1icns_1_1_body_force.html" target="_top" xlink:title=" ">
<polygon fill="white" stroke="#666666" points="354.5,-1086 229.5,-1086 229.5,-1056 354.5,-1056 354.5,-1086"/>
<text text-anchor="start" x="237.5" y="-1074" font-family="Helvetica,sans-Serif" font-size="10.00">kynema_sgf::pde::icns</text>
<text text-anchor="middle" x="292" y="-1063" font-family="Helvetica,sans-Serif" font-size="10.00">::BodyForce</text>
</a>
</g>
</g>
<!-- Node2&#45;&gt;Node6 -->
<g id="edge18_Node000002_Node000006" class="edge">
<title>Node2&#45;&gt;Node6</title>
<g id="a_edge18_Node000002_Node000006"><a xlink:title=" ">
<path fill="none" stroke="#63b8ff" d="M81.92,-789.94C89.21,-849.15 113.7,-978.69 192,-1047 202.46,-1056.13 215.82,-1061.91 229.31,-1065.55"/>
<polygon fill="#63b8ff" stroke="#63b8ff" points="85.36,-789.27 80.75,-779.73 78.41,-790.06 85.36,-789.27"/>
</a>
</g>
</g>
<!-- Node7 -->
<g id="Node000007" class="node">
<title>Node7</title>
<g id="a_Node000007"><a xlink:href="classkynema__sgf_1_1pde_1_1icns_1_1_boussinesq_buoyancy.html" target="_top" xlink:title=" ">
<polygon fill="white" stroke="#666666" points="355,-1038 229,-1038 229,-1008 355,-1008 355,-1038"/>
<text text-anchor="start" x="237" y="-1026" font-family="Helvetica,sans-Serif" font-size="10.00">kynema_sgf::pde::icns</text>
<text text-anchor="middle" x="292" y="-1015" font-family="Helvetica,sans-Serif" font-size="10.00">::BoussinesqBuoyancy</text>
</a>
</g>
</g>
<!-- Node2&#45;&gt;Node7 -->
<g id="edge19_Node000002_Node000007" class="edge">
<title>Node2&#45;&gt;Node7</title>
<g id="a_edge19_Node000002_Node000007"><a xlink:title=" ">
<path fill="none" stroke="#63b8ff" d="M84.56,-789.57C95.55,-840.96 125.06,-944.39 192,-999 202.55,-1007.61 215.71,-1013.21 228.96,-1016.83"/>
<polygon fill="#63b8ff" stroke="#63b8ff" points="87.98,-788.81 82.54,-779.72 81.12,-790.22 87.98,-788.81"/>
</a>
</g>
</g>
<!-- Node8 -->
<g id="Node000008" class="node">
<title>Node8</title>
<g id="a_Node000008"><a xlink:href="classkynema__sgf_1_1pde_1_1icns_1_1_burggraf_flow_forcing.html" target="_top" xlink:title=" ">
<polygon fill="white" stroke="#666666" points="354.5,-990 229.5,-990 229.5,-960 354.5,-960 354.5,-990"/>
<text text-anchor="start" x="237.5" y="-978" font-family="Helvetica,sans-Serif" font-size="10.00">kynema_sgf::pde::icns</text>
<text text-anchor="middle" x="292" y="-967" font-family="Helvetica,sans-Serif" font-size="10.00">::BurggrafFlowForcing</text>
</a>
</g>
</g>
<!-- Node2&#45;&gt;Node8 -->
<g id="edge20_Node000002_Node000008" class="edge">
<title>Node2&#45;&gt;Node8</title>
<g id="a_edge20_Node000002_Node000008"><a xlink:title=" ">
<path fill="none" stroke="#63b8ff" d="M88.39,-789.37C103.26,-832.19 136.36,-909.71 192,-951 202.87,-959.06 216.08,-964.45 229.26,-968.04"/>
<polygon fill="#63b8ff" stroke="#63b8ff" points="91.67,-788.13 85.17,-779.77 85.04,-790.36 91.67,-788.13"/>
</a>
</g>
</g>
<!-- Node9 -->
<g id="Node000009" class="node">
<title>Node9</title>
<g id="a_Node000009"><a xlink:href="classkynema__sgf_1_1pde_1_1icns_1_1_coriolis_forcing.html" target="_top" xlink:title=" ">
<polygon fill="white" stroke="#666666" points="354.5,-942 229.5,-942 229.5,-912 354.5,-912 354.5,-942"/>
<text text-anchor="start" x="237.5" y="-930" font-family="Helvetica,sans-Serif" font-size="10.00">kynema_sgf::pde::icns</text>
<text text-anchor="middle" x="292" y="-919" font-family="Helvetica,sans-Serif" font-size="10.00">::CoriolisForcing</text>
</a>
</g>
</g>
<!-- Node2&#45;&gt;Node9 -->
<g id="edge21_Node000002_Node000009" class="edge">
<title>Node2&#45;&gt;Node9</title>
<g id="a_edge21_Node000002_Node000009"><a xlink:title=" ">
<path fill="none" stroke="#63b8ff" d="M94.29,-788.69C112.87,-821.75 147.36,-874.29 192,-903 203.16,-910.18 216.27,-915.21 229.24,-918.73"/>
<polygon fill="#63b8ff" stroke="#63b8ff" points="97.13,-786.6 89.26,-779.52 91,-789.97 97.13,-786.6"/>
</a>
</g>
</g>
<!-- Node10 -->
<g id="Node000010" class="node">
<title>Node10</title>
<g id="a_Node000010"><a xlink:href="classkynema__sgf_1_1pde_1_1icns_1_1_density_buoyancy.html" target="_top" xlink:title=" ">
<polygon fill="white" stroke="#666666" points="354.5,-894 229.5,-894 229.5,-864 354.5,-864 354.5,-894"/>
<text text-anchor="start" x="237.5" y="-882" font-family="Helvetica,sans-Serif" font-size="10.00">kynema_sgf::pde::icns</text>
<text text-anchor="middle" x="292" y="-871" font-family="Helvetica,sans-Serif" font-size="10.00">::DensityBuoyancy</text>
</a>
</g>
</g>
<!-- Node2&#45;&gt;Node10 -->
<g id="edge22_Node000002_Node000010" class="edge">
<title>Node2&#45;&gt;Node10</title>
<g id="a_edge22_Node000002_Node000010"><a xlink:title=" ">
<path fill="none" stroke="#63b8ff" d="M104.8,-787.18C126.16,-808.84 158.35,-837.86 192,-855 203.58,-860.9 216.68,-865.39 229.46,-868.79"/>
<polygon fill="#63b8ff" stroke="#63b8ff" points="107.19,-784.61 97.72,-779.86 102.16,-789.48 107.19,-784.61"/>
</a>
</g>
</g>
<!-- Node11 -->
<g id="Node000011" class="node">
<title>Node11</title>
<g id="a_Node000011"><a xlink:href="classkynema__sgf_1_1pde_1_1icns_1_1_drag_forcing.html" target="_top" xlink:title=" ">
<polygon fill="white" stroke="#666666" points="354.5,-846 229.5,-846 229.5,-816 354.5,-816 354.5,-846"/>
<text text-anchor="start" x="237.5" y="-834" font-family="Helvetica,sans-Serif" font-size="10.00">kynema_sgf::pde::icns</text>
<text text-anchor="middle" x="292" y="-823" font-family="Helvetica,sans-Serif" font-size="10.00">::DragForcing</text>
</a>
</g>
</g>
<!-- Node2&#45;&gt;Node11 -->
<g id="edge23_Node000002_Node000011" class="edge">
<title>Node2&#45;&gt;Node11</title>
<g id="a_edge23_Node000002_Node000011"><a xlink:title=" ">
<path fill="none" stroke="#63b8ff" d="M131.88,-783.58C150.61,-791.72 172.01,-800.38 192,-807 203.92,-810.95 216.84,-814.55 229.3,-817.7"/>
<polygon fill="#63b8ff" stroke="#63b8ff" points="133.19,-780.33 122.63,-779.51 130.38,-786.74 133.19,-780.33"/>
</a>
</g>
</g>
<!-- Node12 -->
<g id="Node000012" class="node">
<title>Node12</title>
<g id="a_Node000012"><a xlink:href="classkynema__sgf_1_1pde_1_1icns_1_1_forest_forcing.html" target="_top" xlink:title=" ">
<polygon fill="white" stroke="#666666" points="354.5,-798 229.5,-798 229.5,-768 354.5,-768 354.5,-798"/>
<text text-anchor="start" x="237.5" y="-786" font-family="Helvetica,sans-Serif" font-size="10.00">kynema_sgf::pde::icns</text>
<text text-anchor="middle" x="292" y="-775" font-family="Helvetica,sans-Serif" font-size="10.00">::ForestForcing</text>
</a>
</g>
</g>
<!-- Node2&#45;&gt;Node12 -->
<g id="edge24_Node000002_Node000012" class="edge">
<title>Node2&#45;&gt;Node12</title>
<g id="a_edge24_Node000002_Node000012"><a xlink:title=" ">
<path fill="none" stroke="#63b8ff" d="M162.64,-768.47C184.83,-770.98 208.39,-773.65 229.19,-776"/>
<polygon fill="#63b8ff" stroke="#63b8ff" points="162.88,-764.97 152.55,-767.33 162.1,-771.93 162.88,-764.97"/>
</a>
</g>
</g>
<!-- Node13 -->
<g id="Node000013" class="node">
<title>Node13</title>
<g id="a_Node000013"><a xlink:href="classkynema__sgf_1_1pde_1_1icns_1_1_geostrophic_forcing.html" target="_top" xlink:title=" ">
<polygon fill="white" stroke="#666666" points="354.5,-750 229.5,-750 229.5,-720 354.5,-720 354.5,-750"/>
<text text-anchor="start" x="237.5" y="-738" font-family="Helvetica,sans-Serif" font-size="10.00">kynema_sgf::pde::icns</text>
<text text-anchor="middle" x="292" y="-727" font-family="Helvetica,sans-Serif" font-size="10.00">::GeostrophicForcing</text>
</a>
</g>
</g>
<!-- Node2&#45;&gt;Node13 -->
<g id="edge25_Node000002_Node000013" class="edge">
<title>Node2&#45;&gt;Node13</title>
<g id="a_edge25_Node000002_Node000013"><a xlink:title=" ">
<path fill="none" stroke="#63b8ff" d="M162.64,-749.53C184.83,-747.02 208.39,-744.35 229.19,-742"/>
<polygon fill="#63b8ff" stroke="#63b8ff" points="162.1,-746.07 152.55,-750.67 162.88,-753.03 162.1,-746.07"/>
</a>
</g>
</g>
<!-- Node14 -->
<g id="Node000014" class="node">
<title>Node14</title>
<g id="a_Node000014"><a xlink:href="classkynema__sgf_1_1pde_1_1icns_1_1_gravity_forcing.html" target="_top" xlink:title=" ">
<polygon fill="white" stroke="#666666" points="354.5,-702 229.5,-702 229.5,-672 354.5,-672 354.5,-702"/>
<text text-anchor="start" x="237.5" y="-690" font-family="Helvetica,sans-Serif" font-size="10.00">kynema_sgf::pde::icns</text>
<text text-anchor="middle" x="292" y="-679" font-family="Helvetica,sans-Serif" font-size="10.00">::GravityForcing</text>
</a>
</g>
</g>
<!-- Node2&#45;&gt;Node14 -->
<g id="edge26_Node000002_Node000014" class="edge">
<title>Node2&#45;&gt;Node14</title>
<g id="a_edge26_Node000002_Node000014"><a xlink:title=" ">
<path fill="none" stroke="#63b8ff" d="M131.88,-734.42C150.61,-726.28 172.01,-717.62 192,-711 203.92,-707.05 216.84,-703.45 229.3,-700.3"/>
<polygon fill="#63b8ff" stroke="#63b8ff" points="130.38,-731.26 122.63,-738.49 133.19,-737.67 130.38,-731.26"/>
</a>
</g>
</g>
<!-- Node15 -->
<g id="Node000015" class="node">
<title>Node15</title>
<g id="a_Node000015"><a xlink:href="classkynema__sgf_1_1pde_1_1icns_1_1_hurricane_forcing.html" target="_top" xlink:title=" ">
<polygon fill="white" stroke="#666666" points="354.5,-654 229.5,-654 229.5,-624 354.5,-624 354.5,-654"/>
<text text-anchor="start" x="237.5" y="-642" font-family="Helvetica,sans-Serif" font-size="10.00">kynema_sgf::pde::icns</text>
<text text-anchor="middle" x="292" y="-631" font-family="Helvetica,sans-Serif" font-size="10.00">::HurricaneForcing</text>
</a>
</g>
</g>
<!-- Node2&#45;&gt;Node15 -->
<g id="edge27_Node000002_Node000015" class="edge">
<title>Node2&#45;&gt;Node15</title>
<g id="a_edge27_Node000002_Node000015"><a xlink:title=" ">
<path fill="none" stroke="#63b8ff" d="M104.8,-730.82C126.16,-709.16 158.35,-680.14 192,-663 203.58,-657.1 216.68,-652.61 229.46,-649.21"/>
<polygon fill="#63b8ff" stroke="#63b8ff" points="102.16,-728.52 97.72,-738.14 107.19,-733.39 102.16,-728.52"/>
</a>
</g>
</g>
<!-- Node16 -->
<g id="Node000016" class="node">
<title>Node16</title>
<g id="a_Node000016"><a xlink:href="classkynema__sgf_1_1pde_1_1icns_1_1_met_mast_forcing.html" target="_top" xlink:title=" ">
<polygon fill="white" stroke="#666666" points="354.5,-606 229.5,-606 229.5,-576 354.5,-576 354.5,-606"/>
<text text-anchor="start" x="237.5" y="-594" font-family="Helvetica,sans-Serif" font-size="10.00">kynema_sgf::pde::icns</text>
<text text-anchor="middle" x="292" y="-583" font-family="Helvetica,sans-Serif" font-size="10.00">::MetMastForcing</text>
</a>
</g>
</g>
<!-- Node2&#45;&gt;Node16 -->
<g id="edge28_Node000002_Node000016" class="edge">
<title>Node2&#45;&gt;Node16</title>
<g id="a_edge28_Node000002_Node000016"><a xlink:title=" ">
<path fill="none" stroke="#63b8ff" d="M94.29,-729.31C112.87,-696.25 147.36,-643.71 192,-615 203.16,-607.82 216.27,-602.79 229.24,-599.27"/>
<polygon fill="#63b8ff" stroke="#63b8ff" points="91,-728.03 89.26,-738.48 97.13,-731.4 91,-728.03"/>
</a>
</g>
</g>
<!-- Node17 -->
<g id="Node000017" class="node">
<title>Node17</title>
<g id="a_Node000017"><a xlink:href="classkynema__sgf_1_1pde_1_1icns_1_1_non_linear_s_g_s_term.html" target="_top" xlink:title=" ">
<polygon fill="white" stroke="#666666" points="354.5,-558 229.5,-558 229.5,-528 354.5,-528 354.5,-558"/>
<text text-anchor="start" x="237.5" y="-546" font-family="Helvetica,sans-Serif" font-size="10.00">kynema_sgf::pde::icns</text>
<text text-anchor="middle" x="292" y="-535" font-family="Helvetica,sans-Serif" font-size="10.00">::NonLinearSGSTerm</text>
</a>
</g>
</g>
<!-- Node2&#45;&gt;Node17 -->
<g id="edge29_Node000002_Node000017" class="edge">
<title>Node2&#45;&gt;Node17</title>
<g id="a_edge29_Node000002_Node000017"><a xlink:title=" ">
<path fill="none" stroke="#63b8ff" d="M88.39,-728.63C103.26,-685.81 136.36,-608.29 192,-567 202.87,-558.94 216.08,-553.55 229.26,-549.96"/>
<polygon fill="#63b8ff" stroke="#63b8ff" points="85.04,-727.64 85.17,-738.23 91.67,-729.87 85.04,-727.64"/>
</a>
</g>
</g>
<!-- Node18 -->
<g id="Node000018" class="node">
<title>Node18</title>
<g id="a_Node000018"><a xlink:href="classkynema__sgf_1_1pde_1_1icns_1_1_rayleigh_damping.html" target="_top" xlink:title=" ">
<polygon fill="white" stroke="#666666" points="354.5,-510 229.5,-510 229.5,-480 354.5,-480 354.5,-510"/>
<text text-anchor="start" x="237.5" y="-498" font-family="Helvetica,sans-Serif" font-size="10.00">kynema_sgf::pde::icns</text>
<text text-anchor="middle" x="292" y="-487" font-family="Helvetica,sans-Serif" font-size="10.00">::RayleighDamping</text>
</a>
</g>
</g>
<!-- Node2&#45;&gt;Node18 -->
<g id="edge30_Node000002_Node000018" class="edge">
<title>Node2&#45;&gt;Node18</title>
<g id="a_edge30_Node000002_Node000018"><a xlink:title=" ">
<path fill="none" stroke="#63b8ff" d="M84.56,-728.43C95.55,-677.04 125.06,-573.61 192,-519 202.69,-510.28 216.05,-504.65 229.47,-501.03"/>
<polygon fill="#63b8ff" stroke="#63b8ff" points="81.12,-727.78 82.54,-738.28 87.98,-729.19 81.12,-727.78"/>
</a>
</g>
</g>
<!-- Node19 -->
<g id="Node000019" class="node">
<title>Node19</title>
<g id="a_Node000019"><a xlink:href="classkynema__sgf_1_1pde_1_1icns_1_1_synth_turb_forcing.html" target="_top" xlink:title=" ">
<polygon fill="white" stroke="#666666" points="354.5,-462 229.5,-462 229.5,-432 354.5,-432 354.5,-462"/>
<text text-anchor="start" x="237.5" y="-450" font-family="Helvetica,sans-Serif" font-size="10.00">kynema_sgf::pde::icns</text>
<text text-anchor="middle" x="292" y="-439" font-family="Helvetica,sans-Serif" font-size="10.00">::SynthTurbForcing</text>
</a>
</g>
</g>
<!-- Node2&#45;&gt;Node19 -->
<g id="edge31_Node000002_Node000019" class="edge">
<title>Node2&#45;&gt;Node19</title>
<g id="a_edge31_Node000002_Node000019"><a xlink:title=" ">
<path fill="none" stroke="#63b8ff" d="M81.92,-728.06C89.21,-668.85 113.7,-539.31 192,-471 202.46,-461.87 215.82,-456.09 229.31,-452.45"/>
<polygon fill="#63b8ff" stroke="#63b8ff" points="78.41,-727.94 80.75,-738.27 85.36,-728.73 78.41,-727.94"/>
</a>
</g>
</g>
<!-- Node20 -->
<g id="Node000020" class="node">
<title>Node20</title>
<g id="a_Node000020"><a xlink:href="classkynema__sgf_1_1pde_1_1icns_1_1_velocity_free_atmosphere_forcing.html" target="_top" xlink:title=" ">
<polygon fill="white" stroke="#666666" points="380.5,-414 203.5,-414 203.5,-384 380.5,-384 380.5,-414"/>
<text text-anchor="start" x="211.5" y="-402" font-family="Helvetica,sans-Serif" font-size="10.00">kynema_sgf::pde::icns</text>
<text text-anchor="middle" x="292" y="-391" font-family="Helvetica,sans-Serif" font-size="10.00">::VelocityFreeAtmosphereForcing</text>
</a>
</g>
</g>
<!-- Node2&#45;&gt;Node20 -->
<g id="edge32_Node000002_Node000020" class="edge">
<title>Node2&#45;&gt;Node20</title>
<g id="a_edge32_Node000002_Node000020"><a xlink:title=" ">
<path fill="none" stroke="#63b8ff" d="M79.92,-728.21C83.62,-662.03 101.98,-505.54 192,-423 195.65,-419.65 199.69,-416.75 203.98,-414.24"/>
<polygon fill="#63b8ff" stroke="#63b8ff" points="76.41,-728.24 79.42,-738.39 83.4,-728.58 76.41,-728.24"/>
</a>
</g>
</g>
<!-- Node21 -->
<g id="Node000021" class="node">
<title>Node21</title>
<g id="a_Node000021"><a xlink:href="classkynema__sgf_1_1pde_1_1icns_1_1mms_1_1_m_m_s_forcing.html" target="_top" xlink:title=" ">
<polygon fill="white" stroke="#666666" points="354.5,-366 229.5,-366 229.5,-336 354.5,-336 354.5,-366"/>
<text text-anchor="start" x="237.5" y="-354" font-family="Helvetica,sans-Serif" font-size="10.00">kynema_sgf::pde::icns</text>
<text text-anchor="middle" x="292" y="-343" font-family="Helvetica,sans-Serif" font-size="10.00">::mms::MMSForcing</text>
</a>
</g>
</g>
<!-- Node2&#45;&gt;Node21 -->
<g id="edge33_Node000002_Node000021" class="edge">
<title>Node2&#45;&gt;Node21</title>
<g id="a_edge33_Node000002_Node000021"><a xlink:title=" ">
<path fill="none" stroke="#63b8ff" d="M78.4,-728.01C78.75,-655.16 90.31,-471.89 192,-375 202.24,-365.24 215.75,-359.24 229.49,-355.59"/>
<polygon fill="#63b8ff" stroke="#63b8ff" points="74.9,-728.34 78.42,-738.33 81.9,-728.32 74.9,-728.34"/>
</a>
</g>
</g>
<!-- Node23 -->
<g id="Node000023" class="node">
<title>Node23</title>
<g id="a_Node000023"><a xlink:title=" ">
<polygon fill="#e0e0e0" stroke="#999999" points="156,-155.5 0,-155.5 0,-114.5 156,-114.5 156,-155.5"/>
<text text-anchor="start" x="8" y="-143.5" font-family="Helvetica,sans-Serif" font-size="10.00">kynema_sgf::Factory</text>
<text text-anchor="start" x="8" y="-132.5" font-family="Helvetica,sans-Serif" font-size="10.00">&lt; TemperatureSource,</text>
<text text-anchor="middle" x="78" y="-121.5" font-family="Helvetica,sans-Serif" font-size="10.00"> const CFDSim &amp; &gt;::Register</text>
</a>
</g>
</g>
<!-- Node23&#45;&gt;Node22 -->
<g id="edge34_Node000023_Node000022" class="edge">
<title>Node23&#45;&gt;Node22</title>
<g id="a_edge34_Node000023_Node000022"><a xlink:title=" ">
<path fill="none" stroke="#63b8ff" d="M104.8,-163.18C126.16,-184.84 158.35,-213.86 192,-231 198.78,-234.45 206.07,-237.42 213.51,-239.97"/>
<polygon fill="#63b8ff" stroke="#63b8ff" points="107.19,-160.61 97.72,-155.86 102.16,-165.48 107.19,-160.61"/>
</a>
</g>
</g>
<!-- Node24 -->
<g id="Node000024" class="node">
<title>Node24</title>
<g id="a_Node000024"><a xlink:href="classkynema__sgf_1_1pde_1_1temperature_1_1_body_force.html" target="_top" xlink:title=" ">
<polygon fill="white" stroke="#666666" points="375,-222 209,-222 209,-192 375,-192 375,-222"/>
<text text-anchor="start" x="217" y="-210" font-family="Helvetica,sans-Serif" font-size="10.00">kynema_sgf::pde::temperature</text>
<text text-anchor="middle" x="292" y="-199" font-family="Helvetica,sans-Serif" font-size="10.00">::BodyForce</text>
</a>
</g>
</g>
<!-- Node23&#45;&gt;Node24 -->
<g id="edge35_Node000023_Node000024" class="edge">
<title>Node23&#45;&gt;Node24</title>
<g id="a_edge35_Node000023_Node000024"><a xlink:title=" ">
<path fill="none" stroke="#63b8ff" d="M131.88,-159.58C150.61,-167.72 172.01,-176.38 192,-183 201.82,-186.25 212.32,-189.27 222.68,-191.99"/>
<polygon fill="#63b8ff" stroke="#63b8ff" points="133.19,-156.33 122.63,-155.51 130.38,-162.74 133.19,-156.33"/>
</a>
</g>
</g>
<!-- Node25 -->
<g id="Node000025" class="node">
<title>Node25</title>
<g id="a_Node000025"><a xlink:href="classkynema__sgf_1_1pde_1_1temperature_1_1_drag_temp_forcing.html" target="_top" xlink:title=" ">
<polygon fill="white" stroke="#666666" points="375,-174 209,-174 209,-144 375,-144 375,-174"/>
<text text-anchor="start" x="217" y="-162" font-family="Helvetica,sans-Serif" font-size="10.00">kynema_sgf::pde::temperature</text>
<text text-anchor="middle" x="292" y="-151" font-family="Helvetica,sans-Serif" font-size="10.00">::DragTempForcing</text>
</a>
</g>
</g>
<!-- Node23&#45;&gt;Node25 -->
<g id="edge36_Node000023_Node000025" class="edge">
<title>Node23&#45;&gt;Node25</title>
<g id="a_edge36_Node000023_Node000025"><a xlink:title=" ">
<path fill="none" stroke="#63b8ff" d="M166.31,-144.88C180.4,-146.48 194.95,-148.13 208.92,-149.71"/>
<polygon fill="#63b8ff" stroke="#63b8ff" points="166.47,-141.38 156.14,-143.73 165.68,-148.34 166.47,-141.38"/>
</a>
</g>
</g>
<!-- Node26 -->
<g id="Node000026" class="node">
<title>Node26</title>
<g id="a_Node000026"><a xlink:href="classkynema__sgf_1_1pde_1_1temperature_1_1_hurricane_temp_forcing.html" target="_top" xlink:title=" ">
<polygon fill="white" stroke="#666666" points="375,-126 209,-126 209,-96 375,-96 375,-126"/>
<text text-anchor="start" x="217" y="-114" font-family="Helvetica,sans-Serif" font-size="10.00">kynema_sgf::pde::temperature</text>
<text text-anchor="middle" x="292" y="-103" font-family="Helvetica,sans-Serif" font-size="10.00">::HurricaneTempForcing</text>
</a>
</g>
</g>
<!-- Node23&#45;&gt;Node26 -->
<g id="edge37_Node000023_Node000026" class="edge">
<title>Node23&#45;&gt;Node26</title>
<g id="a_edge37_Node000023_Node000026"><a xlink:title=" ">
<path fill="none" stroke="#63b8ff" d="M166.31,-125.12C180.4,-123.52 194.95,-121.87 208.92,-120.29"/>
<polygon fill="#63b8ff" stroke="#63b8ff" points="165.68,-121.66 156.14,-126.27 166.47,-128.62 165.68,-121.66"/>
</a>
</g>
</g>
<!-- Node27 -->
<g id="Node000027" class="node">
<title>Node27</title>
<g id="a_Node000027"><a xlink:href="classkynema__sgf_1_1pde_1_1temperature_1_1_perturbation_forcing.html" target="_top" xlink:title=" ">
<polygon fill="white" stroke="#666666" points="375,-78 209,-78 209,-48 375,-48 375,-78"/>
<text text-anchor="start" x="217" y="-66" font-family="Helvetica,sans-Serif" font-size="10.00">kynema_sgf::pde::temperature</text>
<text text-anchor="middle" x="292" y="-55" font-family="Helvetica,sans-Serif" font-size="10.00">::PerturbationForcing</text>
</a>
</g>
</g>
<!-- Node23&#45;&gt;Node27 -->
<g id="edge38_Node000023_Node000027" class="edge">
<title>Node23&#45;&gt;Node27</title>
<g id="a_edge38_Node000023_Node000027"><a xlink:title=" ">
<path fill="none" stroke="#63b8ff" d="M131.88,-110.42C150.61,-102.28 172.01,-93.62 192,-87 201.82,-83.75 212.32,-80.73 222.68,-78.01"/>
<polygon fill="#63b8ff" stroke="#63b8ff" points="130.38,-107.26 122.63,-114.49 133.19,-113.67 130.38,-107.26"/>
</a>
</g>
</g>
<!-- Node28 -->
<g id="Node000028" class="node">
<title>Node28</title>
<g id="a_Node000028"><a xlink:href="classkynema__sgf_1_1pde_1_1temperature_1_1_temperature_free_atmosphere_forcing.html" target="_top" xlink:title=" ">
<polygon fill="white" stroke="#666666" points="392,-30 192,-30 192,0 392,0 392,-30"/>
<text text-anchor="start" x="200" y="-18" font-family="Helvetica,sans-Serif" font-size="10.00">kynema_sgf::pde::temperature</text>
<text text-anchor="middle" x="292" y="-7" font-family="Helvetica,sans-Serif" font-size="10.00">::TemperatureFreeAtmosphereForcing</text>
</a>
</g>
</g>
<!-- Node23&#45;&gt;Node28 -->
<g id="edge39_Node000023_Node000028" class="edge">
<title>Node23&#45;&gt;Node28</title>
<g id="a_edge39_Node000023_Node000028"><a xlink:title=" ">
<path fill="none" stroke="#63b8ff" d="M104.8,-106.82C126.16,-85.16 158.35,-56.14 192,-39 198.78,-35.55 206.07,-32.58 213.51,-30.03"/>
<polygon fill="#63b8ff" stroke="#63b8ff" points="102.16,-104.52 97.72,-114.14 107.19,-109.39 102.16,-104.52"/>
</a>
</g>
</g>
</g>
</svg>
