<?xml version="1.0" encoding="UTF-8" standalone="no"?>
<!DOCTYPE svg PUBLIC "-//W3C//DTD SVG 1.1//EN"
 "http://www.w3.org/Graphics/SVG/1.1/DTD/svg11.dtd">
<!-- Generated by graphviz version 2.43.0 (0)
 -->
<!-- Title: Graphical Class Hierarchy Pages: 1 -->
<svg width="314pt" height="335pt"
 viewBox="0.00 0.00 314.00 335.00" xmlns="http://www.w3.org/2000/svg" xmlns:xlink="http://www.w3.org/1999/xlink">
<g id="graph0" class="graph" transform="scale(1 1) rotate(0) translate(4 331)">
<title>Graphical Class Hierarchy</title>
<!-- Node0 -->
<g id="Node000000" class="node">
<title>Node0</title>
<g id="a_Node000000"><a xlink:title=" ">
<polygon fill="#e0e0e0" stroke="#999999" points="100,-167 0,-167 0,-148 100,-148 100,-167"/>
<text text-anchor="middle" x="50" y="-155" font-family="Helvetica,sans-Serif" font-size="10.00">Physics::Register</text>
</a>
</g>
</g>
<!-- Node1 -->
<g id="Node000001" class="node">
<title>Node1</title>
<g id="a_Node000001"><a xlink:href="classkynema__sgf_1_1_a_b_l.html" target="_top" xlink:title=" ">
<polygon fill="white" stroke="#666666" points="271,-327 171,-327 171,-308 271,-308 271,-327"/>
<text text-anchor="middle" x="221" y="-315" font-family="Helvetica,sans-Serif" font-size="10.00">kynema_sgf::ABL</text>
</a>
</g>
</g>
<!-- Node0&#45;&gt;Node1 -->
<g id="edge211_Node000000_Node000001" class="edge">
<title>Node0&#45;&gt;Node1</title>
<g id="a_edge211_Node000000_Node000001"><a xlink:title=" ">
<path fill="none" stroke="#63b8ff" d="M57.07,-176.79C67.78,-207.59 93.09,-267.52 136,-298.5 146.18,-305.85 158.73,-310.43 170.99,-313.25"/>
<polygon fill="#63b8ff" stroke="#63b8ff" points="60.36,-175.6 53.88,-167.21 53.71,-177.81 60.36,-175.6"/>
</a>
</g>
</g>
<!-- Node2 -->
<g id="Node000002" class="node">
<title>Node2</title>
<g id="a_Node000002"><a xlink:href="classkynema__sgf_1_1_actuator_source_tagging.html" target="_top" xlink:title=" ">
<polygon fill="white" stroke="#666666" points="298.5,-289.5 143.5,-289.5 143.5,-259.5 298.5,-259.5 298.5,-289.5"/>
<text text-anchor="start" x="151.5" y="-277.5" font-family="Helvetica,sans-Serif" font-size="10.00">kynema_sgf::ActuatorSource</text>
<text text-anchor="middle" x="221" y="-266.5" font-family="Helvetica,sans-Serif" font-size="10.00">Tagging</text>
</a>
</g>
</g>
<!-- Node0&#45;&gt;Node2 -->
<g id="edge212_Node000000_Node000002" class="edge">
<title>Node0&#45;&gt;Node2</title>
<g id="a_edge212_Node000000_Node000002"><a xlink:title=" ">
<path fill="none" stroke="#63b8ff" d="M62.66,-175.36C77.32,-196.39 104.41,-230.94 136,-250.5 141.55,-253.93 147.6,-256.89 153.83,-259.43"/>
<polygon fill="#63b8ff" stroke="#63b8ff" points="65.51,-173.32 57,-167 59.71,-177.24 65.51,-173.32"/>
</a>
</g>
</g>
<!-- Node3 -->
<g id="Node000003" class="node">
<title>Node3</title>
<g id="a_Node000003"><a xlink:href="classkynema__sgf_1_1_boussinesq_bubble.html" target="_top" xlink:title=" ">
<polygon fill="white" stroke="#666666" points="306,-241 136,-241 136,-222 306,-222 306,-241"/>
<text text-anchor="middle" x="221" y="-229" font-family="Helvetica,sans-Serif" font-size="10.00">kynema_sgf::BoussinesqBubble</text>
</a>
</g>
</g>
<!-- Node0&#45;&gt;Node3 -->
<g id="edge213_Node000000_Node000003" class="edge">
<title>Node0&#45;&gt;Node3</title>
<g id="a_edge213_Node000000_Node000003"><a xlink:title=" ">
<path fill="none" stroke="#63b8ff" d="M70.86,-173.68C87.35,-186.33 111.93,-203.42 136,-213.5 144.12,-216.9 152.95,-219.69 161.75,-221.97"/>
<polygon fill="#63b8ff" stroke="#63b8ff" points="72.6,-170.6 62.58,-167.18 68.28,-176.11 72.6,-170.6"/>
</a>
</g>
</g>
<!-- Node4 -->
<g id="Node000004" class="node">
<title>Node4</title>
<g id="a_Node000004"><a xlink:href="classkynema__sgf_1_1_breaking_waves.html" target="_top" xlink:title=" ">
<polygon fill="white" stroke="#666666" points="299.5,-204 142.5,-204 142.5,-185 299.5,-185 299.5,-204"/>
<text text-anchor="middle" x="221" y="-192" font-family="Helvetica,sans-Serif" font-size="10.00">kynema_sgf::BreakingWaves</text>
</a>
</g>
</g>
<!-- Node0&#45;&gt;Node4 -->
<g id="edge214_Node000000_Node000004" class="edge">
<title>Node0&#45;&gt;Node4</title>
<g id="a_edge214_Node000000_Node000004"><a xlink:title=" ">
<path fill="none" stroke="#63b8ff" d="M103.14,-169.23C114,-171.65 125.37,-174.17 136,-176.5 148.68,-179.27 162.44,-182.24 175.08,-184.95"/>
<polygon fill="#63b8ff" stroke="#63b8ff" points="103.88,-165.81 93.35,-167.04 102.35,-172.64 103.88,-165.81"/>
</a>
</g>
</g>
<!-- Node5 -->
<g id="Node000005" class="node">
<title>Node5</title>
<g id="a_Node000005"><a xlink:href="classkynema__sgf_1_1_dam_break.html" target="_top" xlink:title=" ">
<polygon fill="white" stroke="#666666" points="287.5,-167 154.5,-167 154.5,-148 287.5,-148 287.5,-167"/>
<text text-anchor="middle" x="221" y="-155" font-family="Helvetica,sans-Serif" font-size="10.00">kynema_sgf::DamBreak</text>
</a>
</g>
</g>
<!-- Node0&#45;&gt;Node5 -->
<g id="edge215_Node000000_Node000005" class="edge">
<title>Node0&#45;&gt;Node5</title>
<g id="a_edge215_Node000000_Node000005"><a xlink:title=" ">
<path fill="none" stroke="#63b8ff" d="M110.45,-157.5C124.62,-157.5 139.82,-157.5 154.26,-157.5"/>
<polygon fill="#63b8ff" stroke="#63b8ff" points="110.34,-154 100.34,-157.5 110.34,-161 110.34,-154"/>
</a>
</g>
</g>
<!-- Node6 -->
<g id="Node000006" class="node">
<title>Node6</title>
<g id="a_Node000006"><a xlink:href="classkynema__sgf_1_1_ekman_spiral.html" target="_top" xlink:title=" ">
<polygon fill="white" stroke="#666666" points="292.5,-130 149.5,-130 149.5,-111 292.5,-111 292.5,-130"/>
<text text-anchor="middle" x="221" y="-118" font-family="Helvetica,sans-Serif" font-size="10.00">kynema_sgf::EkmanSpiral</text>
</a>
</g>
</g>
<!-- Node0&#45;&gt;Node6 -->
<g id="edge216_Node000000_Node000006" class="edge">
<title>Node0&#45;&gt;Node6</title>
<g id="a_edge216_Node000000_Node000006"><a xlink:title=" ">
<path fill="none" stroke="#63b8ff" d="M104.53,-145.78C127.68,-140.71 154.42,-134.86 176.33,-130.06"/>
<polygon fill="#63b8ff" stroke="#63b8ff" points="103.54,-142.41 94.52,-147.97 105.04,-149.25 103.54,-142.41"/>
</a>
</g>
</g>
<!-- Node7 -->
<g id="Node000007" class="node">
<title>Node7</title>
<g id="a_Node000007"><a xlink:href="classkynema__sgf_1_1_free_stream.html" target="_top" xlink:title=" ">
<polygon fill="white" stroke="#666666" points="289.5,-93 152.5,-93 152.5,-74 289.5,-74 289.5,-93"/>
<text text-anchor="middle" x="221" y="-81" font-family="Helvetica,sans-Serif" font-size="10.00">kynema_sgf::FreeStream</text>
</a>
</g>
</g>
<!-- Node0&#45;&gt;Node7 -->
<g id="edge217_Node000000_Node000007" class="edge">
<title>Node0&#45;&gt;Node7</title>
<g id="a_edge217_Node000000_Node000007"><a xlink:title=" ">
<path fill="none" stroke="#63b8ff" d="M71.22,-141.48C87.76,-129.13 112.22,-112.51 136,-102.5 145.1,-98.67 155.08,-95.55 164.9,-93.04"/>
<polygon fill="#63b8ff" stroke="#63b8ff" points="68.72,-138.99 62.9,-147.84 72.97,-144.55 68.72,-138.99"/>
</a>
</g>
</g>
<!-- Node8 -->
<g id="Node000008" class="node">
<title>Node8</title>
<g id="a_Node000008"><a xlink:href="classkynema__sgf_1_1_intermittency.html" target="_top" xlink:title=" ">
<polygon fill="white" stroke="#666666" points="294.5,-56 147.5,-56 147.5,-37 294.5,-37 294.5,-56"/>
<text text-anchor="middle" x="221" y="-44" font-family="Helvetica,sans-Serif" font-size="10.00">kynema_sgf::Intermittency</text>
</a>
</g>
</g>
<!-- Node0&#45;&gt;Node8 -->
<g id="edge218_Node000000_Node000008" class="edge">
<title>Node0&#45;&gt;Node8</title>
<g id="a_edge218_Node000000_Node000008"><a xlink:title=" ">
<path fill="none" stroke="#63b8ff" d="M62.53,-139.54C77.05,-118.44 104.01,-83.97 136,-65.5 142.73,-61.61 150.2,-58.52 157.82,-56.06"/>
<polygon fill="#63b8ff" stroke="#63b8ff" points="59.57,-137.67 56.92,-147.93 65.39,-141.56 59.57,-137.67"/>
</a>
</g>
</g>
<!-- Node9 -->
<g id="Node000009" class="node">
<title>Node9</title>
<g id="a_Node000009"><a xlink:href="classkynema__sgf_1_1_multi_phase.html" target="_top" xlink:title=" ">
<polygon fill="white" stroke="#666666" points="288.5,-19 153.5,-19 153.5,0 288.5,0 288.5,-19"/>
<text text-anchor="middle" x="221" y="-7" font-family="Helvetica,sans-Serif" font-size="10.00">kynema_sgf::MultiPhase</text>
</a>
</g>
</g>
<!-- Node0&#45;&gt;Node9 -->
<g id="edge219_Node000000_Node000009" class="edge">
<title>Node0&#45;&gt;Node9</title>
<g id="a_edge219_Node000000_Node000009"><a xlink:title=" ">
<path fill="none" stroke="#63b8ff" d="M58.18,-138.25C69.9,-109.63 95.91,-56.24 136,-28.5 141.53,-24.67 147.72,-21.6 154.15,-19.14"/>
<polygon fill="#63b8ff" stroke="#63b8ff" points="54.79,-137.32 54.39,-147.91 61.3,-139.88 54.79,-137.32"/>
</a>
</g>
</g>
</g>
</svg>
