<?xml version="1.0" encoding="UTF-8" standalone="no"?>
<!DOCTYPE svg PUBLIC "-//W3C//DTD SVG 1.1//EN"
 "http://www.w3.org/Graphics/SVG/1.1/DTD/svg11.dtd">
<!-- Generated by graphviz version 2.43.0 (0)
 -->
<!-- Title: Graphical Class Hierarchy Pages: 1 -->
<svg width="318pt" height="374pt"
 viewBox="0.00 0.00 318.00 374.00" xmlns="http://www.w3.org/2000/svg" xmlns:xlink="http://www.w3.org/1999/xlink">
<g id="graph0" class="graph" transform="scale(1 1) rotate(0) translate(4 370)">
<title>Graphical Class Hierarchy</title>
<!-- Node0 -->
<g id="Node000000" class="node">
<title>Node0</title>
<g id="a_Node000000"><a xlink:title=" ">
<polygon fill="#e0e0e0" stroke="#999999" points="156,-209 0,-209 0,-157 156,-157 156,-209"/>
<text text-anchor="start" x="8" y="-197" font-family="Helvetica,sans-Serif" font-size="10.00">kynema_sgf::Factory</text>
<text text-anchor="start" x="8" y="-186" font-family="Helvetica,sans-Serif" font-size="10.00">&lt; DerivedQty, const</text>
<text text-anchor="start" x="8" y="-175" font-family="Helvetica,sans-Serif" font-size="10.00"> FieldRepo &amp;, std::vector</text>
<text text-anchor="middle" x="78" y="-164" font-family="Helvetica,sans-Serif" font-size="10.00">&lt; std::string &gt; &amp; &gt;::Register</text>
</a>
</g>
</g>
<!-- Node1 -->
<g id="Node000001" class="node">
<title>Node1</title>
<g id="a_Node000001"><a xlink:href="structkynema__sgf_1_1derived_1_1_divergence.html" target="_top" xlink:title=" ">
<polygon fill="white" stroke="#666666" points="310,-366 192,-366 192,-336 310,-336 310,-366"/>
<text text-anchor="start" x="200" y="-354" font-family="Helvetica,sans-Serif" font-size="10.00">kynema_sgf::derived</text>
<text text-anchor="middle" x="251" y="-343" font-family="Helvetica,sans-Serif" font-size="10.00">::Divergence</text>
</a>
</g>
</g>
<!-- Node0&#45;&gt;Node1 -->
<g id="edge74_Node000000_Node000001" class="edge">
<title>Node0&#45;&gt;Node1</title>
<g id="a_edge74_Node000000_Node000001"><a xlink:title=" ">
<path fill="none" stroke="#63b8ff" d="M99.06,-217.85C119.05,-249.94 152.42,-296.98 192,-327 196.43,-330.36 201.39,-333.33 206.51,-335.94"/>
<polygon fill="#63b8ff" stroke="#63b8ff" points="101.98,-215.93 93.78,-209.22 96.01,-219.58 101.98,-215.93"/>
</a>
</g>
</g>
<!-- Node2 -->
<g id="Node000002" class="node">
<title>Node2</title>
<g id="a_Node000002"><a xlink:href="structkynema__sgf_1_1derived_1_1_field_components.html" target="_top" xlink:title=" ">
<polygon fill="white" stroke="#666666" points="310,-318 192,-318 192,-288 310,-288 310,-318"/>
<text text-anchor="start" x="200" y="-306" font-family="Helvetica,sans-Serif" font-size="10.00">kynema_sgf::derived</text>
<text text-anchor="middle" x="251" y="-295" font-family="Helvetica,sans-Serif" font-size="10.00">::FieldComponents</text>
</a>
</g>
</g>
<!-- Node0&#45;&gt;Node2 -->
<g id="edge75_Node000000_Node000002" class="edge">
<title>Node0&#45;&gt;Node2</title>
<g id="a_edge75_Node000000_Node000002"><a xlink:title=" ">
<path fill="none" stroke="#63b8ff" d="M112.53,-216.37C133.95,-236.39 163.04,-261.31 192,-279 197.3,-282.24 203.12,-285.22 208.96,-287.91"/>
<polygon fill="#63b8ff" stroke="#63b8ff" points="114.67,-213.58 105.01,-209.24 109.86,-218.66 114.67,-213.58"/>
</a>
</g>
</g>
<!-- Node3 -->
<g id="Node000003" class="node">
<title>Node3</title>
<g id="a_Node000003"><a xlink:href="structkynema__sgf_1_1derived_1_1_gradient.html" target="_top" xlink:title=" ">
<polygon fill="white" stroke="#666666" points="310,-270 192,-270 192,-240 310,-240 310,-270"/>
<text text-anchor="start" x="200" y="-258" font-family="Helvetica,sans-Serif" font-size="10.00">kynema_sgf::derived</text>
<text text-anchor="middle" x="251" y="-247" font-family="Helvetica,sans-Serif" font-size="10.00">::Gradient</text>
</a>
</g>
</g>
<!-- Node0&#45;&gt;Node3 -->
<g id="edge76_Node000000_Node000003" class="edge">
<title>Node0&#45;&gt;Node3</title>
<g id="a_edge76_Node000000_Node000003"><a xlink:title=" ">
<path fill="none" stroke="#63b8ff" d="M149.15,-212.92C163.33,-218.93 178.13,-225.19 192,-231 198.93,-233.91 206.34,-236.99 213.47,-239.94"/>
<polygon fill="#63b8ff" stroke="#63b8ff" points="150.52,-209.7 139.95,-209.01 147.78,-216.14 150.52,-209.7"/>
</a>
</g>
</g>
<!-- Node4 -->
<g id="Node000004" class="node">
<title>Node4</title>
<g id="a_Node000004"><a xlink:href="structkynema__sgf_1_1derived_1_1_laplacian.html" target="_top" xlink:title=" ">
<polygon fill="white" stroke="#666666" points="310,-222 192,-222 192,-192 310,-192 310,-222"/>
<text text-anchor="start" x="200" y="-210" font-family="Helvetica,sans-Serif" font-size="10.00">kynema_sgf::derived</text>
<text text-anchor="middle" x="251" y="-199" font-family="Helvetica,sans-Serif" font-size="10.00">::Laplacian</text>
</a>
</g>
</g>
<!-- Node0&#45;&gt;Node4 -->
<g id="edge77_Node000000_Node000004" class="edge">
<title>Node0&#45;&gt;Node4</title>
<g id="a_edge77_Node000000_Node000004"><a xlink:title=" ">
<path fill="none" stroke="#63b8ff" d="M166.59,-195.29C175.2,-196.5 183.77,-197.7 191.97,-198.86"/>
<polygon fill="#63b8ff" stroke="#63b8ff" points="166.88,-191.8 156.49,-193.88 165.91,-198.73 166.88,-191.8"/>
</a>
</g>
</g>
<!-- Node5 -->
<g id="Node000005" class="node">
<title>Node5</title>
<g id="a_Node000005"><a xlink:href="structkynema__sgf_1_1derived_1_1_q_criterion.html" target="_top" xlink:title=" ">
<polygon fill="white" stroke="#666666" points="310,-174 192,-174 192,-144 310,-144 310,-174"/>
<text text-anchor="start" x="200" y="-162" font-family="Helvetica,sans-Serif" font-size="10.00">kynema_sgf::derived</text>
<text text-anchor="middle" x="251" y="-151" font-family="Helvetica,sans-Serif" font-size="10.00">::QCriterion</text>
</a>
</g>
</g>
<!-- Node0&#45;&gt;Node5 -->
<g id="edge78_Node000000_Node000005" class="edge">
<title>Node0&#45;&gt;Node5</title>
<g id="a_edge78_Node000000_Node000005"><a xlink:title=" ">
<path fill="none" stroke="#63b8ff" d="M166.59,-170.71C175.2,-169.5 183.77,-168.3 191.97,-167.14"/>
<polygon fill="#63b8ff" stroke="#63b8ff" points="165.91,-167.27 156.49,-172.12 166.88,-174.2 165.91,-167.27"/>
</a>
</g>
</g>
<!-- Node6 -->
<g id="Node000006" class="node">
<title>Node6</title>
<g id="a_Node000006"><a xlink:href="structkynema__sgf_1_1derived_1_1_q_criterion_nondim.html" target="_top" xlink:title=" ">
<polygon fill="white" stroke="#666666" points="310,-126 192,-126 192,-96 310,-96 310,-126"/>
<text text-anchor="start" x="200" y="-114" font-family="Helvetica,sans-Serif" font-size="10.00">kynema_sgf::derived</text>
<text text-anchor="middle" x="251" y="-103" font-family="Helvetica,sans-Serif" font-size="10.00">::QCriterionNondim</text>
</a>
</g>
</g>
<!-- Node0&#45;&gt;Node6 -->
<g id="edge79_Node000000_Node000006" class="edge">
<title>Node0&#45;&gt;Node6</title>
<g id="a_edge79_Node000000_Node000006"><a xlink:title=" ">
<path fill="none" stroke="#63b8ff" d="M149.15,-153.08C163.33,-147.07 178.13,-140.81 192,-135 198.93,-132.09 206.34,-129.01 213.47,-126.06"/>
<polygon fill="#63b8ff" stroke="#63b8ff" points="147.78,-149.86 139.95,-156.99 150.52,-156.3 147.78,-149.86"/>
</a>
</g>
</g>
<!-- Node7 -->
<g id="Node000007" class="node">
<title>Node7</title>
<g id="a_Node000007"><a xlink:href="structkynema__sgf_1_1derived_1_1_strain_rate_mag.html" target="_top" xlink:title=" ">
<polygon fill="white" stroke="#666666" points="310,-78 192,-78 192,-48 310,-48 310,-78"/>
<text text-anchor="start" x="200" y="-66" font-family="Helvetica,sans-Serif" font-size="10.00">kynema_sgf::derived</text>
<text text-anchor="middle" x="251" y="-55" font-family="Helvetica,sans-Serif" font-size="10.00">::StrainRateMag</text>
</a>
</g>
</g>
<!-- Node0&#45;&gt;Node7 -->
<g id="edge80_Node000000_Node000007" class="edge">
<title>Node0&#45;&gt;Node7</title>
<g id="a_edge80_Node000000_Node000007"><a xlink:title=" ">
<path fill="none" stroke="#63b8ff" d="M112.53,-149.63C133.95,-129.61 163.04,-104.69 192,-87 197.3,-83.76 203.12,-80.78 208.96,-78.09"/>
<polygon fill="#63b8ff" stroke="#63b8ff" points="109.86,-147.34 105.01,-156.76 114.67,-152.42 109.86,-147.34"/>
</a>
</g>
</g>
<!-- Node8 -->
<g id="Node000008" class="node">
<title>Node8</title>
<g id="a_Node000008"><a xlink:href="structkynema__sgf_1_1derived_1_1_vorticity_mag.html" target="_top" xlink:title=" ">
<polygon fill="white" stroke="#666666" points="310,-30 192,-30 192,0 310,0 310,-30"/>
<text text-anchor="start" x="200" y="-18" font-family="Helvetica,sans-Serif" font-size="10.00">kynema_sgf::derived</text>
<text text-anchor="middle" x="251" y="-7" font-family="Helvetica,sans-Serif" font-size="10.00">::VorticityMag</text>
</a>
</g>
</g>
<!-- Node0&#45;&gt;Node8 -->
<g id="edge81_Node000000_Node000008" class="edge">
<title>Node0&#45;&gt;Node8</title>
<g id="a_edge81_Node000000_Node000008"><a xlink:title=" ">
<path fill="none" stroke="#63b8ff" d="M99.06,-148.15C119.05,-116.06 152.42,-69.02 192,-39 196.43,-35.64 201.39,-32.67 206.51,-30.06"/>
<polygon fill="#63b8ff" stroke="#63b8ff" points="96.01,-146.42 93.78,-156.78 101.98,-150.07 96.01,-146.42"/>
</a>
</g>
</g>
</g>
</svg>
