<?xml version="1.0" encoding="UTF-8" standalone="no"?>
<!DOCTYPE svg PUBLIC "-//W3C//DTD SVG 1.1//EN"
 "http://www.w3.org/Graphics/SVG/1.1/DTD/svg11.dtd">
<!-- Generated by graphviz version 2.43.0 (0)
 -->
<!-- Title: kynema_sgf::tioga_iface::AmrDualArray&lt; T &gt; Pages: 1 -->
<svg width="411pt" height="206pt"
 viewBox="0.00 0.00 411.00 205.50" xmlns="http://www.w3.org/2000/svg" xmlns:xlink="http://www.w3.org/1999/xlink">
<g id="graph0" class="graph" transform="scale(1 1) rotate(0) translate(4 201.5)">
<title>kynema_sgf::tioga_iface::AmrDualArray&lt; T &gt;</title>
<!-- Node1 -->
<g id="Node000001" class="node">
<title>Node1</title>
<g id="a_Node000001"><a xlink:title=" ">
<polygon fill="#999999" stroke="#666666" points="135,-116.5 0,-116.5 0,-86.5 135,-86.5 135,-116.5"/>
<text text-anchor="start" x="8" y="-104.5" font-family="Helvetica,sans-Serif" font-size="10.00">kynema_sgf::tioga_iface</text>
<text text-anchor="middle" x="67.5" y="-93.5" font-family="Helvetica,sans-Serif" font-size="10.00">::AmrDualArray&lt; T &gt;</text>
</a>
</g>
</g>
<!-- Node2 -->
<g id="Node000002" class="node">
<title>Node2</title>
<g id="a_Node000002"><a xlink:href="structkynema__sgf_1_1tioga__iface_1_1_amr_dual_array.html" target="_top" xlink:title=" ">
<polygon fill="white" stroke="#666666" points="403,-197.5 268,-197.5 268,-167.5 403,-167.5 403,-197.5"/>
<text text-anchor="start" x="276" y="-185.5" font-family="Helvetica,sans-Serif" font-size="10.00">kynema_sgf::tioga_iface</text>
<text text-anchor="middle" x="335.5" y="-174.5" font-family="Helvetica,sans-Serif" font-size="10.00">::AmrDualArray&lt; int &gt;</text>
</a>
</g>
</g>
<!-- Node1&#45;&gt;Node2 -->
<g id="edge1_Node000001_Node000002" class="edge">
<title>Node1&#45;&gt;Node2</title>
<g id="a_edge1_Node000001_Node000002"><a xlink:title=" ">
<path fill="none" stroke="orange" stroke-dasharray="5,2" d="M106.29,-120.96C120.65,-127.81 137.33,-135.13 153,-140.5 190.18,-153.23 232.95,-163.34 267.63,-170.44"/>
<polygon fill="orange" stroke="orange" points="107.75,-117.77 97.22,-116.55 104.69,-124.07 107.75,-117.77"/>
</a>
</g>
<text text-anchor="start" x="183.5" y="-171" font-family="Helvetica,sans-Serif" font-size="10.00" fill="grey">&lt; int &gt;</text>
</g>
<!-- Node3 -->
<g id="Node000003" class="node">
<title>Node3</title>
<g id="a_Node000003"><a xlink:href="structkynema__sgf_1_1tioga__iface_1_1_amr_dual_array.html" target="_top" xlink:title=" ">
<polygon fill="white" stroke="#666666" points="403,-149 268,-149 268,-108 403,-108 403,-149"/>
<text text-anchor="start" x="276" y="-137" font-family="Helvetica,sans-Serif" font-size="10.00">kynema_sgf::tioga_iface</text>
<text text-anchor="start" x="276" y="-126" font-family="Helvetica,sans-Serif" font-size="10.00">::AmrDualArray&lt; amrex</text>
<text text-anchor="middle" x="335.5" y="-115" font-family="Helvetica,sans-Serif" font-size="10.00">::Real &gt;</text>
</a>
</g>
</g>
<!-- Node1&#45;&gt;Node3 -->
<g id="edge2_Node000001_Node000003" class="edge">
<title>Node1&#45;&gt;Node3</title>
<g id="a_edge2_Node000001_Node000003"><a xlink:title=" ">
<path fill="none" stroke="orange" stroke-dasharray="5,2" d="M145.45,-109.31C184.12,-113.24 230.53,-117.95 267.69,-121.72"/>
<polygon fill="orange" stroke="orange" points="145.58,-105.81 135.28,-108.28 144.88,-112.77 145.58,-105.81"/>
</a>
</g>
<text text-anchor="start" x="160.5" y="-125" font-family="Helvetica,sans-Serif" font-size="10.00" fill="grey">&lt; amrex::Real &gt;</text>
</g>
<!-- Node4 -->
<g id="Node000004" class="node">
<title>Node4</title>
<g id="a_Node000004"><a xlink:href="structkynema__sgf_1_1tioga__iface_1_1_amr_dual_array.html" target="_top" xlink:title=" ">
<polygon fill="white" stroke="#666666" points="403,-89.5 268,-89.5 268,-59.5 403,-59.5 403,-89.5"/>
<text text-anchor="start" x="276" y="-77.5" font-family="Helvetica,sans-Serif" font-size="10.00">kynema_sgf::tioga_iface</text>
<text text-anchor="middle" x="335.5" y="-66.5" font-family="Helvetica,sans-Serif" font-size="10.00">::AmrDualArray&lt; int * &gt;</text>
</a>
</g>
</g>
<!-- Node1&#45;&gt;Node4 -->
<g id="edge3_Node000001_Node000004" class="edge">
<title>Node1&#45;&gt;Node4</title>
<g id="a_edge3_Node000001_Node000004"><a xlink:title=" ">
<path fill="none" stroke="orange" stroke-dasharray="5,2" d="M145.35,-89.42C147.93,-89.1 150.48,-88.79 153,-88.5 190.83,-84.14 233.26,-80.78 267.58,-78.45"/>
<polygon fill="orange" stroke="orange" points="144.78,-85.97 135.32,-90.74 145.69,-92.91 144.78,-85.97"/>
</a>
</g>
<text text-anchor="start" x="179.5" y="-94" font-family="Helvetica,sans-Serif" font-size="10.00" fill="grey">&lt; int * &gt;</text>
</g>
<!-- Node5 -->
<g id="Node000005" class="node">
<title>Node5</title>
<g id="a_Node000005"><a xlink:href="structkynema__sgf_1_1tioga__iface_1_1_amr_dual_array.html" target="_top" xlink:title=" ">
<polygon fill="white" stroke="#666666" points="403,-41 268,-41 268,0 403,0 403,-41"/>
<text text-anchor="start" x="276" y="-29" font-family="Helvetica,sans-Serif" font-size="10.00">kynema_sgf::tioga_iface</text>
<text text-anchor="start" x="276" y="-18" font-family="Helvetica,sans-Serif" font-size="10.00">::AmrDualArray&lt; amrex</text>
<text text-anchor="middle" x="335.5" y="-7" font-family="Helvetica,sans-Serif" font-size="10.00">::Real * &gt;</text>
</a>
</g>
</g>
<!-- Node1&#45;&gt;Node5 -->
<g id="edge4_Node000001_Node000005" class="edge">
<title>Node1&#45;&gt;Node5</title>
<g id="a_edge4_Node000001_Node000005"><a xlink:title=" ">
<path fill="none" stroke="orange" stroke-dasharray="5,2" d="M102.88,-81.39C117.87,-73.32 135.9,-64.52 153,-58.5 190.05,-45.46 233,-36.21 267.82,-30.11"/>
<polygon fill="orange" stroke="orange" points="101.05,-78.41 93.97,-86.29 104.42,-84.54 101.05,-78.41"/>
</a>
</g>
<text text-anchor="start" x="156.5" y="-64" font-family="Helvetica,sans-Serif" font-size="10.00" fill="grey">&lt; amrex::Real * &gt;</text>
</g>
</g>
</svg>
