<?xml version="1.0" encoding="UTF-8" standalone="no"?>
<!DOCTYPE svg PUBLIC "-//W3C//DTD SVG 1.1//EN"
 "http://www.w3.org/Graphics/SVG/1.1/DTD/svg11.dtd">
<!-- Generated by graphviz version 2.43.0 (0)
 -->
<!-- Title: kynema_sgf::pde::FieldRegOp&lt; PDE, Scheme &gt; Pages: 1 -->
<svg width="453pt" height="230pt"
 viewBox="0.00 0.00 453.00 230.00" xmlns="http://www.w3.org/2000/svg" xmlns:xlink="http://www.w3.org/1999/xlink">
<g id="graph0" class="graph" transform="scale(1 1) rotate(0) translate(4 226)">
<title>kynema_sgf::pde::FieldRegOp&lt; PDE, Scheme &gt;</title>
<!-- Node1 -->
<g id="Node000001" class="node">
<title>Node1</title>
<g id="a_Node000001"><a xlink:title=" ">
<polygon fill="#999999" stroke="#666666" points="147,-126 0,-126 0,-96 147,-96 147,-126"/>
<text text-anchor="start" x="8" y="-114" font-family="Helvetica,sans-Serif" font-size="10.00">kynema_sgf::pde::FieldReg</text>
<text text-anchor="middle" x="73.5" y="-103" font-family="Helvetica,sans-Serif" font-size="10.00">Op&lt; PDE, Scheme &gt;</text>
</a>
</g>
</g>
<!-- Node2 -->
<g id="Node000002" class="node">
<title>Node2</title>
<g id="a_Node000002"><a xlink:href="structkynema__sgf_1_1pde_1_1_field_reg_op_3_01_i_c_n_s_00_01_scheme_01_4.html" target="_top" xlink:title=" ">
<polygon fill="white" stroke="#666666" points="445,-222 298,-222 298,-192 445,-192 445,-222"/>
<text text-anchor="start" x="306" y="-210" font-family="Helvetica,sans-Serif" font-size="10.00">kynema_sgf::pde::FieldReg</text>
<text text-anchor="middle" x="371.5" y="-199" font-family="Helvetica,sans-Serif" font-size="10.00">Op&lt; ICNS, Scheme &gt;</text>
</a>
</g>
</g>
<!-- Node1&#45;&gt;Node2 -->
<g id="edge1_Node000001_Node000002" class="edge">
<title>Node1&#45;&gt;Node2</title>
<g id="a_edge1_Node000001_Node000002"><a xlink:title=" ">
<path fill="none" stroke="orange" stroke-dasharray="5,2" d="M101.84,-132.51C119.05,-145 142.24,-160 165,-169 207.35,-185.74 257.56,-195.2 297.75,-200.49"/>
<polygon fill="orange" stroke="orange" points="103.54,-129.41 93.42,-126.25 99.36,-135.03 103.54,-129.41"/>
</a>
</g>
<text text-anchor="start" x="177.5" y="-202.5" font-family="Helvetica,sans-Serif" font-size="10.00" fill="grey">&lt; ICNS, Scheme &gt;</text>
</g>
<!-- Node3 -->
<g id="Node000003" class="node">
<title>Node3</title>
<g id="a_Node000003"><a xlink:href="structkynema__sgf_1_1pde_1_1_field_reg_op_3_01_levelset_00_01_scheme_01_4.html" target="_top" xlink:title=" ">
<polygon fill="white" stroke="#666666" points="445,-174 298,-174 298,-144 445,-144 445,-174"/>
<text text-anchor="start" x="306" y="-162" font-family="Helvetica,sans-Serif" font-size="10.00">kynema_sgf::pde::FieldReg</text>
<text text-anchor="middle" x="371.5" y="-151" font-family="Helvetica,sans-Serif" font-size="10.00">Op&lt; Levelset, Scheme &gt;</text>
</a>
</g>
</g>
<!-- Node1&#45;&gt;Node3 -->
<g id="edge2_Node000001_Node000003" class="edge">
<title>Node1&#45;&gt;Node3</title>
<g id="a_edge2_Node000001_Node000003"><a xlink:title=" ">
<path fill="none" stroke="orange" stroke-dasharray="5,2" d="M145.81,-128.23C152.28,-129.59 158.75,-130.87 165,-132 208.9,-139.96 258.49,-146.54 297.95,-151.22"/>
<polygon fill="orange" stroke="orange" points="146.18,-124.73 135.67,-126.04 144.71,-131.57 146.18,-124.73"/>
</a>
</g>
<text text-anchor="start" x="168.5" y="-153.5" font-family="Helvetica,sans-Serif" font-size="10.00" fill="grey">&lt; Levelset, Scheme &gt;</text>
</g>
<!-- Node4 -->
<g id="Node000004" class="node">
<title>Node4</title>
<g id="a_Node000004"><a xlink:href="structkynema__sgf_1_1pde_1_1_field_reg_op_3_01_s_d_r_00_01_scheme_01_4.html" target="_top" xlink:title=" ">
<polygon fill="white" stroke="#666666" points="445,-126 298,-126 298,-96 445,-96 445,-126"/>
<text text-anchor="start" x="306" y="-114" font-family="Helvetica,sans-Serif" font-size="10.00">kynema_sgf::pde::FieldReg</text>
<text text-anchor="middle" x="371.5" y="-103" font-family="Helvetica,sans-Serif" font-size="10.00">Op&lt; SDR, Scheme &gt;</text>
</a>
</g>
</g>
<!-- Node1&#45;&gt;Node4 -->
<g id="edge3_Node000001_Node000004" class="edge">
<title>Node1&#45;&gt;Node4</title>
<g id="a_edge3_Node000001_Node000004"><a xlink:title=" ">
<path fill="none" stroke="orange" stroke-dasharray="5,2" d="M157.43,-111C201.62,-111 255.48,-111 297.99,-111"/>
<polygon fill="orange" stroke="orange" points="157.29,-107.5 147.29,-111 157.29,-114.5 157.29,-107.5"/>
</a>
</g>
<text text-anchor="start" x="178.5" y="-116.5" font-family="Helvetica,sans-Serif" font-size="10.00" fill="grey">&lt; SDR, Scheme &gt;</text>
</g>
<!-- Node5 -->
<g id="Node000005" class="node">
<title>Node5</title>
<g id="a_Node000005"><a xlink:href="structkynema__sgf_1_1pde_1_1_field_reg_op_3_01_t_k_e_00_01_scheme_01_4.html" target="_top" xlink:title=" ">
<polygon fill="white" stroke="#666666" points="445,-78 298,-78 298,-48 445,-48 445,-78"/>
<text text-anchor="start" x="306" y="-66" font-family="Helvetica,sans-Serif" font-size="10.00">kynema_sgf::pde::FieldReg</text>
<text text-anchor="middle" x="371.5" y="-55" font-family="Helvetica,sans-Serif" font-size="10.00">Op&lt; TKE, Scheme &gt;</text>
</a>
</g>
</g>
<!-- Node1&#45;&gt;Node5 -->
<g id="edge4_Node000001_Node000005" class="edge">
<title>Node1&#45;&gt;Node5</title>
<g id="a_edge4_Node000001_Node000005"><a xlink:title=" ">
<path fill="none" stroke="orange" stroke-dasharray="5,2" d="M145.81,-93.77C152.28,-92.41 158.75,-91.13 165,-90 208.9,-82.04 258.49,-75.46 297.95,-70.78"/>
<polygon fill="orange" stroke="orange" points="144.71,-90.43 135.67,-95.96 146.18,-97.27 144.71,-90.43"/>
</a>
</g>
<text text-anchor="start" x="179.5" y="-95.5" font-family="Helvetica,sans-Serif" font-size="10.00" fill="grey">&lt; TKE, Scheme &gt;</text>
</g>
<!-- Node6 -->
<g id="Node000006" class="node">
<title>Node6</title>
<g id="a_Node000006"><a xlink:href="structkynema__sgf_1_1pde_1_1_field_reg_op_3_01_v_o_f_00_01_scheme_01_4.html" target="_top" xlink:title=" ">
<polygon fill="white" stroke="#666666" points="445,-30 298,-30 298,0 445,0 445,-30"/>
<text text-anchor="start" x="306" y="-18" font-family="Helvetica,sans-Serif" font-size="10.00">kynema_sgf::pde::FieldReg</text>
<text text-anchor="middle" x="371.5" y="-7" font-family="Helvetica,sans-Serif" font-size="10.00">Op&lt; VOF, Scheme &gt;</text>
</a>
</g>
</g>
<!-- Node1&#45;&gt;Node6 -->
<g id="edge5_Node000001_Node000006" class="edge">
<title>Node1&#45;&gt;Node6</title>
<g id="a_edge5_Node000001_Node000006"><a xlink:title=" ">
<path fill="none" stroke="orange" stroke-dasharray="5,2" d="M101.1,-89.56C118.35,-76.73 141.84,-61.19 165,-52 207.28,-35.21 257.5,-25.99 297.7,-20.95"/>
<polygon fill="orange" stroke="orange" points="98.52,-87.12 92.69,-95.97 102.77,-92.69 98.52,-87.12"/>
</a>
</g>
<text text-anchor="start" x="178.5" y="-57.5" font-family="Helvetica,sans-Serif" font-size="10.00" fill="grey">&lt; VOF, Scheme &gt;</text>
</g>
</g>
</svg>
