<?xml version="1.0" encoding="UTF-8" standalone="no"?>
<!DOCTYPE svg PUBLIC "-//W3C//DTD SVG 1.1//EN"
 "http://www.w3.org/Graphics/SVG/1.1/DTD/svg11.dtd">
<!-- Generated by graphviz version 2.43.0 (0)
 -->
<!-- Title: kynema_sgf::actuator::ops::InitDataOp&lt; ActTrait, SrcTrait, typename &gt; Pages: 1 -->
<!--zoomable 344 -->

<svg id="main" version="1.1" xmlns="http://www.w3.org/2000/svg" xmlns:xlink="http://www.w3.org/1999/xlink" xml:space="preserve" onload="init(evt)">

<style type="text/css"><![CDATA[
.node, .edge {opacity: 0.7;}
.node.selected, .edge.selected {opacity: 1;}
.edge:hover path { stroke: red; }
.edge:hover polygon { stroke: red; fill: red; }
]]></style>

<defs>
  <circle id="rim" cx="0" cy="0" r="7"/>
  <circle id="rim2" cx="0" cy="0" r="3.5"/>
  <g id="zoomPlus">
    <use xlink:href="#rim" fill="#404040"><set attributeName="fill" to="#808080" begin="zoomplus.mouseover" end="zoomplus.mouseout"/></use>
    <path d="M-4,0h8M0,-4v8" fill="none" stroke="white" stroke-width="1.5" pointer-events="none"/>
  </g>
  <g id="zoomMin">
    <use xlink:href="#rim" fill="#404040"><set attributeName="fill" to="#808080" begin="zoomminus.mouseover" end="zoomminus.mouseout"/></use>
    <path d="M-4,0h8" fill="none" stroke="white" stroke-width="1.5" pointer-events="none"/>
  </g>
  <g id="arrowUp" transform="translate(30 24)">
    <use xlink:href="#rim"/>
    <path pointer-events="none" fill="none" stroke="white" stroke-width="1.5" d="M0,-3.0v7 M-2.5,-0.5L0,-3.0L2.5,-0.5"/>
  </g>
  <g id="arrowRight" transform="rotate(90) translate(36 -43)">
    <use xlink:href="#rim"/>
    <path pointer-events="none" fill="none" stroke="white" stroke-width="1.5" d="M0,-3.0v7 M-2.5,-0.5L0,-3.0L2.5,-0.5"/>
  </g>
  <g id="arrowDown" transform="rotate(180) translate(-30 -48)">
    <use xlink:href="#rim"/>
    <path pointer-events="none" fill="none" stroke="white" stroke-width="1.5" d="M0,-3.0v7 M-2.5,-0.5L0,-3.0L2.5,-0.5"/>
  </g>
  <g id="arrowLeft" transform="rotate(270) translate(-36 17)">
    <use xlink:href="#rim"/>
    <path pointer-events="none" fill="none" stroke="white" stroke-width="1.5" d="M0,-3.0v7 M-2.5,-0.5L0,-3.0L2.5,-0.5"/>
  </g>
  <g id="resetDef">
    <use xlink:href="#rim2" fill="#404040"><set attributeName="fill" to="#808080" begin="reset.mouseover" end="reset.mouseout"/></use>
  </g>
</defs>
<script type="application/ecmascript">
var viewWidth = 517;
var viewHeight = 344;
var sectionId = 'dynsection-0';
</script>
<script type="application/ecmascript" xlink:href="svg.min.js"/>
<svg id="graph" class="graph">
<g id="viewport">
<title>kynema_sgf::actuator::ops::InitDataOp&lt; ActTrait, SrcTrait, typename &gt;</title>
<!-- Node1 -->
<g id="Node000001" class="node">
<title>Node1</title>
<g id="a_Node000001"><a xlink:title=" ">
<polygon fill="#999999" stroke="#666666" points="149,-188 0,-188 0,-147 149,-147 149,-188"/>
<text text-anchor="start" x="8" y="-176" font-family="Helvetica,sans-Serif" font-size="10.00">kynema_sgf::actuator</text>
<text text-anchor="start" x="8" y="-165" font-family="Helvetica,sans-Serif" font-size="10.00">::ops::InitDataOp&lt; ActTrait,</text>
<text text-anchor="middle" x="74.5" y="-154" font-family="Helvetica,sans-Serif" font-size="10.00"> SrcTrait, typename &gt;</text>
</a>
</g>
</g>
<!-- Node2 -->
<g id="Node000002" class="node">
<title>Node2</title>
<g id="a_Node000002"><a xlink:href="structkynema__sgf_1_1actuator_1_1ops_1_1_init_data_op_3_01_fixed_wing_00_01_act_src_line_01_4.html" target="_top" xlink:title=" ">
<polygon fill="white" stroke="#666666" points="498,-336 335,-336 335,-295 498,-295 498,-336"/>
<text text-anchor="start" x="343" y="-324" font-family="Helvetica,sans-Serif" font-size="10.00">kynema_sgf::actuator</text>
<text text-anchor="start" x="343" y="-313" font-family="Helvetica,sans-Serif" font-size="10.00">::ops::InitDataOp&lt; FixedWing,</text>
<text text-anchor="middle" x="416.5" y="-302" font-family="Helvetica,sans-Serif" font-size="10.00"> ActSrcLine &gt;</text>
</a>
</g>
</g>
<!-- Node1&#45;&gt;Node2 -->
<g id="edge1_Node000001_Node000002" class="edge">
<title>Node1&#45;&gt;Node2</title>
<g id="a_edge1_Node000001_Node000002"><a xlink:title=" ">
<path fill="none" stroke="orange" stroke-dasharray="5,2" d="M96.37,-196.3C113.12,-217.29 138.49,-244.71 167,-260.5 218.7,-289.13 284.21,-302.85 334.99,-309.44"/>
<polygon fill="orange" stroke="orange" points="99.07,-194.07 90.17,-188.32 93.54,-198.37 99.07,-194.07"/>
</a>
</g>
<text text-anchor="start" x="171.5" y="-310" font-family="Helvetica,sans-Serif" font-size="10.00" fill="grey">&lt; FixedWing, ActSrcLine &gt;</text>
</g>
<!-- Node3 -->
<g id="Node000003" class="node">
<title>Node3</title>
<g id="a_Node000003"><a xlink:href="structkynema__sgf_1_1actuator_1_1ops_1_1_init_data_op_3_01_flat_plate_00_01_act_src_line_01_4.html" target="_top" xlink:title=" ">
<polygon fill="white" stroke="#666666" points="494.5,-277 338.5,-277 338.5,-236 494.5,-236 494.5,-277"/>
<text text-anchor="start" x="346.5" y="-265" font-family="Helvetica,sans-Serif" font-size="10.00">kynema_sgf::actuator</text>
<text text-anchor="start" x="346.5" y="-254" font-family="Helvetica,sans-Serif" font-size="10.00">::ops::InitDataOp&lt; FlatPlate,</text>
<text text-anchor="middle" x="416.5" y="-243" font-family="Helvetica,sans-Serif" font-size="10.00"> ActSrcLine &gt;</text>
</a>
</g>
</g>
<!-- Node1&#45;&gt;Node3 -->
<g id="edge2_Node000001_Node000003" class="edge">
<title>Node1&#45;&gt;Node3</title>
<g id="a_edge2_Node000001_Node000003"><a xlink:title=" ">
<path fill="none" stroke="orange" stroke-dasharray="5,2" d="M125.56,-192.43C138.8,-198.32 153.24,-204.15 167,-208.5 223.14,-226.24 288.6,-238.56 338.23,-246.27"/>
<polygon fill="orange" stroke="orange" points="126.71,-189.1 116.16,-188.14 123.81,-195.47 126.71,-189.1"/>
</a>
</g>
<text text-anchor="start" x="174.5" y="-245" font-family="Helvetica,sans-Serif" font-size="10.00" fill="grey">&lt; FlatPlate, ActSrcLine &gt;</text>
</g>
<!-- Node4 -->
<g id="Node000004" class="node">
<title>Node4</title>
<g id="a_Node000004"><a xlink:href="structkynema__sgf_1_1actuator_1_1ops_1_1_init_data_op_3_01_joukowsky_00_01_act_src_disk_01_4.html" target="_top" xlink:title=" ">
<polygon fill="white" stroke="#666666" points="498.5,-218 334.5,-218 334.5,-177 498.5,-177 498.5,-218"/>
<text text-anchor="start" x="342.5" y="-206" font-family="Helvetica,sans-Serif" font-size="10.00">kynema_sgf::actuator</text>
<text text-anchor="start" x="342.5" y="-195" font-family="Helvetica,sans-Serif" font-size="10.00">::ops::InitDataOp&lt; Joukowsky,</text>
<text text-anchor="middle" x="416.5" y="-184" font-family="Helvetica,sans-Serif" font-size="10.00"> ActSrcDisk &gt;</text>
</a>
</g>
</g>
<!-- Node1&#45;&gt;Node4 -->
<g id="edge3_Node000001_Node000004" class="edge">
<title>Node1&#45;&gt;Node4</title>
<g id="a_edge3_Node000001_Node000004"><a xlink:title=" ">
<path fill="none" stroke="orange" stroke-dasharray="5,2" d="M159.4,-174.9C212.8,-179.61 281.59,-185.68 334.43,-190.35"/>
<polygon fill="orange" stroke="orange" points="159.54,-171.4 149.27,-174.01 158.93,-178.38 159.54,-171.4"/>
</a>
</g>
<text text-anchor="start" x="170.5" y="-193" font-family="Helvetica,sans-Serif" font-size="10.00" fill="grey">&lt; Joukowsky, ActSrcDisk &gt;</text>
</g>
<!-- Node5 -->
<g id="Node000005" class="node">
<title>Node5</title>
<g id="a_Node000005"><a xlink:href="structkynema__sgf_1_1actuator_1_1ops_1_1_init_data_op_3_01_turbine_fast_00_01_src_trait_01_4.html" target="_top" xlink:title=" ">
<polygon fill="white" stroke="#666666" points="500,-159 333,-159 333,-118 500,-118 500,-159"/>
<text text-anchor="start" x="341" y="-147" font-family="Helvetica,sans-Serif" font-size="10.00">kynema_sgf::actuator</text>
<text text-anchor="start" x="341" y="-136" font-family="Helvetica,sans-Serif" font-size="10.00">::ops::InitDataOp&lt; TurbineFast,</text>
<text text-anchor="middle" x="416.5" y="-125" font-family="Helvetica,sans-Serif" font-size="10.00"> SrcTrait &gt;</text>
</a>
</g>
</g>
<!-- Node1&#45;&gt;Node5 -->
<g id="edge4_Node000001_Node000005" class="edge">
<title>Node1&#45;&gt;Node5</title>
<g id="a_edge4_Node000001_Node000005"><a xlink:title=" ">
<path fill="none" stroke="orange" stroke-dasharray="5,2" d="M159.39,-159.19C161.95,-158.95 164.5,-158.72 167,-158.5 222.29,-153.56 284.55,-148.55 332.92,-144.78"/>
<polygon fill="orange" stroke="orange" points="159.03,-155.71 149.4,-160.12 159.68,-162.68 159.03,-155.71"/>
</a>
</g>
<text text-anchor="start" x="176.5" y="-164" font-family="Helvetica,sans-Serif" font-size="10.00" fill="grey">&lt; TurbineFast, SrcTrait &gt;</text>
</g>
<!-- Node6 -->
<g id="Node000006" class="node">
<title>Node6</title>
<g id="a_Node000006"><a xlink:href="structkynema__sgf_1_1actuator_1_1ops_1_1_init_data_op_3_01_turbine_kynema_f_m_b_00_01_src_trait_01_4.html" target="_top" xlink:title=" ">
<polygon fill="white" stroke="#666666" points="509,-100 324,-100 324,-59 509,-59 509,-100"/>
<text text-anchor="start" x="332" y="-88" font-family="Helvetica,sans-Serif" font-size="10.00">kynema_sgf::actuator</text>
<text text-anchor="start" x="332" y="-77" font-family="Helvetica,sans-Serif" font-size="10.00">::ops::InitDataOp&lt; TurbineKynema</text>
<text text-anchor="middle" x="416.5" y="-66" font-family="Helvetica,sans-Serif" font-size="10.00">FMB, SrcTrait &gt;</text>
</a>
</g>
</g>
<!-- Node1&#45;&gt;Node6 -->
<g id="edge5_Node000001_Node000006" class="edge">
<title>Node1&#45;&gt;Node6</title>
<g id="a_edge5_Node000001_Node000006"><a xlink:title=" ">
<path fill="none" stroke="orange" stroke-dasharray="5,2" d="M109.75,-141.21C126.2,-129.91 146.72,-117.69 167,-110.5 217.1,-92.74 276.02,-84.88 323.91,-81.5"/>
<polygon fill="orange" stroke="orange" points="107.7,-138.37 101.54,-146.99 111.73,-144.09 107.7,-138.37"/>
</a>
</g>
<text text-anchor="start" x="180.5" y="-131.5" font-family="Helvetica,sans-Serif" font-size="10.00" fill="grey">&lt; TurbineKynemaFMB,</text>
<text text-anchor="start" x="180.5" y="-116.5" font-family="Helvetica,sans-Serif" font-size="10.00" fill="grey">   SrcTrait &gt;</text>
</g>
<!-- Node7 -->
<g id="Node000007" class="node">
<title>Node7</title>
<g id="a_Node000007"><a xlink:href="structkynema__sgf_1_1actuator_1_1ops_1_1_init_data_op_3_01_uniform_ct_00_01_act_src_disk_01_4.html" target="_top" xlink:title=" ">
<polygon fill="white" stroke="#666666" points="498,-41 335,-41 335,0 498,0 498,-41"/>
<text text-anchor="start" x="343" y="-29" font-family="Helvetica,sans-Serif" font-size="10.00">kynema_sgf::actuator</text>
<text text-anchor="start" x="343" y="-18" font-family="Helvetica,sans-Serif" font-size="10.00">::ops::InitDataOp&lt; UniformCt,</text>
<text text-anchor="middle" x="416.5" y="-7" font-family="Helvetica,sans-Serif" font-size="10.00"> ActSrcDisk &gt;</text>
</a>
</g>
</g>
<!-- Node1&#45;&gt;Node7 -->
<g id="edge6_Node000001_Node000007" class="edge">
<title>Node1&#45;&gt;Node7</title>
<g id="a_edge6_Node000001_Node000007"><a xlink:title=" ">
<path fill="none" stroke="orange" stroke-dasharray="5,2" d="M92.85,-138.2C108.9,-113.85 135.06,-80.39 167,-62.5 218.15,-33.84 283.84,-23.68 334.83,-20.5"/>
<polygon fill="orange" stroke="orange" points="89.84,-136.41 87.4,-146.71 95.74,-140.18 89.84,-136.41"/>
</a>
</g>
<text text-anchor="start" x="170.5" y="-68" font-family="Helvetica,sans-Serif" font-size="10.00" fill="grey">&lt; UniformCt, ActSrcDisk &gt;</text>
</g>
</g>
</svg>

<g id="navigator" transform="translate(0 0)" fill="#404254">
  <rect fill="#f2f5e9" fill-opacity="0.5" stroke="#606060" stroke-width=".5" x="0" y="0" width="60" height="60"/>
  <use id="zoomplus" xlink:href="#zoomPlus" x="17" y="9" onmousedown="handleZoom(evt,'in')"/>
  <use id="zoomminus" xlink:href="#zoomMin" x="42" y="9" onmousedown="handleZoom(evt,'out')"/>
  <use id="reset" xlink:href="#resetDef" x="30" y="36" onmousedown="handleReset()"/>
   <use id="arrowup" xlink:href="#arrowUp" x="0" y="0" onmousedown="handlePan(0,-1)"/>
  <use id="arrowright" xlink:href="#arrowRight" x="0" y="0" onmousedown="handlePan(1,0)"/>
  <use id="arrowdown" xlink:href="#arrowDown" x="0" y="0" onmousedown="handlePan(0,1)"/>
  <use id="arrowleft" xlink:href="#arrowLeft" x="0" y="0" onmousedown="handlePan(-1,0)"/>
</g>
<svg viewBox="0 0 15 15" width="100%" height="30px" preserveAspectRatio="xMaxYMin meet">
 <g id="arrow_out" transform="scale(0.3 0.3)">
  <a xlink:href="structkynema__sgf_1_1actuator_1_1ops_1_1_init_data_op__inherit__graph_org.svg" target="_base">
   <rect id="button" ry="5" rx="5" y="6" x="6" height="38" width="38"
        fill="#f2f5e9" fill-opacity="0.5" stroke="#606060" stroke-width="1.0"/>
   <path id="arrow"
     d="M 11.500037,31.436501 C 11.940474,20.09759 22.043105,11.32322 32.158766,21.979434 L 37.068811,17.246167 C 37.068811,17.246167 37.088388,32 37.088388,32 L 22.160133,31.978069 C 22.160133,31.978069 26.997745,27.140456 26.997745,27.140456 C 18.528582,18.264221 13.291696,25.230495 11.500037,31.436501 z"
     style="fill:#404040;"/>
  </a>
 </g>
</svg>

<style type='text/css'>
<![CDATA[
[data-mouse-over-selected='false'] { opacity: 0.7; }
[data-mouse-over-selected='true']  { opacity: 1.0; }
]]>
</style>
<script type="application/ecmascript"><![CDATA[
document.addEventListener('DOMContentLoaded', (event) => {
  highlightEdges();
  highlightAdjacentNodes();
});
]]></script>
</svg>
