<?xml version="1.0" encoding="UTF-8" standalone="no"?>
<!DOCTYPE svg PUBLIC "-//W3C//DTD SVG 1.1//EN"
 "http://www.w3.org/Graphics/SVG/1.1/DTD/svg11.dtd">
<!-- Generated by graphviz version 2.43.0 (0)
 -->
<!-- Title: kynema_sgf::pde::DiffusionOp&lt; SDR, Scheme &gt; Pages: 1 -->
<svg width="749pt" height="88pt"
 viewBox="0.00 0.00 749.00 88.00" xmlns="http://www.w3.org/2000/svg" xmlns:xlink="http://www.w3.org/1999/xlink">
<g id="graph0" class="graph" transform="scale(1 1) rotate(0) translate(4 84)">
<title>kynema_sgf::pde::DiffusionOp&lt; SDR, Scheme &gt;</title>
<!-- Node1 -->
<g id="Node000001" class="node">
<title>Node1</title>
<g id="a_Node000001"><a xlink:title=" ">
<polygon fill="#999999" stroke="#666666" points="741,-46 592,-46 592,-16 741,-16 741,-46"/>
<text text-anchor="start" x="600" y="-34" font-family="Helvetica,sans-Serif" font-size="10.00">kynema_sgf::pde::Diffusion</text>
<text text-anchor="middle" x="666.5" y="-23" font-family="Helvetica,sans-Serif" font-size="10.00">Op&lt; SDR, Scheme &gt;</text>
</a>
</g>
</g>
<!-- Node2 -->
<g id="Node000002" class="node">
<title>Node2</title>
<g id="a_Node000002"><a xlink:href="classkynema__sgf_1_1pde_1_1_diff_solver_iface.html" target="_top" xlink:title=" ">
<polygon fill="white" stroke="#666666" points="452,-78 299,-78 299,-48 452,-48 452,-78"/>
<text text-anchor="start" x="307" y="-66" font-family="Helvetica,sans-Serif" font-size="10.00">kynema_sgf::pde::DiffSolver</text>
<text text-anchor="middle" x="375.5" y="-55" font-family="Helvetica,sans-Serif" font-size="10.00">Iface&lt; SDR::MLDiffOp &gt;</text>
</a>
</g>
</g>
<!-- Node2&#45;&gt;Node1 -->
<g id="edge1_Node000001_Node000002" class="edge">
<title>Node2&#45;&gt;Node1</title>
<g id="a_edge1_Node000001_Node000002"><a xlink:title=" ">
<path fill="none" stroke="#63b8ff" d="M462.09,-53.52C503.34,-48.96 552.33,-43.53 591.89,-39.15"/>
<polygon fill="#63b8ff" stroke="#63b8ff" points="461.61,-50.05 452.05,-54.63 462.38,-57.01 461.61,-50.05"/>
</a>
</g>
</g>
<!-- Node3 -->
<g id="Node000003" class="node">
<title>Node3</title>
<g id="a_Node000003"><a xlink:href="classkynema__sgf_1_1pde_1_1_diff_solver_iface.html" target="_top" xlink:title=" ">
<polygon fill="white" stroke="#666666" points="153,-78 0,-78 0,-48 153,-48 153,-78"/>
<text text-anchor="start" x="8" y="-66" font-family="Helvetica,sans-Serif" font-size="10.00">kynema_sgf::pde::DiffSolver</text>
<text text-anchor="middle" x="76.5" y="-55" font-family="Helvetica,sans-Serif" font-size="10.00">Iface&lt; LinOp &gt;</text>
</a>
</g>
</g>
<!-- Node3&#45;&gt;Node2 -->
<g id="edge2_Node000002_Node000003" class="edge">
<title>Node3&#45;&gt;Node2</title>
<g id="a_edge2_Node000002_Node000003"><a xlink:title=" ">
<path fill="none" stroke="orange" stroke-dasharray="5,2" d="M163.35,-63C206.2,-63 257.58,-63 298.92,-63"/>
<polygon fill="orange" stroke="orange" points="163.21,-59.5 153.21,-63 163.21,-66.5 163.21,-59.5"/>
</a>
</g>
<text text-anchor="start" x="174" y="-68.5" font-family="Helvetica,sans-Serif" font-size="10.00" fill="grey">&lt; SDR::MLDiffOp &gt;</text>
</g>
<!-- Node4 -->
<g id="Node000004" class="node">
<title>Node4</title>
<g id="a_Node000004"><a xlink:href="structkynema__sgf_1_1pde_1_1_diffusion_op.html" target="_top" xlink:title=" ">
<polygon fill="white" stroke="#666666" points="462,-30 289,-30 289,0 462,0 462,-30"/>
<text text-anchor="start" x="297" y="-18" font-family="Helvetica,sans-Serif" font-size="10.00">kynema_sgf::pde::Diffusion</text>
<text text-anchor="middle" x="375.5" y="-7" font-family="Helvetica,sans-Serif" font-size="10.00">Op&lt; PDE, Scheme, typename &gt;</text>
</a>
</g>
</g>
<!-- Node4&#45;&gt;Node1 -->
<g id="edge3_Node000001_Node000004" class="edge">
<title>Node4&#45;&gt;Node1</title>
<g id="a_edge3_Node000001_Node000004"><a xlink:title=" ">
<path fill="none" stroke="orange" stroke-dasharray="5,2" d="M472.41,-18.78C504.7,-20.21 540.92,-21.98 574,-24 579.72,-24.35 585.65,-24.74 591.6,-25.15"/>
<polygon fill="orange" stroke="orange" points="472.22,-15.26 462.08,-18.32 471.92,-22.26 472.22,-15.26"/>
</a>
</g>
<text text-anchor="start" x="483" y="-29.5" font-family="Helvetica,sans-Serif" font-size="10.00" fill="grey">&lt; SDR, Scheme &gt;</text>
</g>
</g>
</svg>
