<?xml version="1.0" encoding="UTF-8" standalone="no"?>
<!DOCTYPE svg PUBLIC "-//W3C//DTD SVG 1.1//EN"
 "http://www.w3.org/Graphics/SVG/1.1/DTD/svg11.dtd">
<!-- Generated by graphviz version 2.43.0 (0)
 -->
<!-- Title: kynema_sgf::actuator::TurbineFromExtSolver&lt; SolverTurbine, SolverData &gt; Pages: 1 -->
<svg width="921pt" height="130pt"
 viewBox="0.00 0.00 921.00 130.00" xmlns="http://www.w3.org/2000/svg" xmlns:xlink="http://www.w3.org/1999/xlink">
<g id="graph0" class="graph" transform="scale(1 1) rotate(0) translate(4 126)">
<title>kynema_sgf::actuator::TurbineFromExtSolver&lt; SolverTurbine, SolverData &gt;</title>
<!-- Node1 -->
<g id="Node000001" class="node">
<title>Node1</title>
<g id="a_Node000001"><a xlink:title=" ">
<polygon fill="#999999" stroke="#666666" points="483,-81.5 318,-81.5 318,-40.5 483,-40.5 483,-81.5"/>
<text text-anchor="start" x="326" y="-69.5" font-family="Helvetica,sans-Serif" font-size="10.00">kynema_sgf::actuator</text>
<text text-anchor="start" x="326" y="-58.5" font-family="Helvetica,sans-Serif" font-size="10.00">::TurbineFromExtSolver</text>
<text text-anchor="middle" x="400.5" y="-47.5" font-family="Helvetica,sans-Serif" font-size="10.00">&lt; SolverTurbine, SolverData &gt;</text>
</a>
</g>
</g>
<!-- Node4 -->
<g id="Node000004" class="node">
<title>Node4</title>
<g id="a_Node000004"><a xlink:href="structkynema__sgf_1_1actuator_1_1_turbine_from_ext_solver.html" target="_top" xlink:title=" ">
<polygon fill="white" stroke="#666666" points="892,-122 735,-122 735,-70 892,-70 892,-122"/>
<text text-anchor="start" x="743" y="-110" font-family="Helvetica,sans-Serif" font-size="10.00">kynema_sgf::actuator</text>
<text text-anchor="start" x="743" y="-99" font-family="Helvetica,sans-Serif" font-size="10.00">::TurbineFromExtSolver</text>
<text text-anchor="start" x="743" y="-88" font-family="Helvetica,sans-Serif" font-size="10.00">&lt;::ext_turb::FastTurbine,</text>
<text text-anchor="middle" x="813.5" y="-77" font-family="Helvetica,sans-Serif" font-size="10.00"> ::ext_turb::FastSolverData &gt;</text>
</a>
</g>
</g>
<!-- Node1&#45;&gt;Node4 -->
<g id="edge3_Node000001_Node000004" class="edge">
<title>Node1&#45;&gt;Node4</title>
<g id="a_edge3_Node000001_Node000004"><a xlink:title=" ">
<path fill="none" stroke="orange" stroke-dasharray="5,2" d="M493.25,-68.81C565.85,-75 666.11,-83.53 734.79,-89.38"/>
<polygon fill="orange" stroke="orange" points="493.45,-65.32 483.19,-67.96 492.86,-72.29 493.45,-65.32"/>
</a>
</g>
<text text-anchor="start" x="525.5" y="-106" font-family="Helvetica,sans-Serif" font-size="10.00" fill="grey">&lt;::ext_turb::FastTurbine,</text>
<text text-anchor="start" x="525.5" y="-91" font-family="Helvetica,sans-Serif" font-size="10.00" fill="grey">   ::ext_turb::FastSolverData &gt;</text>
</g>
<!-- Node5 -->
<g id="Node000005" class="node">
<title>Node5</title>
<g id="a_Node000005"><a xlink:href="structkynema__sgf_1_1actuator_1_1_turbine_from_ext_solver.html" target="_top" xlink:title=" ">
<polygon fill="white" stroke="#666666" points="913,-52 714,-52 714,0 913,0 913,-52"/>
<text text-anchor="start" x="722" y="-40" font-family="Helvetica,sans-Serif" font-size="10.00">kynema_sgf::actuator</text>
<text text-anchor="start" x="722" y="-29" font-family="Helvetica,sans-Serif" font-size="10.00">::TurbineFromExtSolver</text>
<text text-anchor="start" x="722" y="-18" font-family="Helvetica,sans-Serif" font-size="10.00">&lt; ::ext_turb::KynemaFMBTurbine,</text>
<text text-anchor="middle" x="813.5" y="-7" font-family="Helvetica,sans-Serif" font-size="10.00"> ::ext_turb::KynemaFMBSolverData &gt;</text>
</a>
</g>
</g>
<!-- Node1&#45;&gt;Node5 -->
<g id="edge4_Node000001_Node000005" class="edge">
<title>Node1&#45;&gt;Node5</title>
<g id="a_edge4_Node000001_Node000005"><a xlink:title=" ">
<path fill="none" stroke="orange" stroke-dasharray="5,2" d="M478.4,-38.19C485.99,-36.53 493.61,-35.08 501,-34 571.66,-23.66 652.27,-21.86 713.78,-22.53"/>
<polygon fill="orange" stroke="orange" points="477.43,-34.82 468.48,-40.49 479.01,-41.64 477.43,-34.82"/>
</a>
</g>
<text text-anchor="start" x="504.5" y="-55" font-family="Helvetica,sans-Serif" font-size="10.00" fill="grey">&lt; ::ext_turb::KynemaFMBTurbine,</text>
<text text-anchor="start" x="504.5" y="-40" font-family="Helvetica,sans-Serif" font-size="10.00" fill="grey">   ::ext_turb::KynemaFMBSolverData &gt;</text>
</g>
<!-- Node2 -->
<g id="Node000002" class="node">
<title>Node2</title>
<g id="a_Node000002"><a xlink:href="structkynema__sgf_1_1actuator_1_1_turbine_type.html" target="_top" xlink:title=" ">
<polygon fill="white" stroke="#666666" points="281,-76 159,-76 159,-46 281,-46 281,-76"/>
<text text-anchor="start" x="167" y="-64" font-family="Helvetica,sans-Serif" font-size="10.00">kynema_sgf::actuator</text>
<text text-anchor="middle" x="220" y="-53" font-family="Helvetica,sans-Serif" font-size="10.00">::TurbineType</text>
</a>
</g>
</g>
<!-- Node2&#45;&gt;Node1 -->
<g id="edge1_Node000001_Node000002" class="edge">
<title>Node2&#45;&gt;Node1</title>
<g id="a_edge1_Node000001_Node000002"><a xlink:title=" ">
<path fill="none" stroke="#63b8ff" d="M291.49,-61C300.17,-61 309.1,-61 317.92,-61"/>
<polygon fill="#63b8ff" stroke="#63b8ff" points="291.43,-57.5 281.43,-61 291.43,-64.5 291.43,-57.5"/>
</a>
</g>
</g>
<!-- Node3 -->
<g id="Node000003" class="node">
<title>Node3</title>
<g id="a_Node000003"><a xlink:href="structkynema__sgf_1_1actuator_1_1_actuator_type.html" target="_top" xlink:title=" ">
<polygon fill="white" stroke="#666666" points="122,-76 0,-76 0,-46 122,-46 122,-76"/>
<text text-anchor="start" x="8" y="-64" font-family="Helvetica,sans-Serif" font-size="10.00">kynema_sgf::actuator</text>
<text text-anchor="middle" x="61" y="-53" font-family="Helvetica,sans-Serif" font-size="10.00">::ActuatorType</text>
</a>
</g>
</g>
<!-- Node3&#45;&gt;Node2 -->
<g id="edge2_Node000002_Node000003" class="edge">
<title>Node3&#45;&gt;Node2</title>
<g id="a_edge2_Node000002_Node000003"><a xlink:title=" ">
<path fill="none" stroke="#63b8ff" d="M132.51,-61C141.32,-61 150.27,-61 158.91,-61"/>
<polygon fill="#63b8ff" stroke="#63b8ff" points="132.25,-57.5 122.25,-61 132.25,-64.5 132.25,-57.5"/>
</a>
</g>
</g>
</g>
</svg>
