<?xml version="1.0" encoding="UTF-8" standalone="no"?>
<!DOCTYPE svg PUBLIC "-//W3C//DTD SVG 1.1//EN"
 "http://www.w3.org/Graphics/SVG/1.1/DTD/svg11.dtd">
<!-- Generated by graphviz version 2.43.0 (0)
 -->
<!-- Title: kynema_sgf::pde::AdvectionOp&lt; PDE, fvm::Godunov, typename std::enable_if_t&lt; std::is_base_of_v&lt; ScalarTransport, PDE &gt; &gt; &gt; Pages: 1 -->
<svg width="2144pt" height="487pt"
 viewBox="0.00 0.00 2144.00 487.16" xmlns="http://www.w3.org/2000/svg" xmlns:xlink="http://www.w3.org/1999/xlink">
<g id="graph0" class="graph" transform="scale(1 1) rotate(0) translate(4 483.16)">
<title>kynema_sgf::pde::AdvectionOp&lt; PDE, fvm::Godunov, typename std::enable_if_t&lt; std::is_base_of_v&lt; ScalarTransport, PDE &gt; &gt; &gt;</title>
<!-- Node1 -->
<g id="Node000001" class="node">
<title>Node1</title>
<g id="a_Node000001"><a xlink:title=" ">
<polygon fill="#999999" stroke="#666666" points="2136,-209.66 1926,-209.66 1926,-146.66 2136,-146.66 2136,-209.66"/>
<text text-anchor="start" x="1934" y="-197.66" font-family="Helvetica,sans-Serif" font-size="10.00">kynema_sgf::pde::Advection</text>
<text text-anchor="start" x="1934" y="-186.66" font-family="Helvetica,sans-Serif" font-size="10.00">Op&lt; PDE, fvm::Godunov,</text>
<text text-anchor="start" x="1934" y="-175.66" font-family="Helvetica,sans-Serif" font-size="10.00"> typename std::enable_if</text>
<text text-anchor="start" x="1934" y="-164.66" font-family="Helvetica,sans-Serif" font-size="10.00">_t&lt; std::is_base_of_v&lt; ScalarTransport,</text>
<text text-anchor="middle" x="2031" y="-153.66" font-family="Helvetica,sans-Serif" font-size="10.00"> PDE &gt; &gt; &gt;</text>
</a>
</g>
</g>
<!-- Node2 -->
<g id="Node000002" class="node">
<title>Node2</title>
<g id="a_Node000002"><a xlink:href="structkynema__sgf_1_1pde_1_1_p_d_e_fields.html" target="_top" xlink:title=" ">
<polygon fill="white" stroke="#666666" points="1711,-187.66 1558,-187.66 1558,-168.66 1711,-168.66 1711,-187.66"/>
<text text-anchor="middle" x="1634.5" y="-175.66" font-family="Helvetica,sans-Serif" font-size="10.00">kynema_sgf::pde::PDEFields</text>
</a>
</g>
</g>
<!-- Node2&#45;&gt;Node1 -->
<g id="edge1_Node000001_Node000002" class="edge">
<title>Node2&#45;&gt;Node1</title>
<g id="a_edge1_Node000001_Node000002"><a xlink:title=" ">
<path fill="none" stroke="#9a32cd" stroke-dasharray="5,2" d="M1721.32,-178.16C1781.46,-178.16 1862.16,-178.16 1925.96,-178.16"/>
<polygon fill="#9a32cd" stroke="#9a32cd" points="1721.1,-174.66 1711.1,-178.16 1721.1,-181.66 1721.1,-174.66"/>
</a>
</g>
<text text-anchor="start" x="1810.5" y="-183.66" font-family="Helvetica,sans-Serif" font-size="10.00" fill="grey">fields</text>
</g>
<!-- Node3 -->
<g id="Node000003" class="node">
<title>Node3</title>
<g id="a_Node000003"><a xlink:href="classkynema__sgf_1_1_field_repo.html" target="_top" xlink:title=" ">
<polygon fill="white" stroke="#666666" points="1190.5,-204.66 1061.5,-204.66 1061.5,-185.66 1190.5,-185.66 1190.5,-204.66"/>
<text text-anchor="middle" x="1126" y="-192.66" font-family="Helvetica,sans-Serif" font-size="10.00">kynema_sgf::FieldRepo</text>
</a>
</g>
</g>
<!-- Node3&#45;&gt;Node2 -->
<g id="edge2_Node000002_Node000003" class="edge">
<title>Node3&#45;&gt;Node2</title>
<g id="a_edge2_Node000002_Node000003"><a xlink:title=" ">
<path fill="none" stroke="#9a32cd" stroke-dasharray="5,2" d="M1184.35,-183.94C1194.2,-182.4 1204.37,-181.04 1214,-180.16 1353.87,-167.37 1389.55,-176.48 1530,-177.16 1538.98,-177.2 1548.41,-177.27 1557.76,-177.34"/>
<polygon fill="#9a32cd" stroke="#9a32cd" points="1183.53,-180.53 1174.23,-185.61 1184.67,-187.44 1183.53,-180.53"/>
</a>
</g>
<text text-anchor="start" x="1373" y="-180.66" font-family="Helvetica,sans-Serif" font-size="10.00" fill="grey">repo</text>
</g>
<!-- Node10 -->
<g id="Node000010" class="node">
<title>Node10</title>
<g id="a_Node000010"><a xlink:href="classkynema__sgf_1_1_field.html" target="_top" xlink:title=" ">
<polygon fill="white" stroke="#666666" points="1436,-273.66 1332,-273.66 1332,-254.66 1436,-254.66 1436,-273.66"/>
<text text-anchor="middle" x="1384" y="-261.66" font-family="Helvetica,sans-Serif" font-size="10.00">kynema_sgf::Field</text>
</a>
</g>
</g>
<!-- Node3&#45;&gt;Node10 -->
<g id="edge10_Node000010_Node000003" class="edge">
<title>Node3&#45;&gt;Node10</title>
<g id="a_edge10_Node000010_Node000003"><a xlink:title=" ">
<path fill="none" stroke="#9a32cd" stroke-dasharray="5,2" d="M1200.91,-185.35C1231.15,-183.94 1266,-185.72 1296,-196.16 1329.86,-207.93 1360.67,-238.79 1374.83,-254.57"/>
<polygon fill="#9a32cd" stroke="#9a32cd" points="1200.63,-181.86 1190.85,-185.94 1201.04,-188.85 1200.63,-181.86"/>
</a>
</g>
<text text-anchor="start" x="1237" y="-201.66" font-family="Helvetica,sans-Serif" font-size="10.00" fill="grey">m_repo</text>
</g>
<!-- Node18 -->
<g id="Node000018" class="node">
<title>Node18</title>
<g id="a_Node000018"><a xlink:href="classkynema__sgf_1_1_scratch_field.html" target="_top" xlink:title=" ">
<polygon fill="white" stroke="#666666" points="1454,-310.66 1314,-310.66 1314,-291.66 1454,-291.66 1454,-310.66"/>
<text text-anchor="middle" x="1384" y="-298.66" font-family="Helvetica,sans-Serif" font-size="10.00">kynema_sgf::ScratchField</text>
</a>
</g>
</g>
<!-- Node3&#45;&gt;Node18 -->
<g id="edge24_Node000018_Node000003" class="edge">
<title>Node3&#45;&gt;Node18</title>
<g id="a_edge24_Node000018_Node000003"><a xlink:title=" ">
<path fill="none" stroke="#9a32cd" stroke-dasharray="5,2" d="M1166.65,-207.93C1202.08,-220.28 1254.63,-240.95 1296,-267.16 1305.04,-272.89 1304.56,-278.11 1314,-283.16 1320.33,-286.54 1327.34,-289.32 1334.38,-291.59"/>
<polygon fill="#9a32cd" stroke="#9a32cd" points="1167.73,-204.6 1157.14,-204.67 1165.46,-211.22 1167.73,-204.6"/>
</a>
</g>
<text text-anchor="start" x="1237" y="-272.66" font-family="Helvetica,sans-Serif" font-size="10.00" fill="grey">m_repo</text>
</g>
<!-- Node4 -->
<g id="Node000004" class="node">
<title>Node4</title>
<g id="a_Node000004"><a xlink:title=" ">
<polygon fill="white" stroke="#666666" points="866.5,-210.16 744.5,-210.16 744.5,-180.16 866.5,-180.16 866.5,-210.16"/>
<text text-anchor="start" x="752.5" y="-198.16" font-family="Helvetica,sans-Serif" font-size="10.00">std::unordered_map</text>
<text text-anchor="middle" x="805.5" y="-187.16" font-family="Helvetica,sans-Serif" font-size="10.00">&lt; std::string, size_t &gt;</text>
</a>
</g>
</g>
<!-- Node4&#45;&gt;Node3 -->
<g id="edge3_Node000003_Node000004" class="edge">
<title>Node4&#45;&gt;Node3</title>
<g id="a_edge3_Node000003_Node000004"><a xlink:title=" ">
<path fill="none" stroke="#9a32cd" stroke-dasharray="5,2" d="M876.83,-195.16C931.98,-195.16 1008.08,-195.16 1061.42,-195.16"/>
<polygon fill="#9a32cd" stroke="#9a32cd" points="876.78,-191.66 866.78,-195.16 876.78,-198.66 876.78,-191.66"/>
</a>
</g>
<text text-anchor="start" x="925.5" y="-216.16" font-family="Helvetica,sans-Serif" font-size="10.00" fill="grey">m_fid_map</text>
<text text-anchor="start" x="925.5" y="-201.16" font-family="Helvetica,sans-Serif" font-size="10.00" fill="grey">m_int_fid_map</text>
</g>
<!-- Node5 -->
<g id="Node000005" class="node">
<title>Node5</title>
<g id="a_Node000005"><a xlink:title=" ">
<polygon fill="white" stroke="#666666" points="524.5,-267.66 459.5,-267.66 459.5,-248.66 524.5,-248.66 524.5,-267.66"/>
<text text-anchor="middle" x="492" y="-255.66" font-family="Helvetica,sans-Serif" font-size="10.00">std::string</text>
</a>
</g>
</g>
<!-- Node5&#45;&gt;Node1 -->
<g id="edge27_Node000001_Node000005" class="edge">
<title>Node5&#45;&gt;Node1</title>
<g id="a_edge27_Node000001_Node000005"><a xlink:title=" ">
<path fill="none" stroke="#9a32cd" stroke-dasharray="5,2" d="M510.52,-241.7C555.52,-201.23 680.34,-100.16 804.5,-100.16 804.5,-100.16 804.5,-100.16 1635.5,-100.16 1736.38,-100.16 1849.07,-125.01 1928.09,-146.66"/>
<polygon fill="#9a32cd" stroke="#9a32cd" points="508.09,-239.18 503.07,-248.51 512.81,-244.35 508.09,-239.18"/>
</a>
</g>
<text text-anchor="start" x="1217" y="-135.66" font-family="Helvetica,sans-Serif" font-size="10.00" fill="grey">advection_type</text>
<text text-anchor="start" x="1217" y="-120.66" font-family="Helvetica,sans-Serif" font-size="10.00" fill="grey">godunov_type</text>
<text text-anchor="start" x="1217" y="-105.66" font-family="Helvetica,sans-Serif" font-size="10.00" fill="grey">mflux_type</text>
</g>
<!-- Node5&#45;&gt;Node4 -->
<g id="edge4_Node000004_Node000005" class="edge">
<title>Node5&#45;&gt;Node4</title>
<g id="a_edge4_Node000004_Node000005"><a xlink:title=" ">
<path fill="none" stroke="#9a32cd" stroke-dasharray="5,2" d="M528.63,-245.25C546.8,-239.06 569.37,-231.96 590,-227.16 641.52,-215.16 701.1,-206.7 744.37,-201.5"/>
<polygon fill="#9a32cd" stroke="#9a32cd" points="527.33,-242 519.03,-248.58 529.62,-248.61 527.33,-242"/>
</a>
</g>
<text text-anchor="start" x="647" y="-232.66" font-family="Helvetica,sans-Serif" font-size="10.00" fill="grey">keys</text>
</g>
<!-- Node5&#45;&gt;Node10 -->
<g id="edge11_Node000010_Node000005" class="edge">
<title>Node5&#45;&gt;Node10</title>
<g id="a_edge11_Node000010_Node000005"><a xlink:title=" ">
<path fill="none" stroke="#9a32cd" stroke-dasharray="5,2" d="M534.85,-258.05C626.2,-257.87 850.29,-257.63 1038,-259.16 1142.38,-260.01 1264.5,-262.02 1331.86,-263.21"/>
<polygon fill="#9a32cd" stroke="#9a32cd" points="534.63,-254.55 524.64,-258.08 534.65,-261.55 534.63,-254.55"/>
</a>
</g>
<text text-anchor="start" x="940.5" y="-264.66" font-family="Helvetica,sans-Serif" font-size="10.00" fill="grey">m_name</text>
</g>
<!-- Node12 -->
<g id="Node000012" class="node">
<title>Node12</title>
<g id="a_Node000012"><a xlink:href="structkynema__sgf_1_1_field_info.html" target="_top" xlink:title=" ">
<polygon fill="white" stroke="#666666" points="867,-343.66 744,-343.66 744,-324.66 867,-324.66 867,-343.66"/>
<text text-anchor="middle" x="805.5" y="-331.66" font-family="Helvetica,sans-Serif" font-size="10.00">kynema_sgf::FieldInfo</text>
</a>
</g>
</g>
<!-- Node5&#45;&gt;Node12 -->
<g id="edge14_Node000012_Node000005" class="edge">
<title>Node5&#45;&gt;Node12</title>
<g id="a_edge14_Node000012_Node000005"><a xlink:title=" ">
<path fill="none" stroke="#9a32cd" stroke-dasharray="5,2" d="M515.6,-273.13C534.63,-284.95 562.98,-300.8 590,-309.16 640.32,-324.73 700.02,-330.74 743.64,-332.99"/>
<polygon fill="#9a32cd" stroke="#9a32cd" points="517.38,-270.11 507.06,-267.7 513.62,-276.01 517.38,-270.11"/>
</a>
</g>
<text text-anchor="start" x="625" y="-336.66" font-family="Helvetica,sans-Serif" font-size="10.00" fill="grey">m_basename</text>
</g>
<!-- Node5&#45;&gt;Node18 -->
<g id="edge25_Node000018_Node000005" class="edge">
<title>Node5&#45;&gt;Node18</title>
<g id="a_edge25_Node000018_Node000005"><a xlink:title=" ">
<path fill="none" stroke="#9a32cd" stroke-dasharray="5,2" d="M535,-264.68C552.03,-267.09 571.92,-269.61 590,-271.16 856.99,-294.05 1176.03,-299.47 1313.92,-300.76"/>
<polygon fill="#9a32cd" stroke="#9a32cd" points="535.21,-261.17 524.81,-263.2 534.2,-268.1 535.21,-261.17"/>
</a>
</g>
<text text-anchor="start" x="940.5" y="-300.66" font-family="Helvetica,sans-Serif" font-size="10.00" fill="grey">m_name</text>
</g>
<!-- Node6 -->
<g id="Node000006" class="node">
<title>Node6</title>
<g id="a_Node000006"><a xlink:title=" ">
<polygon fill="white" stroke="#666666" points="209.5,-273.16 105.5,-273.16 105.5,-243.16 209.5,-243.16 209.5,-273.16"/>
<text text-anchor="start" x="113.5" y="-261.16" font-family="Helvetica,sans-Serif" font-size="10.00">std::basic_string&lt;</text>
<text text-anchor="middle" x="157.5" y="-250.16" font-family="Helvetica,sans-Serif" font-size="10.00"> Char &gt;</text>
</a>
</g>
</g>
<!-- Node6&#45;&gt;Node5 -->
<g id="edge5_Node000005_Node000006" class="edge">
<title>Node6&#45;&gt;Node5</title>
<g id="a_edge5_Node000005_Node000006"><a xlink:title=" ">
<path fill="none" stroke="#63b8ff" d="M219.85,-258.16C290.64,-258.16 404.34,-258.16 459.27,-258.16"/>
<polygon fill="#63b8ff" stroke="#63b8ff" points="219.72,-254.66 209.72,-258.16 219.72,-261.66 219.72,-254.66"/>
</a>
</g>
</g>
<!-- Node7 -->
<g id="Node000007" class="node">
<title>Node7</title>
<g id="a_Node000007"><a xlink:title=" ">
<polygon fill="white" stroke="#666666" points="549,-111.16 435,-111.16 435,-81.16 549,-81.16 549,-111.16"/>
<text text-anchor="start" x="443" y="-99.16" font-family="Helvetica,sans-Serif" font-size="10.00">std::unordered_map</text>
<text text-anchor="middle" x="492" y="-88.16" font-family="Helvetica,sans-Serif" font-size="10.00">&lt; K, T &gt;</text>
</a>
</g>
</g>
<!-- Node7&#45;&gt;Node4 -->
<g id="edge6_Node000004_Node000007" class="edge">
<title>Node7&#45;&gt;Node4</title>
<g id="a_edge6_Node000004_Node000007"><a xlink:title=" ">
<path fill="none" stroke="orange" stroke-dasharray="5,2" d="M549.93,-114.25C609.41,-133.16 701.66,-162.47 757.26,-180.14"/>
<polygon fill="orange" stroke="orange" points="550.9,-110.89 540.31,-111.19 548.78,-117.56 550.9,-110.89"/>
</a>
</g>
<text text-anchor="start" x="605" y="-173.66" font-family="Helvetica,sans-Serif" font-size="10.00" fill="grey">&lt; std::string, size_t &gt;</text>
</g>
<!-- Node8 -->
<g id="Node000008" class="node">
<title>Node8</title>
<g id="a_Node000008"><a xlink:title=" ">
<polygon fill="white" stroke="#666666" points="172,-105.66 143,-105.66 143,-86.66 172,-86.66 172,-105.66"/>
<text text-anchor="middle" x="157.5" y="-93.66" font-family="Helvetica,sans-Serif" font-size="10.00">K</text>
</a>
</g>
</g>
<!-- Node8&#45;&gt;Node7 -->
<g id="edge7_Node000007_Node000008" class="edge">
<title>Node8&#45;&gt;Node7</title>
<g id="a_edge7_Node000007_Node000008"><a xlink:title=" ">
<path fill="none" stroke="#9a32cd" stroke-dasharray="5,2" d="M182.38,-96.16C234.77,-96.16 361.02,-96.16 434.8,-96.16"/>
<polygon fill="#9a32cd" stroke="#9a32cd" points="182.36,-92.66 172.36,-96.16 182.36,-99.66 182.36,-92.66"/>
</a>
</g>
<text text-anchor="start" x="310" y="-101.66" font-family="Helvetica,sans-Serif" font-size="10.00" fill="grey">keys</text>
</g>
<!-- Node9 -->
<g id="Node000009" class="node">
<title>Node9</title>
<g id="a_Node000009"><a xlink:title=" ">
<polygon fill="white" stroke="#666666" points="29,-341.66 0,-341.66 0,-322.66 29,-322.66 29,-341.66"/>
<text text-anchor="middle" x="14.5" y="-329.66" font-family="Helvetica,sans-Serif" font-size="10.00">T</text>
</a>
</g>
</g>
<!-- Node9&#45;&gt;Node7 -->
<g id="edge8_Node000007_Node000009" class="edge">
<title>Node9&#45;&gt;Node7</title>
<g id="a_edge8_Node000007_Node000009"><a xlink:title=" ">
<path fill="none" stroke="#9a32cd" stroke-dasharray="5,2" d="M22.13,-312.79C31.88,-287.15 52.55,-242.26 85,-217.16 113.11,-195.42 330.14,-137.55 434.84,-110.48"/>
<polygon fill="#9a32cd" stroke="#9a32cd" points="18.73,-311.89 18.61,-322.49 25.31,-314.28 18.73,-311.89"/>
</a>
</g>
<text text-anchor="start" x="134.5" y="-222.66" font-family="Helvetica,sans-Serif" font-size="10.00" fill="grey">elements</text>
</g>
<!-- Node15 -->
<g id="Node000015" class="node">
<title>Node15</title>
<g id="a_Node000015"><a xlink:title=" ">
<polygon fill="white" stroke="#666666" points="216.5,-427.66 98.5,-427.66 98.5,-408.66 216.5,-408.66 216.5,-427.66"/>
<text text-anchor="middle" x="157.5" y="-415.66" font-family="Helvetica,sans-Serif" font-size="10.00">std::unique_ptr&lt; T &gt;</text>
</a>
</g>
</g>
<!-- Node9&#45;&gt;Node15 -->
<g id="edge18_Node000015_Node000009" class="edge">
<title>Node9&#45;&gt;Node15</title>
<g id="a_edge18_Node000015_Node000009"><a xlink:title=" ">
<path fill="none" stroke="#9a32cd" stroke-dasharray="5,2" d="M29.57,-350.11C42.43,-365.33 62.79,-386.63 85,-399.16 91.82,-403.01 99.46,-406.1 107.12,-408.58"/>
<polygon fill="#9a32cd" stroke="#9a32cd" points="31.94,-347.49 22.9,-341.96 26.53,-351.92 31.94,-347.49"/>
</a>
</g>
<text text-anchor="start" x="50" y="-390.66" font-family="Helvetica,sans-Serif" font-size="10.00" fill="grey">ptr</text>
</g>
<!-- Node16 -->
<g id="Node000016" class="node">
<title>Node16</title>
<g id="a_Node000016"><a xlink:title=" ">
<polygon fill="white" stroke="#666666" points="380,-346.66 262,-346.66 262,-327.66 380,-327.66 380,-346.66"/>
<text text-anchor="middle" x="321" y="-334.66" font-family="Helvetica,sans-Serif" font-size="10.00">std::shared_ptr&lt; T &gt;</text>
</a>
</g>
</g>
<!-- Node9&#45;&gt;Node16 -->
<g id="edge20_Node000016_Node000009" class="edge">
<title>Node9&#45;&gt;Node16</title>
<g id="a_edge20_Node000016_Node000009"><a xlink:title=" ">
<path fill="none" stroke="#9a32cd" stroke-dasharray="5,2" d="M39.63,-332.55C87.27,-333.34 194.62,-335.1 261.8,-336.2"/>
<polygon fill="#9a32cd" stroke="#9a32cd" points="39.43,-329.05 29.37,-332.39 39.32,-336.05 39.43,-329.05"/>
</a>
</g>
<text text-anchor="start" x="50" y="-337.66" font-family="Helvetica,sans-Serif" font-size="10.00" fill="grey">ptr</text>
</g>
<!-- Node10&#45;&gt;Node1 -->
<g id="edge21_Node000001_Node000010" class="edge">
<title>Node10&#45;&gt;Node1</title>
<g id="a_edge21_Node000001_Node000010"><a xlink:title=" ">
<path fill="none" stroke="#9a32cd" stroke-dasharray="5,2" d="M1446.12,-272.17C1472.02,-274.47 1502.51,-275.75 1530,-273.16 1668.33,-260.13 1825.38,-227.26 1925.95,-203.85"/>
<polygon fill="#9a32cd" stroke="#9a32cd" points="1446.35,-268.68 1436.06,-271.21 1445.68,-275.65 1446.35,-268.68"/>
</a>
</g>
<text text-anchor="start" x="1616.5" y="-321.16" font-family="Helvetica,sans-Serif" font-size="10.00" fill="grey">density</text>
<text text-anchor="start" x="1616.5" y="-306.16" font-family="Helvetica,sans-Serif" font-size="10.00" fill="grey">u_mac</text>
<text text-anchor="start" x="1616.5" y="-291.16" font-family="Helvetica,sans-Serif" font-size="10.00" fill="grey">v_mac</text>
<text text-anchor="start" x="1616.5" y="-276.16" font-family="Helvetica,sans-Serif" font-size="10.00" fill="grey">w_mac</text>
</g>
<!-- Node10&#45;&gt;Node2 -->
<g id="edge9_Node000002_Node000010" class="edge">
<title>Node10&#45;&gt;Node2</title>
<g id="a_edge9_Node000002_Node000010"><a xlink:title=" ">
<path fill="none" stroke="#9a32cd" stroke-dasharray="5,2" d="M1401.12,-246.96C1417.34,-230.85 1443.93,-207.6 1472,-196.16 1498.78,-185.24 1530,-180.18 1557.82,-178.03"/>
<polygon fill="#9a32cd" stroke="#9a32cd" points="1398.52,-244.61 1394.02,-254.21 1403.52,-249.51 1398.52,-244.61"/>
</a>
</g>
<text text-anchor="start" x="1475" y="-261.66" font-family="Helvetica,sans-Serif" font-size="10.00" fill="grey">conv_term</text>
<text text-anchor="start" x="1475" y="-246.66" font-family="Helvetica,sans-Serif" font-size="10.00" fill="grey">diff_term</text>
<text text-anchor="start" x="1475" y="-231.66" font-family="Helvetica,sans-Serif" font-size="10.00" fill="grey">field</text>
<text text-anchor="start" x="1475" y="-216.66" font-family="Helvetica,sans-Serif" font-size="10.00" fill="grey">mueff</text>
<text text-anchor="start" x="1475" y="-201.66" font-family="Helvetica,sans-Serif" font-size="10.00" fill="grey">src_term</text>
</g>
<!-- Node11 -->
<g id="Node000011" class="node">
<title>Node11</title>
<g id="a_Node000011"><a xlink:title=" ">
<polygon fill="white" stroke="#666666" points="1196,-356.16 1056,-356.16 1056,-326.16 1196,-326.16 1196,-356.16"/>
<text text-anchor="start" x="1064" y="-344.16" font-family="Helvetica,sans-Serif" font-size="10.00">std::shared_ptr&lt; kynema</text>
<text text-anchor="middle" x="1126" y="-333.16" font-family="Helvetica,sans-Serif" font-size="10.00">_sgf::FieldInfo &gt;</text>
</a>
</g>
</g>
<!-- Node11&#45;&gt;Node10 -->
<g id="edge12_Node000010_Node000011" class="edge">
<title>Node11&#45;&gt;Node10</title>
<g id="a_edge12_Node000010_Node000011"><a xlink:title=" ">
<path fill="none" stroke="#9a32cd" stroke-dasharray="5,2" d="M1183.75,-323.04C1220.75,-311.35 1270.13,-296 1314,-283.16 1324.85,-279.98 1336.71,-276.66 1347.48,-273.7"/>
<polygon fill="#9a32cd" stroke="#9a32cd" points="1182.62,-319.72 1174.14,-326.08 1184.73,-326.4 1182.62,-319.72"/>
</a>
</g>
<text text-anchor="start" x="1238" y="-317.66" font-family="Helvetica,sans-Serif" font-size="10.00" fill="grey">m_info</text>
</g>
<!-- Node12&#45;&gt;Node11 -->
<g id="edge13_Node000011_Node000012" class="edge">
<title>Node12&#45;&gt;Node11</title>
<g id="a_edge13_Node000011_Node000012"><a xlink:title=" ">
<path fill="none" stroke="#9a32cd" stroke-dasharray="5,2" d="M877.21,-335.71C930.48,-336.88 1003.14,-338.48 1055.99,-339.64"/>
<polygon fill="#9a32cd" stroke="#9a32cd" points="877.23,-332.21 867.16,-335.49 877.08,-339.21 877.23,-332.21"/>
</a>
</g>
<text text-anchor="start" x="954.5" y="-343.66" font-family="Helvetica,sans-Serif" font-size="10.00" fill="grey">ptr</text>
</g>
<!-- Node13 -->
<g id="Node000013" class="node">
<title>Node13</title>
<g id="a_Node000013"><a xlink:title=" ">
<polygon fill="white" stroke="#666666" points="572,-430.16 412,-430.16 412,-400.16 572,-400.16 572,-430.16"/>
<text text-anchor="start" x="420" y="-418.16" font-family="Helvetica,sans-Serif" font-size="10.00">std::unique_ptr&lt; kynema</text>
<text text-anchor="middle" x="492" y="-407.16" font-family="Helvetica,sans-Serif" font-size="10.00">_sgf::FieldFillPatchOpsBase &gt;</text>
</a>
</g>
</g>
<!-- Node13&#45;&gt;Node12 -->
<g id="edge15_Node000012_Node000013" class="edge">
<title>Node13&#45;&gt;Node12</title>
<g id="a_edge15_Node000012_Node000013"><a xlink:title=" ">
<path fill="none" stroke="#9a32cd" stroke-dasharray="5,2" d="M582.44,-416.77C626.88,-414.9 680.63,-408.51 726,-391.16 754,-380.45 781.01,-357.07 794.88,-343.82"/>
<polygon fill="#9a32cd" stroke="#9a32cd" points="582.1,-413.28 572.23,-417.13 582.35,-420.27 582.1,-413.28"/>
</a>
</g>
<text text-anchor="start" x="622" y="-421.66" font-family="Helvetica,sans-Serif" font-size="10.00" fill="grey">m_fillpatch_op</text>
</g>
<!-- Node14 -->
<g id="Node000014" class="node">
<title>Node14</title>
<g id="a_Node000014"><a xlink:href="classkynema__sgf_1_1_field_fill_patch_ops_base.html" target="_top" xlink:title=" ">
<polygon fill="white" stroke="#666666" points="230,-390.16 85,-390.16 85,-360.16 230,-360.16 230,-390.16"/>
<text text-anchor="start" x="93" y="-378.16" font-family="Helvetica,sans-Serif" font-size="10.00">kynema_sgf::FieldFillPatch</text>
<text text-anchor="middle" x="157.5" y="-367.16" font-family="Helvetica,sans-Serif" font-size="10.00">OpsBase</text>
</a>
</g>
</g>
<!-- Node14&#45;&gt;Node13 -->
<g id="edge16_Node000013_Node000014" class="edge">
<title>Node14&#45;&gt;Node13</title>
<g id="a_edge16_Node000013_Node000014"><a xlink:title=" ">
<path fill="none" stroke="#9a32cd" stroke-dasharray="5,2" d="M240.27,-378.45C285.73,-381.03 343.21,-385.5 394,-393.16 406.04,-394.97 418.8,-397.46 430.98,-400.1"/>
<polygon fill="#9a32cd" stroke="#9a32cd" points="240.35,-374.95 230.18,-377.9 239.97,-381.94 240.35,-374.95"/>
</a>
</g>
<text text-anchor="start" x="314" y="-398.66" font-family="Helvetica,sans-Serif" font-size="10.00" fill="grey">ptr</text>
</g>
<!-- Node15&#45;&gt;Node13 -->
<g id="edge17_Node000013_Node000015" class="edge">
<title>Node15&#45;&gt;Node13</title>
<g id="a_edge17_Node000013_Node000015"><a xlink:title=" ">
<path fill="none" stroke="orange" stroke-dasharray="5,2" d="M227.07,-416.5C234.14,-416.36 241.21,-416.25 248,-416.16 302.73,-415.43 364.41,-415.19 411.93,-415.12"/>
<polygon fill="orange" stroke="orange" points="226.68,-413 216.75,-416.7 226.82,-420 226.68,-413"/>
</a>
</g>
<text text-anchor="start" x="251" y="-437.16" font-family="Helvetica,sans-Serif" font-size="10.00" fill="grey">&lt; kynema_sgf::FieldFillPatch</text>
<text text-anchor="start" x="251" y="-422.16" font-family="Helvetica,sans-Serif" font-size="10.00" fill="grey">  OpsBase &gt;</text>
</g>
<!-- Node17 -->
<g id="Node000017" class="node">
<title>Node17</title>
<g id="a_Node000017"><a xlink:title=" ">
<polygon fill="white" stroke="#666666" points="1704.5,-397.16 1564.5,-397.16 1564.5,-367.16 1704.5,-367.16 1704.5,-397.16"/>
<text text-anchor="start" x="1572.5" y="-385.16" font-family="Helvetica,sans-Serif" font-size="10.00">std::unique_ptr&lt; kynema</text>
<text text-anchor="middle" x="1634.5" y="-374.16" font-family="Helvetica,sans-Serif" font-size="10.00">_sgf::ScratchField &gt;</text>
</a>
</g>
</g>
<!-- Node15&#45;&gt;Node17 -->
<g id="edge26_Node000017_Node000015" class="edge">
<title>Node15&#45;&gt;Node17</title>
<g id="a_edge26_Node000017_Node000015"><a xlink:title=" ">
<path fill="none" stroke="orange" stroke-dasharray="5,2" d="M191.4,-431.53C208.08,-437.69 228.81,-444.46 248,-448.16 354.22,-468.64 382.82,-462.16 491,-462.16 491,-462.16 491,-462.16 1385,-462.16 1468.85,-462.16 1561.28,-420.38 1606.11,-397.2"/>
<polygon fill="orange" stroke="orange" points="192.19,-428.08 181.6,-427.79 189.7,-434.62 192.19,-428.08"/>
</a>
</g>
<text text-anchor="start" x="888.5" y="-467.66" font-family="Helvetica,sans-Serif" font-size="10.00" fill="grey">&lt; kynema_sgf::ScratchField &gt;</text>
</g>
<!-- Node16&#45;&gt;Node11 -->
<g id="edge19_Node000011_Node000016" class="edge">
<title>Node16&#45;&gt;Node11</title>
<g id="a_edge19_Node000011_Node000016"><a xlink:title=" ">
<path fill="none" stroke="orange" stroke-dasharray="5,2" d="M390.18,-340.87C444.34,-343.72 522,-347.59 590,-350.16 721.07,-355.11 753.85,-356.38 885,-358.16 952.99,-359.08 970.32,-364.71 1038,-358.16 1043.82,-357.59 1049.83,-356.82 1055.85,-355.92"/>
<polygon fill="orange" stroke="orange" points="390.18,-337.36 380.01,-340.33 389.82,-344.35 390.18,-337.36"/>
</a>
</g>
<text text-anchor="start" x="593" y="-359.66" font-family="Helvetica,sans-Serif" font-size="10.00" fill="grey">&lt; kynema_sgf::FieldInfo &gt;</text>
</g>
<!-- Node17&#45;&gt;Node1 -->
<g id="edge22_Node000001_Node000017" class="edge">
<title>Node17&#45;&gt;Node1</title>
<g id="a_edge22_Node000001_Node000017"><a xlink:title=" ">
<path fill="none" stroke="#9a32cd" stroke-dasharray="5,2" d="M1714.59,-369.5C1771.39,-357.91 1848.17,-336.96 1908,-301.16 1947.75,-277.38 1983.82,-237.7 2006.26,-209.85"/>
<polygon fill="#9a32cd" stroke="#9a32cd" points="1713.71,-366.11 1704.58,-371.49 1715.07,-372.98 1713.71,-366.11"/>
</a>
</g>
<text text-anchor="start" x="1799.5" y="-443.16" font-family="Helvetica,sans-Serif" font-size="10.00" fill="grey">m_face_x</text>
<text text-anchor="start" x="1799.5" y="-428.16" font-family="Helvetica,sans-Serif" font-size="10.00" fill="grey">m_face_y</text>
<text text-anchor="start" x="1799.5" y="-413.16" font-family="Helvetica,sans-Serif" font-size="10.00" fill="grey">m_face_z</text>
<text text-anchor="start" x="1799.5" y="-398.16" font-family="Helvetica,sans-Serif" font-size="10.00" fill="grey">m_flux_x</text>
<text text-anchor="start" x="1799.5" y="-383.16" font-family="Helvetica,sans-Serif" font-size="10.00" fill="grey">m_flux_y</text>
<text text-anchor="start" x="1799.5" y="-368.16" font-family="Helvetica,sans-Serif" font-size="10.00" fill="grey">m_flux_z</text>
</g>
<!-- Node18&#45;&gt;Node17 -->
<g id="edge23_Node000017_Node000018" class="edge">
<title>Node18&#45;&gt;Node17</title>
<g id="a_edge23_Node000017_Node000018"><a xlink:title=" ">
<path fill="none" stroke="#9a32cd" stroke-dasharray="5,2" d="M1424.01,-313.87C1468.19,-328.27 1540.14,-351.73 1587.15,-367.05"/>
<polygon fill="#9a32cd" stroke="#9a32cd" points="1425.07,-310.54 1414.48,-310.77 1422.91,-317.19 1425.07,-310.54"/>
</a>
</g>
<text text-anchor="start" x="1494" y="-351.66" font-family="Helvetica,sans-Serif" font-size="10.00" fill="grey">ptr</text>
</g>
<!-- Node19 -->
<g id="Node000019" class="node">
<title>Node19</title>
<g id="a_Node000019"><a xlink:href="structkynema__sgf_1_1pde_1_1_advection_op.html" target="_top" xlink:title=" ">
<polygon fill="white" stroke="#666666" points="1721,-38.16 1548,-38.16 1548,-8.16 1721,-8.16 1721,-38.16"/>
<text text-anchor="start" x="1556" y="-26.16" font-family="Helvetica,sans-Serif" font-size="10.00">kynema_sgf::pde::Advection</text>
<text text-anchor="middle" x="1634.5" y="-15.16" font-family="Helvetica,sans-Serif" font-size="10.00">Op&lt; PDE, Scheme, typename &gt;</text>
</a>
</g>
</g>
<!-- Node19&#45;&gt;Node1 -->
<g id="edge28_Node000001_Node000019" class="edge">
<title>Node19&#45;&gt;Node1</title>
<g id="a_edge28_Node000001_Node000019"><a xlink:title=" ">
<path fill="none" stroke="orange" stroke-dasharray="5,2" d="M1710.75,-6.53C1767.8,2.19 1846.58,5.68 1908,-24.16 1960.31,-49.57 1997.06,-109.44 2015.77,-146.6"/>
<polygon fill="orange" stroke="orange" points="1710.04,-3.1 1700.72,-8.15 1711.15,-10.01 1710.04,-3.1"/>
</a>
</g>
<text text-anchor="start" x="1742.5" y="-75.16" font-family="Helvetica,sans-Serif" font-size="10.00" fill="grey">&lt; PDE, fvm::Godunov,</text>
<text text-anchor="start" x="1742.5" y="-60.16" font-family="Helvetica,sans-Serif" font-size="10.00" fill="grey">   typename std::enable</text>
<text text-anchor="start" x="1742.5" y="-45.16" font-family="Helvetica,sans-Serif" font-size="10.00" fill="grey">  _if_t&lt; std::is_base_of</text>
<text text-anchor="start" x="1742.5" y="-30.16" font-family="Helvetica,sans-Serif" font-size="10.00" fill="grey">  _v&lt; ScalarTransport, PDE &gt; &gt; &gt;</text>
</g>
</g>
</svg>
