<?xml version="1.0" encoding="UTF-8" standalone="no"?>
<!DOCTYPE svg PUBLIC "-//W3C//DTD SVG 1.1//EN"
 "http://www.w3.org/Graphics/SVG/1.1/DTD/svg11.dtd">
<!-- Generated by graphviz version 2.43.0 (0)
 -->
<!-- Title: kynema_sgf::actuator::TurbineExternalData&lt; SolverTurbine, SolverData &gt; Pages: 1 -->
<!--zoomable 314 -->

<svg id="main" version="1.1" xmlns="http://www.w3.org/2000/svg" xmlns:xlink="http://www.w3.org/1999/xlink" xml:space="preserve" onload="init(evt)">

<style type="text/css"><![CDATA[
.node, .edge {opacity: 0.7;}
.node.selected, .edge.selected {opacity: 1;}
.edge:hover path { stroke: red; }
.edge:hover polygon { stroke: red; fill: red; }
]]></style>

<defs>
  <circle id="rim" cx="0" cy="0" r="7"/>
  <circle id="rim2" cx="0" cy="0" r="3.5"/>
  <g id="zoomPlus">
    <use xlink:href="#rim" fill="#404040"><set attributeName="fill" to="#808080" begin="zoomplus.mouseover" end="zoomplus.mouseout"/></use>
    <path d="M-4,0h8M0,-4v8" fill="none" stroke="white" stroke-width="1.5" pointer-events="none"/>
  </g>
  <g id="zoomMin">
    <use xlink:href="#rim" fill="#404040"><set attributeName="fill" to="#808080" begin="zoomminus.mouseover" end="zoomminus.mouseout"/></use>
    <path d="M-4,0h8" fill="none" stroke="white" stroke-width="1.5" pointer-events="none"/>
  </g>
  <g id="arrowUp" transform="translate(30 24)">
    <use xlink:href="#rim"/>
    <path pointer-events="none" fill="none" stroke="white" stroke-width="1.5" d="M0,-3.0v7 M-2.5,-0.5L0,-3.0L2.5,-0.5"/>
  </g>
  <g id="arrowRight" transform="rotate(90) translate(36 -43)">
    <use xlink:href="#rim"/>
    <path pointer-events="none" fill="none" stroke="white" stroke-width="1.5" d="M0,-3.0v7 M-2.5,-0.5L0,-3.0L2.5,-0.5"/>
  </g>
  <g id="arrowDown" transform="rotate(180) translate(-30 -48)">
    <use xlink:href="#rim"/>
    <path pointer-events="none" fill="none" stroke="white" stroke-width="1.5" d="M0,-3.0v7 M-2.5,-0.5L0,-3.0L2.5,-0.5"/>
  </g>
  <g id="arrowLeft" transform="rotate(270) translate(-36 17)">
    <use xlink:href="#rim"/>
    <path pointer-events="none" fill="none" stroke="white" stroke-width="1.5" d="M0,-3.0v7 M-2.5,-0.5L0,-3.0L2.5,-0.5"/>
  </g>
  <g id="resetDef">
    <use xlink:href="#rim2" fill="#404040"><set attributeName="fill" to="#808080" begin="reset.mouseover" end="reset.mouseout"/></use>
  </g>
</defs>
<script type="application/ecmascript">
var viewWidth = 1408;
var viewHeight = 314;
var sectionId = 'dynsection-1';
</script>
<script type="application/ecmascript" xlink:href="svg.min.js"/>
<svg id="graph" class="graph">
<g id="viewport">
<title>kynema_sgf::actuator::TurbineExternalData&lt; SolverTurbine, SolverData &gt;</title>
<!-- Node1 -->
<g id="Node000001" class="node">
<title>Node1</title>
<g id="a_Node000001"><a xlink:title=" ">
<polygon fill="#999999" stroke="#666666" points="1400,-200.5 1235,-200.5 1235,-159.5 1400,-159.5 1400,-200.5"/>
<text text-anchor="start" x="1243" y="-188.5" font-family="Helvetica,sans-Serif" font-size="10.00">kynema_sgf::actuator</text>
<text text-anchor="start" x="1243" y="-177.5" font-family="Helvetica,sans-Serif" font-size="10.00">::TurbineExternalData</text>
<text text-anchor="middle" x="1317.5" y="-166.5" font-family="Helvetica,sans-Serif" font-size="10.00">&lt; SolverTurbine, SolverData &gt;</text>
</a>
</g>
</g>
<!-- Node2 -->
<g id="Node000002" class="node">
<title>Node2</title>
<g id="a_Node000002"><a xlink:href="structkynema__sgf_1_1actuator_1_1_turbine_base_data.html" target="_top" xlink:title=" ">
<polygon fill="white" stroke="#666666" points="1198,-195 1076,-195 1076,-165 1198,-165 1198,-195"/>
<text text-anchor="start" x="1084" y="-183" font-family="Helvetica,sans-Serif" font-size="10.00">kynema_sgf::actuator</text>
<text text-anchor="middle" x="1137" y="-172" font-family="Helvetica,sans-Serif" font-size="10.00">::TurbineBaseData</text>
</a>
</g>
</g>
<!-- Node2&#45;&gt;Node1 -->
<g id="edge1_Node000001_Node000002" class="edge">
<title>Node2&#45;&gt;Node1</title>
<g id="a_edge1_Node000001_Node000002"><a xlink:title=" ">
<path fill="none" stroke="#63b8ff" d="M1208.49,-180C1217.17,-180 1226.1,-180 1234.92,-180"/>
<polygon fill="#63b8ff" stroke="#63b8ff" points="1208.43,-176.5 1198.43,-180 1208.43,-183.5 1208.43,-176.5"/>
</a>
</g>
</g>
<!-- Node3 -->
<g id="Node000003" class="node">
<title>Node3</title>
<g id="a_Node000003"><a xlink:title=" ">
<polygon fill="white" stroke="#666666" points="912.5,-266.5 847.5,-266.5 847.5,-247.5 912.5,-247.5 912.5,-266.5"/>
<text text-anchor="middle" x="880" y="-254.5" font-family="Helvetica,sans-Serif" font-size="10.00">std::string</text>
</a>
</g>
</g>
<!-- Node3&#45;&gt;Node2 -->
<g id="edge2_Node000002_Node000003" class="edge">
<title>Node3&#45;&gt;Node2</title>
<g id="a_edge2_Node000002_Node000003"><a xlink:title=" ">
<path fill="none" stroke="#9a32cd" stroke-dasharray="5,2" d="M922.85,-247.67C958.98,-239.25 1012.41,-225.92 1058,-211 1072.13,-206.38 1087.38,-200.52 1100.62,-195.14"/>
<polygon fill="#9a32cd" stroke="#9a32cd" points="921.63,-244.36 912.67,-250.02 923.21,-251.18 921.63,-244.36"/>
</a>
</g>
<text text-anchor="start" x="991" y="-235.5" font-family="Helvetica,sans-Serif" font-size="10.00" fill="grey">solver_name</text>
</g>
<!-- Node4 -->
<g id="Node000004" class="node">
<title>Node4</title>
<g id="a_Node000004"><a xlink:title=" ">
<polygon fill="white" stroke="#666666" points="622,-272 518,-272 518,-242 622,-242 622,-272"/>
<text text-anchor="start" x="526" y="-260" font-family="Helvetica,sans-Serif" font-size="10.00">std::basic_string&lt;</text>
<text text-anchor="middle" x="570" y="-249" font-family="Helvetica,sans-Serif" font-size="10.00"> Char &gt;</text>
</a>
</g>
</g>
<!-- Node4&#45;&gt;Node3 -->
<g id="edge3_Node000003_Node000004" class="edge">
<title>Node4&#45;&gt;Node3</title>
<g id="a_edge3_Node000003_Node000004"><a xlink:title=" ">
<path fill="none" stroke="#63b8ff" d="M632.3,-257C697.17,-257 796.99,-257 847.46,-257"/>
<polygon fill="#63b8ff" stroke="#63b8ff" points="632.21,-253.5 622.21,-257 632.21,-260.5 632.21,-253.5"/>
</a>
</g>
</g>
<!-- Node5 -->
<g id="Node000005" class="node">
<title>Node5</title>
<g id="a_Node000005"><a xlink:title=" ">
<polygon fill="white" stroke="#666666" points="970,-161 790,-161 790,-131 970,-131 970,-161"/>
<text text-anchor="start" x="798" y="-149" font-family="Helvetica,sans-Serif" font-size="10.00">std::vector&lt; kynema</text>
<text text-anchor="middle" x="880" y="-138" font-family="Helvetica,sans-Serif" font-size="10.00">_sgf::actuator::ComponentView &gt;</text>
</a>
</g>
</g>
<!-- Node5&#45;&gt;Node2 -->
<g id="edge4_Node000002_Node000005" class="edge">
<title>Node5&#45;&gt;Node2</title>
<g id="a_edge4_Node000002_Node000005"><a xlink:title=" ">
<path fill="none" stroke="#9a32cd" stroke-dasharray="5,2" d="M980.28,-156.07C1005.66,-158.96 1032.88,-162.33 1058,-166 1063.72,-166.84 1069.66,-167.77 1075.6,-168.76"/>
<polygon fill="#9a32cd" stroke="#9a32cd" points="980.61,-152.58 970.28,-154.94 979.83,-159.54 980.61,-152.58"/>
</a>
</g>
<text text-anchor="start" x="1007" y="-171.5" font-family="Helvetica,sans-Serif" font-size="10.00" fill="grey">blades</text>
</g>
<!-- Node6 -->
<g id="Node000006" class="node">
<title>Node6</title>
<g id="a_Node000006"><a xlink:href="structkynema__sgf_1_1actuator_1_1_component_view.html" target="_top" xlink:title=" ">
<polygon fill="white" stroke="#666666" points="631,-196 509,-196 509,-166 631,-166 631,-196"/>
<text text-anchor="start" x="517" y="-184" font-family="Helvetica,sans-Serif" font-size="10.00">kynema_sgf::actuator</text>
<text text-anchor="middle" x="570" y="-173" font-family="Helvetica,sans-Serif" font-size="10.00">::ComponentView</text>
</a>
</g>
</g>
<!-- Node6&#45;&gt;Node2 -->
<g id="edge17_Node000002_Node000006" class="edge">
<title>Node6&#45;&gt;Node2</title>
<g id="a_edge17_Node000002_Node000006"><a xlink:title=" ">
<path fill="none" stroke="#9a32cd" stroke-dasharray="5,2" d="M641.24,-182.89C643.86,-182.93 646.45,-182.97 649,-183 830.76,-185.33 876.26,-186.49 1058,-183 1063.83,-182.89 1069.9,-182.73 1075.96,-182.54"/>
<polygon fill="#9a32cd" stroke="#9a32cd" points="641.1,-179.38 631.04,-182.69 640.97,-186.38 641.1,-179.38"/>
</a>
</g>
<text text-anchor="start" x="866" y="-206" font-family="Helvetica,sans-Serif" font-size="10.00" fill="grey">hub</text>
<text text-anchor="start" x="866" y="-191" font-family="Helvetica,sans-Serif" font-size="10.00" fill="grey">tower</text>
</g>
<!-- Node6&#45;&gt;Node5 -->
<g id="edge5_Node000005_Node000006" class="edge">
<title>Node6&#45;&gt;Node5</title>
<g id="a_edge5_Node000005_Node000006"><a xlink:title=" ">
<path fill="none" stroke="#9a32cd" stroke-dasharray="5,2" d="M641.37,-167.12C643.94,-166.73 646.49,-166.35 649,-166 695.25,-159.56 747.04,-154.84 789.74,-151.61"/>
<polygon fill="#9a32cd" stroke="#9a32cd" points="640.67,-163.69 631.36,-168.75 641.8,-170.6 640.67,-163.69"/>
</a>
</g>
<text text-anchor="start" x="687.5" y="-171.5" font-family="Helvetica,sans-Serif" font-size="10.00" fill="grey">elements</text>
</g>
<!-- Node7 -->
<g id="Node000007" class="node">
<title>Node7</title>
<g id="a_Node000007"><a xlink:href="structkynema__sgf_1_1utils_1_1_slice.html" target="_top" xlink:title=" ">
<polygon fill="white" stroke="#666666" points="413,-220.5 286,-220.5 286,-179.5 413,-179.5 413,-220.5"/>
<text text-anchor="start" x="294" y="-208.5" font-family="Helvetica,sans-Serif" font-size="10.00">kynema_sgf::utils::</text>
<text text-anchor="start" x="294" y="-197.5" font-family="Helvetica,sans-Serif" font-size="10.00">Slice&lt; kynema_sgf::vs</text>
<text text-anchor="middle" x="349.5" y="-186.5" font-family="Helvetica,sans-Serif" font-size="10.00">::Vector &gt;</text>
</a>
</g>
</g>
<!-- Node7&#45;&gt;Node6 -->
<g id="edge6_Node000006_Node000007" class="edge">
<title>Node7&#45;&gt;Node6</title>
<g id="a_edge6_Node000006_Node000007"><a xlink:title=" ">
<path fill="none" stroke="#9a32cd" stroke-dasharray="5,2" d="M423.25,-183.01C425.86,-182.63 428.45,-182.29 431,-182 456.35,-179.11 484.49,-178.45 508.72,-178.67"/>
<polygon fill="#9a32cd" stroke="#9a32cd" points="422.44,-179.59 413.12,-184.65 423.55,-186.5 422.44,-179.59"/>
</a>
</g>
<text text-anchor="start" x="442" y="-263" font-family="Helvetica,sans-Serif" font-size="10.00" fill="grey">epsilon</text>
<text text-anchor="start" x="442" y="-248" font-family="Helvetica,sans-Serif" font-size="10.00" fill="grey">force</text>
<text text-anchor="start" x="442" y="-233" font-family="Helvetica,sans-Serif" font-size="10.00" fill="grey">pos</text>
<text text-anchor="start" x="442" y="-218" font-family="Helvetica,sans-Serif" font-size="10.00" fill="grey">vel</text>
<text text-anchor="start" x="442" y="-203" font-family="Helvetica,sans-Serif" font-size="10.00" fill="grey">vel_pos</text>
<text text-anchor="start" x="442" y="-188" font-family="Helvetica,sans-Serif" font-size="10.00" fill="grey">vel_rel</text>
</g>
<!-- Node8 -->
<g id="Node000008" class="node">
<title>Node8</title>
<g id="a_Node000008"><a xlink:href="structkynema__sgf_1_1utils_1_1_slice.html" target="_top" xlink:title=" ">
<polygon fill="white" stroke="#666666" points="108,-215 0,-215 0,-185 108,-185 108,-215"/>
<text text-anchor="start" x="8" y="-203" font-family="Helvetica,sans-Serif" font-size="10.00">kynema_sgf::utils::</text>
<text text-anchor="middle" x="54" y="-192" font-family="Helvetica,sans-Serif" font-size="10.00">Slice&lt; T &gt;</text>
</a>
</g>
</g>
<!-- Node8&#45;&gt;Node7 -->
<g id="edge7_Node000007_Node000008" class="edge">
<title>Node8&#45;&gt;Node7</title>
<g id="a_edge7_Node000007_Node000008"><a xlink:title=" ">
<path fill="none" stroke="orange" stroke-dasharray="5,2" d="M118.42,-200C167.96,-200 236.45,-200 285.81,-200"/>
<polygon fill="orange" stroke="orange" points="118.15,-196.5 108.15,-200 118.15,-203.5 118.15,-196.5"/>
</a>
</g>
<text text-anchor="start" x="129" y="-205.5" font-family="Helvetica,sans-Serif" font-size="10.00" fill="grey">&lt; kynema_sgf::vs::Vector &gt;</text>
</g>
<!-- Node9 -->
<g id="Node000009" class="node">
<title>Node9</title>
<g id="a_Node000009"><a xlink:href="structkynema__sgf_1_1utils_1_1_slice.html" target="_top" xlink:title=" ">
<polygon fill="white" stroke="#666666" points="413,-161.5 286,-161.5 286,-120.5 413,-120.5 413,-161.5"/>
<text text-anchor="start" x="294" y="-149.5" font-family="Helvetica,sans-Serif" font-size="10.00">kynema_sgf::utils::</text>
<text text-anchor="start" x="294" y="-138.5" font-family="Helvetica,sans-Serif" font-size="10.00">Slice&lt; kynema_sgf::vs</text>
<text text-anchor="middle" x="349.5" y="-127.5" font-family="Helvetica,sans-Serif" font-size="10.00">::Tensor &gt;</text>
</a>
</g>
</g>
<!-- Node8&#45;&gt;Node9 -->
<g id="edge9_Node000009_Node000008" class="edge">
<title>Node8&#45;&gt;Node9</title>
<g id="a_edge9_Node000009_Node000008"><a xlink:title=" ">
<path fill="none" stroke="orange" stroke-dasharray="5,2" d="M112.71,-182.32C117.19,-181.13 121.66,-180.01 126,-179 179.44,-166.58 240.97,-156.38 285.77,-149.69"/>
<polygon fill="orange" stroke="orange" points="111.64,-178.98 102.92,-184.99 113.49,-185.73 111.64,-178.98"/>
</a>
</g>
<text text-anchor="start" x="129" y="-184.5" font-family="Helvetica,sans-Serif" font-size="10.00" fill="grey">&lt; kynema_sgf::vs::Tensor &gt;</text>
</g>
<!-- Node10 -->
<g id="Node000010" class="node">
<title>Node10</title>
<g id="a_Node000010"><a xlink:href="structkynema__sgf_1_1utils_1_1_slice.html" target="_top" xlink:title=" ">
<polygon fill="white" stroke="#666666" points="410.5,-290 288.5,-290 288.5,-260 410.5,-260 410.5,-290"/>
<text text-anchor="start" x="296.5" y="-278" font-family="Helvetica,sans-Serif" font-size="10.00">kynema_sgf::utils::</text>
<text text-anchor="middle" x="349.5" y="-267" font-family="Helvetica,sans-Serif" font-size="10.00">Slice&lt; amrex::Real &gt;</text>
</a>
</g>
</g>
<!-- Node8&#45;&gt;Node10 -->
<g id="edge11_Node000010_Node000008" class="edge">
<title>Node8&#45;&gt;Node10</title>
<g id="a_edge11_Node000010_Node000008"><a xlink:title=" ">
<path fill="none" stroke="orange" stroke-dasharray="5,2" d="M114.36,-217.79C118.29,-218.9 122.2,-219.98 126,-221 180.7,-235.72 243.44,-250.78 288.33,-261.25"/>
<polygon fill="orange" stroke="orange" points="115.14,-214.38 104.57,-215 113.22,-221.11 115.14,-214.38"/>
</a>
</g>
<text text-anchor="start" x="156" y="-260.5" font-family="Helvetica,sans-Serif" font-size="10.00" fill="grey">&lt; amrex::Real &gt;</text>
</g>
<!-- Node9&#45;&gt;Node6 -->
<g id="edge8_Node000006_Node000009" class="edge">
<title>Node9&#45;&gt;Node6</title>
<g id="a_edge8_Node000006_Node000009"><a xlink:title=" ">
<path fill="none" stroke="#9a32cd" stroke-dasharray="5,2" d="M423.37,-146.71C445.24,-149.12 469.22,-152.45 491,-157 502.23,-159.35 514.17,-162.61 525.23,-165.98"/>
<polygon fill="#9a32cd" stroke="#9a32cd" points="423.46,-143.2 413.14,-145.63 422.72,-150.16 423.46,-143.2"/>
</a>
</g>
<text text-anchor="start" x="434" y="-162.5" font-family="Helvetica,sans-Serif" font-size="10.00" fill="grey">orientation</text>
</g>
<!-- Node10&#45;&gt;Node6 -->
<g id="edge10_Node000006_Node000010" class="edge">
<title>Node10&#45;&gt;Node6</title>
<g id="a_edge10_Node000006_Node000010"><a xlink:title=" ">
<path fill="none" stroke="#9a32cd" stroke-dasharray="5,2" d="M420.91,-289.29C444.86,-290.48 470.68,-287.38 491,-274 507.62,-263.06 497.19,-249.02 509,-233 519.55,-218.69 534.7,-205.59 547.14,-196.13"/>
<polygon fill="#9a32cd" stroke="#9a32cd" points="421.02,-285.79 410.79,-288.53 420.5,-292.77 421.02,-285.79"/>
</a>
</g>
<text text-anchor="start" x="447" y="-294.5" font-family="Helvetica,sans-Serif" font-size="10.00" fill="grey">chord</text>
</g>
<!-- Node11 -->
<g id="Node000011" class="node">
<title>Node11</title>
<g id="a_Node000011"><a xlink:title=" ">
<polygon fill="white" stroke="#666666" points="618.5,-76.5 521.5,-76.5 521.5,-57.5 618.5,-57.5 618.5,-76.5"/>
<text text-anchor="middle" x="570" y="-64.5" font-family="Helvetica,sans-Serif" font-size="10.00">std::vector&lt; T &gt;</text>
</a>
</g>
</g>
<!-- Node11&#45;&gt;Node5 -->
<g id="edge12_Node000005_Node000011" class="edge">
<title>Node11&#45;&gt;Node5</title>
<g id="a_edge12_Node000005_Node000011"><a xlink:title=" ">
<path fill="none" stroke="orange" stroke-dasharray="5,2" d="M615.32,-79.19C626.31,-82.14 638.07,-85.24 649,-88 703.46,-101.75 717.55,-103.21 772,-117 789.26,-121.37 808.01,-126.37 824.93,-130.97"/>
<polygon fill="orange" stroke="orange" points="616.06,-75.77 605.5,-76.54 614.24,-82.52 616.06,-75.77"/>
</a>
</g>
<text text-anchor="start" x="652.5" y="-138" font-family="Helvetica,sans-Serif" font-size="10.00" fill="grey">&lt; kynema_sgf::actuator</text>
<text text-anchor="start" x="652.5" y="-123" font-family="Helvetica,sans-Serif" font-size="10.00" fill="grey">  ::ComponentView &gt;</text>
</g>
<!-- Node13 -->
<g id="Node000013" class="node">
<title>Node13</title>
<g id="a_Node000013"><a xlink:title=" ">
<polygon fill="white" stroke="#666666" points="953,-70 807,-70 807,-40 953,-40 953,-70"/>
<text text-anchor="start" x="815" y="-58" font-family="Helvetica,sans-Serif" font-size="10.00">std::vector&lt; kynema</text>
<text text-anchor="middle" x="880" y="-47" font-family="Helvetica,sans-Serif" font-size="10.00">_sgf::actuator::FLLCData &gt;</text>
</a>
</g>
</g>
<!-- Node11&#45;&gt;Node13 -->
<g id="edge16_Node000013_Node000011" class="edge">
<title>Node11&#45;&gt;Node13</title>
<g id="a_edge16_Node000013_Node000011"><a xlink:title=" ">
<path fill="none" stroke="orange" stroke-dasharray="5,2" d="M628.68,-57.97C635.51,-57.17 642.4,-56.48 649,-56 701.77,-52.18 761.53,-52.05 806.91,-52.81"/>
<polygon fill="orange" stroke="orange" points="628.23,-54.5 618.74,-59.22 629.1,-61.45 628.23,-54.5"/>
</a>
</g>
<text text-anchor="start" x="652.5" y="-77" font-family="Helvetica,sans-Serif" font-size="10.00" fill="grey">&lt; kynema_sgf::actuator</text>
<text text-anchor="start" x="652.5" y="-62" font-family="Helvetica,sans-Serif" font-size="10.00" fill="grey">  ::FLLCData &gt;</text>
</g>
<!-- Node12 -->
<g id="Node000012" class="node">
<title>Node12</title>
<g id="a_Node000012"><a xlink:title=" ">
<polygon fill="white" stroke="#666666" points="364,-76.5 335,-76.5 335,-57.5 364,-57.5 364,-76.5"/>
<text text-anchor="middle" x="349.5" y="-64.5" font-family="Helvetica,sans-Serif" font-size="10.00">T</text>
</a>
</g>
</g>
<!-- Node12&#45;&gt;Node11 -->
<g id="edge13_Node000011_Node000012" class="edge">
<title>Node12&#45;&gt;Node11</title>
<g id="a_edge13_Node000011_Node000012"><a xlink:title=" ">
<path fill="none" stroke="#9a32cd" stroke-dasharray="5,2" d="M374.43,-67C409.63,-67 476.09,-67 521.44,-67"/>
<polygon fill="#9a32cd" stroke="#9a32cd" points="374.17,-63.5 364.17,-67 374.17,-70.5 374.17,-63.5"/>
</a>
</g>
<text text-anchor="start" x="438" y="-72.5" font-family="Helvetica,sans-Serif" font-size="10.00" fill="grey">elements</text>
</g>
<!-- Node13&#45;&gt;Node2 -->
<g id="edge14_Node000002_Node000013" class="edge">
<title>Node13&#45;&gt;Node2</title>
<g id="a_edge14_Node000002_Node000013"><a xlink:title=" ">
<path fill="none" stroke="#9a32cd" stroke-dasharray="5,2" d="M925.62,-74.17C961.71,-89.97 1013.64,-113.39 1058,-136 1075.87,-145.11 1095.54,-156.21 1110.65,-164.98"/>
<polygon fill="#9a32cd" stroke="#9a32cd" points="926.91,-70.91 916.34,-70.12 924.11,-77.33 926.91,-70.91"/>
</a>
</g>
<text text-anchor="start" x="1016" y="-141.5" font-family="Helvetica,sans-Serif" font-size="10.00" fill="grey">fllc</text>
</g>
<!-- Node14 -->
<g id="Node000014" class="node">
<title>Node14</title>
<g id="a_Node000014"><a xlink:href="structkynema__sgf_1_1actuator_1_1_f_l_l_c_data.html" target="_top" xlink:title=" ">
<polygon fill="white" stroke="#666666" points="631,-30 509,-30 509,0 631,0 631,-30"/>
<text text-anchor="start" x="517" y="-18" font-family="Helvetica,sans-Serif" font-size="10.00">kynema_sgf::actuator</text>
<text text-anchor="middle" x="570" y="-7" font-family="Helvetica,sans-Serif" font-size="10.00">::FLLCData</text>
</a>
</g>
</g>
<!-- Node14&#45;&gt;Node13 -->
<g id="edge15_Node000013_Node000014" class="edge">
<title>Node14&#45;&gt;Node13</title>
<g id="a_edge15_Node000013_Node000014"><a xlink:title=" ">
<path fill="none" stroke="#9a32cd" stroke-dasharray="5,2" d="M641.17,-18.74C679.89,-21.35 728.76,-25.55 772,-32 786.19,-34.12 801.31,-36.98 815.59,-39.98"/>
<polygon fill="#9a32cd" stroke="#9a32cd" points="641.25,-15.23 631.04,-18.07 640.79,-22.22 641.25,-15.23"/>
</a>
</g>
<text text-anchor="start" x="687.5" y="-37.5" font-family="Helvetica,sans-Serif" font-size="10.00" fill="grey">elements</text>
</g>
</g>
</svg>

<g id="navigator" transform="translate(0 0)" fill="#404254">
  <rect fill="#f2f5e9" fill-opacity="0.5" stroke="#606060" stroke-width=".5" x="0" y="0" width="60" height="60"/>
  <use id="zoomplus" xlink:href="#zoomPlus" x="17" y="9" onmousedown="handleZoom(evt,'in')"/>
  <use id="zoomminus" xlink:href="#zoomMin" x="42" y="9" onmousedown="handleZoom(evt,'out')"/>
  <use id="reset" xlink:href="#resetDef" x="30" y="36" onmousedown="handleReset()"/>
   <use id="arrowup" xlink:href="#arrowUp" x="0" y="0" onmousedown="handlePan(0,-1)"/>
  <use id="arrowright" xlink:href="#arrowRight" x="0" y="0" onmousedown="handlePan(1,0)"/>
  <use id="arrowdown" xlink:href="#arrowDown" x="0" y="0" onmousedown="handlePan(0,1)"/>
  <use id="arrowleft" xlink:href="#arrowLeft" x="0" y="0" onmousedown="handlePan(-1,0)"/>
</g>
<svg viewBox="0 0 15 15" width="100%" height="30px" preserveAspectRatio="xMaxYMin meet">
 <g id="arrow_out" transform="scale(0.3 0.3)">
  <a xlink:href="structkynema__sgf_1_1actuator_1_1_turbine_external_data__coll__graph_org.svg" target="_base">
   <rect id="button" ry="5" rx="5" y="6" x="6" height="38" width="38"
        fill="#f2f5e9" fill-opacity="0.5" stroke="#606060" stroke-width="1.0"/>
   <path id="arrow"
     d="M 11.500037,31.436501 C 11.940474,20.09759 22.043105,11.32322 32.158766,21.979434 L 37.068811,17.246167 C 37.068811,17.246167 37.088388,32 37.088388,32 L 22.160133,31.978069 C 22.160133,31.978069 26.997745,27.140456 26.997745,27.140456 C 18.528582,18.264221 13.291696,25.230495 11.500037,31.436501 z"
     style="fill:#404040;"/>
  </a>
 </g>
</svg>

<style type='text/css'>
<![CDATA[
[data-mouse-over-selected='false'] { opacity: 0.7; }
[data-mouse-over-selected='true']  { opacity: 1.0; }
]]>
</style>
<script type="application/ecmascript"><![CDATA[
document.addEventListener('DOMContentLoaded', (event) => {
  highlightEdges();
  highlightAdjacentNodes();
});
]]></script>
</svg>
