<?xml version="1.0" encoding="UTF-8" standalone="no"?>
<!DOCTYPE svg PUBLIC "-//W3C//DTD SVG 1.1//EN"
 "http://www.w3.org/Graphics/SVG/1.1/DTD/svg11.dtd">
<!-- Generated by graphviz version 2.43.0 (0)
 -->
<!-- Title: kynema_sgf::pde::DiffusionOp&lt; PDE, Scheme, std::enable_if_t&lt; std::is_base_of_v&lt; ScalarTransport, PDE &gt; &gt; &gt; Pages: 1 -->
<svg width="893pt" height="117pt"
 viewBox="0.00 0.00 893.00 117.00" xmlns="http://www.w3.org/2000/svg" xmlns:xlink="http://www.w3.org/1999/xlink">
<g id="graph0" class="graph" transform="scale(1 1) rotate(0) translate(4 113)">
<title>kynema_sgf::pde::DiffusionOp&lt; PDE, Scheme, std::enable_if_t&lt; std::is_base_of_v&lt; ScalarTransport, PDE &gt; &gt; &gt;</title>
<!-- Node1 -->
<g id="Node000001" class="node">
<title>Node1</title>
<g id="a_Node000001"><a xlink:title=" ">
<polygon fill="#999999" stroke="#666666" points="885,-79 663,-79 663,-27 885,-27 885,-79"/>
<text text-anchor="start" x="671" y="-67" font-family="Helvetica,sans-Serif" font-size="10.00">kynema_sgf::pde::Diffusion</text>
<text text-anchor="start" x="671" y="-56" font-family="Helvetica,sans-Serif" font-size="10.00">Op&lt; PDE, Scheme, std::enable</text>
<text text-anchor="start" x="671" y="-45" font-family="Helvetica,sans-Serif" font-size="10.00">_if_t&lt; std::is_base_of_v&lt; ScalarTransport,</text>
<text text-anchor="middle" x="774" y="-34" font-family="Helvetica,sans-Serif" font-size="10.00"> PDE &gt; &gt; &gt;</text>
</a>
</g>
</g>
<!-- Node2 -->
<g id="Node000002" class="node">
<title>Node2</title>
<g id="a_Node000002"><a xlink:href="classkynema__sgf_1_1pde_1_1_diff_solver_iface.html" target="_top" xlink:title=" ">
<polygon fill="white" stroke="#666666" points="452,-107 299,-107 299,-77 452,-77 452,-107"/>
<text text-anchor="start" x="307" y="-95" font-family="Helvetica,sans-Serif" font-size="10.00">kynema_sgf::pde::DiffSolver</text>
<text text-anchor="middle" x="375.5" y="-84" font-family="Helvetica,sans-Serif" font-size="10.00">Iface&lt; PDE::MLDiffOp &gt;</text>
</a>
</g>
</g>
<!-- Node2&#45;&gt;Node1 -->
<g id="edge1_Node000001_Node000002" class="edge">
<title>Node2&#45;&gt;Node1</title>
<g id="a_edge1_Node000001_Node000002"><a xlink:title=" ">
<path fill="none" stroke="#63b8ff" d="M462.27,-90.6C515.12,-88.98 584.18,-85.49 645,-78 650.84,-77.28 656.82,-76.45 662.84,-75.54"/>
<polygon fill="#63b8ff" stroke="#63b8ff" points="462.16,-87.1 452.26,-90.89 462.36,-94.1 462.16,-87.1"/>
</a>
</g>
</g>
<!-- Node3 -->
<g id="Node000003" class="node">
<title>Node3</title>
<g id="a_Node000003"><a xlink:href="classkynema__sgf_1_1pde_1_1_diff_solver_iface.html" target="_top" xlink:title=" ">
<polygon fill="white" stroke="#666666" points="153,-107 0,-107 0,-77 153,-77 153,-107"/>
<text text-anchor="start" x="8" y="-95" font-family="Helvetica,sans-Serif" font-size="10.00">kynema_sgf::pde::DiffSolver</text>
<text text-anchor="middle" x="76.5" y="-84" font-family="Helvetica,sans-Serif" font-size="10.00">Iface&lt; LinOp &gt;</text>
</a>
</g>
</g>
<!-- Node3&#45;&gt;Node2 -->
<g id="edge2_Node000002_Node000003" class="edge">
<title>Node3&#45;&gt;Node2</title>
<g id="a_edge2_Node000002_Node000003"><a xlink:title=" ">
<path fill="none" stroke="orange" stroke-dasharray="5,2" d="M163.35,-92C206.2,-92 257.58,-92 298.92,-92"/>
<polygon fill="orange" stroke="orange" points="163.21,-88.5 153.21,-92 163.21,-95.5 163.21,-88.5"/>
</a>
</g>
<text text-anchor="start" x="174" y="-97.5" font-family="Helvetica,sans-Serif" font-size="10.00" fill="grey">&lt; PDE::MLDiffOp &gt;</text>
</g>
<!-- Node4 -->
<g id="Node000004" class="node">
<title>Node4</title>
<g id="a_Node000004"><a xlink:href="structkynema__sgf_1_1pde_1_1_diffusion_op.html" target="_top" xlink:title=" ">
<polygon fill="white" stroke="#666666" points="462,-30 289,-30 289,0 462,0 462,-30"/>
<text text-anchor="start" x="297" y="-18" font-family="Helvetica,sans-Serif" font-size="10.00">kynema_sgf::pde::Diffusion</text>
<text text-anchor="middle" x="375.5" y="-7" font-family="Helvetica,sans-Serif" font-size="10.00">Op&lt; PDE, Scheme, typename &gt;</text>
</a>
</g>
</g>
<!-- Node4&#45;&gt;Node1 -->
<g id="edge3_Node000001_Node000004" class="edge">
<title>Node4&#45;&gt;Node1</title>
<g id="a_edge3_Node000001_Node000004"><a xlink:title=" ">
<path fill="none" stroke="orange" stroke-dasharray="5,2" d="M472.3,-8.94C523.75,-7.3 588.12,-7.84 645,-16 661.72,-18.4 679.31,-22.44 695.91,-26.99"/>
<polygon fill="orange" stroke="orange" points="472.06,-5.45 462.19,-9.3 472.31,-12.45 472.06,-5.45"/>
</a>
</g>
<text text-anchor="start" x="483.5" y="-67" font-family="Helvetica,sans-Serif" font-size="10.00" fill="grey">&lt; PDE, Scheme, std</text>
<text text-anchor="start" x="483.5" y="-52" font-family="Helvetica,sans-Serif" font-size="10.00" fill="grey">  ::enable_if_t&lt; std::</text>
<text text-anchor="start" x="483.5" y="-37" font-family="Helvetica,sans-Serif" font-size="10.00" fill="grey">  is_base_of_v&lt; ScalarTransport,</text>
<text text-anchor="start" x="483.5" y="-22" font-family="Helvetica,sans-Serif" font-size="10.00" fill="grey">   PDE &gt; &gt; &gt;</text>
</g>
</g>
</svg>
