<?xml version="1.0" encoding="UTF-8" standalone="no"?>
<!DOCTYPE svg PUBLIC "-//W3C//DTD SVG 1.1//EN"
 "http://www.w3.org/Graphics/SVG/1.1/DTD/svg11.dtd">
<!-- Generated by graphviz version 2.43.0 (0)
 -->
<!-- Title: kynema_sgf::pde::AdvectionOp&lt; ICNS, fvm::Godunov &gt; Pages: 1 -->
<svg width="2159pt" height="594pt"
 viewBox="0.00 0.00 2159.00 593.50" xmlns="http://www.w3.org/2000/svg" xmlns:xlink="http://www.w3.org/1999/xlink">
<g id="graph0" class="graph" transform="scale(1 1) rotate(0) translate(4 589.5)">
<title>kynema_sgf::pde::AdvectionOp&lt; ICNS, fvm::Godunov &gt;</title>
<!-- Node1 -->
<g id="Node000001" class="node">
<title>Node1</title>
<g id="a_Node000001"><a xlink:title=" ">
<polygon fill="#999999" stroke="#666666" points="2151,-219.5 1997,-219.5 1997,-189.5 2151,-189.5 2151,-219.5"/>
<text text-anchor="start" x="2005" y="-207.5" font-family="Helvetica,sans-Serif" font-size="10.00">kynema_sgf::pde::Advection</text>
<text text-anchor="middle" x="2074" y="-196.5" font-family="Helvetica,sans-Serif" font-size="10.00">Op&lt; ICNS, fvm::Godunov &gt;</text>
</a>
</g>
</g>
<!-- Node2 -->
<g id="Node000002" class="node">
<title>Node2</title>
<g id="a_Node000002"><a xlink:href="structkynema__sgf_1_1pde_1_1_p_d_e_fields.html" target="_top" xlink:title=" ">
<polygon fill="white" stroke="#666666" points="1824,-268 1671,-268 1671,-249 1824,-249 1824,-268"/>
<text text-anchor="middle" x="1747.5" y="-256" font-family="Helvetica,sans-Serif" font-size="10.00">kynema_sgf::pde::PDEFields</text>
</a>
</g>
</g>
<!-- Node2&#45;&gt;Node1 -->
<g id="edge1_Node000001_Node000002" class="edge">
<title>Node2&#45;&gt;Node1</title>
<g id="a_edge1_Node000001_Node000002"><a xlink:title=" ">
<path fill="none" stroke="#9a32cd" stroke-dasharray="5,2" d="M1798.35,-246.23C1810.18,-242.85 1822.65,-238.88 1834,-234.5 1842.34,-231.28 1843.4,-227.96 1852,-225.5 1898.96,-212.04 1953.59,-206.76 1996.79,-204.86"/>
<polygon fill="#9a32cd" stroke="#9a32cd" points="1797.3,-242.89 1788.6,-248.93 1799.17,-249.63 1797.3,-242.89"/>
</a>
</g>
<text text-anchor="start" x="1902.5" y="-231" font-family="Helvetica,sans-Serif" font-size="10.00" fill="grey">fields</text>
</g>
<!-- Node3 -->
<g id="Node000003" class="node">
<title>Node3</title>
<g id="a_Node000003"><a xlink:href="classkynema__sgf_1_1_field_repo.html" target="_top" xlink:title=" ">
<polygon fill="white" stroke="#666666" points="1297.5,-191 1168.5,-191 1168.5,-172 1297.5,-172 1297.5,-191"/>
<text text-anchor="middle" x="1233" y="-179" font-family="Helvetica,sans-Serif" font-size="10.00">kynema_sgf::FieldRepo</text>
</a>
</g>
</g>
<!-- Node3&#45;&gt;Node2 -->
<g id="edge2_Node000002_Node000003" class="edge">
<title>Node3&#45;&gt;Node2</title>
<g id="a_edge2_Node000002_Node000003"><a xlink:title=" ">
<path fill="none" stroke="#9a32cd" stroke-dasharray="5,2" d="M1308.04,-178.75C1391.92,-178.04 1531.44,-184.23 1643,-225.5 1651.39,-228.6 1652.66,-231.28 1661,-234.5 1675.53,-240.11 1691.9,-245.03 1706.4,-248.93"/>
<polygon fill="#9a32cd" stroke="#9a32cd" points="1307.8,-175.25 1297.85,-178.87 1307.89,-182.25 1307.8,-175.25"/>
</a>
</g>
<text text-anchor="start" x="1471" y="-208" font-family="Helvetica,sans-Serif" font-size="10.00" fill="grey">repo</text>
</g>
<!-- Node10 -->
<g id="Node000010" class="node">
<title>Node10</title>
<g id="a_Node000010"><a xlink:href="classkynema__sgf_1_1_field.html" target="_top" xlink:title=" ">
<polygon fill="white" stroke="#666666" points="1534,-291 1430,-291 1430,-272 1534,-272 1534,-291"/>
<text text-anchor="middle" x="1482" y="-279" font-family="Helvetica,sans-Serif" font-size="10.00">kynema_sgf::Field</text>
</a>
</g>
</g>
<!-- Node3&#45;&gt;Node10 -->
<g id="edge10_Node000010_Node000003" class="edge">
<title>Node3&#45;&gt;Node10</title>
<g id="a_edge10_Node000010_Node000003"><a xlink:title=" ">
<path fill="none" stroke="#9a32cd" stroke-dasharray="5,2" d="M1260.11,-196.24C1291.7,-213.59 1346.9,-242.32 1397,-260.5 1409.29,-264.96 1422.93,-268.82 1435.58,-271.96"/>
<polygon fill="#9a32cd" stroke="#9a32cd" points="1261.54,-193.03 1251.09,-191.25 1258.15,-199.16 1261.54,-193.03"/>
</a>
</g>
<text text-anchor="start" x="1332" y="-258" font-family="Helvetica,sans-Serif" font-size="10.00" fill="grey">m_repo</text>
</g>
<!-- Node17 -->
<g id="Node000017" class="node">
<title>Node17</title>
<g id="a_Node000017"><a xlink:href="classkynema__sgf_1_1pde_1_1_mac_proj_op.html" target="_top" xlink:title=" ">
<polygon fill="white" stroke="#666666" points="1826.5,-145 1668.5,-145 1668.5,-126 1826.5,-126 1826.5,-145"/>
<text text-anchor="middle" x="1747.5" y="-133" font-family="Helvetica,sans-Serif" font-size="10.00">kynema_sgf::pde::MacProjOp</text>
</a>
</g>
</g>
<!-- Node3&#45;&gt;Node17 -->
<g id="edge23_Node000017_Node000003" class="edge">
<title>Node3&#45;&gt;Node17</title>
<g id="a_edge23_Node000017_Node000003"><a xlink:title=" ">
<path fill="none" stroke="#9a32cd" stroke-dasharray="5,2" d="M1267.37,-168.43C1283.34,-162.78 1302.89,-156.74 1321,-153.5 1440.73,-132.11 1582.28,-130.77 1668.17,-132.56"/>
<polygon fill="#9a32cd" stroke="#9a32cd" points="1266.13,-165.16 1257.93,-171.87 1268.53,-171.74 1266.13,-165.16"/>
</a>
</g>
<text text-anchor="start" x="1464" y="-149" font-family="Helvetica,sans-Serif" font-size="10.00" fill="grey">m_repo</text>
</g>
<!-- Node25 -->
<g id="Node000025" class="node">
<title>Node25</title>
<g id="a_Node000025"><a xlink:href="classkynema__sgf_1_1_scratch_field.html" target="_top" xlink:title=" ">
<polygon fill="white" stroke="#666666" points="1552,-251 1412,-251 1412,-232 1552,-232 1552,-251"/>
<text text-anchor="middle" x="1482" y="-239" font-family="Helvetica,sans-Serif" font-size="10.00">kynema_sgf::ScratchField</text>
</a>
</g>
</g>
<!-- Node3&#45;&gt;Node25 -->
<g id="edge37_Node000025_Node000003" class="edge">
<title>Node3&#45;&gt;Node25</title>
<g id="a_edge37_Node000025_Node000003"><a xlink:title=" ">
<path fill="none" stroke="#9a32cd" stroke-dasharray="5,2" d="M1307.95,-185.78C1331.17,-188.68 1356.59,-193.5 1379,-201.5 1387.83,-204.65 1388.52,-208.5 1397,-212.5 1413.33,-220.2 1432.28,-226.92 1448.04,-231.94"/>
<polygon fill="#9a32cd" stroke="#9a32cd" points="1308.13,-182.28 1297.8,-184.61 1307.33,-189.23 1308.13,-182.28"/>
</a>
</g>
<text text-anchor="start" x="1332" y="-207" font-family="Helvetica,sans-Serif" font-size="10.00" fill="grey">m_repo</text>
</g>
<!-- Node4 -->
<g id="Node000004" class="node">
<title>Node4</title>
<g id="a_Node000004"><a xlink:title=" ">
<polygon fill="white" stroke="#666666" points="660,-221.5 538,-221.5 538,-191.5 660,-191.5 660,-221.5"/>
<text text-anchor="start" x="546" y="-209.5" font-family="Helvetica,sans-Serif" font-size="10.00">std::unordered_map</text>
<text text-anchor="middle" x="599" y="-198.5" font-family="Helvetica,sans-Serif" font-size="10.00">&lt; std::string, size_t &gt;</text>
</a>
</g>
</g>
<!-- Node4&#45;&gt;Node3 -->
<g id="edge3_Node000003_Node000004" class="edge">
<title>Node4&#45;&gt;Node3</title>
<g id="a_edge3_Node000003_Node000004"><a xlink:title=" ">
<path fill="none" stroke="#9a32cd" stroke-dasharray="5,2" d="M670.21,-203.29C720.54,-201.02 789.94,-197.96 851,-195.5 962.61,-191 1092.63,-186.35 1168.29,-183.7"/>
<polygon fill="#9a32cd" stroke="#9a32cd" points="669.92,-199.8 660.09,-203.75 670.24,-206.79 669.92,-199.8"/>
</a>
</g>
<text text-anchor="start" x="876.5" y="-216.5" font-family="Helvetica,sans-Serif" font-size="10.00" fill="grey">m_fid_map</text>
<text text-anchor="start" x="876.5" y="-201.5" font-family="Helvetica,sans-Serif" font-size="10.00" fill="grey">m_int_fid_map</text>
</g>
<!-- Node5 -->
<g id="Node000005" class="node">
<title>Node5</title>
<g id="a_Node000005"><a xlink:title=" ">
<polygon fill="white" stroke="#666666" points="297,-259 232,-259 232,-240 297,-240 297,-259"/>
<text text-anchor="middle" x="264.5" y="-247" font-family="Helvetica,sans-Serif" font-size="10.00">std::string</text>
</a>
</g>
</g>
<!-- Node5&#45;&gt;Node1 -->
<g id="edge40_Node000001_Node000005" class="edge">
<title>Node5&#45;&gt;Node1</title>
<g id="a_edge40_Node000001_Node000005"><a xlink:title=" ">
<path fill="none" stroke="#9a32cd" stroke-dasharray="5,2" d="M295.06,-263.18C312.19,-270.48 334.39,-278.89 355,-283.5 767.4,-375.7 882.28,-316.94 1303,-356.5 1311.01,-357.25 1312.96,-358.05 1321,-358.5 1556.63,-371.77 1616,-359.28 1852,-359.5 1908.44,-359.55 1929.82,-387.19 1979,-359.5 2033.57,-328.77 2060.1,-252.16 2069.21,-219.56"/>
<polygon fill="#9a32cd" stroke="#9a32cd" points="296.17,-259.85 285.6,-259.05 293.36,-266.26 296.17,-259.85"/>
</a>
</g>
<text text-anchor="start" x="1185" y="-437.5" font-family="Helvetica,sans-Serif" font-size="10.00" fill="grey">godunov_type</text>
<text text-anchor="start" x="1185" y="-422.5" font-family="Helvetica,sans-Serif" font-size="10.00" fill="grey">mflux_type</text>
<text text-anchor="start" x="1185" y="-407.5" font-family="Helvetica,sans-Serif" font-size="10.00" fill="grey">postmac_advection</text>
<text text-anchor="start" x="1185" y="-392.5" font-family="Helvetica,sans-Serif" font-size="10.00" fill="grey">  _type</text>
<text text-anchor="start" x="1185" y="-377.5" font-family="Helvetica,sans-Serif" font-size="10.00" fill="grey">premac_advection</text>
<text text-anchor="start" x="1185" y="-362.5" font-family="Helvetica,sans-Serif" font-size="10.00" fill="grey">  _type</text>
</g>
<!-- Node5&#45;&gt;Node4 -->
<g id="edge4_Node000004_Node000005" class="edge">
<title>Node5&#45;&gt;Node4</title>
<g id="a_edge4_Node000004_Node000005"><a xlink:title=" ">
<path fill="none" stroke="#9a32cd" stroke-dasharray="5,2" d="M296.84,-236.19C313.75,-229.64 335.16,-222.34 355,-218.5 416.37,-206.61 488,-204.46 537.51,-204.76"/>
<polygon fill="#9a32cd" stroke="#9a32cd" points="295.45,-232.98 287.45,-239.93 298.04,-239.48 295.45,-232.98"/>
</a>
</g>
<text text-anchor="start" x="417" y="-224" font-family="Helvetica,sans-Serif" font-size="10.00" fill="grey">keys</text>
</g>
<!-- Node5&#45;&gt;Node10 -->
<g id="edge11_Node000010_Node000005" class="edge">
<title>Node5&#45;&gt;Node10</title>
<g id="a_edge11_Node000010_Node000005"><a xlink:title=" ">
<path fill="none" stroke="#9a32cd" stroke-dasharray="5,2" d="M307.26,-257.76C322.25,-260.39 339.33,-263 355,-264.5 768.09,-303.91 1270.22,-289.66 1429.78,-283.63"/>
<polygon fill="#9a32cd" stroke="#9a32cd" points="307.71,-254.29 297.25,-255.95 306.47,-261.17 307.71,-254.29"/>
</a>
</g>
<text text-anchor="start" x="891.5" y="-296" font-family="Helvetica,sans-Serif" font-size="10.00" fill="grey">m_name</text>
</g>
<!-- Node12 -->
<g id="Node000012" class="node">
<title>Node12</title>
<g id="a_Node000012"><a xlink:href="structkynema__sgf_1_1_field_info.html" target="_top" xlink:title=" ">
<polygon fill="white" stroke="#666666" points="974,-447 851,-447 851,-428 974,-428 974,-447"/>
<text text-anchor="middle" x="912.5" y="-435" font-family="Helvetica,sans-Serif" font-size="10.00">kynema_sgf::FieldInfo</text>
</a>
</g>
</g>
<!-- Node5&#45;&gt;Node12 -->
<g id="edge14_Node000012_Node000005" class="edge">
<title>Node5&#45;&gt;Node12</title>
<g id="a_edge14_Node000012_Node000005"><a xlink:title=" ">
<path fill="none" stroke="#9a32cd" stroke-dasharray="5,2" d="M275.83,-267.84C290.24,-291.5 318.73,-331.95 355,-351.5 418.99,-385.99 607.19,-385.19 679,-396.5 741.55,-406.36 813.29,-419.25 860.34,-427.92"/>
<polygon fill="#9a32cd" stroke="#9a32cd" points="278.79,-265.95 270.7,-259.11 272.75,-269.5 278.79,-265.95"/>
</a>
</g>
<text text-anchor="start" x="566" y="-402" font-family="Helvetica,sans-Serif" font-size="10.00" fill="grey">m_basename</text>
</g>
<!-- Node20 -->
<g id="Node000020" class="node">
<title>Node20</title>
<g id="a_Node000020"><a xlink:title=" ">
<polygon fill="white" stroke="#666666" points="656,-63.5 542,-63.5 542,-33.5 656,-33.5 656,-63.5"/>
<text text-anchor="start" x="550" y="-51.5" font-family="Helvetica,sans-Serif" font-size="10.00">std::unordered_map</text>
<text text-anchor="middle" x="599" y="-40.5" font-family="Helvetica,sans-Serif" font-size="10.00">&lt; std::string, int &gt;</text>
</a>
</g>
</g>
<!-- Node5&#45;&gt;Node20 -->
<g id="edge27_Node000020_Node000005" class="edge">
<title>Node5&#45;&gt;Node20</title>
<g id="a_edge27_Node000020_Node000005"><a xlink:title=" ">
<path fill="none" stroke="#9a32cd" stroke-dasharray="5,2" d="M278.56,-231.56C302.17,-199.22 349.97,-134.13 355,-130.5 411.39,-89.76 489.47,-68.2 541.75,-57.59"/>
<polygon fill="#9a32cd" stroke="#9a32cd" points="275.66,-229.6 272.6,-239.74 281.32,-233.72 275.66,-229.6"/>
</a>
</g>
<text text-anchor="start" x="417" y="-136" font-family="Helvetica,sans-Serif" font-size="10.00" fill="grey">keys</text>
</g>
<!-- Node23 -->
<g id="Node000023" class="node">
<title>Node23</title>
<g id="a_Node000023"><a xlink:href="structkynema__sgf_1_1_m_l_m_g_options.html" target="_top" xlink:title=" ">
<polygon fill="white" stroke="#666666" points="1143,-124 994,-124 994,-105 1143,-105 1143,-124"/>
<text text-anchor="middle" x="1068.5" y="-112" font-family="Helvetica,sans-Serif" font-size="10.00">kynema_sgf::MLMGOptions</text>
</a>
</g>
</g>
<!-- Node5&#45;&gt;Node23 -->
<g id="edge34_Node000023_Node000005" class="edge">
<title>Node5&#45;&gt;Node23</title>
<g id="a_edge34_Node000023_Node000005"><a xlink:title=" ">
<path fill="none" stroke="#9a32cd" stroke-dasharray="5,2" d="M290.39,-234.64C308.08,-224.38 332.59,-210.79 355,-200.5 418.01,-171.56 438.08,-174.64 501,-145.5 509.3,-141.65 510.19,-137.96 519,-135.5 683.74,-89.43 887.12,-97.64 993.96,-106.66"/>
<polygon fill="#9a32cd" stroke="#9a32cd" points="288.18,-231.88 281.32,-239.95 291.72,-237.92 288.18,-231.88"/>
</a>
</g>
<text text-anchor="start" x="543" y="-171" font-family="Helvetica,sans-Serif" font-size="10.00" fill="grey">m_bottom_solver_type</text>
<text text-anchor="start" x="543" y="-156" font-family="Helvetica,sans-Serif" font-size="10.00" fill="grey">m_hypre_interface</text>
<text text-anchor="start" x="543" y="-141" font-family="Helvetica,sans-Serif" font-size="10.00" fill="grey">m_hypre_namespace</text>
</g>
<!-- Node5&#45;&gt;Node25 -->
<g id="edge38_Node000025_Node000005" class="edge">
<title>Node5&#45;&gt;Node25</title>
<g id="a_edge38_Node000025_Node000005"><a xlink:title=" ">
<path fill="none" stroke="#9a32cd" stroke-dasharray="5,2" d="M307.02,-249.98C448.72,-251.6 926.35,-256.82 1321,-258.5 1346.78,-258.61 1353.31,-260.63 1379,-258.5 1397.07,-257 1416.76,-254.04 1433.98,-251"/>
<polygon fill="#9a32cd" stroke="#9a32cd" points="307.06,-246.48 297.02,-249.87 306.98,-253.48 307.06,-246.48"/>
</a>
</g>
<text text-anchor="start" x="891.5" y="-261" font-family="Helvetica,sans-Serif" font-size="10.00" fill="grey">m_name</text>
</g>
<!-- Node6 -->
<g id="Node000006" class="node">
<title>Node6</title>
<g id="a_Node000006"><a xlink:title=" ">
<polygon fill="white" stroke="#666666" points="104,-264.5 0,-264.5 0,-234.5 104,-234.5 104,-264.5"/>
<text text-anchor="start" x="8" y="-252.5" font-family="Helvetica,sans-Serif" font-size="10.00">std::basic_string&lt;</text>
<text text-anchor="middle" x="52" y="-241.5" font-family="Helvetica,sans-Serif" font-size="10.00"> Char &gt;</text>
</a>
</g>
</g>
<!-- Node6&#45;&gt;Node5 -->
<g id="edge5_Node000005_Node000006" class="edge">
<title>Node6&#45;&gt;Node5</title>
<g id="a_edge5_Node000005_Node000006"><a xlink:title=" ">
<path fill="none" stroke="#63b8ff" d="M114.28,-249.5C152.73,-249.5 200.72,-249.5 231.73,-249.5"/>
<polygon fill="#63b8ff" stroke="#63b8ff" points="114.22,-246 104.22,-249.5 114.22,-253 114.22,-246"/>
</a>
</g>
</g>
<!-- Node7 -->
<g id="Node000007" class="node">
<title>Node7</title>
<g id="a_Node000007"><a xlink:title=" ">
<polygon fill="white" stroke="#666666" points="321.5,-142.5 207.5,-142.5 207.5,-112.5 321.5,-112.5 321.5,-142.5"/>
<text text-anchor="start" x="215.5" y="-130.5" font-family="Helvetica,sans-Serif" font-size="10.00">std::unordered_map</text>
<text text-anchor="middle" x="264.5" y="-119.5" font-family="Helvetica,sans-Serif" font-size="10.00">&lt; K, T &gt;</text>
</a>
</g>
</g>
<!-- Node7&#45;&gt;Node4 -->
<g id="edge6_Node000004_Node000007" class="edge">
<title>Node7&#45;&gt;Node4</title>
<g id="a_edge6_Node000004_Node000007"><a xlink:title=" ">
<path fill="none" stroke="orange" stroke-dasharray="5,2" d="M331.3,-143.13C391.4,-157.41 479.52,-178.35 537.8,-192.2"/>
<polygon fill="orange" stroke="orange" points="332.07,-139.72 321.53,-140.81 330.45,-146.53 332.07,-139.72"/>
</a>
</g>
<text text-anchor="start" x="375" y="-188" font-family="Helvetica,sans-Serif" font-size="10.00" fill="grey">&lt; std::string, size_t &gt;</text>
</g>
<!-- Node7&#45;&gt;Node20 -->
<g id="edge28_Node000020_Node000007" class="edge">
<title>Node7&#45;&gt;Node20</title>
<g id="a_edge28_Node000020_Node000007"><a xlink:title=" ">
<path fill="none" stroke="orange" stroke-dasharray="5,2" d="M283.36,-104.33C299.65,-85.26 325.62,-59.61 355,-48.5 415.77,-25.52 491.36,-30.19 541.95,-37.55"/>
<polygon fill="orange" stroke="orange" points="280.45,-102.36 276.78,-112.3 285.85,-106.82 280.45,-102.36"/>
</a>
</g>
<text text-anchor="start" x="383" y="-54" font-family="Helvetica,sans-Serif" font-size="10.00" fill="grey">&lt; std::string, int &gt;</text>
</g>
<!-- Node8 -->
<g id="Node000008" class="node">
<title>Node8</title>
<g id="a_Node000008"><a xlink:title=" ">
<polygon fill="white" stroke="#666666" points="66.5,-137 37.5,-137 37.5,-118 66.5,-118 66.5,-137"/>
<text text-anchor="middle" x="52" y="-125" font-family="Helvetica,sans-Serif" font-size="10.00">K</text>
</a>
</g>
</g>
<!-- Node8&#45;&gt;Node7 -->
<g id="edge7_Node000007_Node000008" class="edge">
<title>Node8&#45;&gt;Node7</title>
<g id="a_edge7_Node000007_Node000008"><a xlink:title=" ">
<path fill="none" stroke="#9a32cd" stroke-dasharray="5,2" d="M76.83,-127.5C108.28,-127.5 164.61,-127.5 207.19,-127.5"/>
<polygon fill="#9a32cd" stroke="#9a32cd" points="76.81,-124 66.81,-127.5 76.81,-131 76.81,-124"/>
</a>
</g>
<text text-anchor="start" x="137" y="-133" font-family="Helvetica,sans-Serif" font-size="10.00" fill="grey">keys</text>
</g>
<!-- Node9 -->
<g id="Node000009" class="node">
<title>Node9</title>
<g id="a_Node000009"><a xlink:title=" ">
<polygon fill="white" stroke="#666666" points="66.5,-500 37.5,-500 37.5,-481 66.5,-481 66.5,-500"/>
<text text-anchor="middle" x="52" y="-488" font-family="Helvetica,sans-Serif" font-size="10.00">T</text>
</a>
</g>
</g>
<!-- Node9&#45;&gt;Node7 -->
<g id="edge8_Node000007_Node000009" class="edge">
<title>Node9&#45;&gt;Node7</title>
<g id="a_edge8_Node000007_Node000009"><a xlink:title=" ">
<path fill="none" stroke="#9a32cd" stroke-dasharray="5,2" d="M62.13,-471.83C83.43,-428.68 138.64,-319.04 192,-231.5 211.84,-198.95 237.74,-162.6 252.3,-142.66"/>
<polygon fill="#9a32cd" stroke="#9a32cd" points="58.95,-470.36 57.68,-480.88 65.24,-473.45 58.95,-470.36"/>
</a>
</g>
<text text-anchor="start" x="125" y="-356" font-family="Helvetica,sans-Serif" font-size="10.00" fill="grey">elements</text>
</g>
<!-- Node15 -->
<g id="Node000015" class="node">
<title>Node15</title>
<g id="a_Node000015"><a xlink:title=" ">
<polygon fill="white" stroke="#666666" points="323.5,-501 205.5,-501 205.5,-482 323.5,-482 323.5,-501"/>
<text text-anchor="middle" x="264.5" y="-489" font-family="Helvetica,sans-Serif" font-size="10.00">std::unique_ptr&lt; T &gt;</text>
</a>
</g>
</g>
<!-- Node9&#45;&gt;Node15 -->
<g id="edge18_Node000015_Node000009" class="edge">
<title>Node9&#45;&gt;Node15</title>
<g id="a_edge18_Node000015_Node000009"><a xlink:title=" ">
<path fill="none" stroke="#9a32cd" stroke-dasharray="5,2" d="M77.09,-490.61C108.13,-490.76 163.09,-491.02 205.32,-491.22"/>
<polygon fill="#9a32cd" stroke="#9a32cd" points="76.83,-487.11 66.81,-490.57 76.79,-494.11 76.83,-487.11"/>
</a>
</g>
<text text-anchor="start" x="141" y="-496" font-family="Helvetica,sans-Serif" font-size="10.00" fill="grey">ptr</text>
</g>
<!-- Node16 -->
<g id="Node000016" class="node">
<title>Node16</title>
<g id="a_Node000016"><a xlink:title=" ">
<polygon fill="white" stroke="#666666" points="487,-540 369,-540 369,-521 487,-521 487,-540"/>
<text text-anchor="middle" x="428" y="-528" font-family="Helvetica,sans-Serif" font-size="10.00">std::shared_ptr&lt; T &gt;</text>
</a>
</g>
</g>
<!-- Node9&#45;&gt;Node16 -->
<g id="edge20_Node000016_Node000009" class="edge">
<title>Node9&#45;&gt;Node16</title>
<g id="a_edge20_Node000016_Node000009"><a xlink:title=" ">
<path fill="none" stroke="#9a32cd" stroke-dasharray="5,2" d="M76.32,-497.72C89.59,-501.54 106.58,-505.95 122,-508.5 207.12,-522.55 307.07,-527.63 368.73,-529.46"/>
<polygon fill="#9a32cd" stroke="#9a32cd" points="77.17,-494.32 66.59,-494.83 75.18,-501.03 77.17,-494.32"/>
</a>
</g>
<text text-anchor="start" x="141" y="-520" font-family="Helvetica,sans-Serif" font-size="10.00" fill="grey">ptr</text>
</g>
<!-- Node10&#45;&gt;Node1 -->
<g id="edge21_Node000001_Node000010" class="edge">
<title>Node10&#45;&gt;Node1</title>
<g id="a_edge21_Node000001_Node000010"><a xlink:title=" ">
<path fill="none" stroke="#9a32cd" stroke-dasharray="5,2" d="M1543.7,-272.99C1552.09,-269.97 1560.15,-265.93 1567,-260.5 1580.71,-249.63 1572.17,-237.39 1585,-225.5 1611.89,-200.59 1625.08,-200.75 1661,-193.5 1776.38,-170.2 1913.59,-181.39 1996.94,-192.36"/>
<polygon fill="#9a32cd" stroke="#9a32cd" points="1542.66,-269.65 1534.16,-275.96 1544.74,-276.33 1542.66,-269.65"/>
</a>
</g>
<text text-anchor="start" x="1730.5" y="-229" font-family="Helvetica,sans-Serif" font-size="10.00" fill="grey">u_mac</text>
<text text-anchor="start" x="1730.5" y="-214" font-family="Helvetica,sans-Serif" font-size="10.00" fill="grey">v_mac</text>
<text text-anchor="start" x="1730.5" y="-199" font-family="Helvetica,sans-Serif" font-size="10.00" fill="grey">w_mac</text>
</g>
<!-- Node10&#45;&gt;Node2 -->
<g id="edge9_Node000002_Node000010" class="edge">
<title>Node10&#45;&gt;Node2</title>
<g id="a_edge9_Node000002_Node000010"><a xlink:title=" ">
<path fill="none" stroke="#9a32cd" stroke-dasharray="5,2" d="M1544.45,-276.14C1582.17,-272.84 1630.75,-268.6 1670.82,-265.11"/>
<polygon fill="#9a32cd" stroke="#9a32cd" points="1543.78,-272.68 1534.12,-277.04 1544.38,-279.66 1543.78,-272.68"/>
</a>
</g>
<text text-anchor="start" x="1588" y="-337" font-family="Helvetica,sans-Serif" font-size="10.00" fill="grey">conv_term</text>
<text text-anchor="start" x="1588" y="-322" font-family="Helvetica,sans-Serif" font-size="10.00" fill="grey">diff_term</text>
<text text-anchor="start" x="1588" y="-307" font-family="Helvetica,sans-Serif" font-size="10.00" fill="grey">field</text>
<text text-anchor="start" x="1588" y="-292" font-family="Helvetica,sans-Serif" font-size="10.00" fill="grey">mueff</text>
<text text-anchor="start" x="1588" y="-277" font-family="Helvetica,sans-Serif" font-size="10.00" fill="grey">src_term</text>
</g>
<!-- Node11 -->
<g id="Node000011" class="node">
<title>Node11</title>
<g id="a_Node000011"><a xlink:title=" ">
<polygon fill="white" stroke="#666666" points="1303,-487.5 1163,-487.5 1163,-457.5 1303,-457.5 1303,-487.5"/>
<text text-anchor="start" x="1171" y="-475.5" font-family="Helvetica,sans-Serif" font-size="10.00">std::shared_ptr&lt; kynema</text>
<text text-anchor="middle" x="1233" y="-464.5" font-family="Helvetica,sans-Serif" font-size="10.00">_sgf::FieldInfo &gt;</text>
</a>
</g>
</g>
<!-- Node11&#45;&gt;Node10 -->
<g id="edge12_Node000010_Node000011" class="edge">
<title>Node11&#45;&gt;Node10</title>
<g id="a_edge12_Node000010_Node000011"><a xlink:title=" ">
<path fill="none" stroke="#9a32cd" stroke-dasharray="5,2" d="M1285.78,-453.04C1291.74,-450.13 1297.61,-446.94 1303,-443.5 1376.61,-396.51 1448.67,-318.27 1472.65,-291.12"/>
<polygon fill="#9a32cd" stroke="#9a32cd" points="1284,-450.01 1276.38,-457.37 1286.93,-456.36 1284,-450.01"/>
</a>
</g>
<text text-anchor="start" x="1333" y="-434" font-family="Helvetica,sans-Serif" font-size="10.00" fill="grey">m_info</text>
</g>
<!-- Node12&#45;&gt;Node11 -->
<g id="edge13_Node000011_Node000012" class="edge">
<title>Node12&#45;&gt;Node11</title>
<g id="a_edge13_Node000011_Node000012"><a xlink:title=" ">
<path fill="none" stroke="#9a32cd" stroke-dasharray="5,2" d="M984.33,-440.3C1030.29,-442.71 1091.38,-447.02 1145,-454.5 1150.96,-455.33 1157.12,-456.33 1163.28,-457.42"/>
<polygon fill="#9a32cd" stroke="#9a32cd" points="984.33,-436.8 974.17,-439.79 983.98,-443.79 984.33,-436.8"/>
</a>
</g>
<text text-anchor="start" x="1061.5" y="-460" font-family="Helvetica,sans-Serif" font-size="10.00" fill="grey">ptr</text>
</g>
<!-- Node13 -->
<g id="Node000013" class="node">
<title>Node13</title>
<g id="a_Node000013"><a xlink:title=" ">
<polygon fill="white" stroke="#666666" points="679,-452.5 519,-452.5 519,-422.5 679,-422.5 679,-452.5"/>
<text text-anchor="start" x="527" y="-440.5" font-family="Helvetica,sans-Serif" font-size="10.00">std::unique_ptr&lt; kynema</text>
<text text-anchor="middle" x="599" y="-429.5" font-family="Helvetica,sans-Serif" font-size="10.00">_sgf::FieldFillPatchOpsBase &gt;</text>
</a>
</g>
</g>
<!-- Node13&#45;&gt;Node12 -->
<g id="edge15_Node000012_Node000013" class="edge">
<title>Node13&#45;&gt;Node12</title>
<g id="a_edge15_Node000012_Node000013"><a xlink:title=" ">
<path fill="none" stroke="#9a32cd" stroke-dasharray="5,2" d="M689.19,-437.5C740.95,-437.5 804.79,-437.5 850.76,-437.5"/>
<polygon fill="#9a32cd" stroke="#9a32cd" points="689.01,-434 679.01,-437.5 689.01,-441 689.01,-434"/>
</a>
</g>
<text text-anchor="start" x="729" y="-443" font-family="Helvetica,sans-Serif" font-size="10.00" fill="grey">m_fillpatch_op</text>
</g>
<!-- Node14 -->
<g id="Node000014" class="node">
<title>Node14</title>
<g id="a_Node000014"><a xlink:href="classkynema__sgf_1_1_field_fill_patch_ops_base.html" target="_top" xlink:title=" ">
<polygon fill="white" stroke="#666666" points="337,-413.5 192,-413.5 192,-383.5 337,-383.5 337,-413.5"/>
<text text-anchor="start" x="200" y="-401.5" font-family="Helvetica,sans-Serif" font-size="10.00">kynema_sgf::FieldFillPatch</text>
<text text-anchor="middle" x="264.5" y="-390.5" font-family="Helvetica,sans-Serif" font-size="10.00">OpsBase</text>
</a>
</g>
</g>
<!-- Node14&#45;&gt;Node13 -->
<g id="edge16_Node000013_Node000014" class="edge">
<title>Node14&#45;&gt;Node13</title>
<g id="a_edge16_Node000013_Node000014"><a xlink:title=" ">
<path fill="none" stroke="#9a32cd" stroke-dasharray="5,2" d="M347.32,-390.64C393.03,-388.29 450.73,-388.72 501,-399.5 509.56,-401.34 510.9,-404.17 519,-407.5 531.21,-412.53 544.6,-417.73 556.83,-422.36"/>
<polygon fill="#9a32cd" stroke="#9a32cd" points="346.95,-387.16 337.17,-391.22 347.35,-394.15 346.95,-387.16"/>
</a>
</g>
<text text-anchor="start" x="421" y="-405" font-family="Helvetica,sans-Serif" font-size="10.00" fill="grey">ptr</text>
</g>
<!-- Node15&#45;&gt;Node13 -->
<g id="edge17_Node000013_Node000015" class="edge">
<title>Node15&#45;&gt;Node13</title>
<g id="a_edge17_Node000013_Node000015"><a xlink:title=" ">
<path fill="none" stroke="orange" stroke-dasharray="5,2" d="M285.5,-475.77C302.79,-463.22 329.02,-446.61 355,-439.5 408.31,-424.9 470.69,-424.72 518.9,-428.02"/>
<polygon fill="orange" stroke="orange" points="283.23,-473.09 277.32,-481.89 287.42,-478.7 283.23,-473.09"/>
</a>
</g>
<text text-anchor="start" x="358" y="-460.5" font-family="Helvetica,sans-Serif" font-size="10.00" fill="grey">&lt; kynema_sgf::FieldFillPatch</text>
<text text-anchor="start" x="358" y="-445.5" font-family="Helvetica,sans-Serif" font-size="10.00" fill="grey">  OpsBase &gt;</text>
</g>
<!-- Node22 -->
<g id="Node000022" class="node">
<title>Node22</title>
<g id="a_Node000022"><a xlink:title=" ">
<polygon fill="white" stroke="#666666" points="830,-538.5 700,-538.5 700,-508.5 830,-508.5 830,-538.5"/>
<text text-anchor="start" x="708" y="-526.5" font-family="Helvetica,sans-Serif" font-size="10.00">std::unique_ptr&lt; Hydro</text>
<text text-anchor="middle" x="765" y="-515.5" font-family="Helvetica,sans-Serif" font-size="10.00">::MacProjector &gt;</text>
</a>
</g>
</g>
<!-- Node15&#45;&gt;Node22 -->
<g id="edge32_Node000022_Node000015" class="edge">
<title>Node15&#45;&gt;Node22</title>
<g id="a_edge32_Node000022_Node000015"><a xlink:title=" ">
<path fill="none" stroke="orange" stroke-dasharray="5,2" d="M333.7,-491.05C380.75,-491.14 444.72,-492.03 501,-495.5 569.06,-499.69 646.66,-508.44 699.82,-515.05"/>
<polygon fill="orange" stroke="orange" points="333.63,-487.55 323.62,-491.05 333.62,-494.55 333.63,-487.55"/>
</a>
</g>
<text text-anchor="start" x="367" y="-501" font-family="Helvetica,sans-Serif" font-size="10.00" fill="grey">&lt; Hydro::MacProjector &gt;</text>
</g>
<!-- Node24 -->
<g id="Node000024" class="node">
<title>Node24</title>
<g id="a_Node000024"><a xlink:title=" ">
<polygon fill="white" stroke="#666666" points="1817.5,-316.5 1677.5,-316.5 1677.5,-286.5 1817.5,-286.5 1817.5,-316.5"/>
<text text-anchor="start" x="1685.5" y="-304.5" font-family="Helvetica,sans-Serif" font-size="10.00">std::unique_ptr&lt; kynema</text>
<text text-anchor="middle" x="1747.5" y="-293.5" font-family="Helvetica,sans-Serif" font-size="10.00">_sgf::ScratchField &gt;</text>
</a>
</g>
</g>
<!-- Node15&#45;&gt;Node24 -->
<g id="edge39_Node000024_Node000015" class="edge">
<title>Node15&#45;&gt;Node24</title>
<g id="a_edge39_Node000024_Node000015"><a xlink:title=" ">
<path fill="none" stroke="orange" stroke-dasharray="5,2" d="M284.47,-507.85C301.64,-521.61 328.27,-540.45 355,-549.5 457.61,-584.25 489.67,-568.5 598,-568.5 598,-568.5 598,-568.5 1483,-568.5 1625.63,-568.5 1717.06,-373.1 1740.52,-316.62"/>
<polygon fill="orange" stroke="orange" points="286.34,-504.86 276.4,-501.2 281.89,-510.26 286.34,-504.86"/>
</a>
</g>
<text text-anchor="start" x="995.5" y="-574" font-family="Helvetica,sans-Serif" font-size="10.00" fill="grey">&lt; kynema_sgf::ScratchField &gt;</text>
</g>
<!-- Node16&#45;&gt;Node11 -->
<g id="edge19_Node000011_Node000016" class="edge">
<title>Node16&#45;&gt;Node11</title>
<g id="a_edge19_Node000011_Node000016"><a xlink:title=" ">
<path fill="none" stroke="orange" stroke-dasharray="5,2" d="M489.6,-519.12C562.23,-505.57 676.73,-484.49 697,-482.5 785.18,-473.83 1038.98,-472.53 1162.63,-472.43"/>
<polygon fill="orange" stroke="orange" points="488.83,-515.71 479.64,-520.98 490.12,-522.59 488.83,-515.71"/>
</a>
</g>
<text text-anchor="start" x="700" y="-488" font-family="Helvetica,sans-Serif" font-size="10.00" fill="grey">&lt; kynema_sgf::FieldInfo &gt;</text>
</g>
<!-- Node17&#45;&gt;Node1 -->
<g id="edge22_Node000001_Node000017" class="edge">
<title>Node17&#45;&gt;Node1</title>
<g id="a_edge22_Node000001_Node000017"><a xlink:title=" ">
<path fill="none" stroke="#9a32cd" stroke-dasharray="5,2" d="M1836.59,-133.19C1880.23,-134.24 1933.24,-138.87 1979,-152.5 2005.99,-160.54 2033.84,-177.19 2052.15,-189.49"/>
<polygon fill="#9a32cd" stroke="#9a32cd" points="1836.63,-129.69 1826.57,-133 1836.5,-136.68 1836.63,-129.69"/>
</a>
</g>
<text text-anchor="start" x="1879.5" y="-158" font-family="Helvetica,sans-Serif" font-size="10.00" fill="grey">m_macproj_op</text>
</g>
<!-- Node18 -->
<g id="Node000018" class="node">
<title>Node18</title>
<g id="a_Node000018"><a xlink:href="classkynema__sgf_1_1_field_boundary_mgr.html" target="_top" xlink:title=" ">
<polygon fill="white" stroke="#666666" points="1567,-57 1397,-57 1397,-38 1567,-38 1567,-57"/>
<text text-anchor="middle" x="1482" y="-45" font-family="Helvetica,sans-Serif" font-size="10.00">kynema_sgf::FieldBoundaryMgr</text>
</a>
</g>
</g>
<!-- Node18&#45;&gt;Node17 -->
<g id="edge24_Node000017_Node000018" class="edge">
<title>Node18&#45;&gt;Node17</title>
<g id="a_edge24_Node000017_Node000018"><a xlink:title=" ">
<path fill="none" stroke="#9a32cd" stroke-dasharray="5,2" d="M1535.64,-36.6C1569.75,-32.67 1613.21,-33.97 1643,-57.5 1664.51,-74.49 1640.88,-97.88 1661,-116.5 1665.13,-120.32 1669.85,-123.43 1674.91,-125.97"/>
<polygon fill="#9a32cd" stroke="#9a32cd" points="1534.83,-33.18 1525.38,-37.97 1535.75,-40.12 1534.83,-33.18"/>
</a>
</g>
<text text-anchor="start" x="1589" y="-63" font-family="Helvetica,sans-Serif" font-size="10.00" fill="grey">m_fb_mgr</text>
</g>
<!-- Node19 -->
<g id="Node000019" class="node">
<title>Node19</title>
<g id="a_Node000019"><a xlink:href="classkynema__sgf_1_1_coll_mgr.html" target="_top" xlink:title=" ">
<polygon fill="white" stroke="#666666" points="1292.5,-60 1173.5,-60 1173.5,-19 1292.5,-19 1292.5,-60"/>
<text text-anchor="start" x="1181.5" y="-48" font-family="Helvetica,sans-Serif" font-size="10.00">kynema_sgf::CollMgr</text>
<text text-anchor="start" x="1181.5" y="-37" font-family="Helvetica,sans-Serif" font-size="10.00">&lt; FieldBoundaryMgr,</text>
<text text-anchor="middle" x="1233" y="-26" font-family="Helvetica,sans-Serif" font-size="10.00"> FieldBoundary &gt;</text>
</a>
</g>
</g>
<!-- Node19&#45;&gt;Node18 -->
<g id="edge25_Node000018_Node000019" class="edge">
<title>Node19&#45;&gt;Node18</title>
<g id="a_edge25_Node000018_Node000019"><a xlink:title=" ">
<path fill="none" stroke="#63b8ff" d="M1302.62,-41.72C1331.77,-42.67 1366.03,-43.78 1396.7,-44.77"/>
<polygon fill="#63b8ff" stroke="#63b8ff" points="1302.64,-38.22 1292.54,-41.4 1302.42,-45.22 1302.64,-38.22"/>
</a>
</g>
</g>
<!-- Node20&#45;&gt;Node19 -->
<g id="edge26_Node000019_Node000020" class="edge">
<title>Node20&#45;&gt;Node19</title>
<g id="a_edge26_Node000019_Node000020"><a xlink:title=" ">
<path fill="none" stroke="#9a32cd" stroke-dasharray="5,2" d="M666.24,-57.7C676.52,-58.84 687.03,-59.83 697,-60.5 895.67,-73.76 947.68,-90.22 1145,-63.5 1154.32,-62.24 1164.04,-60.25 1173.48,-57.94"/>
<polygon fill="#9a32cd" stroke="#9a32cd" points="666.4,-54.2 656.06,-56.53 665.59,-61.15 666.4,-54.2"/>
</a>
</g>
<text text-anchor="start" x="883.5" y="-84" font-family="Helvetica,sans-Serif" font-size="10.00" fill="grey">m_obj_map</text>
</g>
<!-- Node21 -->
<g id="Node000021" class="node">
<title>Node21</title>
<g id="a_Node000021"><a xlink:href="classkynema__sgf_1_1_coll_mgr.html" target="_top" xlink:title=" ">
<polygon fill="white" stroke="#666666" points="972,-41 853,-41 853,0 972,0 972,-41"/>
<text text-anchor="start" x="861" y="-29" font-family="Helvetica,sans-Serif" font-size="10.00">kynema_sgf::CollMgr</text>
<text text-anchor="start" x="861" y="-18" font-family="Helvetica,sans-Serif" font-size="10.00">&lt; Collection, Type,</text>
<text text-anchor="middle" x="912.5" y="-7" font-family="Helvetica,sans-Serif" font-size="10.00"> allow_duplicates &gt;</text>
</a>
</g>
</g>
<!-- Node20&#45;&gt;Node21 -->
<g id="edge30_Node000021_Node000020" class="edge">
<title>Node20&#45;&gt;Node21</title>
<g id="a_edge30_Node000021_Node000020"><a xlink:title=" ">
<path fill="none" stroke="#9a32cd" stroke-dasharray="5,2" d="M666.12,-42.56C721.51,-37.58 799.84,-30.54 852.99,-25.76"/>
<polygon fill="#9a32cd" stroke="#9a32cd" points="665.7,-39.08 656.05,-43.46 666.32,-46.05 665.7,-39.08"/>
</a>
</g>
<text text-anchor="start" x="736" y="-45" font-family="Helvetica,sans-Serif" font-size="10.00" fill="grey">m_obj_map</text>
</g>
<!-- Node21&#45;&gt;Node19 -->
<g id="edge29_Node000019_Node000021" class="edge">
<title>Node21&#45;&gt;Node19</title>
<g id="a_edge29_Node000019_Node000021"><a xlink:title=" ">
<path fill="none" stroke="orange" stroke-dasharray="5,2" d="M982.23,-22.97C1028.31,-24.82 1090.33,-27.69 1145,-31.5 1154.08,-32.13 1163.68,-32.91 1173.06,-33.73"/>
<polygon fill="orange" stroke="orange" points="982.19,-19.46 972.05,-22.57 981.91,-26.46 982.19,-19.46"/>
</a>
</g>
<text text-anchor="start" x="1017.5" y="-52.5" font-family="Helvetica,sans-Serif" font-size="10.00" fill="grey">&lt; FieldBoundaryMgr,</text>
<text text-anchor="start" x="1017.5" y="-37.5" font-family="Helvetica,sans-Serif" font-size="10.00" fill="grey">   FieldBoundary &gt;</text>
</g>
<!-- Node22&#45;&gt;Node17 -->
<g id="edge31_Node000017_Node000022" class="edge">
<title>Node22&#45;&gt;Node17</title>
<g id="a_edge31_Node000017_Node000022"><a xlink:title=" ">
<path fill="none" stroke="#9a32cd" stroke-dasharray="5,2" d="M840.44,-531.23C946.02,-539.65 1144.09,-546.01 1303,-496.5 1383.33,-471.47 1548.97,-328.75 1567,-300.5 1585.44,-271.6 1565.3,-253.55 1585,-225.5 1615.44,-182.16 1673.73,-157.3 1711.33,-145.1"/>
<polygon fill="#9a32cd" stroke="#9a32cd" points="840.46,-527.72 830.21,-530.38 839.88,-534.7 840.46,-527.72"/>
</a>
</g>
<text text-anchor="start" x="1203" y="-531" font-family="Helvetica,sans-Serif" font-size="10.00" fill="grey">m_mac_proj</text>
</g>
<!-- Node23&#45;&gt;Node17 -->
<g id="edge33_Node000017_Node000023" class="edge">
<title>Node23&#45;&gt;Node17</title>
<g id="a_edge33_Node000017_Node000023"><a xlink:title=" ">
<path fill="none" stroke="#9a32cd" stroke-dasharray="5,2" d="M1153.52,-115.42C1265.31,-116.9 1469.1,-120.5 1643,-128.5 1651.19,-128.88 1659.73,-129.34 1668.25,-129.85"/>
<polygon fill="#9a32cd" stroke="#9a32cd" points="1153.36,-111.92 1143.32,-115.29 1153.27,-118.91 1153.36,-111.92"/>
</a>
</g>
<text text-anchor="start" x="1324" y="-126" font-family="Helvetica,sans-Serif" font-size="10.00" fill="grey">m_options</text>
</g>
<!-- Node24&#45;&gt;Node1 -->
<g id="edge35_Node000001_Node000024" class="edge">
<title>Node24&#45;&gt;Node1</title>
<g id="a_edge35_Node000001_Node000024"><a xlink:title=" ">
<path fill="none" stroke="#9a32cd" stroke-dasharray="5,2" d="M1818.49,-283.31C1823.79,-281.49 1829.01,-279.55 1834,-277.5 1842.46,-274.02 1843.41,-270.64 1852,-267.5 1906.03,-247.73 1923.86,-258.91 1979,-242.5 1999.75,-236.32 2022.26,-227.31 2040.05,-219.61"/>
<polygon fill="#9a32cd" stroke="#9a32cd" points="1817.31,-280.02 1808.9,-286.46 1819.49,-286.67 1817.31,-280.02"/>
</a>
</g>
<text text-anchor="start" x="1891.5" y="-348.5" font-family="Helvetica,sans-Serif" font-size="10.00" fill="grey">m_face_x</text>
<text text-anchor="start" x="1891.5" y="-333.5" font-family="Helvetica,sans-Serif" font-size="10.00" fill="grey">m_face_y</text>
<text text-anchor="start" x="1891.5" y="-318.5" font-family="Helvetica,sans-Serif" font-size="10.00" fill="grey">m_face_z</text>
<text text-anchor="start" x="1891.5" y="-303.5" font-family="Helvetica,sans-Serif" font-size="10.00" fill="grey">m_flux_x</text>
<text text-anchor="start" x="1891.5" y="-288.5" font-family="Helvetica,sans-Serif" font-size="10.00" fill="grey">m_flux_y</text>
<text text-anchor="start" x="1891.5" y="-273.5" font-family="Helvetica,sans-Serif" font-size="10.00" fill="grey">m_flux_z</text>
</g>
<!-- Node25&#45;&gt;Node24 -->
<g id="edge36_Node000024_Node000025" class="edge">
<title>Node25&#45;&gt;Node24</title>
<g id="a_edge36_Node000024_Node000025"><a xlink:title=" ">
<path fill="none" stroke="#9a32cd" stroke-dasharray="5,2" d="M1537.27,-230.63C1570.11,-226.96 1611.56,-227.74 1643,-246.5 1656.68,-254.66 1648.41,-267.74 1661,-277.5 1666,-281.37 1671.59,-284.62 1677.45,-287.34"/>
<polygon fill="#9a32cd" stroke="#9a32cd" points="1536.41,-227.21 1526.94,-231.96 1537.3,-234.16 1536.41,-227.21"/>
</a>
</g>
<text text-anchor="start" x="1607" y="-252" font-family="Helvetica,sans-Serif" font-size="10.00" fill="grey">ptr</text>
</g>
<!-- Node26 -->
<g id="Node000026" class="node">
<title>Node26</title>
<g id="a_Node000026"><a xlink:href="structkynema__sgf_1_1pde_1_1_advection_op.html" target="_top" xlink:title=" ">
<polygon fill="white" stroke="#666666" points="1834,-107.5 1661,-107.5 1661,-77.5 1834,-77.5 1834,-107.5"/>
<text text-anchor="start" x="1669" y="-95.5" font-family="Helvetica,sans-Serif" font-size="10.00">kynema_sgf::pde::Advection</text>
<text text-anchor="middle" x="1747.5" y="-84.5" font-family="Helvetica,sans-Serif" font-size="10.00">Op&lt; PDE, Scheme, typename &gt;</text>
</a>
</g>
</g>
<!-- Node26&#45;&gt;Node1 -->
<g id="edge41_Node000001_Node000026" class="edge">
<title>Node26&#45;&gt;Node1</title>
<g id="a_edge41_Node000001_Node000026"><a xlink:title=" ">
<path fill="none" stroke="orange" stroke-dasharray="5,2" d="M1844.3,-87.09C1887.21,-88.16 1937.41,-94.42 1979,-113.5 2015.96,-130.45 2047.19,-168.19 2062.63,-189.35"/>
<polygon fill="orange" stroke="orange" points="1844.18,-83.59 1834.12,-86.93 1844.06,-90.59 1844.18,-83.59"/>
</a>
</g>
<text text-anchor="start" x="1855.5" y="-119" font-family="Helvetica,sans-Serif" font-size="10.00" fill="grey">&lt; ICNS, fvm::Godunov &gt;</text>
</g>
</g>
</svg>
