<?xml version="1.0" encoding="UTF-8" standalone="no"?>
<!DOCTYPE svg PUBLIC "-//W3C//DTD SVG 1.1//EN"
 "http://www.w3.org/Graphics/SVG/1.1/DTD/svg11.dtd">
<!-- Generated by graphviz version 2.43.0 (0)
 -->
<!-- Title: kynema_sgf::ocean_waves::ops::UpdateTargetFieldsOp&lt; WaveTheoryTrait, typename &gt; Pages: 1 -->
<svg width="658pt" height="268pt"
 viewBox="0.00 0.00 658.00 268.00" xmlns="http://www.w3.org/2000/svg" xmlns:xlink="http://www.w3.org/1999/xlink">
<g id="graph0" class="graph" transform="scale(1 1) rotate(0) translate(4 264)">
<title>kynema_sgf::ocean_waves::ops::UpdateTargetFieldsOp&lt; WaveTheoryTrait, typename &gt;</title>
<!-- Node1 -->
<g id="Node000001" class="node">
<title>Node1</title>
<g id="a_Node000001"><a xlink:title=" ">
<polygon fill="#999999" stroke="#666666" points="176,-172 0,-172 0,-131 176,-131 176,-172"/>
<text text-anchor="start" x="8" y="-160" font-family="Helvetica,sans-Serif" font-size="10.00">kynema_sgf::ocean_waves</text>
<text text-anchor="start" x="8" y="-149" font-family="Helvetica,sans-Serif" font-size="10.00">::ops::UpdateTargetFieldsOp</text>
<text text-anchor="middle" x="88" y="-138" font-family="Helvetica,sans-Serif" font-size="10.00">&lt; WaveTheoryTrait, typename &gt;</text>
</a>
</g>
</g>
<!-- Node2 -->
<g id="Node000002" class="node">
<title>Node2</title>
<g id="a_Node000002"><a xlink:href="structkynema__sgf_1_1ocean__waves_1_1ops_1_1_update_target_fields_op_3_01_linear_waves_01_4.html" target="_top" xlink:title=" ">
<polygon fill="white" stroke="#666666" points="598.5,-260 445.5,-260 445.5,-219 598.5,-219 598.5,-260"/>
<text text-anchor="start" x="453.5" y="-248" font-family="Helvetica,sans-Serif" font-size="10.00">kynema_sgf::ocean_waves</text>
<text text-anchor="start" x="453.5" y="-237" font-family="Helvetica,sans-Serif" font-size="10.00">::ops::UpdateTargetFieldsOp</text>
<text text-anchor="middle" x="522" y="-226" font-family="Helvetica,sans-Serif" font-size="10.00">&lt; LinearWaves &gt;</text>
</a>
</g>
</g>
<!-- Node1&#45;&gt;Node2 -->
<g id="edge1_Node000001_Node000002" class="edge">
<title>Node1&#45;&gt;Node2</title>
<g id="a_edge1_Node000001_Node000002"><a xlink:title=" ">
<path fill="none" stroke="orange" stroke-dasharray="5,2" d="M147.62,-175.7C162.55,-181.19 178.71,-186.56 194,-190.5 278.77,-212.34 378.59,-225.55 445.44,-232.66"/>
<polygon fill="orange" stroke="orange" points="148.59,-172.33 138,-172.09 146.13,-178.89 148.59,-172.33"/>
</a>
</g>
<text text-anchor="start" x="243" y="-229" font-family="Helvetica,sans-Serif" font-size="10.00" fill="grey">&lt; LinearWaves &gt;</text>
</g>
<!-- Node3 -->
<g id="Node000003" class="node">
<title>Node3</title>
<g id="a_Node000003"><a xlink:href="structkynema__sgf_1_1ocean__waves_1_1ops_1_1_update_target_fields_op_3_01_stokes_waves_01_4.html" target="_top" xlink:title=" ">
<polygon fill="white" stroke="#666666" points="598.5,-201 445.5,-201 445.5,-160 598.5,-160 598.5,-201"/>
<text text-anchor="start" x="453.5" y="-189" font-family="Helvetica,sans-Serif" font-size="10.00">kynema_sgf::ocean_waves</text>
<text text-anchor="start" x="453.5" y="-178" font-family="Helvetica,sans-Serif" font-size="10.00">::ops::UpdateTargetFieldsOp</text>
<text text-anchor="middle" x="522" y="-167" font-family="Helvetica,sans-Serif" font-size="10.00">&lt; StokesWaves &gt;</text>
</a>
</g>
</g>
<!-- Node1&#45;&gt;Node3 -->
<g id="edge2_Node000001_Node000003" class="edge">
<title>Node1&#45;&gt;Node3</title>
<g id="a_edge2_Node000001_Node000003"><a xlink:title=" ">
<path fill="none" stroke="orange" stroke-dasharray="5,2" d="M186.52,-158.05C264.84,-163.3 373.25,-170.58 445.16,-175.41"/>
<polygon fill="orange" stroke="orange" points="186.37,-154.53 176.16,-157.35 185.9,-161.51 186.37,-154.53"/>
</a>
</g>
<text text-anchor="start" x="241" y="-175" font-family="Helvetica,sans-Serif" font-size="10.00" fill="grey">&lt; StokesWaves &gt;</text>
</g>
<!-- Node4 -->
<g id="Node000004" class="node">
<title>Node4</title>
<g id="a_Node000004"><a xlink:href="structkynema__sgf_1_1ocean__waves_1_1ops_1_1_update_target_fields_op_3_01_w2_a_waves_01_4.html" target="_top" xlink:title=" ">
<polygon fill="white" stroke="#666666" points="598.5,-142 445.5,-142 445.5,-101 598.5,-101 598.5,-142"/>
<text text-anchor="start" x="453.5" y="-130" font-family="Helvetica,sans-Serif" font-size="10.00">kynema_sgf::ocean_waves</text>
<text text-anchor="start" x="453.5" y="-119" font-family="Helvetica,sans-Serif" font-size="10.00">::ops::UpdateTargetFieldsOp</text>
<text text-anchor="middle" x="522" y="-108" font-family="Helvetica,sans-Serif" font-size="10.00">&lt; W2AWaves &gt;</text>
</a>
</g>
</g>
<!-- Node1&#45;&gt;Node4 -->
<g id="edge3_Node000001_Node000004" class="edge">
<title>Node1&#45;&gt;Node4</title>
<g id="a_edge3_Node000001_Node000004"><a xlink:title=" ">
<path fill="none" stroke="orange" stroke-dasharray="5,2" d="M186.22,-138.25C188.84,-137.98 191.44,-137.73 194,-137.5 279.9,-129.69 378.86,-125.51 445.22,-123.41"/>
<polygon fill="orange" stroke="orange" points="185.6,-134.79 176.03,-139.33 186.34,-141.75 185.6,-134.79"/>
</a>
</g>
<text text-anchor="start" x="247" y="-143" font-family="Helvetica,sans-Serif" font-size="10.00" fill="grey">&lt; W2AWaves &gt;</text>
</g>
<!-- Node5 -->
<g id="Node000005" class="node">
<title>Node5</title>
<g id="a_Node000005"><a xlink:href="structkynema__sgf_1_1ocean__waves_1_1ops_1_1_update_target_fields_op_3_01_wave_theory_trait_00_07c3f8b0981f83298198335f40b6d709c.html" target="_top" xlink:title=" ">
<polygon fill="white" stroke="#666666" points="650,-63 394,-63 394,0 650,0 650,-63"/>
<text text-anchor="start" x="402" y="-51" font-family="Helvetica,sans-Serif" font-size="10.00">kynema_sgf::ocean_waves</text>
<text text-anchor="start" x="402" y="-40" font-family="Helvetica,sans-Serif" font-size="10.00">::ops::UpdateTargetFieldsOp</text>
<text text-anchor="start" x="402" y="-29" font-family="Helvetica,sans-Serif" font-size="10.00">&lt; WaveTheoryTrait, typename</text>
<text text-anchor="start" x="402" y="-18" font-family="Helvetica,sans-Serif" font-size="10.00"> std::enable_if_t&lt; std::is_base</text>
<text text-anchor="middle" x="522" y="-7" font-family="Helvetica,sans-Serif" font-size="10.00">_of_v&lt; RelaxZonesType, WaveTheoryTrait &gt; &gt; &gt;</text>
</a>
</g>
</g>
<!-- Node1&#45;&gt;Node5 -->
<g id="edge4_Node000001_Node000005" class="edge">
<title>Node1&#45;&gt;Node5</title>
<g id="a_edge4_Node000001_Node000005"><a xlink:title=" ">
<path fill="none" stroke="orange" stroke-dasharray="5,2" d="M107.76,-122.52C126.24,-96.82 157.02,-60.89 194,-44.5 255.94,-17.04 331.13,-12.34 393.78,-15.16"/>
<polygon fill="orange" stroke="orange" points="104.83,-120.6 101.97,-130.81 110.57,-124.61 104.83,-120.6"/>
</a>
</g>
<text text-anchor="start" x="197" y="-110" font-family="Helvetica,sans-Serif" font-size="10.00" fill="grey">&lt; WaveTheoryTrait,</text>
<text text-anchor="start" x="197" y="-95" font-family="Helvetica,sans-Serif" font-size="10.00" fill="grey">   typename std::enable</text>
<text text-anchor="start" x="197" y="-80" font-family="Helvetica,sans-Serif" font-size="10.00" fill="grey">  _if_t&lt; std::is_base_of</text>
<text text-anchor="start" x="197" y="-65" font-family="Helvetica,sans-Serif" font-size="10.00" fill="grey">  _v&lt; RelaxZonesType, WaveTheory</text>
<text text-anchor="start" x="197" y="-50" font-family="Helvetica,sans-Serif" font-size="10.00" fill="grey">  Trait &gt; &gt; &gt;</text>
</g>
</g>
</svg>
