<?xml version="1.0" encoding="UTF-8" standalone="no"?>
<!DOCTYPE svg PUBLIC "-//W3C//DTD SVG 1.1//EN"
 "http://www.w3.org/Graphics/SVG/1.1/DTD/svg11.dtd">
<!-- Generated by graphviz version 2.43.0 (0)
 -->
<!-- Title: kynema_sgf::pde::DiffusionOp&lt; ICNS, Scheme &gt; Pages: 1 -->
<svg width="3244pt" height="644pt"
 viewBox="0.00 0.00 3244.00 644.35" xmlns="http://www.w3.org/2000/svg" xmlns:xlink="http://www.w3.org/1999/xlink">
<g id="graph0" class="graph" transform="scale(1 1) rotate(0) translate(4 640.35)">
<title>kynema_sgf::pde::DiffusionOp&lt; ICNS, Scheme &gt;</title>
<!-- Node1 -->
<g id="Node000001" class="node">
<title>Node1</title>
<g id="a_Node000001"><a xlink:title=" ">
<polygon fill="#999999" stroke="#666666" points="3236,-428.35 3087,-428.35 3087,-398.35 3236,-398.35 3236,-428.35"/>
<text text-anchor="start" x="3095" y="-416.35" font-family="Helvetica,sans-Serif" font-size="10.00">kynema_sgf::pde::Diffusion</text>
<text text-anchor="middle" x="3161.5" y="-405.35" font-family="Helvetica,sans-Serif" font-size="10.00">Op&lt; ICNS, Scheme &gt;</text>
</a>
</g>
</g>
<!-- Node2 -->
<g id="Node000002" class="node">
<title>Node2</title>
<g id="a_Node000002"><a xlink:title=" ">
<polygon fill="white" stroke="#666666" points="2949,-450.35 2786,-450.35 2786,-420.35 2949,-420.35 2949,-450.35"/>
<text text-anchor="start" x="2794" y="-438.35" font-family="Helvetica,sans-Serif" font-size="10.00">std::unique_ptr&lt; kynema</text>
<text text-anchor="middle" x="2867.5" y="-427.35" font-family="Helvetica,sans-Serif" font-size="10.00">_sgf::pde::ICNSDiffTensorOp &gt;</text>
</a>
</g>
</g>
<!-- Node2&#45;&gt;Node1 -->
<g id="edge1_Node000001_Node000002" class="edge">
<title>Node2&#45;&gt;Node1</title>
<g id="a_edge1_Node000001_Node000002"><a xlink:title=" ">
<path fill="none" stroke="#9a32cd" stroke-dasharray="5,2" d="M2959.06,-428.53C3000.06,-425.44 3047.92,-421.83 3086.7,-418.91"/>
<polygon fill="#9a32cd" stroke="#9a32cd" points="2958.77,-425.04 2949.06,-429.28 2959.3,-432.02 2958.77,-425.04"/>
</a>
</g>
<text text-anchor="start" x="2988.5" y="-432.85" font-family="Helvetica,sans-Serif" font-size="10.00" fill="grey">m_tensor_op</text>
</g>
<!-- Node3 -->
<g id="Node000003" class="node">
<title>Node3</title>
<g id="a_Node000003"><a xlink:href="classkynema__sgf_1_1pde_1_1_i_c_n_s_diff_tensor_op.html" target="_top" xlink:title=" ">
<polygon fill="white" stroke="#666666" points="2617,-450.35 2471,-450.35 2471,-420.35 2617,-420.35 2617,-450.35"/>
<text text-anchor="start" x="2479" y="-438.35" font-family="Helvetica,sans-Serif" font-size="10.00">kynema_sgf::pde::ICNSDiff</text>
<text text-anchor="middle" x="2544" y="-427.35" font-family="Helvetica,sans-Serif" font-size="10.00">TensorOp</text>
</a>
</g>
</g>
<!-- Node3&#45;&gt;Node2 -->
<g id="edge2_Node000002_Node000003" class="edge">
<title>Node3&#45;&gt;Node2</title>
<g id="a_edge2_Node000002_Node000003"><a xlink:title=" ">
<path fill="none" stroke="#9a32cd" stroke-dasharray="5,2" d="M2627.34,-435.35C2676.03,-435.35 2737.43,-435.35 2785.83,-435.35"/>
<polygon fill="#9a32cd" stroke="#9a32cd" points="2627.15,-431.85 2617.15,-435.35 2627.15,-438.85 2627.15,-431.85"/>
</a>
</g>
<text text-anchor="start" x="2692" y="-440.85" font-family="Helvetica,sans-Serif" font-size="10.00" fill="grey">ptr</text>
</g>
<!-- Node4 -->
<g id="Node000004" class="node">
<title>Node4</title>
<g id="a_Node000004"><a xlink:href="classkynema__sgf_1_1pde_1_1_diff_solver_iface.html" target="_top" xlink:title=" ">
<polygon fill="white" stroke="#666666" points="2405,-362.35 2246,-362.35 2246,-332.35 2405,-332.35 2405,-362.35"/>
<text text-anchor="start" x="2254" y="-350.35" font-family="Helvetica,sans-Serif" font-size="10.00">kynema_sgf::pde::DiffSolver</text>
<text text-anchor="middle" x="2325.5" y="-339.35" font-family="Helvetica,sans-Serif" font-size="10.00">Iface&lt; amrex::MLTensorOp &gt;</text>
</a>
</g>
</g>
<!-- Node4&#45;&gt;Node3 -->
<g id="edge3_Node000003_Node000004" class="edge">
<title>Node4&#45;&gt;Node3</title>
<g id="a_edge3_Node000003_Node000004"><a xlink:title=" ">
<path fill="none" stroke="#63b8ff" d="M2364.68,-366.9C2389.26,-379.08 2422.09,-394.62 2452,-406.35 2464.66,-411.32 2478.54,-416.08 2491.57,-420.26"/>
<polygon fill="#63b8ff" stroke="#63b8ff" points="2366.2,-363.75 2355.69,-362.41 2363.07,-370.01 2366.2,-363.75"/>
</a>
</g>
</g>
<!-- Node5 -->
<g id="Node000005" class="node">
<title>Node5</title>
<g id="a_Node000005"><a xlink:href="structkynema__sgf_1_1pde_1_1_p_d_e_fields.html" target="_top" xlink:title=" ">
<polygon fill="white" stroke="#666666" points="1801,-186.85 1648,-186.85 1648,-167.85 1801,-167.85 1801,-186.85"/>
<text text-anchor="middle" x="1724.5" y="-174.85" font-family="Helvetica,sans-Serif" font-size="10.00">kynema_sgf::pde::PDEFields</text>
</a>
</g>
</g>
<!-- Node5&#45;&gt;Node4 -->
<g id="edge4_Node000004_Node000005" class="edge">
<title>Node5&#45;&gt;Node4</title>
<g id="a_edge4_Node000004_Node000005"><a xlink:title=" ">
<path fill="none" stroke="#9a32cd" stroke-dasharray="5,2" d="M1811.41,-174.16C1835.34,-174.43 1861.27,-175.8 1885,-179.35 2049.4,-203.95 2230.15,-295.6 2297.37,-332.16"/>
<polygon fill="#9a32cd" stroke="#9a32cd" points="1811.31,-170.66 1801.29,-174.11 1811.28,-177.66 1811.31,-170.66"/>
</a>
</g>
<text text-anchor="start" x="1949.5" y="-227.85" font-family="Helvetica,sans-Serif" font-size="10.00" fill="grey">m_pdefields</text>
</g>
<!-- Node22 -->
<g id="Node000022" class="node">
<title>Node22</title>
<g id="a_Node000022"><a xlink:href="classkynema__sgf_1_1pde_1_1_diff_solver_iface.html" target="_top" xlink:title=" ">
<polygon fill="white" stroke="#666666" points="2056,-285.35 1903,-285.35 1903,-255.35 2056,-255.35 2056,-285.35"/>
<text text-anchor="start" x="1911" y="-273.35" font-family="Helvetica,sans-Serif" font-size="10.00">kynema_sgf::pde::DiffSolver</text>
<text text-anchor="middle" x="1979.5" y="-262.35" font-family="Helvetica,sans-Serif" font-size="10.00">Iface&lt; LinOp &gt;</text>
</a>
</g>
</g>
<!-- Node5&#45;&gt;Node22 -->
<g id="edge30_Node000022_Node000005" class="edge">
<title>Node5&#45;&gt;Node22</title>
<g id="a_edge30_Node000022_Node000005"><a xlink:title=" ">
<path fill="none" stroke="#9a32cd" stroke-dasharray="5,2" d="M1756.7,-191C1774.78,-198.75 1798.03,-208.44 1819,-216.35 1840.06,-224.3 1893.5,-242.23 1932.75,-255.25"/>
<polygon fill="#9a32cd" stroke="#9a32cd" points="1757.81,-187.67 1747.24,-186.92 1755.04,-194.09 1757.81,-187.67"/>
</a>
</g>
<text text-anchor="start" x="1822" y="-243.85" font-family="Helvetica,sans-Serif" font-size="10.00" fill="grey">m_pdefields</text>
</g>
<!-- Node25 -->
<g id="Node000025" class="node">
<title>Node25</title>
<g id="a_Node000025"><a xlink:href="classkynema__sgf_1_1pde_1_1_i_c_n_s_diff_scalar_op.html" target="_top" xlink:title=" ">
<polygon fill="white" stroke="#666666" points="2052.5,-455.35 1906.5,-455.35 1906.5,-425.35 2052.5,-425.35 2052.5,-455.35"/>
<text text-anchor="start" x="1914.5" y="-443.35" font-family="Helvetica,sans-Serif" font-size="10.00">kynema_sgf::pde::ICNSDiff</text>
<text text-anchor="middle" x="1979.5" y="-432.35" font-family="Helvetica,sans-Serif" font-size="10.00">ScalarOp</text>
</a>
</g>
</g>
<!-- Node5&#45;&gt;Node25 -->
<g id="edge38_Node000025_Node000005" class="edge">
<title>Node5&#45;&gt;Node25</title>
<g id="a_edge38_Node000025_Node000005"><a xlink:title=" ">
<path fill="none" stroke="#9a32cd" stroke-dasharray="5,2" d="M1748.43,-193.18C1765.43,-206.11 1787.86,-225.86 1801,-248.35 1817.86,-277.2 1796.5,-296.64 1819,-321.35 1839.91,-344.32 1858.8,-327.67 1885,-344.35 1919.93,-366.59 1951.49,-404.32 1967.48,-425.24"/>
<polygon fill="#9a32cd" stroke="#9a32cd" points="1750.24,-190.17 1740.11,-187.07 1746.1,-195.81 1750.24,-190.17"/>
</a>
</g>
<text text-anchor="start" x="1822" y="-349.85" font-family="Helvetica,sans-Serif" font-size="10.00" fill="grey">m_pdefields</text>
</g>
<!-- Node28 -->
<g id="Node000028" class="node">
<title>Node28</title>
<g id="a_Node000028"><a xlink:href="classkynema__sgf_1_1pde_1_1_i_c_n_s_diff_scalar_segregated_op.html" target="_top" xlink:title=" ">
<polygon fill="white" stroke="#666666" points="2052.5,-83.35 1906.5,-83.35 1906.5,-53.35 2052.5,-53.35 2052.5,-83.35"/>
<text text-anchor="start" x="1914.5" y="-71.35" font-family="Helvetica,sans-Serif" font-size="10.00">kynema_sgf::pde::ICNSDiff</text>
<text text-anchor="middle" x="1979.5" y="-60.35" font-family="Helvetica,sans-Serif" font-size="10.00">ScalarSegregatedOp</text>
</a>
</g>
</g>
<!-- Node5&#45;&gt;Node28 -->
<g id="edge46_Node000028_Node000005" class="edge">
<title>Node5&#45;&gt;Node28</title>
<g id="a_edge46_Node000028_Node000005"><a xlink:title=" ">
<path fill="none" stroke="#9a32cd" stroke-dasharray="5,2" d="M1791.13,-163.91C1794.57,-162.26 1797.89,-160.42 1801,-158.35 1812.1,-150.97 1808.47,-142.53 1819,-134.35 1849.54,-110.66 1889.81,-94.08 1922.24,-83.47"/>
<polygon fill="#9a32cd" stroke="#9a32cd" points="1789.66,-160.73 1781.77,-167.8 1792.35,-167.19 1789.66,-160.73"/>
</a>
</g>
<text text-anchor="start" x="1822" y="-139.85" font-family="Helvetica,sans-Serif" font-size="10.00" fill="grey">m_pdefields</text>
</g>
<!-- Node6 -->
<g id="Node000006" class="node">
<title>Node6</title>
<g id="a_Node000006"><a xlink:href="classkynema__sgf_1_1_field_repo.html" target="_top" xlink:title=" ">
<polygon fill="white" stroke="#666666" points="1194.5,-193.85 1065.5,-193.85 1065.5,-174.85 1194.5,-174.85 1194.5,-193.85"/>
<text text-anchor="middle" x="1130" y="-181.85" font-family="Helvetica,sans-Serif" font-size="10.00">kynema_sgf::FieldRepo</text>
</a>
</g>
</g>
<!-- Node6&#45;&gt;Node5 -->
<g id="edge5_Node000005_Node000006" class="edge">
<title>Node6&#45;&gt;Node5</title>
<g id="a_edge5_Node000005_Node000006"><a xlink:title=" ">
<path fill="none" stroke="#9a32cd" stroke-dasharray="5,2" d="M1204.91,-176.36C1302.39,-166.97 1479.21,-153.92 1630,-164.35 1641.04,-165.12 1652.75,-166.38 1664.02,-167.83"/>
<polygon fill="#9a32cd" stroke="#9a32cd" points="1204.48,-172.89 1194.87,-177.34 1205.16,-179.85 1204.48,-172.89"/>
</a>
</g>
<text text-anchor="start" x="1440" y="-168.85" font-family="Helvetica,sans-Serif" font-size="10.00" fill="grey">repo</text>
</g>
<!-- Node13 -->
<g id="Node000013" class="node">
<title>Node13</title>
<g id="a_Node000013"><a xlink:href="classkynema__sgf_1_1_field.html" target="_top" xlink:title=" ">
<polygon fill="white" stroke="#666666" points="1503,-231.85 1399,-231.85 1399,-212.85 1503,-212.85 1503,-231.85"/>
<text text-anchor="middle" x="1451" y="-219.85" font-family="Helvetica,sans-Serif" font-size="10.00">kynema_sgf::Field</text>
</a>
</g>
</g>
<!-- Node6&#45;&gt;Node13 -->
<g id="edge13_Node000013_Node000006" class="edge">
<title>Node6&#45;&gt;Node13</title>
<g id="a_edge13_Node000013_Node000006"><a xlink:title=" ">
<path fill="none" stroke="#9a32cd" stroke-dasharray="5,2" d="M1204.56,-191.96C1254.4,-197.27 1321.73,-204.74 1381,-212.35 1386.76,-213.09 1392.79,-213.91 1398.78,-214.74"/>
<polygon fill="#9a32cd" stroke="#9a32cd" points="1204.83,-188.47 1194.52,-190.89 1204.09,-195.43 1204.83,-188.47"/>
</a>
</g>
<text text-anchor="start" x="1281.5" y="-217.85" font-family="Helvetica,sans-Serif" font-size="10.00" fill="grey">m_repo</text>
</g>
<!-- Node7 -->
<g id="Node000007" class="node">
<title>Node7</title>
<g id="a_Node000007"><a xlink:title=" ">
<polygon fill="white" stroke="#666666" points="883.5,-199.35 761.5,-199.35 761.5,-169.35 883.5,-169.35 883.5,-199.35"/>
<text text-anchor="start" x="769.5" y="-187.35" font-family="Helvetica,sans-Serif" font-size="10.00">std::unordered_map</text>
<text text-anchor="middle" x="822.5" y="-176.35" font-family="Helvetica,sans-Serif" font-size="10.00">&lt; std::string, size_t &gt;</text>
</a>
</g>
</g>
<!-- Node7&#45;&gt;Node6 -->
<g id="edge6_Node000006_Node000007" class="edge">
<title>Node7&#45;&gt;Node6</title>
<g id="a_edge6_Node000006_Node000007"><a xlink:title=" ">
<path fill="none" stroke="#9a32cd" stroke-dasharray="5,2" d="M893.95,-184.35C945.66,-184.35 1015.31,-184.35 1065.35,-184.35"/>
<polygon fill="#9a32cd" stroke="#9a32cd" points="893.86,-180.85 883.86,-184.35 893.86,-187.85 893.86,-180.85"/>
</a>
</g>
<text text-anchor="start" x="936" y="-205.35" font-family="Helvetica,sans-Serif" font-size="10.00" fill="grey">m_fid_map</text>
<text text-anchor="start" x="936" y="-190.35" font-family="Helvetica,sans-Serif" font-size="10.00" fill="grey">m_int_fid_map</text>
</g>
<!-- Node8 -->
<g id="Node000008" class="node">
<title>Node8</title>
<g id="a_Node000008"><a xlink:title=" ">
<polygon fill="white" stroke="#666666" points="524.5,-141.85 459.5,-141.85 459.5,-122.85 524.5,-122.85 524.5,-141.85"/>
<text text-anchor="middle" x="492" y="-129.85" font-family="Helvetica,sans-Serif" font-size="10.00">std::string</text>
</a>
</g>
</g>
<!-- Node8&#45;&gt;Node7 -->
<g id="edge7_Node000007_Node000008" class="edge">
<title>Node8&#45;&gt;Node7</title>
<g id="a_edge7_Node000007_Node000008"><a xlink:title=" ">
<path fill="none" stroke="#9a32cd" stroke-dasharray="5,2" d="M534.74,-137.32C595.17,-144.6 704.05,-158.09 743,-165.35 749.2,-166.51 755.65,-167.85 762.07,-169.27"/>
<polygon fill="#9a32cd" stroke="#9a32cd" points="535.11,-133.84 524.77,-136.12 534.28,-140.79 535.11,-133.84"/>
</a>
</g>
<text text-anchor="start" x="655.5" y="-170.85" font-family="Helvetica,sans-Serif" font-size="10.00" fill="grey">keys</text>
</g>
<!-- Node8&#45;&gt;Node13 -->
<g id="edge14_Node000013_Node000008" class="edge">
<title>Node8&#45;&gt;Node13</title>
<g id="a_edge14_Node000013_Node000008"><a xlink:title=" ">
<path fill="none" stroke="#9a32cd" stroke-dasharray="5,2" d="M535.08,-132.99C644.77,-134.93 948.37,-142.15 1200,-165.35 1280.87,-172.81 1303.08,-167.46 1381,-190.35 1399.5,-195.79 1419.34,-205.43 1432.97,-212.72"/>
<polygon fill="#9a32cd" stroke="#9a32cd" points="534.84,-129.48 524.78,-132.81 534.72,-136.48 534.84,-129.48"/>
</a>
</g>
<text text-anchor="start" x="951" y="-158.85" font-family="Helvetica,sans-Serif" font-size="10.00" fill="grey">m_name</text>
</g>
<!-- Node15 -->
<g id="Node000015" class="node">
<title>Node15</title>
<g id="a_Node000015"><a xlink:href="structkynema__sgf_1_1_field_info.html" target="_top" xlink:title=" ">
<polygon fill="white" stroke="#666666" points="884,-332.85 761,-332.85 761,-313.85 884,-313.85 884,-332.85"/>
<text text-anchor="middle" x="822.5" y="-320.85" font-family="Helvetica,sans-Serif" font-size="10.00">kynema_sgf::FieldInfo</text>
</a>
</g>
</g>
<!-- Node8&#45;&gt;Node15 -->
<g id="edge17_Node000015_Node000008" class="edge">
<title>Node8&#45;&gt;Node15</title>
<g id="a_edge17_Node000015_Node000008"><a xlink:title=" ">
<path fill="none" stroke="#9a32cd" stroke-dasharray="5,2" d="M534.35,-143.26C547.72,-148.46 561.73,-155.89 572,-166.35 586.8,-181.43 573.93,-196.63 590,-210.35 643.12,-255.72 681.81,-212.65 743,-246.35 774.44,-263.67 802.04,-297.08 814.48,-313.61"/>
<polygon fill="#9a32cd" stroke="#9a32cd" points="535.38,-139.91 524.78,-139.86 533.03,-146.51 535.38,-139.91"/>
</a>
</g>
<text text-anchor="start" x="633.5" y="-251.85" font-family="Helvetica,sans-Serif" font-size="10.00" fill="grey">m_basename</text>
</g>
<!-- Node20 -->
<g id="Node000020" class="node">
<title>Node20</title>
<g id="a_Node000020"><a xlink:href="structkynema__sgf_1_1_m_l_m_g_options.html" target="_top" xlink:title=" ">
<polygon fill="white" stroke="#666666" points="1799,-149.85 1650,-149.85 1650,-130.85 1799,-130.85 1799,-149.85"/>
<text text-anchor="middle" x="1724.5" y="-137.85" font-family="Helvetica,sans-Serif" font-size="10.00">kynema_sgf::MLMGOptions</text>
</a>
</g>
</g>
<!-- Node8&#45;&gt;Node20 -->
<g id="edge26_Node000020_Node000008" class="edge">
<title>Node8&#45;&gt;Node20</title>
<g id="a_edge26_Node000020_Node000008"><a xlink:title=" ">
<path fill="none" stroke="#9a32cd" stroke-dasharray="5,2" d="M527.28,-119.17C586.39,-97.65 711.73,-57.35 821.5,-57.35 821.5,-57.35 821.5,-57.35 1452,-57.35 1501.78,-57.35 1642.04,-109.03 1699,-130.83"/>
<polygon fill="#9a32cd" stroke="#9a32cd" points="525.87,-115.96 517.7,-122.7 528.29,-122.52 525.87,-115.96"/>
</a>
</g>
<text text-anchor="start" x="1074" y="-92.85" font-family="Helvetica,sans-Serif" font-size="10.00" fill="grey">m_bottom_solver_type</text>
<text text-anchor="start" x="1074" y="-77.85" font-family="Helvetica,sans-Serif" font-size="10.00" fill="grey">m_hypre_interface</text>
<text text-anchor="start" x="1074" y="-62.85" font-family="Helvetica,sans-Serif" font-size="10.00" fill="grey">m_hypre_namespace</text>
</g>
<!-- Node9 -->
<g id="Node000009" class="node">
<title>Node9</title>
<g id="a_Node000009"><a xlink:title=" ">
<polygon fill="white" stroke="#666666" points="209.5,-57.35 105.5,-57.35 105.5,-27.35 209.5,-27.35 209.5,-57.35"/>
<text text-anchor="start" x="113.5" y="-45.35" font-family="Helvetica,sans-Serif" font-size="10.00">std::basic_string&lt;</text>
<text text-anchor="middle" x="157.5" y="-34.35" font-family="Helvetica,sans-Serif" font-size="10.00"> Char &gt;</text>
</a>
</g>
</g>
<!-- Node9&#45;&gt;Node8 -->
<g id="edge8_Node000008_Node000009" class="edge">
<title>Node9&#45;&gt;Node8</title>
<g id="a_edge8_Node000008_Node000009"><a xlink:title=" ">
<path fill="none" stroke="#63b8ff" d="M219.78,-46.19C268.14,-50.58 336.75,-59.88 394,-79.35 425.61,-90.11 459.06,-110.73 477.25,-122.83"/>
<polygon fill="#63b8ff" stroke="#63b8ff" points="220.05,-42.7 209.78,-45.32 219.45,-49.67 220.05,-42.7"/>
</a>
</g>
</g>
<!-- Node10 -->
<g id="Node000010" class="node">
<title>Node10</title>
<g id="a_Node000010"><a xlink:title=" ">
<polygon fill="white" stroke="#666666" points="549,-205.35 435,-205.35 435,-175.35 549,-175.35 549,-205.35"/>
<text text-anchor="start" x="443" y="-193.35" font-family="Helvetica,sans-Serif" font-size="10.00">std::unordered_map</text>
<text text-anchor="middle" x="492" y="-182.35" font-family="Helvetica,sans-Serif" font-size="10.00">&lt; K, T &gt;</text>
</a>
</g>
</g>
<!-- Node10&#45;&gt;Node7 -->
<g id="edge9_Node000007_Node000010" class="edge">
<title>Node10&#45;&gt;Node7</title>
<g id="a_edge9_Node000007_Node000010"><a xlink:title=" ">
<path fill="none" stroke="orange" stroke-dasharray="5,2" d="M559.45,-189.14C618.6,-188.06 704.35,-186.49 761.46,-185.45"/>
<polygon fill="orange" stroke="orange" points="559.03,-185.65 549.1,-189.33 559.16,-192.64 559.03,-185.65"/>
</a>
</g>
<text text-anchor="start" x="613.5" y="-194.85" font-family="Helvetica,sans-Serif" font-size="10.00" fill="grey">&lt; std::string, size_t &gt;</text>
</g>
<!-- Node11 -->
<g id="Node000011" class="node">
<title>Node11</title>
<g id="a_Node000011"><a xlink:title=" ">
<polygon fill="white" stroke="#666666" points="172,-199.85 143,-199.85 143,-180.85 172,-180.85 172,-199.85"/>
<text text-anchor="middle" x="157.5" y="-187.85" font-family="Helvetica,sans-Serif" font-size="10.00">K</text>
</a>
</g>
</g>
<!-- Node11&#45;&gt;Node10 -->
<g id="edge10_Node000010_Node000011" class="edge">
<title>Node11&#45;&gt;Node10</title>
<g id="a_edge10_Node000010_Node000011"><a xlink:title=" ">
<path fill="none" stroke="#9a32cd" stroke-dasharray="5,2" d="M182.38,-190.35C234.77,-190.35 361.02,-190.35 434.8,-190.35"/>
<polygon fill="#9a32cd" stroke="#9a32cd" points="182.36,-186.85 172.36,-190.35 182.36,-193.85 182.36,-186.85"/>
</a>
</g>
<text text-anchor="start" x="310" y="-195.85" font-family="Helvetica,sans-Serif" font-size="10.00" fill="grey">keys</text>
</g>
<!-- Node12 -->
<g id="Node000012" class="node">
<title>Node12</title>
<g id="a_Node000012"><a xlink:title=" ">
<polygon fill="white" stroke="#666666" points="29,-294.85 0,-294.85 0,-275.85 29,-275.85 29,-294.85"/>
<text text-anchor="middle" x="14.5" y="-282.85" font-family="Helvetica,sans-Serif" font-size="10.00">T</text>
</a>
</g>
</g>
<!-- Node12&#45;&gt;Node10 -->
<g id="edge11_Node000010_Node000012" class="edge">
<title>Node12&#45;&gt;Node10</title>
<g id="a_edge11_Node000010_Node000012"><a xlink:title=" ">
<path fill="none" stroke="#9a32cd" stroke-dasharray="5,2" d="M19.32,-265.67C26.35,-235.48 44.5,-178.71 85,-154.35 206.13,-81.5 385.41,-144.25 458.35,-175.35"/>
<polygon fill="#9a32cd" stroke="#9a32cd" points="15.82,-265.3 17.14,-275.81 22.66,-266.77 15.82,-265.3"/>
</a>
</g>
<text text-anchor="start" x="134.5" y="-159.85" font-family="Helvetica,sans-Serif" font-size="10.00" fill="grey">elements</text>
</g>
<!-- Node18 -->
<g id="Node000018" class="node">
<title>Node18</title>
<g id="a_Node000018"><a xlink:title=" ">
<polygon fill="white" stroke="#666666" points="216.5,-453.85 98.5,-453.85 98.5,-434.85 216.5,-434.85 216.5,-453.85"/>
<text text-anchor="middle" x="157.5" y="-441.85" font-family="Helvetica,sans-Serif" font-size="10.00">std::unique_ptr&lt; T &gt;</text>
</a>
</g>
</g>
<!-- Node12&#45;&gt;Node18 -->
<g id="edge21_Node000018_Node000012" class="edge">
<title>Node12&#45;&gt;Node18</title>
<g id="a_edge21_Node000018_Node000012"><a xlink:title=" ">
<path fill="none" stroke="#9a32cd" stroke-dasharray="5,2" d="M31.11,-302.96C60.92,-336.57 125.01,-408.84 148.04,-434.81"/>
<polygon fill="#9a32cd" stroke="#9a32cd" points="33.57,-300.46 24.32,-295.3 28.34,-305.1 33.57,-300.46"/>
</a>
</g>
<text text-anchor="start" x="50" y="-346.85" font-family="Helvetica,sans-Serif" font-size="10.00" fill="grey">ptr</text>
</g>
<!-- Node19 -->
<g id="Node000019" class="node">
<title>Node19</title>
<g id="a_Node000019"><a xlink:title=" ">
<polygon fill="white" stroke="#666666" points="380,-294.85 262,-294.85 262,-275.85 380,-275.85 380,-294.85"/>
<text text-anchor="middle" x="321" y="-282.85" font-family="Helvetica,sans-Serif" font-size="10.00">std::shared_ptr&lt; T &gt;</text>
</a>
</g>
</g>
<!-- Node12&#45;&gt;Node19 -->
<g id="edge23_Node000019_Node000012" class="edge">
<title>Node12&#45;&gt;Node19</title>
<g id="a_edge23_Node000019_Node000012"><a xlink:title=" ">
<path fill="none" stroke="#9a32cd" stroke-dasharray="5,2" d="M39.63,-285.35C87.27,-285.35 194.62,-285.35 261.8,-285.35"/>
<polygon fill="#9a32cd" stroke="#9a32cd" points="39.38,-281.85 29.37,-285.35 39.37,-288.85 39.38,-281.85"/>
</a>
</g>
<text text-anchor="start" x="50" y="-290.85" font-family="Helvetica,sans-Serif" font-size="10.00" fill="grey">ptr</text>
</g>
<!-- Node13&#45;&gt;Node4 -->
<g id="edge24_Node000004_Node000013" class="edge">
<title>Node13&#45;&gt;Node4</title>
<g id="a_edge24_Node000004_Node000013"><a xlink:title=" ">
<path fill="none" stroke="#9a32cd" stroke-dasharray="5,2" d="M1468.13,-239.47C1481.23,-252.44 1500.79,-269.78 1521,-280.35 1642.6,-344 1682.96,-343.19 1819,-361.35 1968.9,-381.36 2145.93,-368.11 2245.72,-357.29"/>
<polygon fill="#9a32cd" stroke="#9a32cd" points="1470.36,-236.75 1460.85,-232.06 1465.36,-241.65 1470.36,-236.75"/>
</a>
</g>
<text text-anchor="start" x="1826" y="-373.85" font-family="Helvetica,sans-Serif" font-size="10.00" fill="grey">m_density</text>
</g>
<!-- Node13&#45;&gt;Node5 -->
<g id="edge12_Node000005_Node000013" class="edge">
<title>Node13&#45;&gt;Node5</title>
<g id="a_edge12_Node000005_Node000013"><a xlink:title=" ">
<path fill="none" stroke="#9a32cd" stroke-dasharray="5,2" d="M1471.45,-206.16C1484.55,-196.33 1502.72,-184.68 1521,-179.35 1561.67,-167.5 1608.92,-166.36 1647.55,-168.48"/>
<polygon fill="#9a32cd" stroke="#9a32cd" points="1468.97,-203.66 1463.25,-212.58 1473.28,-209.17 1468.97,-203.66"/>
</a>
</g>
<text text-anchor="start" x="1549.5" y="-244.85" font-family="Helvetica,sans-Serif" font-size="10.00" fill="grey">conv_term</text>
<text text-anchor="start" x="1549.5" y="-229.85" font-family="Helvetica,sans-Serif" font-size="10.00" fill="grey">diff_term</text>
<text text-anchor="start" x="1549.5" y="-214.85" font-family="Helvetica,sans-Serif" font-size="10.00" fill="grey">field</text>
<text text-anchor="start" x="1549.5" y="-199.85" font-family="Helvetica,sans-Serif" font-size="10.00" fill="grey">mueff</text>
<text text-anchor="start" x="1549.5" y="-184.85" font-family="Helvetica,sans-Serif" font-size="10.00" fill="grey">src_term</text>
</g>
<!-- Node13&#45;&gt;Node22 -->
<g id="edge31_Node000022_Node000013" class="edge">
<title>Node13&#45;&gt;Node22</title>
<g id="a_edge31_Node000022_Node000013"><a xlink:title=" ">
<path fill="none" stroke="#9a32cd" stroke-dasharray="5,2" d="M1475.32,-236.97C1488.26,-244.26 1504.94,-252.35 1521,-256.35 1652.08,-289.02 1810.82,-284.47 1902.68,-277.73"/>
<polygon fill="#9a32cd" stroke="#9a32cd" points="1477.03,-233.91 1466.63,-231.88 1473.49,-239.95 1477.03,-233.91"/>
</a>
</g>
<text text-anchor="start" x="1698.5" y="-288.85" font-family="Helvetica,sans-Serif" font-size="10.00" fill="grey">m_density</text>
</g>
<!-- Node13&#45;&gt;Node25 -->
<g id="edge39_Node000025_Node000013" class="edge">
<title>Node13&#45;&gt;Node25</title>
<g id="a_edge39_Node000025_Node000013"><a xlink:title=" ">
<path fill="none" stroke="#9a32cd" stroke-dasharray="5,2" d="M1455.31,-242.21C1461.79,-274.5 1479.33,-338.01 1521,-370.35 1633.18,-457.44 1808.54,-457.64 1906.37,-449.42"/>
<polygon fill="#9a32cd" stroke="#9a32cd" points="1458.71,-241.39 1453.46,-232.2 1451.83,-242.67 1458.71,-241.39"/>
</a>
</g>
<text text-anchor="start" x="1698.5" y="-457.85" font-family="Helvetica,sans-Serif" font-size="10.00" fill="grey">m_density</text>
</g>
<!-- Node13&#45;&gt;Node28 -->
<g id="edge47_Node000028_Node000013" class="edge">
<title>Node13&#45;&gt;Node28</title>
<g id="a_edge47_Node000028_Node000013"><a xlink:title=" ">
<path fill="none" stroke="#9a32cd" stroke-dasharray="5,2" d="M1474.69,-206.92C1483.81,-200.35 1494.22,-192.36 1503,-184.35 1511.84,-176.3 1511.41,-171.49 1521,-164.35 1634.77,-79.71 1678.85,-71.96 1819,-50.35 1850.26,-45.53 1885.15,-48.53 1914.31,-53.35"/>
<polygon fill="#9a32cd" stroke="#9a32cd" points="1472.59,-204.12 1466.44,-212.74 1476.63,-209.84 1472.59,-204.12"/>
</a>
</g>
<text text-anchor="start" x="1698.5" y="-93.85" font-family="Helvetica,sans-Serif" font-size="10.00" fill="grey">m_density</text>
</g>
<!-- Node14 -->
<g id="Node000014" class="node">
<title>Node14</title>
<g id="a_Node000014"><a xlink:title=" ">
<polygon fill="white" stroke="#666666" points="1200,-300.35 1060,-300.35 1060,-270.35 1200,-270.35 1200,-300.35"/>
<text text-anchor="start" x="1068" y="-288.35" font-family="Helvetica,sans-Serif" font-size="10.00">std::shared_ptr&lt; kynema</text>
<text text-anchor="middle" x="1130" y="-277.35" font-family="Helvetica,sans-Serif" font-size="10.00">_sgf::FieldInfo &gt;</text>
</a>
</g>
</g>
<!-- Node14&#45;&gt;Node13 -->
<g id="edge15_Node000013_Node000014" class="edge">
<title>Node14&#45;&gt;Node13</title>
<g id="a_edge15_Node000013_Node000014"><a xlink:title=" ">
<path fill="none" stroke="#9a32cd" stroke-dasharray="5,2" d="M1210.05,-269.74C1270.13,-257.87 1350.85,-241.93 1401.65,-231.9"/>
<polygon fill="#9a32cd" stroke="#9a32cd" points="1209.35,-266.31 1200.22,-271.68 1210.71,-273.18 1209.35,-266.31"/>
</a>
</g>
<text text-anchor="start" x="1282.5" y="-272.85" font-family="Helvetica,sans-Serif" font-size="10.00" fill="grey">m_info</text>
</g>
<!-- Node15&#45;&gt;Node14 -->
<g id="edge16_Node000014_Node000015" class="edge">
<title>Node15&#45;&gt;Node14</title>
<g id="a_edge16_Node000014_Node000015"><a xlink:title=" ">
<path fill="none" stroke="#9a32cd" stroke-dasharray="5,2" d="M894.39,-316.48C937.2,-312.1 992.81,-306.01 1042,-299.35 1047.76,-298.57 1053.73,-297.72 1059.71,-296.82"/>
<polygon fill="#9a32cd" stroke="#9a32cd" points="893.95,-313 884.35,-317.49 894.65,-319.97 893.95,-313"/>
</a>
</g>
<text text-anchor="start" x="965" y="-320.85" font-family="Helvetica,sans-Serif" font-size="10.00" fill="grey">ptr</text>
</g>
<!-- Node16 -->
<g id="Node000016" class="node">
<title>Node16</title>
<g id="a_Node000016"><a xlink:title=" ">
<polygon fill="white" stroke="#666666" points="572,-344.35 412,-344.35 412,-314.35 572,-314.35 572,-344.35"/>
<text text-anchor="start" x="420" y="-332.35" font-family="Helvetica,sans-Serif" font-size="10.00">std::unique_ptr&lt; kynema</text>
<text text-anchor="middle" x="492" y="-321.35" font-family="Helvetica,sans-Serif" font-size="10.00">_sgf::FieldFillPatchOpsBase &gt;</text>
</a>
</g>
</g>
<!-- Node16&#45;&gt;Node15 -->
<g id="edge18_Node000015_Node000016" class="edge">
<title>Node16&#45;&gt;Node15</title>
<g id="a_edge18_Node000015_Node000016"><a xlink:title=" ">
<path fill="none" stroke="#9a32cd" stroke-dasharray="5,2" d="M582.14,-327.72C638.81,-326.69 710.69,-325.38 760.82,-324.46"/>
<polygon fill="#9a32cd" stroke="#9a32cd" points="582.04,-324.23 572.1,-327.91 582.16,-331.22 582.04,-324.23"/>
</a>
</g>
<text text-anchor="start" x="630.5" y="-333.85" font-family="Helvetica,sans-Serif" font-size="10.00" fill="grey">m_fillpatch_op</text>
</g>
<!-- Node17 -->
<g id="Node000017" class="node">
<title>Node17</title>
<g id="a_Node000017"><a xlink:href="classkynema__sgf_1_1_field_fill_patch_ops_base.html" target="_top" xlink:title=" ">
<polygon fill="white" stroke="#666666" points="230,-344.35 85,-344.35 85,-314.35 230,-314.35 230,-344.35"/>
<text text-anchor="start" x="93" y="-332.35" font-family="Helvetica,sans-Serif" font-size="10.00">kynema_sgf::FieldFillPatch</text>
<text text-anchor="middle" x="157.5" y="-321.35" font-family="Helvetica,sans-Serif" font-size="10.00">OpsBase</text>
</a>
</g>
</g>
<!-- Node17&#45;&gt;Node16 -->
<g id="edge19_Node000016_Node000017" class="edge">
<title>Node17&#45;&gt;Node16</title>
<g id="a_edge19_Node000016_Node000017"><a xlink:title=" ">
<path fill="none" stroke="#9a32cd" stroke-dasharray="5,2" d="M240.48,-329.35C292.75,-329.35 360.12,-329.35 411.83,-329.35"/>
<polygon fill="#9a32cd" stroke="#9a32cd" points="240.24,-325.85 230.24,-329.35 240.24,-332.85 240.24,-325.85"/>
</a>
</g>
<text text-anchor="start" x="314" y="-334.85" font-family="Helvetica,sans-Serif" font-size="10.00" fill="grey">ptr</text>
</g>
<!-- Node18&#45;&gt;Node2 -->
<g id="edge35_Node000002_Node000018" class="edge">
<title>Node18&#45;&gt;Node2</title>
<g id="a_edge35_Node000002_Node000018"><a xlink:title=" ">
<path fill="none" stroke="orange" stroke-dasharray="5,2" d="M189.97,-457.87C248.23,-481.62 377.31,-528.35 491,-528.35 491,-528.35 491,-528.35 1300.5,-528.35 1545.61,-528.35 1605.89,-561.35 1851,-561.35 1851,-561.35 1851,-561.35 2545,-561.35 2665.2,-561.35 2794.33,-484.06 2844.67,-450.55"/>
<polygon fill="orange" stroke="orange" points="191.17,-454.57 180.59,-453.99 188.49,-461.04 191.17,-454.57"/>
</a>
</g>
<text text-anchor="start" x="1524.5" y="-571.35" font-family="Helvetica,sans-Serif" font-size="10.00" fill="grey">&lt; kynema_sgf::pde::</text>
<text text-anchor="start" x="1524.5" y="-556.35" font-family="Helvetica,sans-Serif" font-size="10.00" fill="grey">  ICNSDiffTensorOp &gt;</text>
</g>
<!-- Node18&#45;&gt;Node16 -->
<g id="edge20_Node000016_Node000018" class="edge">
<title>Node18&#45;&gt;Node16</title>
<g id="a_edge20_Node000016_Node000018"><a xlink:title=" ">
<path fill="none" stroke="orange" stroke-dasharray="5,2" d="M175.35,-427.56C192.24,-411.77 219.74,-388.74 248,-376.35 308.37,-349.9 329.34,-363.11 394,-350.35 403.47,-348.49 413.43,-346.43 423.23,-344.36"/>
<polygon fill="orange" stroke="orange" points="172.75,-425.21 167.95,-434.66 177.59,-430.26 172.75,-425.21"/>
</a>
</g>
<text text-anchor="start" x="251" y="-397.35" font-family="Helvetica,sans-Serif" font-size="10.00" fill="grey">&lt; kynema_sgf::FieldFillPatch</text>
<text text-anchor="start" x="251" y="-382.35" font-family="Helvetica,sans-Serif" font-size="10.00" fill="grey">  OpsBase &gt;</text>
</g>
<!-- Node21 -->
<g id="Node000021" class="node">
<title>Node21</title>
<g id="a_Node000021"><a xlink:title=" ">
<polygon fill="white" stroke="#666666" points="732.5,-483.35 600.5,-483.35 600.5,-453.35 732.5,-453.35 732.5,-483.35"/>
<text text-anchor="start" x="608.5" y="-471.35" font-family="Helvetica,sans-Serif" font-size="10.00">std::unique_ptr&lt; amrex</text>
<text text-anchor="middle" x="666.5" y="-460.35" font-family="Helvetica,sans-Serif" font-size="10.00">::MLTensorOp &gt;</text>
</a>
</g>
</g>
<!-- Node18&#45;&gt;Node21 -->
<g id="edge28_Node000021_Node000018" class="edge">
<title>Node18&#45;&gt;Node21</title>
<g id="a_edge28_Node000021_Node000018"><a xlink:title=" ">
<path fill="none" stroke="orange" stroke-dasharray="5,2" d="M226.75,-447.58C324.79,-452.22 504.23,-460.72 600.45,-465.27"/>
<polygon fill="orange" stroke="orange" points="226.81,-444.08 216.66,-447.11 226.48,-451.07 226.81,-444.08"/>
</a>
</g>
<text text-anchor="start" x="262" y="-460.85" font-family="Helvetica,sans-Serif" font-size="10.00" fill="grey">&lt; amrex::MLTensorOp &gt;</text>
</g>
<!-- Node23 -->
<g id="Node000023" class="node">
<title>Node23</title>
<g id="a_Node000023"><a xlink:title=" ">
<polygon fill="white" stroke="#666666" points="1042,-417.85 902,-417.85 902,-398.85 1042,-398.85 1042,-417.85"/>
<text text-anchor="middle" x="972" y="-405.85" font-family="Helvetica,sans-Serif" font-size="10.00">std::unique_ptr&lt; LinOp &gt;</text>
</a>
</g>
</g>
<!-- Node18&#45;&gt;Node23 -->
<g id="edge34_Node000023_Node000018" class="edge">
<title>Node18&#45;&gt;Node23</title>
<g id="a_edge34_Node000023_Node000018"><a xlink:title=" ">
<path fill="none" stroke="orange" stroke-dasharray="5,2" d="M226.8,-441.33C379.65,-434.55 747.94,-418.24 901.72,-411.42"/>
<polygon fill="orange" stroke="orange" points="226.44,-437.84 216.61,-441.78 226.75,-444.83 226.44,-437.84"/>
</a>
</g>
<text text-anchor="start" x="467" y="-438.85" font-family="Helvetica,sans-Serif" font-size="10.00" fill="grey">&lt; LinOp &gt;</text>
</g>
<!-- Node24 -->
<g id="Node000024" class="node">
<title>Node24</title>
<g id="a_Node000024"><a xlink:title=" ">
<polygon fill="white" stroke="#666666" points="2406,-619.35 2245,-619.35 2245,-589.35 2406,-589.35 2406,-619.35"/>
<text text-anchor="start" x="2253" y="-607.35" font-family="Helvetica,sans-Serif" font-size="10.00">std::unique_ptr&lt; kynema</text>
<text text-anchor="middle" x="2325.5" y="-596.35" font-family="Helvetica,sans-Serif" font-size="10.00">_sgf::pde::ICNSDiffScalarOp &gt;</text>
</a>
</g>
</g>
<!-- Node18&#45;&gt;Node24 -->
<g id="edge43_Node000024_Node000018" class="edge">
<title>Node18&#45;&gt;Node24</title>
<g id="a_edge43_Node000024_Node000018"><a xlink:title=" ">
<path fill="none" stroke="orange" stroke-dasharray="5,2" d="M165.92,-463.56C178.2,-492.51 205.68,-546.65 248,-572.35 341.11,-628.9 382.07,-604.35 491,-604.35 491,-604.35 491,-604.35 1980.5,-604.35 2071.13,-604.35 2175.19,-604.35 2244.91,-604.35"/>
<polygon fill="orange" stroke="orange" points="169.1,-462.08 162.08,-454.13 162.61,-464.72 169.1,-462.08"/>
</a>
</g>
<text text-anchor="start" x="1248.5" y="-625.35" font-family="Helvetica,sans-Serif" font-size="10.00" fill="grey">&lt; kynema_sgf::pde::</text>
<text text-anchor="start" x="1248.5" y="-610.35" font-family="Helvetica,sans-Serif" font-size="10.00" fill="grey">  ICNSDiffScalarOp &gt;</text>
</g>
<!-- Node26 -->
<g id="Node000026" class="node">
<title>Node26</title>
<g id="a_Node000026"><a xlink:title=" ">
<polygon fill="white" stroke="#666666" points="1365.5,-581.35 1233.5,-581.35 1233.5,-551.35 1365.5,-551.35 1365.5,-581.35"/>
<text text-anchor="start" x="1241.5" y="-569.35" font-family="Helvetica,sans-Serif" font-size="10.00">std::unique_ptr&lt; amrex</text>
<text text-anchor="middle" x="1299.5" y="-558.35" font-family="Helvetica,sans-Serif" font-size="10.00">::MLABecLaplacian &gt;</text>
</a>
</g>
</g>
<!-- Node18&#45;&gt;Node26 -->
<g id="edge42_Node000026_Node000018" class="edge">
<title>Node18&#45;&gt;Node26</title>
<g id="a_edge42_Node000026_Node000018"><a xlink:title=" ">
<path fill="none" stroke="orange" stroke-dasharray="5,2" d="M169.32,-462.85C183.94,-485.91 212.31,-524.47 248,-542.35 345.02,-590.98 382.47,-566.35 491,-566.35 491,-566.35 491,-566.35 973,-566.35 1063.28,-566.35 1167.63,-566.35 1233.35,-566.35"/>
<polygon fill="orange" stroke="orange" points="172.12,-460.72 163.92,-454.02 166.15,-464.37 172.12,-460.72"/>
</a>
</g>
<text text-anchor="start" x="593.5" y="-571.85" font-family="Helvetica,sans-Serif" font-size="10.00" fill="grey">&lt; amrex::MLABecLaplacian &gt;</text>
</g>
<!-- Node27 -->
<g id="Node000027" class="node">
<title>Node27</title>
<g id="a_Node000027"><a xlink:title=" ">
<polygon fill="white" stroke="#666666" points="2434,-83.35 2217,-83.35 2217,-53.35 2434,-53.35 2434,-83.35"/>
<text text-anchor="start" x="2225" y="-71.35" font-family="Helvetica,sans-Serif" font-size="10.00">std::unique_ptr&lt; kynema</text>
<text text-anchor="middle" x="2325.5" y="-60.35" font-family="Helvetica,sans-Serif" font-size="10.00">_sgf::pde::ICNSDiffScalarSegregatedOp &gt;</text>
</a>
</g>
</g>
<!-- Node18&#45;&gt;Node27 -->
<g id="edge49_Node000027_Node000018" class="edge">
<title>Node18&#45;&gt;Node27</title>
<g id="a_edge49_Node000027_Node000018"><a xlink:title=" ">
<path fill="none" stroke="orange" stroke-dasharray="5,2" d="M176.43,-427.71C193.38,-410.77 217.98,-382.88 230,-353.35 258.15,-284.21 204.04,-246.69 248,-186.35 294.98,-121.87 337.17,-141.02 412,-113.35 846.84,47.39 986.4,-10.35 1450,-10.35 1450,-10.35 1450,-10.35 1980.5,-10.35 2083.91,-10.35 2202.41,-36.16 2269.87,-53.34"/>
<polygon fill="orange" stroke="orange" points="173.98,-425.2 169.24,-434.68 178.86,-430.22 173.98,-425.2"/>
</a>
</g>
<text text-anchor="start" x="1221.5" y="-31.35" font-family="Helvetica,sans-Serif" font-size="10.00" fill="grey">&lt; kynema_sgf::pde::</text>
<text text-anchor="start" x="1221.5" y="-16.35" font-family="Helvetica,sans-Serif" font-size="10.00" fill="grey">  ICNSDiffScalarSegregatedOp &gt;</text>
</g>
<!-- Node19&#45;&gt;Node14 -->
<g id="edge22_Node000014_Node000019" class="edge">
<title>Node19&#45;&gt;Node14</title>
<g id="a_edge22_Node000014_Node000019"><a xlink:title=" ">
<path fill="none" stroke="orange" stroke-dasharray="5,2" d="M390.17,-285.35C542.12,-285.35 907.22,-285.35 1059.97,-285.35"/>
<polygon fill="orange" stroke="orange" points="390.04,-281.85 380.04,-285.35 390.04,-288.85 390.04,-281.85"/>
</a>
</g>
<text text-anchor="start" x="601.5" y="-290.85" font-family="Helvetica,sans-Serif" font-size="10.00" fill="grey">&lt; kynema_sgf::FieldInfo &gt;</text>
</g>
<!-- Node20&#45;&gt;Node4 -->
<g id="edge25_Node000004_Node000020" class="edge">
<title>Node20&#45;&gt;Node4</title>
<g id="a_edge25_Node000004_Node000020"><a xlink:title=" ">
<path fill="none" stroke="#9a32cd" stroke-dasharray="5,2" d="M1809.41,-137.57C1877.01,-137.32 1973.98,-141.46 2056,-162.35 2123.83,-179.63 2141.06,-189.08 2199,-228.35 2244.98,-259.52 2290.05,-307.78 2311.51,-332.16"/>
<polygon fill="#9a32cd" stroke="#9a32cd" points="1809.21,-134.07 1799.23,-137.65 1809.26,-141.07 1809.21,-134.07"/>
</a>
</g>
<text text-anchor="start" x="1953.5" y="-167.85" font-family="Helvetica,sans-Serif" font-size="10.00" fill="grey">m_options</text>
</g>
<!-- Node20&#45;&gt;Node22 -->
<g id="edge32_Node000022_Node000020" class="edge">
<title>Node20&#45;&gt;Node22</title>
<g id="a_edge32_Node000022_Node000020"><a xlink:title=" ">
<path fill="none" stroke="#9a32cd" stroke-dasharray="5,2" d="M1781.19,-152.42C1787.92,-154.23 1794.65,-156.22 1801,-158.35 1839.67,-171.36 1851.65,-171.86 1885,-195.35 1894.51,-202.05 1894.3,-206.64 1903,-214.35 1919.85,-229.29 1940.48,-244.4 1955.91,-255.15"/>
<polygon fill="#9a32cd" stroke="#9a32cd" points="1781.95,-149 1771.39,-149.89 1780.2,-155.78 1781.95,-149"/>
</a>
</g>
<text text-anchor="start" x="1826" y="-200.85" font-family="Helvetica,sans-Serif" font-size="10.00" fill="grey">m_options</text>
</g>
<!-- Node20&#45;&gt;Node25 -->
<g id="edge40_Node000025_Node000020" class="edge">
<title>Node20&#45;&gt;Node25</title>
<g id="a_edge40_Node000025_Node000020"><a xlink:title=" ">
<path fill="none" stroke="#9a32cd" stroke-dasharray="5,2" d="M1798.55,-155.96C1799.4,-156.72 1800.21,-157.52 1801,-158.35 1832.3,-191.51 1793.42,-221.61 1819,-259.35 1838.37,-287.94 1860.18,-276.34 1885,-300.35 1924.91,-338.97 1957.08,-397.38 1971.02,-424.93"/>
<polygon fill="#9a32cd" stroke="#9a32cd" points="1800.42,-152.99 1790.26,-149.97 1796.32,-158.66 1800.42,-152.99"/>
</a>
</g>
<text text-anchor="start" x="1826" y="-305.85" font-family="Helvetica,sans-Serif" font-size="10.00" fill="grey">m_options</text>
</g>
<!-- Node20&#45;&gt;Node28 -->
<g id="edge48_Node000028_Node000020" class="edge">
<title>Node20&#45;&gt;Node28</title>
<g id="a_edge48_Node000028_Node000020"><a xlink:title=" ">
<path fill="none" stroke="#9a32cd" stroke-dasharray="5,2" d="M1757.58,-126.42C1771.94,-119.15 1788.43,-109.27 1801,-97.35 1811.74,-87.18 1806.04,-76.48 1819,-69.35 1845.2,-54.94 1877.69,-52.51 1906.49,-54.52"/>
<polygon fill="#9a32cd" stroke="#9a32cd" points="1755.99,-123.3 1748.52,-130.82 1759.04,-129.6 1755.99,-123.3"/>
</a>
</g>
<text text-anchor="start" x="1826" y="-74.85" font-family="Helvetica,sans-Serif" font-size="10.00" fill="grey">m_options</text>
</g>
<!-- Node21&#45;&gt;Node4 -->
<g id="edge27_Node000004_Node000021" class="edge">
<title>Node21&#45;&gt;Node4</title>
<g id="a_edge27_Node000004_Node000021"><a xlink:title=" ">
<path fill="none" stroke="#9a32cd" stroke-dasharray="5,2" d="M742.84,-470.06C1013.6,-475.93 1928.05,-493.38 2056,-464.35 2150.22,-442.98 2252.48,-388.88 2298.95,-362.41"/>
<polygon fill="#9a32cd" stroke="#9a32cd" points="742.79,-466.56 732.72,-469.84 742.64,-473.56 742.79,-466.56"/>
</a>
</g>
<text text-anchor="start" x="1427" y="-502.35" font-family="Helvetica,sans-Serif" font-size="10.00" fill="grey">m_applier</text>
<text text-anchor="start" x="1427" y="-487.35" font-family="Helvetica,sans-Serif" font-size="10.00" fill="grey">m_solver</text>
</g>
<!-- Node22&#45;&gt;Node4 -->
<g id="edge29_Node000004_Node000022" class="edge">
<title>Node22&#45;&gt;Node4</title>
<g id="a_edge29_Node000004_Node000022"><a xlink:title=" ">
<path fill="none" stroke="orange" stroke-dasharray="5,2" d="M2057.44,-287.58C2117.42,-301 2199.87,-319.46 2257.23,-332.3"/>
<polygon fill="orange" stroke="orange" points="2058.17,-284.15 2047.64,-285.38 2056.64,-290.98 2058.17,-284.15"/>
</a>
</g>
<text text-anchor="start" x="2077.5" y="-323.85" font-family="Helvetica,sans-Serif" font-size="10.00" fill="grey">&lt; amrex::MLTensorOp &gt;</text>
</g>
<!-- Node23&#45;&gt;Node22 -->
<g id="edge33_Node000022_Node000023" class="edge">
<title>Node23&#45;&gt;Node22</title>
<g id="a_edge33_Node000022_Node000023"><a xlink:title=" ">
<path fill="none" stroke="#9a32cd" stroke-dasharray="5,2" d="M1052.61,-408.54C1267.92,-408.79 1848.12,-407.76 1885,-389.35 1929.67,-367.06 1959.54,-312.31 1971.97,-285.56"/>
<polygon fill="#9a32cd" stroke="#9a32cd" points="1052.33,-405.04 1042.33,-408.52 1052.32,-412.04 1052.33,-405.04"/>
</a>
</g>
<text text-anchor="start" x="1427" y="-429.35" font-family="Helvetica,sans-Serif" font-size="10.00" fill="grey">m_applier</text>
<text text-anchor="start" x="1427" y="-414.35" font-family="Helvetica,sans-Serif" font-size="10.00" fill="grey">m_solver</text>
</g>
<!-- Node24&#45;&gt;Node1 -->
<g id="edge36_Node000001_Node000024" class="edge">
<title>Node24&#45;&gt;Node1</title>
<g id="a_edge36_Node000001_Node000024"><a xlink:title=" ">
<path fill="none" stroke="#9a32cd" stroke-dasharray="5,2" d="M2416.14,-606.71C2505.24,-607.11 2645.24,-602.51 2763,-575.35 2908.23,-541.86 3069.15,-461.82 3132.61,-428.41"/>
<polygon fill="#9a32cd" stroke="#9a32cd" points="2416.09,-603.2 2406.06,-606.64 2416.04,-610.2 2416.09,-603.2"/>
</a>
</g>
<text text-anchor="start" x="2668" y="-601.85" font-family="Helvetica,sans-Serif" font-size="10.00" fill="grey">m_scalar_op</text>
</g>
<!-- Node25&#45;&gt;Node24 -->
<g id="edge37_Node000024_Node000025" class="edge">
<title>Node25&#45;&gt;Node24</title>
<g id="a_edge37_Node000024_Node000025"><a xlink:title=" ">
<path fill="none" stroke="#9a32cd" stroke-dasharray="5,2" d="M2021.57,-459.93C2091.05,-493.06 2230.3,-559.45 2292.83,-589.25"/>
<polygon fill="#9a32cd" stroke="#9a32cd" points="2022.78,-456.63 2012.25,-455.49 2019.77,-462.95 2022.78,-456.63"/>
</a>
</g>
<text text-anchor="start" x="2129.5" y="-547.85" font-family="Helvetica,sans-Serif" font-size="10.00" fill="grey">ptr</text>
</g>
<!-- Node26&#45;&gt;Node25 -->
<g id="edge41_Node000025_Node000026" class="edge">
<title>Node26&#45;&gt;Node25</title>
<g id="a_edge41_Node000025_Node000026"><a xlink:title=" ">
<path fill="none" stroke="#9a32cd" stroke-dasharray="5,2" d="M1354.39,-548.06C1398.64,-533.74 1463.21,-514.46 1521,-503.35 1680.69,-472.67 1725.2,-496.47 1885,-466.35 1899.9,-463.54 1915.88,-459.5 1930.34,-455.43"/>
<polygon fill="#9a32cd" stroke="#9a32cd" points="1353.13,-544.79 1344.71,-551.22 1355.3,-551.44 1353.13,-544.79"/>
</a>
</g>
<text text-anchor="start" x="1533.5" y="-524.35" font-family="Helvetica,sans-Serif" font-size="10.00" fill="grey">m_applier_scalar</text>
<text text-anchor="start" x="1533.5" y="-509.35" font-family="Helvetica,sans-Serif" font-size="10.00" fill="grey">m_solver_scalar</text>
</g>
<!-- Node27&#45;&gt;Node1 -->
<g id="edge44_Node000001_Node000027" class="edge">
<title>Node27&#45;&gt;Node1</title>
<g id="a_edge44_Node000001_Node000027"><a xlink:title=" ">
<path fill="none" stroke="#9a32cd" stroke-dasharray="5,2" d="M2350.07,-90.51C2413.65,-148.77 2596.39,-306.38 2781,-373.35 2882.51,-410.18 3008.61,-416.33 3086.83,-415.93"/>
<polygon fill="#9a32cd" stroke="#9a32cd" points="2352.3,-87.8 2342.57,-83.59 2347.55,-92.95 2352.3,-87.8"/>
</a>
</g>
<text text-anchor="start" x="2638" y="-370.85" font-family="Helvetica,sans-Serif" font-size="10.00" fill="grey">m_scalar_segregated_op</text>
</g>
<!-- Node28&#45;&gt;Node27 -->
<g id="edge45_Node000027_Node000028" class="edge">
<title>Node28&#45;&gt;Node27</title>
<g id="a_edge45_Node000027_Node000028"><a xlink:title=" ">
<path fill="none" stroke="#9a32cd" stroke-dasharray="5,2" d="M2062.87,-68.35C2109.03,-68.35 2167.14,-68.35 2216.86,-68.35"/>
<polygon fill="#9a32cd" stroke="#9a32cd" points="2062.61,-64.85 2052.61,-68.35 2062.61,-71.85 2062.61,-64.85"/>
</a>
</g>
<text text-anchor="start" x="2129.5" y="-73.85" font-family="Helvetica,sans-Serif" font-size="10.00" fill="grey">ptr</text>
</g>
<!-- Node29 -->
<g id="Node000029" class="node">
<title>Node29</title>
<g id="a_Node000029"><a xlink:href="structkynema__sgf_1_1pde_1_1_diffusion_op.html" target="_top" xlink:title=" ">
<polygon fill="white" stroke="#666666" points="2954,-364.35 2781,-364.35 2781,-334.35 2954,-334.35 2954,-364.35"/>
<text text-anchor="start" x="2789" y="-352.35" font-family="Helvetica,sans-Serif" font-size="10.00">kynema_sgf::pde::Diffusion</text>
<text text-anchor="middle" x="2867.5" y="-341.35" font-family="Helvetica,sans-Serif" font-size="10.00">Op&lt; PDE, Scheme, typename &gt;</text>
</a>
</g>
</g>
<!-- Node29&#45;&gt;Node1 -->
<g id="edge50_Node000001_Node000029" class="edge">
<title>Node29&#45;&gt;Node1</title>
<g id="a_edge50_Node000001_Node000029"><a xlink:title=" ">
<path fill="none" stroke="orange" stroke-dasharray="5,2" d="M2964.65,-346.27C2998.24,-347.5 3035.82,-351.51 3069,-361.35 3095.45,-369.2 3122.53,-385.88 3140.3,-398.24"/>
<polygon fill="orange" stroke="orange" points="2964.46,-342.77 2954.37,-345.98 2964.26,-349.76 2964.46,-342.77"/>
</a>
</g>
<text text-anchor="start" x="2975.5" y="-366.85" font-family="Helvetica,sans-Serif" font-size="10.00" fill="grey">&lt; ICNS, Scheme &gt;</text>
</g>
</g>
</svg>
