<?xml version="1.0" encoding="UTF-8" standalone="no"?>
<!DOCTYPE svg PUBLIC "-//W3C//DTD SVG 1.1//EN"
 "http://www.w3.org/Graphics/SVG/1.1/DTD/svg11.dtd">
<!-- Generated by graphviz version 2.43.0 (0)
 -->
<!-- Title: kynema_sgf::actuator::ops::ProcessOutputsOp&lt; TurbineKynemaFMB, SrcTrait &gt; Pages: 1 -->
<svg width="654pt" height="107pt"
 viewBox="0.00 0.00 654.00 106.50" xmlns="http://www.w3.org/2000/svg" xmlns:xlink="http://www.w3.org/1999/xlink">
<g id="graph0" class="graph" transform="scale(1 1) rotate(0) translate(4 102.5)">
<title>kynema_sgf::actuator::ops::ProcessOutputsOp&lt; TurbineKynemaFMB, SrcTrait &gt;</title>
<!-- Node1 -->
<g id="Node000001" class="node">
<title>Node1</title>
<g id="a_Node000001"><a xlink:title=" ">
<polygon fill="#999999" stroke="#666666" points="646,-68 468,-68 468,-27 646,-27 646,-68"/>
<text text-anchor="start" x="476" y="-56" font-family="Helvetica,sans-Serif" font-size="10.00">kynema_sgf::actuator</text>
<text text-anchor="start" x="476" y="-45" font-family="Helvetica,sans-Serif" font-size="10.00">::ops::ProcessOutputsOp</text>
<text text-anchor="middle" x="557" y="-34" font-family="Helvetica,sans-Serif" font-size="10.00">&lt; TurbineKynemaFMB, SrcTrait &gt;</text>
</a>
</g>
</g>
<!-- Node2 -->
<g id="Node000002" class="node">
<title>Node2</title>
<g id="a_Node000002"><a xlink:title=" ">
<polygon fill="white" stroke="#666666" points="260,-85 195,-85 195,-66 260,-66 260,-85"/>
<text text-anchor="middle" x="227.5" y="-73" font-family="Helvetica,sans-Serif" font-size="10.00">std::string</text>
</a>
</g>
</g>
<!-- Node2&#45;&gt;Node1 -->
<g id="edge1_Node000001_Node000002" class="edge">
<title>Node2&#45;&gt;Node1</title>
<g id="a_edge1_Node000001_Node000002"><a xlink:title=" ">
<path fill="none" stroke="#9a32cd" stroke-dasharray="5,2" d="M270.23,-71.93C319.76,-67.7 403.72,-60.52 467.85,-55.04"/>
<polygon fill="#9a32cd" stroke="#9a32cd" points="269.87,-68.45 260.2,-72.79 270.46,-75.43 269.87,-68.45"/>
</a>
</g>
<text text-anchor="start" x="354" y="-87.5" font-family="Helvetica,sans-Serif" font-size="10.00" fill="grey">m_nc_filename</text>
<text text-anchor="start" x="354" y="-72.5" font-family="Helvetica,sans-Serif" font-size="10.00" fill="grey">m_out_dir</text>
</g>
<!-- Node3 -->
<g id="Node000003" class="node">
<title>Node3</title>
<g id="a_Node000003"><a xlink:title=" ">
<polygon fill="white" stroke="#666666" points="104,-90.5 0,-90.5 0,-60.5 104,-60.5 104,-90.5"/>
<text text-anchor="start" x="8" y="-78.5" font-family="Helvetica,sans-Serif" font-size="10.00">std::basic_string&lt;</text>
<text text-anchor="middle" x="52" y="-67.5" font-family="Helvetica,sans-Serif" font-size="10.00"> Char &gt;</text>
</a>
</g>
</g>
<!-- Node3&#45;&gt;Node2 -->
<g id="edge2_Node000002_Node000003" class="edge">
<title>Node3&#45;&gt;Node2</title>
<g id="a_edge2_Node000002_Node000003"><a xlink:title=" ">
<path fill="none" stroke="#63b8ff" d="M114.33,-75.5C141.52,-75.5 172.36,-75.5 194.82,-75.5"/>
<polygon fill="#63b8ff" stroke="#63b8ff" points="114.12,-72 104.12,-75.5 114.12,-79 114.12,-72"/>
</a>
</g>
</g>
<!-- Node4 -->
<g id="Node000004" class="node">
<title>Node4</title>
<g id="a_Node000004"><a xlink:href="structkynema__sgf_1_1actuator_1_1ops_1_1_process_outputs_op.html" target="_top" xlink:title=" ">
<polygon fill="white" stroke="#666666" points="314,-41 141,-41 141,0 314,0 314,-41"/>
<text text-anchor="start" x="149" y="-29" font-family="Helvetica,sans-Serif" font-size="10.00">kynema_sgf::actuator</text>
<text text-anchor="start" x="149" y="-18" font-family="Helvetica,sans-Serif" font-size="10.00">::ops::ProcessOutputsOp</text>
<text text-anchor="middle" x="227.5" y="-7" font-family="Helvetica,sans-Serif" font-size="10.00">&lt; ActTrait, SrcTrait, typename &gt;</text>
</a>
</g>
</g>
<!-- Node4&#45;&gt;Node1 -->
<g id="edge3_Node000001_Node000004" class="edge">
<title>Node4&#45;&gt;Node1</title>
<g id="a_edge3_Node000001_Node000004"><a xlink:title=" ">
<path fill="none" stroke="orange" stroke-dasharray="5,2" d="M324.57,-16.01C363.62,-15.47 409.1,-16.46 450,-21.5 460.34,-22.77 471.14,-24.7 481.71,-26.94"/>
<polygon fill="orange" stroke="orange" points="324.2,-12.52 314.26,-16.2 324.32,-19.52 324.2,-12.52"/>
</a>
</g>
<text text-anchor="start" x="335" y="-42.5" font-family="Helvetica,sans-Serif" font-size="10.00" fill="grey">&lt; TurbineKynemaFMB,</text>
<text text-anchor="start" x="335" y="-27.5" font-family="Helvetica,sans-Serif" font-size="10.00" fill="grey">   SrcTrait &gt;</text>
</g>
</g>
</svg>
