<?xml version="1.0" encoding="UTF-8" standalone="no"?>
<!DOCTYPE svg PUBLIC "-//W3C//DTD SVG 1.1//EN"
 "http://www.w3.org/Graphics/SVG/1.1/DTD/svg11.dtd">
<!-- Generated by graphviz version 2.43.0 (0)
 -->
<!-- Title: kynema_sgf::pde::TurbulenceOp&lt; PDE &gt; Pages: 1 -->
<svg width="451pt" height="182pt"
 viewBox="0.00 0.00 451.00 182.00" xmlns="http://www.w3.org/2000/svg" xmlns:xlink="http://www.w3.org/1999/xlink">
<g id="graph0" class="graph" transform="scale(1 1) rotate(0) translate(4 178)">
<title>kynema_sgf::pde::TurbulenceOp&lt; PDE &gt;</title>
<!-- Node1 -->
<g id="Node000001" class="node">
<title>Node1</title>
<g id="a_Node000001"><a xlink:title=" ">
<polygon fill="#999999" stroke="#666666" points="158,-102 0,-102 0,-72 158,-72 158,-102"/>
<text text-anchor="start" x="8" y="-90" font-family="Helvetica,sans-Serif" font-size="10.00">kynema_sgf::pde::Turbulence</text>
<text text-anchor="middle" x="79" y="-79" font-family="Helvetica,sans-Serif" font-size="10.00">Op&lt; PDE &gt;</text>
</a>
</g>
</g>
<!-- Node2 -->
<g id="Node000002" class="node">
<title>Node2</title>
<g id="a_Node000002"><a xlink:href="structkynema__sgf_1_1pde_1_1_turbulence_op_3_01_i_c_n_s_01_4.html" target="_top" xlink:title=" ">
<polygon fill="white" stroke="#666666" points="443,-174 285,-174 285,-144 443,-144 443,-174"/>
<text text-anchor="start" x="293" y="-162" font-family="Helvetica,sans-Serif" font-size="10.00">kynema_sgf::pde::Turbulence</text>
<text text-anchor="middle" x="364" y="-151" font-family="Helvetica,sans-Serif" font-size="10.00">Op&lt; ICNS &gt;</text>
</a>
</g>
</g>
<!-- Node1&#45;&gt;Node2 -->
<g id="edge1_Node000001_Node000002" class="edge">
<title>Node1&#45;&gt;Node2</title>
<g id="a_edge1_Node000001_Node000002"><a xlink:title=" ">
<path fill="none" stroke="orange" stroke-dasharray="5,2" d="M125.51,-105.86C141.31,-111.92 159.26,-118.29 176,-123 211.32,-132.95 251.17,-141.04 284.98,-147.01"/>
<polygon fill="orange" stroke="orange" points="126.58,-102.52 115.99,-102.14 124.03,-109.04 126.58,-102.52"/>
</a>
</g>
<text text-anchor="start" x="198.5" y="-147.5" font-family="Helvetica,sans-Serif" font-size="10.00" fill="grey">&lt; ICNS &gt;</text>
</g>
<!-- Node3 -->
<g id="Node000003" class="node">
<title>Node3</title>
<g id="a_Node000003"><a xlink:href="structkynema__sgf_1_1pde_1_1_turbulence_op_3_01_s_d_r_01_4.html" target="_top" xlink:title=" ">
<polygon fill="white" stroke="#666666" points="443,-126 285,-126 285,-96 443,-96 443,-126"/>
<text text-anchor="start" x="293" y="-114" font-family="Helvetica,sans-Serif" font-size="10.00">kynema_sgf::pde::Turbulence</text>
<text text-anchor="middle" x="364" y="-103" font-family="Helvetica,sans-Serif" font-size="10.00">Op&lt; SDR &gt;</text>
</a>
</g>
</g>
<!-- Node1&#45;&gt;Node3 -->
<g id="edge2_Node000001_Node000003" class="edge">
<title>Node1&#45;&gt;Node3</title>
<g id="a_edge2_Node000001_Node000003"><a xlink:title=" ">
<path fill="none" stroke="orange" stroke-dasharray="5,2" d="M168.42,-94.5C205.65,-97.66 248.61,-101.3 284.68,-104.36"/>
<polygon fill="orange" stroke="orange" points="168.34,-90.98 158.08,-93.62 167.75,-97.95 168.34,-90.98"/>
</a>
</g>
<text text-anchor="start" x="200.5" y="-107.5" font-family="Helvetica,sans-Serif" font-size="10.00" fill="grey">&lt; SDR &gt;</text>
</g>
<!-- Node4 -->
<g id="Node000004" class="node">
<title>Node4</title>
<g id="a_Node000004"><a xlink:href="structkynema__sgf_1_1pde_1_1_turbulence_op_3_01_t_k_e_01_4.html" target="_top" xlink:title=" ">
<polygon fill="white" stroke="#666666" points="443,-78 285,-78 285,-48 443,-48 443,-78"/>
<text text-anchor="start" x="293" y="-66" font-family="Helvetica,sans-Serif" font-size="10.00">kynema_sgf::pde::Turbulence</text>
<text text-anchor="middle" x="364" y="-55" font-family="Helvetica,sans-Serif" font-size="10.00">Op&lt; TKE &gt;</text>
</a>
</g>
</g>
<!-- Node1&#45;&gt;Node4 -->
<g id="edge3_Node000001_Node000004" class="edge">
<title>Node1&#45;&gt;Node4</title>
<g id="a_edge3_Node000001_Node000004"><a xlink:title=" ">
<path fill="none" stroke="orange" stroke-dasharray="5,2" d="M168.21,-74.79C170.84,-74.51 173.44,-74.25 176,-74 211.61,-70.55 251.14,-68.03 284.65,-66.28"/>
<polygon fill="orange" stroke="orange" points="167.56,-71.34 158.01,-75.93 168.33,-78.3 167.56,-71.34"/>
</a>
</g>
<text text-anchor="start" x="200.5" y="-79.5" font-family="Helvetica,sans-Serif" font-size="10.00" fill="grey">&lt; TKE &gt;</text>
</g>
<!-- Node5 -->
<g id="Node000005" class="node">
<title>Node5</title>
<g id="a_Node000005"><a xlink:href="structkynema__sgf_1_1pde_1_1_turbulence_op_3_01_temperature_01_4.html" target="_top" xlink:title=" ">
<polygon fill="white" stroke="#666666" points="443,-30 285,-30 285,0 443,0 443,-30"/>
<text text-anchor="start" x="293" y="-18" font-family="Helvetica,sans-Serif" font-size="10.00">kynema_sgf::pde::Turbulence</text>
<text text-anchor="middle" x="364" y="-7" font-family="Helvetica,sans-Serif" font-size="10.00">Op&lt; Temperature &gt;</text>
</a>
</g>
</g>
<!-- Node1&#45;&gt;Node5 -->
<g id="edge4_Node000001_Node000005" class="edge">
<title>Node1&#45;&gt;Node5</title>
<g id="a_edge4_Node000001_Node000005"><a xlink:title=" ">
<path fill="none" stroke="orange" stroke-dasharray="5,2" d="M119.14,-67.77C136.25,-60.02 156.77,-51.61 176,-46 211.07,-35.77 250.88,-28.58 284.73,-23.72"/>
<polygon fill="orange" stroke="orange" points="117.62,-64.61 110.01,-71.98 120.56,-70.97 117.62,-64.61"/>
</a>
</g>
<text text-anchor="start" x="179.5" y="-51.5" font-family="Helvetica,sans-Serif" font-size="10.00" fill="grey">&lt; Temperature &gt;</text>
</g>
</g>
</svg>
