<?xml version="1.0" encoding="UTF-8" standalone="no"?>
<!DOCTYPE svg PUBLIC "-//W3C//DTD SVG 1.1//EN"
 "http://www.w3.org/Graphics/SVG/1.1/DTD/svg11.dtd">
<!-- Generated by graphviz version 2.43.0 (0)
 -->
<!-- Title: kynema_sgf::ocean_waves::W2AWavesData Pages: 1 -->
<!--zoomable 259 -->

<svg id="main" version="1.1" xmlns="http://www.w3.org/2000/svg" xmlns:xlink="http://www.w3.org/1999/xlink" xml:space="preserve" onload="init(evt)">

<style type="text/css"><![CDATA[
.node, .edge {opacity: 0.7;}
.node.selected, .edge.selected {opacity: 1;}
.edge:hover path { stroke: red; }
.edge:hover polygon { stroke: red; fill: red; }
]]></style>

<defs>
  <circle id="rim" cx="0" cy="0" r="7"/>
  <circle id="rim2" cx="0" cy="0" r="3.5"/>
  <g id="zoomPlus">
    <use xlink:href="#rim" fill="#404040"><set attributeName="fill" to="#808080" begin="zoomplus.mouseover" end="zoomplus.mouseout"/></use>
    <path d="M-4,0h8M0,-4v8" fill="none" stroke="white" stroke-width="1.5" pointer-events="none"/>
  </g>
  <g id="zoomMin">
    <use xlink:href="#rim" fill="#404040"><set attributeName="fill" to="#808080" begin="zoomminus.mouseover" end="zoomminus.mouseout"/></use>
    <path d="M-4,0h8" fill="none" stroke="white" stroke-width="1.5" pointer-events="none"/>
  </g>
  <g id="arrowUp" transform="translate(30 24)">
    <use xlink:href="#rim"/>
    <path pointer-events="none" fill="none" stroke="white" stroke-width="1.5" d="M0,-3.0v7 M-2.5,-0.5L0,-3.0L2.5,-0.5"/>
  </g>
  <g id="arrowRight" transform="rotate(90) translate(36 -43)">
    <use xlink:href="#rim"/>
    <path pointer-events="none" fill="none" stroke="white" stroke-width="1.5" d="M0,-3.0v7 M-2.5,-0.5L0,-3.0L2.5,-0.5"/>
  </g>
  <g id="arrowDown" transform="rotate(180) translate(-30 -48)">
    <use xlink:href="#rim"/>
    <path pointer-events="none" fill="none" stroke="white" stroke-width="1.5" d="M0,-3.0v7 M-2.5,-0.5L0,-3.0L2.5,-0.5"/>
  </g>
  <g id="arrowLeft" transform="rotate(270) translate(-36 17)">
    <use xlink:href="#rim"/>
    <path pointer-events="none" fill="none" stroke="white" stroke-width="1.5" d="M0,-3.0v7 M-2.5,-0.5L0,-3.0L2.5,-0.5"/>
  </g>
  <g id="resetDef">
    <use xlink:href="#rim2" fill="#404040"><set attributeName="fill" to="#808080" begin="reset.mouseover" end="reset.mouseout"/></use>
  </g>
</defs>
<script type="application/ecmascript">
var viewWidth = 884;
var viewHeight = 259;
var sectionId = 'dynsection-1';
</script>
<script type="application/ecmascript" xlink:href="svg.min.js"/>
<svg id="graph" class="graph">
<g id="viewport">
<title>kynema_sgf::ocean_waves::W2AWavesData</title>
<!-- Node1 -->
<g id="Node000001" class="node">
<title>Node1</title>
<g id="a_Node000001"><a xlink:title=" ">
<polygon fill="#999999" stroke="#666666" points="876,-171 729,-171 729,-141 876,-141 876,-171"/>
<text text-anchor="start" x="737" y="-159" font-family="Helvetica,sans-Serif" font-size="10.00">kynema_sgf::ocean_waves</text>
<text text-anchor="middle" x="802.5" y="-148" font-family="Helvetica,sans-Serif" font-size="10.00">::W2AWavesData</text>
</a>
</g>
</g>
<!-- Node2 -->
<g id="Node000002" class="node">
<title>Node2</title>
<g id="a_Node000002"><a xlink:href="structkynema__sgf_1_1ocean__waves_1_1_relax_zones_base_data.html" target="_top" xlink:title=" ">
<polygon fill="white" stroke="#666666" points="633,-251 486,-251 486,-221 633,-221 633,-251"/>
<text text-anchor="start" x="494" y="-239" font-family="Helvetica,sans-Serif" font-size="10.00">kynema_sgf::ocean_waves</text>
<text text-anchor="middle" x="559.5" y="-228" font-family="Helvetica,sans-Serif" font-size="10.00">::RelaxZonesBaseData</text>
</a>
</g>
</g>
<!-- Node2&#45;&gt;Node1 -->
<g id="edge1_Node000001_Node000002" class="edge">
<title>Node2&#45;&gt;Node1</title>
<g id="a_edge1_Node000001_Node000002"><a xlink:title=" ">
<path fill="none" stroke="#63b8ff" d="M643.1,-223.51C665.5,-218.91 689.5,-212.84 711,-205 735,-196.25 760.43,-181.98 778.2,-171.1"/>
<polygon fill="#63b8ff" stroke="#63b8ff" points="642.4,-220.08 633.27,-225.46 643.76,-226.95 642.4,-220.08"/>
</a>
</g>
</g>
<!-- Node3 -->
<g id="Node000003" class="node">
<title>Node3</title>
<g id="a_Node000003"><a xlink:title=" ">
<polygon fill="white" stroke="#666666" points="592,-202.5 527,-202.5 527,-183.5 592,-183.5 592,-202.5"/>
<text text-anchor="middle" x="559.5" y="-190.5" font-family="Helvetica,sans-Serif" font-size="10.00">std::string</text>
</a>
</g>
</g>
<!-- Node3&#45;&gt;Node1 -->
<g id="edge2_Node000001_Node000003" class="edge">
<title>Node3&#45;&gt;Node1</title>
<g id="a_edge2_Node000001_Node000003"><a xlink:title=" ">
<path fill="none" stroke="#9a32cd" stroke-dasharray="5,2" d="M602.28,-189.94C632.59,-187.38 674.5,-183.15 711,-177 720.86,-175.34 731.25,-173.25 741.34,-171.04"/>
<polygon fill="#9a32cd" stroke="#9a32cd" points="601.75,-186.47 592.07,-190.77 602.32,-193.44 601.75,-186.47"/>
</a>
</g>
<text text-anchor="start" x="654" y="-189.5" font-family="Helvetica,sans-Serif" font-size="10.00" fill="grey">modes_file</text>
</g>
<!-- Node4 -->
<g id="Node000004" class="node">
<title>Node4</title>
<g id="a_Node000004"><a xlink:title=" ">
<polygon fill="white" stroke="#666666" points="317,-208 213,-208 213,-178 317,-178 317,-208"/>
<text text-anchor="start" x="221" y="-196" font-family="Helvetica,sans-Serif" font-size="10.00">std::basic_string&lt;</text>
<text text-anchor="middle" x="265" y="-185" font-family="Helvetica,sans-Serif" font-size="10.00"> Char &gt;</text>
</a>
</g>
</g>
<!-- Node4&#45;&gt;Node3 -->
<g id="edge3_Node000003_Node000004" class="edge">
<title>Node4&#45;&gt;Node3</title>
<g id="a_edge3_Node000003_Node000004"><a xlink:title=" ">
<path fill="none" stroke="#63b8ff" d="M327.53,-193C388.38,-193 479.1,-193 526.71,-193"/>
<polygon fill="#63b8ff" stroke="#63b8ff" points="327.28,-189.5 317.28,-193 327.28,-196.5 327.28,-189.5"/>
</a>
</g>
</g>
<!-- Node5 -->
<g id="Node000005" class="node">
<title>Node5</title>
<g id="a_Node000005"><a xlink:title=" ">
<polygon fill="white" stroke="#666666" points="631,-127 488,-127 488,-97 631,-97 631,-127"/>
<text text-anchor="start" x="496" y="-115" font-family="Helvetica,sans-Serif" font-size="10.00">std::vector&lt; std::complex</text>
<text text-anchor="middle" x="559.5" y="-104" font-family="Helvetica,sans-Serif" font-size="10.00">&lt; amrex::Real &gt; &gt;</text>
</a>
</g>
</g>
<!-- Node5&#45;&gt;Node1 -->
<g id="edge4_Node000001_Node000005" class="edge">
<title>Node5&#45;&gt;Node1</title>
<g id="a_edge4_Node000001_Node000005"><a xlink:title=" ">
<path fill="none" stroke="#9a32cd" stroke-dasharray="5,2" d="M641.62,-104.47C664.31,-104.25 688.83,-105.79 711,-111 735.43,-116.74 760.8,-130.11 778.45,-140.79"/>
<polygon fill="#9a32cd" stroke="#9a32cd" points="641.25,-100.98 631.33,-104.69 641.4,-107.98 641.25,-100.98"/>
</a>
</g>
<text text-anchor="start" x="665" y="-162" font-family="Helvetica,sans-Serif" font-size="10.00" fill="grey">c_mFS</text>
<text text-anchor="start" x="665" y="-147" font-family="Helvetica,sans-Serif" font-size="10.00" fill="grey">c_mX</text>
<text text-anchor="start" x="665" y="-132" font-family="Helvetica,sans-Serif" font-size="10.00" fill="grey">c_mY</text>
<text text-anchor="start" x="665" y="-117" font-family="Helvetica,sans-Serif" font-size="10.00" fill="grey">c_mZ</text>
</g>
<!-- Node6 -->
<g id="Node000006" class="node">
<title>Node6</title>
<g id="a_Node000006"><a xlink:title=" ">
<polygon fill="white" stroke="#666666" points="326,-127 204,-127 204,-97 326,-97 326,-127"/>
<text text-anchor="start" x="212" y="-115" font-family="Helvetica,sans-Serif" font-size="10.00">std::complex&lt; amrex</text>
<text text-anchor="middle" x="265" y="-104" font-family="Helvetica,sans-Serif" font-size="10.00">::Real &gt;</text>
</a>
</g>
</g>
<!-- Node6&#45;&gt;Node5 -->
<g id="edge5_Node000005_Node000006" class="edge">
<title>Node6&#45;&gt;Node5</title>
<g id="a_edge5_Node000005_Node000006"><a xlink:title=" ">
<path fill="none" stroke="#9a32cd" stroke-dasharray="5,2" d="M336.41,-112C382.25,-112 441.85,-112 487.77,-112"/>
<polygon fill="#9a32cd" stroke="#9a32cd" points="336.25,-108.5 326.25,-112 336.25,-115.5 336.25,-108.5"/>
</a>
</g>
<text text-anchor="start" x="383" y="-117.5" font-family="Helvetica,sans-Serif" font-size="10.00" fill="grey">elements</text>
</g>
<!-- Node7 -->
<g id="Node000007" class="node">
<title>Node7</title>
<g id="a_Node000007"><a xlink:title=" ">
<polygon fill="white" stroke="#666666" points="80,-121.5 0,-121.5 0,-102.5 80,-102.5 80,-121.5"/>
<text text-anchor="middle" x="40" y="-109.5" font-family="Helvetica,sans-Serif" font-size="10.00">std::complex</text>
</a>
</g>
</g>
<!-- Node7&#45;&gt;Node6 -->
<g id="edge6_Node000006_Node000007" class="edge">
<title>Node7&#45;&gt;Node6</title>
<g id="a_edge6_Node000006_Node000007"><a xlink:title=" ">
<path fill="none" stroke="orange" stroke-dasharray="5,2" d="M90.13,-112C123.65,-112 168.27,-112 203.92,-112"/>
<polygon fill="orange" stroke="orange" points="90.1,-108.5 80.1,-112 90.1,-115.5 90.1,-108.5"/>
</a>
</g>
<text text-anchor="start" x="101" y="-117.5" font-family="Helvetica,sans-Serif" font-size="10.00" fill="grey">&lt; amrex::Real &gt;</text>
</g>
<!-- Node8 -->
<g id="Node000008" class="node">
<title>Node8</title>
<g id="a_Node000008"><a xlink:title=" ">
<polygon fill="white" stroke="#666666" points="313.5,-46.5 216.5,-46.5 216.5,-27.5 313.5,-27.5 313.5,-46.5"/>
<text text-anchor="middle" x="265" y="-34.5" font-family="Helvetica,sans-Serif" font-size="10.00">std::vector&lt; T &gt;</text>
</a>
</g>
</g>
<!-- Node8&#45;&gt;Node5 -->
<g id="edge7_Node000005_Node000008" class="edge">
<title>Node8&#45;&gt;Node5</title>
<g id="a_edge7_Node000005_Node000008"><a xlink:title=" ">
<path fill="none" stroke="orange" stroke-dasharray="5,2" d="M323.57,-45.16C364.36,-51.66 420.12,-61.99 468,-76 487.31,-81.65 508.23,-89.83 525.08,-96.96"/>
<polygon fill="orange" stroke="orange" points="323.96,-41.68 313.54,-43.59 322.88,-48.6 323.96,-41.68"/>
</a>
</g>
<text text-anchor="start" x="347" y="-97" font-family="Helvetica,sans-Serif" font-size="10.00" fill="grey">&lt; std::complex&lt; amrex</text>
<text text-anchor="start" x="347" y="-82" font-family="Helvetica,sans-Serif" font-size="10.00" fill="grey">  ::Real &gt; &gt;</text>
</g>
<!-- Node10 -->
<g id="Node000010" class="node">
<title>Node10</title>
<g id="a_Node000010"><a xlink:title=" ">
<polygon fill="white" stroke="#666666" points="615,-30 504,-30 504,0 615,0 615,-30"/>
<text text-anchor="start" x="512" y="-18" font-family="Helvetica,sans-Serif" font-size="10.00">std::vector&lt; amrex</text>
<text text-anchor="middle" x="559.5" y="-7" font-family="Helvetica,sans-Serif" font-size="10.00">::Real &gt;</text>
</a>
</g>
</g>
<!-- Node8&#45;&gt;Node10 -->
<g id="edge10_Node000010_Node000008" class="edge">
<title>Node8&#45;&gt;Node10</title>
<g id="a_edge10_Node000010_Node000008"><a xlink:title=" ">
<path fill="none" stroke="orange" stroke-dasharray="5,2" d="M307.84,-24.98C319.45,-22.14 332.13,-19.51 344,-18 397.94,-11.14 460.12,-11.13 503.6,-12.39"/>
<polygon fill="orange" stroke="orange" points="306.78,-21.63 297.95,-27.5 308.51,-28.42 306.78,-21.63"/>
</a>
</g>
<text text-anchor="start" x="365" y="-23.5" font-family="Helvetica,sans-Serif" font-size="10.00" fill="grey">&lt; amrex::Real &gt;</text>
</g>
<!-- Node9 -->
<g id="Node000009" class="node">
<title>Node9</title>
<g id="a_Node000009"><a xlink:title=" ">
<polygon fill="white" stroke="#666666" points="54.5,-46.5 25.5,-46.5 25.5,-27.5 54.5,-27.5 54.5,-46.5"/>
<text text-anchor="middle" x="40" y="-34.5" font-family="Helvetica,sans-Serif" font-size="10.00">T</text>
</a>
</g>
</g>
<!-- Node9&#45;&gt;Node8 -->
<g id="edge8_Node000008_Node000009" class="edge">
<title>Node9&#45;&gt;Node8</title>
<g id="a_edge8_Node000008_Node000009"><a xlink:title=" ">
<path fill="none" stroke="#9a32cd" stroke-dasharray="5,2" d="M64.63,-37C100.53,-37 169.55,-37 216.2,-37"/>
<polygon fill="#9a32cd" stroke="#9a32cd" points="64.61,-33.5 54.61,-37 64.61,-40.5 64.61,-33.5"/>
</a>
</g>
<text text-anchor="start" x="119" y="-42.5" font-family="Helvetica,sans-Serif" font-size="10.00" fill="grey">elements</text>
</g>
<!-- Node10&#45;&gt;Node1 -->
<g id="edge9_Node000001_Node000010" class="edge">
<title>Node10&#45;&gt;Node1</title>
<g id="a_edge9_Node000001_Node000010"><a xlink:title=" ">
<path fill="none" stroke="#9a32cd" stroke-dasharray="5,2" d="M625.39,-6.09C653.35,-5.27 685.42,-8.58 711,-23 757.96,-49.46 785.55,-111.62 796.29,-140.61"/>
<polygon fill="#9a32cd" stroke="#9a32cd" points="625.12,-2.6 615.29,-6.57 625.45,-9.59 625.12,-2.6"/>
</a>
</g>
<text text-anchor="start" x="662" y="-88.5" font-family="Helvetica,sans-Serif" font-size="10.00" fill="grey">r_mAdd</text>
<text text-anchor="start" x="662" y="-73.5" font-family="Helvetica,sans-Serif" font-size="10.00" fill="grey">r_mFS</text>
<text text-anchor="start" x="662" y="-58.5" font-family="Helvetica,sans-Serif" font-size="10.00" fill="grey">r_mX</text>
<text text-anchor="start" x="662" y="-43.5" font-family="Helvetica,sans-Serif" font-size="10.00" fill="grey">r_mY</text>
<text text-anchor="start" x="662" y="-28.5" font-family="Helvetica,sans-Serif" font-size="10.00" fill="grey">r_mZ</text>
</g>
</g>
</svg>

<g id="navigator" transform="translate(0 0)" fill="#404254">
  <rect fill="#f2f5e9" fill-opacity="0.5" stroke="#606060" stroke-width=".5" x="0" y="0" width="60" height="60"/>
  <use id="zoomplus" xlink:href="#zoomPlus" x="17" y="9" onmousedown="handleZoom(evt,'in')"/>
  <use id="zoomminus" xlink:href="#zoomMin" x="42" y="9" onmousedown="handleZoom(evt,'out')"/>
  <use id="reset" xlink:href="#resetDef" x="30" y="36" onmousedown="handleReset()"/>
   <use id="arrowup" xlink:href="#arrowUp" x="0" y="0" onmousedown="handlePan(0,-1)"/>
  <use id="arrowright" xlink:href="#arrowRight" x="0" y="0" onmousedown="handlePan(1,0)"/>
  <use id="arrowdown" xlink:href="#arrowDown" x="0" y="0" onmousedown="handlePan(0,1)"/>
  <use id="arrowleft" xlink:href="#arrowLeft" x="0" y="0" onmousedown="handlePan(-1,0)"/>
</g>
<svg viewBox="0 0 15 15" width="100%" height="30px" preserveAspectRatio="xMaxYMin meet">
 <g id="arrow_out" transform="scale(0.3 0.3)">
  <a xlink:href="structkynema__sgf_1_1ocean__waves_1_1_w2_a_waves_data__coll__graph_org.svg" target="_base">
   <rect id="button" ry="5" rx="5" y="6" x="6" height="38" width="38"
        fill="#f2f5e9" fill-opacity="0.5" stroke="#606060" stroke-width="1.0"/>
   <path id="arrow"
     d="M 11.500037,31.436501 C 11.940474,20.09759 22.043105,11.32322 32.158766,21.979434 L 37.068811,17.246167 C 37.068811,17.246167 37.088388,32 37.088388,32 L 22.160133,31.978069 C 22.160133,31.978069 26.997745,27.140456 26.997745,27.140456 C 18.528582,18.264221 13.291696,25.230495 11.500037,31.436501 z"
     style="fill:#404040;"/>
  </a>
 </g>
</svg>

<style type='text/css'>
<![CDATA[
[data-mouse-over-selected='false'] { opacity: 0.7; }
[data-mouse-over-selected='true']  { opacity: 1.0; }
]]>
</style>
<script type="application/ecmascript"><![CDATA[
document.addEventListener('DOMContentLoaded', (event) => {
  highlightEdges();
  highlightAdjacentNodes();
});
]]></script>
</svg>
