<?xml version="1.0" encoding="UTF-8" standalone="no"?>
<!DOCTYPE svg PUBLIC "-//W3C//DTD SVG 1.1//EN"
 "http://www.w3.org/Graphics/SVG/1.1/DTD/svg11.dtd">
<!-- Generated by graphviz version 2.43.0 (0)
 -->
<!-- Title: kynema_sgf::actuator::ComponentView Pages: 1 -->
<svg width="639pt" height="205pt"
 viewBox="0.00 0.00 639.00 205.00" xmlns="http://www.w3.org/2000/svg" xmlns:xlink="http://www.w3.org/1999/xlink">
<g id="graph0" class="graph" transform="scale(1 1) rotate(0) translate(4 201)">
<title>kynema_sgf::actuator::ComponentView</title>
<!-- Node1 -->
<g id="Node000001" class="node">
<title>Node1</title>
<g id="a_Node000001"><a xlink:title=" ">
<polygon fill="#999999" stroke="#666666" points="631,-84 509,-84 509,-54 631,-54 631,-84"/>
<text text-anchor="start" x="517" y="-72" font-family="Helvetica,sans-Serif" font-size="10.00">kynema_sgf::actuator</text>
<text text-anchor="middle" x="570" y="-61" font-family="Helvetica,sans-Serif" font-size="10.00">::ComponentView</text>
</a>
</g>
</g>
<!-- Node2 -->
<g id="Node000002" class="node">
<title>Node2</title>
<g id="a_Node000002"><a xlink:href="structkynema__sgf_1_1utils_1_1_slice.html" target="_top" xlink:title=" ">
<polygon fill="white" stroke="#666666" points="413,-148.5 286,-148.5 286,-107.5 413,-107.5 413,-148.5"/>
<text text-anchor="start" x="294" y="-136.5" font-family="Helvetica,sans-Serif" font-size="10.00">kynema_sgf::utils::</text>
<text text-anchor="start" x="294" y="-125.5" font-family="Helvetica,sans-Serif" font-size="10.00">Slice&lt; kynema_sgf::vs</text>
<text text-anchor="middle" x="349.5" y="-114.5" font-family="Helvetica,sans-Serif" font-size="10.00">::Vector &gt;</text>
</a>
</g>
</g>
<!-- Node2&#45;&gt;Node1 -->
<g id="edge1_Node000001_Node000002" class="edge">
<title>Node2&#45;&gt;Node1</title>
<g id="a_edge1_Node000001_Node000002"><a xlink:title=" ">
<path fill="none" stroke="#9a32cd" stroke-dasharray="5,2" d="M422.9,-108.45C452.26,-100.52 485.65,-91.51 513.08,-84.1"/>
<polygon fill="#9a32cd" stroke="#9a32cd" points="421.86,-105.11 413.11,-111.09 423.68,-111.87 421.86,-105.11"/>
</a>
</g>
<text text-anchor="start" x="442" y="-186" font-family="Helvetica,sans-Serif" font-size="10.00" fill="grey">epsilon</text>
<text text-anchor="start" x="442" y="-171" font-family="Helvetica,sans-Serif" font-size="10.00" fill="grey">force</text>
<text text-anchor="start" x="442" y="-156" font-family="Helvetica,sans-Serif" font-size="10.00" fill="grey">pos</text>
<text text-anchor="start" x="442" y="-141" font-family="Helvetica,sans-Serif" font-size="10.00" fill="grey">vel</text>
<text text-anchor="start" x="442" y="-126" font-family="Helvetica,sans-Serif" font-size="10.00" fill="grey">vel_pos</text>
<text text-anchor="start" x="442" y="-111" font-family="Helvetica,sans-Serif" font-size="10.00" fill="grey">vel_rel</text>
</g>
<!-- Node3 -->
<g id="Node000003" class="node">
<title>Node3</title>
<g id="a_Node000003"><a xlink:href="structkynema__sgf_1_1utils_1_1_slice.html" target="_top" xlink:title=" ">
<polygon fill="white" stroke="#666666" points="108,-84 0,-84 0,-54 108,-54 108,-84"/>
<text text-anchor="start" x="8" y="-72" font-family="Helvetica,sans-Serif" font-size="10.00">kynema_sgf::utils::</text>
<text text-anchor="middle" x="54" y="-61" font-family="Helvetica,sans-Serif" font-size="10.00">Slice&lt; T &gt;</text>
</a>
</g>
</g>
<!-- Node3&#45;&gt;Node2 -->
<g id="edge2_Node000002_Node000003" class="edge">
<title>Node3&#45;&gt;Node2</title>
<g id="a_edge2_Node000002_Node000003"><a xlink:title=" ">
<path fill="none" stroke="orange" stroke-dasharray="5,2" d="M112.71,-86.68C117.19,-87.87 121.66,-88.99 126,-90 179.44,-102.42 240.97,-112.62 285.77,-119.31"/>
<polygon fill="orange" stroke="orange" points="113.49,-83.27 102.92,-84.01 111.64,-90.02 113.49,-83.27"/>
</a>
</g>
<text text-anchor="start" x="129" y="-120.5" font-family="Helvetica,sans-Serif" font-size="10.00" fill="grey">&lt; kynema_sgf::vs::Vector &gt;</text>
</g>
<!-- Node4 -->
<g id="Node000004" class="node">
<title>Node4</title>
<g id="a_Node000004"><a xlink:href="structkynema__sgf_1_1utils_1_1_slice.html" target="_top" xlink:title=" ">
<polygon fill="white" stroke="#666666" points="413,-89.5 286,-89.5 286,-48.5 413,-48.5 413,-89.5"/>
<text text-anchor="start" x="294" y="-77.5" font-family="Helvetica,sans-Serif" font-size="10.00">kynema_sgf::utils::</text>
<text text-anchor="start" x="294" y="-66.5" font-family="Helvetica,sans-Serif" font-size="10.00">Slice&lt; kynema_sgf::vs</text>
<text text-anchor="middle" x="349.5" y="-55.5" font-family="Helvetica,sans-Serif" font-size="10.00">::Tensor &gt;</text>
</a>
</g>
</g>
<!-- Node3&#45;&gt;Node4 -->
<g id="edge4_Node000004_Node000003" class="edge">
<title>Node3&#45;&gt;Node4</title>
<g id="a_edge4_Node000004_Node000003"><a xlink:title=" ">
<path fill="none" stroke="orange" stroke-dasharray="5,2" d="M118.42,-69C167.96,-69 236.45,-69 285.81,-69"/>
<polygon fill="orange" stroke="orange" points="118.15,-65.5 108.15,-69 118.15,-72.5 118.15,-65.5"/>
</a>
</g>
<text text-anchor="start" x="129" y="-74.5" font-family="Helvetica,sans-Serif" font-size="10.00" fill="grey">&lt; kynema_sgf::vs::Tensor &gt;</text>
</g>
<!-- Node5 -->
<g id="Node000005" class="node">
<title>Node5</title>
<g id="a_Node000005"><a xlink:href="structkynema__sgf_1_1utils_1_1_slice.html" target="_top" xlink:title=" ">
<polygon fill="white" stroke="#666666" points="410.5,-30 288.5,-30 288.5,0 410.5,0 410.5,-30"/>
<text text-anchor="start" x="296.5" y="-18" font-family="Helvetica,sans-Serif" font-size="10.00">kynema_sgf::utils::</text>
<text text-anchor="middle" x="349.5" y="-7" font-family="Helvetica,sans-Serif" font-size="10.00">Slice&lt; amrex::Real &gt;</text>
</a>
</g>
</g>
<!-- Node3&#45;&gt;Node5 -->
<g id="edge6_Node000005_Node000003" class="edge">
<title>Node3&#45;&gt;Node5</title>
<g id="a_edge6_Node000005_Node000003"><a xlink:title=" ">
<path fill="none" stroke="orange" stroke-dasharray="5,2" d="M112.46,-51.27C117.02,-50.08 121.57,-48.98 126,-48 180.34,-36 243.12,-27.13 288.12,-21.63"/>
<polygon fill="orange" stroke="orange" points="111.24,-47.97 102.5,-53.95 113.07,-54.73 111.24,-47.97"/>
</a>
</g>
<text text-anchor="start" x="156" y="-53.5" font-family="Helvetica,sans-Serif" font-size="10.00" fill="grey">&lt; amrex::Real &gt;</text>
</g>
<!-- Node4&#45;&gt;Node1 -->
<g id="edge3_Node000001_Node000004" class="edge">
<title>Node4&#45;&gt;Node1</title>
<g id="a_edge3_Node000001_Node000004"><a xlink:title=" ">
<path fill="none" stroke="#9a32cd" stroke-dasharray="5,2" d="M423.15,-69C450.88,-69 482.17,-69 508.64,-69"/>
<polygon fill="#9a32cd" stroke="#9a32cd" points="423.11,-65.5 413.11,-69 423.11,-72.5 423.11,-65.5"/>
</a>
</g>
<text text-anchor="start" x="434" y="-74.5" font-family="Helvetica,sans-Serif" font-size="10.00" fill="grey">orientation</text>
</g>
<!-- Node5&#45;&gt;Node1 -->
<g id="edge5_Node000001_Node000005" class="edge">
<title>Node5&#45;&gt;Node1</title>
<g id="a_edge5_Node000001_Node000005"><a xlink:title=" ">
<path fill="none" stroke="#9a32cd" stroke-dasharray="5,2" d="M420.59,-30.99C443.11,-36.26 468.14,-42.24 491,-48 498.48,-49.88 506.35,-51.93 514.09,-53.98"/>
<polygon fill="#9a32cd" stroke="#9a32cd" points="421.3,-27.57 410.77,-28.71 419.72,-34.38 421.3,-27.57"/>
</a>
</g>
<text text-anchor="start" x="447" y="-53.5" font-family="Helvetica,sans-Serif" font-size="10.00" fill="grey">chord</text>
</g>
</g>
</svg>
