<?xml version="1.0" encoding="UTF-8" standalone="no"?>
<!DOCTYPE svg PUBLIC "-//W3C//DTD SVG 1.1//EN"
 "http://www.w3.org/Graphics/SVG/1.1/DTD/svg11.dtd">
<!-- Generated by graphviz version 2.43.0 (0)
 -->
<!-- Title: kynema_sgf::pde::ComputeRHSOp&lt; Levelset, Scheme &gt; Pages: 1 -->
<!--zoomable 278 -->

<svg id="main" version="1.1" xmlns="http://www.w3.org/2000/svg" xmlns:xlink="http://www.w3.org/1999/xlink" xml:space="preserve" onload="init(evt)">

<style type="text/css"><![CDATA[
.node, .edge {opacity: 0.7;}
.node.selected, .edge.selected {opacity: 1;}
.edge:hover path { stroke: red; }
.edge:hover polygon { stroke: red; fill: red; }
]]></style>

<defs>
  <circle id="rim" cx="0" cy="0" r="7"/>
  <circle id="rim2" cx="0" cy="0" r="3.5"/>
  <g id="zoomPlus">
    <use xlink:href="#rim" fill="#404040"><set attributeName="fill" to="#808080" begin="zoomplus.mouseover" end="zoomplus.mouseout"/></use>
    <path d="M-4,0h8M0,-4v8" fill="none" stroke="white" stroke-width="1.5" pointer-events="none"/>
  </g>
  <g id="zoomMin">
    <use xlink:href="#rim" fill="#404040"><set attributeName="fill" to="#808080" begin="zoomminus.mouseover" end="zoomminus.mouseout"/></use>
    <path d="M-4,0h8" fill="none" stroke="white" stroke-width="1.5" pointer-events="none"/>
  </g>
  <g id="arrowUp" transform="translate(30 24)">
    <use xlink:href="#rim"/>
    <path pointer-events="none" fill="none" stroke="white" stroke-width="1.5" d="M0,-3.0v7 M-2.5,-0.5L0,-3.0L2.5,-0.5"/>
  </g>
  <g id="arrowRight" transform="rotate(90) translate(36 -43)">
    <use xlink:href="#rim"/>
    <path pointer-events="none" fill="none" stroke="white" stroke-width="1.5" d="M0,-3.0v7 M-2.5,-0.5L0,-3.0L2.5,-0.5"/>
  </g>
  <g id="arrowDown" transform="rotate(180) translate(-30 -48)">
    <use xlink:href="#rim"/>
    <path pointer-events="none" fill="none" stroke="white" stroke-width="1.5" d="M0,-3.0v7 M-2.5,-0.5L0,-3.0L2.5,-0.5"/>
  </g>
  <g id="arrowLeft" transform="rotate(270) translate(-36 17)">
    <use xlink:href="#rim"/>
    <path pointer-events="none" fill="none" stroke="white" stroke-width="1.5" d="M0,-3.0v7 M-2.5,-0.5L0,-3.0L2.5,-0.5"/>
  </g>
  <g id="resetDef">
    <use xlink:href="#rim2" fill="#404040"><set attributeName="fill" to="#808080" begin="reset.mouseover" end="reset.mouseout"/></use>
  </g>
</defs>
<script type="application/ecmascript">
var viewWidth = 2088;
var viewHeight = 278;
var sectionId = 'dynsection-1';
</script>
<script type="application/ecmascript" xlink:href="svg.min.js"/>
<svg id="graph" class="graph">
<g id="viewport">
<title>kynema_sgf::pde::ComputeRHSOp&lt; Levelset, Scheme &gt;</title>
<!-- Node1 -->
<g id="Node000001" class="node">
<title>Node1</title>
<g id="a_Node000001"><a xlink:title=" ">
<polygon fill="#999999" stroke="#666666" points="2080,-93.5 1921,-93.5 1921,-63.5 2080,-63.5 2080,-93.5"/>
<text text-anchor="start" x="1929" y="-81.5" font-family="Helvetica,sans-Serif" font-size="10.00">kynema_sgf::pde::Compute</text>
<text text-anchor="middle" x="2000.5" y="-70.5" font-family="Helvetica,sans-Serif" font-size="10.00">RHSOp&lt; Levelset, Scheme &gt;</text>
</a>
</g>
</g>
<!-- Node2 -->
<g id="Node000002" class="node">
<title>Node2</title>
<g id="a_Node000002"><a xlink:href="structkynema__sgf_1_1pde_1_1_p_d_e_fields.html" target="_top" xlink:title=" ">
<polygon fill="white" stroke="#666666" points="1552,-72 1399,-72 1399,-53 1552,-53 1552,-72"/>
<text text-anchor="middle" x="1475.5" y="-60" font-family="Helvetica,sans-Serif" font-size="10.00">kynema_sgf::pde::PDEFields</text>
</a>
</g>
</g>
<!-- Node2&#45;&gt;Node1 -->
<g id="edge1_Node000001_Node000002" class="edge">
<title>Node2&#45;&gt;Node1</title>
<g id="a_edge1_Node000001_Node000002"><a xlink:title=" ">
<path fill="none" stroke="#9a32cd" stroke-dasharray="5,2" d="M1562.29,-65.12C1661.75,-68.17 1824.32,-73.14 1920.7,-76.09"/>
<polygon fill="#9a32cd" stroke="#9a32cd" points="1562.37,-61.63 1552.27,-64.82 1562.16,-68.62 1562.37,-61.63"/>
</a>
</g>
<text text-anchor="start" x="1682.5" y="-77" font-family="Helvetica,sans-Serif" font-size="10.00" fill="grey">fields</text>
</g>
<!-- Node17 -->
<g id="Node000017" class="node">
<title>Node17</title>
<g id="a_Node000017"><a xlink:href="structkynema__sgf_1_1pde_1_1_compute_r_h_s_op.html" target="_top" xlink:title=" ">
<polygon fill="white" stroke="#666666" points="1770,-127.5 1621,-127.5 1621,-97.5 1770,-97.5 1770,-127.5"/>
<text text-anchor="start" x="1629" y="-115.5" font-family="Helvetica,sans-Serif" font-size="10.00">kynema_sgf::pde::Compute</text>
<text text-anchor="middle" x="1695.5" y="-104.5" font-family="Helvetica,sans-Serif" font-size="10.00">RHSOp&lt; PDE, Scheme &gt;</text>
</a>
</g>
</g>
<!-- Node2&#45;&gt;Node17 -->
<g id="edge22_Node000017_Node000002" class="edge">
<title>Node2&#45;&gt;Node17</title>
<g id="a_edge22_Node000017_Node000002"><a xlink:title=" ">
<path fill="none" stroke="#9a32cd" stroke-dasharray="5,2" d="M1527.9,-74.29C1558.02,-81.2 1596.38,-90 1628.7,-97.41"/>
<polygon fill="#9a32cd" stroke="#9a32cd" points="1528.55,-70.85 1518.02,-72.02 1526.98,-77.67 1528.55,-70.85"/>
</a>
</g>
<text text-anchor="start" x="1573.5" y="-96" font-family="Helvetica,sans-Serif" font-size="10.00" fill="grey">fields</text>
</g>
<!-- Node3 -->
<g id="Node000003" class="node">
<title>Node3</title>
<g id="a_Node000003"><a xlink:href="classkynema__sgf_1_1_field_repo.html" target="_top" xlink:title=" ">
<polygon fill="white" stroke="#666666" points="1116.5,-44 987.5,-44 987.5,-25 1116.5,-25 1116.5,-44"/>
<text text-anchor="middle" x="1052" y="-32" font-family="Helvetica,sans-Serif" font-size="10.00">kynema_sgf::FieldRepo</text>
</a>
</g>
</g>
<!-- Node3&#45;&gt;Node2 -->
<g id="edge2_Node000002_Node000003" class="edge">
<title>Node3&#45;&gt;Node2</title>
<g id="a_edge2_Node000002_Node000003"><a xlink:title=" ">
<path fill="none" stroke="#9a32cd" stroke-dasharray="5,2" d="M1126.92,-37.98C1193.43,-41.3 1293.82,-46.78 1381,-53.5 1386.85,-53.95 1392.91,-54.45 1399,-54.98"/>
<polygon fill="#9a32cd" stroke="#9a32cd" points="1126.7,-34.46 1116.54,-37.46 1126.36,-41.45 1126.7,-34.46"/>
</a>
</g>
<text text-anchor="start" x="1242" y="-54" font-family="Helvetica,sans-Serif" font-size="10.00" fill="grey">repo</text>
</g>
<!-- Node10 -->
<g id="Node000010" class="node">
<title>Node10</title>
<g id="a_Node000010"><a xlink:href="classkynema__sgf_1_1_field.html" target="_top" xlink:title=" ">
<polygon fill="white" stroke="#666666" points="1305,-104 1201,-104 1201,-85 1305,-85 1305,-104"/>
<text text-anchor="middle" x="1253" y="-92" font-family="Helvetica,sans-Serif" font-size="10.00">kynema_sgf::Field</text>
</a>
</g>
</g>
<!-- Node3&#45;&gt;Node10 -->
<g id="edge10_Node000010_Node000003" class="edge">
<title>Node3&#45;&gt;Node10</title>
<g id="a_edge10_Node000010_Node000003"><a xlink:title=" ">
<path fill="none" stroke="#9a32cd" stroke-dasharray="5,2" d="M1117.01,-46.08C1138.26,-50.64 1161.88,-56.48 1183,-63.5 1200.57,-69.34 1219.72,-78.15 1233.38,-84.89"/>
<polygon fill="#9a32cd" stroke="#9a32cd" points="1117.62,-42.63 1107.11,-44.02 1116.19,-49.49 1117.62,-42.63"/>
</a>
</g>
<text text-anchor="start" x="1143.5" y="-69" font-family="Helvetica,sans-Serif" font-size="10.00" fill="grey">m_repo</text>
</g>
<!-- Node4 -->
<g id="Node000004" class="node">
<title>Node4</title>
<g id="a_Node000004"><a xlink:title=" ">
<polygon fill="white" stroke="#666666" points="866.5,-49.5 744.5,-49.5 744.5,-19.5 866.5,-19.5 866.5,-49.5"/>
<text text-anchor="start" x="752.5" y="-37.5" font-family="Helvetica,sans-Serif" font-size="10.00">std::unordered_map</text>
<text text-anchor="middle" x="805.5" y="-26.5" font-family="Helvetica,sans-Serif" font-size="10.00">&lt; std::string, size_t &gt;</text>
</a>
</g>
</g>
<!-- Node4&#45;&gt;Node3 -->
<g id="edge3_Node000003_Node000004" class="edge">
<title>Node4&#45;&gt;Node3</title>
<g id="a_edge3_Node000003_Node000004"><a xlink:title=" ">
<path fill="none" stroke="#9a32cd" stroke-dasharray="5,2" d="M876.73,-34.5C911.57,-34.5 953.34,-34.5 987.26,-34.5"/>
<polygon fill="#9a32cd" stroke="#9a32cd" points="876.62,-31 866.62,-34.5 876.62,-38 876.62,-31"/>
</a>
</g>
<text text-anchor="start" x="888.5" y="-55.5" font-family="Helvetica,sans-Serif" font-size="10.00" fill="grey">m_fid_map</text>
<text text-anchor="start" x="888.5" y="-40.5" font-family="Helvetica,sans-Serif" font-size="10.00" fill="grey">m_int_fid_map</text>
</g>
<!-- Node5 -->
<g id="Node000005" class="node">
<title>Node5</title>
<g id="a_Node000005"><a xlink:title=" ">
<polygon fill="white" stroke="#666666" points="524.5,-111 459.5,-111 459.5,-92 524.5,-92 524.5,-111"/>
<text text-anchor="middle" x="492" y="-99" font-family="Helvetica,sans-Serif" font-size="10.00">std::string</text>
</a>
</g>
</g>
<!-- Node5&#45;&gt;Node4 -->
<g id="edge4_Node000004_Node000005" class="edge">
<title>Node5&#45;&gt;Node4</title>
<g id="a_edge4_Node000004_Node000005"><a xlink:title=" ">
<path fill="none" stroke="#9a32cd" stroke-dasharray="5,2" d="M522.6,-87.77C541.5,-79.54 566.74,-69.53 590,-63.5 641.11,-50.24 700.72,-42.8 744.12,-38.78"/>
<polygon fill="#9a32cd" stroke="#9a32cd" points="521.06,-84.62 513.34,-91.88 523.9,-91.02 521.06,-84.62"/>
</a>
</g>
<text text-anchor="start" x="647" y="-69" font-family="Helvetica,sans-Serif" font-size="10.00" fill="grey">keys</text>
</g>
<!-- Node5&#45;&gt;Node10 -->
<g id="edge11_Node000010_Node000005" class="edge">
<title>Node5&#45;&gt;Node10</title>
<g id="a_edge11_Node000010_Node000005"><a xlink:title=" ">
<path fill="none" stroke="#9a32cd" stroke-dasharray="5,2" d="M534.95,-101.11C664.73,-99.92 1059.43,-96.28 1200.88,-94.97"/>
<polygon fill="#9a32cd" stroke="#9a32cd" points="534.61,-97.62 524.65,-101.21 534.68,-104.62 534.61,-97.62"/>
</a>
</g>
<text text-anchor="start" x="903.5" y="-103" font-family="Helvetica,sans-Serif" font-size="10.00" fill="grey">m_name</text>
</g>
<!-- Node12 -->
<g id="Node000012" class="node">
<title>Node12</title>
<g id="a_Node000012"><a xlink:href="structkynema__sgf_1_1_field_info.html" target="_top" xlink:title=" ">
<polygon fill="white" stroke="#666666" points="867,-215 744,-215 744,-196 867,-196 867,-215"/>
<text text-anchor="middle" x="805.5" y="-203" font-family="Helvetica,sans-Serif" font-size="10.00">kynema_sgf::FieldInfo</text>
</a>
</g>
</g>
<!-- Node5&#45;&gt;Node12 -->
<g id="edge14_Node000012_Node000005" class="edge">
<title>Node5&#45;&gt;Node12</title>
<g id="a_edge14_Node000012_Node000005"><a xlink:title=" ">
<path fill="none" stroke="#9a32cd" stroke-dasharray="5,2" d="M534.76,-103.1C592.45,-105.86 693.14,-112.8 726,-128.5 758.73,-144.13 786.12,-178.97 798.06,-195.9"/>
<polygon fill="#9a32cd" stroke="#9a32cd" points="534.66,-99.59 524.51,-102.63 534.34,-106.59 534.66,-99.59"/>
</a>
</g>
<text text-anchor="start" x="625" y="-134" font-family="Helvetica,sans-Serif" font-size="10.00" fill="grey">m_basename</text>
</g>
<!-- Node6 -->
<g id="Node000006" class="node">
<title>Node6</title>
<g id="a_Node000006"><a xlink:title=" ">
<polygon fill="white" stroke="#666666" points="209.5,-120.5 105.5,-120.5 105.5,-90.5 209.5,-90.5 209.5,-120.5"/>
<text text-anchor="start" x="113.5" y="-108.5" font-family="Helvetica,sans-Serif" font-size="10.00">std::basic_string&lt;</text>
<text text-anchor="middle" x="157.5" y="-97.5" font-family="Helvetica,sans-Serif" font-size="10.00"> Char &gt;</text>
</a>
</g>
</g>
<!-- Node6&#45;&gt;Node5 -->
<g id="edge5_Node000005_Node000006" class="edge">
<title>Node6&#45;&gt;Node5</title>
<g id="a_edge5_Node000005_Node000006"><a xlink:title=" ">
<path fill="none" stroke="#63b8ff" d="M219.85,-104.76C290.64,-103.91 404.34,-102.54 459.27,-101.88"/>
<polygon fill="#63b8ff" stroke="#63b8ff" points="219.68,-101.26 209.72,-104.88 219.77,-108.26 219.68,-101.26"/>
</a>
</g>
</g>
<!-- Node7 -->
<g id="Node000007" class="node">
<title>Node7</title>
<g id="a_Node000007"><a xlink:title=" ">
<polygon fill="white" stroke="#666666" points="549,-37.5 435,-37.5 435,-7.5 549,-7.5 549,-37.5"/>
<text text-anchor="start" x="443" y="-25.5" font-family="Helvetica,sans-Serif" font-size="10.00">std::unordered_map</text>
<text text-anchor="middle" x="492" y="-14.5" font-family="Helvetica,sans-Serif" font-size="10.00">&lt; K, T &gt;</text>
</a>
</g>
</g>
<!-- Node7&#45;&gt;Node4 -->
<g id="edge6_Node000004_Node000007" class="edge">
<title>Node7&#45;&gt;Node4</title>
<g id="a_edge6_Node000004_Node000007"><a xlink:title=" ">
<path fill="none" stroke="orange" stroke-dasharray="5,2" d="M559.39,-20.41C606.06,-19.52 669.92,-19.47 726,-23.5 731.9,-23.92 738.04,-24.52 744.16,-25.21"/>
<polygon fill="orange" stroke="orange" points="559.03,-16.92 549.11,-20.62 559.18,-23.91 559.03,-16.92"/>
</a>
</g>
<text text-anchor="start" x="605" y="-29" font-family="Helvetica,sans-Serif" font-size="10.00" fill="grey">&lt; std::string, size_t &gt;</text>
</g>
<!-- Node8 -->
<g id="Node000008" class="node">
<title>Node8</title>
<g id="a_Node000008"><a xlink:title=" ">
<polygon fill="white" stroke="#666666" points="172,-19 143,-19 143,0 172,0 172,-19"/>
<text text-anchor="middle" x="157.5" y="-7" font-family="Helvetica,sans-Serif" font-size="10.00">K</text>
</a>
</g>
</g>
<!-- Node8&#45;&gt;Node7 -->
<g id="edge7_Node000007_Node000008" class="edge">
<title>Node8&#45;&gt;Node7</title>
<g id="a_edge7_Node000007_Node000008"><a xlink:title=" ">
<path fill="none" stroke="#9a32cd" stroke-dasharray="5,2" d="M182.38,-10.43C234.77,-12.48 361.02,-17.42 434.8,-20.3"/>
<polygon fill="#9a32cd" stroke="#9a32cd" points="182.49,-6.94 172.36,-10.04 182.22,-13.93 182.49,-6.94"/>
</a>
</g>
<text text-anchor="start" x="310" y="-25" font-family="Helvetica,sans-Serif" font-size="10.00" fill="grey">keys</text>
</g>
<!-- Node9 -->
<g id="Node000009" class="node">
<title>Node9</title>
<g id="a_Node000009"><a xlink:title=" ">
<polygon fill="white" stroke="#666666" points="29,-169 0,-169 0,-150 29,-150 29,-169"/>
<text text-anchor="middle" x="14.5" y="-157" font-family="Helvetica,sans-Serif" font-size="10.00">T</text>
</a>
</g>
</g>
<!-- Node9&#45;&gt;Node7 -->
<g id="edge8_Node000007_Node000009" class="edge">
<title>Node9&#45;&gt;Node7</title>
<g id="a_edge8_Node000007_Node000009"><a xlink:title=" ">
<path fill="none" stroke="#9a32cd" stroke-dasharray="5,2" d="M23.33,-140.6C33.76,-118.11 54.5,-81.49 85,-64.5 145.16,-30.98 325.71,-49.46 394,-40.5 407.33,-38.75 421.61,-36.38 435,-33.94"/>
<polygon fill="#9a32cd" stroke="#9a32cd" points="20.1,-139.25 19.27,-149.81 26.51,-142.07 20.1,-139.25"/>
</a>
</g>
<text text-anchor="start" x="134.5" y="-70" font-family="Helvetica,sans-Serif" font-size="10.00" fill="grey">elements</text>
</g>
<!-- Node15 -->
<g id="Node000015" class="node">
<title>Node15</title>
<g id="a_Node000015"><a xlink:title=" ">
<polygon fill="white" stroke="#666666" points="216.5,-209 98.5,-209 98.5,-190 216.5,-190 216.5,-209"/>
<text text-anchor="middle" x="157.5" y="-197" font-family="Helvetica,sans-Serif" font-size="10.00">std::unique_ptr&lt; T &gt;</text>
</a>
</g>
</g>
<!-- Node9&#45;&gt;Node15 -->
<g id="edge18_Node000015_Node000009" class="edge">
<title>Node9&#45;&gt;Node15</title>
<g id="a_edge18_Node000015_Node000009"><a xlink:title=" ">
<path fill="none" stroke="#9a32cd" stroke-dasharray="5,2" d="M38.07,-173.53C41.01,-175.01 44.03,-176.39 47,-177.5 63.25,-183.59 81.52,-188.11 98.41,-191.42"/>
<polygon fill="#9a32cd" stroke="#9a32cd" points="39.58,-170.36 29.14,-168.57 36.18,-176.48 39.58,-170.36"/>
</a>
</g>
<text text-anchor="start" x="50" y="-188" font-family="Helvetica,sans-Serif" font-size="10.00" fill="grey">ptr</text>
</g>
<!-- Node16 -->
<g id="Node000016" class="node">
<title>Node16</title>
<g id="a_Node000016"><a xlink:title=" ">
<polygon fill="white" stroke="#666666" points="380,-173 262,-173 262,-154 380,-154 380,-173"/>
<text text-anchor="middle" x="321" y="-161" font-family="Helvetica,sans-Serif" font-size="10.00">std::shared_ptr&lt; T &gt;</text>
</a>
</g>
</g>
<!-- Node9&#45;&gt;Node16 -->
<g id="edge20_Node000016_Node000009" class="edge">
<title>Node9&#45;&gt;Node16</title>
<g id="a_edge20_Node000016_Node000009"><a xlink:title=" ">
<path fill="none" stroke="#9a32cd" stroke-dasharray="5,2" d="M39.44,-156.98C41.99,-156.78 44.55,-156.62 47,-156.5 55.88,-156.08 58.11,-156.38 67,-156.5 133.89,-157.43 210.71,-159.73 261.98,-161.44"/>
<polygon fill="#9a32cd" stroke="#9a32cd" points="38.92,-153.51 29.28,-157.9 39.55,-160.48 38.92,-153.51"/>
</a>
</g>
<text text-anchor="start" x="50" y="-162" font-family="Helvetica,sans-Serif" font-size="10.00" fill="grey">ptr</text>
</g>
<!-- Node10&#45;&gt;Node2 -->
<g id="edge9_Node000002_Node000010" class="edge">
<title>Node10&#45;&gt;Node2</title>
<g id="a_edge9_Node000002_Node000010"><a xlink:title=" ">
<path fill="none" stroke="#9a32cd" stroke-dasharray="5,2" d="M1279.1,-80.18C1291.82,-73.73 1307.76,-66.82 1323,-63.5 1347.29,-58.21 1374.29,-56.69 1398.69,-56.88"/>
<polygon fill="#9a32cd" stroke="#9a32cd" points="1277.27,-77.19 1270.07,-84.96 1280.54,-83.38 1277.27,-77.19"/>
</a>
</g>
<text text-anchor="start" x="1326" y="-129" font-family="Helvetica,sans-Serif" font-size="10.00" fill="grey">conv_term</text>
<text text-anchor="start" x="1326" y="-114" font-family="Helvetica,sans-Serif" font-size="10.00" fill="grey">diff_term</text>
<text text-anchor="start" x="1326" y="-99" font-family="Helvetica,sans-Serif" font-size="10.00" fill="grey">field</text>
<text text-anchor="start" x="1326" y="-84" font-family="Helvetica,sans-Serif" font-size="10.00" fill="grey">mueff</text>
<text text-anchor="start" x="1326" y="-69" font-family="Helvetica,sans-Serif" font-size="10.00" fill="grey">src_term</text>
</g>
<!-- Node10&#45;&gt;Node17 -->
<g id="edge23_Node000017_Node000010" class="edge">
<title>Node10&#45;&gt;Node17</title>
<g id="a_edge23_Node000017_Node000010"><a xlink:title=" ">
<path fill="none" stroke="#9a32cd" stroke-dasharray="5,2" d="M1271.93,-110.8C1285.03,-121.55 1303.78,-134.68 1323,-140.5 1434.12,-174.14 1572.06,-146.84 1644.57,-127.52"/>
<polygon fill="#9a32cd" stroke="#9a32cd" points="1274.07,-108.03 1264.2,-104.18 1269.52,-113.35 1274.07,-108.03"/>
</a>
</g>
<text text-anchor="start" x="1457.5" y="-161" font-family="Helvetica,sans-Serif" font-size="10.00" fill="grey">density</text>
</g>
<!-- Node11 -->
<g id="Node000011" class="node">
<title>Node11</title>
<g id="a_Node000011"><a xlink:title=" ">
<polygon fill="white" stroke="#666666" points="1122,-182.5 982,-182.5 982,-152.5 1122,-152.5 1122,-182.5"/>
<text text-anchor="start" x="990" y="-170.5" font-family="Helvetica,sans-Serif" font-size="10.00">std::shared_ptr&lt; kynema</text>
<text text-anchor="middle" x="1052" y="-159.5" font-family="Helvetica,sans-Serif" font-size="10.00">_sgf::FieldInfo &gt;</text>
</a>
</g>
</g>
<!-- Node11&#45;&gt;Node10 -->
<g id="edge12_Node000010_Node000011" class="edge">
<title>Node11&#45;&gt;Node10</title>
<g id="a_edge12_Node000010_Node000011"><a xlink:title=" ">
<path fill="none" stroke="#9a32cd" stroke-dasharray="5,2" d="M1103.85,-148.85C1142.86,-134.54 1195.12,-115.37 1226,-104.04"/>
<polygon fill="#9a32cd" stroke="#9a32cd" points="1102.42,-145.64 1094.23,-152.37 1104.83,-152.22 1102.42,-145.64"/>
</a>
</g>
<text text-anchor="start" x="1144.5" y="-140" font-family="Helvetica,sans-Serif" font-size="10.00" fill="grey">m_info</text>
</g>
<!-- Node12&#45;&gt;Node11 -->
<g id="edge13_Node000011_Node000012" class="edge">
<title>Node12&#45;&gt;Node11</title>
<g id="a_edge13_Node000011_Node000012"><a xlink:title=" ">
<path fill="none" stroke="#9a32cd" stroke-dasharray="5,2" d="M877.28,-194.84C904.41,-190.72 935.65,-185.94 964,-181.5 969.74,-180.6 975.7,-179.66 981.68,-178.71"/>
<polygon fill="#9a32cd" stroke="#9a32cd" points="876.46,-191.43 867.1,-196.39 877.51,-198.35 876.46,-191.43"/>
</a>
</g>
<text text-anchor="start" x="917.5" y="-198" font-family="Helvetica,sans-Serif" font-size="10.00" fill="grey">ptr</text>
</g>
<!-- Node13 -->
<g id="Node000013" class="node">
<title>Node13</title>
<g id="a_Node000013"><a xlink:title=" ">
<polygon fill="white" stroke="#666666" points="572,-225.5 412,-225.5 412,-195.5 572,-195.5 572,-225.5"/>
<text text-anchor="start" x="420" y="-213.5" font-family="Helvetica,sans-Serif" font-size="10.00">std::unique_ptr&lt; kynema</text>
<text text-anchor="middle" x="492" y="-202.5" font-family="Helvetica,sans-Serif" font-size="10.00">_sgf::FieldFillPatchOpsBase &gt;</text>
</a>
</g>
</g>
<!-- Node13&#45;&gt;Node12 -->
<g id="edge15_Node000012_Node000013" class="edge">
<title>Node13&#45;&gt;Node12</title>
<g id="a_edge15_Node000012_Node000013"><a xlink:title=" ">
<path fill="none" stroke="#9a32cd" stroke-dasharray="5,2" d="M582.19,-209.07C633.95,-208.24 697.79,-207.21 743.76,-206.47"/>
<polygon fill="#9a32cd" stroke="#9a32cd" points="581.95,-205.57 572.01,-209.23 582.06,-212.57 581.95,-205.57"/>
</a>
</g>
<text text-anchor="start" x="622" y="-214" font-family="Helvetica,sans-Serif" font-size="10.00" fill="grey">m_fillpatch_op</text>
</g>
<!-- Node14 -->
<g id="Node000014" class="node">
<title>Node14</title>
<g id="a_Node000014"><a xlink:href="classkynema__sgf_1_1_field_fill_patch_ops_base.html" target="_top" xlink:title=" ">
<polygon fill="white" stroke="#666666" points="230,-269.5 85,-269.5 85,-239.5 230,-239.5 230,-269.5"/>
<text text-anchor="start" x="93" y="-257.5" font-family="Helvetica,sans-Serif" font-size="10.00">kynema_sgf::FieldFillPatch</text>
<text text-anchor="middle" x="157.5" y="-246.5" font-family="Helvetica,sans-Serif" font-size="10.00">OpsBase</text>
</a>
</g>
</g>
<!-- Node14&#45;&gt;Node13 -->
<g id="edge16_Node000013_Node000014" class="edge">
<title>Node14&#45;&gt;Node13</title>
<g id="a_edge16_Node000013_Node000014"><a xlink:title=" ">
<path fill="none" stroke="#9a32cd" stroke-dasharray="5,2" d="M240.27,-249.48C285.72,-246.04 343.2,-240.6 394,-232.5 405.85,-230.61 418.42,-228.13 430.44,-225.51"/>
<polygon fill="#9a32cd" stroke="#9a32cd" points="239.88,-246 230.17,-250.23 240.4,-252.98 239.88,-246"/>
</a>
</g>
<text text-anchor="start" x="314" y="-254" font-family="Helvetica,sans-Serif" font-size="10.00" fill="grey">ptr</text>
</g>
<!-- Node15&#45;&gt;Node13 -->
<g id="edge17_Node000013_Node000015" class="edge">
<title>Node15&#45;&gt;Node13</title>
<g id="a_edge17_Node000013_Node000015"><a xlink:title=" ">
<path fill="none" stroke="orange" stroke-dasharray="5,2" d="M226.69,-198.02C273.74,-197.43 337.71,-197.49 394,-200.5 399.83,-200.81 405.85,-201.22 411.91,-201.7"/>
<polygon fill="orange" stroke="orange" points="226.56,-194.52 216.61,-198.16 226.66,-201.52 226.56,-194.52"/>
</a>
</g>
<text text-anchor="start" x="251" y="-221.5" font-family="Helvetica,sans-Serif" font-size="10.00" fill="grey">&lt; kynema_sgf::FieldFillPatch</text>
<text text-anchor="start" x="251" y="-206.5" font-family="Helvetica,sans-Serif" font-size="10.00" fill="grey">  OpsBase &gt;</text>
</g>
<!-- Node16&#45;&gt;Node11 -->
<g id="edge19_Node000011_Node000016" class="edge">
<title>Node16&#45;&gt;Node11</title>
<g id="a_edge19_Node000011_Node000016"><a xlink:title=" ">
<path fill="none" stroke="orange" stroke-dasharray="5,2" d="M390.2,-163.87C528.91,-164.64 842.56,-166.36 981.97,-167.12"/>
<polygon fill="orange" stroke="orange" points="390.14,-160.37 380.12,-163.82 390.1,-167.37 390.14,-160.37"/>
</a>
</g>
<text text-anchor="start" x="593" y="-171" font-family="Helvetica,sans-Serif" font-size="10.00" fill="grey">&lt; kynema_sgf::FieldInfo &gt;</text>
</g>
<!-- Node17&#45;&gt;Node1 -->
<g id="edge21_Node000001_Node000017" class="edge">
<title>Node17&#45;&gt;Node1</title>
<g id="a_edge21_Node000001_Node000017"><a xlink:title=" ">
<path fill="none" stroke="orange" stroke-dasharray="5,2" d="M1780.32,-103.09C1824.27,-98.16 1877.78,-92.16 1920.92,-87.32"/>
<polygon fill="orange" stroke="orange" points="1779.78,-99.63 1770.23,-104.23 1780.56,-106.59 1779.78,-99.63"/>
</a>
</g>
<text text-anchor="start" x="1791.5" y="-107" font-family="Helvetica,sans-Serif" font-size="10.00" fill="grey">&lt; Levelset, Scheme &gt;</text>
</g>
</g>
</svg>

<g id="navigator" transform="translate(0 0)" fill="#404254">
  <rect fill="#f2f5e9" fill-opacity="0.5" stroke="#606060" stroke-width=".5" x="0" y="0" width="60" height="60"/>
  <use id="zoomplus" xlink:href="#zoomPlus" x="17" y="9" onmousedown="handleZoom(evt,'in')"/>
  <use id="zoomminus" xlink:href="#zoomMin" x="42" y="9" onmousedown="handleZoom(evt,'out')"/>
  <use id="reset" xlink:href="#resetDef" x="30" y="36" onmousedown="handleReset()"/>
   <use id="arrowup" xlink:href="#arrowUp" x="0" y="0" onmousedown="handlePan(0,-1)"/>
  <use id="arrowright" xlink:href="#arrowRight" x="0" y="0" onmousedown="handlePan(1,0)"/>
  <use id="arrowdown" xlink:href="#arrowDown" x="0" y="0" onmousedown="handlePan(0,1)"/>
  <use id="arrowleft" xlink:href="#arrowLeft" x="0" y="0" onmousedown="handlePan(-1,0)"/>
</g>
<svg viewBox="0 0 15 15" width="100%" height="30px" preserveAspectRatio="xMaxYMin meet">
 <g id="arrow_out" transform="scale(0.3 0.3)">
  <a xlink:href="structkynema__sgf_1_1pde_1_1_compute_r_h_s_op_3_01_levelset_00_01_scheme_01_4__coll__graph_org.svg" target="_base">
   <rect id="button" ry="5" rx="5" y="6" x="6" height="38" width="38"
        fill="#f2f5e9" fill-opacity="0.5" stroke="#606060" stroke-width="1.0"/>
   <path id="arrow"
     d="M 11.500037,31.436501 C 11.940474,20.09759 22.043105,11.32322 32.158766,21.979434 L 37.068811,17.246167 C 37.068811,17.246167 37.088388,32 37.088388,32 L 22.160133,31.978069 C 22.160133,31.978069 26.997745,27.140456 26.997745,27.140456 C 18.528582,18.264221 13.291696,25.230495 11.500037,31.436501 z"
     style="fill:#404040;"/>
  </a>
 </g>
</svg>

<style type='text/css'>
<![CDATA[
[data-mouse-over-selected='false'] { opacity: 0.7; }
[data-mouse-over-selected='true']  { opacity: 1.0; }
]]>
</style>
<script type="application/ecmascript"><![CDATA[
document.addEventListener('DOMContentLoaded', (event) => {
  highlightEdges();
  highlightAdjacentNodes();
});
]]></script>
</svg>
