<?xml version="1.0" encoding="UTF-8" standalone="no"?>
<!DOCTYPE svg PUBLIC "-//W3C//DTD SVG 1.1//EN"
 "http://www.w3.org/Graphics/SVG/1.1/DTD/svg11.dtd">
<!-- Generated by graphviz version 2.43.0 (0)
 -->
<!-- Title: kynema_sgf::actuator::FixedWingData Pages: 1 -->
<svg width="1155pt" height="421pt"
 viewBox="0.00 0.00 1155.00 421.40" xmlns="http://www.w3.org/2000/svg" xmlns:xlink="http://www.w3.org/1999/xlink">
<g id="graph0" class="graph" transform="scale(1 1) rotate(0) translate(4 417.4)">
<title>kynema_sgf::actuator::FixedWingData</title>
<!-- Node1 -->
<g id="Node000001" class="node">
<title>Node1</title>
<g id="a_Node000001"><a xlink:title=" ">
<polygon fill="#999999" stroke="#666666" points="1147,-277.4 1025,-277.4 1025,-247.4 1147,-247.4 1147,-277.4"/>
<text text-anchor="start" x="1033" y="-265.4" font-family="Helvetica,sans-Serif" font-size="10.00">kynema_sgf::actuator</text>
<text text-anchor="middle" x="1086" y="-254.4" font-family="Helvetica,sans-Serif" font-size="10.00">::FixedWingData</text>
</a>
</g>
</g>
<!-- Node2 -->
<g id="Node000002" class="node">
<title>Node2</title>
<g id="a_Node000002"><a xlink:href="structkynema__sgf_1_1actuator_1_1_wing_base_data.html" target="_top" xlink:title=" ">
<polygon fill="white" stroke="#666666" points="988,-277.4 866,-277.4 866,-247.4 988,-247.4 988,-277.4"/>
<text text-anchor="start" x="874" y="-265.4" font-family="Helvetica,sans-Serif" font-size="10.00">kynema_sgf::actuator</text>
<text text-anchor="middle" x="927" y="-254.4" font-family="Helvetica,sans-Serif" font-size="10.00">::WingBaseData</text>
</a>
</g>
</g>
<!-- Node2&#45;&gt;Node1 -->
<g id="edge1_Node000001_Node000002" class="edge">
<title>Node2&#45;&gt;Node1</title>
<g id="a_edge1_Node000001_Node000002"><a xlink:title=" ">
<path fill="none" stroke="#63b8ff" d="M998.51,-262.4C1007.32,-262.4 1016.27,-262.4 1024.91,-262.4"/>
<polygon fill="#63b8ff" stroke="#63b8ff" points="998.25,-258.9 988.25,-262.4 998.25,-265.9 998.25,-258.9"/>
</a>
</g>
</g>
<!-- Node3 -->
<g id="Node000003" class="node">
<title>Node3</title>
<g id="a_Node000003"><a xlink:title=" ">
<polygon fill="white" stroke="#666666" points="682,-357.9 617,-357.9 617,-338.9 682,-338.9 682,-357.9"/>
<text text-anchor="middle" x="649.5" y="-345.9" font-family="Helvetica,sans-Serif" font-size="10.00">std::string</text>
</a>
</g>
</g>
<!-- Node3&#45;&gt;Node1 -->
<g id="edge15_Node000001_Node000003" class="edge">
<title>Node3&#45;&gt;Node1</title>
<g id="a_edge15_Node000001_Node000003"><a xlink:title=" ">
<path fill="none" stroke="#9a32cd" stroke-dasharray="5,2" d="M692.48,-348.14C732.69,-347.26 794.94,-344.21 848,-334.4 919.04,-321.26 998.91,-294.36 1045.42,-277.42"/>
<polygon fill="#9a32cd" stroke="#9a32cd" points="692.18,-344.65 682.24,-348.33 692.31,-351.65 692.18,-344.65"/>
</a>
</g>
<text text-anchor="start" x="899" y="-351.4" font-family="Helvetica,sans-Serif" font-size="10.00" fill="grey">airfoil_file</text>
<text text-anchor="start" x="899" y="-336.4" font-family="Helvetica,sans-Serif" font-size="10.00" fill="grey">airfoil_type</text>
</g>
<!-- Node3&#45;&gt;Node2 -->
<g id="edge2_Node000002_Node000003" class="edge">
<title>Node3&#45;&gt;Node2</title>
<g id="a_edge2_Node000002_Node000003"><a xlink:title=" ">
<path fill="none" stroke="#9a32cd" stroke-dasharray="5,2" d="M676.06,-333.91C694.69,-323.87 720.79,-310.84 745,-302.4 747.95,-301.37 814.1,-286.83 865.58,-275.58"/>
<polygon fill="#9a32cd" stroke="#9a32cd" points="674.14,-330.97 667.06,-338.85 677.51,-337.11 674.14,-330.97"/>
</a>
</g>
<text text-anchor="start" x="748.5" y="-323.4" font-family="Helvetica,sans-Serif" font-size="10.00" fill="grey">motion_type</text>
<text text-anchor="start" x="748.5" y="-308.4" font-family="Helvetica,sans-Serif" font-size="10.00" fill="grey">pitch_timetable_file</text>
</g>
<!-- Node4 -->
<g id="Node000004" class="node">
<title>Node4</title>
<g id="a_Node000004"><a xlink:title=" ">
<polygon fill="white" stroke="#666666" points="401.5,-413.4 297.5,-413.4 297.5,-383.4 401.5,-383.4 401.5,-413.4"/>
<text text-anchor="start" x="305.5" y="-401.4" font-family="Helvetica,sans-Serif" font-size="10.00">std::basic_string&lt;</text>
<text text-anchor="middle" x="349.5" y="-390.4" font-family="Helvetica,sans-Serif" font-size="10.00"> Char &gt;</text>
</a>
</g>
</g>
<!-- Node4&#45;&gt;Node3 -->
<g id="edge3_Node000003_Node000004" class="edge">
<title>Node4&#45;&gt;Node3</title>
<g id="a_edge3_Node000003_Node000004"><a xlink:title=" ">
<path fill="none" stroke="#63b8ff" d="M411.75,-392C452.29,-387.34 506.53,-380.3 554,-371.4 575.08,-367.45 598.5,-361.76 616.75,-357.03"/>
<polygon fill="#63b8ff" stroke="#63b8ff" points="411.3,-388.53 401.76,-393.14 412.09,-395.49 411.3,-388.53"/>
</a>
</g>
</g>
<!-- Node5 -->
<g id="Node000005" class="node">
<title>Node5</title>
<g id="a_Node000005"><a xlink:title=" ">
<polygon fill="white" stroke="#666666" points="722.5,-276.4 576.5,-276.4 576.5,-246.4 722.5,-246.4 722.5,-276.4"/>
<text text-anchor="start" x="584.5" y="-264.4" font-family="Helvetica,sans-Serif" font-size="10.00">std::unique_ptr&lt; kynema</text>
<text text-anchor="middle" x="649.5" y="-253.4" font-family="Helvetica,sans-Serif" font-size="10.00">_sgf::actuator::FLLCData &gt;</text>
</a>
</g>
</g>
<!-- Node5&#45;&gt;Node2 -->
<g id="edge4_Node000002_Node000005" class="edge">
<title>Node5&#45;&gt;Node2</title>
<g id="a_edge4_Node000002_Node000005"><a xlink:title=" ">
<path fill="none" stroke="#9a32cd" stroke-dasharray="5,2" d="M732.62,-261.7C775.3,-261.85 826.56,-262.04 865.57,-262.18"/>
<polygon fill="#9a32cd" stroke="#9a32cd" points="732.54,-258.2 722.52,-261.66 732.51,-265.2 732.54,-258.2"/>
</a>
</g>
<text text-anchor="start" x="789.5" y="-266.9" font-family="Helvetica,sans-Serif" font-size="10.00" fill="grey">fllc</text>
</g>
<!-- Node6 -->
<g id="Node000006" class="node">
<title>Node6</title>
<g id="a_Node000006"><a xlink:href="structkynema__sgf_1_1actuator_1_1_f_l_l_c_data.html" target="_top" xlink:title=" ">
<polygon fill="white" stroke="#666666" points="410.5,-365.4 288.5,-365.4 288.5,-335.4 410.5,-335.4 410.5,-365.4"/>
<text text-anchor="start" x="296.5" y="-353.4" font-family="Helvetica,sans-Serif" font-size="10.00">kynema_sgf::actuator</text>
<text text-anchor="middle" x="349.5" y="-342.4" font-family="Helvetica,sans-Serif" font-size="10.00">::FLLCData</text>
</a>
</g>
</g>
<!-- Node6&#45;&gt;Node5 -->
<g id="edge5_Node000005_Node000006" class="edge">
<title>Node6&#45;&gt;Node5</title>
<g id="a_edge5_Node000005_Node000006"><a xlink:title=" ">
<path fill="none" stroke="#9a32cd" stroke-dasharray="5,2" d="M421.19,-346.12C470.04,-342.45 530.32,-336.34 554,-327.4 584.52,-315.88 614.48,-292.27 632.23,-276.64"/>
<polygon fill="#9a32cd" stroke="#9a32cd" points="420.68,-342.64 410.96,-346.86 421.18,-349.62 420.68,-342.64"/>
</a>
</g>
<text text-anchor="start" x="485.5" y="-349.9" font-family="Helvetica,sans-Serif" font-size="10.00" fill="grey">ptr</text>
</g>
<!-- Node7 -->
<g id="Node000007" class="node">
<title>Node7</title>
<g id="a_Node000007"><a xlink:title=" ">
<polygon fill="white" stroke="#666666" points="408.5,-236.9 290.5,-236.9 290.5,-217.9 408.5,-217.9 408.5,-236.9"/>
<text text-anchor="middle" x="349.5" y="-224.9" font-family="Helvetica,sans-Serif" font-size="10.00">std::unique_ptr&lt; T &gt;</text>
</a>
</g>
</g>
<!-- Node7&#45;&gt;Node5 -->
<g id="edge6_Node000005_Node000007" class="edge">
<title>Node7&#45;&gt;Node5</title>
<g id="a_edge6_Node000005_Node000007"><a xlink:title=" ">
<path fill="none" stroke="orange" stroke-dasharray="5,2" d="M418.77,-235.19C465.85,-240.56 528.33,-247.69 576.25,-253.16"/>
<polygon fill="orange" stroke="orange" points="419,-231.69 408.66,-234.04 418.2,-238.65 419,-231.69"/>
</a>
</g>
<text text-anchor="start" x="434.5" y="-271.4" font-family="Helvetica,sans-Serif" font-size="10.00" fill="grey">&lt; kynema_sgf::actuator</text>
<text text-anchor="start" x="434.5" y="-256.4" font-family="Helvetica,sans-Serif" font-size="10.00" fill="grey">  ::FLLCData &gt;</text>
</g>
<!-- Node14 -->
<g id="Node000014" class="node">
<title>Node14</title>
<g id="a_Node000014"><a xlink:title=" ">
<polygon fill="white" stroke="#666666" points="727,-227.4 572,-227.4 572,-197.4 727,-197.4 727,-227.4"/>
<text text-anchor="start" x="580" y="-215.4" font-family="Helvetica,sans-Serif" font-size="10.00">std::unique_ptr&lt; kynema</text>
<text text-anchor="middle" x="649.5" y="-204.4" font-family="Helvetica,sans-Serif" font-size="10.00">_sgf::actuator::AirfoilTable &gt;</text>
</a>
</g>
</g>
<!-- Node7&#45;&gt;Node14 -->
<g id="edge18_Node000014_Node000007" class="edge">
<title>Node7&#45;&gt;Node14</title>
<g id="a_edge18_Node000014_Node000007"><a xlink:title=" ">
<path fill="none" stroke="orange" stroke-dasharray="5,2" d="M379.39,-213.78C394.41,-207.43 413.3,-200.59 431,-197.4 477.28,-189.06 529.87,-192.35 571.75,-197.94"/>
<polygon fill="orange" stroke="orange" points="377.88,-210.62 370.12,-217.83 380.68,-217.03 377.88,-210.62"/>
</a>
</g>
<text text-anchor="start" x="434.5" y="-218.4" font-family="Helvetica,sans-Serif" font-size="10.00" fill="grey">&lt; kynema_sgf::actuator</text>
<text text-anchor="start" x="434.5" y="-203.4" font-family="Helvetica,sans-Serif" font-size="10.00" fill="grey">  ::AirfoilTable &gt;</text>
</g>
<!-- Node8 -->
<g id="Node000008" class="node">
<title>Node8</title>
<g id="a_Node000008"><a xlink:title=" ">
<polygon fill="white" stroke="#666666" points="68.5,-236.9 39.5,-236.9 39.5,-217.9 68.5,-217.9 68.5,-236.9"/>
<text text-anchor="middle" x="54" y="-224.9" font-family="Helvetica,sans-Serif" font-size="10.00">T</text>
</a>
</g>
</g>
<!-- Node8&#45;&gt;Node7 -->
<g id="edge7_Node000007_Node000008" class="edge">
<title>Node8&#45;&gt;Node7</title>
<g id="a_edge7_Node000007_Node000008"><a xlink:title=" ">
<path fill="none" stroke="#9a32cd" stroke-dasharray="5,2" d="M78.89,-227.4C124.6,-227.4 225.62,-227.4 290.2,-227.4"/>
<polygon fill="#9a32cd" stroke="#9a32cd" points="78.76,-223.9 68.76,-227.4 78.76,-230.9 78.76,-223.9"/>
</a>
</g>
<text text-anchor="start" x="190" y="-232.9" font-family="Helvetica,sans-Serif" font-size="10.00" fill="grey">ptr</text>
</g>
<!-- Node9 -->
<g id="Node000009" class="node">
<title>Node9</title>
<g id="a_Node000009"><a xlink:href="structkynema__sgf_1_1actuator_1_1_component_view.html" target="_top" xlink:title=" ">
<polygon fill="white" stroke="#666666" points="710.5,-160.4 588.5,-160.4 588.5,-130.4 710.5,-130.4 710.5,-160.4"/>
<text text-anchor="start" x="596.5" y="-148.4" font-family="Helvetica,sans-Serif" font-size="10.00">kynema_sgf::actuator</text>
<text text-anchor="middle" x="649.5" y="-137.4" font-family="Helvetica,sans-Serif" font-size="10.00">::ComponentView</text>
</a>
</g>
</g>
<!-- Node9&#45;&gt;Node2 -->
<g id="edge8_Node000002_Node000009" class="edge">
<title>Node9&#45;&gt;Node2</title>
<g id="a_edge8_Node000002_Node000009"><a xlink:title=" ">
<path fill="none" stroke="#9a32cd" stroke-dasharray="5,2" d="M695.34,-164.44C749.73,-187.54 840.32,-226.01 890.25,-247.22"/>
<polygon fill="#9a32cd" stroke="#9a32cd" points="696.53,-161.14 685.95,-160.46 693.79,-167.59 696.53,-161.14"/>
</a>
</g>
<text text-anchor="start" x="754.5" y="-232.9" font-family="Helvetica,sans-Serif" font-size="10.00" fill="grey">component_view</text>
</g>
<!-- Node10 -->
<g id="Node000010" class="node">
<title>Node10</title>
<g id="a_Node000010"><a xlink:href="structkynema__sgf_1_1utils_1_1_slice.html" target="_top" xlink:title=" ">
<polygon fill="white" stroke="#666666" points="413,-45.9 286,-45.9 286,-4.9 413,-4.9 413,-45.9"/>
<text text-anchor="start" x="294" y="-33.9" font-family="Helvetica,sans-Serif" font-size="10.00">kynema_sgf::utils::</text>
<text text-anchor="start" x="294" y="-22.9" font-family="Helvetica,sans-Serif" font-size="10.00">Slice&lt; kynema_sgf::vs</text>
<text text-anchor="middle" x="349.5" y="-11.9" font-family="Helvetica,sans-Serif" font-size="10.00">::Vector &gt;</text>
</a>
</g>
</g>
<!-- Node10&#45;&gt;Node9 -->
<g id="edge9_Node000009_Node000010" class="edge">
<title>Node10&#45;&gt;Node9</title>
<g id="a_edge9_Node000009_Node000010"><a xlink:title=" ">
<path fill="none" stroke="#9a32cd" stroke-dasharray="5,2" d="M422.9,-5.38C463.53,1.85 513.93,3.91 554,-16.4 601.79,-40.63 631.23,-101.65 642.83,-130.21"/>
<polygon fill="#9a32cd" stroke="#9a32cd" points="422.23,-1.95 413.07,-7.27 423.55,-8.82 422.23,-1.95"/>
</a>
</g>
<text text-anchor="start" x="473.5" y="-97.4" font-family="Helvetica,sans-Serif" font-size="10.00" fill="grey">epsilon</text>
<text text-anchor="start" x="473.5" y="-82.4" font-family="Helvetica,sans-Serif" font-size="10.00" fill="grey">force</text>
<text text-anchor="start" x="473.5" y="-67.4" font-family="Helvetica,sans-Serif" font-size="10.00" fill="grey">pos</text>
<text text-anchor="start" x="473.5" y="-52.4" font-family="Helvetica,sans-Serif" font-size="10.00" fill="grey">vel</text>
<text text-anchor="start" x="473.5" y="-37.4" font-family="Helvetica,sans-Serif" font-size="10.00" fill="grey">vel_pos</text>
<text text-anchor="start" x="473.5" y="-22.4" font-family="Helvetica,sans-Serif" font-size="10.00" fill="grey">vel_rel</text>
</g>
<!-- Node11 -->
<g id="Node000011" class="node">
<title>Node11</title>
<g id="a_Node000011"><a xlink:href="structkynema__sgf_1_1utils_1_1_slice.html" target="_top" xlink:title=" ">
<polygon fill="white" stroke="#666666" points="108,-117.4 0,-117.4 0,-87.4 108,-87.4 108,-117.4"/>
<text text-anchor="start" x="8" y="-105.4" font-family="Helvetica,sans-Serif" font-size="10.00">kynema_sgf::utils::</text>
<text text-anchor="middle" x="54" y="-94.4" font-family="Helvetica,sans-Serif" font-size="10.00">Slice&lt; T &gt;</text>
</a>
</g>
</g>
<!-- Node11&#45;&gt;Node10 -->
<g id="edge10_Node000010_Node000011" class="edge">
<title>Node11&#45;&gt;Node10</title>
<g id="a_edge10_Node000010_Node000011"><a xlink:title=" ">
<path fill="none" stroke="orange" stroke-dasharray="5,2" d="M114.91,-84.49C118.66,-83.43 122.38,-82.39 126,-81.4 179.79,-66.68 241.29,-51.32 285.98,-40.41"/>
<polygon fill="orange" stroke="orange" points="113.61,-81.22 104.97,-87.34 115.54,-87.95 113.61,-81.22"/>
</a>
</g>
<text text-anchor="start" x="129" y="-86.9" font-family="Helvetica,sans-Serif" font-size="10.00" fill="grey">&lt; kynema_sgf::vs::Vector &gt;</text>
</g>
<!-- Node12 -->
<g id="Node000012" class="node">
<title>Node12</title>
<g id="a_Node000012"><a xlink:href="structkynema__sgf_1_1utils_1_1_slice.html" target="_top" xlink:title=" ">
<polygon fill="white" stroke="#666666" points="413,-176.9 286,-176.9 286,-135.9 413,-135.9 413,-176.9"/>
<text text-anchor="start" x="294" y="-164.9" font-family="Helvetica,sans-Serif" font-size="10.00">kynema_sgf::utils::</text>
<text text-anchor="start" x="294" y="-153.9" font-family="Helvetica,sans-Serif" font-size="10.00">Slice&lt; kynema_sgf::vs</text>
<text text-anchor="middle" x="349.5" y="-142.9" font-family="Helvetica,sans-Serif" font-size="10.00">::Tensor &gt;</text>
</a>
</g>
</g>
<!-- Node11&#45;&gt;Node12 -->
<g id="edge12_Node000012_Node000011" class="edge">
<title>Node11&#45;&gt;Node12</title>
<g id="a_edge12_Node000012_Node000011"><a xlink:title=" ">
<path fill="none" stroke="orange" stroke-dasharray="5,2" d="M112.46,-120.13C117.02,-121.32 121.57,-122.42 126,-123.4 179.38,-135.19 240.92,-143.96 285.73,-149.48"/>
<polygon fill="orange" stroke="orange" points="113.07,-116.67 102.5,-117.45 111.24,-123.43 113.07,-116.67"/>
</a>
</g>
<text text-anchor="start" x="129" y="-152.9" font-family="Helvetica,sans-Serif" font-size="10.00" fill="grey">&lt; kynema_sgf::vs::Tensor &gt;</text>
</g>
<!-- Node13 -->
<g id="Node000013" class="node">
<title>Node13</title>
<g id="a_Node000013"><a xlink:href="structkynema__sgf_1_1utils_1_1_slice.html" target="_top" xlink:title=" ">
<polygon fill="white" stroke="#666666" points="410.5,-117.4 288.5,-117.4 288.5,-87.4 410.5,-87.4 410.5,-117.4"/>
<text text-anchor="start" x="296.5" y="-105.4" font-family="Helvetica,sans-Serif" font-size="10.00">kynema_sgf::utils::</text>
<text text-anchor="middle" x="349.5" y="-94.4" font-family="Helvetica,sans-Serif" font-size="10.00">Slice&lt; amrex::Real &gt;</text>
</a>
</g>
</g>
<!-- Node11&#45;&gt;Node13 -->
<g id="edge14_Node000013_Node000011" class="edge">
<title>Node11&#45;&gt;Node13</title>
<g id="a_edge14_Node000013_Node000011"><a xlink:title=" ">
<path fill="none" stroke="orange" stroke-dasharray="5,2" d="M118.28,-102.4C168.71,-102.4 238.84,-102.4 288.41,-102.4"/>
<polygon fill="orange" stroke="orange" points="118.15,-98.9 108.15,-102.4 118.15,-105.9 118.15,-98.9"/>
</a>
</g>
<text text-anchor="start" x="156" y="-107.9" font-family="Helvetica,sans-Serif" font-size="10.00" fill="grey">&lt; amrex::Real &gt;</text>
</g>
<!-- Node12&#45;&gt;Node9 -->
<g id="edge11_Node000009_Node000012" class="edge">
<title>Node12&#45;&gt;Node9</title>
<g id="a_edge11_Node000009_Node000012"><a xlink:title=" ">
<path fill="none" stroke="#9a32cd" stroke-dasharray="5,2" d="M423.56,-153.7C474.17,-151.84 540.73,-149.38 588.29,-147.62"/>
<polygon fill="#9a32cd" stroke="#9a32cd" points="423.2,-150.22 413.33,-154.08 423.46,-157.21 423.2,-150.22"/>
</a>
</g>
<text text-anchor="start" x="465.5" y="-158.9" font-family="Helvetica,sans-Serif" font-size="10.00" fill="grey">orientation</text>
</g>
<!-- Node13&#45;&gt;Node9 -->
<g id="edge13_Node000009_Node000013" class="edge">
<title>Node13&#45;&gt;Node9</title>
<g id="a_edge13_Node000009_Node000013"><a xlink:title=" ">
<path fill="none" stroke="#9a32cd" stroke-dasharray="5,2" d="M420.72,-110.48C459.99,-115.22 509.8,-121.61 554,-128.4 565.12,-130.11 576.95,-132.1 588.33,-134.1"/>
<polygon fill="#9a32cd" stroke="#9a32cd" points="421.06,-107 410.72,-109.28 420.23,-113.95 421.06,-107"/>
</a>
</g>
<text text-anchor="start" x="478.5" y="-133.9" font-family="Helvetica,sans-Serif" font-size="10.00" fill="grey">chord</text>
</g>
<!-- Node14&#45;&gt;Node1 -->
<g id="edge16_Node000001_Node000014" class="edge">
<title>Node14&#45;&gt;Node1</title>
<g id="a_edge16_Node000001_Node000014"><a xlink:title=" ">
<path fill="none" stroke="#9a32cd" stroke-dasharray="5,2" d="M737.56,-205.93C806.34,-202.91 904.36,-203.29 988,-221.4 1012.3,-226.66 1038.16,-237.91 1057.06,-247.29"/>
<polygon fill="#9a32cd" stroke="#9a32cd" points="737.02,-202.45 727.2,-206.42 737.35,-209.44 737.02,-202.45"/>
</a>
</g>
<text text-anchor="start" x="906" y="-226.9" font-family="Helvetica,sans-Serif" font-size="10.00" fill="grey">aflookup</text>
</g>
<!-- Node15 -->
<g id="Node000015" class="node">
<title>Node15</title>
<g id="a_Node000015"><a xlink:href="classkynema__sgf_1_1actuator_1_1_airfoil_table.html" target="_top" xlink:title=" ">
<polygon fill="white" stroke="#666666" points="410.5,-317.4 288.5,-317.4 288.5,-287.4 410.5,-287.4 410.5,-317.4"/>
<text text-anchor="start" x="296.5" y="-305.4" font-family="Helvetica,sans-Serif" font-size="10.00">kynema_sgf::actuator</text>
<text text-anchor="middle" x="349.5" y="-294.4" font-family="Helvetica,sans-Serif" font-size="10.00">::AirfoilTable</text>
</a>
</g>
</g>
<!-- Node15&#45;&gt;Node14 -->
<g id="edge17_Node000014_Node000015" class="edge">
<title>Node15&#45;&gt;Node14</title>
<g id="a_edge17_Node000014_Node000015"><a xlink:title=" ">
<path fill="none" stroke="#9a32cd" stroke-dasharray="5,2" d="M420.76,-303.92C471.11,-303.6 533.51,-299.87 554,-284.4 571.85,-270.92 555.79,-252.82 572,-237.4 576.05,-233.55 580.7,-230.29 585.67,-227.53"/>
<polygon fill="#9a32cd" stroke="#9a32cd" points="420.53,-300.42 410.54,-303.94 420.55,-307.42 420.53,-300.42"/>
</a>
</g>
<text text-anchor="start" x="485.5" y="-308.9" font-family="Helvetica,sans-Serif" font-size="10.00" fill="grey">ptr</text>
</g>
</g>
</svg>
