<?xml version="1.0" encoding="UTF-8" standalone="no"?>
<!DOCTYPE svg PUBLIC "-//W3C//DTD SVG 1.1//EN"
 "http://www.w3.org/Graphics/SVG/1.1/DTD/svg11.dtd">
<!-- Generated by graphviz version 2.43.0 (0)
 -->
<!-- Title: kynema_sgf::actuator::FlatPlateData Pages: 1 -->
<!--zoomable 350 -->

<svg id="main" version="1.1" xmlns="http://www.w3.org/2000/svg" xmlns:xlink="http://www.w3.org/1999/xlink" xml:space="preserve" onload="init(evt)">

<style type="text/css"><![CDATA[
.node, .edge {opacity: 0.7;}
.node.selected, .edge.selected {opacity: 1;}
.edge:hover path { stroke: red; }
.edge:hover polygon { stroke: red; fill: red; }
]]></style>

<defs>
  <circle id="rim" cx="0" cy="0" r="7"/>
  <circle id="rim2" cx="0" cy="0" r="3.5"/>
  <g id="zoomPlus">
    <use xlink:href="#rim" fill="#404040"><set attributeName="fill" to="#808080" begin="zoomplus.mouseover" end="zoomplus.mouseout"/></use>
    <path d="M-4,0h8M0,-4v8" fill="none" stroke="white" stroke-width="1.5" pointer-events="none"/>
  </g>
  <g id="zoomMin">
    <use xlink:href="#rim" fill="#404040"><set attributeName="fill" to="#808080" begin="zoomminus.mouseover" end="zoomminus.mouseout"/></use>
    <path d="M-4,0h8" fill="none" stroke="white" stroke-width="1.5" pointer-events="none"/>
  </g>
  <g id="arrowUp" transform="translate(30 24)">
    <use xlink:href="#rim"/>
    <path pointer-events="none" fill="none" stroke="white" stroke-width="1.5" d="M0,-3.0v7 M-2.5,-0.5L0,-3.0L2.5,-0.5"/>
  </g>
  <g id="arrowRight" transform="rotate(90) translate(36 -43)">
    <use xlink:href="#rim"/>
    <path pointer-events="none" fill="none" stroke="white" stroke-width="1.5" d="M0,-3.0v7 M-2.5,-0.5L0,-3.0L2.5,-0.5"/>
  </g>
  <g id="arrowDown" transform="rotate(180) translate(-30 -48)">
    <use xlink:href="#rim"/>
    <path pointer-events="none" fill="none" stroke="white" stroke-width="1.5" d="M0,-3.0v7 M-2.5,-0.5L0,-3.0L2.5,-0.5"/>
  </g>
  <g id="arrowLeft" transform="rotate(270) translate(-36 17)">
    <use xlink:href="#rim"/>
    <path pointer-events="none" fill="none" stroke="white" stroke-width="1.5" d="M0,-3.0v7 M-2.5,-0.5L0,-3.0L2.5,-0.5"/>
  </g>
  <g id="resetDef">
    <use xlink:href="#rim2" fill="#404040"><set attributeName="fill" to="#808080" begin="reset.mouseover" end="reset.mouseout"/></use>
  </g>
</defs>
<script type="application/ecmascript">
var viewWidth = 1193;
var viewHeight = 350;
var sectionId = 'dynsection-1';
</script>
<script type="application/ecmascript" xlink:href="svg.min.js"/>
<svg id="graph" class="graph">
<g id="viewport">
<title>kynema_sgf::actuator::FlatPlateData</title>
<!-- Node1 -->
<g id="Node000001" class="node">
<title>Node1</title>
<g id="a_Node000001"><a xlink:title=" ">
<polygon fill="#999999" stroke="#666666" points="1185,-222 1063,-222 1063,-192 1185,-192 1185,-222"/>
<text text-anchor="start" x="1071" y="-210" font-family="Helvetica,sans-Serif" font-size="10.00">kynema_sgf::actuator</text>
<text text-anchor="middle" x="1124" y="-199" font-family="Helvetica,sans-Serif" font-size="10.00">::FlatPlateData</text>
</a>
</g>
</g>
<!-- Node2 -->
<g id="Node000002" class="node">
<title>Node2</title>
<g id="a_Node000002"><a xlink:href="structkynema__sgf_1_1actuator_1_1_wing_base_data.html" target="_top" xlink:title=" ">
<polygon fill="white" stroke="#666666" points="979,-254 857,-254 857,-224 979,-224 979,-254"/>
<text text-anchor="start" x="865" y="-242" font-family="Helvetica,sans-Serif" font-size="10.00">kynema_sgf::actuator</text>
<text text-anchor="middle" x="918" y="-231" font-family="Helvetica,sans-Serif" font-size="10.00">::WingBaseData</text>
</a>
</g>
</g>
<!-- Node2&#45;&gt;Node1 -->
<g id="edge1_Node000001_Node000002" class="edge">
<title>Node2&#45;&gt;Node1</title>
<g id="a_edge1_Node000001_Node000002"><a xlink:title=" ">
<path fill="none" stroke="#63b8ff" d="M989.22,-227.99C1013.22,-224.22 1039.84,-220.04 1062.97,-216.42"/>
<polygon fill="#63b8ff" stroke="#63b8ff" points="988.44,-224.56 979.1,-229.57 989.52,-231.48 988.44,-224.56"/>
</a>
</g>
</g>
<!-- Node3 -->
<g id="Node000003" class="node">
<title>Node3</title>
<g id="a_Node000003"><a xlink:title=" ">
<polygon fill="white" stroke="#666666" points="677.5,-321.5 612.5,-321.5 612.5,-302.5 677.5,-302.5 677.5,-321.5"/>
<text text-anchor="middle" x="645" y="-309.5" font-family="Helvetica,sans-Serif" font-size="10.00">std::string</text>
</a>
</g>
</g>
<!-- Node3&#45;&gt;Node2 -->
<g id="edge2_Node000002_Node000003" class="edge">
<title>Node3&#45;&gt;Node2</title>
<g id="a_edge2_Node000002_Node000003"><a xlink:title=" ">
<path fill="none" stroke="#9a32cd" stroke-dasharray="5,2" d="M687.35,-300.86C733.81,-288.35 809.46,-267.97 861.14,-254.05"/>
<polygon fill="#9a32cd" stroke="#9a32cd" points="686.36,-297.5 677.62,-303.48 688.18,-304.26 686.36,-297.5"/>
</a>
</g>
<text text-anchor="start" x="739.5" y="-307" font-family="Helvetica,sans-Serif" font-size="10.00" fill="grey">motion_type</text>
<text text-anchor="start" x="739.5" y="-292" font-family="Helvetica,sans-Serif" font-size="10.00" fill="grey">pitch_timetable_file</text>
</g>
<!-- Node4 -->
<g id="Node000004" class="node">
<title>Node4</title>
<g id="a_Node000004"><a xlink:title=" ">
<polygon fill="white" stroke="#666666" points="401.5,-342 297.5,-342 297.5,-312 401.5,-312 401.5,-342"/>
<text text-anchor="start" x="305.5" y="-330" font-family="Helvetica,sans-Serif" font-size="10.00">std::basic_string&lt;</text>
<text text-anchor="middle" x="349.5" y="-319" font-family="Helvetica,sans-Serif" font-size="10.00"> Char &gt;</text>
</a>
</g>
</g>
<!-- Node4&#45;&gt;Node3 -->
<g id="edge3_Node000003_Node000004" class="edge">
<title>Node4&#45;&gt;Node3</title>
<g id="a_edge3_Node000003_Node000004"><a xlink:title=" ">
<path fill="none" stroke="#63b8ff" d="M411.93,-323.86C473.13,-320.73 564.67,-316.05 612.43,-313.61"/>
<polygon fill="#63b8ff" stroke="#63b8ff" points="411.43,-320.38 401.62,-324.39 411.79,-327.37 411.43,-320.38"/>
</a>
</g>
</g>
<!-- Node5 -->
<g id="Node000005" class="node">
<title>Node5</title>
<g id="a_Node000005"><a xlink:title=" ">
<polygon fill="white" stroke="#666666" points="718,-254 572,-254 572,-224 718,-224 718,-254"/>
<text text-anchor="start" x="580" y="-242" font-family="Helvetica,sans-Serif" font-size="10.00">std::unique_ptr&lt; kynema</text>
<text text-anchor="middle" x="645" y="-231" font-family="Helvetica,sans-Serif" font-size="10.00">_sgf::actuator::FLLCData &gt;</text>
</a>
</g>
</g>
<!-- Node5&#45;&gt;Node2 -->
<g id="edge4_Node000002_Node000005" class="edge">
<title>Node5&#45;&gt;Node2</title>
<g id="a_edge4_Node000002_Node000005"><a xlink:title=" ">
<path fill="none" stroke="#9a32cd" stroke-dasharray="5,2" d="M728.34,-239C769.75,-239 819.03,-239 856.84,-239"/>
<polygon fill="#9a32cd" stroke="#9a32cd" points="728.27,-235.5 718.27,-239 728.27,-242.5 728.27,-235.5"/>
</a>
</g>
<text text-anchor="start" x="780.5" y="-244.5" font-family="Helvetica,sans-Serif" font-size="10.00" fill="grey">fllc</text>
</g>
<!-- Node6 -->
<g id="Node000006" class="node">
<title>Node6</title>
<g id="a_Node000006"><a xlink:href="structkynema__sgf_1_1actuator_1_1_f_l_l_c_data.html" target="_top" xlink:title=" ">
<polygon fill="white" stroke="#666666" points="410.5,-294 288.5,-294 288.5,-264 410.5,-264 410.5,-294"/>
<text text-anchor="start" x="296.5" y="-282" font-family="Helvetica,sans-Serif" font-size="10.00">kynema_sgf::actuator</text>
<text text-anchor="middle" x="349.5" y="-271" font-family="Helvetica,sans-Serif" font-size="10.00">::FLLCData</text>
</a>
</g>
</g>
<!-- Node6&#45;&gt;Node5 -->
<g id="edge5_Node000005_Node000006" class="edge">
<title>Node6&#45;&gt;Node5</title>
<g id="a_edge5_Node000005_Node000006"><a xlink:title=" ">
<path fill="none" stroke="#9a32cd" stroke-dasharray="5,2" d="M420.8,-272.97C460.1,-269.2 509.9,-263.78 554,-257 559.83,-256.1 565.85,-255.09 571.89,-254.01"/>
<polygon fill="#9a32cd" stroke="#9a32cd" points="420.42,-269.49 410.79,-273.91 421.07,-276.46 420.42,-269.49"/>
</a>
</g>
<text text-anchor="start" x="485.5" y="-276.5" font-family="Helvetica,sans-Serif" font-size="10.00" fill="grey">ptr</text>
</g>
<!-- Node7 -->
<g id="Node000007" class="node">
<title>Node7</title>
<g id="a_Node000007"><a xlink:title=" ">
<polygon fill="white" stroke="#666666" points="408.5,-233.5 290.5,-233.5 290.5,-214.5 408.5,-214.5 408.5,-233.5"/>
<text text-anchor="middle" x="349.5" y="-221.5" font-family="Helvetica,sans-Serif" font-size="10.00">std::unique_ptr&lt; T &gt;</text>
</a>
</g>
</g>
<!-- Node7&#45;&gt;Node5 -->
<g id="edge6_Node000005_Node000007" class="edge">
<title>Node7&#45;&gt;Node5</title>
<g id="a_edge6_Node000005_Node000007"><a xlink:title=" ">
<path fill="none" stroke="orange" stroke-dasharray="5,2" d="M418.99,-221.79C458.52,-221.16 509.13,-221.42 554,-225 559.83,-225.47 565.86,-226.09 571.9,-226.81"/>
<polygon fill="orange" stroke="orange" points="418.86,-218.3 408.93,-221.98 418.99,-225.29 418.86,-218.3"/>
</a>
</g>
<text text-anchor="start" x="434.5" y="-246" font-family="Helvetica,sans-Serif" font-size="10.00" fill="grey">&lt; kynema_sgf::actuator</text>
<text text-anchor="start" x="434.5" y="-231" font-family="Helvetica,sans-Serif" font-size="10.00" fill="grey">  ::FLLCData &gt;</text>
</g>
<!-- Node8 -->
<g id="Node000008" class="node">
<title>Node8</title>
<g id="a_Node000008"><a xlink:title=" ">
<polygon fill="white" stroke="#666666" points="68.5,-233.5 39.5,-233.5 39.5,-214.5 68.5,-214.5 68.5,-233.5"/>
<text text-anchor="middle" x="54" y="-221.5" font-family="Helvetica,sans-Serif" font-size="10.00">T</text>
</a>
</g>
</g>
<!-- Node8&#45;&gt;Node7 -->
<g id="edge7_Node000007_Node000008" class="edge">
<title>Node8&#45;&gt;Node7</title>
<g id="a_edge7_Node000007_Node000008"><a xlink:title=" ">
<path fill="none" stroke="#9a32cd" stroke-dasharray="5,2" d="M78.89,-224C124.6,-224 225.62,-224 290.2,-224"/>
<polygon fill="#9a32cd" stroke="#9a32cd" points="78.76,-220.5 68.76,-224 78.76,-227.5 78.76,-220.5"/>
</a>
</g>
<text text-anchor="start" x="190" y="-229.5" font-family="Helvetica,sans-Serif" font-size="10.00" fill="grey">ptr</text>
</g>
<!-- Node9 -->
<g id="Node000009" class="node">
<title>Node9</title>
<g id="a_Node000009"><a xlink:href="structkynema__sgf_1_1actuator_1_1_component_view.html" target="_top" xlink:title=" ">
<polygon fill="white" stroke="#666666" points="706,-104 584,-104 584,-74 706,-74 706,-104"/>
<text text-anchor="start" x="592" y="-92" font-family="Helvetica,sans-Serif" font-size="10.00">kynema_sgf::actuator</text>
<text text-anchor="middle" x="645" y="-81" font-family="Helvetica,sans-Serif" font-size="10.00">::ComponentView</text>
</a>
</g>
</g>
<!-- Node9&#45;&gt;Node2 -->
<g id="edge8_Node000002_Node000009" class="edge">
<title>Node9&#45;&gt;Node2</title>
<g id="a_edge8_Node000002_Node000009"><a xlink:title=" ">
<path fill="none" stroke="#9a32cd" stroke-dasharray="5,2" d="M677.02,-109.65C717.41,-136.03 790.69,-182.2 857,-215 863.34,-218.13 870.19,-221.18 876.91,-223.99"/>
<polygon fill="#9a32cd" stroke="#9a32cd" points="678.72,-106.58 668.44,-104.02 674.88,-112.43 678.72,-106.58"/>
</a>
</g>
<text text-anchor="start" x="745.5" y="-207.5" font-family="Helvetica,sans-Serif" font-size="10.00" fill="grey">component_view</text>
</g>
<!-- Node10 -->
<g id="Node000010" class="node">
<title>Node10</title>
<g id="a_Node000010"><a xlink:href="structkynema__sgf_1_1utils_1_1_slice.html" target="_top" xlink:title=" ">
<polygon fill="white" stroke="#666666" points="413,-148.5 286,-148.5 286,-107.5 413,-107.5 413,-148.5"/>
<text text-anchor="start" x="294" y="-136.5" font-family="Helvetica,sans-Serif" font-size="10.00">kynema_sgf::utils::</text>
<text text-anchor="start" x="294" y="-125.5" font-family="Helvetica,sans-Serif" font-size="10.00">Slice&lt; kynema_sgf::vs</text>
<text text-anchor="middle" x="349.5" y="-114.5" font-family="Helvetica,sans-Serif" font-size="10.00">::Vector &gt;</text>
</a>
</g>
</g>
<!-- Node10&#45;&gt;Node9 -->
<g id="edge9_Node000009_Node000010" class="edge">
<title>Node10&#45;&gt;Node9</title>
<g id="a_edge9_Node000009_Node000010"><a xlink:title=" ">
<path fill="none" stroke="#9a32cd" stroke-dasharray="5,2" d="M423.09,-118.35C472.52,-111.79 537.17,-103.19 583.75,-97.01"/>
<polygon fill="#9a32cd" stroke="#9a32cd" points="422.55,-114.89 413.1,-119.68 423.48,-121.83 422.55,-114.89"/>
</a>
</g>
<text text-anchor="start" x="473.5" y="-198" font-family="Helvetica,sans-Serif" font-size="10.00" fill="grey">epsilon</text>
<text text-anchor="start" x="473.5" y="-183" font-family="Helvetica,sans-Serif" font-size="10.00" fill="grey">force</text>
<text text-anchor="start" x="473.5" y="-168" font-family="Helvetica,sans-Serif" font-size="10.00" fill="grey">pos</text>
<text text-anchor="start" x="473.5" y="-153" font-family="Helvetica,sans-Serif" font-size="10.00" fill="grey">vel</text>
<text text-anchor="start" x="473.5" y="-138" font-family="Helvetica,sans-Serif" font-size="10.00" fill="grey">vel_pos</text>
<text text-anchor="start" x="473.5" y="-123" font-family="Helvetica,sans-Serif" font-size="10.00" fill="grey">vel_rel</text>
</g>
<!-- Node11 -->
<g id="Node000011" class="node">
<title>Node11</title>
<g id="a_Node000011"><a xlink:href="structkynema__sgf_1_1utils_1_1_slice.html" target="_top" xlink:title=" ">
<polygon fill="white" stroke="#666666" points="108,-84 0,-84 0,-54 108,-54 108,-84"/>
<text text-anchor="start" x="8" y="-72" font-family="Helvetica,sans-Serif" font-size="10.00">kynema_sgf::utils::</text>
<text text-anchor="middle" x="54" y="-61" font-family="Helvetica,sans-Serif" font-size="10.00">Slice&lt; T &gt;</text>
</a>
</g>
</g>
<!-- Node11&#45;&gt;Node10 -->
<g id="edge10_Node000010_Node000011" class="edge">
<title>Node11&#45;&gt;Node10</title>
<g id="a_edge10_Node000010_Node000011"><a xlink:title=" ">
<path fill="none" stroke="orange" stroke-dasharray="5,2" d="M112.71,-86.68C117.19,-87.87 121.66,-88.99 126,-90 179.44,-102.42 240.97,-112.62 285.77,-119.31"/>
<polygon fill="orange" stroke="orange" points="113.49,-83.27 102.92,-84.01 111.64,-90.02 113.49,-83.27"/>
</a>
</g>
<text text-anchor="start" x="129" y="-121.5" font-family="Helvetica,sans-Serif" font-size="10.00" fill="grey">&lt; kynema_sgf::vs::Vector &gt;</text>
</g>
<!-- Node12 -->
<g id="Node000012" class="node">
<title>Node12</title>
<g id="a_Node000012"><a xlink:href="structkynema__sgf_1_1utils_1_1_slice.html" target="_top" xlink:title=" ">
<polygon fill="white" stroke="#666666" points="413,-89.5 286,-89.5 286,-48.5 413,-48.5 413,-89.5"/>
<text text-anchor="start" x="294" y="-77.5" font-family="Helvetica,sans-Serif" font-size="10.00">kynema_sgf::utils::</text>
<text text-anchor="start" x="294" y="-66.5" font-family="Helvetica,sans-Serif" font-size="10.00">Slice&lt; kynema_sgf::vs</text>
<text text-anchor="middle" x="349.5" y="-55.5" font-family="Helvetica,sans-Serif" font-size="10.00">::Tensor &gt;</text>
</a>
</g>
</g>
<!-- Node11&#45;&gt;Node12 -->
<g id="edge12_Node000012_Node000011" class="edge">
<title>Node11&#45;&gt;Node12</title>
<g id="a_edge12_Node000012_Node000011"><a xlink:title=" ">
<path fill="none" stroke="orange" stroke-dasharray="5,2" d="M118.42,-69C167.96,-69 236.45,-69 285.81,-69"/>
<polygon fill="orange" stroke="orange" points="118.15,-65.5 108.15,-69 118.15,-72.5 118.15,-65.5"/>
</a>
</g>
<text text-anchor="start" x="129" y="-74.5" font-family="Helvetica,sans-Serif" font-size="10.00" fill="grey">&lt; kynema_sgf::vs::Tensor &gt;</text>
</g>
<!-- Node13 -->
<g id="Node000013" class="node">
<title>Node13</title>
<g id="a_Node000013"><a xlink:href="structkynema__sgf_1_1utils_1_1_slice.html" target="_top" xlink:title=" ">
<polygon fill="white" stroke="#666666" points="410.5,-30 288.5,-30 288.5,0 410.5,0 410.5,-30"/>
<text text-anchor="start" x="296.5" y="-18" font-family="Helvetica,sans-Serif" font-size="10.00">kynema_sgf::utils::</text>
<text text-anchor="middle" x="349.5" y="-7" font-family="Helvetica,sans-Serif" font-size="10.00">Slice&lt; amrex::Real &gt;</text>
</a>
</g>
</g>
<!-- Node11&#45;&gt;Node13 -->
<g id="edge14_Node000013_Node000011" class="edge">
<title>Node11&#45;&gt;Node13</title>
<g id="a_edge14_Node000013_Node000011"><a xlink:title=" ">
<path fill="none" stroke="orange" stroke-dasharray="5,2" d="M112.46,-51.27C117.02,-50.08 121.57,-48.98 126,-48 180.34,-36 243.12,-27.13 288.12,-21.63"/>
<polygon fill="orange" stroke="orange" points="111.24,-47.97 102.5,-53.95 113.07,-54.73 111.24,-47.97"/>
</a>
</g>
<text text-anchor="start" x="156" y="-53.5" font-family="Helvetica,sans-Serif" font-size="10.00" fill="grey">&lt; amrex::Real &gt;</text>
</g>
<!-- Node12&#45;&gt;Node9 -->
<g id="edge11_Node000009_Node000012" class="edge">
<title>Node12&#45;&gt;Node9</title>
<g id="a_edge11_Node000009_Node000012"><a xlink:title=" ">
<path fill="none" stroke="#9a32cd" stroke-dasharray="5,2" d="M423.21,-65.79C462.12,-64.97 510.79,-65.38 554,-70 563.69,-71.04 573.87,-72.66 583.75,-74.52"/>
<polygon fill="#9a32cd" stroke="#9a32cd" points="422.94,-62.29 413.03,-66.04 423.11,-69.29 422.94,-62.29"/>
</a>
</g>
<text text-anchor="start" x="465.5" y="-75.5" font-family="Helvetica,sans-Serif" font-size="10.00" fill="grey">orientation</text>
</g>
<!-- Node13&#45;&gt;Node9 -->
<g id="edge13_Node000009_Node000013" class="edge">
<title>Node13&#45;&gt;Node9</title>
<g id="a_edge13_Node000009_Node000013"><a xlink:title=" ">
<path fill="none" stroke="#9a32cd" stroke-dasharray="5,2" d="M420.92,-20C460.66,-24.15 510.85,-31.63 554,-45 576.76,-52.05 600.93,-64.16 618.49,-73.89"/>
<polygon fill="#9a32cd" stroke="#9a32cd" points="421.09,-16.5 410.79,-18.99 420.4,-23.46 421.09,-16.5"/>
</a>
</g>
<text text-anchor="start" x="478.5" y="-50.5" font-family="Helvetica,sans-Serif" font-size="10.00" fill="grey">chord</text>
</g>
<!-- Node14 -->
<g id="Node000014" class="node">
<title>Node14</title>
<g id="a_Node000014"><a xlink:href="classkynema__sgf_1_1actuator_1_1_thin_airfoil.html" target="_top" xlink:title=" ">
<polygon fill="white" stroke="#666666" points="979,-206 857,-206 857,-176 979,-176 979,-206"/>
<text text-anchor="start" x="865" y="-194" font-family="Helvetica,sans-Serif" font-size="10.00">kynema_sgf::actuator</text>
<text text-anchor="middle" x="918" y="-183" font-family="Helvetica,sans-Serif" font-size="10.00">::ThinAirfoil</text>
</a>
</g>
</g>
<!-- Node14&#45;&gt;Node1 -->
<g id="edge15_Node000001_Node000014" class="edge">
<title>Node14&#45;&gt;Node1</title>
<g id="a_edge15_Node000001_Node000014"><a xlink:title=" ">
<path fill="none" stroke="#9a32cd" stroke-dasharray="5,2" d="M989.45,-195.81C1007.56,-197.1 1027.01,-198.55 1045,-200 1050.83,-200.47 1056.9,-200.98 1062.97,-201.5"/>
<polygon fill="#9a32cd" stroke="#9a32cd" points="989.48,-192.3 979.26,-195.08 988.99,-199.28 989.48,-192.3"/>
</a>
</g>
<text text-anchor="start" x="1000" y="-205.5" font-family="Helvetica,sans-Serif" font-size="10.00" fill="grey">aflookup</text>
</g>
</g>
</svg>

<g id="navigator" transform="translate(0 0)" fill="#404254">
  <rect fill="#f2f5e9" fill-opacity="0.5" stroke="#606060" stroke-width=".5" x="0" y="0" width="60" height="60"/>
  <use id="zoomplus" xlink:href="#zoomPlus" x="17" y="9" onmousedown="handleZoom(evt,'in')"/>
  <use id="zoomminus" xlink:href="#zoomMin" x="42" y="9" onmousedown="handleZoom(evt,'out')"/>
  <use id="reset" xlink:href="#resetDef" x="30" y="36" onmousedown="handleReset()"/>
   <use id="arrowup" xlink:href="#arrowUp" x="0" y="0" onmousedown="handlePan(0,-1)"/>
  <use id="arrowright" xlink:href="#arrowRight" x="0" y="0" onmousedown="handlePan(1,0)"/>
  <use id="arrowdown" xlink:href="#arrowDown" x="0" y="0" onmousedown="handlePan(0,1)"/>
  <use id="arrowleft" xlink:href="#arrowLeft" x="0" y="0" onmousedown="handlePan(-1,0)"/>
</g>
<svg viewBox="0 0 15 15" width="100%" height="30px" preserveAspectRatio="xMaxYMin meet">
 <g id="arrow_out" transform="scale(0.3 0.3)">
  <a xlink:href="structkynema__sgf_1_1actuator_1_1_flat_plate_data__coll__graph_org.svg" target="_base">
   <rect id="button" ry="5" rx="5" y="6" x="6" height="38" width="38"
        fill="#f2f5e9" fill-opacity="0.5" stroke="#606060" stroke-width="1.0"/>
   <path id="arrow"
     d="M 11.500037,31.436501 C 11.940474,20.09759 22.043105,11.32322 32.158766,21.979434 L 37.068811,17.246167 C 37.068811,17.246167 37.088388,32 37.088388,32 L 22.160133,31.978069 C 22.160133,31.978069 26.997745,27.140456 26.997745,27.140456 C 18.528582,18.264221 13.291696,25.230495 11.500037,31.436501 z"
     style="fill:#404040;"/>
  </a>
 </g>
</svg>

<style type='text/css'>
<![CDATA[
[data-mouse-over-selected='false'] { opacity: 0.7; }
[data-mouse-over-selected='true']  { opacity: 1.0; }
]]>
</style>
<script type="application/ecmascript"><![CDATA[
document.addEventListener('DOMContentLoaded', (event) => {
  highlightEdges();
  highlightAdjacentNodes();
});
]]></script>
</svg>
