<?xml version="1.0" encoding="UTF-8" standalone="no"?>
<!DOCTYPE svg PUBLIC "-//W3C//DTD SVG 1.1//EN"
 "http://www.w3.org/Graphics/SVG/1.1/DTD/svg11.dtd">
<!-- Generated by graphviz version 2.43.0 (0)
 -->
<!-- Title: kynema_sgf::pde::SrcTermOpBase&lt; PDE &gt; Pages: 1 -->
<svg width="314pt" height="204pt"
 viewBox="0.00 0.00 314.00 204.00" xmlns="http://www.w3.org/2000/svg" xmlns:xlink="http://www.w3.org/1999/xlink">

<svg id="main" version="1.1" xmlns="http://www.w3.org/2000/svg" xmlns:xlink="http://www.w3.org/1999/xlink" xml:space="preserve">

<style type="text/css"><![CDATA[
.node, .edge {opacity: 0.7;}
.node.selected, .edge.selected {opacity: 1;}
.edge:hover path { stroke: red; }
.edge:hover polygon { stroke: red; fill: red; }
]]></style>
<script type="application/ecmascript" xlink:href="svg.min.js"/>
<svg id="graph" class="graph">
<g id="graph0" class="graph" transform="scale(1 1) rotate(0) translate(4 200)">
<title>kynema_sgf::pde::SrcTermOpBase&lt; PDE &gt;</title>
<!-- Node1 -->
<g id="Node000001" class="node">
<title>Node1</title>
<g id="a_Node000001"><a xlink:title=" ">
<polygon fill="#999999" stroke="#666666" points="224,-196 80,-196 80,-166 224,-166 224,-196"/>
<text text-anchor="start" x="88" y="-184" font-family="Helvetica,sans-Serif" font-size="10.00">kynema_sgf::pde::SrcTerm</text>
<text text-anchor="middle" x="152" y="-173" font-family="Helvetica,sans-Serif" font-size="10.00">OpBase&lt; PDE &gt;</text>
</a>
</g>
</g>
<!-- Node2 -->
<g id="Node000002" class="node">
<title>Node2</title>
<g id="a_Node000002"><a xlink:href="structkynema__sgf_1_1pde_1_1_src_term_op.html" target="_top" xlink:title=" ">
<polygon fill="white" stroke="#666666" points="144,-113 0,-113 0,-83 144,-83 144,-113"/>
<text text-anchor="start" x="8" y="-101" font-family="Helvetica,sans-Serif" font-size="10.00">kynema_sgf::pde::SrcTerm</text>
<text text-anchor="middle" x="72" y="-90" font-family="Helvetica,sans-Serif" font-size="10.00">Op&lt; PDE &gt;</text>
</a>
</g>
</g>
<!-- Node1&#45;&gt;Node2 -->
<g id="edge1_Node000001_Node000002" class="edge">
<title>Node1&#45;&gt;Node2</title>
<g id="a_edge1_Node000001_Node000002"><a xlink:title=" ">
<path fill="none" stroke="#63b8ff" d="M130.69,-158.42C116.55,-144.1 98.39,-125.72 86.04,-113.22"/>
<polygon fill="#63b8ff" stroke="#63b8ff" points="128.55,-161.24 138.07,-165.89 133.53,-156.32 128.55,-161.24"/>
</a>
</g>
</g>
<!-- Node4 -->
<g id="Node000004" class="node">
<title>Node4</title>
<g id="a_Node000004"><a xlink:href="structkynema__sgf_1_1pde_1_1_src_term_op_base.html" target="_top" xlink:title=" ">
<polygon fill="white" stroke="#666666" points="306,-113 162,-113 162,-83 306,-83 306,-113"/>
<text text-anchor="start" x="170" y="-101" font-family="Helvetica,sans-Serif" font-size="10.00">kynema_sgf::pde::SrcTerm</text>
<text text-anchor="middle" x="234" y="-90" font-family="Helvetica,sans-Serif" font-size="10.00">OpBase&lt; ICNS &gt;</text>
</a>
</g>
</g>
<!-- Node1&#45;&gt;Node4 -->
<g id="edge3_Node000001_Node000004" class="edge">
<title>Node1&#45;&gt;Node4</title>
<g id="a_edge3_Node000001_Node000004"><a xlink:title=" ">
<path fill="none" stroke="orange" stroke-dasharray="5,2" d="M173.45,-158.82C187.99,-144.45 206.83,-125.84 219.61,-113.22"/>
<polygon fill="orange" stroke="orange" points="170.94,-156.37 166.28,-165.89 175.86,-161.35 170.94,-156.37"/>
</a>
</g>
<text text-anchor="start" x="203" y="-136.5" font-family="Helvetica,sans-Serif" font-size="10.00" fill="grey">&lt; ICNS &gt;</text>
</g>
<!-- Node3 -->
<g id="Node000003" class="node">
<title>Node3</title>
<g id="a_Node000003"><a xlink:href="structkynema__sgf_1_1pde_1_1_src_term_op_3_01_i_c_n_s_01_4.html" target="_top" xlink:title=" ">
<polygon fill="white" stroke="#666666" points="306,-30 162,-30 162,0 306,0 306,-30"/>
<text text-anchor="start" x="170" y="-18" font-family="Helvetica,sans-Serif" font-size="10.00">kynema_sgf::pde::SrcTerm</text>
<text text-anchor="middle" x="234" y="-7" font-family="Helvetica,sans-Serif" font-size="10.00">Op&lt; ICNS &gt;</text>
</a>
</g>
</g>
<!-- Node2&#45;&gt;Node3 -->
<g id="edge2_Node000002_Node000003" class="edge">
<title>Node2&#45;&gt;Node3</title>
<g id="a_edge2_Node000002_Node000003"><a xlink:title=" ">
<path fill="none" stroke="orange" stroke-dasharray="5,2" d="M109.35,-78.33C138.75,-63.62 179.1,-43.45 205.83,-30.08"/>
<polygon fill="orange" stroke="orange" points="107.6,-75.29 100.22,-82.89 110.73,-81.55 107.6,-75.29"/>
</a>
</g>
<text text-anchor="start" x="171" y="-53.5" font-family="Helvetica,sans-Serif" font-size="10.00" fill="grey">&lt; ICNS &gt;</text>
</g>
<!-- Node4&#45;&gt;Node3 -->
<g id="edge4_Node000004_Node000003" class="edge">
<title>Node4&#45;&gt;Node3</title>
<g id="a_edge4_Node000004_Node000003"><a xlink:title=" ">
<path fill="none" stroke="#63b8ff" d="M227.75,-72.59C226.85,-58.75 227.17,-41.91 228.72,-30.22"/>
<polygon fill="#63b8ff" stroke="#63b8ff" points="224.3,-73.27 228.73,-82.89 231.26,-72.6 224.3,-73.27"/>
</a>
</g>
</g>
<!-- Node4&#45;&gt;Node3 -->
<g id="edge5_Node000004_Node000003" class="edge">
<title>Node4&#45;&gt;Node3</title>
<g id="a_edge5_Node000004_Node000003"><a xlink:title=" ">
<path fill="none" stroke="#63b8ff" d="M240.25,-72.59C241.15,-58.75 240.83,-41.91 239.28,-30.22"/>
<polygon fill="#63b8ff" stroke="#63b8ff" points="236.74,-72.6 239.27,-82.89 243.7,-73.27 236.74,-72.6"/>
</a>
</g>
</g>
</g>
</svg>
</svg>

<style type='text/css'>
<![CDATA[
[data-mouse-over-selected='false'] { opacity: 0.7; }
[data-mouse-over-selected='true']  { opacity: 1.0; }
]]>
</style>
<script type="application/ecmascript"><![CDATA[
document.addEventListener('DOMContentLoaded', (event) => {
  highlightEdges();
  highlightAdjacentNodes();
});
]]></script>
</svg>
