<?xml version="1.0" encoding="UTF-8" standalone="no"?>
<!DOCTYPE svg PUBLIC "-//W3C//DTD SVG 1.1//EN"
 "http://www.w3.org/Graphics/SVG/1.1/DTD/svg11.dtd">
<!-- Generated by graphviz version 2.43.0 (0)
 -->
<!-- Title: kynema_sgf::pde::BCOp&lt; PDE, std::enable_if_t&lt; std::is_base_of_v&lt; ScalarTransport, PDE &gt; &gt; &gt; Pages: 1 -->
<!--zoomable 359 -->

<svg id="main" version="1.1" xmlns="http://www.w3.org/2000/svg" xmlns:xlink="http://www.w3.org/1999/xlink" xml:space="preserve" onload="init(evt)">

<style type="text/css"><![CDATA[
.node, .edge {opacity: 0.7;}
.node.selected, .edge.selected {opacity: 1;}
.edge:hover path { stroke: red; }
.edge:hover polygon { stroke: red; fill: red; }
]]></style>

<defs>
  <circle id="rim" cx="0" cy="0" r="7"/>
  <circle id="rim2" cx="0" cy="0" r="3.5"/>
  <g id="zoomPlus">
    <use xlink:href="#rim" fill="#404040"><set attributeName="fill" to="#808080" begin="zoomplus.mouseover" end="zoomplus.mouseout"/></use>
    <path d="M-4,0h8M0,-4v8" fill="none" stroke="white" stroke-width="1.5" pointer-events="none"/>
  </g>
  <g id="zoomMin">
    <use xlink:href="#rim" fill="#404040"><set attributeName="fill" to="#808080" begin="zoomminus.mouseover" end="zoomminus.mouseout"/></use>
    <path d="M-4,0h8" fill="none" stroke="white" stroke-width="1.5" pointer-events="none"/>
  </g>
  <g id="arrowUp" transform="translate(30 24)">
    <use xlink:href="#rim"/>
    <path pointer-events="none" fill="none" stroke="white" stroke-width="1.5" d="M0,-3.0v7 M-2.5,-0.5L0,-3.0L2.5,-0.5"/>
  </g>
  <g id="arrowRight" transform="rotate(90) translate(36 -43)">
    <use xlink:href="#rim"/>
    <path pointer-events="none" fill="none" stroke="white" stroke-width="1.5" d="M0,-3.0v7 M-2.5,-0.5L0,-3.0L2.5,-0.5"/>
  </g>
  <g id="arrowDown" transform="rotate(180) translate(-30 -48)">
    <use xlink:href="#rim"/>
    <path pointer-events="none" fill="none" stroke="white" stroke-width="1.5" d="M0,-3.0v7 M-2.5,-0.5L0,-3.0L2.5,-0.5"/>
  </g>
  <g id="arrowLeft" transform="rotate(270) translate(-36 17)">
    <use xlink:href="#rim"/>
    <path pointer-events="none" fill="none" stroke="white" stroke-width="1.5" d="M0,-3.0v7 M-2.5,-0.5L0,-3.0L2.5,-0.5"/>
  </g>
  <g id="resetDef">
    <use xlink:href="#rim2" fill="#404040"><set attributeName="fill" to="#808080" begin="reset.mouseover" end="reset.mouseout"/></use>
  </g>
</defs>
<script type="application/ecmascript">
var viewWidth = 1965;
var viewHeight = 359;
var sectionId = 'dynsection-1';
</script>
<script type="application/ecmascript" xlink:href="svg.min.js"/>
<svg id="graph" class="graph">
<g id="viewport">
<title>kynema_sgf::pde::BCOp&lt; PDE, std::enable_if_t&lt; std::is_base_of_v&lt; ScalarTransport, PDE &gt; &gt; &gt;</title>
<!-- Node1 -->
<g id="Node000001" class="node">
<title>Node1</title>
<g id="a_Node000001"><a xlink:title=" ">
<polygon fill="#999999" stroke="#666666" points="1957,-118 1795,-118 1795,-66 1957,-66 1957,-118"/>
<text text-anchor="start" x="1803" y="-106" font-family="Helvetica,sans-Serif" font-size="10.00">kynema_sgf::pde::BCOp</text>
<text text-anchor="start" x="1803" y="-95" font-family="Helvetica,sans-Serif" font-size="10.00">&lt; PDE, std::enable_if</text>
<text text-anchor="start" x="1803" y="-84" font-family="Helvetica,sans-Serif" font-size="10.00">_t&lt; std::is_base_of_v</text>
<text text-anchor="middle" x="1876" y="-73" font-family="Helvetica,sans-Serif" font-size="10.00">&lt; ScalarTransport, PDE &gt; &gt; &gt;</text>
</a>
</g>
</g>
<!-- Node2 -->
<g id="Node000002" class="node">
<title>Node2</title>
<g id="a_Node000002"><a xlink:href="structkynema__sgf_1_1pde_1_1_p_d_e_fields.html" target="_top" xlink:title=" ">
<polygon fill="white" stroke="#666666" points="1631,-200.5 1478,-200.5 1478,-181.5 1631,-181.5 1631,-200.5"/>
<text text-anchor="middle" x="1554.5" y="-188.5" font-family="Helvetica,sans-Serif" font-size="10.00">kynema_sgf::pde::PDEFields</text>
</a>
</g>
</g>
<!-- Node2&#45;&gt;Node1 -->
<g id="edge1_Node000001_Node000002" class="edge">
<title>Node2&#45;&gt;Node1</title>
<g id="a_edge1_Node000001_Node000002"><a xlink:title=" ">
<path fill="none" stroke="#9a32cd" stroke-dasharray="5,2" d="M1596.19,-178.39C1646,-162.96 1731.5,-136.46 1794.72,-116.87"/>
<polygon fill="#9a32cd" stroke="#9a32cd" points="1594.94,-175.11 1586.43,-181.42 1597.01,-181.8 1594.94,-175.11"/>
</a>
</g>
<text text-anchor="start" x="1692" y="-167.5" font-family="Helvetica,sans-Serif" font-size="10.00" fill="grey">m_fields</text>
</g>
<!-- Node3 -->
<g id="Node000003" class="node">
<title>Node3</title>
<g id="a_Node000003"><a xlink:href="classkynema__sgf_1_1_field_repo.html" target="_top" xlink:title=" ">
<polygon fill="white" stroke="#666666" points="1195.5,-281.5 1066.5,-281.5 1066.5,-262.5 1195.5,-262.5 1195.5,-281.5"/>
<text text-anchor="middle" x="1131" y="-269.5" font-family="Helvetica,sans-Serif" font-size="10.00">kynema_sgf::FieldRepo</text>
</a>
</g>
</g>
<!-- Node3&#45;&gt;Node2 -->
<g id="edge2_Node000002_Node000003" class="edge">
<title>Node3&#45;&gt;Node2</title>
<g id="a_edge2_Node000002_Node000003"><a xlink:title=" ">
<path fill="none" stroke="#9a32cd" stroke-dasharray="5,2" d="M1191.08,-283.07C1258.45,-293.09 1370.77,-301.79 1460,-269 1498.1,-255 1531.64,-218.12 1546.03,-200.56"/>
<polygon fill="#9a32cd" stroke="#9a32cd" points="1191.49,-279.59 1181.07,-281.52 1190.42,-286.51 1191.49,-279.59"/>
</a>
</g>
<text text-anchor="start" x="1321" y="-297.5" font-family="Helvetica,sans-Serif" font-size="10.00" fill="grey">repo</text>
</g>
<!-- Node10 -->
<g id="Node000010" class="node">
<title>Node10</title>
<g id="a_Node000010"><a xlink:href="classkynema__sgf_1_1_field.html" target="_top" xlink:title=" ">
<polygon fill="white" stroke="#666666" points="1384,-214.5 1280,-214.5 1280,-195.5 1384,-195.5 1384,-214.5"/>
<text text-anchor="middle" x="1332" y="-202.5" font-family="Helvetica,sans-Serif" font-size="10.00">kynema_sgf::Field</text>
</a>
</g>
</g>
<!-- Node3&#45;&gt;Node10 -->
<g id="edge10_Node000010_Node000003" class="edge">
<title>Node3&#45;&gt;Node10</title>
<g id="a_edge10_Node000010_Node000003"><a xlink:title=" ">
<path fill="none" stroke="#9a32cd" stroke-dasharray="5,2" d="M1171.01,-259.27C1196.86,-250.79 1231.49,-239.35 1262,-229 1275.81,-224.31 1291.14,-218.99 1303.83,-214.56"/>
<polygon fill="#9a32cd" stroke="#9a32cd" points="1169.63,-256.04 1161.21,-262.48 1171.81,-262.69 1169.63,-256.04"/>
</a>
</g>
<text text-anchor="start" x="1222.5" y="-248.5" font-family="Helvetica,sans-Serif" font-size="10.00" fill="grey">m_repo</text>
</g>
<!-- Node4 -->
<g id="Node000004" class="node">
<title>Node4</title>
<g id="a_Node000004"><a xlink:title=" ">
<polygon fill="white" stroke="#666666" points="899.5,-287 777.5,-287 777.5,-257 899.5,-257 899.5,-287"/>
<text text-anchor="start" x="785.5" y="-275" font-family="Helvetica,sans-Serif" font-size="10.00">std::unordered_map</text>
<text text-anchor="middle" x="838.5" y="-264" font-family="Helvetica,sans-Serif" font-size="10.00">&lt; std::string, size_t &gt;</text>
</a>
</g>
</g>
<!-- Node4&#45;&gt;Node3 -->
<g id="edge3_Node000003_Node000004" class="edge">
<title>Node4&#45;&gt;Node3</title>
<g id="a_edge3_Node000003_Node000004"><a xlink:title=" ">
<path fill="none" stroke="#9a32cd" stroke-dasharray="5,2" d="M909.94,-272C957.65,-272 1020.16,-272 1066.36,-272"/>
<polygon fill="#9a32cd" stroke="#9a32cd" points="909.69,-268.5 899.69,-272 909.69,-275.5 909.69,-268.5"/>
</a>
</g>
<text text-anchor="start" x="944.5" y="-293" font-family="Helvetica,sans-Serif" font-size="10.00" fill="grey">m_fid_map</text>
<text text-anchor="start" x="944.5" y="-278" font-family="Helvetica,sans-Serif" font-size="10.00" fill="grey">m_int_fid_map</text>
</g>
<!-- Node5 -->
<g id="Node000005" class="node">
<title>Node5</title>
<g id="a_Node000005"><a xlink:title=" ">
<polygon fill="white" stroke="#666666" points="556.5,-236.5 491.5,-236.5 491.5,-217.5 556.5,-217.5 556.5,-236.5"/>
<text text-anchor="middle" x="524" y="-224.5" font-family="Helvetica,sans-Serif" font-size="10.00">std::string</text>
</a>
</g>
</g>
<!-- Node5&#45;&gt;Node4 -->
<g id="edge4_Node000004_Node000005" class="edge">
<title>Node5&#45;&gt;Node4</title>
<g id="a_edge4_Node000004_Node000005"><a xlink:title=" ">
<path fill="none" stroke="#9a32cd" stroke-dasharray="5,2" d="M566.61,-231.17C613.51,-236.1 691.96,-245.03 759,-256 764.9,-256.97 771.04,-258.06 777.16,-259.21"/>
<polygon fill="#9a32cd" stroke="#9a32cd" points="566.83,-227.67 556.53,-230.12 566.11,-234.64 566.83,-227.67"/>
</a>
</g>
<text text-anchor="start" x="679.5" y="-261.5" font-family="Helvetica,sans-Serif" font-size="10.00" fill="grey">keys</text>
</g>
<!-- Node5&#45;&gt;Node10 -->
<g id="edge11_Node000010_Node000005" class="edge">
<title>Node5&#45;&gt;Node10</title>
<g id="a_edge11_Node000010_Node000005"><a xlink:title=" ">
<path fill="none" stroke="#9a32cd" stroke-dasharray="5,2" d="M566.99,-225.85C703.05,-222.14 1131.46,-210.45 1279.83,-206.4"/>
<polygon fill="#9a32cd" stroke="#9a32cd" points="566.5,-222.37 556.6,-226.14 566.69,-229.36 566.5,-222.37"/>
</a>
</g>
<text text-anchor="start" x="959.5" y="-221.5" font-family="Helvetica,sans-Serif" font-size="10.00" fill="grey">m_name</text>
</g>
<!-- Node12 -->
<g id="Node000012" class="node">
<title>Node12</title>
<g id="a_Node000012"><a xlink:href="structkynema__sgf_1_1_field_info.html" target="_top" xlink:title=" ">
<polygon fill="white" stroke="#666666" points="900,-170.5 777,-170.5 777,-151.5 900,-151.5 900,-170.5"/>
<text text-anchor="middle" x="838.5" y="-158.5" font-family="Helvetica,sans-Serif" font-size="10.00">kynema_sgf::FieldInfo</text>
</a>
</g>
</g>
<!-- Node5&#45;&gt;Node12 -->
<g id="edge14_Node000012_Node000005" class="edge">
<title>Node5&#45;&gt;Node12</title>
<g id="a_edge14_Node000012_Node000005"><a xlink:title=" ">
<path fill="none" stroke="#9a32cd" stroke-dasharray="5,2" d="M553.05,-213.05C572.06,-204.2 597.99,-193.27 622,-187 673.23,-173.61 733.14,-167.09 776.77,-163.93"/>
<polygon fill="#9a32cd" stroke="#9a32cd" points="551.32,-210 543.8,-217.45 554.33,-216.32 551.32,-210"/>
</a>
</g>
<text text-anchor="start" x="657.5" y="-192.5" font-family="Helvetica,sans-Serif" font-size="10.00" fill="grey">m_basename</text>
</g>
<!-- Node6 -->
<g id="Node000006" class="node">
<title>Node6</title>
<g id="a_Node000006"><a xlink:title=" ">
<polygon fill="white" stroke="#666666" points="241.5,-250 137.5,-250 137.5,-220 241.5,-220 241.5,-250"/>
<text text-anchor="start" x="145.5" y="-238" font-family="Helvetica,sans-Serif" font-size="10.00">std::basic_string&lt;</text>
<text text-anchor="middle" x="189.5" y="-227" font-family="Helvetica,sans-Serif" font-size="10.00"> Char &gt;</text>
</a>
</g>
</g>
<!-- Node6&#45;&gt;Node5 -->
<g id="edge5_Node000005_Node000006" class="edge">
<title>Node6&#45;&gt;Node5</title>
<g id="a_edge5_Node000005_Node000006"><a xlink:title=" ">
<path fill="none" stroke="#63b8ff" d="M251.85,-233.52C322.64,-231.82 436.34,-229.09 491.27,-227.76"/>
<polygon fill="#63b8ff" stroke="#63b8ff" points="251.64,-230.03 241.72,-233.77 251.81,-237.03 251.64,-230.03"/>
</a>
</g>
</g>
<!-- Node7 -->
<g id="Node000007" class="node">
<title>Node7</title>
<g id="a_Node000007"><a xlink:title=" ">
<polygon fill="white" stroke="#666666" points="581,-306 467,-306 467,-276 581,-276 581,-306"/>
<text text-anchor="start" x="475" y="-294" font-family="Helvetica,sans-Serif" font-size="10.00">std::unordered_map</text>
<text text-anchor="middle" x="524" y="-283" font-family="Helvetica,sans-Serif" font-size="10.00">&lt; K, T &gt;</text>
</a>
</g>
</g>
<!-- Node7&#45;&gt;Node4 -->
<g id="edge6_Node000004_Node000007" class="edge">
<title>Node7&#45;&gt;Node4</title>
<g id="a_edge6_Node000004_Node000007"><a xlink:title=" ">
<path fill="none" stroke="orange" stroke-dasharray="5,2" d="M591.25,-286.97C646.36,-283.62 724.15,-278.89 777.46,-275.65"/>
<polygon fill="orange" stroke="orange" points="591,-283.48 581.23,-287.58 591.42,-290.47 591,-283.48"/>
</a>
</g>
<text text-anchor="start" x="637.5" y="-289.5" font-family="Helvetica,sans-Serif" font-size="10.00" fill="grey">&lt; std::string, size_t &gt;</text>
</g>
<!-- Node8 -->
<g id="Node000008" class="node">
<title>Node8</title>
<g id="a_Node000008"><a xlink:title=" ">
<polygon fill="white" stroke="#666666" points="204,-287.5 175,-287.5 175,-268.5 204,-268.5 204,-287.5"/>
<text text-anchor="middle" x="189.5" y="-275.5" font-family="Helvetica,sans-Serif" font-size="10.00">K</text>
</a>
</g>
</g>
<!-- Node8&#45;&gt;Node7 -->
<g id="edge7_Node000007_Node000008" class="edge">
<title>Node8&#45;&gt;Node7</title>
<g id="a_edge7_Node000007_Node000008"><a xlink:title=" ">
<path fill="none" stroke="#9a32cd" stroke-dasharray="5,2" d="M214.38,-278.93C266.77,-280.98 393.02,-285.92 466.8,-288.8"/>
<polygon fill="#9a32cd" stroke="#9a32cd" points="214.49,-275.44 204.36,-278.54 214.22,-282.43 214.49,-275.44"/>
</a>
</g>
<text text-anchor="start" x="342" y="-292.5" font-family="Helvetica,sans-Serif" font-size="10.00" fill="grey">keys</text>
</g>
<!-- Node9 -->
<g id="Node000009" class="node">
<title>Node9</title>
<g id="a_Node000009"><a xlink:title=" ">
<polygon fill="white" stroke="#666666" points="29,-157.5 0,-157.5 0,-138.5 29,-138.5 29,-157.5"/>
<text text-anchor="middle" x="14.5" y="-145.5" font-family="Helvetica,sans-Serif" font-size="10.00">T</text>
</a>
</g>
</g>
<!-- Node9&#45;&gt;Node7 -->
<g id="edge8_Node000007_Node000009" class="edge">
<title>Node9&#45;&gt;Node7</title>
<g id="a_edge8_Node000007_Node000009"><a xlink:title=" ">
<path fill="none" stroke="#9a32cd" stroke-dasharray="5,2" d="M22.07,-166.98C34.65,-200.05 65.53,-267.53 117,-297 231.85,-362.77 396.62,-328.84 476.31,-306.08"/>
<polygon fill="#9a32cd" stroke="#9a32cd" points="25.34,-165.73 18.63,-157.54 18.77,-168.13 25.34,-165.73"/>
</a>
</g>
<text text-anchor="start" x="166.5" y="-339.5" font-family="Helvetica,sans-Serif" font-size="10.00" fill="grey">elements</text>
</g>
<!-- Node15 -->
<g id="Node000015" class="node">
<title>Node15</title>
<g id="a_Node000015"><a xlink:title=" ">
<polygon fill="white" stroke="#666666" points="248.5,-200.5 130.5,-200.5 130.5,-181.5 248.5,-181.5 248.5,-200.5"/>
<text text-anchor="middle" x="189.5" y="-188.5" font-family="Helvetica,sans-Serif" font-size="10.00">std::unique_ptr&lt; T &gt;</text>
</a>
</g>
</g>
<!-- Node9&#45;&gt;Node15 -->
<g id="edge18_Node000015_Node000009" class="edge">
<title>Node9&#45;&gt;Node15</title>
<g id="a_edge18_Node000015_Node000009"><a xlink:title=" ">
<path fill="none" stroke="#9a32cd" stroke-dasharray="5,2" d="M38.97,-153.83C67.56,-160.94 116.22,-173.03 150.24,-181.49"/>
<polygon fill="#9a32cd" stroke="#9a32cd" points="39.62,-150.39 29.08,-151.37 37.94,-157.18 39.62,-150.39"/>
</a>
</g>
<text text-anchor="start" x="66" y="-174.5" font-family="Helvetica,sans-Serif" font-size="10.00" fill="grey">ptr</text>
</g>
<!-- Node16 -->
<g id="Node000016" class="node">
<title>Node16</title>
<g id="a_Node000016"><a xlink:title=" ">
<polygon fill="white" stroke="#666666" points="412,-114.5 294,-114.5 294,-95.5 412,-95.5 412,-114.5"/>
<text text-anchor="middle" x="353" y="-102.5" font-family="Helvetica,sans-Serif" font-size="10.00">std::shared_ptr&lt; T &gt;</text>
</a>
</g>
</g>
<!-- Node9&#45;&gt;Node16 -->
<g id="edge20_Node000016_Node000009" class="edge">
<title>Node9&#45;&gt;Node16</title>
<g id="a_edge20_Node000016_Node000009"><a xlink:title=" ">
<path fill="none" stroke="#9a32cd" stroke-dasharray="5,2" d="M38.72,-138.58C41.49,-137.63 44.29,-136.74 47,-136 77.45,-127.68 85.68,-127.94 117,-124 177.1,-116.43 246.26,-111.27 293.91,-108.25"/>
<polygon fill="#9a32cd" stroke="#9a32cd" points="37.26,-135.39 29.11,-142.15 39.7,-141.95 37.26,-135.39"/>
</a>
</g>
<text text-anchor="start" x="66" y="-141.5" font-family="Helvetica,sans-Serif" font-size="10.00" fill="grey">ptr</text>
</g>
<!-- Node19 -->
<g id="Node000019" class="node">
<title>Node19</title>
<g id="a_Node000019"><a xlink:title=" ">
<polygon fill="white" stroke="#666666" points="238,-74.5 141,-74.5 141,-55.5 238,-55.5 238,-74.5"/>
<text text-anchor="middle" x="189.5" y="-62.5" font-family="Helvetica,sans-Serif" font-size="10.00">std::vector&lt; T &gt;</text>
</a>
</g>
</g>
<!-- Node9&#45;&gt;Node19 -->
<g id="edge24_Node000019_Node000009" class="edge">
<title>Node9&#45;&gt;Node19</title>
<g id="a_edge24_Node000019_Node000009"><a xlink:title=" ">
<path fill="none" stroke="#9a32cd" stroke-dasharray="5,2" d="M16.98,-128.1C19.6,-108.63 26.88,-79.93 47,-66 78.71,-44.05 124.75,-48.64 155.61,-55.48"/>
<polygon fill="#9a32cd" stroke="#9a32cd" points="13.47,-128 15.91,-138.31 20.43,-128.73 13.47,-128"/>
</a>
</g>
<text text-anchor="start" x="50" y="-71.5" font-family="Helvetica,sans-Serif" font-size="10.00" fill="grey">elements</text>
</g>
<!-- Node10&#45;&gt;Node2 -->
<g id="edge9_Node000002_Node000010" class="edge">
<title>Node10&#45;&gt;Node2</title>
<g id="a_edge9_Node000002_Node000010"><a xlink:title=" ">
<path fill="none" stroke="#9a32cd" stroke-dasharray="5,2" d="M1387.19,-193.84C1392.18,-193.1 1397.17,-192.47 1402,-192 1426.61,-189.62 1453.57,-188.85 1477.84,-188.84"/>
<polygon fill="#9a32cd" stroke="#9a32cd" points="1386.32,-190.44 1377,-195.49 1387.43,-197.35 1386.32,-190.44"/>
</a>
</g>
<text text-anchor="start" x="1405" y="-257.5" font-family="Helvetica,sans-Serif" font-size="10.00" fill="grey">conv_term</text>
<text text-anchor="start" x="1405" y="-242.5" font-family="Helvetica,sans-Serif" font-size="10.00" fill="grey">diff_term</text>
<text text-anchor="start" x="1405" y="-227.5" font-family="Helvetica,sans-Serif" font-size="10.00" fill="grey">field</text>
<text text-anchor="start" x="1405" y="-212.5" font-family="Helvetica,sans-Serif" font-size="10.00" fill="grey">mueff</text>
<text text-anchor="start" x="1405" y="-197.5" font-family="Helvetica,sans-Serif" font-size="10.00" fill="grey">src_term</text>
</g>
<!-- Node11 -->
<g id="Node000011" class="node">
<title>Node11</title>
<g id="a_Node000011"><a xlink:title=" ">
<polygon fill="white" stroke="#666666" points="1201,-176 1061,-176 1061,-146 1201,-146 1201,-176"/>
<text text-anchor="start" x="1069" y="-164" font-family="Helvetica,sans-Serif" font-size="10.00">std::shared_ptr&lt; kynema</text>
<text text-anchor="middle" x="1131" y="-153" font-family="Helvetica,sans-Serif" font-size="10.00">_sgf::FieldInfo &gt;</text>
</a>
</g>
</g>
<!-- Node11&#45;&gt;Node10 -->
<g id="edge12_Node000010_Node000011" class="edge">
<title>Node11&#45;&gt;Node10</title>
<g id="a_edge12_Node000010_Node000011"><a xlink:title=" ">
<path fill="none" stroke="#9a32cd" stroke-dasharray="5,2" d="M1211.59,-176.16C1228.28,-179.55 1245.75,-183.26 1262,-187 1273.1,-189.56 1285.13,-192.6 1295.99,-195.45"/>
<polygon fill="#9a32cd" stroke="#9a32cd" points="1211.81,-172.63 1201.31,-174.09 1210.43,-179.5 1211.81,-172.63"/>
</a>
</g>
<text text-anchor="start" x="1223.5" y="-192.5" font-family="Helvetica,sans-Serif" font-size="10.00" fill="grey">m_info</text>
</g>
<!-- Node12&#45;&gt;Node11 -->
<g id="edge13_Node000011_Node000012" class="edge">
<title>Node12&#45;&gt;Node11</title>
<g id="a_edge13_Node000011_Node000012"><a xlink:title=" ">
<path fill="none" stroke="#9a32cd" stroke-dasharray="5,2" d="M910.19,-161C956,-161 1015.37,-161 1060.87,-161"/>
<polygon fill="#9a32cd" stroke="#9a32cd" points="910.04,-157.5 900.04,-161 910.04,-164.5 910.04,-157.5"/>
</a>
</g>
<text text-anchor="start" x="973.5" y="-166.5" font-family="Helvetica,sans-Serif" font-size="10.00" fill="grey">ptr</text>
</g>
<!-- Node13 -->
<g id="Node000013" class="node">
<title>Node13</title>
<g id="a_Node000013"><a xlink:title=" ">
<polygon fill="white" stroke="#666666" points="604,-163 444,-163 444,-133 604,-133 604,-163"/>
<text text-anchor="start" x="452" y="-151" font-family="Helvetica,sans-Serif" font-size="10.00">std::unique_ptr&lt; kynema</text>
<text text-anchor="middle" x="524" y="-140" font-family="Helvetica,sans-Serif" font-size="10.00">_sgf::FieldFillPatchOpsBase &gt;</text>
</a>
</g>
</g>
<!-- Node13&#45;&gt;Node12 -->
<g id="edge15_Node000012_Node000013" class="edge">
<title>Node13&#45;&gt;Node12</title>
<g id="a_edge15_Node000012_Node000013"><a xlink:title=" ">
<path fill="none" stroke="#9a32cd" stroke-dasharray="5,2" d="M614.25,-143.75C657.96,-142.66 711.32,-142.78 759,-147 769.76,-147.95 781.24,-149.62 792.02,-151.49"/>
<polygon fill="#9a32cd" stroke="#9a32cd" points="614.12,-140.26 604.22,-144.03 614.31,-147.25 614.12,-140.26"/>
</a>
</g>
<text text-anchor="start" x="654.5" y="-152.5" font-family="Helvetica,sans-Serif" font-size="10.00" fill="grey">m_fillpatch_op</text>
</g>
<!-- Node14 -->
<g id="Node000014" class="node">
<title>Node14</title>
<g id="a_Node000014"><a xlink:href="classkynema__sgf_1_1_field_fill_patch_ops_base.html" target="_top" xlink:title=" ">
<polygon fill="white" stroke="#666666" points="262,-163 117,-163 117,-133 262,-133 262,-163"/>
<text text-anchor="start" x="125" y="-151" font-family="Helvetica,sans-Serif" font-size="10.00">kynema_sgf::FieldFillPatch</text>
<text text-anchor="middle" x="189.5" y="-140" font-family="Helvetica,sans-Serif" font-size="10.00">OpsBase</text>
</a>
</g>
</g>
<!-- Node14&#45;&gt;Node13 -->
<g id="edge16_Node000013_Node000014" class="edge">
<title>Node14&#45;&gt;Node13</title>
<g id="a_edge16_Node000013_Node000014"><a xlink:title=" ">
<path fill="none" stroke="#9a32cd" stroke-dasharray="5,2" d="M272.48,-148C324.75,-148 392.12,-148 443.83,-148"/>
<polygon fill="#9a32cd" stroke="#9a32cd" points="272.24,-144.5 262.24,-148 272.24,-151.5 272.24,-144.5"/>
</a>
</g>
<text text-anchor="start" x="346" y="-153.5" font-family="Helvetica,sans-Serif" font-size="10.00" fill="grey">ptr</text>
</g>
<!-- Node15&#45;&gt;Node13 -->
<g id="edge17_Node000013_Node000015" class="edge">
<title>Node15&#45;&gt;Node13</title>
<g id="a_edge17_Node000013_Node000015"><a xlink:title=" ">
<path fill="none" stroke="orange" stroke-dasharray="5,2" d="M258.81,-185.16C305.92,-180.79 369.9,-174.17 426,-166 432.19,-165.1 438.58,-164.09 445,-163.02"/>
<polygon fill="orange" stroke="orange" points="258.36,-181.69 248.73,-186.09 259,-188.66 258.36,-181.69"/>
</a>
</g>
<text text-anchor="start" x="283" y="-205" font-family="Helvetica,sans-Serif" font-size="10.00" fill="grey">&lt; kynema_sgf::FieldFillPatch</text>
<text text-anchor="start" x="283" y="-190" font-family="Helvetica,sans-Serif" font-size="10.00" fill="grey">  OpsBase &gt;</text>
</g>
<!-- Node16&#45;&gt;Node11 -->
<g id="edge19_Node000011_Node000016" class="edge">
<title>Node16&#45;&gt;Node11</title>
<g id="a_edge19_Node000011_Node000016"><a xlink:title=" ">
<path fill="none" stroke="orange" stroke-dasharray="5,2" d="M422.09,-106.83C502.62,-109.27 640.7,-114.32 759,-123 864.42,-130.73 986.25,-144.06 1060.7,-152.7"/>
<polygon fill="orange" stroke="orange" points="422.18,-103.33 412.08,-106.53 421.97,-110.33 422.18,-103.33"/>
</a>
</g>
<text text-anchor="start" x="625.5" y="-128.5" font-family="Helvetica,sans-Serif" font-size="10.00" fill="grey">&lt; kynema_sgf::FieldInfo &gt;</text>
</g>
<!-- Node17 -->
<g id="Node000017" class="node">
<title>Node17</title>
<g id="a_Node000017"><a xlink:href="classkynema__sgf_1_1_sim_time.html" target="_top" xlink:title=" ">
<polygon fill="white" stroke="#666666" points="1043,-82.5 918,-82.5 918,-63.5 1043,-63.5 1043,-82.5"/>
<text text-anchor="middle" x="980.5" y="-70.5" font-family="Helvetica,sans-Serif" font-size="10.00">kynema_sgf::SimTime</text>
</a>
</g>
</g>
<!-- Node17&#45;&gt;Node1 -->
<g id="edge21_Node000001_Node000017" class="edge">
<title>Node17&#45;&gt;Node1</title>
<g id="a_edge21_Node000001_Node000017"><a xlink:title=" ">
<path fill="none" stroke="#9a32cd" stroke-dasharray="5,2" d="M1053.25,-81.12C1104.96,-86.29 1176.45,-92 1239.5,-92 1239.5,-92 1239.5,-92 1555.5,-92 1637.04,-92 1730.28,-92 1794.9,-92"/>
<polygon fill="#9a32cd" stroke="#9a32cd" points="1053.48,-77.63 1043.18,-80.1 1052.77,-84.59 1053.48,-77.63"/>
</a>
</g>
<text text-anchor="start" x="1313" y="-97.5" font-family="Helvetica,sans-Serif" font-size="10.00" fill="grey">m_time</text>
</g>
<!-- Node18 -->
<g id="Node000018" class="node">
<title>Node18</title>
<g id="a_Node000018"><a xlink:title=" ">
<polygon fill="white" stroke="#666666" points="580,-74.5 468,-74.5 468,-55.5 580,-55.5 580,-74.5"/>
<text text-anchor="middle" x="524" y="-62.5" font-family="Helvetica,sans-Serif" font-size="10.00">std::vector&lt; bool &gt;</text>
</a>
</g>
</g>
<!-- Node18&#45;&gt;Node17 -->
<g id="edge22_Node000017_Node000018" class="edge">
<title>Node18&#45;&gt;Node17</title>
<g id="a_edge22_Node000017_Node000018"><a xlink:title=" ">
<path fill="none" stroke="#9a32cd" stroke-dasharray="5,2" d="M590.35,-64.8C637.29,-64.77 702.05,-64.97 759,-66 812.61,-66.97 873.53,-68.97 917.73,-70.59"/>
<polygon fill="#9a32cd" stroke="#9a32cd" points="590.32,-61.3 580.32,-64.81 590.32,-68.3 590.32,-61.3"/>
</a>
</g>
<text text-anchor="start" x="625.5" y="-71.5" font-family="Helvetica,sans-Serif" font-size="10.00" fill="grey">m_postprocess_enforce_dt</text>
</g>
<!-- Node19&#45;&gt;Node18 -->
<g id="edge23_Node000018_Node000019" class="edge">
<title>Node19&#45;&gt;Node18</title>
<g id="a_edge23_Node000018_Node000019"><a xlink:title=" ">
<path fill="none" stroke="orange" stroke-dasharray="5,2" d="M248.49,-65C310.28,-65 407.35,-65 467.98,-65"/>
<polygon fill="orange" stroke="orange" points="248.14,-61.5 238.14,-65 248.14,-68.5 248.14,-61.5"/>
</a>
</g>
<text text-anchor="start" x="331" y="-70.5" font-family="Helvetica,sans-Serif" font-size="10.00" fill="grey">&lt; bool &gt;</text>
</g>
<!-- Node20 -->
<g id="Node000020" class="node">
<title>Node20</title>
<g id="a_Node000020"><a xlink:href="structkynema__sgf_1_1pde_1_1_b_c_op.html" target="_top" xlink:title=" ">
<polygon fill="white" stroke="#666666" points="1620.5,-30 1488.5,-30 1488.5,0 1620.5,0 1620.5,-30"/>
<text text-anchor="start" x="1496.5" y="-18" font-family="Helvetica,sans-Serif" font-size="10.00">kynema_sgf::pde::BCOp</text>
<text text-anchor="middle" x="1554.5" y="-7" font-family="Helvetica,sans-Serif" font-size="10.00">&lt; PDE, typename &gt;</text>
</a>
</g>
</g>
<!-- Node20&#45;&gt;Node1 -->
<g id="edge25_Node000001_Node000020" class="edge">
<title>Node20&#45;&gt;Node1</title>
<g id="a_edge25_Node000001_Node000020"><a xlink:title=" ">
<path fill="none" stroke="orange" stroke-dasharray="5,2" d="M1630.85,-3.51C1674.67,0.3 1730.29,0.11 1777,-16 1805.7,-25.9 1832.51,-47.95 1850.81,-65.76"/>
<polygon fill="orange" stroke="orange" points="1630.45,-0.03 1620.83,-4.47 1631.12,-7 1630.45,-0.03"/>
</a>
</g>
<text text-anchor="start" x="1652" y="-67" font-family="Helvetica,sans-Serif" font-size="10.00" fill="grey">&lt; PDE, std::enable</text>
<text text-anchor="start" x="1652" y="-52" font-family="Helvetica,sans-Serif" font-size="10.00" fill="grey">  _if_t&lt; std::is_base</text>
<text text-anchor="start" x="1652" y="-37" font-family="Helvetica,sans-Serif" font-size="10.00" fill="grey">  _of_v&lt; ScalarTransport,</text>
<text text-anchor="start" x="1652" y="-22" font-family="Helvetica,sans-Serif" font-size="10.00" fill="grey">   PDE &gt; &gt; &gt;</text>
</g>
</g>
</svg>

<g id="navigator" transform="translate(0 0)" fill="#404254">
  <rect fill="#f2f5e9" fill-opacity="0.5" stroke="#606060" stroke-width=".5" x="0" y="0" width="60" height="60"/>
  <use id="zoomplus" xlink:href="#zoomPlus" x="17" y="9" onmousedown="handleZoom(evt,'in')"/>
  <use id="zoomminus" xlink:href="#zoomMin" x="42" y="9" onmousedown="handleZoom(evt,'out')"/>
  <use id="reset" xlink:href="#resetDef" x="30" y="36" onmousedown="handleReset()"/>
   <use id="arrowup" xlink:href="#arrowUp" x="0" y="0" onmousedown="handlePan(0,-1)"/>
  <use id="arrowright" xlink:href="#arrowRight" x="0" y="0" onmousedown="handlePan(1,0)"/>
  <use id="arrowdown" xlink:href="#arrowDown" x="0" y="0" onmousedown="handlePan(0,1)"/>
  <use id="arrowleft" xlink:href="#arrowLeft" x="0" y="0" onmousedown="handlePan(-1,0)"/>
</g>
<svg viewBox="0 0 15 15" width="100%" height="30px" preserveAspectRatio="xMaxYMin meet">
 <g id="arrow_out" transform="scale(0.3 0.3)">
  <a xlink:href="structkynema__sgf_1_1pde_1_1_b_c_op_3_01_p_d_e_00_01std_1_1enable__if__t_3_01std_1_1is__base__ofd6a21d3754473a7ae20e02d6db8251f4_org.svg" target="_base">
   <rect id="button" ry="5" rx="5" y="6" x="6" height="38" width="38"
        fill="#f2f5e9" fill-opacity="0.5" stroke="#606060" stroke-width="1.0"/>
   <path id="arrow"
     d="M 11.500037,31.436501 C 11.940474,20.09759 22.043105,11.32322 32.158766,21.979434 L 37.068811,17.246167 C 37.068811,17.246167 37.088388,32 37.088388,32 L 22.160133,31.978069 C 22.160133,31.978069 26.997745,27.140456 26.997745,27.140456 C 18.528582,18.264221 13.291696,25.230495 11.500037,31.436501 z"
     style="fill:#404040;"/>
  </a>
 </g>
</svg>

<style type='text/css'>
<![CDATA[
[data-mouse-over-selected='false'] { opacity: 0.7; }
[data-mouse-over-selected='true']  { opacity: 1.0; }
]]>
</style>
<script type="application/ecmascript"><![CDATA[
document.addEventListener('DOMContentLoaded', (event) => {
  highlightEdges();
  highlightAdjacentNodes();
});
]]></script>
</svg>
