<?xml version="1.0" encoding="UTF-8" standalone="no"?>
<!DOCTYPE svg PUBLIC "-//W3C//DTD SVG 1.1//EN"
 "http://www.w3.org/Graphics/SVG/1.1/DTD/svg11.dtd">
<!-- Generated by graphviz version 2.43.0 (0)
 -->
<!-- Title: kynema_sgf::ib::IBType Pages: 1 -->
<svg width="427pt" height="137pt"
 viewBox="0.00 0.00 426.50 137.00" xmlns="http://www.w3.org/2000/svg" xmlns:xlink="http://www.w3.org/1999/xlink">

<svg id="main" version="1.1" xmlns="http://www.w3.org/2000/svg" xmlns:xlink="http://www.w3.org/1999/xlink" xml:space="preserve">

<style type="text/css"><![CDATA[
.node, .edge {opacity: 0.7;}
.node.selected, .edge.selected {opacity: 1;}
.edge:hover path { stroke: red; }
.edge:hover polygon { stroke: red; fill: red; }
]]></style>
<script type="application/ecmascript" xlink:href="svg.min.js"/>
<svg id="graph" class="graph">
<g id="graph0" class="graph" transform="scale(1 1) rotate(0) translate(4 133)">
<title>kynema_sgf::ib::IBType</title>
<!-- Node1 -->
<g id="Node000001" class="node">
<title>Node1</title>
<g id="a_Node000001"><a xlink:title=" ">
<polygon fill="#999999" stroke="#666666" points="265.5,-129 137.5,-129 137.5,-110 265.5,-110 265.5,-129"/>
<text text-anchor="middle" x="201.5" y="-117" font-family="Helvetica,sans-Serif" font-size="10.00">kynema_sgf::ib::IBType</text>
</a>
</g>
</g>
<!-- Node2 -->
<g id="Node000002" class="node">
<title>Node2</title>
<g id="a_Node000002"><a xlink:href="structkynema__sgf_1_1ib_1_1_bluff_body_type.html" target="_top" xlink:title=" ">
<polygon fill="white" stroke="#666666" points="284.5,-74 118.5,-74 118.5,-55 284.5,-55 284.5,-74"/>
<text text-anchor="middle" x="201.5" y="-62" font-family="Helvetica,sans-Serif" font-size="10.00">kynema_sgf::ib::BluffBodyType</text>
</a>
</g>
</g>
<!-- Node1&#45;&gt;Node2 -->
<g id="edge1_Node000001_Node000002" class="edge">
<title>Node1&#45;&gt;Node2</title>
<g id="a_edge1_Node000001_Node000002"><a xlink:title=" ">
<path fill="none" stroke="#63b8ff" d="M201.5,-99.66C201.5,-90.93 201.5,-80.99 201.5,-74.09"/>
<polygon fill="#63b8ff" stroke="#63b8ff" points="198,-99.75 201.5,-109.75 205,-99.75 198,-99.75"/>
</a>
</g>
</g>
<!-- Node3 -->
<g id="Node000003" class="node">
<title>Node3</title>
<g id="a_Node000003"><a xlink:href="structkynema__sgf_1_1ib_1_1_box.html" target="_top" xlink:title=" ">
<polygon fill="white" stroke="#666666" points="115,-19 0,-19 0,0 115,0 115,-19"/>
<text text-anchor="middle" x="57.5" y="-7" font-family="Helvetica,sans-Serif" font-size="10.00">kynema_sgf::ib::Box</text>
</a>
</g>
</g>
<!-- Node2&#45;&gt;Node3 -->
<g id="edge2_Node000002_Node000003" class="edge">
<title>Node2&#45;&gt;Node3</title>
<g id="a_edge2_Node000002_Node000003"><a xlink:title=" ">
<path fill="none" stroke="#63b8ff" d="M168.68,-51.42C141.97,-41.59 104.9,-27.95 81.06,-19.17"/>
<polygon fill="#63b8ff" stroke="#63b8ff" points="167.77,-54.82 178.36,-54.98 170.19,-48.25 167.77,-54.82"/>
</a>
</g>
</g>
<!-- Node4 -->
<g id="Node000004" class="node">
<title>Node4</title>
<g id="a_Node000004"><a xlink:href="structkynema__sgf_1_1ib_1_1_cylinder.html" target="_top" xlink:title=" ">
<polygon fill="white" stroke="#666666" points="270,-19 133,-19 133,0 270,0 270,-19"/>
<text text-anchor="middle" x="201.5" y="-7" font-family="Helvetica,sans-Serif" font-size="10.00">kynema_sgf::ib::Cylinder</text>
</a>
</g>
</g>
<!-- Node2&#45;&gt;Node4 -->
<g id="edge3_Node000002_Node000004" class="edge">
<title>Node2&#45;&gt;Node4</title>
<g id="a_edge3_Node000002_Node000004"><a xlink:title=" ">
<path fill="none" stroke="#63b8ff" d="M201.5,-44.66C201.5,-35.93 201.5,-25.99 201.5,-19.09"/>
<polygon fill="#63b8ff" stroke="#63b8ff" points="198,-44.75 201.5,-54.75 205,-44.75 198,-44.75"/>
</a>
</g>
</g>
<!-- Node5 -->
<g id="Node000005" class="node">
<title>Node5</title>
<g id="a_Node000005"><a xlink:href="structkynema__sgf_1_1ib_1_1_sphere.html" target="_top" xlink:title=" ">
<polygon fill="white" stroke="#666666" points="418.5,-19 288.5,-19 288.5,0 418.5,0 418.5,-19"/>
<text text-anchor="middle" x="353.5" y="-7" font-family="Helvetica,sans-Serif" font-size="10.00">kynema_sgf::ib::Sphere</text>
</a>
</g>
</g>
<!-- Node2&#45;&gt;Node5 -->
<g id="edge4_Node000002_Node000005" class="edge">
<title>Node2&#45;&gt;Node5</title>
<g id="a_edge4_Node000002_Node000005"><a xlink:title=" ">
<path fill="none" stroke="#63b8ff" d="M235.43,-51.67C263.77,-41.79 303.52,-27.93 328.89,-19.08"/>
<polygon fill="#63b8ff" stroke="#63b8ff" points="234.21,-48.39 225.92,-54.98 236.52,-55 234.21,-48.39"/>
</a>
</g>
</g>
</g>
</svg>
</svg>

<style type='text/css'>
<![CDATA[
[data-mouse-over-selected='false'] { opacity: 0.7; }
[data-mouse-over-selected='true']  { opacity: 1.0; }
]]>
</style>
<script type="application/ecmascript"><![CDATA[
document.addEventListener('DOMContentLoaded', (event) => {
  highlightEdges();
  highlightAdjacentNodes();
});
]]></script>
</svg>
