<?xml version="1.0" encoding="UTF-8" standalone="no"?>
<!DOCTYPE svg PUBLIC "-//W3C//DTD SVG 1.1//EN"
 "http://www.w3.org/Graphics/SVG/1.1/DTD/svg11.dtd">
<!-- Generated by graphviz version 2.43.0 (0)
 -->
<!-- Title: kynema_sgf::pde::PostSolveOp&lt; PDE &gt; Pages: 1 -->
<svg width="420pt" height="182pt"
 viewBox="0.00 0.00 420.00 182.00" xmlns="http://www.w3.org/2000/svg" xmlns:xlink="http://www.w3.org/1999/xlink">
<g id="graph0" class="graph" transform="scale(1 1) rotate(0) translate(4 178)">
<title>kynema_sgf::pde::PostSolveOp&lt; PDE &gt;</title>
<!-- Node1 -->
<g id="Node000001" class="node">
<title>Node1</title>
<g id="a_Node000001"><a xlink:title=" ">
<polygon fill="#999999" stroke="#666666" points="153,-102 0,-102 0,-72 153,-72 153,-102"/>
<text text-anchor="start" x="8" y="-90" font-family="Helvetica,sans-Serif" font-size="10.00">kynema_sgf::pde::PostSolve</text>
<text text-anchor="middle" x="76.5" y="-79" font-family="Helvetica,sans-Serif" font-size="10.00">Op&lt; PDE &gt;</text>
</a>
</g>
</g>
<!-- Node2 -->
<g id="Node000002" class="node">
<title>Node2</title>
<g id="a_Node000002"><a xlink:href="structkynema__sgf_1_1pde_1_1_post_solve_op_3_01_levelset_01_4.html" target="_top" xlink:title=" ">
<polygon fill="white" stroke="#666666" points="412,-174 259,-174 259,-144 412,-144 412,-174"/>
<text text-anchor="start" x="267" y="-162" font-family="Helvetica,sans-Serif" font-size="10.00">kynema_sgf::pde::PostSolve</text>
<text text-anchor="middle" x="335.5" y="-151" font-family="Helvetica,sans-Serif" font-size="10.00">Op&lt; Levelset &gt;</text>
</a>
</g>
</g>
<!-- Node1&#45;&gt;Node2 -->
<g id="edge1_Node000001_Node000002" class="edge">
<title>Node1&#45;&gt;Node2</title>
<g id="a_edge1_Node000001_Node000002"><a xlink:title=" ">
<path fill="none" stroke="orange" stroke-dasharray="5,2" d="M123.92,-105.79C138.81,-111.44 155.47,-117.36 171,-122 199.3,-130.46 230.86,-138.02 258.65,-144.08"/>
<polygon fill="orange" stroke="orange" points="125,-102.46 114.41,-102.14 122.49,-108.99 125,-102.46"/>
</a>
</g>
<text text-anchor="start" x="174" y="-144.5" font-family="Helvetica,sans-Serif" font-size="10.00" fill="grey">&lt; Levelset &gt;</text>
</g>
<!-- Node3 -->
<g id="Node000003" class="node">
<title>Node3</title>
<g id="a_Node000003"><a xlink:href="structkynema__sgf_1_1pde_1_1_post_solve_op_3_01_s_d_r_01_4.html" target="_top" xlink:title=" ">
<polygon fill="white" stroke="#666666" points="412,-126 259,-126 259,-96 412,-96 412,-126"/>
<text text-anchor="start" x="267" y="-114" font-family="Helvetica,sans-Serif" font-size="10.00">kynema_sgf::pde::PostSolve</text>
<text text-anchor="middle" x="335.5" y="-103" font-family="Helvetica,sans-Serif" font-size="10.00">Op&lt; SDR &gt;</text>
</a>
</g>
</g>
<!-- Node1&#45;&gt;Node3 -->
<g id="edge2_Node000001_Node000003" class="edge">
<title>Node1&#45;&gt;Node3</title>
<g id="a_edge2_Node000001_Node000003"><a xlink:title=" ">
<path fill="none" stroke="orange" stroke-dasharray="5,2" d="M163.53,-95.03C194.4,-97.92 228.96,-101.14 258.88,-103.94"/>
<polygon fill="orange" stroke="orange" points="163.5,-91.52 153.22,-94.07 162.85,-98.49 163.5,-91.52"/>
</a>
</g>
<text text-anchor="start" x="185" y="-106.5" font-family="Helvetica,sans-Serif" font-size="10.00" fill="grey">&lt; SDR &gt;</text>
</g>
<!-- Node4 -->
<g id="Node000004" class="node">
<title>Node4</title>
<g id="a_Node000004"><a xlink:href="structkynema__sgf_1_1pde_1_1_post_solve_op_3_01_t_k_e_01_4.html" target="_top" xlink:title=" ">
<polygon fill="white" stroke="#666666" points="412,-78 259,-78 259,-48 412,-48 412,-78"/>
<text text-anchor="start" x="267" y="-66" font-family="Helvetica,sans-Serif" font-size="10.00">kynema_sgf::pde::PostSolve</text>
<text text-anchor="middle" x="335.5" y="-55" font-family="Helvetica,sans-Serif" font-size="10.00">Op&lt; TKE &gt;</text>
</a>
</g>
</g>
<!-- Node1&#45;&gt;Node4 -->
<g id="edge3_Node000001_Node000004" class="edge">
<title>Node1&#45;&gt;Node4</title>
<g id="a_edge3_Node000001_Node000004"><a xlink:title=" ">
<path fill="none" stroke="orange" stroke-dasharray="5,2" d="M163.31,-75.8C165.9,-75.52 168.47,-75.25 171,-75 199.6,-72.12 231.08,-69.64 258.72,-67.7"/>
<polygon fill="orange" stroke="orange" points="162.79,-72.34 153.24,-76.93 163.57,-79.3 162.79,-72.34"/>
</a>
</g>
<text text-anchor="start" x="185" y="-80.5" font-family="Helvetica,sans-Serif" font-size="10.00" fill="grey">&lt; TKE &gt;</text>
</g>
<!-- Node5 -->
<g id="Node000005" class="node">
<title>Node5</title>
<g id="a_Node000005"><a xlink:href="structkynema__sgf_1_1pde_1_1_post_solve_op_3_01_v_o_f_01_4.html" target="_top" xlink:title=" ">
<polygon fill="white" stroke="#666666" points="412,-30 259,-30 259,0 412,0 412,-30"/>
<text text-anchor="start" x="267" y="-18" font-family="Helvetica,sans-Serif" font-size="10.00">kynema_sgf::pde::PostSolve</text>
<text text-anchor="middle" x="335.5" y="-7" font-family="Helvetica,sans-Serif" font-size="10.00">Op&lt; VOF &gt;</text>
</a>
</g>
</g>
<!-- Node1&#45;&gt;Node5 -->
<g id="edge4_Node000001_Node000005" class="edge">
<title>Node1&#45;&gt;Node5</title>
<g id="a_edge4_Node000001_Node000005"><a xlink:title=" ">
<path fill="none" stroke="orange" stroke-dasharray="5,2" d="M118.97,-67.65C134.97,-60.73 153.59,-53.33 171,-48 199.24,-39.35 230.94,-32.36 258.85,-27.07"/>
<polygon fill="orange" stroke="orange" points="117.12,-64.64 109.38,-71.87 119.94,-71.04 117.12,-64.64"/>
</a>
</g>
<text text-anchor="start" x="185" y="-53.5" font-family="Helvetica,sans-Serif" font-size="10.00" fill="grey">&lt; VOF &gt;</text>
</g>
</g>
</svg>
