<?xml version="1.0" encoding="UTF-8" standalone="no"?>
<!DOCTYPE svg PUBLIC "-//W3C//DTD SVG 1.1//EN"
 "http://www.w3.org/Graphics/SVG/1.1/DTD/svg11.dtd">
<!-- Generated by graphviz version 2.43.0 (0)
 -->
<!-- Title: kynema_sgf::actuator::ops::UpdatePosOp&lt; ActTrait, SrcTrait, typename &gt; Pages: 1 -->
<svg width="578pt" height="461pt"
 viewBox="0.00 0.00 578.00 460.50" xmlns="http://www.w3.org/2000/svg" xmlns:xlink="http://www.w3.org/1999/xlink">
<g id="graph0" class="graph" transform="scale(1 1) rotate(0) translate(4 456.5)">
<title>kynema_sgf::actuator::ops::UpdatePosOp&lt; ActTrait, SrcTrait, typename &gt;</title>
<!-- Node1 -->
<g id="Node000001" class="node">
<title>Node1</title>
<g id="a_Node000001"><a xlink:title=" ">
<polygon fill="#999999" stroke="#666666" points="163,-188 0,-188 0,-147 163,-147 163,-188"/>
<text text-anchor="start" x="8" y="-176" font-family="Helvetica,sans-Serif" font-size="10.00">kynema_sgf::actuator</text>
<text text-anchor="start" x="8" y="-165" font-family="Helvetica,sans-Serif" font-size="10.00">::ops::UpdatePosOp&lt; ActTrait,</text>
<text text-anchor="middle" x="81.5" y="-154" font-family="Helvetica,sans-Serif" font-size="10.00"> SrcTrait, typename &gt;</text>
</a>
</g>
</g>
<!-- Node2 -->
<g id="Node000002" class="node">
<title>Node2</title>
<g id="a_Node000002"><a xlink:href="structkynema__sgf_1_1actuator_1_1ops_1_1_update_pos_op_3_01_act_trait_00_01_act_src_disk_00_01stdd9f3c7c18956dd152ce0d4c727338f7.html" target="_top" xlink:title=" ">
<polygon fill="white" stroke="#666666" points="555.5,-413 376.5,-413 376.5,-350 555.5,-350 555.5,-413"/>
<text text-anchor="start" x="384.5" y="-401" font-family="Helvetica,sans-Serif" font-size="10.00">kynema_sgf::actuator</text>
<text text-anchor="start" x="384.5" y="-390" font-family="Helvetica,sans-Serif" font-size="10.00">::ops::UpdatePosOp&lt; ActTrait,</text>
<text text-anchor="start" x="384.5" y="-379" font-family="Helvetica,sans-Serif" font-size="10.00"> ActSrcDisk, std::enable_if</text>
<text text-anchor="start" x="384.5" y="-368" font-family="Helvetica,sans-Serif" font-size="10.00">_t&lt; std::is_base_of_v&lt; DiskType,</text>
<text text-anchor="middle" x="466" y="-357" font-family="Helvetica,sans-Serif" font-size="10.00"> ActTrait &gt; &gt; &gt;</text>
</a>
</g>
</g>
<!-- Node1&#45;&gt;Node2 -->
<g id="edge1_Node000001_Node000002" class="edge">
<title>Node1&#45;&gt;Node2</title>
<g id="a_edge1_Node000001_Node000002"><a xlink:title=" ">
<path fill="none" stroke="orange" stroke-dasharray="5,2" d="M89.84,-197.93C101.54,-239.27 128.63,-312.09 181,-347.5 237.97,-386.03 316.42,-392.82 376.44,-390.94"/>
<polygon fill="orange" stroke="orange" points="93.18,-196.88 87.19,-188.14 86.42,-198.71 93.18,-196.88"/>
</a>
</g>
<text text-anchor="start" x="195.5" y="-441.5" font-family="Helvetica,sans-Serif" font-size="10.00" fill="grey">&lt; ActTrait, ActSrcDisk,</text>
<text text-anchor="start" x="195.5" y="-426.5" font-family="Helvetica,sans-Serif" font-size="10.00" fill="grey">   std::enable_if_t&lt; std</text>
<text text-anchor="start" x="195.5" y="-411.5" font-family="Helvetica,sans-Serif" font-size="10.00" fill="grey">  ::is_base_of_v&lt; DiskType,</text>
<text text-anchor="start" x="195.5" y="-396.5" font-family="Helvetica,sans-Serif" font-size="10.00" fill="grey">   ActTrait &gt; &gt; &gt;</text>
</g>
<!-- Node3 -->
<g id="Node000003" class="node">
<title>Node3</title>
<g id="a_Node000003"><a xlink:href="structkynema__sgf_1_1actuator_1_1ops_1_1_update_pos_op_3_01_act_trait_00_01_act_src_line_00_01tya4fc567020fc9d14dcd8f049b29329ca.html" target="_top" xlink:title=" ">
<polygon fill="white" stroke="#666666" points="570,-321 362,-321 362,-236 570,-236 570,-321"/>
<text text-anchor="start" x="370" y="-309" font-family="Helvetica,sans-Serif" font-size="10.00">kynema_sgf::actuator</text>
<text text-anchor="start" x="370" y="-298" font-family="Helvetica,sans-Serif" font-size="10.00">::ops::UpdatePosOp&lt; ActTrait,</text>
<text text-anchor="start" x="370" y="-287" font-family="Helvetica,sans-Serif" font-size="10.00"> ActSrcLine, typename std</text>
<text text-anchor="start" x="370" y="-276" font-family="Helvetica,sans-Serif" font-size="10.00">::enable_if_t&lt; std::is_base</text>
<text text-anchor="start" x="370" y="-265" font-family="Helvetica,sans-Serif" font-size="10.00">_of_v&lt; WingType, ActTrait &gt;</text>
<text text-anchor="start" x="370" y="-254" font-family="Helvetica,sans-Serif" font-size="10.00"> &amp;&amp;UseDefaultOp&lt; ActTrait, ActSrcLine</text>
<text text-anchor="middle" x="466" y="-243" font-family="Helvetica,sans-Serif" font-size="10.00"> &gt;::update_pos &gt; &gt;</text>
</a>
</g>
</g>
<!-- Node1&#45;&gt;Node3 -->
<g id="edge2_Node000001_Node000003" class="edge">
<title>Node1&#45;&gt;Node3</title>
<g id="a_edge2_Node000001_Node000003"><a xlink:title=" ">
<path fill="none" stroke="orange" stroke-dasharray="5,2" d="M137.55,-192.15C151.56,-197.94 166.7,-203.79 181,-208.5 239.97,-227.91 307.38,-244.75 361.73,-257.04"/>
<polygon fill="orange" stroke="orange" points="138.63,-188.81 128.05,-188.17 135.92,-195.26 138.63,-188.81"/>
</a>
</g>
<text text-anchor="start" x="184.5" y="-332.5" font-family="Helvetica,sans-Serif" font-size="10.00" fill="grey">&lt; ActTrait, ActSrcLine,</text>
<text text-anchor="start" x="184.5" y="-317.5" font-family="Helvetica,sans-Serif" font-size="10.00" fill="grey">   typename std::enable</text>
<text text-anchor="start" x="184.5" y="-302.5" font-family="Helvetica,sans-Serif" font-size="10.00" fill="grey">  _if_t&lt; std::is_base_of</text>
<text text-anchor="start" x="184.5" y="-287.5" font-family="Helvetica,sans-Serif" font-size="10.00" fill="grey">  _v&lt; WingType, ActTrait &gt;</text>
<text text-anchor="start" x="184.5" y="-272.5" font-family="Helvetica,sans-Serif" font-size="10.00" fill="grey">   &amp;&amp;UseDefaultOp&lt; ActTrait,</text>
<text text-anchor="start" x="184.5" y="-257.5" font-family="Helvetica,sans-Serif" font-size="10.00" fill="grey">   ActSrcLine &gt;::update_pos &gt; &gt;</text>
</g>
<!-- Node4 -->
<g id="Node000004" class="node">
<title>Node4</title>
<g id="a_Node000004"><a xlink:href="structkynema__sgf_1_1actuator_1_1ops_1_1_update_pos_op_3_01_joukowsky_00_01_act_src_disk_01_4.html" target="_top" xlink:title=" ">
<polygon fill="white" stroke="#666666" points="554.5,-218 377.5,-218 377.5,-177 554.5,-177 554.5,-218"/>
<text text-anchor="start" x="385.5" y="-206" font-family="Helvetica,sans-Serif" font-size="10.00">kynema_sgf::actuator</text>
<text text-anchor="start" x="385.5" y="-195" font-family="Helvetica,sans-Serif" font-size="10.00">::ops::UpdatePosOp&lt; Joukowsky,</text>
<text text-anchor="middle" x="466" y="-184" font-family="Helvetica,sans-Serif" font-size="10.00"> ActSrcDisk &gt;</text>
</a>
</g>
</g>
<!-- Node1&#45;&gt;Node4 -->
<g id="edge3_Node000001_Node000004" class="edge">
<title>Node1&#45;&gt;Node4</title>
<g id="a_edge3_Node000001_Node000004"><a xlink:title=" ">
<path fill="none" stroke="orange" stroke-dasharray="5,2" d="M173.27,-174.88C175.87,-175.09 178.46,-175.3 181,-175.5 246.81,-180.72 321.22,-186.48 377.36,-190.8"/>
<polygon fill="orange" stroke="orange" points="173.38,-171.38 163.13,-174.07 172.82,-178.36 173.38,-171.38"/>
</a>
</g>
<text text-anchor="start" x="196.5" y="-193" font-family="Helvetica,sans-Serif" font-size="10.00" fill="grey">&lt; Joukowsky, ActSrcDisk &gt;</text>
</g>
<!-- Node5 -->
<g id="Node000005" class="node">
<title>Node5</title>
<g id="a_Node000005"><a xlink:href="structkynema__sgf_1_1actuator_1_1ops_1_1_update_pos_op_3_01_turbine_fast_00_01_src_trait_01_4.html" target="_top" xlink:title=" ">
<polygon fill="white" stroke="#666666" points="545,-159 387,-159 387,-118 545,-118 545,-159"/>
<text text-anchor="start" x="395" y="-147" font-family="Helvetica,sans-Serif" font-size="10.00">kynema_sgf::actuator</text>
<text text-anchor="start" x="395" y="-136" font-family="Helvetica,sans-Serif" font-size="10.00">::ops::UpdatePosOp&lt; Turbine</text>
<text text-anchor="middle" x="466" y="-125" font-family="Helvetica,sans-Serif" font-size="10.00">Fast, SrcTrait &gt;</text>
</a>
</g>
</g>
<!-- Node1&#45;&gt;Node5 -->
<g id="edge4_Node000001_Node000005" class="edge">
<title>Node1&#45;&gt;Node5</title>
<g id="a_edge4_Node000001_Node000005"><a xlink:title=" ">
<path fill="none" stroke="orange" stroke-dasharray="5,2" d="M173.26,-159.14C175.87,-158.92 178.45,-158.71 181,-158.5 250.59,-152.87 329.85,-147.37 386.92,-143.56"/>
<polygon fill="orange" stroke="orange" points="172.79,-155.66 163.12,-160 173.38,-162.64 172.79,-155.66"/>
</a>
</g>
<text text-anchor="start" x="202.5" y="-164" font-family="Helvetica,sans-Serif" font-size="10.00" fill="grey">&lt; TurbineFast, SrcTrait &gt;</text>
</g>
<!-- Node6 -->
<g id="Node000006" class="node">
<title>Node6</title>
<g id="a_Node000006"><a xlink:href="structkynema__sgf_1_1actuator_1_1ops_1_1_update_pos_op_3_01_turbine_kynema_f_m_b_00_01_src_trait_01_4.html" target="_top" xlink:title=" ">
<polygon fill="white" stroke="#666666" points="545,-100 387,-100 387,-59 545,-59 545,-100"/>
<text text-anchor="start" x="395" y="-88" font-family="Helvetica,sans-Serif" font-size="10.00">kynema_sgf::actuator</text>
<text text-anchor="start" x="395" y="-77" font-family="Helvetica,sans-Serif" font-size="10.00">::ops::UpdatePosOp&lt; Turbine</text>
<text text-anchor="middle" x="466" y="-66" font-family="Helvetica,sans-Serif" font-size="10.00">KynemaFMB, SrcTrait &gt;</text>
</a>
</g>
</g>
<!-- Node1&#45;&gt;Node6 -->
<g id="edge5_Node000001_Node000006" class="edge">
<title>Node1&#45;&gt;Node6</title>
<g id="a_edge5_Node000001_Node000006"><a xlink:title=" ">
<path fill="none" stroke="orange" stroke-dasharray="5,2" d="M119.11,-141.41C136.95,-130.01 159.22,-117.64 181,-110.5 248.28,-88.45 328.83,-81.35 386.94,-79.39"/>
<polygon fill="orange" stroke="orange" points="117.17,-138.49 110.73,-146.9 121.01,-144.35 117.17,-138.49"/>
</a>
</g>
<text text-anchor="start" x="206.5" y="-131.5" font-family="Helvetica,sans-Serif" font-size="10.00" fill="grey">&lt; TurbineKynemaFMB,</text>
<text text-anchor="start" x="206.5" y="-116.5" font-family="Helvetica,sans-Serif" font-size="10.00" fill="grey">   SrcTrait &gt;</text>
</g>
<!-- Node7 -->
<g id="Node000007" class="node">
<title>Node7</title>
<g id="a_Node000007"><a xlink:href="structkynema__sgf_1_1actuator_1_1ops_1_1_update_pos_op_3_01_uniform_ct_00_01_act_src_disk_01_4.html" target="_top" xlink:title=" ">
<polygon fill="white" stroke="#666666" points="547.5,-41 384.5,-41 384.5,0 547.5,0 547.5,-41"/>
<text text-anchor="start" x="392.5" y="-29" font-family="Helvetica,sans-Serif" font-size="10.00">kynema_sgf::actuator</text>
<text text-anchor="start" x="392.5" y="-18" font-family="Helvetica,sans-Serif" font-size="10.00">::ops::UpdatePosOp&lt; Uniform</text>
<text text-anchor="middle" x="466" y="-7" font-family="Helvetica,sans-Serif" font-size="10.00">Ct, ActSrcDisk &gt;</text>
</a>
</g>
</g>
<!-- Node1&#45;&gt;Node7 -->
<g id="edge6_Node000001_Node000007" class="edge">
<title>Node1&#45;&gt;Node7</title>
<g id="a_edge6_Node000001_Node000007"><a xlink:title=" ">
<path fill="none" stroke="orange" stroke-dasharray="5,2" d="M100.9,-138.18C118.3,-113.15 146.8,-78.45 181,-60.5 243.94,-27.47 324.99,-18.84 384.39,-17.66"/>
<polygon fill="orange" stroke="orange" points="97.92,-136.34 95.22,-146.58 103.72,-140.26 97.92,-136.34"/>
</a>
</g>
<text text-anchor="start" x="196.5" y="-66" font-family="Helvetica,sans-Serif" font-size="10.00" fill="grey">&lt; UniformCt, ActSrcDisk &gt;</text>
</g>
</g>
</svg>
