<?xml version="1.0" encoding="UTF-8" standalone="no"?>
<!DOCTYPE svg PUBLIC "-//W3C//DTD SVG 1.1//EN"
 "http://www.w3.org/Graphics/SVG/1.1/DTD/svg11.dtd">
<!-- Generated by graphviz version 2.43.0 (0)
 -->
<!-- Title: kynema_sgf::pde::TurbulenceOp&lt; PDE &gt; Pages: 1 -->
<svg width="1943pt" height="259pt"
 viewBox="0.00 0.00 1943.00 259.14" xmlns="http://www.w3.org/2000/svg" xmlns:xlink="http://www.w3.org/1999/xlink">
<g id="graph0" class="graph" transform="scale(1 1) rotate(0) translate(4 255.14)">
<title>kynema_sgf::pde::TurbulenceOp&lt; PDE &gt;</title>
<!-- Node1 -->
<g id="Node000001" class="node">
<title>Node1</title>
<g id="a_Node000001"><a xlink:title=" ">
<polygon fill="#999999" stroke="#666666" points="1935,-155.18 1777,-155.18 1777,-125.18 1935,-125.18 1935,-155.18"/>
<text text-anchor="start" x="1785" y="-143.18" font-family="Helvetica,sans-Serif" font-size="10.00">kynema_sgf::pde::Turbulence</text>
<text text-anchor="middle" x="1856" y="-132.18" font-family="Helvetica,sans-Serif" font-size="10.00">Op&lt; PDE &gt;</text>
</a>
</g>
</g>
<!-- Node2 -->
<g id="Node000002" class="node">
<title>Node2</title>
<g id="a_Node000002"><a xlink:href="classkynema__sgf_1_1turbulence_1_1_turbulence_model.html" target="_top" xlink:title=" ">
<polygon fill="white" stroke="#666666" points="1675,-201.18 1542,-201.18 1542,-171.18 1675,-171.18 1675,-201.18"/>
<text text-anchor="start" x="1550" y="-189.18" font-family="Helvetica,sans-Serif" font-size="10.00">kynema_sgf::turbulence</text>
<text text-anchor="middle" x="1608.5" y="-178.18" font-family="Helvetica,sans-Serif" font-size="10.00">::TurbulenceModel</text>
</a>
</g>
</g>
<!-- Node2&#45;&gt;Node1 -->
<g id="edge1_Node000001_Node000002" class="edge">
<title>Node2&#45;&gt;Node1</title>
<g id="a_edge1_Node000001_Node000002"><a xlink:title=" ">
<path fill="none" stroke="#9a32cd" stroke-dasharray="5,2" d="M1685.37,-171.96C1714.41,-166.52 1747.56,-160.31 1776.81,-154.83"/>
<polygon fill="#9a32cd" stroke="#9a32cd" points="1684.47,-168.57 1675.29,-173.85 1685.76,-175.45 1684.47,-168.57"/>
</a>
</g>
<text text-anchor="start" x="1706" y="-173.68" font-family="Helvetica,sans-Serif" font-size="10.00" fill="grey">m_tmodel</text>
</g>
<!-- Node3 -->
<g id="Node000003" class="node">
<title>Node3</title>
<g id="a_Node000003"><a xlink:href="structkynema__sgf_1_1_factory.html" target="_top" xlink:title=" ">
<polygon fill="white" stroke="#666666" points="1438,-226.18 1261,-226.18 1261,-196.18 1438,-196.18 1438,-226.18"/>
<text text-anchor="start" x="1269" y="-214.18" font-family="Helvetica,sans-Serif" font-size="10.00">kynema_sgf::Factory</text>
<text text-anchor="middle" x="1349.5" y="-203.18" font-family="Helvetica,sans-Serif" font-size="10.00">&lt; TurbulenceModel, CFDSim &amp; &gt;</text>
</a>
</g>
</g>
<!-- Node3&#45;&gt;Node2 -->
<g id="edge2_Node000002_Node000003" class="edge">
<title>Node3&#45;&gt;Node2</title>
<g id="a_edge2_Node000002_Node000003"><a xlink:title=" ">
<path fill="none" stroke="#63b8ff" d="M1448.53,-203.3C1470.11,-201.42 1492.83,-199.33 1514,-197.18 1523.02,-196.26 1532.53,-195.23 1541.89,-194.17"/>
<polygon fill="#63b8ff" stroke="#63b8ff" points="1448.03,-199.82 1438.37,-204.17 1448.63,-206.8 1448.03,-199.82"/>
</a>
</g>
</g>
<!-- Node4 -->
<g id="Node000004" class="node">
<title>Node4</title>
<g id="a_Node000004"><a xlink:href="structkynema__sgf_1_1_factory.html" target="_top" xlink:title=" ">
<polygon fill="white" stroke="#666666" points="1110,-226.18 994,-226.18 994,-196.18 1110,-196.18 1110,-226.18"/>
<text text-anchor="start" x="1002" y="-214.18" font-family="Helvetica,sans-Serif" font-size="10.00">kynema_sgf::Factory</text>
<text text-anchor="middle" x="1052" y="-203.18" font-family="Helvetica,sans-Serif" font-size="10.00">&lt; Base, Args &gt;</text>
</a>
</g>
</g>
<!-- Node4&#45;&gt;Node3 -->
<g id="edge3_Node000003_Node000004" class="edge">
<title>Node4&#45;&gt;Node3</title>
<g id="a_edge3_Node000003_Node000004"><a xlink:title=" ">
<path fill="none" stroke="orange" stroke-dasharray="5,2" d="M1120.36,-211.18C1161.98,-211.18 1215.84,-211.18 1260.78,-211.18"/>
<polygon fill="orange" stroke="orange" points="1120.33,-207.68 1110.33,-211.18 1120.33,-214.68 1120.33,-207.68"/>
</a>
</g>
<text text-anchor="start" x="1143.5" y="-232.18" font-family="Helvetica,sans-Serif" font-size="10.00" fill="grey">&lt; TurbulenceModel,</text>
<text text-anchor="start" x="1143.5" y="-217.18" font-family="Helvetica,sans-Serif" font-size="10.00" fill="grey">   CFDSim &amp; &gt;</text>
</g>
<!-- Node5 -->
<g id="Node000005" class="node">
<title>Node5</title>
<g id="a_Node000005"><a xlink:href="structkynema__sgf_1_1pde_1_1_p_d_e_fields.html" target="_top" xlink:title=" ">
<polygon fill="white" stroke="#666666" points="1685,-128.68 1532,-128.68 1532,-109.68 1685,-109.68 1685,-128.68"/>
<text text-anchor="middle" x="1608.5" y="-116.68" font-family="Helvetica,sans-Serif" font-size="10.00">kynema_sgf::pde::PDEFields</text>
</a>
</g>
</g>
<!-- Node5&#45;&gt;Node1 -->
<g id="edge4_Node000001_Node000005" class="edge">
<title>Node5&#45;&gt;Node1</title>
<g id="a_edge4_Node000001_Node000005"><a xlink:title=" ">
<path fill="none" stroke="#9a32cd" stroke-dasharray="5,2" d="M1695.43,-118.47C1716.28,-118.97 1738.47,-120.06 1759,-122.18 1766.42,-122.94 1774.13,-123.98 1781.8,-125.17"/>
<polygon fill="#9a32cd" stroke="#9a32cd" points="1695.39,-114.97 1685.32,-118.27 1695.25,-121.97 1695.39,-114.97"/>
</a>
</g>
<text text-anchor="start" x="1710" y="-127.68" font-family="Helvetica,sans-Serif" font-size="10.00" fill="grey">m_fields</text>
</g>
<!-- Node6 -->
<g id="Node000006" class="node">
<title>Node6</title>
<g id="a_Node000006"><a xlink:href="classkynema__sgf_1_1_field_repo.html" target="_top" xlink:title=" ">
<polygon fill="white" stroke="#666666" points="1116.5,-69.68 987.5,-69.68 987.5,-50.68 1116.5,-50.68 1116.5,-69.68"/>
<text text-anchor="middle" x="1052" y="-57.68" font-family="Helvetica,sans-Serif" font-size="10.00">kynema_sgf::FieldRepo</text>
</a>
</g>
</g>
<!-- Node6&#45;&gt;Node5 -->
<g id="edge5_Node000005_Node000006" class="edge">
<title>Node6&#45;&gt;Node5</title>
<g id="a_edge5_Node000005_Node000006"><a xlink:title=" ">
<path fill="none" stroke="#9a32cd" stroke-dasharray="5,2" d="M1126.83,-61.69C1204.58,-64.04 1330.41,-70.03 1438,-85.18 1482.43,-91.44 1532.77,-101.98 1566.97,-109.67"/>
<polygon fill="#9a32cd" stroke="#9a32cd" points="1126.75,-58.18 1116.66,-61.39 1126.55,-65.18 1126.75,-58.18"/>
</a>
</g>
<text text-anchor="start" x="1338.5" y="-90.68" font-family="Helvetica,sans-Serif" font-size="10.00" fill="grey">repo</text>
</g>
<!-- Node13 -->
<g id="Node000013" class="node">
<title>Node13</title>
<g id="a_Node000013"><a xlink:href="classkynema__sgf_1_1_field.html" target="_top" xlink:title=" ">
<polygon fill="white" stroke="#666666" points="1401.5,-129.68 1297.5,-129.68 1297.5,-110.68 1401.5,-110.68 1401.5,-129.68"/>
<text text-anchor="middle" x="1349.5" y="-117.68" font-family="Helvetica,sans-Serif" font-size="10.00">kynema_sgf::Field</text>
</a>
</g>
</g>
<!-- Node6&#45;&gt;Node13 -->
<g id="edge13_Node000013_Node000006" class="edge">
<title>Node6&#45;&gt;Node13</title>
<g id="a_edge13_Node000013_Node000006"><a xlink:title=" ">
<path fill="none" stroke="#9a32cd" stroke-dasharray="5,2" d="M1126.96,-69.12C1162.29,-73.98 1205.05,-80.75 1243,-89.18 1269.28,-95.02 1298.61,-103.83 1319.67,-110.57"/>
<polygon fill="#9a32cd" stroke="#9a32cd" points="1127.11,-65.61 1116.73,-67.73 1126.17,-72.54 1127.11,-65.61"/>
</a>
</g>
<text text-anchor="start" x="1173.5" y="-94.68" font-family="Helvetica,sans-Serif" font-size="10.00" fill="grey">m_repo</text>
</g>
<!-- Node7 -->
<g id="Node000007" class="node">
<title>Node7</title>
<g id="a_Node000007"><a xlink:title=" ">
<polygon fill="white" stroke="#666666" points="866.5,-75.18 744.5,-75.18 744.5,-45.18 866.5,-45.18 866.5,-75.18"/>
<text text-anchor="start" x="752.5" y="-63.18" font-family="Helvetica,sans-Serif" font-size="10.00">std::unordered_map</text>
<text text-anchor="middle" x="805.5" y="-52.18" font-family="Helvetica,sans-Serif" font-size="10.00">&lt; std::string, size_t &gt;</text>
</a>
</g>
</g>
<!-- Node7&#45;&gt;Node6 -->
<g id="edge6_Node000006_Node000007" class="edge">
<title>Node7&#45;&gt;Node6</title>
<g id="a_edge6_Node000006_Node000007"><a xlink:title=" ">
<path fill="none" stroke="#9a32cd" stroke-dasharray="5,2" d="M876.73,-60.18C911.57,-60.18 953.34,-60.18 987.26,-60.18"/>
<polygon fill="#9a32cd" stroke="#9a32cd" points="876.62,-56.68 866.62,-60.18 876.62,-63.68 876.62,-56.68"/>
</a>
</g>
<text text-anchor="start" x="888.5" y="-81.18" font-family="Helvetica,sans-Serif" font-size="10.00" fill="grey">m_fid_map</text>
<text text-anchor="start" x="888.5" y="-66.18" font-family="Helvetica,sans-Serif" font-size="10.00" fill="grey">m_int_fid_map</text>
</g>
<!-- Node8 -->
<g id="Node000008" class="node">
<title>Node8</title>
<g id="a_Node000008"><a xlink:title=" ">
<polygon fill="white" stroke="#666666" points="524.5,-128.68 459.5,-128.68 459.5,-109.68 524.5,-109.68 524.5,-128.68"/>
<text text-anchor="middle" x="492" y="-116.68" font-family="Helvetica,sans-Serif" font-size="10.00">std::string</text>
</a>
</g>
</g>
<!-- Node8&#45;&gt;Node7 -->
<g id="edge7_Node000007_Node000008" class="edge">
<title>Node8&#45;&gt;Node7</title>
<g id="a_edge7_Node000007_Node000008"><a xlink:title=" ">
<path fill="none" stroke="#9a32cd" stroke-dasharray="5,2" d="M529.41,-106.35C547.45,-100.4 569.67,-93.67 590,-89.18 641.56,-77.8 701.13,-70.18 744.4,-65.62"/>
<polygon fill="#9a32cd" stroke="#9a32cd" points="528.22,-103.06 519.86,-109.56 530.45,-109.69 528.22,-103.06"/>
</a>
</g>
<text text-anchor="start" x="647" y="-94.68" font-family="Helvetica,sans-Serif" font-size="10.00" fill="grey">keys</text>
</g>
<!-- Node8&#45;&gt;Node13 -->
<g id="edge14_Node000013_Node000008" class="edge">
<title>Node8&#45;&gt;Node13</title>
<g id="a_edge14_Node000013_Node000008"><a xlink:title=" ">
<path fill="none" stroke="#9a32cd" stroke-dasharray="5,2" d="M534.78,-119.23C677.01,-119.39 1142.17,-119.94 1297.49,-120.12"/>
<polygon fill="#9a32cd" stroke="#9a32cd" points="534.72,-115.73 524.72,-119.22 534.71,-122.73 534.72,-115.73"/>
</a>
</g>
<text text-anchor="start" x="903.5" y="-124.68" font-family="Helvetica,sans-Serif" font-size="10.00" fill="grey">m_name</text>
</g>
<!-- Node15 -->
<g id="Node000015" class="node">
<title>Node15</title>
<g id="a_Node000015"><a xlink:href="structkynema__sgf_1_1_field_info.html" target="_top" xlink:title=" ">
<polygon fill="white" stroke="#666666" points="867,-172.68 744,-172.68 744,-153.68 867,-153.68 867,-172.68"/>
<text text-anchor="middle" x="805.5" y="-160.68" font-family="Helvetica,sans-Serif" font-size="10.00">kynema_sgf::FieldInfo</text>
</a>
</g>
</g>
<!-- Node8&#45;&gt;Node15 -->
<g id="edge17_Node000015_Node000008" class="edge">
<title>Node8&#45;&gt;Node15</title>
<g id="a_edge17_Node000015_Node000008"><a xlink:title=" ">
<path fill="none" stroke="#9a32cd" stroke-dasharray="5,2" d="M534.74,-124.33C581.41,-130.17 659.21,-140.21 726,-150.18 733.24,-151.26 740.85,-152.45 748.36,-153.66"/>
<polygon fill="#9a32cd" stroke="#9a32cd" points="535.06,-120.84 524.7,-123.07 534.19,-127.78 535.06,-120.84"/>
</a>
</g>
<text text-anchor="start" x="625" y="-155.68" font-family="Helvetica,sans-Serif" font-size="10.00" fill="grey">m_basename</text>
</g>
<!-- Node9 -->
<g id="Node000009" class="node">
<title>Node9</title>
<g id="a_Node000009"><a xlink:title=" ">
<polygon fill="white" stroke="#666666" points="209.5,-132.18 105.5,-132.18 105.5,-102.18 209.5,-102.18 209.5,-132.18"/>
<text text-anchor="start" x="113.5" y="-120.18" font-family="Helvetica,sans-Serif" font-size="10.00">std::basic_string&lt;</text>
<text text-anchor="middle" x="157.5" y="-109.18" font-family="Helvetica,sans-Serif" font-size="10.00"> Char &gt;</text>
</a>
</g>
</g>
<!-- Node9&#45;&gt;Node8 -->
<g id="edge8_Node000008_Node000009" class="edge">
<title>Node9&#45;&gt;Node8</title>
<g id="a_edge8_Node000008_Node000009"><a xlink:title=" ">
<path fill="none" stroke="#63b8ff" d="M219.85,-117.55C290.64,-117.97 404.34,-118.66 459.27,-118.99"/>
<polygon fill="#63b8ff" stroke="#63b8ff" points="219.75,-114.05 209.72,-117.49 219.7,-121.05 219.75,-114.05"/>
</a>
</g>
</g>
<!-- Node10 -->
<g id="Node000010" class="node">
<title>Node10</title>
<g id="a_Node000010"><a xlink:title=" ">
<polygon fill="white" stroke="#666666" points="549,-63.18 435,-63.18 435,-33.18 549,-33.18 549,-63.18"/>
<text text-anchor="start" x="443" y="-51.18" font-family="Helvetica,sans-Serif" font-size="10.00">std::unordered_map</text>
<text text-anchor="middle" x="492" y="-40.18" font-family="Helvetica,sans-Serif" font-size="10.00">&lt; K, T &gt;</text>
</a>
</g>
</g>
<!-- Node10&#45;&gt;Node7 -->
<g id="edge9_Node000007_Node000010" class="edge">
<title>Node10&#45;&gt;Node7</title>
<g id="a_edge9_Node000007_Node000010"><a xlink:title=" ">
<path fill="none" stroke="orange" stroke-dasharray="5,2" d="M559.39,-46.09C606.06,-45.2 669.92,-45.15 726,-49.18 731.9,-49.6 738.04,-50.2 744.16,-50.89"/>
<polygon fill="orange" stroke="orange" points="559.03,-42.6 549.11,-46.3 559.18,-49.59 559.03,-42.6"/>
</a>
</g>
<text text-anchor="start" x="605" y="-54.68" font-family="Helvetica,sans-Serif" font-size="10.00" fill="grey">&lt; std::string, size_t &gt;</text>
</g>
<!-- Node11 -->
<g id="Node000011" class="node">
<title>Node11</title>
<g id="a_Node000011"><a xlink:title=" ">
<polygon fill="white" stroke="#666666" points="172,-83.68 143,-83.68 143,-64.68 172,-64.68 172,-83.68"/>
<text text-anchor="middle" x="157.5" y="-71.68" font-family="Helvetica,sans-Serif" font-size="10.00">K</text>
</a>
</g>
</g>
<!-- Node11&#45;&gt;Node10 -->
<g id="edge10_Node000010_Node000011" class="edge">
<title>Node11&#45;&gt;Node10</title>
<g id="a_edge10_Node000010_Node000011"><a xlink:title=" ">
<path fill="none" stroke="#9a32cd" stroke-dasharray="5,2" d="M182.38,-72.31C234.77,-68.22 361.02,-58.34 434.8,-52.57"/>
<polygon fill="#9a32cd" stroke="#9a32cd" points="182.06,-68.83 172.36,-73.1 182.61,-75.81 182.06,-68.83"/>
</a>
</g>
<text text-anchor="start" x="310" y="-72.68" font-family="Helvetica,sans-Serif" font-size="10.00" fill="grey">keys</text>
</g>
<!-- Node12 -->
<g id="Node000012" class="node">
<title>Node12</title>
<g id="a_Node000012"><a xlink:title=" ">
<polygon fill="white" stroke="#666666" points="29,-169.68 0,-169.68 0,-150.68 29,-150.68 29,-169.68"/>
<text text-anchor="middle" x="14.5" y="-157.68" font-family="Helvetica,sans-Serif" font-size="10.00">T</text>
</a>
</g>
</g>
<!-- Node12&#45;&gt;Node10 -->
<g id="edge11_Node000010_Node000012" class="edge">
<title>Node12&#45;&gt;Node10</title>
<g id="a_edge11_Node000010_Node000012"><a xlink:title=" ">
<path fill="none" stroke="#9a32cd" stroke-dasharray="5,2" d="M20.08,-140.6C27.91,-112.14 46.86,-60.35 85,-38.18 200.82,29.14 368.36,-8.98 447.05,-33.11"/>
<polygon fill="#9a32cd" stroke="#9a32cd" points="16.62,-140.02 17.53,-150.57 23.4,-141.75 16.62,-140.02"/>
</a>
</g>
<text text-anchor="start" x="134.5" y="-43.68" font-family="Helvetica,sans-Serif" font-size="10.00" fill="grey">elements</text>
</g>
<!-- Node18 -->
<g id="Node000018" class="node">
<title>Node18</title>
<g id="a_Node000018"><a xlink:title=" ">
<polygon fill="white" stroke="#666666" points="216.5,-169.68 98.5,-169.68 98.5,-150.68 216.5,-150.68 216.5,-169.68"/>
<text text-anchor="middle" x="157.5" y="-157.68" font-family="Helvetica,sans-Serif" font-size="10.00">std::unique_ptr&lt; T &gt;</text>
</a>
</g>
</g>
<!-- Node12&#45;&gt;Node18 -->
<g id="edge21_Node000018_Node000012" class="edge">
<title>Node12&#45;&gt;Node18</title>
<g id="a_edge21_Node000018_Node000012"><a xlink:title=" ">
<path fill="none" stroke="#9a32cd" stroke-dasharray="5,2" d="M39.2,-160.18C55.44,-160.18 77.72,-160.18 98.5,-160.18"/>
<polygon fill="#9a32cd" stroke="#9a32cd" points="39.02,-156.68 29.02,-160.18 39.02,-163.68 39.02,-156.68"/>
</a>
</g>
<text text-anchor="start" x="50" y="-165.68" font-family="Helvetica,sans-Serif" font-size="10.00" fill="grey">ptr</text>
</g>
<!-- Node19 -->
<g id="Node000019" class="node">
<title>Node19</title>
<g id="a_Node000019"><a xlink:title=" ">
<polygon fill="white" stroke="#666666" points="380,-250.68 262,-250.68 262,-231.68 380,-231.68 380,-250.68"/>
<text text-anchor="middle" x="321" y="-238.68" font-family="Helvetica,sans-Serif" font-size="10.00">std::shared_ptr&lt; T &gt;</text>
</a>
</g>
</g>
<!-- Node12&#45;&gt;Node19 -->
<g id="edge23_Node000019_Node000012" class="edge">
<title>Node12&#45;&gt;Node19</title>
<g id="a_edge23_Node000019_Node000012"><a xlink:title=" ">
<path fill="none" stroke="#9a32cd" stroke-dasharray="5,2" d="M27.78,-178.05C40.12,-194.36 60.76,-217.5 85,-228.18 141.28,-252.97 212.61,-253.1 261.84,-249.01"/>
<polygon fill="#9a32cd" stroke="#9a32cd" points="30.51,-175.85 21.8,-169.81 24.84,-179.96 30.51,-175.85"/>
</a>
</g>
<text text-anchor="start" x="50" y="-221.68" font-family="Helvetica,sans-Serif" font-size="10.00" fill="grey">ptr</text>
</g>
<!-- Node13&#45;&gt;Node5 -->
<g id="edge12_Node000005_Node000013" class="edge">
<title>Node13&#45;&gt;Node5</title>
<g id="a_edge12_Node000005_Node000013"><a xlink:title=" ">
<path fill="none" stroke="#9a32cd" stroke-dasharray="5,2" d="M1411.92,-119.94C1447.85,-119.8 1493.5,-119.62 1531.66,-119.47"/>
<polygon fill="#9a32cd" stroke="#9a32cd" points="1411.57,-116.44 1401.58,-119.98 1411.6,-123.44 1411.57,-116.44"/>
</a>
</g>
<text text-anchor="start" x="1459" y="-184.68" font-family="Helvetica,sans-Serif" font-size="10.00" fill="grey">conv_term</text>
<text text-anchor="start" x="1459" y="-169.68" font-family="Helvetica,sans-Serif" font-size="10.00" fill="grey">diff_term</text>
<text text-anchor="start" x="1459" y="-154.68" font-family="Helvetica,sans-Serif" font-size="10.00" fill="grey">field</text>
<text text-anchor="start" x="1459" y="-139.68" font-family="Helvetica,sans-Serif" font-size="10.00" fill="grey">mueff</text>
<text text-anchor="start" x="1459" y="-124.68" font-family="Helvetica,sans-Serif" font-size="10.00" fill="grey">src_term</text>
</g>
<!-- Node14 -->
<g id="Node000014" class="node">
<title>Node14</title>
<g id="a_Node000014"><a xlink:title=" ">
<polygon fill="white" stroke="#666666" points="1122,-178.18 982,-178.18 982,-148.18 1122,-148.18 1122,-178.18"/>
<text text-anchor="start" x="990" y="-166.18" font-family="Helvetica,sans-Serif" font-size="10.00">std::shared_ptr&lt; kynema</text>
<text text-anchor="middle" x="1052" y="-155.18" font-family="Helvetica,sans-Serif" font-size="10.00">_sgf::FieldInfo &gt;</text>
</a>
</g>
</g>
<!-- Node14&#45;&gt;Node13 -->
<g id="edge15_Node000013_Node000014" class="edge">
<title>Node14&#45;&gt;Node13</title>
<g id="a_edge15_Node000013_Node000014"><a xlink:title=" ">
<path fill="none" stroke="#9a32cd" stroke-dasharray="5,2" d="M1132.21,-151.65C1184.59,-144.03 1251.73,-134.26 1297.2,-127.64"/>
<polygon fill="#9a32cd" stroke="#9a32cd" points="1131.67,-148.19 1122.28,-153.1 1132.68,-155.12 1131.67,-148.19"/>
</a>
</g>
<text text-anchor="start" x="1174.5" y="-155.68" font-family="Helvetica,sans-Serif" font-size="10.00" fill="grey">m_info</text>
</g>
<!-- Node15&#45;&gt;Node14 -->
<g id="edge16_Node000014_Node000015" class="edge">
<title>Node15&#45;&gt;Node14</title>
<g id="a_edge16_Node000014_Node000015"><a xlink:title=" ">
<path fill="none" stroke="#9a32cd" stroke-dasharray="5,2" d="M877.26,-163.18C910.18,-163.18 949.21,-163.18 981.92,-163.18"/>
<polygon fill="#9a32cd" stroke="#9a32cd" points="877.25,-159.68 867.25,-163.18 877.25,-166.68 877.25,-159.68"/>
</a>
</g>
<text text-anchor="start" x="917.5" y="-168.68" font-family="Helvetica,sans-Serif" font-size="10.00" fill="grey">ptr</text>
</g>
<!-- Node16 -->
<g id="Node000016" class="node">
<title>Node16</title>
<g id="a_Node000016"><a xlink:title=" ">
<polygon fill="white" stroke="#666666" points="572,-208.18 412,-208.18 412,-178.18 572,-178.18 572,-208.18"/>
<text text-anchor="start" x="420" y="-196.18" font-family="Helvetica,sans-Serif" font-size="10.00">std::unique_ptr&lt; kynema</text>
<text text-anchor="middle" x="492" y="-185.18" font-family="Helvetica,sans-Serif" font-size="10.00">_sgf::FieldFillPatchOpsBase &gt;</text>
</a>
</g>
</g>
<!-- Node16&#45;&gt;Node15 -->
<g id="edge18_Node000015_Node000016" class="edge">
<title>Node16&#45;&gt;Node15</title>
<g id="a_edge18_Node000015_Node000016"><a xlink:title=" ">
<path fill="none" stroke="#9a32cd" stroke-dasharray="5,2" d="M581.98,-184.93C625.42,-180.87 678.45,-175.85 726,-171.18 731.73,-170.62 737.69,-170.02 743.65,-169.43"/>
<polygon fill="#9a32cd" stroke="#9a32cd" points="581.64,-181.45 572.01,-185.87 582.29,-188.42 581.64,-181.45"/>
</a>
</g>
<text text-anchor="start" x="622" y="-188.68" font-family="Helvetica,sans-Serif" font-size="10.00" fill="grey">m_fillpatch_op</text>
</g>
<!-- Node17 -->
<g id="Node000017" class="node">
<title>Node17</title>
<g id="a_Node000017"><a xlink:href="classkynema__sgf_1_1_field_fill_patch_ops_base.html" target="_top" xlink:title=" ">
<polygon fill="white" stroke="#666666" points="230,-219.18 85,-219.18 85,-189.18 230,-189.18 230,-219.18"/>
<text text-anchor="start" x="93" y="-207.18" font-family="Helvetica,sans-Serif" font-size="10.00">kynema_sgf::FieldFillPatch</text>
<text text-anchor="middle" x="157.5" y="-196.18" font-family="Helvetica,sans-Serif" font-size="10.00">OpsBase</text>
</a>
</g>
</g>
<!-- Node17&#45;&gt;Node16 -->
<g id="edge19_Node000016_Node000017" class="edge">
<title>Node17&#45;&gt;Node16</title>
<g id="a_edge19_Node000016_Node000017"><a xlink:title=" ">
<path fill="none" stroke="#9a32cd" stroke-dasharray="5,2" d="M240.48,-201.47C292.75,-199.74 360.12,-197.51 411.83,-195.8"/>
<polygon fill="#9a32cd" stroke="#9a32cd" points="240.12,-197.98 230.24,-201.81 240.35,-204.97 240.12,-197.98"/>
</a>
</g>
<text text-anchor="start" x="314" y="-205.68" font-family="Helvetica,sans-Serif" font-size="10.00" fill="grey">ptr</text>
</g>
<!-- Node18&#45;&gt;Node16 -->
<g id="edge20_Node000016_Node000018" class="edge">
<title>Node18&#45;&gt;Node16</title>
<g id="a_edge20_Node000016_Node000018"><a xlink:title=" ">
<path fill="none" stroke="orange" stroke-dasharray="5,2" d="M226.64,-154.33C273.93,-151.69 338.19,-150.95 394,-160.18 415.06,-163.66 437.69,-171.13 455.79,-178.08"/>
<polygon fill="orange" stroke="orange" points="226.29,-150.84 216.52,-154.94 226.71,-157.83 226.29,-150.84"/>
</a>
</g>
<text text-anchor="start" x="251" y="-181.18" font-family="Helvetica,sans-Serif" font-size="10.00" fill="grey">&lt; kynema_sgf::FieldFillPatch</text>
<text text-anchor="start" x="251" y="-166.18" font-family="Helvetica,sans-Serif" font-size="10.00" fill="grey">  OpsBase &gt;</text>
</g>
<!-- Node19&#45;&gt;Node14 -->
<g id="edge22_Node000014_Node000019" class="edge">
<title>Node19&#45;&gt;Node14</title>
<g id="a_edge22_Node000014_Node000019"><a xlink:title=" ">
<path fill="none" stroke="orange" stroke-dasharray="5,2" d="M390.66,-238.43C508.57,-232.96 756.87,-218.18 964,-184.18 973.81,-182.57 984.16,-180.45 994.15,-178.18"/>
<polygon fill="orange" stroke="orange" points="390.18,-234.95 380.35,-238.9 390.5,-241.94 390.18,-234.95"/>
</a>
</g>
<text text-anchor="start" x="593" y="-230.68" font-family="Helvetica,sans-Serif" font-size="10.00" fill="grey">&lt; kynema_sgf::FieldInfo &gt;</text>
</g>
</g>
</svg>
