<?xml version="1.0" encoding="UTF-8" standalone="no"?>
<!DOCTYPE svg PUBLIC "-//W3C//DTD SVG 1.1//EN"
 "http://www.w3.org/Graphics/SVG/1.1/DTD/svg11.dtd">
<!-- Generated by graphviz version 2.43.0 (0)
 -->
<!-- Title: kynema_sgf::AMROversetInfo Pages: 1 -->
<svg width="681pt" height="288pt"
 viewBox="0.00 0.00 681.00 287.50" xmlns="http://www.w3.org/2000/svg" xmlns:xlink="http://www.w3.org/1999/xlink">
<g id="graph0" class="graph" transform="scale(1 1) rotate(0) translate(4 283.5)">
<title>kynema_sgf::AMROversetInfo</title>
<!-- Node1 -->
<g id="Node000001" class="node">
<title>Node1</title>
<g id="a_Node000001"><a xlink:title=" ">
<polygon fill="#999999" stroke="#666666" points="673,-111 512,-111 512,-92 673,-92 673,-111"/>
<text text-anchor="middle" x="592.5" y="-99" font-family="Helvetica,sans-Serif" font-size="10.00">kynema_sgf::AMROversetInfo</text>
</a>
</g>
</g>
<!-- Node2 -->
<g id="Node000002" class="node">
<title>Node2</title>
<g id="a_Node000002"><a xlink:href="structkynema__sgf_1_1tioga__iface_1_1_amr_dual_array.html" target="_top" xlink:title=" ">
<polygon fill="white" stroke="#666666" points="403,-198.5 268,-198.5 268,-168.5 403,-168.5 403,-198.5"/>
<text text-anchor="start" x="276" y="-186.5" font-family="Helvetica,sans-Serif" font-size="10.00">kynema_sgf::tioga_iface</text>
<text text-anchor="middle" x="335.5" y="-175.5" font-family="Helvetica,sans-Serif" font-size="10.00">::AmrDualArray&lt; int &gt;</text>
</a>
</g>
</g>
<!-- Node2&#45;&gt;Node1 -->
<g id="edge1_Node000001_Node000002" class="edge">
<title>Node2&#45;&gt;Node1</title>
<g id="a_edge1_Node000001_Node000002"><a xlink:title=" ">
<path fill="none" stroke="#9a32cd" stroke-dasharray="5,2" d="M413.43,-174.32C439.48,-169.91 468.43,-163.54 494,-154.5 525.42,-143.38 558.9,-123.09 577.31,-111.1"/>
<polygon fill="#9a32cd" stroke="#9a32cd" points="412.54,-170.92 403.23,-175.97 413.66,-177.83 412.54,-170.92"/>
</a>
</g>
<text text-anchor="start" x="424.5" y="-268" font-family="Helvetica,sans-Serif" font-size="10.00" fill="grey">dims</text>
<text text-anchor="start" x="424.5" y="-253" font-family="Helvetica,sans-Serif" font-size="10.00" fill="grey">global_idmap</text>
<text text-anchor="start" x="424.5" y="-238" font-family="Helvetica,sans-Serif" font-size="10.00" fill="grey">ihigh</text>
<text text-anchor="start" x="424.5" y="-223" font-family="Helvetica,sans-Serif" font-size="10.00" fill="grey">ilow</text>
<text text-anchor="start" x="424.5" y="-208" font-family="Helvetica,sans-Serif" font-size="10.00" fill="grey">level</text>
<text text-anchor="start" x="424.5" y="-193" font-family="Helvetica,sans-Serif" font-size="10.00" fill="grey">local_id</text>
<text text-anchor="start" x="424.5" y="-178" font-family="Helvetica,sans-Serif" font-size="10.00" fill="grey">mpi_rank</text>
</g>
<!-- Node3 -->
<g id="Node000003" class="node">
<title>Node3</title>
<g id="a_Node000003"><a xlink:href="structkynema__sgf_1_1tioga__iface_1_1_amr_dual_array.html" target="_top" xlink:title=" ">
<polygon fill="white" stroke="#666666" points="135,-112.5 0,-112.5 0,-82.5 135,-82.5 135,-112.5"/>
<text text-anchor="start" x="8" y="-100.5" font-family="Helvetica,sans-Serif" font-size="10.00">kynema_sgf::tioga_iface</text>
<text text-anchor="middle" x="67.5" y="-89.5" font-family="Helvetica,sans-Serif" font-size="10.00">::AmrDualArray&lt; T &gt;</text>
</a>
</g>
</g>
<!-- Node3&#45;&gt;Node2 -->
<g id="edge2_Node000002_Node000003" class="edge">
<title>Node3&#45;&gt;Node2</title>
<g id="a_edge2_Node000002_Node000003"><a xlink:title=" ">
<path fill="none" stroke="orange" stroke-dasharray="5,2" d="M105.21,-117.38C119.79,-124.73 136.9,-132.67 153,-138.5 190.24,-151.98 233.21,-162.84 267.98,-170.5"/>
<polygon fill="orange" stroke="orange" points="106.53,-114.12 96.03,-112.67 103.33,-120.35 106.53,-114.12"/>
</a>
</g>
<text text-anchor="start" x="183.5" y="-170" font-family="Helvetica,sans-Serif" font-size="10.00" fill="grey">&lt; int &gt;</text>
</g>
<!-- Node4 -->
<g id="Node000004" class="node">
<title>Node4</title>
<g id="a_Node000004"><a xlink:href="structkynema__sgf_1_1tioga__iface_1_1_amr_dual_array.html" target="_top" xlink:title=" ">
<polygon fill="white" stroke="#666666" points="403,-149 268,-149 268,-108 403,-108 403,-149"/>
<text text-anchor="start" x="276" y="-137" font-family="Helvetica,sans-Serif" font-size="10.00">kynema_sgf::tioga_iface</text>
<text text-anchor="start" x="276" y="-126" font-family="Helvetica,sans-Serif" font-size="10.00">::AmrDualArray&lt; amrex</text>
<text text-anchor="middle" x="335.5" y="-115" font-family="Helvetica,sans-Serif" font-size="10.00">::Real &gt;</text>
</a>
</g>
</g>
<!-- Node3&#45;&gt;Node4 -->
<g id="edge4_Node000004_Node000003" class="edge">
<title>Node3&#45;&gt;Node4</title>
<g id="a_edge4_Node000004_Node000003"><a xlink:title=" ">
<path fill="none" stroke="orange" stroke-dasharray="5,2" d="M145.45,-106.47C184.12,-110.97 230.53,-116.38 267.69,-120.71"/>
<polygon fill="orange" stroke="orange" points="145.62,-102.96 135.28,-105.28 144.81,-109.92 145.62,-102.96"/>
</a>
</g>
<text text-anchor="start" x="160.5" y="-123" font-family="Helvetica,sans-Serif" font-size="10.00" fill="grey">&lt; amrex::Real &gt;</text>
</g>
<!-- Node5 -->
<g id="Node000005" class="node">
<title>Node5</title>
<g id="a_Node000005"><a xlink:href="structkynema__sgf_1_1tioga__iface_1_1_amr_dual_array.html" target="_top" xlink:title=" ">
<polygon fill="white" stroke="#666666" points="403,-89.5 268,-89.5 268,-59.5 403,-59.5 403,-89.5"/>
<text text-anchor="start" x="276" y="-77.5" font-family="Helvetica,sans-Serif" font-size="10.00">kynema_sgf::tioga_iface</text>
<text text-anchor="middle" x="335.5" y="-66.5" font-family="Helvetica,sans-Serif" font-size="10.00">::AmrDualArray&lt; int * &gt;</text>
</a>
</g>
</g>
<!-- Node3&#45;&gt;Node5 -->
<g id="edge6_Node000005_Node000003" class="edge">
<title>Node3&#45;&gt;Node5</title>
<g id="a_edge6_Node000005_Node000003"><a xlink:title=" ">
<path fill="none" stroke="orange" stroke-dasharray="5,2" d="M145.35,-86.32C147.93,-86.03 150.48,-85.75 153,-85.5 190.85,-81.67 233.28,-79.01 267.59,-77.27"/>
<polygon fill="orange" stroke="orange" points="144.84,-82.85 135.32,-87.5 145.66,-89.81 144.84,-82.85"/>
</a>
</g>
<text text-anchor="start" x="179.5" y="-91" font-family="Helvetica,sans-Serif" font-size="10.00" fill="grey">&lt; int * &gt;</text>
</g>
<!-- Node6 -->
<g id="Node000006" class="node">
<title>Node6</title>
<g id="a_Node000006"><a xlink:href="structkynema__sgf_1_1tioga__iface_1_1_amr_dual_array.html" target="_top" xlink:title=" ">
<polygon fill="white" stroke="#666666" points="403,-41 268,-41 268,0 403,0 403,-41"/>
<text text-anchor="start" x="276" y="-29" font-family="Helvetica,sans-Serif" font-size="10.00">kynema_sgf::tioga_iface</text>
<text text-anchor="start" x="276" y="-18" font-family="Helvetica,sans-Serif" font-size="10.00">::AmrDualArray&lt; amrex</text>
<text text-anchor="middle" x="335.5" y="-7" font-family="Helvetica,sans-Serif" font-size="10.00">::Real * &gt;</text>
</a>
</g>
</g>
<!-- Node3&#45;&gt;Node6 -->
<g id="edge8_Node000006_Node000003" class="edge">
<title>Node3&#45;&gt;Node6</title>
<g id="a_edge8_Node000006_Node000003"><a xlink:title=" ">
<path fill="none" stroke="orange" stroke-dasharray="5,2" d="M104.39,-77.57C119.1,-70.07 136.51,-62.03 153,-56.5 190.16,-44.03 233.12,-35.27 267.91,-29.52"/>
<polygon fill="orange" stroke="orange" points="102.4,-74.66 95.16,-82.38 105.64,-80.86 102.4,-74.66"/>
</a>
</g>
<text text-anchor="start" x="156.5" y="-62" font-family="Helvetica,sans-Serif" font-size="10.00" fill="grey">&lt; amrex::Real * &gt;</text>
</g>
<!-- Node4&#45;&gt;Node1 -->
<g id="edge3_Node000001_Node000004" class="edge">
<title>Node4&#45;&gt;Node1</title>
<g id="a_edge3_Node000001_Node000004"><a xlink:title=" ">
<path fill="none" stroke="#9a32cd" stroke-dasharray="5,2" d="M413.49,-120.35C444.52,-117.06 480.3,-113.27 511.61,-109.96"/>
<polygon fill="#9a32cd" stroke="#9a32cd" points="412.74,-116.91 403.17,-121.44 413.48,-123.87 412.74,-116.91"/>
</a>
</g>
<text text-anchor="start" x="449.5" y="-139.5" font-family="Helvetica,sans-Serif" font-size="10.00" fill="grey">dx</text>
<text text-anchor="start" x="449.5" y="-124.5" font-family="Helvetica,sans-Serif" font-size="10.00" fill="grey">xlo</text>
</g>
<!-- Node5&#45;&gt;Node1 -->
<g id="edge5_Node000001_Node000005" class="edge">
<title>Node5&#45;&gt;Node1</title>
<g id="a_edge5_Node000001_Node000005"><a xlink:title=" ">
<path fill="none" stroke="#9a32cd" stroke-dasharray="5,2" d="M413.13,-71.82C438.92,-71.89 467.79,-73.02 494,-76.5 517.21,-79.58 542.84,-86.28 561.99,-91.98"/>
<polygon fill="#9a32cd" stroke="#9a32cd" points="413.03,-68.32 403.04,-71.85 413.05,-75.32 413.03,-68.32"/>
</a>
</g>
<text text-anchor="start" x="427.5" y="-97.5" font-family="Helvetica,sans-Serif" font-size="10.00" fill="grey">iblank_cell</text>
<text text-anchor="start" x="427.5" y="-82.5" font-family="Helvetica,sans-Serif" font-size="10.00" fill="grey">iblank_node</text>
</g>
<!-- Node6&#45;&gt;Node1 -->
<g id="edge7_Node000001_Node000006" class="edge">
<title>Node6&#45;&gt;Node1</title>
<g id="a_edge7_Node000001_Node000006"><a xlink:title=" ">
<path fill="none" stroke="#9a32cd" stroke-dasharray="5,2" d="M413.46,-20.86C439.63,-22.92 468.65,-27.4 494,-36.5 529.23,-49.15 564.19,-77.19 581.06,-91.97"/>
<polygon fill="#9a32cd" stroke="#9a32cd" points="413.43,-17.35 403.21,-20.16 412.95,-24.34 413.43,-17.35"/>
</a>
</g>
<text text-anchor="start" x="442.5" y="-57.5" font-family="Helvetica,sans-Serif" font-size="10.00" fill="grey">qcell</text>
<text text-anchor="start" x="442.5" y="-42.5" font-family="Helvetica,sans-Serif" font-size="10.00" fill="grey">qnode</text>
</g>
</g>
</svg>
