<?xml version="1.0" encoding="UTF-8" standalone="no"?>
<!DOCTYPE svg PUBLIC "-//W3C//DTD SVG 1.1//EN"
 "http://www.w3.org/Graphics/SVG/1.1/DTD/svg11.dtd">
<!-- Generated by graphviz version 2.43.0 (0)
 -->
<!-- Title: ext_turb::KynemaFMBTurbine Pages: 1 -->
<svg width="931pt" height="245pt"
 viewBox="0.00 0.00 931.00 244.63" xmlns="http://www.w3.org/2000/svg" xmlns:xlink="http://www.w3.org/1999/xlink">
<g id="graph0" class="graph" transform="scale(1 1) rotate(0) translate(4 240.63)">
<title>ext_turb::KynemaFMBTurbine</title>
<!-- Node1 -->
<g id="Node000001" class="node">
<title>Node1</title>
<g id="a_Node000001"><a xlink:title=" ">
<polygon fill="#999999" stroke="#666666" points="923,-163.13 763,-163.13 763,-144.13 923,-144.13 923,-163.13"/>
<text text-anchor="middle" x="843" y="-151.13" font-family="Helvetica,sans-Serif" font-size="10.00">ext_turb::KynemaFMBTurbine</text>
</a>
</g>
</g>
<!-- Node2 -->
<g id="Node000002" class="node">
<title>Node2</title>
<g id="a_Node000002"><a xlink:href="structext__turb_1_1_external_turbine.html" target="_top" xlink:title=" ">
<polygon fill="white" stroke="#666666" points="647.5,-168.13 508.5,-168.13 508.5,-149.13 647.5,-149.13 647.5,-168.13"/>
<text text-anchor="middle" x="578" y="-156.13" font-family="Helvetica,sans-Serif" font-size="10.00">ext_turb::ExternalTurbine</text>
</a>
</g>
</g>
<!-- Node2&#45;&gt;Node1 -->
<g id="edge1_Node000001_Node000002" class="edge">
<title>Node2&#45;&gt;Node1</title>
<g id="a_edge1_Node000001_Node000002"><a xlink:title=" ">
<path fill="none" stroke="#63b8ff" d="M657.65,-157.25C685.27,-156.76 716.51,-156.19 745,-155.63 750.81,-155.52 756.82,-155.4 762.86,-155.28"/>
<polygon fill="#63b8ff" stroke="#63b8ff" points="657.59,-153.75 647.65,-157.43 657.71,-160.75 657.59,-153.75"/>
</a>
</g>
</g>
<!-- Node3 -->
<g id="Node000003" class="node">
<title>Node3</title>
<g id="a_Node000003"><a xlink:title=" ">
<polygon fill="white" stroke="#666666" points="283.5,-191.13 218.5,-191.13 218.5,-172.13 283.5,-172.13 283.5,-191.13"/>
<text text-anchor="middle" x="251" y="-179.13" font-family="Helvetica,sans-Serif" font-size="10.00">std::string</text>
</a>
</g>
</g>
<!-- Node3&#45;&gt;Node1 -->
<g id="edge7_Node000001_Node000003" class="edge">
<title>Node3&#45;&gt;Node1</title>
<g id="a_edge7_Node000001_Node000003"><a xlink:title=" ">
<path fill="none" stroke="#9a32cd" stroke-dasharray="5,2" d="M293.45,-192.64C304.59,-195.12 316.68,-197.38 328,-198.63 512.66,-219.03 560.98,-195.16 745,-169.63 758.78,-167.72 773.61,-165.41 787.44,-163.14"/>
<polygon fill="#9a32cd" stroke="#9a32cd" points="294.07,-189.19 283.54,-190.32 292.48,-196 294.07,-189.19"/>
</a>
</g>
<text text-anchor="start" x="513" y="-225.63" font-family="Helvetica,sans-Serif" font-size="10.00" fill="grey">controller_input_file</text>
<text text-anchor="start" x="513" y="-210.63" font-family="Helvetica,sans-Serif" font-size="10.00" fill="grey">controller_shared_lib_path</text>
</g>
<!-- Node3&#45;&gt;Node2 -->
<g id="edge2_Node000002_Node000003" class="edge">
<title>Node3&#45;&gt;Node2</title>
<g id="a_edge2_Node000002_Node000003"><a xlink:title=" ">
<path fill="none" stroke="#9a32cd" stroke-dasharray="5,2" d="M279.6,-167.83C293.7,-161.54 311.36,-154.8 328,-151.63 389.28,-139.98 460.56,-143.68 511.11,-149.13"/>
<polygon fill="#9a32cd" stroke="#9a32cd" points="278.06,-164.69 270.46,-172.07 281,-171.04 278.06,-164.69"/>
</a>
</g>
<text text-anchor="start" x="359" y="-187.13" font-family="Helvetica,sans-Serif" font-size="10.00" fill="grey">checkpoint_file</text>
<text text-anchor="start" x="359" y="-172.13" font-family="Helvetica,sans-Serif" font-size="10.00" fill="grey">input_file</text>
<text text-anchor="start" x="359" y="-157.13" font-family="Helvetica,sans-Serif" font-size="10.00" fill="grey">tlabel</text>
</g>
<!-- Node4 -->
<g id="Node000004" class="node">
<title>Node4</title>
<g id="a_Node000004"><a xlink:title=" ">
<polygon fill="white" stroke="#666666" points="104,-196.63 0,-196.63 0,-166.63 104,-166.63 104,-196.63"/>
<text text-anchor="start" x="8" y="-184.63" font-family="Helvetica,sans-Serif" font-size="10.00">std::basic_string&lt;</text>
<text text-anchor="middle" x="52" y="-173.63" font-family="Helvetica,sans-Serif" font-size="10.00"> Char &gt;</text>
</a>
</g>
</g>
<!-- Node4&#45;&gt;Node3 -->
<g id="edge3_Node000003_Node000004" class="edge">
<title>Node4&#45;&gt;Node3</title>
<g id="a_edge3_Node000003_Node000004"><a xlink:title=" ">
<path fill="none" stroke="#63b8ff" d="M114.68,-181.63C149.1,-181.63 190.53,-181.63 218.4,-181.63"/>
<polygon fill="#63b8ff" stroke="#63b8ff" points="114.25,-178.13 104.25,-181.63 114.25,-185.13 114.25,-178.13"/>
</a>
</g>
</g>
<!-- Node5 -->
<g id="Node000005" class="node">
<title>Node5</title>
<g id="a_Node000005"><a xlink:title=" ">
<polygon fill="white" stroke="#666666" points="674,-124.63 482,-124.63 482,-94.63 674,-94.63 674,-124.63"/>
<text text-anchor="start" x="490" y="-112.63" font-family="Helvetica,sans-Serif" font-size="10.00">std::unique_ptr&lt; kynema</text>
<text text-anchor="middle" x="578" y="-101.63" font-family="Helvetica,sans-Serif" font-size="10.00">_fmb::interfaces::TurbineInterface &gt;</text>
</a>
</g>
</g>
<!-- Node5&#45;&gt;Node1 -->
<g id="edge4_Node000001_Node000005" class="edge">
<title>Node5&#45;&gt;Node1</title>
<g id="a_edge4_Node000001_Node000005"><a xlink:title=" ">
<path fill="none" stroke="#9a32cd" stroke-dasharray="5,2" d="M684.48,-124.81C704.6,-127.9 725.47,-131.25 745,-134.63 761.4,-137.47 779.3,-140.89 795.21,-144.04"/>
<polygon fill="#9a32cd" stroke="#9a32cd" points="684.77,-121.31 674.36,-123.26 683.72,-128.23 684.77,-121.31"/>
</a>
</g>
<text text-anchor="start" x="696.5" y="-140.13" font-family="Helvetica,sans-Serif" font-size="10.00" fill="grey">interface</text>
</g>
<!-- Node6 -->
<g id="Node000006" class="node">
<title>Node6</title>
<g id="a_Node000006"><a xlink:title=" ">
<polygon fill="white" stroke="#666666" points="310,-104.13 192,-104.13 192,-85.13 310,-85.13 310,-104.13"/>
<text text-anchor="middle" x="251" y="-92.13" font-family="Helvetica,sans-Serif" font-size="10.00">std::unique_ptr&lt; T &gt;</text>
</a>
</g>
</g>
<!-- Node6&#45;&gt;Node5 -->
<g id="edge5_Node000005_Node000006" class="edge">
<title>Node6&#45;&gt;Node5</title>
<g id="a_edge5_Node000005_Node000006"><a xlink:title=" ">
<path fill="none" stroke="orange" stroke-dasharray="5,2" d="M320.12,-93.46C361.72,-93.2 415.98,-93.65 464,-96.63 469.81,-96.99 475.79,-97.45 481.81,-97.96"/>
<polygon fill="orange" stroke="orange" points="320.07,-89.96 310.1,-93.54 320.12,-96.96 320.07,-89.96"/>
</a>
</g>
<text text-anchor="start" x="331" y="-117.63" font-family="Helvetica,sans-Serif" font-size="10.00" fill="grey">&lt; kynema_fmb::interfaces</text>
<text text-anchor="start" x="331" y="-102.63" font-family="Helvetica,sans-Serif" font-size="10.00" fill="grey">  ::TurbineInterface &gt;</text>
</g>
<!-- Node7 -->
<g id="Node000007" class="node">
<title>Node7</title>
<g id="a_Node000007"><a xlink:title=" ">
<polygon fill="white" stroke="#666666" points="66.5,-74.13 37.5,-74.13 37.5,-55.13 66.5,-55.13 66.5,-74.13"/>
<text text-anchor="middle" x="52" y="-62.13" font-family="Helvetica,sans-Serif" font-size="10.00">T</text>
</a>
</g>
</g>
<!-- Node7&#45;&gt;Node6 -->
<g id="edge6_Node000006_Node000007" class="edge">
<title>Node7&#45;&gt;Node6</title>
<g id="a_edge6_Node000006_Node000007"><a xlink:title=" ">
<path fill="none" stroke="#9a32cd" stroke-dasharray="5,2" d="M76.7,-68.24C105.05,-72.56 153.52,-79.94 192,-85.8"/>
<polygon fill="#9a32cd" stroke="#9a32cd" points="76.95,-64.74 66.54,-66.7 75.9,-71.66 76.95,-64.74"/>
</a>
</g>
<text text-anchor="start" x="141" y="-87.13" font-family="Helvetica,sans-Serif" font-size="10.00" fill="grey">ptr</text>
</g>
<!-- Node9 -->
<g id="Node000009" class="node">
<title>Node9</title>
<g id="a_Node000009"><a xlink:title=" ">
<polygon fill="white" stroke="#666666" points="299.5,-49.13 202.5,-49.13 202.5,-30.13 299.5,-30.13 299.5,-49.13"/>
<text text-anchor="middle" x="251" y="-37.13" font-family="Helvetica,sans-Serif" font-size="10.00">std::vector&lt; T &gt;</text>
</a>
</g>
</g>
<!-- Node7&#45;&gt;Node9 -->
<g id="edge10_Node000009_Node000007" class="edge">
<title>Node7&#45;&gt;Node9</title>
<g id="a_edge10_Node000009_Node000007"><a xlink:title=" ">
<path fill="none" stroke="#9a32cd" stroke-dasharray="5,2" d="M76.31,-57.31C89.56,-53.46 106.56,-49.05 122,-46.63 148.39,-42.51 178.16,-40.72 202.35,-39.97"/>
<polygon fill="#9a32cd" stroke="#9a32cd" points="75.15,-54 66.58,-60.23 77.16,-60.71 75.15,-54"/>
</a>
</g>
<text text-anchor="start" x="125" y="-52.13" font-family="Helvetica,sans-Serif" font-size="10.00" fill="grey">elements</text>
</g>
<!-- Node8 -->
<g id="Node000008" class="node">
<title>Node8</title>
<g id="a_Node000008"><a xlink:title=" ">
<polygon fill="white" stroke="#666666" points="634.5,-27.13 521.5,-27.13 521.5,-8.13 634.5,-8.13 634.5,-27.13"/>
<text text-anchor="middle" x="578" y="-15.13" font-family="Helvetica,sans-Serif" font-size="10.00">std::vector&lt; float &gt;</text>
</a>
</g>
</g>
<!-- Node8&#45;&gt;Node1 -->
<g id="edge8_Node000001_Node000008" class="edge">
<title>Node8&#45;&gt;Node1</title>
<g id="a_edge8_Node000001_Node000008"><a xlink:title=" ">
<path fill="none" stroke="#9a32cd" stroke-dasharray="5,2" d="M622.26,-6C657.37,0.99 707.09,5.14 745,-14.63 799.27,-42.94 829.39,-117.01 838.77,-143.79"/>
<polygon fill="#9a32cd" stroke="#9a32cd" points="621.36,-2.61 612.31,-8.13 622.82,-9.46 621.36,-2.61"/>
</a>
</g>
<text text-anchor="start" x="695.5" y="-110.13" font-family="Helvetica,sans-Serif" font-size="10.00" fill="grey">buffer_cf</text>
<text text-anchor="start" x="695.5" y="-95.13" font-family="Helvetica,sans-Serif" font-size="10.00" fill="grey">buffer_f</text>
<text text-anchor="start" x="695.5" y="-80.13" font-family="Helvetica,sans-Serif" font-size="10.00" fill="grey">buffer_fv</text>
<text text-anchor="start" x="695.5" y="-65.13" font-family="Helvetica,sans-Serif" font-size="10.00" fill="grey">buffer_ori</text>
<text text-anchor="start" x="695.5" y="-50.13" font-family="Helvetica,sans-Serif" font-size="10.00" fill="grey">buffer_pf</text>
<text text-anchor="start" x="695.5" y="-35.13" font-family="Helvetica,sans-Serif" font-size="10.00" fill="grey">buffer_pv</text>
<text text-anchor="start" x="695.5" y="-20.13" font-family="Helvetica,sans-Serif" font-size="10.00" fill="grey">buffer_sv</text>
</g>
<!-- Node9&#45;&gt;Node8 -->
<g id="edge9_Node000008_Node000009" class="edge">
<title>Node9&#45;&gt;Node8</title>
<g id="a_edge9_Node000008_Node000009"><a xlink:title=" ">
<path fill="none" stroke="orange" stroke-dasharray="5,2" d="M309.64,-35.73C369.44,-31.68 462.31,-25.4 521.36,-21.4"/>
<polygon fill="orange" stroke="orange" points="309.35,-32.24 299.61,-36.41 309.82,-39.23 309.35,-32.24"/>
</a>
</g>
<text text-anchor="start" x="374" y="-40.13" font-family="Helvetica,sans-Serif" font-size="10.00" fill="grey">&lt; float &gt;</text>
</g>
</g>
</svg>
