<?xml version="1.0" encoding="UTF-8" standalone="no"?>
<!DOCTYPE svg PUBLIC "-//W3C//DTD SVG 1.1//EN"
 "http://www.w3.org/Graphics/SVG/1.1/DTD/svg11.dtd">
<!-- Generated by graphviz version 2.43.0 (0)
 -->
<!-- Title: kynema_sgf::pde::AdvectionOp&lt; VOF, fvm::Godunov &gt; Pages: 1 -->
<!--zoomable 388 -->

<svg id="main" version="1.1" xmlns="http://www.w3.org/2000/svg" xmlns:xlink="http://www.w3.org/1999/xlink" xml:space="preserve" onload="init(evt)">

<style type="text/css"><![CDATA[
.node, .edge {opacity: 0.7;}
.node.selected, .edge.selected {opacity: 1;}
.edge:hover path { stroke: red; }
.edge:hover polygon { stroke: red; fill: red; }
]]></style>

<defs>
  <circle id="rim" cx="0" cy="0" r="7"/>
  <circle id="rim2" cx="0" cy="0" r="3.5"/>
  <g id="zoomPlus">
    <use xlink:href="#rim" fill="#404040"><set attributeName="fill" to="#808080" begin="zoomplus.mouseover" end="zoomplus.mouseout"/></use>
    <path d="M-4,0h8M0,-4v8" fill="none" stroke="white" stroke-width="1.5" pointer-events="none"/>
  </g>
  <g id="zoomMin">
    <use xlink:href="#rim" fill="#404040"><set attributeName="fill" to="#808080" begin="zoomminus.mouseover" end="zoomminus.mouseout"/></use>
    <path d="M-4,0h8" fill="none" stroke="white" stroke-width="1.5" pointer-events="none"/>
  </g>
  <g id="arrowUp" transform="translate(30 24)">
    <use xlink:href="#rim"/>
    <path pointer-events="none" fill="none" stroke="white" stroke-width="1.5" d="M0,-3.0v7 M-2.5,-0.5L0,-3.0L2.5,-0.5"/>
  </g>
  <g id="arrowRight" transform="rotate(90) translate(36 -43)">
    <use xlink:href="#rim"/>
    <path pointer-events="none" fill="none" stroke="white" stroke-width="1.5" d="M0,-3.0v7 M-2.5,-0.5L0,-3.0L2.5,-0.5"/>
  </g>
  <g id="arrowDown" transform="rotate(180) translate(-30 -48)">
    <use xlink:href="#rim"/>
    <path pointer-events="none" fill="none" stroke="white" stroke-width="1.5" d="M0,-3.0v7 M-2.5,-0.5L0,-3.0L2.5,-0.5"/>
  </g>
  <g id="arrowLeft" transform="rotate(270) translate(-36 17)">
    <use xlink:href="#rim"/>
    <path pointer-events="none" fill="none" stroke="white" stroke-width="1.5" d="M0,-3.0v7 M-2.5,-0.5L0,-3.0L2.5,-0.5"/>
  </g>
  <g id="resetDef">
    <use xlink:href="#rim2" fill="#404040"><set attributeName="fill" to="#808080" begin="reset.mouseover" end="reset.mouseout"/></use>
  </g>
</defs>
<script type="application/ecmascript">
var viewWidth = 2037;
var viewHeight = 388;
var sectionId = 'dynsection-1';
</script>
<script type="application/ecmascript" xlink:href="svg.min.js"/>
<svg id="graph" class="graph">
<g id="viewport">
<title>kynema_sgf::pde::AdvectionOp&lt; VOF, fvm::Godunov &gt;</title>
<!-- Node1 -->
<g id="Node000001" class="node">
<title>Node1</title>
<g id="a_Node000001"><a xlink:title=" ">
<polygon fill="#999999" stroke="#666666" points="2029,-213.31 1875,-213.31 1875,-183.31 2029,-183.31 2029,-213.31"/>
<text text-anchor="start" x="1883" y="-201.31" font-family="Helvetica,sans-Serif" font-size="10.00">kynema_sgf::pde::Advection</text>
<text text-anchor="middle" x="1952" y="-190.31" font-family="Helvetica,sans-Serif" font-size="10.00">Op&lt; VOF, fvm::Godunov &gt;</text>
</a>
</g>
</g>
<!-- Node2 -->
<g id="Node000002" class="node">
<title>Node2</title>
<g id="a_Node000002"><a xlink:href="classkynema__sgf_1_1_sim_time.html" target="_top" xlink:title=" ">
<polygon fill="white" stroke="#666666" points="1057,-371.81 932,-371.81 932,-352.81 1057,-352.81 1057,-371.81"/>
<text text-anchor="middle" x="994.5" y="-359.81" font-family="Helvetica,sans-Serif" font-size="10.00">kynema_sgf::SimTime</text>
</a>
</g>
</g>
<!-- Node2&#45;&gt;Node1 -->
<g id="edge1_Node000001_Node000002" class="edge">
<title>Node2&#45;&gt;Node1</title>
<g id="a_edge1_Node000001_Node000002"><a xlink:title=" ">
<path fill="none" stroke="#9a32cd" stroke-dasharray="5,2" d="M1067.39,-362.72C1122.22,-362.99 1199.62,-363.31 1267.5,-363.31 1267.5,-363.31 1267.5,-363.31 1629.5,-363.31 1733.96,-363.31 1767.92,-358.87 1857,-304.31 1895.38,-280.8 1926.93,-236.73 1941.79,-213.52"/>
<polygon fill="#9a32cd" stroke="#9a32cd" points="1067.09,-359.22 1057.08,-362.66 1067.06,-366.22 1067.09,-359.22"/>
</a>
</g>
<text text-anchor="start" x="1359" y="-368.81" font-family="Helvetica,sans-Serif" font-size="10.00" fill="grey">m_time</text>
</g>
<!-- Node3 -->
<g id="Node000003" class="node">
<title>Node3</title>
<g id="a_Node000003"><a xlink:title=" ">
<polygon fill="white" stroke="#666666" points="580,-353.81 468,-353.81 468,-334.81 580,-334.81 580,-353.81"/>
<text text-anchor="middle" x="524" y="-341.81" font-family="Helvetica,sans-Serif" font-size="10.00">std::vector&lt; bool &gt;</text>
</a>
</g>
</g>
<!-- Node3&#45;&gt;Node2 -->
<g id="edge2_Node000002_Node000003" class="edge">
<title>Node3&#45;&gt;Node2</title>
<g id="a_edge2_Node000002_Node000003"><a xlink:title=" ">
<path fill="none" stroke="#9a32cd" stroke-dasharray="5,2" d="M590.26,-346.82C680.81,-350.29 843.37,-356.54 931.92,-359.94"/>
<polygon fill="#9a32cd" stroke="#9a32cd" points="590.25,-343.31 580.12,-346.43 589.98,-350.31 590.25,-343.31"/>
</a>
</g>
<text text-anchor="start" x="625.5" y="-357.81" font-family="Helvetica,sans-Serif" font-size="10.00" fill="grey">m_postprocess_enforce_dt</text>
</g>
<!-- Node4 -->
<g id="Node000004" class="node">
<title>Node4</title>
<g id="a_Node000004"><a xlink:title=" ">
<polygon fill="white" stroke="#666666" points="238,-351.81 141,-351.81 141,-332.81 238,-332.81 238,-351.81"/>
<text text-anchor="middle" x="189.5" y="-339.81" font-family="Helvetica,sans-Serif" font-size="10.00">std::vector&lt; T &gt;</text>
</a>
</g>
</g>
<!-- Node4&#45;&gt;Node3 -->
<g id="edge3_Node000003_Node000004" class="edge">
<title>Node4&#45;&gt;Node3</title>
<g id="a_edge3_Node000003_Node000004"><a xlink:title=" ">
<path fill="none" stroke="orange" stroke-dasharray="5,2" d="M248.49,-342.66C310.28,-343.03 407.35,-343.61 467.98,-343.98"/>
<polygon fill="orange" stroke="orange" points="248.16,-339.16 238.14,-342.6 248.12,-346.16 248.16,-339.16"/>
</a>
</g>
<text text-anchor="start" x="331" y="-348.81" font-family="Helvetica,sans-Serif" font-size="10.00" fill="grey">&lt; bool &gt;</text>
</g>
<!-- Node5 -->
<g id="Node000005" class="node">
<title>Node5</title>
<g id="a_Node000005"><a xlink:title=" ">
<polygon fill="white" stroke="#666666" points="29,-241.81 0,-241.81 0,-222.81 29,-222.81 29,-241.81"/>
<text text-anchor="middle" x="14.5" y="-229.81" font-family="Helvetica,sans-Serif" font-size="10.00">T</text>
</a>
</g>
</g>
<!-- Node5&#45;&gt;Node4 -->
<g id="edge4_Node000004_Node000005" class="edge">
<title>Node5&#45;&gt;Node4</title>
<g id="a_edge4_Node000004_Node000005"><a xlink:title=" ">
<path fill="none" stroke="#9a32cd" stroke-dasharray="5,2" d="M18.54,-252.01C22.25,-269.35 30.25,-294 47,-308.31 72.94,-330.46 110.87,-338.7 140.93,-341.55"/>
<polygon fill="#9a32cd" stroke="#9a32cd" points="21.92,-251.06 16.66,-241.86 15.03,-252.32 21.92,-251.06"/>
</a>
</g>
<text text-anchor="start" x="50" y="-337.81" font-family="Helvetica,sans-Serif" font-size="10.00" fill="grey">elements</text>
</g>
<!-- Node11 -->
<g id="Node000011" class="node">
<title>Node11</title>
<g id="a_Node000011"><a xlink:title=" ">
<polygon fill="white" stroke="#666666" points="581,-293.31 467,-293.31 467,-263.31 581,-263.31 581,-293.31"/>
<text text-anchor="start" x="475" y="-281.31" font-family="Helvetica,sans-Serif" font-size="10.00">std::unordered_map</text>
<text text-anchor="middle" x="524" y="-270.31" font-family="Helvetica,sans-Serif" font-size="10.00">&lt; K, T &gt;</text>
</a>
</g>
</g>
<!-- Node5&#45;&gt;Node11 -->
<g id="edge12_Node000011_Node000005" class="edge">
<title>Node5&#45;&gt;Node11</title>
<g id="a_edge12_Node000011_Node000005"><a xlink:title=" ">
<path fill="none" stroke="#9a32cd" stroke-dasharray="5,2" d="M38.65,-242.17C58.92,-250.35 89.37,-261.54 117,-267.31 239.69,-292.92 387.74,-288.27 466.78,-283.03"/>
<polygon fill="#9a32cd" stroke="#9a32cd" points="39.88,-238.9 29.31,-238.32 37.22,-245.37 39.88,-238.9"/>
</a>
</g>
<text text-anchor="start" x="166.5" y="-289.81" font-family="Helvetica,sans-Serif" font-size="10.00" fill="grey">elements</text>
</g>
<!-- Node18 -->
<g id="Node000018" class="node">
<title>Node18</title>
<g id="a_Node000018"><a xlink:title=" ">
<polygon fill="white" stroke="#666666" points="248.5,-114.81 130.5,-114.81 130.5,-95.81 248.5,-95.81 248.5,-114.81"/>
<text text-anchor="middle" x="189.5" y="-102.81" font-family="Helvetica,sans-Serif" font-size="10.00">std::unique_ptr&lt; T &gt;</text>
</a>
</g>
</g>
<!-- Node5&#45;&gt;Node18 -->
<g id="edge22_Node000018_Node000005" class="edge">
<title>Node5&#45;&gt;Node18</title>
<g id="a_edge22_Node000018_Node000005"><a xlink:title=" ">
<path fill="none" stroke="#9a32cd" stroke-dasharray="5,2" d="M29.58,-214.8C47.78,-193.13 81.39,-156.29 117,-133.31 128.99,-125.57 143.44,-119.41 156.21,-114.86"/>
<polygon fill="#9a32cd" stroke="#9a32cd" points="26.84,-212.62 23.17,-222.56 32.24,-217.07 26.84,-212.62"/>
</a>
</g>
<text text-anchor="start" x="66" y="-198.81" font-family="Helvetica,sans-Serif" font-size="10.00" fill="grey">ptr</text>
</g>
<!-- Node19 -->
<g id="Node000019" class="node">
<title>Node19</title>
<g id="a_Node000019"><a xlink:title=" ">
<polygon fill="white" stroke="#666666" points="412,-50.81 294,-50.81 294,-31.81 412,-31.81 412,-50.81"/>
<text text-anchor="middle" x="353" y="-38.81" font-family="Helvetica,sans-Serif" font-size="10.00">std::shared_ptr&lt; T &gt;</text>
</a>
</g>
</g>
<!-- Node5&#45;&gt;Node19 -->
<g id="edge24_Node000019_Node000005" class="edge">
<title>Node5&#45;&gt;Node19</title>
<g id="a_edge24_Node000019_Node000005"><a xlink:title=" ">
<path fill="none" stroke="#9a32cd" stroke-dasharray="5,2" d="M16.98,-212.52C19.61,-189.57 26.9,-151.66 47,-126.31 105.65,-52.32 222.88,-39.35 293.7,-38.83"/>
<polygon fill="#9a32cd" stroke="#9a32cd" points="13.47,-212.45 16,-222.74 20.44,-213.11 13.47,-212.45"/>
</a>
</g>
<text text-anchor="start" x="66" y="-131.81" font-family="Helvetica,sans-Serif" font-size="10.00" fill="grey">ptr</text>
</g>
<!-- Node6 -->
<g id="Node000006" class="node">
<title>Node6</title>
<g id="a_Node000006"><a xlink:href="structkynema__sgf_1_1pde_1_1_p_d_e_fields.html" target="_top" xlink:title=" ">
<polygon fill="white" stroke="#666666" points="1705,-292.81 1552,-292.81 1552,-273.81 1705,-273.81 1705,-292.81"/>
<text text-anchor="middle" x="1628.5" y="-280.81" font-family="Helvetica,sans-Serif" font-size="10.00">kynema_sgf::pde::PDEFields</text>
</a>
</g>
</g>
<!-- Node6&#45;&gt;Node1 -->
<g id="edge5_Node000001_Node000006" class="edge">
<title>Node6&#45;&gt;Node1</title>
<g id="a_edge5_Node000001_Node000006"><a xlink:title=" ">
<path fill="none" stroke="#9a32cd" stroke-dasharray="5,2" d="M1715.03,-284.89C1758.64,-283.26 1811.85,-277.45 1857,-261.31 1886.78,-250.66 1916.28,-228.49 1934.08,-213.5"/>
<polygon fill="#9a32cd" stroke="#9a32cd" points="1714.91,-281.39 1705.02,-285.2 1715.13,-288.39 1714.91,-281.39"/>
</a>
</g>
<text text-anchor="start" x="1782" y="-288.81" font-family="Helvetica,sans-Serif" font-size="10.00" fill="grey">fields</text>
</g>
<!-- Node7 -->
<g id="Node000007" class="node">
<title>Node7</title>
<g id="a_Node000007"><a xlink:href="classkynema__sgf_1_1_field_repo.html" target="_top" xlink:title=" ">
<polygon fill="white" stroke="#666666" points="1223.5,-287.81 1094.5,-287.81 1094.5,-268.81 1223.5,-268.81 1223.5,-287.81"/>
<text text-anchor="middle" x="1159" y="-275.81" font-family="Helvetica,sans-Serif" font-size="10.00">kynema_sgf::FieldRepo</text>
</a>
</g>
</g>
<!-- Node7&#45;&gt;Node6 -->
<g id="edge6_Node000006_Node000007" class="edge">
<title>Node7&#45;&gt;Node6</title>
<g id="a_edge6_Node000006_Node000007"><a xlink:title=" ">
<path fill="none" stroke="#9a32cd" stroke-dasharray="5,2" d="M1216.68,-289.52C1226.74,-291.1 1237.15,-292.47 1247,-293.31 1352.51,-302.34 1475.02,-296.14 1551.91,-290.25"/>
<polygon fill="#9a32cd" stroke="#9a32cd" points="1217.2,-286.06 1206.77,-287.88 1216.06,-292.96 1217.2,-286.06"/>
</a>
</g>
<text text-anchor="start" x="1367" y="-302.81" font-family="Helvetica,sans-Serif" font-size="10.00" fill="grey">repo</text>
</g>
<!-- Node13 -->
<g id="Node000013" class="node">
<title>Node13</title>
<g id="a_Node000013"><a xlink:href="classkynema__sgf_1_1_field.html" target="_top" xlink:title=" ">
<polygon fill="white" stroke="#666666" points="1430,-174.81 1326,-174.81 1326,-155.81 1430,-155.81 1430,-174.81"/>
<text text-anchor="middle" x="1378" y="-162.81" font-family="Helvetica,sans-Serif" font-size="10.00">kynema_sgf::Field</text>
</a>
</g>
</g>
<!-- Node7&#45;&gt;Node13 -->
<g id="edge14_Node000013_Node000007" class="edge">
<title>Node7&#45;&gt;Node13</title>
<g id="a_edge14_Node000013_Node000007"><a xlink:title=" ">
<path fill="none" stroke="#9a32cd" stroke-dasharray="5,2" d="M1187.39,-264.05C1232.27,-240.67 1320.31,-194.83 1358.55,-174.92"/>
<polygon fill="#9a32cd" stroke="#9a32cd" points="1185.75,-260.95 1178.5,-268.67 1188.99,-267.16 1185.75,-260.95"/>
</a>
</g>
<text text-anchor="start" x="1250.5" y="-237.81" font-family="Helvetica,sans-Serif" font-size="10.00" fill="grey">m_repo</text>
</g>
<!-- Node21 -->
<g id="Node000021" class="node">
<title>Node21</title>
<g id="a_Node000021"><a xlink:href="classkynema__sgf_1_1_scratch_field.html" target="_top" xlink:title=" ">
<polygon fill="white" stroke="#666666" points="1448,-273.81 1308,-273.81 1308,-254.81 1448,-254.81 1448,-273.81"/>
<text text-anchor="middle" x="1378" y="-261.81" font-family="Helvetica,sans-Serif" font-size="10.00">kynema_sgf::ScratchField</text>
</a>
</g>
</g>
<!-- Node7&#45;&gt;Node21 -->
<g id="edge28_Node000021_Node000007" class="edge">
<title>Node7&#45;&gt;Node21</title>
<g id="a_edge28_Node000021_Node000007"><a xlink:title=" ">
<path fill="none" stroke="#9a32cd" stroke-dasharray="5,2" d="M1233.72,-273.55C1257.64,-272.01 1284.08,-270.3 1307.67,-268.78"/>
<polygon fill="#9a32cd" stroke="#9a32cd" points="1233.39,-270.07 1223.64,-274.2 1233.85,-277.05 1233.39,-270.07"/>
</a>
</g>
<text text-anchor="start" x="1250.5" y="-277.81" font-family="Helvetica,sans-Serif" font-size="10.00" fill="grey">m_repo</text>
</g>
<!-- Node8 -->
<g id="Node000008" class="node">
<title>Node8</title>
<g id="a_Node000008"><a xlink:title=" ">
<polygon fill="white" stroke="#666666" points="899.5,-293.31 777.5,-293.31 777.5,-263.31 899.5,-263.31 899.5,-293.31"/>
<text text-anchor="start" x="785.5" y="-281.31" font-family="Helvetica,sans-Serif" font-size="10.00">std::unordered_map</text>
<text text-anchor="middle" x="838.5" y="-270.31" font-family="Helvetica,sans-Serif" font-size="10.00">&lt; std::string, size_t &gt;</text>
</a>
</g>
</g>
<!-- Node8&#45;&gt;Node7 -->
<g id="edge7_Node000007_Node000008" class="edge">
<title>Node8&#45;&gt;Node7</title>
<g id="a_edge7_Node000007_Node000008"><a xlink:title=" ">
<path fill="none" stroke="#9a32cd" stroke-dasharray="5,2" d="M909.83,-278.31C964.98,-278.31 1041.08,-278.31 1094.42,-278.31"/>
<polygon fill="#9a32cd" stroke="#9a32cd" points="909.78,-274.81 899.78,-278.31 909.78,-281.81 909.78,-274.81"/>
</a>
</g>
<text text-anchor="start" x="958.5" y="-299.31" font-family="Helvetica,sans-Serif" font-size="10.00" fill="grey">m_fid_map</text>
<text text-anchor="start" x="958.5" y="-284.31" font-family="Helvetica,sans-Serif" font-size="10.00" fill="grey">m_int_fid_map</text>
</g>
<!-- Node9 -->
<g id="Node000009" class="node">
<title>Node9</title>
<g id="a_Node000009"><a xlink:title=" ">
<polygon fill="white" stroke="#666666" points="556.5,-214.81 491.5,-214.81 491.5,-195.81 556.5,-195.81 556.5,-214.81"/>
<text text-anchor="middle" x="524" y="-202.81" font-family="Helvetica,sans-Serif" font-size="10.00">std::string</text>
</a>
</g>
</g>
<!-- Node9&#45;&gt;Node8 -->
<g id="edge8_Node000008_Node000009" class="edge">
<title>Node9&#45;&gt;Node8</title>
<g id="a_edge8_Node000008_Node000009"><a xlink:title=" ">
<path fill="none" stroke="#9a32cd" stroke-dasharray="5,2" d="M566.59,-213.99C613.48,-223.91 691.92,-240.89 759,-257.31 766.54,-259.15 774.46,-261.17 782.25,-263.21"/>
<polygon fill="#9a32cd" stroke="#9a32cd" points="567.02,-210.5 556.51,-211.86 565.58,-217.35 567.02,-210.5"/>
</a>
</g>
<text text-anchor="start" x="679.5" y="-262.81" font-family="Helvetica,sans-Serif" font-size="10.00" fill="grey">keys</text>
</g>
<!-- Node9&#45;&gt;Node13 -->
<g id="edge15_Node000013_Node000009" class="edge">
<title>Node9&#45;&gt;Node13</title>
<g id="a_edge15_Node000013_Node000009"><a xlink:title=" ">
<path fill="none" stroke="#9a32cd" stroke-dasharray="5,2" d="M567.03,-198.69C584.06,-196.15 603.94,-193.37 622,-191.31 753.17,-176.32 786.1,-172.01 918,-166.31 1065.88,-159.91 1240.81,-162.27 1325.69,-164.05"/>
<polygon fill="#9a32cd" stroke="#9a32cd" points="566.2,-195.28 556.83,-200.23 567.24,-202.2 566.2,-195.28"/>
</a>
</g>
<text text-anchor="start" x="973.5" y="-171.81" font-family="Helvetica,sans-Serif" font-size="10.00" fill="grey">m_name</text>
</g>
<!-- Node15 -->
<g id="Node000015" class="node">
<title>Node15</title>
<g id="a_Node000015"><a xlink:href="structkynema__sgf_1_1_field_info.html" target="_top" xlink:title=" ">
<polygon fill="white" stroke="#666666" points="900,-126.81 777,-126.81 777,-107.81 900,-107.81 900,-126.81"/>
<text text-anchor="middle" x="838.5" y="-114.81" font-family="Helvetica,sans-Serif" font-size="10.00">kynema_sgf::FieldInfo</text>
</a>
</g>
</g>
<!-- Node9&#45;&gt;Node15 -->
<g id="edge18_Node000015_Node000009" class="edge">
<title>Node9&#45;&gt;Node15</title>
<g id="a_edge18_Node000015_Node000009"><a xlink:title=" ">
<path fill="none" stroke="#9a32cd" stroke-dasharray="5,2" d="M545.1,-189.64C563.89,-175.86 593.29,-156.47 622,-146.31 649.71,-136.5 723.47,-127.89 776.99,-122.66"/>
<polygon fill="#9a32cd" stroke="#9a32cd" points="542.92,-186.9 537.02,-195.7 547.12,-192.5 542.92,-186.9"/>
</a>
</g>
<text text-anchor="start" x="657.5" y="-151.81" font-family="Helvetica,sans-Serif" font-size="10.00" fill="grey">m_basename</text>
</g>
<!-- Node9&#45;&gt;Node21 -->
<g id="edge29_Node000021_Node000009" class="edge">
<title>Node9&#45;&gt;Node21</title>
<g id="a_edge29_Node000021_Node000009"><a xlink:title=" ">
<path fill="none" stroke="#9a32cd" stroke-dasharray="5,2" d="M567.12,-203.57C706.48,-198.2 1151.63,-184.3 1290,-219.31 1317.86,-226.36 1346.85,-243.71 1363.34,-254.69"/>
<polygon fill="#9a32cd" stroke="#9a32cd" points="566.72,-200.08 556.86,-203.97 566.99,-207.08 566.72,-200.08"/>
</a>
</g>
<text text-anchor="start" x="973.5" y="-204.81" font-family="Helvetica,sans-Serif" font-size="10.00" fill="grey">m_name</text>
</g>
<!-- Node10 -->
<g id="Node000010" class="node">
<title>Node10</title>
<g id="a_Node000010"><a xlink:title=" ">
<polygon fill="white" stroke="#666666" points="241.5,-220.31 137.5,-220.31 137.5,-190.31 241.5,-190.31 241.5,-220.31"/>
<text text-anchor="start" x="145.5" y="-208.31" font-family="Helvetica,sans-Serif" font-size="10.00">std::basic_string&lt;</text>
<text text-anchor="middle" x="189.5" y="-197.31" font-family="Helvetica,sans-Serif" font-size="10.00"> Char &gt;</text>
</a>
</g>
</g>
<!-- Node10&#45;&gt;Node9 -->
<g id="edge9_Node000009_Node000010" class="edge">
<title>Node10&#45;&gt;Node9</title>
<g id="a_edge9_Node000009_Node000010"><a xlink:title=" ">
<path fill="none" stroke="#63b8ff" d="M251.85,-205.31C322.64,-205.31 436.34,-205.31 491.27,-205.31"/>
<polygon fill="#63b8ff" stroke="#63b8ff" points="251.72,-201.81 241.72,-205.31 251.72,-208.81 251.72,-201.81"/>
</a>
</g>
</g>
<!-- Node11&#45;&gt;Node8 -->
<g id="edge10_Node000008_Node000011" class="edge">
<title>Node11&#45;&gt;Node8</title>
<g id="a_edge10_Node000008_Node000011"><a xlink:title=" ">
<path fill="none" stroke="orange" stroke-dasharray="5,2" d="M591.25,-278.31C646.36,-278.31 724.15,-278.31 777.46,-278.31"/>
<polygon fill="orange" stroke="orange" points="591.23,-274.81 581.23,-278.31 591.23,-281.81 591.23,-274.81"/>
</a>
</g>
<text text-anchor="start" x="637.5" y="-283.81" font-family="Helvetica,sans-Serif" font-size="10.00" fill="grey">&lt; std::string, size_t &gt;</text>
</g>
<!-- Node12 -->
<g id="Node000012" class="node">
<title>Node12</title>
<g id="a_Node000012"><a xlink:title=" ">
<polygon fill="white" stroke="#666666" points="204,-257.81 175,-257.81 175,-238.81 204,-238.81 204,-257.81"/>
<text text-anchor="middle" x="189.5" y="-245.81" font-family="Helvetica,sans-Serif" font-size="10.00">K</text>
</a>
</g>
</g>
<!-- Node12&#45;&gt;Node11 -->
<g id="edge11_Node000011_Node000012" class="edge">
<title>Node12&#45;&gt;Node11</title>
<g id="a_edge11_Node000011_Node000012"><a xlink:title=" ">
<path fill="none" stroke="#9a32cd" stroke-dasharray="5,2" d="M214.25,-249.12C256.8,-250.72 348.8,-254.9 426,-263.31 439.3,-264.76 453.56,-266.73 466.95,-268.76"/>
<polygon fill="#9a32cd" stroke="#9a32cd" points="214.2,-245.61 204.08,-248.75 213.94,-252.61 214.2,-245.61"/>
</a>
</g>
<text text-anchor="start" x="342" y="-268.81" font-family="Helvetica,sans-Serif" font-size="10.00" fill="grey">keys</text>
</g>
<!-- Node13&#45;&gt;Node1 -->
<g id="edge25_Node000001_Node000013" class="edge">
<title>Node13&#45;&gt;Node1</title>
<g id="a_edge25_Node000001_Node000013"><a xlink:title=" ">
<path fill="none" stroke="#9a32cd" stroke-dasharray="5,2" d="M1440.43,-156.28C1449,-155.18 1457.71,-154.15 1466,-153.31 1499.68,-149.88 1508.17,-149.42 1542,-148.31 1618.85,-145.78 1638.53,-140.3 1715,-148.31 1777.9,-154.9 1848.7,-171.11 1896.21,-183.3"/>
<polygon fill="#9a32cd" stroke="#9a32cd" points="1439.91,-152.82 1430.45,-157.59 1440.82,-159.76 1439.91,-152.82"/>
</a>
</g>
<text text-anchor="start" x="1611.5" y="-183.81" font-family="Helvetica,sans-Serif" font-size="10.00" fill="grey">u_mac</text>
<text text-anchor="start" x="1611.5" y="-168.81" font-family="Helvetica,sans-Serif" font-size="10.00" fill="grey">v_mac</text>
<text text-anchor="start" x="1611.5" y="-153.81" font-family="Helvetica,sans-Serif" font-size="10.00" fill="grey">w_mac</text>
</g>
<!-- Node13&#45;&gt;Node6 -->
<g id="edge13_Node000006_Node000013" class="edge">
<title>Node13&#45;&gt;Node6</title>
<g id="a_edge13_Node000006_Node000013"><a xlink:title=" ">
<path fill="none" stroke="#9a32cd" stroke-dasharray="5,2" d="M1422.13,-153.78C1453.76,-148.08 1495.9,-146.59 1524,-169.31 1550.32,-190.59 1520.56,-217.12 1542,-243.31 1554.04,-258.02 1572.72,-267.61 1589.56,-273.7"/>
<polygon fill="#9a32cd" stroke="#9a32cd" points="1421.39,-150.36 1412.27,-155.75 1422.76,-157.22 1421.39,-150.36"/>
</a>
</g>
<text text-anchor="start" x="1469" y="-234.81" font-family="Helvetica,sans-Serif" font-size="10.00" fill="grey">conv_term</text>
<text text-anchor="start" x="1469" y="-219.81" font-family="Helvetica,sans-Serif" font-size="10.00" fill="grey">diff_term</text>
<text text-anchor="start" x="1469" y="-204.81" font-family="Helvetica,sans-Serif" font-size="10.00" fill="grey">field</text>
<text text-anchor="start" x="1469" y="-189.81" font-family="Helvetica,sans-Serif" font-size="10.00" fill="grey">mueff</text>
<text text-anchor="start" x="1469" y="-174.81" font-family="Helvetica,sans-Serif" font-size="10.00" fill="grey">src_term</text>
</g>
<!-- Node14 -->
<g id="Node000014" class="node">
<title>Node14</title>
<g id="a_Node000014"><a xlink:title=" ">
<polygon fill="white" stroke="#666666" points="1229,-132.31 1089,-132.31 1089,-102.31 1229,-102.31 1229,-132.31"/>
<text text-anchor="start" x="1097" y="-120.31" font-family="Helvetica,sans-Serif" font-size="10.00">std::shared_ptr&lt; kynema</text>
<text text-anchor="middle" x="1159" y="-109.31" font-family="Helvetica,sans-Serif" font-size="10.00">_sgf::FieldInfo &gt;</text>
</a>
</g>
</g>
<!-- Node14&#45;&gt;Node13 -->
<g id="edge16_Node000013_Node000014" class="edge">
<title>Node14&#45;&gt;Node13</title>
<g id="a_edge16_Node000013_Node000014"><a xlink:title=" ">
<path fill="none" stroke="#9a32cd" stroke-dasharray="5,2" d="M1239.64,-125C1256.39,-127.38 1273.87,-130.43 1290,-134.31 1312.45,-139.71 1337.17,-148.84 1354.5,-155.8"/>
<polygon fill="#9a32cd" stroke="#9a32cd" points="1239.69,-121.48 1229.32,-123.61 1238.76,-128.42 1239.69,-121.48"/>
</a>
</g>
<text text-anchor="start" x="1251.5" y="-139.81" font-family="Helvetica,sans-Serif" font-size="10.00" fill="grey">m_info</text>
</g>
<!-- Node15&#45;&gt;Node14 -->
<g id="edge17_Node000014_Node000015" class="edge">
<title>Node15&#45;&gt;Node14</title>
<g id="a_edge17_Node000014_Node000015"><a xlink:title=" ">
<path fill="none" stroke="#9a32cd" stroke-dasharray="5,2" d="M910.21,-117.31C963.48,-117.31 1036.14,-117.31 1088.99,-117.31"/>
<polygon fill="#9a32cd" stroke="#9a32cd" points="910.16,-113.81 900.16,-117.31 910.16,-120.81 910.16,-113.81"/>
</a>
</g>
<text text-anchor="start" x="987.5" y="-122.81" font-family="Helvetica,sans-Serif" font-size="10.00" fill="grey">ptr</text>
</g>
<!-- Node16 -->
<g id="Node000016" class="node">
<title>Node16</title>
<g id="a_Node000016"><a xlink:title=" ">
<polygon fill="white" stroke="#666666" points="604,-130.31 444,-130.31 444,-100.31 604,-100.31 604,-130.31"/>
<text text-anchor="start" x="452" y="-118.31" font-family="Helvetica,sans-Serif" font-size="10.00">std::unique_ptr&lt; kynema</text>
<text text-anchor="middle" x="524" y="-107.31" font-family="Helvetica,sans-Serif" font-size="10.00">_sgf::FieldFillPatchOpsBase &gt;</text>
</a>
</g>
</g>
<!-- Node16&#45;&gt;Node15 -->
<g id="edge19_Node000015_Node000016" class="edge">
<title>Node16&#45;&gt;Node15</title>
<g id="a_edge19_Node000015_Node000016"><a xlink:title=" ">
<path fill="none" stroke="#9a32cd" stroke-dasharray="5,2" d="M614.25,-106.71C616.86,-106.56 619.45,-106.43 622,-106.31 682.82,-103.49 698.26,-102.07 759,-106.31 764.77,-106.71 770.75,-107.28 776.73,-107.94"/>
<polygon fill="#9a32cd" stroke="#9a32cd" points="613.86,-103.23 604.1,-107.36 614.3,-110.22 613.86,-103.23"/>
</a>
</g>
<text text-anchor="start" x="654.5" y="-111.81" font-family="Helvetica,sans-Serif" font-size="10.00" fill="grey">m_fillpatch_op</text>
</g>
<!-- Node17 -->
<g id="Node000017" class="node">
<title>Node17</title>
<g id="a_Node000017"><a xlink:href="classkynema__sgf_1_1_field_fill_patch_ops_base.html" target="_top" xlink:title=" ">
<polygon fill="white" stroke="#666666" points="262,-172.31 117,-172.31 117,-142.31 262,-142.31 262,-172.31"/>
<text text-anchor="start" x="125" y="-160.31" font-family="Helvetica,sans-Serif" font-size="10.00">kynema_sgf::FieldFillPatch</text>
<text text-anchor="middle" x="189.5" y="-149.31" font-family="Helvetica,sans-Serif" font-size="10.00">OpsBase</text>
</a>
</g>
</g>
<!-- Node17&#45;&gt;Node16 -->
<g id="edge20_Node000016_Node000017" class="edge">
<title>Node17&#45;&gt;Node16</title>
<g id="a_edge20_Node000016_Node000017"><a xlink:title=" ">
<path fill="none" stroke="#9a32cd" stroke-dasharray="5,2" d="M272.3,-153.78C317.77,-151.05 375.24,-146.33 426,-138.31 439.08,-136.24 453,-133.36 466.1,-130.33"/>
<polygon fill="#9a32cd" stroke="#9a32cd" points="271.98,-150.29 262.2,-154.36 272.39,-157.28 271.98,-150.29"/>
</a>
</g>
<text text-anchor="start" x="346" y="-158.81" font-family="Helvetica,sans-Serif" font-size="10.00" fill="grey">ptr</text>
</g>
<!-- Node18&#45;&gt;Node16 -->
<g id="edge21_Node000016_Node000018" class="edge">
<title>Node18&#45;&gt;Node16</title>
<g id="a_edge21_Node000016_Node000018"><a xlink:title=" ">
<path fill="none" stroke="orange" stroke-dasharray="5,2" d="M258.68,-104.01C305.72,-103.5 369.69,-103.58 426,-106.31 431.83,-106.59 437.85,-106.96 443.9,-107.39"/>
<polygon fill="orange" stroke="orange" points="258.56,-100.51 248.61,-104.13 258.65,-107.51 258.56,-100.51"/>
</a>
</g>
<text text-anchor="start" x="283" y="-127.31" font-family="Helvetica,sans-Serif" font-size="10.00" fill="grey">&lt; kynema_sgf::FieldFillPatch</text>
<text text-anchor="start" x="283" y="-112.31" font-family="Helvetica,sans-Serif" font-size="10.00" fill="grey">  OpsBase &gt;</text>
</g>
<!-- Node20 -->
<g id="Node000020" class="node">
<title>Node20</title>
<g id="a_Node000020"><a xlink:title=" ">
<polygon fill="white" stroke="#666666" points="1698.5,-234.31 1558.5,-234.31 1558.5,-204.31 1698.5,-204.31 1698.5,-234.31"/>
<text text-anchor="start" x="1566.5" y="-222.31" font-family="Helvetica,sans-Serif" font-size="10.00">std::unique_ptr&lt; kynema</text>
<text text-anchor="middle" x="1628.5" y="-211.31" font-family="Helvetica,sans-Serif" font-size="10.00">_sgf::ScratchField &gt;</text>
</a>
</g>
</g>
<!-- Node18&#45;&gt;Node20 -->
<g id="edge30_Node000020_Node000018" class="edge">
<title>Node18&#45;&gt;Node20</title>
<g id="a_edge30_Node000020_Node000018"><a xlink:title=" ">
<path fill="none" stroke="orange" stroke-dasharray="5,2" d="M258.61,-94.57C325.68,-84.94 431.13,-72.31 523,-72.31 523,-72.31 523,-72.31 1379,-72.31 1451.55,-72.31 1476.52,-92.44 1524,-147.31 1540,-165.8 1523.84,-182.93 1542,-199.31 1546.76,-203.6 1552.25,-207.01 1558.12,-209.73"/>
<polygon fill="orange" stroke="orange" points="257.98,-91.13 248.59,-96.03 258.99,-98.05 257.98,-91.13"/>
</a>
</g>
<text text-anchor="start" x="921.5" y="-77.81" font-family="Helvetica,sans-Serif" font-size="10.00" fill="grey">&lt; kynema_sgf::ScratchField &gt;</text>
</g>
<!-- Node19&#45;&gt;Node14 -->
<g id="edge23_Node000014_Node000019" class="edge">
<title>Node19&#45;&gt;Node14</title>
<g id="a_edge23_Node000014_Node000019"><a xlink:title=" ">
<path fill="none" stroke="orange" stroke-dasharray="5,2" d="M410.73,-29.96C534.86,-7.68 838.05,32.76 1071,-50.31 1100.81,-60.94 1128.54,-85.95 1144.35,-102.23"/>
<polygon fill="orange" stroke="orange" points="409.9,-26.55 400.69,-31.79 411.16,-33.44 409.9,-26.55"/>
</a>
</g>
<text text-anchor="start" x="625.5" y="-9.81" font-family="Helvetica,sans-Serif" font-size="10.00" fill="grey">&lt; kynema_sgf::FieldInfo &gt;</text>
</g>
<!-- Node20&#45;&gt;Node1 -->
<g id="edge26_Node000001_Node000020" class="edge">
<title>Node20&#45;&gt;Node1</title>
<g id="a_edge26_Node000001_Node000020"><a xlink:title=" ">
<path fill="none" stroke="#9a32cd" stroke-dasharray="5,2" d="M1707.67,-202.61C1716.18,-201.27 1724.75,-200.12 1733,-199.31 1779.99,-194.7 1832.95,-194.35 1874.9,-195.19"/>
<polygon fill="#9a32cd" stroke="#9a32cd" points="1707,-199.17 1697.71,-204.26 1708.15,-206.08 1707,-199.17"/>
</a>
</g>
<text text-anchor="start" x="1773" y="-250.31" font-family="Helvetica,sans-Serif" font-size="10.00" fill="grey">m_fluxC</text>
<text text-anchor="start" x="1773" y="-235.31" font-family="Helvetica,sans-Serif" font-size="10.00" fill="grey">m_flux_x</text>
<text text-anchor="start" x="1773" y="-220.31" font-family="Helvetica,sans-Serif" font-size="10.00" fill="grey">m_flux_y</text>
<text text-anchor="start" x="1773" y="-205.31" font-family="Helvetica,sans-Serif" font-size="10.00" fill="grey">m_flux_z</text>
</g>
<!-- Node21&#45;&gt;Node20 -->
<g id="edge27_Node000020_Node000021" class="edge">
<title>Node21&#45;&gt;Node20</title>
<g id="a_edge27_Node000020_Node000021"><a xlink:title=" ">
<path fill="none" stroke="#9a32cd" stroke-dasharray="5,2" d="M1458.4,-259.45C1479.81,-257.38 1502.9,-254.45 1524,-250.31 1544.06,-246.37 1565.81,-240.17 1584.16,-234.34"/>
<polygon fill="#9a32cd" stroke="#9a32cd" points="1458,-255.98 1448.36,-260.37 1458.64,-262.95 1458,-255.98"/>
</a>
</g>
<text text-anchor="start" x="1488" y="-263.81" font-family="Helvetica,sans-Serif" font-size="10.00" fill="grey">ptr</text>
</g>
<!-- Node22 -->
<g id="Node000022" class="node">
<title>Node22</title>
<g id="a_Node000022"><a xlink:href="structkynema__sgf_1_1pde_1_1_advection_op.html" target="_top" xlink:title=" ">
<polygon fill="white" stroke="#666666" points="1715,-103.31 1542,-103.31 1542,-73.31 1715,-73.31 1715,-103.31"/>
<text text-anchor="start" x="1550" y="-91.31" font-family="Helvetica,sans-Serif" font-size="10.00">kynema_sgf::pde::Advection</text>
<text text-anchor="middle" x="1628.5" y="-80.31" font-family="Helvetica,sans-Serif" font-size="10.00">Op&lt; PDE, Scheme, typename &gt;</text>
</a>
</g>
</g>
<!-- Node22&#45;&gt;Node1 -->
<g id="edge31_Node000001_Node000022" class="edge">
<title>Node22&#45;&gt;Node1</title>
<g id="a_edge31_Node000001_Node000022"><a xlink:title=" ">
<path fill="none" stroke="orange" stroke-dasharray="5,2" d="M1725.28,-82.75C1767.34,-83.77 1816.3,-89.86 1857,-108.31 1893.63,-124.92 1924.77,-161.94 1940.34,-182.96"/>
<polygon fill="orange" stroke="orange" points="1725.08,-79.24 1715.03,-82.59 1724.98,-86.24 1725.08,-79.24"/>
</a>
</g>
<text text-anchor="start" x="1736" y="-113.81" font-family="Helvetica,sans-Serif" font-size="10.00" fill="grey">&lt; VOF, fvm::Godunov &gt;</text>
</g>
</g>
</svg>

<g id="navigator" transform="translate(0 0)" fill="#404254">
  <rect fill="#f2f5e9" fill-opacity="0.5" stroke="#606060" stroke-width=".5" x="0" y="0" width="60" height="60"/>
  <use id="zoomplus" xlink:href="#zoomPlus" x="17" y="9" onmousedown="handleZoom(evt,'in')"/>
  <use id="zoomminus" xlink:href="#zoomMin" x="42" y="9" onmousedown="handleZoom(evt,'out')"/>
  <use id="reset" xlink:href="#resetDef" x="30" y="36" onmousedown="handleReset()"/>
   <use id="arrowup" xlink:href="#arrowUp" x="0" y="0" onmousedown="handlePan(0,-1)"/>
  <use id="arrowright" xlink:href="#arrowRight" x="0" y="0" onmousedown="handlePan(1,0)"/>
  <use id="arrowdown" xlink:href="#arrowDown" x="0" y="0" onmousedown="handlePan(0,1)"/>
  <use id="arrowleft" xlink:href="#arrowLeft" x="0" y="0" onmousedown="handlePan(-1,0)"/>
</g>
<svg viewBox="0 0 15 15" width="100%" height="30px" preserveAspectRatio="xMaxYMin meet">
 <g id="arrow_out" transform="scale(0.3 0.3)">
  <a xlink:href="structkynema__sgf_1_1pde_1_1_advection_op_3_01_v_o_f_00_01fvm_1_1_godunov_01_4__coll__graph_org.svg" target="_base">
   <rect id="button" ry="5" rx="5" y="6" x="6" height="38" width="38"
        fill="#f2f5e9" fill-opacity="0.5" stroke="#606060" stroke-width="1.0"/>
   <path id="arrow"
     d="M 11.500037,31.436501 C 11.940474,20.09759 22.043105,11.32322 32.158766,21.979434 L 37.068811,17.246167 C 37.068811,17.246167 37.088388,32 37.088388,32 L 22.160133,31.978069 C 22.160133,31.978069 26.997745,27.140456 26.997745,27.140456 C 18.528582,18.264221 13.291696,25.230495 11.500037,31.436501 z"
     style="fill:#404040;"/>
  </a>
 </g>
</svg>

<style type='text/css'>
<![CDATA[
[data-mouse-over-selected='false'] { opacity: 0.7; }
[data-mouse-over-selected='true']  { opacity: 1.0; }
]]>
</style>
<script type="application/ecmascript"><![CDATA[
document.addEventListener('DOMContentLoaded', (event) => {
  highlightEdges();
  highlightAdjacentNodes();
});
]]></script>
</svg>
