<?xml version="1.0" encoding="UTF-8" standalone="no"?>
<!DOCTYPE svg PUBLIC "-//W3C//DTD SVG 1.1//EN"
 "http://www.w3.org/Graphics/SVG/1.1/DTD/svg11.dtd">
<!-- Generated by graphviz version 2.43.0 (0)
 -->
<!-- Title: kynema_sgf::pde::DiffusionOp&lt; TKE, Scheme &gt; Pages: 1 -->
<svg width="747pt" height="88pt"
 viewBox="0.00 0.00 747.00 88.00" xmlns="http://www.w3.org/2000/svg" xmlns:xlink="http://www.w3.org/1999/xlink">
<g id="graph0" class="graph" transform="scale(1 1) rotate(0) translate(4 84)">
<title>kynema_sgf::pde::DiffusionOp&lt; TKE, Scheme &gt;</title>
<!-- Node1 -->
<g id="Node000001" class="node">
<title>Node1</title>
<g id="a_Node000001"><a xlink:title=" ">
<polygon fill="#999999" stroke="#666666" points="739,-46 590,-46 590,-16 739,-16 739,-46"/>
<text text-anchor="start" x="598" y="-34" font-family="Helvetica,sans-Serif" font-size="10.00">kynema_sgf::pde::Diffusion</text>
<text text-anchor="middle" x="664.5" y="-23" font-family="Helvetica,sans-Serif" font-size="10.00">Op&lt; TKE, Scheme &gt;</text>
</a>
</g>
</g>
<!-- Node2 -->
<g id="Node000002" class="node">
<title>Node2</title>
<g id="a_Node000002"><a xlink:href="classkynema__sgf_1_1pde_1_1_diff_solver_iface.html" target="_top" xlink:title=" ">
<polygon fill="white" stroke="#666666" points="451,-78 298,-78 298,-48 451,-48 451,-78"/>
<text text-anchor="start" x="306" y="-66" font-family="Helvetica,sans-Serif" font-size="10.00">kynema_sgf::pde::DiffSolver</text>
<text text-anchor="middle" x="374.5" y="-55" font-family="Helvetica,sans-Serif" font-size="10.00">Iface&lt; TKE::MLDiffOp &gt;</text>
</a>
</g>
</g>
<!-- Node2&#45;&gt;Node1 -->
<g id="edge1_Node000001_Node000002" class="edge">
<title>Node2&#45;&gt;Node1</title>
<g id="a_edge1_Node000001_Node000002"><a xlink:title=" ">
<path fill="none" stroke="#63b8ff" d="M461.13,-53.49C502.06,-48.94 550.57,-43.55 589.83,-39.19"/>
<polygon fill="#63b8ff" stroke="#63b8ff" points="460.72,-50.01 451.17,-54.59 461.49,-56.97 460.72,-50.01"/>
</a>
</g>
</g>
<!-- Node3 -->
<g id="Node000003" class="node">
<title>Node3</title>
<g id="a_Node000003"><a xlink:href="classkynema__sgf_1_1pde_1_1_diff_solver_iface.html" target="_top" xlink:title=" ">
<polygon fill="white" stroke="#666666" points="153,-78 0,-78 0,-48 153,-48 153,-78"/>
<text text-anchor="start" x="8" y="-66" font-family="Helvetica,sans-Serif" font-size="10.00">kynema_sgf::pde::DiffSolver</text>
<text text-anchor="middle" x="76.5" y="-55" font-family="Helvetica,sans-Serif" font-size="10.00">Iface&lt; LinOp &gt;</text>
</a>
</g>
</g>
<!-- Node3&#45;&gt;Node2 -->
<g id="edge2_Node000002_Node000003" class="edge">
<title>Node3&#45;&gt;Node2</title>
<g id="a_edge2_Node000002_Node000003"><a xlink:title=" ">
<path fill="none" stroke="orange" stroke-dasharray="5,2" d="M163.4,-63C205.93,-63 256.81,-63 297.85,-63"/>
<polygon fill="orange" stroke="orange" points="163.34,-59.5 153.34,-63 163.34,-66.5 163.34,-59.5"/>
</a>
</g>
<text text-anchor="start" x="174.5" y="-68.5" font-family="Helvetica,sans-Serif" font-size="10.00" fill="grey">&lt; TKE::MLDiffOp &gt;</text>
</g>
<!-- Node4 -->
<g id="Node000004" class="node">
<title>Node4</title>
<g id="a_Node000004"><a xlink:href="structkynema__sgf_1_1pde_1_1_diffusion_op.html" target="_top" xlink:title=" ">
<polygon fill="white" stroke="#666666" points="461,-30 288,-30 288,0 461,0 461,-30"/>
<text text-anchor="start" x="296" y="-18" font-family="Helvetica,sans-Serif" font-size="10.00">kynema_sgf::pde::Diffusion</text>
<text text-anchor="middle" x="374.5" y="-7" font-family="Helvetica,sans-Serif" font-size="10.00">Op&lt; PDE, Scheme, typename &gt;</text>
</a>
</g>
</g>
<!-- Node4&#45;&gt;Node1 -->
<g id="edge3_Node000001_Node000004" class="edge">
<title>Node4&#45;&gt;Node1</title>
<g id="a_edge3_Node000001_Node000004"><a xlink:title=" ">
<path fill="none" stroke="orange" stroke-dasharray="5,2" d="M471.38,-18.8C503.39,-20.23 539.24,-22 572,-24 577.72,-24.35 583.65,-24.74 589.6,-25.15"/>
<polygon fill="orange" stroke="orange" points="471.27,-15.3 461.13,-18.35 470.97,-22.29 471.27,-15.3"/>
</a>
</g>
<text text-anchor="start" x="482.5" y="-29.5" font-family="Helvetica,sans-Serif" font-size="10.00" fill="grey">&lt; TKE, Scheme &gt;</text>
</g>
</g>
</svg>
