<?xml version="1.0" encoding="UTF-8" standalone="no"?>
<!DOCTYPE svg PUBLIC "-//W3C//DTD SVG 1.1//EN"
 "http://www.w3.org/Graphics/SVG/1.1/DTD/svg11.dtd">
<!-- Generated by graphviz version 2.43.0 (0)
 -->
<!-- Title: kynema_sgf::SimpleShearMOSD Pages: 1 -->
<svg width="256pt" height="99pt"
 viewBox="0.00 0.00 255.50 99.00" xmlns="http://www.w3.org/2000/svg" xmlns:xlink="http://www.w3.org/1999/xlink">
<g id="graph0" class="graph" transform="scale(1 1) rotate(0) translate(4 95)">
<title>kynema_sgf::SimpleShearMOSD</title>
<!-- Node1 -->
<g id="Node000001" class="node">
<title>Node1</title>
<g id="a_Node000001"><a xlink:title=" ">
<polygon fill="#999999" stroke="#666666" points="211.5,-19 38.5,-19 38.5,0 211.5,0 211.5,-19"/>
<text text-anchor="middle" x="125" y="-7" font-family="Helvetica,sans-Serif" font-size="10.00">kynema_sgf::SimpleShearMOSD</text>
</a>
</g>
</g>
<!-- Node2 -->
<g id="Node000002" class="node">
<title>Node2</title>
<g id="a_Node000002"><a xlink:href="structkynema__sgf_1_1_log_law.html" target="_top" xlink:title=" ">
<polygon fill="white" stroke="#666666" points="118,-91 0,-91 0,-72 118,-72 118,-91"/>
<text text-anchor="middle" x="59" y="-79" font-family="Helvetica,sans-Serif" font-size="10.00">kynema_sgf::LogLaw</text>
</a>
</g>
</g>
<!-- Node2&#45;&gt;Node1 -->
<g id="edge1_Node000001_Node000002" class="edge">
<title>Node2&#45;&gt;Node1</title>
<g id="a_edge1_Node000001_Node000002"><a xlink:title=" ">
<path fill="none" stroke="#9a32cd" stroke-dasharray="5,2" d="M74.17,-64.41C87.44,-50.33 106.22,-30.42 116.84,-19.15"/>
<polygon fill="#9a32cd" stroke="#9a32cd" points="71.41,-62.24 67.09,-71.92 76.5,-67.04 71.41,-62.24"/>
</a>
</g>
<text text-anchor="start" x="103" y="-42.5" font-family="Helvetica,sans-Serif" font-size="10.00" fill="grey">m_ll</text>
</g>
<!-- Node3 -->
<g id="Node000003" class="node">
<title>Node3</title>
<g id="a_Node000003"><a xlink:href="structkynema__sgf_1_1_m_o_s_d.html" target="_top" xlink:title=" ">
<polygon fill="white" stroke="#666666" points="247.5,-91 136.5,-91 136.5,-72 247.5,-72 247.5,-91"/>
<text text-anchor="middle" x="192" y="-79" font-family="Helvetica,sans-Serif" font-size="10.00">kynema_sgf::MOSD</text>
</a>
</g>
</g>
<!-- Node3&#45;&gt;Node1 -->
<g id="edge2_Node000001_Node000003" class="edge">
<title>Node3&#45;&gt;Node1</title>
<g id="a_edge2_Node000001_Node000003"><a xlink:title=" ">
<path fill="none" stroke="#9a32cd" stroke-dasharray="5,2" d="M176.6,-64.41C163.13,-50.33 144.07,-30.42 133.28,-19.15"/>
<polygon fill="#9a32cd" stroke="#9a32cd" points="174.34,-67.11 183.78,-71.92 179.4,-62.27 174.34,-67.11"/>
</a>
</g>
<text text-anchor="start" x="169.5" y="-42.5" font-family="Helvetica,sans-Serif" font-size="10.00" fill="grey">m_md</text>
</g>
</g>
</svg>
