<?xml version="1.0" encoding="UTF-8" standalone="no"?>
<!DOCTYPE svg PUBLIC "-//W3C//DTD SVG 1.1//EN"
 "http://www.w3.org/Graphics/SVG/1.1/DTD/svg11.dtd">
<!-- Generated by graphviz version 2.43.0 (0)
 -->
<!-- Title: kynema_sgf::pde::DiffusionOp&lt; PDE, Scheme, typename &gt; Pages: 1 -->
<!--zoomable 229 -->

<svg id="main" version="1.1" xmlns="http://www.w3.org/2000/svg" xmlns:xlink="http://www.w3.org/1999/xlink" xml:space="preserve" onload="init(evt)">

<style type="text/css"><![CDATA[
.node, .edge {opacity: 0.7;}
.node.selected, .edge.selected {opacity: 1;}
.edge:hover path { stroke: red; }
.edge:hover polygon { stroke: red; fill: red; }
]]></style>

<defs>
  <circle id="rim" cx="0" cy="0" r="7"/>
  <circle id="rim2" cx="0" cy="0" r="3.5"/>
  <g id="zoomPlus">
    <use xlink:href="#rim" fill="#404040"><set attributeName="fill" to="#808080" begin="zoomplus.mouseover" end="zoomplus.mouseout"/></use>
    <path d="M-4,0h8M0,-4v8" fill="none" stroke="white" stroke-width="1.5" pointer-events="none"/>
  </g>
  <g id="zoomMin">
    <use xlink:href="#rim" fill="#404040"><set attributeName="fill" to="#808080" begin="zoomminus.mouseover" end="zoomminus.mouseout"/></use>
    <path d="M-4,0h8" fill="none" stroke="white" stroke-width="1.5" pointer-events="none"/>
  </g>
  <g id="arrowUp" transform="translate(30 24)">
    <use xlink:href="#rim"/>
    <path pointer-events="none" fill="none" stroke="white" stroke-width="1.5" d="M0,-3.0v7 M-2.5,-0.5L0,-3.0L2.5,-0.5"/>
  </g>
  <g id="arrowRight" transform="rotate(90) translate(36 -43)">
    <use xlink:href="#rim"/>
    <path pointer-events="none" fill="none" stroke="white" stroke-width="1.5" d="M0,-3.0v7 M-2.5,-0.5L0,-3.0L2.5,-0.5"/>
  </g>
  <g id="arrowDown" transform="rotate(180) translate(-30 -48)">
    <use xlink:href="#rim"/>
    <path pointer-events="none" fill="none" stroke="white" stroke-width="1.5" d="M0,-3.0v7 M-2.5,-0.5L0,-3.0L2.5,-0.5"/>
  </g>
  <g id="arrowLeft" transform="rotate(270) translate(-36 17)">
    <use xlink:href="#rim"/>
    <path pointer-events="none" fill="none" stroke="white" stroke-width="1.5" d="M0,-3.0v7 M-2.5,-0.5L0,-3.0L2.5,-0.5"/>
  </g>
  <g id="resetDef">
    <use xlink:href="#rim2" fill="#404040"><set attributeName="fill" to="#808080" begin="reset.mouseover" end="reset.mouseout"/></use>
  </g>
</defs>
<script type="application/ecmascript">
var viewWidth = 604;
var viewHeight = 229;
var sectionId = 'dynsection-0';
</script>
<script type="application/ecmascript" xlink:href="svg.min.js"/>
<svg id="graph" class="graph">
<g id="viewport">
<title>kynema_sgf::pde::DiffusionOp&lt; PDE, Scheme, typename &gt;</title>
<!-- Node1 -->
<g id="Node000001" class="node">
<title>Node1</title>
<g id="a_Node000001"><a xlink:title=" ">
<polygon fill="#999999" stroke="#666666" points="173,-98 0,-98 0,-68 173,-68 173,-98"/>
<text text-anchor="start" x="8" y="-86" font-family="Helvetica,sans-Serif" font-size="10.00">kynema_sgf::pde::Diffusion</text>
<text text-anchor="middle" x="86.5" y="-75" font-family="Helvetica,sans-Serif" font-size="10.00">Op&lt; PDE, Scheme, typename &gt;</text>
</a>
</g>
</g>
<!-- Node2 -->
<g id="Node000002" class="node">
<title>Node2</title>
<g id="a_Node000002"><a xlink:href="structkynema__sgf_1_1pde_1_1_diffusion_op_3_01_i_c_n_s_00_01_scheme_01_4.html" target="_top" xlink:title=" ">
<polygon fill="white" stroke="#666666" points="559.5,-212 410.5,-212 410.5,-182 559.5,-182 559.5,-212"/>
<text text-anchor="start" x="418.5" y="-200" font-family="Helvetica,sans-Serif" font-size="10.00">kynema_sgf::pde::Diffusion</text>
<text text-anchor="middle" x="485" y="-189" font-family="Helvetica,sans-Serif" font-size="10.00">Op&lt; ICNS, Scheme &gt;</text>
</a>
</g>
</g>
<!-- Node1&#45;&gt;Node2 -->
<g id="edge1_Node000001_Node000002" class="edge">
<title>Node1&#45;&gt;Node2</title>
<g id="a_edge1_Node000001_Node000002"><a xlink:title=" ">
<path fill="none" stroke="orange" stroke-dasharray="5,2" d="M105.44,-105.94C124.16,-127.96 155.67,-160.03 191,-175 261.1,-204.7 349.05,-207.25 410.21,-204.21"/>
<polygon fill="orange" stroke="orange" points="107.99,-103.52 98.91,-98.05 102.59,-107.98 107.99,-103.52"/>
</a>
</g>
<text text-anchor="start" x="228.5" y="-209.5" font-family="Helvetica,sans-Serif" font-size="10.00" fill="grey">&lt; ICNS, Scheme &gt;</text>
</g>
<!-- Node3 -->
<g id="Node000003" class="node">
<title>Node3</title>
<g id="a_Node000003"><a xlink:href="structkynema__sgf_1_1pde_1_1_diffusion_op_3_01_p_d_e_00_01_scheme_00_01std_1_1enable__if__t_3_01c6159c8226191ebbc810ca31588d36ec.html" target="_top" xlink:title=" ">
<polygon fill="white" stroke="#666666" points="596,-148 374,-148 374,-96 596,-96 596,-148"/>
<text text-anchor="start" x="382" y="-136" font-family="Helvetica,sans-Serif" font-size="10.00">kynema_sgf::pde::Diffusion</text>
<text text-anchor="start" x="382" y="-125" font-family="Helvetica,sans-Serif" font-size="10.00">Op&lt; PDE, Scheme, std::enable</text>
<text text-anchor="start" x="382" y="-114" font-family="Helvetica,sans-Serif" font-size="10.00">_if_t&lt; std::is_base_of_v&lt; ScalarTransport,</text>
<text text-anchor="middle" x="485" y="-103" font-family="Helvetica,sans-Serif" font-size="10.00"> PDE &gt; &gt; &gt;</text>
</a>
</g>
</g>
<!-- Node1&#45;&gt;Node3 -->
<g id="edge2_Node000001_Node000003" class="edge">
<title>Node1&#45;&gt;Node3</title>
<g id="a_edge2_Node000001_Node000003"><a xlink:title=" ">
<path fill="none" stroke="orange" stroke-dasharray="5,2" d="M183.21,-92.41C240.63,-98.06 313.87,-105.27 373.71,-111.15"/>
<polygon fill="orange" stroke="orange" points="183.34,-88.91 173.05,-91.41 182.66,-95.88 183.34,-88.91"/>
</a>
</g>
<text text-anchor="start" x="194.5" y="-160" font-family="Helvetica,sans-Serif" font-size="10.00" fill="grey">&lt; PDE, Scheme, std</text>
<text text-anchor="start" x="194.5" y="-145" font-family="Helvetica,sans-Serif" font-size="10.00" fill="grey">  ::enable_if_t&lt; std::</text>
<text text-anchor="start" x="194.5" y="-130" font-family="Helvetica,sans-Serif" font-size="10.00" fill="grey">  is_base_of_v&lt; ScalarTransport,</text>
<text text-anchor="start" x="194.5" y="-115" font-family="Helvetica,sans-Serif" font-size="10.00" fill="grey">   PDE &gt; &gt; &gt;</text>
</g>
<!-- Node4 -->
<g id="Node000004" class="node">
<title>Node4</title>
<g id="a_Node000004"><a xlink:href="structkynema__sgf_1_1pde_1_1_diffusion_op_3_01_s_d_r_00_01_scheme_01_4.html" target="_top" xlink:title=" ">
<polygon fill="white" stroke="#666666" points="559.5,-78 410.5,-78 410.5,-48 559.5,-48 559.5,-78"/>
<text text-anchor="start" x="418.5" y="-66" font-family="Helvetica,sans-Serif" font-size="10.00">kynema_sgf::pde::Diffusion</text>
<text text-anchor="middle" x="485" y="-55" font-family="Helvetica,sans-Serif" font-size="10.00">Op&lt; SDR, Scheme &gt;</text>
</a>
</g>
</g>
<!-- Node1&#45;&gt;Node4 -->
<g id="edge3_Node000001_Node000004" class="edge">
<title>Node1&#45;&gt;Node4</title>
<g id="a_edge3_Node000001_Node000004"><a xlink:title=" ">
<path fill="none" stroke="orange" stroke-dasharray="5,2" d="M183.22,-73.54C185.84,-73.35 188.44,-73.17 191,-73 265.66,-68.12 351.19,-65.55 410.49,-64.24"/>
<polygon fill="orange" stroke="orange" points="182.74,-70.06 173.03,-74.32 183.27,-77.04 182.74,-70.06"/>
</a>
</g>
<text text-anchor="start" x="229.5" y="-78.5" font-family="Helvetica,sans-Serif" font-size="10.00" fill="grey">&lt; SDR, Scheme &gt;</text>
</g>
<!-- Node5 -->
<g id="Node000005" class="node">
<title>Node5</title>
<g id="a_Node000005"><a xlink:href="structkynema__sgf_1_1pde_1_1_diffusion_op_3_01_t_k_e_00_01_scheme_01_4.html" target="_top" xlink:title=" ">
<polygon fill="white" stroke="#666666" points="559.5,-30 410.5,-30 410.5,0 559.5,0 559.5,-30"/>
<text text-anchor="start" x="418.5" y="-18" font-family="Helvetica,sans-Serif" font-size="10.00">kynema_sgf::pde::Diffusion</text>
<text text-anchor="middle" x="485" y="-7" font-family="Helvetica,sans-Serif" font-size="10.00">Op&lt; TKE, Scheme &gt;</text>
</a>
</g>
</g>
<!-- Node1&#45;&gt;Node5 -->
<g id="edge4_Node000001_Node000005" class="edge">
<title>Node1&#45;&gt;Node5</title>
<g id="a_edge4_Node000001_Node000005"><a xlink:title=" ">
<path fill="none" stroke="orange" stroke-dasharray="5,2" d="M130.1,-64.07C148.49,-56.66 170.46,-48.8 191,-44 264.42,-26.85 350.5,-19.83 410.28,-16.97"/>
<polygon fill="orange" stroke="orange" points="128.75,-60.84 120.83,-67.89 131.41,-67.32 128.75,-60.84"/>
</a>
</g>
<text text-anchor="start" x="230.5" y="-49.5" font-family="Helvetica,sans-Serif" font-size="10.00" fill="grey">&lt; TKE, Scheme &gt;</text>
</g>
</g>
</svg>

<g id="navigator" transform="translate(0 0)" fill="#404254">
  <rect fill="#f2f5e9" fill-opacity="0.5" stroke="#606060" stroke-width=".5" x="0" y="0" width="60" height="60"/>
  <use id="zoomplus" xlink:href="#zoomPlus" x="17" y="9" onmousedown="handleZoom(evt,'in')"/>
  <use id="zoomminus" xlink:href="#zoomMin" x="42" y="9" onmousedown="handleZoom(evt,'out')"/>
  <use id="reset" xlink:href="#resetDef" x="30" y="36" onmousedown="handleReset()"/>
   <use id="arrowup" xlink:href="#arrowUp" x="0" y="0" onmousedown="handlePan(0,-1)"/>
  <use id="arrowright" xlink:href="#arrowRight" x="0" y="0" onmousedown="handlePan(1,0)"/>
  <use id="arrowdown" xlink:href="#arrowDown" x="0" y="0" onmousedown="handlePan(0,1)"/>
  <use id="arrowleft" xlink:href="#arrowLeft" x="0" y="0" onmousedown="handlePan(-1,0)"/>
</g>
<svg viewBox="0 0 15 15" width="100%" height="30px" preserveAspectRatio="xMaxYMin meet">
 <g id="arrow_out" transform="scale(0.3 0.3)">
  <a xlink:href="structkynema__sgf_1_1pde_1_1_diffusion_op__inherit__graph_org.svg" target="_base">
   <rect id="button" ry="5" rx="5" y="6" x="6" height="38" width="38"
        fill="#f2f5e9" fill-opacity="0.5" stroke="#606060" stroke-width="1.0"/>
   <path id="arrow"
     d="M 11.500037,31.436501 C 11.940474,20.09759 22.043105,11.32322 32.158766,21.979434 L 37.068811,17.246167 C 37.068811,17.246167 37.088388,32 37.088388,32 L 22.160133,31.978069 C 22.160133,31.978069 26.997745,27.140456 26.997745,27.140456 C 18.528582,18.264221 13.291696,25.230495 11.500037,31.436501 z"
     style="fill:#404040;"/>
  </a>
 </g>
</svg>

<style type='text/css'>
<![CDATA[
[data-mouse-over-selected='false'] { opacity: 0.7; }
[data-mouse-over-selected='true']  { opacity: 1.0; }
]]>
</style>
<script type="application/ecmascript"><![CDATA[
document.addEventListener('DOMContentLoaded', (event) => {
  highlightEdges();
  highlightAdjacentNodes();
});
]]></script>
</svg>
