<?xml version="1.0" encoding="UTF-8" standalone="no"?>
<!DOCTYPE svg PUBLIC "-//W3C//DTD SVG 1.1//EN"
 "http://www.w3.org/Graphics/SVG/1.1/DTD/svg11.dtd">
<!-- Generated by graphviz version 2.43.0 (0)
 -->
<!-- Title: kynema_sgf::pde::DiffusionOp&lt; PDE, Scheme, std::enable_if_t&lt; std::is_base_of_v&lt; ScalarTransport, PDE &gt; &gt; &gt; Pages: 1 -->
<!--zoomable 359 -->

<svg id="main" version="1.1" xmlns="http://www.w3.org/2000/svg" xmlns:xlink="http://www.w3.org/1999/xlink" xml:space="preserve" onload="init(evt)">

<style type="text/css"><![CDATA[
.node, .edge {opacity: 0.7;}
.node.selected, .edge.selected {opacity: 1;}
.edge:hover path { stroke: red; }
.edge:hover polygon { stroke: red; fill: red; }
]]></style>

<defs>
  <circle id="rim" cx="0" cy="0" r="7"/>
  <circle id="rim2" cx="0" cy="0" r="3.5"/>
  <g id="zoomPlus">
    <use xlink:href="#rim" fill="#404040"><set attributeName="fill" to="#808080" begin="zoomplus.mouseover" end="zoomplus.mouseout"/></use>
    <path d="M-4,0h8M0,-4v8" fill="none" stroke="white" stroke-width="1.5" pointer-events="none"/>
  </g>
  <g id="zoomMin">
    <use xlink:href="#rim" fill="#404040"><set attributeName="fill" to="#808080" begin="zoomminus.mouseover" end="zoomminus.mouseout"/></use>
    <path d="M-4,0h8" fill="none" stroke="white" stroke-width="1.5" pointer-events="none"/>
  </g>
  <g id="arrowUp" transform="translate(30 24)">
    <use xlink:href="#rim"/>
    <path pointer-events="none" fill="none" stroke="white" stroke-width="1.5" d="M0,-3.0v7 M-2.5,-0.5L0,-3.0L2.5,-0.5"/>
  </g>
  <g id="arrowRight" transform="rotate(90) translate(36 -43)">
    <use xlink:href="#rim"/>
    <path pointer-events="none" fill="none" stroke="white" stroke-width="1.5" d="M0,-3.0v7 M-2.5,-0.5L0,-3.0L2.5,-0.5"/>
  </g>
  <g id="arrowDown" transform="rotate(180) translate(-30 -48)">
    <use xlink:href="#rim"/>
    <path pointer-events="none" fill="none" stroke="white" stroke-width="1.5" d="M0,-3.0v7 M-2.5,-0.5L0,-3.0L2.5,-0.5"/>
  </g>
  <g id="arrowLeft" transform="rotate(270) translate(-36 17)">
    <use xlink:href="#rim"/>
    <path pointer-events="none" fill="none" stroke="white" stroke-width="1.5" d="M0,-3.0v7 M-2.5,-0.5L0,-3.0L2.5,-0.5"/>
  </g>
  <g id="resetDef">
    <use xlink:href="#rim2" fill="#404040"><set attributeName="fill" to="#808080" begin="reset.mouseover" end="reset.mouseout"/></use>
  </g>
</defs>
<script type="application/ecmascript">
var viewWidth = 2608;
var viewHeight = 359;
var sectionId = 'dynsection-1';
</script>
<script type="application/ecmascript" xlink:href="svg.min.js"/>
<svg id="graph" class="graph">
<g id="viewport">
<title>kynema_sgf::pde::DiffusionOp&lt; PDE, Scheme, std::enable_if_t&lt; std::is_base_of_v&lt; ScalarTransport, PDE &gt; &gt; &gt;</title>
<!-- Node1 -->
<g id="Node000001" class="node">
<title>Node1</title>
<g id="a_Node000001"><a xlink:title=" ">
<polygon fill="#999999" stroke="#666666" points="2600,-138 2378,-138 2378,-86 2600,-86 2600,-138"/>
<text text-anchor="start" x="2386" y="-126" font-family="Helvetica,sans-Serif" font-size="10.00">kynema_sgf::pde::Diffusion</text>
<text text-anchor="start" x="2386" y="-115" font-family="Helvetica,sans-Serif" font-size="10.00">Op&lt; PDE, Scheme, std::enable</text>
<text text-anchor="start" x="2386" y="-104" font-family="Helvetica,sans-Serif" font-size="10.00">_if_t&lt; std::is_base_of_v&lt; ScalarTransport,</text>
<text text-anchor="middle" x="2489" y="-93" font-family="Helvetica,sans-Serif" font-size="10.00"> PDE &gt; &gt; &gt;</text>
</a>
</g>
</g>
<!-- Node2 -->
<g id="Node000002" class="node">
<title>Node2</title>
<g id="a_Node000002"><a xlink:href="classkynema__sgf_1_1pde_1_1_diff_solver_iface.html" target="_top" xlink:title=" ">
<polygon fill="white" stroke="#666666" points="2167,-166 2014,-166 2014,-136 2167,-136 2167,-166"/>
<text text-anchor="start" x="2022" y="-154" font-family="Helvetica,sans-Serif" font-size="10.00">kynema_sgf::pde::DiffSolver</text>
<text text-anchor="middle" x="2090.5" y="-143" font-family="Helvetica,sans-Serif" font-size="10.00">Iface&lt; PDE::MLDiffOp &gt;</text>
</a>
</g>
</g>
<!-- Node2&#45;&gt;Node1 -->
<g id="edge1_Node000001_Node000002" class="edge">
<title>Node2&#45;&gt;Node1</title>
<g id="a_edge1_Node000001_Node000002"><a xlink:title=" ">
<path fill="none" stroke="#63b8ff" d="M2177.27,-149.6C2230.12,-147.98 2299.18,-144.49 2360,-137 2365.84,-136.28 2371.82,-135.45 2377.84,-134.54"/>
<polygon fill="#63b8ff" stroke="#63b8ff" points="2177.16,-146.1 2167.26,-149.89 2177.36,-153.1 2177.16,-146.1"/>
</a>
</g>
</g>
<!-- Node3 -->
<g id="Node000003" class="node">
<title>Node3</title>
<g id="a_Node000003"><a xlink:href="structkynema__sgf_1_1pde_1_1_p_d_e_fields.html" target="_top" xlink:title=" ">
<polygon fill="white" stroke="#666666" points="1613,-241.5 1460,-241.5 1460,-222.5 1613,-222.5 1613,-241.5"/>
<text text-anchor="middle" x="1536.5" y="-229.5" font-family="Helvetica,sans-Serif" font-size="10.00">kynema_sgf::pde::PDEFields</text>
</a>
</g>
</g>
<!-- Node3&#45;&gt;Node2 -->
<g id="edge2_Node000002_Node000003" class="edge">
<title>Node3&#45;&gt;Node2</title>
<g id="a_edge2_Node000002_Node000003"><a xlink:title=" ">
<path fill="none" stroke="#9a32cd" stroke-dasharray="5,2" d="M1623.19,-225.59C1647.11,-223.5 1673.1,-220.95 1697,-218 1826.08,-202.08 1858.02,-195.16 1986,-172 1996.19,-170.16 2006.93,-168.1 2017.47,-166.02"/>
<polygon fill="#9a32cd" stroke="#9a32cd" points="1622.74,-222.12 1613.07,-226.46 1623.33,-229.09 1622.74,-222.12"/>
</a>
</g>
<text text-anchor="start" x="1761.5" y="-221.5" font-family="Helvetica,sans-Serif" font-size="10.00" fill="grey">m_pdefields</text>
</g>
<!-- Node20 -->
<g id="Node000020" class="node">
<title>Node20</title>
<g id="a_Node000020"><a xlink:href="classkynema__sgf_1_1pde_1_1_diff_solver_iface.html" target="_top" xlink:title=" ">
<polygon fill="white" stroke="#666666" points="1868,-166 1715,-166 1715,-136 1868,-136 1868,-166"/>
<text text-anchor="start" x="1723" y="-154" font-family="Helvetica,sans-Serif" font-size="10.00">kynema_sgf::pde::DiffSolver</text>
<text text-anchor="middle" x="1791.5" y="-143" font-family="Helvetica,sans-Serif" font-size="10.00">Iface&lt; LinOp &gt;</text>
</a>
</g>
</g>
<!-- Node3&#45;&gt;Node20 -->
<g id="edge28_Node000020_Node000003" class="edge">
<title>Node3&#45;&gt;Node20</title>
<g id="a_edge28_Node000020_Node000003"><a xlink:title=" ">
<path fill="none" stroke="#9a32cd" stroke-dasharray="5,2" d="M1575.66,-219.19C1592.59,-213.55 1612.77,-206.88 1631,-201 1668.15,-189.02 1710.29,-175.83 1741.92,-166"/>
<polygon fill="#9a32cd" stroke="#9a32cd" points="1574.48,-215.89 1566.11,-222.38 1576.7,-222.53 1574.48,-215.89"/>
</a>
</g>
<text text-anchor="start" x="1634" y="-206.5" font-family="Helvetica,sans-Serif" font-size="10.00" fill="grey">m_pdefields</text>
</g>
<!-- Node4 -->
<g id="Node000004" class="node">
<title>Node4</title>
<g id="a_Node000004"><a xlink:href="classkynema__sgf_1_1_field_repo.html" target="_top" xlink:title=" ">
<polygon fill="white" stroke="#666666" points="1177.5,-322.5 1048.5,-322.5 1048.5,-303.5 1177.5,-303.5 1177.5,-322.5"/>
<text text-anchor="middle" x="1113" y="-310.5" font-family="Helvetica,sans-Serif" font-size="10.00">kynema_sgf::FieldRepo</text>
</a>
</g>
</g>
<!-- Node4&#45;&gt;Node3 -->
<g id="edge3_Node000003_Node000004" class="edge">
<title>Node4&#45;&gt;Node3</title>
<g id="a_edge3_Node000003_Node000004"><a xlink:title=" ">
<path fill="none" stroke="#9a32cd" stroke-dasharray="5,2" d="M1173.08,-324.07C1240.45,-334.09 1352.77,-342.79 1442,-310 1480.1,-296 1513.64,-259.12 1528.03,-241.56"/>
<polygon fill="#9a32cd" stroke="#9a32cd" points="1173.49,-320.59 1163.07,-322.52 1172.42,-327.51 1173.49,-320.59"/>
</a>
</g>
<text text-anchor="start" x="1303" y="-338.5" font-family="Helvetica,sans-Serif" font-size="10.00" fill="grey">repo</text>
</g>
<!-- Node11 -->
<g id="Node000011" class="node">
<title>Node11</title>
<g id="a_Node000011"><a xlink:href="classkynema__sgf_1_1_field.html" target="_top" xlink:title=" ">
<polygon fill="white" stroke="#666666" points="1366,-254.5 1262,-254.5 1262,-235.5 1366,-235.5 1366,-254.5"/>
<text text-anchor="middle" x="1314" y="-242.5" font-family="Helvetica,sans-Serif" font-size="10.00">kynema_sgf::Field</text>
</a>
</g>
</g>
<!-- Node4&#45;&gt;Node11 -->
<g id="edge11_Node000011_Node000004" class="edge">
<title>Node4&#45;&gt;Node11</title>
<g id="a_edge11_Node000011_Node000004"><a xlink:title=" ">
<path fill="none" stroke="#9a32cd" stroke-dasharray="5,2" d="M1153.56,-300.23C1179.37,-291.83 1213.76,-280.48 1244,-270 1258.33,-265.04 1274.24,-259.29 1287.18,-254.55"/>
<polygon fill="#9a32cd" stroke="#9a32cd" points="1152.2,-297 1143.77,-303.42 1154.36,-303.65 1152.2,-297"/>
</a>
</g>
<text text-anchor="start" x="1204.5" y="-289.5" font-family="Helvetica,sans-Serif" font-size="10.00" fill="grey">m_repo</text>
</g>
<!-- Node5 -->
<g id="Node000005" class="node">
<title>Node5</title>
<g id="a_Node000005"><a xlink:title=" ">
<polygon fill="white" stroke="#666666" points="866.5,-328 744.5,-328 744.5,-298 866.5,-298 866.5,-328"/>
<text text-anchor="start" x="752.5" y="-316" font-family="Helvetica,sans-Serif" font-size="10.00">std::unordered_map</text>
<text text-anchor="middle" x="805.5" y="-305" font-family="Helvetica,sans-Serif" font-size="10.00">&lt; std::string, size_t &gt;</text>
</a>
</g>
</g>
<!-- Node5&#45;&gt;Node4 -->
<g id="edge4_Node000004_Node000005" class="edge">
<title>Node5&#45;&gt;Node4</title>
<g id="a_edge4_Node000004_Node000005"><a xlink:title=" ">
<path fill="none" stroke="#9a32cd" stroke-dasharray="5,2" d="M876.95,-313C928.66,-313 998.31,-313 1048.35,-313"/>
<polygon fill="#9a32cd" stroke="#9a32cd" points="876.86,-309.5 866.86,-313 876.86,-316.5 876.86,-309.5"/>
</a>
</g>
<text text-anchor="start" x="919" y="-334" font-family="Helvetica,sans-Serif" font-size="10.00" fill="grey">m_fid_map</text>
<text text-anchor="start" x="919" y="-319" font-family="Helvetica,sans-Serif" font-size="10.00" fill="grey">m_int_fid_map</text>
</g>
<!-- Node6 -->
<g id="Node000006" class="node">
<title>Node6</title>
<g id="a_Node000006"><a xlink:title=" ">
<polygon fill="white" stroke="#666666" points="524.5,-247.5 459.5,-247.5 459.5,-228.5 524.5,-228.5 524.5,-247.5"/>
<text text-anchor="middle" x="492" y="-235.5" font-family="Helvetica,sans-Serif" font-size="10.00">std::string</text>
</a>
</g>
</g>
<!-- Node6&#45;&gt;Node5 -->
<g id="edge5_Node000005_Node000006" class="edge">
<title>Node6&#45;&gt;Node5</title>
<g id="a_edge5_Node000005_Node000006"><a xlink:title=" ">
<path fill="none" stroke="#9a32cd" stroke-dasharray="5,2" d="M525.64,-251.36C544.25,-258.58 568.15,-267.18 590,-273 649.31,-288.81 665.7,-285.54 726,-297 731.88,-298.12 737.99,-299.31 744.1,-300.52"/>
<polygon fill="#9a32cd" stroke="#9a32cd" points="526.75,-248.04 516.16,-247.63 524.18,-254.55 526.75,-248.04"/>
</a>
</g>
<text text-anchor="start" x="647" y="-302.5" font-family="Helvetica,sans-Serif" font-size="10.00" fill="grey">keys</text>
</g>
<!-- Node6&#45;&gt;Node11 -->
<g id="edge12_Node000011_Node000006" class="edge">
<title>Node6&#45;&gt;Node11</title>
<g id="a_edge12_Node000011_Node000006"><a xlink:title=" ">
<path fill="none" stroke="#9a32cd" stroke-dasharray="5,2" d="M535.03,-243.28C552.06,-245.18 571.94,-247.07 590,-248 650.36,-251.1 665.56,-248.15 726,-248 924.22,-247.49 1160.08,-246.02 1261.96,-245.35"/>
<polygon fill="#9a32cd" stroke="#9a32cd" points="535.16,-239.78 524.83,-242.11 534.36,-246.73 535.16,-239.78"/>
</a>
</g>
<text text-anchor="start" x="934" y="-253.5" font-family="Helvetica,sans-Serif" font-size="10.00" fill="grey">m_name</text>
</g>
<!-- Node13 -->
<g id="Node000013" class="node">
<title>Node13</title>
<g id="a_Node000013"><a xlink:href="structkynema__sgf_1_1_field_info.html" target="_top" xlink:title=" ">
<polygon fill="white" stroke="#666666" points="867,-228.5 744,-228.5 744,-209.5 867,-209.5 867,-228.5"/>
<text text-anchor="middle" x="805.5" y="-216.5" font-family="Helvetica,sans-Serif" font-size="10.00">kynema_sgf::FieldInfo</text>
</a>
</g>
</g>
<!-- Node6&#45;&gt;Node13 -->
<g id="edge15_Node000013_Node000006" class="edge">
<title>Node6&#45;&gt;Node13</title>
<g id="a_edge15_Node000013_Node000006"><a xlink:title=" ">
<path fill="none" stroke="#9a32cd" stroke-dasharray="5,2" d="M535.09,-234.81C552.13,-233.56 572,-232.15 590,-231 641.92,-227.67 700.95,-224.41 743.92,-222.13"/>
<polygon fill="#9a32cd" stroke="#9a32cd" points="534.6,-231.34 524.88,-235.57 535.11,-238.32 534.6,-231.34"/>
</a>
</g>
<text text-anchor="start" x="625" y="-236.5" font-family="Helvetica,sans-Serif" font-size="10.00" fill="grey">m_basename</text>
</g>
<!-- Node18 -->
<g id="Node000018" class="node">
<title>Node18</title>
<g id="a_Node000018"><a xlink:href="structkynema__sgf_1_1_m_l_m_g_options.html" target="_top" xlink:title=" ">
<polygon fill="white" stroke="#666666" points="1611,-130.5 1462,-130.5 1462,-111.5 1611,-111.5 1611,-130.5"/>
<text text-anchor="middle" x="1536.5" y="-118.5" font-family="Helvetica,sans-Serif" font-size="10.00">kynema_sgf::MLMGOptions</text>
</a>
</g>
</g>
<!-- Node6&#45;&gt;Node18 -->
<g id="edge24_Node000018_Node000006" class="edge">
<title>Node6&#45;&gt;Node18</title>
<g id="a_edge24_Node000018_Node000006"><a xlink:title=" ">
<path fill="none" stroke="#9a32cd" stroke-dasharray="5,2" d="M534.74,-230.74C547.51,-227.14 561.05,-221.83 572,-214 583.14,-206.04 578.11,-195.79 590,-189 738.12,-104.48 1266.1,-112.24 1461.81,-118.26"/>
<polygon fill="#9a32cd" stroke="#9a32cd" points="533.58,-227.42 524.74,-233.26 535.29,-234.21 533.58,-227.42"/>
</a>
</g>
<text text-anchor="start" x="1057" y="-154.5" font-family="Helvetica,sans-Serif" font-size="10.00" fill="grey">m_bottom_solver_type</text>
<text text-anchor="start" x="1057" y="-139.5" font-family="Helvetica,sans-Serif" font-size="10.00" fill="grey">m_hypre_interface</text>
<text text-anchor="start" x="1057" y="-124.5" font-family="Helvetica,sans-Serif" font-size="10.00" fill="grey">m_hypre_namespace</text>
</g>
<!-- Node7 -->
<g id="Node000007" class="node">
<title>Node7</title>
<g id="a_Node000007"><a xlink:title=" ">
<polygon fill="white" stroke="#666666" points="209.5,-253 105.5,-253 105.5,-223 209.5,-223 209.5,-253"/>
<text text-anchor="start" x="113.5" y="-241" font-family="Helvetica,sans-Serif" font-size="10.00">std::basic_string&lt;</text>
<text text-anchor="middle" x="157.5" y="-230" font-family="Helvetica,sans-Serif" font-size="10.00"> Char &gt;</text>
</a>
</g>
</g>
<!-- Node7&#45;&gt;Node6 -->
<g id="edge6_Node000006_Node000007" class="edge">
<title>Node7&#45;&gt;Node6</title>
<g id="a_edge6_Node000006_Node000007"><a xlink:title=" ">
<path fill="none" stroke="#63b8ff" d="M219.85,-238C290.64,-238 404.34,-238 459.27,-238"/>
<polygon fill="#63b8ff" stroke="#63b8ff" points="219.72,-234.5 209.72,-238 219.72,-241.5 219.72,-234.5"/>
</a>
</g>
</g>
<!-- Node8 -->
<g id="Node000008" class="node">
<title>Node8</title>
<g id="a_Node000008"><a xlink:title=" ">
<polygon fill="white" stroke="#666666" points="549,-349 435,-349 435,-319 549,-319 549,-349"/>
<text text-anchor="start" x="443" y="-337" font-family="Helvetica,sans-Serif" font-size="10.00">std::unordered_map</text>
<text text-anchor="middle" x="492" y="-326" font-family="Helvetica,sans-Serif" font-size="10.00">&lt; K, T &gt;</text>
</a>
</g>
</g>
<!-- Node8&#45;&gt;Node5 -->
<g id="edge7_Node000005_Node000008" class="edge">
<title>Node8&#45;&gt;Node5</title>
<g id="a_edge7_Node000005_Node000008"><a xlink:title=" ">
<path fill="none" stroke="orange" stroke-dasharray="5,2" d="M559.36,-329.53C614.19,-325.83 691.35,-320.63 744.38,-317.05"/>
<polygon fill="orange" stroke="orange" points="558.79,-326.06 549.05,-330.22 559.26,-333.04 558.79,-326.06"/>
</a>
</g>
<text text-anchor="start" x="605" y="-332.5" font-family="Helvetica,sans-Serif" font-size="10.00" fill="grey">&lt; std::string, size_t &gt;</text>
</g>
<!-- Node9 -->
<g id="Node000009" class="node">
<title>Node9</title>
<g id="a_Node000009"><a xlink:title=" ">
<polygon fill="white" stroke="#666666" points="172,-343.5 143,-343.5 143,-324.5 172,-324.5 172,-343.5"/>
<text text-anchor="middle" x="157.5" y="-331.5" font-family="Helvetica,sans-Serif" font-size="10.00">K</text>
</a>
</g>
</g>
<!-- Node9&#45;&gt;Node8 -->
<g id="edge8_Node000008_Node000009" class="edge">
<title>Node9&#45;&gt;Node8</title>
<g id="a_edge8_Node000008_Node000009"><a xlink:title=" ">
<path fill="none" stroke="#9a32cd" stroke-dasharray="5,2" d="M182.38,-334C234.77,-334 361.02,-334 434.8,-334"/>
<polygon fill="#9a32cd" stroke="#9a32cd" points="182.36,-330.5 172.36,-334 182.36,-337.5 182.36,-330.5"/>
</a>
</g>
<text text-anchor="start" x="310" y="-339.5" font-family="Helvetica,sans-Serif" font-size="10.00" fill="grey">keys</text>
</g>
<!-- Node10 -->
<g id="Node000010" class="node">
<title>Node10</title>
<g id="a_Node000010"><a xlink:title=" ">
<polygon fill="white" stroke="#666666" points="29,-156.5 0,-156.5 0,-137.5 29,-137.5 29,-156.5"/>
<text text-anchor="middle" x="14.5" y="-144.5" font-family="Helvetica,sans-Serif" font-size="10.00">T</text>
</a>
</g>
</g>
<!-- Node10&#45;&gt;Node8 -->
<g id="edge9_Node000008_Node000010" class="edge">
<title>Node10&#45;&gt;Node8</title>
<g id="a_edge9_Node000008_Node000010"><a xlink:title=" ">
<path fill="none" stroke="#9a32cd" stroke-dasharray="5,2" d="M21.46,-166.18C30.64,-192.33 50.85,-238.57 85,-262 113.52,-281.57 330.34,-312.62 434.92,-326.67"/>
<polygon fill="#9a32cd" stroke="#9a32cd" points="24.76,-165.02 18.29,-156.63 18.12,-167.23 24.76,-165.02"/>
</a>
</g>
<text text-anchor="start" x="134.5" y="-300.5" font-family="Helvetica,sans-Serif" font-size="10.00" fill="grey">elements</text>
</g>
<!-- Node16 -->
<g id="Node000016" class="node">
<title>Node16</title>
<g id="a_Node000016"><a xlink:title=" ">
<polygon fill="white" stroke="#666666" points="216.5,-89.5 98.5,-89.5 98.5,-70.5 216.5,-70.5 216.5,-89.5"/>
<text text-anchor="middle" x="157.5" y="-77.5" font-family="Helvetica,sans-Serif" font-size="10.00">std::unique_ptr&lt; T &gt;</text>
</a>
</g>
</g>
<!-- Node10&#45;&gt;Node16 -->
<g id="edge19_Node000016_Node000010" class="edge">
<title>Node10&#45;&gt;Node16</title>
<g id="a_edge19_Node000016_Node000010"><a xlink:title=" ">
<path fill="none" stroke="#9a32cd" stroke-dasharray="5,2" d="M26.53,-128.68C31.86,-121.26 38.86,-113.22 47,-108 62.27,-98.19 80.8,-91.82 98.25,-87.67"/>
<polygon fill="#9a32cd" stroke="#9a32cd" points="23.3,-127.22 20.73,-137.5 29.15,-131.07 23.3,-127.22"/>
</a>
</g>
<text text-anchor="start" x="50" y="-113.5" font-family="Helvetica,sans-Serif" font-size="10.00" fill="grey">ptr</text>
</g>
<!-- Node17 -->
<g id="Node000017" class="node">
<title>Node17</title>
<g id="a_Node000017"><a xlink:title=" ">
<polygon fill="white" stroke="#666666" points="380,-160.5 262,-160.5 262,-141.5 380,-141.5 380,-160.5"/>
<text text-anchor="middle" x="321" y="-148.5" font-family="Helvetica,sans-Serif" font-size="10.00">std::shared_ptr&lt; T &gt;</text>
</a>
</g>
</g>
<!-- Node10&#45;&gt;Node17 -->
<g id="edge21_Node000017_Node000010" class="edge">
<title>Node10&#45;&gt;Node17</title>
<g id="a_edge21_Node000017_Node000010"><a xlink:title=" ">
<path fill="none" stroke="#9a32cd" stroke-dasharray="5,2" d="M39.63,-147.32C87.27,-147.94 194.62,-149.35 261.8,-150.24"/>
<polygon fill="#9a32cd" stroke="#9a32cd" points="39.42,-143.81 29.37,-147.18 39.33,-150.81 39.42,-143.81"/>
</a>
</g>
<text text-anchor="start" x="50" y="-153.5" font-family="Helvetica,sans-Serif" font-size="10.00" fill="grey">ptr</text>
</g>
<!-- Node11&#45;&gt;Node2 -->
<g id="edge22_Node000002_Node000011" class="edge">
<title>Node11&#45;&gt;Node2</title>
<g id="a_edge22_Node000002_Node000011"><a xlink:title=" ">
<path fill="none" stroke="#9a32cd" stroke-dasharray="5,2" d="M1326.77,-263.16C1338.84,-279.94 1359.3,-303.77 1384,-314 1407.82,-323.86 1416.33,-316.3 1442,-314 1688.51,-291.9 1755.43,-284.95 1986,-195 2009.28,-185.92 2035.16,-174.92 2055.21,-166.19"/>
<polygon fill="#9a32cd" stroke="#9a32cd" points="1329.5,-260.96 1320.96,-254.69 1323.73,-264.92 1329.5,-260.96"/>
</a>
</g>
<text text-anchor="start" x="1638" y="-299.5" font-family="Helvetica,sans-Serif" font-size="10.00" fill="grey">m_density</text>
</g>
<!-- Node11&#45;&gt;Node3 -->
<g id="edge10_Node000003_Node000011" class="edge">
<title>Node11&#45;&gt;Node3</title>
<g id="a_edge10_Node000003_Node000011"><a xlink:title=" ">
<path fill="none" stroke="#9a32cd" stroke-dasharray="5,2" d="M1374.01,-234.08C1377.38,-233.66 1380.73,-233.29 1384,-233 1408.63,-230.79 1435.59,-230.07 1459.86,-230.04"/>
<polygon fill="#9a32cd" stroke="#9a32cd" points="1373.3,-230.64 1363.87,-235.47 1374.25,-237.58 1373.3,-230.64"/>
</a>
</g>
<text text-anchor="start" x="1387" y="-298.5" font-family="Helvetica,sans-Serif" font-size="10.00" fill="grey">conv_term</text>
<text text-anchor="start" x="1387" y="-283.5" font-family="Helvetica,sans-Serif" font-size="10.00" fill="grey">diff_term</text>
<text text-anchor="start" x="1387" y="-268.5" font-family="Helvetica,sans-Serif" font-size="10.00" fill="grey">field</text>
<text text-anchor="start" x="1387" y="-253.5" font-family="Helvetica,sans-Serif" font-size="10.00" fill="grey">mueff</text>
<text text-anchor="start" x="1387" y="-238.5" font-family="Helvetica,sans-Serif" font-size="10.00" fill="grey">src_term</text>
</g>
<!-- Node11&#45;&gt;Node20 -->
<g id="edge29_Node000020_Node000011" class="edge">
<title>Node11&#45;&gt;Node20</title>
<g id="a_edge29_Node000020_Node000011"><a xlink:title=" ">
<path fill="none" stroke="#9a32cd" stroke-dasharray="5,2" d="M1348.35,-231.7C1377.41,-220.61 1420.89,-205.18 1460,-196 1546.25,-175.75 1647.46,-163.63 1714.94,-157.16"/>
<polygon fill="#9a32cd" stroke="#9a32cd" points="1346.78,-228.56 1338.71,-235.43 1349.3,-235.09 1346.78,-228.56"/>
</a>
</g>
<text text-anchor="start" x="1510.5" y="-201.5" font-family="Helvetica,sans-Serif" font-size="10.00" fill="grey">m_density</text>
</g>
<!-- Node12 -->
<g id="Node000012" class="node">
<title>Node12</title>
<g id="a_Node000012"><a xlink:title=" ">
<polygon fill="white" stroke="#666666" points="1183,-234 1043,-234 1043,-204 1183,-204 1183,-234"/>
<text text-anchor="start" x="1051" y="-222" font-family="Helvetica,sans-Serif" font-size="10.00">std::shared_ptr&lt; kynema</text>
<text text-anchor="middle" x="1113" y="-211" font-family="Helvetica,sans-Serif" font-size="10.00">_sgf::FieldInfo &gt;</text>
</a>
</g>
</g>
<!-- Node12&#45;&gt;Node11 -->
<g id="edge13_Node000011_Node000012" class="edge">
<title>Node12&#45;&gt;Node11</title>
<g id="a_edge13_Node000011_Node000012"><a xlink:title=" ">
<path fill="none" stroke="#9a32cd" stroke-dasharray="5,2" d="M1193.39,-222.31C1210.16,-223.62 1227.71,-225.45 1244,-228 1255.58,-229.81 1268.07,-232.62 1279.19,-235.44"/>
<polygon fill="#9a32cd" stroke="#9a32cd" points="1193.29,-218.8 1183.06,-221.56 1192.78,-225.78 1193.29,-218.8"/>
</a>
</g>
<text text-anchor="start" x="1205.5" y="-233.5" font-family="Helvetica,sans-Serif" font-size="10.00" fill="grey">m_info</text>
</g>
<!-- Node13&#45;&gt;Node12 -->
<g id="edge14_Node000012_Node000013" class="edge">
<title>Node13&#45;&gt;Node12</title>
<g id="a_edge14_Node000012_Node000013"><a xlink:title=" ">
<path fill="none" stroke="#9a32cd" stroke-dasharray="5,2" d="M877.27,-219C927.08,-219 993.41,-219 1042.86,-219"/>
<polygon fill="#9a32cd" stroke="#9a32cd" points="877.22,-215.5 867.22,-219 877.22,-222.5 877.22,-215.5"/>
</a>
</g>
<text text-anchor="start" x="948" y="-224.5" font-family="Helvetica,sans-Serif" font-size="10.00" fill="grey">ptr</text>
</g>
<!-- Node14 -->
<g id="Node000014" class="node">
<title>Node14</title>
<g id="a_Node000014"><a xlink:title=" ">
<polygon fill="white" stroke="#666666" points="572,-205 412,-205 412,-175 572,-175 572,-205"/>
<text text-anchor="start" x="420" y="-193" font-family="Helvetica,sans-Serif" font-size="10.00">std::unique_ptr&lt; kynema</text>
<text text-anchor="middle" x="492" y="-182" font-family="Helvetica,sans-Serif" font-size="10.00">_sgf::FieldFillPatchOpsBase &gt;</text>
</a>
</g>
</g>
<!-- Node14&#45;&gt;Node13 -->
<g id="edge16_Node000013_Node000014" class="edge">
<title>Node14&#45;&gt;Node13</title>
<g id="a_edge16_Node000013_Node000014"><a xlink:title=" ">
<path fill="none" stroke="#9a32cd" stroke-dasharray="5,2" d="M582.52,-191.95C625.97,-193.67 678.85,-196.91 726,-203 738.28,-204.59 751.51,-207 763.54,-209.48"/>
<polygon fill="#9a32cd" stroke="#9a32cd" points="582.38,-188.44 572.26,-191.57 582.12,-195.44 582.38,-188.44"/>
</a>
</g>
<text text-anchor="start" x="622" y="-208.5" font-family="Helvetica,sans-Serif" font-size="10.00" fill="grey">m_fillpatch_op</text>
</g>
<!-- Node15 -->
<g id="Node000015" class="node">
<title>Node15</title>
<g id="a_Node000015"><a xlink:href="classkynema__sgf_1_1_field_fill_patch_ops_base.html" target="_top" xlink:title=" ">
<polygon fill="white" stroke="#666666" points="230,-205 85,-205 85,-175 230,-175 230,-205"/>
<text text-anchor="start" x="93" y="-193" font-family="Helvetica,sans-Serif" font-size="10.00">kynema_sgf::FieldFillPatch</text>
<text text-anchor="middle" x="157.5" y="-182" font-family="Helvetica,sans-Serif" font-size="10.00">OpsBase</text>
</a>
</g>
</g>
<!-- Node15&#45;&gt;Node14 -->
<g id="edge17_Node000014_Node000015" class="edge">
<title>Node15&#45;&gt;Node14</title>
<g id="a_edge17_Node000014_Node000015"><a xlink:title=" ">
<path fill="none" stroke="#9a32cd" stroke-dasharray="5,2" d="M240.48,-190C292.75,-190 360.12,-190 411.83,-190"/>
<polygon fill="#9a32cd" stroke="#9a32cd" points="240.24,-186.5 230.24,-190 240.24,-193.5 240.24,-186.5"/>
</a>
</g>
<text text-anchor="start" x="314" y="-195.5" font-family="Helvetica,sans-Serif" font-size="10.00" fill="grey">ptr</text>
</g>
<!-- Node16&#45;&gt;Node14 -->
<g id="edge18_Node000014_Node000016" class="edge">
<title>Node16&#45;&gt;Node14</title>
<g id="a_edge18_Node000014_Node000016"><a xlink:title=" ">
<path fill="none" stroke="orange" stroke-dasharray="5,2" d="M226.75,-83.53C290.81,-87.21 378.99,-93.36 394,-100 431.61,-116.63 464.05,-154.01 480.16,-174.98"/>
<polygon fill="orange" stroke="orange" points="226.87,-80.03 216.69,-82.96 226.48,-87.02 226.87,-80.03"/>
</a>
</g>
<text text-anchor="start" x="251" y="-121" font-family="Helvetica,sans-Serif" font-size="10.00" fill="grey">&lt; kynema_sgf::FieldFillPatch</text>
<text text-anchor="start" x="251" y="-106" font-family="Helvetica,sans-Serif" font-size="10.00" fill="grey">  OpsBase &gt;</text>
</g>
<!-- Node19 -->
<g id="Node000019" class="node">
<title>Node19</title>
<g id="a_Node000019"><a xlink:title=" ">
<polygon fill="white" stroke="#666666" points="718,-30 598,-30 598,0 718,0 718,-30"/>
<text text-anchor="start" x="606" y="-18" font-family="Helvetica,sans-Serif" font-size="10.00">std::unique_ptr&lt; PDE</text>
<text text-anchor="middle" x="658" y="-7" font-family="Helvetica,sans-Serif" font-size="10.00">::MLDiffOp &gt;</text>
</a>
</g>
</g>
<!-- Node16&#45;&gt;Node19 -->
<g id="edge26_Node000019_Node000016" class="edge">
<title>Node16&#45;&gt;Node19</title>
<g id="a_edge26_Node000019_Node000016"><a xlink:title=" ">
<path fill="none" stroke="orange" stroke-dasharray="5,2" d="M183.98,-65.65C201.43,-56.57 225.41,-45.54 248,-40 369.6,-10.16 517.31,-9.53 597.76,-12.06"/>
<polygon fill="orange" stroke="orange" points="182.18,-62.64 175.01,-70.44 185.48,-68.81 182.18,-62.64"/>
</a>
</g>
<text text-anchor="start" x="274" y="-45.5" font-family="Helvetica,sans-Serif" font-size="10.00" fill="grey">&lt; PDE::MLDiffOp &gt;</text>
</g>
<!-- Node21 -->
<g id="Node000021" class="node">
<title>Node21</title>
<g id="a_Node000021"><a xlink:title=" ">
<polygon fill="white" stroke="#666666" points="1025,-84.5 885,-84.5 885,-65.5 1025,-65.5 1025,-84.5"/>
<text text-anchor="middle" x="955" y="-72.5" font-family="Helvetica,sans-Serif" font-size="10.00">std::unique_ptr&lt; LinOp &gt;</text>
</a>
</g>
</g>
<!-- Node16&#45;&gt;Node21 -->
<g id="edge32_Node000021_Node000016" class="edge">
<title>Node16&#45;&gt;Node21</title>
<g id="a_edge32_Node000021_Node000016"><a xlink:title=" ">
<path fill="none" stroke="orange" stroke-dasharray="5,2" d="M226.68,-79.57C376.64,-78.63 733.77,-76.38 884.74,-75.44"/>
<polygon fill="orange" stroke="orange" points="226.65,-76.07 216.67,-79.63 226.69,-83.07 226.65,-76.07"/>
</a>
</g>
<text text-anchor="start" x="467" y="-84.5" font-family="Helvetica,sans-Serif" font-size="10.00" fill="grey">&lt; LinOp &gt;</text>
</g>
<!-- Node17&#45;&gt;Node12 -->
<g id="edge20_Node000012_Node000017" class="edge">
<title>Node17&#45;&gt;Node12</title>
<g id="a_edge20_Node000012_Node000017"><a xlink:title=" ">
<path fill="none" stroke="orange" stroke-dasharray="5,2" d="M390.29,-153.11C470.7,-155.92 608.24,-161.78 726,-172 837.14,-181.64 965.64,-198.42 1042.77,-209.1"/>
<polygon fill="orange" stroke="orange" points="390.41,-149.61 380.29,-152.76 390.17,-156.61 390.41,-149.61"/>
</a>
</g>
<text text-anchor="start" x="593" y="-177.5" font-family="Helvetica,sans-Serif" font-size="10.00" fill="grey">&lt; kynema_sgf::FieldInfo &gt;</text>
</g>
<!-- Node18&#45;&gt;Node2 -->
<g id="edge23_Node000002_Node000018" class="edge">
<title>Node18&#45;&gt;Node2</title>
<g id="a_edge23_Node000002_Node000018"><a xlink:title=" ">
<path fill="none" stroke="#9a32cd" stroke-dasharray="5,2" d="M1621.56,-114.72C1651.09,-112.8 1684.5,-110.94 1715,-110 1782.97,-107.9 1800.28,-103.79 1868,-110 1921.55,-114.91 1981.47,-126.38 2025.48,-135.94"/>
<polygon fill="#9a32cd" stroke="#9a32cd" points="1621.04,-111.25 1611.29,-115.4 1621.5,-118.23 1621.04,-111.25"/>
</a>
</g>
<text text-anchor="start" x="1765.5" y="-115.5" font-family="Helvetica,sans-Serif" font-size="10.00" fill="grey">m_options</text>
</g>
<!-- Node18&#45;&gt;Node20 -->
<g id="edge30_Node000020_Node000018" class="edge">
<title>Node18&#45;&gt;Node20</title>
<g id="a_edge30_Node000020_Node000018"><a xlink:title=" ">
<path fill="none" stroke="#9a32cd" stroke-dasharray="5,2" d="M1621.05,-127.82C1645.56,-130.1 1672.39,-132.87 1697,-136 1702.79,-136.74 1708.77,-137.56 1714.78,-138.42"/>
<polygon fill="#9a32cd" stroke="#9a32cd" points="1621.34,-124.33 1611.06,-126.91 1620.7,-131.3 1621.34,-124.33"/>
</a>
</g>
<text text-anchor="start" x="1638" y="-141.5" font-family="Helvetica,sans-Serif" font-size="10.00" fill="grey">m_options</text>
</g>
<!-- Node19&#45;&gt;Node2 -->
<g id="edge25_Node000002_Node000019" class="edge">
<title>Node19&#45;&gt;Node2</title>
<g id="a_edge25_Node000002_Node000019"><a xlink:title=" ">
<path fill="none" stroke="#9a32cd" stroke-dasharray="5,2" d="M728.12,-13.53C787.9,-12.39 876.65,-11 954,-11 954,-11 954,-11 1792.5,-11 1850.5,-11 2003.96,-99.47 2064.47,-135.75"/>
<polygon fill="#9a32cd" stroke="#9a32cd" points="727.98,-10.04 718.05,-13.73 728.11,-17.03 727.98,-10.04"/>
</a>
</g>
<text text-anchor="start" x="1290" y="-32" font-family="Helvetica,sans-Serif" font-size="10.00" fill="grey">m_applier</text>
<text text-anchor="start" x="1290" y="-17" font-family="Helvetica,sans-Serif" font-size="10.00" fill="grey">m_solver</text>
</g>
<!-- Node20&#45;&gt;Node2 -->
<g id="edge27_Node000002_Node000020" class="edge">
<title>Node20&#45;&gt;Node2</title>
<g id="a_edge27_Node000002_Node000020"><a xlink:title=" ">
<path fill="none" stroke="orange" stroke-dasharray="5,2" d="M1878.35,-151C1921.2,-151 1972.58,-151 2013.92,-151"/>
<polygon fill="orange" stroke="orange" points="1878.21,-147.5 1868.21,-151 1878.21,-154.5 1878.21,-147.5"/>
</a>
</g>
<text text-anchor="start" x="1889" y="-156.5" font-family="Helvetica,sans-Serif" font-size="10.00" fill="grey">&lt; PDE::MLDiffOp &gt;</text>
</g>
<!-- Node21&#45;&gt;Node20 -->
<g id="edge31_Node000020_Node000021" class="edge">
<title>Node21&#45;&gt;Node20</title>
<g id="a_edge31_Node000020_Node000021"><a xlink:title=" ">
<path fill="none" stroke="#9a32cd" stroke-dasharray="5,2" d="M1035.24,-72.51C1159.26,-69.91 1406.45,-69.9 1613,-102 1651.25,-107.94 1659.96,-113.76 1697,-125 1705.07,-127.45 1706.92,-128.59 1715,-131 1720.59,-132.67 1726.43,-134.34 1732.28,-135.97"/>
<polygon fill="#9a32cd" stroke="#9a32cd" points="1034.99,-69.02 1025.07,-72.74 1035.15,-76.02 1034.99,-69.02"/>
</a>
</g>
<text text-anchor="start" x="1290" y="-99" font-family="Helvetica,sans-Serif" font-size="10.00" fill="grey">m_applier</text>
<text text-anchor="start" x="1290" y="-84" font-family="Helvetica,sans-Serif" font-size="10.00" fill="grey">m_solver</text>
</g>
<!-- Node22 -->
<g id="Node000022" class="node">
<title>Node22</title>
<g id="a_Node000022"><a xlink:href="structkynema__sgf_1_1pde_1_1_diffusion_op.html" target="_top" xlink:title=" ">
<polygon fill="white" stroke="#666666" points="2177,-89 2004,-89 2004,-59 2177,-59 2177,-89"/>
<text text-anchor="start" x="2012" y="-77" font-family="Helvetica,sans-Serif" font-size="10.00">kynema_sgf::pde::Diffusion</text>
<text text-anchor="middle" x="2090.5" y="-66" font-family="Helvetica,sans-Serif" font-size="10.00">Op&lt; PDE, Scheme, typename &gt;</text>
</a>
</g>
</g>
<!-- Node22&#45;&gt;Node1 -->
<g id="edge33_Node000001_Node000022" class="edge">
<title>Node22&#45;&gt;Node1</title>
<g id="a_edge33_Node000001_Node000022"><a xlink:title=" ">
<path fill="none" stroke="orange" stroke-dasharray="5,2" d="M2187.3,-67.94C2238.75,-66.3 2303.12,-66.84 2360,-75 2376.72,-77.4 2394.31,-81.44 2410.91,-85.99"/>
<polygon fill="orange" stroke="orange" points="2187.06,-64.45 2177.19,-68.3 2187.31,-71.45 2187.06,-64.45"/>
</a>
</g>
<text text-anchor="start" x="2198.5" y="-126" font-family="Helvetica,sans-Serif" font-size="10.00" fill="grey">&lt; PDE, Scheme, std</text>
<text text-anchor="start" x="2198.5" y="-111" font-family="Helvetica,sans-Serif" font-size="10.00" fill="grey">  ::enable_if_t&lt; std::</text>
<text text-anchor="start" x="2198.5" y="-96" font-family="Helvetica,sans-Serif" font-size="10.00" fill="grey">  is_base_of_v&lt; ScalarTransport,</text>
<text text-anchor="start" x="2198.5" y="-81" font-family="Helvetica,sans-Serif" font-size="10.00" fill="grey">   PDE &gt; &gt; &gt;</text>
</g>
</g>
</svg>

<g id="navigator" transform="translate(0 0)" fill="#404254">
  <rect fill="#f2f5e9" fill-opacity="0.5" stroke="#606060" stroke-width=".5" x="0" y="0" width="60" height="60"/>
  <use id="zoomplus" xlink:href="#zoomPlus" x="17" y="9" onmousedown="handleZoom(evt,'in')"/>
  <use id="zoomminus" xlink:href="#zoomMin" x="42" y="9" onmousedown="handleZoom(evt,'out')"/>
  <use id="reset" xlink:href="#resetDef" x="30" y="36" onmousedown="handleReset()"/>
   <use id="arrowup" xlink:href="#arrowUp" x="0" y="0" onmousedown="handlePan(0,-1)"/>
  <use id="arrowright" xlink:href="#arrowRight" x="0" y="0" onmousedown="handlePan(1,0)"/>
  <use id="arrowdown" xlink:href="#arrowDown" x="0" y="0" onmousedown="handlePan(0,1)"/>
  <use id="arrowleft" xlink:href="#arrowLeft" x="0" y="0" onmousedown="handlePan(-1,0)"/>
</g>
<svg viewBox="0 0 15 15" width="100%" height="30px" preserveAspectRatio="xMaxYMin meet">
 <g id="arrow_out" transform="scale(0.3 0.3)">
  <a xlink:href="structkynema__sgf_1_1pde_1_1_diffusion_op_3_01_p_d_e_00_01_scheme_00_01std_1_1enable__if__t_3_01060078fcbf97a63997631b88bf916477_org.svg" target="_base">
   <rect id="button" ry="5" rx="5" y="6" x="6" height="38" width="38"
        fill="#f2f5e9" fill-opacity="0.5" stroke="#606060" stroke-width="1.0"/>
   <path id="arrow"
     d="M 11.500037,31.436501 C 11.940474,20.09759 22.043105,11.32322 32.158766,21.979434 L 37.068811,17.246167 C 37.068811,17.246167 37.088388,32 37.088388,32 L 22.160133,31.978069 C 22.160133,31.978069 26.997745,27.140456 26.997745,27.140456 C 18.528582,18.264221 13.291696,25.230495 11.500037,31.436501 z"
     style="fill:#404040;"/>
  </a>
 </g>
</svg>

<style type='text/css'>
<![CDATA[
[data-mouse-over-selected='false'] { opacity: 0.7; }
[data-mouse-over-selected='true']  { opacity: 1.0; }
]]>
</style>
<script type="application/ecmascript"><![CDATA[
document.addEventListener('DOMContentLoaded', (event) => {
  highlightEdges();
  highlightAdjacentNodes();
});
]]></script>
</svg>
