<?xml version="1.0" encoding="UTF-8" standalone="no"?>
<!DOCTYPE svg PUBLIC "-//W3C//DTD SVG 1.1//EN"
 "http://www.w3.org/Graphics/SVG/1.1/DTD/svg11.dtd">
<!-- Generated by graphviz version 2.43.0 (0)
 -->
<!-- Title: kynema_sgf::pde::DiffusionOp&lt; SDR, Scheme &gt; Pages: 1 -->
<svg width="2513pt" height="512pt"
 viewBox="0.00 0.00 2513.00 512.00" xmlns="http://www.w3.org/2000/svg" xmlns:xlink="http://www.w3.org/1999/xlink">
<g id="graph0" class="graph" transform="scale(1 1) rotate(0) translate(4 508)">
<title>kynema_sgf::pde::DiffusionOp&lt; SDR, Scheme &gt;</title>
<!-- Node1 -->
<g id="Node000001" class="node">
<title>Node1</title>
<g id="a_Node000001"><a xlink:title=" ">
<polygon fill="#999999" stroke="#666666" points="2505,-127 2356,-127 2356,-97 2505,-97 2505,-127"/>
<text text-anchor="start" x="2364" y="-115" font-family="Helvetica,sans-Serif" font-size="10.00">kynema_sgf::pde::Diffusion</text>
<text text-anchor="middle" x="2430.5" y="-104" font-family="Helvetica,sans-Serif" font-size="10.00">Op&lt; SDR, Scheme &gt;</text>
</a>
</g>
</g>
<!-- Node2 -->
<g id="Node000002" class="node">
<title>Node2</title>
<g id="a_Node000002"><a xlink:href="classkynema__sgf_1_1pde_1_1_diff_solver_iface.html" target="_top" xlink:title=" ">
<polygon fill="white" stroke="#666666" points="2216,-205 2063,-205 2063,-175 2216,-175 2216,-205"/>
<text text-anchor="start" x="2071" y="-193" font-family="Helvetica,sans-Serif" font-size="10.00">kynema_sgf::pde::DiffSolver</text>
<text text-anchor="middle" x="2139.5" y="-182" font-family="Helvetica,sans-Serif" font-size="10.00">Iface&lt; SDR::MLDiffOp &gt;</text>
</a>
</g>
</g>
<!-- Node2&#45;&gt;Node1 -->
<g id="edge1_Node000001_Node000002" class="edge">
<title>Node2&#45;&gt;Node1</title>
<g id="a_edge1_Node000001_Node000002"><a xlink:title=" ">
<path fill="none" stroke="#63b8ff" d="M2206.06,-172.31C2256.53,-158.68 2325.54,-140.06 2373.46,-127.13"/>
<polygon fill="#63b8ff" stroke="#63b8ff" points="2204.96,-168.98 2196.22,-174.96 2206.79,-175.73 2204.96,-168.98"/>
</a>
</g>
</g>
<!-- Node3 -->
<g id="Node000003" class="node">
<title>Node3</title>
<g id="a_Node000003"><a xlink:href="structkynema__sgf_1_1pde_1_1_p_d_e_fields.html" target="_top" xlink:title=" ">
<polygon fill="white" stroke="#666666" points="1662,-205.5 1509,-205.5 1509,-186.5 1662,-186.5 1662,-205.5"/>
<text text-anchor="middle" x="1585.5" y="-193.5" font-family="Helvetica,sans-Serif" font-size="10.00">kynema_sgf::pde::PDEFields</text>
</a>
</g>
</g>
<!-- Node3&#45;&gt;Node2 -->
<g id="edge2_Node000002_Node000003" class="edge">
<title>Node3&#45;&gt;Node2</title>
<g id="a_edge2_Node000002_Node000003"><a xlink:title=" ">
<path fill="none" stroke="#9a32cd" stroke-dasharray="5,2" d="M1672.49,-185.51C1701.51,-182.45 1734.11,-179.51 1764,-178 1867.46,-172.77 1987.12,-178.69 2062.79,-183.91"/>
<polygon fill="#9a32cd" stroke="#9a32cd" points="1671.95,-182.05 1662.38,-186.6 1672.7,-189.01 1671.95,-182.05"/>
</a>
</g>
<text text-anchor="start" x="1810.5" y="-183.5" font-family="Helvetica,sans-Serif" font-size="10.00" fill="grey">m_pdefields</text>
</g>
<!-- Node20 -->
<g id="Node000020" class="node">
<title>Node20</title>
<g id="a_Node000020"><a xlink:href="classkynema__sgf_1_1pde_1_1_diff_solver_iface.html" target="_top" xlink:title=" ">
<polygon fill="white" stroke="#666666" points="1917,-234 1764,-234 1764,-204 1917,-204 1917,-234"/>
<text text-anchor="start" x="1772" y="-222" font-family="Helvetica,sans-Serif" font-size="10.00">kynema_sgf::pde::DiffSolver</text>
<text text-anchor="middle" x="1840.5" y="-211" font-family="Helvetica,sans-Serif" font-size="10.00">Iface&lt; LinOp &gt;</text>
</a>
</g>
</g>
<!-- Node3&#45;&gt;Node20 -->
<g id="edge28_Node000020_Node000003" class="edge">
<title>Node3&#45;&gt;Node20</title>
<g id="a_edge28_Node000020_Node000003"><a xlink:title=" ">
<path fill="none" stroke="#9a32cd" stroke-dasharray="5,2" d="M1672.22,-197.78C1696.15,-198.82 1722.13,-200.44 1746,-203 1751.81,-203.62 1757.81,-204.38 1763.83,-205.22"/>
<polygon fill="#9a32cd" stroke="#9a32cd" points="1672.24,-194.28 1662.1,-197.37 1671.95,-201.27 1672.24,-194.28"/>
</a>
</g>
<text text-anchor="start" x="1683" y="-208.5" font-family="Helvetica,sans-Serif" font-size="10.00" fill="grey">m_pdefields</text>
</g>
<!-- Node4 -->
<g id="Node000004" class="node">
<title>Node4</title>
<g id="a_Node000004"><a xlink:href="classkynema__sgf_1_1_field_repo.html" target="_top" xlink:title=" ">
<polygon fill="white" stroke="#666666" points="1190.5,-206.5 1061.5,-206.5 1061.5,-187.5 1190.5,-187.5 1190.5,-206.5"/>
<text text-anchor="middle" x="1126" y="-194.5" font-family="Helvetica,sans-Serif" font-size="10.00">kynema_sgf::FieldRepo</text>
</a>
</g>
</g>
<!-- Node4&#45;&gt;Node3 -->
<g id="edge3_Node000003_Node000004" class="edge">
<title>Node4&#45;&gt;Node3</title>
<g id="a_edge3_Node000003_Node000004"><a xlink:title=" ">
<path fill="none" stroke="#9a32cd" stroke-dasharray="5,2" d="M1191.77,-208.14C1280.56,-222.63 1435.4,-244.87 1491,-234 1518.69,-228.59 1548.53,-214.95 1566.87,-205.58"/>
<polygon fill="#9a32cd" stroke="#9a32cd" points="1192.24,-204.67 1181.81,-206.5 1191.11,-211.58 1192.24,-204.67"/>
</a>
</g>
<text text-anchor="start" x="1334" y="-240.5" font-family="Helvetica,sans-Serif" font-size="10.00" fill="grey">repo</text>
</g>
<!-- Node11 -->
<g id="Node000011" class="node">
<title>Node11</title>
<g id="a_Node000011"><a xlink:href="classkynema__sgf_1_1_field.html" target="_top" xlink:title=" ">
<polygon fill="white" stroke="#666666" points="1397,-132.5 1293,-132.5 1293,-113.5 1397,-113.5 1397,-132.5"/>
<text text-anchor="middle" x="1345" y="-120.5" font-family="Helvetica,sans-Serif" font-size="10.00">kynema_sgf::Field</text>
</a>
</g>
</g>
<!-- Node4&#45;&gt;Node11 -->
<g id="edge11_Node000011_Node000004" class="edge">
<title>Node4&#45;&gt;Node11</title>
<g id="a_edge11_Node000011_Node000004"><a xlink:title=" ">
<path fill="none" stroke="#9a32cd" stroke-dasharray="5,2" d="M1166.29,-184.26C1192.12,-175.83 1226.63,-164.43 1257,-154 1277.47,-146.97 1300.55,-138.73 1317.79,-132.52"/>
<polygon fill="#9a32cd" stroke="#9a32cd" points="1164.92,-181.03 1156.49,-187.46 1167.09,-187.68 1164.92,-181.03"/>
</a>
</g>
<text text-anchor="start" x="1217.5" y="-174.5" font-family="Helvetica,sans-Serif" font-size="10.00" fill="grey">m_repo</text>
</g>
<!-- Node23 -->
<g id="Node000023" class="node">
<title>Node23</title>
<g id="a_Node000023"><a xlink:href="classkynema__sgf_1_1_scratch_field.html" target="_top" xlink:title=" ">
<polygon fill="white" stroke="#666666" points="1415,-320.5 1275,-320.5 1275,-301.5 1415,-301.5 1415,-320.5"/>
<text text-anchor="middle" x="1345" y="-308.5" font-family="Helvetica,sans-Serif" font-size="10.00">kynema_sgf::ScratchField</text>
</a>
</g>
</g>
<!-- Node4&#45;&gt;Node23 -->
<g id="edge36_Node000023_Node000004" class="edge">
<title>Node4&#45;&gt;Node23</title>
<g id="a_edge36_Node000023_Node000004"><a xlink:title=" ">
<path fill="none" stroke="#9a32cd" stroke-dasharray="5,2" d="M1166.86,-209.95C1176.54,-213.51 1186.77,-217.6 1196,-222 1247.7,-246.63 1304.64,-284.05 1330.22,-301.46"/>
<polygon fill="#9a32cd" stroke="#9a32cd" points="1168,-206.65 1157.41,-206.59 1165.65,-213.24 1168,-206.65"/>
</a>
</g>
<text text-anchor="start" x="1217.5" y="-258.5" font-family="Helvetica,sans-Serif" font-size="10.00" fill="grey">m_repo</text>
</g>
<!-- Node5 -->
<g id="Node000005" class="node">
<title>Node5</title>
<g id="a_Node000005"><a xlink:title=" ">
<polygon fill="white" stroke="#666666" points="866.5,-216 744.5,-216 744.5,-186 866.5,-186 866.5,-216"/>
<text text-anchor="start" x="752.5" y="-204" font-family="Helvetica,sans-Serif" font-size="10.00">std::unordered_map</text>
<text text-anchor="middle" x="805.5" y="-193" font-family="Helvetica,sans-Serif" font-size="10.00">&lt; std::string, size_t &gt;</text>
</a>
</g>
</g>
<!-- Node5&#45;&gt;Node4 -->
<g id="edge4_Node000004_Node000005" class="edge">
<title>Node5&#45;&gt;Node4</title>
<g id="a_edge4_Node000004_Node000005"><a xlink:title=" ">
<path fill="none" stroke="#9a32cd" stroke-dasharray="5,2" d="M877.18,-198.19C879.82,-198.12 882.43,-198.05 885,-198 944.78,-196.73 1012.95,-196.57 1061.32,-196.68"/>
<polygon fill="#9a32cd" stroke="#9a32cd" points="876.82,-194.7 866.92,-198.48 877.02,-201.69 876.82,-194.7"/>
</a>
</g>
<text text-anchor="start" x="925.5" y="-219" font-family="Helvetica,sans-Serif" font-size="10.00" fill="grey">m_fid_map</text>
<text text-anchor="start" x="925.5" y="-204" font-family="Helvetica,sans-Serif" font-size="10.00" fill="grey">m_int_fid_map</text>
</g>
<!-- Node6 -->
<g id="Node000006" class="node">
<title>Node6</title>
<g id="a_Node000006"><a xlink:title=" ">
<polygon fill="white" stroke="#666666" points="524.5,-210.5 459.5,-210.5 459.5,-191.5 524.5,-191.5 524.5,-210.5"/>
<text text-anchor="middle" x="492" y="-198.5" font-family="Helvetica,sans-Serif" font-size="10.00">std::string</text>
</a>
</g>
</g>
<!-- Node6&#45;&gt;Node5 -->
<g id="edge5_Node000005_Node000006" class="edge">
<title>Node6&#45;&gt;Node5</title>
<g id="a_edge5_Node000005_Node000006"><a xlink:title=" ">
<path fill="none" stroke="#9a32cd" stroke-dasharray="5,2" d="M534.8,-201C588.7,-201 682.8,-201 744.37,-201"/>
<polygon fill="#9a32cd" stroke="#9a32cd" points="534.58,-197.5 524.58,-201 534.58,-204.5 534.58,-197.5"/>
</a>
</g>
<text text-anchor="start" x="647" y="-206.5" font-family="Helvetica,sans-Serif" font-size="10.00" fill="grey">keys</text>
</g>
<!-- Node6&#45;&gt;Node11 -->
<g id="edge12_Node000011_Node000006" class="edge">
<title>Node6&#45;&gt;Node11</title>
<g id="a_edge12_Node000011_Node000006"><a xlink:title=" ">
<path fill="none" stroke="#9a32cd" stroke-dasharray="5,2" d="M534.76,-196.94C584.56,-192.1 670.35,-183.84 744,-177 947.07,-158.15 1188.91,-136.69 1292.62,-127.53"/>
<polygon fill="#9a32cd" stroke="#9a32cd" points="534.31,-193.46 524.69,-197.91 534.98,-200.43 534.31,-193.46"/>
</a>
</g>
<text text-anchor="start" x="940.5" y="-169.5" font-family="Helvetica,sans-Serif" font-size="10.00" fill="grey">m_name</text>
</g>
<!-- Node13 -->
<g id="Node000013" class="node">
<title>Node13</title>
<g id="a_Node000013"><a xlink:href="structkynema__sgf_1_1_field_info.html" target="_top" xlink:title=" ">
<polygon fill="white" stroke="#666666" points="867,-109.5 744,-109.5 744,-90.5 867,-90.5 867,-109.5"/>
<text text-anchor="middle" x="805.5" y="-97.5" font-family="Helvetica,sans-Serif" font-size="10.00">kynema_sgf::FieldInfo</text>
</a>
</g>
</g>
<!-- Node6&#45;&gt;Node13 -->
<g id="edge15_Node000013_Node000006" class="edge">
<title>Node6&#45;&gt;Node13</title>
<g id="a_edge15_Node000013_Node000006"><a xlink:title=" ">
<path fill="none" stroke="#9a32cd" stroke-dasharray="5,2" d="M532.55,-187.49C546.02,-181.65 560.54,-173.86 572,-164 582.93,-154.59 577.9,-144.85 590,-137 641.44,-103.65 665.6,-124.49 726,-114 734.18,-112.58 742.84,-111.05 751.31,-109.55"/>
<polygon fill="#9a32cd" stroke="#9a32cd" points="530.93,-184.37 523,-191.4 533.58,-190.85 530.93,-184.37"/>
</a>
</g>
<text text-anchor="start" x="625" y="-142.5" font-family="Helvetica,sans-Serif" font-size="10.00" fill="grey">m_basename</text>
</g>
<!-- Node18 -->
<g id="Node000018" class="node">
<title>Node18</title>
<g id="a_Node000018"><a xlink:href="structkynema__sgf_1_1_m_l_m_g_options.html" target="_top" xlink:title=" ">
<polygon fill="white" stroke="#666666" points="1660,-282.5 1511,-282.5 1511,-263.5 1660,-263.5 1660,-282.5"/>
<text text-anchor="middle" x="1585.5" y="-270.5" font-family="Helvetica,sans-Serif" font-size="10.00">kynema_sgf::MLMGOptions</text>
</a>
</g>
</g>
<!-- Node6&#45;&gt;Node18 -->
<g id="edge24_Node000018_Node000006" class="edge">
<title>Node6&#45;&gt;Node18</title>
<g id="a_edge24_Node000018_Node000006"><a xlink:title=" ">
<path fill="none" stroke="#9a32cd" stroke-dasharray="5,2" d="M534.85,-211.54C551.86,-215.43 571.76,-219.5 590,-222 865.25,-259.73 936.51,-245.53 1214,-259 1316.87,-263.99 1435.88,-268.21 1510.67,-270.68"/>
<polygon fill="#9a32cd" stroke="#9a32cd" points="535.21,-208.02 524.67,-209.15 533.61,-214.84 535.21,-208.02"/>
</a>
</g>
<text text-anchor="start" x="1070" y="-293.5" font-family="Helvetica,sans-Serif" font-size="10.00" fill="grey">m_bottom_solver_type</text>
<text text-anchor="start" x="1070" y="-278.5" font-family="Helvetica,sans-Serif" font-size="10.00" fill="grey">m_hypre_interface</text>
<text text-anchor="start" x="1070" y="-263.5" font-family="Helvetica,sans-Serif" font-size="10.00" fill="grey">m_hypre_namespace</text>
</g>
<!-- Node6&#45;&gt;Node23 -->
<g id="edge37_Node000023_Node000006" class="edge">
<title>Node6&#45;&gt;Node23</title>
<g id="a_edge37_Node000023_Node000006"><a xlink:title=" ">
<path fill="none" stroke="#9a32cd" stroke-dasharray="5,2" d="M513.07,-216.49C531.84,-230.04 561.21,-248.93 590,-258 832.5,-334.41 1139.82,-325.52 1274.95,-316.68"/>
<polygon fill="#9a32cd" stroke="#9a32cd" points="515.12,-213.65 505,-210.52 510.95,-219.28 515.12,-213.65"/>
</a>
</g>
<text text-anchor="start" x="940.5" y="-326.5" font-family="Helvetica,sans-Serif" font-size="10.00" fill="grey">m_name</text>
</g>
<!-- Node7 -->
<g id="Node000007" class="node">
<title>Node7</title>
<g id="a_Node000007"><a xlink:title=" ">
<polygon fill="white" stroke="#666666" points="209.5,-216 105.5,-216 105.5,-186 209.5,-186 209.5,-216"/>
<text text-anchor="start" x="113.5" y="-204" font-family="Helvetica,sans-Serif" font-size="10.00">std::basic_string&lt;</text>
<text text-anchor="middle" x="157.5" y="-193" font-family="Helvetica,sans-Serif" font-size="10.00"> Char &gt;</text>
</a>
</g>
</g>
<!-- Node7&#45;&gt;Node6 -->
<g id="edge6_Node000006_Node000007" class="edge">
<title>Node7&#45;&gt;Node6</title>
<g id="a_edge6_Node000006_Node000007"><a xlink:title=" ">
<path fill="none" stroke="#63b8ff" d="M219.85,-201C290.64,-201 404.34,-201 459.27,-201"/>
<polygon fill="#63b8ff" stroke="#63b8ff" points="219.72,-197.5 209.72,-201 219.72,-204.5 219.72,-197.5"/>
</a>
</g>
</g>
<!-- Node8 -->
<g id="Node000008" class="node">
<title>Node8</title>
<g id="a_Node000008"><a xlink:title=" ">
<polygon fill="white" stroke="#666666" points="549,-344 435,-344 435,-314 549,-314 549,-344"/>
<text text-anchor="start" x="443" y="-332" font-family="Helvetica,sans-Serif" font-size="10.00">std::unordered_map</text>
<text text-anchor="middle" x="492" y="-321" font-family="Helvetica,sans-Serif" font-size="10.00">&lt; K, T &gt;</text>
</a>
</g>
</g>
<!-- Node8&#45;&gt;Node5 -->
<g id="edge7_Node000005_Node000008" class="edge">
<title>Node8&#45;&gt;Node5</title>
<g id="a_edge7_Node000005_Node000008"><a xlink:title=" ">
<path fill="none" stroke="orange" stroke-dasharray="5,2" d="M539.22,-310.01C601.52,-284.41 711.14,-239.36 767.99,-216"/>
<polygon fill="orange" stroke="orange" points="537.57,-306.9 529.65,-313.94 540.23,-313.38 537.57,-306.9"/>
</a>
</g>
<text text-anchor="start" x="605" y="-292.5" font-family="Helvetica,sans-Serif" font-size="10.00" fill="grey">&lt; std::string, size_t &gt;</text>
</g>
<!-- Node9 -->
<g id="Node000009" class="node">
<title>Node9</title>
<g id="a_Node000009"><a xlink:title=" ">
<polygon fill="white" stroke="#666666" points="172,-298.5 143,-298.5 143,-279.5 172,-279.5 172,-298.5"/>
<text text-anchor="middle" x="157.5" y="-286.5" font-family="Helvetica,sans-Serif" font-size="10.00">K</text>
</a>
</g>
</g>
<!-- Node9&#45;&gt;Node8 -->
<g id="edge8_Node000008_Node000009" class="edge">
<title>Node9&#45;&gt;Node8</title>
<g id="a_edge8_Node000008_Node000009"><a xlink:title=" ">
<path fill="none" stroke="#9a32cd" stroke-dasharray="5,2" d="M182.36,-289.04C225.07,-289.44 317.31,-291.79 394,-304 409.11,-306.41 425.3,-310.11 440.03,-313.94"/>
<polygon fill="#9a32cd" stroke="#9a32cd" points="182.16,-285.54 172.14,-288.97 182.12,-292.54 182.16,-285.54"/>
</a>
</g>
<text text-anchor="start" x="310" y="-309.5" font-family="Helvetica,sans-Serif" font-size="10.00" fill="grey">keys</text>
</g>
<!-- Node10 -->
<g id="Node000010" class="node">
<title>Node10</title>
<g id="a_Node000010"><a xlink:title=" ">
<polygon fill="white" stroke="#666666" points="29,-344.5 0,-344.5 0,-325.5 29,-325.5 29,-344.5"/>
<text text-anchor="middle" x="14.5" y="-332.5" font-family="Helvetica,sans-Serif" font-size="10.00">T</text>
</a>
</g>
</g>
<!-- Node10&#45;&gt;Node8 -->
<g id="edge9_Node000008_Node000010" class="edge">
<title>Node10&#45;&gt;Node8</title>
<g id="a_edge9_Node000008_Node000010"><a xlink:title=" ">
<path fill="none" stroke="#9a32cd" stroke-dasharray="5,2" d="M39.6,-334.7C112.33,-333.78 331.01,-331.02 434.95,-329.71"/>
<polygon fill="#9a32cd" stroke="#9a32cd" points="39.17,-331.2 29.22,-334.83 39.26,-338.2 39.17,-331.2"/>
</a>
</g>
<text text-anchor="start" x="134.5" y="-339.5" font-family="Helvetica,sans-Serif" font-size="10.00" fill="grey">elements</text>
</g>
<!-- Node16 -->
<g id="Node000016" class="node">
<title>Node16</title>
<g id="a_Node000016"><a xlink:title=" ">
<polygon fill="white" stroke="#666666" points="216.5,-389.5 98.5,-389.5 98.5,-370.5 216.5,-370.5 216.5,-389.5"/>
<text text-anchor="middle" x="157.5" y="-377.5" font-family="Helvetica,sans-Serif" font-size="10.00">std::unique_ptr&lt; T &gt;</text>
</a>
</g>
</g>
<!-- Node10&#45;&gt;Node16 -->
<g id="edge19_Node000016_Node000010" class="edge">
<title>Node10&#45;&gt;Node16</title>
<g id="a_edge19_Node000016_Node000010"><a xlink:title=" ">
<path fill="none" stroke="#9a32cd" stroke-dasharray="5,2" d="M38.45,-345.65C41.31,-346.84 44.2,-347.99 47,-349 70.13,-357.37 96.66,-364.93 117.82,-370.49"/>
<polygon fill="#9a32cd" stroke="#9a32cd" points="39.69,-342.37 29.13,-341.56 36.88,-348.78 39.69,-342.37"/>
</a>
</g>
<text text-anchor="start" x="50" y="-360.5" font-family="Helvetica,sans-Serif" font-size="10.00" fill="grey">ptr</text>
</g>
<!-- Node17 -->
<g id="Node000017" class="node">
<title>Node17</title>
<g id="a_Node000017"><a xlink:title=" ">
<polygon fill="white" stroke="#666666" points="380,-72.5 262,-72.5 262,-53.5 380,-53.5 380,-72.5"/>
<text text-anchor="middle" x="321" y="-60.5" font-family="Helvetica,sans-Serif" font-size="10.00">std::shared_ptr&lt; T &gt;</text>
</a>
</g>
</g>
<!-- Node10&#45;&gt;Node17 -->
<g id="edge21_Node000017_Node000010" class="edge">
<title>Node10&#45;&gt;Node17</title>
<g id="a_edge21_Node000017_Node000010"><a xlink:title=" ">
<path fill="none" stroke="#9a32cd" stroke-dasharray="5,2" d="M15.6,-315.38C16.94,-272.44 26.46,-169.73 85,-116 132.91,-72.02 209.32,-61.91 261.93,-60.76"/>
<polygon fill="#9a32cd" stroke="#9a32cd" points="12.1,-315.31 15.41,-325.38 19.1,-315.45 12.1,-315.31"/>
</a>
</g>
<text text-anchor="start" x="50" y="-171.5" font-family="Helvetica,sans-Serif" font-size="10.00" fill="grey">ptr</text>
</g>
<!-- Node11&#45;&gt;Node1 -->
<g id="edge33_Node000001_Node000011" class="edge">
<title>Node11&#45;&gt;Node1</title>
<g id="a_edge33_Node000001_Node000011"><a xlink:title=" ">
<path fill="none" stroke="#9a32cd" stroke-dasharray="5,2" d="M1375.89,-109.33C1420.38,-90.26 1507.1,-58 1584.5,-58 1584.5,-58 1584.5,-58 2140.5,-58 2225.74,-58 2322.75,-80.98 2379.9,-96.96"/>
<polygon fill="#9a32cd" stroke="#9a32cd" points="1374.31,-106.2 1366.54,-113.41 1377.11,-112.62 1374.31,-106.2"/>
</a>
</g>
<text text-anchor="start" x="1801.5" y="-63.5" font-family="Helvetica,sans-Serif" font-size="10.00" fill="grey">m_lhs_src_term</text>
</g>
<!-- Node11&#45;&gt;Node2 -->
<g id="edge22_Node000002_Node000011" class="edge">
<title>Node11&#45;&gt;Node2</title>
<g id="a_edge22_Node000002_Node000011"><a xlink:title=" ">
<path fill="none" stroke="#9a32cd" stroke-dasharray="5,2" d="M1407.06,-124.86C1432.95,-125.71 1463.45,-126.8 1491,-128 1733.41,-138.56 1794.3,-143.34 2035,-174 2044.02,-175.15 2053.46,-176.46 2062.82,-177.82"/>
<polygon fill="#9a32cd" stroke="#9a32cd" points="1407.12,-121.36 1397.01,-124.53 1406.89,-128.36 1407.12,-121.36"/>
</a>
</g>
<text text-anchor="start" x="1687" y="-147.5" font-family="Helvetica,sans-Serif" font-size="10.00" fill="grey">m_density</text>
</g>
<!-- Node11&#45;&gt;Node3 -->
<g id="edge10_Node000003_Node000011" class="edge">
<title>Node11&#45;&gt;Node3</title>
<g id="a_edge10_Node000003_Node000011"><a xlink:title=" ">
<path fill="none" stroke="#9a32cd" stroke-dasharray="5,2" d="M1406.79,-134.59C1433.01,-140.27 1463.83,-147.87 1491,-157 1499.3,-159.79 1500.95,-161.56 1509,-165 1526.2,-172.35 1545.73,-180.36 1560.62,-186.4"/>
<polygon fill="#9a32cd" stroke="#9a32cd" points="1407.49,-131.16 1396.98,-132.51 1406.04,-138.01 1407.49,-131.16"/>
</a>
</g>
<text text-anchor="start" x="1436" y="-222.5" font-family="Helvetica,sans-Serif" font-size="10.00" fill="grey">conv_term</text>
<text text-anchor="start" x="1436" y="-207.5" font-family="Helvetica,sans-Serif" font-size="10.00" fill="grey">diff_term</text>
<text text-anchor="start" x="1436" y="-192.5" font-family="Helvetica,sans-Serif" font-size="10.00" fill="grey">field</text>
<text text-anchor="start" x="1436" y="-177.5" font-family="Helvetica,sans-Serif" font-size="10.00" fill="grey">mueff</text>
<text text-anchor="start" x="1436" y="-162.5" font-family="Helvetica,sans-Serif" font-size="10.00" fill="grey">src_term</text>
</g>
<!-- Node11&#45;&gt;Node20 -->
<g id="edge29_Node000020_Node000011" class="edge">
<title>Node11&#45;&gt;Node20</title>
<g id="a_edge29_Node000020_Node000011"><a xlink:title=" ">
<path fill="none" stroke="#9a32cd" stroke-dasharray="5,2" d="M1407.09,-128.98C1432.98,-131.6 1463.48,-134.81 1491,-138 1567.12,-146.83 1587.69,-141.3 1662,-160 1709.07,-171.85 1717.81,-184.1 1764,-199 1769.29,-200.71 1774.82,-202.38 1780.39,-203.99"/>
<polygon fill="#9a32cd" stroke="#9a32cd" points="1407.33,-125.49 1397.03,-127.97 1406.63,-132.45 1407.33,-125.49"/>
</a>
</g>
<text text-anchor="start" x="1559.5" y="-165.5" font-family="Helvetica,sans-Serif" font-size="10.00" fill="grey">m_density</text>
</g>
<!-- Node12 -->
<g id="Node000012" class="node">
<title>Node12</title>
<g id="a_Node000012"><a xlink:title=" ">
<polygon fill="white" stroke="#666666" points="1196,-115 1056,-115 1056,-85 1196,-85 1196,-115"/>
<text text-anchor="start" x="1064" y="-103" font-family="Helvetica,sans-Serif" font-size="10.00">std::shared_ptr&lt; kynema</text>
<text text-anchor="middle" x="1126" y="-92" font-family="Helvetica,sans-Serif" font-size="10.00">_sgf::FieldInfo &gt;</text>
</a>
</g>
</g>
<!-- Node12&#45;&gt;Node11 -->
<g id="edge13_Node000011_Node000012" class="edge">
<title>Node12&#45;&gt;Node11</title>
<g id="a_edge13_Node000011_Node000012"><a xlink:title=" ">
<path fill="none" stroke="#9a32cd" stroke-dasharray="5,2" d="M1206.47,-106.91C1223.17,-108.48 1240.67,-110.21 1257,-112 1268.65,-113.27 1281.17,-114.78 1292.97,-116.26"/>
<polygon fill="#9a32cd" stroke="#9a32cd" points="1206.48,-103.39 1196.2,-105.95 1205.83,-110.36 1206.48,-103.39"/>
</a>
</g>
<text text-anchor="start" x="1218.5" y="-117.5" font-family="Helvetica,sans-Serif" font-size="10.00" fill="grey">m_info</text>
</g>
<!-- Node13&#45;&gt;Node12 -->
<g id="edge14_Node000012_Node000013" class="edge">
<title>Node13&#45;&gt;Node12</title>
<g id="a_edge14_Node000012_Node000013"><a xlink:title=" ">
<path fill="none" stroke="#9a32cd" stroke-dasharray="5,2" d="M877.21,-100C930.48,-100 1003.14,-100 1055.99,-100"/>
<polygon fill="#9a32cd" stroke="#9a32cd" points="877.16,-96.5 867.16,-100 877.16,-103.5 877.16,-96.5"/>
</a>
</g>
<text text-anchor="start" x="954.5" y="-105.5" font-family="Helvetica,sans-Serif" font-size="10.00" fill="grey">ptr</text>
</g>
<!-- Node14 -->
<g id="Node000014" class="node">
<title>Node14</title>
<g id="a_Node000014"><a xlink:title=" ">
<polygon fill="white" stroke="#666666" points="572,-155 412,-155 412,-125 572,-125 572,-155"/>
<text text-anchor="start" x="420" y="-143" font-family="Helvetica,sans-Serif" font-size="10.00">std::unique_ptr&lt; kynema</text>
<text text-anchor="middle" x="492" y="-132" font-family="Helvetica,sans-Serif" font-size="10.00">_sgf::FieldFillPatchOpsBase &gt;</text>
</a>
</g>
</g>
<!-- Node14&#45;&gt;Node13 -->
<g id="edge16_Node000013_Node000014" class="edge">
<title>Node14&#45;&gt;Node13</title>
<g id="a_edge16_Node000013_Node000014"><a xlink:title=" ">
<path fill="none" stroke="#9a32cd" stroke-dasharray="5,2" d="M528.08,-120.19C546,-111.19 568.52,-101.55 590,-97 641.01,-86.2 700.38,-88.11 743.71,-92.06"/>
<polygon fill="#9a32cd" stroke="#9a32cd" points="526.43,-117.1 519.16,-124.8 529.65,-123.32 526.43,-117.1"/>
</a>
</g>
<text text-anchor="start" x="622" y="-102.5" font-family="Helvetica,sans-Serif" font-size="10.00" fill="grey">m_fillpatch_op</text>
</g>
<!-- Node15 -->
<g id="Node000015" class="node">
<title>Node15</title>
<g id="a_Node000015"><a xlink:href="classkynema__sgf_1_1_field_fill_patch_ops_base.html" target="_top" xlink:title=" ">
<polygon fill="white" stroke="#666666" points="230,-155 85,-155 85,-125 230,-125 230,-155"/>
<text text-anchor="start" x="93" y="-143" font-family="Helvetica,sans-Serif" font-size="10.00">kynema_sgf::FieldFillPatch</text>
<text text-anchor="middle" x="157.5" y="-132" font-family="Helvetica,sans-Serif" font-size="10.00">OpsBase</text>
</a>
</g>
</g>
<!-- Node15&#45;&gt;Node14 -->
<g id="edge17_Node000014_Node000015" class="edge">
<title>Node15&#45;&gt;Node14</title>
<g id="a_edge17_Node000014_Node000015"><a xlink:title=" ">
<path fill="none" stroke="#9a32cd" stroke-dasharray="5,2" d="M240.48,-140C292.75,-140 360.12,-140 411.83,-140"/>
<polygon fill="#9a32cd" stroke="#9a32cd" points="240.24,-136.5 230.24,-140 240.24,-143.5 240.24,-136.5"/>
</a>
</g>
<text text-anchor="start" x="314" y="-145.5" font-family="Helvetica,sans-Serif" font-size="10.00" fill="grey">ptr</text>
</g>
<!-- Node16&#45;&gt;Node14 -->
<g id="edge18_Node000014_Node000016" class="edge">
<title>Node16&#45;&gt;Node14</title>
<g id="a_edge18_Node000014_Node000016"><a xlink:title=" ">
<path fill="none" stroke="orange" stroke-dasharray="5,2" d="M218.68,-365.63C222.9,-362.95 226.75,-359.77 230,-356 260.03,-321.11 220.02,-290.55 248,-254 289.43,-199.89 362.83,-170.4 418.15,-155.06"/>
<polygon fill="orange" stroke="orange" points="216.78,-362.68 209.6,-370.47 220.07,-368.86 216.78,-362.68"/>
</a>
</g>
<text text-anchor="start" x="251" y="-275" font-family="Helvetica,sans-Serif" font-size="10.00" fill="grey">&lt; kynema_sgf::FieldFillPatch</text>
<text text-anchor="start" x="251" y="-260" font-family="Helvetica,sans-Serif" font-size="10.00" fill="grey">  OpsBase &gt;</text>
</g>
<!-- Node19 -->
<g id="Node000019" class="node">
<title>Node19</title>
<g id="a_Node000019"><a xlink:title=" ">
<polygon fill="white" stroke="#666666" points="718.5,-440 597.5,-440 597.5,-410 718.5,-410 718.5,-440"/>
<text text-anchor="start" x="605.5" y="-428" font-family="Helvetica,sans-Serif" font-size="10.00">std::unique_ptr&lt; SDR</text>
<text text-anchor="middle" x="658" y="-417" font-family="Helvetica,sans-Serif" font-size="10.00">::MLDiffOp &gt;</text>
</a>
</g>
</g>
<!-- Node16&#45;&gt;Node19 -->
<g id="edge26_Node000019_Node000016" class="edge">
<title>Node16&#45;&gt;Node19</title>
<g id="a_edge26_Node000019_Node000016"><a xlink:title=" ">
<path fill="none" stroke="orange" stroke-dasharray="5,2" d="M225.24,-391.04C232.9,-392.13 240.61,-393.14 248,-394 371.79,-408.35 517.46,-417.57 597.25,-421.96"/>
<polygon fill="orange" stroke="orange" points="225.62,-387.56 215.22,-389.57 224.61,-394.48 225.62,-387.56"/>
</a>
</g>
<text text-anchor="start" x="274" y="-413.5" font-family="Helvetica,sans-Serif" font-size="10.00" fill="grey">&lt; SDR::MLDiffOp &gt;</text>
</g>
<!-- Node21 -->
<g id="Node000021" class="node">
<title>Node21</title>
<g id="a_Node000021"><a xlink:title=" ">
<polygon fill="white" stroke="#666666" points="1031.5,-377.5 891.5,-377.5 891.5,-358.5 1031.5,-358.5 1031.5,-377.5"/>
<text text-anchor="middle" x="961.5" y="-365.5" font-family="Helvetica,sans-Serif" font-size="10.00">std::unique_ptr&lt; LinOp &gt;</text>
</a>
</g>
</g>
<!-- Node16&#45;&gt;Node21 -->
<g id="edge32_Node000021_Node000016" class="edge">
<title>Node16&#45;&gt;Node21</title>
<g id="a_edge32_Node000021_Node000016"><a xlink:title=" ">
<path fill="none" stroke="orange" stroke-dasharray="5,2" d="M226.57,-378.98C377.61,-376.72 739.4,-371.31 891.39,-369.03"/>
<polygon fill="orange" stroke="orange" points="226.45,-375.48 216.5,-379.13 226.55,-382.48 226.45,-375.48"/>
</a>
</g>
<text text-anchor="start" x="467" y="-381.5" font-family="Helvetica,sans-Serif" font-size="10.00" fill="grey">&lt; LinOp &gt;</text>
</g>
<!-- Node22 -->
<g id="Node000022" class="node">
<title>Node22</title>
<g id="a_Node000022"><a xlink:title=" ">
<polygon fill="white" stroke="#666666" points="1655.5,-480 1515.5,-480 1515.5,-450 1655.5,-450 1655.5,-480"/>
<text text-anchor="start" x="1523.5" y="-468" font-family="Helvetica,sans-Serif" font-size="10.00">std::unique_ptr&lt; kynema</text>
<text text-anchor="middle" x="1585.5" y="-457" font-family="Helvetica,sans-Serif" font-size="10.00">_sgf::ScratchField &gt;</text>
</a>
</g>
</g>
<!-- Node16&#45;&gt;Node22 -->
<g id="edge38_Node000022_Node000016" class="edge">
<title>Node16&#45;&gt;Node22</title>
<g id="a_edge38_Node000022_Node000016"><a xlink:title=" ">
<path fill="none" stroke="orange" stroke-dasharray="5,2" d="M182.07,-395.18C199.64,-405.92 224.57,-419.98 248,-429 351.62,-468.9 379.97,-487 491,-487 491,-487 491,-487 1346,-487 1403.18,-487 1467.74,-480.65 1515.25,-474.78"/>
<polygon fill="orange" stroke="orange" points="183.45,-391.91 173.11,-389.6 179.75,-397.86 183.45,-391.91"/>
</a>
</g>
<text text-anchor="start" x="888.5" y="-492.5" font-family="Helvetica,sans-Serif" font-size="10.00" fill="grey">&lt; kynema_sgf::ScratchField &gt;</text>
</g>
<!-- Node17&#45;&gt;Node12 -->
<g id="edge20_Node000012_Node000017" class="edge">
<title>Node17&#45;&gt;Node12</title>
<g id="a_edge20_Node000012_Node000017"><a xlink:title=" ">
<path fill="none" stroke="orange" stroke-dasharray="5,2" d="M390.72,-62.44C471.15,-62.11 608.31,-62.56 726,-68 841.93,-73.36 976.4,-85.34 1055.89,-93.03"/>
<polygon fill="orange" stroke="orange" points="390.22,-58.94 380.24,-62.49 390.26,-65.94 390.22,-58.94"/>
</a>
</g>
<text text-anchor="start" x="593" y="-73.5" font-family="Helvetica,sans-Serif" font-size="10.00" fill="grey">&lt; kynema_sgf::FieldInfo &gt;</text>
</g>
<!-- Node18&#45;&gt;Node2 -->
<g id="edge23_Node000002_Node000018" class="edge">
<title>Node18&#45;&gt;Node2</title>
<g id="a_edge23_Node000002_Node000018"><a xlink:title=" ">
<path fill="none" stroke="#9a32cd" stroke-dasharray="5,2" d="M1670.46,-272.11C1761.48,-269.49 1910.42,-260.39 2035,-230 2059.52,-224.02 2086.04,-213.69 2106.1,-205.02"/>
<polygon fill="#9a32cd" stroke="#9a32cd" points="1670.11,-268.62 1660.2,-272.38 1670.29,-275.61 1670.11,-268.62"/>
</a>
</g>
<text text-anchor="start" x="1814.5" y="-272.5" font-family="Helvetica,sans-Serif" font-size="10.00" fill="grey">m_options</text>
</g>
<!-- Node18&#45;&gt;Node20 -->
<g id="edge30_Node000020_Node000018" class="edge">
<title>Node18&#45;&gt;Node20</title>
<g id="a_edge30_Node000020_Node000018"><a xlink:title=" ">
<path fill="none" stroke="#9a32cd" stroke-dasharray="5,2" d="M1622.07,-260.1C1639.37,-254.21 1660.57,-247.55 1680,-243 1707.13,-236.65 1737.27,-231.61 1763.97,-227.82"/>
<polygon fill="#9a32cd" stroke="#9a32cd" points="1620.68,-256.87 1612.38,-263.45 1622.98,-263.49 1620.68,-256.87"/>
</a>
</g>
<text text-anchor="start" x="1687" y="-248.5" font-family="Helvetica,sans-Serif" font-size="10.00" fill="grey">m_options</text>
</g>
<!-- Node19&#45;&gt;Node2 -->
<g id="edge25_Node000002_Node000019" class="edge">
<title>Node19&#45;&gt;Node2</title>
<g id="a_edge25_Node000002_Node000019"><a xlink:title=" ">
<path fill="none" stroke="#9a32cd" stroke-dasharray="5,2" d="M728.99,-428.07C893.59,-433.82 1317.33,-440.01 1662,-371 1832.49,-336.86 1876.71,-324.94 2035,-253 2064.87,-239.42 2096.77,-219 2117.14,-205.11"/>
<polygon fill="#9a32cd" stroke="#9a32cd" points="728.65,-424.56 718.53,-427.7 728.4,-431.55 728.65,-424.56"/>
</a>
</g>
<text text-anchor="start" x="1321" y="-440" font-family="Helvetica,sans-Serif" font-size="10.00" fill="grey">m_applier</text>
<text text-anchor="start" x="1321" y="-425" font-family="Helvetica,sans-Serif" font-size="10.00" fill="grey">m_solver</text>
</g>
<!-- Node20&#45;&gt;Node2 -->
<g id="edge27_Node000002_Node000020" class="edge">
<title>Node20&#45;&gt;Node2</title>
<g id="a_edge27_Node000002_Node000020"><a xlink:title=" ">
<path fill="none" stroke="orange" stroke-dasharray="5,2" d="M1927.35,-210.62C1970.2,-206.43 2021.58,-201.42 2062.92,-197.38"/>
<polygon fill="orange" stroke="orange" points="1926.83,-207.15 1917.21,-211.61 1927.51,-214.12 1926.83,-207.15"/>
</a>
</g>
<text text-anchor="start" x="1938" y="-214.5" font-family="Helvetica,sans-Serif" font-size="10.00" fill="grey">&lt; SDR::MLDiffOp &gt;</text>
</g>
<!-- Node21&#45;&gt;Node20 -->
<g id="edge31_Node000020_Node000021" class="edge">
<title>Node21&#45;&gt;Node20</title>
<g id="a_edge31_Node000020_Node000021"><a xlink:title=" ">
<path fill="none" stroke="#9a32cd" stroke-dasharray="5,2" d="M1041.74,-363.1C1095.98,-360.17 1169.57,-357 1234.5,-357 1234.5,-357 1234.5,-357 1586.5,-357 1668.56,-357 1679.56,-312.16 1746,-264 1754.67,-257.72 1754.86,-253.56 1764,-248 1772.76,-242.67 1782.66,-238.02 1792.34,-234.1"/>
<polygon fill="#9a32cd" stroke="#9a32cd" points="1041.29,-359.62 1031.5,-363.67 1041.68,-366.61 1041.29,-359.62"/>
</a>
</g>
<text text-anchor="start" x="1321" y="-378" font-family="Helvetica,sans-Serif" font-size="10.00" fill="grey">m_applier</text>
<text text-anchor="start" x="1321" y="-363" font-family="Helvetica,sans-Serif" font-size="10.00" fill="grey">m_solver</text>
</g>
<!-- Node22&#45;&gt;Node1 -->
<g id="edge34_Node000001_Node000022" class="edge">
<title>Node22&#45;&gt;Node1</title>
<g id="a_edge34_Node000001_Node000022"><a xlink:title=" ">
<path fill="none" stroke="#9a32cd" stroke-dasharray="5,2" d="M1665.91,-474.15C1758.11,-481.59 1913.11,-484.13 2035,-436 2213.88,-365.36 2372.96,-181.68 2417.28,-127.35"/>
<polygon fill="#9a32cd" stroke="#9a32cd" points="1666.07,-470.65 1655.81,-473.29 1665.48,-477.62 1666.07,-470.65"/>
</a>
</g>
<text text-anchor="start" x="1956" y="-468.5" font-family="Helvetica,sans-Serif" font-size="10.00" fill="grey">m_lhs_total</text>
</g>
<!-- Node23&#45;&gt;Node22 -->
<g id="edge35_Node000022_Node000023" class="edge">
<title>Node23&#45;&gt;Node22</title>
<g id="a_edge35_Node000022_Node000023"><a xlink:title=" ">
<path fill="none" stroke="#9a32cd" stroke-dasharray="5,2" d="M1389.79,-323.86C1398.37,-327.03 1407.13,-330.76 1415,-335 1476.69,-368.27 1539.68,-423.27 1568.42,-449.78"/>
<polygon fill="#9a32cd" stroke="#9a32cd" points="1390.85,-320.52 1380.26,-320.52 1388.54,-327.13 1390.85,-320.52"/>
</a>
</g>
<text text-anchor="start" x="1455" y="-387.5" font-family="Helvetica,sans-Serif" font-size="10.00" fill="grey">ptr</text>
</g>
<!-- Node24 -->
<g id="Node000024" class="node">
<title>Node24</title>
<g id="a_Node000024"><a xlink:href="structkynema__sgf_1_1pde_1_1_diffusion_op.html" target="_top" xlink:title=" ">
<polygon fill="white" stroke="#666666" points="2226,-30 2053,-30 2053,0 2226,0 2226,-30"/>
<text text-anchor="start" x="2061" y="-18" font-family="Helvetica,sans-Serif" font-size="10.00">kynema_sgf::pde::Diffusion</text>
<text text-anchor="middle" x="2139.5" y="-7" font-family="Helvetica,sans-Serif" font-size="10.00">Op&lt; PDE, Scheme, typename &gt;</text>
</a>
</g>
</g>
<!-- Node24&#45;&gt;Node1 -->
<g id="edge39_Node000001_Node000024" class="edge">
<title>Node24&#45;&gt;Node1</title>
<g id="a_edge39_Node000001_Node000024"><a xlink:title=" ">
<path fill="none" stroke="orange" stroke-dasharray="5,2" d="M2236.27,-7.88C2269.61,-8.72 2306.52,-13.52 2338,-27 2373.08,-42.02 2403.17,-76.57 2418.56,-96.69"/>
<polygon fill="orange" stroke="orange" points="2236.1,-4.38 2226.05,-7.74 2236,-11.38 2236.1,-4.38"/>
</a>
</g>
<text text-anchor="start" x="2247" y="-32.5" font-family="Helvetica,sans-Serif" font-size="10.00" fill="grey">&lt; SDR, Scheme &gt;</text>
</g>
</g>
</svg>
