<?xml version="1.0" encoding="UTF-8" standalone="no"?>
<!DOCTYPE svg PUBLIC "-//W3C//DTD SVG 1.1//EN"
 "http://www.w3.org/Graphics/SVG/1.1/DTD/svg11.dtd">
<!-- Generated by graphviz version 2.43.0 (0)
 -->
<!-- Title: kynema_sgf::pde::SrcTermOp&lt; ICNS &gt; Pages: 1 -->
<svg width="314pt" height="204pt"
 viewBox="0.00 0.00 314.00 204.00" xmlns="http://www.w3.org/2000/svg" xmlns:xlink="http://www.w3.org/1999/xlink">
<g id="graph0" class="graph" transform="scale(1 1) rotate(0) translate(4 200)">
<title>kynema_sgf::pde::SrcTermOp&lt; ICNS &gt;</title>
<!-- Node1 -->
<g id="Node000001" class="node">
<title>Node1</title>
<g id="a_Node000001"><a xlink:title=" ">
<polygon fill="#999999" stroke="#666666" points="144,-30 0,-30 0,0 144,0 144,-30"/>
<text text-anchor="start" x="8" y="-18" font-family="Helvetica,sans-Serif" font-size="10.00">kynema_sgf::pde::SrcTerm</text>
<text text-anchor="middle" x="72" y="-7" font-family="Helvetica,sans-Serif" font-size="10.00">Op&lt; ICNS &gt;</text>
</a>
</g>
</g>
<!-- Node2 -->
<g id="Node000002" class="node">
<title>Node2</title>
<g id="a_Node000002"><a xlink:href="structkynema__sgf_1_1pde_1_1_src_term_op_base.html" target="_top" xlink:title=" ">
<polygon fill="white" stroke="#666666" points="144,-113 0,-113 0,-83 144,-83 144,-113"/>
<text text-anchor="start" x="8" y="-101" font-family="Helvetica,sans-Serif" font-size="10.00">kynema_sgf::pde::SrcTerm</text>
<text text-anchor="middle" x="72" y="-90" font-family="Helvetica,sans-Serif" font-size="10.00">OpBase&lt; ICNS &gt;</text>
</a>
</g>
</g>
<!-- Node2&#45;&gt;Node1 -->
<g id="edge1_Node000001_Node000002" class="edge">
<title>Node2&#45;&gt;Node1</title>
<g id="a_edge1_Node000001_Node000002"><a xlink:title=" ">
<path fill="none" stroke="#63b8ff" d="M65.75,-72.59C64.85,-58.75 65.17,-41.91 66.72,-30.22"/>
<polygon fill="#63b8ff" stroke="#63b8ff" points="62.3,-73.27 66.73,-82.89 69.26,-72.6 62.3,-73.27"/>
</a>
</g>
</g>
<!-- Node2&#45;&gt;Node1 -->
<g id="edge3_Node000001_Node000002" class="edge">
<title>Node2&#45;&gt;Node1</title>
<g id="a_edge3_Node000001_Node000002"><a xlink:title=" ">
<path fill="none" stroke="#63b8ff" d="M78.25,-72.59C79.15,-58.75 78.83,-41.91 77.28,-30.22"/>
<polygon fill="#63b8ff" stroke="#63b8ff" points="74.74,-72.6 77.27,-82.89 81.7,-73.27 74.74,-72.6"/>
</a>
</g>
</g>
<!-- Node3 -->
<g id="Node000003" class="node">
<title>Node3</title>
<g id="a_Node000003"><a xlink:href="structkynema__sgf_1_1pde_1_1_src_term_op_base.html" target="_top" xlink:title=" ">
<polygon fill="white" stroke="#666666" points="144,-196 0,-196 0,-166 144,-166 144,-196"/>
<text text-anchor="start" x="8" y="-184" font-family="Helvetica,sans-Serif" font-size="10.00">kynema_sgf::pde::SrcTerm</text>
<text text-anchor="middle" x="72" y="-173" font-family="Helvetica,sans-Serif" font-size="10.00">OpBase&lt; PDE &gt;</text>
</a>
</g>
</g>
<!-- Node3&#45;&gt;Node2 -->
<g id="edge2_Node000002_Node000003" class="edge">
<title>Node3&#45;&gt;Node2</title>
<g id="a_edge2_Node000002_Node000003"><a xlink:title=" ">
<path fill="none" stroke="orange" stroke-dasharray="5,2" d="M72,-155.59C72,-141.75 72,-124.91 72,-113.22"/>
<polygon fill="orange" stroke="orange" points="68.5,-155.89 72,-165.89 75.5,-155.89 68.5,-155.89"/>
</a>
</g>
<text text-anchor="start" x="75" y="-136.5" font-family="Helvetica,sans-Serif" font-size="10.00" fill="grey">&lt; ICNS &gt;</text>
</g>
<!-- Node4 -->
<g id="Node000004" class="node">
<title>Node4</title>
<g id="a_Node000004"><a xlink:href="structkynema__sgf_1_1pde_1_1_src_term_op.html" target="_top" xlink:title=" ">
<polygon fill="white" stroke="#666666" points="306,-113 162,-113 162,-83 306,-83 306,-113"/>
<text text-anchor="start" x="170" y="-101" font-family="Helvetica,sans-Serif" font-size="10.00">kynema_sgf::pde::SrcTerm</text>
<text text-anchor="middle" x="234" y="-90" font-family="Helvetica,sans-Serif" font-size="10.00">Op&lt; PDE &gt;</text>
</a>
</g>
</g>
<!-- Node4&#45;&gt;Node1 -->
<g id="edge4_Node000001_Node000004" class="edge">
<title>Node4&#45;&gt;Node1</title>
<g id="a_edge4_Node000001_Node000004"><a xlink:title=" ">
<path fill="none" stroke="orange" stroke-dasharray="5,2" d="M196.65,-78.33C167.25,-63.62 126.9,-43.45 100.17,-30.08"/>
<polygon fill="orange" stroke="orange" points="195.27,-81.55 205.78,-82.89 198.4,-75.29 195.27,-81.55"/>
</a>
</g>
<text text-anchor="start" x="170" y="-53.5" font-family="Helvetica,sans-Serif" font-size="10.00" fill="grey">&lt; ICNS &gt;</text>
</g>
<!-- Node5 -->
<g id="Node000005" class="node">
<title>Node5</title>
<g id="a_Node000005"><a xlink:href="structkynema__sgf_1_1pde_1_1_src_term_op_base.html" target="_top" xlink:title=" ">
<polygon fill="white" stroke="#666666" points="306,-196 162,-196 162,-166 306,-166 306,-196"/>
<text text-anchor="start" x="170" y="-184" font-family="Helvetica,sans-Serif" font-size="10.00">kynema_sgf::pde::SrcTerm</text>
<text text-anchor="middle" x="234" y="-173" font-family="Helvetica,sans-Serif" font-size="10.00">OpBase&lt; PDE &gt;</text>
</a>
</g>
</g>
<!-- Node5&#45;&gt;Node4 -->
<g id="edge5_Node000004_Node000005" class="edge">
<title>Node5&#45;&gt;Node4</title>
<g id="a_edge5_Node000004_Node000005"><a xlink:title=" ">
<path fill="none" stroke="#63b8ff" d="M234,-155.59C234,-141.75 234,-124.91 234,-113.22"/>
<polygon fill="#63b8ff" stroke="#63b8ff" points="230.5,-155.89 234,-165.89 237.5,-155.89 230.5,-155.89"/>
</a>
</g>
</g>
</g>
</svg>
