<?xml version="1.0" encoding="UTF-8" standalone="no"?>
<!DOCTYPE svg PUBLIC "-//W3C//DTD SVG 1.1//EN"
 "http://www.w3.org/Graphics/SVG/1.1/DTD/svg11.dtd">
<!-- Generated by graphviz version 2.43.0 (0)
 -->
<!-- Title: /home/runner/work/amr&#45;wind/amr&#45;wind/src/core/vs/tensor.H Pages: 1 -->
<svg width="578pt" height="225pt"
 viewBox="0.00 0.00 577.50 225.00" xmlns="http://www.w3.org/2000/svg" xmlns:xlink="http://www.w3.org/1999/xlink">
<g id="graph0" class="graph" transform="scale(1 1) rotate(0) translate(4 221)">
<title>/home/runner/work/amr&#45;wind/amr&#45;wind/src/core/vs/tensor.H</title>
<!-- Node1 -->
<g id="Node000001" class="node">
<title>Node1</title>
<g id="a_Node000001"><a xlink:title=" ">
<polygon fill="#999999" stroke="#666666" points="299.5,-217 165.5,-217 165.5,-176 299.5,-176 299.5,-217"/>
<text text-anchor="start" x="173.5" y="-205" font-family="Helvetica,sans-Serif" font-size="10.00">/home/runner/work/amr</text>
<text text-anchor="start" x="173.5" y="-194" font-family="Helvetica,sans-Serif" font-size="10.00">&#45;wind/amr&#45;wind/src/core</text>
<text text-anchor="middle" x="232.5" y="-183" font-family="Helvetica,sans-Serif" font-size="10.00">/vs/tensor.H</text>
</a>
</g>
</g>
<!-- Node2 -->
<g id="Node000002" class="node">
<title>Node2</title>
<g id="a_Node000002"><a xlink:title=" ">
<polygon fill="#e0e0e0" stroke="#999999" points="227,-19 140,-19 140,0 227,0 227,-19"/>
<text text-anchor="middle" x="183.5" y="-7" font-family="Helvetica,sans-Serif" font-size="10.00">AMReX_Gpu.H</text>
</a>
</g>
</g>
<!-- Node1&#45;&gt;Node2 -->
<g id="edge1_Node000001_Node000002" class="edge">
<title>Node1&#45;&gt;Node2</title>
<g id="a_edge1_Node000001_Node000002"><a xlink:title=" ">
<path fill="none" stroke="#63b8ff" d="M198.67,-176C186.14,-166.83 173.33,-154.66 166.5,-140 149.34,-103.14 164.55,-54.39 175.21,-28.48"/>
<polygon fill="#63b8ff" stroke="#63b8ff" points="178.49,-29.73 179.26,-19.17 172.07,-26.94 178.49,-29.73"/>
</a>
</g>
</g>
<!-- Node3 -->
<g id="Node000003" class="node">
<title>Node3</title>
<g id="a_Node000003"><a xlink:href="vstraits_8_h.html" target="_top" xlink:title=" ">
<polygon fill="white" stroke="#666666" points="119,-79.5 0,-79.5 0,-60.5 119,-60.5 119,-79.5"/>
<text text-anchor="middle" x="59.5" y="-67.5" font-family="Helvetica,sans-Serif" font-size="10.00">src/core/vs/vstraits.H</text>
</a>
</g>
</g>
<!-- Node1&#45;&gt;Node3 -->
<g id="edge2_Node000001_Node000003" class="edge">
<title>Node1&#45;&gt;Node3</title>
<g id="a_edge2_Node000001_Node000003"><a xlink:title=" ">
<path fill="none" stroke="#63b8ff" d="M192.62,-175.95C174.02,-166.14 151.96,-153.48 133.5,-140 111.48,-123.92 88.95,-101.97 74.63,-87.18"/>
<polygon fill="#63b8ff" stroke="#63b8ff" points="77.01,-84.6 67.57,-79.78 71.94,-89.43 77.01,-84.6"/>
</a>
</g>
</g>
<!-- Node5 -->
<g id="Node000005" class="node">
<title>Node5</title>
<g id="a_Node000005"><a xlink:href="vector_8_h.html" target="_top" xlink:title=" ">
<polygon fill="white" stroke="#666666" points="289,-140 176,-140 176,-121 289,-121 289,-140"/>
<text text-anchor="middle" x="232.5" y="-128" font-family="Helvetica,sans-Serif" font-size="10.00">src/core/vs/vector.H</text>
</a>
</g>
</g>
<!-- Node1&#45;&gt;Node5 -->
<g id="edge4_Node000001_Node000005" class="edge">
<title>Node1&#45;&gt;Node5</title>
<g id="a_edge4_Node000001_Node000005"><a xlink:title=" ">
<path fill="none" stroke="#63b8ff" d="M232.5,-175.95C232.5,-167.85 232.5,-158.5 232.5,-150.47"/>
<polygon fill="#63b8ff" stroke="#63b8ff" points="236,-150.26 232.5,-140.26 229,-150.26 236,-150.26"/>
</a>
</g>
</g>
<!-- Node9 -->
<g id="Node000009" class="node">
<title>Node9</title>
<g id="a_Node000009"><a xlink:href="tensor_i_8_h.html" target="_top" xlink:title=" ">
<polygon fill="white" stroke="#666666" points="423.5,-140 307.5,-140 307.5,-121 423.5,-121 423.5,-140"/>
<text text-anchor="middle" x="365.5" y="-128" font-family="Helvetica,sans-Serif" font-size="10.00">src/core/vs/tensorI.H</text>
</a>
</g>
</g>
<!-- Node1&#45;&gt;Node9 -->
<g id="edge11_Node000001_Node000009" class="edge">
<title>Node1&#45;&gt;Node9</title>
<g id="a_edge11_Node000001_Node000009"><a xlink:title=" ">
<path fill="none" stroke="#63b8ff" d="M266.85,-175.95C287.43,-165.65 313.32,-153.31 333.48,-144.25"/>
<polygon fill="#63b8ff" stroke="#63b8ff" points="335.14,-147.34 342.86,-140.09 332.3,-140.94 335.14,-147.34"/>
</a>
</g>
</g>
<!-- Node4 -->
<g id="Node000004" class="node">
<title>Node4</title>
<g id="a_Node000004"><a xlink:title=" ">
<polygon fill="#e0e0e0" stroke="#999999" points="81.5,-19 37.5,-19 37.5,0 81.5,0 81.5,-19"/>
<text text-anchor="middle" x="59.5" y="-7" font-family="Helvetica,sans-Serif" font-size="10.00">limits</text>
</a>
</g>
</g>
<!-- Node3&#45;&gt;Node4 -->
<g id="edge3_Node000003_Node000004" class="edge">
<title>Node3&#45;&gt;Node4</title>
<g id="a_edge3_Node000003_Node000004"><a xlink:title=" ">
<path fill="none" stroke="#63b8ff" d="M59.5,-60.37C59.5,-52.25 59.5,-39.81 59.5,-29.39"/>
<polygon fill="#63b8ff" stroke="#63b8ff" points="63,-29.17 59.5,-19.17 56,-29.17 63,-29.17"/>
</a>
</g>
</g>
<!-- Node5&#45;&gt;Node2 -->
<g id="edge5_Node000005_Node000002" class="edge">
<title>Node5&#45;&gt;Node2</title>
<g id="a_edge5_Node000005_Node000002"><a xlink:title=" ">
<path fill="none" stroke="#63b8ff" d="M225.91,-120.72C219.65,-112.04 210.36,-98.18 204.5,-85 196.33,-66.62 190.54,-44.27 187.13,-28.87"/>
<polygon fill="#63b8ff" stroke="#63b8ff" points="190.55,-28.11 185.07,-19.04 183.7,-29.55 190.55,-28.11"/>
</a>
</g>
</g>
<!-- Node5&#45;&gt;Node3 -->
<g id="edge6_Node000005_Node000003" class="edge">
<title>Node5&#45;&gt;Node3</title>
<g id="a_edge6_Node000005_Node000003"><a xlink:title=" ">
<path fill="none" stroke="#63b8ff" d="M207.34,-120.99C177.62,-110.94 127.98,-94.16 94.51,-82.84"/>
<polygon fill="#63b8ff" stroke="#63b8ff" points="95.28,-79.4 84.69,-79.52 93.04,-86.04 95.28,-79.4"/>
</a>
</g>
</g>
<!-- Node6 -->
<g id="Node000006" class="node">
<title>Node6</title>
<g id="a_Node000006"><a xlink:href="vector_i_8_h.html" target="_top" xlink:title=" ">
<polygon fill="white" stroke="#666666" points="329.5,-79.5 213.5,-79.5 213.5,-60.5 329.5,-60.5 329.5,-79.5"/>
<text text-anchor="middle" x="271.5" y="-67.5" font-family="Helvetica,sans-Serif" font-size="10.00">src/core/vs/vectorI.H</text>
</a>
</g>
</g>
<!-- Node5&#45;&gt;Node6 -->
<g id="edge7_Node000005_Node000006" class="edge">
<title>Node5&#45;&gt;Node6</title>
<g id="a_edge7_Node000005_Node000006"><a xlink:title=" ">
<path fill="none" stroke="#63b8ff" d="M233.3,-120.87C237.23,-112.14 245.97,-98.43 254.28,-87.59"/>
<polygon fill="#63b8ff" stroke="#63b8ff" points="257.14,-89.63 260.76,-79.67 251.72,-85.2 257.14,-89.63"/>
</a>
</g>
</g>
<!-- Node6&#45;&gt;Node5 -->
<g id="edge10_Node000006_Node000005" class="edge">
<title>Node6&#45;&gt;Node5</title>
<g id="a_edge10_Node000006_Node000005"><a xlink:title=" ">
<path fill="none" stroke="#63b8ff" d="M270.68,-79.67C266.74,-88.41 257.99,-102.12 249.68,-112.95"/>
<polygon fill="#63b8ff" stroke="#63b8ff" points="246.83,-110.91 243.21,-120.87 252.25,-115.34 246.83,-110.91"/>
</a>
</g>
</g>
<!-- Node7 -->
<g id="Node000007" class="node">
<title>Node7</title>
<g id="a_Node000007"><a xlink:title=" ">
<polygon fill="#e0e0e0" stroke="#999999" points="302,-19 245,-19 245,0 302,0 302,-19"/>
<text text-anchor="middle" x="273.5" y="-7" font-family="Helvetica,sans-Serif" font-size="10.00">ostream</text>
</a>
</g>
</g>
<!-- Node6&#45;&gt;Node7 -->
<g id="edge8_Node000006_Node000007" class="edge">
<title>Node6&#45;&gt;Node7</title>
<g id="a_edge8_Node000006_Node000007"><a xlink:title=" ">
<path fill="none" stroke="#63b8ff" d="M271.8,-60.37C272.07,-52.25 272.5,-39.81 272.85,-29.39"/>
<polygon fill="#63b8ff" stroke="#63b8ff" points="276.36,-29.28 273.2,-19.17 269.36,-29.04 276.36,-29.28"/>
</a>
</g>
</g>
<!-- Node8 -->
<g id="Node000008" class="node">
<title>Node8</title>
<g id="a_Node000008"><a xlink:title=" ">
<polygon fill="#e0e0e0" stroke="#999999" points="381,-19 334,-19 334,0 381,0 381,-19"/>
<text text-anchor="middle" x="357.5" y="-7" font-family="Helvetica,sans-Serif" font-size="10.00">cmath</text>
</a>
</g>
</g>
<!-- Node6&#45;&gt;Node8 -->
<g id="edge9_Node000006_Node000008" class="edge">
<title>Node6&#45;&gt;Node8</title>
<g id="a_edge9_Node000006_Node000008"><a xlink:title=" ">
<path fill="none" stroke="#63b8ff" d="M284.19,-60.37C297.91,-51.04 320,-36.01 336.35,-24.88"/>
<polygon fill="#63b8ff" stroke="#63b8ff" points="338.46,-27.69 344.76,-19.17 334.52,-21.9 338.46,-27.69"/>
</a>
</g>
</g>
<!-- Node9&#45;&gt;Node1 -->
<g id="edge13_Node000009_Node000001" class="edge">
<title>Node9&#45;&gt;Node1</title>
<g id="a_edge13_Node000009_Node000001"><a xlink:title=" ">
<path fill="none" stroke="#63b8ff" d="M352.43,-140.09C337.4,-148.15 312.15,-160.59 288.64,-171.64"/>
<polygon fill="#63b8ff" stroke="#63b8ff" points="286.98,-168.55 279.4,-175.95 289.94,-174.89 286.98,-168.55"/>
</a>
</g>
</g>
<!-- Node9&#45;&gt;Node8 -->
<g id="edge12_Node000009_Node000008" class="edge">
<title>Node9&#45;&gt;Node8</title>
<g id="a_edge12_Node000009_Node000008"><a xlink:title=" ">
<path fill="none" stroke="#63b8ff" d="M364.92,-120.94C363.65,-101.91 360.54,-55.69 358.78,-29.47"/>
<polygon fill="#63b8ff" stroke="#63b8ff" points="362.25,-29.04 358.09,-19.3 355.27,-29.51 362.25,-29.04"/>
</a>
</g>
</g>
<!-- Node10 -->
<g id="Node000010" class="node">
<title>Node10</title>
<g id="a_Node000010"><a xlink:href="trig__ops_8_h.html" target="_top" xlink:title=" ">
<polygon fill="white" stroke="#666666" points="475.5,-85 385.5,-85 385.5,-55 475.5,-55 475.5,-85"/>
<text text-anchor="start" x="393.5" y="-73" font-family="Helvetica,sans-Serif" font-size="10.00">src/utilities/trig</text>
<text text-anchor="middle" x="430.5" y="-62" font-family="Helvetica,sans-Serif" font-size="10.00">_ops.H</text>
</a>
</g>
</g>
<!-- Node9&#45;&gt;Node10 -->
<g id="edge14_Node000009_Node000010" class="edge">
<title>Node9&#45;&gt;Node10</title>
<g id="a_edge14_Node000009_Node000010"><a xlink:title=" ">
<path fill="none" stroke="#63b8ff" d="M375.09,-120.87C383.5,-113.3 396.08,-101.98 407.13,-92.04"/>
<polygon fill="#63b8ff" stroke="#63b8ff" points="409.73,-94.41 414.82,-85.11 405.04,-89.2 409.73,-94.41"/>
</a>
</g>
</g>
<!-- Node10&#45;&gt;Node2 -->
<g id="edge18_Node000010_Node000002" class="edge">
<title>Node10&#45;&gt;Node2</title>
<g id="a_edge18_Node000010_Node000002"><a xlink:title=" ">
<path fill="none" stroke="#63b8ff" d="M385.48,-58.34C341.21,-47.85 273.94,-31.92 229.37,-21.36"/>
<polygon fill="#63b8ff" stroke="#63b8ff" points="229.93,-17.9 219.39,-19 228.32,-24.71 229.93,-17.9"/>
</a>
</g>
</g>
<!-- Node10&#45;&gt;Node8 -->
<g id="edge15_Node000010_Node000008" class="edge">
<title>Node10&#45;&gt;Node8</title>
<g id="a_edge15_Node000010_Node000008"><a xlink:title=" ">
<path fill="none" stroke="#63b8ff" d="M412.83,-54.84C401.8,-46 387.61,-34.63 376.37,-25.62"/>
<polygon fill="#63b8ff" stroke="#63b8ff" points="378.43,-22.79 368.44,-19.27 374.05,-28.25 378.43,-22.79"/>
</a>
</g>
</g>
<!-- Node11 -->
<g id="Node000011" class="node">
<title>Node11</title>
<g id="a_Node000011"><a xlink:title=" ">
<polygon fill="#e0e0e0" stroke="#999999" points="459,-19 400,-19 400,0 459,0 459,-19"/>
<text text-anchor="middle" x="429.5" y="-7" font-family="Helvetica,sans-Serif" font-size="10.00">numbers</text>
</a>
</g>
</g>
<!-- Node10&#45;&gt;Node11 -->
<g id="edge16_Node000010_Node000011" class="edge">
<title>Node10&#45;&gt;Node11</title>
<g id="a_edge16_Node000010_Node000011"><a xlink:title=" ">
<path fill="none" stroke="#63b8ff" d="M430.26,-54.84C430.13,-47.21 429.97,-37.7 429.82,-29.45"/>
<polygon fill="#63b8ff" stroke="#63b8ff" points="433.32,-29.2 429.65,-19.27 426.32,-29.32 433.32,-29.2"/>
</a>
</g>
</g>
<!-- Node12 -->
<g id="Node000012" class="node">
<title>Node12</title>
<g id="a_Node000012"><a xlink:title=" ">
<polygon fill="#e0e0e0" stroke="#999999" points="569.5,-19 477.5,-19 477.5,0 569.5,0 569.5,-19"/>
<text text-anchor="middle" x="523.5" y="-7" font-family="Helvetica,sans-Serif" font-size="10.00">AMReX_REAL.H</text>
</a>
</g>
</g>
<!-- Node10&#45;&gt;Node12 -->
<g id="edge17_Node000010_Node000012" class="edge">
<title>Node10&#45;&gt;Node12</title>
<g id="a_edge17_Node000010_Node000012"><a xlink:title=" ">
<path fill="none" stroke="#63b8ff" d="M453.01,-54.84C467.56,-45.68 486.43,-33.82 500.99,-24.66"/>
<polygon fill="#63b8ff" stroke="#63b8ff" points="503.24,-27.38 509.84,-19.09 499.51,-21.46 503.24,-27.38"/>
</a>
</g>
</g>
</g>
</svg>
