<?xml version="1.0" encoding="UTF-8" standalone="no"?>
<!DOCTYPE svg PUBLIC "-//W3C//DTD SVG 1.1//EN"
 "http://www.w3.org/Graphics/SVG/1.1/DTD/svg11.dtd">
<!-- Generated by graphviz version 2.43.0 (0)
 -->
<!-- Title: /home/runner/work/amr&#45;wind/amr&#45;wind/src/wind_energy/actuator/turbine/turbine_types.H Pages: 1 -->
<!--zoomable 423 -->

<svg id="main" version="1.1" xmlns="http://www.w3.org/2000/svg" xmlns:xlink="http://www.w3.org/1999/xlink" xml:space="preserve" onload="init(evt)">

<style type="text/css"><![CDATA[
.node, .edge {opacity: 0.7;}
.node.selected, .edge.selected {opacity: 1;}
.edge:hover path { stroke: red; }
.edge:hover polygon { stroke: red; fill: red; }
]]></style>

<defs>
  <circle id="rim" cx="0" cy="0" r="7"/>
  <circle id="rim2" cx="0" cy="0" r="3.5"/>
  <g id="zoomPlus">
    <use xlink:href="#rim" fill="#404040"><set attributeName="fill" to="#808080" begin="zoomplus.mouseover" end="zoomplus.mouseout"/></use>
    <path d="M-4,0h8M0,-4v8" fill="none" stroke="white" stroke-width="1.5" pointer-events="none"/>
  </g>
  <g id="zoomMin">
    <use xlink:href="#rim" fill="#404040"><set attributeName="fill" to="#808080" begin="zoomminus.mouseover" end="zoomminus.mouseout"/></use>
    <path d="M-4,0h8" fill="none" stroke="white" stroke-width="1.5" pointer-events="none"/>
  </g>
  <g id="arrowUp" transform="translate(30 24)">
    <use xlink:href="#rim"/>
    <path pointer-events="none" fill="none" stroke="white" stroke-width="1.5" d="M0,-3.0v7 M-2.5,-0.5L0,-3.0L2.5,-0.5"/>
  </g>
  <g id="arrowRight" transform="rotate(90) translate(36 -43)">
    <use xlink:href="#rim"/>
    <path pointer-events="none" fill="none" stroke="white" stroke-width="1.5" d="M0,-3.0v7 M-2.5,-0.5L0,-3.0L2.5,-0.5"/>
  </g>
  <g id="arrowDown" transform="rotate(180) translate(-30 -48)">
    <use xlink:href="#rim"/>
    <path pointer-events="none" fill="none" stroke="white" stroke-width="1.5" d="M0,-3.0v7 M-2.5,-0.5L0,-3.0L2.5,-0.5"/>
  </g>
  <g id="arrowLeft" transform="rotate(270) translate(-36 17)">
    <use xlink:href="#rim"/>
    <path pointer-events="none" fill="none" stroke="white" stroke-width="1.5" d="M0,-3.0v7 M-2.5,-0.5L0,-3.0L2.5,-0.5"/>
  </g>
  <g id="resetDef">
    <use xlink:href="#rim2" fill="#404040"><set attributeName="fill" to="#808080" begin="reset.mouseover" end="reset.mouseout"/></use>
  </g>
</defs>
<script type="application/ecmascript">
var viewWidth = 644;
var viewHeight = 423;
var sectionId = 'dynsection-0';
</script>
<script type="application/ecmascript" xlink:href="svg.min.js"/>
<svg id="graph" class="graph">
<g id="viewport">
<title>/home/runner/work/amr&#45;wind/amr&#45;wind/src/wind_energy/actuator/turbine/turbine_types.H</title>
<!-- Node1 -->
<g id="Node000001" class="node">
<title>Node1</title>
<g id="a_Node000001"><a xlink:title=" ">
<polygon fill="#999999" stroke="#666666" points="513.5,-415 376.5,-415 376.5,-363 513.5,-363 513.5,-415"/>
<text text-anchor="start" x="384.5" y="-403" font-family="Helvetica,sans-Serif" font-size="10.00">/home/runner/work/amr</text>
<text text-anchor="start" x="384.5" y="-392" font-family="Helvetica,sans-Serif" font-size="10.00">&#45;wind/amr&#45;wind/src/wind</text>
<text text-anchor="start" x="384.5" y="-381" font-family="Helvetica,sans-Serif" font-size="10.00">_energy/actuator/turbine</text>
<text text-anchor="middle" x="445" y="-370" font-family="Helvetica,sans-Serif" font-size="10.00">/turbine_types.H</text>
</a>
</g>
</g>
<!-- Node2 -->
<g id="Node000002" class="node">
<title>Node2</title>
<g id="a_Node000002"><a xlink:href="actuator__types_8_h.html" target="_top" xlink:title=" ">
<polygon fill="white" stroke="#666666" points="389,-327 249,-327 249,-297 389,-297 389,-327"/>
<text text-anchor="start" x="257" y="-315" font-family="Helvetica,sans-Serif" font-size="10.00">src/wind_energy/actuator</text>
<text text-anchor="middle" x="319" y="-304" font-family="Helvetica,sans-Serif" font-size="10.00">/actuator_types.H</text>
</a>
</g>
</g>
<!-- Node1&#45;&gt;Node2 -->
<g id="edge1_Node000001_Node000002" class="edge">
<title>Node1&#45;&gt;Node2</title>
<g id="a_edge1_Node000001_Node000002"><a xlink:title=" ">
<path fill="none" stroke="#63b8ff" d="M402.69,-362.82C385.96,-352.86 367.03,-341.59 351.42,-332.3"/>
<polygon fill="#63b8ff" stroke="#63b8ff" points="353.03,-329.18 342.65,-327.08 349.45,-335.2 353.03,-329.18"/>
</a>
</g>
</g>
<!-- Node18 -->
<g id="Node000018" class="node">
<title>Node18</title>
<g id="a_Node000018"><a xlink:title=" ">
<polygon fill="#e0e0e0" stroke="#999999" points="636,-19 544,-19 544,0 636,0 636,-19"/>
<text text-anchor="middle" x="590" y="-7" font-family="Helvetica,sans-Serif" font-size="10.00">AMReX_REAL.H</text>
</a>
</g>
</g>
<!-- Node1&#45;&gt;Node18 -->
<g id="edge32_Node000001_Node000018" class="edge">
<title>Node1&#45;&gt;Node18</title>
<g id="a_edge32_Node000001_Node000018"><a xlink:title=" ">
<path fill="none" stroke="#63b8ff" d="M508.49,-363C554.25,-340.33 608,-302 608,-247 608,-247 608,-247 608,-129.5 608,-93.59 599.89,-52.26 594.55,-28.97"/>
<polygon fill="#63b8ff" stroke="#63b8ff" points="597.92,-28.01 592.21,-19.09 591.11,-29.63 597.92,-28.01"/>
</a>
</g>
</g>
<!-- Node3 -->
<g id="Node000003" class="node">
<title>Node3</title>
<g id="a_Node000003"><a xlink:href="_slice_8_h.html" target="_top" xlink:title=" ">
<polygon fill="white" stroke="#666666" points="130,-255.5 38,-255.5 38,-236.5 130,-236.5 130,-255.5"/>
<text text-anchor="middle" x="84" y="-243.5" font-family="Helvetica,sans-Serif" font-size="10.00">src/core/Slice.H</text>
</a>
</g>
</g>
<!-- Node2&#45;&gt;Node3 -->
<g id="edge2_Node000002_Node000003" class="edge">
<title>Node2&#45;&gt;Node3</title>
<g id="a_edge2_Node000002_Node000003"><a xlink:title=" ">
<path fill="none" stroke="#63b8ff" d="M267.43,-296.95C224.67,-285.31 164.7,-268.98 125.12,-258.2"/>
<polygon fill="#63b8ff" stroke="#63b8ff" points="125.84,-254.77 115.27,-255.52 124,-261.52 125.84,-254.77"/>
</a>
</g>
</g>
<!-- Node6 -->
<g id="Node000006" class="node">
<title>Node6</title>
<g id="a_Node000006"><a xlink:title=" ">
<polygon fill="#e0e0e0" stroke="#999999" points="119.5,-19 32.5,-19 32.5,0 119.5,0 119.5,-19"/>
<text text-anchor="middle" x="76" y="-7" font-family="Helvetica,sans-Serif" font-size="10.00">AMReX_Gpu.H</text>
</a>
</g>
</g>
<!-- Node2&#45;&gt;Node6 -->
<g id="edge27_Node000002_Node000006" class="edge">
<title>Node2&#45;&gt;Node6</title>
<g id="a_edge27_Node000002_Node000006"><a xlink:title=" ">
<path fill="none" stroke="#63b8ff" d="M248.85,-306.76C174.02,-300.89 61.83,-287.83 29,-261 1.49,-238.52 0,-222.03 0,-186.5 0,-186.5 0,-186.5 0,-129.5 0,-86.71 35.34,-46.94 57.82,-25.97"/>
<polygon fill="#63b8ff" stroke="#63b8ff" points="60.34,-28.42 65.43,-19.13 55.66,-23.21 60.34,-28.42"/>
</a>
</g>
</g>
<!-- Node7 -->
<g id="Node000007" class="node">
<title>Node7</title>
<g id="a_Node000007"><a xlink:href="vector__space_8_h.html" target="_top" xlink:title=" ">
<polygon fill="white" stroke="#666666" points="490.5,-261 387.5,-261 387.5,-231 490.5,-231 490.5,-261"/>
<text text-anchor="start" x="395.5" y="-249" font-family="Helvetica,sans-Serif" font-size="10.00">src/core/vs/vector</text>
<text text-anchor="middle" x="439" y="-238" font-family="Helvetica,sans-Serif" font-size="10.00">_space.H</text>
</a>
</g>
</g>
<!-- Node2&#45;&gt;Node7 -->
<g id="edge6_Node000002_Node000007" class="edge">
<title>Node2&#45;&gt;Node7</title>
<g id="a_edge6_Node000002_Node000007"><a xlink:title=" ">
<path fill="none" stroke="#63b8ff" d="M345.33,-296.95C362.53,-287.78 385.18,-275.71 403.89,-265.72"/>
<polygon fill="#63b8ff" stroke="#63b8ff" points="405.55,-268.81 412.73,-261.01 402.26,-262.63 405.55,-268.81"/>
</a>
</g>
</g>
<!-- Node2&#45;&gt;Node18 -->
<g id="edge31_Node000002_Node000018" class="edge">
<title>Node2&#45;&gt;Node18</title>
<g id="a_edge31_Node000002_Node000018"><a xlink:title=" ">
<path fill="none" stroke="#63b8ff" d="M389.25,-305.73C463.51,-295.88 570,-267.61 570,-186.5 570,-186.5 570,-186.5 570,-129.5 570,-93.49 579.02,-52.19 584.94,-28.94"/>
<polygon fill="#63b8ff" stroke="#63b8ff" points="588.38,-29.64 587.55,-19.08 581.61,-27.85 588.38,-29.64"/>
</a>
</g>
</g>
<!-- Node19 -->
<g id="Node000019" class="node">
<title>Node19</title>
<g id="a_Node000019"><a xlink:title=" ">
<polygon fill="#e0e0e0" stroke="#999999" points="256,-255.5 148,-255.5 148,-236.5 256,-236.5 256,-255.5"/>
<text text-anchor="middle" x="202" y="-243.5" font-family="Helvetica,sans-Serif" font-size="10.00">AMReX_RealBox.H</text>
</a>
</g>
</g>
<!-- Node2&#45;&gt;Node19 -->
<g id="edge28_Node000002_Node000019" class="edge">
<title>Node2&#45;&gt;Node19</title>
<g id="a_edge28_Node000002_Node000019"><a xlink:title=" ">
<path fill="none" stroke="#63b8ff" d="M293.32,-296.95C273.44,-286.08 246.07,-271.11 226.49,-260.4"/>
<polygon fill="#63b8ff" stroke="#63b8ff" points="228.02,-257.25 217.57,-255.52 224.66,-263.39 228.02,-257.25"/>
</a>
</g>
</g>
<!-- Node20 -->
<g id="Node000020" class="node">
<title>Node20</title>
<g id="a_Node000020"><a xlink:title=" ">
<polygon fill="#e0e0e0" stroke="#999999" points="306,-255.5 274,-255.5 274,-236.5 306,-236.5 306,-255.5"/>
<text text-anchor="middle" x="290" y="-243.5" font-family="Helvetica,sans-Serif" font-size="10.00">set</text>
</a>
</g>
</g>
<!-- Node2&#45;&gt;Node20 -->
<g id="edge29_Node000002_Node000020" class="edge">
<title>Node2&#45;&gt;Node20</title>
<g id="a_edge29_Node000002_Node000020"><a xlink:title=" ">
<path fill="none" stroke="#63b8ff" d="M312.56,-296.8C308.35,-287.5 302.81,-275.27 298.27,-265.26"/>
<polygon fill="#63b8ff" stroke="#63b8ff" points="301.32,-263.51 294.01,-255.84 294.95,-266.4 301.32,-263.51"/>
</a>
</g>
</g>
<!-- Node21 -->
<g id="Node000021" class="node">
<title>Node21</title>
<g id="a_Node000021"><a xlink:title=" ">
<polygon fill="#e0e0e0" stroke="#999999" points="369.5,-255.5 324.5,-255.5 324.5,-236.5 369.5,-236.5 369.5,-255.5"/>
<text text-anchor="middle" x="347" y="-243.5" font-family="Helvetica,sans-Serif" font-size="10.00">utility</text>
</a>
</g>
</g>
<!-- Node2&#45;&gt;Node21 -->
<g id="edge30_Node000002_Node000021" class="edge">
<title>Node2&#45;&gt;Node21</title>
<g id="a_edge30_Node000002_Node000021"><a xlink:title=" ">
<path fill="none" stroke="#63b8ff" d="M325.21,-296.8C329.28,-287.5 334.63,-275.27 339.01,-265.26"/>
<polygon fill="#63b8ff" stroke="#63b8ff" points="342.33,-266.41 343.13,-255.84 335.92,-263.6 342.33,-266.41"/>
</a>
</g>
</g>
<!-- Node4 -->
<g id="Node000004" class="node">
<title>Node4</title>
<g id="a_Node000004"><a xlink:title=" ">
<polygon fill="#e0e0e0" stroke="#999999" points="119.5,-195 66.5,-195 66.5,-176 119.5,-176 119.5,-195"/>
<text text-anchor="middle" x="93" y="-183" font-family="Helvetica,sans-Serif" font-size="10.00">iterator</text>
</a>
</g>
</g>
<!-- Node3&#45;&gt;Node4 -->
<g id="edge3_Node000003_Node000004" class="edge">
<title>Node3&#45;&gt;Node4</title>
<g id="a_edge3_Node000003_Node000004"><a xlink:title=" ">
<path fill="none" stroke="#63b8ff" d="M85.33,-236.37C86.59,-228.16 88.53,-215.54 90.15,-205.05"/>
<polygon fill="#63b8ff" stroke="#63b8ff" points="93.61,-205.58 91.67,-195.17 86.69,-204.52 93.61,-205.58"/>
</a>
</g>
</g>
<!-- Node5 -->
<g id="Node000005" class="node">
<title>Node5</title>
<g id="a_Node000005"><a xlink:title=" ">
<polygon fill="#e0e0e0" stroke="#999999" points="236,-195 138,-195 138,-176 236,-176 236,-195"/>
<text text-anchor="middle" x="187" y="-183" font-family="Helvetica,sans-Serif" font-size="10.00">AMReX_Vector.H</text>
</a>
</g>
</g>
<!-- Node3&#45;&gt;Node5 -->
<g id="edge4_Node000003_Node000005" class="edge">
<title>Node3&#45;&gt;Node5</title>
<g id="a_edge4_Node000003_Node000005"><a xlink:title=" ">
<path fill="none" stroke="#63b8ff" d="M99.2,-236.37C116.01,-226.82 143.32,-211.31 163.02,-200.12"/>
<polygon fill="#63b8ff" stroke="#63b8ff" points="164.77,-203.15 171.74,-195.17 161.32,-197.06 164.77,-203.15"/>
</a>
</g>
</g>
<!-- Node3&#45;&gt;Node6 -->
<g id="edge5_Node000003_Node000006" class="edge">
<title>Node3&#45;&gt;Node6</title>
<g id="a_edge5_Node000003_Node000006"><a xlink:title=" ">
<path fill="none" stroke="#63b8ff" d="M77.58,-236.35C70.93,-226.79 60.96,-210.69 57,-195 41.97,-135.54 59.82,-62.43 69.95,-28.89"/>
<polygon fill="#63b8ff" stroke="#63b8ff" points="73.36,-29.7 73.03,-19.11 66.69,-27.6 73.36,-29.7"/>
</a>
</g>
</g>
<!-- Node8 -->
<g id="Node000008" class="node">
<title>Node8</title>
<g id="a_Node000008"><a xlink:href="vector_8_h.html" target="_top" xlink:title=" ">
<polygon fill="white" stroke="#666666" points="281.5,-140 168.5,-140 168.5,-121 281.5,-121 281.5,-140"/>
<text text-anchor="middle" x="225" y="-128" font-family="Helvetica,sans-Serif" font-size="10.00">src/core/vs/vector.H</text>
</a>
</g>
</g>
<!-- Node7&#45;&gt;Node8 -->
<g id="edge7_Node000007_Node000008" class="edge">
<title>Node7&#45;&gt;Node8</title>
<g id="a_edge7_Node000007_Node000008"><a xlink:title=" ">
<path fill="none" stroke="#63b8ff" d="M409.94,-230.9C389.89,-221.06 362.69,-207.51 339,-195 307.48,-178.35 271.65,-158.19 248.71,-145.11"/>
<polygon fill="#63b8ff" stroke="#63b8ff" points="250.42,-142.06 240,-140.14 246.95,-148.14 250.42,-142.06"/>
</a>
</g>
</g>
<!-- Node14 -->
<g id="Node000014" class="node">
<title>Node14</title>
<g id="a_Node000014"><a xlink:href="tensor_8_h.html" target="_top" xlink:title=" ">
<polygon fill="white" stroke="#666666" points="461.5,-195 348.5,-195 348.5,-176 461.5,-176 461.5,-195"/>
<text text-anchor="middle" x="405" y="-183" font-family="Helvetica,sans-Serif" font-size="10.00">src/core/vs/tensor.H</text>
</a>
</g>
</g>
<!-- Node7&#45;&gt;Node14 -->
<g id="edge15_Node000007_Node000014" class="edge">
<title>Node7&#45;&gt;Node14</title>
<g id="a_edge15_Node000007_Node000014"><a xlink:title=" ">
<path fill="none" stroke="#63b8ff" d="M430.77,-230.84C426.09,-222.78 420.18,-212.62 415.2,-204.06"/>
<polygon fill="#63b8ff" stroke="#63b8ff" points="418.15,-202.15 410.09,-195.27 412.09,-205.67 418.15,-202.15"/>
</a>
</g>
</g>
<!-- Node8&#45;&gt;Node6 -->
<g id="edge8_Node000008_Node000006" class="edge">
<title>Node8&#45;&gt;Node6</title>
<g id="a_edge8_Node000008_Node000006"><a xlink:title=" ">
<path fill="none" stroke="#63b8ff" d="M199.76,-120.98C180.18,-113.54 153.08,-101.37 133,-85 113.17,-68.83 96.2,-44.43 86.06,-28.01"/>
<polygon fill="#63b8ff" stroke="#63b8ff" points="89.04,-26.17 80.91,-19.38 83.03,-29.76 89.04,-26.17"/>
</a>
</g>
</g>
<!-- Node9 -->
<g id="Node000009" class="node">
<title>Node9</title>
<g id="a_Node000009"><a xlink:href="vstraits_8_h.html" target="_top" xlink:title=" ">
<polygon fill="white" stroke="#666666" points="395.5,-79.5 276.5,-79.5 276.5,-60.5 395.5,-60.5 395.5,-79.5"/>
<text text-anchor="middle" x="336" y="-67.5" font-family="Helvetica,sans-Serif" font-size="10.00">src/core/vs/vstraits.H</text>
</a>
</g>
</g>
<!-- Node8&#45;&gt;Node9 -->
<g id="edge9_Node000008_Node000009" class="edge">
<title>Node8&#45;&gt;Node9</title>
<g id="a_edge9_Node000008_Node000009"><a xlink:title=" ">
<path fill="none" stroke="#63b8ff" d="M241.38,-120.87C259.58,-111.28 289.2,-95.67 310.45,-84.47"/>
<polygon fill="#63b8ff" stroke="#63b8ff" points="312.34,-87.43 319.55,-79.67 309.08,-81.23 312.34,-87.43"/>
</a>
</g>
</g>
<!-- Node11 -->
<g id="Node000011" class="node">
<title>Node11</title>
<g id="a_Node000011"><a xlink:href="vector_i_8_h.html" target="_top" xlink:title=" ">
<polygon fill="white" stroke="#666666" points="258,-79.5 142,-79.5 142,-60.5 258,-60.5 258,-79.5"/>
<text text-anchor="middle" x="200" y="-67.5" font-family="Helvetica,sans-Serif" font-size="10.00">src/core/vs/vectorI.H</text>
</a>
</g>
</g>
<!-- Node8&#45;&gt;Node11 -->
<g id="edge11_Node000008_Node000011" class="edge">
<title>Node8&#45;&gt;Node11</title>
<g id="a_edge11_Node000008_Node000011"><a xlink:title=" ">
<path fill="none" stroke="#63b8ff" d="M216.36,-120.87C211.07,-112.66 205.22,-100.04 201.6,-89.55"/>
<polygon fill="#63b8ff" stroke="#63b8ff" points="204.88,-88.3 198.74,-79.67 198.15,-90.25 204.88,-88.3"/>
</a>
</g>
</g>
<!-- Node10 -->
<g id="Node000010" class="node">
<title>Node10</title>
<g id="a_Node000010"><a xlink:title=" ">
<polygon fill="#e0e0e0" stroke="#999999" points="358,-19 314,-19 314,0 358,0 358,-19"/>
<text text-anchor="middle" x="336" y="-7" font-family="Helvetica,sans-Serif" font-size="10.00">limits</text>
</a>
</g>
</g>
<!-- Node9&#45;&gt;Node10 -->
<g id="edge10_Node000009_Node000010" class="edge">
<title>Node9&#45;&gt;Node10</title>
<g id="a_edge10_Node000009_Node000010"><a xlink:title=" ">
<path fill="none" stroke="#63b8ff" d="M336,-60.37C336,-52.25 336,-39.81 336,-29.39"/>
<polygon fill="#63b8ff" stroke="#63b8ff" points="339.5,-29.17 336,-19.17 332.5,-29.17 339.5,-29.17"/>
</a>
</g>
</g>
<!-- Node11&#45;&gt;Node8 -->
<g id="edge14_Node000011_Node000008" class="edge">
<title>Node11&#45;&gt;Node8</title>
<g id="a_edge14_Node000011_Node000008"><a xlink:title=" ">
<path fill="none" stroke="#63b8ff" d="M208.67,-79.67C213.95,-87.89 219.8,-100.51 223.42,-110.99"/>
<polygon fill="#63b8ff" stroke="#63b8ff" points="220.13,-112.23 226.27,-120.87 226.86,-110.29 220.13,-112.23"/>
</a>
</g>
</g>
<!-- Node12 -->
<g id="Node000012" class="node">
<title>Node12</title>
<g id="a_Node000012"><a xlink:title=" ">
<polygon fill="#e0e0e0" stroke="#999999" points="228.5,-19 171.5,-19 171.5,0 228.5,0 228.5,-19"/>
<text text-anchor="middle" x="200" y="-7" font-family="Helvetica,sans-Serif" font-size="10.00">ostream</text>
</a>
</g>
</g>
<!-- Node11&#45;&gt;Node12 -->
<g id="edge12_Node000011_Node000012" class="edge">
<title>Node11&#45;&gt;Node12</title>
<g id="a_edge12_Node000011_Node000012"><a xlink:title=" ">
<path fill="none" stroke="#63b8ff" d="M200,-60.37C200,-52.25 200,-39.81 200,-29.39"/>
<polygon fill="#63b8ff" stroke="#63b8ff" points="203.5,-29.17 200,-19.17 196.5,-29.17 203.5,-29.17"/>
</a>
</g>
</g>
<!-- Node13 -->
<g id="Node000013" class="node">
<title>Node13</title>
<g id="a_Node000013"><a xlink:title=" ">
<polygon fill="#e0e0e0" stroke="#999999" points="447.5,-19 400.5,-19 400.5,0 447.5,0 447.5,-19"/>
<text text-anchor="middle" x="424" y="-7" font-family="Helvetica,sans-Serif" font-size="10.00">cmath</text>
</a>
</g>
</g>
<!-- Node11&#45;&gt;Node13 -->
<g id="edge13_Node000011_Node000013" class="edge">
<title>Node11&#45;&gt;Node13</title>
<g id="a_edge13_Node000011_Node000013"><a xlink:title=" ">
<path fill="none" stroke="#63b8ff" d="M232.57,-60.49C274.72,-49.49 347.79,-30.4 390.42,-19.27"/>
<polygon fill="#63b8ff" stroke="#63b8ff" points="391.52,-22.6 400.31,-16.69 389.75,-15.83 391.52,-22.6"/>
</a>
</g>
</g>
<!-- Node14&#45;&gt;Node6 -->
<g id="edge16_Node000014_Node000006" class="edge">
<title>Node14&#45;&gt;Node6</title>
<g id="a_edge16_Node000014_Node000006"><a xlink:title=" ">
<path fill="none" stroke="#63b8ff" d="M348.36,-183.38C296.53,-180.3 219.01,-170.4 159,-140 127.31,-123.95 120.11,-114.95 101,-85 90.02,-67.79 83.33,-45.23 79.67,-29.47"/>
<polygon fill="#63b8ff" stroke="#63b8ff" points="83.03,-28.42 77.52,-19.37 76.18,-29.88 83.03,-28.42"/>
</a>
</g>
</g>
<!-- Node14&#45;&gt;Node8 -->
<g id="edge18_Node000014_Node000008" class="edge">
<title>Node14&#45;&gt;Node8</title>
<g id="a_edge18_Node000014_Node000008"><a xlink:title=" ">
<path fill="none" stroke="#63b8ff" d="M376.08,-175.98C345.73,-167.05 297.83,-152.94 264.12,-143.02"/>
<polygon fill="#63b8ff" stroke="#63b8ff" points="264.73,-139.55 254.15,-140.08 262.75,-146.26 264.73,-139.55"/>
</a>
</g>
</g>
<!-- Node14&#45;&gt;Node9 -->
<g id="edge17_Node000014_Node000009" class="edge">
<title>Node14&#45;&gt;Node9</title>
<g id="a_edge17_Node000014_Node000009"><a xlink:title=" ">
<path fill="none" stroke="#63b8ff" d="M391.89,-175.77C380.79,-167.73 365.25,-154.82 356,-140 346.41,-124.64 341.27,-104.51 338.61,-89.96"/>
<polygon fill="#63b8ff" stroke="#63b8ff" points="342,-89.01 336.97,-79.68 335.09,-90.11 342,-89.01"/>
</a>
</g>
</g>
<!-- Node15 -->
<g id="Node000015" class="node">
<title>Node15</title>
<g id="a_Node000015"><a xlink:href="tensor_i_8_h.html" target="_top" xlink:title=" ">
<polygon fill="white" stroke="#666666" points="481,-140 365,-140 365,-121 481,-121 481,-140"/>
<text text-anchor="middle" x="423" y="-128" font-family="Helvetica,sans-Serif" font-size="10.00">src/core/vs/tensorI.H</text>
</a>
</g>
</g>
<!-- Node14&#45;&gt;Node15 -->
<g id="edge19_Node000014_Node000015" class="edge">
<title>Node14&#45;&gt;Node15</title>
<g id="a_edge19_Node000014_Node000015"><a xlink:title=" ">
<path fill="none" stroke="#63b8ff" d="M402.81,-175.75C403.7,-168.57 406.81,-158.18 410.55,-149.27"/>
<polygon fill="#63b8ff" stroke="#63b8ff" points="413.79,-150.62 414.95,-140.09 407.47,-147.59 413.79,-150.62"/>
</a>
</g>
</g>
<!-- Node15&#45;&gt;Node13 -->
<g id="edge20_Node000015_Node000013" class="edge">
<title>Node15&#45;&gt;Node13</title>
<g id="a_edge20_Node000015_Node000013"><a xlink:title=" ">
<path fill="none" stroke="#63b8ff" d="M423.07,-120.94C423.23,-101.91 423.62,-55.69 423.84,-29.47"/>
<polygon fill="#63b8ff" stroke="#63b8ff" points="427.34,-29.33 423.93,-19.3 420.34,-29.27 427.34,-29.33"/>
</a>
</g>
</g>
<!-- Node15&#45;&gt;Node14 -->
<g id="edge21_Node000015_Node000014" class="edge">
<title>Node15&#45;&gt;Node14</title>
<g id="a_edge21_Node000015_Node000014"><a xlink:title=" ">
<path fill="none" stroke="#63b8ff" d="M425.21,-140.09C424.35,-147.22 421.26,-157.6 417.53,-166.53"/>
<polygon fill="#63b8ff" stroke="#63b8ff" points="414.28,-165.22 413.14,-175.75 420.6,-168.23 414.28,-165.22"/>
</a>
</g>
</g>
<!-- Node16 -->
<g id="Node000016" class="node">
<title>Node16</title>
<g id="a_Node000016"><a xlink:href="trig__ops_8_h.html" target="_top" xlink:title=" ">
<polygon fill="white" stroke="#666666" points="542,-85 452,-85 452,-55 542,-55 542,-85"/>
<text text-anchor="start" x="460" y="-73" font-family="Helvetica,sans-Serif" font-size="10.00">src/utilities/trig</text>
<text text-anchor="middle" x="497" y="-62" font-family="Helvetica,sans-Serif" font-size="10.00">_ops.H</text>
</a>
</g>
</g>
<!-- Node15&#45;&gt;Node16 -->
<g id="edge22_Node000015_Node000016" class="edge">
<title>Node15&#45;&gt;Node16</title>
<g id="a_edge22_Node000015_Node000016"><a xlink:title=" ">
<path fill="none" stroke="#63b8ff" d="M433.92,-120.87C443.68,-113.15 458.37,-101.54 471.12,-91.46"/>
<polygon fill="#63b8ff" stroke="#63b8ff" points="473.47,-94.06 479.15,-85.11 469.13,-88.57 473.47,-94.06"/>
</a>
</g>
</g>
<!-- Node16&#45;&gt;Node6 -->
<g id="edge26_Node000016_Node000006" class="edge">
<title>Node16&#45;&gt;Node6</title>
<g id="a_edge26_Node000016_Node000006"><a xlink:title=" ">
<path fill="none" stroke="#63b8ff" d="M451.61,-62.03C436.47,-59.74 419.52,-57.22 404,-55 307.34,-41.17 194.5,-26.09 129.54,-17.52"/>
<polygon fill="#63b8ff" stroke="#63b8ff" points="129.91,-14.04 119.53,-16.2 128.99,-20.98 129.91,-14.04"/>
</a>
</g>
</g>
<!-- Node16&#45;&gt;Node13 -->
<g id="edge23_Node000016_Node000013" class="edge">
<title>Node16&#45;&gt;Node13</title>
<g id="a_edge23_Node000016_Node000013"><a xlink:title=" ">
<path fill="none" stroke="#63b8ff" d="M479.33,-54.84C468.3,-46 454.11,-34.63 442.87,-25.62"/>
<polygon fill="#63b8ff" stroke="#63b8ff" points="444.93,-22.79 434.94,-19.27 440.55,-28.25 444.93,-22.79"/>
</a>
</g>
</g>
<!-- Node17 -->
<g id="Node000017" class="node">
<title>Node17</title>
<g id="a_Node000017"><a xlink:title=" ">
<polygon fill="#e0e0e0" stroke="#999999" points="525.5,-19 466.5,-19 466.5,0 525.5,0 525.5,-19"/>
<text text-anchor="middle" x="496" y="-7" font-family="Helvetica,sans-Serif" font-size="10.00">numbers</text>
</a>
</g>
</g>
<!-- Node16&#45;&gt;Node17 -->
<g id="edge24_Node000016_Node000017" class="edge">
<title>Node16&#45;&gt;Node17</title>
<g id="a_edge24_Node000016_Node000017"><a xlink:title=" ">
<path fill="none" stroke="#63b8ff" d="M496.76,-54.84C496.63,-47.21 496.47,-37.7 496.32,-29.45"/>
<polygon fill="#63b8ff" stroke="#63b8ff" points="499.82,-29.2 496.15,-19.27 492.82,-29.32 499.82,-29.2"/>
</a>
</g>
</g>
<!-- Node16&#45;&gt;Node18 -->
<g id="edge25_Node000016_Node000018" class="edge">
<title>Node16&#45;&gt;Node18</title>
<g id="a_edge25_Node000016_Node000018"><a xlink:title=" ">
<path fill="none" stroke="#63b8ff" d="M519.51,-54.84C534.06,-45.68 552.93,-33.82 567.49,-24.66"/>
<polygon fill="#63b8ff" stroke="#63b8ff" points="569.74,-27.38 576.34,-19.09 566.01,-21.46 569.74,-27.38"/>
</a>
</g>
</g>
</g>
</svg>

<g id="navigator" transform="translate(0 0)" fill="#404254">
  <rect fill="#f2f5e9" fill-opacity="0.5" stroke="#606060" stroke-width=".5" x="0" y="0" width="60" height="60"/>
  <use id="zoomplus" xlink:href="#zoomPlus" x="17" y="9" onmousedown="handleZoom(evt,'in')"/>
  <use id="zoomminus" xlink:href="#zoomMin" x="42" y="9" onmousedown="handleZoom(evt,'out')"/>
  <use id="reset" xlink:href="#resetDef" x="30" y="36" onmousedown="handleReset()"/>
   <use id="arrowup" xlink:href="#arrowUp" x="0" y="0" onmousedown="handlePan(0,-1)"/>
  <use id="arrowright" xlink:href="#arrowRight" x="0" y="0" onmousedown="handlePan(1,0)"/>
  <use id="arrowdown" xlink:href="#arrowDown" x="0" y="0" onmousedown="handlePan(0,1)"/>
  <use id="arrowleft" xlink:href="#arrowLeft" x="0" y="0" onmousedown="handlePan(-1,0)"/>
</g>
<svg viewBox="0 0 15 15" width="100%" height="30px" preserveAspectRatio="xMaxYMin meet">
 <g id="arrow_out" transform="scale(0.3 0.3)">
  <a xlink:href="turbine__types_8_h__incl_org.svg" target="_base">
   <rect id="button" ry="5" rx="5" y="6" x="6" height="38" width="38"
        fill="#f2f5e9" fill-opacity="0.5" stroke="#606060" stroke-width="1.0"/>
   <path id="arrow"
     d="M 11.500037,31.436501 C 11.940474,20.09759 22.043105,11.32322 32.158766,21.979434 L 37.068811,17.246167 C 37.068811,17.246167 37.088388,32 37.088388,32 L 22.160133,31.978069 C 22.160133,31.978069 26.997745,27.140456 26.997745,27.140456 C 18.528582,18.264221 13.291696,25.230495 11.500037,31.436501 z"
     style="fill:#404040;"/>
  </a>
 </g>
</svg>

<style type='text/css'>
<![CDATA[
[data-mouse-over-selected='false'] { opacity: 0.7; }
[data-mouse-over-selected='true']  { opacity: 1.0; }
]]>
</style>
<script type="application/ecmascript"><![CDATA[
document.addEventListener('DOMContentLoaded', (event) => {
  highlightEdges();
  highlightAdjacentNodes();
});
]]></script>
</svg>
