<?xml version="1.0" encoding="UTF-8" standalone="no"?>
<!DOCTYPE svg PUBLIC "-//W3C//DTD SVG 1.1//EN"
 "http://www.w3.org/Graphics/SVG/1.1/DTD/svg11.dtd">
<!-- Generated by graphviz version 2.43.0 (0)
 -->
<!-- Title: /home/runner/work/amr&#45;wind/amr&#45;wind/src/wind_energy/actuator/turbine/turbine_utils.cpp Pages: 1 -->
<!--zoomable 555 -->

<svg id="main" version="1.1" xmlns="http://www.w3.org/2000/svg" xmlns:xlink="http://www.w3.org/1999/xlink" xml:space="preserve" onload="init(evt)">

<style type="text/css"><![CDATA[
.node, .edge {opacity: 0.7;}
.node.selected, .edge.selected {opacity: 1;}
.edge:hover path { stroke: red; }
.edge:hover polygon { stroke: red; fill: red; }
]]></style>

<defs>
  <circle id="rim" cx="0" cy="0" r="7"/>
  <circle id="rim2" cx="0" cy="0" r="3.5"/>
  <g id="zoomPlus">
    <use xlink:href="#rim" fill="#404040"><set attributeName="fill" to="#808080" begin="zoomplus.mouseover" end="zoomplus.mouseout"/></use>
    <path d="M-4,0h8M0,-4v8" fill="none" stroke="white" stroke-width="1.5" pointer-events="none"/>
  </g>
  <g id="zoomMin">
    <use xlink:href="#rim" fill="#404040"><set attributeName="fill" to="#808080" begin="zoomminus.mouseover" end="zoomminus.mouseout"/></use>
    <path d="M-4,0h8" fill="none" stroke="white" stroke-width="1.5" pointer-events="none"/>
  </g>
  <g id="arrowUp" transform="translate(30 24)">
    <use xlink:href="#rim"/>
    <path pointer-events="none" fill="none" stroke="white" stroke-width="1.5" d="M0,-3.0v7 M-2.5,-0.5L0,-3.0L2.5,-0.5"/>
  </g>
  <g id="arrowRight" transform="rotate(90) translate(36 -43)">
    <use xlink:href="#rim"/>
    <path pointer-events="none" fill="none" stroke="white" stroke-width="1.5" d="M0,-3.0v7 M-2.5,-0.5L0,-3.0L2.5,-0.5"/>
  </g>
  <g id="arrowDown" transform="rotate(180) translate(-30 -48)">
    <use xlink:href="#rim"/>
    <path pointer-events="none" fill="none" stroke="white" stroke-width="1.5" d="M0,-3.0v7 M-2.5,-0.5L0,-3.0L2.5,-0.5"/>
  </g>
  <g id="arrowLeft" transform="rotate(270) translate(-36 17)">
    <use xlink:href="#rim"/>
    <path pointer-events="none" fill="none" stroke="white" stroke-width="1.5" d="M0,-3.0v7 M-2.5,-0.5L0,-3.0L2.5,-0.5"/>
  </g>
  <g id="resetDef">
    <use xlink:href="#rim2" fill="#404040"><set attributeName="fill" to="#808080" begin="reset.mouseover" end="reset.mouseout"/></use>
  </g>
</defs>
<script type="application/ecmascript">
var viewWidth = 1270;
var viewHeight = 555;
var sectionId = 'dynsection-0';
</script>
<script type="application/ecmascript" xlink:href="svg.min.js"/>
<svg id="graph" class="graph">
<g id="viewport">
<title>/home/runner/work/amr&#45;wind/amr&#45;wind/src/wind_energy/actuator/turbine/turbine_utils.cpp</title>
<!-- Node1 -->
<g id="Node000001" class="node">
<title>Node1</title>
<g id="a_Node000001"><a xlink:title=" ">
<polygon fill="#999999" stroke="#666666" points="676.5,-547 539.5,-547 539.5,-495 676.5,-495 676.5,-547"/>
<text text-anchor="start" x="547.5" y="-535" font-family="Helvetica,sans-Serif" font-size="10.00">/home/runner/work/amr</text>
<text text-anchor="start" x="547.5" y="-524" font-family="Helvetica,sans-Serif" font-size="10.00">&#45;wind/amr&#45;wind/src/wind</text>
<text text-anchor="start" x="547.5" y="-513" font-family="Helvetica,sans-Serif" font-size="10.00">_energy/actuator/turbine</text>
<text text-anchor="middle" x="608" y="-502" font-family="Helvetica,sans-Serif" font-size="10.00">/turbine_utils.cpp</text>
</a>
</g>
</g>
<!-- Node2 -->
<g id="Node000002" class="node">
<title>Node2</title>
<g id="a_Node000002"><a xlink:href="turbine__utils_8_h.html" target="_top" xlink:title=" ">
<polygon fill="white" stroke="#666666" points="922,-459 782,-459 782,-429 922,-429 922,-459"/>
<text text-anchor="start" x="790" y="-447" font-family="Helvetica,sans-Serif" font-size="10.00">src/wind_energy/actuator</text>
<text text-anchor="middle" x="852" y="-436" font-family="Helvetica,sans-Serif" font-size="10.00">/turbine/turbine_utils.H</text>
</a>
</g>
</g>
<!-- Node1&#45;&gt;Node2 -->
<g id="edge1_Node000001_Node000002" class="edge">
<title>Node1&#45;&gt;Node2</title>
<g id="a_edge1_Node000001_Node000002"><a xlink:title=" ">
<path fill="none" stroke="#63b8ff" d="M676.62,-498.91C714.5,-487.27 760.93,-472.99 796.5,-462.06"/>
<polygon fill="#63b8ff" stroke="#63b8ff" points="797.7,-465.35 806.23,-459.07 795.64,-458.66 797.7,-465.35"/>
</a>
</g>
</g>
<!-- Node20 -->
<g id="Node000020" class="node">
<title>Node20</title>
<g id="a_Node000020"><a xlink:title=" ">
<polygon fill="#e0e0e0" stroke="#999999" points="427,-19 335,-19 335,0 427,0 427,-19"/>
<text text-anchor="middle" x="381" y="-7" font-family="Helvetica,sans-Serif" font-size="10.00">AMReX_REAL.H</text>
</a>
</g>
</g>
<!-- Node1&#45;&gt;Node20 -->
<g id="edge58_Node000001_Node000020" class="edge">
<title>Node1&#45;&gt;Node20</title>
<g id="a_edge58_Node000001_Node000020"><a xlink:title=" ">
<path fill="none" stroke="#63b8ff" d="M539.44,-518.47C380.43,-513.08 0,-488.71 0,-379 0,-379 0,-379 0,-129.5 0,-81.88 34.27,-76.02 77,-55 119.46,-34.12 249.06,-20.81 324.64,-14.6"/>
<polygon fill="#63b8ff" stroke="#63b8ff" points="325.24,-18.07 334.93,-13.77 324.68,-11.09 325.24,-18.07"/>
</a>
</g>
</g>
<!-- Node27 -->
<g id="Node000027" class="node">
<title>Node27</title>
<g id="a_Node000027"><a xlink:href="nc__interface_8_h.html" target="_top" xlink:title=" ">
<polygon fill="white" stroke="#666666" points="349,-459 243,-459 243,-429 349,-429 349,-459"/>
<text text-anchor="start" x="251" y="-447" font-family="Helvetica,sans-Serif" font-size="10.00">src/utilities/ncutils</text>
<text text-anchor="middle" x="296" y="-436" font-family="Helvetica,sans-Serif" font-size="10.00">/nc_interface.H</text>
</a>
</g>
</g>
<!-- Node1&#45;&gt;Node27 -->
<g id="edge39_Node000001_Node000027" class="edge">
<title>Node1&#45;&gt;Node27</title>
<g id="a_edge39_Node000001_Node000027"><a xlink:title=" ">
<path fill="none" stroke="#63b8ff" d="M539.14,-503.45C485.36,-490.52 411.24,-472.7 359.01,-460.15"/>
<polygon fill="#63b8ff" stroke="#63b8ff" points="359.74,-456.72 349.2,-457.79 358.1,-463.53 359.74,-456.72"/>
</a>
</g>
</g>
<!-- Node33 -->
<g id="Node000033" class="node">
<title>Node33</title>
<g id="a_Node000033"><a xlink:href="io__utils_8_h.html" target="_top" xlink:title=" ">
<polygon fill="white" stroke="#666666" points="667.5,-453.5 548.5,-453.5 548.5,-434.5 667.5,-434.5 667.5,-453.5"/>
<text text-anchor="middle" x="608" y="-441.5" font-family="Helvetica,sans-Serif" font-size="10.00">src/utilities/io_utils.H</text>
</a>
</g>
</g>
<!-- Node1&#45;&gt;Node33 -->
<g id="edge46_Node000001_Node000033" class="edge">
<title>Node1&#45;&gt;Node33</title>
<g id="a_edge46_Node000001_Node000033"><a xlink:title=" ">
<path fill="none" stroke="#63b8ff" d="M608,-494.61C608,-484.58 608,-473.25 608,-463.96"/>
<polygon fill="#63b8ff" stroke="#63b8ff" points="611.5,-463.85 608,-453.85 604.5,-463.85 611.5,-463.85"/>
</a>
</g>
</g>
<!-- Node38 -->
<g id="Node000038" class="node">
<title>Node38</title>
<g id="a_Node000038"><a xlink:href="_f_l_l_c_8_h.html" target="_top" xlink:title=" ">
<polygon fill="white" stroke="#666666" points="1216,-459 1076,-459 1076,-429 1216,-429 1216,-459"/>
<text text-anchor="start" x="1084" y="-447" font-family="Helvetica,sans-Serif" font-size="10.00">src/wind_energy/actuator</text>
<text text-anchor="middle" x="1146" y="-436" font-family="Helvetica,sans-Serif" font-size="10.00">/FLLC.H</text>
</a>
</g>
</g>
<!-- Node1&#45;&gt;Node38 -->
<g id="edge53_Node000001_Node000038" class="edge">
<title>Node1&#45;&gt;Node38</title>
<g id="a_edge53_Node000001_Node000038"><a xlink:title=" ">
<path fill="none" stroke="#63b8ff" d="M676.68,-510.43C776.16,-496.56 959.96,-470.93 1065.62,-456.21"/>
<polygon fill="#63b8ff" stroke="#63b8ff" points="1066.17,-459.66 1075.59,-454.82 1065.2,-452.73 1066.17,-459.66"/>
</a>
</g>
</g>
<!-- Node3 -->
<g id="Node000003" class="node">
<title>Node3</title>
<g id="a_Node000003"><a xlink:href="turbine__types_8_h.html" target="_top" xlink:title=" ">
<polygon fill="white" stroke="#666666" points="922,-393 782,-393 782,-363 922,-363 922,-393"/>
<text text-anchor="start" x="790" y="-381" font-family="Helvetica,sans-Serif" font-size="10.00">src/wind_energy/actuator</text>
<text text-anchor="middle" x="852" y="-370" font-family="Helvetica,sans-Serif" font-size="10.00">/turbine/turbine_types.H</text>
</a>
</g>
</g>
<!-- Node2&#45;&gt;Node3 -->
<g id="edge2_Node000002_Node000003" class="edge">
<title>Node2&#45;&gt;Node3</title>
<g id="a_edge2_Node000002_Node000003"><a xlink:title=" ">
<path fill="none" stroke="#63b8ff" d="M852,-428.8C852,-421.34 852,-411.99 852,-403.41"/>
<polygon fill="#63b8ff" stroke="#63b8ff" points="855.5,-403.16 852,-393.16 848.5,-403.16 855.5,-403.16"/>
</a>
</g>
</g>
<!-- Node24 -->
<g id="Node000024" class="node">
<title>Node24</title>
<g id="a_Node000024"><a xlink:href="_act_parser_8_h.html" target="_top" xlink:title=" ">
<polygon fill="white" stroke="#666666" points="1118,-393 978,-393 978,-363 1118,-363 1118,-393"/>
<text text-anchor="start" x="986" y="-381" font-family="Helvetica,sans-Serif" font-size="10.00">src/wind_energy/actuator</text>
<text text-anchor="middle" x="1048" y="-370" font-family="Helvetica,sans-Serif" font-size="10.00">/ActParser.H</text>
</a>
</g>
</g>
<!-- Node2&#45;&gt;Node24 -->
<g id="edge35_Node000002_Node000024" class="edge">
<title>Node2&#45;&gt;Node24</title>
<g id="a_edge35_Node000002_Node000024"><a xlink:title=" ">
<path fill="none" stroke="#63b8ff" d="M895.01,-428.95C924.5,-419.33 963.81,-406.49 995.2,-396.24"/>
<polygon fill="#63b8ff" stroke="#63b8ff" points="996.67,-399.44 1005.09,-393.01 994.49,-392.79 996.67,-399.44"/>
</a>
</g>
</g>
<!-- Node4 -->
<g id="Node000004" class="node">
<title>Node4</title>
<g id="a_Node000004"><a xlink:href="actuator__types_8_h.html" target="_top" xlink:title=" ">
<polygon fill="white" stroke="#666666" points="922,-327 782,-327 782,-297 922,-297 922,-327"/>
<text text-anchor="start" x="790" y="-315" font-family="Helvetica,sans-Serif" font-size="10.00">src/wind_energy/actuator</text>
<text text-anchor="middle" x="852" y="-304" font-family="Helvetica,sans-Serif" font-size="10.00">/actuator_types.H</text>
</a>
</g>
</g>
<!-- Node3&#45;&gt;Node4 -->
<g id="edge3_Node000003_Node000004" class="edge">
<title>Node3&#45;&gt;Node4</title>
<g id="a_edge3_Node000003_Node000004"><a xlink:title=" ">
<path fill="none" stroke="#63b8ff" d="M852,-362.8C852,-355.34 852,-345.99 852,-337.41"/>
<polygon fill="#63b8ff" stroke="#63b8ff" points="855.5,-337.16 852,-327.16 848.5,-337.16 855.5,-337.16"/>
</a>
</g>
</g>
<!-- Node3&#45;&gt;Node20 -->
<g id="edge34_Node000003_Node000020" class="edge">
<title>Node3&#45;&gt;Node20</title>
<g id="a_edge34_Node000003_Node000020"><a xlink:title=" ">
<path fill="none" stroke="#63b8ff" d="M781.67,-364.54C698.25,-349.75 570.33,-327.08 570,-327 476.25,-303.85 449.01,-304.89 363,-261 353.66,-256.23 344,-257.49 344,-247 344,-247 344,-247 344,-129.5 344,-92.16 360.81,-51.09 371.77,-28.28"/>
<polygon fill="#63b8ff" stroke="#63b8ff" points="374.99,-29.68 376.31,-19.17 368.72,-26.56 374.99,-29.68"/>
</a>
</g>
</g>
<!-- Node5 -->
<g id="Node000005" class="node">
<title>Node5</title>
<g id="a_Node000005"><a xlink:href="_slice_8_h.html" target="_top" xlink:title=" ">
<polygon fill="white" stroke="#666666" points="1080,-255.5 988,-255.5 988,-236.5 1080,-236.5 1080,-255.5"/>
<text text-anchor="middle" x="1034" y="-243.5" font-family="Helvetica,sans-Serif" font-size="10.00">src/core/Slice.H</text>
</a>
</g>
</g>
<!-- Node4&#45;&gt;Node5 -->
<g id="edge4_Node000004_Node000005" class="edge">
<title>Node4&#45;&gt;Node5</title>
<g id="a_edge4_Node000004_Node000005"><a xlink:title=" ">
<path fill="none" stroke="#63b8ff" d="M891.94,-296.95C924.28,-285.58 969.34,-269.74 999.98,-258.96"/>
<polygon fill="#63b8ff" stroke="#63b8ff" points="1001.51,-262.14 1009.78,-255.52 999.18,-255.53 1001.51,-262.14"/>
</a>
</g>
</g>
<!-- Node8 -->
<g id="Node000008" class="node">
<title>Node8</title>
<g id="a_Node000008"><a xlink:title=" ">
<polygon fill="#e0e0e0" stroke="#999999" points="1012.5,-19 925.5,-19 925.5,0 1012.5,0 1012.5,-19"/>
<text text-anchor="middle" x="969" y="-7" font-family="Helvetica,sans-Serif" font-size="10.00">AMReX_Gpu.H</text>
</a>
</g>
</g>
<!-- Node4&#45;&gt;Node8 -->
<g id="edge29_Node000004_Node000008" class="edge">
<title>Node4&#45;&gt;Node8</title>
<g id="a_edge29_Node000004_Node000008"><a xlink:title=" ">
<path fill="none" stroke="#63b8ff" d="M894.84,-296.82C911.94,-288.97 930.12,-277.39 941,-261 989.98,-187.21 979.02,-73.53 972.28,-29.15"/>
<polygon fill="#63b8ff" stroke="#63b8ff" points="975.72,-28.52 970.65,-19.21 968.81,-29.64 975.72,-28.52"/>
</a>
</g>
</g>
<!-- Node9 -->
<g id="Node000009" class="node">
<title>Node9</title>
<g id="a_Node000009"><a xlink:href="vector__space_8_h.html" target="_top" xlink:title=" ">
<polygon fill="white" stroke="#666666" points="691.5,-261 588.5,-261 588.5,-231 691.5,-231 691.5,-261"/>
<text text-anchor="start" x="596.5" y="-249" font-family="Helvetica,sans-Serif" font-size="10.00">src/core/vs/vector</text>
<text text-anchor="middle" x="640" y="-238" font-family="Helvetica,sans-Serif" font-size="10.00">_space.H</text>
</a>
</g>
</g>
<!-- Node4&#45;&gt;Node9 -->
<g id="edge8_Node000004_Node000009" class="edge">
<title>Node4&#45;&gt;Node9</title>
<g id="a_edge8_Node000004_Node000009"><a xlink:title=" ">
<path fill="none" stroke="#63b8ff" d="M805.48,-296.95C773.3,-287.24 730.33,-274.27 696.23,-263.98"/>
<polygon fill="#63b8ff" stroke="#63b8ff" points="697,-260.55 686.42,-261.01 694.98,-267.25 697,-260.55"/>
</a>
</g>
</g>
<!-- Node4&#45;&gt;Node20 -->
<g id="edge33_Node000004_Node000020" class="edge">
<title>Node4&#45;&gt;Node20</title>
<g id="a_edge33_Node000004_Node000020"><a xlink:title=" ">
<path fill="none" stroke="#63b8ff" d="M781.67,-299.52C703.9,-286.6 588.38,-266.69 580,-261 490.63,-200.31 527.13,-131.64 451,-55 438.55,-42.46 421.96,-31.72 408.05,-23.94"/>
<polygon fill="#63b8ff" stroke="#63b8ff" points="409.4,-20.69 398.93,-19.03 406.08,-26.85 409.4,-20.69"/>
</a>
</g>
</g>
<!-- Node21 -->
<g id="Node000021" class="node">
<title>Node21</title>
<g id="a_Node000021"><a xlink:title=" ">
<polygon fill="#e0e0e0" stroke="#999999" points="818,-255.5 710,-255.5 710,-236.5 818,-236.5 818,-255.5"/>
<text text-anchor="middle" x="764" y="-243.5" font-family="Helvetica,sans-Serif" font-size="10.00">AMReX_RealBox.H</text>
</a>
</g>
</g>
<!-- Node4&#45;&gt;Node21 -->
<g id="edge30_Node000004_Node000021" class="edge">
<title>Node4&#45;&gt;Node21</title>
<g id="a_edge30_Node000004_Node000021"><a xlink:title=" ">
<path fill="none" stroke="#63b8ff" d="M832.47,-296.8C818.13,-286.37 798.7,-272.24 784.21,-261.69"/>
<polygon fill="#63b8ff" stroke="#63b8ff" points="786.05,-258.71 775.91,-255.66 781.93,-264.37 786.05,-258.71"/>
</a>
</g>
</g>
<!-- Node22 -->
<g id="Node000022" class="node">
<title>Node22</title>
<g id="a_Node000022"><a xlink:title=" ">
<polygon fill="#e0e0e0" stroke="#999999" points="868,-255.5 836,-255.5 836,-236.5 868,-236.5 868,-255.5"/>
<text text-anchor="middle" x="852" y="-243.5" font-family="Helvetica,sans-Serif" font-size="10.00">set</text>
</a>
</g>
</g>
<!-- Node4&#45;&gt;Node22 -->
<g id="edge31_Node000004_Node000022" class="edge">
<title>Node4&#45;&gt;Node22</title>
<g id="a_edge31_Node000004_Node000022"><a xlink:title=" ">
<path fill="none" stroke="#63b8ff" d="M852,-296.8C852,-287.7 852,-275.79 852,-265.9"/>
<polygon fill="#63b8ff" stroke="#63b8ff" points="855.5,-265.84 852,-255.84 848.5,-265.84 855.5,-265.84"/>
</a>
</g>
</g>
<!-- Node23 -->
<g id="Node000023" class="node">
<title>Node23</title>
<g id="a_Node000023"><a xlink:title=" ">
<polygon fill="#e0e0e0" stroke="#999999" points="931.5,-255.5 886.5,-255.5 886.5,-236.5 931.5,-236.5 931.5,-255.5"/>
<text text-anchor="middle" x="909" y="-243.5" font-family="Helvetica,sans-Serif" font-size="10.00">utility</text>
</a>
</g>
</g>
<!-- Node4&#45;&gt;Node23 -->
<g id="edge32_Node000004_Node000023" class="edge">
<title>Node4&#45;&gt;Node23</title>
<g id="a_edge32_Node000004_Node000023"><a xlink:title=" ">
<path fill="none" stroke="#63b8ff" d="M864.65,-296.8C873.45,-286.92 885.2,-273.72 894.4,-263.39"/>
<polygon fill="#63b8ff" stroke="#63b8ff" points="897.09,-265.64 901.12,-255.84 891.86,-260.98 897.09,-265.64"/>
</a>
</g>
</g>
<!-- Node6 -->
<g id="Node000006" class="node">
<title>Node6</title>
<g id="a_Node000006"><a xlink:title=" ">
<polygon fill="#e0e0e0" stroke="#999999" points="1041.5,-195 988.5,-195 988.5,-176 1041.5,-176 1041.5,-195"/>
<text text-anchor="middle" x="1015" y="-183" font-family="Helvetica,sans-Serif" font-size="10.00">iterator</text>
</a>
</g>
</g>
<!-- Node5&#45;&gt;Node6 -->
<g id="edge5_Node000005_Node000006" class="edge">
<title>Node5&#45;&gt;Node6</title>
<g id="a_edge5_Node000005_Node000006"><a xlink:title=" ">
<path fill="none" stroke="#63b8ff" d="M1031.2,-236.37C1028.5,-228.07 1024.35,-215.28 1020.92,-204.72"/>
<polygon fill="#63b8ff" stroke="#63b8ff" points="1024.23,-203.6 1017.82,-195.17 1017.58,-205.76 1024.23,-203.6"/>
</a>
</g>
</g>
<!-- Node7 -->
<g id="Node000007" class="node">
<title>Node7</title>
<g id="a_Node000007"><a xlink:title=" ">
<polygon fill="#e0e0e0" stroke="#999999" points="1196,-195 1098,-195 1098,-176 1196,-176 1196,-195"/>
<text text-anchor="middle" x="1147" y="-183" font-family="Helvetica,sans-Serif" font-size="10.00">AMReX_Vector.H</text>
</a>
</g>
</g>
<!-- Node5&#45;&gt;Node7 -->
<g id="edge6_Node000005_Node000007" class="edge">
<title>Node5&#45;&gt;Node7</title>
<g id="a_edge6_Node000005_Node000007"><a xlink:title=" ">
<path fill="none" stroke="#63b8ff" d="M1050.67,-236.37C1069.28,-226.73 1099.62,-211.03 1121.28,-199.81"/>
<polygon fill="#63b8ff" stroke="#63b8ff" points="1122.99,-202.87 1130.26,-195.17 1119.77,-196.66 1122.99,-202.87"/>
</a>
</g>
</g>
<!-- Node5&#45;&gt;Node8 -->
<g id="edge7_Node000005_Node000008" class="edge">
<title>Node5&#45;&gt;Node8</title>
<g id="a_edge7_Node000005_Node000008"><a xlink:title=" ">
<path fill="none" stroke="#63b8ff" d="M1037.91,-236.37C1042.11,-226.58 1048.52,-210.02 1051,-195 1059.51,-143.51 1034.83,-77.4 1021,-55 1013.69,-43.15 1002.17,-32.83 991.84,-25.11"/>
<polygon fill="#63b8ff" stroke="#63b8ff" points="993.74,-22.17 983.55,-19.27 989.7,-27.89 993.74,-22.17"/>
</a>
</g>
</g>
<!-- Node10 -->
<g id="Node000010" class="node">
<title>Node10</title>
<g id="a_Node000010"><a xlink:href="vector_8_h.html" target="_top" xlink:title=" ">
<polygon fill="white" stroke="#666666" points="875.5,-140 762.5,-140 762.5,-121 875.5,-121 875.5,-140"/>
<text text-anchor="middle" x="819" y="-128" font-family="Helvetica,sans-Serif" font-size="10.00">src/core/vs/vector.H</text>
</a>
</g>
</g>
<!-- Node9&#45;&gt;Node10 -->
<g id="edge9_Node000009_Node000010" class="edge">
<title>Node9&#45;&gt;Node10</title>
<g id="a_edge9_Node000009_Node000010"><a xlink:title=" ">
<path fill="none" stroke="#63b8ff" d="M662.31,-230.85C696.57,-209.13 761.81,-167.77 796.3,-145.89"/>
<polygon fill="#63b8ff" stroke="#63b8ff" points="798.6,-148.58 805.17,-140.27 794.85,-142.67 798.6,-148.58"/>
</a>
</g>
</g>
<!-- Node16 -->
<g id="Node000016" class="node">
<title>Node16</title>
<g id="a_Node000016"><a xlink:href="tensor_8_h.html" target="_top" xlink:title=" ">
<polygon fill="white" stroke="#666666" points="705.5,-195 592.5,-195 592.5,-176 705.5,-176 705.5,-195"/>
<text text-anchor="middle" x="649" y="-183" font-family="Helvetica,sans-Serif" font-size="10.00">src/core/vs/tensor.H</text>
</a>
</g>
</g>
<!-- Node9&#45;&gt;Node16 -->
<g id="edge17_Node000009_Node000016" class="edge">
<title>Node9&#45;&gt;Node16</title>
<g id="a_edge17_Node000009_Node000016"><a xlink:title=" ">
<path fill="none" stroke="#63b8ff" d="M642.18,-230.84C643.37,-223.13 644.85,-213.49 646.13,-205.17"/>
<polygon fill="#63b8ff" stroke="#63b8ff" points="649.59,-205.68 647.65,-195.27 642.67,-204.62 649.59,-205.68"/>
</a>
</g>
</g>
<!-- Node10&#45;&gt;Node8 -->
<g id="edge10_Node000010_Node000008" class="edge">
<title>Node10&#45;&gt;Node8</title>
<g id="a_edge10_Node000010_Node000008"><a xlink:title=" ">
<path fill="none" stroke="#63b8ff" d="M844.93,-120.88C864.69,-113.46 891.85,-101.36 912,-85 931.87,-68.87 948.82,-44.47 958.96,-28.03"/>
<polygon fill="#63b8ff" stroke="#63b8ff" points="961.99,-29.77 964.1,-19.39 955.98,-26.19 961.99,-29.77"/>
</a>
</g>
</g>
<!-- Node11 -->
<g id="Node000011" class="node">
<title>Node11</title>
<g id="a_Node000011"><a xlink:href="vstraits_8_h.html" target="_top" xlink:title=" ">
<polygon fill="white" stroke="#666666" points="768.5,-79.5 649.5,-79.5 649.5,-60.5 768.5,-60.5 768.5,-79.5"/>
<text text-anchor="middle" x="709" y="-67.5" font-family="Helvetica,sans-Serif" font-size="10.00">src/core/vs/vstraits.H</text>
</a>
</g>
</g>
<!-- Node10&#45;&gt;Node11 -->
<g id="edge11_Node000010_Node000011" class="edge">
<title>Node10&#45;&gt;Node11</title>
<g id="a_edge11_Node000010_Node000011"><a xlink:title=" ">
<path fill="none" stroke="#63b8ff" d="M802.77,-120.87C784.73,-111.28 755.38,-95.67 734.32,-84.47"/>
<polygon fill="#63b8ff" stroke="#63b8ff" points="735.77,-81.27 725.3,-79.67 732.48,-87.45 735.77,-81.27"/>
</a>
</g>
</g>
<!-- Node13 -->
<g id="Node000013" class="node">
<title>Node13</title>
<g id="a_Node000013"><a xlink:href="vector_i_8_h.html" target="_top" xlink:title=" ">
<polygon fill="white" stroke="#666666" points="903,-79.5 787,-79.5 787,-60.5 903,-60.5 903,-79.5"/>
<text text-anchor="middle" x="845" y="-67.5" font-family="Helvetica,sans-Serif" font-size="10.00">src/core/vs/vectorI.H</text>
</a>
</g>
</g>
<!-- Node10&#45;&gt;Node13 -->
<g id="edge13_Node000010_Node000013" class="edge">
<title>Node10&#45;&gt;Node13</title>
<g id="a_edge13_Node000010_Node000013"><a xlink:title=" ">
<path fill="none" stroke="#63b8ff" d="M817.88,-120.87C819.81,-112.4 825.23,-99.24 830.95,-88.57"/>
<polygon fill="#63b8ff" stroke="#63b8ff" points="834.13,-90.06 836.18,-79.67 828.1,-86.51 834.13,-90.06"/>
</a>
</g>
</g>
<!-- Node12 -->
<g id="Node000012" class="node">
<title>Node12</title>
<g id="a_Node000012"><a xlink:title=" ">
<polygon fill="#e0e0e0" stroke="#999999" points="731,-19 687,-19 687,0 731,0 731,-19"/>
<text text-anchor="middle" x="709" y="-7" font-family="Helvetica,sans-Serif" font-size="10.00">limits</text>
</a>
</g>
</g>
<!-- Node11&#45;&gt;Node12 -->
<g id="edge12_Node000011_Node000012" class="edge">
<title>Node11&#45;&gt;Node12</title>
<g id="a_edge12_Node000011_Node000012"><a xlink:title=" ">
<path fill="none" stroke="#63b8ff" d="M709,-60.37C709,-52.25 709,-39.81 709,-29.39"/>
<polygon fill="#63b8ff" stroke="#63b8ff" points="712.5,-29.17 709,-19.17 705.5,-29.17 712.5,-29.17"/>
</a>
</g>
</g>
<!-- Node13&#45;&gt;Node10 -->
<g id="edge16_Node000013_Node000010" class="edge">
<title>Node13&#45;&gt;Node10</title>
<g id="a_edge16_Node000013_Node000010"><a xlink:title=" ">
<path fill="none" stroke="#63b8ff" d="M846.11,-79.67C844.17,-88.15 838.74,-101.31 833.03,-111.98"/>
<polygon fill="#63b8ff" stroke="#63b8ff" points="829.85,-110.48 827.79,-120.87 835.88,-114.03 829.85,-110.48"/>
</a>
</g>
</g>
<!-- Node14 -->
<g id="Node000014" class="node">
<title>Node14</title>
<g id="a_Node000014"><a xlink:title=" ">
<polygon fill="#e0e0e0" stroke="#999999" points="873.5,-19 816.5,-19 816.5,0 873.5,0 873.5,-19"/>
<text text-anchor="middle" x="845" y="-7" font-family="Helvetica,sans-Serif" font-size="10.00">ostream</text>
</a>
</g>
</g>
<!-- Node13&#45;&gt;Node14 -->
<g id="edge14_Node000013_Node000014" class="edge">
<title>Node13&#45;&gt;Node14</title>
<g id="a_edge14_Node000013_Node000014"><a xlink:title=" ">
<path fill="none" stroke="#63b8ff" d="M845,-60.37C845,-52.25 845,-39.81 845,-29.39"/>
<polygon fill="#63b8ff" stroke="#63b8ff" points="848.5,-29.17 845,-19.17 841.5,-29.17 848.5,-29.17"/>
</a>
</g>
</g>
<!-- Node15 -->
<g id="Node000015" class="node">
<title>Node15</title>
<g id="a_Node000015"><a xlink:title=" ">
<polygon fill="#e0e0e0" stroke="#999999" points="644.5,-19 597.5,-19 597.5,0 644.5,0 644.5,-19"/>
<text text-anchor="middle" x="621" y="-7" font-family="Helvetica,sans-Serif" font-size="10.00">cmath</text>
</a>
</g>
</g>
<!-- Node13&#45;&gt;Node15 -->
<g id="edge15_Node000013_Node000015" class="edge">
<title>Node13&#45;&gt;Node15</title>
<g id="a_edge15_Node000013_Node000015"><a xlink:title=" ">
<path fill="none" stroke="#63b8ff" d="M812.43,-60.49C770.28,-49.49 697.21,-30.4 654.58,-19.27"/>
<polygon fill="#63b8ff" stroke="#63b8ff" points="655.25,-15.83 644.69,-16.69 653.48,-22.6 655.25,-15.83"/>
</a>
</g>
</g>
<!-- Node16&#45;&gt;Node8 -->
<g id="edge18_Node000016_Node000008" class="edge">
<title>Node16&#45;&gt;Node8</title>
<g id="a_edge18_Node000016_Node000008"><a xlink:title=" ">
<path fill="none" stroke="#63b8ff" d="M705.96,-183.12C755.79,-179.8 828.78,-169.69 885,-140 915.57,-123.86 921.1,-113.95 940,-85 951.35,-67.6 959.35,-45.08 964.02,-29.38"/>
<polygon fill="#63b8ff" stroke="#63b8ff" points="967.52,-29.89 966.85,-19.32 960.78,-28 967.52,-29.89"/>
</a>
</g>
</g>
<!-- Node16&#45;&gt;Node10 -->
<g id="edge20_Node000016_Node000010" class="edge">
<title>Node16&#45;&gt;Node10</title>
<g id="a_edge20_Node000016_Node000010"><a xlink:title=" ">
<path fill="none" stroke="#63b8ff" d="M676.31,-175.98C704.85,-167.09 749.83,-153.07 781.64,-143.15"/>
<polygon fill="#63b8ff" stroke="#63b8ff" points="782.97,-146.4 791.47,-140.08 780.88,-139.72 782.97,-146.4"/>
</a>
</g>
</g>
<!-- Node16&#45;&gt;Node11 -->
<g id="edge19_Node000016_Node000011" class="edge">
<title>Node16&#45;&gt;Node11</title>
<g id="a_edge19_Node000016_Node000011"><a xlink:title=" ">
<path fill="none" stroke="#63b8ff" d="M658.64,-175.85C667.43,-167.47 680.21,-154.01 688,-140 696.84,-124.11 702.4,-104.05 705.57,-89.66"/>
<polygon fill="#63b8ff" stroke="#63b8ff" points="709.07,-90.02 707.61,-79.53 702.2,-88.64 709.07,-90.02"/>
</a>
</g>
</g>
<!-- Node17 -->
<g id="Node000017" class="node">
<title>Node17</title>
<g id="a_Node000017"><a xlink:href="tensor_i_8_h.html" target="_top" xlink:title=" ">
<polygon fill="white" stroke="#666666" points="679,-140 563,-140 563,-121 679,-121 679,-140"/>
<text text-anchor="middle" x="621" y="-128" font-family="Helvetica,sans-Serif" font-size="10.00">src/core/vs/tensorI.H</text>
</a>
</g>
</g>
<!-- Node16&#45;&gt;Node17 -->
<g id="edge21_Node000016_Node000017" class="edge">
<title>Node16&#45;&gt;Node17</title>
<g id="a_edge21_Node000016_Node000017"><a xlink:title=" ">
<path fill="none" stroke="#63b8ff" d="M639.21,-175.75C633.93,-168.65 628.1,-158.4 624.1,-149.56"/>
<polygon fill="#63b8ff" stroke="#63b8ff" points="627.3,-148.13 620.41,-140.09 620.78,-150.68 627.3,-148.13"/>
</a>
</g>
</g>
<!-- Node17&#45;&gt;Node15 -->
<g id="edge22_Node000017_Node000015" class="edge">
<title>Node17&#45;&gt;Node15</title>
<g id="a_edge22_Node000017_Node000015"><a xlink:title=" ">
<path fill="none" stroke="#63b8ff" d="M621,-120.94C621,-101.91 621,-55.69 621,-29.47"/>
<polygon fill="#63b8ff" stroke="#63b8ff" points="624.5,-29.3 621,-19.3 617.5,-29.3 624.5,-29.3"/>
</a>
</g>
</g>
<!-- Node17&#45;&gt;Node16 -->
<g id="edge23_Node000017_Node000016" class="edge">
<title>Node17&#45;&gt;Node16</title>
<g id="a_edge23_Node000017_Node000016"><a xlink:title=" ">
<path fill="none" stroke="#63b8ff" d="M630.67,-140.09C635.94,-147.14 641.78,-157.37 645.8,-166.24"/>
<polygon fill="#63b8ff" stroke="#63b8ff" points="642.63,-167.72 649.54,-175.75 649.14,-165.16 642.63,-167.72"/>
</a>
</g>
</g>
<!-- Node18 -->
<g id="Node000018" class="node">
<title>Node18</title>
<g id="a_Node000018"><a xlink:href="trig__ops_8_h.html" target="_top" xlink:title=" ">
<polygon fill="white" stroke="#666666" points="593,-85 503,-85 503,-55 593,-55 593,-85"/>
<text text-anchor="start" x="511" y="-73" font-family="Helvetica,sans-Serif" font-size="10.00">src/utilities/trig</text>
<text text-anchor="middle" x="548" y="-62" font-family="Helvetica,sans-Serif" font-size="10.00">_ops.H</text>
</a>
</g>
</g>
<!-- Node17&#45;&gt;Node18 -->
<g id="edge24_Node000017_Node000018" class="edge">
<title>Node17&#45;&gt;Node18</title>
<g id="a_edge24_Node000017_Node000018"><a xlink:title=" ">
<path fill="none" stroke="#63b8ff" d="M610.23,-120.87C600.6,-113.15 586.11,-101.54 573.53,-91.46"/>
<polygon fill="#63b8ff" stroke="#63b8ff" points="575.61,-88.64 565.61,-85.11 571.23,-94.1 575.61,-88.64"/>
</a>
</g>
</g>
<!-- Node18&#45;&gt;Node8 -->
<g id="edge28_Node000018_Node000008" class="edge">
<title>Node18&#45;&gt;Node8</title>
<g id="a_edge28_Node000018_Node000008"><a xlink:title=" ">
<path fill="none" stroke="#63b8ff" d="M593.39,-62.03C608.53,-59.74 625.48,-57.22 641,-55 737.66,-41.17 850.5,-26.09 915.46,-17.52"/>
<polygon fill="#63b8ff" stroke="#63b8ff" points="916.01,-20.98 925.47,-16.2 915.09,-14.04 916.01,-20.98"/>
</a>
</g>
</g>
<!-- Node18&#45;&gt;Node15 -->
<g id="edge25_Node000018_Node000015" class="edge">
<title>Node18&#45;&gt;Node15</title>
<g id="a_edge25_Node000018_Node000015"><a xlink:title=" ">
<path fill="none" stroke="#63b8ff" d="M565.67,-54.84C576.7,-46 590.89,-34.63 602.13,-25.62"/>
<polygon fill="#63b8ff" stroke="#63b8ff" points="604.45,-28.25 610.06,-19.27 600.07,-22.79 604.45,-28.25"/>
</a>
</g>
</g>
<!-- Node19 -->
<g id="Node000019" class="node">
<title>Node19</title>
<g id="a_Node000019"><a xlink:title=" ">
<polygon fill="#e0e0e0" stroke="#999999" points="577.5,-19 518.5,-19 518.5,0 577.5,0 577.5,-19"/>
<text text-anchor="middle" x="548" y="-7" font-family="Helvetica,sans-Serif" font-size="10.00">numbers</text>
</a>
</g>
</g>
<!-- Node18&#45;&gt;Node19 -->
<g id="edge26_Node000018_Node000019" class="edge">
<title>Node18&#45;&gt;Node19</title>
<g id="a_edge26_Node000018_Node000019"><a xlink:title=" ">
<path fill="none" stroke="#63b8ff" d="M548,-54.84C548,-47.21 548,-37.7 548,-29.45"/>
<polygon fill="#63b8ff" stroke="#63b8ff" points="551.5,-29.27 548,-19.27 544.5,-29.27 551.5,-29.27"/>
</a>
</g>
</g>
<!-- Node18&#45;&gt;Node20 -->
<g id="edge27_Node000018_Node000020" class="edge">
<title>Node18&#45;&gt;Node20</title>
<g id="a_edge27_Node000018_Node000020"><a xlink:title=" ">
<path fill="none" stroke="#63b8ff" d="M508,-54.99C479.76,-45.1 442.32,-31.98 415.42,-22.56"/>
<polygon fill="#63b8ff" stroke="#63b8ff" points="416.26,-19.14 405.66,-19.14 413.94,-25.75 416.26,-19.14"/>
</a>
</g>
</g>
<!-- Node25 -->
<g id="Node000025" class="node">
<title>Node25</title>
<g id="a_Node000025"><a xlink:href="_multi_parser_8_h.html" target="_top" xlink:title=" ">
<polygon fill="white" stroke="#666666" points="701,-321.5 579,-321.5 579,-302.5 701,-302.5 701,-321.5"/>
<text text-anchor="middle" x="640" y="-309.5" font-family="Helvetica,sans-Serif" font-size="10.00">src/core/MultiParser.H</text>
</a>
</g>
</g>
<!-- Node24&#45;&gt;Node25 -->
<g id="edge36_Node000024_Node000025" class="edge">
<title>Node24&#45;&gt;Node25</title>
<g id="a_edge36_Node000024_Node000025"><a xlink:title=" ">
<path fill="none" stroke="#63b8ff" d="M977.76,-366.08C912.92,-355.99 813.95,-340.55 728,-327 720.07,-325.75 711.74,-324.43 703.49,-323.12"/>
<polygon fill="#63b8ff" stroke="#63b8ff" points="703.94,-319.65 693.51,-321.54 702.84,-326.56 703.94,-319.65"/>
</a>
</g>
</g>
<!-- Node25&#45;&gt;Node9 -->
<g id="edge37_Node000025_Node000009" class="edge">
<title>Node25&#45;&gt;Node9</title>
<g id="a_edge37_Node000025_Node000009"><a xlink:title=" ">
<path fill="none" stroke="#63b8ff" d="M640,-302.37C640,-294.49 640,-282.45 640,-271.6"/>
<polygon fill="#63b8ff" stroke="#63b8ff" points="643.5,-271.36 640,-261.36 636.5,-271.36 643.5,-271.36"/>
</a>
</g>
</g>
<!-- Node26 -->
<g id="Node000026" class="node">
<title>Node26</title>
<g id="a_Node000026"><a xlink:title=" ">
<polygon fill="#e0e0e0" stroke="#999999" points="491.5,-255.5 372.5,-255.5 372.5,-236.5 491.5,-236.5 491.5,-255.5"/>
<text text-anchor="middle" x="432" y="-243.5" font-family="Helvetica,sans-Serif" font-size="10.00">AMReX_ParmParse.H</text>
</a>
</g>
</g>
<!-- Node25&#45;&gt;Node26 -->
<g id="edge38_Node000025_Node000026" class="edge">
<title>Node25&#45;&gt;Node26</title>
<g id="a_edge38_Node000025_Node000026"><a xlink:title=" ">
<path fill="none" stroke="#63b8ff" d="M611.95,-302.37C575.17,-291.05 510.53,-271.16 469.56,-258.56"/>
<polygon fill="#63b8ff" stroke="#63b8ff" points="470.53,-255.19 459.94,-255.6 468.47,-261.88 470.53,-255.19"/>
</a>
</g>
</g>
<!-- Node27&#45;&gt;Node20 -->
<g id="edge45_Node000027_Node000020" class="edge">
<title>Node27&#45;&gt;Node20</title>
<g id="a_edge45_Node000027_Node000020"><a xlink:title=" ">
<path fill="none" stroke="#63b8ff" d="M242.77,-438.46C180.6,-432.06 82.93,-418.24 57,-393 30.81,-367.51 38,-349.54 38,-313 38,-313 38,-313 38,-129.5 38,-69.54 227.47,-32.97 324.77,-18.15"/>
<polygon fill="#63b8ff" stroke="#63b8ff" points="325.37,-21.6 334.74,-16.66 324.33,-14.67 325.37,-21.6"/>
</a>
</g>
</g>
<!-- Node28 -->
<g id="Node000028" class="node">
<title>Node28</title>
<g id="a_Node000028"><a xlink:title=" ">
<polygon fill="#e0e0e0" stroke="#999999" points="456,-387.5 412,-387.5 412,-368.5 456,-368.5 456,-387.5"/>
<text text-anchor="middle" x="434" y="-375.5" font-family="Helvetica,sans-Serif" font-size="10.00">string</text>
</a>
</g>
</g>
<!-- Node27&#45;&gt;Node28 -->
<g id="edge40_Node000027_Node000028" class="edge">
<title>Node27&#45;&gt;Node28</title>
<g id="a_edge40_Node000027_Node000028"><a xlink:title=" ">
<path fill="none" stroke="#63b8ff" d="M326.28,-428.95C350.17,-417.88 383.2,-402.56 406.36,-391.82"/>
<polygon fill="#63b8ff" stroke="#63b8ff" points="408.04,-394.9 415.63,-387.52 405.09,-388.55 408.04,-394.9"/>
</a>
</g>
</g>
<!-- Node29 -->
<g id="Node000029" class="node">
<title>Node29</title>
<g id="a_Node000029"><a xlink:title=" ">
<polygon fill="#e0e0e0" stroke="#999999" points="254.5,-387.5 161.5,-387.5 161.5,-368.5 254.5,-368.5 254.5,-387.5"/>
<text text-anchor="middle" x="208" y="-375.5" font-family="Helvetica,sans-Serif" font-size="10.00">unordered_map</text>
</a>
</g>
</g>
<!-- Node27&#45;&gt;Node29 -->
<g id="edge41_Node000027_Node000029" class="edge">
<title>Node27&#45;&gt;Node29</title>
<g id="a_edge41_Node000027_Node000029"><a xlink:title=" ">
<path fill="none" stroke="#63b8ff" d="M276.47,-428.8C262.13,-418.37 242.7,-404.24 228.21,-393.69"/>
<polygon fill="#63b8ff" stroke="#63b8ff" points="230.05,-390.71 219.91,-387.66 225.93,-396.37 230.05,-390.71"/>
</a>
</g>
</g>
<!-- Node30 -->
<g id="Node000030" class="node">
<title>Node30</title>
<g id="a_Node000030"><a xlink:title=" ">
<polygon fill="#e0e0e0" stroke="#999999" points="319.5,-387.5 272.5,-387.5 272.5,-368.5 319.5,-368.5 319.5,-387.5"/>
<text text-anchor="middle" x="296" y="-375.5" font-family="Helvetica,sans-Serif" font-size="10.00">vector</text>
</a>
</g>
</g>
<!-- Node27&#45;&gt;Node30 -->
<g id="edge42_Node000027_Node000030" class="edge">
<title>Node27&#45;&gt;Node30</title>
<g id="a_edge42_Node000027_Node000030"><a xlink:title=" ">
<path fill="none" stroke="#63b8ff" d="M296,-428.8C296,-419.7 296,-407.79 296,-397.9"/>
<polygon fill="#63b8ff" stroke="#63b8ff" points="299.5,-397.84 296,-387.84 292.5,-397.84 299.5,-397.84"/>
</a>
</g>
</g>
<!-- Node31 -->
<g id="Node000031" class="node">
<title>Node31</title>
<g id="a_Node000031"><a xlink:title=" ">
<polygon fill="#e0e0e0" stroke="#999999" points="394,-387.5 338,-387.5 338,-368.5 394,-368.5 394,-387.5"/>
<text text-anchor="middle" x="366" y="-375.5" font-family="Helvetica,sans-Serif" font-size="10.00">netcdf.h</text>
</a>
</g>
</g>
<!-- Node27&#45;&gt;Node31 -->
<g id="edge43_Node000027_Node000031" class="edge">
<title>Node27&#45;&gt;Node31</title>
<g id="a_edge43_Node000027_Node000031"><a xlink:title=" ">
<path fill="none" stroke="#63b8ff" d="M311.54,-428.8C322.56,-418.72 337.35,-405.19 348.74,-394.78"/>
<polygon fill="#63b8ff" stroke="#63b8ff" points="351.31,-397.18 356.33,-387.84 346.58,-392.01 351.31,-397.18"/>
</a>
</g>
</g>
<!-- Node32 -->
<g id="Node000032" class="node">
<title>Node32</title>
<g id="a_Node000032"><a xlink:title=" ">
<polygon fill="#e0e0e0" stroke="#999999" points="143.5,-387.5 66.5,-387.5 66.5,-368.5 143.5,-368.5 143.5,-387.5"/>
<text text-anchor="middle" x="105" y="-375.5" font-family="Helvetica,sans-Serif" font-size="10.00">netcdf_par.h</text>
</a>
</g>
</g>
<!-- Node27&#45;&gt;Node32 -->
<g id="edge44_Node000027_Node000032" class="edge">
<title>Node27&#45;&gt;Node32</title>
<g id="a_edge44_Node000027_Node000032"><a xlink:title=" ">
<path fill="none" stroke="#63b8ff" d="M254.08,-428.95C220,-417.53 172.45,-401.6 140.28,-390.82"/>
<polygon fill="#63b8ff" stroke="#63b8ff" points="141.01,-387.38 130.42,-387.52 138.79,-394.01 141.01,-387.38"/>
</a>
</g>
</g>
<!-- Node33&#45;&gt;Node7 -->
<g id="edge52_Node000033_Node000007" class="edge">
<title>Node33&#45;&gt;Node7</title>
<g id="a_edge52_Node000033_Node000007"><a xlink:title=" ">
<path fill="none" stroke="#63b8ff" d="M667.54,-437.63C747.58,-429.77 885.12,-413.75 931,-393 936.21,-390.64 1085.03,-265.11 1089,-261 1106.71,-242.67 1124.3,-219.12 1135.39,-203.46"/>
<polygon fill="#63b8ff" stroke="#63b8ff" points="1138.27,-205.45 1141.11,-195.25 1132.52,-201.45 1138.27,-205.45"/>
</a>
</g>
</g>
<!-- Node33&#45;&gt;Node28 -->
<g id="edge49_Node000033_Node000028" class="edge">
<title>Node33&#45;&gt;Node28</title>
<g id="a_edge49_Node000033_Node000028"><a xlink:title=" ">
<path fill="none" stroke="#63b8ff" d="M581.39,-434.47C552.47,-425.03 505.05,-409.01 465,-393 463.83,-392.53 462.64,-392.04 461.43,-391.54"/>
<polygon fill="#63b8ff" stroke="#63b8ff" points="462.81,-388.33 452.24,-387.56 460.03,-394.75 462.81,-388.33"/>
</a>
</g>
</g>
<!-- Node34 -->
<g id="Node000034" class="node">
<title>Node34</title>
<g id="a_Node000034"><a xlink:title=" ">
<polygon fill="#e0e0e0" stroke="#999999" points="764,-387.5 714,-387.5 714,-368.5 764,-368.5 764,-387.5"/>
<text text-anchor="middle" x="739" y="-375.5" font-family="Helvetica,sans-Serif" font-size="10.00">chrono</text>
</a>
</g>
</g>
<!-- Node33&#45;&gt;Node34 -->
<g id="edge47_Node000033_Node000034" class="edge">
<title>Node33&#45;&gt;Node34</title>
<g id="a_edge47_Node000033_Node000034"><a xlink:title=" ">
<path fill="none" stroke="#63b8ff" d="M625.67,-434.37C647.84,-423.54 686.08,-404.85 711.95,-392.22"/>
<polygon fill="#63b8ff" stroke="#63b8ff" points="713.75,-395.23 721.19,-387.7 710.67,-388.94 713.75,-395.23"/>
</a>
</g>
</g>
<!-- Node35 -->
<g id="Node000035" class="node">
<title>Node35</title>
<g id="a_Node000035"><a xlink:title=" ">
<polygon fill="#e0e0e0" stroke="#999999" points="518,-387.5 474,-387.5 474,-368.5 518,-368.5 518,-387.5"/>
<text text-anchor="middle" x="496" y="-375.5" font-family="Helvetica,sans-Serif" font-size="10.00">ctime</text>
</a>
</g>
</g>
<!-- Node33&#45;&gt;Node35 -->
<g id="edge48_Node000033_Node000035" class="edge">
<title>Node33&#45;&gt;Node35</title>
<g id="a_edge48_Node000033_Node000035"><a xlink:title=" ">
<path fill="none" stroke="#63b8ff" d="M592.9,-434.37C574.19,-423.68 542.1,-405.35 520.01,-392.72"/>
<polygon fill="#63b8ff" stroke="#63b8ff" points="521.64,-389.62 511.22,-387.7 518.17,-395.7 521.64,-389.62"/>
</a>
</g>
</g>
<!-- Node36 -->
<g id="Node000036" class="node">
<title>Node36</title>
<g id="a_Node000036"><a xlink:title=" ">
<polygon fill="#e0e0e0" stroke="#999999" points="592,-387.5 536,-387.5 536,-368.5 592,-368.5 592,-387.5"/>
<text text-anchor="middle" x="564" y="-375.5" font-family="Helvetica,sans-Serif" font-size="10.00">sstream</text>
</a>
</g>
</g>
<!-- Node33&#45;&gt;Node36 -->
<g id="edge50_Node000033_Node000036" class="edge">
<title>Node33&#45;&gt;Node36</title>
<g id="a_edge50_Node000033_Node000036"><a xlink:title=" ">
<path fill="none" stroke="#63b8ff" d="M602.07,-434.37C595.41,-424.69 584.44,-408.74 575.99,-396.44"/>
<polygon fill="#63b8ff" stroke="#63b8ff" points="578.67,-394.16 570.12,-387.91 572.9,-398.13 578.67,-394.16"/>
</a>
</g>
</g>
<!-- Node37 -->
<g id="Node000037" class="node">
<title>Node37</title>
<g id="a_Node000037"><a xlink:title=" ">
<polygon fill="#e0e0e0" stroke="#999999" points="696,-387.5 610,-387.5 610,-368.5 696,-368.5 696,-387.5"/>
<text text-anchor="middle" x="653" y="-375.5" font-family="Helvetica,sans-Serif" font-size="10.00">unordered_set</text>
</a>
</g>
</g>
<!-- Node33&#45;&gt;Node37 -->
<g id="edge51_Node000033_Node000037" class="edge">
<title>Node33&#45;&gt;Node37</title>
<g id="a_edge51_Node000033_Node000037"><a xlink:title=" ">
<path fill="none" stroke="#63b8ff" d="M614.07,-434.37C620.87,-424.69 632.09,-408.74 640.74,-396.44"/>
<polygon fill="#63b8ff" stroke="#63b8ff" points="643.85,-398.1 646.74,-387.91 638.12,-394.07 643.85,-398.1"/>
</a>
</g>
</g>
<!-- Node38&#45;&gt;Node4 -->
<g id="edge55_Node000038_Node000004" class="edge">
<title>Node38&#45;&gt;Node4</title>
<g id="a_edge55_Node000038_Node000004"><a xlink:title=" ">
<path fill="none" stroke="#63b8ff" d="M1154.61,-428.78C1163.99,-411.24 1175.71,-381.47 1160,-363 1131.3,-329.27 1013.62,-318.23 932.33,-314.65"/>
<polygon fill="#63b8ff" stroke="#63b8ff" points="932.24,-311.15 922.11,-314.24 931.95,-318.14 932.24,-311.15"/>
</a>
</g>
</g>
<!-- Node38&#45;&gt;Node20 -->
<g id="edge57_Node000038_Node000020" class="edge">
<title>Node38&#45;&gt;Node20</title>
<g id="a_edge57_Node000038_Node000020"><a xlink:title=" ">
<path fill="none" stroke="#63b8ff" d="M1147.14,-428.99C1147.77,-410.8 1145.79,-379.46 1127,-363 1067.53,-310.89 849.15,-348.31 773,-327 743.13,-318.64 739.36,-306.98 710,-297 637.7,-272.42 604.79,-304.45 542,-261 454.63,-200.54 403.78,-75.7 387.12,-28.82"/>
<polygon fill="#63b8ff" stroke="#63b8ff" points="390.34,-27.44 383.77,-19.13 383.73,-29.72 390.34,-27.44"/>
</a>
</g>
</g>
<!-- Node38&#45;&gt;Node24 -->
<g id="edge56_Node000038_Node000024" class="edge">
<title>Node38&#45;&gt;Node24</title>
<g id="a_edge56_Node000038_Node000024"><a xlink:title=" ">
<path fill="none" stroke="#63b8ff" d="M1124.25,-428.8C1110.67,-419.93 1093.01,-408.39 1078.1,-398.66"/>
<polygon fill="#63b8ff" stroke="#63b8ff" points="1079.98,-395.7 1069.69,-393.16 1076.15,-401.56 1079.98,-395.7"/>
</a>
</g>
</g>
<!-- Node39 -->
<g id="Node000039" class="node">
<title>Node39</title>
<g id="a_Node000039"><a xlink:title=" ">
<polygon fill="#e0e0e0" stroke="#999999" points="1262,-387.5 1212,-387.5 1212,-368.5 1262,-368.5 1262,-387.5"/>
<text text-anchor="middle" x="1237" y="-375.5" font-family="Helvetica,sans-Serif" font-size="10.00">cstdint</text>
</a>
</g>
</g>
<!-- Node38&#45;&gt;Node39 -->
<g id="edge54_Node000038_Node000039" class="edge">
<title>Node38&#45;&gt;Node39</title>
<g id="a_edge54_Node000038_Node000039"><a xlink:title=" ">
<path fill="none" stroke="#63b8ff" d="M1166.2,-428.8C1181.03,-418.37 1201.11,-404.24 1216.11,-393.69"/>
<polygon fill="#63b8ff" stroke="#63b8ff" points="1218.52,-396.27 1224.69,-387.66 1214.5,-390.55 1218.52,-396.27"/>
</a>
</g>
</g>
</g>
</svg>

<g id="navigator" transform="translate(0 0)" fill="#404254">
  <rect fill="#f2f5e9" fill-opacity="0.5" stroke="#606060" stroke-width=".5" x="0" y="0" width="60" height="60"/>
  <use id="zoomplus" xlink:href="#zoomPlus" x="17" y="9" onmousedown="handleZoom(evt,'in')"/>
  <use id="zoomminus" xlink:href="#zoomMin" x="42" y="9" onmousedown="handleZoom(evt,'out')"/>
  <use id="reset" xlink:href="#resetDef" x="30" y="36" onmousedown="handleReset()"/>
   <use id="arrowup" xlink:href="#arrowUp" x="0" y="0" onmousedown="handlePan(0,-1)"/>
  <use id="arrowright" xlink:href="#arrowRight" x="0" y="0" onmousedown="handlePan(1,0)"/>
  <use id="arrowdown" xlink:href="#arrowDown" x="0" y="0" onmousedown="handlePan(0,1)"/>
  <use id="arrowleft" xlink:href="#arrowLeft" x="0" y="0" onmousedown="handlePan(-1,0)"/>
</g>
<svg viewBox="0 0 15 15" width="100%" height="30px" preserveAspectRatio="xMaxYMin meet">
 <g id="arrow_out" transform="scale(0.3 0.3)">
  <a xlink:href="turbine__utils_8cpp__incl_org.svg" target="_base">
   <rect id="button" ry="5" rx="5" y="6" x="6" height="38" width="38"
        fill="#f2f5e9" fill-opacity="0.5" stroke="#606060" stroke-width="1.0"/>
   <path id="arrow"
     d="M 11.500037,31.436501 C 11.940474,20.09759 22.043105,11.32322 32.158766,21.979434 L 37.068811,17.246167 C 37.068811,17.246167 37.088388,32 37.088388,32 L 22.160133,31.978069 C 22.160133,31.978069 26.997745,27.140456 26.997745,27.140456 C 18.528582,18.264221 13.291696,25.230495 11.500037,31.436501 z"
     style="fill:#404040;"/>
  </a>
 </g>
</svg>

<style type='text/css'>
<![CDATA[
[data-mouse-over-selected='false'] { opacity: 0.7; }
[data-mouse-over-selected='true']  { opacity: 1.0; }
]]>
</style>
<script type="application/ecmascript"><![CDATA[
document.addEventListener('DOMContentLoaded', (event) => {
  highlightEdges();
  highlightAdjacentNodes();
});
]]></script>
</svg>
