<?xml version="1.0" encoding="UTF-8" standalone="no"?>
<!DOCTYPE svg PUBLIC "-//W3C//DTD SVG 1.1//EN"
 "http://www.w3.org/Graphics/SVG/1.1/DTD/svg11.dtd">
<!-- Generated by graphviz version 2.43.0 (0)
 -->
<!-- Title: /home/runner/work/amr&#45;wind/amr&#45;wind/src/equation_systems/vof/vof.H Pages: 1 -->
<svg width="537pt" height="203pt"
 viewBox="0.00 0.00 537.12 203.00" xmlns="http://www.w3.org/2000/svg" xmlns:xlink="http://www.w3.org/1999/xlink">
<g id="graph0" class="graph" transform="scale(1 1) rotate(0) translate(4 199)">
<title>/home/runner/work/amr&#45;wind/amr&#45;wind/src/equation_systems/vof/vof.H</title>
<!-- Node1 -->
<g id="Node000001" class="node">
<title>Node1</title>
<g id="a_Node000001"><a xlink:title=" ">
<polygon fill="#999999" stroke="#666666" points="266.12,-195 110.12,-195 110.12,-154 266.12,-154 266.12,-195"/>
<text text-anchor="start" x="118.12" y="-183" font-family="Helvetica,sans-Serif" font-size="10.00">/home/runner/work/amr</text>
<text text-anchor="start" x="118.12" y="-172" font-family="Helvetica,sans-Serif" font-size="10.00">&#45;wind/amr&#45;wind/src/equation</text>
<text text-anchor="middle" x="188.12" y="-161" font-family="Helvetica,sans-Serif" font-size="10.00">_systems/vof/vof.H</text>
</a>
</g>
</g>
<!-- Node2 -->
<g id="Node000002" class="node">
<title>Node2</title>
<g id="a_Node000002"><a xlink:href="vof_8cpp.html" target="_top" xlink:title=" ">
<polygon fill="white" stroke="#666666" points="266.12,-41 110.12,-41 110.12,0 266.12,0 266.12,-41"/>
<text text-anchor="start" x="118.12" y="-29" font-family="Helvetica,sans-Serif" font-size="10.00">/home/runner/work/amr</text>
<text text-anchor="start" x="118.12" y="-18" font-family="Helvetica,sans-Serif" font-size="10.00">&#45;wind/amr&#45;wind/src/equation</text>
<text text-anchor="middle" x="188.12" y="-7" font-family="Helvetica,sans-Serif" font-size="10.00">_systems/vof/vof.cpp</text>
</a>
</g>
</g>
<!-- Node1&#45;&gt;Node2 -->
<g id="edge1_Node000001_Node000002" class="edge">
<title>Node1&#45;&gt;Node2</title>
<g id="a_edge1_Node000001_Node000002"><a xlink:title=" ">
<path fill="none" stroke="#63b8ff" d="M99.8,-168.11C65.5,-161.17 29.42,-146.86 8.12,-118 -2.71,-103.34 -2.71,-91.66 8.12,-77 31.52,-45.3 72.77,-31.14 109.88,-25.04"/>
<polygon fill="#63b8ff" stroke="#63b8ff" points="99.42,-171.6 109.88,-169.96 100.68,-164.72 99.42,-171.6"/>
</a>
</g>
</g>
<!-- Node3 -->
<g id="Node000003" class="node">
<title>Node3</title>
<g id="a_Node000003"><a xlink:href="vof__advection_8_h.html" target="_top" xlink:title=" ">
<polygon fill="white" stroke="#666666" points="181.12,-118 17.12,-118 17.12,-77 181.12,-77 181.12,-118"/>
<text text-anchor="start" x="25.12" y="-106" font-family="Helvetica,sans-Serif" font-size="10.00">/home/runner/work/amr</text>
<text text-anchor="start" x="25.12" y="-95" font-family="Helvetica,sans-Serif" font-size="10.00">&#45;wind/amr&#45;wind/src/equation</text>
<text text-anchor="middle" x="99.12" y="-84" font-family="Helvetica,sans-Serif" font-size="10.00">_systems/vof/vof_advection.H</text>
</a>
</g>
</g>
<!-- Node1&#45;&gt;Node3 -->
<g id="edge2_Node000001_Node000003" class="edge">
<title>Node1&#45;&gt;Node3</title>
<g id="a_edge2_Node000001_Node000003"><a xlink:title=" ">
<path fill="none" stroke="#63b8ff" d="M157.08,-147.35C145.67,-137.73 132.95,-127.01 122.34,-118.07"/>
<polygon fill="#63b8ff" stroke="#63b8ff" points="154.83,-150.03 164.73,-153.79 159.34,-144.67 154.83,-150.03"/>
</a>
</g>
</g>
<!-- Node4 -->
<g id="Node000004" class="node">
<title>Node4</title>
<g id="a_Node000004"><a xlink:href="vof__bcop_8_h.html" target="_top" xlink:title=" ">
<polygon fill="white" stroke="#666666" points="355.12,-118 199.12,-118 199.12,-77 355.12,-77 355.12,-118"/>
<text text-anchor="start" x="207.12" y="-106" font-family="Helvetica,sans-Serif" font-size="10.00">/home/runner/work/amr</text>
<text text-anchor="start" x="207.12" y="-95" font-family="Helvetica,sans-Serif" font-size="10.00">&#45;wind/amr&#45;wind/src/equation</text>
<text text-anchor="middle" x="277.12" y="-84" font-family="Helvetica,sans-Serif" font-size="10.00">_systems/vof/vof_bcop.H</text>
</a>
</g>
</g>
<!-- Node1&#45;&gt;Node4 -->
<g id="edge4_Node000001_Node000004" class="edge">
<title>Node1&#45;&gt;Node4</title>
<g id="a_edge4_Node000001_Node000004"><a xlink:title=" ">
<path fill="none" stroke="#63b8ff" d="M219.15,-147.35C230.56,-137.73 243.28,-127.01 253.89,-118.07"/>
<polygon fill="#63b8ff" stroke="#63b8ff" points="216.89,-144.67 211.5,-153.79 221.4,-150.03 216.89,-144.67"/>
</a>
</g>
</g>
<!-- Node5 -->
<g id="Node000005" class="node">
<title>Node5</title>
<g id="a_Node000005"><a xlink:href="vof__ops_8_h.html" target="_top" xlink:title=" ">
<polygon fill="white" stroke="#666666" points="529.12,-118 373.12,-118 373.12,-77 529.12,-77 529.12,-118"/>
<text text-anchor="start" x="381.12" y="-106" font-family="Helvetica,sans-Serif" font-size="10.00">/home/runner/work/amr</text>
<text text-anchor="start" x="381.12" y="-95" font-family="Helvetica,sans-Serif" font-size="10.00">&#45;wind/amr&#45;wind/src/equation</text>
<text text-anchor="middle" x="451.12" y="-84" font-family="Helvetica,sans-Serif" font-size="10.00">_systems/vof/vof_ops.H</text>
</a>
</g>
</g>
<!-- Node1&#45;&gt;Node5 -->
<g id="edge6_Node000001_Node000005" class="edge">
<title>Node1&#45;&gt;Node5</title>
<g id="a_edge6_Node000001_Node000005"><a xlink:title=" ">
<path fill="none" stroke="#63b8ff" d="M266.26,-151.21C303.22,-140.68 346.94,-128.21 382.59,-118.04"/>
<polygon fill="#63b8ff" stroke="#63b8ff" points="265.19,-147.88 256.53,-153.99 267.11,-154.61 265.19,-147.88"/>
</a>
</g>
</g>
<!-- Node3&#45;&gt;Node2 -->
<g id="edge3_Node000003_Node000002" class="edge">
<title>Node3&#45;&gt;Node2</title>
<g id="a_edge3_Node000003_Node000002"><a xlink:title=" ">
<path fill="none" stroke="#63b8ff" d="M130.15,-70.35C141.56,-60.73 154.28,-50.01 164.89,-41.07"/>
<polygon fill="#63b8ff" stroke="#63b8ff" points="127.89,-67.67 122.5,-76.79 132.4,-73.03 127.89,-67.67"/>
</a>
</g>
</g>
<!-- Node4&#45;&gt;Node2 -->
<g id="edge5_Node000004_Node000002" class="edge">
<title>Node4&#45;&gt;Node2</title>
<g id="a_edge5_Node000004_Node000002"><a xlink:title=" ">
<path fill="none" stroke="#63b8ff" d="M246.08,-70.35C234.67,-60.73 221.95,-50.01 211.34,-41.07"/>
<polygon fill="#63b8ff" stroke="#63b8ff" points="243.83,-73.03 253.73,-76.79 248.34,-67.67 243.83,-73.03"/>
</a>
</g>
</g>
<!-- Node5&#45;&gt;Node2 -->
<g id="edge7_Node000005_Node000002" class="edge">
<title>Node5&#45;&gt;Node2</title>
<g id="a_edge7_Node000005_Node000002"><a xlink:title=" ">
<path fill="none" stroke="#63b8ff" d="M372.97,-74.21C336.01,-63.68 292.29,-51.21 256.64,-41.04"/>
<polygon fill="#63b8ff" stroke="#63b8ff" points="372.13,-77.61 382.7,-76.99 374.05,-70.88 372.13,-77.61"/>
</a>
</g>
</g>
</g>
</svg>
